# https://github.com/mikedh/trimesh
mtllib mtl_cabinet_door_4
usemtl mtl_cabinet_door_4
v 0.30148873 0.00317500 0.16509999
v 0.30148873 0.00000000 0.16509999
v 0.30148873 0.00000000 0.00000000
v 0.27806398 0.00000000 0.13821694
v 0.30148873 0.00317500 0.00000000
v 0.29978877 0.00000000 -0.00634738
v 0.00169996 0.00000000 -0.00634738
v 0.00000000 0.00000000 0.00000000
v 0.30148873 0.00317500 0.33019999
v 0.30148873 0.00000000 0.33019999
v 0.27899390 0.00000000 0.18973801
v 0.27899390 0.00000000 0.14046200
v 0.29978877 0.00317500 0.33654737
v 0.00000000 0.00000000 0.33019999
v 0.00000000 0.00000000 0.16509999
v 0.21079491 0.00000000 0.19291300
v 0.29978877 0.00000000 0.33654737
v 0.27806398 0.00000000 0.19198306
v 0.27581891 0.00000000 0.19291300
v 0.27806398 0.00317500 0.19198306
v 0.00169996 0.00317500 0.33654737
v 0.00000000 0.00317500 0.33019999
v 0.27899390 0.00317500 0.14046200
v 0.27899390 0.00317500 0.18973801
v 0.29978877 0.00317500 -0.00634738
v 0.00000000 0.00317500 0.16509999
v 0.00000000 0.00317500 0.00000000
v 0.21079491 0.00317500 0.13728701
v 0.27806398 0.00317500 0.13821694
v 0.27581891 0.00317500 0.13728701
v 0.00372121 0.00000000 -0.00898172
v 0.29777047 0.00000000 -0.00897879
v 0.00635262 0.00000000 -0.01100003
v 0.29513612 0.00000000 -0.01100004
v 0.29776752 0.00317500 -0.00898172
v 0.15074436 0.00000000 -0.01270000
v 0.28878874 0.00000000 -0.01270000
v 0.29513612 0.00317500 -0.01100003
v 0.01270000 0.00000000 -0.01270000
v 0.28878874 0.00317500 -0.01270000
v 0.15074436 0.00317500 -0.01270000
v 0.01270000 0.00317500 -0.01270000
v 0.00635262 0.00317500 -0.01100004
v 0.00371828 0.00317500 -0.00897879
v 0.00169997 0.00317500 -0.00634738
v 0.20761991 0.00000000 0.14046200
v 0.27581891 0.00000000 0.13728701
v 0.21079491 0.00000000 0.13728701
v 0.20854984 0.00000000 0.13821694
v 0.20854984 0.00000000 0.19198306
v 0.20761991 0.00000000 0.18973801
v 0.00169997 0.00000000 0.33654737
v 0.29776752 0.00000000 0.33918172
v 0.00371828 0.00000000 0.33917880
v 0.29513612 0.00000000 0.34120002
v 0.00635262 0.00000000 0.34120002
v 0.00372121 0.00317500 0.33918172
v 0.15074436 0.00000000 0.34290001
v 0.01270000 0.00000000 0.34290001
v 0.00635262 0.00317500 0.34120002
v 0.28878874 0.00000000 0.34290001
v 0.01270000 0.00317500 0.34290001
v 0.15074436 0.00317500 0.34290001
v 0.28878874 0.00317500 0.34290001
v 0.29513612 0.00317500 0.34120002
v 0.29777047 0.00317500 0.33917880
v 0.27581891 0.00317500 0.19291300
v 0.21079491 0.00317500 0.19291300
v 0.20854984 0.00317500 0.19198306
v 0.20761991 0.00317500 0.18973801
v 0.20761991 0.00317500 0.14046200
v 0.20854984 0.00317500 0.13821694
f 1 2 3
f 4 3 2
f 5 1 3
f 6 5 3
f 7 6 3
f 8 7 3
f 4 8 3
f 9 10 2
f 11 2 10
f 1 9 2
f 12 4 2
f 11 12 2
f 13 10 9
f 14 15 10
f 16 10 15
f 17 14 10
f 13 17 10
f 18 11 10
f 19 18 10
f 16 19 10
f 20 9 1
f 21 13 9
f 21 9 22
f 20 22 9
f 23 1 5
f 23 24 1
f 20 1 24
f 25 5 6
f 26 5 27
f 25 27 5
f 28 5 26
f 29 23 5
f 30 29 5
f 28 30 5
f 31 32 6
f 25 6 32
f 7 31 6
f 33 34 32
f 35 32 34
f 31 33 32
f 35 25 32
f 36 37 34
f 38 34 37
f 39 36 34
f 33 39 34
f 38 35 34
f 40 37 36
f 38 37 40
f 41 36 39
f 41 40 36
f 42 39 33
f 41 39 42
f 43 33 31
f 43 42 33
f 44 31 7
f 44 43 31
f 45 7 8
f 45 44 7
f 46 15 8
f 27 8 15
f 4 47 8
f 48 8 47
f 49 46 8
f 48 49 8
f 45 8 27
f 26 15 14
f 50 16 15
f 51 50 15
f 46 51 15
f 26 27 15
f 17 52 14
f 22 14 52
f 26 14 22
f 53 54 52
f 21 52 54
f 17 53 52
f 21 22 52
f 55 56 54
f 57 54 56
f 53 55 54
f 57 21 54
f 58 59 56
f 60 56 59
f 61 58 56
f 55 61 56
f 60 57 56
f 62 59 58
f 60 59 62
f 63 58 61
f 63 62 58
f 64 61 55
f 63 61 64
f 65 55 53
f 65 64 55
f 66 53 17
f 66 65 53
f 13 66 17
f 30 47 4
f 28 48 47
f 28 47 30
f 29 4 12
f 30 4 29
f 23 12 11
f 29 12 23
f 24 11 18
f 23 11 24
f 20 18 19
f 20 24 18
f 67 19 16
f 20 19 67
f 68 16 50
f 67 16 68
f 69 50 51
f 68 50 69
f 70 51 46
f 69 51 70
f 71 46 49
f 70 46 71
f 72 49 48
f 71 49 72
f 72 48 28
f 63 64 65
f 60 65 66
f 63 65 62
f 60 62 65
f 57 66 13
f 60 66 57
f 57 13 21
f 70 26 22
f 69 70 22
f 68 69 22
f 67 68 22
f 20 67 22
f 25 45 27
f 72 28 26
f 71 72 26
f 70 71 26
f 41 42 43
f 38 43 44
f 41 43 40
f 38 40 43
f 35 44 45
f 38 44 35
f 35 45 25
