# https://github.com/mikedh/trimesh
mtllib mtl_clr_carriage

o clr_carriage_004-mesh
usemtl material_clr_carriage_0
v 0.20149989 -0.02549999 0.00000000
v 0.20149989 -0.20250000 0.00000000
v 0.06250000 -0.20250000 0.00000000
v 0.06250000 -0.20250000 0.04499995
v 0.06250000 -0.20250000 0.00000000
v 0.20149989 -0.20250000 0.00000000
v 0.16350000 -0.02549999 0.00000000
v 0.16350000 0.15750000 0.00000000
v 0.09489995 0.15750000 0.00000000
v 0.09489995 0.20149989 0.00000000
v 0.01749998 -0.15750000 0.00000000
v 0.01749998 -0.15750000 0.04499995
v 0.01749998 -0.15750000 0.00000000
v 0.06250000 -0.20250000 0.00000000
v 0.06250000 -0.20250000 0.04499995
v 0.20149989 -0.20250000 0.00599998
v 0.20149989 -0.20250000 0.00000000
v 0.20149989 -0.02549999 0.00000000
v 0.16249999 -0.20250000 0.04499995
v 0.20149989 -0.20250000 0.00599998
v 0.16350000 -0.02549999 0.04399996
v 0.20149989 -0.02549999 0.00000000
v 0.16350000 -0.02549999 0.00000000
v 0.20149989 -0.02549999 0.00599998
v 0.20149989 -0.02549999 0.00599998
v 0.16350000 -0.02549999 0.04399996
v 0.16350000 -0.02549999 0.00000000
v 0.16350000 0.15750000 0.00000000
v 0.16350000 0.15750000 0.04499995
v 0.16350000 0.15750000 0.00000000
v 0.09489995 0.15750000 0.00000000
v 0.16350000 -0.02549999 0.04499995
v 0.16350000 0.15750000 0.04499995
v 0.09489995 0.15750000 0.04399996
v 0.09489995 0.15750000 0.00000000
v 0.09489995 0.20149989 0.00000000
v 0.09489995 0.15750000 0.04399996
v -0.08209997 0.15750000 0.00000000
v -0.08209997 0.20149989 0.00000000
v 0.09489995 0.20149989 0.00599998
v 0.09489995 0.20149989 0.00000000
v -0.08209997 0.20149989 0.00000000
v -0.06250000 -0.20250000 0.00000000
v -0.01749998 -0.15750000 0.00000000
v 0.09489995 0.16350000 0.04399996
v 0.09489995 0.20149989 0.00599998
v -0.08209997 0.20149989 0.00599998
v -0.08209997 0.20149989 0.00000000
v -0.08209997 0.15750000 0.00000000
v -0.08209997 0.20149989 0.00599998
v -0.20649990 0.06650000 0.00000000
v -0.20649990 0.15750000 0.00000000
v -0.08209997 0.15750000 0.04399996
v -0.08209997 0.15750000 0.00000000
v -0.20649990 0.15750000 0.00000000
v -0.15750000 0.01749998 0.00000000
v -0.15750000 -0.02549999 0.00000000
v -0.20149989 -0.20250000 0.00000000
v -0.08209997 0.16350000 0.04399996
v -0.08209997 0.15750000 0.04399996
v -0.20649990 0.15750000 0.06250000
v -0.20649990 0.15750000 0.00000000
v -0.20649990 0.06650000 0.00000000
v -0.15750000 0.15750000 0.06250000
v -0.20649990 0.15750000 0.06250000
v -0.15750000 0.15750000 0.04499995
v -0.20649990 0.06650000 0.04499995
v -0.20649990 0.06650000 0.00000000
v -0.15750000 0.01749998 0.00000000
v -0.20649990 0.11250000 0.09499996
v -0.20649990 0.06650000 0.04499995
v -0.20649990 0.15750000 0.15750000
v -0.15750000 -0.02549999 0.04499995
v -0.15750000 0.01749998 0.00000000
v -0.15750000 -0.02549999 0.00000000
v -0.15750000 0.01749998 0.04499995
v -0.20250000 0.06250000 0.04499995
v -0.15750000 0.01749998 0.04499995
v -0.20149989 -0.02549999 0.00000000
v -0.20149989 -0.02549999 0.00599998
v -0.15750000 -0.02549999 0.00000000
v -0.20149989 -0.02549999 0.00000000
v -0.16249999 -0.02549999 0.04499995
v -0.15750000 -0.02549999 0.04499995
v -0.20149989 -0.02549999 0.00599998
v -0.20149989 -0.02549999 0.00000000
v -0.20149989 -0.20250000 0.00000000
v -0.20149989 -0.20250000 0.00599998
v -0.20149989 -0.20250000 0.00000000
v -0.06250000 -0.20250000 0.00000000
v -0.20149989 -0.20250000 0.00599998
v -0.06250000 -0.20250000 0.04499995
v -0.06250000 -0.20250000 0.00000000
v -0.01749998 -0.15750000 0.00000000
v -0.16249999 -0.20250000 0.04499995
v -0.06250000 -0.20250000 0.04499995
v 0.01749998 -0.15750000 0.04499995
v -0.01749998 -0.15750000 0.00000000
v 0.01749998 -0.15750000 0.00000000
v -0.01749998 -0.15750000 0.04499995
v -0.01749998 -0.15750000 0.04499995
v -0.15750000 0.15750000 0.04499995
v 0.06250000 -0.20250000 0.04499995
v 0.16249999 -0.20250000 0.04499995
v 0.01749998 -0.15750000 0.04499995
v 0.20149989 -0.02549999 0.00599998
v 0.16249999 -0.20250000 0.04499995
v 0.20149989 -0.20250000 0.00599998
v 0.16249999 -0.02549999 0.04499995
v 0.16350000 -0.02549999 0.04399996
v 0.16249999 -0.02549999 0.04499995
v -0.01749998 -0.15750000 0.04499995
v -0.06250000 -0.20250000 0.04499995
v -0.16249999 -0.02549999 0.04499995
v -0.16249999 -0.20250000 0.04499995
v -0.15750000 -0.02549999 0.04499995
v -0.15750000 0.01749998 0.04499995
v -0.15750000 0.06250000 0.04499995
v -0.16249999 -0.02549999 0.04499995
v -0.20149989 -0.20250000 0.00599998
v -0.16249999 -0.20250000 0.04499995
v -0.20149989 -0.02549999 0.00599998
v -0.20250000 0.06250000 0.04499995
v -0.20649990 0.06250000 0.04499995
v -0.20649990 0.06650000 0.04499995
v -0.20250000 0.06250000 0.04499995
v -0.15750000 0.11250000 0.09499996
v -0.20649990 0.06250000 0.04499995
v -0.20250000 0.06250000 0.04499995
v -0.15750000 0.06250000 0.04499995
v -0.20649990 0.06250000 0.04499995
v -0.20649990 0.11250000 0.09499996
v -0.20649990 0.20750000 0.11250000
v -0.15750000 0.15750000 0.06250000
v -0.20649990 0.15750000 0.06250000
v -0.20649990 0.20750000 0.11250000
v -0.20649990 0.33750001 0.15750000
v -0.20649990 0.33750001 0.11250000
v -0.15750000 0.20750000 0.11250000
v -0.20649990 0.20750000 0.11250000
v -0.20649990 0.33750001 0.11250000
v -0.15750000 0.20750000 0.11250000
v -0.20149989 0.33750001 0.15750000
v -0.20649990 0.33750001 0.11250000
v -0.20649990 0.33750001 0.15750000
v -0.20149989 0.33750001 0.11349990
v -0.15750000 0.33750001 0.11250000
v -0.15750000 0.33750001 0.11349990
v -0.15750000 0.33750001 0.11250000
v -0.20149989 0.33750001 0.15750000
v -0.20649990 0.33750001 0.15750000
v -0.20649990 0.15750000 0.15750000
v -0.20649990 0.15750000 0.22900000
v -0.15750000 0.15750000 0.15750000
v -0.20649990 0.15750000 0.15750000
v -0.20649990 0.15750000 0.22900000
v -0.15750000 0.33750001 0.15750000
v -0.15750000 0.15750000 0.15750000
v -0.20649990 0.11250000 0.22900000
v -0.15750000 0.11250000 0.22900000
v -0.20649990 0.15750000 0.22900000
v -0.20649990 0.11250000 0.22900000
v -0.15750000 0.15750000 0.22900000
v -0.15750000 0.15750000 0.22900000
v -0.15750000 0.11250000 0.22900000
v -0.20649990 0.11250000 0.22900000
v -0.20649990 0.11250000 0.09499996
v -0.15750000 0.11250000 0.09499996
v 0.16350000 -0.02549999 0.04499995
v 0.16350000 0.15750000 0.04499995
v -0.15750000 0.11250000 0.22900000
v -0.15750000 0.15750000 0.04499995
v -0.15750000 0.15750000 0.06250000
v -0.15750000 0.11250000 0.09499996
v -0.15750000 0.06250000 0.04499995
v -0.15750000 0.15750000 0.15750000
v -0.15750000 0.20750000 0.11250000
v -0.08209997 0.16350000 0.04399996
v -0.08209997 0.15750000 0.04399996
v 0.09489995 0.15750000 0.04399996
v 0.09489995 0.16350000 0.04399996
v 0.16350000 -0.02549999 0.04399996
v 0.16350000 -0.02549999 0.04499995
v 0.16249999 -0.02549999 0.04499995
v -0.15750000 0.15750000 0.22900000
v -0.15750000 0.33750001 0.11349990
v -0.15750000 0.33750001 0.15750000
v -0.15750000 0.33750001 0.11250000
v -0.11349990 0.33750001 0.20149989
v -0.20149989 0.33750001 0.15750000
v -0.15750000 0.33750001 0.15750000
v -0.20149989 0.33750001 0.20149989
v -0.20149989 0.34349999 0.11349990
v -0.20149989 0.33750001 0.15750000
v -0.20149989 0.33750001 0.20149989
v -0.20149989 0.33750001 0.11349990
v -0.15750000 0.33750001 0.11349990
v -0.20149989 0.34349999 0.20149989
v -0.20149989 0.33750001 0.20149989
v -0.11349990 0.33750001 0.20149989
v -0.20149989 0.34349999 0.20149989
v -0.11349990 0.33750001 0.11349990
v -0.11349990 0.34349999 0.20149989
v -0.11349990 0.33750001 0.20149989
v -0.11349990 0.33750001 0.11349990
v -0.11349990 0.34349999 0.20149989
v -0.11349990 0.34349999 0.11349990
v -0.11349990 0.33750001 0.11349990
v -0.15750000 0.33750001 0.11349990
v -0.11349990 0.34349999 0.11349990
v -0.20149989 0.33750001 0.11349990
v -0.20149989 0.34349999 0.11349990
v -0.20149989 0.34349999 0.20149989
v -0.11349990 0.34349999 0.11349990
v -0.20149989 0.34349999 0.11349990
v -0.11349990 0.34349999 0.20149989
v 0.09489995 0.16350000 0.04399996
v -0.08209997 0.20149989 0.00599998
v -0.08209997 0.16350000 0.04399996
v 0.09489995 0.20149989 0.00599998
vt 0.47792301 0.00000000
vt 0.36844200 0.00000000
vt 0.28847101 0.00000000
vt 0.28847101 0.20923100
vt 0.28847101 0.00000000
vt 0.36844200 0.00000000
vt 0.47315401 0.00000000
vt 0.62554002 0.00000000
vt 0.66883701 0.00000000
vt 0.68572801 0.00000000
vt 0.25726199 0.00000000
vt 0.25726199 0.27668300
vt 0.25726199 0.00000000
vt 0.28847101 0.00000000
vt 0.28847101 0.20923100
vt 0.36844200 0.02099996
vt 0.36844200 0.00000000
vt 0.47792301 0.00000000
vt 0.35079899 0.17161299
vt 0.36844200 0.02099996
vt 0.47315401 0.25988501
vt 0.47792301 0.00000000
vt 0.47315401 0.00000000
vt 0.47792301 0.02953195
vt 0.47792301 0.02953195
vt 0.47315401 0.25988501
vt 0.47315401 0.00000000
vt 0.62554002 0.00000000
vt 0.62554002 0.19568300
vt 0.62554002 0.00000000
vt 0.66883701 0.00000000
vt 0.47315401 0.26552099
vt 0.62554002 0.19568300
vt 0.66883701 0.23486900
vt 0.66883701 0.00000000
vt 0.68572801 0.00000000
vt 0.66883701 0.23486900
vt 0.83798897 0.00000000
vt 0.82250798 0.00000000
vt 0.68572801 0.02693200
vt 0.68572801 0.00000000
vt 0.82250798 0.00000000
vt 0.18945201 0.00000000
vt 0.22066100 0.00000000
vt 0.67154598 0.22867700
vt 0.68572801 0.02693200
vt 0.82250798 0.02756899
vt 0.82250798 0.00000000
vt 0.83798897 0.00000000
vt 0.82250798 0.02756899
vt 0.96677703 0.00000000
vt 0.91053998 0.00000000
vt 0.83798897 0.24284001
vt 0.83798897 0.00000000
vt 0.91053998 0.00000000
vt 1.00000000 0.00000000
vt 0.00572699 0.00000000
vt 0.10948100 0.00000000
vt 0.83548200 0.23601399
vt 0.83798897 0.24284001
vt 0.91053998 0.23616400
vt 0.91053998 0.00000000
vt 0.96677703 0.00000000
vt 0.88841099 0.27356300
vt 0.91053998 0.23616400
vt 0.88841099 0.19934700
vt 0.96677703 0.20452701
vt 0.96677703 0.00000000
vt 1.00000000 0.00000000
vt 0.93580198 0.38393801
vt 0.96677703 0.20452701
vt 0.91053998 0.54514802
vt 0.00572699 0.27490100
vt 1.00000000 0.00000000
vt 0.00572699 0.00000000
vt 1.00000000 0.27668300
vt 0.96879101 0.20923100
vt 1.00000000 0.27668300
vt 0.00000000 0.00000000
vt 0.00000000 0.02953195
vt 0.00572699 0.00000000
vt 0.00000000 0.00000000
vt 0.00492400 0.26704100
vt 0.00572699 0.27490100
vt 0.00000000 0.02953195
vt 0.00000000 0.00000000
vt 0.10948100 0.00000000
vt 0.10948100 0.02099996
vt 0.10948100 0.00000000
vt 0.18945201 0.00000000
vt 0.10948100 0.02099996
vt 0.18945201 0.20923100
vt 0.18945201 0.00000000
vt 0.22066100 0.00000000
vt 0.12712289 0.17161299
vt 0.18945201 0.20923100
vt 0.25726199 0.27668300
vt 0.22066100 0.00000000
vt 0.25726199 0.00000000
vt 0.22066100 0.27668300
vt 0.22066100 0.27668300
vt 0.88841099 0.19934700
vt 0.28847101 0.20923100
vt 0.35079899 0.17161299
vt 0.25726199 0.27668300
vt 0.47792301 0.02953195
vt 0.35079899 0.17161299
vt 0.36844200 0.02099996
vt 0.47299901 0.26704100
vt 0.47315401 0.25988501
vt 0.47299901 0.26704100
vt 0.22066100 0.27668300
vt 0.18945201 0.20923100
vt 0.00492400 0.26704100
vt 0.12712289 0.17161299
vt 0.00572699 0.27490100
vt 1.00000000 0.27668300
vt 0.95582497 0.25957701
vt 0.00492400 0.26704100
vt 0.10948100 0.02099996
vt 0.12712289 0.17161299
vt 0.00000000 0.02953195
vt 0.96879101 0.20923100
vt 0.96969497 0.20562600
vt 0.96677703 0.20452701
vt 0.96879101 0.20923100
vt 0.91572303 0.45627901
vt 0.96969497 0.20562600
vt 0.96879101 0.20923100
vt 0.95582497 0.25957701
vt 0.96969497 0.20562600
vt 0.93580198 0.38393801
vt 0.88801098 0.36689600
vt 0.88841099 0.27356300
vt 0.91053998 0.23616400
vt 0.88801098 0.36689600
vt 0.84933001 0.37883899
vt 0.84933001 0.27702299
vt 0.86589599 0.40766200
vt 0.88801098 0.36689600
vt 0.84933001 0.27702299
vt 0.86589599 0.40766200
vt 0.84753501 0.38109800
vt 0.84933001 0.27702299
vt 0.84933001 0.37883899
vt 0.84753501 0.28110299
vt 0.83073097 0.29334700
vt 0.83073097 0.29580501
vt 0.83073097 0.29334700
vt 0.84753501 0.38109800
vt 0.84933001 0.37883899
vt 0.91053998 0.54514802
vt 0.91053998 0.72264498
vt 0.88841099 0.61548001
vt 0.91053998 0.54514802
vt 0.91053998 0.72264498
vt 0.83073097 0.40007800
vt 0.88841099 0.61548001
vt 0.93580198 0.77213502
vt 0.91572303 0.86909199
vt 0.91053998 0.72264498
vt 0.93580198 0.77213502
vt 0.88841099 0.79925799
vt 0.88841099 0.79925799
vt 0.91572303 0.86909199
vt 0.93580198 0.77213502
vt 0.93580198 0.38393801
vt 0.91572303 0.45627901
vt 0.47315401 0.26552099
vt 0.62554002 0.19568300
vt 0.91572303 0.86909199
vt 0.88841099 0.19934700
vt 0.88841099 0.27356300
vt 0.91572303 0.45627901
vt 0.95582497 0.25957701
vt 0.88841099 0.61548001
vt 0.86589599 0.40766200
vt 0.83548200 0.23601399
vt 0.83798897 0.24284001
vt 0.66883701 0.23486900
vt 0.67154598 0.22867700
vt 0.47315401 0.25988501
vt 0.47315401 0.26552099
vt 0.47299901 0.26704100
vt 0.88841099 0.79925799
vt 0.83073097 0.29580501
vt 0.83073097 0.40007800
vt 0.83073097 0.29334700
vt 0.81217301 0.51496398
vt 0.84753501 0.38109800
vt 0.83073097 0.40007800
vt 0.84753501 0.47369599
vt 0.84625798 0.27764300
vt 0.84753501 0.38109800
vt 0.84753501 0.47369599
vt 0.84753501 0.28110299
vt 0.83073097 0.29580501
vt 0.84625798 0.46841800
vt 0.84753501 0.47369599
vt 0.81217301 0.51496398
vt 0.84625798 0.46841800
vt 0.81217301 0.30857199
vt 0.81129903 0.50819403
vt 0.81217301 0.51496398
vt 0.81217301 0.30857199
vt 0.81129903 0.50819403
vt 0.81129903 0.30401301
vt 0.81217301 0.30857199
vt 0.83073097 0.29580501
vt 0.81129903 0.30401301
vt 0.84753501 0.28110299
vt 0.84625798 0.27764300
vt 0.84625798 0.46841800
vt 0.81129903 0.30401301
vt 0.84625798 0.27764300
vt 0.81129903 0.50819403
vt 0.67154598 0.22867700
vt 0.82250798 0.02756899
vt 0.83548200 0.23601399
vt 0.68572801 0.02693200
f 1/1 2/2 3/3
f 4/4 5/5 6/6
f 7/7 1/1 3/3
f 8/8 7/7 3/3
f 9/9 8/8 3/3
f 10/10 9/9 3/3
f 11/11 10/10 3/3
f 12/12 13/13 14/14
f 12/12 14/14 15/15
f 16/16 17/17 18/18
f 19/19 4/4 6/6
f 20/20 19/19 6/6
f 21/21 22/22 23/23
f 24/24 16/16 18/18
f 25/25 22/22 21/21
f 26/26 27/27 28/28
f 29/29 30/30 31/31
f 32/32 28/28 33/33
f 26/26 28/28 32/32
f 34/34 35/35 36/36
f 37/37 29/29 31/31
f 38/38 39/39 10/10
f 40/40 41/41 42/42
f 43/43 38/38 10/10
f 44/44 43/43 10/10
f 11/11 44/44 10/10
f 45/45 34/34 36/36
f 45/45 36/36 46/46
f 47/47 48/48 49/49
f 40/40 42/42 50/50
f 51/51 52/52 38/38
f 53/53 54/54 55/55
f 56/56 51/51 38/38
f 57/57 56/56 38/38
f 58/58 57/57 38/38
f 43/43 58/58 38/38
f 59/59 49/49 60/60
f 59/59 47/47 49/49
f 61/61 62/62 63/63
f 64/64 55/55 65/65
f 64/64 66/66 55/55
f 53/53 55/55 66/66
f 67/67 68/68 69/69
f 70/70 63/63 71/71
f 72/72 61/61 63/63
f 70/70 72/72 63/63
f 73/73 74/74 75/75
f 76/76 74/74 73/73
f 77/77 69/69 78/78
f 67/67 69/69 77/77
f 58/58 79/79 57/57
f 80/80 81/81 82/82
f 83/83 81/81 80/80
f 83/83 84/84 81/81
f 85/85 86/86 87/87
f 88/88 89/89 90/90
f 85/85 87/87 91/91
f 92/92 93/93 94/94
f 95/95 90/90 96/96
f 95/95 88/88 90/90
f 97/97 98/98 99/99
f 100/100 98/98 97/97
f 92/92 94/94 101/101
f 102/102 103/103 104/104
f 102/102 105/105 103/103
f 106/106 107/107 108/108
f 109/109 102/102 104/104
f 110/110 111/111 107/107
f 106/106 110/110 107/107
f 102/102 112/112 105/105
f 102/102 113/113 112/112
f 114/114 115/115 113/113
f 114/114 113/113 116/116
f 117/117 116/116 113/113
f 118/118 117/117 113/113
f 118/118 113/113 102/102
f 119/119 120/120 121/121
f 119/119 122/122 120/120
f 118/118 123/123 117/117
f 124/124 125/125 126/126
f 127/127 128/128 129/129
f 127/127 129/129 130/130
f 70/70 71/71 131/131
f 127/127 132/132 128/128
f 72/72 133/133 61/61
f 134/134 135/135 136/136
f 137/137 138/138 133/133
f 139/139 140/140 141/141
f 72/72 137/137 133/133
f 142/142 134/134 136/136
f 143/143 144/144 145/145
f 146/146 144/144 143/143
f 147/147 144/144 148/148
f 146/146 148/148 144/144
f 139/139 141/141 149/149
f 150/150 151/151 152/152
f 70/70 153/153 72/72
f 154/154 155/155 156/156
f 157/157 152/152 158/158
f 157/157 150/150 152/152
f 70/70 159/159 153/153
f 160/160 161/161 162/162
f 163/163 161/161 160/160
f 154/154 156/156 164/164
f 165/165 166/166 167/167
f 165/165 167/167 168/168
f 53/53 66/66 29/29
f 169/169 170/170 102/102
f 37/37 53/53 29/29
f 171/171 172/172 173/173
f 174/174 175/175 172/172
f 109/109 169/169 102/102
f 171/171 174/174 172/172
f 176/176 171/171 173/173
f 177/177 176/176 173/173
f 178/178 179/179 180/180
f 181/181 178/178 180/180
f 182/182 183/183 184/184
f 176/176 185/185 171/171
f 186/186 187/187 176/176
f 188/188 186/186 176/176
f 177/177 188/188 176/176
f 189/189 190/190 191/191
f 189/189 192/192 190/190
f 193/193 194/194 195/195
f 193/193 196/196 194/194
f 197/197 189/189 191/191
f 198/198 199/199 200/200
f 201/201 193/193 195/195
f 197/197 202/202 189/189
f 203/203 204/204 205/205
f 198/198 200/200 206/206
f 207/207 208/208 209/209
f 203/203 205/205 210/210
f 207/207 209/209 211/211
f 212/212 207/207 211/211
f 213/213 214/214 215/215
f 213/213 216/216 214/214
f 217/217 218/218 219/219
f 217/217 220/220 218/218

