# https://github.com/mikedh/trimesh
mtllib mtl_crank_handle
usemtl mtl_crank_handle
v -0.00618055 -0.00166395 0.00000002
v -0.00778986 -0.00182596 0.01829039
v -0.00800100 -0.00000000 0.01829039
v -0.00800100 0.00000000 0.06348731
v -0.00640080 -0.00000000 0.00000002
v -0.00721165 0.00346528 0.01829039
v -0.00744308 0.00293539 0.06348731
v -0.00715417 -0.00358244 0.01829039
v -0.00732851 -0.00321076 0.06348731
v -0.00553308 -0.00321709 0.00000002
v -0.00614170 -0.00512792 0.01829039
v -0.00450991 -0.00454206 0.00000002
v -0.00487143 -0.00634706 0.01829039
v -0.00539744 -0.00590624 0.06348731
v -0.00164021 -0.00618694 0.00000002
v -0.00174757 -0.00780782 0.01829039
v -0.00247244 -0.00760940 0.06348731
v -0.00318380 -0.00555239 0.00000002
v 0.00001342 -0.00640077 0.00000002
v 0.00177081 -0.00780258 0.01829039
v 0.00048816 -0.00798609 0.06348731
v 0.00321209 -0.00553606 0.00000002
v 0.00494381 -0.00629084 0.01829039
v 0.00330774 -0.00728525 0.06348731
v 0.00166820 -0.00617940 0.00000002
v 0.00453109 -0.00452103 0.00000002
v 0.00621897 -0.00503393 0.01829039
v 0.00576786 -0.00554507 0.06348731
v 0.00554299 -0.00320011 0.00000002
v 0.00721165 -0.00346528 0.01829039
v 0.00640080 0.00000000 0.00000002
v 0.00800100 -0.00000000 0.01829039
v 0.00744308 -0.00293539 0.06348731
v 0.00618259 -0.00165663 0.00000002
v 0.00618055 0.00166395 0.00000002
v 0.00778986 0.00182596 0.01829039
v 0.00800100 0.00000000 0.06348731
v 0.00553308 0.00321709 0.00000002
v 0.00450991 0.00454206 0.00000002
v 0.00318380 0.00555239 0.00000002
v 0.00164021 0.00618694 0.00000002
v -0.00001342 0.00640077 0.00000002
v -0.00166820 0.00617940 0.00000002
v -0.00321209 0.00553606 0.00000002
v -0.00453109 0.00452103 0.00000002
v -0.00554299 0.00320011 0.00000002
v -0.00618259 0.00165663 0.00000002
v -0.00621897 0.00503393 0.01829039
v -0.00494381 0.00629084 0.01829039
v -0.00177081 0.00780258 0.01829039
v 0.00174757 0.00780782 0.01829039
v 0.00487143 0.00634706 0.01829039
v 0.00614170 0.00512792 0.01829039
v 0.00715417 0.00358244 0.01829039
v 0.00732851 0.00321076 0.06348731
v 0.00539744 0.00590624 0.06348731
v 0.00247244 0.00760940 0.06348731
v -0.00048816 0.00798609 0.06348731
v -0.00330774 0.00728525 0.06348731
v -0.00576786 0.00554507 0.06348731
v -0.00740589 0.00240632 0.06428672
v -0.00776301 -0.00061096 0.06428672
v 0.00776301 0.00061096 0.06428672
v 0.00740589 -0.00240632 0.06428672
v 0.00693828 0.00353523 0.06428672
v 0.00505726 0.00592129 0.06428672
v 0.00240625 0.00740569 0.06428709
v -0.00061096 0.00776301 0.06428672
v -0.00353523 0.00693828 0.06428672
v -0.00592129 0.00505726 0.06428672
v -0.00693828 -0.00353523 0.06428672
v -0.00505726 -0.00592129 0.06428672
v -0.00240625 -0.00740569 0.06428709
v 0.00061096 -0.00776301 0.06428672
v 0.00353523 -0.00693828 0.06428672
v 0.00592129 -0.00505726 0.06428672
v -0.00428445 -0.00475538 0.06508751
v -0.00222157 -0.00683729 0.06487984
v -0.00197796 -0.00608752 0.06508751
v 0.00056497 -0.00717864 0.06487317
v 0.00427251 -0.00476561 0.06508751
v 0.00133060 -0.00626058 0.06508751
v -0.00033498 -0.00639191 0.06508751
v 0.00289957 -0.00570640 0.06508751
v 0.00326911 -0.00641599 0.06487317
v -0.00467657 -0.00547556 0.06487317
v -0.00240236 -0.00739371 0.06430852
v -0.00641599 -0.00326911 0.06487317
v -0.00584664 -0.00260516 0.06508751
v -0.00717864 -0.00056497 0.06487317
v -0.00622331 0.00149673 0.06508751
v -0.00684840 0.00222518 0.06487317
v -0.00640080 -0.00000000 0.06508751
v -0.00570167 0.00290850 0.06508751
v -0.00547556 0.00467657 0.06487317
v -0.00376208 0.00517816 0.06508751
v -0.00326911 0.00641599 0.06487317
v -0.00486577 0.00415829 0.06508751
v -0.00100414 0.00632140 0.06508751
v -0.00056497 0.00717864 0.06487317
v -0.00245105 0.00591265 0.06508751
v 0.00222508 0.00684810 0.06487335
v 0.00197796 0.00608752 0.06508751
v 0.00049969 0.00638123 0.06508751
v 0.00547556 -0.00467657 0.06487317
v 0.00240236 0.00739371 0.06430852
v 0.00467657 0.00547556 0.06487317
v 0.00349241 0.00536387 0.06508751
v 0.00476945 0.00426814 0.06508751
v 0.00571340 0.00288560 0.06508751
v 0.00626448 0.00131219 0.06508751
v 0.00639098 -0.00035194 0.06508751
v 0.00536146 -0.00349609 0.06508751
v 0.00608334 -0.00199071 0.06508751
v 0.00684840 -0.00222518 0.06487317
v 0.00717864 0.00056497 0.06487317
v 0.00641599 0.00326911 0.06487317
f 1 2 3
f 4 3 2
f 5 1 3
f 6 5 3
f 7 6 3
f 7 3 4
f 1 8 2
f 9 2 8
f 9 4 2
f 10 11 8
f 9 8 11
f 1 10 8
f 12 13 11
f 14 11 13
f 10 12 11
f 14 9 11
f 15 16 13
f 17 13 16
f 18 15 13
f 12 18 13
f 17 14 13
f 19 20 16
f 21 16 20
f 15 19 16
f 21 17 16
f 22 23 20
f 24 20 23
f 25 22 20
f 19 25 20
f 24 21 20
f 26 27 23
f 28 23 27
f 22 26 23
f 28 24 23
f 29 30 27
f 28 27 30
f 26 29 27
f 31 32 30
f 33 30 32
f 34 31 30
f 29 34 30
f 33 28 30
f 35 32 31
f 36 32 35
f 37 32 36
f 33 32 37
f 35 31 34
f 35 34 29
f 38 29 26
f 35 29 38
f 39 26 22
f 38 26 39
f 40 22 25
f 39 22 40
f 41 25 19
f 40 25 41
f 42 19 15
f 41 19 42
f 43 15 18
f 42 15 43
f 44 18 12
f 43 18 44
f 45 12 10
f 44 12 45
f 46 10 1
f 45 10 46
f 47 1 5
f 46 1 47
f 6 47 5
f 6 46 47
f 48 45 46
f 6 48 46
f 49 44 45
f 48 49 45
f 50 43 44
f 49 50 44
f 50 42 43
f 51 41 42
f 50 51 42
f 52 40 41
f 51 52 41
f 52 39 40
f 53 38 39
f 52 53 39
f 54 35 38
f 53 54 38
f 54 36 35
f 55 36 54
f 55 37 36
f 55 54 53
f 56 53 52
f 56 55 53
f 57 52 51
f 57 56 52
f 58 51 50
f 58 57 51
f 59 50 49
f 59 58 50
f 60 49 48
f 60 59 49
f 60 48 6
f 7 60 6
f 61 7 4
f 62 4 9
f 61 4 62
f 63 37 55
f 64 33 37
f 64 37 63
f 65 55 56
f 63 55 65
f 66 56 57
f 65 56 66
f 67 57 58
f 66 57 67
f 68 58 59
f 67 58 68
f 69 59 60
f 68 59 69
f 70 60 7
f 69 60 70
f 70 7 61
f 71 9 14
f 62 9 71
f 72 14 17
f 71 14 72
f 73 17 21
f 72 17 73
f 74 21 24
f 74 73 21
f 75 24 28
f 74 24 75
f 76 28 33
f 75 28 76
f 76 33 64
f 77 78 79
f 80 79 78
f 81 77 79
f 82 79 83
f 80 83 79
f 84 79 82
f 81 79 84
f 74 75 80
f 75 76 85
f 77 86 78
f 87 78 86
f 74 78 87
f 74 80 78
f 77 88 86
f 72 86 88
f 73 87 86
f 72 73 86
f 89 90 88
f 71 88 90
f 77 89 88
f 71 72 88
f 91 92 90
f 62 90 92
f 93 91 90
f 89 93 90
f 62 71 90
f 94 95 92
f 61 92 95
f 91 94 92
f 61 62 92
f 96 97 95
f 70 95 97
f 98 96 95
f 94 98 95
f 70 61 95
f 99 100 97
f 69 97 100
f 101 99 97
f 96 101 97
f 69 70 97
f 75 85 80
f 68 100 102
f 103 102 100
f 104 103 100
f 99 104 100
f 68 69 100
f 76 64 105
f 106 68 102
f 107 106 102
f 107 102 108
f 108 102 103
f 99 103 104
f 101 103 99
f 108 103 101
f 108 101 96
f 109 96 98
f 108 96 109
f 109 98 94
f 110 94 91
f 109 94 110
f 111 91 93
f 110 91 111
f 112 93 89
f 111 93 112
f 113 89 77
f 114 89 113
f 112 89 114
f 113 77 81
f 74 87 73
f 106 67 68
f 107 67 106
f 66 67 107
f 80 82 83
f 85 84 82
f 80 85 82
f 85 81 84
f 105 113 81
f 85 105 81
f 115 114 113
f 105 115 113
f 115 112 114
f 116 111 112
f 115 116 112
f 117 110 111
f 116 117 111
f 117 109 110
f 107 108 109
f 117 107 109
f 66 107 117
f 65 117 116
f 65 66 117
f 63 116 115
f 63 65 116
f 64 115 105
f 64 63 115
f 76 105 85

