# https://github.com/mikedh/trimesh
mtllib mtl_ctb_body
usemtl mtl_ctb_body
v 7.00000000 -10.50000000 -4.50000000
v 7.00000000 -10.50000000 4.50000000
v -7.00000000 -10.50000000 4.50000000
v 7.49985552 -10.36605453 4.50000000
v -7.00000000 -10.50000000 -4.50000000
v -7.49985552 -10.36605453 4.50000000
v 7.49985552 -10.36605453 -4.50000000
v -7.49985552 -10.36605453 -4.50000000
v 7.00000000 10.50000000 4.50000000
v 7.00000000 10.50000000 -4.50000000
v -7.00000000 10.50000000 -4.50000000
v 7.49985552 10.36605453 -4.50000000
v -7.00000000 10.50000000 4.50000000
v -7.49985552 10.36605453 -4.50000000
v 7.49985552 10.36605453 4.50000000
v -7.49985552 10.36605453 4.50000000
v -8.00000000 9.50000000 4.50000000
v -8.00000000 -9.50000000 -4.50000000
v -8.00000000 -9.50000000 4.50000000
v -7.86605501 -9.99985504 -4.50000000
v 8.00000000 9.50000000 4.50000000
v 8.00000000 -9.50000000 4.50000000
v -7.86605501 -9.99985504 4.50000000
v -8.00000000 9.50000000 -4.50000000
v 8.00000000 -9.50000000 -4.50000000
v 7.86605501 -9.99985504 -4.50000000
v -7.86605501 9.99985504 4.50000000
v -7.86605501 9.99985504 -4.50000000
v 8.00000000 9.50000000 -4.50000000
v 7.86605501 9.99985504 4.50000000
v 7.86605501 9.99985504 -4.50000000
v 7.86605501 -9.99985504 4.50000000
f 1 2 3
f 4 3 2
f 5 1 3
f 6 5 3
f 6 3 4
f 7 2 1
f 7 4 2
f 8 1 5
f 8 7 1
f 8 5 6
f 9 10 11
f 12 11 10
f 13 9 11
f 14 13 11
f 14 11 12
f 15 10 9
f 12 10 15
f 16 9 13
f 15 9 16
f 14 16 13
f 17 18 19
f 20 19 18
f 21 17 19
f 22 21 19
f 23 22 19
f 20 23 19
f 17 24 18
f 25 18 24
f 26 18 25
f 20 18 26
f 27 24 17
f 28 24 27
f 29 25 24
f 28 29 24
f 30 27 17
f 21 30 17
f 15 16 27
f 28 27 16
f 30 15 27
f 28 16 14
f 12 15 30
f 31 30 21
f 12 30 31
f 29 21 22
f 31 21 29
f 23 32 22
f 25 22 32
f 29 22 25
f 6 4 32
f 26 32 4
f 23 6 32
f 26 25 32
f 26 4 7
f 8 6 23
f 8 23 20
f 28 31 29
f 20 26 7
f 8 20 7
f 14 12 31
f 28 14 31

