# https://github.com/mikedh/trimesh
mtllib mtl_cubby_1
usemtl mtl_cubby_1
v 0.00000000 0.34400931 -0.11427702
v -0.00300000 0.34400931 -0.00000000
v 0.00000000 0.34400931 0.00000000
v -0.00300000 0.34400931 0.11427702
v 0.00000000 0.30900308 0.00000000
v 0.00000000 0.34400931 0.11427702
v 0.00000000 0.34386945 0.11760577
v 0.00000000 0.31243092 0.15111873
v 0.00000000 0.30958086 0.15124561
v 0.00000000 0.30900308 0.09366833
v 0.00000000 0.31526431 0.15073842
v 0.00000000 0.31806904 0.15010443
v 0.00000000 0.32082054 0.14922008
v 0.00000000 0.32350695 0.14808631
v 0.00000000 0.32611394 0.14670403
v 0.00000000 0.33195707 0.10081833
v 0.00000000 0.34060279 0.13031048
v 0.00000000 0.33913705 0.13323614
v 0.00000000 0.33815709 0.10081833
v 0.00000000 0.34180808 0.12728368
v 0.00000000 0.34276089 0.12414198
v 0.00000000 0.34345174 0.12090334
v 0.00000000 0.33284590 0.09864561
v 0.00000000 0.33383909 0.09796762
v 0.00000000 0.33503431 0.09771842
v 0.00000000 0.33624950 0.09795684
v 0.00000000 0.33726826 0.09864561
v -0.00300000 0.34400931 -0.11427702
v -0.00300000 0.34386945 -0.11760596
v -0.00300000 0.31985998 -0.00000000
v -0.00300000 0.31985998 -0.09366833
v -0.00300000 0.32350695 -0.14808631
v -0.00300000 0.32082057 -0.14922006
v -0.00300000 0.32611394 -0.14670403
v -0.00300000 0.33195707 -0.10031833
v -0.00300000 0.34060276 -0.13031052
v -0.00300000 0.33913705 -0.13323618
v -0.00300000 0.33815709 -0.10031833
v -0.00300000 0.34180808 -0.12728372
v -0.00300000 0.34276089 -0.12414204
v -0.00300000 0.34345174 -0.12090342
v -0.00300000 0.33284590 -0.09814561
v -0.00300000 0.33383909 -0.09746762
v -0.00300000 0.33503431 -0.09721842
v -0.00300000 0.33624950 -0.09745684
v -0.00300000 0.33726826 -0.09814561
v 0.00000000 0.34390399 -0.11716627
v -0.00300000 0.34390402 0.11716601
v -0.00300000 0.00281239 0.12891500
v -0.00300000 -0.00000107 0.05716510
v -0.00300000 -0.00000148 0.11427698
v -0.00000000 -0.00000148 0.11427698
v -0.00000000 0.00128721 0.12429688
v -0.00300000 0.00000000 -0.00000000
v -0.00000000 -0.00000107 0.05716591
v -0.00300000 0.02415152 0.09366833
v -0.00300000 0.02415152 -0.00000000
v -0.00300000 0.00128721 -0.12429688
v -0.00300000 0.02177811 0.14866021
v -0.00300000 0.01205223 0.10081833
v -0.00300000 0.00585223 0.10081833
v -0.00300000 0.00674105 0.09864561
v -0.00300000 0.01116340 0.09864561
v -0.00300000 0.01017021 0.09796762
v -0.00300000 0.00897501 0.09771842
v -0.00300000 0.00775982 0.09795684
v 0.00000000 0.00000000 0.00000000
v -0.00300000 -0.00000107 -0.05716591
v -0.00300000 -0.00000148 -0.11427698
v -0.00354869 0.02741842 0.09366833
v -0.00300000 0.02415152 -0.09366833
v -0.00300000 0.01771886 -0.14660044
v -0.00300000 0.01205223 -0.10031833
v -0.00300000 0.00585223 -0.10031833
v -0.00512122 0.03030984 -0.00000000
v -0.00300000 0.01116340 -0.09814561
v -0.00300000 0.00674105 -0.09814561
v -0.00300000 0.00773425 -0.09746762
v -0.00300000 0.00892945 -0.09721842
v -0.00300000 0.01014464 -0.09745684
v -0.00300000 0.02541356 0.10505212
v -0.00300000 0.03442695 0.15124561
v -0.00300000 0.02911322 0.11580231
v -0.00515385 0.03240034 0.10720471
v -0.00512131 0.03030995 0.09366833
v -0.00300000 0.03505694 0.12541278
v -0.00525311 0.03848263 0.11941340
v -0.00300000 0.04289863 0.13336428
v -0.00300000 0.05224503 0.13929729
v -0.00542073 0.04797979 0.12905896
v -0.00300000 0.06242233 0.14288391
v -0.00565220 0.05993193 0.13513434
v -0.00300000 0.07307998 0.14409359
v -0.00300000 0.17200391 0.15124561
v -0.00300000 0.17200574 0.14409359
v -0.00334342 0.27093151 0.14149542
v -0.00433143 0.07307998 0.13910802
v -0.00427904 0.27093151 0.13920024
v -0.00300000 0.30958086 0.15124561
v -0.00300000 0.27093151 0.14409359
v -0.00300000 0.28159124 0.14288343
v -0.00300000 0.29176703 0.13929702
v -0.00415907 0.28475830 0.13713214
v -0.00300000 0.30103421 0.13342763
v -0.00405967 0.29726809 0.13068584
v -0.00300000 0.30888477 0.12550136
v -0.00300000 0.31244189 0.15111774
v -0.00300000 0.31488791 0.11582413
v -0.00398745 0.30716395 0.12054859
v -0.00300000 0.31809953 0.15009609
v -0.00300000 0.31859747 0.10505422
v -0.00394460 0.31348041 0.10778490
v -0.00300000 0.31528661 0.15073439
v -0.00300000 0.32086408 0.14920390
v -0.00300000 0.31985998 0.09366833
v -0.00512122 0.31370166 0.00000000
v -0.00396078 0.31558299 0.09366833
v -0.00300000 0.34358925 0.12003435
v -0.00300000 0.34306818 0.12286175
v -0.00300000 0.33815709 0.10081833
v -0.00300000 0.32863927 0.14506467
v -0.00300000 0.33102909 0.14319526
v -0.00300000 0.33195707 0.10081833
v -0.00300000 0.32615396 0.14668047
v -0.00300000 0.32356334 0.14805946
v -0.00300000 0.33726826 0.09864561
v -0.00300000 0.33627507 0.09796762
v -0.00300000 0.33507985 0.09771842
v -0.00300000 0.33386466 0.09795684
v -0.00300000 0.33284590 0.09864561
v -0.00354869 0.31659305 -0.09366833
v -0.00300000 0.34234551 0.12563047
v -0.00300000 0.34142882 0.12831955
v -0.00300000 0.34033111 0.13090298
v -0.00300000 0.33904433 0.13340184
v -0.00300000 0.33732831 0.13616204
v 0.00000000 0.33741900 0.13602884
v -0.00300000 0.33624950 0.10367983
v -0.00300000 0.33540267 0.13872887
v 0.00000000 0.33547917 0.13863540
v -0.00300000 0.33726826 0.10299105
v -0.00300000 0.33383909 0.10366903
v -0.00300000 0.33329344 0.14107922
v 0.00000000 0.33334544 0.14102606
v -0.00300000 0.33503431 0.10391825
v 0.00000000 0.33104995 0.14317739
v -0.00300000 0.33284590 0.10299105
v 0.00000000 0.32862750 0.14507307
v 0.00000000 0.17200391 0.15124561
v 0.00000000 0.03442695 0.15124561
v -0.00300000 0.01116340 0.10299105
v -0.00300000 0.01069898 0.14106350
v 0.00000000 0.01771886 0.14660044
v -0.00000000 0.00499799 0.13346297
v -0.00300000 0.00674105 0.10299105
v -0.00300000 0.00773425 0.10366903
v -0.00300000 0.00892945 0.10391825
v -0.00300000 0.01014464 0.10367983
v -0.00000000 0.00585223 0.10081833
v -0.00000000 0.00674105 0.09864561
v -0.00000000 0.00674105 0.10299105
v -0.00000000 0.00775982 0.10367983
v -0.00000000 0.00897501 0.10391825
v 0.00000000 0.01017021 0.10366903
v 0.00000000 0.01116340 0.10299105
v 0.00000000 0.01205223 0.10081833
v 0.00000000 0.01116340 0.09864561
v 0.00000000 0.01014464 0.09795684
v -0.00000000 0.00892945 0.09771842
v -0.00000000 0.00773425 0.09796762
v 0.00000000 0.33726826 0.10299105
v 0.00000000 0.33284590 0.10299105
v 0.00000000 0.33386466 0.10367983
v 0.00000000 0.33507985 0.10391825
v 0.00000000 0.33627507 0.10366903
v 0.00000000 0.03500841 0.00000000
v 0.00000000 0.07059129 0.13104254
v 0.00000000 0.05328032 0.12632088
v 0.00000000 0.04586691 0.12054551
v 0.00000000 0.03999664 0.11275077
v 0.00000000 0.03628188 0.10357681
v 0.00000000 0.03500841 0.09366833
v 0.00000000 0.03500841 -0.09366833
v 0.00000000 0.00281238 -0.12891498
v 0.00000000 -0.00000107 -0.05716510
v 0.00000000 0.03442695 -0.15124561
v 0.00000000 0.02177811 -0.14866021
v 0.00000000 0.01205223 -0.10031833
v 0.00000000 0.00585223 -0.10031833
v 0.00000000 0.00674105 -0.09814561
v 0.00000000 0.01116340 -0.09814561
v 0.00000000 0.01017021 -0.09746762
v 0.00000000 0.00897501 -0.09721842
v 0.00000000 0.00775982 -0.09745684
v 0.00000000 0.27342018 0.13104254
v 0.00000000 0.17200574 0.13104254
v 0.00000000 0.30772004 0.10361326
v 0.00000000 0.30399987 0.11277722
v 0.00000000 0.29819056 0.12049875
v 0.00000000 0.29079482 0.12628356
v -0.00300000 0.30900308 -0.00000000
v 0.00000000 0.30958086 -0.15124561
v 0.00000000 0.30900308 -0.09366833
v -0.00300000 0.30900308 -0.09366833
v 0.00000000 0.33815709 -0.10031833
v 0.00000000 0.32863930 -0.14506465
v 0.00000000 0.33102909 -0.14319524
v 0.00000000 0.33195707 -0.10031833
v 0.00000000 0.32615399 -0.14668046
v 0.00000000 0.32356337 -0.14805946
v 0.00000000 0.32086411 -0.14920388
v 0.00000000 0.31809956 -0.15009609
v 0.00000000 0.31528664 -0.15073439
v 0.00000000 0.31244189 -0.15111774
v 0.00000000 0.33726826 -0.09814561
v 0.00000000 0.33627507 -0.09746762
v 0.00000000 0.33507985 -0.09721842
v 0.00000000 0.33386466 -0.09745684
v 0.00000000 0.33284590 -0.09814561
v -0.00300000 0.30900308 0.09366833
v -0.00300000 0.30401486 0.11275076
v -0.00300000 0.30772963 0.10357671
v -0.00300000 0.29814449 0.12054560
v -0.00300000 0.29073098 0.12632097
v -0.00300000 0.27342018 0.13104254
v -0.00300000 0.28232849 0.12985215
v -0.00300000 0.17200574 0.13104254
v -0.00300000 0.07059129 0.13104254
v -0.00300000 0.05321657 0.12628350
v -0.00300000 0.06164980 0.12984312
v -0.00300000 0.04582127 0.12049911
v -0.00300000 0.03629146 0.10361334
v -0.00300000 0.04001176 0.11277749
v -0.00300000 0.03500841 0.09366833
v -0.00300000 0.03500841 -0.00000000
v 0.00000000 -0.00000148 -0.11427697
v 0.00000000 0.03629144 -0.10361326
v -0.00300000 0.03500841 -0.09366833
v 0.00000000 0.04001161 -0.11277722
v -0.00300000 0.03999664 -0.11275076
v -0.00300000 0.03628185 -0.10357671
v 0.00000000 0.04582092 -0.12049875
v 0.00000000 0.05321667 -0.12628356
v -0.00300000 0.04586699 -0.12054560
v 0.00000000 0.07059129 -0.13104254
v -0.00300000 0.05328050 -0.12632097
v 0.00000000 0.17200391 -0.15124561
v 0.00000000 0.17200574 -0.13104254
v -0.00300000 0.07059129 -0.13104254
v -0.00300000 0.06168299 -0.12985215
v 0.00000000 0.27342018 -0.13104254
v -0.00300000 0.17200574 -0.13104254
v 0.00000000 0.29073116 -0.12632087
v -0.00300000 0.27342018 -0.13104254
v 0.00000000 0.29814458 -0.12054551
v -0.00300000 0.29079491 -0.12628350
v -0.00300000 0.28236169 -0.12984312
v 0.00000000 0.30401483 -0.11275077
v -0.00300000 0.29819021 -0.12049911
v 0.00000000 0.30772960 -0.10357681
v -0.00300000 0.30772004 -0.10361334
v -0.00300000 0.30399972 -0.11277749
v 0.00000000 0.34358925 -0.12003434
v 0.00000000 0.34306818 -0.12286175
v 0.00000000 0.34234551 -0.12563047
v 0.00000000 0.34142882 -0.12831955
v 0.00000000 0.34033111 -0.13090298
v 0.00000000 0.33904433 -0.13340184
v 0.00000000 0.33732831 -0.13616204
v -0.00300000 0.33741900 -0.13602887
v 0.00000000 0.33624950 -0.10317983
v 0.00000000 0.33540267 -0.13872887
v -0.00300000 0.33547914 -0.13863543
v 0.00000000 0.33726826 -0.10249105
v 0.00000000 0.33383909 -0.10316904
v 0.00000000 0.33329347 -0.14107920
v -0.00300000 0.33334544 -0.14102608
v 0.00000000 0.33503431 -0.10341825
v -0.00300000 0.33104995 -0.14317740
v 0.00000000 0.33284590 -0.10249105
v -0.00300000 0.32862750 -0.14507307
v -0.00300000 0.31806907 -0.15010443
v -0.00300000 0.31526431 -0.15073840
v -0.00300000 0.31243092 -0.15111873
v -0.00300000 0.30958086 -0.15124561
v -0.00300000 0.17200391 -0.15124561
v -0.00300000 0.03442695 -0.15124561
v 0.00000000 0.01116340 -0.10249105
v 0.00000000 0.01069898 -0.14106350
v -0.00300000 0.00499799 -0.13346297
v 0.00000000 0.00674105 -0.10249105
v 0.00000000 0.00773425 -0.10316904
v 0.00000000 0.00892945 -0.10341825
v 0.00000000 0.01014464 -0.10317983
v -0.00300000 0.00674105 -0.10249105
v -0.00300000 0.00775982 -0.10317983
v -0.00300000 0.00897501 -0.10341825
v -0.00300000 0.01017021 -0.10316904
v -0.00300000 0.01116340 -0.10249105
v -0.00300000 0.33726826 -0.10249105
v -0.00300000 0.33284590 -0.10249105
v -0.00300000 0.33386466 -0.10317983
v -0.00300000 0.33507985 -0.10341825
v -0.00300000 0.33627507 -0.10316904
v -0.00300000 0.02912352 -0.11582404
v -0.00300000 0.07307998 -0.14409359
v -0.00300000 0.06242028 -0.14288345
v -0.00300000 0.05224451 -0.13929704
v -0.00300000 0.04297731 -0.13342766
v -0.00300000 0.03512674 -0.12550138
v -0.00300000 0.02541401 -0.10505415
v -0.00300000 0.27093151 -0.14409359
v -0.00300000 0.17200574 -0.14409359
v -0.00300000 0.31489834 -0.11580218
v -0.00300000 0.30895457 -0.12541275
v -0.00300000 0.30111286 -0.13336428
v -0.00300000 0.29176646 -0.13929728
v -0.00300000 0.28158939 -0.14288387
v -0.00300000 0.31859794 -0.10505205
v -0.00515385 0.31161115 -0.10720471
v -0.00512131 0.31370154 -0.09366833
v -0.00525311 0.30552888 -0.11941340
v -0.00542073 0.29603171 -0.12905896
v -0.00565220 0.28407955 -0.13513434
v -0.00334342 0.07307998 -0.14149542
v -0.00433143 0.27093151 -0.13910802
v -0.00427904 0.07307998 -0.13920024
v -0.00415907 0.05925318 -0.13713214
v -0.00405967 0.04674338 -0.13068584
v -0.00398745 0.03684753 -0.12054860
v -0.00394460 0.03053109 -0.10778490
v -0.00396078 0.02842850 -0.09366833
v -0.01058498 0.31015596 -0.09366833
v -0.01058498 0.31015596 -0.00000000
v -0.12570953 0.28150511 -0.09366833
v -0.01058956 0.31006968 -0.09635089
v -0.00671632 0.31208080 0.09366833
v -0.00511269 0.31371260 0.09366833
v -0.00754729 0.31147736 0.09366833
v -0.01058498 0.31015596 0.09366833
v -0.12570953 0.28150511 -0.00000000
v -0.01071505 0.30773449 -0.10766541
v -0.01060329 0.30981138 -0.09902059
v -0.01062617 0.30938256 -0.10166474
v -0.01065818 0.30878568 -0.10427079
v -0.01110886 0.30073476 -0.11996756
v -0.01078805 0.30640125 -0.11094327
v -0.01087849 0.30477339 -0.11412369
v -0.01098582 0.30287352 -0.11714806
v -0.01156619 0.29309511 -0.12703392
v -0.01124710 0.29837769 -0.12256485
v -0.01139983 0.29582378 -0.12492469
v -0.00592777 0.27093151 -0.13702369
v -0.01234322 0.28088453 -0.13277352
v -0.01174511 0.29021424 -0.12888145
v -0.01193486 0.28721049 -0.13045517
v -0.01213476 0.28409365 -0.13175477
v -0.00434831 0.07307998 -0.13907878
v -0.01277802 0.27428025 -0.13394634
v -0.00798520 0.27093151 -0.13544190
v -0.00801442 0.07307998 -0.13542502
v -0.01255834 0.27760568 -0.13350546
v -0.01040183 0.27093151 -0.13443701
v -0.00810882 0.07307998 -0.13537140
v -0.12567699 0.28139123 -0.09687845
v -0.12557968 0.28105092 -0.10006417
v -0.12541860 0.28048757 -0.10320408
v -0.12519568 0.27970791 -0.10627159
v -0.12491294 0.27871901 -0.10924986
v -0.12517220 0.27962574 -0.10654900
v -0.12456989 0.27751917 -0.11214341
v -0.12416255 0.27609453 -0.11496712
v -0.12369865 0.27447200 -0.11765441
v -0.12318306 0.27266872 -0.12017903
v -0.12224811 0.26939875 -0.12388659
v -0.12262169 0.27070534 -0.12251843
v -0.12138889 0.26639360 -0.12657320
v -0.12202123 0.26860520 -0.12465432
v -0.12073218 0.26409677 -0.12826663
v -0.12005860 0.26174092 -0.12973097
v -0.11936527 0.25931597 -0.13098384
v -0.11865547 0.25683340 -0.13202523
v -0.11795304 0.25437668 -0.13283443
v -0.11663637 0.24977161 -0.13380183
v -0.11728183 0.25202912 -0.13341443
v -0.01300000 0.27093151 -0.13409358
v -0.11601107 0.24758460 -0.13402250
v -0.01300000 0.17200574 -0.13409358
v -0.11540000 0.24544738 -0.13409358
v -0.01300000 0.07307998 -0.13409358
v -0.00764059 0.06046578 -0.13356304
v -0.11540000 0.09856411 -0.13409358
v -0.01277730 0.06972035 -0.13394539
v -0.00724266 0.04897996 -0.12774292
v -0.00695353 0.03983103 -0.11847724
v -0.00678198 0.03395890 -0.10672095
v -0.00511269 0.03029890 -0.09366833
v -0.00671632 0.03193069 -0.09366833
v -0.01213217 0.05987774 -0.13174006
v -0.01255694 0.06638449 -0.13350168
v -0.01234119 0.06309587 -0.13276511
v -0.01139568 0.04811893 -0.12486641
v -0.01193180 0.05675292 -0.13043256
v -0.01174098 0.05373139 -0.12884310
v -0.01156166 0.05084275 -0.12698188
v -0.01098514 0.04112607 -0.11713086
v -0.01124386 0.04557920 -0.12250967
v -0.01110686 0.04324223 -0.11992596
v -0.01065865 0.03523454 -0.10430393
v -0.01087905 0.03924811 -0.11414129
v -0.01078934 0.03763357 -0.11099418
v -0.01071588 0.03629222 -0.10770793
v -0.01058959 0.03394236 -0.09635962
v -0.00754728 0.03253412 -0.09366833
v -0.01058498 0.03385552 -0.00000000
v -0.01062643 0.03463391 -0.10169017
v -0.01060341 0.03420233 -0.09903784
v -0.01058498 0.03385552 -0.09366833
v -0.11665419 0.09417758 -0.13379334
v -0.11601834 0.09640147 -0.13402081
v -0.11731473 0.09186734 -0.13339026
v -0.11872896 0.08692104 -0.13192812
v -0.11786774 0.08993316 -0.13291842
v -0.11800766 0.08944380 -0.13277908
v -0.11943889 0.08443805 -0.13086225
v -0.12012216 0.08204829 -0.12960365
v -0.12078372 0.07973449 -0.12814373
v -0.12142656 0.07748615 -0.12646733
v -0.12103255 0.07886422 -0.12752695
v -0.12204456 0.07532471 -0.12457746
v -0.12263151 0.07327182 -0.12248059
v -0.12368816 0.06957619 -0.11771013
v -0.12318133 0.07134884 -0.12018689
v -0.12414661 0.06797274 -0.11506766
v -0.12431889 0.06737020 -0.11394487
v -0.12489795 0.06534493 -0.10938988
v -0.12455189 0.06655525 -0.11228010
v -0.12518600 0.06433748 -0.10638690
v -0.12541331 0.06354242 -0.10328912
v -0.12557726 0.06296904 -0.10012326
v -0.12567636 0.06262241 -0.09690841
v -0.12570953 0.06250640 -0.00000000
v -0.12570953 0.06250640 -0.09366833
v -0.01058498 0.03385552 0.09366833
v -0.12570953 0.06250640 0.09366833
v -0.01058956 0.03394179 0.09635089
v -0.01071505 0.03627700 0.10766542
v -0.01060329 0.03420010 0.09902059
v -0.01062617 0.03462894 0.10166474
v -0.01065818 0.03522581 0.10427080
v -0.01110886 0.04327672 0.11996756
v -0.01078805 0.03761023 0.11094328
v -0.01087849 0.03923810 0.11412369
v -0.01098582 0.04113796 0.11714806
v -0.01156619 0.05091637 0.12703392
v -0.01124709 0.04563378 0.12256484
v -0.01139983 0.04818769 0.12492468
v -0.00592777 0.07307998 0.13702369
v -0.01234322 0.06312695 0.13277352
v -0.01174511 0.05379724 0.12888144
v -0.01193486 0.05680098 0.13045517
v -0.01213476 0.05991783 0.13175477
v -0.00434831 0.27093151 0.13907878
v -0.01277802 0.06973123 0.13394634
v -0.00798520 0.07307998 0.13544190
v -0.00801442 0.27093151 0.13542502
v -0.01255834 0.06640580 0.13350546
v -0.01040183 0.07307998 0.13443701
v -0.00810882 0.27093151 0.13537140
v -0.12567724 0.06261933 0.09686527
v -0.12558074 0.06295682 0.10003804
v -0.12542097 0.06351564 0.10316575
v -0.12519984 0.06428904 0.10622185
v -0.12491936 0.06527003 0.10918946
v -0.12457962 0.06645830 0.11206901
v -0.12417583 0.06787053 0.11488291
v -0.12431904 0.06736968 0.11394386
v -0.12371588 0.06947923 0.11756248
v -0.12320454 0.07126762 0.12008175
v -0.12205168 0.07529978 0.12455388
v -0.12264762 0.07321547 0.12241828
v -0.12142383 0.07749572 0.12647505
v -0.12103252 0.07886430 0.12752701
v -0.12010195 0.08211899 0.12964438
v -0.12077145 0.07977742 0.12817314
v -0.11941284 0.08452916 0.13090557
v -0.11870712 0.08699743 0.13195723
v -0.11799099 0.08950211 0.13279611
v -0.11664680 0.09420343 0.13379687
v -0.11786772 0.08993325 0.13291843
v -0.11730299 0.09190839 0.13339894
v -0.01300000 0.07307998 0.13409358
v -0.11601457 0.09641466 0.13402170
v -0.01300000 0.17200574 0.13409358
v -0.11540000 0.09856411 0.13409358
v -0.01300000 0.27093151 0.13409358
v -0.00764059 0.28354570 0.13356304
v -0.11540000 0.24544738 0.13409358
v -0.01277730 0.27429113 0.13394539
v -0.00724266 0.29503152 0.12774292
v -0.00695353 0.30418047 0.11847724
v -0.00678198 0.31005257 0.10672095
v -0.01213217 0.28413376 0.13174005
v -0.01255694 0.27762699 0.13350168
v -0.01234119 0.28091562 0.13276511
v -0.01139568 0.29589257 0.12486640
v -0.01193180 0.28725857 0.13043256
v -0.01174098 0.29028010 0.12884310
v -0.01156166 0.29316875 0.12698188
v -0.01098514 0.30288541 0.11713086
v -0.01124386 0.29843229 0.12250967
v -0.01110686 0.30076927 0.11992596
v -0.01065866 0.30877694 0.10430394
v -0.01087905 0.30476338 0.11414129
v -0.01078934 0.30637792 0.11099418
v -0.01071588 0.30771926 0.10770794
v -0.01058959 0.31006914 0.09635963
v -0.01062643 0.30937758 0.10169017
v -0.01060341 0.30980915 0.09903784
v -0.11664422 0.24979906 0.13379811
v -0.11601494 0.24759811 0.13402161
v -0.11729414 0.25207216 0.13340543
v -0.11867857 0.25691423 0.13199496
v -0.11786223 0.25405908 0.13292374
v -0.11797050 0.25443774 0.13281688
v -0.11939265 0.25941172 0.13093893
v -0.12008024 0.26181656 0.12968788
v -0.12074577 0.26414430 0.12823437
v -0.12139279 0.26640725 0.12656228
v -0.12102584 0.26512381 0.12754409
v -0.12201508 0.26858371 0.12467449
v -0.12316038 0.27258939 0.12028106
v -0.12260634 0.27065164 0.12257738
v -0.12367126 0.27437621 0.11779941
v -0.12413348 0.27599284 0.11514990
v -0.12431349 0.27662241 0.11398133
v -0.12489124 0.27864313 0.10945199
v -0.12454218 0.27742225 0.11235336
v -0.12518165 0.27965876 0.10643832
v -0.12541084 0.28046039 0.10332875
v -0.12557615 0.28103855 0.10015020
v -0.12567610 0.28138810 0.09692202
v -0.12570953 0.28150511 0.09366833
v -0.13413280 0.27842051 -0.00000000
v -0.13289374 0.27747652 0.10452412
v -0.13410756 0.27843297 0.09366833
v -0.13412029 0.27842668 -0.09366833
v -0.12977818 0.25387096 -0.13027143
v -0.11887751 0.09856411 -0.13394053
v -0.11885837 0.24544738 -0.13394220
v -0.13274924 0.27395612 -0.11298332
v -0.14154847 0.27308020 -0.09998060
v -0.12694617 0.26218131 -0.12786552
v -0.13879481 0.26561630 -0.11811931
v -0.12834886 0.08792812 -0.13014024
v -0.12232728 0.09856411 -0.13348275
v -0.13055076 0.07601150 -0.12200417
v -0.13307670 0.06654304 -0.10424583
v -0.13905556 0.07497766 -0.11391313
v -0.13417211 0.06561046 0.00000000
v -0.13410756 0.06557853 -0.09366833
v -0.13416839 0.06560861 0.09366833
v -0.13980469 0.06899622 0.09366833
v -0.11887751 0.09856411 0.13394053
v -0.11885219 0.24544738 0.13394275
v -0.13307549 0.06654291 0.10424741
v -0.13905829 0.07497766 0.11390986
v -0.13055281 0.07601105 0.12200263
v -0.12834691 0.08792844 0.13014106
v -0.12572019 0.09856411 0.13272494
v -0.12903824 0.09856411 0.13167128
v -0.12232728 0.09856411 0.13348275
v -0.13134098 0.25651050 0.12875445
v -0.12227920 0.24544738 0.13349126
v -0.13358589 0.26854837 0.11955652
v -0.13982587 0.27500004 0.09366833
v -0.14333540 0.26863870 0.10802174
v -0.14145502 0.27376300 0.09366833
v -0.14150092 0.27372620 -0.00000000
v -0.14917947 0.26543429 0.09366833
v -0.14266606 0.25754011 0.12018769
v -0.15057890 0.25704405 0.10824181
v -0.15187952 0.26075608 0.09366833
v -0.15185210 0.26081282 -0.00000000
v -0.15397486 0.25532004 0.09366833
v -0.15539999 0.24544738 -0.00000000
v -0.13525845 0.24544738 0.12875983
v -0.12566131 0.24544738 0.13274078
v -0.12896718 0.24544738 0.13169724
v -0.13217300 0.24544738 0.13036785
v -0.14592245 0.24544738 0.11979624
v -0.13819876 0.24544738 0.12688439
v -0.14097011 0.24544738 0.12475523
v -0.14355157 0.24544738 0.12238679
v -0.15294470 0.24544738 0.10761340
v -0.14806394 0.24544738 0.11700203
v -0.14995775 0.24544738 0.11402603
v -0.15158910 0.24544738 0.11088914
v -0.15531248 0.24544738 0.09634103
v -0.15539999 0.24544738 0.09366833
v -0.15401132 0.24544738 0.10422768
v -0.15461591 0.24544738 0.10163327
v -0.15505049 0.24544738 0.09900068
v -0.15531376 0.09856411 0.09632143
v -0.15539999 0.09856411 -0.00000000
v -0.15539999 0.09856411 0.09366833
v -0.13225597 0.09856411 0.13032900
v -0.13534482 0.09856411 0.12870976
v -0.13828450 0.09856411 0.12682411
v -0.14105321 0.09856411 0.12468521
v -0.14362919 0.09856411 0.12230886
v -0.14599250 0.09856411 0.11971241
v -0.14812440 0.09856411 0.11691535
v -0.15000829 0.09856411 0.11393813
v -0.15162848 0.09856411 0.11080434
v -0.15297133 0.09856411 0.10753997
v -0.15402751 0.09856411 0.10416699
v -0.15462637 0.09856411 0.10158048
v -0.15505579 0.09856411 0.09896024
v -0.15539999 0.24544738 -0.09366833
v -0.15539999 0.09856411 -0.09366833
v -0.14753500 0.26766956 -0.09366833
v -0.15451524 0.25325301 -0.09366833
v -0.15187155 0.26077256 -0.09366833
v -0.14154388 0.27369162 -0.09366833
v -0.15187567 0.08324745 -0.00000000
v -0.15396972 0.08867395 0.09366833
v -0.15187952 0.08325543 -0.09366833
v -0.15396917 0.08867207 -0.09366833
v -0.14154390 0.07031986 0.09366833
v -0.14155088 0.07032549 0.00000000
v -0.13980138 0.06899386 -0.09366833
v -0.15187156 0.08323891 0.09366833
v -0.14916503 0.07855597 -0.09366833
v -0.14916585 0.07855716 0.09366833
v -0.14145502 0.07024848 -0.09366833
v -0.15184526 0.08729228 0.10500249
v -0.14546415 0.07595006 0.10420121
v -0.14546162 0.07594911 -0.10420621
v -0.15184599 0.08729254 -0.10500035
v -0.15531376 0.09856411 -0.09632143
v -0.15462637 0.09856411 -0.10158048
v -0.15402751 0.09856411 -0.10416699
v -0.15505579 0.09856411 -0.09896024
v -0.15524518 0.24544738 -0.09722147
v -0.12229154 0.24544738 -0.13348909
v -0.12572019 0.09856411 -0.13272494
v -0.12567748 0.24544738 -0.13273643
v -0.12903824 0.09856411 -0.13167128
v -0.12898903 0.24544738 -0.13168928
v -0.13225597 0.09856411 -0.13032900
v -0.13067198 0.24544738 -0.13103117
v -0.13836344 0.08668834 -0.12416615
v -0.13534482 0.09856411 -0.12870976
v -0.13529086 0.24544738 -0.12874107
v -0.13220139 0.24544738 -0.13035457
v -0.13828450 0.09856411 -0.12682411
v -0.13823420 0.24544738 -0.12685953
v -0.14105321 0.09856411 -0.12468521
v -0.14100751 0.24544738 -0.12472375
v -0.14653619 0.08647108 -0.11540338
v -0.14362919 0.09856411 -0.12230886
v -0.14358938 0.24544738 -0.12234888
v -0.14599250 0.09856411 -0.11971241
v -0.14367402 0.24544738 -0.12226366
v -0.14812440 0.09856411 -0.11691535
v -0.14809024 0.24544738 -0.11696437
v -0.14595510 0.24544738 -0.11975721
v -0.15000829 0.09856411 -0.11393813
v -0.14997773 0.24544738 -0.11399133
v -0.15162848 0.09856411 -0.11080434
v -0.15160353 0.24544738 -0.11085810
v -0.15297133 0.09856411 -0.10753997
v -0.15234812 0.24544738 -0.10915565
v -0.15401648 0.24544738 -0.10420835
v -0.15295377 0.24544738 -0.10758844
v -0.15478247 0.24544738 -0.10074427
v -0.14250119 0.25565568 -0.12126804
v -0.15118627 0.25538644 -0.10816836
v -0.14751528 0.26505703 -0.10504968
v -0.14653485 0.08647101 0.11540529
v -0.13836166 0.08668848 0.12416758
v -0.12497289 0.06536362 -0.09366833
v -0.12497289 0.06536362 -0.00000000
v -0.12497289 0.06536362 0.09366833
v -0.12459676 0.06666900 0.10404434
v -0.13280943 0.06823634 -0.00000000
v -0.13280939 0.06823631 -0.09366833
v -0.13275048 0.06820720 0.09366833
v -0.13180757 0.06910516 0.10346540
v -0.13803247 0.07137442 -0.09366833
v -0.13180508 0.06910489 -0.10346866
v -0.12460738 0.06663212 -0.10389962
v -0.13963297 0.07259204 -0.00000000
v -0.13803054 0.07137304 0.09366833
v -0.14915049 0.08448031 -0.09366833
v -0.14915743 0.08449466 -0.00000000
v -0.14667107 0.08019415 0.09366833
v -0.14667092 0.08019392 -0.09366833
v -0.13963377 0.07259269 -0.09366833
v -0.13954617 0.07252238 0.09366833
v -0.15240000 0.09856411 -0.09366833
v -0.15240000 0.09856411 -0.00000000
v -0.14916000 0.08449998 0.09366833
v -0.15108718 0.08949067 -0.09366833
v -0.15240000 0.24544738 -0.09366833
v -0.15108682 0.08948945 0.09366833
v -0.15240000 0.09856411 0.09366833
v -0.15240000 0.24544738 -0.00000000
v -0.15113181 0.09856411 -0.10336953
v -0.14913303 0.08822688 -0.10412803
v -0.14328207 0.07780413 -0.10336165
v -0.14327851 0.07780279 0.10336870
v -0.14913325 0.08822696 0.10412738
v -0.15113181 0.09856411 0.10336952
v -0.15112104 0.24544738 0.10340991
v -0.15240000 0.24544738 0.09366833
v -0.11770049 0.09058856 0.12994790
v -0.12494951 0.09856411 0.12977627
v -0.11540000 0.09856411 0.13104254
v -0.11540000 0.24544738 0.13104254
v -0.11748617 0.09133159 0.13014475
v -0.12745978 0.08879282 0.12736586
v -0.13385502 0.09856411 0.12606151
v -0.12953010 0.24544738 0.12820978
v -0.12490954 0.24544738 0.12978704
v -0.13670479 0.08766335 0.12183185
v -0.14151809 0.09856411 0.12014111
v -0.14147943 0.24544738 0.12017996
v -0.13380346 0.24544738 0.12609142
v -0.14424151 0.08747048 0.11373179
v -0.14741653 0.09856411 0.11240152
v -0.14156117 0.24544738 0.12009767
v -0.14957878 0.24544738 0.10798240
v -0.14738695 0.24544738 0.11245303
v -0.13740025 0.07689510 0.11231567
v -0.12958252 0.07781473 0.11979252
v -0.12065734 0.08033562 0.12490446
v -0.11977526 0.08339459 0.12691249
v -0.12367747 0.06985905 0.11244609
v -0.12183340 0.07625658 0.12134778
v -0.12351260 0.07043111 0.11351281
v -0.11745024 0.25255778 0.13017519
v -0.12497289 0.27864787 0.09366833
v -0.12460259 0.27736798 0.10394593
v -0.12352580 0.27363828 0.11340990
v -0.12446880 0.27690017 0.10563382
v -0.12181509 0.26769269 0.12141126
v -0.11970802 0.26038828 0.12704360
v -0.12174386 0.26744592 0.12165949
v -0.12497289 0.27864787 -0.00000000
v -0.12459189 0.27733085 -0.10409095
v -0.12497289 0.27864787 -0.09366833
v -0.11540000 0.24544738 -0.13104254
v -0.11973038 0.26046586 -0.12699945
v -0.11746486 0.25260869 -0.13016258
v -0.11769111 0.25339606 -0.12995547
v -0.12065165 0.26365617 -0.12491903
v -0.12349612 0.27353546 -0.11359476
v -0.12180457 0.26765624 -0.12144823
v -0.12366929 0.27413470 -0.11248178
v -0.11540000 0.09856411 -0.13104254
v -0.11770026 0.09058933 -0.12994811
v -0.11747120 0.09138352 -0.13015775
v -0.12354244 0.07032759 -0.11332566
v -0.12367890 0.06985408 -0.11243647
v -0.12184439 0.07621845 -0.12130878
v -0.11975323 0.08347099 -0.12695654
v -0.12065652 0.08033845 -0.12490655
v -0.13740583 0.07689511 -0.11230896
v -0.12958962 0.07781321 -0.11978716
v -0.12746492 0.08879201 -0.12736370
v -0.12494951 0.09856411 -0.12977627
v -0.12489446 0.24544738 -0.12979108
v -0.14741655 0.09856411 -0.11240152
v -0.15111628 0.24544738 -0.10342765
v -0.14424236 0.08747052 -0.11373058
v -0.14151809 0.09856411 -0.12014110
v -0.14736858 0.24544738 -0.11248490
v -0.13670765 0.08766313 -0.12182953
v -0.13385503 0.09856411 -0.12606151
v -0.14144436 0.24544738 -0.12021511
v -0.13377345 0.24544738 -0.12610880
v -0.15109204 0.25450426 -0.09366834
v -0.14796692 0.25608304 -0.10711779
v -0.14067411 0.25654367 -0.11815200
v -0.13022943 0.25560910 -0.12607716
v -0.13164128 0.27491358 -0.10371902
v -0.13275048 0.27580428 -0.09366833
v -0.13277318 0.27579308 -0.00000000
v -0.13238046 0.26669008 -0.11752230
v -0.13805318 0.27262217 -0.09366833
v -0.14133057 0.26674139 -0.10688031
v -0.13954617 0.27148911 -0.09366833
v -0.13958716 0.27145627 -0.00000000
v -0.14668436 0.26379782 -0.09366833
v -0.14915998 0.25951150 -0.09366833
v -0.14913625 0.25956061 -0.00000000
v -0.14515826 0.26587090 0.09366833
v -0.15158561 0.25261813 0.09366833
v -0.14915048 0.25953117 0.09366833
v -0.13963376 0.27141878 0.09366833
v -0.13277209 0.27579361 0.09366833
v -0.12870964 0.25316966 0.12751444
v -0.14048415 0.25480646 0.11918761
v -0.14851476 0.25456369 0.10707217
v -0.13150164 0.27164742 0.11157330
v -0.13964356 0.27084807 0.09951484
v -0.12609889 0.26079902 0.12531225
v -0.13707720 0.26395753 0.11630016
v -0.14514317 0.26345092 0.10419833
f 1 2 3
f 4 3 2
f 5 1 3
f 6 3 4
f 7 3 6
f 8 9 3
f 10 3 9
f 11 8 3
f 12 11 3
f 13 12 3
f 14 13 3
f 15 14 3
f 16 15 3
f 17 18 3
f 19 3 18
f 20 17 3
f 21 20 3
f 22 21 3
f 7 22 3
f 10 5 3
f 23 16 3
f 24 23 3
f 25 24 3
f 26 25 3
f 27 26 3
f 19 27 3
f 1 28 2
f 29 2 28
f 30 4 2
f 31 30 2
f 32 33 2
f 31 2 33
f 34 32 2
f 35 34 2
f 36 37 2
f 38 2 37
f 39 36 2
f 40 39 2
f 41 40 2
f 29 41 2
f 42 35 2
f 43 42 2
f 44 43 2
f 45 44 2
f 46 45 2
f 38 46 2
f 47 28 1
f 29 28 47
f 47 1 5
f 48 6 4
f 48 4 30
f 7 6 48
f 49 50 51
f 52 51 50
f 53 49 51
f 53 51 52
f 49 54 50
f 55 50 54
f 55 52 50
f 56 57 54
f 58 54 57
f 59 56 54
f 60 59 54
f 61 54 49
f 62 54 61
f 63 60 54
f 64 63 54
f 65 64 54
f 66 65 54
f 62 66 54
f 67 55 54
f 68 67 54
f 58 69 68
f 68 54 58
f 70 57 56
f 71 72 57
f 73 57 72
f 74 58 57
f 75 71 57
f 76 57 73
f 77 74 57
f 78 77 57
f 79 78 57
f 80 79 57
f 76 80 57
f 70 75 57
f 59 81 56
f 70 56 81
f 82 83 81
f 84 81 83
f 59 82 81
f 70 81 85
f 84 85 81
f 82 86 83
f 87 83 86
f 87 84 83
f 82 88 86
f 87 86 88
f 82 89 88
f 90 88 89
f 90 87 88
f 82 91 89
f 92 89 91
f 92 90 89
f 82 93 91
f 92 91 93
f 94 95 93
f 96 93 95
f 82 94 93
f 97 92 93
f 98 97 93
f 96 98 93
f 99 100 95
f 96 95 100
f 94 99 95
f 99 101 100
f 96 100 101
f 99 102 101
f 103 101 102
f 96 101 98
f 103 98 101
f 99 104 102
f 105 102 104
f 105 103 102
f 99 106 104
f 105 104 106
f 107 108 106
f 109 106 108
f 99 107 106
f 109 105 106
f 110 111 108
f 112 108 111
f 113 110 108
f 107 113 108
f 112 109 108
f 114 115 111
f 112 111 115
f 110 114 111
f 114 30 115
f 116 115 30
f 117 115 116
f 117 112 115
f 118 48 30
f 119 118 30
f 120 119 30
f 121 122 30
f 123 30 122
f 124 121 30
f 125 124 30
f 114 125 30
f 126 120 30
f 127 126 30
f 128 127 30
f 129 128 30
f 130 129 30
f 123 130 30
f 131 30 31
f 116 30 131
f 7 48 118
f 22 118 119
f 7 118 22
f 120 132 119
f 21 119 132
f 22 119 21
f 120 133 132
f 20 132 133
f 21 132 20
f 120 134 133
f 17 133 134
f 20 133 17
f 120 135 134
f 18 134 135
f 17 134 18
f 120 136 135
f 137 135 136
f 18 135 137
f 138 139 136
f 140 136 139
f 141 136 120
f 141 138 136
f 137 136 140
f 142 143 139
f 144 139 143
f 145 142 139
f 138 145 139
f 140 139 144
f 123 122 143
f 146 143 122
f 147 123 143
f 142 147 143
f 144 143 146
f 146 122 121
f 148 121 124
f 146 121 148
f 15 124 125
f 148 124 15
f 14 125 114
f 15 125 14
f 13 114 110
f 14 114 13
f 12 110 113
f 13 110 12
f 11 113 107
f 12 113 11
f 8 107 99
f 11 107 8
f 9 99 94
f 8 99 9
f 149 94 82
f 9 94 149
f 150 82 59
f 149 82 150
f 151 152 59
f 153 59 152
f 60 151 59
f 153 150 59
f 61 49 152
f 154 152 49
f 155 61 152
f 156 155 152
f 157 156 152
f 158 157 152
f 151 158 152
f 154 153 152
f 53 154 49
f 159 61 155
f 160 62 61
f 160 61 159
f 161 155 156
f 159 155 161
f 162 156 157
f 161 156 162
f 163 157 158
f 162 157 163
f 164 158 151
f 163 158 164
f 165 151 60
f 164 151 165
f 166 60 63
f 165 60 166
f 167 63 64
f 167 166 63
f 168 64 65
f 167 64 168
f 169 65 66
f 168 65 169
f 170 66 62
f 169 66 170
f 170 62 160
f 19 120 126
f 171 141 120
f 171 120 19
f 27 126 127
f 19 126 27
f 26 127 128
f 27 127 26
f 25 128 129
f 26 128 25
f 24 129 130
f 25 129 24
f 23 130 123
f 24 130 23
f 16 123 147
f 23 123 16
f 172 147 142
f 172 16 147
f 173 142 145
f 172 142 173
f 174 145 138
f 173 145 174
f 175 138 141
f 174 138 175
f 175 141 171
f 53 52 55
f 55 67 53
f 176 150 153
f 177 149 150
f 178 177 150
f 179 178 150
f 180 179 150
f 181 180 150
f 182 181 150
f 176 182 150
f 166 153 154
f 166 176 153
f 159 154 53
f 165 166 154
f 164 165 154
f 163 164 154
f 162 163 154
f 161 162 154
f 159 161 154
f 159 53 67
f 159 67 176
f 183 176 67
f 184 67 185
f 68 185 67
f 186 183 67
f 187 186 67
f 188 187 67
f 189 67 184
f 190 67 189
f 191 188 67
f 192 191 67
f 193 192 67
f 194 193 67
f 190 194 67
f 195 9 149
f 196 195 149
f 177 196 149
f 197 10 9
f 198 197 9
f 199 198 9
f 200 199 9
f 195 200 9
f 16 148 15
f 16 146 148
f 172 144 146
f 172 146 16
f 174 140 144
f 173 174 144
f 172 173 144
f 171 137 140
f 175 171 140
f 174 175 140
f 19 18 137
f 171 19 137
f 201 5 10
f 202 5 203
f 204 203 5
f 205 47 5
f 206 207 5
f 208 5 207
f 209 206 5
f 210 209 5
f 211 210 5
f 212 211 5
f 213 212 5
f 214 213 5
f 202 214 5
f 215 205 5
f 216 215 5
f 217 216 5
f 218 217 5
f 219 218 5
f 208 219 5
f 204 5 201
f 220 10 197
f 201 10 220
f 221 197 198
f 222 220 197
f 221 222 197
f 221 198 199
f 223 199 200
f 223 221 199
f 224 200 195
f 224 223 200
f 225 195 196
f 226 195 225
f 226 224 195
f 227 196 177
f 227 225 196
f 228 177 178
f 227 177 228
f 229 178 179
f 230 178 229
f 228 178 230
f 231 179 180
f 229 179 231
f 232 180 181
f 233 180 232
f 231 180 233
f 232 181 182
f 234 182 176
f 232 182 234
f 167 176 166
f 160 159 176
f 170 160 176
f 169 170 176
f 168 169 176
f 167 168 176
f 235 176 183
f 234 176 235
f 184 185 236
f 69 236 185
f 58 184 236
f 69 58 236
f 68 69 185
f 186 237 183
f 238 183 237
f 238 235 183
f 186 239 237
f 240 237 239
f 241 238 237
f 240 241 237
f 186 242 239
f 240 239 242
f 186 243 242
f 244 242 243
f 244 240 242
f 186 245 243
f 246 243 245
f 246 244 243
f 247 248 245
f 249 245 248
f 186 247 245
f 250 245 249
f 250 246 245
f 202 251 248
f 252 248 251
f 247 202 248
f 252 249 248
f 202 253 251
f 254 251 253
f 252 251 254
f 202 255 253
f 256 253 255
f 257 254 253
f 256 257 253
f 202 258 255
f 259 255 258
f 259 256 255
f 202 260 258
f 261 258 260
f 262 259 258
f 261 262 258
f 202 203 260
f 261 260 203
f 261 203 204
f 205 263 47
f 29 47 263
f 205 264 263
f 41 263 264
f 29 263 41
f 205 265 264
f 40 264 265
f 41 264 40
f 205 266 265
f 39 265 266
f 40 265 39
f 205 267 266
f 36 266 267
f 39 266 36
f 205 268 267
f 37 267 268
f 36 267 37
f 205 269 268
f 270 268 269
f 37 268 270
f 271 272 269
f 273 269 272
f 274 269 205
f 274 271 269
f 270 269 273
f 275 276 272
f 277 272 276
f 278 275 272
f 271 278 272
f 273 272 277
f 208 207 276
f 279 276 207
f 280 208 276
f 275 280 276
f 277 276 279
f 279 207 206
f 281 206 209
f 279 206 281
f 34 209 210
f 281 209 34
f 32 210 211
f 34 210 32
f 33 211 212
f 32 211 33
f 282 212 213
f 33 212 282
f 283 213 214
f 282 213 283
f 284 214 202
f 283 214 284
f 285 202 247
f 284 202 285
f 286 247 186
f 285 247 286
f 287 186 187
f 286 186 287
f 288 289 187
f 72 187 289
f 188 288 187
f 72 287 187
f 189 184 289
f 290 289 184
f 291 189 289
f 292 291 289
f 293 292 289
f 294 293 289
f 288 294 289
f 290 72 289
f 58 290 184
f 74 189 291
f 77 190 189
f 77 189 74
f 295 291 292
f 74 291 295
f 296 292 293
f 295 292 296
f 297 293 294
f 296 293 297
f 298 294 288
f 297 294 298
f 299 288 188
f 298 288 299
f 73 188 191
f 299 188 73
f 76 191 192
f 76 73 191
f 80 192 193
f 76 192 80
f 79 193 194
f 80 193 79
f 78 194 190
f 79 194 78
f 78 190 77
f 38 205 215
f 300 274 205
f 300 205 38
f 46 215 216
f 38 215 46
f 45 216 217
f 46 216 45
f 44 217 218
f 45 217 44
f 43 218 219
f 44 218 43
f 42 219 208
f 43 219 42
f 35 208 280
f 42 208 35
f 301 280 275
f 301 35 280
f 302 275 278
f 301 275 302
f 303 278 271
f 302 278 303
f 304 271 274
f 303 271 304
f 304 274 300
f 305 287 72
f 306 286 287
f 307 306 287
f 308 307 287
f 309 308 287
f 310 309 287
f 305 310 287
f 73 72 290
f 311 305 72
f 71 311 72
f 74 290 58
f 299 73 290
f 298 299 290
f 297 298 290
f 296 297 290
f 295 296 290
f 74 295 290
f 312 285 286
f 313 312 286
f 306 313 286
f 314 284 285
f 315 314 285
f 316 315 285
f 317 316 285
f 318 317 285
f 312 318 285
f 314 283 284
f 319 282 283
f 314 319 283
f 31 33 282
f 319 31 282
f 35 281 34
f 35 279 281
f 301 277 279
f 301 279 35
f 303 273 277
f 302 303 277
f 301 302 277
f 300 270 273
f 304 300 273
f 303 304 273
f 38 37 270
f 300 38 270
f 131 31 319
f 320 319 314
f 131 319 321
f 320 321 319
f 322 314 315
f 322 320 314
f 322 315 316
f 323 316 317
f 323 322 316
f 324 317 318
f 324 323 317
f 324 318 312
f 325 312 313
f 326 324 312
f 327 326 312
f 325 327 312
f 325 313 306
f 325 306 307
f 328 307 308
f 325 307 327
f 328 327 307
f 329 308 309
f 329 328 308
f 329 309 310
f 330 310 305
f 330 329 310
f 331 305 311
f 331 330 305
f 331 311 71
f 332 331 71
f 75 332 71
f 116 321 333
f 320 333 321
f 334 116 333
f 335 334 333
f 336 333 320
f 335 333 336
f 116 131 321
f 337 116 334
f 338 117 116
f 337 338 116
f 339 337 334
f 340 339 334
f 341 340 334
f 335 341 334
f 342 320 322
f 343 336 320
f 344 343 320
f 345 344 320
f 342 345 320
f 346 322 323
f 347 342 322
f 348 347 322
f 349 348 322
f 346 349 322
f 350 323 324
f 351 346 323
f 352 351 323
f 350 352 323
f 326 353 324
f 354 324 353
f 355 350 324
f 356 355 324
f 357 356 324
f 354 357 324
f 358 353 326
f 359 353 360
f 361 360 353
f 362 354 353
f 359 362 353
f 358 361 353
f 327 358 326
f 363 359 360
f 364 363 360
f 361 364 360
f 365 336 343
f 365 335 336
f 366 343 344
f 366 365 343
f 367 344 345
f 367 366 344
f 368 345 342
f 368 367 345
f 369 342 347
f 370 368 342
f 369 370 342
f 371 347 348
f 371 369 347
f 372 348 349
f 372 371 348
f 373 349 346
f 373 372 349
f 374 346 351
f 374 373 346
f 375 351 352
f 376 374 351
f 375 376 351
f 377 352 350
f 378 375 352
f 377 378 352
f 379 350 355
f 379 377 350
f 380 355 356
f 380 379 355
f 381 356 357
f 381 380 356
f 382 357 354
f 382 381 357
f 383 354 362
f 383 382 354
f 384 362 359
f 385 383 362
f 384 385 362
f 363 386 359
f 387 359 386
f 387 384 359
f 388 386 363
f 389 386 388
f 387 386 389
f 364 390 363
f 388 363 390
f 391 390 364
f 392 388 390
f 393 390 391
f 392 390 393
f 328 364 361
f 391 364 328
f 328 361 358
f 328 358 327
f 392 389 388
f 391 328 329
f 394 329 330
f 394 391 329
f 395 330 331
f 395 394 330
f 396 331 332
f 396 395 331
f 396 332 397
f 75 397 332
f 398 396 397
f 75 398 397
f 399 391 394
f 400 393 391
f 401 400 391
f 399 401 391
f 402 394 395
f 403 399 394
f 404 403 394
f 405 404 394
f 402 405 394
f 406 395 396
f 407 402 395
f 408 407 395
f 406 408 395
f 409 396 398
f 410 406 396
f 411 410 396
f 412 411 396
f 409 412 396
f 413 398 414
f 415 414 398
f 416 409 398
f 417 416 398
f 413 417 398
f 75 415 398
f 418 413 414
f 415 418 414
f 419 393 400
f 420 392 393
f 419 420 393
f 421 400 401
f 421 419 400
f 422 401 399
f 423 421 401
f 424 423 401
f 422 424 401
f 425 399 403
f 425 422 399
f 426 403 404
f 426 425 403
f 427 404 405
f 427 426 404
f 428 405 402
f 429 427 405
f 428 429 405
f 430 402 407
f 430 428 402
f 431 407 408
f 431 430 407
f 432 408 406
f 433 431 408
f 432 433 408
f 434 406 410
f 434 432 406
f 435 410 411
f 435 434 410
f 436 411 412
f 437 435 411
f 436 437 411
f 438 412 409
f 438 436 412
f 439 409 416
f 439 438 409
f 440 416 417
f 440 439 416
f 441 417 413
f 441 440 417
f 441 413 418
f 442 418 415
f 443 441 418
f 442 443 418
f 444 415 75
f 445 415 444
f 445 442 415
f 85 444 75
f 70 85 75
f 84 444 85
f 446 444 84
f 445 444 446
f 447 84 87
f 448 446 84
f 449 448 84
f 450 449 84
f 447 450 84
f 451 87 90
f 452 447 87
f 453 452 87
f 454 453 87
f 451 454 87
f 455 90 92
f 456 451 90
f 457 456 90
f 455 457 90
f 97 458 92
f 459 92 458
f 460 455 92
f 461 460 92
f 462 461 92
f 459 462 92
f 463 458 97
f 464 458 465
f 466 465 458
f 467 459 458
f 464 467 458
f 463 466 458
f 98 463 97
f 468 464 465
f 469 468 465
f 466 469 465
f 470 446 448
f 470 445 446
f 471 448 449
f 471 470 448
f 472 449 450
f 472 471 449
f 473 450 447
f 473 472 450
f 474 447 452
f 474 473 447
f 475 452 453
f 475 474 452
f 476 453 454
f 477 475 453
f 476 477 453
f 478 454 451
f 478 476 454
f 479 451 456
f 479 478 451
f 480 456 457
f 481 479 456
f 480 481 456
f 482 457 455
f 482 480 457
f 483 455 460
f 483 482 455
f 484 460 461
f 485 483 460
f 484 485 460
f 486 461 462
f 486 484 461
f 487 462 459
f 487 486 462
f 488 459 467
f 488 487 459
f 489 467 464
f 490 488 467
f 491 490 467
f 489 491 467
f 468 492 464
f 493 464 492
f 493 489 464
f 494 492 468
f 495 492 494
f 493 492 495
f 469 496 468
f 494 468 496
f 497 496 469
f 498 494 496
f 499 496 497
f 498 496 499
f 103 469 466
f 497 469 103
f 103 466 463
f 103 463 98
f 498 495 494
f 497 103 105
f 500 105 109
f 500 497 105
f 501 109 112
f 501 500 109
f 502 112 117
f 502 501 112
f 502 117 338
f 337 502 338
f 503 497 500
f 504 499 497
f 505 504 497
f 503 505 497
f 506 500 501
f 507 503 500
f 508 507 500
f 509 508 500
f 506 509 500
f 510 501 502
f 511 506 501
f 512 511 501
f 510 512 501
f 513 502 337
f 514 510 502
f 515 514 502
f 516 515 502
f 513 516 502
f 517 337 339
f 518 513 337
f 519 518 337
f 517 519 337
f 340 517 339
f 520 499 504
f 521 498 499
f 520 521 499
f 522 504 505
f 522 520 504
f 523 505 503
f 524 522 505
f 525 524 505
f 523 525 505
f 526 503 507
f 526 523 503
f 527 507 508
f 527 526 507
f 528 508 509
f 528 527 508
f 529 509 506
f 530 528 509
f 529 530 509
f 531 506 511
f 531 529 506
f 532 511 512
f 533 531 511
f 532 533 511
f 534 512 510
f 534 532 512
f 535 510 514
f 535 534 510
f 536 514 515
f 536 535 514
f 537 515 516
f 538 536 515
f 537 538 515
f 539 516 513
f 539 537 516
f 540 513 518
f 540 539 513
f 541 518 519
f 541 540 518
f 542 519 517
f 542 541 519
f 542 517 340
f 341 543 340
f 542 340 543
f 544 543 341
f 545 542 543
f 546 545 543
f 544 546 543
f 547 341 335
f 547 544 341
f 547 335 365
f 548 387 389
f 549 389 392
f 550 389 549
f 548 389 550
f 547 365 366
f 547 366 367
f 547 367 368
f 547 368 370
f 371 370 369
f 372 370 371
f 373 370 372
f 374 370 373
f 551 370 374
f 552 547 370
f 551 552 370
f 551 374 376
f 551 376 375
f 377 375 378
f 379 375 377
f 380 375 379
f 553 375 380
f 551 375 554
f 553 554 375
f 553 380 381
f 553 381 382
f 553 382 383
f 553 383 385
f 548 385 384
f 553 385 548
f 548 384 387
f 419 392 420
f 421 392 419
f 549 392 421
f 549 421 423
f 422 423 424
f 425 423 422
f 426 423 425
f 427 423 426
f 429 423 427
f 555 423 429
f 556 549 423
f 555 556 423
f 430 429 428
f 431 429 430
f 433 429 431
f 432 429 433
f 557 429 432
f 557 555 429
f 557 432 434
f 557 434 435
f 436 435 437
f 438 435 436
f 439 435 438
f 440 435 439
f 558 435 440
f 557 435 559
f 558 559 435
f 558 440 441
f 558 441 443
f 560 443 442
f 561 443 560
f 558 443 561
f 562 442 445
f 562 560 442
f 563 445 470
f 562 445 563
f 564 493 495
f 565 495 498
f 564 495 565
f 566 470 471
f 566 563 470
f 566 471 472
f 566 472 473
f 566 473 474
f 566 474 475
f 566 475 477
f 567 477 476
f 567 566 477
f 568 476 478
f 568 567 476
f 568 478 479
f 568 479 481
f 568 481 480
f 568 480 482
f 568 482 483
f 569 483 485
f 568 483 569
f 569 485 484
f 569 484 486
f 569 486 487
f 569 487 488
f 569 488 490
f 564 490 491
f 570 571 490
f 569 490 571
f 572 570 490
f 564 572 490
f 564 491 489
f 564 489 493
f 520 498 521
f 522 498 520
f 565 498 522
f 565 522 524
f 523 524 525
f 526 524 523
f 527 524 526
f 528 524 527
f 530 524 528
f 573 524 530
f 574 524 573
f 574 565 524
f 531 530 529
f 533 530 531
f 532 530 533
f 534 530 532
f 535 530 534
f 536 530 535
f 575 530 536
f 573 530 575
f 537 536 538
f 539 536 537
f 540 536 539
f 545 536 540
f 575 536 545
f 545 540 541
f 545 541 542
f 546 576 545
f 577 545 576
f 577 575 545
f 544 576 546
f 577 576 578
f 579 578 576
f 544 579 576
f 580 577 578
f 579 580 578
f 581 575 577
f 581 573 575
f 582 577 580
f 582 581 577
f 582 580 583
f 584 583 580
f 579 584 580
f 585 582 583
f 586 585 583
f 584 586 583
f 587 573 581
f 588 574 573
f 589 588 573
f 590 589 573
f 587 590 573
f 591 581 582
f 592 587 581
f 593 592 581
f 594 593 581
f 591 594 581
f 595 582 585
f 596 591 582
f 597 596 582
f 598 597 582
f 595 598 582
f 599 585 600
f 586 600 585
f 601 595 585
f 602 601 585
f 603 602 585
f 599 603 585
f 604 599 600
f 605 600 586
f 605 606 600
f 604 600 606
f 564 565 574
f 572 574 588
f 564 574 572
f 570 588 589
f 572 588 570
f 571 589 590
f 570 589 571
f 607 590 587
f 571 590 607
f 608 587 592
f 607 587 608
f 609 592 593
f 608 592 609
f 610 593 594
f 609 593 610
f 611 594 591
f 610 594 611
f 612 591 596
f 611 591 612
f 613 596 597
f 612 596 613
f 614 597 598
f 613 597 614
f 615 598 595
f 614 598 615
f 616 595 601
f 615 595 616
f 617 601 602
f 616 601 617
f 618 602 603
f 617 602 618
f 619 603 599
f 618 603 619
f 619 599 604
f 620 586 584
f 621 605 586
f 620 621 586
f 622 584 579
f 623 620 584
f 624 584 622
f 623 584 624
f 625 579 544
f 622 579 625
f 625 544 547
f 626 606 605
f 627 606 626
f 604 606 627
f 628 626 605
f 629 628 605
f 621 629 605
f 630 631 560
f 632 560 631
f 563 630 560
f 562 563 560
f 632 561 560
f 633 626 631
f 634 631 626
f 635 633 631
f 630 635 631
f 636 632 631
f 634 636 631
f 633 627 626
f 628 634 626
f 635 627 633
f 637 627 635
f 637 604 627
f 563 635 630
f 638 635 563
f 638 637 635
f 638 563 566
f 558 561 632
f 639 632 636
f 558 632 639
f 639 636 634
f 640 634 628
f 639 634 640
f 640 628 629
f 641 629 621
f 642 643 629
f 640 629 643
f 644 642 629
f 641 644 629
f 645 641 621
f 620 645 621
f 646 549 556
f 646 550 549
f 555 647 556
f 648 556 647
f 648 646 556
f 555 649 647
f 650 647 649
f 650 648 647
f 555 651 649
f 652 649 651
f 652 650 649
f 653 654 651
f 655 651 654
f 555 653 651
f 656 652 651
f 655 656 651
f 653 657 654
f 658 654 657
f 658 655 654
f 653 659 657
f 660 657 659
f 660 658 657
f 661 662 659
f 663 659 662
f 653 661 659
f 663 660 659
f 661 664 662
f 665 662 664
f 665 663 662
f 661 666 664
f 667 664 666
f 668 665 664
f 667 668 664
f 661 669 666
f 670 666 669
f 670 667 666
f 640 671 669
f 672 669 671
f 661 640 669
f 672 670 669
f 640 673 671
f 674 671 673
f 674 672 671
f 640 643 673
f 675 673 643
f 676 674 673
f 675 676 673
f 675 643 642
f 677 642 644
f 677 675 642
f 645 644 641
f 645 677 644
f 639 640 661
f 559 661 653
f 559 639 661
f 557 653 555
f 557 559 653
f 558 639 559
f 548 550 646
f 548 646 648
f 548 648 650
f 548 650 652
f 678 652 656
f 548 652 678
f 678 656 655
f 678 655 658
f 678 658 660
f 678 660 663
f 678 663 665
f 679 665 668
f 678 665 679
f 679 668 667
f 679 667 670
f 679 670 672
f 679 672 674
f 623 674 676
f 623 679 674
f 623 676 675
f 623 675 677
f 623 677 645
f 623 645 620
f 625 547 552
f 551 680 552
f 622 552 680
f 622 625 552
f 554 679 680
f 624 680 679
f 551 554 680
f 624 622 680
f 554 678 679
f 623 624 679
f 553 678 554
f 553 548 678
f 637 619 604
f 637 618 619
f 637 617 618
f 637 616 617
f 681 615 616
f 637 681 616
f 681 614 615
f 681 613 614
f 682 612 613
f 681 682 613
f 682 611 612
f 682 610 611
f 682 609 610
f 569 608 609
f 682 569 609
f 569 607 608
f 569 571 607
f 568 569 682
f 567 682 681
f 568 682 567
f 638 681 637
f 567 681 638
f 567 638 566
f 683 235 238
f 684 234 235
f 683 684 235
f 241 683 238
f 685 234 684
f 686 234 685
f 232 234 686
f 687 685 684
f 688 684 683
f 688 687 684
f 689 685 687
f 690 685 689
f 686 685 690
f 688 683 691
f 692 691 683
f 693 683 241
f 692 683 693
f 691 694 687
f 695 687 694
f 688 691 687
f 695 689 687
f 696 697 694
f 698 694 697
f 699 696 694
f 700 699 694
f 691 700 694
f 701 695 694
f 698 701 694
f 702 703 697
f 704 697 703
f 705 702 697
f 696 705 697
f 704 698 697
f 706 703 702
f 707 704 703
f 708 707 703
f 709 708 703
f 709 703 706
f 710 702 705
f 706 702 710
f 699 705 696
f 711 705 699
f 711 710 705
f 691 699 700
f 712 699 691
f 712 711 699
f 712 691 692
f 690 689 695
f 713 695 701
f 690 695 713
f 713 701 698
f 714 698 704
f 713 698 714
f 714 704 707
f 715 707 708
f 714 707 715
f 716 715 708
f 717 708 709
f 716 708 717
f 718 719 720
f 721 720 719
f 722 718 720
f 230 722 720
f 228 230 720
f 227 228 720
f 721 227 720
f 723 724 719
f 725 719 724
f 718 723 719
f 726 721 719
f 725 726 719
f 727 728 724
f 729 724 728
f 723 727 724
f 730 725 724
f 729 730 724
f 731 732 728
f 733 728 732
f 727 731 728
f 733 729 728
f 714 715 732
f 734 732 715
f 731 714 732
f 735 733 732
f 734 735 732
f 716 734 715
f 713 714 731
f 736 731 727
f 736 713 731
f 737 727 723
f 737 736 727
f 738 723 718
f 738 737 723
f 230 718 722
f 738 718 739
f 230 739 718
f 229 738 739
f 230 229 739
f 690 713 736
f 740 736 737
f 740 690 736
f 741 737 738
f 742 737 741
f 742 740 737
f 231 741 738
f 229 231 738
f 231 742 741
f 686 690 740
f 233 740 742
f 232 686 740
f 233 232 740
f 231 233 742
f 721 225 227
f 743 226 225
f 743 225 721
f 744 220 222
f 744 201 220
f 745 222 221
f 745 744 222
f 746 221 223
f 747 745 221
f 746 747 221
f 748 223 224
f 748 746 223
f 749 224 226
f 750 748 224
f 749 750 224
f 743 749 226
f 751 204 201
f 744 751 201
f 752 261 204
f 752 204 753
f 751 753 204
f 754 254 257
f 754 252 254
f 755 257 256
f 756 754 257
f 757 257 755
f 756 257 757
f 758 256 259
f 755 256 758
f 759 259 262
f 760 259 759
f 758 259 760
f 761 262 261
f 759 262 761
f 761 261 752
f 762 249 252
f 763 250 249
f 764 763 249
f 762 764 249
f 754 762 252
f 693 241 240
f 765 240 244
f 766 693 240
f 765 766 240
f 767 244 246
f 767 765 244
f 768 246 250
f 769 767 246
f 768 769 246
f 763 768 250
f 692 693 766
f 770 766 765
f 770 692 766
f 771 765 767
f 771 770 765
f 771 767 769
f 772 769 768
f 771 769 772
f 772 768 763
f 773 763 764
f 772 763 773
f 773 764 762
f 774 773 762
f 774 762 754
f 711 775 710
f 776 710 775
f 776 706 710
f 777 778 775
f 779 775 778
f 711 777 775
f 779 776 775
f 780 781 778
f 782 778 781
f 777 780 778
f 782 779 778
f 772 773 781
f 783 781 773
f 780 772 781
f 783 782 781
f 774 783 773
f 771 772 780
f 770 780 777
f 771 780 770
f 712 777 711
f 770 777 712
f 770 712 692
f 757 774 754
f 756 757 754
f 784 706 776
f 709 706 784
f 785 776 779
f 784 776 785
f 786 779 782
f 785 779 786
f 786 782 783
f 787 783 774
f 786 783 787
f 787 774 757
f 788 752 753
f 789 788 753
f 790 789 753
f 751 790 753
f 788 761 752
f 791 761 788
f 758 759 761
f 791 758 761
f 789 792 788
f 793 788 792
f 793 791 788
f 790 792 789
f 793 792 794
f 795 794 792
f 790 795 792
f 796 793 794
f 795 796 794
f 758 760 759
f 787 758 791
f 757 755 758
f 787 757 758
f 786 791 793
f 786 787 791
f 785 793 796
f 785 786 793
f 785 796 797
f 798 797 796
f 795 798 796
f 784 785 797
f 709 784 797
f 798 709 797
f 717 709 798
f 799 798 795
f 800 717 798
f 801 800 798
f 799 801 798
f 802 795 790
f 802 799 795
f 803 790 751
f 803 802 790
f 803 751 744
f 800 716 717
f 804 721 726
f 804 743 721
f 804 726 725
f 805 725 730
f 804 725 805
f 805 730 729
f 805 729 733
f 806 733 735
f 805 733 806
f 806 735 734
f 800 734 716
f 806 734 800
f 803 744 745
f 803 745 747
f 807 747 746
f 808 803 747
f 807 808 747
f 807 746 748
f 807 748 750
f 809 750 749
f 807 750 810
f 809 810 750
f 809 749 743
f 809 743 804
f 806 800 801
f 811 801 799
f 806 801 811
f 808 799 802
f 811 799 808
f 808 802 803
f 807 811 808
f 810 806 811
f 807 810 811
f 810 805 806
f 809 805 810
f 809 804 805
