# https://github.com/mikedh/trimesh
mtllib mtl_cubby_2
usemtl mtl_cubby_2
v 0.00000000 0.34400931 -0.13124959
v -0.00300000 0.34400931 0.00000000
v 0.00000000 0.34400931 0.00000000
v -0.00300000 0.34400931 0.13124959
v 0.00000000 0.30885896 0.00000000
v 0.00000000 0.34400931 0.13124959
v 0.00000000 0.34388906 0.13479722
v 0.00000000 0.31183854 0.17362013
v 0.00000000 0.30961707 0.17370881
v 0.00000000 0.30885896 0.10758007
v 0.00000000 0.31405652 0.17335360
v 0.00000000 0.31627002 0.17290683
v 0.00000000 0.31847230 0.17227727
v 0.00000000 0.32065910 0.17146096
v 0.00000000 0.32282388 0.17045350
v 0.00000000 0.32495755 0.16925104
v 0.00000000 0.33195707 0.11473008
v 0.00000000 0.33989191 0.15139447
v 0.00000000 0.33842194 0.15444832
v 0.00000000 0.33815709 0.11473008
v 0.00000000 0.34110689 0.14832124
v 0.00000000 0.34212786 0.14510058
v 0.00000000 0.34293976 0.14175591
v 0.00000000 0.34353021 0.13831203
v 0.00000000 0.33284715 0.11255611
v 0.00000000 0.33384064 0.11187872
v 0.00000000 0.33503574 0.11163015
v 0.00000000 0.33625016 0.11186887
v 0.00000000 0.33726701 0.11255611
v -0.00300000 0.34400931 -0.13124959
v -0.00300000 0.34388906 -0.13479722
v -0.00300000 0.31971464 0.00000000
v -0.00300000 0.31971464 -0.10758007
v -0.00300000 0.32282388 -0.17045350
v -0.00300000 0.32065910 -0.17146096
v -0.00300000 0.32495755 -0.16925104
v -0.00300000 0.33195707 -0.11423007
v -0.00300000 0.33989191 -0.15139447
v -0.00300000 0.33842194 -0.15444832
v -0.00300000 0.33815709 -0.11423007
v -0.00300000 0.34110689 -0.14832124
v -0.00300000 0.34212786 -0.14510058
v -0.00300000 0.34293976 -0.14175591
v -0.00300000 0.34353021 -0.13831203
v -0.00300000 0.33284715 -0.11205611
v -0.00300000 0.33384064 -0.11137871
v -0.00300000 0.33503574 -0.11113015
v -0.00300000 0.33625016 -0.11136886
v -0.00300000 0.33726701 -0.11205611
v 0.00000000 0.34388179 -0.13490263
v -0.00300000 0.34388179 0.13490263
v -0.00300000 0.00108551 0.14183995
v -0.00300000 -0.00000107 0.06565534
v -0.00300000 -0.00000148 0.13124956
v 0.00000000 -0.00000148 0.13124956
v 0.00000000 0.00114309 0.14211220
v -0.00300000 0.00000000 0.00000000
v 0.00000000 -0.00000107 0.06565642
v -0.00300000 0.02429684 0.10758007
v -0.00300000 0.02429684 0.00000000
v -0.00300000 0.00114309 -0.14211220
v -0.00300000 0.02111785 0.17041947
v -0.00300000 0.01205223 0.11473008
v -0.00300000 0.00417866 0.15153755
v -0.00300000 0.00585223 0.11473008
v -0.00300000 0.00674229 0.11255611
v -0.00300000 0.01116217 0.11255611
v -0.00300000 0.01016867 0.11187872
v -0.00300000 0.00897357 0.11163015
v -0.00300000 0.00775914 0.11186887
v 0.00000000 0.00000000 0.00000000
v -0.00300000 -0.00000107 -0.06565642
v -0.00300000 -0.00000148 -0.13124956
v -0.00354889 0.02756434 0.10758007
v -0.00300000 0.01459791 -0.16597272
v -0.00300000 0.02081854 -0.17026283
v -0.00300000 0.02429684 -0.10758007
v -0.00300000 0.01205223 -0.11423007
v -0.00300000 0.00585223 -0.11423007
v -0.00512198 0.03045614 -0.00000000
v -0.00300000 0.01116217 -0.11205611
v -0.00300000 0.00674229 -0.11205611
v -0.00300000 0.00773579 -0.11137871
v -0.00300000 0.00893089 -0.11113015
v -0.00300000 0.01014532 -0.11136886
v -0.00300000 0.02770139 0.17289793
v -0.00300000 0.02574943 0.12127730
v -0.00300000 0.02991195 0.13390924
v -0.00514553 0.03237987 0.12240789
v -0.00512207 0.03045624 0.10758007
v -0.00300000 0.03439074 0.17370881
v -0.00300000 0.03627379 0.14465678
v -0.00522249 0.03810303 0.13607611
v -0.00300000 0.04428947 0.15315636
v -0.00537077 0.04738499 0.14727990
v -0.00300000 0.05345297 0.15924069
v -0.00300000 0.06317040 0.16282173
v -0.00560974 0.05953022 0.15460598
v -0.00300000 0.07318404 0.16400935
v -0.00300000 0.17200391 0.17370881
v -0.00300000 0.17200574 0.16400935
v -0.00334382 0.27082744 0.16140968
v -0.00433099 0.07318404 0.15902454
v -0.00300000 0.30961707 0.17370881
v -0.00300000 0.27082744 0.16400935
v -0.00300000 0.28084925 0.16281977
v -0.00300000 0.29057398 0.15923285
v -0.00560974 0.28448126 0.15460598
v -0.00434895 0.27082744 0.15899344
v -0.00593012 0.27082744 0.15693709
v -0.00300000 0.29966936 0.15320067
v -0.00300000 0.30766454 0.14475369
v -0.00537077 0.29662651 0.14727990
v -0.00300000 0.31188613 0.17361629
v -0.00300000 0.31407142 0.13397101
v -0.00522249 0.30590844 0.13607611
v -0.00300000 0.31641021 0.17287232
v -0.00300000 0.31825972 0.12128811
v -0.00514553 0.31163162 0.12240789
v -0.00300000 0.31415001 0.17333841
v -0.00300000 0.31865853 0.17221531
v -0.00300000 0.31971464 0.10758007
v -0.00300000 0.32088965 0.17136334
v -0.00512198 0.31355536 0.00000000
v -0.00512190 0.31355545 0.10758007
v -0.00300000 0.34350154 0.13851880
v -0.00300000 0.34287506 0.14206390
v -0.00300000 0.33815709 0.11473008
v -0.00300000 0.32921320 0.16614236
v -0.00300000 0.33115581 0.16435117
v -0.00300000 0.33195707 0.11473008
v -0.00300000 0.32723239 0.16771667
v -0.00300000 0.32522595 0.16908410
v -0.00300000 0.32309738 0.17031138
v -0.00300000 0.33726701 0.11255611
v -0.00300000 0.33627352 0.11187872
v -0.00300000 0.33507842 0.11163015
v -0.00300000 0.33386397 0.11186887
v -0.00300000 0.33284715 0.11255611
v -0.00354889 0.31644714 -0.10758007
v -0.00300000 0.34201524 0.14549713
v -0.00300000 0.34093893 0.14878583
v -0.00300000 0.33966058 0.15191557
v -0.00300000 0.33819473 0.15487270
v -0.00300000 0.33726701 0.11690405
v -0.00300000 0.33658665 0.15759715
v 0.00000000 0.33678287 0.15728812
v -0.00300000 0.33503574 0.11783000
v -0.00300000 0.33486214 0.16008420
v 0.00000000 0.33500299 0.15989511
v -0.00300000 0.33625016 0.11759129
v -0.00300000 0.33384064 0.11758144
v -0.00300000 0.33304483 0.16233413
v 0.00000000 0.33311191 0.16225690
v -0.00300000 0.33284715 0.11690405
v 0.00000000 0.33113909 0.16436772
v 0.00000000 0.32911292 0.16622786
v 0.00000000 0.32705975 0.16784294
v 0.00000000 0.17200391 0.17370881
v 0.00000000 0.03439074 0.17370881
v 0.00000000 0.02754763 0.17285985
v -0.00300000 0.01482085 0.16616479
v 0.00000000 0.02081854 0.17026283
v -0.00300000 0.01014532 0.11759129
v -0.00300000 0.00909032 0.16001013
v 0.00000000 0.01459791 0.16597272
v -0.00300000 0.01116217 0.11690405
v 0.00000000 0.00437574 0.15197858
v -0.00300000 0.00674229 0.11690405
v -0.00300000 0.00773579 0.11758144
v -0.00300000 0.00893089 0.11783000
v 0.00000000 0.00910387 0.16002829
v 0.00000000 0.00585223 0.11473008
v 0.00000000 0.00674229 0.11255611
v 0.00000000 0.00674229 0.11690405
v 0.00000000 0.00775914 0.11759129
v 0.00000000 0.00897357 0.11783000
v 0.00000000 0.01016867 0.11758144
v 0.00000000 0.01116217 0.11690405
v 0.00000000 0.01205223 0.11473008
v 0.00000000 0.01116217 0.11255611
v 0.00000000 0.01014532 0.11186887
v 0.00000000 0.00893089 0.11163015
v 0.00000000 0.00773579 0.11187872
v 0.00000000 0.33726701 0.11690405
v 0.00000000 0.33284715 0.11690405
v 0.00000000 0.33386397 0.11759129
v 0.00000000 0.33507842 0.11783000
v 0.00000000 0.33627352 0.11758144
v 0.00000000 0.03515252 0.00000000
v 0.00000000 0.07069798 0.15050514
v 0.00000000 0.06370729 0.14966668
v 0.00000000 0.05684638 0.14711131
v 0.00000000 0.05031546 0.14274596
v 0.00000000 0.04433510 0.13637160
v 0.00000000 0.03936722 0.12785314
v 0.00000000 0.03624595 0.11814412
v 0.00000000 0.03515252 0.10758007
v 0.00000000 0.03515252 -0.10758007
v 0.00000000 0.00108550 -0.14183992
v 0.00000000 -0.00000107 -0.06565534
v 0.00000000 0.03439074 -0.17370881
v 0.00000000 0.02770139 -0.17289793
v 0.00000000 0.02111785 -0.17041947
v 0.00000000 0.01205223 -0.11423007
v 0.00000000 0.00417866 -0.15153754
v 0.00000000 0.00585223 -0.11423007
v 0.00000000 0.00674229 -0.11205611
v 0.00000000 0.01116217 -0.11205611
v 0.00000000 0.01016867 -0.11137871
v 0.00000000 0.00897357 -0.11113015
v 0.00000000 0.00775914 -0.11136886
v 0.00000000 0.28044674 0.14963177
v 0.00000000 0.27331352 0.15050514
v 0.00000000 0.17200574 0.15050514
v 0.00000000 0.30772096 0.11835390
v 0.00000000 0.30448678 0.12820409
v 0.00000000 0.29964972 0.13640718
v 0.00000000 0.29387754 0.14259151
v 0.00000000 0.28743523 0.14697167
v -0.00300000 0.30885896 0.00000000
v 0.00000000 0.30961707 -0.17370881
v 0.00000000 0.30885896 -0.10758007
v -0.00300000 0.30885896 -0.10758007
v 0.00000000 0.33815709 -0.11423007
v 0.00000000 0.32921320 -0.16614236
v 0.00000000 0.33115581 -0.16435117
v 0.00000000 0.33195707 -0.11423007
v 0.00000000 0.32723239 -0.16771667
v 0.00000000 0.32522595 -0.16908410
v 0.00000000 0.32309738 -0.17031138
v 0.00000000 0.32088965 -0.17136334
v 0.00000000 0.31865853 -0.17221531
v 0.00000000 0.31641021 -0.17287232
v 0.00000000 0.31415001 -0.17333841
v 0.00000000 0.31188613 -0.17361629
v 0.00000000 0.33726701 -0.11205611
v 0.00000000 0.33627352 -0.11137871
v 0.00000000 0.33507842 -0.11113015
v 0.00000000 0.33386397 -0.11136886
v 0.00000000 0.33284715 -0.11205611
v -0.00300000 0.30885896 0.10758007
v -0.00300000 0.30464447 0.12785266
v -0.00300000 0.30776557 0.11814398
v -0.00300000 0.29967666 0.13637124
v -0.00300000 0.29369596 0.14274602
v -0.00300000 0.28716475 0.14711149
v -0.00300000 0.28030404 0.14966671
v -0.00300000 0.27331352 0.15050514
v -0.00300000 0.17200574 0.15050514
v -0.00300000 0.07069798 0.15050514
v -0.00300000 0.06356467 0.14963175
v -0.00300000 0.05657606 0.14697157
v -0.00300000 0.05013433 0.14259183
v -0.00300000 0.03952463 0.12820394
v -0.00300000 0.04436215 0.13640767
v -0.00300000 0.03629049 0.11835373
v -0.00300000 0.03515252 0.10758007
v -0.00300000 0.03515252 0.00000000
v 0.00000000 -0.00000148 -0.13124953
v 0.00000000 0.03629053 -0.11835390
v -0.00300000 0.03515252 -0.10758007
v 0.00000000 0.03952470 -0.12820409
v -0.00300000 0.03936701 -0.12785266
v -0.00300000 0.03624592 -0.11814398
v 0.00000000 0.04436178 -0.13640718
v -0.00300000 0.04433483 -0.13637124
v 0.00000000 0.05013395 -0.14259151
v 0.00000000 0.05657626 -0.14697167
v -0.00300000 0.05031553 -0.14274602
v 0.00000000 0.06356473 -0.14963177
v -0.00300000 0.05684673 -0.14711149
v 0.00000000 0.17200391 -0.17370881
v 0.00000000 0.07069798 -0.15050514
v -0.00300000 0.06370745 -0.14966671
v 0.00000000 0.17200574 -0.15050514
v -0.00300000 0.07069798 -0.15050514
v 0.00000000 0.27331352 -0.15050514
v -0.00300000 0.17200574 -0.15050514
v 0.00000000 0.28030419 -0.14966668
v -0.00300000 0.27331352 -0.15050514
v 0.00000000 0.28716511 -0.14711131
v -0.00300000 0.28044683 -0.14963175
v 0.00000000 0.29369602 -0.14274596
v -0.00300000 0.28743544 -0.14697157
v 0.00000000 0.29967639 -0.13637160
v -0.00300000 0.29387715 -0.14259183
v 0.00000000 0.30464426 -0.12785314
v -0.00300000 0.30448687 -0.12820394
v -0.00300000 0.29964933 -0.13640767
v 0.00000000 0.30776554 -0.11814412
v -0.00300000 0.30772099 -0.11835373
v 0.00000000 0.34350154 -0.13851880
v 0.00000000 0.34287506 -0.14206390
v 0.00000000 0.34201524 -0.14549713
v 0.00000000 0.34093893 -0.14878583
v 0.00000000 0.33966058 -0.15191557
v 0.00000000 0.33819473 -0.15487270
v 0.00000000 0.33726701 -0.11640405
v 0.00000000 0.33658665 -0.15759715
v -0.00300000 0.33678287 -0.15728812
v 0.00000000 0.33503574 -0.11733000
v 0.00000000 0.33486214 -0.16008420
v -0.00300000 0.33500299 -0.15989511
v 0.00000000 0.33625016 -0.11709129
v 0.00000000 0.33384064 -0.11708144
v 0.00000000 0.33304483 -0.16233413
v -0.00300000 0.33311191 -0.16225690
v 0.00000000 0.33284715 -0.11640405
v -0.00300000 0.33113909 -0.16436772
v -0.00300000 0.32911292 -0.16622786
v -0.00300000 0.32705975 -0.16784294
v -0.00300000 0.31847230 -0.17227727
v -0.00300000 0.31627002 -0.17290683
v -0.00300000 0.31405652 -0.17335360
v -0.00300000 0.31183854 -0.17362013
v -0.00300000 0.30961707 -0.17370881
v -0.00300000 0.17200391 -0.17370881
v -0.00300000 0.03439074 -0.17370881
v -0.00300000 0.02754763 -0.17285985
v 0.00000000 0.01482084 -0.16616479
v 0.00000000 0.01014532 -0.11709129
v 0.00000000 0.00909031 -0.16001013
v 0.00000000 0.01116217 -0.11640405
v -0.00300000 0.00437574 -0.15197858
v 0.00000000 0.00674229 -0.11640405
v 0.00000000 0.00773579 -0.11708144
v 0.00000000 0.00893089 -0.11733000
v -0.00300000 0.00910387 -0.16002829
v -0.00300000 0.00674229 -0.11640405
v -0.00300000 0.00775914 -0.11709129
v -0.00300000 0.00897357 -0.11733000
v -0.00300000 0.01016867 -0.11708144
v -0.00300000 0.01116217 -0.11640405
v -0.00300000 0.33726701 -0.11640405
v -0.00300000 0.33284715 -0.11640405
v -0.00300000 0.33386397 -0.11709129
v -0.00300000 0.33507842 -0.11733000
v -0.00300000 0.33627352 -0.11708144
v -0.00300000 0.02994007 -0.13397101
v -0.00300000 0.07318404 -0.16400935
v -0.00300000 0.06316226 -0.16281977
v -0.00300000 0.05343752 -0.15923287
v -0.00300000 0.04434213 -0.15320069
v -0.00300000 0.03634694 -0.14475369
v -0.00300000 0.02575176 -0.12128809
v -0.00300000 0.27082744 -0.16400935
v -0.00300000 0.17200574 -0.16400935
v -0.00300000 0.31409955 -0.13390924
v -0.00300000 0.30773765 -0.14465684
v -0.00300000 0.29972196 -0.15315640
v -0.00300000 0.29055846 -0.15924071
v -0.00300000 0.28084105 -0.16282173
v -0.00300000 0.31826207 -0.12127727
v -0.00514553 0.31163162 -0.12240789
v -0.00512207 0.31355524 -0.10758007
v -0.00522249 0.30590844 -0.13607611
v -0.00537077 0.29662651 -0.14727990
v -0.00560974 0.28448126 -0.15460598
v -0.00334382 0.07318404 -0.16140968
v -0.00433099 0.27082744 -0.15902454
v -0.00560974 0.05953022 -0.15460598
v -0.00434895 0.07318404 -0.15899344
v -0.00593012 0.07318404 -0.15693709
v -0.00537077 0.04738499 -0.14727990
v -0.00522249 0.03810303 -0.13607611
v -0.00514553 0.03237987 -0.12240789
v -0.00512190 0.03045602 -0.10758007
v -0.01058737 0.31001005 -0.10758007
v -0.01058737 0.31001005 0.00000000
v -0.12570953 0.28138989 -0.10758007
v -0.01059275 0.30987668 -0.11141788
v -0.00754883 0.31133103 0.10758007
v -0.01058737 0.31001005 0.10758007
v -0.12570953 0.28138989 0.00000000
v -0.01067387 0.30792049 -0.12257659
v -0.01060891 0.30947882 -0.11521949
v -0.01063592 0.30882317 -0.11895009
v -0.01094449 0.30202672 -0.13572094
v -0.01072290 0.30678499 -0.12606966
v -0.01078388 0.30541760 -0.12943919
v -0.01085835 0.30380973 -0.13269673
v -0.01140469 0.29357785 -0.14542286
v -0.01104229 0.30009115 -0.13850725
v -0.01115172 0.29802442 -0.14105316
v -0.01127262 0.29584691 -0.14335799
v -0.00592774 0.27082744 -0.15693946
v -0.01221912 0.28128207 -0.15233748
v -0.01154745 0.29123518 -0.14725041
v -0.01170078 0.28882629 -0.14885043
v -0.01186450 0.28635633 -0.15023045
v -0.01203761 0.28383884 -0.15139164
v -0.01280001 0.27345955 -0.15390523
v -0.00798409 0.27082744 -0.15535830
v -0.00801520 0.07318404 -0.15534033
v -0.01240776 0.27869451 -0.15307048
v -0.01260196 0.27608442 -0.15359257
v -0.01040034 0.27082744 -0.15435317
v -0.12567094 0.28125507 -0.11159351
v -0.12555602 0.28085357 -0.11556254
v -0.12536693 0.28019291 -0.11944985
v -0.12510763 0.27928695 -0.12321220
v -0.12478401 0.27815628 -0.12680691
v -0.12439686 0.27680364 -0.13025163
v -0.12395587 0.27526289 -0.13348362
v -0.12431244 0.27650869 -0.13091812
v -0.12347270 0.27357477 -0.13645820
v -0.12295514 0.27176651 -0.13917108
v -0.12241029 0.26986289 -0.14162339
v -0.12184440 0.26788580 -0.14382049
v -0.12126286 0.26585397 -0.14577077
v -0.12067013 0.26378307 -0.14748453
v -0.12102421 0.26502013 -0.14649191
v -0.12006988 0.26168591 -0.14897303
v -0.11943878 0.25948095 -0.15029828
v -0.11877725 0.25716966 -0.15144746
v -0.11810881 0.25483423 -0.15237804
v -0.11743551 0.25248185 -0.15309539
v -0.11786687 0.25398895 -0.15266059
v -0.11675884 0.25011766 -0.15360428
v -0.01300000 0.27082744 -0.15400934
v -0.11608008 0.24774618 -0.15390822
v -0.01300000 0.17200574 -0.15400934
v -0.11540000 0.24537012 -0.15400934
v -0.01300000 0.07318404 -0.15400934
v -0.11540000 0.09864137 -0.15400934
v -0.01279755 0.07051955 -0.15390265
v -0.01202709 0.06002199 -0.15132874
v -0.01259717 0.06786315 -0.15358233
v -0.01240081 0.06522270 -0.15304759
v -0.01221026 0.06260628 -0.15229708
v -0.01126687 0.04806336 -0.14325835
v -0.01185261 0.05747889 -0.15014014
v -0.01168829 0.05499267 -0.14873214
v -0.01153686 0.05260599 -0.14712702
v -0.01139630 0.05029251 -0.14530337
v -0.01086141 0.04026634 -0.13281573
v -0.01114869 0.04593112 -0.14098918
v -0.01104175 0.04390997 -0.13849343
v -0.01094602 0.04201580 -0.13576928
v -0.01063711 0.03521699 -0.11908444
v -0.01078786 0.03868132 -0.12963296
v -0.01072618 0.03730131 -0.12627339
v -0.01067597 0.03614033 -0.12274764
v -0.01059289 0.03413813 -0.11146522
v -0.00754883 0.03268044 -0.10758007
v -0.01060945 0.03454574 -0.11531234
v -0.01058737 0.03400144 -0.10758007
v -0.01058737 0.03400144 0.00000000
v -0.11667226 0.09419628 -0.15365444
v -0.11602700 0.09645075 -0.15392339
v -0.11734293 0.09185310 -0.15317738
v -0.11787110 0.09000777 -0.15265590
v -0.11869659 0.08712362 -0.15157172
v -0.11802214 0.08948005 -0.15248249
v -0.11936428 0.08479082 -0.15043959
v -0.12000228 0.08256175 -0.14912629
v -0.12060789 0.08044588 -0.14764993
v -0.12103084 0.07896817 -0.14647245
v -0.12179369 0.07630289 -0.14400223
v -0.12120625 0.07835529 -0.14594577
v -0.12236566 0.07430453 -0.14180869
v -0.12291671 0.07237926 -0.13935648
v -0.12344047 0.07054929 -0.13663995
v -0.12392975 0.06883986 -0.13365775
v -0.12431791 0.06748368 -0.13087569
v -0.12477149 0.06589894 -0.12693037
v -0.12437658 0.06727869 -0.13041410
v -0.12509835 0.06475697 -0.12332862
v -0.12536162 0.06383713 -0.11953995
v -0.12555361 0.06316635 -0.11562448
v -0.12567034 0.06275854 -0.11162496
v -0.12570953 0.06262159 -0.00000000
v -0.12570953 0.06262159 -0.10758007
v -0.01058737 0.03400144 0.10758007
v -0.12570953 0.06262159 0.10758007
v -0.01059275 0.03413481 0.11141787
v -0.01067387 0.03609098 0.12257658
v -0.01060891 0.03453266 0.11521948
v -0.01063592 0.03518831 0.11895008
v -0.01094448 0.04198476 0.13572094
v -0.01072290 0.03722651 0.12606965
v -0.01078388 0.03859390 0.12943918
v -0.01085835 0.04020176 0.13269673
v -0.01140469 0.05043365 0.14542288
v -0.01104229 0.04392036 0.13850726
v -0.01115172 0.04598708 0.14105317
v -0.01127262 0.04816458 0.14335801
v -0.00592774 0.07318404 0.15693946
v -0.01221912 0.06272943 0.15233748
v -0.01154745 0.05277632 0.14725043
v -0.01170078 0.05518522 0.14885044
v -0.01186450 0.05765516 0.15023047
v -0.01203761 0.06017266 0.15139164
v -0.01280001 0.07055193 0.15390523
v -0.00798409 0.07318404 0.15535830
v -0.00801520 0.27082744 0.15534033
v -0.01240776 0.06531699 0.15307048
v -0.01260196 0.06792708 0.15359257
v -0.01040034 0.07318404 0.15435317
v -0.12567094 0.06275641 0.11159351
v -0.12555602 0.06315793 0.11556254
v -0.12536694 0.06381857 0.11944985
v -0.12510763 0.06472454 0.12321220
v -0.12478402 0.06585521 0.12680691
v -0.12439687 0.06720784 0.13025163
v -0.12395587 0.06874860 0.13348362
v -0.12431788 0.06748381 0.13087599
v -0.12347270 0.07043672 0.13645820
v -0.12295514 0.07224498 0.13917108
v -0.12241029 0.07414860 0.14162339
v -0.12184440 0.07612570 0.14382049
v -0.12126286 0.07815752 0.14577077
v -0.12067013 0.08022841 0.14748453
v -0.12103108 0.07896733 0.14647175
v -0.12006988 0.08232560 0.14897303
v -0.11943878 0.08453054 0.15029828
v -0.11877725 0.08684184 0.15144746
v -0.11810881 0.08917725 0.15237804
v -0.11743551 0.09152965 0.15309539
v -0.11787242 0.09000317 0.15265444
v -0.11675884 0.09389383 0.15360428
v -0.01300000 0.07318404 0.15400934
v -0.11608008 0.09626530 0.15390822
v -0.01300000 0.17200574 0.15400934
v -0.11540000 0.09864137 0.15400934
v -0.01300000 0.27082744 0.15400934
v -0.11540000 0.24537012 0.15400934
v -0.01279755 0.27349195 0.15390265
v -0.01202709 0.28398949 0.15132874
v -0.01259717 0.27614835 0.15358233
v -0.01240081 0.27878881 0.15304759
v -0.01221026 0.28140521 0.15229708
v -0.01126688 0.29594812 0.14325835
v -0.01185261 0.28653261 0.15014014
v -0.01168829 0.28901881 0.14873214
v -0.01153686 0.29140550 0.14712702
v -0.01139630 0.29371896 0.14530337
v -0.01086141 0.30374515 0.13281573
v -0.01114869 0.29808035 0.14098917
v -0.01104175 0.30010152 0.13849343
v -0.01094602 0.30199569 0.13576928
v -0.01063711 0.30879450 0.11908445
v -0.01078786 0.30533016 0.12963298
v -0.01072618 0.30671018 0.12627341
v -0.01067597 0.30787116 0.12274764
v -0.01059289 0.30987334 0.11146522
v -0.01060945 0.30946574 0.11531234
v -0.11665937 0.24977018 0.15366162
v -0.11602226 0.24754418 0.15392469
v -0.11731783 0.25207072 0.15319891
v -0.11786471 0.25398144 0.15266299
v -0.11867297 0.25680533 0.15160747
v -0.11799675 0.25444275 0.15251240
v -0.11934247 0.25914446 0.15048037
v -0.11998259 0.26138091 0.14917043
v -0.12058975 0.26350227 0.14769760
v -0.12102389 0.26501903 0.14649285
v -0.12177891 0.26765698 0.14405473
v -0.12118977 0.26559860 0.14599627
v -0.12235264 0.26966152 0.14186227
v -0.12290550 0.27159306 0.13941017
v -0.12343107 0.27342933 0.13669264
v -0.12392212 0.27514496 0.13370830
v -0.12431249 0.27650887 0.13091774
v -0.12476762 0.27809900 0.12696840
v -0.12437065 0.27671209 0.13046131
v -0.12509564 0.27924502 0.12336255
v -0.12536006 0.28016889 0.11956640
v -0.12555291 0.28084266 0.11564253
v -0.12567016 0.28125232 0.11163411
v -0.12570953 0.28138989 0.10758007
v -0.13413778 0.27830610 -0.00000000
v -0.13018055 0.27744260 0.12388279
v -0.13543555 0.27691555 0.11602327
v -0.13411452 0.27831757 0.10758008
v -0.13417420 0.27828807 -0.10758008
v -0.13543455 0.27691579 -0.11602493
v -0.11811940 0.24537012 -0.15390192
v -0.11812879 0.09864137 -0.15390117
v -0.13018066 0.27744260 -0.12388264
v -0.13883980 0.26890966 -0.13115849
v -0.13065647 0.26789945 -0.14005733
v -0.12875003 0.25603628 -0.14928246
v -0.12083049 0.24537012 -0.15357947
v -0.12352893 0.24537012 -0.15304048
v -0.12620562 0.24537012 -0.15228315
v -0.12885106 0.24537012 -0.15130545
v -0.12834963 0.08801644 -0.14946848
v -0.12085181 0.09864137 -0.15357608
v -0.13054766 0.07611316 -0.14012706
v -0.13307562 0.06665386 -0.11973017
v -0.13905391 0.07507973 -0.13083392
v -0.13417706 0.06572483 0.00000000
v -0.13411450 0.06569390 -0.10758007
v -0.13417417 0.06572340 0.10758007
v -0.13980357 0.06910378 0.10758007
v -0.11812879 0.09864137 0.15390117
v -0.11811505 0.24537012 0.15390226
v -0.13307495 0.06665379 0.11973118
v -0.13905689 0.07507972 0.13082984
v -0.13055032 0.07611258 0.14012477
v -0.12835382 0.08801577 0.14946647
v -0.12085181 0.09864137 0.15357608
v -0.12623635 0.09864137 0.15227312
v -0.12888435 0.09864137 0.15129164
v -0.12355649 0.09864137 0.15303382
v -0.12874421 0.25603539 0.14928533
v -0.12082136 0.24537012 0.15358093
v -0.13065331 0.26789877 0.14006005
v -0.13883664 0.26890963 0.13116276
v -0.13982570 0.27489182 0.10758007
v -0.14523526 0.26802796 0.12023206
v -0.14146541 0.27364764 0.10758007
v -0.14150767 0.27361378 -0.00000000
v -0.14917898 0.26533675 0.10758007
v -0.13853514 0.25722280 0.14246051
v -0.14627512 0.25743788 0.13298561
v -0.15166260 0.25666991 0.12121660
v -0.15188064 0.26066038 0.10758007
v -0.15185542 0.26071253 -0.00000000
v -0.15397505 0.25523174 0.10758007
v -0.15539999 0.24537012 0.00000000
v -0.13142785 0.24537012 0.15011908
v -0.12351596 0.24537012 0.15304360
v -0.12618993 0.24537012 0.15228826
v -0.12883037 0.24537012 0.15131402
v -0.14117938 0.24537012 0.14308070
v -0.13397560 0.24537012 0.14869927
v -0.13645878 0.24537012 0.14705396
v -0.13886410 0.24537012 0.14518198
v -0.14916115 0.24537012 0.13248000
v -0.14338538 0.24537012 0.14075384
v -0.14546278 0.24537012 0.13820733
v -0.14739448 0.24537012 0.13544619
v -0.15327656 0.24537012 0.12250647
v -0.15074284 0.24537012 0.12932277
v -0.15212058 0.24537012 0.12599146
v -0.15526433 0.24537012 0.11140089
v -0.15539999 0.24537012 0.10758007
v -0.15419401 0.24537012 0.11889497
v -0.15485977 0.24537012 0.11518502
v -0.15526681 0.09864137 0.11136577
v -0.15539999 0.09864137 0.00000000
v -0.15539999 0.09864137 0.10758007
v -0.13149038 0.09864137 0.15008727
v -0.13404578 0.09864137 0.14865644
v -0.13653372 0.09864137 0.14699996
v -0.13894263 0.09864137 0.14511579
v -0.14125697 0.09864137 0.14300458
v -0.14346041 0.09864137 0.14066832
v -0.14553542 0.09864137 0.13811100
v -0.14746229 0.09864137 0.13534096
v -0.14922108 0.09864137 0.13237019
v -0.15079331 0.09864137 0.12921187
v -0.15216017 0.09864137 0.12588470
v -0.15330429 0.09864137 0.12241133
v -0.15421170 0.09864137 0.11881291
v -0.15486915 0.09864137 0.11511905
v -0.15539999 0.24537012 -0.10758007
v -0.15539999 0.09864137 -0.10758007
v -0.14917888 0.26533687 -0.10758007
v -0.15397568 0.25522962 -0.10758007
v -0.15187423 0.26067364 -0.10758007
v -0.13982800 0.27489015 -0.10758007
v -0.14155382 0.27357665 -0.10758007
v -0.15187919 0.08334810 0.00000000
v -0.15396996 0.08876245 0.10758007
v -0.15188064 0.08335109 -0.10758007
v -0.15396935 0.08876036 -0.10758007
v -0.14155377 0.07043479 0.10758007
v -0.14155781 0.07043803 0.00000000
v -0.13980122 0.06910209 -0.10758007
v -0.15187418 0.08333774 0.10758007
v -0.14916454 0.07865355 -0.10758007
v -0.14916450 0.07865348 0.10758007
v -0.14146540 0.07036382 -0.10758007
v -0.15184607 0.08738168 0.12059494
v -0.14546365 0.07605091 0.11967847
v -0.14546113 0.07604997 -0.11968417
v -0.15184614 0.08738171 -0.12059465
v -0.15526681 0.09864137 -0.11136577
v -0.15486915 0.09864137 -0.11511905
v -0.15421170 0.09864137 -0.11881291
v -0.15526500 0.24537012 -0.11139140
v -0.12355649 0.09864137 -0.15303382
v -0.12623635 0.09864137 -0.15227312
v -0.12888435 0.09864137 -0.15129164
v -0.13149038 0.09864137 -0.15008727
v -0.13145539 0.24537012 -0.15010509
v -0.13836402 0.08677804 -0.14260693
v -0.13404578 0.09864137 -0.14865644
v -0.13400730 0.24537012 -0.14867994
v -0.13653372 0.09864137 -0.14699996
v -0.13649434 0.24537012 -0.14702837
v -0.13894263 0.09864137 -0.14511579
v -0.13890372 0.24537012 -0.14514862
v -0.14125697 0.09864137 -0.14300458
v -0.14122024 0.24537012 -0.14304066
v -0.14653653 0.08656107 -0.13254267
v -0.14346041 0.09864137 -0.14066832
v -0.14342679 0.24537012 -0.14070670
v -0.14553542 0.09864137 -0.13811100
v -0.14549927 0.24537012 -0.13815901
v -0.14746229 0.09864137 -0.13534096
v -0.14742352 0.24537012 -0.13540120
v -0.14922108 0.09864137 -0.13237019
v -0.14918461 0.24537012 -0.13243708
v -0.15079331 0.09864137 -0.12921187
v -0.15076156 0.24537012 -0.12928174
v -0.15216017 0.09864137 -0.12588470
v -0.15213396 0.24537012 -0.12595545
v -0.15330429 0.09864137 -0.12241133
v -0.15328492 0.24537012 -0.12247784
v -0.15419905 0.24537012 -0.11887164
v -0.15486242 0.24537012 -0.11516641
v -0.13853845 0.25722307 -0.14245740
v -0.14627646 0.25743783 -0.13298346
v -0.15166269 0.25666988 -0.12121630
v -0.14523798 0.26802701 -0.12022604
v -0.14653735 0.08656111 0.13254134
v -0.13836642 0.08677784 0.14260471
v -0.12497289 0.06547580 -0.10758007
v -0.12497289 0.06547580 0.00000000
v -0.12497289 0.06547580 0.10758007
v -0.12464795 0.06660232 0.11867157
v -0.13281384 0.06834769 0.00000000
v -0.13281639 0.06834894 -0.10758007
v -0.13275775 0.06831997 0.10758007
v -0.13180460 0.06921308 0.11883670
v -0.13803151 0.07147959 -0.10758007
v -0.13180527 0.06921315 -0.11883569
v -0.12465344 0.06658329 -0.11857908
v -0.13963939 0.07270180 0.00000000
v -0.13803050 0.07147886 0.10758007
v -0.14915667 0.08458516 -0.10758007
v -0.14916044 0.08459293 0.00000000
v -0.14667027 0.08028954 0.10758007
v -0.14666925 0.08028807 -0.10758007
v -0.13964555 0.07270674 -0.10758007
v -0.13955788 0.07263640 0.10758007
v -0.15240000 0.09864137 -0.10758007
v -0.15240000 0.09864137 0.00000000
v -0.14916380 0.08459990 0.10758007
v -0.15108880 0.08958295 -0.10758007
v -0.15240000 0.24537012 -0.10758007
v -0.15108813 0.08958071 0.10758007
v -0.15240000 0.09864137 0.10758007
v -0.15240000 0.24537012 0.00000000
v -0.15130183 0.09864137 -0.11796041
v -0.14913613 0.08831608 -0.11958294
v -0.14326148 0.07789551 -0.11875991
v -0.14325714 0.07789390 0.11876975
v -0.14913854 0.08831690 0.11957492
v -0.15130185 0.09864137 0.11796040
v -0.15128972 0.24537012 0.11801668
v -0.15240000 0.24537012 0.10758007
v -0.11772111 0.09060278 0.14922494
v -0.12294715 0.09864137 0.14960267
v -0.11540000 0.09864137 0.15050514
v -0.11540000 0.24537012 0.15050514
v -0.11719427 0.09242743 0.14974482
v -0.12751652 0.08887138 0.14625500
v -0.13028818 0.09864137 0.14687672
v -0.13025501 0.24537012 0.14689362
v -0.12292117 0.24537012 0.14960894
v -0.13674280 0.08774906 0.13989113
v -0.13718192 0.09864137 0.14227858
v -0.13714561 0.24537012 0.14230923
v -0.14327964 0.09864137 0.13580085
v -0.14324591 0.24537012 0.13584565
v -0.14426036 0.08756030 0.13059229
v -0.14814162 0.09864137 0.12757303
v -0.14811188 0.24537012 0.12763843
v -0.13733682 0.07699518 0.12908438
v -0.12946726 0.07793863 0.13768391
v -0.12062596 0.08054075 0.14354748
v -0.11907081 0.08592795 0.14722550
v -0.12367420 0.06997785 0.12917200
v -0.12236979 0.07449860 0.13700929
v -0.12078258 0.07999817 0.14308015
v -0.12372934 0.06978672 0.12874129
v -0.11728659 0.25190449 0.14966360
v -0.12497289 0.27853569 0.10758007
v -0.12465229 0.27742869 0.11857819
v -0.12374778 0.27429819 0.12857422
v -0.12240799 0.26964670 0.13682446
v -0.12366588 0.27401549 0.12921390
v -0.12083856 0.26420775 0.14290780
v -0.11770854 0.25337103 0.14923722
v -0.12062282 0.26345986 0.14355664
v -0.11914454 0.25833979 0.14708622
v -0.12497289 0.27853569 0.00000000
v -0.12464539 0.27740493 -0.11869358
v -0.12497289 0.27853569 -0.10758007
v -0.11540000 0.24537012 -0.15050514
v -0.11771528 0.25339442 -0.14922968
v -0.11717048 0.25150171 -0.14976501
v -0.12061908 0.26344690 -0.14356756
v -0.11905109 0.25801557 -0.14726190
v -0.12235963 0.26947865 -0.13705637
v -0.12076765 0.26396185 -0.14312534
v -0.12366589 0.27401555 -0.12921374
v -0.12372188 0.27420881 -0.12877923
v -0.11540000 0.09864137 -0.15050514
v -0.11728742 0.09210480 -0.14966302
v -0.12375004 0.06971497 -0.12857659
v -0.12240866 0.07436392 -0.13682312
v -0.12367415 0.06997802 -0.12917237
v -0.12083952 0.07980088 -0.14290524
v -0.11771560 0.09062187 -0.14923111
v -0.12062900 0.08053023 -0.14353861
v -0.11914571 0.08566849 -0.14708443
v -0.12947956 0.07793597 -0.13767332
v -0.13734512 0.07699516 -0.12907295
v -0.12749499 0.08887479 -0.14626542
v -0.12294713 0.09864137 -0.14960267
v -0.12290995 0.24537012 -0.14961164
v -0.14814162 0.09864137 -0.12757303
v -0.15128510 0.24537012 -0.11803801
v -0.14425272 0.08755994 -0.13060491
v -0.14327964 0.09864137 -0.13580085
v -0.14809416 0.24537012 -0.12767728
v -0.13672803 0.08775023 -0.13990487
v -0.13718192 0.09864137 -0.14227858
v -0.14321148 0.24537012 -0.13589123
v -0.13028818 0.09864137 -0.14687674
v -0.13710804 0.24537012 -0.14234084
v -0.13023004 0.24537012 -0.14690632
v -0.15109405 0.25441062 -0.10758009
v -0.14897004 0.25573140 -0.12014797
v -0.14401865 0.25644001 -0.13100332
v -0.13689879 0.25625229 -0.13975702
v -0.12788555 0.25517732 -0.14608191
v -0.12912033 0.27487856 -0.12268536
v -0.13399105 0.27438837 -0.11540163
v -0.13275875 0.27569103 -0.10758008
v -0.13277739 0.27568182 -0.00000000
v -0.12956411 0.26607296 -0.13762264
v -0.13713451 0.26699612 -0.12939046
v -0.13805309 0.27251640 -0.10758007
v -0.14304820 0.26617905 -0.11927736
v -0.13955955 0.27137375 -0.10758007
v -0.13959268 0.27134722 -0.00000000
v -0.14668345 0.26370257 -0.10758007
v -0.14916559 0.25940785 -0.10758008
v -0.14913860 0.25946367 -0.00000000
v -0.14668240 0.26370415 0.10758007
v -0.15109479 0.25440809 0.10758009
v -0.14915866 0.25942218 0.10758008
v -0.13805412 0.27251565 0.10758007
v -0.13964742 0.27130321 0.10758007
v -0.13281752 0.27566198 0.10758008
v -0.12785952 0.25517330 0.14609487
v -0.13688207 0.25625098 0.13977274
v -0.14400984 0.25644037 0.13101752
v -0.14896712 0.25573233 0.12015728
v -0.12912357 0.27487868 0.12268104
v -0.13399142 0.27438828 0.11540098
v -0.12957948 0.26607624 0.13760932
v -0.13714430 0.26699620 0.12937720
v -0.14305334 0.26617727 0.11926597
f 1 2 3
f 4 3 2
f 5 1 3
f 6 3 4
f 7 3 6
f 8 9 3
f 10 3 9
f 11 8 3
f 12 11 3
f 13 12 3
f 14 13 3
f 15 14 3
f 16 15 3
f 17 16 3
f 18 19 3
f 20 3 19
f 21 18 3
f 22 21 3
f 23 22 3
f 24 23 3
f 7 24 3
f 10 5 3
f 25 17 3
f 26 25 3
f 27 26 3
f 28 27 3
f 29 28 3
f 20 29 3
f 1 30 2
f 31 2 30
f 32 4 2
f 33 32 2
f 34 35 2
f 33 2 35
f 36 34 2
f 37 36 2
f 38 39 2
f 40 2 39
f 41 38 2
f 42 41 2
f 43 42 2
f 44 43 2
f 31 44 2
f 45 37 2
f 46 45 2
f 47 46 2
f 48 47 2
f 49 48 2
f 40 49 2
f 50 30 1
f 31 30 50
f 50 1 5
f 51 6 4
f 51 4 32
f 7 6 51
f 52 53 54
f 55 54 53
f 56 52 54
f 56 54 55
f 52 57 53
f 58 53 57
f 58 55 53
f 59 60 57
f 61 57 60
f 62 59 57
f 63 62 57
f 52 64 57
f 65 57 64
f 66 57 65
f 67 63 57
f 68 67 57
f 69 68 57
f 70 69 57
f 66 70 57
f 71 58 57
f 72 71 57
f 61 73 72
f 72 57 61
f 74 60 59
f 75 60 76
f 77 76 60
f 78 60 75
f 79 61 60
f 80 77 60
f 81 60 78
f 82 79 60
f 83 82 60
f 84 83 60
f 85 84 60
f 81 85 60
f 74 80 60
f 86 87 59
f 74 59 87
f 62 86 59
f 86 88 87
f 89 87 88
f 74 87 90
f 89 90 87
f 91 92 88
f 93 88 92
f 86 91 88
f 93 89 88
f 91 94 92
f 95 92 94
f 95 93 92
f 91 96 94
f 95 94 96
f 91 97 96
f 98 96 97
f 98 95 96
f 91 99 97
f 98 97 99
f 100 101 99
f 102 99 101
f 91 100 99
f 103 98 99
f 102 103 99
f 104 105 101
f 102 101 105
f 100 104 101
f 104 106 105
f 102 105 106
f 104 107 106
f 108 106 107
f 109 106 110
f 108 110 106
f 102 106 109
f 104 111 107
f 108 107 111
f 104 112 111
f 113 111 112
f 113 108 111
f 114 115 112
f 116 112 115
f 104 114 112
f 116 113 112
f 117 118 115
f 119 115 118
f 120 117 115
f 114 120 115
f 119 116 115
f 121 122 118
f 119 118 122
f 117 121 118
f 123 32 122
f 124 122 32
f 121 123 122
f 125 122 124
f 125 119 122
f 126 51 32
f 127 126 32
f 128 127 32
f 129 130 32
f 131 32 130
f 132 129 32
f 133 132 32
f 134 133 32
f 123 134 32
f 135 128 32
f 136 135 32
f 137 136 32
f 138 137 32
f 139 138 32
f 131 139 32
f 140 32 33
f 124 32 140
f 24 51 126
f 7 51 24
f 23 126 127
f 24 126 23
f 128 141 127
f 22 127 141
f 23 127 22
f 128 142 141
f 21 141 142
f 22 141 21
f 128 143 142
f 18 142 143
f 21 142 18
f 128 144 143
f 19 143 144
f 18 143 19
f 145 146 144
f 147 144 146
f 145 144 128
f 19 144 147
f 148 149 146
f 150 146 149
f 151 148 146
f 145 151 146
f 147 146 150
f 152 153 149
f 154 149 153
f 148 152 149
f 150 149 154
f 131 130 153
f 154 153 130
f 155 131 153
f 152 155 153
f 156 130 129
f 154 130 156
f 157 129 132
f 156 129 157
f 158 132 133
f 157 132 158
f 16 133 134
f 158 133 16
f 15 134 123
f 16 134 15
f 14 123 121
f 15 123 14
f 13 121 117
f 14 121 13
f 12 117 120
f 13 117 12
f 11 120 114
f 12 120 11
f 8 114 104
f 11 114 8
f 9 104 100
f 8 104 9
f 159 100 91
f 9 100 159
f 160 91 86
f 159 91 160
f 161 86 62
f 161 160 86
f 63 162 62
f 163 62 162
f 163 161 62
f 164 165 162
f 166 162 165
f 167 164 162
f 63 167 162
f 166 163 162
f 65 64 165
f 168 165 64
f 169 65 165
f 170 169 165
f 171 170 165
f 164 171 165
f 172 166 165
f 168 172 165
f 56 64 52
f 56 168 64
f 173 65 169
f 174 66 65
f 174 65 173
f 175 169 170
f 173 169 175
f 176 170 171
f 175 170 176
f 177 171 164
f 176 171 177
f 178 164 167
f 177 164 178
f 179 167 63
f 178 167 179
f 180 63 67
f 179 63 180
f 181 67 68
f 181 180 67
f 182 68 69
f 181 68 182
f 183 69 70
f 182 69 183
f 184 70 66
f 183 70 184
f 184 66 174
f 20 128 135
f 185 145 128
f 185 128 20
f 29 135 136
f 20 135 29
f 28 136 137
f 29 136 28
f 27 137 138
f 28 137 27
f 26 138 139
f 27 138 26
f 25 139 131
f 26 139 25
f 17 131 155
f 25 131 17
f 186 155 152
f 186 17 155
f 187 152 148
f 186 152 187
f 188 148 151
f 187 148 188
f 189 151 145
f 188 151 189
f 189 145 185
f 56 55 58
f 58 71 56
f 190 160 161
f 191 159 160
f 192 191 160
f 193 192 160
f 194 193 160
f 195 194 160
f 196 195 160
f 197 196 160
f 198 197 160
f 190 198 160
f 190 161 163
f 190 163 166
f 180 166 172
f 180 190 166
f 177 172 168
f 179 180 172
f 178 179 172
f 177 178 172
f 173 168 56
f 176 177 168
f 175 176 168
f 173 175 168
f 173 56 71
f 173 71 190
f 199 190 71
f 200 71 201
f 72 201 71
f 202 199 71
f 203 202 71
f 204 203 71
f 205 204 71
f 200 206 71
f 207 71 206
f 208 71 207
f 209 205 71
f 210 209 71
f 211 210 71
f 212 211 71
f 208 212 71
f 213 9 159
f 214 213 159
f 215 214 159
f 191 215 159
f 216 10 9
f 217 216 9
f 218 217 9
f 219 218 9
f 220 219 9
f 213 220 9
f 17 158 16
f 17 157 158
f 17 156 157
f 186 154 156
f 186 156 17
f 187 150 154
f 186 187 154
f 189 147 150
f 188 189 150
f 187 188 150
f 20 19 147
f 185 20 147
f 189 185 147
f 221 5 10
f 222 5 223
f 224 223 5
f 225 50 5
f 226 227 5
f 228 5 227
f 229 226 5
f 230 229 5
f 231 230 5
f 232 231 5
f 233 232 5
f 234 233 5
f 235 234 5
f 236 235 5
f 222 236 5
f 237 225 5
f 238 237 5
f 239 238 5
f 240 239 5
f 241 240 5
f 228 241 5
f 224 5 221
f 242 10 216
f 221 10 242
f 243 216 217
f 244 242 216
f 243 244 216
f 245 217 218
f 245 243 217
f 245 218 219
f 246 219 220
f 246 245 219
f 247 220 213
f 247 246 220
f 248 213 214
f 248 247 213
f 249 214 215
f 248 214 249
f 250 215 191
f 250 249 215
f 251 191 192
f 250 191 251
f 252 192 193
f 251 192 252
f 253 193 194
f 252 193 253
f 254 194 195
f 253 194 254
f 255 195 196
f 256 195 255
f 254 195 256
f 257 196 197
f 255 196 257
f 257 197 198
f 258 198 190
f 257 198 258
f 181 190 180
f 174 173 190
f 184 174 190
f 183 184 190
f 182 183 190
f 181 182 190
f 259 190 199
f 258 190 259
f 200 201 260
f 73 260 201
f 61 200 260
f 73 61 260
f 72 73 201
f 202 261 199
f 262 199 261
f 262 259 199
f 202 263 261
f 264 261 263
f 265 262 261
f 264 265 261
f 202 266 263
f 267 263 266
f 267 264 263
f 202 268 266
f 267 266 268
f 202 269 268
f 270 268 269
f 270 267 268
f 202 271 269
f 272 269 271
f 272 270 269
f 273 274 271
f 275 271 274
f 202 273 271
f 275 272 271
f 273 276 274
f 277 274 276
f 275 274 277
f 222 278 276
f 279 276 278
f 273 222 276
f 279 277 276
f 222 280 278
f 281 278 280
f 279 278 281
f 222 282 280
f 283 280 282
f 283 281 280
f 222 284 282
f 285 282 284
f 285 283 282
f 222 286 284
f 287 284 286
f 287 285 284
f 222 288 286
f 289 286 288
f 290 287 286
f 289 290 286
f 222 291 288
f 292 288 291
f 292 289 288
f 222 223 291
f 292 291 223
f 292 223 224
f 225 293 50
f 44 50 293
f 31 50 44
f 225 294 293
f 43 293 294
f 44 293 43
f 225 295 294
f 42 294 295
f 43 294 42
f 225 296 295
f 41 295 296
f 42 295 41
f 225 297 296
f 38 296 297
f 41 296 38
f 225 298 297
f 39 297 298
f 38 297 39
f 299 300 298
f 301 298 300
f 299 298 225
f 39 298 301
f 302 303 300
f 304 300 303
f 305 302 300
f 299 305 300
f 301 300 304
f 306 307 303
f 308 303 307
f 302 306 303
f 304 303 308
f 228 227 307
f 308 307 227
f 309 228 307
f 306 309 307
f 310 227 226
f 308 227 310
f 311 226 229
f 310 226 311
f 312 229 230
f 311 229 312
f 36 230 231
f 312 230 36
f 34 231 232
f 36 231 34
f 35 232 233
f 34 232 35
f 313 233 234
f 35 233 313
f 314 234 235
f 313 234 314
f 315 235 236
f 314 235 315
f 316 236 222
f 315 236 316
f 317 222 273
f 316 222 317
f 318 273 202
f 317 273 318
f 319 202 203
f 318 202 319
f 320 203 204
f 320 319 203
f 205 321 204
f 76 204 321
f 76 320 204
f 322 323 321
f 75 321 323
f 324 322 321
f 205 324 321
f 75 76 321
f 207 206 323
f 325 323 206
f 326 207 323
f 327 326 323
f 328 327 323
f 322 328 323
f 329 75 323
f 325 329 323
f 61 206 200
f 61 325 206
f 79 207 326
f 82 208 207
f 82 207 79
f 330 326 327
f 79 326 330
f 331 327 328
f 330 327 331
f 332 328 322
f 331 328 332
f 333 322 324
f 332 322 333
f 334 324 205
f 333 324 334
f 78 205 209
f 334 205 78
f 81 209 210
f 81 78 209
f 85 210 211
f 81 210 85
f 84 211 212
f 85 211 84
f 83 212 208
f 84 212 83
f 83 208 82
f 40 225 237
f 335 299 225
f 335 225 40
f 49 237 238
f 40 237 49
f 48 238 239
f 49 238 48
f 47 239 240
f 48 239 47
f 46 240 241
f 47 240 46
f 45 241 228
f 46 241 45
f 37 228 309
f 45 228 37
f 336 309 306
f 336 37 309
f 337 306 302
f 336 306 337
f 338 302 305
f 337 302 338
f 339 305 299
f 338 305 339
f 339 299 335
f 340 319 320
f 341 318 319
f 342 341 319
f 343 342 319
f 344 343 319
f 345 344 319
f 340 345 319
f 346 320 76
f 346 340 320
f 77 346 76
f 78 75 329
f 332 329 325
f 334 78 329
f 333 334 329
f 332 333 329
f 79 325 61
f 331 332 325
f 330 331 325
f 79 330 325
f 347 317 318
f 348 347 318
f 341 348 318
f 349 316 317
f 350 349 317
f 351 350 317
f 352 351 317
f 353 352 317
f 347 353 317
f 349 315 316
f 349 314 315
f 354 313 314
f 349 354 314
f 33 35 313
f 354 33 313
f 37 312 36
f 37 311 312
f 37 310 311
f 336 308 310
f 336 310 37
f 337 304 308
f 336 337 308
f 339 301 304
f 338 339 304
f 337 338 304
f 40 39 301
f 335 40 301
f 339 335 301
f 140 33 354
f 355 354 349
f 140 354 356
f 355 356 354
f 357 349 350
f 357 355 349
f 358 350 351
f 358 357 350
f 358 351 352
f 359 352 353
f 359 358 352
f 359 353 347
f 360 347 348
f 361 359 347
f 360 361 347
f 360 348 341
f 360 341 342
f 362 342 343
f 363 342 364
f 362 364 342
f 360 342 363
f 362 343 344
f 365 344 345
f 365 362 344
f 366 345 340
f 366 365 345
f 367 340 346
f 367 366 340
f 367 346 77
f 368 367 77
f 80 368 77
f 124 356 369
f 355 369 356
f 370 124 369
f 371 370 369
f 372 369 355
f 371 369 372
f 124 140 356
f 373 124 370
f 373 125 124
f 374 373 370
f 375 374 370
f 371 375 370
f 376 355 357
f 377 372 355
f 378 377 355
f 376 378 355
f 379 357 358
f 380 376 357
f 381 380 357
f 382 381 357
f 379 382 357
f 383 358 359
f 384 379 358
f 385 384 358
f 386 385 358
f 383 386 358
f 361 387 359
f 388 359 387
f 389 383 359
f 390 389 359
f 391 390 359
f 392 391 359
f 388 392 359
f 364 387 361
f 393 387 394
f 395 394 387
f 396 388 387
f 397 396 387
f 393 397 387
f 364 395 387
f 363 364 361
f 360 363 361
f 398 393 394
f 395 398 394
f 399 372 377
f 399 371 372
f 400 377 378
f 400 399 377
f 401 378 376
f 401 400 378
f 402 376 380
f 402 401 376
f 403 380 381
f 403 402 380
f 404 381 382
f 404 403 381
f 405 382 379
f 406 404 382
f 405 406 382
f 407 379 384
f 407 405 379
f 408 384 385
f 408 407 384
f 409 385 386
f 409 408 385
f 410 386 383
f 410 409 386
f 411 383 389
f 411 410 383
f 412 389 390
f 413 411 389
f 412 413 389
f 414 390 391
f 414 412 390
f 415 391 392
f 415 414 391
f 416 392 388
f 416 415 392
f 417 388 396
f 417 416 388
f 418 396 397
f 419 417 396
f 418 419 396
f 420 397 393
f 420 418 397
f 398 421 393
f 422 393 421
f 422 420 393
f 423 421 398
f 424 421 423
f 422 421 424
f 395 425 398
f 423 398 425
f 362 425 395
f 426 423 425
f 427 425 362
f 426 425 427
f 362 395 364
f 426 424 423
f 428 362 365
f 429 427 362
f 430 429 362
f 431 430 362
f 428 431 362
f 432 365 366
f 433 428 365
f 434 433 365
f 435 434 365
f 436 435 365
f 432 436 365
f 437 366 367
f 438 432 366
f 439 438 366
f 440 439 366
f 437 440 366
f 441 367 368
f 442 437 367
f 443 442 367
f 444 443 367
f 441 444 367
f 445 368 446
f 80 446 368
f 447 441 368
f 445 447 368
f 448 445 446
f 449 448 446
f 80 449 446
f 450 427 429
f 451 426 427
f 450 451 427
f 452 429 430
f 452 450 429
f 453 430 431
f 453 452 430
f 454 431 428
f 455 453 431
f 454 455 431
f 456 428 433
f 456 454 428
f 457 433 434
f 457 456 433
f 458 434 435
f 458 457 434
f 459 435 436
f 459 458 435
f 460 436 432
f 461 459 436
f 460 461 436
f 462 432 438
f 462 460 432
f 463 438 439
f 463 462 438
f 464 439 440
f 464 463 439
f 465 440 437
f 465 464 440
f 466 437 442
f 466 465 437
f 467 442 443
f 468 466 442
f 467 468 442
f 469 443 444
f 469 467 443
f 470 444 441
f 470 469 444
f 471 441 447
f 471 470 441
f 472 447 445
f 472 471 447
f 472 445 448
f 473 448 449
f 474 472 448
f 473 474 448
f 475 449 80
f 476 449 475
f 476 473 449
f 90 475 80
f 74 90 80
f 89 475 90
f 477 475 89
f 476 475 477
f 478 89 93
f 479 477 89
f 480 479 89
f 478 480 89
f 481 93 95
f 482 478 93
f 483 482 93
f 484 483 93
f 481 484 93
f 485 95 98
f 486 481 95
f 487 486 95
f 488 487 95
f 485 488 95
f 103 489 98
f 490 98 489
f 491 485 98
f 492 491 98
f 493 492 98
f 494 493 98
f 490 494 98
f 110 489 103
f 495 489 496
f 497 496 489
f 498 490 489
f 499 498 489
f 495 499 489
f 110 497 489
f 109 110 103
f 102 109 103
f 500 495 496
f 497 500 496
f 501 477 479
f 501 476 477
f 502 479 480
f 502 501 479
f 503 480 478
f 503 502 480
f 504 478 482
f 504 503 478
f 505 482 483
f 505 504 482
f 506 483 484
f 506 505 483
f 507 484 481
f 508 506 484
f 507 508 484
f 509 481 486
f 509 507 481
f 510 486 487
f 510 509 486
f 511 487 488
f 511 510 487
f 512 488 485
f 512 511 488
f 513 485 491
f 513 512 485
f 514 491 492
f 515 513 491
f 514 515 491
f 516 492 493
f 516 514 492
f 517 493 494
f 517 516 493
f 518 494 490
f 518 517 494
f 519 490 498
f 519 518 490
f 520 498 499
f 521 519 498
f 520 521 498
f 522 499 495
f 522 520 499
f 500 523 495
f 524 495 523
f 524 522 495
f 525 523 500
f 526 523 525
f 524 523 526
f 497 527 500
f 525 500 527
f 108 527 497
f 528 525 527
f 529 527 108
f 528 527 529
f 108 497 110
f 528 526 525
f 530 108 113
f 531 529 108
f 532 531 108
f 533 532 108
f 530 533 108
f 534 113 116
f 535 530 113
f 536 535 113
f 537 536 113
f 538 537 113
f 534 538 113
f 539 116 119
f 540 534 116
f 541 540 116
f 542 541 116
f 539 542 116
f 543 119 125
f 544 539 119
f 545 544 119
f 546 545 119
f 543 546 119
f 547 125 373
f 548 543 125
f 547 548 125
f 374 547 373
f 549 529 531
f 550 528 529
f 549 550 529
f 551 531 532
f 551 549 531
f 552 532 533
f 552 551 532
f 553 533 530
f 554 552 533
f 553 554 533
f 555 530 535
f 555 553 530
f 556 535 536
f 556 555 535
f 557 536 537
f 557 556 536
f 558 537 538
f 558 557 537
f 559 538 534
f 560 558 538
f 559 560 538
f 561 534 540
f 561 559 534
f 562 540 541
f 562 561 540
f 563 541 542
f 563 562 541
f 564 542 539
f 564 563 542
f 565 539 544
f 565 564 539
f 566 544 545
f 567 565 544
f 566 567 544
f 568 545 546
f 568 566 545
f 569 546 543
f 569 568 546
f 570 543 548
f 570 569 543
f 571 548 547
f 571 570 548
f 571 547 374
f 375 572 374
f 571 374 572
f 573 572 375
f 574 571 572
f 575 574 572
f 576 575 572
f 573 576 572
f 577 375 371
f 577 573 375
f 578 371 399
f 577 371 578
f 579 422 424
f 580 424 426
f 579 424 580
f 578 399 400
f 581 400 401
f 578 400 581
f 581 401 402
f 581 402 403
f 581 403 404
f 581 404 406
f 582 406 405
f 581 406 582
f 583 405 407
f 582 405 583
f 583 407 408
f 583 408 409
f 583 409 410
f 583 410 411
f 583 411 413
f 584 413 412
f 583 413 584
f 584 412 414
f 584 414 415
f 584 415 416
f 584 416 417
f 584 417 419
f 585 419 418
f 586 419 585
f 587 419 586
f 588 419 587
f 584 419 588
f 579 418 420
f 585 418 579
f 579 420 422
f 450 426 451
f 452 426 450
f 580 426 452
f 580 452 453
f 454 453 455
f 456 453 454
f 457 453 456
f 458 453 457
f 459 453 458
f 589 453 459
f 590 580 453
f 589 590 453
f 460 459 461
f 462 459 460
f 463 459 462
f 464 459 463
f 591 459 464
f 591 589 459
f 591 464 465
f 591 465 466
f 467 466 468
f 469 466 467
f 470 466 469
f 471 466 470
f 592 466 471
f 591 466 593
f 592 593 466
f 592 471 472
f 592 472 474
f 594 474 473
f 595 474 594
f 592 474 595
f 596 473 476
f 596 594 473
f 597 476 501
f 596 476 597
f 598 524 526
f 599 526 528
f 598 526 599
f 600 501 502
f 600 597 501
f 600 502 503
f 600 503 504
f 600 504 505
f 600 505 506
f 600 506 508
f 601 508 507
f 600 508 601
f 602 507 509
f 601 507 602
f 602 509 510
f 602 510 511
f 602 511 512
f 602 512 513
f 602 513 515
f 603 515 514
f 602 515 603
f 603 514 516
f 603 516 517
f 603 517 518
f 603 518 519
f 603 519 521
f 604 521 520
f 605 606 521
f 603 521 606
f 607 605 521
f 604 607 521
f 598 520 522
f 598 604 520
f 598 522 524
f 549 528 550
f 551 528 549
f 599 528 551
f 599 551 552
f 553 552 554
f 555 552 553
f 556 552 555
f 557 552 556
f 558 552 557
f 608 552 558
f 609 552 608
f 609 599 552
f 559 558 560
f 561 558 559
f 562 558 561
f 563 558 562
f 564 558 563
f 610 558 564
f 608 558 610
f 610 564 565
f 566 565 567
f 568 565 566
f 569 565 568
f 574 565 569
f 610 565 574
f 574 569 570
f 574 570 571
f 611 574 575
f 611 610 574
f 576 612 575
f 613 575 612
f 613 611 575
f 573 612 576
f 613 612 614
f 615 614 612
f 573 615 612
f 616 613 614
f 615 616 614
f 617 610 611
f 617 608 610
f 618 611 613
f 618 617 611
f 619 613 616
f 619 618 613
f 619 616 620
f 621 620 616
f 615 621 616
f 622 619 620
f 623 622 620
f 621 623 620
f 624 608 617
f 625 609 608
f 626 625 608
f 627 626 608
f 624 627 608
f 628 617 618
f 629 624 617
f 630 629 617
f 631 630 617
f 628 631 617
f 632 618 619
f 633 628 618
f 634 633 618
f 635 634 618
f 632 635 618
f 636 619 622
f 637 632 619
f 638 637 619
f 636 638 619
f 639 622 640
f 623 640 622
f 641 636 622
f 642 641 622
f 639 642 622
f 643 639 640
f 644 640 623
f 644 645 640
f 643 640 645
f 598 599 609
f 604 609 625
f 598 609 604
f 607 625 626
f 604 625 607
f 605 626 627
f 607 626 605
f 606 627 624
f 605 627 606
f 646 624 629
f 606 624 646
f 647 629 630
f 646 629 647
f 648 630 631
f 647 630 648
f 649 631 628
f 648 631 649
f 650 628 633
f 649 628 650
f 651 633 634
f 650 633 651
f 652 634 635
f 651 634 652
f 653 635 632
f 652 635 653
f 654 632 637
f 653 632 654
f 655 637 638
f 654 637 655
f 656 638 636
f 655 638 656
f 657 636 641
f 656 636 657
f 658 641 642
f 657 641 658
f 659 642 639
f 658 642 659
f 659 639 643
f 660 623 621
f 661 644 623
f 660 661 623
f 662 621 615
f 663 660 621
f 664 663 621
f 664 621 662
f 665 615 573
f 666 662 615
f 666 615 665
f 577 665 573
f 667 645 644
f 668 645 667
f 643 645 668
f 669 667 644
f 670 669 644
f 661 670 644
f 671 672 594
f 673 594 672
f 597 671 594
f 596 597 594
f 673 595 594
f 674 667 672
f 675 672 667
f 676 674 672
f 671 676 672
f 677 673 672
f 675 677 672
f 674 668 667
f 669 675 667
f 676 668 674
f 678 668 676
f 678 643 668
f 597 676 671
f 679 676 597
f 679 678 676
f 600 679 597
f 592 595 673
f 680 673 677
f 592 673 680
f 680 677 675
f 681 675 669
f 680 675 681
f 681 669 670
f 682 670 661
f 683 684 670
f 681 670 684
f 682 683 670
f 685 682 661
f 660 685 661
f 585 580 590
f 585 579 580
f 589 686 590
f 586 590 686
f 586 585 590
f 589 687 686
f 587 686 687
f 587 586 686
f 589 688 687
f 588 687 688
f 588 587 687
f 589 689 688
f 690 688 689
f 690 588 688
f 691 692 689
f 693 689 692
f 589 691 689
f 693 690 689
f 691 694 692
f 695 692 694
f 695 693 692
f 691 696 694
f 697 694 696
f 697 695 694
f 691 698 696
f 699 696 698
f 699 697 696
f 700 701 698
f 702 698 701
f 691 700 698
f 702 699 698
f 700 703 701
f 704 701 703
f 704 702 701
f 700 705 703
f 706 703 705
f 706 704 703
f 700 707 705
f 708 705 707
f 708 706 705
f 681 709 707
f 710 707 709
f 700 681 707
f 710 708 707
f 681 711 709
f 712 709 711
f 712 710 709
f 681 713 711
f 714 711 713
f 714 712 711
f 681 684 713
f 715 713 684
f 715 714 713
f 716 684 683
f 716 715 684
f 685 683 682
f 685 716 683
f 680 681 700
f 593 700 691
f 593 680 700
f 591 691 589
f 591 593 691
f 592 680 593
f 584 588 690
f 584 690 693
f 584 693 695
f 584 695 697
f 717 697 699
f 717 584 697
f 717 699 702
f 717 702 704
f 717 704 706
f 718 706 708
f 718 717 706
f 718 708 710
f 718 710 712
f 719 712 714
f 719 718 712
f 719 714 715
f 719 715 716
f 719 716 685
f 663 685 660
f 663 719 685
f 583 584 717
f 582 717 718
f 582 583 717
f 720 718 719
f 720 582 718
f 662 719 663
f 662 720 719
f 664 662 663
f 578 582 720
f 578 581 582
f 665 720 662
f 665 578 720
f 666 665 662
f 577 578 665
f 678 659 643
f 678 658 659
f 678 657 658
f 721 656 657
f 678 721 657
f 721 655 656
f 721 654 655
f 721 653 654
f 722 652 653
f 721 722 653
f 722 651 652
f 722 650 651
f 722 649 650
f 603 648 649
f 722 603 649
f 603 647 648
f 603 646 647
f 603 606 646
f 602 603 722
f 601 722 721
f 601 602 722
f 679 721 678
f 679 601 721
f 600 601 679
f 723 259 262
f 724 258 259
f 723 724 259
f 265 723 262
f 725 258 724
f 726 258 725
f 257 258 726
f 727 725 724
f 728 724 723
f 728 727 724
f 729 725 727
f 730 725 729
f 726 725 730
f 728 723 731
f 732 731 723
f 733 723 265
f 732 723 733
f 731 734 727
f 735 727 734
f 728 731 727
f 735 729 727
f 736 737 734
f 738 734 737
f 739 736 734
f 740 739 734
f 731 740 734
f 741 735 734
f 738 741 734
f 742 743 737
f 744 737 743
f 745 742 737
f 736 745 737
f 744 738 737
f 746 743 742
f 747 744 743
f 748 747 743
f 749 748 743
f 749 743 746
f 750 742 745
f 746 742 750
f 739 745 736
f 751 745 739
f 751 750 745
f 731 739 740
f 752 739 731
f 752 751 739
f 732 752 731
f 730 729 735
f 753 735 741
f 730 735 753
f 753 741 738
f 754 738 744
f 753 738 754
f 754 744 747
f 755 747 748
f 754 747 755
f 756 755 748
f 757 748 749
f 756 748 757
f 758 759 760
f 761 760 759
f 762 758 760
f 252 762 760
f 251 252 760
f 250 251 760
f 761 250 760
f 763 764 759
f 765 759 764
f 758 763 759
f 766 761 759
f 765 766 759
f 767 768 764
f 769 764 768
f 763 767 764
f 769 765 764
f 767 770 768
f 771 768 770
f 771 769 768
f 772 773 770
f 774 770 773
f 767 772 770
f 774 771 770
f 754 755 773
f 756 773 755
f 772 754 773
f 756 774 773
f 753 754 772
f 775 772 767
f 775 753 772
f 776 767 763
f 776 775 767
f 777 763 758
f 777 776 763
f 252 758 762
f 777 758 778
f 253 778 758
f 252 253 758
f 253 777 778
f 730 753 775
f 779 775 776
f 779 730 775
f 780 776 777
f 780 779 776
f 780 777 781
f 254 781 777
f 253 254 777
f 254 780 781
f 726 730 779
f 256 779 780
f 726 779 782
f 255 782 779
f 256 255 779
f 254 256 780
f 255 726 782
f 255 257 726
f 761 249 250
f 783 248 249
f 783 249 761
f 784 242 244
f 784 221 242
f 785 244 243
f 785 784 244
f 786 243 245
f 786 785 243
f 787 245 246
f 788 786 245
f 787 788 245
f 789 246 247
f 789 787 246
f 790 247 248
f 791 789 247
f 792 791 247
f 790 792 247
f 783 790 248
f 793 224 221
f 784 793 221
f 794 292 224
f 794 224 795
f 793 795 224
f 796 281 283
f 796 279 281
f 797 283 285
f 798 796 283
f 798 283 797
f 799 285 287
f 800 285 799
f 797 285 800
f 801 287 290
f 802 287 801
f 799 287 802
f 803 290 289
f 801 290 803
f 794 289 292
f 804 289 794
f 803 289 804
f 805 277 279
f 806 275 277
f 805 806 277
f 796 805 279
f 733 265 264
f 807 264 267
f 807 733 264
f 808 267 270
f 809 807 267
f 808 809 267
f 810 270 272
f 810 808 270
f 811 272 275
f 812 810 272
f 813 812 272
f 811 813 272
f 806 811 275
f 732 733 807
f 732 807 809
f 814 809 808
f 815 809 814
f 732 809 815
f 814 808 810
f 814 810 812
f 816 812 813
f 814 812 816
f 816 813 811
f 817 811 806
f 816 811 817
f 817 806 805
f 818 817 805
f 818 805 796
f 751 819 750
f 820 750 819
f 820 746 750
f 821 822 819
f 823 819 822
f 751 821 819
f 823 820 819
f 824 825 822
f 826 822 825
f 821 824 822
f 826 823 822
f 816 827 825
f 828 825 827
f 824 816 825
f 828 826 825
f 816 817 827
f 829 827 817
f 829 828 827
f 818 829 817
f 814 816 824
f 815 824 821
f 815 814 824
f 752 821 751
f 752 815 821
f 732 815 752
f 797 818 796
f 798 797 796
f 830 746 820
f 749 746 830
f 831 820 823
f 830 820 831
f 832 823 826
f 831 823 832
f 833 826 828
f 832 826 833
f 833 828 829
f 834 829 818
f 833 829 834
f 834 818 797
f 835 794 795
f 836 835 795
f 837 836 795
f 838 837 795
f 793 838 795
f 803 804 794
f 835 803 794
f 839 803 835
f 839 801 803
f 840 835 836
f 840 839 835
f 837 841 836
f 842 836 841
f 842 840 836
f 838 841 837
f 842 841 843
f 844 843 841
f 838 844 841
f 845 842 843
f 844 845 843
f 799 802 801
f 839 799 801
f 834 799 839
f 797 800 799
f 834 797 799
f 833 839 840
f 833 834 839
f 832 840 842
f 832 833 840
f 831 842 845
f 831 832 842
f 831 845 846
f 847 846 845
f 844 847 845
f 830 831 846
f 749 830 846
f 847 749 846
f 757 749 847
f 848 847 844
f 849 757 847
f 850 849 847
f 848 850 847
f 851 844 838
f 852 848 844
f 851 852 844
f 853 838 793
f 853 851 838
f 853 793 784
f 849 756 757
f 783 761 766
f 854 766 765
f 783 766 790
f 854 790 766
f 854 765 769
f 855 769 771
f 855 854 769
f 856 771 774
f 856 855 771
f 857 774 756
f 857 856 774
f 857 756 849
f 858 784 785
f 859 853 784
f 859 784 858
f 858 785 786
f 858 786 788
f 860 788 787
f 861 788 860
f 858 788 861
f 860 787 789
f 860 789 791
f 854 791 792
f 860 791 854
f 854 792 790
f 848 849 850
f 857 849 848
f 851 848 852
f 862 848 851
f 862 857 848
f 859 851 853
f 859 862 851
f 860 854 855
f 861 855 856
f 861 860 855
f 862 856 857
f 862 861 856
f 859 861 862
f 859 858 861
