# https://github.com/mikedh/trimesh
mtllib mtl_drawer_2_face
usemtl mtl_drawer_2_face
v 0.29192609 0.00000000 -0.00307588
v 0.29192603 0.00317500 -0.00307595
v 0.29320014 0.00317500 0.00000000
v 0.29320014 0.00317500 0.08730000
v 0.29320014 0.00000000 0.00000000
v 0.28885013 0.00000000 -0.00435000
v 0.28885013 0.00317500 -0.00435000
v 0.29192609 0.00317500 0.09037589
v 0.14660007 0.00000000 -0.00435000
v 0.28885013 0.00317500 0.09165000
v 0.18028285 0.00317500 0.01497996
v 0.14660007 0.00317500 -0.00435000
v 0.28885013 0.00000000 0.09165000
v 0.17870817 0.00000000 0.01411336
v 0.14660007 0.00000000 0.09165000
v 0.18028285 0.00000000 0.06272601
v 0.18028285 0.00000000 0.01497996
v 0.18089007 0.00000000 0.01662799
v 0.18089007 0.00000000 0.06107799
v 0.29192603 0.00000000 0.09037594
v 0.29320014 0.00000000 0.08730000
v 0.17697573 0.00317500 0.06321406
v 0.14660007 0.00317500 0.09165000
v 0.18089007 0.00317500 0.01662799
v 0.18089007 0.00317500 0.06107799
v 0.17870817 0.00317500 0.06359262
v 0.18028285 0.00317500 0.06272601
v 0.00435000 0.00317500 -0.00435000
v 0.00435000 0.00317500 0.09165000
v 0.11291730 0.00317500 0.06272601
v 0.12145524 0.00317500 0.05942278
v 0.11987524 0.00317500 0.05821046
v 0.11739007 0.00317500 0.06107799
v 0.12526406 0.00317500 0.06044299
v 0.16793607 0.00317500 0.06044299
v 0.11446653 0.00317500 0.06358887
v 0.11622441 0.00317500 0.06321406
v 0.11728179 0.00317500 0.06181169
v 0.11736285 0.00317500 0.06144881
v 0.00127405 0.00317500 -0.00307588
v 0.00127412 0.00317500 0.09037594
v 0.00435000 0.00000000 0.09165000
v 0.00000000 0.00317500 -0.00000000
v 0.00000000 0.00317500 0.08730000
v 0.00127405 0.00000000 0.09037589
v 0.00000000 0.00000000 0.08730000
v 0.00000000 0.00000000 -0.00000000
v 0.00127412 0.00000000 -0.00307595
v 0.11449198 0.00317500 0.01411336
v 0.00435000 0.00000000 -0.00435000
v 0.11291730 0.00317500 0.01497996
v 0.11231007 0.00317500 0.01662799
v 0.11231007 0.00317500 0.06107799
v 0.12526406 0.00317500 0.01726299
v 0.16793607 0.00317500 0.01726299
v 0.17174490 0.00317500 0.01828320
v 0.11622441 0.00317500 0.01449192
v 0.17332490 0.00317500 0.01949551
v 0.17581007 0.00317500 0.01662799
v 0.17873360 0.00317500 0.01411711
v 0.17697573 0.00317500 0.01449192
v 0.17591834 0.00317500 0.01589429
v 0.17583728 0.00317500 0.01625716
v 0.16793607 0.00000000 0.01726299
v 0.17174490 0.00000000 0.01828320
v 0.12145524 0.00317500 0.01828320
v 0.12526406 0.00000000 0.01726299
v 0.11728179 0.00317500 0.01589429
v 0.11987659 0.00317500 0.01949416
v 0.12145524 0.00000000 0.01828320
v 0.11866428 0.00317500 0.02107416
v 0.11987524 0.00000000 0.01949551
v 0.11739007 0.00317500 0.01662799
v 0.11764406 0.00317500 0.02488299
v 0.11866428 0.00000000 0.02107416
v 0.11736285 0.00317500 0.01625717
v 0.11764406 0.00317500 0.05282299
v 0.11764406 0.00000000 0.02488299
v 0.11866428 0.00317500 0.05663182
v 0.11764406 0.00000000 0.05282299
v 0.11866428 0.00000000 0.05663181
v 0.11987659 0.00000000 0.05821182
v 0.12145524 0.00000000 0.05942278
v 0.12526406 0.00000000 0.06044299
v 0.17174490 0.00317500 0.05942278
v 0.16793607 0.00000000 0.06044299
v 0.17591834 0.00317500 0.06181169
v 0.17332354 0.00317500 0.05821182
v 0.17174490 0.00000000 0.05942278
v 0.17453586 0.00317500 0.05663181
v 0.17332490 0.00000000 0.05821046
v 0.17581007 0.00317500 0.06107799
v 0.17555606 0.00317500 0.05282299
v 0.17453586 0.00000000 0.05663182
v 0.17583728 0.00317500 0.06144881
v 0.17555606 0.00317500 0.02488299
v 0.17555606 0.00000000 0.05282299
v 0.17453586 0.00317500 0.02107416
v 0.17555606 0.00000000 0.02488299
v 0.17453586 0.00000000 0.02107416
v 0.17332354 0.00000000 0.01949416
v 0.18086286 0.00317500 0.01699881
v 0.18086286 0.00000000 0.01699881
v 0.17697573 0.00000000 0.01449192
v 0.17591834 0.00000000 0.01589429
v 0.17583728 0.00000000 0.01625717
v 0.17640863 0.00317500 0.05944018
v 0.17640863 0.00317500 0.01826580
v 0.17581007 0.00000000 0.01662799
v 0.17799038 0.00317500 0.05856359
v 0.17794502 0.00317500 0.01913548
v 0.17641729 0.00000000 0.01827601
v 0.17972277 0.00317500 0.01876511
v 0.17799197 0.00000000 0.01914262
v 0.18078180 0.00317500 0.06034429
v 0.18078180 0.00317500 0.01736169
v 0.17972441 0.00000000 0.01876406
v 0.17973542 0.00317500 0.05894905
v 0.18086286 0.00317500 0.06070717
v 0.18078180 0.00000000 0.01736169
v 0.11739007 0.00000000 0.01662799
v 0.11679150 0.00317500 0.01826580
v 0.11678284 0.00000000 0.01827601
v 0.11736285 0.00000000 0.01625716
v 0.11728179 0.00000000 0.01589429
v 0.11622441 0.00000000 0.01449192
v 0.11446653 0.00000000 0.01411711
v 0.11291730 0.00000000 0.01497996
v 0.11233728 0.00317500 0.06070717
v 0.11233728 0.00317500 0.01699881
v 0.11231007 0.00000000 0.01662799
v 0.11241834 0.00317500 0.06034429
v 0.11241834 0.00317500 0.01736169
v 0.11233728 0.00000000 0.01699881
v 0.11347736 0.00317500 0.05894087
v 0.11346471 0.00317500 0.01875693
v 0.11241834 0.00000000 0.01736169
v 0.11520976 0.00317500 0.01914239
v 0.11347573 0.00000000 0.01876406
v 0.11679150 0.00317500 0.05944017
v 0.11523361 0.00000000 0.01913886
v 0.11525511 0.00317500 0.05857049
v 0.17581007 0.00000000 0.06107799
v 0.17641729 0.00000000 0.05942996
v 0.17583728 0.00000000 0.06144881
v 0.17591834 0.00000000 0.06181169
v 0.17697573 0.00000000 0.06321406
v 0.17873360 0.00000000 0.06358887
v 0.18086286 0.00000000 0.06070717
v 0.18078180 0.00000000 0.06034429
v 0.17972441 0.00000000 0.05894192
v 0.17796652 0.00000000 0.05856711
v 0.11231007 0.00000000 0.06107799
v 0.11233728 0.00000000 0.06070717
v 0.11291730 0.00000000 0.06272601
v 0.11449198 0.00000000 0.06359262
v 0.11622441 0.00000000 0.06321406
v 0.11728179 0.00000000 0.06181169
v 0.11736285 0.00000000 0.06144881
v 0.11739007 0.00000000 0.06107799
v 0.11678284 0.00000000 0.05942996
v 0.11520816 0.00000000 0.05856336
v 0.11347573 0.00000000 0.05894192
v 0.11241834 0.00000000 0.06034429
f 1 2 3
f 4 3 2
f 5 1 3
f 4 5 3
f 6 7 2
f 8 2 7
f 1 6 2
f 8 4 2
f 9 7 6
f 10 8 7
f 11 10 7
f 11 7 12
f 9 12 7
f 13 6 1
f 14 9 6
f 15 6 13
f 16 6 15
f 17 14 6
f 18 17 6
f 19 18 6
f 16 19 6
f 20 1 5
f 20 13 1
f 21 5 4
f 20 5 21
f 21 4 8
f 20 8 10
f 20 21 8
f 22 23 10
f 13 10 23
f 11 24 10
f 25 10 24
f 26 22 10
f 27 26 10
f 25 27 10
f 20 10 13
f 28 29 23
f 15 23 29
f 30 28 23
f 31 32 23
f 33 23 32
f 34 31 23
f 35 34 23
f 22 35 23
f 36 30 23
f 37 36 23
f 38 37 23
f 39 38 23
f 33 39 23
f 15 13 23
f 40 41 29
f 42 29 41
f 28 40 29
f 15 29 42
f 43 44 41
f 45 41 44
f 40 43 41
f 45 42 41
f 46 44 43
f 45 44 46
f 47 43 40
f 46 43 47
f 48 40 28
f 48 47 40
f 49 12 28
f 50 28 12
f 51 49 28
f 52 51 28
f 53 52 28
f 30 53 28
f 48 28 50
f 54 55 12
f 56 12 55
f 57 54 12
f 56 58 12
f 59 12 58
f 60 11 12
f 61 60 12
f 62 61 12
f 63 62 12
f 59 63 12
f 49 57 12
f 9 50 12
f 64 55 54
f 65 56 55
f 65 55 64
f 57 66 54
f 67 54 66
f 64 54 67
f 68 69 66
f 70 66 69
f 57 68 66
f 67 66 70
f 68 71 69
f 72 69 71
f 70 69 72
f 73 74 71
f 75 71 74
f 76 73 71
f 68 76 71
f 72 71 75
f 73 77 74
f 78 74 77
f 75 74 78
f 33 79 77
f 80 77 79
f 33 77 73
f 78 77 80
f 33 32 79
f 81 79 32
f 80 79 81
f 82 32 31
f 81 32 82
f 83 31 34
f 82 31 83
f 84 34 35
f 83 34 84
f 22 85 35
f 86 35 85
f 84 35 86
f 87 88 85
f 89 85 88
f 22 87 85
f 86 85 89
f 87 90 88
f 91 88 90
f 89 88 91
f 92 93 90
f 94 90 93
f 95 92 90
f 87 95 90
f 91 90 94
f 92 96 93
f 97 93 96
f 94 93 97
f 59 98 96
f 99 96 98
f 92 59 96
f 97 96 99
f 59 58 98
f 100 98 58
f 100 99 98
f 101 58 56
f 100 58 101
f 101 56 65
f 18 24 11
f 25 24 102
f 103 102 24
f 103 24 18
f 17 11 60
f 18 11 17
f 14 60 61
f 17 60 14
f 104 61 62
f 14 61 104
f 105 62 63
f 104 62 105
f 106 63 59
f 105 63 106
f 107 108 59
f 109 59 108
f 107 59 92
f 106 59 109
f 110 111 108
f 112 108 111
f 107 110 108
f 112 109 108
f 110 113 111
f 114 111 113
f 112 111 114
f 115 116 113
f 117 113 116
f 118 115 113
f 110 118 113
f 114 113 117
f 119 102 116
f 120 116 102
f 115 119 116
f 117 116 120
f 119 25 102
f 120 102 103
f 121 73 76
f 33 73 122
f 123 122 73
f 123 73 121
f 124 76 68
f 121 76 124
f 125 68 57
f 124 68 125
f 126 57 49
f 125 57 126
f 127 49 51
f 126 49 127
f 128 51 52
f 127 51 128
f 129 130 52
f 131 52 130
f 129 52 53
f 128 52 131
f 132 133 130
f 134 130 133
f 129 132 130
f 134 131 130
f 135 136 133
f 137 133 136
f 132 135 133
f 134 133 137
f 135 138 136
f 139 136 138
f 137 136 139
f 140 122 138
f 141 138 122
f 142 140 138
f 135 142 138
f 139 138 141
f 140 33 122
f 141 122 123
f 143 92 95
f 144 107 92
f 144 92 143
f 145 95 87
f 143 95 145
f 146 87 22
f 145 87 146
f 147 22 26
f 146 22 147
f 148 26 27
f 147 26 148
f 16 27 25
f 148 27 16
f 19 25 119
f 16 25 19
f 149 119 115
f 149 19 119
f 150 115 118
f 149 115 150
f 151 118 110
f 150 118 151
f 152 110 107
f 151 110 152
f 152 107 144
f 153 53 30
f 154 129 53
f 154 53 153
f 155 30 36
f 153 30 155
f 156 36 37
f 155 36 156
f 157 37 38
f 156 37 157
f 158 38 39
f 157 38 158
f 159 39 33
f 158 39 159
f 160 33 140
f 159 33 160
f 161 140 142
f 161 160 140
f 162 142 135
f 161 142 162
f 163 135 132
f 162 135 163
f 164 132 129
f 163 132 164
f 164 129 154
f 128 50 9
f 45 48 50
f 45 50 42
f 128 42 50
f 70 72 9
f 121 9 72
f 67 70 9
f 64 67 9
f 104 64 9
f 14 104 9
f 127 128 9
f 126 127 9
f 125 126 9
f 124 125 9
f 121 124 9
f 46 47 48
f 45 46 48
f 157 15 42
f 128 131 42
f 153 42 131
f 156 157 42
f 155 156 42
f 153 155 42
f 89 91 15
f 143 15 91
f 86 89 15
f 84 86 15
f 157 84 15
f 148 16 15
f 147 148 15
f 146 147 15
f 145 146 15
f 143 145 15
f 109 97 99
f 109 99 100
f 143 94 97
f 143 97 109
f 143 91 94
f 157 83 84
f 158 82 83
f 157 158 83
f 158 81 82
f 160 80 81
f 159 160 81
f 158 159 81
f 160 78 80
f 121 75 78
f 160 121 78
f 121 72 75
f 104 65 64
f 105 101 65
f 104 105 65
f 105 100 101
f 106 109 100
f 105 106 100
f 143 109 112
f 149 103 18
f 149 18 19
f 150 120 103
f 149 150 103
f 151 117 120
f 150 151 120
f 152 114 117
f 151 152 117
f 144 112 114
f 152 144 114
f 144 143 112
f 153 131 134
f 161 123 121
f 161 121 160
f 162 141 123
f 161 162 123
f 163 139 141
f 162 163 141
f 164 137 139
f 163 164 139
f 154 134 137
f 164 154 137
f 154 153 134
