# https://github.com/mikedh/trimesh
mtllib mtl_express_rack_mesh
usemtl mtl_express_rack_mesh
v -20.78784943 -38.00000000 0.00000000
v -0.86352998 -36.42430878 0.00000000
v -19.21216011 -36.42430878 0.00000000
v -19.21216011 -36.42430878 -1.57569003
v -19.21216011 0.00000000 0.00000000
v -19.21216011 0.00000000 -1.57569003
v 0.71215999 0.00000000 0.00000000
v -0.86352998 0.00000000 0.00000000
v -0.86352998 -36.42430878 -1.57569003
v 0.71215999 -36.42430878 0.00000000
v 0.71215999 36.42430878 0.00000000
v -0.86352998 36.42430878 0.00000000
v -0.86352998 0.00000000 -1.57569003
v 20.78784943 38.00000000 0.00000000
v -19.21216011 36.42430878 0.00000000
v -0.86352998 36.42430878 -1.57569003
v -20.78784943 0.00000000 0.00000000
v -19.21216011 36.42430878 -1.57569003
v -20.78784943 38.00000000 0.00000000
v -19.21216011 38.00000000 -1.57569003
v -20.78784943 0.00000000 -1.57569003
v -20.78784943 36.42430878 -26.05051041
v -20.78784943 38.00000000 -27.62619972
v -20.78784943 36.42430878 -1.57569003
v 19.21216011 0.00000000 0.00000000
v 20.78784943 0.00000000 0.00000000
v 20.78784943 36.42430878 -1.57569003
v 19.21216011 36.42430878 0.00000000
v 20.78784943 38.00000000 -27.62619972
v 19.21216011 38.00000000 -26.05051041
v 19.21216011 38.00000000 -1.57569003
v 19.21216011 -36.42430878 0.00000000
v 20.78784943 -38.00000000 0.00000000
v 20.78784943 0.00000000 -1.57569003
v 19.21216011 -38.00000000 -1.57569003
v 20.78784943 -38.00000000 -27.62619972
v 20.78784943 -36.42430878 -26.05051041
v 20.78784943 -36.42430878 -1.57569003
v -20.78784943 -36.42430878 -1.57569003
v -20.78784943 -38.00000000 -27.62619972
v -19.21216011 -38.00000000 -26.05051041
v -19.21216011 -38.00000000 -1.57569003
v 19.21216011 36.42430878 -1.57569003
v 19.21216011 0.00000000 -1.57569003
v 0.71215999 36.42430878 -1.57569003
v 0.71215999 0.00000000 -1.57569003
v 0.71215999 -36.42430878 -1.57569003
v 19.21216011 -36.42430878 -1.57569003
v -19.21216011 0.00000000 -27.62619972
v -20.78784943 0.00000000 -27.62619972
v 19.21216011 36.42430878 -27.62619972
v -19.21216011 36.42430878 -27.62619972
v -19.21216011 38.00000000 -26.05051041
v -19.21216011 -36.42430878 -27.62619972
v -20.78784943 0.00000000 -26.05051041
v -20.78784943 -36.42430878 -26.05051041
v 19.21216011 0.00000000 -27.62619972
v 20.78784943 0.00000000 -27.62619972
v 19.21216011 -36.42430878 -27.62619972
v 19.21216011 -38.00000000 -26.05051041
v 20.78784943 0.00000000 -26.05051041
v 20.78784943 36.42430878 -26.05051041
v -19.21216011 36.42430878 -26.05051041
v -19.21216011 0.00000000 -26.05051041
v 19.21216011 36.42430878 -26.05051041
v 19.21216011 0.00000000 -26.05051041
v 19.21216011 -36.42430878 -26.05051041
v -19.21216011 -36.42430878 -26.05051041
f 1 2 3
f 4 3 2
f 1 3 5
f 6 5 3
f 4 6 3
f 7 8 2
f 9 2 8
f 10 2 1
f 10 7 2
f 9 4 2
f 11 12 8
f 13 8 12
f 7 11 8
f 13 9 8
f 14 15 12
f 16 12 15
f 11 14 12
f 13 12 16
f 17 5 15
f 18 15 5
f 14 19 15
f 17 15 19
f 16 15 18
f 17 1 5
f 6 18 5
f 20 19 14
f 21 17 19
f 22 19 23
f 20 23 19
f 22 24 19
f 21 19 24
f 25 26 14
f 27 14 26
f 11 28 14
f 25 14 28
f 27 29 14
f 30 14 29
f 31 20 14
f 30 31 14
f 32 33 26
f 34 26 33
f 25 32 26
f 34 27 26
f 32 1 33
f 35 33 1
f 35 36 33
f 37 33 36
f 38 34 33
f 37 38 33
f 39 1 17
f 32 10 1
f 39 40 1
f 41 1 40
f 42 1 41
f 42 35 1
f 21 39 17
f 43 28 11
f 44 25 28
f 43 44 28
f 45 11 7
f 45 43 11
f 46 7 10
f 46 45 7
f 47 10 32
f 46 10 47
f 48 32 25
f 47 32 48
f 44 48 25
f 49 50 23
f 22 23 50
f 51 23 29
f 30 29 23
f 51 52 23
f 49 23 52
f 20 53 23
f 30 23 53
f 54 40 50
f 55 50 40
f 49 54 50
f 55 22 50
f 54 36 40
f 41 40 36
f 56 55 40
f 39 56 40
f 57 58 36
f 37 36 58
f 59 57 36
f 54 59 36
f 60 41 36
f 35 60 36
f 51 29 58
f 61 58 29
f 57 51 58
f 61 37 58
f 62 29 27
f 62 61 29
f 63 52 51
f 64 49 52
f 64 52 63
f 65 51 57
f 65 63 51
f 66 57 59
f 66 65 57
f 67 59 54
f 66 59 67
f 68 54 49
f 67 54 68
f 64 68 49
f 63 24 22
f 6 21 24
f 6 24 18
f 63 18 24
f 63 22 55
f 64 55 56
f 64 63 55
f 4 56 39
f 68 56 4
f 64 56 68
f 4 39 21
f 4 21 6
f 67 41 60
f 68 42 41
f 67 68 41
f 48 60 35
f 67 60 48
f 4 35 42
f 9 35 4
f 47 48 35
f 9 47 35
f 68 4 42
f 43 27 34
f 43 62 27
f 44 34 38
f 43 34 44
f 67 38 37
f 67 48 38
f 44 38 48
f 67 37 61
f 66 61 62
f 66 67 61
f 65 62 43
f 66 62 65
f 18 53 20
f 63 30 53
f 63 53 18
f 43 20 31
f 16 18 20
f 45 20 43
f 16 20 45
f 65 31 30
f 65 43 31
f 65 30 63
f 13 47 9
f 13 46 47
f 46 16 45
f 13 16 46

