# https://github.com/mikedh/trimesh
mtllib mtl_lift_mid_700mm

o lift_des_lift_mid-mesh
usemtl material_lift_mid_700mm_0
v 0.05326497 -0.06449997 -0.24150001
v 0.01791399 -0.07299995 -0.24150001
v 0.01508599 -0.07099997 -0.24150001
v 0.01791399 -0.07299995 0.24150001
v 0.01508599 -0.07099997 -0.24150001
v 0.01791399 -0.07299995 -0.24150001
v -0.01508599 -0.07099997 -0.24150001
v 0.01508599 -0.07099997 0.24150001
v -0.01508599 -0.07099997 -0.24150001
v 0.01508599 -0.07099997 -0.24150001
v 0.01508599 -0.07099997 0.24150001
v 0.05744397 -0.07299995 -0.24150001
v 0.05744397 -0.07299995 0.24150001
v 0.01791399 -0.07299995 -0.24150001
v 0.05744397 -0.07299995 -0.24150001
v 0.01791399 -0.07299995 0.24150001
v 0.06449997 -0.05326497 -0.24150001
v 0.07299995 -0.05744397 -0.24150001
v 0.07299995 -0.05744397 0.24150001
v 0.05744397 -0.07299995 -0.24150001
v 0.07299995 -0.05744397 -0.24150001
v 0.05744397 -0.07299995 0.24150001
v 0.07299995 -0.01791399 -0.24150001
v 0.07299995 -0.01791399 0.24150001
v 0.07299995 -0.05744397 -0.24150001
v 0.07299995 -0.01791399 -0.24150001
v 0.07299995 -0.05744397 0.24150001
v 0.07099997 -0.01508599 -0.24150001
v 0.07099997 -0.01508599 0.24150001
v 0.07299995 -0.01791399 -0.24150001
v 0.07099997 -0.01508599 -0.24150001
v 0.07299995 -0.01791399 0.24150001
v 0.07099997 0.01508599 -0.24150001
v 0.07099997 0.01508599 0.24150001
v 0.07099997 -0.01508599 -0.24150001
v 0.07099997 0.01508599 -0.24150001
v 0.07099997 -0.01508599 0.24150001
v 0.07299995 0.05744397 -0.24150001
v 0.07299995 0.01791399 -0.24150001
v 0.07299995 0.01791399 0.24150001
v 0.07099997 0.01508599 -0.24150001
v 0.07299995 0.01791399 -0.24150001
v 0.07099997 0.01508599 0.24150001
v 0.07299995 0.05744397 0.24150001
v 0.07299995 0.01791399 -0.24150001
v 0.07299995 0.05744397 -0.24150001
v 0.07299995 0.01791399 0.24150001
v 0.06449997 0.05326497 -0.24150001
v 0.05744397 0.07299995 -0.24150001
v 0.05744397 0.07299995 0.24150001
v 0.07299995 0.05744397 -0.24150001
v 0.05744397 0.07299995 -0.24150001
v 0.07299995 0.05744397 0.24150001
v 0.05326497 0.06449997 -0.24150001
v 0.01791399 0.07299995 -0.24150001
v 0.01791399 0.07299995 0.24150001
v 0.05744397 0.07299995 -0.24150001
v 0.01791399 0.07299995 -0.24150001
v 0.05744397 0.07299995 0.24150001
v 0.01508599 0.07099997 -0.24150001
v 0.01508599 0.07099997 0.24150001
v 0.01791399 0.07299995 -0.24150001
v 0.01508599 0.07099997 -0.24150001
v 0.01791399 0.07299995 0.24150001
v -0.05326497 0.06449997 -0.24150001
v -0.01508599 0.07099997 -0.24150001
v -0.01508599 0.07099997 0.24150001
v 0.01508599 0.07099997 -0.24150001
v -0.01508599 0.07099997 -0.24150001
v 0.01508599 0.07099997 0.24150001
v -0.01791399 0.07299995 -0.24150001
v -0.01791399 0.07299995 0.24150001
v -0.01508599 0.07099997 -0.24150001
v -0.01791399 0.07299995 -0.24150001
v -0.01508599 0.07099997 0.24150001
v -0.05744397 0.07299995 -0.24150001
v -0.05744397 0.07299995 0.24150001
v -0.01791399 0.07299995 -0.24150001
v -0.05744397 0.07299995 -0.24150001
v -0.01791399 0.07299995 0.24150001
v -0.06449997 0.05326497 -0.24150001
v -0.07299995 0.05744397 -0.24150001
v -0.07299995 0.05744397 0.24150001
v -0.05744397 0.07299995 -0.24150001
v -0.07299995 0.05744397 -0.24150001
v -0.05744397 0.07299995 0.24150001
v -0.07299995 0.01791399 -0.24150001
v -0.07299995 0.01791399 0.24150001
v -0.07299995 0.05744397 -0.24150001
v -0.07299995 0.01791399 -0.24150001
v -0.07299995 0.05744397 0.24150001
v -0.07099997 0.01508599 -0.24150001
v -0.07099997 0.01508599 0.24150001
v -0.07299995 0.01791399 -0.24150001
v -0.07099997 0.01508599 -0.24150001
v -0.07299995 0.01791399 0.24150001
v -0.07099997 -0.01508599 -0.24150001
v -0.07099997 -0.01508599 0.24150001
v -0.07099997 0.01508599 -0.24150001
v -0.07099997 -0.01508599 -0.24150001
v -0.07099997 0.01508599 0.24150001
v -0.07299995 -0.05744397 -0.24150001
v -0.07299995 -0.01791399 -0.24150001
v -0.07299995 -0.01791399 0.24150001
v -0.07099997 -0.01508599 -0.24150001
v -0.07299995 -0.01791399 -0.24150001
v -0.07099997 -0.01508599 0.24150001
v -0.07299995 -0.05744397 0.24150001
v -0.07299995 -0.01791399 -0.24150001
v -0.07299995 -0.05744397 -0.24150001
v -0.07299995 -0.01791399 0.24150001
v -0.06449997 -0.05326497 -0.24150001
v -0.05744397 -0.07299995 -0.24150001
v -0.05744397 -0.07299995 0.24150001
v -0.07299995 -0.05744397 -0.24150001
v -0.05744397 -0.07299995 -0.24150001
v -0.07299995 -0.05744397 0.24150001
v -0.05326497 -0.06449997 -0.24150001
v -0.01791399 -0.07299995 -0.24150001
v -0.01791399 -0.07299995 0.24150001
v -0.05744397 -0.07299995 -0.24150001
v -0.01791399 -0.07299995 -0.24150001
v -0.05744397 -0.07299995 0.24150001
v -0.01508599 -0.07099997 0.24150001
v -0.01791399 -0.07299995 -0.24150001
v -0.01508599 -0.07099997 -0.24150001
v -0.01791399 -0.07299995 0.24150001
v -0.01508599 -0.07099997 0.24150001
v -0.05326497 0.06449997 0.24150001
v -0.06449997 0.05326497 -0.24150001
v -0.05326497 0.06449997 -0.24150001
v -0.06449997 0.05326497 0.24150001
v -0.06449997 -0.05326497 -0.24150001
v -0.06449997 0.05326497 -0.24150001
v -0.06449997 0.05326497 0.24150001
v 0.05326497 0.06449997 0.24150001
v -0.05326497 0.06449997 -0.24150001
v 0.05326497 0.06449997 -0.24150001
v -0.05326497 0.06449997 0.24150001
v 0.06449997 0.05326497 0.24150001
v 0.05326497 0.06449997 -0.24150001
v 0.06449997 0.05326497 -0.24150001
v 0.05326497 0.06449997 0.24150001
v 0.06449997 -0.05326497 0.24150001
v 0.06449997 0.05326497 -0.24150001
v 0.06449997 -0.05326497 -0.24150001
v 0.06449997 0.05326497 0.24150001
v 0.05326497 -0.06449997 0.24150001
v 0.06449997 -0.05326497 -0.24150001
v 0.05326497 -0.06449997 -0.24150001
v 0.06449997 -0.05326497 0.24150001
v -0.05326497 -0.06449997 0.24150001
v 0.05326497 -0.06449997 -0.24150001
v -0.05326497 -0.06449997 -0.24150001
v 0.05326497 -0.06449997 0.24150001
v -0.06449997 -0.05326497 0.24150001
v -0.05326497 -0.06449997 -0.24150001
v -0.06449997 -0.05326497 -0.24150001
v -0.05326497 -0.06449997 0.24150001
v -0.06449997 -0.05326497 0.24150001
v -0.05326497 -0.06449997 0.24150001
v -0.01508599 -0.07099997 0.24150001
v 0.01508599 -0.07099997 0.24150001
v -0.01791399 -0.07299995 0.24150001
v 0.05326497 -0.06449997 0.24150001
v 0.01791399 -0.07299995 0.24150001
v -0.05744397 -0.07299995 0.24150001
v -0.06449997 -0.05326497 0.24150001
v -0.07299995 -0.05744397 0.24150001
v -0.07299995 -0.01791399 0.24150001
v -0.07099997 -0.01508599 0.24150001
v -0.07099997 0.01508599 0.24150001
v -0.07299995 0.05744397 0.24150001
v -0.07299995 0.01791399 0.24150001
v -0.06449997 0.05326497 0.24150001
v -0.05744397 0.07299995 0.24150001
v -0.05326497 0.06449997 0.24150001
v -0.01791399 0.07299995 0.24150001
v -0.01508599 0.07099997 0.24150001
v 0.05326497 0.06449997 0.24150001
v 0.01508599 0.07099997 0.24150001
v 0.01791399 0.07299995 0.24150001
v 0.05744397 0.07299995 0.24150001
v 0.06449997 0.05326497 0.24150001
v 0.07299995 0.05744397 0.24150001
v 0.07299995 0.01791399 0.24150001
v 0.07099997 0.01508599 0.24150001
v 0.07099997 -0.01508599 0.24150001
v 0.07299995 -0.05744397 0.24150001
v 0.07299995 -0.01791399 0.24150001
v 0.06449997 -0.05326497 0.24150001
v 0.05744397 -0.07299995 0.24150001
vt 0.34985599 0.01621598
vt 0.27318400 0.00382096
vt 0.26785001 0.00000000
vt 0.27318400 0.99617898
vt 0.26785001 0.00000000
vt 0.27318400 0.00382096
vt 0.19644991 0.00000000
vt 0.26785001 1.00000000
vt 0.19644991 0.00000000
vt 0.26785001 0.00000000
vt 0.26785001 1.00000000
vt 0.34583500 0.02941298
vt 0.34583500 0.97058702
vt 0.27318400 0.00382096
vt 0.34583500 0.02941298
vt 0.27318400 0.99617898
vt 0.38229400 0.01621598
vt 0.38631499 0.02941298
vt 0.38631499 0.97058702
vt 0.34583500 0.02941298
vt 0.38631499 0.02941298
vt 0.34583500 0.97058702
vt 0.45896599 0.00382096
vt 0.45896599 0.99617898
vt 0.38631499 0.02941298
vt 0.45896599 0.00382096
vt 0.38631499 0.97058702
vt 0.46430001 0.00000000
vt 0.46430001 1.00000000
vt 0.45896599 0.00382096
vt 0.46430001 0.00000000
vt 0.45896599 0.99617898
vt 0.53570002 0.00000000
vt 0.53570002 1.00000000
vt 0.46430001 0.00000000
vt 0.53570002 0.00000000
vt 0.46430001 1.00000000
vt 0.61368501 0.02941298
vt 0.54103398 0.00382096
vt 0.54103398 0.99617898
vt 0.53570002 0.00000000
vt 0.54103398 0.00382096
vt 0.53570002 1.00000000
vt 0.61368501 0.97058702
vt 0.54103398 0.00382096
vt 0.61368501 0.02941298
vt 0.54103398 0.99617898
vt 0.61770600 0.01621598
vt 0.65416503 0.02941298
vt 0.65416503 0.97058702
vt 0.61368501 0.02941298
vt 0.65416503 0.02941298
vt 0.61368501 0.97058702
vt 0.65014398 0.01621598
vt 0.72681600 0.00382096
vt 0.72681600 0.99617898
vt 0.65416503 0.02941298
vt 0.72681600 0.00382096
vt 0.65416503 0.97058702
vt 0.73215002 0.00000000
vt 0.73215002 1.00000000
vt 0.72681600 0.00382096
vt 0.73215002 0.00000000
vt 0.72681600 0.99617898
vt 0.88555598 0.01621598
vt 0.80355000 0.00000000
vt 0.80355000 1.00000000
vt 0.73215002 0.00000000
vt 0.80355000 0.00000000
vt 0.73215002 1.00000000
vt 0.80888498 0.00382096
vt 0.80888498 0.99617898
vt 0.80355000 0.00000000
vt 0.80888498 0.00382096
vt 0.80355000 1.00000000
vt 0.88153499 0.02941298
vt 0.88153499 0.97058702
vt 0.80888498 0.00382096
vt 0.88153499 0.02941298
vt 0.80888498 0.99617898
vt 0.91799402 0.01621598
vt 0.92201501 0.02941298
vt 0.92201501 0.97058702
vt 0.88153499 0.02941298
vt 0.92201501 0.02941298
vt 0.88153499 0.97058702
vt 0.99466598 0.00382096
vt 0.99466598 0.99617898
vt 0.92201501 0.02941298
vt 0.99466598 0.00382096
vt 0.92201501 0.97058702
vt 1.00000000 0.00000000
vt 1.00000000 1.00000000
vt 0.99466598 0.00382096
vt 1.00000000 0.00000000
vt 0.99466598 0.99617898
vt 0.00000000 0.00000000
vt 0.00000000 1.00000000
vt 1.00000000 0.00000000
vt 0.00000000 0.00000000
vt 1.00000000 1.00000000
vt 0.07798498 0.02941298
vt 0.00533396 0.00382096
vt 0.00533396 0.99617898
vt 0.00000000 0.00000000
vt 0.00533396 0.00382096
vt 0.00000000 1.00000000
vt 0.07798498 0.97058702
vt 0.00533396 0.00382096
vt 0.07798498 0.02941298
vt 0.00533396 0.99617898
vt 0.08200597 0.01621598
vt 0.11846500 0.02941298
vt 0.11846500 0.97058702
vt 0.07798498 0.02941298
vt 0.11846500 0.02941298
vt 0.07798498 0.97058702
vt 0.11444400 0.01621598
vt 0.19111501 0.00382096
vt 0.19111501 0.99617898
vt 0.11846500 0.02941298
vt 0.19111501 0.00382096
vt 0.11846500 0.97058702
vt 0.19644991 1.00000000
vt 0.19111501 0.00382096
vt 0.19644991 0.00000000
vt 0.19111501 0.99617898
vt 0.19644991 1.00000000
vt 0.88555598 0.98378402
vt 0.91799402 0.01621598
vt 0.88555598 0.01621598
vt 0.91799402 0.98378402
vt 0.08200597 0.01621598
vt 0.91799402 0.01621598
vt 0.91799402 0.98378402
vt 0.65014398 0.98378402
vt 0.88555598 0.01621598
vt 0.65014398 0.01621598
vt 0.88555598 0.98378402
vt 0.61770600 0.98378402
vt 0.65014398 0.01621598
vt 0.61770600 0.01621598
vt 0.65014398 0.98378402
vt 0.38229400 0.98378402
vt 0.61770600 0.01621598
vt 0.38229400 0.01621598
vt 0.61770600 0.98378402
vt 0.34985599 0.98378402
vt 0.38229400 0.01621598
vt 0.34985599 0.01621598
vt 0.38229400 0.98378402
vt 0.11444400 0.98378402
vt 0.34985599 0.01621598
vt 0.11444400 0.01621598
vt 0.34985599 0.98378402
vt 0.08200597 0.98378402
vt 0.11444400 0.01621598
vt 0.08200597 0.01621598
vt 0.11444400 0.98378402
vt 0.08200597 0.98378402
vt 0.11444400 0.98378402
vt 0.19644991 1.00000000
vt 0.26785001 1.00000000
vt 0.19111501 0.99617898
vt 0.34985599 0.98378402
vt 0.27318400 0.99617898
vt 0.11846500 0.97058702
vt 0.08200597 0.98378402
vt 0.07798498 0.97058702
vt 0.00533396 0.99617898
vt 0.00000000 1.00000000
vt 1.00000000 1.00000000
vt 0.92201501 0.97058702
vt 0.99466598 0.99617898
vt 0.91799402 0.98378402
vt 0.88153499 0.97058702
vt 0.88555598 0.98378402
vt 0.80888498 0.99617898
vt 0.80355000 1.00000000
vt 0.65014398 0.98378402
vt 0.73215002 1.00000000
vt 0.72681600 0.99617898
vt 0.65416503 0.97058702
vt 0.61770600 0.98378402
vt 0.61368501 0.97058702
vt 0.54103398 0.99617898
vt 0.53570002 1.00000000
vt 0.46430001 1.00000000
vt 0.38631499 0.97058702
vt 0.45896599 0.99617898
vt 0.38229400 0.98378402
vt 0.34583500 0.97058702
f 1/1 2/2 3/3
f 4/4 5/5 6/6
f 1/1 3/3 7/7
f 8/8 9/9 10/10
f 4/4 11/11 5/5
f 1/1 12/12 2/2
f 13/13 14/14 15/15
f 16/16 14/14 13/13
f 17/17 18/18 12/12
f 19/19 20/20 21/21
f 1/1 17/17 12/12
f 22/22 20/20 19/19
f 17/17 23/23 18/18
f 24/24 25/25 26/26
f 27/27 25/25 24/24
f 17/17 28/28 23/23
f 29/29 30/30 31/31
f 32/32 30/30 29/29
f 17/17 33/33 28/28
f 34/34 35/35 36/36
f 37/37 35/35 34/34
f 38/38 39/39 33/33
f 40/40 41/41 42/42
f 17/17 38/38 33/33
f 43/43 41/41 40/40
f 44/44 45/45 46/46
f 47/47 45/45 44/44
f 48/48 49/49 38/38
f 50/50 51/51 52/52
f 17/17 48/48 38/38
f 53/53 51/51 50/50
f 54/54 55/55 49/49
f 56/56 57/57 58/58
f 48/48 54/54 49/49
f 59/59 57/57 56/56
f 54/54 60/60 55/55
f 61/61 62/62 63/63
f 64/64 62/62 61/61
f 65/65 66/66 60/60
f 67/67 68/68 69/69
f 54/54 65/65 60/60
f 70/70 68/68 67/67
f 65/65 71/71 66/66
f 72/72 73/73 74/74
f 75/75 73/73 72/72
f 65/65 76/76 71/71
f 77/77 78/78 79/79
f 80/80 78/78 77/77
f 81/81 82/82 76/76
f 83/83 84/84 85/85
f 65/65 81/81 76/76
f 86/86 84/84 83/83
f 81/81 87/87 82/82
f 88/88 89/89 90/90
f 91/91 89/89 88/88
f 81/81 92/92 87/87
f 93/93 94/94 95/95
f 96/96 94/94 93/93
f 81/81 97/97 92/92
f 98/98 99/99 100/100
f 101/101 99/99 98/98
f 102/102 103/103 97/97
f 104/104 105/105 106/106
f 81/81 102/102 97/97
f 107/107 105/105 104/104
f 108/108 109/109 110/110
f 111/111 109/109 108/108
f 112/112 113/113 102/102
f 114/114 115/115 116/116
f 112/112 102/102 81/81
f 117/117 115/115 114/114
f 118/118 119/119 113/113
f 120/120 121/121 122/122
f 112/112 118/118 113/113
f 123/123 121/121 120/120
f 118/118 7/7 119/119
f 124/124 125/125 126/126
f 127/127 125/125 124/124
f 118/118 1/1 7/7
f 8/8 128/128 9/9
f 129/129 130/130 131/131
f 132/132 133/133 134/134
f 129/129 135/135 130/130
f 136/136 137/137 138/138
f 139/139 137/137 136/136
f 140/140 141/141 142/142
f 143/143 141/141 140/140
f 144/144 145/145 146/146
f 147/147 145/145 144/144
f 148/148 149/149 150/150
f 151/151 149/149 148/148
f 152/152 153/153 154/154
f 155/155 153/153 152/152
f 156/156 157/157 158/158
f 159/159 157/157 156/156
f 160/160 133/133 132/132
f 161/161 162/162 163/163
f 161/161 164/164 162/162
f 165/165 163/163 166/166
f 165/165 161/161 163/163
f 161/161 167/167 164/164
f 168/168 169/169 167/167
f 161/161 168/168 167/167
f 168/168 170/170 169/169
f 168/168 171/171 170/170
f 168/168 172/172 171/171
f 173/173 174/174 172/172
f 168/168 173/173 172/172
f 175/175 176/176 173/173
f 168/168 175/175 173/173
f 177/177 178/178 176/176
f 177/177 176/176 175/175
f 177/177 179/179 178/178
f 180/180 181/181 179/179
f 177/177 180/180 179/179
f 180/180 182/182 181/181
f 180/180 183/183 182/182
f 184/184 185/185 183/183
f 180/180 184/184 183/183
f 184/184 186/186 185/185
f 184/184 187/187 186/186
f 184/184 188/188 187/187
f 189/189 190/190 188/188
f 184/184 189/189 188/188
f 191/191 192/192 189/189
f 184/184 191/191 189/189
f 165/165 166/166 192/192
f 191/191 165/165 192/192
