# https://github.com/mikedh/trimesh
mtllib mtl_paddle_latch_handle
usemtl mtl_paddle_latch_handle
v -0.00087630 0.00151780 0.00121920
v -0.00087630 0.00151780 0.00000000
v 0.00000000 0.00175260 0.00000000
v 0.00327660 0.00292100 0.00000000
v 0.00000000 0.00175260 0.00121920
v 0.00087630 0.00151780 0.00000000
v -0.00151780 0.00087630 0.00121920
v -0.00151780 0.00087630 0.00000000
v -0.02485898 -0.01095502 0.00000000
v -0.03812540 0.00231140 0.00000000
v -0.00175260 0.00000000 0.00121920
v -0.00175260 -0.00000000 0.00000000
v -0.00668311 -0.01095502 0.00000000
v -0.00151780 -0.00087630 0.00121920
v -0.00151780 -0.00087630 0.00000000
v -0.00087630 -0.00151780 0.00121920
v -0.00087630 -0.00151780 0.00000000
v 0.00000000 -0.00175260 0.00121920
v 0.00000000 -0.00175260 0.00000000
v 0.00087630 -0.00151780 0.00121920
v 0.00087630 -0.00151780 0.00000000
v 0.00449580 -0.00930028 0.00121920
v -0.00668311 -0.01095502 0.00121920
v -0.03812540 0.00292100 0.00121920
v 0.00087630 0.00151780 0.00121920
v 0.00327660 0.00292100 0.00121920
v 0.00151780 0.00087630 0.00121920
v 0.00151780 0.00087630 0.00000000
v 0.00175260 -0.00000000 0.00000000
v 0.00175260 -0.00000000 0.00121920
v 0.00151780 -0.00087630 0.00000000
v 0.00151780 -0.00087630 0.00121920
v 0.00413870 0.00256390 0.00000000
v 0.00440299 0.00216837 0.00000000
v 0.00374317 0.00282819 0.00000000
v 0.00449580 0.00170180 0.00000000
v 0.00449580 -0.00930028 0.00000000
v 0.00541020 0.00170180 0.00024501
v 0.00480496 -0.00925451 0.00002632
v 0.00512435 0.00276860 0.00024501
v 0.00434340 0.00354955 0.00024501
v -0.03812540 0.00292100 0.00000000
v -0.03812540 0.00383540 0.00024501
v 0.00327660 0.00339492 0.00006247
v -0.03812540 0.00353060 0.00182880
v -0.03812540 0.00335205 0.00139775
v -0.03812540 0.00231140 0.00121920
v -0.02485898 -0.01095502 0.00121920
v 0.00623868 -0.00921004 0.00127485
v 0.00608007 0.00170180 0.00091523
v 0.00632460 0.00170180 0.00182880
v 0.00570447 0.00310353 0.00091523
v 0.00632460 -0.00921004 0.00182880
v 0.00632460 -0.00048514 0.01147020
v 0.00621982 0.00249412 0.00182880
v 0.00632460 0.00170180 0.04407320
v 0.00598901 -0.00921004 0.00077294
v 0.00578959 0.00170180 0.00053627
v 0.00559903 -0.00921004 0.00037024
v 0.00510540 -0.00921004 0.00010459
v 0.00492935 -0.00923610 0.00140026
v 0.00473151 -0.00926538 0.00126662
v 0.00510540 -0.00921004 0.00182880
v 0.00632460 -0.00921004 0.01147020
v 0.00327660 0.00383540 0.00024501
v 0.00467833 0.00412967 0.00091523
v 0.00327660 0.00450526 0.00091523
v -0.03812540 0.00450479 0.00091440
v 0.00479564 0.00434430 0.00182880
v 0.00327660 0.00468716 0.00135425
v -0.03812540 0.00474980 0.00182880
v 0.00591328 0.00323092 0.00182880
v 0.00327660 0.00474980 0.00182880
v 0.00591910 0.00322084 0.04407320
v 0.00480572 0.00433848 0.04407320
v 0.00406892 0.00464502 0.04407320
v -0.03812540 0.00474980 0.04407320
v 0.00327660 0.00474980 0.04407320
v -0.03976113 0.00353060 0.00182880
v -0.03866275 0.00466301 0.00182880
v 0.00327660 0.00353060 0.00182880
v -0.03845511 0.00340225 0.00184599
v -0.03845503 0.00340233 0.04405603
v 0.00327660 0.00353060 0.04407320
v -0.03812540 0.00353060 0.04407320
v 0.00327660 0.00335205 0.00139775
v -0.03914545 0.00441147 0.00182880
v -0.03952443 0.00402075 0.00182880
v -0.03952443 0.00402076 0.04407320
v -0.03982604 0.00318872 0.00196871
v -0.03976113 0.00353060 0.04407320
v -0.03866275 0.00466301 0.04407320
v -0.03914546 0.00441147 0.04407320
v -0.03983185 0.00308109 0.00212734
v -0.03861308 0.00304292 0.00231648
v -0.03983228 0.00304292 0.00231648
v -0.03861308 0.00304292 0.04358552
v -0.03983185 0.00308109 0.04377466
v -0.03983228 0.00304292 0.04358552
v -0.03859612 0.00317040 0.00198772
v -0.03859612 0.00317040 0.04391429
v -0.03982604 0.00318872 0.04393330
v -0.03812540 0.00450479 0.04498760
v 0.00467809 0.00412926 0.04498760
v 0.00327660 0.00450479 0.04498760
v 0.00626196 0.00170180 0.04454775
v 0.00632460 -0.00048514 0.03443180
v 0.00632460 -0.00048514 0.02861520
v 0.00632460 -0.00048514 0.01728680
v 0.00632460 -0.00921004 0.03443180
v 0.00632460 -0.00921004 0.04407320
v 0.00570406 0.00310329 0.04498760
v 0.00607959 0.00170180 0.04498760
v 0.00632460 -0.00921004 0.02861520
v 0.00632460 -0.00921004 0.01728680
v 0.00510540 -0.00921004 0.01728680
v 0.00510540 -0.00048514 0.01728680
v 0.00510540 -0.00921004 0.02861520
v 0.00510540 -0.00048514 0.02861520
v 0.00510540 -0.00048514 0.03443180
v 0.00510540 -0.00921004 0.03443180
v 0.00510540 -0.00921004 0.04407320
v 0.00623868 -0.00921004 0.04462715
v 0.00510540 -0.00921004 0.01147020
v 0.00510540 -0.00048514 0.01147020
v 0.00510540 0.00170180 0.00182880
v 0.00492685 0.00170180 0.00139775
v 0.00510540 0.00170180 0.04407320
v 0.00486039 0.00261620 0.04407320
v 0.00486039 0.00261620 0.00182880
v 0.00492744 -0.00923638 0.04450367
v 0.00480123 0.00233332 0.04450425
v 0.00492685 0.00170180 0.04450425
v 0.00480496 -0.00925451 0.04587568
v 0.00510540 -0.00921004 0.04579741
v 0.00559903 -0.00921004 0.04553176
v 0.00598901 -0.00921004 0.04512906
v 0.00449580 0.00170180 0.00121920
v 0.00440299 0.00216837 0.00121920
v 0.00374317 0.00282819 0.00121920
v 0.00413870 0.00256390 0.00121920
v 0.00480123 0.00233332 0.00139775
v 0.00390812 0.00322643 0.00139775
v 0.00444350 0.00286870 0.00139775
v 0.00419100 0.00328559 0.00182880
v 0.00419100 0.00328559 0.04407320
v 0.00327660 0.00335205 0.04450425
v -0.03812540 0.00335205 0.04450425
v -0.03812540 0.00383540 0.04565699
v 0.00444350 0.00286870 0.04450425
v 0.00390812 0.00322643 0.04450425
v 0.00327660 0.00292100 0.04468280
v 0.00374317 0.00282819 0.04468280
v 0.00413870 0.00256390 0.04468280
v 0.00440299 0.00216837 0.04468280
v 0.00449580 0.00170180 0.04468280
v 0.00449580 -0.00930028 0.04468280
v 0.00472983 -0.00926563 0.04463609
v 0.00151780 -0.00087630 0.04468280
v -0.03812540 0.00292100 0.04468280
v -0.03812540 0.00231140 0.04468280
v -0.00087630 0.00151780 0.04468280
v 0.00000000 0.00175260 0.04468280
v 0.00087630 0.00151780 0.04468280
v 0.00151780 0.00087630 0.04468280
v 0.00175260 0.00000000 0.04468280
v -0.00668311 -0.01095502 0.04468280
v -0.03812540 0.00292100 0.04590200
v 0.00327660 0.00383457 0.04565747
v 0.00327660 0.00421479 0.04536572
v -0.03812540 0.00231140 0.04590200
v -0.02485898 -0.01095502 0.04590200
v -0.00668311 -0.01095502 0.04590200
v -0.00175260 0.00000000 0.04590200
v 0.00327660 0.00292100 0.04590200
v 0.00000000 0.00175260 0.04590200
v -0.00087630 0.00151780 0.04590200
v -0.00151780 0.00087630 0.04590200
v -0.02485898 -0.01095502 0.04468280
v 0.00449580 -0.00930028 0.04590200
v -0.00151780 0.00087630 0.04468280
v -0.00087630 -0.00151780 0.04468280
v 0.00000000 -0.00175260 0.04468280
v 0.00087630 -0.00151780 0.04468280
v -0.00151780 -0.00087630 0.04468280
v -0.00175260 -0.00000000 0.04468280
v 0.00000000 -0.00175260 0.04590200
v 0.00087630 -0.00151780 0.04590200
v -0.00087630 -0.00151780 0.04590200
v -0.00151780 -0.00087630 0.04590200
v 0.00087630 0.00151780 0.04590200
v 0.00151780 0.00087630 0.04590200
v 0.00175260 -0.00000000 0.04590200
v 0.00151780 -0.00087630 0.04590200
v 0.00496972 0.00170180 0.04583953
v 0.00540938 0.00170180 0.04565746
v 0.00449580 0.00170180 0.04590200
v 0.00440299 0.00216837 0.04590200
v 0.00374317 0.00282819 0.04590200
v 0.00413870 0.00256390 0.04590200
v 0.00512363 0.00276818 0.04565747
v 0.00434298 0.00354883 0.04565747
f 1 2 3
f 4 3 2
f 5 1 3
f 6 5 3
f 4 6 3
f 7 8 2
f 9 2 8
f 1 7 2
f 10 4 2
f 9 10 2
f 11 12 8
f 13 8 12
f 7 11 8
f 13 9 8
f 14 15 12
f 13 12 15
f 11 14 12
f 16 17 15
f 13 15 17
f 14 16 15
f 18 19 17
f 13 17 19
f 16 18 17
f 20 19 18
f 21 19 20
f 13 19 21
f 22 18 16
f 22 20 18
f 22 16 14
f 23 14 11
f 22 14 23
f 24 11 7
f 23 11 24
f 24 7 1
f 24 1 5
f 25 5 6
f 26 5 25
f 26 24 5
f 27 28 29
f 4 29 28
f 30 27 29
f 31 30 29
f 4 31 29
f 25 6 28
f 4 28 6
f 27 25 28
f 26 25 27
f 26 27 30
f 31 32 30
f 22 30 32
f 26 30 22
f 21 20 32
f 22 32 20
f 31 21 32
f 13 21 31
f 33 34 31
f 13 31 34
f 35 33 31
f 4 35 31
f 13 36 37
f 38 37 36
f 23 13 37
f 39 37 38
f 22 37 39
f 22 23 37
f 13 34 36
f 38 36 34
f 40 34 33
f 40 38 34
f 41 33 35
f 41 40 33
f 41 35 4
f 10 42 4
f 43 4 42
f 44 41 4
f 43 44 4
f 24 42 10
f 45 43 42
f 46 45 42
f 24 46 42
f 47 10 9
f 47 24 10
f 48 9 13
f 48 47 9
f 48 13 23
f 49 50 51
f 52 51 50
f 53 49 51
f 54 53 51
f 55 51 52
f 56 51 55
f 54 51 56
f 57 58 50
f 40 50 58
f 49 57 50
f 52 50 40
f 59 38 58
f 40 58 38
f 57 59 58
f 60 39 38
f 59 60 38
f 61 39 60
f 62 22 39
f 61 62 39
f 57 60 59
f 49 60 57
f 53 60 49
f 63 60 53
f 61 60 63
f 54 64 53
f 63 53 64
f 52 40 41
f 44 65 41
f 66 41 65
f 66 52 41
f 43 65 44
f 66 65 67
f 68 67 65
f 43 68 65
f 69 66 67
f 69 67 70
f 71 70 67
f 68 71 67
f 72 52 66
f 72 55 52
f 69 72 66
f 73 69 70
f 71 73 70
f 74 55 72
f 74 56 55
f 75 72 69
f 75 74 72
f 76 69 73
f 76 75 69
f 77 73 71
f 78 73 77
f 76 73 78
f 43 71 68
f 45 71 43
f 79 71 45
f 80 71 79
f 77 71 80
f 81 45 46
f 82 79 45
f 83 82 45
f 84 45 81
f 85 45 84
f 83 45 85
f 86 46 24
f 81 46 86
f 48 24 47
f 48 23 24
f 86 24 26
f 87 80 79
f 88 87 79
f 89 88 79
f 90 79 82
f 91 79 90
f 91 89 79
f 92 80 87
f 92 77 80
f 93 87 88
f 93 92 87
f 89 93 88
f 94 95 96
f 97 96 95
f 98 94 96
f 99 98 96
f 97 99 96
f 94 100 95
f 97 95 100
f 90 82 100
f 101 100 82
f 94 90 100
f 97 100 101
f 101 82 83
f 102 90 94
f 102 91 90
f 98 102 94
f 85 77 92
f 103 78 77
f 103 77 85
f 85 92 93
f 85 93 89
f 85 89 91
f 85 91 102
f 101 102 98
f 83 85 102
f 101 83 102
f 101 98 99
f 97 101 99
f 104 76 78
f 105 78 103
f 105 104 78
f 106 56 74
f 107 108 56
f 109 56 108
f 110 107 56
f 111 110 56
f 106 111 56
f 109 54 56
f 112 74 75
f 106 74 113
f 112 113 74
f 104 75 76
f 104 112 75
f 108 114 115
f 116 115 114
f 109 108 115
f 117 109 115
f 117 115 116
f 118 114 108
f 118 116 114
f 119 108 107
f 119 118 108
f 120 107 110
f 119 107 120
f 121 110 111
f 120 110 121
f 121 111 122
f 123 122 111
f 106 123 111
f 124 64 54
f 63 64 124
f 125 54 109
f 124 54 125
f 125 109 117
f 118 117 116
f 119 117 118
f 126 125 117
f 119 126 117
f 126 124 125
f 126 63 124
f 127 63 126
f 127 61 63
f 120 128 126
f 129 126 128
f 119 120 126
f 130 127 126
f 129 130 126
f 120 122 128
f 131 128 122
f 132 129 128
f 133 132 128
f 131 133 128
f 120 121 122
f 134 122 135
f 136 135 122
f 134 131 122
f 137 136 122
f 123 137 122
f 138 22 62
f 139 22 138
f 140 26 22
f 141 140 22
f 139 141 22
f 127 62 61
f 127 138 62
f 142 139 138
f 127 142 138
f 86 26 140
f 143 140 141
f 143 86 140
f 144 141 139
f 144 143 141
f 142 144 139
f 81 86 143
f 145 143 144
f 145 81 143
f 130 144 142
f 130 145 144
f 130 142 127
f 84 81 145
f 146 145 130
f 146 84 145
f 129 146 130
f 147 85 84
f 147 84 146
f 148 85 147
f 149 85 148
f 149 103 85
f 150 146 129
f 151 147 146
f 150 151 146
f 132 150 129
f 152 147 151
f 148 147 152
f 153 151 150
f 153 152 151
f 154 150 132
f 154 153 150
f 155 132 133
f 155 154 132
f 156 155 133
f 157 156 133
f 158 157 133
f 158 133 131
f 159 152 153
f 160 148 152
f 161 160 152
f 162 161 152
f 163 162 152
f 164 163 152
f 165 164 152
f 166 165 152
f 159 166 152
f 159 153 154
f 159 154 155
f 167 155 156
f 159 155 167
f 167 156 157
f 149 148 160
f 168 149 160
f 161 168 160
f 105 103 149
f 169 149 168
f 170 105 149
f 169 170 149
f 161 171 168
f 172 168 171
f 172 173 168
f 174 168 173
f 175 169 168
f 176 175 168
f 177 176 168
f 178 177 168
f 174 178 168
f 179 171 161
f 172 171 179
f 162 179 161
f 173 167 157
f 180 157 158
f 180 173 157
f 181 167 179
f 172 179 167
f 162 181 179
f 182 183 167
f 184 167 183
f 185 182 167
f 186 185 167
f 181 186 167
f 184 159 167
f 172 167 173
f 187 183 182
f 188 184 183
f 188 183 187
f 189 182 185
f 189 187 182
f 190 185 186
f 189 185 190
f 174 186 181
f 190 186 174
f 178 181 162
f 174 181 178
f 177 162 163
f 178 162 177
f 176 163 164
f 177 163 176
f 191 164 165
f 176 164 191
f 192 165 166
f 191 165 192
f 193 166 159
f 192 166 193
f 194 159 184
f 193 159 194
f 194 184 188
f 195 134 135
f 196 135 136
f 196 195 135
f 134 158 131
f 134 180 158
f 190 173 180
f 190 174 173
f 197 180 134
f 198 180 197
f 199 175 180
f 193 180 175
f 200 180 198
f 199 180 200
f 188 187 180
f 189 180 187
f 194 188 180
f 193 194 180
f 189 190 180
f 195 197 134
f 196 136 137
f 113 137 123
f 113 196 137
f 106 113 123
f 201 197 195
f 198 197 201
f 201 195 196
f 112 196 113
f 201 196 112
f 201 112 104
f 202 104 105
f 202 201 104
f 202 105 170
f 169 202 170
f 200 201 202
f 200 198 201
f 199 202 169
f 199 200 202
f 199 169 175
f 192 193 175
f 191 192 175
f 176 191 175

