# https://github.com/mikedh/trimesh
mtllib mtl_push_latch_housing
usemtl mtl_push_latch_housing
v -0.00443549 0.08104679 0.02148672
v -0.00443549 0.08104679 0.02378672
v -0.00300000 0.08150000 0.02378672
v -0.00700000 0.08300000 0.02378672
v -0.00300000 0.08150000 0.02148672
v -0.00156451 0.08104679 0.02378672
v -0.00536069 0.07982289 0.02148672
v -0.00501035 0.08048610 0.02378672
v -0.00538418 0.07975211 0.02378672
v -0.00549962 0.07904380 0.02148672
v -0.00549962 0.07895620 0.02378672
v -0.00538418 0.07824789 0.02148672
v -0.00536069 0.07817711 0.02378672
v -0.00443549 0.07695321 0.02148672
v -0.00443549 0.07695321 0.02378672
v 0.00243530 0.06454777 0.02378672
v -0.00501035 0.07751390 0.02148672
v 0.00258974 0.05955521 0.02378672
v -0.01200000 0.05900000 0.02378672
v -0.00300000 0.07650000 0.02148672
v -0.00300000 0.07650000 0.02378672
v 0.00200176 0.07452819 0.02378672
v 0.00223930 0.06953888 0.02378672
v -0.00156451 0.07695321 0.02148672
v -0.00156451 0.07695321 0.02378672
v -0.00300000 0.07780000 0.02148672
v -0.00216148 0.07814158 0.02148672
v -0.00189166 0.07854003 0.02148672
v -0.00419994 0.07898826 0.02148672
v -0.00383852 0.07814158 0.02148672
v -0.00410221 0.07852551 0.02148672
v -0.00410834 0.07945997 0.02148672
v -0.00156451 0.08104679 0.02148672
v -0.00383852 0.07985841 0.02148672
v -0.00300000 0.08020000 0.02148672
v 0.00277391 0.04956708 0.02378672
v -0.01200000 0.04900000 0.02378672
v -0.01200000 0.05900000 0.02078672
v 0.00270262 0.05456153 0.02378672
v -0.01750000 0.05900000 0.02378672
v 0.00280363 0.04457221 0.02378672
v -0.01600000 0.04900000 0.02378672
v -0.01200000 0.04900000 0.02078672
v -0.01250000 0.03150000 0.02378672
v -0.01600000 0.03150000 0.02378672
v -0.01600000 0.04900000 0.02078672
v 0.00273832 0.03458260 0.02378672
v 0.00279177 0.03957727 0.02378672
v -0.01600000 0.03150000 0.02198672
v -0.01600000 0.04900000 0.00178672
v -0.01600000 0.04900000 0.00478672
v 0.00264329 0.02958854 0.02378672
v -0.01078238 0.03095963 0.02378672
v -0.01250000 0.03150000 0.02198672
v -0.00966929 0.02949353 0.02378672
v -0.01078238 0.03095963 0.02198672
v 0.00250670 0.02459546 0.02378672
v -0.00950058 0.02855915 0.02378672
v -0.00963718 0.02939682 0.02198672
v -0.01008489 0.03027968 0.02198672
v -0.00963718 0.02760318 0.02378672
v -0.00950058 0.02844085 0.02198672
v -0.01008489 0.02672032 0.02378672
v -0.00966929 0.02750647 0.02198672
v -0.01078238 0.02604037 0.02378672
v -0.01250000 0.02550000 0.02378672
v -0.01078238 0.02604037 0.02198672
v -0.01600000 0.02550000 0.02378672
v -0.01250000 0.02550000 0.02198672
v -0.01626794 0.02450001 0.02378672
v -0.01600000 0.02550000 0.02198672
v 0.00232854 0.01960368 0.02378672
v -0.01700002 0.02376794 0.02378672
v -0.01626794 0.02450001 0.00178672
v -0.01600000 0.02550000 0.00358672
v -0.01600000 0.02550000 0.00178672
v -0.01800000 0.02350000 0.02378672
v -0.01744863 0.02357750 0.01498672
v -0.01694000 0.02380401 0.01498672
v -0.02000000 0.02350000 0.02378672
v -0.02000000 0.02350000 0.01498672
v -0.01800000 0.02350000 0.01498672
v -0.02035355 0.02335355 0.02378672
v -0.02050000 0.02300000 0.02378672
v -0.02035355 0.02335355 0.01498672
v 0.00210883 0.01461356 0.02378672
v -0.02050000 0.01450000 0.02378672
v -0.02050000 0.01450000 0.01498672
v -0.02050000 0.02300000 0.01498672
v 0.00184759 0.00962544 0.02378672
v -0.02200000 0.01450000 0.02378672
v -0.02200000 0.01450000 0.00178672
v -0.00000000 0.00823975 0.02378672
v -0.00700000 0.00400000 0.02378672
v -0.02200000 0.01450000 0.02478672
v -0.02200000 0.02300000 0.00078672
v -0.00150000 0.00100000 0.02378672
v -0.00700000 0.00100000 0.02378672
v -0.00700000 0.00400000 0.02478672
v -0.00150000 0.00200000 0.02378672
v -0.00000000 0.00200000 0.02378672
v -0.00700000 0.00100000 0.02410960
v -0.00700000 0.00250000 0.02478672
v -0.00700000 0.00167712 0.02460960
v -0.00150000 0.00200000 0.00178672
v -0.00150000 0.00062917 0.02349383
v -0.00150000 0.00100000 0.02410960
v -0.00000000 0.00200000 0.00178672
v -0.00000000 0.00640526 0.02205112
v -0.00000000 0.00290000 0.01278672
v -0.00000000 0.00312889 0.01530169
v -0.00000000 0.00380818 0.01774770
v -0.00000000 0.00490359 0.02000427
v 0.00178270 0.00849685 0.02284210
v 0.00185478 0.00975296 0.02913558
v 0.00178209 0.00848644 0.02911887
v 0.00213298 0.01511906 0.02917868
v 0.00192628 0.01104705 0.02914979
v 0.00199653 0.01237094 0.02916163
v 0.00206545 0.01372726 0.02917121
v 0.00238707 0.02112043 0.02919004
v 0.00219902 0.01654976 0.02918416
v 0.00226346 0.01802341 0.02918778
v 0.00232619 0.01954493 0.02918969
v 0.00255689 0.02626124 0.02918328
v 0.00244594 0.02275766 0.02918898
v 0.00250263 0.02446682 0.02918666
v 0.00265688 0.03018716 0.02917406
v 0.00260844 0.02815909 0.02917900
v 0.00274172 0.03481448 0.02916325
v 0.00270169 0.03238845 0.02916869
v 0.00279309 0.03978476 0.02915540
v 0.00277256 0.03730102 0.02915866
v 0.00280331 0.04473746 0.02915372
v 0.00280331 0.04226310 0.02915372
v 0.00277256 0.04969942 0.02915866
v 0.00279308 0.04721572 0.02915540
v 0.00270169 0.05461155 0.02916869
v 0.00274172 0.05218579 0.02916326
v 0.00255689 0.06073873 0.02918328
v 0.00265688 0.05681282 0.02917406
v 0.00260844 0.05884089 0.02917900
v 0.00238707 0.06587959 0.02919004
v 0.00250263 0.06253317 0.02918666
v 0.00244594 0.06424235 0.02918898
v 0.00219902 0.07045022 0.02918416
v 0.00232619 0.06745508 0.02918969
v 0.00226346 0.06897658 0.02918778
v -0.00050038 0.07904380 0.02378672
v 0.00172269 0.07951535 0.02378672
v 0.00199653 0.07462906 0.02916163
v -0.00061582 0.07824789 0.02378672
v -0.00098965 0.07751390 0.02378672
v 0.00213298 0.07188093 0.02917868
v 0.00206545 0.07327273 0.02917121
v -0.00700000 0.08450000 0.02378672
v 0.00140212 0.08450000 0.02378672
v 0.00170827 0.07975445 0.02909953
v -0.00063931 0.07982289 0.02378672
v 0.00192628 0.07595296 0.02914979
v 0.00185478 0.07724705 0.02913558
v 0.00178209 0.07851356 0.02911887
v -0.00700000 0.08450000 0.00178672
v 0.00140212 0.08450000 0.00178672
v 0.00133646 0.08544763 -0.00328241
v 0.00163336 0.08097140 0.02907743
v 0.00155741 0.08216596 0.02905247
v 0.00148048 0.08333944 0.02902452
v 0.00133653 0.08544660 0.02885598
v -0.00700000 0.08300000 0.02478672
v -0.00700000 0.08573206 0.00178674
v -0.00700000 0.08600000 0.00278672
v -0.00700000 0.08600000 0.02278672
v -0.00700000 0.08573206 0.02378671
v -0.01600000 0.05900000 0.02078672
v -0.01600000 0.05900000 0.00478672
v -0.01750000 0.05900000 0.00178672
v -0.01750000 0.05650000 0.00078672
v -0.01750000 0.05900000 0.02478672
v -0.00061582 0.07975211 0.02148672
v -0.00098965 0.08048610 0.02148672
v -0.00050038 0.07895620 0.02148672
v -0.00063931 0.07817711 0.02148672
v -0.01200000 0.05900000 0.00178672
v 0.00258974 0.05955521 0.00178672
v -0.00536069 0.07982289 0.00178672
v -0.00700000 0.08300000 0.00178672
v -0.01750000 0.05900000 0.00078672
v 0.00223930 0.06953888 0.00178672
v 0.00200176 0.07452819 0.00178672
v -0.00300000 0.07650000 0.00178672
v 0.00243530 0.06454777 0.00178672
v -0.00443549 0.07695321 0.00178672
v -0.00549962 0.07904380 0.00178672
v -0.00538418 0.07824789 0.00178672
v -0.00501035 0.07751390 0.00178672
v -0.01200000 0.05900000 0.00478672
v -0.01200000 0.04900000 0.00478672
v 0.00270262 0.05456153 0.00178672
v -0.01200000 0.04900000 0.00178672
v -0.01600000 0.03150000 0.00358672
v -0.01250000 0.02550000 0.00358672
v -0.01600000 0.03150000 0.00178672
v -0.01250000 0.03150000 0.00358672
v -0.01250000 0.02970000 0.00358672
v -0.01360834 0.02804003 0.00358672
v -0.01333852 0.02935842 0.00358672
v -0.01360221 0.02897449 0.00358672
v -0.01369994 0.02851174 0.00358672
v -0.01250000 0.02550000 0.00178672
v -0.01333852 0.02764158 0.02198672
v -0.01250000 0.02730000 0.02198672
v -0.01369994 0.02848826 0.02198672
v -0.01360834 0.02895997 0.02198672
v -0.01360221 0.02802551 0.02198672
v -0.01250000 0.03150000 0.00178672
v 0.00273832 0.03458260 0.00178672
v 0.00280363 0.04457221 0.00178672
v 0.00279177 0.03957727 0.00178672
v -0.01078238 0.03095963 0.00358672
v -0.01078238 0.03095963 0.00178672
v -0.01139166 0.02895997 0.00358672
v -0.01166148 0.02935842 0.00358672
v 0.00277391 0.04956708 0.00178672
v -0.00700000 0.08499999 0.00105466
v -0.00300000 0.08150000 0.00178672
v -0.00443549 0.08104679 0.00178672
v -0.00700000 0.08300000 0.00078672
v -0.00700000 0.08400000 0.00078672
v -0.00061582 0.07975211 0.00178672
v 0.00172269 0.07951535 0.00178672
v 0.00148048 0.08333944 -0.00345108
v -0.00098965 0.08048610 0.00178672
v -0.00156451 0.08104679 0.00178672
v -0.00156451 0.07695321 0.00178672
v 0.00178209 0.07851356 -0.00354543
v -0.00063931 0.07817711 0.00178672
v -0.00050038 0.07895620 0.00178672
v 0.00155741 0.08216596 -0.00347903
v 0.00163336 0.08097141 -0.00350399
v 0.00170827 0.07975445 -0.00352608
v 0.00206545 0.07327273 -0.00359777
v 0.00185478 0.07724705 -0.00356214
v 0.00192628 0.07595295 -0.00357635
v 0.00199653 0.07462905 -0.00358819
v 0.00226346 0.06897659 -0.00361434
v 0.00213298 0.07188094 -0.00360524
v 0.00219902 0.07045024 -0.00361072
v 0.00244594 0.06424234 -0.00361554
v 0.00232619 0.06745507 -0.00361625
v 0.00238707 0.06587958 -0.00361660
v 0.00260844 0.05884091 -0.00360556
v 0.00250263 0.06253318 -0.00361322
v 0.00255689 0.06073876 -0.00360984
v 0.00274172 0.05218552 -0.00358981
v 0.00265688 0.05681284 -0.00360062
v 0.00270169 0.05461155 -0.00359525
v 0.00279309 0.04721525 -0.00358196
v 0.00277256 0.04969899 -0.00358521
v 0.00280331 0.04226254 -0.00358027
v 0.00280331 0.04473690 -0.00358027
v 0.00277256 0.03730059 -0.00358521
v 0.00279308 0.03978429 -0.00358196
v -0.01008489 0.03027968 0.00178672
v 0.00264329 0.02958854 0.00178672
v 0.00270169 0.03238846 -0.00359525
v 0.00274172 0.03481422 -0.00358981
v 0.00250670 0.02459546 0.00178672
v 0.00260844 0.02815911 -0.00360556
v -0.01078238 0.02604037 0.00178672
v -0.00966929 0.02750647 0.00178672
v -0.00950058 0.02844085 0.00178672
v -0.00963718 0.02939682 0.00178672
v 0.00265688 0.03018718 -0.00360062
v -0.02050000 0.02300000 0.00178672
v 0.00232854 0.01960368 0.00178672
v 0.00250263 0.02446683 -0.00361322
v -0.02035355 0.02335355 0.00178672
v -0.01800000 0.02350000 0.00178672
v -0.01700001 0.02376794 0.00178672
v 0.00255689 0.02626127 -0.00360984
v -0.02050000 0.01450000 0.00178672
v 0.00210883 0.01461356 0.00178672
v 0.00232619 0.01954493 -0.00361625
v 0.00244594 0.02275765 -0.00361554
v 0.00238707 0.02112041 -0.00361660
v 0.00184759 0.00962544 0.00178672
v 0.00206545 0.01372727 -0.00359777
v 0.00226346 0.01802342 -0.00361434
v 0.00219902 0.01654978 -0.00361072
v 0.00213298 0.01511907 -0.00360524
v -0.00700000 0.00400000 0.00178672
v -0.00000000 0.00823975 0.00178672
v -0.00000000 0.00640529 0.00352229
v 0.00199653 0.01237094 -0.00358819
v 0.00192628 0.01104704 -0.00357635
v 0.00185478 0.00975296 -0.00356214
v 0.00178270 0.00849681 0.00273137
v -0.00000000 0.00490363 0.00556911
v -0.00000000 0.00380821 0.00782567
v -0.00000000 0.00312889 0.01027172
v -0.00700000 0.00100000 0.00178672
v -0.00150000 0.00100000 0.00178672
v -0.00150000 0.00062917 0.00207961
v -0.00150000 0.00050000 0.00278672
v -0.00150000 0.00050000 0.02278672
v -0.00150000 0.00100000 0.00146385
v -0.00700000 0.00100000 0.00146385
v -0.00700000 0.00400000 0.00078672
v -0.00700000 0.00167712 0.00096385
v -0.00700000 0.00250000 0.00078672
v -0.02050000 0.01450000 0.01058672
v -0.02200000 0.01450000 0.00078672
v -0.02050000 0.02300000 0.01058672
v -0.02000000 0.02350000 0.00178672
v -0.02035355 0.02335355 0.01058672
v -0.01800000 0.02350000 0.01058672
v -0.02000000 0.02350000 0.01058672
v -0.01694000 0.02380401 0.01058672
v -0.01744863 0.02357750 0.01058672
v -0.01078238 0.02604037 0.00358672
v -0.00963718 0.02760318 0.00358672
v -0.01008489 0.02672032 0.00358672
v -0.00950058 0.02855915 0.00358672
v -0.00966929 0.02949353 0.00358672
v -0.00300000 0.07650000 0.00408672
v -0.00443549 0.07695321 0.00408672
v -0.00156451 0.07695321 0.00408672
v -0.00061582 0.07824789 0.00408672
v -0.00098965 0.07751390 0.00408672
v -0.00050038 0.07904380 0.00408672
v -0.00063931 0.07982289 0.00408672
v -0.00156451 0.08104679 0.00408672
v -0.00300000 0.08150000 0.00408672
v -0.00443549 0.08104679 0.00408672
v -0.00538418 0.07975211 0.00408672
v -0.00501035 0.08048610 0.00408672
v -0.00549962 0.07895620 0.00408672
v -0.00536069 0.07817711 0.00408672
v -0.00410221 0.07852551 0.00078672
v -0.01350000 0.05650000 0.00078672
v -0.00300000 0.07780000 0.00078672
v -0.00383852 0.07814158 0.00078672
v -0.00216148 0.07985841 0.00078672
v -0.00419994 0.07898826 0.00078672
v -0.00410834 0.07945997 0.00078672
v -0.00383852 0.07985841 0.00078672
v -0.00300000 0.08020000 0.00078672
v -0.00000000 0.08400000 0.00078672
v -0.00000000 0.08499999 0.00105466
v -0.00000000 0.08573206 0.00178674
v -0.00000000 0.08600000 0.00278672
v -0.00000000 0.08600000 0.02278672
v -0.00700000 0.08499999 0.02451878
v -0.00000000 0.08573206 0.02378670
v -0.00700000 0.08400000 0.02478672
v -0.00000000 0.08499999 0.02451878
v -0.00000000 0.08400000 0.02478672
v -0.00300000 0.08020000 0.02478672
v -0.00410221 0.07947449 0.02478672
v -0.00383852 0.07985841 0.02478672
v 0.00124024 0.08307011 -0.00347519
v 0.00100000 0.08440346 -0.00339847
v 0.00100000 0.08280078 -0.00349930
v 0.00099996 0.07952695 -0.00361333
v 0.00099993 0.07625278 -0.00371744
v 0.00099990 0.07297831 -0.00381165
v 0.00099987 0.06970358 -0.00389594
v 0.00099985 0.06642859 -0.00397031
v 0.00099983 0.06315341 -0.00403477
v 0.00099981 0.05987804 -0.00408932
v 0.00099980 0.05660256 -0.00413394
v 0.00099979 0.05332699 -0.00416865
v 0.00099978 0.05005136 -0.00419345
v 0.00099978 0.04677569 -0.00420832
v 0.00099978 0.04350000 -0.00421328
v 0.00099978 0.04022431 -0.00420832
v 0.00099978 0.03694864 -0.00419345
v 0.00099979 0.03367301 -0.00416865
v 0.00099980 0.03039745 -0.00413394
v 0.00099981 0.02712196 -0.00408932
v 0.00099983 0.02384659 -0.00403477
v 0.00099985 0.02057140 -0.00397031
v 0.00099987 0.01729643 -0.00389594
v 0.00099990 0.01402169 -0.00381165
v 0.00099993 0.01074722 -0.00371744
v 0.00178209 0.00848644 -0.00354543
v 0.00172191 0.00747167 0.00378368
v 0.00170827 0.00724555 -0.00352608
v 0.00166681 0.00656713 0.00492403
v 0.00163336 0.00602859 -0.00350399
v 0.00099996 0.00747305 -0.00361333
v 0.00157897 0.00516935 0.00738078
v 0.00155741 0.00483405 -0.00347903
v 0.00161889 0.00579818 0.00612804
v 0.00150486 0.00402864 0.01278672
v 0.00148048 0.00366056 -0.00345108
v 0.00150956 0.00410007 0.01141578
v 0.00152370 0.00431551 0.01004261
v 0.00154706 0.00467406 0.00868883
v 0.00133651 0.00155317 0.02885595
v 0.00133655 0.00155373 -0.00328258
v 0.00100000 0.00419922 -0.00349930
v 0.00148048 0.00366056 0.02902452
v 0.00118302 -0.00058229 0.02851639
v 0.00118302 -0.00058229 -0.00294295
v 0.00100000 0.00100072 -0.00321279
v 0.00100000 0.00259654 -0.00339847
v 0.00111151 -0.00154246 0.02814487
v 0.00111151 -0.00154246 -0.00257143
v 0.00100000 -0.00058229 -0.00294295
v 0.00105245 -0.00232020 0.02747674
v 0.00105245 -0.00232020 -0.00190330
v 0.00100000 -0.00231804 -0.00190439
v 0.00100000 -0.00154175 -0.00257352
v 0.00101373 -0.00282301 0.02658441
v 0.00101373 -0.00282301 -0.00101097
v 0.00100000 -0.00282384 -0.00101288
v 0.00100000 -0.00300000 0.02557344
v 0.00100000 -0.00300000 0.00000000
v -0.00000000 -0.00300000 0.00000000
v 0.00000000 -0.00231807 -0.00190435
v 0.00100000 -0.00282438 0.02658483
v -0.00000000 -0.00300000 0.02557344
v 0.00100000 -0.00231807 0.02747780
v 0.00100000 -0.00154035 0.02814780
v 0.00100000 -0.00058229 0.02851639
v 0.00100000 0.00259654 0.02897191
v 0.00100000 0.00100072 0.02878623
v 0.00154703 0.00467368 0.01688343
v 0.00155741 0.00483405 0.02905247
v 0.00100000 0.00419922 0.02907274
v 0.00152368 0.00431514 0.01552910
v 0.00150957 0.00410014 0.01415830
v 0.00161890 0.00579820 0.01944542
v 0.00163336 0.00602859 0.02907743
v 0.00157901 0.00516989 0.01819390
v 0.00166679 0.00656683 0.02064900
v 0.00170827 0.00724555 0.02909952
v 0.00099998 0.00747301 0.02918676
v 0.00172192 0.00747177 0.02178987
v 0.00099996 0.01074714 0.02929088
v 0.00099994 0.01402157 0.02938509
v 0.00099992 0.01729628 0.02946937
v 0.00099990 0.02057122 0.02954375
v 0.00099988 0.02384637 0.02960821
v 0.00099986 0.02712170 0.02966275
v 0.00099985 0.03039718 0.02970738
v 0.00099983 0.03367278 0.02974209
v 0.00099981 0.03694847 0.02976689
v 0.00099979 0.04022422 0.02978176
v 0.00099978 0.04350000 0.02978672
v 0.00099979 0.04677578 0.02978176
v 0.00099981 0.05005153 0.02976689
v 0.00099983 0.05332722 0.02974209
v 0.00099984 0.05660282 0.02970738
v 0.00099986 0.05987830 0.02966275
v 0.00099988 0.06315363 0.02960821
v 0.00099990 0.06642879 0.02954375
v 0.00099992 0.06970373 0.02946937
v 0.00099994 0.07297843 0.02938509
v 0.00099996 0.07625286 0.02929088
v 0.00099998 0.07952698 0.02918676
v 0.00100000 0.08280078 0.02907274
v 0.00118302 0.08758229 -0.00294295
v 0.00118302 0.08758229 0.02851639
v 0.00100000 0.08599928 0.02878623
v 0.00100000 0.08440346 0.02897191
v 0.00111151 0.08854246 -0.00257143
v 0.00111151 0.08854246 0.02814487
v 0.00100000 0.08758229 0.02851639
v 0.00105245 0.08932020 -0.00190330
v 0.00105245 0.08932020 0.02747674
v 0.00100000 0.08931807 0.02747780
v 0.00100000 0.08854035 0.02814780
v 0.00101373 0.08982301 -0.00101096
v 0.00101373 0.08982301 0.02658441
v 0.00100000 0.09000000 -0.00000000
v 0.00100000 0.09000000 0.02557344
v 0.00100000 0.08982438 0.02658483
v -0.00000000 0.09000000 0.02557344
v -0.00000000 0.08931807 0.02747779
v 0.00100000 0.08982383 -0.00101292
v -0.00000000 0.09000000 -0.00000000
v 0.00100000 0.08931810 -0.00190432
v 0.00100000 0.08854172 -0.00257354
v 0.00100000 0.08758229 -0.00294295
v 0.00100000 0.08599928 -0.00321279
v -0.00000000 0.08280078 -0.00349930
v -0.00000000 0.08520260 -0.00331621
v -0.00000000 0.07625286 -0.00371744
v -0.00000000 0.06970373 -0.00389593
v -0.00000000 0.06315363 -0.00403477
v -0.00000000 0.05660282 -0.00413394
v -0.00000000 0.05005153 -0.00419344
v -0.00000000 0.04350000 -0.00421328
v -0.00000000 0.03694847 -0.00419344
v -0.00000000 0.03039718 -0.00413394
v -0.00000000 0.02384637 -0.00403477
v -0.00000000 0.01729628 -0.00389593
v -0.00000000 0.01074714 -0.00371744
v -0.00000000 0.00419922 -0.00349930
v -0.00000000 0.08758229 -0.00294295
v -0.00000000 0.08931806 -0.00190436
v -0.00000000 0.08758229 0.02851639
v -0.00000000 0.08520260 0.02888965
v -0.00000000 0.08280078 0.02907274
v -0.00000000 0.07625286 0.02929088
v -0.00000000 0.00419921 0.02907274
v -0.00000000 0.00179740 0.02888965
v -0.00000000 0.01074714 0.02929088
v -0.00000000 0.01729628 0.02946937
v -0.00000000 0.02384637 0.02960821
v -0.00000000 0.03039718 0.02970738
v -0.00000000 0.03694847 0.02976689
v -0.00000000 0.04350000 0.02978672
v -0.00000000 0.05005153 0.02976689
v -0.00000000 0.05660282 0.02970738
v -0.00000000 0.06315364 0.02960821
v -0.00000000 0.06970373 0.02946937
v -0.00000000 -0.00058229 0.02851639
v -0.00000000 -0.00231806 0.02747780
v -0.00000000 0.00050000 0.02278672
v -0.00000000 -0.00058229 -0.00294295
v -0.00000000 0.00250000 0.02478672
v -0.00000000 0.00076794 0.02378671
v -0.00000000 0.00150001 0.02451878
v -0.00000000 0.00250000 0.00078672
v -0.00000000 0.00179740 -0.00331621
v -0.00000000 0.00150001 0.00105466
v -0.00000000 0.00050000 0.00278672
v -0.00000000 0.00076794 0.00178674
v -0.01130006 0.02848826 0.02478672
v -0.00216148 0.07985841 0.02478672
v -0.00180006 0.07898826 0.02478672
v -0.00189779 0.07852551 0.02478672
v -0.01250000 0.02970000 0.02478672
v -0.00189166 0.07945997 0.02478672
v -0.01166148 0.02935842 0.02478672
v -0.01139166 0.02895997 0.02478672
v -0.00180006 0.07901174 0.00078672
v -0.00189779 0.07947449 0.00078672
v -0.01350000 0.05000000 0.00078672
v -0.01750000 0.05000000 0.00078672
v -0.01139779 0.02897449 0.00078672
v -0.01764645 0.02514645 0.00078672
v -0.01750000 0.02550000 0.00078672
v -0.01250000 0.02730000 0.00078672
v -0.01800000 0.02500000 0.00078672
v -0.02000000 0.02500000 0.00078672
v -0.02099998 0.02473206 0.00078672
v -0.02173206 0.02399999 0.00078672
v -0.00216148 0.07814158 0.00078672
v -0.00189166 0.07854003 0.00078672
v -0.01166148 0.02764158 0.00078672
v -0.01130006 0.02851174 0.00078672
v -0.01139166 0.02804003 0.00078672
v -0.01750000 0.05650000 0.00378672
v -0.01350000 0.05650000 0.00378672
v -0.01350000 0.05000000 0.00378672
v -0.01369994 0.02848826 0.00078672
v -0.01750000 0.05000000 0.00378672
v -0.01360834 0.02895997 0.00078672
v -0.01333852 0.02935842 0.00078672
v -0.01250000 0.02970000 0.00078672
v -0.01166148 0.02935842 0.00078672
v -0.01750000 0.02550000 0.02478672
v -0.01333852 0.02764158 0.00078672
v -0.01360221 0.02802551 0.00078672
v -0.01750000 0.05000000 0.02478672
v -0.01750000 0.05000000 0.02178672
v -0.01764645 0.02514645 0.02478672
v -0.02000000 0.02500000 0.02478672
v -0.01800000 0.02500000 0.02478672
v -0.02099998 0.02473206 0.02478672
v -0.02173206 0.02399999 0.02478672
v -0.02200000 0.02300000 0.02478672
v -0.00300000 0.07780000 0.00408672
v -0.00216148 0.07814158 0.00408672
v -0.00383852 0.07814158 0.00408672
v -0.00410834 0.07854003 0.00408672
v -0.00419994 0.07901174 0.00408672
v -0.00410221 0.07947449 0.00408672
v -0.00383852 0.07985841 0.00408672
v -0.00300000 0.08020000 0.00408672
v -0.00216148 0.07985841 0.00408672
v -0.00189166 0.07945997 0.00408672
v -0.00180006 0.07898826 0.00408672
v -0.00189779 0.07852551 0.00408672
v -0.01250000 0.02730000 0.00358672
v -0.01166148 0.02764158 0.00358672
v -0.01333852 0.02764158 0.00358672
v -0.01130006 0.02848826 0.00358672
v -0.01139779 0.02802551 0.00358672
v -0.01166148 0.02764158 0.02478672
v -0.01250000 0.02730000 0.02478672
v -0.01350000 0.05000000 0.02478672
v -0.01333852 0.02935842 0.02478672
v -0.01360221 0.02897449 0.02478672
v -0.01369994 0.02851174 0.02478672
v -0.01360834 0.02804003 0.02478672
v -0.01333852 0.02764158 0.02478672
v -0.01139779 0.02802551 0.02478672
v -0.01350000 0.05650000 0.02478672
v -0.01350000 0.05000000 0.02178672
v -0.00216148 0.07814158 0.02478672
v -0.01750000 0.05650000 0.02478672
v -0.01350000 0.05650000 0.02178672
v -0.01750000 0.05650000 0.02178672
v -0.00419994 0.07901174 0.02478672
v -0.00410834 0.07854003 0.02478672
v -0.00383852 0.07814158 0.02478672
v -0.00300000 0.07780000 0.02478672
v -0.00216148 0.07985841 0.02148672
v -0.00180006 0.07901174 0.02148672
v -0.00189779 0.07947449 0.02148672
v -0.01250000 0.02970000 0.02198672
v -0.01166148 0.02935842 0.02198672
v -0.01333852 0.02935842 0.02198672
v -0.01166148 0.02764158 0.02198672
v -0.01139166 0.02804003 0.02198672
v -0.01130006 0.02851174 0.02198672
v -0.01139779 0.02897449 0.02198672
v -0.01694000 0.01981511 0.01058672
v -0.01694000 0.01981511 0.01498672
v -0.01851805 0.01450000 0.01058672
v -0.01812947 0.01468534 0.01058672
v -0.01802897 0.01510396 0.01058672
v -0.01894000 0.01939000 0.01058672
v -0.01851805 0.01450000 0.01498672
v -0.01812947 0.01468534 0.01498672
v -0.01894000 0.01939000 0.01498672
v -0.01802897 0.01510396 0.01498672
f 1 2 3
f 4 3 2
f 5 1 3
f 6 5 3
f 6 3 4
f 7 8 2
f 4 2 8
f 1 7 2
f 7 9 8
f 4 8 9
f 10 11 9
f 4 9 11
f 7 10 9
f 12 13 11
f 4 11 13
f 10 12 11
f 14 15 13
f 16 13 15
f 17 14 13
f 12 17 13
f 18 19 13
f 4 13 19
f 16 18 13
f 20 21 15
f 22 15 21
f 14 20 15
f 23 16 15
f 22 23 15
f 24 21 20
f 25 22 21
f 24 25 21
f 26 20 14
f 27 20 26
f 28 20 27
f 24 20 28
f 1 14 17
f 29 14 1
f 30 26 14
f 31 14 29
f 30 14 31
f 7 17 12
f 1 17 7
f 7 12 10
f 32 1 5
f 29 1 32
f 33 5 6
f 34 5 35
f 33 35 5
f 32 5 34
f 36 37 19
f 38 19 37
f 39 36 19
f 18 39 19
f 40 4 19
f 38 40 19
f 41 42 37
f 43 37 42
f 36 41 37
f 43 38 37
f 44 45 42
f 46 42 45
f 47 44 42
f 48 47 42
f 41 48 42
f 46 43 42
f 49 45 44
f 50 45 49
f 51 46 45
f 50 51 45
f 52 53 44
f 54 44 53
f 47 52 44
f 54 49 44
f 52 55 53
f 56 53 55
f 54 53 56
f 57 58 55
f 59 55 58
f 52 57 55
f 60 55 59
f 56 55 60
f 57 61 58
f 62 58 61
f 59 58 62
f 57 63 61
f 64 61 63
f 62 61 64
f 57 65 63
f 64 63 65
f 57 66 65
f 67 65 66
f 64 65 67
f 57 68 66
f 69 66 68
f 67 66 69
f 57 70 68
f 71 68 70
f 69 68 71
f 72 73 70
f 74 70 73
f 57 72 70
f 71 70 75
f 76 75 70
f 76 70 74
f 72 77 73
f 78 73 77
f 79 74 73
f 78 79 73
f 72 80 77
f 81 77 80
f 82 78 77
f 81 82 77
f 72 83 80
f 81 80 83
f 72 84 83
f 85 83 84
f 81 83 85
f 86 87 84
f 88 84 87
f 72 86 84
f 89 84 88
f 85 84 89
f 90 91 87
f 92 87 91
f 86 90 87
f 88 87 92
f 93 94 91
f 95 91 94
f 90 93 91
f 96 92 91
f 95 96 91
f 97 98 94
f 99 94 98
f 100 97 94
f 101 100 94
f 93 101 94
f 99 95 94
f 102 98 97
f 99 98 103
f 104 103 98
f 102 104 98
f 105 97 100
f 106 97 105
f 107 102 97
f 106 107 97
f 108 100 101
f 105 100 108
f 109 101 93
f 110 108 101
f 111 110 101
f 112 111 101
f 113 112 101
f 109 113 101
f 114 93 90
f 109 93 114
f 115 90 86
f 115 116 90
f 114 90 116
f 117 86 72
f 118 115 86
f 119 118 86
f 120 119 86
f 117 120 86
f 121 72 57
f 122 117 72
f 123 122 72
f 124 123 72
f 121 124 72
f 125 57 52
f 126 121 57
f 127 126 57
f 125 127 57
f 128 52 47
f 129 125 52
f 128 129 52
f 130 47 48
f 131 128 47
f 130 131 47
f 132 48 41
f 133 130 48
f 132 133 48
f 134 41 36
f 135 132 41
f 134 135 41
f 136 36 39
f 137 134 36
f 136 137 36
f 138 39 18
f 139 136 39
f 138 139 39
f 140 18 16
f 141 138 18
f 142 141 18
f 140 142 18
f 143 16 23
f 144 140 16
f 145 144 16
f 143 145 16
f 146 23 22
f 147 143 23
f 148 147 23
f 146 148 23
f 149 150 22
f 151 22 150
f 152 149 22
f 153 152 22
f 25 153 22
f 154 146 22
f 155 154 22
f 151 155 22
f 156 157 150
f 158 150 157
f 6 156 150
f 159 6 150
f 149 159 150
f 160 151 150
f 161 160 150
f 162 161 150
f 158 162 150
f 163 157 156
f 164 157 163
f 165 157 164
f 166 158 157
f 167 166 157
f 168 167 157
f 169 168 157
f 165 169 157
f 6 4 156
f 170 156 4
f 171 163 156
f 172 171 156
f 173 172 156
f 174 173 156
f 170 174 156
f 170 4 40
f 175 40 38
f 176 40 175
f 176 177 40
f 178 40 177
f 179 170 40
f 179 40 178
f 33 6 159
f 180 159 149
f 181 159 180
f 33 159 181
f 182 149 152
f 180 149 182
f 183 152 153
f 182 152 183
f 183 153 25
f 183 25 24
f 175 38 43
f 46 175 43
f 46 176 175
f 176 184 177
f 185 177 184
f 186 187 177
f 188 177 187
f 189 190 177
f 191 177 190
f 192 189 177
f 185 192 177
f 193 177 191
f 194 186 177
f 195 194 177
f 196 195 177
f 193 196 177
f 178 177 188
f 176 197 184
f 198 184 197
f 199 184 200
f 198 200 184
f 199 185 184
f 51 197 176
f 198 197 51
f 51 176 46
f 71 75 201
f 202 201 75
f 49 71 201
f 50 49 201
f 203 50 201
f 204 203 201
f 205 204 201
f 206 201 202
f 207 205 201
f 208 207 201
f 209 208 201
f 206 209 201
f 210 75 76
f 202 75 210
f 54 71 49
f 211 212 71
f 69 71 212
f 213 71 214
f 54 214 71
f 215 71 213
f 211 71 215
f 200 51 50
f 198 51 200
f 200 50 203
f 204 216 203
f 217 203 216
f 218 200 203
f 219 218 203
f 217 219 203
f 220 216 204
f 221 217 216
f 220 221 216
f 222 220 204
f 223 222 204
f 205 223 204
f 224 199 200
f 218 224 200
f 164 163 187
f 225 187 163
f 226 164 187
f 227 226 187
f 186 227 187
f 228 188 187
f 229 228 187
f 225 229 187
f 171 225 163
f 230 231 164
f 232 164 231
f 233 230 164
f 234 233 164
f 226 234 164
f 165 164 232
f 235 190 231
f 236 231 190
f 237 235 231
f 238 237 231
f 230 238 231
f 239 232 231
f 240 239 231
f 241 240 231
f 236 241 231
f 242 190 189
f 235 191 190
f 243 236 190
f 244 243 190
f 245 244 190
f 242 245 190
f 246 189 192
f 247 242 189
f 248 247 189
f 246 248 189
f 249 192 185
f 250 246 192
f 251 250 192
f 249 251 192
f 252 185 199
f 253 249 185
f 254 253 185
f 252 254 185
f 255 199 224
f 256 252 199
f 257 256 199
f 255 257 199
f 258 224 218
f 259 255 224
f 258 259 224
f 260 218 219
f 261 258 218
f 260 261 218
f 262 219 217
f 263 260 219
f 262 263 219
f 264 265 217
f 266 217 265
f 221 264 217
f 267 262 217
f 266 267 217
f 210 268 265
f 269 265 268
f 270 210 265
f 271 270 265
f 272 271 265
f 273 272 265
f 264 273 265
f 274 266 265
f 269 274 265
f 275 276 268
f 277 268 276
f 278 275 268
f 279 278 268
f 280 279 268
f 74 280 268
f 210 74 268
f 281 269 268
f 277 281 268
f 282 283 276
f 284 276 283
f 275 282 276
f 285 277 276
f 286 285 276
f 284 286 276
f 282 287 283
f 288 283 287
f 289 284 283
f 290 289 283
f 291 290 283
f 288 291 283
f 292 293 287
f 294 287 293
f 282 292 287
f 295 288 287
f 296 295 287
f 297 296 287
f 298 297 287
f 294 298 287
f 105 108 293
f 294 293 108
f 292 105 293
f 299 294 108
f 300 299 108
f 301 300 108
f 110 301 108
f 302 303 105
f 304 105 303
f 292 302 105
f 305 105 304
f 306 105 305
f 106 105 306
f 307 303 302
f 304 303 307
f 308 302 292
f 307 302 308
f 282 92 292
f 309 292 92
f 310 292 311
f 309 311 292
f 308 292 310
f 312 92 282
f 313 309 92
f 313 92 96
f 88 92 312
f 314 282 275
f 312 282 314
f 314 275 278
f 279 315 278
f 316 278 315
f 316 314 278
f 317 315 279
f 318 315 317
f 316 315 318
f 317 279 280
f 319 280 74
f 320 317 280
f 319 320 280
f 210 76 74
f 79 319 74
f 202 210 270
f 321 270 271
f 321 202 270
f 322 271 272
f 323 321 271
f 322 323 271
f 324 272 273
f 324 322 272
f 325 273 264
f 325 324 273
f 325 264 221
f 220 325 221
f 326 191 235
f 327 193 191
f 327 191 326
f 328 235 237
f 328 326 235
f 329 237 238
f 330 237 329
f 328 237 330
f 331 238 230
f 329 238 331
f 332 230 233
f 331 230 332
f 332 233 234
f 333 234 226
f 332 234 333
f 334 226 227
f 333 226 334
f 335 227 186
f 334 227 335
f 336 186 194
f 337 186 336
f 335 186 337
f 338 194 195
f 336 194 338
f 339 195 196
f 338 195 339
f 339 196 193
f 339 193 327
f 340 188 228
f 341 178 188
f 342 341 188
f 343 342 188
f 340 343 188
f 344 228 229
f 345 340 228
f 346 345 228
f 347 346 228
f 348 347 228
f 344 348 228
f 349 229 225
f 344 229 349
f 350 225 171
f 349 225 350
f 351 171 172
f 350 171 351
f 352 172 173
f 351 172 352
f 353 173 174
f 352 173 353
f 170 354 174
f 355 174 354
f 353 174 355
f 170 356 354
f 357 354 356
f 355 354 357
f 358 356 170
f 357 356 358
f 359 358 170
f 360 170 179
f 361 359 170
f 360 361 170
f 362 232 239
f 363 165 232
f 363 232 362
f 364 239 240
f 364 362 239
f 365 240 241
f 365 364 240
f 365 241 236
f 365 236 243
f 366 243 244
f 366 365 243
f 366 244 245
f 367 245 242
f 367 366 245
f 367 242 247
f 368 247 248
f 368 367 247
f 368 248 246
f 368 246 250
f 369 250 251
f 369 368 250
f 369 251 249
f 370 249 253
f 370 369 249
f 370 253 254
f 371 254 252
f 371 370 254
f 372 252 256
f 372 371 252
f 372 256 257
f 373 257 255
f 373 372 257
f 374 255 259
f 374 373 255
f 374 259 258
f 375 258 261
f 375 374 258
f 376 261 260
f 376 375 261
f 377 260 263
f 377 376 260
f 377 263 262
f 378 262 267
f 378 377 262
f 379 267 266
f 379 378 267
f 379 266 274
f 380 274 269
f 380 379 274
f 381 269 281
f 381 380 269
f 381 281 277
f 382 277 285
f 382 381 277
f 382 285 286
f 383 286 284
f 383 382 286
f 383 284 289
f 383 289 290
f 384 290 291
f 384 383 290
f 384 291 288
f 385 288 295
f 385 384 288
f 385 295 296
f 386 296 297
f 386 385 296
f 298 387 297
f 386 297 387
f 388 389 387
f 386 387 389
f 298 388 387
f 390 391 389
f 392 389 391
f 388 390 389
f 392 386 389
f 393 394 391
f 392 391 394
f 395 393 391
f 390 395 391
f 396 397 394
f 392 394 397
f 398 396 394
f 399 398 394
f 400 399 394
f 393 400 394
f 401 402 397
f 403 397 402
f 404 401 397
f 396 404 397
f 403 392 397
f 405 406 402
f 407 402 406
f 401 405 402
f 408 403 402
f 408 402 407
f 409 410 406
f 411 406 410
f 405 409 406
f 407 406 411
f 412 413 410
f 414 410 413
f 409 412 410
f 415 411 410
f 414 415 410
f 416 417 413
f 418 413 417
f 412 416 413
f 418 414 413
f 419 420 417
f 418 417 420
f 416 419 417
f 421 420 419
f 422 420 421
f 418 420 422
f 423 419 416
f 424 419 423
f 421 419 424
f 423 416 412
f 425 412 409
f 425 423 412
f 426 409 405
f 426 425 409
f 427 405 401
f 426 405 427
f 428 401 404
f 429 427 401
f 428 429 401
f 430 431 404
f 432 404 431
f 433 430 404
f 434 433 404
f 396 434 404
f 428 404 432
f 435 436 431
f 432 431 436
f 437 435 431
f 430 437 431
f 438 439 436
f 440 436 439
f 435 438 436
f 440 432 436
f 441 116 439
f 440 439 116
f 438 441 439
f 440 116 115
f 441 114 116
f 442 115 118
f 442 440 115
f 442 118 119
f 443 119 120
f 443 442 119
f 443 120 117
f 444 117 122
f 444 443 117
f 444 122 123
f 444 123 124
f 445 124 121
f 445 444 124
f 445 121 126
f 446 126 127
f 446 445 126
f 446 127 125
f 447 125 129
f 447 446 125
f 448 129 128
f 448 447 129
f 448 128 131
f 449 131 130
f 449 448 131
f 450 130 133
f 450 449 130
f 450 133 132
f 451 132 135
f 451 450 132
f 452 135 134
f 452 451 135
f 453 134 137
f 453 452 134
f 453 137 136
f 454 136 139
f 454 453 136
f 455 139 138
f 455 454 139
f 455 138 141
f 456 141 142
f 456 455 141
f 457 142 140
f 457 456 142
f 457 140 144
f 458 144 145
f 458 457 144
f 458 145 143
f 459 143 147
f 459 458 143
f 459 147 148
f 459 148 146
f 460 146 154
f 460 459 146
f 460 154 155
f 461 155 151
f 461 460 155
f 461 151 160
f 462 160 161
f 462 461 160
f 462 161 162
f 462 162 158
f 463 158 166
f 463 462 158
f 463 166 167
f 463 167 168
f 464 168 169
f 463 168 464
f 465 466 169
f 467 169 466
f 165 465 169
f 468 464 169
f 467 468 169
f 469 470 466
f 471 466 470
f 465 469 466
f 467 466 471
f 472 473 470
f 474 470 473
f 469 472 470
f 475 470 474
f 471 470 475
f 476 477 473
f 474 473 477
f 472 476 473
f 478 479 477
f 480 477 479
f 476 478 477
f 474 477 480
f 481 479 478
f 482 479 481
f 482 480 479
f 483 478 476
f 484 478 483
f 481 478 484
f 483 476 472
f 485 472 469
f 485 483 472
f 486 469 465
f 486 485 469
f 487 465 165
f 486 465 487
f 488 487 165
f 363 488 165
f 109 114 441
f 109 441 438
f 113 438 435
f 109 438 113
f 113 435 437
f 112 437 430
f 113 437 112
f 112 430 433
f 111 433 434
f 112 433 111
f 111 434 396
f 110 396 398
f 111 396 110
f 301 398 399
f 110 398 301
f 301 399 400
f 300 400 393
f 301 400 300
f 300 393 395
f 299 395 390
f 300 395 299
f 299 390 388
f 294 388 298
f 299 388 294
f 363 362 364
f 489 364 365
f 490 363 364
f 490 364 489
f 489 365 366
f 491 366 367
f 489 366 491
f 492 367 368
f 491 367 492
f 492 368 369
f 493 369 370
f 492 369 493
f 493 370 371
f 494 371 372
f 493 371 494
f 494 372 373
f 495 373 374
f 494 373 495
f 495 374 375
f 495 375 376
f 496 376 377
f 495 376 496
f 496 377 378
f 497 378 379
f 496 378 497
f 497 379 380
f 498 380 381
f 497 380 498
f 498 381 382
f 499 382 383
f 498 382 499
f 499 383 384
f 500 384 385
f 499 384 500
f 500 385 386
f 501 386 392
f 500 386 501
f 501 392 403
f 501 403 502
f 408 502 403
f 503 487 488
f 504 486 487
f 503 504 487
f 490 488 363
f 490 503 488
f 484 483 485
f 504 485 486
f 504 484 485
f 481 484 504
f 482 504 503
f 482 481 504
f 482 503 505
f 352 505 503
f 352 503 490
f 482 474 480
f 505 475 474
f 482 505 474
f 505 471 475
f 506 471 505
f 506 467 471
f 355 506 505
f 353 355 505
f 352 353 505
f 507 464 468
f 508 463 464
f 507 508 464
f 506 468 467
f 506 507 468
f 509 432 440
f 510 428 432
f 509 510 432
f 509 440 442
f 511 442 443
f 511 509 442
f 511 443 444
f 512 444 445
f 512 511 444
f 512 445 446
f 513 446 447
f 513 512 446
f 513 447 448
f 514 448 449
f 514 513 448
f 514 449 450
f 515 450 451
f 515 514 450
f 515 451 452
f 516 452 453
f 516 515 452
f 516 453 454
f 517 454 455
f 517 516 454
f 517 455 456
f 518 456 457
f 518 517 456
f 518 457 458
f 519 458 459
f 519 518 458
f 519 459 460
f 520 460 461
f 520 519 460
f 520 461 462
f 508 462 463
f 508 520 462
f 521 427 429
f 522 426 427
f 522 427 521
f 510 429 428
f 510 521 429
f 424 423 425
f 522 425 426
f 522 424 425
f 422 522 521
f 523 521 510
f 524 422 521
f 523 524 521
f 421 424 522
f 422 421 522
f 525 510 509
f 526 523 510
f 527 526 510
f 525 527 510
f 525 509 511
f 525 511 512
f 525 512 513
f 525 513 514
f 525 514 515
f 525 515 516
f 525 516 517
f 525 517 518
f 525 518 519
f 525 519 520
f 525 520 508
f 525 508 507
f 358 507 506
f 358 525 507
f 349 501 502
f 528 502 529
f 408 529 502
f 528 349 502
f 349 500 501
f 349 499 500
f 349 498 499
f 349 497 498
f 349 496 497
f 349 495 496
f 349 494 495
f 349 493 494
f 349 492 493
f 349 491 492
f 349 489 491
f 350 490 489
f 349 350 489
f 351 352 490
f 350 351 490
f 357 358 506
f 355 357 506
f 414 422 524
f 418 422 414
f 530 529 524
f 411 524 529
f 523 531 524
f 532 524 531
f 532 530 524
f 415 524 411
f 414 524 415
f 530 528 529
f 407 411 529
f 408 407 529
f 305 531 523
f 304 532 531
f 305 304 531
f 306 523 526
f 306 305 523
f 107 526 527
f 106 526 107
f 106 306 526
f 104 527 525
f 102 527 104
f 107 527 102
f 103 525 358
f 104 525 103
f 99 103 358
f 533 99 358
f 534 358 359
f 535 536 358
f 537 358 536
f 538 535 358
f 534 538 358
f 539 358 537
f 540 533 358
f 539 540 358
f 541 349 528
f 542 344 349
f 541 542 349
f 311 528 530
f 309 528 311
f 313 528 309
f 543 341 528
f 342 528 341
f 544 543 528
f 545 544 528
f 546 547 528
f 548 528 547
f 549 546 528
f 550 549 528
f 551 550 528
f 552 551 528
f 96 552 528
f 313 96 528
f 553 528 342
f 554 541 528
f 553 554 528
f 555 528 548
f 556 545 528
f 557 556 528
f 555 557 528
f 307 530 532
f 310 311 530
f 307 310 530
f 304 307 532
f 307 308 310
f 558 178 341
f 558 179 178
f 559 341 543
f 559 558 341
f 560 543 544
f 559 543 560
f 561 547 544
f 562 544 547
f 563 561 544
f 564 563 544
f 565 564 544
f 566 565 544
f 545 566 544
f 560 544 562
f 567 547 546
f 568 548 547
f 569 568 547
f 561 569 547
f 570 547 567
f 571 547 570
f 571 562 547
f 572 546 549
f 572 567 546
f 573 549 550
f 574 549 573
f 572 549 574
f 573 550 551
f 575 551 552
f 575 573 551
f 576 552 96
f 576 575 552
f 95 577 96
f 576 96 577
f 578 342 343
f 579 553 342
f 578 579 342
f 580 343 340
f 580 578 343
f 581 340 345
f 581 580 340
f 582 345 346
f 582 581 345
f 583 346 347
f 583 582 346
f 584 347 348
f 584 583 347
f 585 348 344
f 584 348 585
f 586 344 542
f 586 585 344
f 587 542 541
f 587 586 542
f 588 541 554
f 588 587 541
f 589 554 553
f 589 588 554
f 579 589 553
f 590 548 568
f 591 555 548
f 591 548 590
f 592 568 569
f 592 590 568
f 206 569 561
f 592 569 206
f 209 561 563
f 206 561 209
f 208 563 564
f 209 563 208
f 207 564 565
f 208 564 207
f 205 565 566
f 207 565 205
f 223 566 545
f 205 566 223
f 222 545 556
f 223 545 222
f 593 556 557
f 222 556 593
f 594 557 555
f 593 557 594
f 594 555 591
f 595 577 95
f 574 576 577
f 572 574 577
f 595 572 577
f 595 95 99
f 574 573 575
f 574 575 576
f 596 567 572
f 597 570 567
f 598 597 567
f 599 598 567
f 600 599 567
f 601 600 567
f 602 601 567
f 596 602 567
f 595 596 572
f 603 595 99
f 533 603 99
f 571 570 597
f 536 604 597
f 605 597 604
f 537 536 597
f 598 537 597
f 605 571 597
f 606 607 604
f 608 604 607
f 536 606 604
f 605 604 608
f 606 179 607
f 609 607 179
f 608 607 609
f 610 360 179
f 611 610 179
f 612 611 179
f 613 612 179
f 606 613 179
f 609 179 558
f 35 359 361
f 614 534 359
f 35 614 359
f 34 361 360
f 34 35 361
f 32 360 610
f 32 34 360
f 29 610 611
f 29 32 610
f 31 611 612
f 31 29 611
f 30 612 613
f 30 31 612
f 26 613 606
f 30 613 26
f 27 606 536
f 27 26 606
f 28 536 535
f 28 27 536
f 615 535 538
f 615 28 535
f 616 538 534
f 616 615 538
f 614 616 534
f 617 537 598
f 618 539 537
f 617 618 537
f 619 598 599
f 619 617 598
f 214 599 600
f 214 619 599
f 213 600 601
f 213 214 600
f 215 601 602
f 215 213 601
f 211 602 596
f 211 215 602
f 212 596 595
f 211 596 212
f 620 595 603
f 620 212 595
f 621 603 533
f 621 620 603
f 622 533 540
f 622 621 533
f 623 540 539
f 623 622 540
f 618 623 539
f 609 558 562
f 560 562 558
f 571 609 562
f 559 560 558
f 608 609 571
f 605 608 571
f 24 28 615
f 33 615 616
f 33 24 615
f 33 616 614
f 33 614 35
f 181 183 24
f 33 181 24
f 180 182 183
f 181 180 183
f 69 212 620
f 69 620 621
f 56 621 622
f 67 69 621
f 56 67 621
f 56 622 623
f 56 623 618
f 56 618 617
f 54 617 619
f 54 56 617
f 54 619 214
f 60 64 67
f 56 60 67
f 59 62 64
f 60 59 64
f 624 317 320
f 624 318 317
f 624 320 319
f 624 319 79
f 625 79 78
f 625 624 79
f 89 78 82
f 625 78 89
f 85 89 82
f 81 85 82
f 590 202 321
f 592 202 590
f 592 206 202
f 220 321 323
f 222 321 220
f 591 590 321
f 594 591 321
f 593 594 321
f 222 593 321
f 325 323 322
f 220 323 325
f 325 322 324
f 316 318 624
f 626 312 314
f 627 626 314
f 628 627 314
f 629 628 314
f 624 629 314
f 316 624 314
f 630 312 626
f 88 312 630
f 630 626 627
f 631 627 628
f 631 630 627
f 632 628 629
f 633 631 628
f 632 633 628
f 625 629 624
f 632 629 625
f 631 88 630
f 633 88 631
f 632 88 633
f 632 89 88
f 632 625 89
f 334 585 586
f 335 584 585
f 334 335 585
f 334 586 587
f 333 587 588
f 333 334 587
f 328 588 589
f 328 333 588
f 328 589 579
f 328 579 578
f 326 578 580
f 328 578 326
f 326 580 581
f 327 581 582
f 327 326 581
f 335 582 583
f 335 327 582
f 335 583 584
f 337 339 327
f 335 337 327
f 336 338 339
f 337 336 339
f 330 332 333
f 328 330 333
f 329 331 332
f 330 329 332
