# https://github.com/mikedh/trimesh
mtllib mtl_push_latch_button
usemtl mtl_push_latch_button
v 0.00931878 -0.01496039 0.01850000
v 0.00875527 -0.01735324 0.01850000
v 0.01480000 -0.01152733 0.01782500
v 0.01480000 -0.01276367 0.01771250
v 0.01480000 -0.01029100 0.01793750
v 0.01480000 -0.01651457 0.01724565
v 0.01480000 -0.01400000 0.01760000
v 0.00500000 -0.02500000 0.01850000
v 0.00819175 -0.01974609 0.01850000
v 0.00988230 -0.01256754 0.01850000
v 0.01480000 -0.00905466 0.01805000
v 0.01480000 -0.00410933 0.01850000
v 0.01480000 -0.00596383 -0.00133125
v 0.01480000 -0.00534566 -0.00138750
v 0.01129109 -0.00658541 -0.00150000
v 0.01480000 -0.00472750 -0.00144375
v 0.01157285 -0.00538899 -0.00150000
v 0.01480000 -0.00658200 -0.00127500
v 0.01100933 -0.00778184 -0.00150000
v 0.01480000 -0.00781833 -0.00116250
v 0.01044582 -0.01017469 -0.00150000
v 0.01480000 -0.00905466 -0.00105000
v 0.00988230 -0.01256754 -0.00150000
v 0.01480000 -0.01029100 -0.00093750
v 0.00931878 -0.01496039 -0.00150000
v 0.01480000 -0.01152733 -0.00082500
v 0.00875527 -0.01735324 -0.00150000
v 0.01480000 -0.01276367 -0.00071250
v 0.00819175 -0.01974609 -0.00150000
v 0.01480000 -0.01400000 -0.00060000
v 0.00762824 -0.02213894 -0.00150000
v 0.01480000 -0.01483141 -0.00056191
v 0.01480000 -0.01565586 -0.00044808
v 0.00751267 -0.02262968 -0.00102638
v 0.01480000 -0.01651457 -0.00024565
v 0.00740286 -0.02309598 -0.00052737
v 0.01480000 -0.01734966 0.00003893
v 0.00729740 -0.02354377 0.00000469
v 0.01480000 -0.01818596 0.00041996
v 0.00719849 -0.02396377 0.00056016
v 0.01480000 -0.01897961 0.00088334
v 0.00710540 -0.02435908 0.00114417
v 0.01480000 -0.01973763 0.00143680
v 0.00701953 -0.02472368 0.00174890
v 0.01480000 -0.02043467 0.00206533
v 0.00694072 -0.02505832 0.00237627
v 0.01480000 -0.02106320 0.00276237
v 0.00686970 -0.02535991 0.00302109
v 0.01480000 -0.02161666 0.00352039
v 0.00680667 -0.02562756 0.00368154
v 0.01480000 -0.02208004 0.00431404
v 0.00675181 -0.02586053 0.00435571
v 0.01480000 -0.02246107 0.00515034
v 0.00670551 -0.02605711 0.00503778
v 0.01480000 -0.02274565 0.00598543
v 0.00666758 -0.02621820 0.00572960
v 0.01480000 -0.02294808 0.00684414
v 0.00663839 -0.02634211 0.00642135
v 0.01480000 -0.02306191 0.00766859
v 0.00661757 -0.02643053 0.00711883
v 0.01480000 -0.02310000 0.00850000
v 0.00660530 -0.02648262 0.00780849
v 0.01480000 -0.02306191 0.00933141
v 0.00660121 -0.02650000 0.00850000
v 0.01480000 -0.02294808 0.01015586
v 0.00660530 -0.02648262 0.00919151
v 0.01480000 -0.02274565 0.01101457
v 0.00661757 -0.02643053 0.00988117
v 0.01480000 -0.02246107 0.01184966
v 0.00663839 -0.02634211 0.01057865
v 0.01480000 -0.02243831 0.01190659
v 0.00666758 -0.02621820 0.01127040
v 0.01480000 -0.02241516 0.01196335
v 0.00666984 -0.02620857 0.01131679
v 0.01480000 -0.02239165 0.01201995
v 0.00667215 -0.02619878 0.01136315
v 0.01480000 -0.02236775 0.01207638
v 0.00667687 -0.02617874 0.01145574
v 0.00667449 -0.02618884 0.01140947
v 0.01480000 -0.02234347 0.01213265
v 0.00667929 -0.02616847 0.01150198
v 0.01480000 -0.02231881 0.01218876
v 0.00668174 -0.02615805 0.01154818
v 0.01480000 -0.02229377 0.01224471
v 0.00668423 -0.02614747 0.01159434
v 0.01480000 -0.02226835 0.01230049
v 0.00668676 -0.02613673 0.01164046
v 0.01480000 -0.02224257 0.01235610
v 0.00668933 -0.02612583 0.01168655
v 0.01480000 -0.02221641 0.01241152
v 0.00669193 -0.02611477 0.01173260
v 0.01480000 -0.02218988 0.01246677
v 0.00669457 -0.02610356 0.01177861
v 0.01480000 -0.02216297 0.01252185
v 0.00669725 -0.02609218 0.01182458
v 0.01480000 -0.02213569 0.01257674
v 0.00669997 -0.02608065 0.01187050
v 0.01480000 -0.02210805 0.01263145
v 0.00670272 -0.02606896 0.01191639
v 0.01480000 -0.02208004 0.01268596
v 0.00670551 -0.02605711 0.01196222
v 0.01480000 -0.02205166 0.01274029
v 0.00670834 -0.02604510 0.01200802
v 0.01480000 -0.02202292 0.01279443
v 0.00671120 -0.02603294 0.01205377
v 0.01480000 -0.02199381 0.01284837
v 0.00671411 -0.02602062 0.01209948
v 0.01480000 -0.02196434 0.01290212
v 0.01480000 -0.02193451 0.01295566
v 0.00671704 -0.02600814 0.01214514
v 0.01480000 -0.02190432 0.01300900
v 0.00672002 -0.02599550 0.01219076
v 0.01480000 -0.02187377 0.01306214
v 0.00672303 -0.02598271 0.01223633
v 0.01480000 -0.02184287 0.01311508
v 0.00672917 -0.02595665 0.01232733
v 0.00672608 -0.02596976 0.01228185
v 0.01480000 -0.02181160 0.01316780
v 0.00673229 -0.02594339 0.01237275
v 0.01480000 -0.02177999 0.01322031
v 0.00673545 -0.02592997 0.01241813
v 0.01480000 -0.02174803 0.01327260
v 0.00673865 -0.02591639 0.01246345
v 0.01480000 -0.02171572 0.01332467
v 0.01480000 -0.02168305 0.01337653
v 0.00674188 -0.02590266 0.01250874
v 0.01480000 -0.02165003 0.01342818
v 0.00674515 -0.02588877 0.01255397
v 0.01480000 -0.02161666 0.01347961
v 0.00674846 -0.02587473 0.01259915
v 0.01480000 -0.02106320 0.01423763
v 0.00675181 -0.02586053 0.01264429
v 0.01480000 -0.02043467 0.01493467
v 0.00680667 -0.02562756 0.01331846
v 0.01480000 -0.02020957 0.01515213
v 0.00686970 -0.02535991 0.01397891
v 0.01480000 -0.01997713 0.01536172
v 0.00691617 -0.02516257 0.01441063
v 0.00689250 -0.02526310 0.01419568
v 0.01480000 -0.01973763 0.01556320
v 0.00694072 -0.02505832 0.01462373
v 0.01480000 -0.01949135 0.01575634
v 0.00696614 -0.02495040 0.01483488
v 0.01480000 -0.01923857 0.01594090
v 0.00699241 -0.02483885 0.01504401
v 0.01480000 -0.01897961 0.01611666
v 0.01480000 -0.01818596 0.01658004
v 0.00701953 -0.02472368 0.01525110
v 0.01480000 -0.01734966 0.01696107
v 0.00710540 -0.02435908 0.01585583
v 0.00719849 -0.02396377 0.01643984
v 0.01480000 -0.00658200 0.01827500
v 0.01480000 -0.00781833 0.01816250
v 0.00729740 -0.02354377 0.01699531
v 0.01480000 -0.01565586 0.01744808
v 0.01480000 -0.00596383 0.01833125
v 0.01480000 -0.00534566 0.01838750
v 0.01480000 -0.00472750 0.01844375
v 0.01480000 -0.01524494 0.01751442
v 0.00740286 -0.02309598 0.01752737
v 0.01480000 -0.01483141 0.01756191
v 0.00751267 -0.02262968 0.01802637
v 0.00745703 -0.02286595 0.01777998
v 0.01480000 -0.01441613 0.01759046
v 0.00756975 -0.02238730 0.01826643
v 0.00762824 -0.02213894 0.01850000
v 0.01044582 -0.01017469 0.01850000
v 0.01100933 -0.00778184 0.01850000
v 0.01129109 -0.00658541 0.01850000
v 0.01157285 -0.00538899 0.01850000
v 0.01185460 -0.00419256 0.01850000
v 0.01213636 -0.00299614 0.01850000
v 0.01480000 -0.00410933 -0.00150000
v 0.01262742 -0.00311923 0.01470000
v 0.00500000 0.00035679 0.01850000
v 0.01185460 -0.00419256 -0.00150000
v 0.01213636 -0.00299614 -0.00150000
v 0.00500000 0.00035679 -0.00150000
v 0.00500000 0.00035679 -0.00000000
v 0.00054905 0.00238520 0.00230000
v 0.01262742 -0.00311923 0.00230000
v 0.00695446 -0.02500000 -0.00150000
v 0.00500000 -0.02500000 -0.00150000
v 0.00678021 -0.02573992 -0.00130481
v 0.00500000 -0.02575000 -0.00129904
v 0.00500000 -0.02500000 -0.00000000
v 0.00664963 -0.02629441 -0.00075796
v 0.00670690 -0.02605121 -0.00107003
v 0.00661335 -0.02644845 -0.00038979
v 0.00660121 -0.02650000 -0.00000000
v 0.00500000 -0.02629902 -0.00075002
v 0.00500000 -0.02650000 -0.00000000
v 0.00660121 -0.02650000 0.01700000
v 0.00500000 -0.02650000 0.01550000
v 0.00500000 -0.02650000 0.00150000
v 0.00346741 -0.02650000 0.00150000
v 0.00664464 -0.02631560 0.01772056
v 0.00500000 -0.02650000 0.01700000
v 0.00669836 -0.02608749 0.01803314
v 0.00500000 -0.02629904 0.01775000
v 0.00677152 -0.02577681 0.01828318
v 0.00685978 -0.02540203 0.01844511
v 0.00500000 -0.02575002 0.01829902
v 0.00695446 -0.02500000 0.01850000
v 0.00500000 -0.02500000 0.01700000
v 0.00500000 -0.02575000 0.01679904
v 0.00500000 0.00035679 0.01700000
v 0.00500000 -0.02629902 0.01625002
v 0.00500000 -0.02629904 0.00075000
v 0.00348825 -0.02630167 0.00075457
v 0.00346741 -0.02650000 0.01550000
v -0.00380000 -0.02495527 0.00150000
v -0.00380000 -0.02476577 0.00077771
v -0.00380000 -0.02495527 0.01550000
v 0.00348845 -0.02629980 0.01624868
v 0.00500000 -0.02575002 0.00020098
v 0.00362506 -0.02500000 -0.00000000
v 0.00129287 0.00013594 -0.00000000
v -0.00380000 -0.00550000 -0.00000000
v -0.00299512 -0.00550000 -0.00000000
v -0.00027029 -0.00127159 -0.00000000
v 0.00112584 -0.00064999 -0.00000000
v 0.00052887 -0.00118756 -0.00000000
v 0.00354598 -0.02575240 0.00020235
v 0.00358410 -0.02538971 0.00005151
v 0.00351314 -0.02606492 0.00044362
v -0.00124990 0.00249127 -0.00000000
v 0.00054905 0.00238520 -0.00000000
v 0.00027029 0.00127159 -0.00000000
v 0.00096613 0.00086983 -0.00000000
v -0.00380000 -0.02342176 -0.00000000
v 0.00003210 0.00255567 -0.00000000
v 0.00029523 0.00248455 -0.00000000
v 0.00029523 0.00248455 0.00230000
v 0.00003210 0.00255567 0.00230000
v -0.00233094 0.00179921 -0.00000000
v -0.00125000 0.00249124 0.00230000
v -0.00112584 0.00064999 -0.00000000
v -0.00292609 0.00066179 -0.00000000
v -0.00233101 0.00179913 0.00230000
v -0.00052887 0.00118756 -0.00000000
v -0.00129287 -0.00013594 -0.00000000
v -0.00293033 0.00064278 -0.00000000
v -0.00292609 0.00066179 0.00230000
v -0.00293444 0.00062374 -0.00000000
v -0.00293033 0.00064278 0.00230000
v -0.00299130 0.00022835 -0.00000000
v -0.00293444 0.00062374 0.00230000
v -0.00299512 -0.00017108 -0.00000000
v -0.00299130 0.00022835 0.00230000
v -0.00299512 -0.00017108 0.00230000
v -0.00096613 -0.00086983 -0.00000000
v -0.00380000 -0.00550000 0.01700000
v -0.00299512 -0.00550000 0.00330000
v -0.00299512 -0.00536608 0.00280009
v -0.00299512 -0.00450000 0.00230000
v -0.00299512 -0.00500000 0.00243397
v -0.00380000 -0.02383161 0.00005457
v -0.00380000 -0.02342176 0.01700000
v 0.00027029 0.00127159 0.00230000
v -0.00052881 0.00118759 0.00230000
v 0.00096617 0.00086978 0.00230000
v 0.00129288 0.00013588 0.00230000
v 0.00112581 -0.00065004 0.00230000
v 0.00052881 -0.00118759 0.00230000
v -0.00027029 -0.00127159 0.00230000
v -0.00096617 -0.00086978 0.00230000
v -0.00129288 -0.00013588 0.00230000
v -0.00112581 0.00065004 0.00230000
v -0.00380000 -0.02421416 0.00021577
v -0.00380000 -0.02453193 0.00046521
v -0.00380000 -0.02417638 0.01680582
v -0.00380000 -0.02449478 0.01657163
v -0.00380000 -0.02474407 0.01625966
v -0.00380000 -0.02490227 0.01589088
v -0.00299512 -0.00550000 0.01700000
v -0.00299512 -0.00550000 0.01370000
v 0.00362506 -0.02500000 0.01700000
v 0.00354627 -0.02574971 0.01679921
v 0.00351362 -0.02606034 0.01656098
v -0.00096617 -0.00086978 0.01700000
v -0.00299512 -0.00017108 0.01700000
v -0.00299512 -0.00499991 0.01456608
v 0.00052881 -0.00118759 0.01700000
v -0.00027029 -0.00127159 0.01700000
v -0.00299512 -0.00536603 0.01420000
v -0.00129288 -0.00013588 0.01700000
v -0.00299130 0.00022835 0.01700000
v -0.00299512 -0.00017108 0.01470000
v -0.00299512 -0.00450000 0.01470000
v -0.00112581 0.00065004 0.01700000
v -0.00293444 0.00062374 0.01700000
v -0.00299130 0.00022835 0.01470000
v -0.00293033 0.00064278 0.01700000
v -0.00293444 0.00062374 0.01470000
v -0.00292609 0.00066179 0.01700000
v -0.00293033 0.00064278 0.01470000
v -0.00052881 0.00118759 0.01700000
v -0.00233101 0.00179913 0.01700000
v -0.00292609 0.00066179 0.01470000
v -0.00125000 0.00249124 0.01700000
v -0.00233094 0.00179921 0.01470000
v 0.00027029 0.00127159 0.01700000
v 0.00029523 0.00248455 0.01700000
v 0.00003210 0.00255567 0.01700000
v -0.00124990 0.00249127 0.01470000
v 0.00054905 0.00238520 0.01700000
v 0.00003210 0.00255567 0.01470000
v 0.00029523 0.00248455 0.01470000
v 0.00054905 0.00238520 0.01470000
v 0.00096617 0.00086978 0.01700000
v 0.00112581 -0.00065004 0.01700000
v 0.00129288 0.00013588 0.01700000
v 0.00027029 0.00127159 0.01470000
v 0.00096613 0.00086983 0.01470000
v -0.00052887 0.00118756 0.01470000
v -0.00112584 0.00064999 0.01470000
v -0.00129287 -0.00013594 0.01470000
v -0.00096613 -0.00086983 0.01470000
v -0.00027029 -0.00127159 0.01470000
v 0.00052887 -0.00118756 0.01470000
v 0.00112584 -0.00064999 0.01470000
v 0.00129287 0.00013594 0.01470000
v 0.01131158 -0.00550000 0.00330000
v 0.01131158 -0.00550000 0.01370000
v 0.01158357 -0.00546230 0.00302802
v 0.01158356 -0.00546230 0.01397199
v 0.01181579 -0.00536358 0.01420422
v 0.01213811 -0.00506289 0.01452652
v 0.01181581 -0.00536358 0.00279579
v 0.01228973 -0.00470791 0.01467815
v 0.01213810 -0.00506289 0.00247347
v 0.01231170 -0.00460455 0.01469452
v 0.01228973 -0.00470791 0.00232185
v 0.01233392 -0.00450000 0.01470000
v 0.01231170 -0.00460455 0.00230548
v 0.01233392 -0.00450000 0.00230000
f 1 2 3
f 4 3 2
f 5 1 3
f 6 3 4
f 6 4 7
f 8 2 1
f 9 4 2
f 8 9 2
f 10 1 5
f 10 8 1
f 6 5 3
f 10 5 11
f 12 13 14
f 15 14 13
f 16 12 14
f 17 16 14
f 15 17 14
f 12 18 13
f 19 13 18
f 19 15 13
f 12 20 18
f 21 18 20
f 19 18 21
f 12 22 20
f 23 20 22
f 21 20 23
f 12 24 22
f 25 22 24
f 23 22 25
f 12 26 24
f 27 24 26
f 25 24 27
f 12 28 26
f 29 26 28
f 27 26 29
f 12 30 28
f 31 28 30
f 31 29 28
f 12 32 30
f 31 30 32
f 12 33 32
f 34 32 33
f 34 31 32
f 12 35 33
f 36 33 35
f 36 34 33
f 12 37 35
f 38 35 37
f 38 36 35
f 12 39 37
f 40 37 39
f 38 37 40
f 12 41 39
f 42 39 41
f 42 40 39
f 12 43 41
f 44 41 43
f 42 41 44
f 12 45 43
f 46 43 45
f 44 43 46
f 12 47 45
f 48 45 47
f 46 45 48
f 12 49 47
f 50 47 49
f 48 47 50
f 12 51 49
f 52 49 51
f 50 49 52
f 12 53 51
f 54 51 53
f 52 51 54
f 12 55 53
f 56 53 55
f 54 53 56
f 12 57 55
f 58 55 57
f 56 55 58
f 12 59 57
f 60 57 59
f 58 57 60
f 12 61 59
f 62 59 61
f 60 59 62
f 12 63 61
f 64 61 63
f 62 61 64
f 12 65 63
f 66 63 65
f 66 64 63
f 12 67 65
f 68 65 67
f 68 66 65
f 12 69 67
f 70 67 69
f 70 68 67
f 12 71 69
f 72 69 71
f 70 69 72
f 12 73 71
f 74 71 73
f 72 71 74
f 12 75 73
f 76 73 75
f 74 73 76
f 12 77 75
f 78 75 77
f 79 75 78
f 76 75 79
f 12 80 77
f 81 77 80
f 78 77 81
f 12 82 80
f 83 80 82
f 81 80 83
f 12 84 82
f 85 82 84
f 83 82 85
f 12 86 84
f 87 84 86
f 85 84 87
f 12 88 86
f 89 86 88
f 87 86 89
f 12 90 88
f 91 88 90
f 89 88 91
f 12 92 90
f 93 90 92
f 91 90 93
f 12 94 92
f 95 92 94
f 93 92 95
f 12 96 94
f 97 94 96
f 95 94 97
f 12 98 96
f 99 96 98
f 97 96 99
f 12 100 98
f 101 98 100
f 99 98 101
f 12 102 100
f 103 100 102
f 101 100 103
f 12 104 102
f 105 102 104
f 103 102 105
f 12 106 104
f 107 104 106
f 105 104 107
f 12 108 106
f 107 106 108
f 12 109 108
f 110 108 109
f 107 108 110
f 12 111 109
f 112 109 111
f 110 109 112
f 12 113 111
f 114 111 113
f 112 111 114
f 12 115 113
f 116 113 115
f 117 113 116
f 114 113 117
f 12 118 115
f 119 115 118
f 116 115 119
f 12 120 118
f 121 118 120
f 119 118 121
f 12 122 120
f 123 120 122
f 121 120 123
f 12 124 122
f 123 122 124
f 12 125 124
f 126 124 125
f 123 124 126
f 12 127 125
f 128 125 127
f 126 125 128
f 12 129 127
f 130 127 129
f 128 127 130
f 12 131 129
f 132 129 131
f 130 129 132
f 12 133 131
f 134 131 133
f 132 131 134
f 12 135 133
f 136 133 135
f 134 133 136
f 12 137 135
f 138 135 137
f 139 135 138
f 136 135 139
f 12 140 137
f 141 137 140
f 138 137 141
f 12 142 140
f 143 140 142
f 141 140 143
f 12 144 142
f 145 142 144
f 143 142 145
f 12 146 144
f 145 144 146
f 12 147 146
f 148 146 147
f 145 146 148
f 12 149 147
f 150 147 149
f 148 147 150
f 12 6 149
f 151 149 6
f 150 149 151
f 6 152 153
f 154 6 155
f 156 152 6
f 157 156 6
f 158 157 6
f 12 158 6
f 151 6 154
f 7 159 155
f 160 155 159
f 7 155 6
f 6 11 5
f 6 153 11
f 154 155 160
f 7 161 159
f 162 159 161
f 163 160 159
f 163 159 162
f 7 164 161
f 165 161 164
f 162 161 165
f 165 164 7
f 9 7 4
f 165 7 166
f 9 166 7
f 167 11 153
f 10 11 167
f 168 153 152
f 167 153 168
f 169 152 156
f 168 152 169
f 170 156 157
f 169 156 170
f 171 157 158
f 170 157 171
f 172 158 12
f 171 158 172
f 16 173 12
f 174 12 173
f 172 12 175
f 174 175 12
f 176 173 16
f 177 173 176
f 178 173 177
f 179 173 178
f 180 173 179
f 181 174 173
f 180 181 173
f 176 16 17
f 178 17 15
f 178 176 17
f 178 15 19
f 178 177 176
f 178 27 29
f 31 178 29
f 178 25 27
f 178 23 25
f 178 21 23
f 178 19 21
f 182 183 178
f 179 178 183
f 31 182 178
f 184 183 182
f 185 183 184
f 186 183 185
f 179 183 186
f 34 182 31
f 184 182 34
f 187 34 36
f 188 184 34
f 187 188 34
f 189 36 38
f 189 187 36
f 190 38 40
f 42 190 40
f 190 189 38
f 185 184 188
f 185 188 187
f 191 187 189
f 191 185 187
f 191 189 190
f 62 64 190
f 192 190 64
f 60 62 190
f 58 60 190
f 56 58 190
f 54 56 190
f 52 54 190
f 50 52 190
f 48 50 190
f 46 48 190
f 44 46 190
f 42 44 190
f 191 190 192
f 193 64 66
f 194 64 193
f 195 192 64
f 196 195 64
f 194 196 64
f 193 66 68
f 193 68 70
f 193 154 160
f 197 193 160
f 163 197 160
f 193 151 154
f 193 150 151
f 193 148 150
f 193 145 148
f 193 143 145
f 193 141 143
f 193 138 141
f 193 139 138
f 193 136 139
f 193 134 136
f 193 132 134
f 193 130 132
f 193 128 130
f 193 126 128
f 193 123 126
f 193 121 123
f 193 119 121
f 193 116 119
f 193 117 116
f 193 114 117
f 193 112 114
f 193 110 112
f 193 107 110
f 193 105 107
f 193 103 105
f 193 101 103
f 193 99 101
f 193 97 99
f 193 95 97
f 193 93 95
f 193 91 93
f 193 89 91
f 193 87 89
f 193 85 87
f 193 83 85
f 193 81 83
f 193 78 81
f 193 79 78
f 193 76 79
f 193 74 76
f 193 72 74
f 193 70 72
f 198 193 197
f 194 193 198
f 162 199 197
f 200 197 199
f 163 162 197
f 200 198 197
f 165 201 199
f 200 199 201
f 162 165 199
f 166 202 201
f 203 201 202
f 165 166 201
f 203 200 201
f 166 204 202
f 203 202 204
f 8 204 166
f 203 204 8
f 8 166 9
f 172 175 8
f 205 8 175
f 171 172 8
f 170 171 8
f 169 170 8
f 168 169 8
f 167 168 8
f 10 167 8
f 206 203 8
f 206 8 205
f 205 175 207
f 174 207 175
f 194 198 200
f 208 200 203
f 208 194 200
f 206 208 203
f 209 192 195
f 209 191 192
f 210 195 196
f 210 209 195
f 194 211 196
f 212 196 211
f 213 210 196
f 212 213 196
f 208 211 194
f 214 212 211
f 215 214 211
f 208 215 211
f 216 185 191
f 216 186 185
f 209 216 191
f 217 186 216
f 218 179 186
f 219 186 217
f 219 220 186
f 221 186 220
f 222 218 186
f 223 222 186
f 221 223 186
f 224 216 209
f 225 217 216
f 224 225 216
f 226 224 209
f 210 226 209
f 227 228 179
f 180 179 228
f 229 227 179
f 230 229 179
f 218 230 179
f 231 219 217
f 225 231 217
f 232 233 228
f 180 228 233
f 227 232 228
f 234 233 232
f 234 180 233
f 235 232 227
f 234 232 235
f 229 236 227
f 237 227 236
f 235 227 237
f 238 239 236
f 240 236 239
f 241 236 229
f 241 238 236
f 237 236 240
f 242 243 239
f 244 239 243
f 238 242 239
f 240 239 244
f 242 245 243
f 246 243 245
f 244 243 246
f 242 247 245
f 248 245 247
f 246 245 248
f 242 249 247
f 250 247 249
f 248 247 250
f 221 220 249
f 251 249 220
f 252 221 249
f 242 252 249
f 250 249 251
f 253 220 219
f 254 220 253
f 255 220 254
f 251 220 256
f 257 256 220
f 257 220 255
f 253 219 231
f 258 231 225
f 259 231 258
f 259 253 231
f 260 229 230
f 261 241 229
f 261 229 260
f 262 230 218
f 260 230 262
f 263 218 222
f 262 218 263
f 264 222 223
f 263 222 264
f 265 223 221
f 264 223 265
f 266 221 252
f 265 221 266
f 267 252 242
f 267 266 252
f 268 242 238
f 267 242 268
f 269 238 241
f 268 238 269
f 269 241 261
f 258 225 224
f 270 224 226
f 270 258 224
f 271 226 210
f 271 270 226
f 213 271 210
f 272 258 270
f 272 259 258
f 273 270 271
f 273 272 270
f 274 271 213
f 274 273 271
f 275 213 212
f 275 274 213
f 214 275 212
f 205 253 259
f 205 276 253
f 277 253 276
f 254 253 277
f 278 259 272
f 205 259 278
f 279 272 273
f 279 278 272
f 280 273 274
f 280 279 273
f 215 274 275
f 215 280 274
f 215 275 214
f 205 278 279
f 206 279 280
f 206 205 279
f 208 280 215
f 206 280 208
f 281 282 276
f 283 276 282
f 205 207 276
f 284 276 207
f 285 281 276
f 284 285 276
f 286 277 276
f 286 276 283
f 287 288 282
f 289 282 288
f 281 287 282
f 283 282 290
f 289 290 282
f 291 292 288
f 293 288 292
f 287 291 288
f 293 289 288
f 291 294 292
f 295 292 294
f 293 292 295
f 291 296 294
f 297 294 296
f 297 295 294
f 298 299 296
f 300 296 299
f 291 298 296
f 297 296 300
f 207 301 299
f 302 299 301
f 303 207 299
f 298 303 299
f 302 300 299
f 304 305 301
f 306 301 305
f 307 304 301
f 207 307 301
f 302 301 306
f 308 305 304
f 306 305 308
f 309 304 307
f 308 304 309
f 174 307 207
f 310 307 174
f 309 307 310
f 311 207 303
f 312 284 207
f 313 312 207
f 311 313 207
f 314 303 298
f 315 311 303
f 315 303 314
f 316 298 291
f 314 298 316
f 317 291 287
f 316 291 317
f 318 287 281
f 317 287 318
f 319 281 285
f 318 281 319
f 320 285 284
f 319 285 320
f 321 284 312
f 321 320 284
f 322 312 313
f 321 312 322
f 323 313 311
f 322 313 323
f 323 311 315
f 324 254 277
f 325 324 277
f 286 325 277
f 326 254 324
f 255 254 326
f 327 324 325
f 326 324 327
f 286 327 325
f 286 328 327
f 326 327 328
f 283 329 328
f 330 328 329
f 286 283 328
f 326 328 330
f 283 331 329
f 332 329 331
f 330 329 332
f 290 333 331
f 181 331 333
f 283 290 331
f 181 334 331
f 332 331 334
f 290 335 333
f 181 333 335
f 174 335 290
f 181 335 174
f 302 290 289
f 322 174 290
f 302 306 290
f 317 290 306
f 319 320 290
f 321 290 320
f 318 319 290
f 317 318 290
f 321 322 290
f 302 289 293
f 297 293 295
f 297 300 293
f 302 293 300
f 315 310 174
f 323 315 174
f 322 323 174
f 314 309 310
f 315 314 310
f 316 308 309
f 314 316 309
f 317 306 308
f 316 317 308
f 181 336 334
f 257 334 336
f 257 332 334
f 181 337 336
f 257 336 337
f 180 337 181
f 263 337 180
f 266 256 337
f 257 337 256
f 265 266 337
f 264 265 337
f 263 264 337
f 260 180 234
f 262 263 180
f 260 262 180
f 240 251 256
f 237 240 256
f 268 237 256
f 267 256 266
f 267 268 256
f 244 250 251
f 240 244 251
f 246 248 250
f 244 246 250
f 261 235 237
f 269 261 237
f 268 269 237
f 260 234 235
f 261 260 235
f 255 330 332
f 257 255 332
f 255 326 330

