# https://github.com/mikedh/trimesh
mtllib mtl_push_latch_handle
usemtl mtl_push_latch_handle
v -0.00900000 -0.04350000 0.01160000
v -0.00900000 -0.04350000 0.00940000
v -0.00900000 -0.04898870 0.00940000
v 0.00100000 -0.04700000 0.00940000
v -0.00900000 -0.04898870 0.01160000
v -0.00889932 -0.04928961 0.00940000
v 0.00100000 -0.05223293 0.00940000
v -0.00885355 -0.04314644 0.01160000
v 0.00300000 -0.04700000 0.00940000
v -0.00885356 -0.04314645 0.00940000
v 0.00100000 -0.04731726 0.01160000
v -0.00400000 -0.04300000 0.01160000
v -0.00889932 -0.04928961 0.01160000
v -0.00863782 -0.04946933 0.00940000
v 0.00100000 -0.05223293 0.01160000
v -0.00863782 -0.04946933 0.01160000
v 0.00100000 -0.05223293 0.00660000
v 0.00250000 -0.05266305 0.01380000
v 0.00300000 -0.04700000 0.00660000
v 0.00100000 -0.04700000 0.00660000
v 0.00100000 -0.03350000 0.00940000
v 0.00300000 -0.03350000 0.00940000
v 0.00100000 -0.03800000 0.00940000
v 0.00033014 -0.04049999 0.00940000
v -0.00149997 -0.04233011 0.00940000
v -0.00400000 -0.04300000 0.00940000
v -0.00850000 -0.04300000 0.00940000
v 0.00100000 -0.03350000 0.01160000
v 0.00300000 -0.03350000 0.01160000
v 0.00300000 -0.02228296 0.01425000
v 0.00300000 -0.03350000 0.00660000
v 0.00100000 -0.03800000 0.01160000
v 0.00033011 -0.04050003 0.01160000
v -0.00150002 -0.04233013 0.01160000
v -0.00850000 -0.04300000 0.01160000
v 0.00100000 -0.05223293 0.00220000
v 0.00250000 -0.05266305 0.00220000
v 0.00350000 -0.05266305 0.01380000
v 0.00100000 -0.05223293 0.00440000
v 0.00100000 -0.05223293 0.01380000
v 0.00350000 -0.05000000 0.01380000
v 0.00350000 -0.05266305 0.00220000
v 0.00100000 -0.04731726 0.00440000
v 0.00350000 -0.05000000 0.00220000
v 0.00100000 -0.04928314 0.00220000
v -0.00863782 -0.04946933 0.00440000
v -0.00889932 -0.04928961 0.00440000
v -0.00900000 -0.04898870 0.00440000
v -0.00863782 -0.04946933 0.00660000
v -0.00889932 -0.04928961 0.00660000
v 0.00100000 -0.04928314 0.01380000
v 0.00100000 -0.04731726 0.01380000
v 0.00100000 -0.04928314 0.01600000
v -0.00863782 -0.04651954 0.01600000
v -0.00863782 -0.04651954 0.01380000
v 0.00562477 -0.05000000 0.01750000
v 0.00350000 -0.05000000 0.01750000
v 0.00100000 -0.04928314 0.01750000
v 0.00350000 -0.05000000 -0.00150000
v 0.00551436 -0.04988691 0.01781670
v 0.00352033 -0.04985536 0.01785174
v 0.00562477 -0.05000000 -0.00150000
v 0.00575619 -0.04275053 -0.00150000
v 0.00575619 -0.04275053 0.01750000
v 0.00565360 -0.03550000 0.01785351
v 0.00352051 -0.04985407 -0.00185304
v 0.00551437 -0.04988691 -0.00181670
v 0.00100000 -0.04928314 0.00000000
v 0.00100000 -0.04928314 -0.00150000
v 0.00100000 -0.04914254 -0.00184189
v 0.00100000 -0.03900000 0.00000000
v -0.00863782 -0.04651954 0.00220000
v -0.00863782 -0.04651954 0.00000000
v -0.00889932 -0.04633981 0.00000000
v 0.00033014 -0.04149998 0.00000000
v -0.00149997 -0.04333011 0.00000000
v -0.00400000 -0.04400000 0.00000000
v -0.00850000 -0.04400000 0.00000000
v -0.00885356 -0.04414646 0.00000000
v -0.00900000 -0.04450000 0.00000000
v -0.00900000 -0.04603891 0.00000000
v -0.00889932 -0.04633981 0.00220000
v -0.00850000 -0.04400000 0.00220000
v -0.00885355 -0.04414644 0.00220000
v 0.00100000 -0.04731726 0.00220000
v -0.00100000 -0.04300000 0.00220000
v -0.00400000 -0.04400000 0.00220000
v -0.00241877 -0.04374338 0.00220000
v 0.00100000 -0.04897215 -0.00195780
v 0.00354323 -0.04969242 -0.00196149
v 0.00535948 -0.04972828 -0.00194484
v 0.00100000 -0.04876299 -0.00200000
v 0.00357027 -0.04950000 -0.00200000
v 0.00513660 -0.04950000 -0.00200000
v 0.00525922 -0.04250048 -0.00200000
v 0.00100000 -0.00282843 -0.00200000
v 0.00100000 -0.00282843 0.00000000
v 0.00100000 -0.02228296 0.00175000
v 0.00100000 -0.02228296 0.00000000
v 0.00565362 -0.03550000 -0.00185349
v 0.00580000 -0.03550000 -0.00150000
v 0.00554673 -0.01806840 -0.00150000
v 0.00580000 -0.03550000 0.01750000
v 0.00530009 -0.03550000 -0.00200000
v 0.00529688 -0.01807566 -0.00193299
v 0.00547978 -0.01807035 -0.00174998
v 0.00504702 -0.01808292 -0.00200000
v 0.00244946 -0.00173210 -0.00200000
v 0.00428801 -0.00068055 -0.00200000
v 0.00464093 -0.00066002 -0.00185356
v 0.00267301 0.00136199 -0.00200000
v 0.00345652 0.00192265 -0.00200000
v 0.00300000 0.00000000 -0.00200000
v 0.00046930 0.00296306 -0.00200000
v 0.00257799 0.00299451 -0.00200000
v 0.00410250 0.00147356 -0.00185356
v 0.00176337 0.00242704 -0.00200000
v -0.00923452 0.00450000 -0.00200000
v 0.00144940 0.00381836 -0.00200000
v 0.00281434 0.00325759 -0.00185356
v -0.00120274 0.00450000 -0.00200000
v 0.00095851 0.00443995 -0.00185356
v -0.01110611 0.00479643 -0.00190265
v -0.00120274 0.00485355 -0.00185356
v -0.00900000 0.00446286 0.00000000
v -0.01239140 0.00500000 0.00000000
v 0.00046930 0.00296306 0.00000000
v 0.00176338 0.00242704 0.00000000
v 0.00267301 0.00136198 0.00000000
v 0.00300000 0.00000000 0.00000000
v 0.00244952 -0.00173200 0.00000000
v 0.00022446 -0.01752220 0.00325000
v 0.00068542 -0.01922707 0.00000000
v 0.00100000 -0.03900000 0.00175000
v 0.00300000 -0.02228296 0.00175000
v 0.00100000 -0.02228296 0.00325000
v 0.00300000 -0.04300000 0.00175000
v 0.00047218 -0.04123598 0.00175000
v -0.00900000 -0.00814082 0.00000000
v -0.00095454 -0.00095465 0.00000000
v -0.00622374 -0.00945604 0.00000000
v -0.00377371 -0.01130921 0.00000000
v -0.00175253 -0.01362273 0.00000000
v -0.00024509 -0.01629944 0.00000000
v -0.00000011 -0.00135000 0.00000000
v -0.00943288 -0.00799515 0.00001139
v 0.00000011 0.00135000 0.00000000
v -0.00135000 0.00000000 0.00000000
v -0.00095457 0.00095462 0.00000000
v -0.00900000 0.00500000 0.00000000
v -0.00987000 -0.00786273 0.00325000
v -0.00550671 -0.00991914 0.00325000
v -0.00202196 -0.01325375 0.00325000
v 0.00135000 0.00000000 0.00000000
v 0.00095457 -0.00095462 0.00000000
v 0.00095454 0.00095465 0.00000000
v 0.00135000 0.00000000 0.00325000
v 0.00095457 0.00095462 0.00325000
v 0.00095454 -0.00095465 0.00325000
v 0.00000011 -0.00135000 0.00325000
v -0.00095457 -0.00095462 0.00325000
v -0.00135000 0.00000000 0.00325000
v -0.00095454 0.00095465 0.00325000
v -0.00000011 0.00135000 0.00325000
v -0.01196824 0.00493298 -0.00175006
v -0.01225608 0.00497857 -0.00164482
v -0.01235106 0.00499361 -0.00157967
v -0.01238341 0.00499874 -0.00153554
v -0.01239140 0.00500000 -0.00150000
v -0.00120274 0.00500000 -0.00150000
v 0.00169605 0.00425329 -0.00150000
v -0.00866849 0.00500000 0.00000000
v -0.00866849 0.00500000 0.01600000
v -0.00120274 0.00500000 0.01750000
v 0.00169605 0.00425329 0.01750000
v -0.00900000 0.00505251 0.00000000
v -0.01239140 0.00500000 0.01750000
v -0.00900000 0.00500000 0.01600000
v -0.00900000 0.00505251 0.01600000
v -0.01238341 0.00499874 0.01753554
v 0.00095851 0.00443995 0.01785356
v -0.00120274 0.00485355 0.01785356
v -0.01196824 0.00493298 0.01775006
v -0.01225608 0.00497857 0.01764482
v -0.01235106 0.00499361 0.01757967
v -0.01239140 0.00500000 0.01600000
v -0.00900000 0.00446286 0.01600000
v -0.04150000 0.01020000 0.01514474
v -0.04150000 0.01020000 0.00085526
v -0.04292383 0.01038750 0.00089273
v -0.00900000 -0.00814082 0.01600000
v -0.00943288 -0.00799515 0.01598861
v -0.00987000 -0.00786273 0.01597711
v -0.04292378 0.01038748 0.01510727
v -0.00987000 -0.00786273 0.00002289
v -0.04700000 0.00492216 0.00100000
v 0.00046930 0.00296306 0.01600000
v -0.00923452 0.00450000 0.01800000
v -0.01110612 0.00479643 0.01790265
v -0.00550678 -0.00991909 0.01275000
v 0.00100000 -0.00282843 0.01600000
v 0.00244946 -0.00173210 0.01600000
v 0.00000011 -0.00135000 0.01600000
v -0.00622374 -0.00945604 0.01600000
v -0.00095454 0.00095465 0.01600000
v -0.00095457 -0.00095462 0.01600000
v -0.00135000 0.00000000 0.01600000
v -0.04425042 0.01093710 0.01507236
v -0.04700000 0.00492216 0.01500000
v -0.00987000 -0.00786273 0.01275000
v -0.04626337 0.01295041 0.01501939
v -0.04700007 0.01570000 0.01500000
v -0.05070158 0.00768658 0.01500000
v -0.04678464 0.00484801 0.01275000
v -0.04700000 0.00492216 0.01275894
v -0.04700007 0.01570000 0.00100000
v -0.04700000 0.02136396 0.01500000
v -0.05400000 0.01614713 0.01500000
v -0.05314625 0.01160677 0.01500000
v -0.04425047 0.01093713 0.00092764
v -0.04626341 0.01295047 0.00098062
v 0.00095454 -0.00095465 0.01600000
v 0.00300000 0.00000000 0.01600000
v 0.00300000 0.00000000 0.01800000
v 0.00135000 0.00000000 0.01600000
v 0.00267301 0.00136199 0.01600000
v 0.00267301 0.00136198 0.01800000
v 0.00244952 -0.00173200 0.01800000
v 0.00068542 -0.01922706 0.01600000
v 0.00100000 -0.02228296 0.01600000
v 0.00100000 -0.00282843 0.01800000
v -0.00024509 -0.01629944 0.01600000
v -0.00175257 -0.01362268 0.01600000
v -0.00377371 -0.01130921 0.01600000
v 0.00100000 -0.02228296 0.01425000
v 0.00100000 -0.03900000 0.01600000
v 0.00100000 -0.03900000 0.01425000
v 0.00022443 -0.01752212 0.01275000
v 0.00100000 -0.02228296 0.01275000
v -0.00202183 -0.01325393 0.01275000
v 0.00176337 0.00242704 0.01600000
v 0.00046930 0.00296306 0.01800000
v -0.00000011 0.00135000 0.01600000
v 0.00176338 0.00242704 0.01800000
v 0.00095457 0.00095462 0.01600000
v -0.00135000 0.00000000 0.01275000
v -0.00095457 0.00095462 0.01275000
v -0.00095454 -0.00095465 0.01275000
v -0.00000011 -0.00135000 0.01275000
v 0.00095457 -0.00095462 0.01275000
v 0.00135000 0.00000000 0.01275000
v 0.00095454 0.00095465 0.01275000
v 0.00000011 0.00135000 0.01275000
v 0.00428797 -0.00068056 0.01800000
v 0.00504699 -0.01808292 0.01800000
v 0.00100000 -0.04876299 0.01800000
v 0.00345345 0.00192752 0.01800000
v 0.00525919 -0.04250048 0.01800000
v 0.00530005 -0.03550000 0.01800000
v 0.00535916 -0.04972798 0.01794500
v 0.00357027 -0.04950000 0.01800000
v 0.00513657 -0.04950000 0.01800000
v 0.00354317 -0.04969285 0.01796131
v 0.00100000 -0.04897407 0.01795698
v 0.00256544 0.00300635 0.01800000
v -0.00120274 0.00450000 0.01800000
v 0.00144436 0.00382114 0.01800000
v 0.00281434 0.00325759 0.01785356
v 0.00410250 0.00147356 0.01785356
v 0.00529686 -0.01807566 0.01793300
v 0.00464093 -0.00066002 0.01785356
v 0.00547978 -0.01807035 0.01774999
v 0.00554673 -0.01806840 0.01750000
v 0.00478713 -0.00065152 -0.00150000
v 0.00478713 -0.00065152 0.01750000
v 0.00387331 0.00219901 -0.00150000
v 0.00387331 0.00219901 0.01750000
v 0.00100000 -0.04914092 0.01784356
v -0.00889932 -0.04633981 0.01600000
v -0.00241896 -0.04374345 0.01380000
v -0.00400000 -0.04400000 0.01380000
v -0.00850000 -0.04400000 0.01380000
v -0.00885356 -0.04414646 0.01380000
v -0.00889932 -0.04633981 0.01380000
v -0.00150002 -0.04333014 0.01600000
v 0.00033011 -0.04150003 0.01600000
v 0.00300000 -0.04300000 0.01380000
v 0.00300000 -0.04731726 0.01380000
v 0.00300000 -0.04731726 0.01160000
v -0.00100000 -0.04300000 0.01380000
v 0.00300000 -0.04300000 0.01425000
v -0.00100000 -0.04300000 0.01425000
v -0.00400000 -0.04400000 0.01600000
v -0.00850000 -0.04400000 0.01600000
v -0.00900000 -0.04603891 0.01380000
v -0.00900000 -0.04450000 0.01380000
v -0.00885355 -0.04414644 0.01600000
v -0.00900000 -0.04603891 0.01600000
v -0.00900000 -0.04450000 0.01600000
v 0.00300000 -0.03350000 0.00440000
v 0.00100000 -0.03350000 0.00660000
v 0.00033011 -0.04050003 0.00660000
v 0.00100000 -0.03800000 0.00660000
v 0.00300000 -0.04731726 0.00220000
v 0.00300000 -0.04731726 0.00440000
v 0.00100000 -0.03350000 0.00440000
v 0.00300000 -0.04300000 0.00220000
v 0.00300000 -0.02228296 0.00325000
v 0.00300000 -0.02228296 0.01275000
v 0.00100000 -0.03800000 0.00440000
v 0.00033014 -0.04049999 0.00440000
v -0.00149997 -0.04233011 0.00440000
v -0.00400000 -0.04300000 0.00440000
v -0.00850000 -0.04300000 0.00440000
v -0.00900000 -0.04350000 0.00440000
v -0.00885356 -0.04314645 0.00440000
v -0.00100000 -0.04300000 0.00175000
v 0.00300000 0.00000000 0.01275000
v 0.00300000 -0.00000000 0.00325000
v 0.00259804 0.00150007 0.00325000
v 0.00150002 0.00259806 0.00325000
v 0.00259806 0.00150002 0.01275000
v 0.00047209 -0.04123615 0.01425000
v -0.00900000 -0.04898870 0.00660000
v -0.00900000 -0.04350000 0.00660000
v -0.00400000 -0.04300000 0.00660000
v -0.00150002 -0.04233013 0.00660000
v -0.00885355 -0.04314644 0.00660000
v -0.00850000 -0.04300000 0.00660000
v -0.00900000 -0.04450000 0.00220000
v -0.00900000 -0.04603891 0.00220000
v -0.04678464 0.00484801 0.00325000
v -0.04700000 0.00492216 0.00324106
v -0.00562967 0.00300000 0.00325000
v -0.01729752 0.00484801 0.00325000
v -0.05314625 0.01160677 0.00100000
v -0.05400000 0.01614713 0.00100000
v -0.05400000 0.02136396 0.00100000
v -0.04700000 0.02136396 0.00100000
v -0.04700000 0.02518198 0.00481802
v -0.04700000 0.01935606 0.00885906
v -0.04700000 0.02200000 0.00522000
v -0.04700000 0.02036590 0.00575098
v -0.04700000 0.01935604 0.00714100
v -0.05048304 0.00745490 0.00293582
v -0.05070159 0.00768659 0.00100000
v -0.04955867 0.01107111 0.00250000
v -0.04213789 0.00658501 0.00304066
v -0.04640681 0.00794219 0.00287709
v 0.00000000 0.00300000 0.00325000
v 0.00000000 0.00300000 0.01275000
v 0.00150007 0.00259804 0.01275000
v -0.01729752 0.00484801 0.00700000
v -0.04213789 0.00658501 0.00700000
v -0.00562967 0.00300000 0.01275000
v -0.01729752 0.00484801 0.01275000
v -0.01729752 0.00484801 0.00900000
v -0.03760167 0.00806387 0.00900000
v -0.03760167 0.00806387 0.00700000
v -0.04150000 0.00820000 0.00700000
v -0.04150000 0.00820000 0.00900000
v -0.04213789 0.00658501 0.00900000
v -0.04213789 0.00658501 0.01295934
v -0.04635082 0.00790844 0.01311884
v -0.04955867 0.01107111 0.01350000
v -0.05050993 0.00748277 0.01306754
v -0.04664712 0.00809310 0.00900000
v -0.05292296 0.01107111 0.01350000
v -0.05031803 0.01258990 0.01350000
v -0.04986067 0.01159712 0.00900000
v -0.05349052 0.01261479 0.01350000
v -0.05079487 0.01421961 0.01350000
v -0.04524997 0.00920479 0.00900000
v -0.04799517 0.01194996 0.00900000
v -0.04525004 0.00920483 0.00700000
v -0.04900000 0.01570000 0.00900000
v -0.04799521 0.01195003 0.00700000
v -0.04900000 0.01621961 0.00900000
v -0.04900000 0.01621961 0.00700000
v -0.04900000 0.01570000 0.00700000
v -0.05097390 0.01621961 0.00900000
v -0.05400000 0.01621961 0.00450000
v -0.05097390 0.01621961 0.00700000
v -0.05097390 0.01621961 0.01150000
v -0.05093734 0.01521441 0.01323504
v -0.05097485 0.01615044 0.01202144
v -0.05097454 0.01594803 0.01250627
v -0.04660277 0.00806449 0.00700000
v -0.04981075 0.01150460 0.00700000
v -0.05097488 0.01614075 0.00700000
v -0.05097521 0.01606187 0.00700000
v -0.05031803 0.01258990 0.00250000
v -0.05097521 0.01606187 0.00372149
v -0.05097028 0.01575589 0.00321943
v -0.05079487 0.01421961 0.00250000
v -0.05089017 0.01479363 0.00258414
v -0.05094618 0.01531986 0.00282983
v -0.05097455 0.01617986 0.00410322
v -0.05097390 0.01621961 0.00450000
v -0.05399702 0.01587407 0.00337628
v -0.05400000 0.01614713 0.00396645
v -0.05292296 0.01107111 0.00250000
v -0.05385049 0.01421961 0.00250000
v -0.05393331 0.01485761 0.00260449
v -0.05397931 0.01542816 0.00290645
v -0.05400000 0.01620141 0.00423077
v -0.05349052 0.01261479 0.00250000
v -0.05400000 0.02518198 0.00481802
v -0.05400000 0.01621961 0.01150000
v -0.05400000 0.01935606 0.00714094
v -0.05400000 0.02200000 0.00522000
v -0.05400000 0.02036593 0.00575095
v -0.05394237 0.02169351 0.00100000
v -0.04705831 0.02169551 0.00100000
v -0.05380677 0.02192234 0.00100000
v -0.04719402 0.02192320 0.00100000
v -0.04714644 0.02543198 0.00456802
v -0.05350000 0.02207107 0.00100000
v -0.04750000 0.02207107 0.00100000
v -0.04750000 0.02553553 0.00446447
v -0.05350000 0.02553553 0.00446447
v -0.05385356 0.02543198 0.00456802
v -0.04700000 0.02200000 0.01078000
v -0.04700000 0.02518198 0.01118198
v -0.04714644 0.02543198 0.01143198
v -0.04700000 0.02036593 0.01024905
v -0.05400000 0.02136396 0.01500000
v -0.04705763 0.02169351 0.01500000
v -0.04700000 0.02363410 0.01024902
v -0.04700000 0.02624978 0.00947982
v -0.04700000 0.02464396 0.00885900
v -0.04700000 0.02646815 0.00746525
v -0.04714644 0.02685355 0.00800000
v -0.04714644 0.02648410 0.00985737
v -0.04700000 0.02464394 0.00714094
v -0.04700000 0.02603645 0.00601046
v -0.04714644 0.02648410 0.00614263
v -0.04700000 0.02363407 0.00575095
v -0.04750000 0.02200000 0.00572000
v -0.04750000 0.02065983 0.00615545
v -0.04750000 0.02416838 0.00729534
v -0.04750000 0.02334004 0.00615536
v -0.04750000 0.02416843 0.00870450
v -0.04750000 0.02334017 0.00984455
v -0.04750000 0.02200000 0.01028000
v -0.04750000 0.01983162 0.00870466
v -0.04750000 0.02065996 0.00984464
v -0.04750000 0.01983157 0.00729550
v -0.05400000 0.02518198 0.01118198
v -0.05385049 0.01421961 0.01350000
v -0.05393321 0.01485671 0.01339582
v -0.05397927 0.01542748 0.01309407
v -0.05399702 0.01587429 0.01262341
v -0.05400000 0.01614713 0.01203355
v -0.05394169 0.02169551 0.01500000
v -0.04719323 0.02192234 0.01500000
v -0.05380598 0.02192320 0.01500000
v -0.05385356 0.02543198 0.01143198
v -0.04750000 0.02207107 0.01500000
v -0.05350000 0.02207107 0.01500000
v -0.05350000 0.02553553 0.01153553
v -0.04750000 0.02553553 0.01153553
v -0.05400000 0.01620141 0.01176923
v -0.05400000 0.02200000 0.01078000
v -0.05400000 0.02036590 0.01024902
v -0.05400000 0.01935604 0.00885900
v -0.05400000 0.02363410 0.00575098
v -0.05400000 0.02624978 0.00652019
v -0.05400000 0.02464396 0.00714100
v -0.05400000 0.02646815 0.00853475
v -0.05385356 0.02685355 0.00800000
v -0.05385356 0.02648410 0.00614263
v -0.05400000 0.02464394 0.00885906
v -0.05400000 0.02603645 0.00998954
v -0.05385356 0.02648410 0.00985737
v -0.05400000 0.02363407 0.01024905
v -0.05350000 0.02200000 0.01028000
v -0.05350000 0.02065983 0.00984455
v -0.05350000 0.02416838 0.00870466
v -0.05350000 0.02334004 0.00984464
v -0.05350000 0.02416843 0.00729550
v -0.05350000 0.02334017 0.00615545
v -0.05350000 0.02200000 0.00572000
v -0.05350000 0.01983162 0.00729534
v -0.05350000 0.02065996 0.00615536
v -0.05350000 0.01983157 0.00870450
v -0.05350000 0.02682963 0.00670590
v -0.04750000 0.02682963 0.00670590
v -0.04750000 0.02682963 0.00929410
v -0.05350000 0.02682963 0.00929410
f 1 2 3
f 4 3 2
f 5 1 3
f 6 5 3
f 4 7 3
f 6 3 7
f 8 2 1
f 9 4 2
f 10 9 2
f 8 10 2
f 11 1 5
f 12 1 11
f 12 8 1
f 13 5 6
f 13 11 5
f 6 7 14
f 15 14 7
f 13 6 14
f 15 16 14
f 13 14 16
f 17 7 4
f 17 18 7
f 15 7 18
f 19 4 9
f 20 17 4
f 20 4 19
f 21 22 9
f 19 9 22
f 23 21 9
f 24 23 9
f 25 24 9
f 26 25 9
f 27 26 9
f 10 27 9
f 28 22 21
f 29 22 28
f 30 22 29
f 31 19 22
f 30 31 22
f 28 21 23
f 32 23 24
f 32 28 23
f 33 24 25
f 32 24 33
f 34 25 26
f 33 25 34
f 12 26 27
f 34 26 12
f 35 27 10
f 12 27 35
f 35 10 8
f 36 37 18
f 38 18 37
f 39 36 18
f 17 39 18
f 40 15 18
f 41 40 18
f 41 18 38
f 42 37 36
f 42 38 37
f 43 36 39
f 44 42 36
f 45 44 36
f 43 45 36
f 17 46 39
f 47 39 46
f 48 43 39
f 47 48 39
f 17 49 46
f 50 46 49
f 47 46 50
f 20 49 17
f 50 49 20
f 11 16 15
f 13 16 11
f 51 15 40
f 52 15 51
f 11 15 52
f 41 51 40
f 42 41 38
f 53 51 41
f 54 55 51
f 52 51 55
f 53 54 51
f 44 41 42
f 56 41 44
f 56 57 41
f 58 41 57
f 53 41 58
f 59 56 44
f 45 59 44
f 60 57 56
f 61 57 60
f 58 57 61
f 59 62 56
f 63 56 62
f 64 56 63
f 65 56 64
f 65 60 56
f 66 62 59
f 67 62 66
f 63 62 67
f 68 69 59
f 70 59 69
f 45 68 59
f 70 66 59
f 71 69 68
f 71 70 69
f 72 73 68
f 74 68 73
f 45 72 68
f 75 71 68
f 76 68 77
f 78 77 68
f 75 68 76
f 79 78 68
f 80 79 68
f 81 80 68
f 74 81 68
f 82 73 72
f 74 73 82
f 83 72 45
f 84 82 72
f 83 84 72
f 85 45 43
f 86 45 85
f 87 83 45
f 88 87 45
f 86 88 45
f 89 90 66
f 91 66 90
f 70 89 66
f 91 67 66
f 92 93 90
f 91 90 93
f 89 92 90
f 94 93 92
f 94 91 93
f 71 92 89
f 95 94 92
f 96 95 92
f 97 96 92
f 98 99 92
f 97 92 99
f 71 98 92
f 71 89 70
f 100 67 91
f 101 63 67
f 100 101 67
f 100 91 94
f 95 100 94
f 64 63 101
f 102 101 100
f 64 101 103
f 102 103 101
f 95 104 100
f 105 100 104
f 106 102 100
f 105 106 100
f 96 104 95
f 96 107 104
f 105 104 107
f 108 109 107
f 110 107 109
f 96 108 107
f 105 107 110
f 111 112 109
f 110 109 112
f 113 111 109
f 108 113 109
f 114 115 112
f 116 112 115
f 117 114 112
f 111 117 112
f 110 112 116
f 118 119 115
f 120 115 119
f 114 118 115
f 116 115 120
f 118 121 119
f 122 119 121
f 120 119 122
f 123 121 118
f 124 121 123
f 122 121 124
f 125 118 114
f 126 118 125
f 126 123 118
f 127 114 117
f 125 114 127
f 128 117 111
f 128 127 117
f 129 111 113
f 128 111 129
f 130 113 108
f 129 113 130
f 131 108 96
f 130 108 131
f 131 96 97
f 132 99 98
f 133 97 99
f 132 133 99
f 71 134 98
f 135 98 134
f 136 98 135
f 132 98 136
f 75 134 71
f 135 134 137
f 138 137 134
f 75 138 134
f 139 125 97
f 140 97 125
f 141 139 97
f 142 141 97
f 143 142 97
f 144 143 97
f 133 144 97
f 145 131 97
f 140 145 97
f 128 125 127
f 146 125 139
f 128 129 125
f 147 125 129
f 148 140 125
f 149 148 125
f 147 149 125
f 150 126 125
f 146 150 125
f 151 139 141
f 151 146 139
f 152 141 142
f 152 151 141
f 153 142 143
f 153 152 142
f 153 143 144
f 132 144 133
f 132 153 144
f 154 130 131
f 155 154 131
f 145 155 131
f 156 129 130
f 156 130 154
f 156 147 129
f 157 154 155
f 158 156 154
f 158 154 157
f 159 155 145
f 159 157 155
f 160 145 140
f 159 145 160
f 161 140 148
f 160 140 161
f 162 148 149
f 161 148 162
f 163 149 147
f 162 149 163
f 164 147 156
f 163 147 164
f 164 156 158
f 126 165 123
f 124 123 165
f 126 166 165
f 124 165 166
f 126 167 166
f 124 166 167
f 126 168 167
f 124 167 168
f 126 169 168
f 124 168 169
f 170 169 126
f 124 169 170
f 150 170 126
f 171 124 170
f 172 173 170
f 174 170 173
f 150 172 170
f 175 170 174
f 171 170 175
f 122 124 171
f 176 173 172
f 177 174 173
f 178 177 173
f 179 178 173
f 176 179 173
f 176 172 150
f 146 176 150
f 180 174 177
f 181 174 182
f 183 182 174
f 175 174 181
f 184 183 174
f 185 184 174
f 180 185 174
f 178 186 177
f 187 177 186
f 180 177 187
f 187 186 178
f 188 178 179
f 187 178 188
f 189 188 179
f 176 189 179
f 190 188 189
f 191 187 188
f 192 191 188
f 193 192 188
f 194 193 188
f 190 194 188
f 195 189 176
f 196 189 195
f 196 190 189
f 195 176 146
f 197 187 191
f 198 187 197
f 199 187 198
f 183 187 199
f 184 187 183
f 185 187 184
f 180 187 185
f 200 191 192
f 201 202 191
f 203 191 202
f 204 201 191
f 200 204 191
f 205 197 191
f 206 207 191
f 205 191 207
f 203 206 191
f 200 192 193
f 208 209 193
f 210 193 209
f 194 208 193
f 200 193 210
f 211 212 209
f 213 209 212
f 208 211 209
f 210 209 214
f 215 214 209
f 213 215 209
f 216 212 211
f 217 212 216
f 218 212 217
f 219 213 212
f 218 219 212
f 220 211 208
f 221 211 220
f 216 211 221
f 190 208 194
f 220 208 190
f 222 202 223
f 224 223 202
f 225 223 226
f 227 226 223
f 225 222 223
f 227 223 224
f 228 202 201
f 222 203 202
f 228 224 202
f 229 230 201
f 231 201 230
f 232 229 201
f 233 232 201
f 234 233 201
f 204 234 201
f 228 201 231
f 235 230 229
f 236 231 230
f 237 230 235
f 236 230 237
f 238 229 232
f 239 229 238
f 235 229 239
f 238 232 233
f 240 233 234
f 238 233 240
f 200 234 204
f 240 234 200
f 205 241 197
f 242 197 241
f 198 197 242
f 243 226 241
f 244 241 226
f 205 243 241
f 242 241 244
f 245 225 226
f 243 245 226
f 244 226 227
f 246 207 206
f 247 205 207
f 247 207 246
f 248 206 203
f 248 246 206
f 249 203 222
f 248 203 249
f 250 222 225
f 249 222 250
f 251 225 245
f 250 225 251
f 252 245 243
f 251 245 252
f 253 243 205
f 252 243 253
f 253 205 247
f 254 228 231
f 255 231 256
f 236 256 231
f 255 254 231
f 254 224 228
f 257 227 224
f 254 257 224
f 256 258 259
f 260 259 258
f 255 256 259
f 65 255 259
f 65 259 260
f 261 262 258
f 260 258 262
f 256 261 258
f 263 262 261
f 263 260 262
f 264 261 256
f 264 263 261
f 53 264 256
f 236 53 256
f 257 244 227
f 265 242 244
f 257 265 244
f 266 198 242
f 267 266 242
f 265 267 242
f 182 198 266
f 199 198 182
f 182 266 267
f 181 267 265
f 181 182 267
f 268 265 257
f 268 181 265
f 269 257 254
f 269 268 257
f 270 254 255
f 271 254 270
f 269 254 271
f 270 255 65
f 65 64 103
f 272 65 103
f 102 273 103
f 272 103 273
f 65 260 60
f 61 60 260
f 263 61 260
f 272 270 65
f 274 275 273
f 271 273 275
f 102 274 273
f 271 272 273
f 276 275 274
f 277 271 275
f 276 277 275
f 106 274 102
f 116 276 274
f 110 116 274
f 106 110 274
f 271 270 272
f 277 269 271
f 183 199 182
f 175 181 268
f 277 268 269
f 277 175 268
f 171 175 277
f 276 171 277
f 120 171 276
f 120 122 171
f 116 120 276
f 105 110 106
f 264 61 263
f 278 58 61
f 264 278 61
f 53 58 278
f 53 278 264
f 279 55 54
f 280 52 55
f 281 280 55
f 282 281 55
f 283 282 55
f 284 283 55
f 279 284 55
f 285 54 53
f 279 54 285
f 286 53 236
f 285 53 286
f 287 288 52
f 289 52 288
f 290 287 52
f 280 290 52
f 289 11 52
f 289 288 287
f 291 287 290
f 289 287 29
f 30 29 287
f 291 30 287
f 292 290 280
f 292 291 290
f 285 280 281
f 285 292 280
f 293 281 282
f 285 281 293
f 294 282 283
f 294 293 282
f 295 296 283
f 297 283 296
f 284 295 283
f 294 283 297
f 298 296 295
f 299 296 298
f 297 296 299
f 298 295 284
f 298 284 279
f 289 29 11
f 33 11 29
f 34 12 11
f 33 34 11
f 32 29 28
f 32 33 29
f 12 35 8
f 20 19 31
f 30 300 31
f 301 31 300
f 302 20 31
f 303 31 301
f 303 302 31
f 304 305 300
f 306 300 305
f 307 304 300
f 137 307 300
f 308 137 300
f 309 308 300
f 30 309 300
f 306 301 300
f 43 305 304
f 306 305 310
f 311 310 305
f 312 305 313
f 314 313 305
f 311 305 312
f 315 305 43
f 316 314 305
f 315 316 305
f 86 304 307
f 85 43 304
f 86 85 304
f 317 307 137
f 317 86 307
f 308 135 137
f 138 317 137
f 136 135 308
f 318 319 308
f 320 308 319
f 309 318 308
f 157 136 308
f 320 321 308
f 157 308 321
f 322 319 318
f 322 320 319
f 239 318 309
f 239 322 318
f 235 309 30
f 235 239 309
f 235 30 291
f 237 235 291
f 323 237 291
f 323 291 292
f 324 50 20
f 325 324 20
f 326 325 20
f 327 326 20
f 302 327 20
f 310 303 301
f 306 310 301
f 47 50 324
f 48 324 325
f 47 324 48
f 326 328 325
f 315 325 328
f 48 325 315
f 326 329 328
f 316 328 329
f 315 328 316
f 314 329 326
f 316 329 314
f 313 326 327
f 314 326 313
f 312 327 302
f 312 313 327
f 311 302 303
f 311 312 302
f 311 303 310
f 48 315 43
f 330 331 82
f 74 82 331
f 84 330 82
f 80 331 330
f 81 331 80
f 74 331 81
f 80 330 84
f 79 84 83
f 80 84 79
f 78 83 87
f 79 83 78
f 77 87 88
f 78 87 77
f 76 88 86
f 76 77 88
f 76 86 317
f 75 317 138
f 75 76 317
f 159 132 136
f 159 136 157
f 151 195 146
f 332 195 151
f 333 196 195
f 332 333 195
f 334 151 152
f 335 332 151
f 334 335 151
f 334 152 153
f 162 153 132
f 162 334 153
f 161 162 132
f 160 161 132
f 159 160 132
f 196 220 190
f 196 221 220
f 196 216 221
f 336 216 196
f 337 216 336
f 338 216 337
f 338 339 216
f 340 216 339
f 341 217 216
f 342 216 340
f 343 216 342
f 344 341 216
f 343 344 216
f 345 196 333
f 336 196 346
f 345 346 196
f 347 333 332
f 345 333 347
f 348 332 335
f 349 332 348
f 347 332 349
f 158 321 350
f 351 350 321
f 164 350 334
f 351 334 350
f 164 158 350
f 352 321 320
f 158 157 321
f 352 351 321
f 322 352 320
f 353 335 334
f 354 335 353
f 348 335 354
f 163 164 334
f 162 163 334
f 355 334 351
f 356 334 355
f 357 353 334
f 356 357 334
f 253 351 352
f 247 355 351
f 253 247 351
f 239 352 322
f 251 352 239
f 252 253 352
f 251 252 352
f 210 356 355
f 200 210 355
f 247 200 355
f 358 359 353
f 360 353 359
f 357 358 353
f 354 353 360
f 361 359 358
f 360 359 361
f 362 358 357
f 361 358 362
f 363 357 356
f 362 357 363
f 210 214 356
f 363 356 214
f 364 214 215
f 364 363 214
f 246 240 200
f 247 246 200
f 249 238 240
f 248 240 246
f 248 249 240
f 250 239 238
f 249 250 238
f 250 251 239
f 323 236 237
f 286 236 323
f 298 285 293
f 299 298 293
f 297 299 293
f 294 297 293
f 286 323 292
f 285 286 292
f 298 279 285
f 365 364 215
f 366 365 215
f 213 366 215
f 362 363 364
f 367 364 365
f 367 362 364
f 366 368 365
f 369 365 368
f 367 365 370
f 369 370 365
f 213 368 366
f 219 368 213
f 371 368 219
f 372 368 371
f 372 369 368
f 373 361 362
f 367 373 362
f 360 361 373
f 367 374 373
f 375 373 374
f 375 360 373
f 370 376 374
f 377 374 376
f 367 370 374
f 375 374 377
f 370 378 376
f 379 376 378
f 380 376 379
f 377 376 380
f 370 381 378
f 382 378 381
f 379 378 383
f 382 383 378
f 384 381 370
f 384 382 381
f 372 370 369
f 385 370 372
f 386 384 370
f 387 386 370
f 385 387 370
f 375 354 360
f 375 388 354
f 348 354 388
f 377 389 388
f 347 388 389
f 375 377 388
f 349 348 388
f 347 349 388
f 390 391 389
f 392 389 391
f 383 390 389
f 380 383 389
f 377 380 389
f 392 347 389
f 393 391 390
f 394 391 393
f 395 392 391
f 396 395 391
f 397 396 391
f 394 397 391
f 398 390 383
f 398 393 390
f 380 379 383
f 398 383 399
f 382 399 383
f 400 394 393
f 401 393 398
f 401 400 393
f 402 347 392
f 345 347 402
f 402 392 395
f 403 395 396
f 402 395 403
f 404 396 397
f 404 403 396
f 405 397 394
f 405 404 397
f 400 405 394
f 406 398 399
f 382 406 399
f 406 401 398
f 336 403 404
f 407 402 403
f 336 407 403
f 337 404 405
f 337 336 404
f 337 405 400
f 337 400 401
f 338 401 406
f 338 337 401
f 338 406 382
f 408 338 382
f 409 382 384
f 410 382 409
f 411 408 382
f 412 411 382
f 410 412 382
f 336 402 407
f 336 346 402
f 345 402 346
f 413 414 339
f 340 339 414
f 338 413 339
f 415 416 414
f 417 414 416
f 413 415 414
f 417 340 414
f 418 419 416
f 417 416 419
f 415 418 416
f 420 419 418
f 417 419 420
f 421 418 415
f 420 418 421
f 422 415 413
f 422 421 415
f 422 413 338
f 422 338 408
f 423 424 217
f 425 217 424
f 426 423 217
f 341 426 217
f 427 218 217
f 428 427 217
f 425 428 217
f 429 430 424
f 425 424 430
f 423 429 424
f 431 432 430
f 433 430 432
f 429 431 430
f 434 425 430
f 433 434 430
f 435 436 432
f 437 432 436
f 431 435 432
f 437 433 432
f 342 340 436
f 437 436 340
f 438 342 436
f 435 438 436
f 417 437 340
f 439 342 438
f 440 343 342
f 440 342 439
f 441 438 435
f 442 438 441
f 439 438 442
f 443 435 431
f 441 435 443
f 443 431 429
f 444 429 423
f 443 429 444
f 445 423 426
f 444 423 445
f 446 426 341
f 447 445 426
f 447 426 446
f 448 341 344
f 446 341 448
f 448 344 343
f 448 343 440
f 371 219 218
f 449 218 427
f 450 371 218
f 451 450 218
f 452 451 218
f 453 452 218
f 454 453 218
f 449 454 218
f 428 455 427
f 449 427 455
f 456 457 455
f 458 455 457
f 428 456 455
f 458 449 455
f 459 460 457
f 458 457 460
f 456 459 457
f 461 460 459
f 458 460 461
f 462 459 456
f 461 459 462
f 425 456 428
f 425 462 456
f 372 371 450
f 372 450 451
f 385 451 452
f 385 372 451
f 385 452 453
f 387 453 454
f 385 453 387
f 387 454 386
f 463 386 454
f 463 454 449
f 409 384 386
f 463 409 386
f 463 449 409
f 464 409 449
f 465 409 464
f 466 410 409
f 465 466 409
f 467 468 408
f 422 408 468
f 411 467 408
f 469 470 468
f 471 468 470
f 467 469 468
f 472 422 468
f 472 468 471
f 473 474 470
f 475 470 474
f 469 473 470
f 471 470 475
f 464 449 474
f 475 474 449
f 476 464 474
f 473 476 474
f 475 449 458
f 477 464 476
f 478 465 464
f 478 464 477
f 479 476 473
f 480 477 476
f 479 480 476
f 481 473 469
f 481 479 473
f 481 469 467
f 482 467 411
f 482 481 467
f 483 411 412
f 483 482 411
f 484 412 410
f 485 483 412
f 485 412 484
f 486 410 466
f 484 410 486
f 486 466 465
f 486 465 478
f 472 421 422
f 487 420 421
f 472 487 421
f 488 420 487
f 417 420 488
f 489 461 462
f 434 489 462
f 434 462 425
f 489 490 461
f 458 461 490
f 488 487 490
f 471 490 487
f 489 488 490
f 475 458 490
f 471 475 490
f 472 471 487
f 433 488 489
f 437 488 433
f 417 488 437
f 433 489 434
f 445 477 480
f 447 477 445
f 478 477 447
f 444 480 479
f 444 445 480
f 443 479 481
f 443 444 479
f 441 481 482
f 441 443 481
f 442 482 483
f 442 441 482
f 439 442 483
f 485 439 483
f 485 440 439
f 484 448 440
f 485 484 440
f 486 446 448
f 484 486 448
f 478 447 446
f 486 478 446
