# https://github.com/mikedh/trimesh
mtllib mtl_rail_des_gearbox

o rail_des_gearbox-mesh
usemtl material_rail_des_gearbox_0
v -0.04554998 -0.03999996 -0.04954999
v 0.04554998 0.03999996 -0.04954999
v 0.04554998 0.00000000 -0.04954999
v 0.04554998 0.02828598 -0.03783196
v 0.04554998 0.00000000 -0.04954999
v 0.04554998 0.03999996 -0.04954999
v 0.04554998 -0.03999996 -0.04954999
v 0.04554998 -0.02828198 -0.03783595
v 0.04554998 -0.03999996 -0.04954999
v 0.06304997 0.00001200 -0.04954999
v 0.04554998 0.02828598 -0.03783196
v 0.06304997 -0.02827095 -0.03784698
v 0.04554998 -0.02828198 -0.03783595
v -0.04554998 0.03999996 -0.04954999
v -0.04554998 0.03999996 0.04954999
v 0.04554998 0.03999996 -0.04954999
v -0.04554998 0.03999996 -0.04954999
v 0.04554998 0.03999996 -0.00954998
v 0.04554998 0.03999996 -0.00954998
v -0.04554998 -0.03999996 0.04954999
v -0.04554998 0.03999996 -0.04954999
v -0.04554998 -0.03999996 -0.04954999
v -0.04554998 0.03999996 0.04954999
v 0.04554998 -0.03999996 -0.00954998
v -0.04554998 -0.03999996 -0.04954999
v 0.04554998 -0.03999996 -0.04954999
v 0.04554998 -0.03999996 0.04954999
v 0.03744995 -0.03999996 0.04954999
v -0.04554998 -0.03999996 0.04954999
v 0.04554998 -0.03999996 -0.00954998
v 0.06304997 0.02828395 -0.03783398
v 0.06304997 0.03999996 -0.00954998
v 0.04554998 0.02828395 0.01873397
v 0.04554998 0.03999996 0.04954999
v 0.04554998 0.02828395 0.01873397
v 0.03744995 0.03999996 0.04954999
v 0.04554998 0.03999996 0.04954999
v 0.06304997 0.04124999 -0.05079996
v 0.06304997 0.02828395 -0.03783398
v 0.06304997 0.03999996 -0.00954998
v 0.06304997 0.04124999 0.03169995
v 0.06304997 0.03694295 0.00578695
v 0.06304997 0.03694295 0.00578695
v 0.06304997 -0.03999996 -0.00954998
v 0.06304997 -0.03694295 -0.02488696
v 0.06304997 -0.02828395 0.01873397
v 0.04554998 -0.03694295 0.00578695
v 0.04554998 -0.03999996 0.04954999
v 0.04554998 -0.03694295 0.00578695
v 0.06304997 -0.04124999 -0.05079996
v 0.06304997 -0.03999996 -0.00954998
v 0.06304997 -0.03694295 -0.02488696
v 0.06304997 -0.04124999 0.03169995
v 0.06304997 -0.02828395 0.01873397
v 0.06304997 -0.02827095 -0.03784698
v 0.06304997 0.00001200 -0.04954999
v 0.07454997 -0.04124999 -0.05079996
v 0.06304997 -0.04124999 -0.05079996
v 0.06304997 0.04124999 -0.05079996
v 0.07454997 -0.04124999 0.03169995
v 0.06304997 -0.04124999 0.03169995
v 0.06304997 -0.04124999 -0.05079996
v 0.07454997 -0.04124999 -0.05079996
v 0.07454997 0.04124999 -0.05079996
v 0.06304997 0.04124999 -0.05079996
v 0.06304997 0.04124999 0.03169995
v 0.07454997 0.04124999 -0.05079996
v 0.06304997 -0.00001200 0.03044998
v 0.07454997 0.04124999 0.03169995
v 0.06304997 0.04124999 0.03169995
v 0.06304997 -0.04124999 0.03169995
v 0.06304997 0.02827095 0.01874697
v 0.07454997 0.04124999 0.03169995
v 0.07454997 -0.04124999 0.03169995
v 0.04554998 -0.02827095 0.01874697
v 0.06304997 -0.00001200 0.03044998
v 0.04554998 0.00001200 0.03044998
v 0.06304997 0.02827095 0.01874697
v 0.07454997 0.04124999 0.03169995
v 0.07454997 -0.04124999 0.03169995
v 0.07454997 -0.04124999 -0.05079996
v 0.07454997 0.04124999 -0.05079996
v 0.04554998 -0.02827095 0.01874697
v 0.04554998 0.00001200 0.03044998
v 0.03744995 -0.03999996 0.04954999
v 0.04554998 -0.03999996 0.04954999
v 0.04554998 0.03999996 0.04954999
v 0.03744995 0.03999996 0.04954999
v -0.04854995 -0.04299998 0.04954999
v -0.04554998 -0.03999996 0.04954999
v 0.03744995 -0.03999996 0.04954999
v -0.04554998 0.03999996 0.04954999
v 0.03744995 -0.04299998 0.08654999
v 0.03744995 -0.03999996 0.04954999
v 0.03744995 0.03999996 0.04954999
v 0.03744995 -0.04299998 0.04954999
v 0.03744995 -0.04299998 0.04954999
v 0.03744995 0.04299998 0.04954999
v 0.03744995 0.03999996 0.04954999
v -0.04854995 0.04299998 0.04954999
v 0.03744995 0.04299998 0.04954999
v 0.03744995 0.04299998 0.08654999
v 0.03744995 0.04299998 0.04954999
v -0.04854995 0.04299998 0.04954999
v 0.03744995 0.04299998 0.08654999
v -0.04854995 0.04299998 0.08654999
v -0.04854995 0.04299998 0.04954999
v -0.04854995 -0.04299998 0.04954999
v -0.04854995 0.04299998 0.08654999
v -0.04854995 -0.04299998 0.08654999
v -0.04854995 -0.04299998 0.04954999
v 0.03744995 -0.04299998 0.04954999
v -0.04854995 -0.04299998 0.08654999
v 0.03744995 -0.04299998 0.08654999
v -0.04854995 0.04299998 0.08654999
v 0.03744995 -0.04299998 0.08654999
v 0.03744995 0.04299998 0.08654999
v -0.04854995 -0.04299998 0.08654999
vt 0.00000000 0.07830798
vt 0.64882702 0.07830798
vt 0.50000000 0.00000000
vt 0.61477101 0.11729800
vt 0.50000000 0.00000000
vt 0.64882702 0.07830798
vt 0.35117301 0.07830798
vt 0.38524401 0.11725600
vt 0.35117301 0.07830798
vt 0.50003803 0.08887195
vt 0.61477101 0.11729800
vt 0.41294500 0.17973199
vt 0.38524401 0.11725600
vt 1.00000000 0.07830798
vt 1.00000000 0.83312798
vt 0.64882702 0.07830798
vt 1.00000000 0.07830798
vt 0.64882702 0.36965999
vt 0.64882702 0.36965999
vt 0.00000000 0.83312798
vt 1.00000000 0.07830798
vt 0.00000000 0.07830798
vt 1.00000000 0.83312798
vt 0.35117301 0.36965999
vt 0.00000000 0.07830798
vt 0.35117301 0.07830798
vt 0.35117301 0.83312798
vt 0.33099601 0.86062300
vt 0.00000000 0.83312798
vt 0.35117301 0.36965999
vt 0.58709002 0.17982800
vt 0.61675900 0.38565600
vt 0.61476302 0.64085698
vt 0.64882702 0.83312798
vt 0.61476302 0.64085698
vt 0.66900402 0.86062300
vt 0.64882702 0.83312798
vt 0.61965197 0.12899500
vt 0.58709002 0.17982800
vt 0.61675900 0.38565600
vt 0.61965197 0.67505801
vt 0.60946202 0.49924099
vt 0.60946202 0.49924099
vt 0.38324100 0.38565600
vt 0.39053801 0.27493700
vt 0.41291001 0.60152900
vt 0.35926399 0.50988501
vt 0.35117301 0.83312798
vt 0.35926399 0.50988501
vt 0.38034800 0.12899500
vt 0.38324100 0.38565600
vt 0.39053801 0.27493700
vt 0.38034800 0.67505801
vt 0.41291001 0.60152900
vt 0.41294500 0.17973199
vt 0.50003803 0.08887195
vt 0.39562300 0.15960400
vt 0.38034800 0.12899500
vt 0.61965197 0.12899500
vt 0.39562300 0.65189397
vt 0.38034800 0.67505801
vt 0.38034800 0.12899500
vt 0.39562300 0.15960400
vt 0.60437697 0.15960400
vt 0.61965197 0.12899500
vt 0.61965197 0.67505801
vt 0.60437697 0.15960400
vt 0.49996200 0.70351201
vt 0.60437697 0.65189397
vt 0.61965197 0.67505801
vt 0.38034800 0.67505801
vt 0.58705503 0.60163403
vt 0.60437697 0.65189397
vt 0.39562300 0.65189397
vt 0.38527900 0.64099503
vt 0.49996200 0.70351201
vt 0.50005299 0.78026199
vt 0.58705503 0.60163403
vt 0.60437697 0.65189397
vt 0.39562300 0.65189397
vt 0.39562300 0.15960400
vt 0.60437697 0.15960400
vt 0.38527900 0.64099503
vt 0.50005299 0.78026199
vt 0.33099601 0.86062300
vt 0.35117301 0.83312798
vt 0.64882702 0.83312798
vt 0.66900402 0.86062300
vt 0.00087500 0.81504101
vt 0.00000000 0.83312798
vt 0.33099601 0.86062300
vt 1.00000000 0.83312798
vt 0.32356799 1.00000000
vt 0.33099601 0.86062300
vt 0.66900402 0.86062300
vt 0.32356799 0.84973300
vt 0.32356799 0.84973300
vt 0.67643201 0.84973300
vt 0.66900402 0.86062300
vt 0.99912500 0.81504101
vt 0.67643201 0.84973300
vt 0.67643201 1.00000000
vt 0.67643201 0.84973300
vt 0.99912500 0.81504101
vt 0.67643201 1.00000000
vt 0.99912500 0.96667200
vt 0.99912500 0.81504101
vt 0.00087500 0.81504101
vt 0.99912500 0.96667200
vt 0.00087500 0.96667200
vt 0.00087500 0.81504101
vt 0.32356799 0.84973300
vt 0.00087500 0.96667200
vt 0.32356799 1.00000000
vt 0.99912500 0.96667200
vt 0.32356799 1.00000000
vt 0.67643201 1.00000000
vt 0.00087500 0.96667200
f 1/1 2/2 3/3
f 4/4 5/5 6/6
f 7/7 1/1 3/3
f 8/8 9/9 5/5
f 10/10 3/3 11/11
f 12/12 13/13 3/3
f 10/10 12/12 3/3
f 1/1 14/14 2/2
f 15/15 16/16 17/17
f 18/18 4/4 6/6
f 15/15 19/19 16/16
f 20/20 21/21 22/22
f 23/23 21/21 20/20
f 24/24 25/25 26/26
f 27/27 25/25 24/24
f 28/28 25/25 27/27
f 28/28 29/29 25/25
f 30/30 9/9 8/8
f 31/31 11/11 19/19
f 31/31 10/10 11/11
f 31/31 19/19 32/32
f 33/33 32/32 19/19
f 34/34 35/35 18/18
f 36/36 37/37 19/19
f 36/36 19/19 15/15
f 38/38 39/39 40/40
f 41/41 38/38 40/40
f 42/42 41/41 40/40
f 33/33 43/43 32/32
f 44/44 24/24 13/13
f 45/45 44/44 13/13
f 12/12 45/45 13/13
f 46/46 24/24 44/44
f 47/47 24/24 46/46
f 48/48 30/30 49/49
f 50/50 51/51 52/52
f 53/53 51/51 50/50
f 54/54 51/51 53/53
f 50/50 52/52 55/55
f 50/50 55/55 56/56
f 38/38 56/56 39/39
f 38/38 50/50 56/56
f 57/57 58/58 59/59
f 60/60 61/61 62/62
f 63/63 60/60 62/62
f 64/64 65/65 66/66
f 67/67 57/57 59/59
f 68/68 53/53 41/41
f 69/69 70/70 71/71
f 72/72 68/68 41/41
f 42/42 72/72 41/41
f 64/64 66/66 73/73
f 68/68 54/54 53/53
f 69/69 71/71 74/74
f 75/75 46/46 76/76
f 75/75 47/47 46/46
f 77/77 76/76 78/78
f 77/77 75/75 76/76
f 33/33 78/78 43/43
f 33/33 77/77 78/78
f 79/79 80/80 81/81
f 82/82 79/79 81/81
f 48/48 49/49 83/83
f 48/48 83/83 84/84
f 48/48 84/84 35/35
f 34/34 48/48 35/35
f 85/85 86/86 87/87
f 88/88 85/85 87/87
f 89/89 90/90 91/91
f 89/89 92/92 90/90
f 93/93 94/94 95/95
f 96/96 89/89 91/91
f 93/93 97/97 94/94
f 98/98 99/99 92/92
f 100/100 98/98 92/92
f 89/89 100/100 92/92
f 93/93 95/95 101/101
f 102/102 103/103 104/104
f 105/105 93/93 101/101
f 106/106 107/107 108/108
f 109/109 102/102 104/104
f 110/110 111/111 112/112
f 106/106 108/108 113/113
f 110/110 112/112 114/114
f 115/115 116/116 117/117
f 115/115 118/118 116/116

