# https://github.com/mikedh/trimesh
mtllib mtl_rail_des_live_carriage

o rail_des_live_carriage-mesh
usemtl material_rail_des_live_carriage_0
v -0.11150000 -0.04449999 -0.01849997
v -0.11150000 0.04449999 -0.01849997
v 0.11150000 0.04449999 -0.01849997
v 0.11150000 0.04449999 -0.00199997
v 0.11150000 0.04449999 -0.01849997
v -0.11150000 0.04449999 -0.01849997
v 0.11150000 -0.04449999 -0.01849997
v 0.11150000 -0.04449999 -0.00199997
v 0.11150000 -0.04449999 -0.01849997
v 0.11150000 0.04449999 -0.01849997
v 0.11150000 -0.11150000 0.01849997
v 0.11150000 0.04449999 -0.00199997
v -0.11150000 0.04449999 -0.00199997
v -0.11150000 0.04449999 -0.01849997
v -0.11150000 -0.04449999 -0.01849997
v -0.11150000 0.04449999 -0.00199997
v -0.11150000 -0.04449999 -0.00199997
v -0.11150000 -0.04449999 -0.01849997
v 0.11150000 -0.04449999 -0.01849997
v -0.11150000 0.11150000 0.01849997
v -0.11150000 -0.04449999 -0.00199997
v 0.11150000 -0.04449999 -0.00199997
v 0.11150000 0.11150000 -0.00199997
v 0.11150000 0.04449999 -0.00199997
v -0.11150000 0.04449999 -0.00199997
v 0.11150000 0.11150000 -0.00199997
v -0.11150000 0.11150000 -0.00199997
v -0.11150000 0.11150000 -0.00199997
v 0.11150000 0.11150000 0.01849997
v 0.11150000 0.11150000 -0.00199997
v -0.11150000 0.11150000 -0.00199997
v 0.11150000 0.11150000 0.01849997
v -0.11150000 0.11150000 0.01849997
v 0.11150000 -0.11150000 -0.00199997
v -0.11150000 -0.11150000 -0.00199997
v 0.11150000 -0.04449999 -0.00199997
v 0.11150000 -0.11150000 -0.00199997
v -0.11150000 -0.04449999 -0.00199997
v -0.11150000 -0.11150000 0.01849997
v 0.11150000 -0.11150000 -0.00199997
v 0.11150000 -0.11150000 0.01849997
v -0.11150000 -0.11150000 -0.00199997
v -0.11150000 0.11150000 0.01849997
v 0.11150000 -0.11150000 0.01849997
v 0.11150000 0.11150000 0.01849997
v -0.11150000 -0.11150000 0.01849997
v -0.11150000 -0.11150000 -0.00199997
v -0.11150000 -0.11150000 0.01849997
vt 0.00000000 0.00000000
vt 1.00000000 0.00000000
vt 0.56874597 0.00000000
vt 0.56874597 0.13623901
vt 0.56874597 0.00000000
vt 1.00000000 0.00000000
vt 0.43125400 0.00000000
vt 0.43125400 0.13623901
vt 0.43125400 0.00000000
vt 0.56874597 0.00000000
vt 0.35781401 0.26968601
vt 0.56874597 0.13623901
vt 1.00000000 0.13623901
vt 1.00000000 0.00000000
vt 0.00000000 0.00000000
vt 1.00000000 0.13623901
vt 0.00000000 0.13623901
vt 0.00000000 0.00000000
vt 0.43125400 0.00000000
vt 0.92655897 0.26968601
vt 0.00000000 0.13623901
vt 0.43125400 0.13623901
vt 0.64218599 0.14021400
vt 0.56874597 0.13623901
vt 1.00000000 0.13623901
vt 0.64218599 0.14021400
vt 0.92655897 0.14021400
vt 0.92655897 0.14021400
vt 0.64218599 0.26968601
vt 0.64218599 0.14021400
vt 0.92655897 0.14021400
vt 0.64218599 0.26968601
vt 0.92655897 0.26968601
vt 0.35781401 0.14021400
vt 0.07344096 0.14021400
vt 0.43125400 0.13623901
vt 0.35781401 0.14021400
vt 0.00000000 0.13623901
vt 0.07344096 0.26968601
vt 0.35781401 0.14021400
vt 0.35781401 0.26968601
vt 0.07344096 0.14021400
vt 0.92655897 0.26968601
vt 0.35781401 0.26968601
vt 0.64218599 0.26968601
vt 0.07344096 0.26968601
vt 0.07344096 0.14021400
vt 0.07344096 0.26968601
f 1/1 2/2 3/3
f 4/4 5/5 6/6
f 7/7 1/1 3/3
f 8/8 9/9 10/10
f 11/11 10/10 12/12
f 11/11 8/8 10/10
f 13/13 14/14 15/15
f 16/16 4/4 6/6
f 17/17 18/18 19/19
f 20/20 13/13 15/15
f 20/20 15/15 21/21
f 17/17 19/19 22/22
f 23/23 24/24 25/25
f 11/11 12/12 26/26
f 27/27 23/23 25/25
f 20/20 28/28 13/13
f 29/29 30/30 31/31
f 32/32 11/11 26/26
f 33/33 29/29 31/31
f 11/11 34/34 8/8
f 35/35 36/36 37/37
f 35/35 38/38 36/36
f 39/39 40/40 41/41
f 39/39 42/42 40/40
f 43/43 44/44 45/45
f 46/46 44/44 43/43
f 20/20 21/21 47/47
f 48/48 20/20 47/47

