# https://github.com/mikedh/trimesh
mtllib mtl_recessed_latch_housing
usemtl mtl_recessed_latch_housing
v -0.00207882 -0.00203200 -0.00145949
v -0.00242196 -0.00101600 -0.00076531
v -0.00254000 -0.00101600 0.00000000
v -0.00249691 -0.00101600 -0.00066900
v -0.00254000 -0.00203200 -0.00000000
v -0.00207882 -0.00101600 0.00145949
v -0.00223871 -0.00101600 0.00129241
v -0.00258498 -0.00101600 0.00000000
v -0.00207882 -0.00101600 -0.00145949
v -0.00223871 -0.00101600 -0.00129241
v -0.00083479 -0.00203200 -0.00239890
v -0.00151058 -0.00101600 -0.00204199
v -0.00182792 -0.00101600 -0.00182780
v -0.00076530 -0.00101600 -0.00242197
v -0.00129241 -0.00101600 -0.00223871
v -0.00004314 -0.00203200 -0.00253963
v 0.00004314 -0.00101600 -0.00253963
v -0.00066900 -0.00101600 -0.00249691
v 0.00076530 -0.00203200 -0.00242197
v 0.00083479 -0.00101600 -0.00239890
v 0.00066900 -0.00101600 -0.00249691
v -0.00000000 -0.00101600 -0.00258498
v 0.00151058 -0.00203200 -0.00204199
v 0.00153780 -0.00101600 -0.00202158
v 0.00129241 -0.00101600 -0.00223871
v 0.00207882 -0.00203200 -0.00145949
v 0.00207882 -0.00101600 -0.00145949
v 0.00182780 -0.00101600 -0.00182792
v 0.00254000 -0.00203200 0.00000000
v 0.00254000 -0.00101600 0.00000000
v 0.00223871 -0.00101600 -0.00129241
v 0.00207882 -0.00203200 0.00145949
v 0.00242196 -0.00101600 0.00076531
v 0.00249691 -0.00101600 0.00066900
v 0.00258498 -0.00101600 0.00000000
v 0.00304800 -0.00203200 -0.00000000
v 0.00263978 -0.00203200 0.00152377
v 0.00263978 -0.00203200 -0.00152377
v 0.00215541 -0.00203200 -0.00215512
v 0.00152377 -0.00203200 -0.00263978
v -0.00152377 -0.00203200 -0.00263978
v -0.00215512 -0.00203200 -0.00215541
v -0.00263978 -0.00203200 -0.00152377
v -0.00207882 -0.00203200 0.00145949
v -0.00304800 -0.00203200 -0.00000000
v 0.00207882 -0.00101600 0.00145949
v 0.00223871 -0.00101600 0.00129241
v 0.00083479 -0.00203200 0.00239890
v 0.00151058 -0.00101600 0.00204199
v 0.00182792 -0.00101600 0.00182780
v 0.00076530 -0.00101600 0.00242197
v 0.00129241 -0.00101600 0.00223871
v 0.00004314 -0.00203200 0.00253963
v -0.00004314 -0.00101600 0.00253963
v 0.00066900 -0.00101600 0.00249691
v -0.00076530 -0.00203200 0.00242197
v -0.00083479 -0.00101600 0.00239890
v -0.00066900 -0.00101600 0.00249691
v 0.00000000 -0.00101600 0.00258498
v -0.00151058 -0.00203200 0.00204199
v -0.00153780 -0.00101600 0.00202158
v -0.00129241 -0.00101600 0.00223871
v -0.00182780 -0.00101600 0.00182792
v -0.00263978 -0.00203200 0.00152377
v -0.00215541 -0.00203200 0.00215512
v -0.00152377 -0.00203200 0.00263978
v 0.00152377 -0.00203200 0.00263978
v 0.00215512 -0.00203200 0.00215541
v -0.00404761 0.00066656 -0.00000000
v -0.00350870 0.00066655 0.00201795
v -0.00390859 0.00066656 -0.00105170
v -0.00350192 0.00066655 -0.00202970
v -0.00201795 0.00066655 -0.00350870
v -0.00000000 0.00066656 -0.00404761
v 0.00105170 0.00066656 -0.00390859
v 0.00202970 0.00066655 -0.00350192
v 0.00350870 0.00066655 -0.00201795
v 0.00404761 0.00066656 -0.00000000
v 0.00390859 0.00066656 0.00105170
v 0.00350192 0.00066655 0.00202970
v 0.00201795 0.00066655 0.00350870
v 0.00000000 0.00066656 0.00404761
v -0.00105170 0.00066656 0.00390859
v -0.00202970 0.00066655 0.00350192
v 0.00439306 0.00092452 0.00000000
v 0.00421570 0.00101600 -0.00232514
v 0.00421570 0.00101600 0.00232514
v 0.00481439 0.00101600 -0.00000000
v 0.00345801 0.00101600 0.00334971
v 0.00238801 0.00101600 0.00418040
v -0.00012040 0.00101600 0.00481289
v 0.00116356 0.00101600 0.00467167
v -0.00137641 0.00101600 0.00461344
v -0.00252582 0.00101600 0.00409861
v -0.00421570 0.00101600 0.00232514
v -0.00439306 0.00092452 0.00000000
v -0.00421570 0.00101600 -0.00232514
v -0.00481439 0.00101600 -0.00000000
v -0.00345801 0.00101600 -0.00334971
v -0.00238801 0.00101600 -0.00418040
v 0.00012040 0.00101600 -0.00481289
v -0.00116356 0.00101600 -0.00467167
v 0.00137641 0.00101600 -0.00461344
v 0.00252582 0.00101600 -0.00409861
v -0.00449193 0.00101600 -0.00448833
v -0.00421570 0.00101600 0.04212486
v -0.00550130 0.00101600 -0.00317147
v -0.00481439 0.00101600 0.04445000
v -0.00317145 0.00101600 -0.00550131
v 0.00000000 0.00101600 -0.00635000
v 0.01016000 0.00101600 0.00368300
v 0.01070400 0.00101600 0.00165182
v 0.00866987 0.00101600 0.00656331
v 0.01016000 0.00101600 0.00460489
v 0.00997231 0.00101600 0.00545786
v 0.00974511 0.00101600 0.00583533
v 0.00944257 0.00101600 0.00615439
v 0.00509742 0.00101600 0.00845349
v 0.00369754 0.00101600 0.00992934
v 0.00264707 0.00101600 0.01167387
v 0.00177800 0.00101600 0.01562100
v 0.00012040 0.00101600 0.03963711
v 0.00177800 0.00101600 0.03543300
v 0.00137641 0.00101600 0.03983656
v -0.00116356 0.00101600 0.03977833
v -0.00238801 0.00101600 0.04026960
v -0.00345801 0.00101600 0.04110029
v 0.06900131 0.00101600 -0.00317145
v 0.06985000 0.00101600 0.04445000
v 0.06985000 0.00101600 -0.00000000
v 0.06985000 -0.00000000 -0.00000000
v 0.06900130 -0.00000000 -0.00317147
v 0.06900130 0.00101600 0.04762147
v 0.06985000 -0.00000000 0.04445000
v 0.06831439 0.00101600 0.04445000
v 0.06799193 0.00101600 0.04893833
v 0.06900131 -0.00000000 0.04762146
v 0.06831439 0.00101600 -0.00000000
v 0.06695800 0.00101600 0.04779971
v 0.06667145 0.00101600 0.04995131
v 0.06798833 -0.00000000 0.04894193
v 0.06771570 0.00101600 0.04677514
v 0.06466356 0.00101600 0.04912167
v 0.06350000 0.00101600 0.05080000
v 0.06667147 -0.00000000 0.04995130
v 0.06588801 0.00101600 0.04863040
v 0.00116356 0.00101600 0.04912167
v 0.00000000 0.00101600 0.05080000
v 0.06350000 -0.00000000 0.05080000
v 0.05232400 0.00101600 0.04483100
v 0.01117600 0.00101600 0.04483100
v 0.00481439 0.00101600 0.04445000
v 0.05591273 0.00101600 0.04411882
v 0.06097418 0.00101600 0.04854861
v 0.06212359 0.00101600 0.04906344
v 0.06337960 0.00101600 0.04926289
v 0.00238801 0.00101600 0.04863040
v 0.00345801 0.00101600 0.04779971
v 0.00421570 0.00101600 0.04677514
v -0.00252582 0.00101600 0.04854861
v -0.00317147 0.00101600 0.04995130
v 0.00000000 -0.00000000 0.05080000
v -0.00137641 0.00101600 0.04906344
v -0.00012040 0.00101600 0.04926289
v -0.00421570 0.00101600 0.04677514
v -0.00448833 0.00101600 0.04894193
v -0.00317145 -0.00000000 0.04995131
v -0.00550131 0.00101600 0.04762146
v -0.00449193 -0.00000000 0.04893833
v -0.00635000 0.00101600 -0.00000000
v -0.00635000 0.00101600 0.04445000
v -0.00550130 -0.00000000 0.04762147
v -0.00635000 -0.00000000 0.04445000
v -0.00635000 -0.00000000 -0.00000000
v -0.00550131 -0.00000000 -0.00317145
v -0.00448833 -0.00000000 -0.00449193
v -0.00317147 -0.00000000 -0.00550130
v 0.06233644 0.00101600 -0.00467167
v 0.06350000 0.00101600 -0.00635000
v 0.00000000 -0.00000000 -0.00635000
v 0.01422400 0.00101600 -0.00038100
v 0.04927600 0.00101600 -0.00038100
v 0.05868561 0.00101600 -0.00000000
v 0.01219282 0.00101600 0.00016300
v 0.01135078 0.00101600 0.00080885
v 0.05928430 0.00101600 -0.00232514
v 0.06111199 0.00101600 -0.00418040
v 0.06004199 0.00101600 -0.00334971
v 0.06602582 0.00101600 -0.00409861
v 0.06667147 0.00101600 -0.00550130
v 0.06350000 -0.00000000 -0.00635000
v 0.06487641 0.00101600 -0.00461344
v 0.06362040 0.00101600 -0.00481289
v 0.06771570 0.00101600 -0.00232514
v 0.06798833 0.00101600 -0.00449193
v 0.06667145 -0.00000000 -0.00550131
v 0.06799193 -0.00000000 -0.00448833
v 0.01068821 0.00094615 0.00460489
v 0.01140802 0.00074376 0.00251658
v 0.01117600 0.00074376 0.00368300
v 0.01069561 0.00085321 0.00579238
v 0.01007595 0.00076458 0.00690097
v 0.00894080 0.00074376 0.00754252
v 0.00647678 0.00074376 0.00868016
v 0.00450542 0.00074376 0.01054545
v 0.00323337 0.00074376 0.01294284
v 0.00279400 0.00074376 0.03543300
v 0.00279400 0.00074376 0.01562100
v 0.00252582 0.00101600 0.04035139
v 0.00249018 0.00101600 0.03902173
v 0.00335582 0.00101600 0.04064521
v 0.00320424 0.00074376 0.03802318
v 0.00421570 0.00101600 0.04212486
v 0.00452592 0.00101600 0.04207369
v 0.00439482 0.00074376 0.04035982
v 0.00595750 0.00101600 0.04324899
v 0.00624918 0.00074376 0.04221418
v 0.00758727 0.00101600 0.04411882
v 0.00858582 0.00074376 0.04340475
v 0.05232400 0.00074376 0.04381500
v 0.01117600 0.00074376 0.04381500
v 0.05928430 0.00101600 0.04677514
v 0.05753621 0.00101600 0.04325318
v 0.05491418 0.00074376 0.04340475
v 0.05868561 0.00101600 0.04445000
v 0.05896470 0.00101600 0.04208308
v 0.05725082 0.00074376 0.04221418
v 0.06004199 0.00101600 0.04110029
v 0.06013999 0.00101600 0.04065150
v 0.05910518 0.00074376 0.04035982
v 0.05928430 0.00101600 0.04212486
v 0.06111199 0.00101600 0.04026960
v 0.06100982 0.00101600 0.03902173
v 0.06172200 0.00101600 0.03543300
v 0.06029576 0.00074376 0.03802318
v 0.06233644 0.00101600 0.03977833
v 0.06172200 0.00101600 0.01562100
v 0.06070600 0.00074376 0.01562100
v 0.06070600 0.00074376 0.03543300
v 0.06097418 0.00101600 0.00409861
v 0.06085293 0.00101600 0.01167387
v 0.06212359 0.00101600 0.00461344
v 0.05928430 0.00101600 0.00232514
v 0.05980382 0.00101600 0.00993112
v 0.06026663 0.00074376 0.01294284
v 0.05840258 0.00101600 0.00845349
v 0.05899458 0.00074376 0.01054545
v 0.05279600 0.00101600 0.00165182
v 0.05483013 0.00101600 0.00656331
v 0.05702322 0.00074376 0.00868016
v 0.05215015 0.00101600 0.00080978
v 0.05405810 0.00101600 0.00615496
v 0.05342476 0.00076433 0.00690216
v 0.05468928 0.00094615 0.00707240
v 0.05334000 0.00101600 0.00368300
v 0.05375489 0.00101600 0.00583533
v 0.05280499 0.00085325 0.00579345
v 0.05352806 0.00101600 0.00545866
v 0.05334000 0.00101600 0.00460489
v 0.05232730 0.00074566 0.00460489
v 0.05232400 0.00074376 0.00368300
v 0.05209199 0.00074376 0.00251658
v 0.05130718 0.00101600 0.00016300
v 0.05143126 0.00074376 0.00152774
v 0.05044242 0.00074376 0.00086702
v 0.01422400 0.00074376 0.00063500
v 0.04927600 0.00074376 0.00063500
v 0.01305758 0.00074376 0.00086702
v 0.01206874 0.00074376 0.00152774
v 0.05910694 0.00092452 0.04445000
v 0.05959141 0.00066656 0.04339831
v 0.05999130 0.00066655 0.04646794
v 0.05945240 0.00066656 0.04445000
v 0.06147030 0.00066655 0.04795191
v 0.06244830 0.00066656 0.04835859
v 0.06350000 0.00066656 0.04849761
v 0.06551795 0.00066655 0.04795870
v 0.06700192 0.00066655 0.04647970
v 0.06740858 0.00066656 0.04550169
v 0.06771570 0.00101600 0.00232514
v 0.06771570 0.00101600 0.04212486
v 0.06789307 0.00092452 0.04445000
v 0.06695800 0.00101600 0.00334971
v 0.06602582 0.00101600 0.04035139
v 0.06700870 0.00066655 0.04243205
v 0.06754760 0.00066656 0.04445000
v 0.06588801 0.00101600 0.00418040
v 0.06487641 0.00101600 0.03983656
v 0.06552970 0.00066655 0.04094809
v 0.06466356 0.00101600 0.00467167
v 0.06362040 0.00101600 0.03963711
v 0.06455170 0.00066656 0.04054141
v 0.06337960 0.00101600 0.00481289
v 0.06350000 0.00066656 0.04040239
v 0.06148205 0.00066655 0.04094130
v 0.05999808 0.00066655 0.04242030
v 0.05910694 0.00092452 -0.00000000
v 0.05959141 0.00066656 -0.00105170
v 0.05999130 0.00066655 0.00201795
v 0.05945240 0.00066656 0.00000000
v 0.06147030 0.00066655 0.00350192
v 0.06244830 0.00066656 0.00390859
v 0.06350000 0.00066656 0.00404761
v 0.06551795 0.00066655 0.00350870
v 0.06700192 0.00066655 0.00202970
v 0.06740858 0.00066656 0.00105170
v 0.06789307 0.00092452 0.00000000
v 0.06700870 0.00066655 -0.00201795
v 0.06754760 0.00066656 0.00000000
v 0.06552970 0.00066655 -0.00350192
v 0.06455170 0.00066656 -0.00390859
v 0.06350000 0.00066656 -0.00404761
v 0.06148205 0.00066655 -0.00350870
v 0.05999808 0.00066655 -0.00202970
v -0.00439306 0.00092452 0.04445000
v -0.00390859 0.00066656 0.04339831
v -0.00350870 0.00066655 0.04646794
v -0.00404761 0.00066656 0.04445000
v -0.00202970 0.00066655 0.04795191
v -0.00105170 0.00066656 0.04835859
v 0.00000000 0.00066656 0.04849761
v 0.00201795 0.00066655 0.04795870
v 0.00350192 0.00066655 0.04647970
v 0.00390859 0.00066656 0.04550169
v 0.00439306 0.00092452 0.04445000
v 0.00350870 0.00066655 0.04243205
v 0.00404761 0.00066656 0.04445000
v 0.00202970 0.00066655 0.04094809
v 0.00105170 0.00066656 0.04054141
v -0.00000000 0.00066656 0.04040239
v -0.00201795 0.00066655 0.04094130
v -0.00350192 0.00066655 0.04242030
v 0.06350000 -0.00000000 -0.00481439
v -0.00000000 -0.00000000 -0.00481439
v 0.04927600 -0.00000000 -0.00038100
v 0.01422400 -0.00000000 -0.00038100
v 0.00481439 -0.00000000 -0.00000000
v 0.05130718 -0.00000000 0.00016300
v 0.05214922 -0.00000000 0.00080885
v 0.05279600 -0.00000000 0.00165182
v 0.06009490 -0.00000000 -0.00340348
v 0.06109432 -0.00000000 -0.00417026
v 0.00240568 -0.00000000 -0.00417026
v 0.00340348 -0.00000000 -0.00340510
v 0.00417026 -0.00000000 -0.00240568
v 0.06690348 -0.00000000 -0.00340510
v 0.06590568 -0.00000000 -0.00417026
v 0.06831439 -0.00000000 -0.00000000
v 0.06767026 -0.00000000 -0.00240568
v 0.06831439 -0.00000000 0.04445000
v 0.06590568 -0.00000000 0.04862026
v 0.06350000 -0.00000000 0.04926439
v 0.06767026 -0.00000000 0.04685568
v 0.06690510 -0.00000000 0.04785348
v -0.00240568 -0.00000000 -0.00417026
v -0.00417026 -0.00000000 -0.00240568
v -0.00340510 -0.00000000 -0.00340348
v -0.00481439 -0.00000000 -0.00000000
v -0.00481439 -0.00000000 0.04445000
v -0.00340348 -0.00000000 0.04785510
v -0.00417026 -0.00000000 0.04685568
v 0.00000000 -0.00000000 0.04926439
v -0.00240568 -0.00000000 0.04862026
v 0.01117600 -0.00000000 0.04483100
v 0.05232400 -0.00000000 0.04483100
v 0.05868561 -0.00000000 0.04445000
v 0.00340510 -0.00000000 0.04785348
v 0.05932974 -0.00000000 0.04685568
v 0.06109432 -0.00000000 0.04862026
v 0.06009652 -0.00000000 0.04785510
v 0.00240568 -0.00000000 0.04862026
v 0.04927600 -0.00029758 0.00033742
v 0.01219282 -0.00000000 0.00016300
v 0.01294370 -0.00029758 0.00059209
v 0.01422400 -0.00029758 0.00033742
v 0.05055630 -0.00029758 0.00059209
v 0.05164168 -0.00029758 0.00131732
v 0.05334000 -0.00000000 0.00368300
v 0.05236691 -0.00029758 0.00240270
v 0.05334000 -0.00000000 0.00460489
v 0.05262158 -0.00029758 0.00460489
v 0.05262158 -0.00029758 0.00368300
v 0.05932974 -0.00000000 -0.00240568
v 0.05375489 -0.00000000 0.00583533
v 0.05483013 -0.00000000 0.00656331
v 0.05359267 -0.00029758 0.00670222
v 0.05287613 -0.00029758 0.00576051
v 0.05868561 -0.00000000 -0.00000000
v 0.05840258 -0.00000000 0.00845349
v 0.05463855 -0.00029758 0.00725572
v 0.05932974 -0.00000000 0.00240568
v 0.05980246 -0.00000000 0.00992934
v 0.05719005 -0.00029758 0.00843374
v 0.06009652 -0.00000000 0.00340510
v 0.06085293 -0.00000000 0.01167387
v 0.05923140 -0.00029758 0.01036525
v 0.06109432 -0.00000000 0.00417026
v 0.06172200 -0.00000000 0.01562100
v 0.06054861 -0.00029758 0.01284776
v 0.06350000 -0.00000000 0.00481439
v 0.06172200 -0.00000000 0.03543300
v 0.06100358 -0.00029758 0.03543300
v 0.06100358 -0.00029758 0.01562100
v 0.06109432 -0.00000000 0.04027974
v 0.06100982 -0.00000000 0.03902173
v 0.06350000 -0.00000000 0.03963561
v 0.06009490 -0.00000000 0.04104652
v 0.06014419 -0.00000000 0.04064521
v 0.06057877 -0.00029758 0.03811514
v 0.05932974 -0.00000000 0.04204432
v 0.05897408 -0.00000000 0.04207369
v 0.05934593 -0.00029758 0.04053473
v 0.05754250 -0.00000000 0.04324899
v 0.05742573 -0.00029758 0.04245493
v 0.05591273 -0.00000000 0.04411882
v 0.05500614 -0.00029758 0.04368777
v 0.01117600 -0.00029758 0.04411258
v 0.05232400 -0.00029758 0.04411258
v 0.00758727 -0.00000000 0.04411882
v 0.00417026 -0.00000000 0.04685568
v 0.00596379 -0.00000000 0.04325318
v 0.00849386 -0.00029758 0.04368777
v 0.00481439 -0.00000000 0.04445000
v 0.00453530 -0.00000000 0.04208308
v 0.00607427 -0.00029758 0.04245493
v 0.00340348 -0.00000000 0.04104490
v 0.00336001 -0.00000000 0.04065150
v 0.00415407 -0.00029758 0.04053473
v 0.00417026 -0.00000000 0.04204432
v 0.00240568 -0.00000000 0.04027974
v 0.00249018 -0.00000000 0.03902173
v 0.00177800 -0.00000000 0.03543300
v 0.00292123 -0.00029758 0.03811514
v -0.00000000 -0.00000000 0.03963561
v 0.00177800 -0.00000000 0.01562100
v 0.00249642 -0.00029758 0.01562100
v 0.00249642 -0.00029758 0.03543300
v 0.00240568 -0.00000000 0.00417026
v 0.00264708 -0.00000000 0.01167387
v 0.00340510 -0.00000000 0.00340348
v 0.00369618 -0.00000000 0.00993112
v 0.00295139 -0.00029758 0.01284776
v 0.00509742 -0.00000000 0.00845349
v 0.00426860 -0.00029758 0.01036525
v 0.00417026 -0.00000000 0.00240568
v 0.01070400 -0.00000000 0.00165182
v 0.00866987 -0.00000000 0.00656331
v 0.00630995 -0.00029758 0.00843374
v 0.01134985 -0.00000000 0.00080978
v 0.01016000 -0.00000000 0.00368300
v 0.00974511 -0.00000000 0.00583533
v 0.00886145 -0.00029758 0.00725572
v 0.01016000 -0.00000000 0.00460489
v 0.01062387 -0.00029758 0.00576051
v 0.00990734 -0.00029758 0.00670222
v 0.01087842 -0.00029758 0.00368300
v 0.01087842 -0.00029758 0.00460489
v 0.01113309 -0.00029758 0.00240270
v 0.01185832 -0.00029758 0.00131732
v 0.06045200 -0.00203200 0.04445000
v 0.06086022 -0.00203200 0.04597377
v 0.06086022 -0.00203200 0.04292623
v 0.06134488 -0.00203200 0.04229459
v 0.06197623 -0.00203200 0.04181023
v 0.06590568 -0.00000000 0.00417026
v 0.06590568 -0.00000000 0.04027974
v 0.06350000 -0.00203200 0.04140200
v 0.06690510 -0.00000000 0.00340348
v 0.06690348 -0.00000000 0.04104490
v 0.06502377 -0.00203200 0.04181022
v 0.06767026 -0.00000000 0.00240568
v 0.06767026 -0.00000000 0.04204432
v 0.06565541 -0.00203200 0.04229489
v 0.06613977 -0.00203200 0.04292623
v 0.06654800 -0.00203200 0.04445000
v 0.06613978 -0.00203200 0.04597377
v 0.06565511 -0.00203200 0.04660541
v 0.06502377 -0.00203200 0.04708978
v 0.06350000 -0.00203200 0.04749800
v 0.06197623 -0.00203200 0.04708978
v 0.06134459 -0.00203200 0.04660511
v 0.06045200 -0.00203200 0.00000000
v 0.06086022 -0.00203200 0.00152377
v 0.06086022 -0.00203200 -0.00152377
v 0.06134488 -0.00203200 -0.00215541
v 0.06197623 -0.00203200 -0.00263978
v 0.06350000 -0.00203200 -0.00304800
v 0.06502377 -0.00203200 -0.00263978
v 0.06565541 -0.00203200 -0.00215512
v 0.06613977 -0.00203200 -0.00152377
v 0.06654800 -0.00203200 0.00000000
v 0.06613978 -0.00203200 0.00152377
v 0.06565511 -0.00203200 0.00215541
v 0.06502377 -0.00203200 0.00263978
v 0.06350000 -0.00203200 0.00304800
v 0.06197623 -0.00203200 0.00263978
v 0.06134459 -0.00203200 0.00215512
v -0.00417026 -0.00000000 0.00240568
v -0.00417026 -0.00000000 0.04204432
v -0.00304800 -0.00203200 0.04445000
v -0.00263978 -0.00203200 0.04597377
v -0.00340348 -0.00000000 0.00340510
v -0.00340510 -0.00000000 0.04104652
v -0.00263978 -0.00203200 0.04292623
v -0.00240568 -0.00000000 0.00417026
v -0.00240568 -0.00000000 0.04027974
v -0.00215512 -0.00203200 0.04229459
v 0.00000000 -0.00000000 0.00481439
v -0.00152377 -0.00203200 0.04181023
v -0.00000000 -0.00203200 0.04140200
v 0.00152377 -0.00203200 0.04181022
v 0.00215541 -0.00203200 0.04229489
v 0.00263978 -0.00203200 0.04292623
v 0.00304800 -0.00203200 0.04445000
v 0.00263978 -0.00203200 0.04597377
v 0.00215512 -0.00203200 0.04660541
v 0.00152377 -0.00203200 0.04708978
v 0.00000000 -0.00203200 0.04749800
v -0.00152377 -0.00203200 0.04708978
v -0.00215541 -0.00203200 0.04660511
v -0.00000000 -0.00203200 -0.00304800
v 0.00000000 -0.00203200 0.00304800
v 0.01270000 -0.00101600 0.00104335
v 0.01422400 -0.00101600 0.00063500
v 0.04927600 -0.00101600 0.00063500
v 0.01270000 -0.00584200 0.00104335
v 0.01422400 -0.00584200 0.00063500
v 0.01158435 -0.00101600 0.00215900
v 0.01117600 -0.00101600 0.00368300
v 0.01117600 -0.00584200 0.00368300
v 0.01117600 -0.00101600 0.00460489
v 0.01158356 -0.00584200 0.00216038
v 0.01178455 -0.00685245 0.00216038
v 0.01117600 -0.00584200 0.00460489
v 0.01128073 -0.00663414 0.00368300
v 0.01281601 -0.00642521 0.00104335
v 0.04927600 -0.00584200 0.00063500
v 0.04927600 -0.00736462 0.00104256
v 0.01422400 -0.00736600 0.00104335
v 0.01364079 -0.00724999 0.00104335
v 0.01314637 -0.00691963 0.00104335
v 0.01089446 -0.00584200 0.00588434
v 0.01055367 -0.00101600 0.00645055
v 0.01055367 -0.00584200 0.00645055
v 0.01158435 -0.00736600 0.00460489
v 0.00894080 -0.00101600 0.00754252
v 0.00575342 -0.00101600 0.00922932
v 0.00894080 -0.00584200 0.00754252
v 0.00575342 -0.00584200 0.00922932
v 0.01009985 -0.00584200 0.00692914
v 0.01024995 -0.00700842 0.00710606
v 0.00670527 -0.00736462 0.00901764
v 0.00904948 -0.00736462 0.00793532
v 0.01110505 -0.00700842 0.00598173
v 0.00356975 -0.00101600 0.01209922
v 0.00356975 -0.00584200 0.01209922
v 0.00279400 -0.00584200 0.01562100
v 0.00320156 -0.00736462 0.01562100
v 0.00279400 -0.00101600 0.01562100
v 0.00279400 -0.00584200 0.03543300
v 0.00482976 -0.00736462 0.01079223
v 0.00361956 -0.00736462 0.01307306
v 0.00279400 -0.00101600 0.03543300
v 0.00391698 -0.00584200 0.03962400
v 0.00307961 -0.00101600 0.03760242
v 0.00320156 -0.00736462 0.03543300
v 0.00380858 -0.00736462 0.03848469
v 0.00900658 -0.00101600 0.04352939
v 0.01117600 -0.00101600 0.04381500
v 0.01117600 -0.00584200 0.04381500
v 0.05232400 -0.00101600 0.04381500
v 0.05232400 -0.00584200 0.04381500
v 0.00698500 -0.00101600 0.04269202
v 0.00524903 -0.00101600 0.04135997
v 0.00698500 -0.00584200 0.04269202
v 0.00391697 -0.00101600 0.03962400
v 0.05449342 -0.00101600 0.04352939
v 0.05651500 -0.00584200 0.04269202
v 0.06070600 -0.00101600 0.03543300
v 0.05958302 -0.00101600 0.03962400
v 0.06042039 -0.00101600 0.03760242
v 0.05825097 -0.00101600 0.04135997
v 0.05651500 -0.00101600 0.04269202
v 0.06070600 -0.00584200 0.03543300
v 0.06070600 -0.00101600 0.01562100
v 0.06070600 -0.00584200 0.01562100
v 0.05958303 -0.00584200 0.03962400
v 0.05993025 -0.00101600 0.01209922
v 0.05993025 -0.00584200 0.01209922
v 0.05455920 -0.00101600 0.00754252
v 0.05294633 -0.00101600 0.00645055
v 0.05774658 -0.00101600 0.00922932
v 0.05455920 -0.00584200 0.00754252
v 0.05294633 -0.00584200 0.00645055
v 0.05340116 -0.00584200 0.00692999
v 0.05774658 -0.00584200 0.00922932
v 0.05232400 -0.00101600 0.00460489
v 0.05232400 -0.00584200 0.00460489
v 0.05232400 -0.00101600 0.00368300
v 0.05260609 -0.00584200 0.00588554
v 0.05191565 -0.00101600 0.00215900
v 0.05191565 -0.00584200 0.00215900
v 0.05232400 -0.00584200 0.00368300
v 0.05080000 -0.00101600 0.00104335
v 0.05079862 -0.00584200 0.00104256
v 0.04985868 -0.00724872 0.00104256
v 0.05035265 -0.00691865 0.00104256
v 0.05068272 -0.00642468 0.00104256
v 0.01422400 -0.00848244 0.00216038
v 0.04927600 -0.00848165 0.00215900
v 0.04927600 -0.00889000 0.00368300
v 0.05028615 -0.00828071 0.00215900
v 0.01422400 -0.00889000 0.00368300
v 0.01422400 -0.00889000 0.00460489
v 0.01358900 -0.00889000 0.01136650
v 0.04927600 -0.00889000 0.00460489
v 0.05006814 -0.00878527 0.00368300
v 0.01321355 -0.00828145 0.00216038
v 0.01270447 -0.00848422 0.00368300
v 0.01270000 -0.00848165 0.00460489
v 0.01366093 -0.00889000 0.00716379
v 0.01260225 -0.00865798 0.00667416
v 0.01207170 -0.00889000 0.00925339
v 0.01131710 -0.00865798 0.00836394
v 0.00995895 -0.00889000 0.01346293
v 0.00975360 -0.00889000 0.01048015
v 0.00934720 -0.00848165 0.00901134
v 0.01149443 -0.00889000 0.01192745
v 0.01062500 -0.00889000 0.01259453
v 0.00939800 -0.00889000 0.01555750
v 0.00772535 -0.00889000 0.01155350
v 0.00655540 -0.00889000 0.03809788
v 0.00633561 -0.00889000 0.01337997
v 0.00571825 -0.00848165 0.01146827
v 0.00740319 -0.00889000 0.03920360
v 0.00851112 -0.00889000 0.04005360
v 0.00733119 -0.00848165 0.00994213
v 0.00584200 -0.00889000 0.03543300
v 0.00584200 -0.00889000 0.01562100
v 0.00467748 -0.00848165 0.01342978
v 0.00431800 -0.00848165 0.03543300
v 0.00431800 -0.00848165 0.01562100
v 0.00484003 -0.00848165 0.03805744
v 0.00632666 -0.00848165 0.04028234
v 0.01062603 -0.00889000 0.03846050
v 0.01117600 -0.00889000 0.04076700
v 0.00855156 -0.00848165 0.04176896
v 0.00995895 -0.00889000 0.03759107
v 0.00939800 -0.00889000 0.03549650
v 0.04991100 -0.00889000 0.03968750
v 0.05232400 -0.00889000 0.04076700
v 0.05232400 -0.00848165 0.04229100
v 0.01358900 -0.00889000 0.03968750
v 0.01149443 -0.00889000 0.03912655
v 0.01117600 -0.00848165 0.04229100
v 0.05354105 -0.00889000 0.03759107
v 0.05498888 -0.00889000 0.04005360
v 0.05287500 -0.00889000 0.03845947
v 0.05200557 -0.00889000 0.03912655
v 0.05577465 -0.00889000 0.01155350
v 0.05609460 -0.00889000 0.03920581
v 0.05494844 -0.00848165 0.04176896
v 0.05410200 -0.00889000 0.03549650
v 0.05716439 -0.00889000 0.01337997
v 0.05694460 -0.00889000 0.03809788
v 0.05717334 -0.00848165 0.04028234
v 0.05765800 -0.00889000 0.01562100
v 0.05765800 -0.00889000 0.03543300
v 0.05865997 -0.00848165 0.03805744
v 0.05918200 -0.00848165 0.01562100
v 0.05918200 -0.00848165 0.03543300
v 0.05778175 -0.00848165 0.01146827
v 0.05882252 -0.00848165 0.01342978
v 0.05410200 -0.00889000 0.01555750
v 0.05374640 -0.00889000 0.01048015
v 0.05616881 -0.00848165 0.00994213
v 0.05200557 -0.00889000 0.01192745
v 0.05143032 -0.00889000 0.00925510
v 0.05218453 -0.00865798 0.00836532
v 0.05287397 -0.00889000 0.01259350
v 0.05354105 -0.00889000 0.01346293
v 0.05415280 -0.00848165 0.00901134
v 0.04991100 -0.00889000 0.01136650
v 0.04984018 -0.00889000 0.00716619
v 0.05089865 -0.00865798 0.00667610
v 0.05080000 -0.00848165 0.00460489
v 0.04991100 -0.00918758 0.01208492
v 0.01226010 -0.00918758 0.01234925
v 0.01358900 -0.00918758 0.01208492
v 0.05123990 -0.00918758 0.01234925
v 0.05236648 -0.00918758 0.01310202
v 0.05311925 -0.00918758 0.01422860
v 0.05338358 -0.00918758 0.03549650
v 0.05338358 -0.00918758 0.01555750
v 0.05311925 -0.00918758 0.03682540
v 0.05236648 -0.00918758 0.03795198
v 0.05123990 -0.00918758 0.03870475
v 0.01358900 -0.00918758 0.03896908
v 0.04991100 -0.00918758 0.03896908
v 0.01226010 -0.00918758 0.03870475
v 0.01113352 -0.00918758 0.03795198
v 0.01038076 -0.00918758 0.03682540
v 0.01011642 -0.00918758 0.01555750
v 0.01011642 -0.00918758 0.03549650
v 0.01038076 -0.00918758 0.01422860
v 0.01113352 -0.00918758 0.01310202
v 0.01158705 -0.00737067 0.00368300
v 0.01235692 -0.00770908 0.00216038
v 0.01170474 -0.00799726 0.00625908
v 0.01067739 -0.00799726 0.00760990
v 0.00553722 -0.00736462 0.04107178
v 0.00812431 -0.00736462 0.04280043
v 0.01117600 -0.00736462 0.04340744
v 0.05232400 -0.00736462 0.04340744
v 0.05537569 -0.00736462 0.04280043
v 0.06029844 -0.00736462 0.03543300
v 0.05796278 -0.00736462 0.04107178
v 0.05969143 -0.00736462 0.03848469
v 0.06029844 -0.00736462 0.01562100
v 0.05988044 -0.00736462 0.01307306
v 0.05445052 -0.00736462 0.00793532
v 0.05679473 -0.00736462 0.00901764
v 0.05282391 -0.00799726 0.00761100
v 0.05325114 -0.00700842 0.00710698
v 0.05867024 -0.00736462 0.01079223
v 0.05179597 -0.00799726 0.00626063
v 0.05191565 -0.00736600 0.00460489
v 0.05239555 -0.00700842 0.00598302
v 0.05080466 -0.00847895 0.00368300
v 0.05191822 -0.00736153 0.00368300
v 0.05114251 -0.00770851 0.00215900
v 0.05171471 -0.00685215 0.00215900
v 0.04991100 -0.00990600 0.01238250
v 0.01358900 -0.00990600 0.01238250
v 0.01200150 -0.00990600 0.01280787
v 0.01358900 -0.01092200 0.01238250
v 0.01200178 -0.01092200 0.01280771
v 0.04991100 -0.01092200 0.01238250
v 0.05149850 -0.00990600 0.01280787
v 0.01083937 -0.00990600 0.01397000
v 0.01041400 -0.00990600 0.01555750
v 0.01041400 -0.01092200 0.01555750
v 0.01041400 -0.01092200 0.03549650
v 0.01041400 -0.00990600 0.03549650
v 0.01134411 -0.01092200 0.01331226
v 0.01083921 -0.01092200 0.01397028
v 0.01083921 -0.01092200 0.03708372
v 0.01134376 -0.01092200 0.03774139
v 0.01200178 -0.01092200 0.03824629
v 0.01358900 -0.01092200 0.03867150
v 0.04991100 -0.01092200 0.03867150
v 0.05149822 -0.01092200 0.01280771
v 0.05266079 -0.01092200 0.03708372
v 0.05308600 -0.01092200 0.01555750
v 0.05308600 -0.01092200 0.03549650
v 0.05308600 -0.00990600 0.03549650
v 0.05266063 -0.00990600 0.03708400
v 0.05266079 -0.01092200 0.01397028
v 0.05308600 -0.00990600 0.01555750
v 0.05215589 -0.01092200 0.03774174
v 0.05215624 -0.01092200 0.01331261
v 0.05266063 -0.00990600 0.01397000
v 0.05149822 -0.01092200 0.03824629
v 0.01083937 -0.00990600 0.03708400
v 0.01200150 -0.00990600 0.03824613
v 0.01358900 -0.00990600 0.03867150
v 0.04991100 -0.00990600 0.03867150
v 0.05149850 -0.00990600 0.03824613
v 0.06604000 -0.00203200 0.04445000
v 0.06557882 -0.00203200 0.04299051
v 0.06557882 -0.00203200 0.04590949
v 0.06433479 -0.00203200 0.04684890
v 0.06354314 -0.00203200 0.04698963
v 0.06273470 -0.00203200 0.04687196
v 0.06198942 -0.00203200 0.04649200
v 0.06142118 -0.00203200 0.04590949
v 0.06096000 -0.00203200 0.04445000
v 0.06426530 -0.00203200 0.04202804
v 0.06345686 -0.00203200 0.04191037
v 0.06501058 -0.00203200 0.04240800
v 0.06142118 -0.00203200 0.04299051
v 0.06266521 -0.00203200 0.04205110
v 0.06096000 -0.00101600 0.04445000
v 0.06142118 -0.00101600 0.04590949
v 0.06142118 -0.00101600 0.04299051
v 0.06107804 -0.00101600 0.04368469
v 0.06273470 -0.00101600 0.04202804
v 0.06198942 -0.00101600 0.04240800
v 0.06354314 -0.00101600 0.04191037
v 0.06433479 -0.00101600 0.04205110
v 0.06503779 -0.00101600 0.04242842
v 0.06557882 -0.00101600 0.04299051
v 0.06604000 -0.00101600 0.04445000
v 0.06557882 -0.00101600 0.04590949
v 0.06592196 -0.00101600 0.04521531
v 0.06426530 -0.00101600 0.04687196
v 0.06501058 -0.00101600 0.04649200
v 0.06345686 -0.00101600 0.04698963
v 0.06266521 -0.00101600 0.04684890
v 0.06196221 -0.00101600 0.04647158
v 0.06599692 -0.00101600 0.04511900
v 0.06573871 -0.00101600 0.04315759
v 0.06608498 -0.00101600 0.04445000
v 0.06573871 -0.00101600 0.04574241
v 0.06532792 -0.00101600 0.04627779
v 0.06479241 -0.00101600 0.04668871
v 0.06416900 -0.00101600 0.04694691
v 0.06283100 -0.00101600 0.04694691
v 0.06350000 -0.00101600 0.04703498
v 0.06220759 -0.00101600 0.04668871
v 0.06167220 -0.00101600 0.04627792
v 0.06126129 -0.00101600 0.04574241
v 0.06100309 -0.00101600 0.04378100
v 0.06091502 -0.00101600 0.04445000
v 0.06126129 -0.00101600 0.04315759
v 0.06167208 -0.00101600 0.04262220
v 0.06220759 -0.00101600 0.04221129
v 0.06283100 -0.00101600 0.04195309
v 0.06416900 -0.00101600 0.04195309
v 0.06350000 -0.00101600 0.04186502
v 0.06479241 -0.00101600 0.04221129
v 0.06532779 -0.00101600 0.04262208
v 0.06604000 -0.00203200 0.00000000
v 0.06557882 -0.00203200 -0.00145949
v 0.06557882 -0.00203200 0.00145949
v 0.06433479 -0.00203200 0.00239890
v 0.06354314 -0.00203200 0.00253963
v 0.06273470 -0.00203200 0.00242197
v 0.06198942 -0.00203200 0.00204199
v 0.06142118 -0.00203200 0.00145949
v 0.06096000 -0.00203200 -0.00000000
v 0.06426530 -0.00203200 -0.00242197
v 0.06345686 -0.00203200 -0.00253963
v 0.06501058 -0.00203200 -0.00204199
v 0.06142118 -0.00203200 -0.00145949
v 0.06266521 -0.00203200 -0.00239890
v 0.06096000 -0.00101600 0.00000000
v 0.06142118 -0.00101600 0.00145949
v 0.06142118 -0.00101600 -0.00145949
v 0.06107804 -0.00101600 -0.00076531
v 0.06273470 -0.00101600 -0.00242197
v 0.06198942 -0.00101600 -0.00204199
v 0.06354314 -0.00101600 -0.00253963
v 0.06433479 -0.00101600 -0.00239890
v 0.06503779 -0.00101600 -0.00202158
v 0.06557882 -0.00101600 -0.00145949
v 0.06604000 -0.00101600 0.00000000
v 0.06557882 -0.00101600 0.00145949
v 0.06592196 -0.00101600 0.00076531
v 0.06426530 -0.00101600 0.00242197
v 0.06501058 -0.00101600 0.00204199
v 0.06345686 -0.00101600 0.00253963
v 0.06266521 -0.00101600 0.00239890
v 0.06196221 -0.00101600 0.00202158
v 0.06599692 -0.00101600 0.00066900
v 0.06573871 -0.00101600 -0.00129241
v 0.06608498 -0.00101600 -0.00000000
v 0.06573871 -0.00101600 0.00129241
v 0.06532792 -0.00101600 0.00182780
v 0.06479241 -0.00101600 0.00223871
v 0.06416900 -0.00101600 0.00249691
v 0.06283100 -0.00101600 0.00249691
v 0.06350000 -0.00101600 0.00258498
v 0.06220759 -0.00101600 0.00223871
v 0.06167220 -0.00101600 0.00182792
v 0.06126129 -0.00101600 0.00129241
v 0.06100309 -0.00101600 -0.00066900
v 0.06091502 -0.00101600 0.00000000
v 0.06126129 -0.00101600 -0.00129241
v 0.06167208 -0.00101600 -0.00182780
v 0.06220759 -0.00101600 -0.00223871
v 0.06283100 -0.00101600 -0.00249691
v 0.06416900 -0.00101600 -0.00249691
v 0.06350000 -0.00101600 -0.00258498
v 0.06479241 -0.00101600 -0.00223871
v 0.06532779 -0.00101600 -0.00182792
v -0.00076530 -0.00203200 0.04687196
v 0.00004314 -0.00203200 0.04698963
v -0.00151058 -0.00203200 0.04649200
v -0.00207882 -0.00203200 0.04590949
v -0.00254000 -0.00203200 0.04445000
v 0.00254000 -0.00203200 0.04445000
v 0.00207882 -0.00203200 0.04299051
v 0.00207882 -0.00203200 0.04590949
v 0.00083479 -0.00203200 0.04684890
v 0.00151058 -0.00203200 0.04240800
v 0.00076530 -0.00203200 0.04202804
v -0.00004314 -0.00203200 0.04191037
v -0.00083479 -0.00203200 0.04205110
v -0.00207882 -0.00203200 0.04299051
v -0.00254000 -0.00101600 0.04445000
v -0.00207882 -0.00101600 0.04590949
v -0.00207882 -0.00101600 0.04299051
v -0.00242196 -0.00101600 0.04368469
v -0.00076530 -0.00101600 0.04202804
v -0.00151058 -0.00101600 0.04240800
v 0.00004314 -0.00101600 0.04191037
v 0.00083479 -0.00101600 0.04205110
v 0.00153780 -0.00101600 0.04242842
v 0.00207882 -0.00101600 0.04299051
v 0.00254000 -0.00101600 0.04445000
v 0.00207882 -0.00101600 0.04590949
v 0.00242196 -0.00101600 0.04521531
v 0.00076530 -0.00101600 0.04687196
v 0.00151058 -0.00101600 0.04649200
v -0.00004314 -0.00101600 0.04698963
v -0.00083479 -0.00101600 0.04684890
v -0.00153780 -0.00101600 0.04647158
v 0.00249691 -0.00101600 0.04511900
v 0.00258498 -0.00101600 0.04445000
v 0.00223871 -0.00101600 0.04315759
v 0.00223871 -0.00101600 0.04574241
v 0.00182792 -0.00101600 0.04627779
v 0.00129241 -0.00101600 0.04668871
v 0.00066900 -0.00101600 0.04694691
v -0.00066900 -0.00101600 0.04694691
v 0.00000000 -0.00101600 0.04703498
v -0.00129241 -0.00101600 0.04668871
v -0.00182780 -0.00101600 0.04627792
v -0.00223871 -0.00101600 0.04574241
v -0.00249691 -0.00101600 0.04378100
v -0.00258498 -0.00101600 0.04445000
v -0.00223871 -0.00101600 0.04315759
v -0.00182792 -0.00101600 0.04262220
v -0.00129241 -0.00101600 0.04221129
v -0.00066900 -0.00101600 0.04195309
v -0.00000000 -0.00101600 0.04186502
v 0.00066900 -0.00101600 0.04195309
v 0.00129241 -0.00101600 0.04221129
v 0.00182780 -0.00101600 0.04262208
v 0.01334241 -0.00000092 0.00155465
v 0.01320800 -0.00101600 0.00192324
v 0.01422400 -0.00101600 0.00165100
v 0.01422400 -0.00584200 0.00165100
v 0.01422400 -0.00000092 0.00137930
v 0.04927600 -0.00000092 0.00137930
v 0.04927600 -0.00101600 0.00165100
v 0.04927600 -0.00584200 0.00165100
v 0.01259504 -0.00000092 0.00205403
v 0.01246424 -0.00101600 0.00266700
v 0.01320800 -0.00584200 0.00192324
v 0.01192030 -0.00000092 0.00368300
v 0.01219200 -0.00101600 0.00368300
v 0.01246370 -0.00584200 0.00266792
v 0.01209565 -0.00000092 0.00280141
v 0.01219200 -0.00101600 0.00460489
v 0.01219200 -0.00584200 0.00460489
v 0.01219200 -0.00584200 0.00368300
v 0.01117941 0.00074179 0.00460489
v 0.01192166 -0.00000330 0.00460489
v 0.05015759 -0.00000092 0.00155465
v 0.05029200 -0.00101600 0.00192324
v 0.05029108 -0.00584200 0.00192270
v 0.05157971 -0.00000092 0.00368300
v 0.05158221 0.00000341 0.00460489
v 0.05140435 -0.00000092 0.00280141
v 0.05090497 -0.00000092 0.00205403
v 0.05130800 -0.00101600 0.00368300
v 0.05137786 -0.00048779 0.00460489
v 0.05103576 -0.00101600 0.00266700
v 0.05130800 -0.00584200 0.00368300
v 0.05130800 -0.00101600 0.00460489
v 0.05103576 -0.00584200 0.00266700
v 0.05219774 0.00039108 0.00607461
v 0.05180854 -0.00027176 0.00624504
v 0.05143619 -0.00063867 0.00546483
v 0.05164285 -0.00035880 0.00592162
v 0.05131744 -0.00101600 0.00488177
v 0.05132293 -0.00177800 0.00495300
v 0.05133042 -0.00225977 0.00503117
v 0.05130800 -0.00584200 0.00460489
v 0.05294829 0.00007167 0.00746427
v 0.01169228 -0.00027200 0.00624349
v 0.05193281 -0.00025400 0.00647700
v 0.01156719 -0.00025400 0.00647700
v 0.01185723 -0.00035886 0.00592146
v 0.05134570 -0.00101600 0.00515718
v 0.01206384 -0.00063874 0.00546474
v 0.05132777 -0.00138234 0.00500526
v 0.01215430 -0.00101600 0.00515718
v 0.05455920 0.00074376 0.00754253
v 0.05252972 -0.00060568 0.00745078
v 0.05275393 -0.00087836 0.00770713
v 0.05436072 -0.00000092 0.00825987
v 0.05222454 -0.00034309 0.00699044
v 0.01074730 -0.00087675 0.00770595
v 0.05285651 -0.00101600 0.00779682
v 0.01064349 -0.00101600 0.00779682
v 0.01097029 -0.00060568 0.00745077
v 0.01127546 -0.00034309 0.00699043
v 0.05660594 -0.00000092 0.00929648
v 0.05353579 -0.00101600 0.00823042
v 0.05428827 -0.00101600 0.00852173
v 0.05708930 -0.00101600 0.01000407
v 0.05428827 -0.00584200 0.00852173
v 0.05708930 -0.00584200 0.01000407
v 0.05305837 -0.00137239 0.00794603
v 0.05313505 -0.00168010 0.00799785
v 0.01044150 -0.00137271 0.00794612
v 0.01217707 -0.00177800 0.00495300
v 0.01217223 -0.00138234 0.00500526
v 0.05168412 -0.00584200 0.00631242
v 0.05136034 -0.00268863 0.00525502
v 0.01216958 -0.00225976 0.00503117
v 0.05143012 -0.00301991 0.00559365
v 0.01213966 -0.00268863 0.00525502
v 0.05155857 -0.00322865 0.00600984
v 0.01206988 -0.00301992 0.00559366
v 0.05176488 -0.00330200 0.00647700
v 0.01194143 -0.00322865 0.00600984
v 0.05274287 -0.00584200 0.00770389
v 0.05203880 -0.00323314 0.00692994
v 0.01173512 -0.00330200 0.00647700
v 0.05239285 -0.00301362 0.00736908
v 0.01146097 -0.00323303 0.00693028
v 0.05275972 -0.00266244 0.00771811
v 0.01110677 -0.00301332 0.00736950
v 0.05300999 -0.00229114 0.00791201
v 0.01074007 -0.00266219 0.00771828
v 0.05312138 -0.00197045 0.00798880
v 0.01048979 -0.00229072 0.00791216
v 0.01037854 -0.00197007 0.00798885
v 0.01036496 -0.00168001 0.00799785
v 0.05421567 -0.00685800 0.00878411
v 0.05630106 -0.00685777 0.00974679
v 0.05192113 -0.00685800 0.00723062
v 0.05294097 -0.00685800 0.00819558
v 0.05126306 -0.00685800 0.00599038
v 0.05123815 -0.00637021 0.00368300
v 0.05103576 -0.00685800 0.00460489
v 0.01130303 0.00039093 0.00607329
v 0.01055260 0.00007253 0.00746280
v 0.01218255 -0.00101600 0.00488185
v 0.01181588 -0.00584200 0.00631242
v 0.01075713 -0.00584200 0.00770389
v 0.00996340 -0.00101600 0.00823083
v 0.00921173 -0.00101600 0.00852173
v 0.00919311 -0.00048779 0.00845441
v 0.00921173 -0.00584200 0.00852173
v 0.00641070 -0.00101600 0.01000407
v 0.00689406 -0.00000092 0.00929648
v 0.01246424 -0.00685800 0.00460489
v 0.01157887 -0.00685800 0.00723062
v 0.01223694 -0.00685800 0.00599038
v 0.01055903 -0.00685800 0.00819558
v 0.00641070 -0.00584200 0.01000407
v 0.00928433 -0.00685800 0.00878411
v 0.00913928 -0.00000091 0.00825986
v 0.00509774 -0.00000092 0.01099614
v 0.00393865 -0.00000092 0.01318065
v 0.00353830 -0.00000092 0.01562100
v 0.00353830 -0.00000092 0.03543300
v 0.00449172 -0.00101600 0.01252611
v 0.00381000 -0.00101600 0.01562100
v 0.00381000 -0.00101600 0.03543300
v 0.00449172 -0.00584200 0.01252610
v 0.00381000 -0.00584200 0.01562100
v 0.00553041 -0.00685754 0.01132535
v 0.00719894 -0.00685777 0.00974679
v 0.00445370 -0.00685731 0.01335432
v 0.00408170 -0.00685708 0.01562100
v 0.00408170 -0.00685708 0.03543300
v 0.00381000 -0.00584200 0.03543300
v 0.00948291 -0.00760230 0.00950183
v 0.01097653 -0.00760230 0.00881223
v 0.00761638 -0.00760216 0.01036336
v 0.00612289 -0.00760203 0.01177616
v 0.00515907 -0.00760190 0.01359216
v 0.00482600 -0.00760176 0.01562100
v 0.00482600 -0.00760176 0.03543300
v 0.00772535 -0.00787400 0.01155350
v 0.00975360 -0.00787400 0.01048015
v 0.00939800 -0.00787400 0.01555750
v 0.01207151 -0.00787400 0.00925355
v 0.01149443 -0.00787400 0.01192745
v 0.01062603 -0.00787400 0.01259350
v 0.00995895 -0.00787400 0.01346293
v 0.00633561 -0.00787400 0.01337997
v 0.00740540 -0.00787400 0.03920581
v 0.00851112 -0.00787400 0.04005360
v 0.00939800 -0.00787400 0.03549650
v 0.00584200 -0.00787400 0.01562100
v 0.00655540 -0.00787400 0.03809788
v 0.00584200 -0.00787400 0.03543300
v 0.01320892 -0.00760230 0.00460489
v 0.01320459 -0.00759979 0.00368300
v 0.01246234 -0.00685470 0.00368300
v 0.01294259 -0.00760230 0.00622832
v 0.01217151 -0.00760230 0.00768154
v 0.01365992 -0.00787400 0.00716596
v 0.01422400 -0.00787400 0.00460489
v 0.04991100 -0.00787400 0.01136650
v 0.01369579 -0.00780415 0.00368300
v 0.01422400 -0.00787400 0.00368300
v 0.01297921 -0.00787400 0.00829637
v 0.01358900 -0.00787400 0.01136650
v 0.01297928 -0.00708672 0.00266792
v 0.01259770 -0.00651564 0.00266792
v 0.01355036 -0.00746830 0.00266792
v 0.01422400 -0.00760230 0.00266792
v 0.04927600 -0.00760176 0.00266700
v 0.04927600 -0.00787400 0.00368300
v 0.04927600 -0.00787400 0.00460489
v 0.01328534 -0.00623081 0.00192324
v 0.01383519 -0.00678066 0.00192324
v 0.01422400 -0.00685800 0.00192324
v 0.01350558 -0.00656042 0.00192324
v 0.04927600 -0.00685708 0.00192270
v 0.04978354 -0.00672108 0.00192270
v 0.05015508 -0.00634954 0.00192270
v 0.05015588 -0.00736600 0.00266700
v 0.05028870 -0.00760366 0.00368300
v 0.05029108 -0.00760230 0.00460489
v 0.05080000 -0.00672188 0.00266700
v 0.05103379 -0.00686141 0.00368300
v 0.05055741 -0.00760230 0.00622832
v 0.04984008 -0.00787400 0.00716596
v 0.01358900 -0.00787400 0.03968750
v 0.01117600 -0.00787400 0.04076700
v 0.05232400 -0.00787400 0.04076700
v 0.01117600 -0.00760176 0.04178300
v 0.05287397 -0.00787400 0.03846050
v 0.05498888 -0.00787400 0.04005360
v 0.05475404 -0.00760176 0.04129963
v 0.04991100 -0.00787400 0.03968750
v 0.05200557 -0.00787400 0.03912655
v 0.05232400 -0.00760176 0.04178300
v 0.00995895 -0.00787400 0.03759107
v 0.01149443 -0.00787400 0.03912655
v 0.01062500 -0.00787400 0.03845947
v 0.00874596 -0.00760176 0.04129963
v 0.00668587 -0.00760176 0.03992313
v 0.00530936 -0.00760176 0.03786304
v 0.05052054 -0.00787400 0.00829604
v 0.05200557 -0.00787400 0.01192745
v 0.05142850 -0.00787400 0.00925355
v 0.05132849 -0.00760230 0.00768154
v 0.05354105 -0.00787400 0.01346293
v 0.05374640 -0.00787400 0.01048015
v 0.05252348 -0.00760230 0.00881223
v 0.05287500 -0.00787400 0.01259453
v 0.05410200 -0.00787400 0.01555750
v 0.05577465 -0.00787400 0.01155350
v 0.05401709 -0.00760230 0.00950183
v 0.05694460 -0.00787400 0.03809788
v 0.05716439 -0.00787400 0.01337997
v 0.05737711 -0.00760203 0.01177616
v 0.05609681 -0.00787400 0.03920360
v 0.05588362 -0.00760216 0.01036336
v 0.05765800 -0.00787400 0.03543300
v 0.05765800 -0.00787400 0.01562100
v 0.05834093 -0.00760190 0.01359216
v 0.05867400 -0.00760176 0.03543300
v 0.05867400 -0.00760176 0.01562100
v 0.05819064 -0.00760176 0.03786304
v 0.05681413 -0.00760176 0.03992313
v 0.05354105 -0.00787400 0.03759107
v 0.05410200 -0.00787400 0.03549650
v 0.04991100 -0.00814624 0.03867150
v 0.01237398 -0.00814624 0.03842982
v 0.01358900 -0.00814624 0.03867150
v 0.05112602 -0.00814624 0.03842982
v 0.05215606 -0.00814624 0.03774156
v 0.05284432 -0.00814624 0.03671152
v 0.05308600 -0.00814624 0.01555750
v 0.05308600 -0.00814624 0.03549650
v 0.05284432 -0.00814624 0.01434248
v 0.05215606 -0.00814624 0.01331244
v 0.05112602 -0.00814624 0.01262418
v 0.01358900 -0.00814624 0.01238250
v 0.04991100 -0.00814624 0.01238250
v 0.01237398 -0.00814624 0.01262418
v 0.01134394 -0.00814624 0.01331244
v 0.01065568 -0.00814624 0.01434248
v 0.01041400 -0.00814624 0.03549650
v 0.01041400 -0.00814624 0.01555750
v 0.01065568 -0.00814624 0.03671152
v 0.01134394 -0.00814624 0.03774156
v 0.01117600 -0.00685708 0.04252730
v 0.05232400 -0.00685708 0.04252730
v 0.05503887 -0.00685708 0.04198727
v 0.01117600 -0.00584200 0.04279900
v 0.05232400 -0.00584200 0.04279900
v 0.05600700 -0.00584200 0.04181214
v 0.05232400 -0.00101600 0.04279900
v 0.05600700 -0.00101600 0.04181214
v 0.05423046 -0.00101600 0.04254801
v 0.00846113 -0.00685708 0.04198727
v 0.01117600 -0.00101600 0.04279900
v 0.00749300 -0.00584200 0.04181214
v 0.05941829 -0.00685708 0.03543300
v 0.05887827 -0.00685708 0.03814787
v 0.05734042 -0.00685708 0.04044943
v 0.05969000 -0.00584200 0.03543300
v 0.05941829 -0.00685708 0.01562100
v 0.05870314 -0.00584200 0.03911600
v 0.05969000 -0.00101600 0.03543300
v 0.05969000 -0.00584200 0.01562100
v 0.05969000 -0.00101600 0.01562100
v 0.05870314 -0.00101600 0.03911600
v 0.05943901 -0.00101600 0.03733946
v 0.05753255 -0.00101600 0.04064155
v 0.05904630 -0.00685731 0.01335432
v 0.05900828 -0.00584200 0.01252611
v 0.05900828 -0.00101600 0.01252610
v 0.05796959 -0.00685754 0.01132535
v 0.05840226 -0.00000092 0.01099614
v 0.05956135 -0.00000092 0.01318065
v 0.05996171 -0.00000092 0.01562100
v 0.05996171 -0.00000092 0.03543300
v 0.05958789 -0.00000092 0.03779318
v 0.05850303 -0.00000092 0.03992233
v 0.05681333 -0.00000092 0.04161203
v 0.05468418 -0.00000092 0.04269689
v 0.05232400 -0.00000092 0.04307070
v 0.01117600 -0.00000092 0.04307070
v 0.00926954 -0.00101600 0.04254801
v 0.00881582 -0.00000092 0.04269689
v 0.00391211 -0.00000092 0.03779318
v 0.00499697 -0.00000092 0.03992233
v 0.00668667 -0.00000092 0.04161203
v 0.00406099 -0.00101600 0.03733946
v 0.00479686 -0.00101600 0.03911600
v 0.00596745 -0.00101600 0.04064155
v 0.00479686 -0.00584200 0.03911600
v 0.00749300 -0.00101600 0.04181214
v 0.00615958 -0.00685708 0.04044943
v 0.00462173 -0.00685708 0.03814787
v 0.01358900 -0.00889092 0.03792720
v 0.04991100 -0.00889092 0.03792720
v 0.04991100 -0.00990600 0.03765550
v 0.05084119 -0.00889092 0.03774218
v 0.01358900 -0.00990600 0.03765550
v 0.01358900 -0.00990600 0.01339850
v 0.05099048 -0.00990600 0.03736626
v 0.04991100 -0.00990600 0.01339850
v 0.01265881 -0.00889092 0.03774218
v 0.01250952 -0.00990600 0.03736626
v 0.01250952 -0.00990600 0.01368774
v 0.05162977 -0.00889092 0.03721527
v 0.05178076 -0.00990600 0.03657598
v 0.05099048 -0.00990600 0.01368774
v 0.05234170 -0.00889092 0.03549650
v 0.05207000 -0.00990600 0.03549650
v 0.05178076 -0.00990600 0.01447802
v 0.05215668 -0.00889092 0.03642669
v 0.05207000 -0.00990600 0.01555750
v 0.05234170 -0.00889092 0.01555750
v 0.05215668 -0.00889092 0.01462731
v 0.01171924 -0.00990600 0.01447802
v 0.01171924 -0.00990600 0.03657598
v 0.01187023 -0.00889092 0.03721527
v 0.01143000 -0.00990600 0.01555750
v 0.01143000 -0.00990600 0.03549650
v 0.01134332 -0.00889092 0.03642669
v 0.01115829 -0.00889092 0.01555750
v 0.01115829 -0.00889092 0.03549650
v 0.01187023 -0.00889092 0.01383873
v 0.01134332 -0.00889092 0.01462731
v 0.01265881 -0.00889092 0.01331182
v 0.04991100 -0.00889092 0.01312680
v 0.01358900 -0.00889092 0.01312680
v 0.05162977 -0.00889092 0.01383873
v 0.05084119 -0.00889092 0.01331182
f 1 2 3
f 4 3 2
f 5 1 3
f 6 5 3
f 7 6 3
f 4 8 3
f 7 3 8
f 1 9 2
f 10 2 9
f 10 4 2
f 11 12 9
f 13 9 12
f 1 11 9
f 13 10 9
f 11 14 12
f 15 12 14
f 15 13 12
f 16 17 14
f 18 14 17
f 11 16 14
f 18 15 14
f 19 20 17
f 21 17 20
f 16 19 17
f 22 18 17
f 21 22 17
f 23 24 20
f 25 20 24
f 19 23 20
f 25 21 20
f 26 27 24
f 28 24 27
f 23 26 24
f 28 25 24
f 29 30 27
f 31 27 30
f 26 29 27
f 31 28 27
f 32 30 29
f 32 33 30
f 34 30 33
f 35 31 30
f 34 35 30
f 36 29 26
f 37 32 29
f 37 29 36
f 38 26 23
f 38 36 26
f 39 23 19
f 39 38 23
f 40 19 16
f 40 39 19
f 41 16 11
f 41 40 16
f 42 11 1
f 42 41 11
f 43 1 5
f 43 42 1
f 44 5 6
f 45 5 44
f 43 5 45
f 32 46 33
f 47 33 46
f 47 34 33
f 48 49 46
f 50 46 49
f 32 48 46
f 50 47 46
f 48 51 49
f 52 49 51
f 52 50 49
f 53 54 51
f 55 51 54
f 48 53 51
f 55 52 51
f 56 57 54
f 58 54 57
f 53 56 54
f 59 55 54
f 58 59 54
f 60 61 57
f 62 57 61
f 56 60 57
f 62 58 57
f 44 6 61
f 63 61 6
f 60 44 61
f 63 62 61
f 7 63 6
f 64 44 60
f 45 44 64
f 65 60 56
f 64 60 65
f 66 56 53
f 65 56 66
f 67 53 48
f 67 66 53
f 68 48 32
f 67 48 68
f 68 32 37
f 69 8 4
f 70 7 8
f 69 70 8
f 71 4 10
f 71 69 4
f 72 10 13
f 72 71 10
f 72 13 15
f 73 15 18
f 73 72 15
f 73 18 22
f 74 22 21
f 74 73 22
f 75 21 25
f 75 74 21
f 76 25 28
f 76 75 25
f 76 28 31
f 77 31 35
f 77 76 31
f 78 35 34
f 77 35 78
f 79 34 47
f 79 78 34
f 80 47 50
f 80 79 47
f 80 50 52
f 81 52 55
f 81 80 52
f 81 55 59
f 82 59 58
f 82 81 59
f 83 58 62
f 83 82 58
f 84 62 63
f 84 83 62
f 84 63 7
f 70 84 7
f 85 78 79
f 86 77 78
f 85 86 78
f 87 79 80
f 85 79 88
f 87 88 79
f 89 80 81
f 89 87 80
f 90 81 82
f 90 89 81
f 91 82 83
f 92 90 82
f 91 92 82
f 93 83 84
f 93 91 83
f 94 84 70
f 94 93 84
f 95 70 69
f 95 94 70
f 96 69 71
f 95 69 96
f 97 71 72
f 98 96 71
f 97 98 71
f 99 72 73
f 99 97 72
f 100 73 74
f 100 99 73
f 101 74 75
f 102 100 74
f 101 102 74
f 103 75 76
f 103 101 75
f 104 76 77
f 104 103 76
f 86 104 77
f 95 96 98
f 105 98 97
f 106 95 98
f 105 107 98
f 108 98 107
f 106 98 108
f 105 97 99
f 109 99 100
f 109 105 99
f 109 100 102
f 110 102 101
f 110 109 102
f 110 101 103
f 110 103 104
f 111 104 86
f 112 110 104
f 112 104 111
f 85 88 86
f 113 86 88
f 114 111 86
f 115 114 86
f 116 115 86
f 117 116 86
f 113 117 86
f 118 88 87
f 118 113 88
f 119 87 89
f 119 118 87
f 120 89 90
f 120 119 89
f 121 90 92
f 121 120 90
f 122 92 91
f 123 121 92
f 124 123 92
f 122 124 92
f 125 91 93
f 125 122 91
f 126 93 94
f 126 125 93
f 127 94 95
f 127 126 94
f 106 127 95
f 128 129 130
f 131 130 129
f 132 128 130
f 131 132 130
f 128 133 129
f 134 129 133
f 134 131 129
f 135 136 133
f 137 133 136
f 138 133 128
f 138 135 133
f 134 133 137
f 139 140 136
f 141 136 140
f 142 139 136
f 135 142 136
f 137 136 141
f 143 144 140
f 145 140 144
f 146 143 140
f 139 146 140
f 141 140 145
f 147 148 144
f 149 144 148
f 150 151 144
f 152 144 151
f 153 150 144
f 154 153 144
f 155 154 144
f 156 155 144
f 143 156 144
f 157 147 144
f 158 157 144
f 159 158 144
f 152 159 144
f 145 144 149
f 160 161 148
f 162 148 161
f 163 160 148
f 164 163 148
f 147 164 148
f 162 149 148
f 165 166 161
f 167 161 166
f 160 165 161
f 162 161 167
f 108 168 166
f 169 166 168
f 165 108 166
f 167 166 169
f 170 171 168
f 172 168 171
f 107 170 168
f 108 107 168
f 169 168 172
f 173 171 170
f 172 171 173
f 174 170 107
f 173 170 174
f 175 107 105
f 174 107 175
f 176 105 109
f 175 105 176
f 177 109 110
f 176 109 177
f 178 179 110
f 180 110 179
f 181 182 110
f 183 110 182
f 184 181 110
f 185 184 110
f 112 185 110
f 186 110 183
f 187 178 110
f 188 187 110
f 186 188 110
f 177 110 180
f 189 190 179
f 191 179 190
f 192 189 179
f 193 192 179
f 178 193 179
f 180 179 191
f 194 195 190
f 196 190 195
f 189 194 190
f 196 191 190
f 138 128 195
f 197 195 128
f 194 138 195
f 197 196 195
f 132 197 128
f 198 111 114
f 199 112 111
f 199 111 200
f 198 200 111
f 201 114 115
f 198 114 201
f 202 115 116
f 202 201 115
f 202 116 117
f 203 117 113
f 203 202 117
f 203 113 118
f 204 118 119
f 204 203 118
f 205 119 120
f 205 204 119
f 206 120 121
f 206 205 120
f 207 121 123
f 208 206 121
f 207 208 121
f 209 210 123
f 207 123 210
f 124 209 123
f 209 211 210
f 212 210 211
f 212 207 210
f 213 214 211
f 215 211 214
f 209 213 211
f 215 212 211
f 152 216 214
f 217 214 216
f 213 152 214
f 217 215 214
f 152 218 216
f 217 216 218
f 152 151 218
f 219 218 151
f 219 217 218
f 220 151 150
f 221 151 220
f 219 151 221
f 220 150 153
f 222 223 153
f 224 153 223
f 154 222 153
f 224 220 153
f 225 226 223
f 227 223 226
f 222 225 223
f 227 224 223
f 228 229 226
f 230 226 229
f 231 226 225
f 231 228 226
f 230 227 226
f 232 233 229
f 230 229 233
f 228 232 229
f 232 234 233
f 235 233 234
f 235 230 233
f 236 237 234
f 238 234 237
f 232 236 234
f 239 234 238
f 235 234 239
f 240 241 237
f 238 237 241
f 242 237 236
f 242 240 237
f 243 244 241
f 245 241 244
f 240 243 241
f 238 241 245
f 183 246 244
f 247 244 246
f 243 183 244
f 245 244 247
f 248 249 246
f 250 246 249
f 251 248 246
f 183 251 246
f 247 246 250
f 248 252 249
f 253 249 252
f 254 249 253
f 250 249 254
f 255 256 252
f 257 252 256
f 248 255 252
f 253 252 257
f 255 258 256
f 257 256 258
f 255 259 258
f 260 258 259
f 257 258 260
f 261 259 255
f 260 259 261
f 261 255 248
f 262 248 251
f 262 261 248
f 183 263 251
f 264 251 263
f 264 262 251
f 183 182 263
f 265 263 182
f 265 264 263
f 266 182 181
f 267 182 266
f 265 182 267
f 266 181 184
f 268 184 185
f 268 266 184
f 269 185 112
f 268 185 269
f 269 112 199
f 270 225 222
f 271 231 225
f 270 271 225
f 272 222 154
f 273 222 272
f 270 222 273
f 274 154 155
f 272 154 274
f 275 155 156
f 274 155 275
f 276 156 143
f 275 156 276
f 276 143 146
f 277 146 139
f 276 146 277
f 278 139 142
f 277 139 278
f 279 142 135
f 278 142 279
f 280 281 135
f 282 135 281
f 138 280 135
f 282 279 135
f 283 284 281
f 285 281 284
f 280 283 281
f 285 286 281
f 282 281 286
f 287 288 284
f 289 284 288
f 283 287 284
f 285 284 289
f 290 291 288
f 292 288 291
f 287 290 288
f 289 288 292
f 293 236 291
f 294 291 236
f 290 293 291
f 292 291 294
f 294 236 232
f 293 242 236
f 295 232 228
f 294 232 295
f 296 228 231
f 295 228 296
f 296 231 271
f 297 183 243
f 298 186 183
f 297 298 183
f 299 243 240
f 300 243 299
f 297 243 300
f 301 240 242
f 299 240 301
f 302 242 293
f 301 242 302
f 303 293 290
f 302 293 303
f 303 290 287
f 304 287 283
f 303 287 304
f 305 283 280
f 304 283 305
f 306 280 138
f 305 280 306
f 307 138 194
f 307 306 138
f 308 194 189
f 308 309 194
f 307 194 309
f 310 189 192
f 308 189 310
f 311 192 193
f 310 192 311
f 312 193 178
f 311 193 312
f 312 178 187
f 313 187 188
f 312 187 313
f 314 188 186
f 313 188 314
f 314 186 298
f 315 108 165
f 316 106 108
f 315 316 108
f 317 165 160
f 318 165 317
f 315 165 318
f 319 160 163
f 317 160 319
f 320 163 164
f 319 163 320
f 321 164 147
f 320 164 321
f 321 147 157
f 322 157 158
f 321 157 322
f 323 158 159
f 322 158 323
f 324 159 152
f 323 159 324
f 325 152 213
f 325 324 152
f 326 213 209
f 326 327 213
f 325 213 327
f 328 209 124
f 326 209 328
f 329 124 122
f 328 124 329
f 330 122 125
f 329 122 330
f 330 125 126
f 331 126 127
f 330 126 331
f 332 127 106
f 331 127 332
f 332 106 316
f 333 191 196
f 334 180 191
f 335 336 191
f 337 191 336
f 338 335 191
f 339 338 191
f 340 339 191
f 341 340 191
f 342 341 191
f 333 342 191
f 343 334 191
f 344 343 191
f 345 344 191
f 337 345 191
f 346 196 197
f 347 333 196
f 346 347 196
f 348 197 132
f 349 346 197
f 348 349 197
f 137 132 131
f 350 132 137
f 348 132 350
f 134 137 131
f 351 145 149
f 352 149 162
f 352 351 149
f 353 141 145
f 354 353 145
f 351 354 145
f 350 137 141
f 353 350 141
f 355 177 180
f 334 355 180
f 356 176 177
f 357 356 177
f 355 357 177
f 358 175 176
f 356 358 176
f 173 174 175
f 172 173 175
f 358 172 175
f 359 169 172
f 358 359 172
f 360 167 169
f 361 169 359
f 361 360 169
f 362 162 167
f 363 362 167
f 360 363 167
f 364 365 162
f 366 162 365
f 367 364 162
f 368 162 366
f 369 352 162
f 370 369 162
f 368 370 162
f 371 367 162
f 362 371 162
f 372 336 335
f 337 336 373
f 374 373 336
f 374 336 375
f 372 375 336
f 372 335 338
f 376 338 339
f 376 372 338
f 377 339 340
f 377 376 339
f 341 378 340
f 379 340 378
f 379 377 340
f 341 380 378
f 381 378 380
f 382 378 381
f 379 378 382
f 383 384 380
f 381 380 384
f 341 383 380
f 383 385 384
f 386 384 385
f 387 381 384
f 386 387 384
f 388 389 385
f 390 385 389
f 383 388 385
f 386 385 390
f 391 392 389
f 393 389 392
f 391 389 388
f 393 390 389
f 394 395 392
f 396 392 395
f 391 394 392
f 396 393 392
f 397 398 395
f 399 395 398
f 394 397 395
f 399 396 395
f 400 401 398
f 402 398 401
f 397 400 398
f 403 398 402
f 399 398 403
f 404 405 401
f 402 401 405
f 406 404 401
f 400 406 401
f 407 408 405
f 409 405 408
f 404 407 405
f 409 402 405
f 410 411 408
f 412 408 411
f 407 410 408
f 412 409 408
f 366 413 411
f 414 411 413
f 410 366 411
f 414 412 411
f 366 415 413
f 414 413 415
f 366 365 415
f 416 415 365
f 416 414 415
f 417 365 364
f 418 365 417
f 416 365 418
f 367 419 364
f 417 364 419
f 420 421 419
f 422 419 421
f 367 420 419
f 417 419 422
f 423 424 421
f 425 421 424
f 420 423 421
f 422 421 425
f 426 427 424
f 428 424 427
f 429 426 424
f 423 429 424
f 425 424 428
f 430 431 427
f 428 427 431
f 426 430 427
f 430 432 431
f 433 431 432
f 428 431 433
f 434 435 432
f 436 432 435
f 430 434 432
f 437 432 436
f 433 432 437
f 438 439 435
f 436 435 439
f 438 435 434
f 440 441 439
f 442 439 441
f 438 440 439
f 442 436 439
f 337 443 441
f 444 441 443
f 445 337 441
f 440 445 441
f 442 441 444
f 446 447 443
f 448 443 447
f 449 446 443
f 337 449 443
f 444 443 448
f 450 451 447
f 452 447 451
f 446 450 447
f 448 447 452
f 450 453 451
f 454 451 453
f 455 451 454
f 452 451 455
f 456 453 450
f 457 453 456
f 454 453 457
f 456 450 446
f 458 446 449
f 456 446 458
f 337 373 449
f 459 449 373
f 458 449 459
f 459 373 374
f 460 366 410
f 461 368 366
f 460 461 366
f 462 410 407
f 462 460 410
f 463 407 404
f 463 462 407
f 464 404 406
f 464 463 404
f 465 466 406
f 467 406 466
f 400 465 406
f 464 406 467
f 468 469 466
f 470 466 469
f 465 468 466
f 470 467 466
f 471 472 469
f 473 469 472
f 468 471 469
f 473 470 469
f 348 350 472
f 474 472 350
f 471 348 472
f 474 473 472
f 475 350 353
f 474 350 475
f 476 353 354
f 476 475 353
f 477 354 351
f 477 476 354
f 478 351 352
f 478 477 351
f 479 352 369
f 479 478 352
f 480 369 370
f 480 479 369
f 481 370 368
f 481 480 370
f 461 481 368
f 482 388 383
f 483 391 388
f 482 483 388
f 484 383 341
f 484 482 383
f 485 341 342
f 485 484 341
f 486 342 333
f 486 485 342
f 487 333 347
f 486 333 487
f 488 347 346
f 488 487 347
f 489 346 349
f 489 488 346
f 490 349 348
f 490 489 349
f 491 348 471
f 490 348 491
f 492 471 468
f 492 491 471
f 493 468 465
f 493 492 468
f 494 465 400
f 494 493 465
f 495 400 397
f 495 494 400
f 496 397 394
f 496 495 397
f 497 394 391
f 497 496 394
f 483 497 391
f 498 499 359
f 500 359 499
f 501 361 359
f 498 359 358
f 500 501 359
f 502 503 499
f 504 499 503
f 498 502 499
f 504 500 499
f 505 506 503
f 507 503 506
f 502 505 503
f 504 503 507
f 508 434 506
f 509 506 434
f 505 508 506
f 507 506 509
f 510 434 430
f 508 438 434
f 509 434 510
f 511 430 426
f 510 430 511
f 512 426 429
f 511 426 512
f 513 429 423
f 512 429 513
f 514 423 420
f 513 423 514
f 515 420 367
f 515 514 420
f 516 367 371
f 516 515 367
f 517 371 362
f 517 516 371
f 518 362 363
f 517 362 518
f 519 363 360
f 519 518 363
f 520 360 361
f 520 519 360
f 501 520 361
f 45 358 356
f 64 498 358
f 45 64 358
f 43 356 357
f 43 45 356
f 42 357 355
f 43 357 42
f 41 355 334
f 42 355 41
f 521 334 343
f 41 334 521
f 40 343 344
f 521 343 40
f 39 344 345
f 40 344 39
f 38 345 337
f 39 345 38
f 36 337 445
f 38 337 36
f 37 445 440
f 37 36 445
f 68 440 438
f 68 37 440
f 67 438 508
f 67 68 438
f 522 508 505
f 67 508 522
f 66 505 502
f 66 522 505
f 65 502 498
f 65 66 502
f 64 65 498
f 523 375 524
f 525 524 375
f 526 523 524
f 527 526 524
f 525 527 524
f 523 374 375
f 525 375 372
f 523 459 374
f 528 458 459
f 523 528 459
f 529 456 458
f 528 529 458
f 457 456 529
f 530 529 528
f 531 529 530
f 457 529 531
f 532 528 523
f 532 530 528
f 526 532 523
f 533 530 532
f 534 531 530
f 535 534 530
f 533 535 530
f 536 532 526
f 533 532 536
f 536 526 527
f 537 527 525
f 538 527 537
f 539 527 538
f 540 527 539
f 541 536 527
f 540 541 527
f 542 531 534
f 543 457 531
f 544 543 531
f 542 544 531
f 545 542 534
f 545 534 535
f 543 454 457
f 543 455 454
f 546 452 455
f 543 546 455
f 547 452 546
f 448 452 547
f 548 546 543
f 549 546 548
f 547 546 549
f 550 548 543
f 544 550 543
f 551 548 550
f 552 549 548
f 551 553 548
f 552 548 553
f 554 550 544
f 551 550 554
f 554 544 542
f 554 542 545
f 555 556 557
f 558 557 556
f 559 555 557
f 560 559 557
f 558 560 557
f 547 549 556
f 561 556 549
f 555 547 556
f 562 556 561
f 558 556 562
f 561 549 552
f 444 547 555
f 444 448 547
f 442 555 559
f 442 444 555
f 560 563 559
f 437 559 563
f 437 436 559
f 442 559 436
f 564 563 560
f 565 437 563
f 564 565 563
f 566 560 558
f 567 560 566
f 567 564 560
f 433 437 565
f 422 568 569
f 570 569 568
f 417 422 569
f 418 417 569
f 571 418 569
f 572 571 569
f 572 569 570
f 422 573 568
f 570 568 573
f 425 574 573
f 575 573 574
f 422 425 573
f 570 573 575
f 428 576 574
f 575 574 576
f 425 428 574
f 433 565 576
f 564 576 565
f 428 433 576
f 575 576 564
f 577 418 571
f 577 416 418
f 578 577 571
f 578 571 572
f 579 402 409
f 403 402 579
f 580 409 412
f 581 579 409
f 580 581 409
f 582 412 414
f 582 580 412
f 583 414 416
f 583 582 414
f 577 583 416
f 584 579 581
f 585 403 579
f 586 585 579
f 586 579 584
f 584 581 580
f 587 580 582
f 587 584 580
f 587 582 583
f 578 583 577
f 578 587 583
f 588 403 585
f 588 399 403
f 589 588 585
f 589 585 586
f 590 390 393
f 591 390 590
f 591 386 390
f 592 393 396
f 592 590 393
f 588 396 399
f 588 592 396
f 593 590 592
f 594 591 590
f 595 590 593
f 594 590 595
f 596 592 588
f 596 593 592
f 596 588 589
f 597 381 387
f 382 381 597
f 591 387 386
f 591 597 387
f 598 597 591
f 599 382 597
f 598 599 597
f 598 591 600
f 594 600 591
f 601 382 599
f 601 379 382
f 602 601 599
f 603 599 598
f 602 599 603
f 525 372 376
f 604 376 377
f 604 525 376
f 601 377 379
f 601 604 377
f 537 525 604
f 605 604 601
f 605 537 604
f 602 605 601
f 606 538 537
f 607 606 537
f 608 607 537
f 605 608 537
f 609 610 611
f 612 611 610
f 613 609 611
f 614 613 611
f 615 614 611
f 615 611 616
f 617 616 611
f 612 617 611
f 539 538 610
f 606 610 538
f 609 539 610
f 612 610 606
f 618 539 609
f 618 540 539
f 619 609 613
f 618 609 619
f 620 613 614
f 620 619 613
f 615 621 614
f 622 614 621
f 622 620 614
f 615 623 621
f 624 621 623
f 624 622 621
f 625 626 623
f 627 623 626
f 628 623 615
f 629 625 623
f 628 629 623
f 624 623 627
f 630 631 626
f 627 626 631
f 625 630 626
f 632 633 631
f 634 631 633
f 635 632 631
f 636 635 631
f 630 636 631
f 637 627 631
f 634 637 631
f 638 639 633
f 640 633 639
f 632 638 633
f 640 634 633
f 641 639 638
f 642 640 639
f 641 642 639
f 641 638 632
f 643 632 635
f 643 641 632
f 644 635 636
f 644 643 635
f 645 646 636
f 647 636 646
f 648 645 636
f 649 648 636
f 630 649 636
f 647 644 636
f 650 651 646
f 652 646 651
f 653 650 646
f 654 653 646
f 645 654 646
f 655 647 646
f 652 655 646
f 656 657 651
f 652 651 657
f 658 656 651
f 659 658 651
f 650 659 651
f 660 661 657
f 662 657 661
f 663 660 657
f 656 663 657
f 662 652 657
f 664 665 661
f 666 661 665
f 660 664 661
f 662 661 666
f 667 668 665
f 669 665 668
f 664 667 665
f 666 665 669
f 670 668 667
f 671 668 670
f 669 668 671
f 670 667 664
f 672 664 660
f 673 670 664
f 673 664 672
f 674 675 660
f 676 660 675
f 663 674 660
f 672 660 676
f 677 678 675
f 679 675 678
f 680 677 675
f 681 680 675
f 674 681 675
f 676 675 682
f 679 682 675
f 683 684 678
f 685 678 684
f 677 683 678
f 679 678 685
f 615 616 684
f 686 684 616
f 683 615 684
f 686 685 684
f 617 686 616
f 687 615 683
f 688 628 615
f 687 689 615
f 688 615 689
f 687 683 677
f 690 677 680
f 690 687 677
f 691 680 681
f 691 690 680
f 692 681 674
f 692 691 681
f 693 674 663
f 693 694 674
f 692 674 694
f 693 663 656
f 695 656 658
f 695 693 656
f 696 658 659
f 696 695 658
f 697 659 650
f 697 696 659
f 698 650 653
f 699 697 650
f 698 699 650
f 698 653 654
f 700 654 645
f 700 698 654
f 701 645 648
f 700 645 701
f 702 648 649
f 701 648 702
f 703 649 630
f 704 649 703
f 702 649 704
f 703 630 625
f 705 625 629
f 703 625 705
f 706 629 628
f 705 629 706
f 706 628 688
f 620 707 619
f 708 619 707
f 618 619 708
f 545 535 707
f 533 707 535
f 620 545 707
f 708 707 533
f 709 545 620
f 709 554 545
f 622 709 620
f 533 536 541
f 708 541 540
f 708 533 541
f 618 708 540
f 551 554 709
f 710 709 622
f 551 709 710
f 710 622 624
f 710 627 553
f 637 553 627
f 551 710 553
f 552 553 637
f 710 624 627
f 552 637 634
f 561 634 640
f 561 552 634
f 562 640 642
f 562 561 640
f 558 562 642
f 566 558 642
f 641 566 642
f 643 566 641
f 567 566 643
f 567 643 644
f 711 644 647
f 567 644 711
f 712 647 655
f 711 647 712
f 712 655 713
f 714 713 655
f 652 714 655
f 711 575 564
f 567 711 564
f 713 570 575
f 712 713 575
f 711 712 575
f 572 570 713
f 714 572 713
f 715 578 572
f 714 715 572
f 716 584 587
f 716 586 584
f 717 587 578
f 718 716 587
f 717 718 587
f 715 717 578
f 716 719 586
f 720 586 719
f 589 586 720
f 671 670 719
f 673 719 670
f 716 671 719
f 673 720 719
f 718 671 716
f 669 671 718
f 596 721 593
f 595 593 721
f 596 722 721
f 682 721 722
f 723 721 682
f 724 721 723
f 595 721 724
f 596 725 722
f 676 722 725
f 676 682 722
f 589 720 725
f 672 725 720
f 596 589 725
f 672 676 725
f 673 672 720
f 723 682 679
f 686 726 685
f 679 685 726
f 727 728 726
f 723 726 728
f 686 727 726
f 723 679 726
f 598 600 728
f 724 728 600
f 727 598 728
f 724 723 728
f 594 724 600
f 603 598 727
f 729 727 686
f 730 603 727
f 729 730 727
f 617 729 686
f 594 595 724
f 602 603 730
f 731 730 729
f 732 602 730
f 731 732 730
f 612 729 617
f 612 731 729
f 612 606 607
f 731 607 608
f 612 607 731
f 732 608 605
f 731 608 732
f 732 605 602
f 669 718 717
f 666 717 715
f 666 669 717
f 662 715 714
f 662 666 715
f 662 714 652
f 733 734 689
f 735 689 734
f 687 733 689
f 735 688 689
f 736 734 733
f 737 735 734
f 736 737 734
f 690 733 687
f 738 736 733
f 739 738 733
f 739 733 690
f 735 706 688
f 740 705 706
f 735 740 706
f 741 703 705
f 740 741 705
f 704 703 741
f 742 741 740
f 743 741 742
f 744 741 743
f 704 741 744
f 745 740 735
f 746 742 740
f 745 746 740
f 737 745 735
f 743 742 746
f 747 746 745
f 747 743 746
f 748 745 737
f 748 747 745
f 749 737 736
f 749 748 737
f 750 736 738
f 750 749 736
f 751 738 752
f 739 752 738
f 751 750 738
f 753 754 755
f 756 755 754
f 757 753 755
f 757 755 756
f 753 758 754
f 759 754 758
f 759 756 754
f 760 761 758
f 762 758 761
f 753 760 758
f 762 759 758
f 763 752 761
f 739 761 752
f 760 763 761
f 762 761 739
f 763 751 752
f 744 743 747
f 764 747 748
f 764 744 747
f 765 748 749
f 765 764 748
f 765 749 750
f 766 750 751
f 765 750 766
f 767 751 763
f 766 751 767
f 768 763 760
f 768 767 763
f 757 760 753
f 768 760 757
f 694 756 759
f 693 756 694
f 695 756 693
f 757 756 695
f 762 694 759
f 762 692 694
f 739 690 691
f 762 691 692
f 762 739 691
f 757 695 696
f 768 696 697
f 768 757 696
f 768 697 699
f 768 699 767
f 766 767 699
f 698 766 699
f 700 766 698
f 700 765 766
f 704 744 764
f 701 764 765
f 702 704 764
f 701 702 764
f 700 701 765
f 769 475 476
f 770 474 475
f 769 770 475
f 771 476 477
f 771 769 476
f 772 477 478
f 772 771 477
f 480 478 479
f 773 478 480
f 773 772 478
f 774 480 481
f 774 773 480
f 775 481 461
f 775 774 481
f 776 461 460
f 776 775 461
f 777 460 462
f 776 460 777
f 464 467 470
f 778 470 473
f 779 464 470
f 778 779 470
f 780 473 474
f 780 778 473
f 770 780 474
f 781 462 463
f 781 777 462
f 782 463 464
f 782 781 463
f 779 782 464
f 783 777 781
f 784 776 777
f 783 784 777
f 785 781 782
f 786 783 781
f 785 786 781
f 787 782 779
f 788 785 782
f 787 788 782
f 789 779 778
f 789 787 779
f 790 778 780
f 790 789 778
f 791 780 770
f 791 790 780
f 792 770 769
f 792 791 770
f 793 769 771
f 792 769 793
f 794 771 772
f 795 793 771
f 794 795 771
f 796 772 773
f 797 794 772
f 796 797 772
f 798 773 774
f 798 796 773
f 799 774 775
f 799 798 774
f 800 775 776
f 800 799 775
f 784 800 776
f 801 793 795
f 802 792 793
f 803 802 793
f 801 803 793
f 804 795 794
f 804 801 795
f 805 794 797
f 805 804 794
f 806 797 796
f 806 805 797
f 807 796 798
f 807 806 796
f 808 798 799
f 809 807 798
f 808 809 798
f 810 799 800
f 810 808 799
f 811 800 784
f 811 810 800
f 812 784 783
f 812 811 784
f 813 783 786
f 813 814 783
f 812 783 814
f 815 786 785
f 815 813 786
f 816 785 788
f 816 815 785
f 817 788 787
f 817 816 788
f 818 787 789
f 818 817 787
f 819 789 790
f 820 818 789
f 819 820 789
f 821 790 791
f 821 819 790
f 822 791 792
f 822 821 791
f 802 822 792
f 273 814 813
f 272 812 814
f 273 272 814
f 271 813 815
f 271 273 813
f 296 815 816
f 296 271 815
f 296 816 817
f 295 817 818
f 295 296 817
f 295 818 820
f 294 820 819
f 294 295 820
f 292 819 821
f 292 294 819
f 289 821 822
f 289 292 821
f 289 822 802
f 285 802 803
f 285 289 802
f 286 803 801
f 285 803 286
f 279 801 804
f 279 286 801
f 278 804 805
f 278 279 804
f 278 805 806
f 277 806 807
f 277 278 806
f 277 807 809
f 276 809 808
f 276 277 809
f 275 808 810
f 275 276 808
f 274 810 811
f 274 275 810
f 274 811 812
f 272 274 812
f 282 286 279
f 270 273 271
f 823 491 492
f 824 490 491
f 823 824 491
f 825 492 493
f 825 823 492
f 826 493 494
f 826 825 493
f 496 494 495
f 827 494 496
f 827 826 494
f 828 496 497
f 828 827 496
f 829 497 483
f 829 828 497
f 830 483 482
f 830 829 483
f 831 482 484
f 830 482 831
f 486 487 488
f 832 488 489
f 833 486 488
f 832 833 488
f 834 489 490
f 834 832 489
f 824 834 490
f 835 484 485
f 835 831 484
f 836 485 486
f 836 835 485
f 833 836 486
f 837 831 835
f 838 830 831
f 837 838 831
f 839 835 836
f 840 837 835
f 839 840 835
f 841 836 833
f 842 839 836
f 841 842 836
f 843 833 832
f 843 841 833
f 844 832 834
f 844 843 832
f 845 834 824
f 845 844 834
f 846 824 823
f 846 845 824
f 847 823 825
f 846 823 847
f 848 825 826
f 849 847 825
f 848 849 825
f 850 826 827
f 851 848 826
f 850 851 826
f 852 827 828
f 852 850 827
f 853 828 829
f 853 852 828
f 854 829 830
f 854 853 829
f 838 854 830
f 855 847 849
f 856 846 847
f 857 856 847
f 855 857 847
f 858 849 848
f 858 855 849
f 859 848 851
f 859 858 848
f 860 851 850
f 860 859 851
f 861 850 852
f 861 860 850
f 862 852 853
f 863 861 852
f 862 863 852
f 864 853 854
f 864 862 853
f 865 854 838
f 865 864 854
f 866 838 837
f 866 865 838
f 867 837 840
f 867 868 837
f 866 837 868
f 869 840 839
f 869 867 840
f 870 839 842
f 870 869 839
f 871 842 841
f 871 870 842
f 872 841 843
f 872 871 841
f 873 843 844
f 874 872 843
f 873 874 843
f 875 844 845
f 875 873 844
f 876 845 846
f 876 875 845
f 856 876 846
f 300 868 867
f 299 866 868
f 300 299 868
f 298 867 869
f 298 300 867
f 314 869 870
f 314 298 869
f 314 870 871
f 313 871 872
f 313 314 871
f 313 872 874
f 312 874 873
f 312 313 874
f 311 873 875
f 311 312 873
f 310 875 876
f 310 311 875
f 310 876 856
f 308 856 857
f 308 310 856
f 309 857 855
f 308 857 309
f 306 855 858
f 306 309 855
f 305 858 859
f 305 306 858
f 305 859 860
f 304 860 861
f 304 305 860
f 304 861 863
f 303 863 862
f 303 304 863
f 302 862 864
f 302 303 862
f 301 864 865
f 301 302 864
f 301 865 866
f 299 301 866
f 307 309 306
f 297 300 298
f 517 518 519
f 877 519 520
f 878 517 519
f 877 878 519
f 879 520 501
f 879 877 520
f 880 501 500
f 880 879 501
f 881 500 504
f 880 500 881
f 882 514 515
f 883 513 514
f 882 883 514
f 884 515 516
f 884 882 515
f 885 516 517
f 885 884 516
f 878 885 517
f 886 512 513
f 883 886 513
f 887 511 512
f 886 887 512
f 509 510 511
f 888 509 511
f 887 888 511
f 889 507 509
f 888 889 509
f 890 504 507
f 889 890 507
f 890 881 504
f 891 881 890
f 892 880 881
f 891 892 881
f 893 890 889
f 894 891 890
f 894 890 893
f 895 889 888
f 896 889 895
f 893 889 896
f 897 888 887
f 895 888 897
f 898 887 886
f 897 887 898
f 899 886 883
f 898 886 899
f 900 883 882
f 899 883 900
f 901 882 884
f 900 882 901
f 902 884 885
f 903 901 884
f 902 903 884
f 904 885 878
f 905 902 885
f 904 905 885
f 906 878 877
f 906 904 878
f 907 877 879
f 907 906 877
f 908 879 880
f 908 907 879
f 892 908 880
f 909 901 903
f 910 911 901
f 900 901 911
f 909 910 901
f 912 903 902
f 912 909 903
f 913 902 905
f 913 912 902
f 914 905 904
f 914 913 905
f 915 904 906
f 915 914 904
f 916 906 907
f 917 915 906
f 916 917 906
f 918 907 908
f 918 916 907
f 919 908 892
f 919 918 908
f 920 892 891
f 920 919 892
f 921 922 891
f 920 891 922
f 894 921 891
f 318 922 921
f 317 920 922
f 318 317 922
f 894 923 921
f 316 921 923
f 316 318 921
f 893 924 923
f 332 923 924
f 894 893 923
f 332 316 923
f 896 925 924
f 332 924 925
f 893 896 924
f 895 926 925
f 331 925 926
f 896 895 925
f 331 332 925
f 897 927 926
f 331 926 927
f 895 897 926
f 897 928 927
f 330 927 928
f 330 331 927
f 898 929 928
f 329 928 929
f 897 898 928
f 329 330 928
f 899 930 929
f 328 929 930
f 898 899 929
f 328 329 929
f 900 911 930
f 328 930 911
f 899 900 930
f 326 911 910
f 326 328 911
f 327 910 909
f 326 910 327
f 324 909 912
f 324 327 909
f 323 912 913
f 323 324 912
f 323 913 914
f 322 914 915
f 322 323 914
f 322 915 917
f 321 917 916
f 321 322 917
f 320 916 918
f 320 321 916
f 319 918 919
f 319 320 918
f 319 919 920
f 317 319 920
f 325 327 324
f 315 318 316
f 67 522 66
f 41 521 40
f 931 932 933
f 934 933 932
f 935 931 933
f 936 935 933
f 937 936 933
f 938 937 933
f 938 933 934
f 939 940 932
f 941 932 940
f 931 939 932
f 941 934 932
f 942 943 940
f 944 940 943
f 945 942 940
f 939 945 940
f 944 941 940
f 946 943 942
f 947 943 946
f 948 943 947
f 944 943 948
f 200 942 945
f 949 942 200
f 950 946 942
f 950 942 949
f 199 945 939
f 199 200 945
f 269 939 931
f 269 199 939
f 268 931 935
f 268 269 931
f 268 935 266
f 267 266 935
f 936 267 935
f 949 200 198
f 951 267 936
f 951 265 267
f 952 936 937
f 952 951 936
f 953 952 937
f 953 937 938
f 954 261 262
f 955 261 954
f 955 260 261
f 956 262 264
f 956 954 262
f 957 264 265
f 957 956 264
f 951 957 265
f 958 954 956
f 959 954 958
f 959 955 954
f 960 956 957
f 960 958 956
f 952 957 951
f 952 960 957
f 961 958 960
f 962 959 958
f 961 962 958
f 963 960 952
f 963 961 960
f 953 963 952
f 964 260 955
f 964 257 260
f 965 955 959
f 965 964 955
f 966 959 962
f 967 965 959
f 966 967 959
f 968 966 962
f 969 968 962
f 970 969 962
f 971 970 962
f 961 971 962
f 253 257 964
f 972 964 965
f 972 253 964
f 973 965 967
f 974 972 965
f 975 974 965
f 973 975 965
f 976 967 966
f 976 973 967
f 968 977 966
f 978 966 977
f 978 976 966
f 979 977 968
f 980 977 979
f 980 978 977
f 979 968 969
f 981 253 972
f 981 254 253
f 982 983 972
f 984 972 983
f 985 982 972
f 974 985 972
f 984 981 972
f 986 983 982
f 987 984 983
f 988 987 983
f 986 988 983
f 989 982 985
f 989 986 982
f 990 985 974
f 990 989 985
f 990 974 975
f 250 254 981
f 991 981 984
f 250 981 991
f 992 993 984
f 994 984 993
f 987 992 984
f 991 984 994
f 995 993 992
f 996 993 995
f 994 993 996
f 997 992 987
f 997 998 992
f 995 992 998
f 999 997 987
f 988 999 987
f 1000 969 970
f 1001 979 969
f 1000 1001 969
f 1002 1003 970
f 1004 970 1003
f 971 1002 970
f 1004 1000 970
f 1002 1005 1003
f 1006 1003 1005
f 1006 1004 1003
f 1002 1007 1005
f 1008 1005 1007
f 1008 1006 1005
f 1002 1009 1007
f 1010 1007 1009
f 1010 1008 1007
f 1011 1012 1009
f 1013 1009 1012
f 1002 1011 1009
f 1013 1010 1009
f 1011 1014 1012
f 1015 1012 1014
f 1015 1013 1012
f 1011 1016 1014
f 1017 1014 1016
f 1017 1015 1014
f 995 1018 1016
f 1019 1016 1018
f 1011 995 1016
f 1019 1017 1016
f 995 1020 1018
f 1021 1018 1020
f 1021 1019 1018
f 995 998 1020
f 1022 1020 998
f 1022 1021 1020
f 1023 998 997
f 1023 1022 998
f 999 1023 997
f 1024 995 1011
f 1025 996 995
f 1024 1025 995
f 1026 1011 1002
f 1027 1024 1011
f 1026 1027 1011
f 1028 1002 971
f 1028 1026 1002
f 1029 971 961
f 1030 971 1029
f 1028 971 1030
f 1001 980 979
f 1031 975 973
f 1032 990 975
f 1032 975 1031
f 950 973 976
f 950 1031 973
f 950 976 978
f 950 978 980
f 1033 980 1001
f 950 980 1033
f 1033 1001 1000
f 947 1000 1004
f 947 1033 1000
f 947 1004 1006
f 947 1006 1008
f 947 1008 1010
f 1034 1010 1013
f 1034 947 1010
f 1034 1013 1015
f 1034 1015 1017
f 1035 1017 1019
f 1035 1034 1017
f 1035 1019 1021
f 1035 1021 1022
f 1036 1022 1023
f 1035 1022 1036
f 1036 1023 999
f 1036 999 988
f 1036 988 986
f 1032 986 989
f 1036 986 1037
f 1038 1037 986
f 1038 986 1032
f 1032 989 990
f 1035 1036 1037
f 1039 1035 1037
f 1040 1039 1037
f 1041 1037 1038
f 1040 1037 1041
f 947 946 1033
f 950 1033 946
f 1042 947 1034
f 948 947 1042
f 1043 1034 1035
f 1044 1042 1034
f 1043 1044 1034
f 1045 1035 1039
f 1045 1043 1035
f 1046 1039 1040
f 1047 1039 1046
f 1045 1039 1047
f 949 201 1031
f 202 1031 201
f 950 949 1031
f 202 1032 1031
f 949 198 201
f 203 1032 202
f 1048 1038 1032
f 203 1048 1032
f 1041 1038 1048
f 204 1048 203
f 1041 1048 204
f 1041 204 205
f 1049 205 206
f 1049 1041 205
f 1050 206 208
f 1050 1049 206
f 1051 1050 208
f 1052 1051 208
f 1052 208 207
f 1040 1041 1049
f 1053 1049 1050
f 1053 1040 1049
f 1053 1050 1051
f 1054 1053 1051
f 1055 1054 1051
f 1052 1055 1051
f 1046 1040 1053
f 1056 1053 1054
f 1056 1046 1053
f 1057 1056 1054
f 1055 1057 1054
f 1058 1046 1056
f 1059 1047 1046
f 1058 1059 1046
f 1060 1056 1057
f 1060 1058 1056
f 1061 1060 1057
f 1062 1061 1057
f 1063 1057 1055
f 1062 1057 1063
f 1064 1047 1059
f 1065 1047 1064
f 1065 1045 1047
f 1066 1059 1058
f 1064 1059 1066
f 1067 1058 1060
f 1066 1058 1067
f 1068 1060 1061
f 1067 1060 1068
f 1068 1061 1069
f 1070 1069 1061
f 1062 1070 1061
f 1066 1071 1072
f 1073 1072 1071
f 1064 1066 1072
f 1074 1064 1072
f 1075 1074 1072
f 1076 1075 1072
f 1077 1076 1072
f 1073 1077 1072
f 1067 1078 1071
f 1079 1071 1078
f 1066 1067 1071
f 1079 1080 1071
f 1081 1071 1080
f 1081 1073 1071
f 1069 1082 1078
f 1083 1078 1082
f 1068 1069 1078
f 1067 1068 1078
f 1083 1079 1078
f 1084 1082 1069
f 1084 1083 1082
f 1070 1084 1069
f 1065 1064 1074
f 1085 1042 1044
f 1086 1042 1085
f 1087 948 1042
f 1086 1087 1042
f 1088 1044 1043
f 1085 1044 1088
f 1089 1043 1045
f 1088 1043 1089
f 1089 1045 1065
f 1088 1090 1091
f 1092 1091 1090
f 1085 1088 1091
f 1093 1085 1091
f 1094 1093 1091
f 1092 1094 1091
f 1089 1095 1090
f 1096 1090 1095
f 1088 1089 1090
f 1096 1092 1090
f 1065 1074 1095
f 1096 1095 1074
f 1089 1065 1095
f 1075 1096 1074
f 1093 1086 1085
f 944 948 1087
f 1097 1087 1086
f 1098 944 1087
f 1098 1087 1097
f 1099 1086 1093
f 1097 1086 1099
f 1099 1093 1094
f 1099 1094 1100
f 1101 1100 1094
f 1102 1101 1094
f 1103 1102 1094
f 1092 1103 1094
f 1104 934 941
f 1105 1106 934
f 938 934 1106
f 1107 1105 934
f 1104 1107 934
f 1098 941 944
f 1098 1104 941
f 1100 1106 1105
f 1101 1106 1100
f 1108 938 1106
f 1101 1108 1106
f 1099 1105 1107
f 1099 1100 1105
f 1097 1107 1104
f 1097 1099 1107
f 1098 1097 1104
f 1109 938 1108
f 1110 953 938
f 1109 1110 938
f 1111 1108 1101
f 1109 1108 1111
f 1112 1101 1102
f 1111 1101 1112
f 1113 1112 1102
f 1103 1113 1102
f 1114 961 963
f 1114 1029 961
f 1110 963 953
f 1110 1114 963
f 1113 1115 1112
f 1111 1112 1115
f 1030 1029 1115
f 1114 1115 1029
f 1113 1030 1115
f 1114 1111 1115
f 1116 1030 1113
f 1028 1030 1116
f 1117 1113 1103
f 1116 1113 1117
f 1092 1117 1103
f 1118 1119 1120
f 1121 1120 1119
f 1122 1120 1123
f 1124 1123 1120
f 1125 1118 1120
f 1126 1125 1120
f 1122 1126 1120
f 1121 1127 1120
f 1124 1120 1127
f 1128 1080 1119
f 1121 1119 1080
f 1129 1119 1118
f 1130 1128 1119
f 1129 1130 1119
f 1131 1080 1079
f 1128 1081 1080
f 1131 1121 1080
f 1132 1079 1083
f 1132 1131 1079
f 1133 1083 1084
f 1133 1132 1083
f 1070 1133 1084
f 1092 1134 1117
f 1116 1117 1134
f 1135 1136 1134
f 1137 1134 1136
f 1092 1135 1134
f 1137 1116 1134
f 1138 1139 1136
f 1140 1136 1139
f 1141 1138 1136
f 1135 1141 1136
f 1140 1137 1136
f 1142 1143 1139
f 1144 1139 1143
f 1138 1142 1139
f 1140 1139 1144
f 1145 1146 1143
f 1147 1143 1146
f 1148 1145 1143
f 1123 1148 1143
f 1142 1123 1143
f 1149 1144 1143
f 1147 1149 1143
f 1150 1151 1146
f 1152 1146 1151
f 1145 1150 1146
f 1152 1147 1146
f 1153 1151 1150
f 1154 1151 1153
f 1152 1151 1154
f 1153 1150 1145
f 1155 1145 1148
f 1155 1153 1145
f 1156 1148 1123
f 1156 1155 1148
f 1157 1122 1123
f 1158 1157 1123
f 1142 1158 1123
f 1124 1156 1123
f 1159 1118 1125
f 1160 1129 1118
f 1161 1118 1159
f 1160 1118 1161
f 1159 1125 1126
f 1162 1126 1122
f 1162 1159 1126
f 1163 1122 1157
f 1163 1162 1122
f 1164 1157 1158
f 1164 1163 1157
f 1165 1158 1142
f 1166 1164 1158
f 1165 1166 1158
f 1165 1142 1138
f 1167 1138 1141
f 1167 1165 1138
f 1168 1141 1135
f 1168 1167 1141
f 1169 1135 1092
f 1169 1168 1135
f 1170 1092 1096
f 1171 1169 1092
f 1170 1171 1092
f 1170 1096 1075
f 1172 1075 1076
f 1172 1170 1075
f 1173 1076 1077
f 1172 1076 1173
f 1174 1077 1073
f 1173 1077 1174
f 1175 1073 1081
f 1174 1073 1176
f 1175 1176 1073
f 1175 1081 1128
f 1177 1128 1130
f 1177 1175 1128
f 1178 1130 1129
f 1178 1177 1130
f 1160 1178 1129
f 1179 1180 1127
f 1181 1127 1180
f 1121 1179 1127
f 1181 1124 1127
f 1182 1183 1180
f 1184 1180 1183
f 1179 1182 1180
f 1184 1181 1180
f 1185 1183 1182
f 1186 1184 1183
f 1187 1183 1185
f 1186 1183 1187
f 1188 1182 1179
f 1189 1185 1182
f 1190 1189 1182
f 1188 1190 1182
f 1131 1179 1121
f 1188 1179 1131
f 1191 1153 1155
f 1154 1153 1191
f 1192 1155 1156
f 1192 1191 1155
f 1193 1156 1124
f 1193 1192 1156
f 1181 1193 1124
f 1194 1191 1192
f 1195 1191 1194
f 1195 1154 1191
f 1196 1192 1193
f 1196 1194 1192
f 1184 1193 1181
f 1184 1196 1193
f 1197 1194 1196
f 1198 1195 1194
f 1199 1198 1194
f 1197 1199 1194
f 1200 1196 1184
f 1201 1197 1196
f 1201 1196 1200
f 1202 1184 1186
f 1200 1184 1202
f 1203 1154 1195
f 1203 1152 1154
f 1204 1195 1198
f 1203 1195 1204
f 1205 1204 1198
f 1199 1205 1198
f 1024 1144 1149
f 1027 1144 1024
f 1027 1140 1144
f 1025 1149 1147
f 1024 1149 1025
f 1206 1147 1152
f 1025 1147 1206
f 1206 1152 1203
f 1206 1204 996
f 994 996 1204
f 1025 1206 996
f 1206 1203 1204
f 1205 994 1204
f 1028 1116 1137
f 1026 1137 1140
f 1028 1137 1026
f 1026 1140 1027
f 1207 994 1205
f 1207 991 994
f 1208 1205 1199
f 1208 1207 1205
f 1209 1208 1199
f 1210 1209 1199
f 1197 1210 1199
f 250 991 1207
f 247 1207 1208
f 247 250 1207
f 245 1208 1209
f 245 247 1208
f 238 245 1209
f 239 238 1209
f 1210 239 1209
f 1211 239 1210
f 235 239 1211
f 1201 1210 1197
f 1201 1211 1210
f 1200 1212 1211
f 235 1211 1212
f 1201 1200 1211
f 1202 1213 1212
f 230 1212 1213
f 1200 1202 1212
f 235 1212 230
f 1186 1214 1213
f 227 1213 1214
f 1202 1186 1213
f 230 1213 227
f 1185 1215 1214
f 224 1214 1215
f 1187 1185 1214
f 1186 1187 1214
f 227 1214 224
f 1216 1215 1185
f 224 1215 220
f 221 220 1215
f 1216 221 1215
f 1216 1185 1189
f 1217 1216 1189
f 1190 1217 1189
f 1218 221 1216
f 1218 219 221
f 1218 1216 1217
f 1052 207 212
f 1219 212 215
f 1052 212 1219
f 1220 215 217
f 1219 215 1220
f 1221 217 219
f 1220 217 1221
f 1221 219 1218
f 1219 1222 1055
f 1063 1055 1222
f 1052 1219 1055
f 1219 1223 1222
f 1063 1222 1223
f 1220 1224 1223
f 1225 1223 1224
f 1219 1220 1223
f 1225 1063 1223
f 1221 1226 1224
f 1225 1224 1226
f 1220 1221 1224
f 1218 1217 1226
f 1190 1226 1217
f 1221 1218 1226
f 1190 1225 1226
f 1062 1063 1225
f 1227 1225 1190
f 1228 1062 1225
f 1227 1228 1225
f 1188 1227 1190
f 1188 1131 1132
f 1227 1132 1133
f 1188 1132 1227
f 1228 1133 1070
f 1227 1133 1228
f 1228 1070 1062
f 1229 1230 1231
f 1232 1231 1230
f 1233 1229 1231
f 1234 1233 1231
f 1232 1235 1231
f 1236 1231 1235
f 1236 1234 1231
f 1161 1159 1230
f 1162 1230 1159
f 1229 1161 1230
f 1162 1232 1230
f 1237 1161 1229
f 1237 1160 1161
f 1238 1229 1233
f 1237 1229 1238
f 1239 1238 1233
f 1234 1239 1233
f 1240 1241 1235
f 1242 1235 1241
f 1232 1240 1235
f 1242 1236 1235
f 1243 1244 1241
f 1245 1241 1244
f 1246 1243 1241
f 1240 1246 1241
f 1245 1242 1241
f 1247 1244 1243
f 1245 1244 1247
f 1166 1243 1246
f 1248 1243 1166
f 1248 1247 1243
f 1164 1246 1240
f 1166 1246 1164
f 1163 1240 1232
f 1164 1240 1163
f 1163 1232 1162
f 1248 1166 1165
f 1249 1245 1247
f 1249 1247 1248
f 1250 1251 1238
f 1252 1238 1251
f 1239 1250 1238
f 1252 1237 1238
f 1253 1254 1251
f 1255 1251 1254
f 1250 1253 1251
f 1255 1252 1251
f 1256 1254 1253
f 1257 1254 1256
f 1255 1254 1257
f 1256 1253 1250
f 1258 1250 1239
f 1259 1256 1250
f 1258 1259 1250
f 1260 1239 1234
f 1260 1258 1239
f 1261 1234 1236
f 1262 1234 1261
f 1260 1234 1262
f 1261 1236 1242
f 1263 1242 1245
f 1264 1261 1242
f 1264 1242 1263
f 1263 1245 1249
f 1248 1165 1167
f 1249 1167 1168
f 1249 1248 1167
f 1263 1168 1169
f 1263 1249 1168
f 1264 1169 1171
f 1264 1263 1169
f 1264 1171 1261
f 1262 1261 1171
f 1170 1262 1171
f 1172 1262 1170
f 1172 1260 1262
f 1176 1256 1259
f 1257 1256 1176
f 1174 1259 1258
f 1174 1176 1259
f 1173 1258 1260
f 1173 1174 1258
f 1172 1173 1260
f 1175 1257 1176
f 1177 1257 1175
f 1255 1257 1177
f 1255 1177 1178
f 1252 1178 1160
f 1255 1178 1252
f 1252 1160 1237
f 1109 1111 1114
f 1109 1114 1110

