# https://github.com/mikedh/trimesh
mtllib mtl_round_latch_housing
usemtl mtl_round_latch_housing
v -0.00463099 -0.01568901 -0.00558800
v -0.00463099 -0.01568901 -0.00533400
v -0.00508000 -0.01587500 -0.00533400
v -0.00203200 -0.02483362 -0.00533400
v -0.00508000 -0.01587500 -0.00558800
v -0.00552901 -0.01568901 -0.00533400
v -0.00635699 -0.01566941 -0.00533400
v -0.00237768 -0.02410985 -0.00533400
v -0.00617944 -0.01605263 -0.00533400
v -0.00599333 -0.01645333 -0.00533400
v -0.00579835 -0.01687213 -0.00533400
v -0.00559335 -0.01731144 -0.00533400
v -0.00537852 -0.01777079 -0.00533400
v -0.00515542 -0.01824680 -0.00533400
v -0.00492391 -0.01873971 -0.00533400
v -0.00468355 -0.01925043 -0.00533400
v -0.00443388 -0.01977992 -0.00533400
v -0.00417436 -0.02032927 -0.00533400
v -0.00390445 -0.02089962 -0.00533400
v -0.00362357 -0.02149212 -0.00533400
v -0.00333115 -0.02210798 -0.00533400
v -0.00302660 -0.02274837 -0.00533400
v -0.00270901 -0.02341519 -0.00533400
v -0.00444500 -0.01524000 -0.00558800
v -0.00444500 -0.01524000 -0.00533400
v -0.00463099 -0.01479099 -0.00558800
v -0.00406400 -0.01422400 -0.00533400
v -0.00463099 -0.01479099 -0.00533400
v -0.00552901 -0.01568901 -0.00558800
v -0.00508000 -0.01460500 -0.00558800
v -0.00571500 -0.01524000 -0.00533400
v -0.00571500 -0.01524000 -0.00558800
v -0.00552901 -0.01479099 -0.00558800
v -0.00552901 -0.01479099 -0.00533400
v -0.00652680 -0.01530200 -0.00533400
v -0.00659444 -0.01493332 -0.00533400
v -0.00203200 -0.01318600 -0.00533400
v -0.00203200 -0.01198755 -0.00765643
v -0.00676512 -0.01531218 -0.00354642
v -0.00203200 -0.01137822 -0.00853571
v -0.00203200 -0.02388425 -0.00864307
v -0.00000000 -0.02482275 -0.00538432
v -0.00000000 -0.02512820 -0.00370589
v -0.00203200 -0.02525801 -0.00268199
v -0.00691036 -0.01531862 -0.00176865
v -0.00307092 -0.01265657 -0.00533400
v -0.00406400 -0.01204546 -0.00533400
v -0.00406400 -0.01239695 -0.00445646
v -0.00522755 -0.00897899 -0.00852793
v -0.00744149 -0.00936138 -0.00445039
v -0.00582433 -0.01422400 -0.00533400
v -0.00622748 -0.01422400 -0.00169215
v -0.00582433 -0.01422400 0.00533400
v -0.00406400 -0.01422400 0.00533400
v -0.00406400 -0.01288850 -0.00272600
v -0.00622744 -0.01422400 0.00169282
v -0.00627453 -0.01422400 -0.00000060
v -0.00508000 -0.01460500 -0.00533400
v -0.00619702 -0.01431866 -0.00533400
v -0.00647573 -0.01457706 -0.00533400
v -0.00673391 -0.01437804 -0.00000017
v -0.00702246 -0.01484024 -0.00000017
v -0.00695911 -0.01532065 -0.00000017
v -0.00203200 -0.00343464 -0.02516671
v -0.00203200 0.00158747 -0.02535034
v -0.00203200 -0.00000000 -0.02540000
v -0.00000000 0.00000000 -0.02540000
v -0.00000000 -0.00316873 -0.02520157
v -0.00000000 -0.00158747 -0.02535034
v -0.00203200 0.00316873 -0.02520157
v -0.00000000 0.00158747 -0.02535034
v -0.00203200 0.00473760 -0.02495426
v -0.00000000 0.00316873 -0.02520157
v -0.00203200 -0.00680619 -0.02447112
v -0.00203200 0.00628795 -0.02460938
v -0.00000000 0.00473760 -0.02495426
v -0.00203200 0.00781371 -0.02416828
v -0.00000000 0.00628795 -0.02460938
v -0.00203200 -0.01005273 -0.02332601
v -0.00203200 0.00930893 -0.02363269
v -0.00000000 0.00781371 -0.02416828
v -0.00203200 0.01076746 -0.02300482
v -0.00000000 0.00930893 -0.02363269
v -0.00203200 -0.01313972 -0.02173724
v -0.00203200 0.01214891 -0.02230614
v -0.00000000 0.01076774 -0.02300469
v -0.00203200 0.01358921 -0.02145911
v -0.00000000 0.01229751 -0.02222456
v -0.00203200 -0.01026529 -0.02006600
v -0.00203200 0.01496939 -0.02052017
v -0.00000000 0.01395412 -0.02122363
v -0.00203200 -0.01597461 -0.01974771
v -0.00203200 -0.00894435 -0.01964572
v -0.00203200 0.01628422 -0.01949318
v -0.00000000 0.01551444 -0.02011124
v -0.00203200 -0.00808801 -0.01847662
v -0.00203200 0.01752866 -0.01838222
v -0.00000000 0.01697266 -0.01889680
v -0.00203200 -0.00843070 -0.01914386
v -0.00203200 -0.00797947 -0.01775080
v -0.00203200 0.01869787 -0.01719156
v -0.00000000 0.01832378 -0.01758974
v -0.00203200 -0.00810309 -0.01703790
v -0.00203200 0.01978715 -0.01592572
v -0.00000000 0.01956363 -0.01619952
v -0.00203200 -0.02069536 -0.01472624
v -0.00203200 0.02079204 -0.01458942
v -0.00000000 0.02068876 -0.01473551
v -0.00203200 -0.01026529 -0.01549400
v -0.00203200 -0.00894435 -0.01591428
v -0.00203200 0.00336835 -0.01381942
v -0.00203200 0.02170824 -0.01318759
v -0.00000000 0.02169642 -0.01320702
v -0.00203200 0.00209588 -0.01406874
v -0.00203200 0.00081965 -0.01420036
v -0.00203200 -0.00045104 -0.01421685
v -0.00203200 0.00779172 -0.01190006
v -0.00203200 0.02253165 -0.01172539
v -0.00203200 0.00586170 -0.01296004
v -0.00203200 0.00821261 -0.01161358
v -0.00203200 0.02325838 -0.01020823
v -0.00000000 0.02258452 -0.01162323
v -0.00203200 0.01032346 -0.00978510
v -0.00203200 0.02388474 -0.00864172
v -0.00000000 0.02335161 -0.00999312
v -0.00203200 0.01208702 -0.00749841
v -0.00203200 0.02440727 -0.00703171
v -0.00000000 0.02399679 -0.00832550
v -0.00203200 0.01136908 -0.00854788
v -0.00203200 0.01327202 -0.00511622
v -0.00203200 0.02482275 -0.00538432
v -0.00000000 0.02451972 -0.00662896
v -0.00203200 0.01350917 -0.00445249
v -0.00203200 0.02512820 -0.00370589
v -0.00000000 0.02492054 -0.00491187
v -0.00203200 0.02053058 -0.00228600
v -0.00203200 0.02532090 -0.00200301
v -0.00000000 0.02519985 -0.00318238
v -0.00203200 0.01398397 -0.00260208
v -0.00203200 0.02270785 -0.00069662
v -0.00203200 0.02539843 -0.00028256
v -0.00000000 0.02535867 -0.00144836
v -0.00203200 0.02185151 -0.00186572
v -0.00203200 0.02236516 -0.00136385
v -0.00203200 0.02269277 0.00074210
v -0.00203200 0.02535867 0.00144836
v -0.00000000 0.02539843 0.00028256
v -0.00203200 0.02281639 0.00002920
v -0.00203200 0.02053058 0.00228600
v -0.00203200 0.02519985 0.00318238
v -0.00000000 0.02532090 0.00200301
v -0.00203200 0.02185151 0.00186572
v -0.00203200 0.01338277 0.00481908
v -0.00203200 0.02492054 0.00491187
v -0.00000000 0.02512820 0.00370589
v -0.00203200 0.01351243 0.00444257
v -0.00203200 0.01384805 0.00324866
v -0.00203200 0.01274006 0.00632560
v -0.00203200 0.02451972 0.00662896
v -0.00000000 0.02482275 0.00538432
v -0.00203200 0.01192841 0.00774824
v -0.00203200 0.02399679 0.00832550
v -0.00000000 0.02440727 0.00703171
v -0.00203200 0.01095860 0.00906814
v -0.00203200 0.02335161 0.00999312
v -0.00000000 0.02388474 0.00864172
v -0.00203200 0.01138745 0.00852339
v -0.00203200 0.00859785 0.01133133
v -0.00203200 0.02258452 0.01162323
v -0.00000000 0.02325838 0.01020823
v -0.00203200 0.00984349 0.01026781
v -0.00203200 0.00605571 0.01287053
v -0.00203200 0.02169642 0.01320702
v -0.00000000 0.02253165 0.01172539
v -0.00203200 0.00725232 0.01223626
v -0.00203200 0.00780889 0.01188879
v -0.00203200 0.00097260 0.01419071
v -0.00203200 0.02068876 0.01473551
v -0.00000000 0.02079204 0.01458942
v -0.00203200 0.00176100 0.01411457
v -0.00203200 0.00253380 0.01399650
v -0.00203200 0.00331706 0.01383182
v -0.00203200 0.00414011 0.01360815
v -0.00203200 0.00503806 0.01330188
v -0.00000000 0.02170824 0.01318759
v -0.00203200 -0.00894435 0.01591428
v -0.00203200 0.01956363 0.01619952
v -0.00000000 0.01978715 0.01592572
v -0.00203200 0.00014469 0.01422326
v -0.00203200 -0.02069480 0.01472703
v -0.00203200 -0.01026529 0.01549400
v -0.00203200 -0.00808801 0.01708338
v -0.00203200 0.01832378 0.01758974
v -0.00000000 0.01869787 0.01719156
v -0.00203200 -0.00843070 0.01641615
v -0.00203200 -0.00810309 0.01852210
v -0.00203200 0.01697266 0.01889680
v -0.00000000 0.01752866 0.01838222
v -0.00203200 -0.00797947 0.01780920
v -0.00203200 -0.01026529 0.02006600
v -0.00203200 0.01551444 0.02011124
v -0.00000000 0.01628422 0.01949318
v -0.00203200 -0.00894435 0.01964572
v -0.00203200 -0.01312146 0.02174827
v -0.00203200 0.01395412 0.02122363
v -0.00000000 0.01496939 0.02052017
v -0.00203200 0.01229751 0.02222456
v -0.00000000 0.01358921 0.02145911
v -0.00203200 -0.01005184 0.02332639
v -0.00203200 0.01076774 0.02300469
v -0.00000000 0.01214891 0.02230614
v -0.00203200 0.00930893 0.02363269
v -0.00000000 0.01076746 0.02300482
v -0.00203200 -0.00680619 0.02447112
v -0.00203200 0.00781371 0.02416828
v -0.00000000 0.00930893 0.02363269
v -0.00203200 0.00628795 0.02460938
v -0.00000000 0.00781371 0.02416828
v -0.00203200 -0.00343465 0.02516671
v -0.00203200 0.00473760 0.02495426
v -0.00000000 0.00628795 0.02460938
v -0.00203200 0.00316873 0.02520157
v -0.00000000 0.00473760 0.02495426
v -0.00203200 0.00000000 0.02540000
v -0.00203200 0.00158747 0.02535034
v -0.00000000 0.00316873 0.02520157
v -0.00000000 0.00158747 0.02535034
v -0.00000000 0.00000000 0.02540000
v -0.00000000 -0.00473760 0.02495426
v -0.00000000 -0.00158747 0.02535034
v -0.00000000 -0.00316873 0.02520157
v -0.00000000 -0.00781371 0.02416828
v -0.00000000 -0.00628795 0.02460938
v -0.00000000 -0.01076774 0.02300469
v -0.00000000 -0.00930893 0.02363269
v -0.00203200 -0.01595269 0.01976542
v -0.00000000 -0.01395412 0.02122363
v -0.00000000 -0.01229751 0.02222456
v -0.00203200 -0.01255110 0.01775080
v -0.00203200 -0.01849319 0.01741154
v -0.00000000 -0.01697266 0.01889680
v -0.00203200 -0.01244256 0.01847662
v -0.00203200 -0.01209987 0.01914386
v -0.00203200 -0.01158622 0.01964572
v -0.00000000 -0.01551444 0.02011124
v -0.00000000 -0.01956363 0.01619952
v -0.00203200 -0.01158622 0.01591428
v -0.00203200 -0.01242748 0.01703790
v -0.00000000 -0.01832378 0.01758974
v -0.00203200 -0.00780264 0.01189290
v -0.00203200 -0.02249615 0.01179336
v -0.00000000 -0.02169642 0.01320702
v -0.00203200 -0.00682537 0.01247944
v -0.00203200 -0.00569667 0.01303342
v -0.00203200 -0.00472508 0.01341625
v -0.00203200 -0.00385676 0.01369115
v -0.00203200 -0.00305066 0.01389301
v -0.00203200 -0.00227400 0.01404105
v -0.00203200 -0.00149874 0.01414482
v -0.00203200 -0.00069960 0.01420678
v -0.00000000 -0.02068876 0.01473551
v -0.00203200 -0.01059901 0.00948595
v -0.00203200 -0.02388425 0.00864307
v -0.00000000 -0.02258452 0.01162323
v -0.00203200 -0.00943825 0.01064150
v -0.00203200 -0.00815234 0.01165596
v -0.00203200 -0.01318600 0.00533400
v -0.00203200 -0.02483362 0.00533400
v -0.00000000 -0.02399679 0.00832550
v -0.00203200 -0.01248539 0.00681448
v -0.00203200 -0.01161923 0.00820461
v -0.00203200 -0.01138788 0.00852282
v -0.00000000 -0.02335161 0.00999312
v -0.00237768 -0.02410985 0.00533400
v -0.00000000 -0.02451972 0.00662896
v -0.00000000 -0.02492054 0.00491187
v -0.00203200 -0.02525801 0.00268199
v -0.00691035 -0.01531857 0.00176932
v -0.00307093 -0.01265657 0.00533400
v -0.00559335 -0.01731144 0.00533400
v -0.00579835 -0.01687213 0.00533400
v -0.00463099 -0.01568901 0.00533400
v -0.00537852 -0.01777079 0.00533400
v -0.00515542 -0.01824680 0.00533400
v -0.00492391 -0.01873971 0.00533400
v -0.00468355 -0.01925043 0.00533400
v -0.00443388 -0.01977992 0.00533400
v -0.00417436 -0.02032927 0.00533400
v -0.00390445 -0.02089962 0.00533400
v -0.00362357 -0.02149212 0.00533400
v -0.00333115 -0.02210798 0.00533400
v -0.00302660 -0.02274837 0.00533400
v -0.00270901 -0.02341519 0.00533400
v -0.00463099 -0.01479099 0.00533400
v -0.00444500 -0.01524000 0.00533400
v -0.00521479 -0.00899929 0.00852038
v -0.00410600 -0.00563998 0.01187659
v -0.00541751 -0.00295636 0.01187659
v -0.00586913 -0.00000376 0.01187659
v -0.00541975 0.00294919 0.01187659
v -0.00411027 0.00563380 0.01187659
v -0.00521726 0.00899675 0.00852038
v -0.00582062 0.01105815 0.00444173
v -0.00586249 0.01188212 0.00000000
v -0.00203200 0.01920964 0.00186572
v -0.00203200 0.01412970 0.00163517
v -0.00203200 0.01835330 0.00069662
v -0.00203200 0.01422400 -0.00000000
v -0.00203200 0.01869599 0.00136385
v -0.00203200 0.01920964 -0.00186572
v -0.00203200 0.01836838 -0.00074210
v -0.00203200 0.01824476 -0.00002920
v -0.00582812 0.01104798 -0.00445039
v -0.00523504 0.00897126 -0.00852793
v -0.00411839 0.00560979 -0.01188239
v -0.00541531 0.00294006 -0.01188239
v -0.00586217 0.00000583 -0.01188239
v -0.00203200 -0.00170746 -0.01412115
v -0.00203200 -0.02249615 -0.01179336
v -0.00203200 -0.00414504 -0.01360664
v -0.00541877 -0.00292893 -0.01188239
v -0.00203200 -0.00643272 -0.01268630
v -0.00412499 -0.00560018 -0.01188239
v -0.00203200 -0.00779429 -0.01189837
v -0.00203200 -0.00851598 -0.01139299
v -0.00203200 -0.01038493 -0.00971985
v -0.00000000 -0.02325838 -0.01020823
v -0.00000000 -0.02440727 -0.00703171
v -0.00000000 -0.02388474 -0.00864172
v -0.00000000 -0.02170824 -0.01318759
v -0.00000000 -0.02253165 -0.01172539
v -0.00203200 -0.01244256 -0.01708338
v -0.00203200 -0.01850781 -0.01739601
v -0.00000000 -0.01978715 -0.01592572
v -0.00203200 -0.01158622 -0.01591428
v -0.00203200 -0.01209987 -0.01641615
v -0.00000000 -0.02079204 -0.01458942
v -0.00203200 -0.01158622 -0.01964572
v -0.00000000 -0.01752866 -0.01838222
v -0.00203200 -0.01242748 -0.01852210
v -0.00203200 -0.01255110 -0.01780920
v -0.00000000 -0.01869787 -0.01719156
v -0.00000000 -0.01496939 -0.02052017
v -0.00000000 -0.01628422 -0.01949318
v -0.00000000 -0.01214891 -0.02230614
v -0.00000000 -0.01358921 -0.02145911
v -0.00000000 -0.00930893 -0.02363269
v -0.00000000 -0.01076746 -0.02300482
v -0.00000000 -0.00628795 -0.02460938
v -0.00000000 -0.00781371 -0.02416828
v -0.00000000 -0.00473760 -0.02495426
v -0.00146097 -0.01026529 -0.01549400
v -0.00146097 -0.01141235 -0.01580262
v -0.00146097 -0.01085979 -0.01557266
v -0.00146097 -0.00828790 -0.01663294
v -0.00146097 -0.00912618 -0.01579802
v -0.00146097 -0.00805794 -0.01718550
v -0.00146097 -0.00797929 -0.01778000
v -0.00146097 -0.00828331 -0.01891910
v -0.00146097 -0.00911823 -0.01975738
v -0.00146097 -0.01026529 -0.02006600
v -0.00146097 -0.00967079 -0.01998734
v -0.00146097 -0.01224267 -0.01892706
v -0.00146097 -0.01140439 -0.01976198
v -0.00146097 -0.01247263 -0.01837450
v -0.00146097 -0.01255129 -0.01778000
v -0.00146097 -0.01224727 -0.01664089
v -0.00146097 -0.01026529 0.01549400
v -0.00146097 -0.00911823 0.01580262
v -0.00146097 -0.00967079 0.01557266
v -0.00146097 -0.01224267 0.01663294
v -0.00146097 -0.01140439 0.01579802
v -0.00146097 -0.01247263 0.01718550
v -0.00146097 -0.01255129 0.01778000
v -0.00146097 -0.01224727 0.01891910
v -0.00146097 -0.01141235 0.01975738
v -0.00146097 -0.01026529 0.02006600
v -0.00146097 -0.01085979 0.01998734
v -0.00146097 -0.00828790 0.01892706
v -0.00146097 -0.00912618 0.01976198
v -0.00146097 -0.00805794 0.01837450
v -0.00146097 -0.00797929 0.01778000
v -0.00146097 -0.00828331 0.01664089
v -0.00146097 0.02053058 -0.00228600
v -0.00146097 0.02167764 -0.00197738
v -0.00146097 0.02112508 -0.00220734
v -0.00146097 0.01855319 -0.00114706
v -0.00146097 0.01939147 -0.00198198
v -0.00146097 0.01832323 -0.00059450
v -0.00146097 0.01824458 -0.00000000
v -0.00146097 0.01854860 0.00113911
v -0.00146097 0.01938351 0.00197738
v -0.00146097 0.02053058 0.00228600
v -0.00146097 0.01993608 0.00220734
v -0.00146097 0.02250796 0.00114706
v -0.00146097 0.02166968 0.00198198
v -0.00146097 0.02273792 0.00059450
v -0.00146097 0.02281658 0.00000000
v -0.00146097 0.02251255 -0.00113911
v -0.00000000 0.00000000 0.01308100
v -0.00000000 0.00258190 0.01282366
v -0.00000000 -0.00400391 0.01245316
v -0.00000000 -0.00670929 0.01778000
v -0.00000000 -0.00848743 0.02085967
v -0.00000000 -0.00718562 0.01955786
v -0.00000000 -0.00775071 0.02029437
v -0.00000000 -0.01026529 0.02133600
v -0.00000000 -0.01204314 0.02085967
v -0.00000000 -0.01277965 0.02029458
v -0.00000000 -0.01382129 0.01778000
v -0.00000000 -0.01334496 0.01955786
v -0.00000000 -0.01239145 0.00419100
v -0.00000000 -0.02120823 0.00419100
v -0.00000000 -0.02174704 0.00396782
v -0.00000000 -0.02197023 -0.00342900
v -0.00000000 -0.02197023 0.00342900
v -0.00000000 -0.02519985 0.00318238
v -0.00000000 -0.02532090 -0.00200301
v -0.00000000 -0.02535867 0.00144836
v -0.00000000 -0.02539843 -0.00028256
v -0.00203200 -0.02540000 -0.00000000
v -0.00000000 -0.02120823 -0.00419100
v -0.00000000 -0.02174704 -0.00396782
v -0.00000000 -0.01382129 -0.01778000
v -0.00000000 -0.01334496 -0.01955786
v -0.00000000 -0.01204314 -0.02085967
v -0.00000000 -0.01277986 -0.02029437
v -0.00000000 -0.01026529 -0.02133600
v -0.00000000 -0.00848743 -0.02085967
v -0.00000000 -0.00775092 -0.02029458
v -0.00000000 -0.00588473 -0.01168257
v -0.00000000 -0.00670929 -0.01778000
v -0.00000000 -0.00718562 -0.01955786
v -0.00000000 -0.00400391 -0.01245316
v -0.00000000 0.00000000 -0.01308100
v -0.00000000 0.00506220 0.01206178
v -0.00000000 0.00741868 0.01077385
v -0.00000000 0.00969916 0.00877717
v -0.00000000 0.01142045 0.00637855
v -0.00000000 0.01304732 0.00093815
v -0.00000000 0.01254078 0.00372039
v -0.00000000 0.01745091 0.00177786
v -0.00000000 0.01697458 -0.00000000
v -0.00000000 0.01801621 0.00251458
v -0.00000000 0.01875272 0.00307967
v -0.00000000 0.02053058 0.00355600
v -0.00000000 0.02230843 0.00307967
v -0.00000000 0.02304515 0.00251437
v -0.00000000 0.02361025 0.00177786
v -0.00000000 0.02408658 0.00000000
v -0.00000000 0.02361025 -0.00177786
v -0.00000000 0.02304494 -0.00251458
v -0.00000000 0.02230843 -0.00307967
v -0.00000000 0.02053058 -0.00355600
v -0.00000000 0.01875272 -0.00307967
v -0.00000000 0.01745091 -0.00177786
v -0.00000000 0.01801600 -0.00251437
v -0.00000000 0.01295058 -0.00184254
v -0.00000000 0.01107996 -0.00695320
v -0.00000000 0.01227994 -0.00450730
v -0.00000000 0.00940802 -0.00908855
v -0.00000000 0.00733277 -0.01083250
v -0.00000000 0.00506220 -0.01206178
v -0.00000000 0.00258190 -0.01282366
v -0.00011159 -0.02120823 0.00392159
v -0.00000000 -0.01204314 0.01470033
v -0.00000000 -0.01051391 0.00778270
v -0.00011159 -0.01075090 0.00696815
v -0.00000000 -0.01334496 0.01600214
v -0.00000000 -0.01277986 0.01526563
v -0.00011071 -0.01239145 0.00392248
v -0.00008430 -0.01216503 0.00411442
v -0.00011159 -0.02163482 0.00367530
v -0.00011159 -0.02145452 0.00385560
v -0.00011159 -0.02170082 -0.00342900
v -0.00011159 -0.02170082 0.00342900
v -0.00011159 -0.02145452 -0.00385560
v -0.00011159 -0.02163482 -0.00367530
v -0.00000000 -0.01277965 -0.01526542
v -0.00000000 -0.01239145 -0.00419100
v -0.00002939 -0.01239145 -0.00404428
v -0.00000000 -0.01334496 -0.01600214
v -0.00011159 -0.02120823 -0.00392159
v -0.00000000 -0.01204314 -0.01470033
v -0.00000000 -0.01051391 -0.00778270
v -0.00008439 -0.01216493 -0.00411438
v -0.00000000 -0.00775071 -0.01526563
v -0.00000000 -0.00762612 -0.01062802
v -0.00011159 -0.00870278 -0.00940205
v -0.00000000 -0.01026529 -0.01422400
v -0.00000000 -0.00848743 -0.01470033
v -0.00011246 -0.01213543 -0.00410441
v -0.00011159 -0.01075090 -0.00696815
v -0.00011159 -0.00611816 -0.01125633
v -0.00000000 -0.00718562 -0.01600214
v -0.00011159 -0.00315637 -0.01241669
v -0.00011159 -0.00000000 -0.01281159
v -0.00011159 0.00395900 -0.01218455
v -0.00011159 0.00753046 -0.01036480
v -0.00011159 0.01036480 -0.00753046
v -0.00011159 0.01218455 -0.00395900
v -0.00011159 0.01281159 -0.00000000
v -0.00011159 0.01218455 0.00395900
v -0.00011159 0.01036480 0.00753046
v -0.00011159 0.00753046 0.01036480
v -0.00011159 0.00395900 0.01218455
v -0.00011159 0.00000000 0.01281159
v -0.00000000 -0.00718562 0.01600214
v -0.00000000 -0.00762446 0.01062922
v -0.00011159 -0.00611816 0.01125633
v -0.00011159 -0.00315637 0.01241669
v -0.00000000 -0.00848743 0.01470033
v -0.00000000 -0.00918134 0.00931749
v -0.00011159 -0.00870278 0.00940205
v -0.00000000 -0.00775092 0.01526542
v -0.00000000 -0.01026529 0.01422400
v -0.00023428 -0.01239145 0.00383939
v -0.00019964 -0.01216936 0.00394012
v -0.00038100 -0.02120823 0.00381000
v -0.00038100 -0.01239145 0.00381000
v -0.00203200 -0.01239145 0.00381000
v -0.00038100 -0.01216936 0.00388143
v -0.00203200 -0.01216936 0.00388143
v -0.00203200 -0.02120823 0.00381000
v -0.00038100 -0.02147764 0.00369841
v -0.00011233 -0.01213555 0.00410445
v -0.00029570 -0.01203970 0.00407203
v -0.00018200 -0.01208368 0.00408691
v -0.00038100 -0.01208561 0.00396380
v -0.00038100 -0.01203054 0.00406893
v -0.00203200 -0.01203054 0.00406893
v -0.00038100 -0.01020703 0.00755689
v -0.00203200 -0.01104568 0.00626760
v -0.00203200 -0.01026515 0.00747774
v -0.00203200 -0.01209357 0.00387757
v -0.00591994 -0.00906191 0.00387675
v -0.00203200 -0.01253152 0.00206177
v -0.00203200 -0.01270000 -0.00000000
v -0.00203200 -0.01239145 -0.00381000
v -0.00203200 -0.02120823 -0.00381000
v -0.00203200 -0.02147764 0.00369841
v -0.00526451 -0.01049187 0.00000000
v -0.00203200 -0.01209115 -0.00388511
v -0.00203200 -0.01253152 -0.00206177
v -0.00203200 -0.01216936 -0.00388143
v -0.00203200 -0.01203054 -0.00406893
v -0.00203200 -0.01089239 -0.00653038
v -0.00203200 -0.01025393 -0.00749313
v -0.00591783 -0.00906105 -0.00388432
v -0.00038100 -0.01203054 -0.00406893
v -0.00038100 -0.01020703 -0.00755689
v -0.00038100 -0.01216936 -0.00388143
v -0.00038100 -0.01239145 -0.00381000
v -0.00038100 -0.01227418 -0.00382850
v -0.00203200 -0.02147764 -0.00369841
v -0.00038100 -0.02120823 -0.00381000
v -0.00203200 -0.02158923 0.00342900
v -0.00203200 -0.02158923 -0.00342900
v -0.00038100 -0.02147764 -0.00369841
v -0.00038100 -0.02158923 -0.00342900
v -0.00038100 -0.02158923 0.00342900
v -0.00011248 -0.01239145 -0.00392071
v -0.00019962 -0.01216936 -0.00394013
v -0.00029549 -0.01203974 -0.00407205
v -0.00018189 -0.01208374 -0.00408693
v -0.00203200 -0.00143899 -0.01261821
v -0.00038100 0.00000000 -0.01270000
v -0.00203200 0.00000000 -0.01270000
v -0.00038100 0.00434366 -0.01193410
v -0.00512979 -0.00159516 -0.01049220
v -0.00203200 0.00143100 -0.01261912
v -0.00512725 0.00161010 -0.01049220
v -0.00203200 -0.00285818 -0.01237420
v -0.00038100 -0.00388832 -0.01209012
v -0.00203200 -0.00711459 -0.01052011
v -0.00038100 -0.00740319 -0.01031905
v -0.00203200 -0.00589309 -0.01124995
v -0.00203200 -0.00433224 -0.01193824
v -0.00203200 -0.00927177 -0.00867896
v -0.00203200 -0.00753698 -0.01022174
v -0.00512485 -0.00753999 -0.00747479
v -0.00407027 -0.00462025 -0.01049220
v -0.00203200 0.00391132 0.01208270
v -0.00038100 0.00434365 0.01193410
v -0.00038100 0.00000000 0.01270000
v -0.00203200 0.00259220 0.01243264
v -0.00203200 0.00130766 0.01263250
v -0.00203200 0.00000000 0.01270000
v -0.00038100 -0.00388832 0.01209012
v -0.00203200 0.00806318 0.00981199
v -0.00038100 0.00816340 0.00972877
v -0.00203200 0.00713834 0.01050401
v -0.00203200 0.00668777 0.01079647
v -0.00203200 0.00529850 0.01154192
v -0.00203200 0.01067165 0.00688519
v -0.00038100 0.01099852 0.00635000
v -0.00203200 0.01025104 0.00749708
v -0.00203200 0.00940820 0.00853087
v -0.00203200 0.01246188 0.00244776
v -0.00038100 0.01250706 0.00220533
v -0.00203200 0.01209345 0.00387795
v -0.00203200 0.01175487 0.00480759
v -0.00203200 0.01270000 0.00000000
v -0.00038100 0.01250706 -0.00220533
v -0.00203200 0.01157344 -0.00522928
v -0.00038100 0.01099852 -0.00635000
v -0.00203200 0.01208847 -0.00389343
v -0.00203200 0.01241414 -0.00267938
v -0.00203200 0.00891888 -0.00904121
v -0.00038100 0.00816340 -0.00972876
v -0.00203200 0.01026162 -0.00748258
v -0.00203200 0.01034208 -0.00737098
v -0.00203200 0.00586296 -0.01126569
v -0.00203200 0.00713613 -0.01050551
v -0.00203200 0.00740870 -0.01031509
v -0.00203200 0.00284147 -0.01237805
v -0.00203200 0.00430525 -0.01194801
v -0.00406292 0.00463350 -0.01049220
v -0.00509423 0.00757799 -0.00747479
v -0.00593789 0.00903844 -0.00388432
v -0.00527550 0.01048187 0.00000000
v -0.00593472 0.00904527 0.00387675
v -0.00510981 0.00756530 0.00746810
v -0.00406877 0.00463497 0.01048691
v -0.00513345 0.00160835 0.01048691
v -0.00203200 -0.00128049 0.01263528
v -0.00513486 -0.00160008 0.01048691
v -0.00203200 -0.00811957 0.00976538
v -0.00038100 -0.00740319 0.01031905
v -0.00203200 -0.00966599 0.00823764
v -0.00203200 -0.00519239 0.01159004
v -0.00203200 -0.00662005 0.01083812
v -0.00203200 -0.00712254 0.01051472
v -0.00203200 -0.00253708 0.01244400
v -0.00203200 -0.00382687 0.01210971
v -0.00407284 -0.00462764 0.01048691
v -0.00511691 -0.00755648 0.00746810
v -0.00936572 -0.00001113 0.00387675
v -0.00936125 -0.00389244 0.00000000
v -0.00990600 0.00000000 0.00000000
v -0.00936356 -0.00001511 -0.00388432
v -0.00936565 0.00387700 0.00000000
v -0.00848110 0.00482586 -0.00388432
v -0.00847323 -0.00485267 0.00387675
v -0.00777236 -0.00748017 0.00000000
v -0.00847037 -0.00485411 -0.00388432
v -0.00709558 -0.00400332 0.00746810
v -0.00848113 0.00483186 0.00387675
v -0.00777985 0.00000566 0.00746810
v -0.00778303 0.00746297 0.00000000
v -0.00709181 0.00401400 0.00746810
v -0.00708150 0.00403071 -0.00747479
v -0.00709773 -0.00398469 -0.00747479
v -0.00777568 0.00002440 -0.00747479
v -0.00676516 -0.01531214 0.00354617
v -0.00659594 -0.01500892 0.00533400
v -0.00635699 -0.01566941 0.00533400
v -0.00652680 -0.01530200 0.00533400
v -0.00617944 -0.01605263 0.00533400
v -0.00599333 -0.01645333 0.00533400
v -0.00571500 -0.01524000 0.00533400
v -0.00552901 -0.01568901 0.00533400
v -0.00508000 -0.01587500 0.00533400
v -0.00406400 -0.01204546 0.00533400
v -0.00406400 -0.01240005 0.00444783
v -0.00612726 -0.01428510 0.00533400
v -0.00638058 -0.01445761 0.00533400
v -0.00508000 -0.01460500 0.00533400
v -0.00406400 -0.01317363 0.00000000
v -0.00406400 -0.01288850 0.00272600
v -0.00552901 -0.01479099 0.00533400
v -0.00654481 -0.01471238 0.00533400
v -0.00444500 -0.01524000 0.00558800
v -0.00463099 -0.01568901 0.00558800
v -0.00463099 -0.01479099 0.00558800
v -0.00508000 -0.01460500 0.00558800
v -0.00552901 -0.01479099 0.00558800
v -0.00571500 -0.01524000 0.00558800
v -0.00552901 -0.01568901 0.00558800
v -0.00508000 -0.01587500 0.00558800
v -0.00617909 -0.01161114 0.00000000
v -0.00744400 -0.00936241 0.00444173
v -0.01073547 -0.00109124 -0.00445039
v -0.01120794 -0.00261115 0.00000000
v -0.01143000 -0.00000000 -0.00000000
v -0.01073846 -0.00108603 0.00444173
v -0.01038059 0.00339811 -0.00445039
v -0.01077307 0.00445925 0.00000000
v -0.01038134 0.00340623 0.00444173
v -0.00972461 -0.00547968 -0.00445039
v -0.01054799 -0.00514774 0.00000000
v -0.00946781 -0.00753875 0.00000000
v -0.00972817 -0.00547776 0.00444173
v -0.00799759 -0.00971442 0.00000000
v -0.00751271 -0.00575118 -0.00852793
v -0.00871251 -0.00198274 -0.00852793
v -0.00871416 0.00197210 -0.00852793
v -0.00869278 0.00757322 -0.00445039
v -0.00751751 0.00574154 -0.00852793
v -0.00886161 0.00853428 0.00000000
v -0.00868987 0.00758318 0.00444173
v -0.00751312 0.00576153 0.00852038
v -0.00871771 0.00198178 0.00852038
v -0.00871716 -0.00198528 0.00852038
v -0.00751154 -0.00576471 0.00852038
f 1 2 3
f 4 3 2
f 5 1 3
f 6 5 3
f 7 6 3
f 8 3 4
f 9 7 3
f 10 9 3
f 11 10 3
f 12 11 3
f 13 12 3
f 14 13 3
f 15 14 3
f 16 15 3
f 17 16 3
f 18 17 3
f 19 18 3
f 20 19 3
f 21 20 3
f 22 21 3
f 23 22 3
f 8 23 3
f 24 25 2
f 4 2 25
f 1 24 2
f 26 25 24
f 27 4 25
f 28 27 25
f 26 28 25
f 26 24 1
f 26 1 5
f 6 29 5
f 30 5 29
f 26 5 30
f 31 32 29
f 33 29 32
f 6 31 29
f 30 29 33
f 34 32 31
f 33 32 34
f 35 31 6
f 35 36 31
f 34 31 36
f 7 35 6
f 27 37 4
f 38 4 37
f 39 8 4
f 38 40 4
f 41 4 40
f 42 4 41
f 42 43 4
f 44 4 43
f 45 4 44
f 45 39 4
f 27 46 37
f 38 37 46
f 27 47 46
f 40 46 47
f 38 46 40
f 48 47 27
f 49 40 47
f 50 47 48
f 49 47 50
f 28 51 27
f 52 27 51
f 53 54 27
f 55 27 54
f 56 53 27
f 55 48 27
f 57 56 27
f 52 57 27
f 58 59 51
f 57 51 59
f 28 58 51
f 52 51 57
f 58 60 59
f 61 59 60
f 61 57 59
f 34 36 60
f 62 60 36
f 58 34 60
f 61 60 62
f 62 36 35
f 39 35 7
f 63 35 39
f 62 35 63
f 39 7 9
f 39 9 10
f 39 10 11
f 39 11 12
f 39 12 13
f 39 13 14
f 39 14 15
f 39 15 16
f 39 16 17
f 39 17 18
f 39 18 19
f 39 19 20
f 39 20 21
f 39 21 22
f 39 22 23
f 39 23 8
f 33 34 58
f 30 58 28
f 30 33 58
f 26 30 28
f 64 65 66
f 67 66 65
f 68 64 66
f 69 68 66
f 67 69 66
f 64 70 65
f 71 65 70
f 71 67 65
f 64 72 70
f 73 70 72
f 71 70 73
f 74 75 72
f 76 72 75
f 64 74 72
f 73 72 76
f 74 77 75
f 78 75 77
f 76 75 78
f 79 80 77
f 81 77 80
f 74 79 77
f 78 77 81
f 79 82 80
f 83 80 82
f 81 80 83
f 84 85 82
f 86 82 85
f 79 84 82
f 83 82 86
f 84 87 85
f 88 85 87
f 86 85 88
f 89 90 87
f 91 87 90
f 84 92 87
f 89 87 92
f 88 87 91
f 93 94 90
f 95 90 94
f 89 93 90
f 91 90 95
f 96 97 94
f 98 94 97
f 99 96 94
f 93 99 94
f 95 94 98
f 100 101 97
f 102 97 101
f 96 100 97
f 98 97 102
f 103 104 101
f 105 101 104
f 100 103 101
f 102 101 105
f 106 107 104
f 108 104 107
f 109 106 104
f 110 109 104
f 103 110 104
f 105 104 108
f 111 112 107
f 113 107 112
f 114 111 107
f 115 114 107
f 116 115 107
f 106 116 107
f 108 107 113
f 117 118 112
f 113 112 118
f 119 117 112
f 111 119 112
f 120 121 118
f 122 118 121
f 117 120 118
f 113 118 122
f 123 124 121
f 125 121 124
f 120 123 121
f 122 121 125
f 126 127 124
f 128 124 127
f 129 126 124
f 123 129 124
f 125 124 128
f 130 131 127
f 132 127 131
f 126 130 127
f 128 127 132
f 133 134 131
f 135 131 134
f 130 133 131
f 132 131 135
f 136 137 134
f 138 134 137
f 133 139 134
f 136 134 139
f 135 134 138
f 140 141 137
f 142 137 141
f 143 137 136
f 144 140 137
f 143 144 137
f 138 137 142
f 145 146 141
f 147 141 146
f 148 145 141
f 140 148 141
f 142 141 147
f 149 150 146
f 151 146 150
f 152 149 146
f 145 152 146
f 147 146 151
f 153 154 150
f 155 150 154
f 156 153 150
f 157 156 150
f 149 157 150
f 151 150 155
f 158 159 154
f 160 154 159
f 153 158 154
f 155 154 160
f 161 162 159
f 163 159 162
f 158 161 159
f 160 159 163
f 164 165 162
f 166 162 165
f 167 164 162
f 161 167 162
f 163 162 166
f 168 169 165
f 170 165 169
f 171 168 165
f 164 171 165
f 166 165 170
f 172 173 169
f 174 169 173
f 175 172 169
f 176 175 169
f 168 176 169
f 170 169 174
f 177 178 173
f 179 173 178
f 180 177 173
f 181 180 173
f 182 181 173
f 183 182 173
f 184 183 173
f 172 184 173
f 185 173 179
f 174 173 185
f 186 187 178
f 188 178 187
f 189 190 178
f 191 178 190
f 177 189 178
f 186 178 191
f 179 178 188
f 192 193 187
f 194 187 193
f 195 192 187
f 186 195 187
f 188 187 194
f 196 197 193
f 198 193 197
f 199 196 193
f 192 199 193
f 194 193 198
f 200 201 197
f 202 197 201
f 203 200 197
f 196 203 197
f 198 197 202
f 204 205 201
f 206 201 205
f 200 204 201
f 202 201 206
f 204 207 205
f 208 205 207
f 206 205 208
f 209 210 207
f 211 207 210
f 204 209 207
f 208 207 211
f 209 212 210
f 213 210 212
f 211 210 213
f 214 215 212
f 216 212 215
f 209 214 212
f 213 212 216
f 214 217 215
f 218 215 217
f 216 215 218
f 219 220 217
f 221 217 220
f 214 219 217
f 218 217 221
f 219 222 220
f 223 220 222
f 221 220 223
f 224 225 222
f 226 222 225
f 219 224 222
f 223 222 226
f 227 225 224
f 226 225 227
f 228 224 219
f 227 224 228
f 229 219 214
f 230 228 219
f 231 230 219
f 229 231 219
f 232 214 209
f 233 229 214
f 232 233 214
f 234 209 204
f 235 232 209
f 234 235 209
f 200 236 204
f 237 204 236
f 238 234 204
f 237 238 204
f 239 240 236
f 241 236 240
f 242 239 236
f 243 242 236
f 244 243 236
f 200 244 236
f 245 237 236
f 241 245 236
f 191 190 240
f 246 240 190
f 247 191 240
f 248 247 240
f 239 248 240
f 249 241 240
f 246 249 240
f 250 251 190
f 252 190 251
f 253 250 190
f 254 253 190
f 255 254 190
f 256 255 190
f 257 256 190
f 258 257 190
f 259 258 190
f 260 259 190
f 189 260 190
f 261 246 190
f 252 261 190
f 262 263 251
f 264 251 263
f 265 262 251
f 266 265 251
f 250 266 251
f 264 252 251
f 267 268 263
f 269 263 268
f 270 267 263
f 271 270 263
f 272 271 263
f 262 272 263
f 273 264 263
f 269 273 263
f 274 268 267
f 275 269 268
f 276 275 268
f 277 276 268
f 278 277 268
f 274 278 268
f 271 267 270
f 272 267 271
f 279 267 272
f 280 267 281
f 282 281 267
f 283 267 280
f 284 267 283
f 285 267 284
f 286 267 285
f 287 267 286
f 288 267 287
f 289 267 288
f 290 267 289
f 291 267 290
f 292 267 291
f 293 267 292
f 274 267 293
f 279 54 267
f 294 267 54
f 294 295 267
f 282 267 295
f 265 272 262
f 266 272 265
f 250 272 266
f 296 272 250
f 296 279 272
f 254 250 253
f 255 250 254
f 297 250 255
f 297 296 250
f 297 255 256
f 297 256 257
f 297 257 258
f 298 258 259
f 297 258 298
f 298 259 260
f 299 260 189
f 298 260 299
f 299 189 177
f 299 177 180
f 300 180 181
f 299 180 300
f 300 181 182
f 300 182 183
f 301 183 184
f 300 183 301
f 301 184 172
f 301 172 175
f 301 175 176
f 302 176 168
f 301 176 302
f 302 168 171
f 302 171 164
f 302 164 167
f 303 167 161
f 302 167 303
f 303 161 158
f 303 158 153
f 303 153 156
f 304 156 157
f 303 156 304
f 305 306 157
f 304 157 306
f 149 305 157
f 307 308 306
f 304 306 308
f 309 307 306
f 305 309 306
f 133 308 139
f 310 139 308
f 304 308 133
f 311 310 308
f 312 311 308
f 307 312 308
f 310 136 139
f 126 133 130
f 129 133 126
f 313 133 129
f 304 133 313
f 120 129 123
f 117 129 120
f 314 129 117
f 314 313 129
f 315 117 119
f 315 314 117
f 315 119 111
f 315 111 114
f 316 114 115
f 315 114 316
f 317 115 116
f 316 115 317
f 106 318 116
f 317 116 318
f 319 320 318
f 321 318 320
f 106 319 318
f 317 318 321
f 319 322 320
f 323 320 322
f 321 320 323
f 319 324 322
f 323 322 324
f 319 325 324
f 49 324 325
f 323 324 49
f 41 326 325
f 49 325 326
f 319 41 325
f 41 40 326
f 49 326 40
f 327 41 319
f 328 42 41
f 329 328 41
f 327 329 41
f 330 319 106
f 331 327 319
f 330 331 319
f 332 333 106
f 334 106 333
f 335 106 109
f 336 332 106
f 335 336 106
f 337 330 106
f 334 337 106
f 338 92 333
f 339 333 92
f 340 338 333
f 341 340 333
f 332 341 333
f 342 334 333
f 339 342 333
f 343 92 84
f 338 89 92
f 344 339 92
f 343 344 92
f 345 84 79
f 346 343 84
f 345 346 84
f 347 79 74
f 348 345 79
f 347 348 79
f 349 74 64
f 350 347 74
f 349 350 74
f 351 349 64
f 68 351 64
f 352 109 110
f 353 335 109
f 354 109 352
f 353 109 354
f 355 110 103
f 356 110 355
f 352 110 356
f 357 103 100
f 355 103 357
f 358 100 96
f 357 100 358
f 359 96 99
f 358 96 359
f 359 99 93
f 360 93 89
f 359 93 360
f 361 89 338
f 362 89 361
f 360 89 362
f 363 338 340
f 364 361 338
f 364 338 363
f 365 340 341
f 363 340 365
f 366 341 332
f 365 341 366
f 367 332 336
f 366 332 367
f 367 336 335
f 367 335 353
f 368 191 247
f 369 186 191
f 370 191 368
f 369 191 370
f 371 247 248
f 372 368 247
f 372 247 371
f 373 248 239
f 371 248 373
f 374 239 242
f 373 239 374
f 375 242 243
f 374 242 375
f 375 243 244
f 376 244 200
f 375 244 376
f 377 200 203
f 378 200 377
f 376 200 378
f 379 203 196
f 380 203 379
f 377 203 380
f 381 196 199
f 379 196 381
f 382 199 192
f 381 199 382
f 383 192 195
f 382 192 383
f 383 195 186
f 383 186 369
f 384 136 310
f 385 143 136
f 386 136 384
f 385 136 386
f 387 310 311
f 388 384 310
f 388 310 387
f 389 311 312
f 387 311 389
f 390 312 307
f 389 312 390
f 391 307 309
f 390 307 391
f 391 309 305
f 392 305 149
f 391 305 392
f 393 149 152
f 394 149 393
f 392 149 394
f 395 152 145
f 396 152 395
f 393 152 396
f 397 145 148
f 395 145 397
f 398 148 140
f 397 148 398
f 399 140 144
f 398 140 399
f 399 144 143
f 399 143 385
f 400 228 230
f 401 227 228
f 400 401 228
f 400 230 231
f 402 231 229
f 402 400 231
f 402 229 233
f 403 233 232
f 403 402 233
f 404 232 235
f 405 403 232
f 406 405 232
f 404 406 232
f 407 235 234
f 404 235 407
f 408 234 238
f 408 407 234
f 409 238 237
f 409 408 238
f 410 237 245
f 411 409 237
f 410 411 237
f 412 245 241
f 410 245 412
f 412 241 249
f 412 249 246
f 412 246 261
f 413 261 252
f 413 412 261
f 414 252 264
f 414 413 252
f 327 264 273
f 331 264 327
f 415 264 331
f 416 414 264
f 415 416 264
f 329 273 269
f 327 273 329
f 328 269 275
f 329 269 328
f 42 275 276
f 328 275 42
f 43 276 417
f 277 417 276
f 42 276 43
f 418 417 419
f 277 419 417
f 43 417 418
f 418 419 420
f 421 420 419
f 277 421 419
f 44 418 420
f 421 44 420
f 44 43 418
f 415 331 330
f 422 330 337
f 423 415 330
f 422 423 330
f 422 337 334
f 422 334 342
f 422 342 339
f 422 339 344
f 422 344 343
f 424 343 346
f 424 422 343
f 425 346 345
f 425 424 346
f 426 345 348
f 427 425 345
f 426 427 345
f 428 348 347
f 428 426 348
f 429 347 350
f 429 428 347
f 430 350 349
f 430 429 350
f 431 349 351
f 432 349 431
f 433 430 349
f 432 433 349
f 434 351 68
f 434 431 351
f 434 68 69
f 434 69 67
f 435 67 71
f 435 434 67
f 63 44 421
f 63 45 44
f 63 421 277
f 278 63 277
f 401 226 227
f 436 223 226
f 401 436 226
f 436 221 223
f 437 218 221
f 436 437 221
f 438 216 218
f 437 438 218
f 438 213 216
f 439 211 213
f 438 439 213
f 440 208 211
f 441 440 211
f 439 441 211
f 91 206 208
f 440 91 208
f 95 202 206
f 91 95 206
f 442 198 202
f 95 98 202
f 443 202 98
f 443 442 202
f 444 194 198
f 442 444 198
f 445 188 194
f 444 445 194
f 446 179 188
f 445 446 188
f 447 185 179
f 447 179 446
f 447 174 185
f 448 170 174
f 447 448 174
f 449 166 170
f 448 449 170
f 450 163 166
f 449 450 166
f 132 160 163
f 450 132 163
f 135 155 160
f 132 135 160
f 138 151 155
f 135 138 155
f 142 147 151
f 138 142 151
f 450 128 132
f 451 125 128
f 450 451 128
f 452 122 125
f 451 452 125
f 453 113 122
f 452 453 122
f 454 108 113
f 453 454 113
f 454 105 108
f 455 102 105
f 454 455 105
f 443 98 102
f 456 443 102
f 457 456 102
f 455 457 102
f 458 88 91
f 440 458 91
f 459 86 88
f 460 459 88
f 458 460 88
f 461 83 86
f 459 461 86
f 462 81 83
f 461 462 83
f 462 78 81
f 463 76 78
f 462 463 78
f 464 73 76
f 463 464 76
f 464 71 73
f 464 435 71
f 465 412 413
f 466 412 467
f 468 467 412
f 469 410 412
f 470 469 412
f 466 470 412
f 465 471 412
f 472 412 471
f 468 412 472
f 465 413 414
f 473 414 416
f 474 465 414
f 473 474 414
f 475 416 415
f 476 416 475
f 473 416 476
f 475 415 423
f 477 423 422
f 478 475 423
f 477 478 423
f 479 480 422
f 481 422 480
f 482 479 422
f 424 482 422
f 483 422 481
f 477 422 483
f 484 485 480
f 486 480 485
f 479 484 480
f 486 481 480
f 487 488 485
f 489 485 488
f 484 490 485
f 491 485 490
f 491 487 485
f 486 485 492
f 493 492 485
f 489 493 485
f 432 431 488
f 494 488 431
f 495 432 488
f 487 495 488
f 494 489 488
f 494 431 434
f 496 434 435
f 496 494 434
f 497 435 464
f 496 435 497
f 498 464 463
f 497 464 498
f 498 463 462
f 499 462 461
f 498 462 499
f 500 461 459
f 499 461 500
f 500 459 460
f 501 460 458
f 500 460 501
f 502 458 440
f 501 458 502
f 502 440 441
f 503 441 439
f 502 441 503
f 504 439 438
f 503 439 504
f 505 438 437
f 504 438 505
f 505 437 436
f 506 436 401
f 505 436 506
f 506 401 400
f 507 400 402
f 506 400 507
f 508 509 402
f 510 402 509
f 403 508 402
f 511 507 402
f 510 511 402
f 512 513 509
f 514 509 513
f 515 512 509
f 508 515 509
f 514 510 509
f 516 467 513
f 514 513 467
f 512 516 513
f 516 466 467
f 468 514 467
f 393 446 445
f 396 447 446
f 393 396 446
f 392 445 444
f 394 393 445
f 392 394 445
f 392 444 442
f 391 442 443
f 391 392 442
f 390 443 456
f 390 391 443
f 387 456 457
f 389 390 456
f 387 389 456
f 387 457 455
f 388 455 454
f 388 387 455
f 384 454 453
f 388 454 384
f 385 453 452
f 386 384 453
f 385 386 453
f 385 452 451
f 399 451 450
f 399 385 451
f 398 450 449
f 398 399 450
f 395 449 448
f 397 398 449
f 395 397 449
f 395 448 447
f 396 395 447
f 377 407 408
f 380 404 407
f 377 380 407
f 376 408 409
f 378 377 408
f 376 378 408
f 376 409 411
f 375 411 410
f 375 376 411
f 374 410 469
f 374 375 410
f 371 469 470
f 373 374 469
f 371 373 469
f 371 470 466
f 372 466 516
f 372 371 466
f 368 516 512
f 372 516 368
f 369 512 515
f 370 368 512
f 369 370 512
f 369 515 508
f 383 508 403
f 383 369 508
f 382 403 405
f 382 383 403
f 379 405 406
f 381 382 405
f 379 381 405
f 379 406 404
f 380 379 404
f 352 490 484
f 356 491 490
f 352 356 490
f 353 484 479
f 354 352 484
f 353 354 484
f 353 479 482
f 367 482 424
f 367 353 482
f 366 424 425
f 366 367 424
f 363 425 427
f 365 366 425
f 363 365 425
f 363 427 426
f 364 426 428
f 364 363 426
f 361 428 429
f 364 428 361
f 360 429 430
f 362 361 429
f 360 362 429
f 360 430 433
f 359 433 432
f 359 360 433
f 358 432 495
f 358 359 432
f 355 495 487
f 357 358 495
f 355 357 495
f 355 487 491
f 356 355 491
f 465 517 471
f 518 471 517
f 518 472 471
f 519 520 517
f 518 517 520
f 465 519 517
f 521 520 519
f 522 518 520
f 523 522 520
f 521 523 520
f 474 519 465
f 524 521 519
f 525 524 519
f 474 525 519
f 526 472 518
f 468 472 526
f 527 518 522
f 528 526 518
f 527 528 518
f 527 522 529
f 523 529 522
f 530 527 529
f 531 530 529
f 523 531 529
f 532 526 528
f 468 526 532
f 532 528 527
f 532 527 530
f 533 530 531
f 534 532 530
f 533 534 530
f 535 531 523
f 536 531 535
f 536 533 531
f 535 523 521
f 537 521 524
f 537 535 521
f 538 537 524
f 539 538 524
f 540 539 524
f 541 540 524
f 525 541 524
f 542 535 537
f 536 535 542
f 542 537 538
f 543 538 544
f 539 544 538
f 542 538 543
f 545 543 544
f 539 545 544
f 545 546 543
f 547 543 546
f 548 543 547
f 549 543 548
f 549 542 543
f 550 546 545
f 551 546 550
f 547 546 551
f 552 545 539
f 552 550 545
f 553 539 540
f 554 539 553
f 554 552 539
f 541 555 540
f 556 540 555
f 553 540 556
f 557 558 555
f 559 555 558
f 541 557 555
f 559 556 555
f 560 558 557
f 559 558 560
f 561 557 541
f 560 557 561
f 525 561 541
f 476 561 525
f 476 560 561
f 473 476 525
f 473 525 474
f 478 559 560
f 478 560 475
f 476 475 560
f 483 556 559
f 483 553 556
f 477 483 559
f 477 559 478
f 483 562 553
f 554 553 562
f 483 481 562
f 563 562 481
f 552 562 563
f 554 562 552
f 563 481 486
f 563 564 550
f 493 550 564
f 552 563 550
f 493 551 550
f 563 565 564
f 493 564 565
f 563 492 565
f 493 565 492
f 563 486 492
f 566 567 568
f 569 568 567
f 570 566 568
f 571 568 569
f 572 568 571
f 572 570 568
f 573 574 567
f 497 567 574
f 566 573 567
f 498 569 567
f 497 498 567
f 575 576 574
f 494 574 576
f 577 575 574
f 578 577 574
f 573 578 574
f 496 497 574
f 496 574 494
f 579 551 576
f 489 576 551
f 580 579 576
f 575 580 576
f 494 576 489
f 548 547 551
f 579 548 551
f 489 551 493
f 580 548 579
f 575 548 580
f 581 548 575
f 581 549 548
f 578 575 577
f 582 575 578
f 581 575 582
f 582 578 573
f 582 573 566
f 570 582 566
f 583 584 585
f 507 585 584
f 586 583 585
f 587 586 585
f 588 587 585
f 589 588 585
f 511 589 585
f 511 585 507
f 590 591 584
f 505 584 591
f 592 590 584
f 593 592 584
f 594 593 584
f 583 594 584
f 506 507 584
f 505 506 584
f 595 596 591
f 504 591 596
f 597 595 591
f 598 597 591
f 590 598 591
f 504 505 591
f 599 600 596
f 503 596 600
f 601 599 596
f 602 601 596
f 595 602 596
f 503 504 596
f 603 604 600
f 502 600 604
f 599 603 600
f 502 503 600
f 605 606 604
f 501 604 606
f 607 605 604
f 608 607 604
f 603 608 604
f 501 502 604
f 609 610 606
f 500 606 610
f 611 609 606
f 612 611 606
f 605 612 606
f 500 501 606
f 613 569 610
f 499 610 569
f 614 613 610
f 615 614 610
f 609 615 610
f 499 500 610
f 616 571 569
f 617 616 569
f 613 617 569
f 498 499 569
f 572 571 616
f 618 616 617
f 618 572 616
f 618 617 613
f 618 613 614
f 619 614 615
f 619 618 614
f 619 615 609
f 619 609 611
f 620 611 612
f 619 611 620
f 620 612 605
f 620 605 607
f 621 607 608
f 620 607 621
f 621 608 603
f 601 603 599
f 621 603 601
f 595 601 602
f 597 601 595
f 622 601 597
f 621 601 622
f 590 597 598
f 592 597 590
f 623 597 592
f 623 622 597
f 594 592 593
f 583 592 594
f 624 592 583
f 624 623 592
f 624 583 586
f 624 586 587
f 625 587 588
f 625 624 587
f 626 588 589
f 627 588 626
f 627 625 588
f 628 629 532
f 514 532 629
f 630 628 532
f 534 630 532
f 468 532 514
f 631 589 629
f 510 629 589
f 632 631 629
f 633 632 629
f 628 633 629
f 514 629 510
f 634 626 589
f 635 634 589
f 631 635 589
f 510 589 511
f 627 626 634
f 636 634 635
f 636 627 634
f 636 635 631
f 636 631 632
f 636 632 633
f 637 633 628
f 636 633 637
f 637 628 630
f 637 630 534
f 536 534 533
f 637 534 536
f 638 639 640
f 641 640 639
f 642 638 640
f 643 642 640
f 641 643 640
f 644 645 639
f 646 639 645
f 638 644 639
f 646 641 639
f 536 542 645
f 549 645 542
f 644 536 645
f 549 646 645
f 637 536 644
f 647 644 638
f 647 637 644
f 642 648 638
f 649 638 648
f 649 647 638
f 650 622 648
f 623 648 622
f 642 650 648
f 651 649 648
f 623 651 648
f 650 621 622
f 620 621 650
f 643 650 642
f 643 620 650
f 636 637 647
f 627 647 649
f 636 647 627
f 625 649 651
f 627 649 625
f 624 651 623
f 625 651 624
f 619 620 643
f 652 643 641
f 619 643 652
f 653 641 646
f 654 641 653
f 652 641 654
f 581 646 549
f 653 646 581
f 653 582 570
f 653 581 582
f 654 570 572
f 654 653 570
f 652 572 618
f 652 654 572
f 619 652 618
f 63 39 45
f 655 63 278
f 656 63 655
f 62 63 656
f 293 655 278
f 274 293 278
f 657 658 655
f 656 655 658
f 659 657 655
f 660 659 655
f 281 660 655
f 280 281 655
f 283 280 655
f 284 283 655
f 285 284 655
f 286 285 655
f 287 286 655
f 288 287 655
f 289 288 655
f 290 289 655
f 291 290 655
f 292 291 655
f 293 292 655
f 661 658 657
f 661 656 658
f 662 657 659
f 662 661 657
f 663 659 660
f 663 662 659
f 282 660 281
f 282 663 660
f 279 664 54
f 665 54 664
f 666 667 54
f 668 54 667
f 53 666 54
f 668 294 54
f 669 55 54
f 670 669 54
f 665 670 54
f 296 664 279
f 296 665 664
f 671 672 656
f 62 656 672
f 661 671 656
f 668 667 672
f 62 672 667
f 671 668 672
f 61 667 666
f 61 62 667
f 61 666 53
f 61 53 56
f 673 295 294
f 674 282 295
f 673 674 295
f 675 294 668
f 675 673 294
f 676 668 671
f 675 668 676
f 677 671 661
f 676 671 677
f 678 661 662
f 677 661 678
f 679 662 663
f 679 678 662
f 680 663 282
f 679 663 680
f 674 680 282
f 681 48 55
f 50 48 681
f 681 55 669
f 665 669 670
f 681 669 665
f 682 681 665
f 296 682 665
f 683 684 685
f 686 685 684
f 687 683 685
f 688 687 685
f 689 688 685
f 686 689 685
f 690 691 684
f 686 684 691
f 683 690 684
f 690 692 691
f 693 691 692
f 693 686 691
f 50 694 692
f 693 692 694
f 690 50 692
f 50 681 694
f 682 694 681
f 682 693 694
f 695 50 690
f 695 49 50
f 696 690 683
f 696 695 690
f 697 683 687
f 697 696 683
f 688 698 687
f 699 687 698
f 699 697 687
f 700 313 698
f 314 698 313
f 688 700 698
f 314 699 698
f 700 304 313
f 303 304 700
f 701 700 688
f 701 303 700
f 689 701 688
f 323 49 695
f 321 695 696
f 321 323 695
f 317 696 697
f 317 321 696
f 316 697 699
f 316 317 697
f 315 699 314
f 315 316 699
f 302 303 701
f 702 701 689
f 702 302 701
f 703 689 686
f 703 702 689
f 704 686 693
f 704 703 686
f 705 693 682
f 705 704 693
f 296 705 682
f 301 302 702
f 300 702 703
f 300 301 702
f 299 703 704
f 299 300 703
f 298 704 705
f 298 299 704
f 297 705 296
f 297 298 705
f 61 56 57
f 676 680 674
f 677 679 680
f 676 677 680
f 675 674 673
f 675 676 674
f 677 678 679
