# https://github.com/mikedh/trimesh
mtllib mtl_side_top_face
usemtl mtl_side_top_face
v 0.28948873 0.00143189 0.62132084
v 0.29813874 0.00143189 0.62767082
v 0.29813874 0.00143189 0.67027080
v 0.30027449 0.00106195 0.62767082
v 0.29627886 0.00143189 0.67476094
v 0.29911917 0.00000000 0.67760128
v 0.30026808 0.00106423 0.67027080
v 0.29627886 0.00143189 0.62318069
v 0.29178873 0.00143189 0.62132084
v 0.29911917 0.00000000 0.62034041
v 0.30215555 0.00000000 0.62767082
v 0.28948873 0.00106322 0.61918861
v 0.29178873 0.00106423 0.61919147
v 0.29178873 0.00143189 0.67662084
v 0.28948873 0.00143189 0.67662084
v 0.28948873 0.00635000 0.64897084
v 0.28948873 0.00635000 0.49252084
v 0.29178873 0.00106195 0.67875659
v 0.28948873 0.00106322 0.67875302
v 0.29178873 0.00000000 0.68063766
v 0.31600013 0.00000000 0.97375226
v 0.28948873 0.00000000 0.68063766
v 0.30215555 0.00000000 0.67027080
v 0.28948873 0.00000000 0.80542082
v 0.31035724 0.00000000 0.92398024
v 0.28948873 0.00000000 0.49252084
v 0.28948873 0.00000000 0.61730403
v 0.29178873 0.00000000 0.61730403
v 0.28762886 0.00635000 0.48803070
v 0.28762886 0.00000000 0.48803070
v 0.31600013 0.00000000 0.48687613
v 0.31600013 0.00635000 0.48687613
v 0.28948873 0.00635000 0.80542082
v 0.28762886 0.00000000 0.80991095
v 0.28762886 0.00635000 0.80991095
v 0.30729714 0.00635000 0.91798037
v 0.30724940 0.00000000 0.02689995
v 0.15800007 0.00000000 0.00000000
v 0.31600013 0.00000000 -0.00000000
v 0.31600013 0.00635000 -0.00000000
v 0.31035724 0.00000000 0.02999995
v 0.30881774 0.00000000 0.02732136
v 0.00000000 0.00000000 0.00000000
v 0.15800007 0.00635000 0.00000000
v 0.00564290 0.00000000 0.41771942
v 0.00000000 0.00000000 0.48687613
v 0.00000000 0.00635000 0.00000000
v 0.00940000 0.00000000 0.12879318
v 0.00940000 0.00000000 0.17244318
v 0.00873505 0.00000000 0.22431444
v 0.00940000 0.00000000 0.08514319
v 0.01125988 0.00000000 0.08065306
v 0.00564290 0.00000000 0.02999995
v 0.00718238 0.00000000 0.41504085
v 0.00873505 0.00000000 0.41461945
v 0.00564290 0.00000000 0.22741441
v 0.00718238 0.00000000 0.22473584
v 0.00873505 0.00000000 0.02689995
v 0.00718238 0.00000000 0.02732136
v 0.00564290 0.00000000 0.92398024
v 0.00000000 0.00000000 0.97375226
v 0.00000000 0.00635000 0.48687613
v 0.02800000 0.00000000 0.64897084
v 0.02800000 0.00000000 0.80542082
v 0.00873505 0.00000000 0.92088026
v 0.02800000 0.00000000 0.49252084
v 0.02985987 0.00000000 0.48803070
v 0.03435000 0.00000000 0.48617083
v 0.00718238 0.00000000 0.92130166
v 0.00718238 0.00000000 0.92665881
v 0.15800007 0.00000000 0.97375226
v 0.00000000 0.00635000 0.97375226
v 0.00875075 0.00000000 0.92708021
v 0.15800007 0.00635000 0.97375226
v 0.31600013 0.00635000 0.97375226
v 0.30726510 0.00000000 0.92708021
v 0.30881774 0.00000000 0.92665881
v 0.28313872 0.00000000 0.48617083
v 0.00875075 0.00000000 0.42081943
v 0.30660012 0.00000000 0.36968568
v 0.30660012 0.00000000 0.32603568
v 0.30660012 0.00000000 0.28238568
v 0.31035724 0.00000000 0.41771942
v 0.30726510 0.00000000 0.23051441
v 0.30881774 0.00000000 0.42039803
v 0.30726510 0.00000000 0.42081943
v 0.30881774 0.00000000 0.23009300
v 0.31035724 0.00000000 0.22741441
v 0.30726510 0.00000000 0.03309993
v 0.30881774 0.00000000 0.03267853
v 0.28313872 0.00000000 0.81177080
v 0.30881774 0.00000000 0.92130166
v 0.03435000 0.00000000 0.81177080
v 0.28313872 0.00635000 0.81177080
v 0.02985987 0.00000000 0.80991095
v 0.03435000 0.00635000 0.81177080
v 0.30724940 0.00000000 0.92088026
v 0.02985987 0.00635000 0.80991095
v 0.02800000 0.00635000 0.80542082
v 0.02800000 0.00635000 0.64897084
v 0.02800000 0.00635000 0.49252084
v 0.02985987 0.00635000 0.48803070
v 0.03435000 0.00635000 0.48617083
v 0.00718238 0.00000000 0.42039803
v 0.28313872 0.00635000 0.48617083
v 0.30660012 0.00635000 0.32603568
v 0.30660012 0.00635000 0.28238568
v 0.30474025 0.00000000 0.37417579
v 0.30660012 0.00635000 0.36968568
v 0.30025014 0.00000000 0.37603566
v 0.30474025 0.00635000 0.37417579
v 0.30724940 0.00000000 0.41461945
v 0.15800007 0.00000000 0.37603566
v 0.30025014 0.00635000 0.37603566
v 0.30881774 0.00000000 0.41504085
v 0.01575000 0.00000000 0.37603566
v 0.15800007 0.00635000 0.37603566
v 0.01125988 0.00000000 0.37417579
v 0.01575000 0.00635000 0.37603566
v 0.00940000 0.00000000 0.36968568
v 0.01125988 0.00635000 0.37417579
v 0.00940000 0.00000000 0.32603568
v 0.00940000 0.00635000 0.36968568
v 0.00940000 0.00000000 0.28238568
v 0.00940000 0.00635000 0.32603568
v 0.01125988 0.00000000 0.27789554
v 0.00940000 0.00635000 0.28238568
v 0.01575000 0.00000000 0.27603567
v 0.01125988 0.00635000 0.27789554
v 0.00718238 0.00000000 0.23009300
v 0.15800007 0.00000000 0.27603567
v 0.01575000 0.00635000 0.27603567
v 0.00875075 0.00000000 0.23051441
v 0.30025014 0.00000000 0.27603567
v 0.15800007 0.00635000 0.27603567
v 0.30474025 0.00000000 0.27789554
v 0.30025014 0.00635000 0.27603567
v 0.30474025 0.00635000 0.27789554
v 0.30660012 0.00000000 0.17244318
v 0.30660012 0.00000000 0.12879318
v 0.30660012 0.00635000 0.12879318
v 0.30660012 0.00000000 0.08514319
v 0.30660012 0.00635000 0.08514319
v 0.30474025 0.00000000 0.17693332
v 0.30660012 0.00635000 0.17244318
v 0.30025014 0.00000000 0.17879318
v 0.30474025 0.00635000 0.17693332
v 0.30881774 0.00000000 0.22473584
v 0.15800007 0.00000000 0.17879318
v 0.30025014 0.00635000 0.17879318
v 0.30724940 0.00000000 0.22431444
v 0.01575000 0.00000000 0.17879318
v 0.15800007 0.00635000 0.17879318
v 0.01125988 0.00000000 0.17693332
v 0.01575000 0.00635000 0.17879318
v 0.01125988 0.00635000 0.17693332
v 0.00940000 0.00635000 0.17244318
v 0.00940000 0.00635000 0.12879318
v 0.00940000 0.00635000 0.08514319
v 0.01575000 0.00000000 0.07879318
v 0.01125988 0.00635000 0.08065306
v 0.00718238 0.00000000 0.03267853
v 0.15800007 0.00000000 0.07879318
v 0.01575000 0.00635000 0.07879318
v 0.00875075 0.00000000 0.03309993
v 0.30025014 0.00000000 0.07879318
v 0.15800007 0.00635000 0.07879318
v 0.30474025 0.00000000 0.08065306
v 0.30025014 0.00635000 0.07879318
v 0.30474025 0.00635000 0.08065306
v 0.30569673 0.00000000 0.92665881
v 0.01030341 0.00000000 0.92665881
v 0.01184290 0.00000000 0.92398024
v 0.01184290 0.00328500 0.92398024
v 0.30415726 0.00000000 0.92398024
v 0.01030341 0.00000000 0.92130166
v 0.01092831 0.00328500 0.92178160
v 0.01160410 0.00328500 0.92278713
v 0.00993602 0.00328500 0.92684144
v 0.01094152 0.00328500 0.92616564
v 0.00874290 0.00328500 0.92708021
v 0.00655748 0.00328500 0.92617887
v 0.00564290 0.00328500 0.92398024
v 0.00588170 0.00328500 0.92517334
v 0.00754978 0.00328500 0.92111903
v 0.00654427 0.00328500 0.92179483
v 0.30569673 0.00000000 0.92130166
v 0.00874290 0.00328500 0.92088020
v 0.30415726 0.00328500 0.92398024
v 0.30507183 0.00328500 0.92617887
v 0.30439603 0.00328500 0.92517334
v 0.30606413 0.00328500 0.92111903
v 0.30505863 0.00328500 0.92179483
v 0.30725724 0.00328500 0.92088020
v 0.30944267 0.00328500 0.92178160
v 0.31035724 0.00328500 0.92398024
v 0.31011844 0.00328500 0.92278713
v 0.30845037 0.00328500 0.92684144
v 0.30945587 0.00328500 0.92616564
v 0.30725724 0.00328500 0.92708021
v 0.01030341 0.00000000 0.41504085
v 0.30569673 0.00000000 0.41504085
v 0.30415726 0.00000000 0.41771942
v 0.30415726 0.00328500 0.41771942
v 0.01184290 0.00000000 0.41771942
v 0.30569673 0.00000000 0.42039803
v 0.30507183 0.00328500 0.41991806
v 0.30439603 0.00328500 0.41891256
v 0.30606413 0.00328500 0.41485822
v 0.30505863 0.00328500 0.41553402
v 0.30725724 0.00328500 0.41461945
v 0.30944267 0.00328500 0.41552082
v 0.31035724 0.00328500 0.41771942
v 0.31011844 0.00328500 0.41652632
v 0.30845037 0.00328500 0.42058063
v 0.30945587 0.00328500 0.41990486
v 0.01030341 0.00000000 0.42039803
v 0.30725724 0.00328500 0.42081943
v 0.01184290 0.00328500 0.41771942
v 0.01092831 0.00328500 0.41552082
v 0.01160410 0.00328500 0.41652632
v 0.00993602 0.00328500 0.42058063
v 0.01094152 0.00328500 0.41990486
v 0.00874290 0.00328500 0.42081943
v 0.00655748 0.00328500 0.41991806
v 0.00564290 0.00328500 0.41771942
v 0.00588170 0.00328500 0.41891256
v 0.00754978 0.00328500 0.41485822
v 0.00654427 0.00328500 0.41553402
v 0.00874290 0.00328500 0.41461945
v 0.30569673 0.00000000 0.23009300
v 0.01030341 0.00000000 0.23009300
v 0.01184290 0.00000000 0.22741441
v 0.01184290 0.00328500 0.22741441
v 0.30415726 0.00000000 0.22741441
v 0.01030341 0.00000000 0.22473584
v 0.01092831 0.00328500 0.22521579
v 0.01160410 0.00328500 0.22622131
v 0.00993602 0.00328500 0.23027562
v 0.01094152 0.00328500 0.22959983
v 0.00874290 0.00328500 0.23051442
v 0.00655748 0.00328500 0.22961305
v 0.00564290 0.00328500 0.22741441
v 0.00588170 0.00328500 0.22860754
v 0.00754978 0.00328500 0.22455323
v 0.00654427 0.00328500 0.22522901
v 0.30569673 0.00000000 0.22473584
v 0.00874290 0.00328500 0.22431442
v 0.30415726 0.00328500 0.22741441
v 0.30507183 0.00328500 0.22961305
v 0.30439603 0.00328500 0.22860754
v 0.30606413 0.00328500 0.22455323
v 0.30505863 0.00328500 0.22522901
v 0.30725724 0.00328500 0.22431442
v 0.30944267 0.00328500 0.22521579
v 0.31035724 0.00328500 0.22741441
v 0.31011844 0.00328500 0.22622131
v 0.30845037 0.00328500 0.23027562
v 0.30945587 0.00328500 0.22959983
v 0.30725724 0.00328500 0.23051442
v 0.01030341 0.00000000 0.02732136
v 0.30569673 0.00000000 0.02732136
v 0.30415726 0.00000000 0.02999995
v 0.30415726 0.00328500 0.02999995
v 0.01184290 0.00000000 0.02999995
v 0.30569673 0.00000000 0.03267853
v 0.30507183 0.00328500 0.03219857
v 0.30439603 0.00328500 0.03119306
v 0.30606413 0.00328500 0.02713875
v 0.30505863 0.00328500 0.02781453
v 0.30725724 0.00328500 0.02689994
v 0.30944267 0.00328500 0.02780132
v 0.31035724 0.00328500 0.02999995
v 0.31011844 0.00328500 0.02880682
v 0.30845037 0.00328500 0.03286114
v 0.30945587 0.00328500 0.03218536
v 0.01030341 0.00000000 0.03267853
v 0.30725724 0.00328500 0.03309995
v 0.01184290 0.00328500 0.02999995
v 0.01092831 0.00328500 0.02780132
v 0.01160410 0.00328500 0.02880682
v 0.00993602 0.00328500 0.03286114
v 0.01094152 0.00328500 0.03218536
v 0.00874290 0.00328500 0.03309995
v 0.00655748 0.00328500 0.03219857
v 0.00564290 0.00328500 0.02999995
v 0.00588170 0.00328500 0.03119306
v 0.00754978 0.00328500 0.02713875
v 0.00654427 0.00328500 0.02781453
v 0.00874290 0.00328500 0.02689994
v 0.31325725 0.00635000 0.41771942
v 0.00878279 0.00635000 0.02400008
v 0.30729714 0.00635000 0.22141455
v 0.31325725 0.00635000 0.02999995
v 0.30729714 0.00635000 0.02400008
v 0.31153333 0.00635000 0.02579103
v 0.30961010 0.00635000 0.02448052
v 0.31153333 0.00635000 0.22320551
v 0.31325725 0.00635000 0.22741441
v 0.31153333 0.00635000 0.41351053
v 0.30961010 0.00635000 0.22189499
v 0.31325725 0.00635000 0.92398024
v 0.30956709 0.00635000 0.92951781
v 0.31153333 0.00635000 0.92818916
v 0.31153333 0.00635000 0.42192835
v 0.31153333 0.00635000 0.91977131
v 0.30961010 0.00635000 0.91846079
v 0.00274290 0.00635000 0.02999995
v 0.00643304 0.00635000 0.02446238
v 0.00446680 0.00635000 0.02579103
v 0.30721736 0.00635000 0.92998010
v 0.00274290 0.00635000 0.92398024
v 0.00870300 0.00635000 0.92998010
v 0.00446680 0.00635000 0.92818916
v 0.00639003 0.00635000 0.92949963
v 0.30721736 0.00635000 0.42371932
v 0.00446680 0.00635000 0.42192835
v 0.00274290 0.00635000 0.41771942
v 0.00870300 0.00635000 0.23341429
v 0.00639003 0.00635000 0.42323884
v 0.00870300 0.00635000 0.42371932
v 0.00446680 0.00635000 0.23162334
v 0.00274290 0.00635000 0.22741441
v 0.00446680 0.00635000 0.03420886
v 0.00639003 0.00635000 0.23293385
v 0.30956709 0.00635000 0.42325699
v 0.00643304 0.00635000 0.91844267
v 0.00446680 0.00635000 0.91977131
v 0.00878279 0.00635000 0.91798037
v 0.30729714 0.00635000 0.41171956
v 0.00878279 0.00635000 0.41171956
v 0.30956709 0.00635000 0.23295198
v 0.31153333 0.00635000 0.23162334
v 0.30721736 0.00635000 0.23341429
v 0.00643304 0.00635000 0.41218188
v 0.00446680 0.00635000 0.41351053
v 0.00878279 0.00635000 0.22141455
v 0.30956709 0.00635000 0.03553751
v 0.31153333 0.00635000 0.03420886
v 0.30721736 0.00635000 0.03599981
v 0.00870300 0.00635000 0.03599981
v 0.00643304 0.00635000 0.22187686
v 0.00446680 0.00635000 0.22320551
v 0.31325725 0.00618500 0.92398024
v 0.31279564 0.00618500 0.92628807
v 0.31151110 0.00618500 0.91974884
v 0.30956510 0.00618500 0.91844183
v 0.01109576 0.00635000 0.91846079
v 0.30494741 0.00635000 0.91844267
v 0.30725724 0.00618500 0.91798019
v 0.01301899 0.00635000 0.91977131
v 0.30298114 0.00635000 0.91977131
v 0.30302584 0.00618500 0.91972637
v 0.01474290 0.00635000 0.92398024
v 0.30125725 0.00635000 0.92398024
v 0.30171886 0.00618500 0.92167240
v 0.01301900 0.00635000 0.92818916
v 0.30298114 0.00635000 0.92818916
v 0.30125725 0.00618500 0.92398024
v 0.01105275 0.00635000 0.92951781
v 0.30490437 0.00635000 0.92949963
v 0.30300337 0.00618500 0.92821163
v 0.30494940 0.00618500 0.92951864
v 0.30725724 0.00618500 0.92998022
v 0.31148863 0.00618500 0.92823410
v 0.01474290 0.00618500 0.92398024
v 0.01428129 0.00618500 0.92628807
v 0.01299676 0.00618500 0.91974884
v 0.01105074 0.00618500 0.91844183
v 0.00874290 0.00618500 0.91798019
v 0.00451150 0.00618500 0.91972637
v 0.00320450 0.00618500 0.92167240
v 0.00274290 0.00618500 0.92398024
v 0.00448904 0.00618500 0.92821163
v 0.00643505 0.00618500 0.92951864
v 0.00874290 0.00618500 0.92998022
v 0.01297429 0.00618500 0.92823410
v 0.30298114 0.00635000 0.41351053
v 0.01301899 0.00635000 0.41351053
v 0.01474290 0.00635000 0.41771942
v 0.01474290 0.00618500 0.41771942
v 0.30125725 0.00635000 0.41771942
v 0.01301900 0.00635000 0.42192835
v 0.01428129 0.00618500 0.42002729
v 0.30494741 0.00635000 0.41218188
v 0.01109576 0.00635000 0.41220000
v 0.01299676 0.00618500 0.41348803
v 0.01105074 0.00618500 0.41218105
v 0.00874290 0.00618500 0.41171944
v 0.00451150 0.00618500 0.41346559
v 0.00320450 0.00618500 0.41541159
v 0.00274290 0.00618500 0.41771942
v 0.00448904 0.00618500 0.42195082
v 0.00643505 0.00618500 0.42325783
v 0.30490437 0.00635000 0.42323884
v 0.01105275 0.00635000 0.42325699
v 0.00874290 0.00618500 0.42371944
v 0.30298114 0.00635000 0.42192835
v 0.01297429 0.00618500 0.42197329
v 0.30298114 0.00635000 0.22320551
v 0.01301899 0.00635000 0.22320551
v 0.01474290 0.00635000 0.22741441
v 0.01474290 0.00618500 0.22741441
v 0.30125725 0.00635000 0.22741441
v 0.01301900 0.00635000 0.23162334
v 0.01428129 0.00618500 0.22972228
v 0.30494741 0.00635000 0.22187686
v 0.01109576 0.00635000 0.22189499
v 0.01299676 0.00618500 0.22318304
v 0.01105074 0.00618500 0.22187603
v 0.00874290 0.00618500 0.22141442
v 0.00451150 0.00618500 0.22316056
v 0.00320450 0.00618500 0.22510657
v 0.00274290 0.00618500 0.22741441
v 0.00639003 0.00635000 0.03551937
v 0.00448904 0.00618500 0.23164581
v 0.00643505 0.00618500 0.23295282
v 0.30490437 0.00635000 0.23293385
v 0.01105275 0.00635000 0.23295198
v 0.00874290 0.00618500 0.23341443
v 0.30298114 0.00635000 0.23162334
v 0.01297429 0.00618500 0.23166828
v 0.30298114 0.00635000 0.02579103
v 0.01301899 0.00635000 0.02579103
v 0.01474290 0.00635000 0.02999995
v 0.01474290 0.00618500 0.02999995
v 0.30125725 0.00635000 0.02999995
v 0.01301900 0.00635000 0.03420886
v 0.01428129 0.00618500 0.03230779
v 0.30494741 0.00635000 0.02446238
v 0.01109576 0.00635000 0.02448052
v 0.01299676 0.00618500 0.02576855
v 0.01105074 0.00618500 0.02446155
v 0.00874290 0.00618500 0.02399994
v 0.00451150 0.00618500 0.02574608
v 0.00320450 0.00618500 0.02769210
v 0.00274290 0.00618500 0.02999995
v 0.00448904 0.00618500 0.03423134
v 0.00643505 0.00618500 0.03553834
v 0.30490437 0.00635000 0.03551937
v 0.01105275 0.00635000 0.03553751
v 0.00874290 0.00618500 0.03599995
v 0.30298114 0.00635000 0.03420886
v 0.01297429 0.00618500 0.03425381
v 0.31325725 0.00618500 0.02999995
v 0.31279564 0.00618500 0.03230779
v 0.31151110 0.00618500 0.02576855
v 0.30956510 0.00618500 0.02446155
v 0.30725724 0.00618500 0.02399994
v 0.30302584 0.00618500 0.02574608
v 0.30171886 0.00618500 0.02769210
v 0.30125725 0.00618500 0.02999995
v 0.30300337 0.00618500 0.03423134
v 0.30494940 0.00618500 0.03553834
v 0.30725724 0.00618500 0.03599995
v 0.31148863 0.00618500 0.03425381
v 0.31325725 0.00618500 0.22741441
v 0.31279564 0.00618500 0.22972228
v 0.30961010 0.00635000 0.41220000
v 0.31151110 0.00618500 0.22318304
v 0.30956510 0.00618500 0.22187603
v 0.30725724 0.00618500 0.22141442
v 0.30302584 0.00618500 0.22316056
v 0.30171886 0.00618500 0.22510657
v 0.30125725 0.00618500 0.22741441
v 0.30300337 0.00618500 0.23164581
v 0.30494940 0.00618500 0.23295282
v 0.30725724 0.00618500 0.23341443
v 0.31148863 0.00618500 0.23166828
v 0.31325725 0.00618500 0.41771942
v 0.31279564 0.00618500 0.42002729
v 0.31151110 0.00618500 0.41348803
v 0.30956510 0.00618500 0.41218105
v 0.30725724 0.00618500 0.41171944
v 0.30302584 0.00618500 0.41346559
v 0.30171886 0.00618500 0.41541159
v 0.30125725 0.00618500 0.41771942
v 0.30300337 0.00618500 0.42195082
v 0.30494940 0.00618500 0.42325783
v 0.30725724 0.00618500 0.42371944
v 0.31148863 0.00618500 0.42197329
f 1 2 3
f 4 3 2
f 5 1 3
f 6 5 3
f 7 6 3
f 4 7 3
f 1 8 2
f 4 2 8
f 1 9 8
f 10 8 9
f 11 8 10
f 4 8 11
f 12 9 1
f 13 9 12
f 13 10 9
f 14 15 1
f 16 1 15
f 5 14 1
f 16 17 1
f 12 1 17
f 18 15 14
f 19 15 18
f 16 15 19
f 18 14 5
f 6 20 5
f 18 5 20
f 21 20 6
f 19 18 20
f 22 19 20
f 21 22 20
f 7 23 6
f 21 6 23
f 11 23 7
f 11 21 23
f 4 11 7
f 24 19 22
f 24 16 19
f 25 24 22
f 25 22 21
f 17 26 27
f 28 27 26
f 12 17 27
f 13 12 27
f 13 27 28
f 29 26 17
f 30 31 26
f 11 26 31
f 29 30 26
f 10 28 26
f 11 10 26
f 32 17 16
f 29 17 32
f 24 33 16
f 32 16 33
f 34 33 24
f 35 33 34
f 36 32 33
f 36 33 35
f 25 34 24
f 37 38 39
f 40 39 38
f 41 39 31
f 32 31 39
f 42 37 39
f 41 42 39
f 32 39 40
f 37 43 38
f 44 38 43
f 44 40 38
f 45 46 43
f 47 43 46
f 48 49 43
f 50 43 49
f 51 48 43
f 52 51 43
f 53 52 43
f 54 45 43
f 55 54 43
f 56 55 43
f 57 56 43
f 50 57 43
f 58 43 37
f 59 53 43
f 58 59 43
f 44 43 47
f 60 61 46
f 62 46 61
f 63 64 46
f 65 46 64
f 66 63 46
f 67 66 46
f 68 67 46
f 45 68 46
f 69 60 46
f 65 69 46
f 62 47 46
f 70 71 61
f 72 61 71
f 60 70 61
f 62 61 72
f 73 21 71
f 74 71 21
f 70 73 71
f 72 71 74
f 11 31 21
f 75 21 31
f 76 21 73
f 77 25 21
f 76 77 21
f 74 21 75
f 30 78 31
f 79 31 78
f 80 81 31
f 82 31 81
f 83 80 31
f 84 31 82
f 85 83 31
f 86 85 31
f 79 86 31
f 87 88 31
f 89 31 88
f 84 87 31
f 90 41 31
f 89 90 31
f 32 75 31
f 25 91 34
f 35 34 91
f 92 93 91
f 94 91 93
f 25 92 91
f 35 91 94
f 65 95 93
f 96 93 95
f 97 65 93
f 92 97 93
f 94 93 96
f 65 64 95
f 98 95 64
f 96 95 98
f 99 64 63
f 98 64 99
f 100 63 66
f 99 63 100
f 101 66 67
f 100 66 101
f 102 67 68
f 101 67 102
f 79 78 68
f 103 68 78
f 104 79 68
f 45 104 68
f 102 68 103
f 105 78 30
f 103 78 105
f 105 30 29
f 13 28 10
f 106 81 80
f 107 82 81
f 107 81 106
f 83 108 80
f 109 80 108
f 106 80 109
f 83 110 108
f 111 108 110
f 109 108 111
f 112 113 110
f 114 110 113
f 115 112 110
f 83 115 110
f 111 110 114
f 112 116 113
f 117 113 116
f 117 114 113
f 55 118 116
f 119 116 118
f 55 116 112
f 117 116 119
f 55 120 118
f 121 118 120
f 119 118 121
f 56 122 120
f 123 120 122
f 56 120 55
f 121 120 123
f 56 124 122
f 125 122 124
f 123 122 125
f 56 126 124
f 127 124 126
f 125 124 127
f 56 128 126
f 129 126 128
f 127 126 129
f 130 131 128
f 132 128 131
f 56 130 128
f 129 128 132
f 133 134 131
f 135 131 134
f 130 133 131
f 132 131 135
f 84 136 134
f 137 134 136
f 84 134 133
f 135 134 137
f 84 82 136
f 138 136 82
f 137 136 138
f 138 82 107
f 88 139 140
f 141 140 139
f 88 140 142
f 143 142 140
f 143 140 141
f 88 144 139
f 145 139 144
f 141 139 145
f 88 146 144
f 147 144 146
f 145 144 147
f 148 149 146
f 150 146 149
f 88 148 146
f 147 146 150
f 151 152 149
f 153 149 152
f 148 151 149
f 153 150 149
f 50 154 152
f 155 152 154
f 151 50 152
f 153 152 155
f 50 49 154
f 156 154 49
f 155 154 156
f 157 49 48
f 156 49 157
f 158 48 51
f 157 48 158
f 159 51 52
f 158 51 159
f 53 160 52
f 161 52 160
f 159 52 161
f 162 163 160
f 164 160 163
f 53 162 160
f 161 160 164
f 165 166 163
f 167 163 166
f 162 165 163
f 164 163 167
f 89 168 166
f 169 166 168
f 165 89 166
f 167 166 169
f 89 142 168
f 170 168 142
f 169 168 170
f 89 88 142
f 170 142 143
f 171 172 173
f 174 173 172
f 175 173 176
f 177 176 173
f 171 173 175
f 178 173 174
f 177 173 178
f 76 73 172
f 179 172 73
f 171 76 172
f 180 174 172
f 179 180 172
f 181 73 70
f 181 179 73
f 182 70 60
f 182 181 70
f 183 60 69
f 184 60 183
f 184 182 60
f 185 69 65
f 186 183 69
f 186 69 185
f 187 176 65
f 188 65 176
f 97 187 65
f 185 65 188
f 187 175 176
f 188 176 177
f 189 175 187
f 190 171 175
f 191 175 189
f 191 190 175
f 192 187 97
f 193 189 187
f 193 187 192
f 194 97 92
f 192 97 194
f 195 92 25
f 194 92 195
f 196 25 77
f 197 25 196
f 195 25 197
f 198 77 76
f 199 196 77
f 198 199 77
f 200 76 171
f 200 198 76
f 190 200 171
f 201 202 203
f 204 203 202
f 205 203 206
f 207 206 203
f 201 203 205
f 208 203 204
f 208 207 203
f 55 112 202
f 209 202 112
f 201 55 202
f 210 204 202
f 210 202 209
f 211 112 115
f 209 112 211
f 212 115 83
f 211 115 212
f 213 83 85
f 214 83 213
f 212 83 214
f 215 85 86
f 216 213 85
f 215 216 85
f 217 206 86
f 218 86 206
f 79 217 86
f 218 215 86
f 217 205 206
f 207 218 206
f 219 205 217
f 220 201 205
f 221 205 219
f 220 205 221
f 222 217 79
f 223 219 217
f 222 223 217
f 224 79 104
f 224 222 79
f 225 104 45
f 225 224 104
f 226 45 54
f 227 45 226
f 227 225 45
f 228 54 55
f 229 226 54
f 229 54 228
f 230 55 201
f 228 55 230
f 230 201 220
f 231 232 233
f 234 233 232
f 235 233 236
f 237 236 233
f 231 233 235
f 238 233 234
f 237 233 238
f 84 133 232
f 239 232 133
f 231 84 232
f 240 234 232
f 239 240 232
f 241 133 130
f 241 239 133
f 242 130 56
f 242 241 130
f 243 56 57
f 244 56 243
f 244 242 56
f 245 57 50
f 246 243 57
f 246 57 245
f 247 236 50
f 248 50 236
f 151 247 50
f 245 50 248
f 247 235 236
f 248 236 237
f 249 235 247
f 250 231 235
f 251 235 249
f 251 250 235
f 252 247 151
f 253 249 247
f 253 247 252
f 254 151 148
f 252 151 254
f 255 148 88
f 254 148 255
f 256 88 87
f 257 88 256
f 255 88 257
f 258 87 84
f 259 256 87
f 258 259 87
f 260 84 231
f 260 258 84
f 250 260 231
f 261 262 263
f 264 263 262
f 265 263 266
f 267 266 263
f 261 263 265
f 268 263 264
f 268 267 263
f 58 37 262
f 269 262 37
f 261 58 262
f 270 264 262
f 270 262 269
f 271 37 42
f 269 37 271
f 272 42 41
f 271 42 272
f 273 41 90
f 274 41 273
f 272 41 274
f 275 90 89
f 276 273 90
f 275 276 90
f 277 266 89
f 278 89 266
f 165 277 89
f 278 275 89
f 277 265 266
f 267 278 266
f 279 265 277
f 280 261 265
f 281 265 279
f 280 265 281
f 282 277 165
f 283 279 277
f 282 283 277
f 284 165 162
f 284 282 165
f 285 162 53
f 285 284 162
f 286 53 59
f 287 53 286
f 287 285 53
f 288 59 58
f 289 286 59
f 289 59 288
f 290 58 261
f 288 58 290
f 290 261 280
f 291 32 40
f 292 40 44
f 141 145 40
f 293 40 145
f 294 141 40
f 295 40 292
f 296 294 40
f 297 296 40
f 295 297 40
f 298 299 40
f 300 40 299
f 301 298 40
f 293 301 40
f 300 291 40
f 302 75 32
f 303 74 75
f 304 75 302
f 304 303 75
f 105 29 32
f 305 105 32
f 306 302 32
f 307 306 32
f 36 307 32
f 305 32 291
f 292 44 47
f 308 47 62
f 309 292 47
f 310 309 47
f 308 310 47
f 311 72 74
f 303 311 74
f 312 62 72
f 313 72 311
f 314 312 72
f 315 314 72
f 313 315 72
f 102 103 62
f 316 62 103
f 101 102 62
f 312 101 62
f 317 318 62
f 319 62 318
f 320 317 62
f 321 320 62
f 316 321 62
f 322 323 62
f 324 62 323
f 325 322 62
f 319 325 62
f 324 308 62
f 326 103 105
f 305 326 105
f 326 316 103
f 312 100 101
f 312 99 100
f 312 98 99
f 312 96 98
f 327 94 96
f 328 327 96
f 312 328 96
f 36 35 94
f 329 36 94
f 327 329 94
f 330 111 114
f 331 114 117
f 330 114 331
f 330 109 111
f 299 106 109
f 330 299 109
f 299 107 106
f 299 138 107
f 299 137 138
f 332 135 137
f 333 137 299
f 333 332 137
f 334 132 135
f 332 334 135
f 319 129 132
f 334 319 132
f 319 127 129
f 318 125 127
f 319 318 127
f 318 123 125
f 318 121 123
f 318 119 121
f 335 117 119
f 336 335 119
f 318 336 119
f 335 331 117
f 293 147 150
f 337 150 153
f 293 150 337
f 293 145 147
f 294 143 141
f 294 170 143
f 294 169 170
f 338 167 169
f 339 169 294
f 339 338 169
f 340 164 167
f 338 340 167
f 341 161 164
f 340 341 164
f 341 159 161
f 323 158 159
f 341 323 159
f 323 157 158
f 323 156 157
f 323 155 156
f 342 153 155
f 343 342 155
f 323 343 155
f 342 337 153
f 344 302 306
f 345 304 302
f 344 345 302
f 346 306 307
f 346 344 306
f 347 307 36
f 347 346 307
f 348 349 36
f 350 36 349
f 329 348 36
f 350 347 36
f 351 352 349
f 353 349 352
f 348 351 349
f 353 350 349
f 354 355 352
f 356 352 355
f 351 354 352
f 356 353 352
f 357 358 355
f 359 355 358
f 357 355 354
f 356 355 359
f 360 361 358
f 362 358 361
f 357 360 358
f 362 359 358
f 313 311 361
f 363 361 311
f 360 313 361
f 363 362 361
f 364 311 303
f 364 363 311
f 365 303 304
f 365 364 303
f 345 365 304
f 366 354 351
f 367 357 354
f 366 367 354
f 368 351 348
f 368 366 351
f 369 348 329
f 369 368 348
f 370 329 327
f 370 369 329
f 371 327 328
f 371 370 327
f 372 328 312
f 372 371 328
f 373 312 314
f 372 312 373
f 374 314 315
f 374 373 314
f 375 315 313
f 375 374 315
f 376 313 360
f 376 375 313
f 377 360 357
f 377 376 360
f 367 377 357
f 378 379 380
f 381 380 379
f 382 380 383
f 384 383 380
f 382 378 380
f 381 384 380
f 385 386 379
f 387 379 386
f 378 385 379
f 387 381 379
f 330 331 386
f 388 386 331
f 385 330 386
f 388 387 386
f 389 331 335
f 389 388 331
f 390 335 336
f 390 389 335
f 391 336 318
f 391 390 336
f 392 318 317
f 391 318 392
f 393 317 320
f 393 392 317
f 394 320 321
f 394 393 320
f 395 396 321
f 397 321 396
f 316 395 321
f 397 394 321
f 398 383 396
f 399 396 383
f 395 398 396
f 399 397 396
f 398 382 383
f 384 399 383
f 400 401 402
f 403 402 401
f 404 402 405
f 406 405 402
f 404 400 402
f 403 406 402
f 407 408 401
f 409 401 408
f 400 407 401
f 409 403 401
f 293 337 408
f 410 408 337
f 407 293 408
f 410 409 408
f 411 337 342
f 411 410 337
f 412 342 343
f 412 411 342
f 413 343 323
f 413 412 343
f 414 323 322
f 415 324 323
f 341 415 323
f 413 323 414
f 416 322 325
f 416 414 322
f 417 325 319
f 417 416 325
f 418 419 319
f 420 319 419
f 334 418 319
f 420 417 319
f 421 405 419
f 422 419 405
f 418 421 419
f 422 420 419
f 421 404 405
f 406 422 405
f 423 424 425
f 426 425 424
f 427 425 428
f 429 428 425
f 427 423 425
f 426 429 425
f 430 431 424
f 432 424 431
f 423 430 424
f 432 426 424
f 295 292 431
f 433 431 292
f 430 295 431
f 433 432 431
f 434 292 309
f 434 433 292
f 435 309 310
f 435 434 309
f 436 310 308
f 436 435 310
f 437 308 324
f 436 308 437
f 438 324 415
f 438 437 324
f 439 415 341
f 439 438 415
f 440 441 341
f 442 341 441
f 340 440 341
f 442 439 341
f 443 428 441
f 444 441 428
f 440 443 441
f 444 442 441
f 443 427 428
f 429 444 428
f 445 294 296
f 446 339 294
f 445 446 294
f 447 296 297
f 447 445 296
f 448 297 295
f 448 447 297
f 449 295 430
f 449 448 295
f 450 430 423
f 450 449 430
f 451 423 427
f 451 450 423
f 452 427 443
f 451 427 452
f 453 443 440
f 453 452 443
f 454 440 340
f 454 453 440
f 455 340 338
f 455 454 340
f 456 338 339
f 456 455 338
f 446 456 339
f 457 299 298
f 458 333 299
f 459 300 299
f 330 459 299
f 457 458 299
f 460 298 301
f 460 457 298
f 461 301 293
f 461 460 301
f 462 293 407
f 462 461 293
f 463 407 400
f 463 462 407
f 464 400 404
f 464 463 400
f 465 404 421
f 464 404 465
f 466 421 418
f 466 465 421
f 467 418 334
f 467 466 418
f 468 334 332
f 468 467 334
f 469 332 333
f 469 468 332
f 458 469 333
f 470 291 300
f 471 305 291
f 470 471 291
f 472 300 459
f 472 470 300
f 473 459 330
f 473 472 459
f 474 330 385
f 474 473 330
f 475 385 378
f 475 474 385
f 476 378 382
f 476 475 378
f 477 382 398
f 476 382 477
f 478 398 395
f 478 477 398
f 479 395 316
f 479 478 395
f 480 316 326
f 480 479 316
f 481 326 305
f 481 480 326
f 471 481 305
f 189 359 362
f 193 356 359
f 193 359 189
f 190 362 363
f 191 189 362
f 191 362 190
f 190 363 364
f 200 364 365
f 190 364 200
f 199 365 345
f 198 365 199
f 200 365 198
f 199 345 344
f 196 344 346
f 199 344 196
f 195 346 347
f 197 196 346
f 195 197 346
f 195 347 350
f 194 350 353
f 194 195 350
f 193 353 356
f 192 194 353
f 193 192 353
f 183 373 374
f 186 372 373
f 186 373 183
f 182 374 375
f 184 183 374
f 184 374 182
f 182 375 376
f 181 376 377
f 182 376 181
f 180 377 367
f 179 377 180
f 181 377 179
f 180 367 366
f 174 366 368
f 180 366 174
f 177 368 369
f 178 174 368
f 177 178 368
f 177 369 370
f 188 370 371
f 188 177 370
f 186 371 372
f 185 188 371
f 186 185 371
f 226 392 393
f 229 391 392
f 229 392 226
f 225 393 394
f 227 226 393
f 227 393 225
f 225 394 397
f 224 397 399
f 225 397 224
f 223 399 384
f 222 399 223
f 224 399 222
f 223 384 381
f 219 381 387
f 223 381 219
f 220 387 388
f 221 219 387
f 220 221 387
f 220 388 389
f 230 389 390
f 230 220 389
f 229 390 391
f 228 230 390
f 229 228 390
f 243 414 416
f 246 413 414
f 246 414 243
f 242 416 417
f 244 243 416
f 244 416 242
f 242 417 420
f 241 420 422
f 242 420 241
f 240 422 406
f 239 422 240
f 241 422 239
f 240 406 403
f 234 403 409
f 240 403 234
f 237 409 410
f 238 234 409
f 237 238 409
f 237 410 411
f 248 411 412
f 248 237 411
f 246 412 413
f 245 248 412
f 246 245 412
f 286 437 438
f 289 436 437
f 289 437 286
f 285 438 439
f 287 286 438
f 287 438 285
f 285 439 442
f 284 442 444
f 285 442 284
f 283 444 429
f 282 444 283
f 284 444 282
f 283 429 426
f 279 426 432
f 283 426 279
f 280 432 433
f 281 279 432
f 280 281 432
f 280 433 434
f 290 434 435
f 290 280 434
f 289 435 436
f 288 290 435
f 289 288 435
f 264 452 453
f 270 451 452
f 270 452 264
f 267 453 454
f 268 264 453
f 268 453 267
f 267 454 455
f 278 455 456
f 267 455 278
f 276 456 446
f 275 456 276
f 278 456 275
f 276 446 445
f 273 445 447
f 276 445 273
f 272 447 448
f 274 273 447
f 272 274 447
f 272 448 449
f 271 449 450
f 271 272 449
f 270 450 451
f 269 271 450
f 270 269 450
f 249 465 466
f 253 464 465
f 253 465 249
f 250 466 467
f 251 249 466
f 251 466 250
f 250 467 468
f 260 468 469
f 250 468 260
f 259 469 458
f 258 469 259
f 260 469 258
f 259 458 457
f 256 457 460
f 259 457 256
f 255 460 461
f 257 256 460
f 255 257 460
f 255 461 462
f 254 462 463
f 254 255 462
f 253 463 464
f 252 254 463
f 253 252 463
f 204 477 478
f 210 476 477
f 210 477 204
f 207 478 479
f 208 204 478
f 208 478 207
f 207 479 480
f 218 480 481
f 207 480 218
f 216 481 471
f 215 481 216
f 218 481 215
f 216 471 470
f 213 470 472
f 216 470 213
f 212 472 473
f 214 213 472
f 212 214 472
f 212 473 474
f 211 474 475
f 211 212 474
f 210 475 476
f 209 211 475
f 210 209 475

