# https://github.com/mikedh/trimesh
mtllib mtl_side_bottom_face
usemtl mtl_side_bottom_face
v -0.00000000 0.00635000 0.25411013
v 0.00000000 0.00000000 0.25411013
v -0.00000000 0.00000000 0.50822026
v 0.00564289 0.00000000 0.46910137
v -0.00000000 0.00635000 0.50822026
v 0.15800007 0.00000000 0.50822026
v 0.00754829 0.00000000 0.47196195
v 0.00653599 0.00000000 0.47127843
v -0.00000000 0.00635000 -0.00000000
v -0.00000000 0.00000000 -0.00000000
v 0.00564290 0.00000000 0.02980000
v 0.30946413 0.00000000 0.46692431
v 0.31600013 0.00000000 0.25411013
v 0.00653600 0.00000000 0.03197706
v 0.30845183 0.00000000 0.46624079
v 0.30723944 0.00000000 0.46600142
v 0.00872510 0.00000000 0.46600142
v 0.00653599 0.00000000 0.46692431
v 0.00753036 0.00000000 0.46624836
v 0.15800007 0.00635000 0.00000000
v 0.30723944 0.00000000 0.02670005
v 0.15800007 0.00000000 -0.00000000
v 0.00653600 0.00000000 0.02762294
v 0.00753037 0.00000000 0.02694697
v 0.00872510 0.00000000 0.02670005
v 0.00274290 0.00635000 0.02980000
v 0.00881097 0.00635000 0.02380039
v 0.00444293 0.00635000 0.02561547
v 0.00644888 0.00635000 0.02425586
v 0.00274289 0.00635000 0.46910137
v 0.00644888 0.00635000 0.46355724
v 0.31600013 0.00635000 0.25411013
v 0.31155720 0.00635000 0.03398453
v 0.00444292 0.00635000 0.46491686
v 0.00444293 0.00635000 0.03398453
v 0.00636123 0.00635000 0.03530706
v 0.00867482 0.00635000 0.03579962
v 0.30718917 0.00635000 0.03579962
v 0.30955127 0.00635000 0.03534414
v 0.15800007 0.00635000 0.50822026
v 0.30718917 0.00635000 0.47510099
v 0.00867482 0.00635000 0.47510099
v 0.00444292 0.00635000 0.47328591
v 0.00636123 0.00635000 0.47460842
v 0.31600013 0.00000000 0.00000000
v 0.31600013 0.00635000 0.00000000
v 0.31035724 0.00000000 0.02980000
v 0.30845186 0.00000000 0.02693942
v 0.30946416 0.00000000 0.02762294
v 0.00876069 0.00000000 0.47220132
v 0.31600013 0.00000000 0.50822026
v 0.31035724 0.00000000 0.46910137
v 0.31600013 0.00635000 0.50822026
v 0.30946413 0.00000000 0.47127843
v 0.30846977 0.00000000 0.47195441
v 0.30727503 0.00000000 0.47220132
v 0.00754830 0.00000000 0.03266058
v 0.00876069 0.00000000 0.03289995
v 0.30727503 0.00000000 0.03289995
v 0.30946416 0.00000000 0.03197706
v 0.30846977 0.00000000 0.03265303
v 0.01094979 0.00000000 0.46692431
v 0.30505034 0.00000000 0.46692431
v 0.30415723 0.00000000 0.46910137
v 0.30415723 0.00328500 0.46910137
v 0.01184289 0.00000000 0.46910137
v 0.30505034 0.00000000 0.47127843
v 0.30457649 0.00328500 0.47065818
v 0.00993750 0.00000000 0.46624079
v 0.30604470 0.00000000 0.46624836
v 0.30570084 0.00328500 0.46642041
v 0.30456883 0.00328500 0.46755788
v 0.30725646 0.00328500 0.46600139
v 0.30880082 0.00328500 0.46641302
v 0.30993798 0.00328500 0.46754459
v 0.31035724 0.00328500 0.46910137
v 0.30881366 0.00328500 0.47178236
v 0.30994567 0.00328500 0.47064486
v 0.00995542 0.00000000 0.47195441
v 0.30606264 0.00000000 0.47196195
v 0.30725804 0.00328500 0.47220138
v 0.01094979 0.00000000 0.47127843
v 0.30571365 0.00328500 0.47178975
v 0.01184289 0.00328500 0.46910137
v 0.01142364 0.00328500 0.46754459
v 0.01029931 0.00328500 0.47178236
v 0.01143132 0.00328500 0.47064486
v 0.00874368 0.00328500 0.47220138
v 0.00719931 0.00328500 0.47178975
v 0.00606215 0.00328500 0.47065818
v 0.00564289 0.00328500 0.46910137
v 0.00718648 0.00328500 0.46642041
v 0.00605447 0.00328500 0.46755788
v 0.00874210 0.00328500 0.46600139
v 0.01028648 0.00328500 0.46641302
v 0.30505034 0.00000000 0.03197706
v 0.01094980 0.00000000 0.03197706
v 0.01184290 0.00000000 0.02980000
v 0.01184290 0.00328500 0.02980000
v 0.30415726 0.00000000 0.02980000
v 0.01094980 0.00000000 0.02762294
v 0.01093493 0.00328500 0.02760797
v 0.30606264 0.00000000 0.03266058
v 0.00995543 0.00000000 0.03265303
v 0.01093493 0.00328500 0.03199203
v 0.00874290 0.00328500 0.03290000
v 0.00655087 0.00328499 0.03199203
v 0.00564290 0.00328499 0.02980000
v 0.00655087 0.00328499 0.02760797
v 0.30604473 0.00000000 0.02694697
v 0.00993750 0.00000000 0.02693942
v 0.00874290 0.00328500 0.02670000
v 0.30505034 0.00000000 0.02762294
v 0.30415726 0.00328499 0.02980000
v 0.30506521 0.00328499 0.03199203
v 0.30506521 0.00328499 0.02760797
v 0.30725724 0.00328500 0.02670000
v 0.30944929 0.00328500 0.02760797
v 0.31035724 0.00328500 0.02980000
v 0.30944929 0.00328500 0.03199203
v 0.30725724 0.00328500 0.03290000
v 0.31325725 0.00635000 0.02980000
v 0.30732533 0.00635000 0.02380039
v 0.31155720 0.00635000 0.02561547
v 0.30963892 0.00635000 0.02429294
v 0.31325725 0.00635000 0.46910137
v 0.30955127 0.00635000 0.47464553
v 0.31155720 0.00635000 0.47328591
v 0.31155720 0.00635000 0.46491686
v 0.30963892 0.00635000 0.46359432
v 0.30732530 0.00635000 0.46310177
v 0.00881097 0.00635000 0.46310177
v 0.01304286 0.00635000 0.47328591
v 0.30295727 0.00635000 0.47328591
v 0.30125725 0.00635000 0.46910137
v 0.30125725 0.00618500 0.46910137
v 0.01474289 0.00635000 0.46910137
v 0.30295727 0.00635000 0.46491686
v 0.30171850 0.00618500 0.46679434
v 0.01103691 0.00635000 0.47464553
v 0.30487558 0.00635000 0.47460842
v 0.30300489 0.00618500 0.47333428
v 0.30495203 0.00618500 0.47464088
v 0.30725586 0.00618500 0.47510138
v 0.31148994 0.00618500 0.47335392
v 0.31279597 0.00618500 0.47140840
v 0.31325725 0.00618500 0.46910137
v 0.31150958 0.00618500 0.46486846
v 0.30956244 0.00618500 0.46356189
v 0.01112456 0.00635000 0.46359432
v 0.30496323 0.00635000 0.46355724
v 0.30725864 0.00618500 0.46310139
v 0.01304286 0.00635000 0.46491686
v 0.30302453 0.00618500 0.46484885
v 0.00274289 0.00618500 0.46910137
v 0.00320415 0.00618500 0.46679434
v 0.00449055 0.00618500 0.47333428
v 0.00643768 0.00618500 0.47464088
v 0.00874151 0.00618500 0.47510138
v 0.01297561 0.00618500 0.47335392
v 0.01428163 0.00618500 0.47140840
v 0.01474289 0.00618500 0.46910137
v 0.01299524 0.00618500 0.46486846
v 0.01104810 0.00618500 0.46356189
v 0.00874428 0.00618500 0.46310139
v 0.00451018 0.00618500 0.46484885
v 0.00274290 0.00618500 0.02980000
v 0.00320370 0.00618500 0.02749406
v 0.00449056 0.00618500 0.03403293
v 0.00643696 0.00618500 0.03533919
v 0.30487558 0.00635000 0.03530706
v 0.01103691 0.00635000 0.03534414
v 0.00874290 0.00618500 0.03580000
v 0.30295727 0.00635000 0.03398453
v 0.01304287 0.00635000 0.03398453
v 0.01297582 0.00618500 0.03405233
v 0.30125725 0.00635000 0.02980000
v 0.01474290 0.00635000 0.02980000
v 0.01428209 0.00618500 0.03210594
v 0.30295727 0.00635000 0.02561547
v 0.01304287 0.00635000 0.02561547
v 0.01474290 0.00618500 0.02980000
v 0.30496323 0.00635000 0.02425586
v 0.01112456 0.00635000 0.02429294
v 0.01299523 0.00618500 0.02556707
v 0.01104883 0.00618500 0.02426081
v 0.00874290 0.00618500 0.02380000
v 0.00450997 0.00618500 0.02554767
v 0.30125725 0.00618500 0.02980000
v 0.30171806 0.00618500 0.02749406
v 0.30300492 0.00618500 0.03403293
v 0.30495131 0.00618500 0.03533919
v 0.30725724 0.00618500 0.03580000
v 0.31149018 0.00618500 0.03405233
v 0.31279644 0.00618500 0.03210594
v 0.31325725 0.00618500 0.02980000
v 0.31150958 0.00618500 0.02556707
v 0.30956319 0.00618500 0.02426081
v 0.30725724 0.00618500 0.02380000
v 0.30302432 0.00618500 0.02554767
f 1 2 3
f 4 3 2
f 5 1 3
f 6 5 3
f 7 6 3
f 8 7 3
f 4 8 3
f 9 10 2
f 11 2 10
f 1 9 2
f 12 2 13
f 14 13 2
f 15 16 2
f 17 2 16
f 12 15 2
f 18 4 2
f 19 18 2
f 17 19 2
f 11 14 2
f 20 10 9
f 21 10 22
f 20 22 10
f 23 11 10
f 24 23 10
f 25 24 10
f 21 25 10
f 26 9 1
f 27 20 9
f 28 9 26
f 29 27 9
f 28 29 9
f 30 1 5
f 31 32 1
f 33 1 32
f 34 1 30
f 34 31 1
f 35 26 1
f 36 35 1
f 37 36 1
f 38 37 1
f 39 38 1
f 33 39 1
f 40 5 6
f 41 5 40
f 42 5 41
f 43 30 5
f 44 43 5
f 42 44 5
f 21 22 45
f 46 45 22
f 47 45 13
f 32 13 45
f 48 21 45
f 49 48 45
f 47 49 45
f 32 45 46
f 20 46 22
f 50 51 6
f 40 6 51
f 7 50 6
f 52 13 51
f 53 51 13
f 54 52 51
f 55 54 51
f 56 55 51
f 50 56 51
f 40 51 53
f 52 12 13
f 57 58 13
f 59 13 58
f 14 57 13
f 60 47 13
f 61 60 13
f 59 61 13
f 32 53 13
f 62 63 64
f 65 64 63
f 66 64 67
f 68 67 64
f 62 64 66
f 68 64 65
f 69 70 63
f 71 63 70
f 62 69 63
f 72 65 63
f 71 72 63
f 17 16 70
f 71 70 16
f 69 17 70
f 73 16 15
f 73 71 16
f 74 15 12
f 74 73 15
f 75 12 52
f 75 74 12
f 76 52 54
f 75 52 76
f 77 54 55
f 78 76 54
f 78 54 77
f 77 55 56
f 79 80 56
f 81 56 80
f 50 79 56
f 77 56 81
f 82 67 80
f 83 80 67
f 79 82 80
f 81 80 83
f 82 66 67
f 83 67 68
f 84 66 82
f 85 62 66
f 85 66 84
f 86 82 79
f 87 84 82
f 87 82 86
f 86 79 50
f 88 50 7
f 86 50 88
f 89 7 8
f 88 7 89
f 90 8 4
f 89 8 90
f 91 4 18
f 90 4 91
f 92 18 19
f 93 91 18
f 92 93 18
f 92 19 17
f 94 17 69
f 94 92 17
f 95 69 62
f 95 94 69
f 85 95 62
f 96 97 98
f 99 98 97
f 100 98 101
f 102 101 98
f 96 98 100
f 102 98 99
f 103 104 97
f 105 97 104
f 96 103 97
f 99 97 105
f 59 58 104
f 105 104 58
f 103 59 104
f 106 58 57
f 105 58 106
f 107 57 14
f 107 106 57
f 107 14 11
f 108 11 23
f 107 11 108
f 109 23 24
f 109 108 23
f 109 24 25
f 110 111 25
f 112 25 111
f 21 110 25
f 112 109 25
f 113 101 111
f 102 111 101
f 110 113 111
f 102 112 111
f 113 100 101
f 114 100 113
f 115 96 100
f 115 100 114
f 116 113 110
f 116 114 113
f 116 110 21
f 117 21 48
f 117 116 21
f 118 48 49
f 118 117 48
f 118 49 47
f 119 47 60
f 118 47 119
f 120 60 61
f 119 60 120
f 120 61 59
f 121 59 103
f 120 59 121
f 115 103 96
f 115 121 103
f 27 46 20
f 122 32 46
f 123 46 27
f 124 122 46
f 125 124 46
f 123 125 46
f 126 53 32
f 127 40 53
f 128 127 53
f 126 128 53
f 129 126 32
f 130 129 32
f 131 130 32
f 132 131 32
f 31 132 32
f 122 33 32
f 127 41 40
f 133 134 135
f 136 135 134
f 137 135 138
f 139 138 135
f 137 133 135
f 136 139 135
f 140 141 134
f 142 134 141
f 133 140 134
f 142 136 134
f 42 41 141
f 143 141 41
f 140 42 141
f 143 142 141
f 144 41 127
f 144 143 41
f 145 127 128
f 145 144 127
f 146 128 126
f 146 145 128
f 147 126 129
f 146 126 147
f 148 129 130
f 148 147 129
f 149 130 131
f 149 148 130
f 150 151 131
f 152 131 151
f 132 150 131
f 152 149 131
f 153 138 151
f 154 151 138
f 150 153 151
f 154 152 151
f 153 137 138
f 139 154 138
f 155 30 43
f 156 34 30
f 155 156 30
f 157 43 44
f 157 155 43
f 158 44 42
f 158 157 44
f 159 42 140
f 159 158 42
f 160 140 133
f 160 159 140
f 161 133 137
f 161 160 133
f 162 137 153
f 161 137 162
f 163 153 150
f 163 162 153
f 164 150 132
f 164 163 150
f 165 132 31
f 165 164 132
f 166 31 34
f 166 165 31
f 156 166 34
f 167 26 35
f 168 28 26
f 167 168 26
f 169 35 36
f 169 167 35
f 170 36 37
f 170 169 36
f 171 172 37
f 173 37 172
f 38 171 37
f 173 170 37
f 174 175 172
f 176 172 175
f 171 174 172
f 176 173 172
f 177 178 175
f 179 175 178
f 174 177 175
f 179 176 175
f 180 181 178
f 182 178 181
f 180 178 177
f 179 178 182
f 183 184 181
f 185 181 184
f 180 183 181
f 185 182 181
f 123 27 184
f 186 184 27
f 183 123 184
f 186 185 184
f 187 27 29
f 187 186 27
f 188 29 28
f 188 187 29
f 168 188 28
f 189 177 174
f 190 180 177
f 189 190 177
f 191 174 171
f 191 189 174
f 192 171 38
f 192 191 171
f 193 38 39
f 193 192 38
f 194 39 33
f 194 193 39
f 195 33 122
f 195 194 33
f 196 122 124
f 195 122 196
f 197 124 125
f 197 196 124
f 198 125 123
f 198 197 125
f 199 123 183
f 199 198 123
f 200 183 180
f 200 199 183
f 190 200 180
f 76 147 148
f 78 146 147
f 78 147 76
f 74 148 149
f 75 76 148
f 75 148 74
f 74 149 152
f 73 152 154
f 74 152 73
f 72 154 139
f 71 154 72
f 73 154 71
f 72 139 136
f 65 136 142
f 72 136 65
f 83 142 143
f 68 65 142
f 83 68 142
f 83 143 144
f 81 144 145
f 81 83 144
f 78 145 146
f 77 81 145
f 78 77 145
f 84 162 163
f 87 161 162
f 87 162 84
f 95 163 164
f 85 84 163
f 85 163 95
f 95 164 165
f 94 165 166
f 95 165 94
f 93 166 156
f 92 166 93
f 94 166 92
f 93 156 155
f 91 155 157
f 93 155 91
f 89 157 158
f 90 91 157
f 89 90 157
f 89 158 159
f 88 159 160
f 88 89 159
f 87 160 161
f 86 88 160
f 87 86 160
f 99 182 185
f 105 179 182
f 99 105 182
f 102 185 186
f 102 99 185
f 102 186 187
f 112 187 188
f 102 187 112
f 109 188 168
f 112 188 109
f 109 168 167
f 108 167 169
f 109 167 108
f 107 169 170
f 107 108 169
f 107 170 173
f 106 173 176
f 107 173 106
f 105 176 179
f 105 106 176
f 119 196 197
f 120 195 196
f 119 120 196
f 118 197 198
f 118 119 197
f 118 198 199
f 117 199 200
f 118 199 117
f 116 200 190
f 117 200 116
f 116 190 189
f 114 189 191
f 116 189 114
f 115 191 192
f 115 114 191
f 115 192 193
f 121 193 194
f 115 193 121
f 120 194 195
f 120 121 194

