# https://github.com/mikedh/trimesh
v -0.94499395 -0.33151838 0.13938703
v -0.94499395 -0.31498212 0.13938703
v -0.85500416 -0.33151838 0.13938703
v -0.94499395 -0.33151838 0.40943087
v -0.85500416 -0.31498212 0.13938703
v -0.94499395 -0.22405364 0.21003631
v -0.85477456 -0.26999124 0.41432086
v -0.85477456 -0.27000175 0.45935249
v -0.85500416 -0.33151838 0.40943087
v -0.94499395 -0.31498212 0.40943087
v -0.89999022 -0.31498212 0.88500000
v -0.85500416 -0.22405364 0.21003631
v -0.85477456 -0.22500037 0.41432086
v -0.94499395 -0.22405364 0.30002662
v -0.85477456 -0.27000175 0.79895087
v -0.85500416 -0.31498212 0.88500000
v -0.89999022 -0.22498984 0.88500000
v -0.85500416 -0.22405364 0.30002662
v -0.85477456 -0.22500037 0.79902386
v -0.85500416 -0.22498984 0.88500000
f 1 2 5
f 1 5 3
f 1 3 9
f 1 9 4
f 1 4 10
f 1 10 14
f 1 14 6
f 1 6 2
f 2 6 12
f 2 12 5
f 3 5 13
f 3 13 7
f 3 7 8
f 3 8 15
f 3 15 9
f 4 9 16
f 4 16 11
f 4 11 17
f 4 17 10
f 5 12 13
f 6 14 18
f 6 18 12
f 7 13 19
f 7 19 15
f 7 15 8
f 9 15 16
f 10 17 14
f 11 16 20
f 11 20 17
f 12 18 19
f 12 19 13
f 14 17 20
f 14 20 18
f 15 19 16
f 16 19 20
f 18 20 19

