# https://github.com/mikedh/trimesh
v -0.56619182 -0.06423040 0.21000000
v -0.49143050 -0.22405364 0.21000000
v -0.56619182 -0.06423040 0.30000001
v -0.56619182 0.06424887 0.21000000
v -0.49143050 -0.22405364 0.30000001
v -0.40147380 -0.22405364 0.21000000
v -0.56619182 0.06424887 0.30000001
v -0.49143050 0.17224591 0.21000000
v -0.40147380 -0.22405364 0.30000001
v -0.30749029 0.04500801 0.21000000
v -0.30749029 -0.04498954 0.21002642
v -0.49143050 0.17224591 0.30000001
v -0.40147380 0.17224591 0.21000000
v -0.30749029 -0.04498954 0.30000001
v -0.30749029 0.04500801 0.30000001
v -0.40147380 0.17224591 0.30000001
f 1 2 5
f 1 5 3
f 1 3 7
f 1 7 4
f 1 4 8
f 1 8 13
f 1 13 10
f 1 10 6
f 1 6 2
f 2 6 9
f 2 9 5
f 3 5 9
f 3 9 14
f 3 14 15
f 3 15 16
f 3 16 12
f 3 12 7
f 4 7 12
f 4 12 8
f 6 10 11
f 6 11 14
f 6 14 9
f 8 12 16
f 8 16 13
f 10 13 16
f 10 16 15
f 10 15 14
f 10 14 11
