# https://github.com/mikedh/trimesh
v 0.39357731 0.31500221 0.34496916
v 0.39357731 0.31500221 0.30000001
v 0.08153011 0.31500221 0.34500000
v 0.39357731 0.28622970 0.34500000
v 0.39357731 0.22506387 0.30000001
v 0.08153011 0.31500221 0.30000001
v 0.08153011 0.22501103 0.34500000
v 0.39357731 0.22501103 0.34500000
v 0.39357731 0.22501103 0.30017620
v 0.08153011 0.22501103 0.30000001
f 1 2 6
f 1 6 3
f 1 3 4
f 1 4 8
f 1 8 9
f 1 9 5
f 1 5 2
f 2 5 10
f 2 10 6
f 3 6 10
f 3 10 7
f 3 7 8
f 3 8 4
f 5 9 10
f 7 10 9
f 7 9 8

