# https://github.com/mikedh/trimesh
v -0.14931530 0.22501271 0.30000948
v -0.04497724 0.17226870 0.29980568
v -0.14931530 0.22501271 0.34500690
v -0.14931530 0.31500785 0.30000948
v 0.04498807 0.17226870 0.29980568
v -0.04497724 0.17226870 0.30000948
v -0.04497724 0.40500303 0.29980568
v 0.08150752 0.22501271 0.34500690
v -0.04497724 0.31500785 0.40938699
v -0.14931530 0.31500785 0.34500690
v 0.08150752 0.22501271 0.30000948
v 0.04498807 0.17226870 0.30000948
v 0.04498807 0.40500303 0.29980568
v -0.04497724 0.40500303 0.40938699
v 0.08150752 0.31500785 0.34500690
v 0.04498807 0.31500785 0.40938699
v 0.08150752 0.31500785 0.30000948
v 0.04498807 0.40500303 0.40938699
f 1 2 6
f 1 6 3
f 1 3 10
f 1 10 4
f 1 4 7
f 1 7 2
f 2 5 12
f 2 12 6
f 2 7 13
f 2 13 5
f 3 6 12
f 3 12 8
f 3 8 16
f 3 16 9
f 3 9 14
f 3 14 10
f 4 10 14
f 4 14 7
f 5 11 8
f 5 8 12
f 5 13 17
f 5 17 11
f 7 14 18
f 7 18 13
f 8 11 17
f 8 17 15
f 8 15 18
f 8 18 16
f 9 16 18
f 9 18 14
f 13 18 15
f 13 15 17

