# https://github.com/mikedh/trimesh
v 0.39357734 0.28624159 0.34500000
v 0.48621572 0.27769362 0.34500000
v 0.48621572 0.31500833 0.34496035
v 0.39357734 0.31500833 0.34496035
v 0.39357734 0.22501537 0.34500000
v 0.48621572 0.22501537 0.34500000
v 0.48510027 0.40511526 0.29999119
v 0.48621572 0.31500833 0.29999119
v 0.39511902 0.40511526 0.29999119
v 0.39357734 0.31500833 0.29999119
v 0.39357734 0.22501537 0.30016297
v 0.39511902 0.17224595 0.29999119
v 0.48510027 0.17224595 0.29999119
v 0.48621572 0.22501537 0.29999119
v 0.48510027 0.40511526 0.21000000
v 0.39511902 0.40511526 0.21000000
v 0.39357734 0.22506097 0.29999119
v 0.39511902 0.17224595 0.21000000
v 0.48510027 0.17224595 0.21000000
f 1 2 3
f 1 3 4
f 1 4 10
f 1 10 17
f 1 17 11
f 1 11 5
f 1 5 6
f 1 6 2
f 2 6 14
f 2 14 8
f 2 8 3
f 3 7 9
f 3 9 4
f 3 8 15
f 3 15 7
f 4 9 16
f 4 16 10
f 5 11 18
f 5 18 12
f 5 12 13
f 5 13 6
f 6 13 19
f 6 19 14
f 7 15 16
f 7 16 9
f 8 14 19
f 8 19 15
f 10 16 18
f 10 18 17
f 11 17 18
f 12 18 19
f 12 19 13
f 15 19 18
f 15 18 16
