# https://github.com/mikedh/trimesh
v 0.85500511 0.17226870 0.21000564
v 0.85500511 0.31500785 0.13938701
v 0.94498816 0.17226870 0.21000564
v 0.85500511 0.17226870 0.29999683
v 0.85429441 0.22501271 0.29999683
v 0.94498816 0.31500785 0.13938701
v 0.85500511 0.40500303 0.13938701
v 0.94505038 0.22505828 0.29999683
v 0.94505038 0.22501271 0.30478050
v 0.94498816 0.17226870 0.29999683
v 0.85429441 0.22501271 0.34497921
v 0.85429441 0.31500785 0.29999683
v 0.94498816 0.40500303 0.13938701
v 0.85500511 0.40500303 0.40936057
v 0.94505038 0.31500785 0.29999683
v 0.94505038 0.22501271 0.34497921
v 0.85500511 0.31500785 0.40936057
v 0.85429441 0.24376359 0.34497921
v 0.85429441 0.31500785 0.34492636
v 0.94498816 0.40500303 0.40936057
v 0.94505038 0.31496231 0.34497921
v 0.94498816 0.31500785 0.40936057
f 1 2 6
f 1 6 3
f 1 3 10
f 1 10 4
f 1 4 11
f 1 11 5
f 1 5 2
f 2 5 12
f 2 12 7
f 2 7 13
f 2 13 6
f 3 6 8
f 3 8 9
f 3 9 16
f 3 16 10
f 4 10 16
f 4 16 11
f 5 11 18
f 5 18 19
f 5 19 12
f 6 13 15
f 6 15 8
f 7 12 19
f 7 19 14
f 7 14 20
f 7 20 13
f 8 15 21
f 8 21 16
f 8 16 9
f 11 16 22
f 11 22 17
f 11 17 14
f 11 14 18
f 13 20 15
f 14 19 18
f 14 17 22
f 14 22 20
f 15 20 21
f 16 21 20
f 16 20 22
