# https://github.com/mikedh/trimesh
v 0.13877277 0.04519342 0.30000001
v 0.23364619 0.04500870 0.30000001
v 0.13877277 0.04519342 0.21000000
v -0.13880215 0.04519342 0.30000001
v 0.23364619 -0.04497671 0.30000001
v 0.23364619 0.04500870 0.21000000
v -0.13880215 0.04519342 0.21000000
v -0.30741301 0.04500870 0.30000001
v 0.23364619 -0.04497671 0.21000000
v 0.11122717 -0.07275512 0.30000001
v -0.30741301 0.04500870 0.21000000
v -0.30741301 -0.04499980 0.30000001
v 0.11122717 -0.07275512 0.21000000
v -0.11125654 -0.07275512 0.30000001
v -0.30741301 -0.04497671 0.21000000
v -0.30741301 -0.04499980 0.21002642
v -0.11125654 -0.07275512 0.21000000
f 1 2 6
f 1 6 3
f 1 3 7
f 1 7 4
f 1 4 8
f 1 8 12
f 1 12 14
f 1 14 10
f 1 10 5
f 1 5 2
f 2 5 9
f 2 9 6
f 3 6 9
f 3 9 13
f 3 13 17
f 3 17 15
f 3 15 11
f 3 11 7
f 4 7 11
f 4 11 8
f 5 10 13
f 5 13 9
f 8 11 15
f 8 15 16
f 8 16 12
f 10 14 17
f 10 17 13
f 12 16 17
f 12 17 14
f 15 17 16

