# https://github.com/mikedh/trimesh
v -0.04499086 -0.33151838 0.13938699
v -0.04499086 -0.31498212 0.13938699
v 0.04499322 -0.33151838 0.13938699
v -0.04499086 -0.33151838 0.40938407
v -0.04499971 -0.27000175 0.41426919
v 0.04499322 -0.31498212 0.13938699
v -0.04499971 -0.22500037 0.41426919
v -0.04499086 -0.22405364 0.21000209
v 0.04539138 -0.27000175 0.41426919
v 0.04499322 -0.33151838 0.40938407
v -0.04499971 -0.27000175 0.45930001
v 0.04499322 -0.22405364 0.21000209
v 0.04539138 -0.22500037 0.41426919
v -0.04499971 -0.22500037 0.45930001
v -0.04499086 -0.22405364 0.29996980
v 0.04539138 -0.27000175 0.45930001
v 0.04499322 -0.22405364 0.29996980
v 0.04539138 -0.22500037 0.45930001
f 1 2 6
f 1 6 3
f 1 3 10
f 1 10 4
f 1 4 11
f 1 11 5
f 1 5 7
f 1 7 2
f 2 7 8
f 2 8 12
f 2 12 6
f 3 6 13
f 3 13 9
f 3 9 16
f 3 16 10
f 4 10 16
f 4 16 11
f 5 11 14
f 5 14 7
f 6 12 13
f 7 14 15
f 7 15 8
f 8 15 17
f 8 17 12
f 9 13 18
f 9 18 16
f 11 16 18
f 11 18 14
f 12 17 18
f 12 18 13
f 14 18 17
f 14 17 15
