# https://github.com/mikedh/trimesh
v -0.40145998 0.40509247 0.30000001
v -0.40145998 0.40511526 0.29989430
v -0.49143442 0.40509247 0.30000001
v -0.49103806 0.31541864 0.30000001
v -0.40145998 0.17224595 0.29989430
v -0.49143442 0.40511526 0.29989430
v -0.40145998 0.40511526 0.21000000
v -0.49143442 0.31541864 0.29999120
v -0.49130229 0.31541864 0.30000001
v -0.49143442 0.17224595 0.29989430
v -0.40145998 0.17224595 0.21000000
v -0.49143442 0.40511526 0.21000000
v -0.49143442 0.17224595 0.21000000
f 1 2 6
f 1 6 3
f 1 3 9
f 1 9 4
f 1 4 5
f 1 5 11
f 1 11 7
f 1 7 2
f 2 7 12
f 2 12 6
f 3 6 12
f 3 12 13
f 3 13 10
f 3 10 8
f 3 8 9
f 4 9 10
f 4 10 5
f 5 10 13
f 5 13 11
f 7 11 13
f 7 13 12
f 8 10 9
