# https://github.com/mikedh/trimesh
v 0.85490567 -0.22499999 0.45930001
v 0.85490567 -0.27000001 0.45930001
v 0.85490567 -0.22501320 0.41429999
v 0.56863023 -0.22499999 0.41429999
v 0.04544262 -0.22499999 0.45930001
v 0.85490567 -0.27000001 0.41430880
v 0.04544262 -0.27000001 0.45930001
v 0.56863023 -0.27000001 0.41429999
v 0.04544262 -0.22499999 0.41429999
v 0.04544262 -0.27000001 0.41429999
f 1 2 6
f 1 6 3
f 1 3 4
f 1 4 9
f 1 9 5
f 1 5 7
f 1 7 2
f 2 7 10
f 2 10 8
f 2 8 6
f 3 6 8
f 3 8 10
f 3 10 9
f 3 9 4
f 5 9 10
f 5 10 7

