# https://github.com/mikedh/trimesh
v -1.09701938 0.04499908 0.29999326
v -1.12500431 0.04499908 0.32168901
v -1.09701938 -0.04497309 0.29999326
v -1.09701938 0.04499908 0.20999842
v -1.16999015 0.05951297 0.01001344
v -1.12500431 -0.04497309 0.32168901
v -1.21498897 0.04499908 0.32168901
v -1.16999015 -0.05948698 0.01001344
v -1.09701938 -0.04497309 0.20999842
v -1.11050611 0.00001300 -0.00000001
v -1.11846841 0.02975133 -0.00000001
v -1.14025462 0.05153382 -0.00000001
v -1.16999015 0.05951297 -0.00000001
v -1.19975163 0.05153382 0.01001344
v -1.21498897 -0.04497309 0.32168901
v -1.21498897 0.04499908 0.09670193
v -1.22152479 0.02975133 0.01001344
v -1.22948716 0.00001300 0.01001344
v -1.19973866 -0.05150783 0.01001344
v -1.19975163 -0.05150783 -0.00000001
v -1.16999015 -0.05948698 -0.00000001
v -1.14025462 -0.05150783 -0.00000001
v -1.11848138 -0.02972534 -0.00000001
v -1.19973866 0.05153382 -0.00000001
v -1.22152479 -0.02972534 0.01001344
v -1.21498897 -0.04497309 0.09670193
v -1.22152479 0.02975133 -0.00000001
v -1.22948716 0.00001300 -0.00000001
v -1.22152479 -0.02972534 -0.00000001
f 1 2 6
f 1 6 3
f 1 3 9
f 1 9 4
f 1 4 13
f 1 13 5
f 1 5 2
f 2 5 7
f 2 7 15
f 2 15 6
f 3 6 8
f 3 8 21
f 3 21 9
f 4 9 10
f 4 10 11
f 4 11 12
f 4 12 13
f 5 13 14
f 5 14 7
f 6 15 8
f 7 14 16
f 7 16 27
f 7 27 17
f 7 17 18
f 7 18 15
f 8 19 20
f 8 20 21
f 8 15 19
f 9 21 22
f 9 22 23
f 9 23 10
f 10 23 22
f 10 22 21
f 10 21 20
f 10 20 29
f 10 29 28
f 10 28 27
f 10 27 24
f 10 24 13
f 10 13 12
f 10 12 11
f 13 24 14
f 14 24 16
f 15 18 25
f 15 25 29
f 15 29 26
f 15 26 20
f 15 20 19
f 16 24 27
f 17 27 28
f 17 28 18
f 18 28 29
f 18 29 25
f 20 26 29

