# https://github.com/mikedh/trimesh
v -0.44645601 0.59950539 0.01000193
v -0.44645601 0.59950539 -0.00000001
v -0.47620602 0.59153789 0.01000193
v -0.44645601 0.55001134 0.04726167
v -0.41670600 0.59153789 0.01000193
v -0.41670600 0.59153789 -0.00000001
v -0.47620602 0.59153789 -0.00000001
v -0.49797688 0.56975538 0.01000193
v -0.45352659 0.54707595 0.04726167
v -0.45050964 0.54833398 0.04726167
v -0.44345071 0.54876496 0.04726167
v -0.39493515 0.56975538 0.01000193
v -0.43938543 0.54707595 0.04726167
v -0.39493515 0.56975538 -0.00000001
v -0.49797688 0.56975538 -0.00000001
v -0.50594438 0.54001702 0.01000193
v -0.45645033 0.54001702 0.04726167
v -0.38695600 0.54001702 0.01000193
v -0.43813906 0.54407065 0.04726167
v -0.43646170 0.54001702 0.04726167
v -0.38695600 0.54001702 -0.00000001
v -0.50594438 0.54001702 -0.00000001
v -0.49797688 0.51027867 0.01000193
v -0.45477297 0.53596340 0.04726167
v -0.39493515 0.51027867 0.01000193
v -0.43938543 0.53295810 0.04726167
v -0.39493515 0.51027867 -0.00000001
v -0.49797688 0.51027867 -0.00000001
v -0.47620602 0.48849616 0.01000193
v -0.45352659 0.53295810 0.04726167
v -0.41670600 0.48849616 0.01000193
v -0.44240239 0.53170007 0.04726167
v -0.41670600 0.48849616 -0.00000001
v -0.47620602 0.48849616 -0.00000001
v -0.44645601 0.48051701 0.01000193
v -0.44645601 0.53002271 0.04726167
v -0.44946131 0.53126909 0.04726167
v -0.44645601 0.48051701 -0.00000001
f 1 2 7
f 1 7 3
f 1 3 4
f 1 4 5
f 1 5 6
f 1 6 2
f 2 6 14
f 2 14 21
f 2 21 27
f 2 27 33
f 2 33 38
f 2 38 34
f 2 34 28
f 2 28 22
f 2 22 15
f 2 15 7
f 3 7 15
f 3 15 8
f 3 8 9
f 3 9 10
f 3 10 4
f 4 11 5
f 4 10 9
f 4 9 17
f 4 17 24
f 4 24 30
f 4 30 37
f 4 37 36
f 4 36 32
f 4 32 26
f 4 26 20
f 4 20 19
f 4 19 13
f 4 13 11
f 5 12 14
f 5 14 6
f 5 11 13
f 5 13 12
f 8 15 22
f 8 22 16
f 8 16 17
f 8 17 9
f 12 18 21
f 12 21 14
f 12 13 19
f 12 19 20
f 12 20 18
f 16 23 17
f 16 22 28
f 16 28 23
f 17 23 24
f 18 20 25
f 18 25 27
f 18 27 21
f 20 26 25
f 23 29 30
f 23 30 24
f 23 28 34
f 23 34 29
f 25 26 31
f 25 31 33
f 25 33 27
f 26 32 31
f 29 35 36
f 29 36 37
f 29 37 30
f 29 34 38
f 29 38 35
f 31 32 36
f 31 36 35
f 31 35 38
f 31 38 33
