# https://github.com/mikedh/trimesh
v -0.40152836 0.31538277 0.29990045
v -0.40152836 0.17224595 0.29990045
v -0.40166646 0.31538277 0.29990045
v -0.49109324 0.31538277 0.30000199
v -0.14940699 0.31499041 0.34500000
v -0.14940699 0.31499041 0.30000199
v -0.14940699 0.22503070 0.30000199
v -0.14940699 0.22501671 0.31235845
v -0.40152836 0.17224595 0.30000199
v -0.49150759 0.17224595 0.29990045
v -0.49150759 0.31518659 0.29990045
v -0.85487723 0.31499041 0.30000199
v -0.49150759 0.31538277 0.30000199
v -0.14940699 0.22501671 0.34500000
v -0.85487723 0.31499041 0.34500000
v -0.49150759 0.17224595 0.30000199
v -0.85487723 0.22501671 0.31235845
v -0.85487723 0.22503070 0.30000199
v -0.85487723 0.22501671 0.34500000
f 1 2 10
f 1 10 11
f 1 11 3
f 1 3 13
f 1 13 4
f 1 4 5
f 1 5 6
f 1 6 7
f 1 7 2
f 2 7 8
f 2 8 14
f 2 14 9
f 2 9 16
f 2 16 10
f 3 11 12
f 3 12 13
f 4 13 15
f 4 15 5
f 5 14 8
f 5 8 7
f 5 7 6
f 5 15 19
f 5 19 14
f 9 14 19
f 9 19 16
f 10 16 19
f 10 19 17
f 10 17 18
f 10 18 12
f 10 12 11
f 12 18 17
f 12 17 19
f 12 19 15
f 12 15 13

