# https://github.com/mikedh/trimesh
v 0.32888289 -0.07275511 0.21000498
v 0.32888289 -0.07275511 0.30000001
v 0.55132837 -0.07275511 0.21000498
v 0.39512657 -0.49493586 0.20981961
v 0.39512657 -0.58492686 0.20981961
v 0.55132837 -0.07275511 0.30000001
v 0.39512657 -0.58492686 0.29998235
v 0.39512657 -0.33149811 0.30000001
v 0.48508470 -0.58492686 0.20981961
v 0.48508470 -0.49493586 0.20981961
v 0.48508470 -0.33149811 0.30000001
v 0.48508470 -0.58492686 0.29998235
f 1 2 6
f 1 6 3
f 1 3 10
f 1 10 4
f 1 4 5
f 1 5 7
f 1 7 2
f 2 7 8
f 2 8 11
f 2 11 6
f 3 9 10
f 3 6 12
f 3 12 9
f 4 10 9
f 4 9 5
f 5 9 12
f 5 12 7
f 6 11 12
f 7 12 11
f 7 11 8

