# https://github.com/mikedh/trimesh
v 0.39511000 0.40511526 0.20999785
v 0.48510199 0.40511526 0.20999785
v 0.39511000 0.40511526 0.30000001
v 0.39511000 0.49502891 0.09750750
v 0.44010600 0.53000120 0.04726167
v 0.48510199 0.40511526 0.30000001
v 0.48510199 0.49502891 0.09750750
v 0.39511000 0.58501298 0.30000001
v 0.43010787 0.54000332 0.04726167
v 0.43304125 0.53294197 0.04726167
v 0.43710216 0.53125146 0.04726167
v 0.39511000 0.58501298 0.09750750
v 0.44717075 0.53294197 0.04726167
v 0.48510199 0.58501298 0.30000001
v 0.44885328 0.53699212 0.04726167
v 0.45010412 0.54000332 0.04726167
v 0.48510199 0.58501298 0.09750750
v 0.43304125 0.54708233 0.04726167
v 0.44010600 0.55000547 0.04726167
v 0.43605387 0.54833259 0.04726167
v 0.44842163 0.54407109 0.04726167
v 0.44717075 0.54708233 0.04726167
f 1 2 6
f 1 6 3
f 1 3 8
f 1 8 12
f 1 12 4
f 1 4 5
f 1 5 2
f 2 5 7
f 2 7 17
f 2 17 14
f 2 14 6
f 3 6 14
f 3 14 8
f 4 9 10
f 4 10 11
f 4 11 5
f 4 12 9
f 5 11 10
f 5 10 9
f 5 9 18
f 5 18 20
f 5 20 19
f 5 19 22
f 5 22 21
f 5 21 16
f 5 16 15
f 5 15 13
f 5 13 7
f 7 13 15
f 7 15 16
f 7 16 17
f 8 14 17
f 8 17 12
f 9 12 18
f 12 19 20
f 12 20 18
f 12 17 19
f 16 21 17
f 17 21 22
f 17 22 19
