# https://github.com/mikedh/trimesh
v 0.85500262 -0.33151838 0.13938703
v 0.85500262 -0.31498212 0.13938703
v 0.94499388 -0.33151838 0.13938703
v 0.85500262 -0.33151838 0.40943087
v 0.85491446 -0.27000175 0.41432086
v 0.94499388 -0.31498212 0.13938703
v 0.85491446 -0.22501089 0.41432086
v 0.85500262 -0.22405364 0.21003631
v 0.94499388 -0.33151838 0.40943087
v 0.85500262 -0.31498212 0.88500000
v 0.85491446 -0.27000175 0.79902386
v 0.94499388 -0.22405364 0.21003631
v 0.85491446 -0.22500037 0.45935249
v 0.85500262 -0.22405364 0.30002662
v 0.94499388 -0.31498212 0.40943087
v 0.89999389 -0.31498212 0.88500000
v 0.85500262 -0.22498984 0.88500000
v 0.85491446 -0.22500037 0.79902386
v 0.94499388 -0.22405364 0.30002662
v 0.89999389 -0.22498984 0.88500000
f 1 2 6
f 1 6 3
f 1 3 9
f 1 9 4
f 1 4 11
f 1 11 5
f 1 5 7
f 1 7 2
f 2 7 8
f 2 8 12
f 2 12 6
f 3 6 12
f 3 12 19
f 3 19 15
f 3 15 9
f 4 9 16
f 4 16 10
f 4 10 11
f 5 11 18
f 5 18 13
f 5 13 7
f 7 13 8
f 8 13 18
f 8 18 14
f 8 14 19
f 8 19 12
f 9 15 20
f 9 20 16
f 10 16 20
f 10 20 17
f 10 17 18
f 10 18 11
f 14 18 17
f 14 17 20
f 14 20 19
f 15 19 20

