# https://github.com/mikedh/trimesh
v 0.85490567 -0.22499999 0.79902060
v 0.85490567 -0.27000001 0.79902060
v 0.85490567 -0.22501320 0.75402500
v 0.56856435 -0.22499999 0.75402500
v -0.85477449 -0.22499999 0.79902060
v 0.85490567 -0.27000001 0.75403380
v -0.04495246 -0.27000001 0.79902060
v 0.56856435 -0.27000001 0.75402500
v -0.85477449 -0.22499999 0.75402500
v -0.85477449 -0.27000001 0.79901180
v -0.04495246 -0.27000001 0.75402500
v -0.85477449 -0.26998680 0.75402500
f 1 2 6
f 1 6 3
f 1 3 4
f 1 4 9
f 1 9 5
f 1 5 7
f 1 7 2
f 2 7 10
f 2 10 11
f 2 11 8
f 2 8 6
f 3 6 8
f 3 8 11
f 3 11 12
f 3 12 9
f 3 9 4
f 5 9 12
f 5 12 10
f 5 10 7
f 10 12 11

