# https://github.com/mikedh/trimesh
v 0.85425842 0.31500221 0.34492952
v 0.85425842 0.31500221 0.30000001
v 0.48626079 0.31500221 0.34496035
v 0.48626079 0.27768428 0.34500000
v 0.85425842 0.24374927 0.34500000
v 0.85425842 0.22501103 0.30000001
v 0.48626079 0.31500221 0.30000001
v 0.48626079 0.22501103 0.34500000
v 0.85425842 0.22501103 0.34500000
v 0.48626079 0.22501103 0.30000001
f 1 2 7
f 1 7 3
f 1 3 4
f 1 4 5
f 1 5 9
f 1 9 6
f 1 6 2
f 2 6 10
f 2 10 7
f 3 7 10
f 3 10 8
f 3 8 4
f 4 8 9
f 4 9 5
f 6 9 8
f 6 8 10
