# https://github.com/mikedh/trimesh
v 1.22950006 0.00000000 0.01001344
v 1.21498603 0.04499773 0.32168901
v 1.21498603 -0.04497443 0.32168901
v 1.22152384 -0.02973833 0.01001344
v 1.22950006 0.00000000 -0.00000001
v 1.22152384 0.02973834 0.01001344
v 1.12501339 0.04499773 0.32168901
v 1.21498603 0.04499773 0.09670193
v 1.19974694 0.05152082 0.01001344
v 1.16999389 0.05949997 0.01001344
v 1.12501339 -0.04497443 0.32168901
v 1.16999389 -0.05949997 0.01001344
v 1.19974694 -0.05152082 0.01001344
v 1.21498603 -0.04497443 0.09670193
v 1.22152384 -0.02973833 -0.00000001
v 1.22152384 0.02973834 -0.00000001
v 1.11001987 0.04499773 0.29999326
v 1.19974694 0.05152082 -0.00000001
v 1.16999389 0.05949997 -0.00000001
v 1.11001987 -0.04497443 0.29999326
v 1.16999389 -0.05949997 -0.00000001
v 1.19974694 -0.05152082 -0.00000001
v 1.11001987 0.04499773 0.20999842
v 1.14025249 0.05152082 -0.00000001
v 1.11001987 -0.04497443 0.20999842
v 1.14025249 -0.05152082 -0.00000001
v 1.11847566 0.02973834 -0.00000001
v 1.11051109 0.00000000 -0.00000001
v 1.11847566 -0.02973833 -0.00000001
f 1 2 3
f 1 3 4
f 1 4 15
f 1 15 5
f 1 5 16
f 1 16 6
f 1 6 2
f 2 7 11
f 2 11 3
f 2 6 16
f 2 16 8
f 2 8 18
f 2 18 9
f 2 9 10
f 2 10 7
f 3 11 12
f 3 12 13
f 3 13 22
f 3 22 14
f 3 14 15
f 3 15 4
f 5 15 22
f 5 22 21
f 5 21 26
f 5 26 29
f 5 29 28
f 5 28 27
f 5 27 24
f 5 24 19
f 5 19 18
f 5 18 16
f 7 10 17
f 7 17 20
f 7 20 11
f 8 16 18
f 9 18 19
f 9 19 10
f 10 19 23
f 10 23 17
f 11 20 12
f 12 21 22
f 12 22 13
f 12 20 25
f 12 25 21
f 14 22 15
f 17 23 25
f 17 25 20
f 19 24 23
f 21 25 26
f 23 24 27
f 23 27 28
f 23 28 25
f 25 28 29
f 25 29 26
