# https://github.com/mikedh/trimesh
v -0.94499351 0.17226870 0.21000564
v -0.94499351 0.31500785 0.13938701
v -0.85500805 0.17226870 0.21000564
v -0.94499351 0.17226870 0.29999683
v -0.94504642 0.22501271 0.29999683
v -0.85500805 0.31500785 0.13938701
v -0.94499351 0.40500303 0.13938701
v -0.85494634 0.22501271 0.29999683
v -0.85500805 0.17226870 0.29999683
v -0.94504642 0.22501271 0.34497921
v -0.94504642 0.31496231 0.29999683
v -0.85500805 0.40500303 0.13938701
v -0.94504642 0.31500785 0.34497921
v -0.94499351 0.40500303 0.40936057
v -0.85494634 0.31500785 0.29999683
v -0.85494634 0.22501271 0.34497921
v -0.94499351 0.31500785 0.40936057
v -0.85500805 0.40500303 0.40936057
v -0.85494634 0.31500785 0.34497921
v -0.85500805 0.31500785 0.40936057
f 1 2 6
f 1 6 3
f 1 3 9
f 1 9 4
f 1 4 10
f 1 10 5
f 1 5 2
f 2 5 11
f 2 11 7
f 2 7 12
f 2 12 6
f 3 6 8
f 3 8 16
f 3 16 9
f 4 9 16
f 4 16 10
f 5 10 13
f 5 13 11
f 6 12 15
f 6 15 8
f 7 11 13
f 7 13 14
f 7 14 18
f 7 18 12
f 8 15 19
f 8 19 16
f 10 16 20
f 10 20 17
f 10 17 14
f 10 14 13
f 12 18 19
f 12 19 15
f 14 17 20
f 14 20 18
f 16 19 18
f 16 18 20
