# https://github.com/mikedh/trimesh
v -0.40145998 -0.49499500 0.20981959
v -0.40145998 -0.58498699 0.20981959
v -0.40145998 -0.49499500 0.09751238
v -0.49144321 -0.49499500 0.20981959
v -0.49144321 -0.58498699 0.20981959
v -0.40145998 -0.58498699 0.09751238
v -0.43645789 -0.53999100 0.06156189
v -0.43939126 -0.53292624 0.06156189
v -0.44645601 -0.52999287 0.06156189
v -0.49144321 -0.49499500 0.09751238
v -0.49144321 -0.58498699 0.09751238
v -0.44645601 -0.54998912 0.06156189
v -0.43939126 -0.54705575 0.06156189
v -0.45352076 -0.53292624 0.06156189
v -0.45645414 -0.53999100 0.06156189
v -0.45352076 -0.54705575 0.06156189
f 1 2 6
f 1 6 3
f 1 3 10
f 1 10 4
f 1 4 5
f 1 5 2
f 2 5 11
f 2 11 6
f 3 6 7
f 3 7 8
f 3 8 9
f 3 9 10
f 4 10 11
f 4 11 5
f 6 11 12
f 6 12 13
f 6 13 7
f 7 13 12
f 7 12 16
f 7 16 15
f 7 15 14
f 7 14 9
f 7 9 8
f 9 14 10
f 10 14 15
f 10 15 11
f 11 15 16
f 11 16 12

