# https://github.com/mikedh/trimesh
v 0.48508492 0.17224593 0.30000001
v 0.69344794 0.04502094 0.30000001
v 0.48508492 0.17224593 0.21000000
v 0.39512429 0.17224593 0.30000001
v 0.69344794 -0.04495987 0.30000001
v 0.69344794 0.04502094 0.21000000
v 0.39512429 0.17224593 0.21000000
v 0.23369920 0.04502094 0.30000001
v 0.69344794 -0.04495987 0.21000000
v 0.55132903 -0.07275511 0.30000001
v 0.23369920 0.04502094 0.21000000
v 0.23369920 -0.04495987 0.30000001
v 0.55132903 -0.07275511 0.21000000
v 0.32888014 -0.07275511 0.30000001
v 0.23369920 -0.04495987 0.21000000
v 0.32888014 -0.07275511 0.21000000
f 1 2 6
f 1 6 3
f 1 3 7
f 1 7 4
f 1 4 8
f 1 8 12
f 1 12 14
f 1 14 10
f 1 10 5
f 1 5 2
f 2 5 9
f 2 9 6
f 3 6 9
f 3 9 13
f 3 13 16
f 3 16 15
f 3 15 11
f 3 11 7
f 4 7 11
f 4 11 8
f 5 10 13
f 5 13 9
f 8 11 15
f 8 15 12
f 10 14 16
f 10 16 13
f 12 15 16
f 12 16 14

