# https://github.com/mikedh/trimesh
v -1.09701938 -0.04495074 0.21000000
v -0.94497915 -0.22405364 0.21000000
v -1.09701938 -0.04495074 0.30000001
v -1.09701938 0.04500801 0.21000000
v -0.85502497 -0.22405364 0.21000000
v -0.94497915 -0.22405364 0.30000001
v -1.09701938 0.04500801 0.30000001
v -0.94497915 0.17224591 0.21000000
v -0.85502497 -0.22405364 0.30000001
v -0.76089230 -0.04495074 0.21000000
v -0.94497915 0.17224591 0.30000001
v -0.85502497 0.17224591 0.21000000
v -0.76089230 -0.04495074 0.30000001
v -0.76102392 0.04500801 0.21000000
v -0.76089230 0.04500801 0.21006167
v -0.85502497 0.17224591 0.30000001
v -0.76089230 0.04493042 0.30000001
f 1 2 6
f 1 6 3
f 1 3 7
f 1 7 4
f 1 4 8
f 1 8 12
f 1 12 14
f 1 14 10
f 1 10 5
f 1 5 2
f 2 5 9
f 2 9 6
f 3 6 9
f 3 9 13
f 3 13 17
f 3 17 16
f 3 16 11
f 3 11 7
f 4 7 11
f 4 11 8
f 5 10 13
f 5 13 9
f 8 11 16
f 8 16 12
f 10 14 15
f 10 15 17
f 10 17 13
f 12 15 14
f 12 16 15
f 15 16 17
