mtllib material.mtl
usemtl mtl_drawer_1_face
v 0.00127405 0.00317500 -0.00307588
v 0.00127412 -0.00000000 -0.00307595
v 0.00000000 0.00000000 -0.00000000
v 0.00000000 -0.00000000 0.08730000
v 0.00000000 0.00317500 0.00000000
v 0.00435000 0.00317500 -0.00435000
v 0.00435000 0.00000000 -0.00435000
v 0.00127405 -0.00000000 0.09037589
v 0.14660007 0.00317500 -0.00435000
v 0.00435000 -0.00000000 0.09165000
v 0.14660007 0.00000000 -0.00435000
v 0.00435000 0.00317500 0.09165000
v 0.14660007 0.00317500 0.09165000
v 0.00127412 0.00317500 0.09037594
v 0.00000000 0.00317500 0.08730000
v 0.14660007 0.00000000 0.09165000
v 0.28885013 0.00000000 -0.00435000
v 0.28885013 0.00000000 0.09165000
v 0.29192609 0.00000000 -0.00307588
v 0.29192603 0.00000000 0.09037594
v 0.28885013 0.00317500 0.09165000
v 0.29320014 0.00000000 -0.00000000
v 0.29320014 0.00000000 0.08730000
v 0.29192609 0.00317500 0.09037589
v 0.29320014 0.00317500 0.08730000
v 0.29320014 0.00317500 0.00000000
v 0.29192603 0.00317500 -0.00307595
v 0.28885013 0.00317500 -0.00435000
f 1 2 3
f 4 3 2
f 5 1 3
f 4 5 3
f 6 7 2
f 8 2 7
f 1 6 2
f 8 4 2
f 9 7 6
f 10 8 7
f 11 10 7
f 9 11 7
f 12 6 1
f 13 9 6
f 13 6 12
f 14 1 5
f 14 12 1
f 15 5 4
f 14 5 15
f 15 4 8
f 14 8 10
f 14 15 8
f 11 16 10
f 12 10 16
f 14 10 12
f 17 18 16
f 13 16 18
f 11 17 16
f 13 12 16
f 19 20 18
f 21 18 20
f 17 19 18
f 13 18 21
f 22 23 20
f 24 20 23
f 19 22 20
f 24 21 20
f 25 23 22
f 24 23 25
f 26 22 19
f 25 22 26
f 27 19 17
f 27 26 19
f 28 17 11
f 27 17 28
f 9 28 11
f 21 28 9
f 24 27 28
f 24 28 21
f 13 21 9
f 25 26 27
f 24 25 27
