mtllib material.mtl
usemtl mtl_front_right_face
v 0.00000000 0.02809870 0.03323730
v 0.00000000 0.34400901 0.00000000
v 0.00000000 0.00000000 0.00000000
v 0.00635000 0.00000000 0.00000000
v 0.00000000 0.00000000 1.06552994
v 0.00635000 0.00000000 1.06552994
v 0.00000000 0.31216171 1.02000248
v 0.00000000 0.34400901 1.06552994
v 0.00635000 0.34400901 0.00000000
v 0.00000000 0.31216171 0.03323730
v 0.00000000 0.31216171 0.31542930
v 0.00000000 0.31216171 0.40267080
v 0.00000000 0.31216171 0.64707482
v 0.00000000 0.31216171 0.73781049
v 0.00635000 0.34400901 1.06552994
v 0.00000000 0.02809870 0.31542930
v 0.00000000 0.02809870 0.40267080
v 0.00000000 0.02809870 0.64707482
v 0.00000000 0.02809870 0.73781049
v 0.00000000 0.02809870 1.02000248
v 0.00635000 0.31216171 0.03323730
v 0.00635000 0.31216171 0.31542930
v 0.00635000 0.02809870 0.03323730
v 0.00635000 0.02809870 0.31542930
v 0.00635000 0.31216171 0.40267080
v 0.00635000 0.31216171 0.64707482
v 0.00635000 0.02809870 0.40267080
v 0.00635000 0.02809870 0.64707482
v 0.00635000 0.31216171 0.73781049
v 0.00635000 0.31216171 1.02000248
v 0.00635000 0.02809870 0.73781049
v 0.00635000 0.02809870 1.02000248
f 1 2 3
f 4 3 2
f 1 3 5
f 6 5 3
f 6 3 4
f 7 8 2
f 9 2 8
f 1 10 2
f 11 2 10
f 12 2 11
f 13 2 12
f 14 2 13
f 7 2 14
f 9 4 2
f 7 5 8
f 15 8 5
f 9 8 15
f 16 1 5
f 17 16 5
f 18 17 5
f 19 18 5
f 20 19 5
f 7 20 5
f 15 5 6
f 21 10 1
f 22 11 10
f 22 10 21
f 23 1 16
f 23 21 1
f 17 11 16
f 24 16 11
f 23 16 24
f 17 12 11
f 24 11 22
f 25 12 17
f 26 13 12
f 26 12 25
f 27 17 18
f 27 25 17
f 19 13 18
f 28 18 13
f 27 18 28
f 19 14 13
f 28 13 26
f 29 14 19
f 30 7 14
f 30 14 29
f 31 19 20
f 31 29 19
f 32 20 7
f 31 20 32
f 32 7 30
f 32 6 4
f 21 4 9
f 23 4 21
f 23 24 4
f 27 4 24
f 27 28 4
f 31 4 28
f 31 32 4
f 32 15 6
f 21 9 15
f 22 21 15
f 25 22 15
f 26 25 15
f 29 26 15
f 30 29 15
f 32 30 15
f 25 24 22
f 27 24 25
f 29 28 26
f 31 28 29
