mtllib material.mtl
usemtl material_rail_des_live_body_0
v -1.18124998 -0.04299998 0.04299998
v -1.18124998 -0.06749999 0.04499995
v -1.18124998 0.06749999 0.04499995
v 0.00000000 -0.06749999 0.04499995
v -1.18124998 0.06749999 0.04499995
v -1.18124998 -0.06749999 0.04499995
v -1.18124998 0.04299998 -0.04299998
v -1.18124998 0.06749999 -0.04499995
v 0.00000000 0.06749999 0.04499995
v -1.18124998 0.06749999 -0.04499995
v -1.18124998 0.06749999 0.04499995
v -1.18124998 0.04299998 0.04299998
v 0.00000000 0.06749999 0.04499995
v -1.18124998 -0.06749999 -0.04499995
v 0.00000000 -0.06749999 -0.04499995
v -1.18124998 -0.06749999 0.04499995
v -1.18124998 -0.06749999 -0.04499995
v 0.00000000 -0.06749999 0.04499995
v 0.00000000 0.06749999 -0.04499995
v -1.18124998 -0.06749999 -0.04499995
v -1.18124998 0.06749999 -0.04499995
v -1.18124998 -0.04299998 -0.04299998
v 0.00000000 -0.06749999 -0.04499995
v 0.00000000 0.06749999 -0.04499995
v -1.25625002 -0.04299998 0.04299998
v -1.18124998 -0.04299998 0.04299998
v -1.18124998 0.04299998 0.04299998
v -1.25625002 -0.04299998 -0.04299998
v -1.18124998 -0.04299998 -0.04299998
v -1.18124998 -0.04299998 0.04299998
v -1.25625002 -0.04299998 0.04299998
v -1.25625002 0.04299998 0.04299998
v -1.18124998 0.04299998 0.04299998
v -1.18124998 0.04299998 -0.04299998
v -1.25625002 0.04299998 0.04299998
v -1.25625002 0.04299998 -0.04299998
v -1.18124998 0.04299998 -0.04299998
v -1.18124998 -0.04299998 -0.04299998
v -1.25625002 0.04299998 -0.04299998
v -1.25625002 -0.04299998 -0.04299998
v 1.18124998 0.06749999 0.04499995
v 1.18124998 0.06749999 -0.04499995
v 1.18124998 0.06749999 -0.04499995
v 1.18124998 -0.06749999 0.04499995
v 1.18124998 0.06749999 -0.04499995
v 1.18124998 0.06749999 0.04499995
v 1.18124998 -0.06749999 -0.04499995
v 1.18124998 -0.06749999 -0.04499995
v 1.18124998 -0.06749999 0.04499995
v 1.18124998 0.06749999 0.04499995
v 1.18124998 -0.06749999 -0.04499995
v 1.18124998 -0.06749999 0.04499995
v -1.25625002 0.04299998 -0.04299998
v -1.25625002 -0.04299998 -0.04299998
v -1.25625002 -0.04299998 0.04299998
v -1.25625002 0.04299998 0.04299998
vt 0.00034900 0.53092003
vt 0.00367898 0.53232503
vt 0.99632102 0.53232503
vt 0.24724700 1.00000000
vt 0.99632102 0.53232503
vt 0.00367898 0.53232503
vt 0.99965101 0.46908000
vt 0.99632102 0.46767500
vt 0.75275302 1.00000000
vt 0.99632102 0.46767500
vt 0.99632102 0.53232503
vt 0.99965101 0.53092003
vt 0.75275302 1.00000000
vt 0.00367898 0.46767500
vt 0.24724700 0.00000000
vt 0.00367898 0.53232503
vt 0.00367898 0.46767500
vt 0.24724700 1.00000000
vt 0.75275302 0.00000000
vt 0.00367898 0.46767500
vt 0.99632102 0.46767500
vt 0.00034900 0.46908000
vt 0.24724700 0.00000000
vt 0.75275302 0.00000000
vt 0.00000000 0.52907801
vt 0.00034900 0.53092003
vt 0.99965101 0.53092003
vt 0.00000000 0.47092199
vt 0.00034900 0.46908000
vt 0.00034900 0.53092003
vt 0.00000000 0.52907801
vt 1.00000000 0.52907801
vt 0.99965101 0.53092003
vt 0.99965101 0.46908000
vt 1.00000000 0.52907801
vt 1.00000000 0.47092199
vt 0.99965101 0.46908000
vt 0.00034900 0.46908000
vt 1.00000000 0.47092199
vt 0.00000000 0.47092199
vt 0.50918502 0.53232503
vt 0.50918502 0.46767500
vt 0.50918502 0.46767500
vt 0.49081501 0.53232503
vt 0.50918502 0.46767500
vt 0.50918502 0.53232503
vt 0.49081501 0.46767500
vt 0.49081501 0.46767500
vt 0.49081501 0.53232503
vt 0.50918502 0.53232503
vt 0.49081501 0.46767500
vt 0.49081501 0.53232503
vt 1.00000000 0.47092199
vt 0.00000000 0.47092199
vt 0.00000000 0.52907801
vt 1.00000000 0.52907801
f 1/1 2/2 3/3
f 4/4 5/5 6/6
f 7/7 3/3 8/8
f 9/9 10/10 11/11
f 12/12 1/1 3/3
f 7/7 12/12 3/3
f 4/4 13/13 5/5
f 1/1 14/14 2/2
f 15/15 16/16 17/17
f 18/18 16/16 15/15
f 7/7 8/8 14/14
f 19/19 20/20 21/21
f 22/22 14/14 1/1
f 22/22 7/7 14/14
f 23/23 20/20 19/19
f 9/9 24/24 10/10
f 25/25 26/26 27/27
f 28/28 29/29 30/30
f 31/31 28/28 30/30
f 32/32 33/33 34/34
f 35/35 25/25 27/27
f 36/36 37/37 38/38
f 32/32 34/34 39/39
f 36/36 38/38 40/40
f 41/41 42/42 24/24
f 23/23 19/19 43/43
f 9/9 41/41 24/24
f 44/44 45/45 46/46
f 47/47 23/23 43/43
f 44/44 48/48 45/45
f 49/49 50/50 13/13
f 49/49 13/13 4/4
f 18/18 15/15 51/51
f 52/52 18/18 51/51
f 53/53 54/54 55/55
f 56/56 53/53 55/55

