mtllib material.mtl
usemtl material_lift_low_700mm_0
v -0.08149999 0.01791495 -0.28749999
v -0.08149999 0.07576596 -0.28749999
v -0.07576596 0.08149999 -0.28749999
v -0.08149999 0.07576596 0.28749999
v -0.07576596 0.08149999 -0.28749999
v -0.08149999 0.07576596 -0.28749999
v -0.07949995 0.01508694 -0.28749999
v -0.07949995 -0.01508498 -0.28749999
v -0.08149999 -0.07576495 -0.28749999
v -0.07576495 -0.08149999 -0.28749999
v -0.07299995 0.06214100 -0.28749999
v -0.06214100 0.07299995 -0.28749999
v -0.01791495 0.08149999 -0.28749999
v -0.07576596 0.08149999 0.28749999
v -0.01791495 0.08149999 -0.28749999
v -0.07576596 0.08149999 -0.28749999
v -0.07576596 0.08149999 0.28749999
v -0.08149999 0.01791495 0.28749999
v -0.08149999 0.07576596 -0.28749999
v -0.08149999 0.01791495 -0.28749999
v -0.08149999 0.07576596 0.28749999
v -0.07949995 0.01508694 0.28749999
v -0.08149999 0.01791495 -0.28749999
v -0.07949995 0.01508694 -0.28749999
v -0.08149999 0.01791495 0.28749999
v -0.07949995 -0.01508498 0.28749999
v -0.07949995 0.01508694 -0.28749999
v -0.07949995 -0.01508498 -0.28749999
v -0.07949995 0.01508694 0.28749999
v -0.08149999 -0.01791399 -0.28749999
v -0.08149999 -0.01791399 0.28749999
v -0.07949995 -0.01508498 -0.28749999
v -0.08149999 -0.01791399 -0.28749999
v -0.07949995 -0.01508498 0.28749999
v -0.08149999 -0.07576495 0.28749999
v -0.08149999 -0.01791399 -0.28749999
v -0.08149999 -0.07576495 -0.28749999
v -0.08149999 -0.01791399 0.28749999
v -0.07576495 -0.08149999 0.28749999
v -0.08149999 -0.07576495 -0.28749999
v -0.07576495 -0.08149999 -0.28749999
v -0.08149999 -0.07576495 0.28749999
v -0.06214100 -0.07299995 -0.28749999
v -0.01791399 -0.08149999 -0.28749999
v -0.01791399 -0.08149999 0.28749999
v -0.07576495 -0.08149999 -0.28749999
v -0.01791399 -0.08149999 -0.28749999
v -0.07299995 -0.06214100 -0.28749999
v -0.07576495 -0.08149999 0.28749999
v -0.01508498 -0.07949995 -0.28749999
v -0.01508498 -0.07949995 0.28749999
v -0.01791399 -0.08149999 -0.28749999
v -0.01508498 -0.07949995 -0.28749999
v -0.01791399 -0.08149999 0.28749999
v 0.06214100 -0.07299995 -0.28749999
v 0.01508694 -0.07949995 -0.28749999
v 0.01508694 -0.07949995 0.28749999
v -0.01508498 -0.07949995 -0.28749999
v 0.01508694 -0.07949995 -0.28749999
v -0.01508498 -0.07949995 0.28749999
v 0.01791495 -0.08149999 -0.28749999
v 0.01791495 -0.08149999 0.28749999
v 0.01508694 -0.07949995 -0.28749999
v 0.01791495 -0.08149999 -0.28749999
v 0.01508694 -0.07949995 0.28749999
v 0.07576596 -0.08149999 -0.28749999
v 0.07576596 -0.08149999 0.28749999
v 0.01791495 -0.08149999 -0.28749999
v 0.07576596 -0.08149999 -0.28749999
v 0.01791495 -0.08149999 0.28749999
v 0.08149999 -0.01791495 -0.28749999
v 0.08149999 -0.07576596 -0.28749999
v 0.08149999 -0.07576596 0.28749999
v 0.07576596 -0.08149999 -0.28749999
v 0.08149999 -0.07576596 -0.28749999
v 0.07949995 -0.01508694 -0.28749999
v 0.07949995 0.01508498 -0.28749999
v 0.08149999 0.07576495 -0.28749999
v 0.07576495 0.08149999 -0.28749999
v 0.07299995 -0.06214100 -0.28749999
v 0.07576596 -0.08149999 0.28749999
v 0.08149999 -0.01791495 0.28749999
v 0.08149999 -0.07576596 -0.28749999
v 0.08149999 -0.01791495 -0.28749999
v 0.08149999 -0.07576596 0.28749999
v 0.07949995 -0.01508694 0.28749999
v 0.08149999 -0.01791495 -0.28749999
v 0.07949995 -0.01508694 -0.28749999
v 0.08149999 -0.01791495 0.28749999
v 0.07949995 0.01508498 0.28749999
v 0.07949995 -0.01508694 -0.28749999
v 0.07949995 0.01508498 -0.28749999
v 0.07949995 -0.01508694 0.28749999
v 0.08149999 0.01791399 -0.28749999
v 0.08149999 0.01791399 0.28749999
v 0.07949995 0.01508498 -0.28749999
v 0.08149999 0.01791399 -0.28749999
v 0.07949995 0.01508498 0.28749999
v 0.08149999 0.07576495 0.28749999
v 0.08149999 0.01791399 -0.28749999
v 0.08149999 0.07576495 -0.28749999
v 0.08149999 0.01791399 0.28749999
v 0.07576495 0.08149999 0.28749999
v 0.08149999 0.07576495 -0.28749999
v 0.07576495 0.08149999 -0.28749999
v 0.08149999 0.07576495 0.28749999
v 0.06214100 0.07299995 -0.28749999
v 0.01791399 0.08149999 -0.28749999
v 0.01791399 0.08149999 0.28749999
v 0.07576495 0.08149999 -0.28749999
v 0.01791399 0.08149999 -0.28749999
v 0.07299995 0.06214100 -0.28749999
v 0.07576495 0.08149999 0.28749999
v 0.01508498 0.07949995 -0.28749999
v 0.01508498 0.07949995 0.28749999
v 0.01791399 0.08149999 -0.28749999
v 0.01508498 0.07949995 -0.28749999
v 0.01791399 0.08149999 0.28749999
v -0.01508694 0.07949995 -0.28749999
v -0.01508694 0.07949995 0.28749999
v 0.01508498 0.07949995 -0.28749999
v -0.01508694 0.07949995 -0.28749999
v 0.01508498 0.07949995 0.28749999
v -0.01791495 0.08149999 0.28749999
v -0.01508694 0.07949995 -0.28749999
v -0.01791495 0.08149999 -0.28749999
v -0.01508694 0.07949995 0.28749999
v -0.01791495 0.08149999 0.28749999
v -0.06214100 0.07299995 0.28749999
v -0.07299995 0.06214100 -0.28749999
v -0.06214100 0.07299995 -0.28749999
v -0.07299995 0.06214100 0.28749999
v -0.07299995 -0.06214100 -0.28749999
v -0.07299995 0.06214100 -0.28749999
v -0.07299995 0.06214100 0.28749999
v 0.06214100 0.07299995 0.28749999
v -0.06214100 0.07299995 -0.28749999
v 0.06214100 0.07299995 -0.28749999
v -0.06214100 0.07299995 0.28749999
v 0.07299995 0.06214100 0.28749999
v 0.06214100 0.07299995 -0.28749999
v 0.07299995 0.06214100 -0.28749999
v 0.06214100 0.07299995 0.28749999
v 0.07299995 -0.06214100 0.28749999
v 0.07299995 0.06214100 -0.28749999
v 0.07299995 -0.06214100 -0.28749999
v 0.07299995 0.06214100 0.28749999
v 0.06214100 -0.07299995 0.28749999
v 0.07299995 -0.06214100 -0.28749999
v 0.06214100 -0.07299995 -0.28749999
v 0.07299995 -0.06214100 0.28749999
v -0.06214100 -0.07299995 0.28749999
v 0.06214100 -0.07299995 -0.28749999
v -0.06214100 -0.07299995 -0.28749999
v 0.06214100 -0.07299995 0.28749999
v -0.07299995 -0.06214100 0.28749999
v -0.06214100 -0.07299995 -0.28749999
v -0.07299995 -0.06214100 -0.28749999
v -0.06214100 -0.07299995 0.28749999
v -0.07299995 -0.06214100 0.28749999
v -0.07949995 0.01508694 0.28749999
v -0.07576596 0.08149999 0.28749999
v -0.08149999 0.07576596 0.28749999
v -0.06214100 0.07299995 0.28749999
v -0.01791495 0.08149999 0.28749999
v -0.07576495 -0.08149999 0.28749999
v -0.07299995 -0.06214100 0.28749999
v -0.07299995 0.06214100 0.28749999
v -0.08149999 0.01791495 0.28749999
v -0.01508694 0.07949995 0.28749999
v 0.06214100 0.07299995 0.28749999
v 0.01508498 0.07949995 0.28749999
v 0.01791399 0.08149999 0.28749999
v 0.07576495 0.08149999 0.28749999
v 0.08149999 0.01791399 0.28749999
v 0.08149999 0.07576495 0.28749999
v 0.07949995 0.01508498 0.28749999
v 0.07949995 -0.01508694 0.28749999
v 0.07576596 -0.08149999 0.28749999
v 0.07299995 0.06214100 0.28749999
v 0.08149999 -0.07576596 0.28749999
v 0.08149999 -0.01791495 0.28749999
v 0.06214100 -0.07299995 0.28749999
v 0.01791495 -0.08149999 0.28749999
v 0.07299995 -0.06214100 0.28749999
v 0.01508694 -0.07949995 0.28749999
v -0.06214100 -0.07299995 0.28749999
v -0.01508498 -0.07949995 0.28749999
v -0.01791399 -0.08149999 0.28749999
v -0.08149999 -0.01791399 0.28749999
v -0.08149999 -0.07576495 0.28749999
v -0.07949995 -0.01508498 0.28749999
vt 0.99511898 0.00313395
vt 0.90497601 0.03661495
vt 0.89263898 0.03661495
vt 0.90497601 0.96338499
vt 0.89263898 0.03661495
vt 0.90497601 0.03661495
vt 1.00000000 0.00000000
vt 0.00000000 0.00000000
vt 0.09502595 0.03661400
vt 0.10736600 0.03661400
vt 0.91237801 0.01831895
vt 0.88523698 0.01831895
vt 0.80249602 0.00313395
vt 0.89263898 0.96338499
vt 0.80249602 0.00313395
vt 0.89263898 0.03661495
vt 0.89263898 0.96338499
vt 0.99511898 0.99686599
vt 0.90497601 0.03661495
vt 0.99511898 0.00313395
vt 0.90497601 0.96338499
vt 1.00000000 1.00000000
vt 0.99511898 0.00313395
vt 1.00000000 0.00000000
vt 0.99511898 0.99686599
vt 0.00000000 1.00000000
vt 1.00000000 0.00000000
vt 0.00000000 0.00000000
vt 1.00000000 1.00000000
vt 0.00488096 0.00313395
vt 0.00488096 0.99686599
vt 0.00000000 0.00000000
vt 0.00488096 0.00313395
vt 0.00000000 1.00000000
vt 0.09502595 0.96338600
vt 0.00488096 0.00313395
vt 0.09502595 0.03661400
vt 0.00488096 0.99686599
vt 0.10736600 0.96338600
vt 0.09502595 0.03661400
vt 0.10736600 0.03661400
vt 0.09502595 0.96338600
vt 0.11476700 0.01831799
vt 0.19751000 0.00313395
vt 0.19751000 0.99686599
vt 0.10736600 0.03661400
vt 0.19751000 0.00313395
vt 0.08762395 0.01831799
vt 0.10736600 0.96338600
vt 0.20239100 0.00000000
vt 0.20239100 1.00000000
vt 0.19751000 0.00313395
vt 0.20239100 0.00000000
vt 0.19751000 0.99686599
vt 0.35349500 0.01831895
vt 0.26587400 0.00000000
vt 0.26587400 1.00000000
vt 0.20239100 0.00000000
vt 0.26587400 0.00000000
vt 0.20239100 1.00000000
vt 0.27075499 0.00313395
vt 0.27075499 0.99686599
vt 0.26587400 0.00000000
vt 0.27075499 0.00313395
vt 0.26587400 1.00000000
vt 0.36089799 0.03661495
vt 0.36089799 0.96338499
vt 0.27075499 0.00313395
vt 0.36089799 0.03661495
vt 0.27075499 0.99686599
vt 0.46337801 0.00313395
vt 0.37323499 0.03661495
vt 0.37323499 0.96338499
vt 0.36089799 0.03661495
vt 0.37323499 0.03661495
vt 0.46825901 0.00000000
vt 0.53174102 0.00000000
vt 0.62676698 0.03661400
vt 0.63910699 0.03661400
vt 0.38063699 0.01831895
vt 0.36089799 0.96338499
vt 0.46337801 0.99686599
vt 0.37323499 0.03661495
vt 0.46337801 0.00313395
vt 0.37323499 0.96338499
vt 0.46825901 1.00000000
vt 0.46337801 0.00313395
vt 0.46825901 0.00000000
vt 0.46337801 0.99686599
vt 0.53174102 1.00000000
vt 0.46825901 0.00000000
vt 0.53174102 0.00000000
vt 0.46825901 1.00000000
vt 0.53662199 0.00313395
vt 0.53662199 0.99686599
vt 0.53174102 0.00000000
vt 0.53662199 0.00313395
vt 0.53174102 1.00000000
vt 0.62676698 0.96338600
vt 0.53662199 0.00313395
vt 0.62676698 0.03661400
vt 0.53662199 0.99686599
vt 0.63910699 0.96338600
vt 0.62676698 0.03661400
vt 0.63910699 0.03661400
vt 0.62676698 0.96338600
vt 0.64650899 0.01831799
vt 0.72925198 0.00313395
vt 0.72925198 0.99686599
vt 0.63910699 0.03661400
vt 0.72925198 0.00313395
vt 0.61936498 0.01831799
vt 0.63910699 0.96338600
vt 0.73413301 0.00000000
vt 0.73413301 1.00000000
vt 0.72925198 0.00313395
vt 0.73413301 0.00000000
vt 0.72925198 0.99686599
vt 0.79761499 0.00000000
vt 0.79761499 1.00000000
vt 0.73413301 0.00000000
vt 0.79761499 0.00000000
vt 0.73413301 1.00000000
vt 0.80249602 0.99686599
vt 0.79761499 0.00000000
vt 0.80249602 0.00313395
vt 0.79761499 1.00000000
vt 0.80249602 0.99686599
vt 0.88523698 0.98168099
vt 0.91237801 0.01831895
vt 0.88523698 0.01831895
vt 0.91237801 0.98168099
vt 0.08762395 0.01831799
vt 0.91237801 0.01831895
vt 0.91237801 0.98168099
vt 0.64650899 0.98168200
vt 0.88523698 0.01831895
vt 0.64650899 0.01831799
vt 0.88523698 0.98168099
vt 0.61936498 0.98168200
vt 0.64650899 0.01831799
vt 0.61936498 0.01831799
vt 0.64650899 0.98168200
vt 0.38063699 0.98168099
vt 0.61936498 0.01831799
vt 0.38063699 0.01831895
vt 0.61936498 0.98168200
vt 0.35349500 0.98168099
vt 0.38063699 0.01831895
vt 0.35349500 0.01831895
vt 0.38063699 0.98168099
vt 0.11476700 0.98168200
vt 0.35349500 0.01831895
vt 0.11476700 0.01831799
vt 0.35349500 0.98168099
vt 0.08762395 0.98168200
vt 0.11476700 0.01831799
vt 0.08762395 0.01831799
vt 0.11476700 0.98168200
vt 0.08762395 0.98168200
vt 1.00000000 1.00000000
vt 0.89263898 0.96338499
vt 0.90497601 0.96338499
vt 0.88523698 0.98168099
vt 0.80249602 0.99686599
vt 0.10736600 0.96338600
vt 0.08762395 0.98168200
vt 0.91237801 0.98168099
vt 0.99511898 0.99686599
vt 0.79761499 1.00000000
vt 0.64650899 0.98168200
vt 0.73413301 1.00000000
vt 0.72925198 0.99686599
vt 0.63910699 0.96338600
vt 0.53662199 0.99686599
vt 0.62676698 0.96338600
vt 0.53174102 1.00000000
vt 0.46825901 1.00000000
vt 0.36089799 0.96338499
vt 0.61936498 0.98168200
vt 0.37323499 0.96338499
vt 0.46337801 0.99686599
vt 0.35349500 0.98168099
vt 0.27075499 0.99686599
vt 0.38063699 0.98168099
vt 0.26587400 1.00000000
vt 0.11476700 0.98168200
vt 0.20239100 1.00000000
vt 0.19751000 0.99686599
vt 0.00488096 0.99686599
vt 0.09502595 0.96338600
vt 0.00000000 1.00000000
f 1/1 2/2 3/3
f 4/4 5/5 6/6
f 7/7 1/1 3/3
f 8/8 7/7 3/3
f 9/9 8/8 3/3
f 10/10 9/9 3/3
f 11/11 10/10 3/3
f 12/12 3/3 13/13
f 14/14 15/15 16/16
f 12/12 11/11 3/3
f 4/4 17/17 5/5
f 18/18 19/19 20/20
f 18/18 21/21 19/19
f 22/22 23/23 24/24
f 25/25 23/23 22/22
f 26/26 27/27 28/28
f 29/29 27/27 26/26
f 9/9 30/30 8/8
f 31/31 32/32 33/33
f 34/34 32/32 31/31
f 35/35 36/36 37/37
f 38/38 36/36 35/35
f 39/39 40/40 41/41
f 42/42 40/40 39/39
f 43/43 44/44 10/10
f 45/45 46/46 47/47
f 48/48 10/10 11/11
f 48/48 43/43 10/10
f 49/49 46/46 45/45
f 43/43 50/50 44/44
f 51/51 52/52 53/53
f 54/54 52/52 51/51
f 55/55 56/56 50/50
f 57/57 58/58 59/59
f 43/43 55/55 50/50
f 60/60 58/58 57/57
f 55/55 61/61 56/56
f 62/62 63/63 64/64
f 65/65 63/63 62/62
f 55/55 66/66 61/61
f 67/67 68/68 69/69
f 70/70 68/68 67/67
f 71/71 72/72 66/66
f 73/73 74/74 75/75
f 76/76 71/71 66/66
f 77/77 76/76 66/66
f 78/78 77/77 66/66
f 79/79 78/78 66/66
f 80/80 79/79 66/66
f 55/55 80/80 66/66
f 81/81 74/74 73/73
f 82/82 83/83 84/84
f 85/85 83/83 82/82
f 86/86 87/87 88/88
f 89/89 87/87 86/86
f 90/90 91/91 92/92
f 93/93 91/91 90/90
f 78/78 94/94 77/77
f 95/95 96/96 97/97
f 98/98 96/96 95/95
f 99/99 100/100 101/101
f 102/102 100/100 99/99
f 103/103 104/104 105/105
f 106/106 104/104 103/103
f 107/107 108/108 79/79
f 109/109 110/110 111/111
f 112/112 107/107 79/79
f 80/80 112/112 79/79
f 113/113 110/110 109/109
f 107/107 114/114 108/108
f 115/115 116/116 117/117
f 118/118 116/116 115/115
f 12/12 119/119 114/114
f 120/120 121/121 122/122
f 107/107 12/12 114/114
f 123/123 121/121 120/120
f 12/12 13/13 119/119
f 124/124 125/125 126/126
f 127/127 125/125 124/124
f 128/128 15/15 14/14
f 129/129 130/130 131/131
f 132/132 133/133 134/134
f 135/135 130/130 129/129
f 136/136 137/137 138/138
f 136/136 139/139 137/137
f 140/140 141/141 142/142
f 143/143 141/141 140/140
f 144/144 145/145 146/146
f 147/147 145/145 144/144
f 148/148 149/149 150/150
f 151/151 149/149 148/148
f 152/152 153/153 154/154
f 155/155 153/153 152/152
f 156/156 157/157 158/158
f 159/159 157/157 156/156
f 160/160 133/133 132/132
f 161/161 162/162 163/163
f 164/164 165/165 162/162
f 161/161 166/166 162/162
f 167/167 162/162 166/166
f 168/168 164/164 162/162
f 167/167 168/168 162/162
f 169/169 161/161 163/163
f 164/164 170/170 165/165
f 171/171 172/172 170/170
f 171/171 170/170 164/164
f 171/171 173/173 172/172
f 171/171 174/174 173/173
f 175/175 176/176 174/174
f 177/177 175/175 174/174
f 178/178 177/177 174/174
f 179/179 178/178 174/174
f 180/180 179/179 174/174
f 171/171 180/180 174/174
f 181/181 182/182 178/178
f 179/179 181/181 178/178
f 183/183 184/184 179/179
f 185/185 183/183 179/179
f 180/180 185/185 179/179
f 183/183 186/186 184/184
f 187/187 188/188 186/186
f 183/183 187/187 186/186
f 187/187 189/189 188/188
f 187/187 166/166 189/189
f 190/190 191/191 166/166
f 192/192 190/190 166/166
f 161/161 192/192 166/166
f 187/187 167/167 166/166
