# https://github.com/mikedh/trimesh
v 0.52591874 -0.00496899 0.00249845
v 0.52591874 -0.00496899 0.00266856
v 0.52591874 -0.00314810 -0.00648808
v 0.59929362 -0.00496899 0.00249845
v 0.59929362 -0.00251073 0.00990216
v 0.52591874 -0.00251073 0.00992928
v 0.52591874 -0.00305701 -0.00669764
v 0.59929362 -0.00305701 -0.00669764
v 0.60849745 -0.00260182 -0.00669764
v 0.60849745 -0.00433168 0.00249845
v 0.60849745 -0.00214657 0.00955453
v 0.59929362 0.00468184 0.01288288
v 0.52591874 0.00468184 0.01294451
v 0.52591874 -0.00059881 -0.01156442
v 0.59929362 -0.00050773 -0.01167783
v 0.60849745 -0.00032567 -0.01155949
v 0.61392446 -0.00096298 -0.00669764
v 0.61320970 -0.00014356 -0.01139430
v 0.61457748 -0.00178240 0.00249845
v 0.61408330 -0.00123612 0.00850426
v 0.60849745 0.00468184 0.01209887
v 0.52591874 0.01387742 0.01312449
v 0.59929362 0.01387742 0.01305792
v 0.52591874 -0.00050773 -0.01167783
v 0.52591874 0.00449976 -0.01205011
v 0.59929362 0.00468184 -0.01205751
v 0.60849745 0.00468184 -0.01182082
v 0.61474514 0.00468184 -0.00669764
v 0.61605998 0.00468184 0.00249845
v 0.61327147 0.00468184 -0.01144115
v 0.61457748 0.00468184 0.00920691
v 0.60849745 0.01387742 0.01218516
v 0.52591874 0.90612260 0.01312449
v 0.59929362 0.90612260 0.01305792
v 0.52591874 0.00468184 -0.01205751
v 0.59929362 0.91531818 -0.01205751
v 0.60849745 0.91531818 -0.01182082
v 0.61474514 0.91531818 -0.00669764
v 0.61605998 0.91531818 0.00249845
v 0.61327147 0.91531818 -0.01144115
v 0.61457748 0.91531818 0.00920691
v 0.60849745 0.90612260 0.01218516
v 0.52591874 0.90639574 0.01312202
v 0.60849745 0.91531818 0.01209887
v 0.59929362 0.91531818 0.01288288
v 0.52591874 0.91531818 -0.01205751
v 0.52591874 0.92041672 -0.01168769
v 0.59929362 0.92050775 -0.01167783
v 0.60849745 0.92032569 -0.01155949
v 0.61320970 0.92014358 -0.01139430
v 0.61392446 0.92096300 -0.00669764
v 0.61457748 0.92178242 0.00249845
v 0.61408330 0.92123614 0.00850426
v 0.52591874 0.91531818 0.01294451
v 0.60849745 0.92214659 0.00955453
v 0.52591874 0.91550026 0.01287548
v 0.59929362 0.92251075 0.00990216
v 0.52591874 0.92050775 -0.01167783
v 0.52591874 0.92305703 -0.00681352
v 0.59929362 0.92305703 -0.00669764
v 0.60849745 0.92260184 -0.00669764
v 0.60849745 0.92433170 0.00249845
v 0.59929362 0.92496901 0.00249845
v 0.52591874 0.92251075 0.00992928
v 0.52591874 0.92496901 0.00228888
v 0.52591874 0.92496901 0.00249845
f 1 2 6
f 1 6 13
f 1 13 22
f 1 22 33
f 1 33 43
f 1 43 54
f 1 54 56
f 1 56 64
f 1 64 66
f 1 66 65
f 1 65 59
f 1 59 58
f 1 58 47
f 1 47 46
f 1 46 35
f 1 35 25
f 1 25 24
f 1 24 14
f 1 14 7
f 1 7 3
f 1 3 4
f 1 4 2
f 2 4 5
f 2 5 6
f 3 7 8
f 3 8 4
f 4 8 9
f 4 9 10
f 4 10 11
f 4 11 5
f 5 11 12
f 5 12 13
f 5 13 6
f 7 14 8
f 8 14 15
f 8 15 16
f 8 16 9
f 9 17 10
f 9 16 18
f 9 18 17
f 10 17 19
f 10 19 20
f 10 20 11
f 11 20 21
f 11 21 12
f 12 22 13
f 12 21 23
f 12 23 22
f 14 24 15
f 15 25 26
f 15 26 16
f 15 24 25
f 16 26 27
f 16 27 18
f 17 18 28
f 17 28 29
f 17 29 19
f 18 27 30
f 18 30 28
f 19 29 20
f 20 29 31
f 20 31 21
f 21 31 32
f 21 32 23
f 22 23 34
f 22 34 33
f 23 32 42
f 23 42 34
f 25 35 26
f 26 35 46
f 26 46 36
f 26 36 37
f 26 37 27
f 27 37 40
f 27 40 30
f 28 30 40
f 28 40 38
f 28 38 39
f 28 39 29
f 29 39 41
f 29 41 31
f 31 41 42
f 31 42 32
f 33 34 43
f 34 42 44
f 34 44 45
f 34 45 43
f 36 46 47
f 36 47 48
f 36 48 49
f 36 49 37
f 37 49 50
f 37 50 40
f 38 40 50
f 38 50 51
f 38 51 39
f 39 51 52
f 39 52 53
f 39 53 41
f 41 53 44
f 41 44 42
f 43 45 54
f 44 53 55
f 44 55 45
f 45 56 54
f 45 55 57
f 45 57 56
f 47 58 48
f 48 59 60
f 48 60 49
f 48 58 59
f 49 60 61
f 49 61 50
f 50 61 51
f 51 61 62
f 51 62 52
f 52 62 53
f 53 62 55
f 55 62 63
f 55 63 57
f 56 57 64
f 57 63 64
f 59 65 60
f 60 65 63
f 60 63 61
f 61 63 62
f 63 66 64
f 63 65 66

