# https://github.com/mikedh/trimesh
v 0.00293998 0.00468184 0.00250665
v 0.00427094 0.00468184 -0.00669951
v 0.00509000 -0.00096298 -0.00669951
v 0.00442454 -0.00178240 0.00250665
v 0.00293998 0.00468184 0.04849334
v 0.00293998 0.91531818 0.00250665
v 0.00575550 0.00468184 -0.01143495
v 0.00580668 -0.00014356 -0.01139083
v 0.00427094 0.91531818 -0.00669951
v 0.01051630 -0.00260182 -0.00669951
v 0.01051630 -0.00433168 0.00250665
v 0.00442454 -0.00178240 0.04849334
v 0.00509000 -0.00096298 0.05769950
v 0.00427094 0.00468184 0.05769950
v 0.00293998 0.91531818 0.04849334
v 0.00442454 0.92178242 0.00250665
v 0.00509000 0.92096300 -0.00669951
v 0.01051630 0.00468184 -0.01181732
v 0.00575550 0.91531818 -0.01143495
v 0.01051630 -0.00032567 -0.01155996
v 0.00580668 0.92014358 -0.01139083
v 0.01973071 -0.00305701 -0.00669951
v 0.01973071 -0.00496899 0.00250665
v 0.01051630 -0.00433168 0.04849334
v 0.00580668 -0.00014356 0.06239082
v 0.01051630 -0.00260182 0.05769950
v 0.00575550 0.00468184 0.06243494
v 0.00427094 0.91531818 0.05769950
v 0.00509000 0.92096300 0.05769950
v 0.00442454 0.92178242 0.04849334
v 0.01051630 0.92433170 0.00250665
v 0.01051630 0.92260184 -0.00669951
v 0.01973071 0.00468184 -0.01205997
v 0.01051630 0.91531818 -0.01181732
v 0.01973071 -0.00050773 -0.01167761
v 0.01051630 0.92032569 -0.01155996
v 0.52590991 -0.00059881 -0.01155996
v 0.52590991 -0.00305701 -0.00669951
v 0.52590991 -0.00314810 -0.00648627
v 0.01973071 -0.00496899 0.04849334
v 0.52590991 -0.00496899 0.00250665
v 0.01051630 -0.00032567 0.06255995
v 0.01051630 0.00468184 0.06281731
v 0.01973071 -0.00305701 0.05769950
v 0.00575550 0.91531818 0.06243494
v 0.00580668 0.92014358 0.06239082
v 0.01051630 0.92260184 0.05769950
v 0.01051630 0.92433170 0.04849334
v 0.01973071 0.92496901 0.00250665
v 0.01973071 0.92305703 -0.00669951
v 0.52590991 0.00468184 -0.01205997
v 0.01973071 0.91531818 -0.01205997
v 0.52590991 -0.00050773 -0.01167761
v 0.01973071 0.92050775 -0.01167761
v 0.49806186 -0.00496899 0.04849334
v 0.52590991 -0.00496899 0.00267577
v 0.01973071 -0.00050773 0.06267760
v 0.01973071 0.00468184 0.06305996
v 0.01051630 0.91531818 0.06281731
v 0.49806186 -0.00305701 0.05769950
v 0.01051630 0.92032569 0.06255995
v 0.01973071 0.92305703 0.05769950
v 0.01973071 0.92496901 0.04849334
v 0.52590991 0.92496901 0.00229341
v 0.52590991 0.92305703 -0.00680981
v 0.52590991 0.91531818 -0.01205997
v 0.52590991 0.92041672 -0.01168496
v 0.52590991 0.92050775 -0.01167761
v 0.50727630 -0.00478688 0.04849334
v 0.50727630 -0.00296598 0.05769950
v 0.52590991 -0.00251073 0.00993334
v 0.51316330 -0.00132715 0.05769950
v 0.49806186 -0.00050773 0.06267760
v 0.49806186 0.00468184 0.06305996
v 0.01973071 0.91531818 0.06305996
v 0.50727630 -0.00050773 0.06265554
v 0.01973071 0.92050775 0.06267760
v 0.49806186 0.92305703 0.05769950
v 0.49806186 0.92496901 0.04849334
v 0.52590991 0.92496901 0.00250665
v 0.51219064 -0.00032567 0.06252318
v 0.52590991 0.00468184 0.01294814
v 0.51444307 0.00468184 0.05769950
v 0.50727630 0.00468184 0.06300849
v 0.49806186 0.91531818 0.06305996
v 0.49806186 0.92050775 0.06267760
v 0.50727630 0.92050775 0.06265554
v 0.50727630 0.92296600 0.05769950
v 0.50727630 0.92478690 0.04849334
v 0.52590991 0.92251075 0.00993334
v 0.51316330 0.92132717 0.05769950
v 0.51234424 0.00468184 0.06263348
v 0.52590991 0.00486392 0.01295550
v 0.52590991 0.01387742 0.01313197
v 0.51444307 0.91531818 0.05769950
v 0.50727630 0.91531818 0.06300849
v 0.51219064 0.92032569 0.06252318
v 0.52590991 0.91550026 0.01288196
v 0.51234424 0.91531818 0.06263348
v 0.52590991 0.90612260 0.01313197
v 0.52590991 0.91531818 0.01294814
f 1 2 3
f 1 3 4
f 1 4 12
f 1 12 5
f 1 5 15
f 1 15 6
f 1 6 9
f 1 9 2
f 2 7 8
f 2 8 3
f 2 9 19
f 2 19 7
f 3 8 10
f 3 10 11
f 3 11 4
f 4 11 24
f 4 24 12
f 5 12 13
f 5 13 14
f 5 14 28
f 5 28 15
f 6 15 30
f 6 30 16
f 6 16 17
f 6 17 9
f 7 18 8
f 7 19 34
f 7 34 18
f 8 18 20
f 8 20 10
f 9 17 21
f 9 21 19
f 10 22 23
f 10 23 11
f 10 20 22
f 11 23 40
f 11 40 24
f 12 24 13
f 13 25 14
f 13 24 26
f 13 26 25
f 14 25 27
f 14 27 45
f 14 45 28
f 15 28 29
f 15 29 30
f 16 30 48
f 16 48 31
f 16 31 17
f 17 31 32
f 17 32 21
f 18 33 20
f 18 34 52
f 18 52 33
f 19 21 34
f 20 33 35
f 20 35 22
f 21 32 36
f 21 36 34
f 22 35 37
f 22 37 38
f 22 38 39
f 22 39 23
f 23 39 41
f 23 41 56
f 23 56 55
f 23 55 40
f 24 40 26
f 25 42 43
f 25 43 27
f 25 26 42
f 26 40 44
f 26 44 42
f 27 43 59
f 27 59 45
f 28 45 46
f 28 46 29
f 29 46 47
f 29 47 48
f 29 48 30
f 31 48 63
f 31 63 49
f 31 49 32
f 32 49 50
f 32 50 36
f 33 51 53
f 33 53 35
f 33 52 66
f 33 66 51
f 34 36 52
f 35 53 37
f 36 54 52
f 36 50 54
f 37 53 51
f 37 51 66
f 37 66 67
f 37 67 68
f 37 68 65
f 37 65 64
f 37 64 80
f 37 80 90
f 37 90 98
f 37 98 101
f 37 101 100
f 37 100 94
f 37 94 93
f 37 93 82
f 37 82 71
f 37 71 56
f 37 56 41
f 37 41 39
f 37 39 38
f 40 55 60
f 40 60 44
f 42 57 58
f 42 58 43
f 42 44 57
f 43 58 75
f 43 75 59
f 44 60 73
f 44 73 57
f 45 59 46
f 46 61 47
f 46 59 61
f 47 62 63
f 47 63 48
f 47 61 62
f 49 63 79
f 49 79 80
f 49 80 64
f 49 64 50
f 50 64 65
f 50 65 54
f 52 54 67
f 52 67 66
f 54 68 67
f 54 65 68
f 55 56 69
f 55 69 70
f 55 70 60
f 56 71 72
f 56 72 69
f 57 73 74
f 57 74 58
f 58 74 85
f 58 85 75
f 59 75 61
f 60 70 76
f 60 76 73
f 61 75 77
f 61 77 62
f 62 77 86
f 62 86 78
f 62 78 79
f 62 79 63
f 69 72 70
f 70 72 81
f 70 81 76
f 71 82 83
f 71 83 81
f 71 81 72
f 73 76 74
f 74 76 84
f 74 84 96
f 74 96 85
f 75 85 86
f 75 86 77
f 76 81 84
f 78 86 87
f 78 87 88
f 78 88 79
f 79 88 89
f 79 89 80
f 80 89 91
f 80 91 90
f 81 83 92
f 81 92 84
f 82 93 83
f 83 93 94
f 83 94 100
f 83 100 95
f 83 95 99
f 83 99 92
f 84 92 99
f 84 99 96
f 85 96 87
f 85 87 86
f 87 96 97
f 87 97 88
f 88 97 91
f 88 91 89
f 90 91 97
f 90 97 95
f 90 95 98
f 95 100 101
f 95 101 98
f 95 97 99
f 96 99 97

