# https://github.com/mikedh/trimesh
v 12.69517156 21.99970390 12.73103890
v 12.67120451 22.00788495 12.73103890
v 12.69517156 29.04550566 12.73103890
v 12.69517156 21.99970390 41.64502293
v 5.27560977 24.76493646 12.73103890
v 12.69517156 22.00061568 120.63557016
v 5.27560977 24.70039983 113.98032302
v 5.27560977 24.70039983 20.95222967
v 10.18591299 30.06905500 12.73103890
v 12.69517156 29.07550076 20.39296431
v 5.27560977 31.18169661 12.73103890
v 12.69517156 28.98278010 127.00000282
v 5.27560977 31.15442436 127.00000282
v 5.27560977 25.96029411 121.89951125
v 5.27560977 24.70675732 120.63557016
v 7.05787349 30.95444451 12.73103890
v 7.06586250 30.95262095 127.00000282
v 12.69517156 29.04732297 123.49901279
v 5.27560977 31.28532117 19.17376608
v 5.27560977 31.28623295 124.31553160
f 1 2 5
f 1 5 11
f 1 11 16
f 1 16 9
f 1 9 3
f 1 3 10
f 1 10 18
f 1 18 12
f 1 12 6
f 1 6 4
f 1 4 2
f 2 4 6
f 2 6 7
f 2 7 8
f 2 8 5
f 3 9 10
f 5 8 7
f 5 7 15
f 5 15 14
f 5 14 13
f 5 13 20
f 5 20 19
f 5 19 11
f 6 12 13
f 6 13 14
f 6 14 15
f 6 15 7
f 9 16 17
f 9 17 18
f 9 18 10
f 11 19 16
f 12 17 13
f 12 18 17
f 13 17 20
f 16 19 20
f 16 20 17

