# https://github.com/mikedh/trimesh
v 25.39383567 0.03992820 21.92520638
v 23.77417034 8.85286185 21.92520638
v 31.74454946 0.03992820 21.92520638
v 25.39383567 0.03992820 113.98498809
v 23.77417034 8.41111323 120.64636166
v 23.77417034 19.02318167 21.92520638
v 30.46348437 8.94723745 21.92520638
v 31.74454946 0.03992820 123.15429080
v 25.39617602 0.03992820 120.64636166
v 23.77417034 14.51329950 123.19394079
v 23.77417034 20.55324421 26.54455226
v 23.78275263 20.54119745 21.92520638
v 26.72093166 17.13971024 21.92520638
v 27.71176929 14.97111358 88.80658415
v 30.46348437 8.94723745 113.98498809
v 30.46192310 8.94924525 123.19394079
v 31.74298819 0.04193600 123.19394079
v 27.93958344 0.03992820 123.19394079
v 23.77417034 20.55324421 123.19394079
v 26.71000902 17.16179907 21.92520638
v 26.70922838 17.16380999 123.19394079
f 1 2 6
f 1 6 12
f 1 12 20
f 1 20 13
f 1 13 7
f 1 7 3
f 1 3 8
f 1 8 18
f 1 18 9
f 1 9 4
f 1 4 5
f 1 5 2
f 2 5 10
f 2 10 19
f 2 19 11
f 2 11 6
f 3 7 15
f 3 15 8
f 4 9 5
f 5 9 10
f 6 11 12
f 7 13 14
f 7 14 15
f 8 15 16
f 8 16 17
f 8 17 18
f 9 18 10
f 10 18 17
f 10 17 16
f 10 16 21
f 10 21 19
f 11 20 12
f 11 19 21
f 11 21 20
f 13 20 21
f 13 21 14
f 14 21 15
f 15 21 16

