# https://github.com/mikedh/trimesh
v -31.74897097 0.00319466 12.73103890
v -30.95143095 7.07207197 12.73103890
v -25.40040862 0.00319466 12.73103890
v -31.74972662 0.00319466 123.19700088
v -30.95370104 7.06444986 127.00000282
v -30.76546506 7.78764536 16.24322010
v -30.70120946 7.78764536 12.73103890
v -24.03287576 7.78764536 12.73103890
v -24.02682741 7.78764536 22.85373064
v -25.39965296 0.00319466 31.10847621
v -31.74972662 0.00319466 127.00000282
v -30.70045381 7.78764536 127.00000282
v -30.76546506 7.78764536 125.53473295
v -24.02682741 7.78764536 113.98032302
v -25.39965296 0.00319466 113.98032302
v -25.40040862 0.00319466 120.64676134
v -24.03211855 7.78764536 120.64676134
f 1 2 7
f 1 7 8
f 1 8 3
f 1 3 10
f 1 10 15
f 1 15 16
f 1 16 11
f 1 11 4
f 1 4 5
f 1 5 2
f 2 6 7
f 2 5 6
f 3 8 9
f 3 9 10
f 4 11 5
f 5 11 12
f 5 12 13
f 5 13 6
f 6 13 12
f 6 12 17
f 6 17 14
f 6 14 9
f 6 9 8
f 6 8 7
f 9 14 15
f 9 15 10
f 11 16 17
f 11 17 12
f 14 17 16
f 14 16 15

