# https://github.com/mikedh/trimesh
v 18.22305276 17.36174770 21.90298015
v 18.22305276 17.36174770 113.96913809
v 12.69517312 21.99910438 12.73103890
v 18.22305276 17.65071989 12.73103890
v 18.22305276 17.36403964 115.19952125
v 12.69517312 22.00024722 120.64676134
v 12.69517312 29.04572423 12.73103890
v 18.22305276 25.86012307 12.73103890
v 18.22305276 17.61746485 120.64676134
v 12.69517312 28.98380430 127.00000282
v 13.77531379 28.60538387 12.73103890
v 12.69517312 29.07668732 20.40414924
v 13.77639731 28.60538387 127.00000282
v 18.22305276 25.80966910 127.00000282
v 13.19032808 28.88059816 123.18582219
v 12.69517312 29.04687333 123.48782161
v 13.19032808 28.88059816 21.90298015
f 1 2 3
f 1 3 4
f 1 4 8
f 1 8 14
f 1 14 9
f 1 9 5
f 1 5 2
f 2 5 6
f 2 6 3
f 3 7 11
f 3 11 8
f 3 8 4
f 3 6 10
f 3 10 16
f 3 16 12
f 3 12 7
f 5 9 6
f 6 9 10
f 7 12 11
f 8 11 13
f 8 13 14
f 9 14 10
f 10 13 15
f 10 15 16
f 10 14 13
f 11 12 17
f 11 17 13
f 12 16 15
f 12 15 17
f 13 17 15
