# https://github.com/mikedh/trimesh
v -12.70788966 -29.05455260 21.00815433
v -13.18974260 -28.88079583 21.90298015
v -13.77497655 -28.60587974 12.73103890
v -12.70788966 -29.00218763 12.73103890
v -12.70788966 -29.04384229 123.48782161
v -13.18974260 -28.88079583 123.18582219
v -17.49433661 -26.49342321 12.73103890
v -13.77616468 -28.60468928 127.00000282
v -12.70788966 -21.99240592 12.73103890
v -12.70788966 -28.97957577 127.00000282
v -18.77710036 -25.56156408 12.73103890
v -18.77710036 -25.46278414 127.00000282
v -18.77710036 -16.89752087 12.73103890
v -12.70788966 -21.99121623 21.90298015
v -12.70788966 -22.04239151 120.69150107
v -18.77710036 -16.89752087 120.64676134
v -12.70788966 -21.99121623 120.63557016
f 1 2 3
f 1 3 4
f 1 4 9
f 1 9 14
f 1 14 17
f 1 17 15
f 1 15 10
f 1 10 5
f 1 5 6
f 1 6 2
f 2 6 3
f 3 7 11
f 3 11 13
f 3 13 9
f 3 9 4
f 3 6 8
f 3 8 7
f 5 10 6
f 6 10 8
f 7 8 12
f 7 12 11
f 8 10 12
f 9 13 14
f 10 15 16
f 10 16 12
f 11 12 16
f 11 16 13
f 13 16 17
f 13 17 14
f 15 17 16
