# https://github.com/mikedh/trimesh
v -31.00854530 -6.58195774 127.00000282
v -24.53903143 -6.58195774 120.65637251
v -30.80322904 -6.58195774 116.20357659
v -30.95379472 -7.06623846 127.00000282
v -24.01684465 -20.60129634 127.00000282
v -24.01684465 -7.82430022 120.65003376
v -24.53287222 -6.58195774 120.62889418
v -30.77311528 -6.79383134 116.20357659
v -24.33782286 -6.58195774 116.20357659
v -30.46377165 -8.94557253 116.20357659
v -30.46377165 -8.94557253 123.19615155
v -28.60566147 -13.77460935 127.00000282
v -24.82373667 -19.79508191 127.00000282
v -24.01684465 -20.63569110 126.23901523
v -24.01684465 -8.16136887 116.20357659
v -26.70990910 -17.16456503 116.20357659
v -26.70990910 -17.16456503 123.19615155
v -24.66495872 -19.52542574 116.20357659
v -24.01684465 -20.27248212 116.20357659
f 1 2 7
f 1 7 9
f 1 9 3
f 1 3 4
f 1 4 12
f 1 12 13
f 1 13 5
f 1 5 2
f 2 5 6
f 2 6 7
f 3 8 4
f 3 9 15
f 3 15 19
f 3 19 18
f 3 18 16
f 3 16 10
f 3 10 8
f 4 8 10
f 4 10 11
f 4 11 12
f 5 13 14
f 5 14 19
f 5 19 15
f 5 15 6
f 6 15 9
f 6 9 7
f 10 16 12
f 10 12 11
f 12 16 17
f 12 17 13
f 13 18 19
f 13 19 14
f 13 17 16
f 13 16 18
