# https://github.com/mikedh/trimesh
v 31.75000141 -0.00055238 127.00000282
v 31.74557365 0.03792041 127.00000282
v 30.99072498 -6.73839379 127.00000282
v 31.75000141 -0.00055238 110.12728553
v 25.43007586 0.03792041 120.68367599
v 24.46640587 -6.73839379 120.64899083
v 31.74409669 0.03792041 110.12728553
v 30.99072498 -6.73839379 126.82326090
v 30.78042826 -6.73839379 110.12728553
v 25.39539538 0.03792041 120.64899083
v 24.21257629 -6.73839379 115.48228584
v 25.39391842 0.03792041 110.12728553
v 24.21257629 -6.73839379 110.12728553
v 25.39391842 0.03792041 113.98909735
f 1 2 3
f 1 3 8
f 1 8 4
f 1 4 2
f 2 5 6
f 2 6 3
f 2 4 7
f 2 7 12
f 2 12 14
f 2 14 10
f 2 10 5
f 3 6 11
f 3 11 13
f 3 13 9
f 3 9 8
f 4 9 13
f 4 13 12
f 4 12 7
f 4 8 9
f 5 10 6
f 6 10 11
f 10 14 11
f 11 14 12
f 11 12 13
