# https://github.com/mikedh/trimesh
v -18.76082257 16.91141521 113.98097875
v -21.39448696 12.97445638 113.98097875
v -21.39349244 12.97445638 71.75863000
v -18.76082257 16.91141521 71.75863000
v -18.76579209 16.91141521 120.63589491
v -21.78804546 12.97445638 120.63589491
v -21.39349244 12.97445638 21.90829784
v -18.76181553 16.91141521 20.95759419
v -26.63498067 16.91141521 127.00000282
v -28.88502561 12.97445638 127.00000282
v -21.78804546 12.97445638 12.73681872
v -18.76678505 16.91141521 12.73681872
v -26.85163799 16.91141521 123.47681154
v -28.60476530 13.77641791 127.00000282
v -28.89397168 12.97445638 126.79867403
v -28.88502561 12.97445638 12.73681872
v -26.85064502 16.91141521 12.73681872
v -28.59780829 13.78836474 12.73681872
v -28.60973326 13.76061787 12.73681872
v -28.91384664 12.97445638 14.23557469
v -28.91285367 12.97445638 126.36247416
f 1 2 3
f 1 3 7
f 1 7 4
f 1 4 8
f 1 8 12
f 1 12 17
f 1 17 13
f 1 13 9
f 1 9 5
f 1 5 2
f 2 5 6
f 2 6 10
f 2 10 15
f 2 15 21
f 2 21 20
f 2 20 16
f 2 16 11
f 2 11 7
f 2 7 3
f 4 7 8
f 5 9 10
f 5 10 6
f 7 11 12
f 7 12 8
f 9 13 14
f 9 14 10
f 10 14 15
f 11 16 19
f 11 19 18
f 11 18 17
f 11 17 12
f 13 17 18
f 13 18 14
f 14 18 19
f 14 19 20
f 14 20 21
f 14 21 15
f 16 20 19

