# https://github.com/mikedh/trimesh
v -24.33803519 -6.58058382 116.20357659
v -25.40030714 0.00243276 120.65003376
v -24.53249439 -6.58058382 120.62889418
v -30.80382232 -6.58058382 116.20357659
v -25.40030714 0.00243276 116.20357659
v -31.74927386 0.00243276 127.00000282
v -24.53902518 -6.58058382 120.65637251
v -24.53467080 -6.57349566 120.65003376
v -31.74927386 0.00049991 116.20357659
v -31.00843914 -6.58058382 127.00000282
v -29.63996484 0.00243276 116.20357659
v -31.74927386 0.00243276 123.19720697
v -31.75000141 -0.00014645 127.00000282
v -31.75000141 -0.00014645 123.19615155
f 1 2 3
f 1 3 7
f 1 7 10
f 1 10 4
f 1 4 9
f 1 9 11
f 1 11 5
f 1 5 2
f 2 5 11
f 2 11 12
f 2 12 6
f 2 6 7
f 2 7 8
f 2 8 3
f 3 8 7
f 4 10 9
f 6 12 14
f 6 14 13
f 6 13 10
f 6 10 7
f 9 14 12
f 9 12 11
f 9 10 14
f 10 13 14
