# https://github.com/mikedh/trimesh
v 5.27560977 -31.28624014 124.32064007
v 7.06513651 -30.95350714 127.00000282
v 5.27560977 -31.15532928 127.00000282
v 5.27560977 -31.20442027 23.70816330
v 12.69517156 -29.04801869 123.50166695
v 12.69517156 -28.98347192 127.00000282
v 11.48593422 -29.38075169 23.70816330
v 12.69517156 -29.02529129 23.70816330
v 12.69517156 -21.99971110 120.64031642
v 5.27560977 -24.70612283 120.64031642
v 5.27560977 -24.69975910 23.70816330
v 12.69517156 -21.99971110 23.70816330
v 6.73395775 -24.16884015 23.70816330
v 5.27560977 -24.69975910 113.98741430
f 1 2 3
f 1 3 10
f 1 10 14
f 1 14 11
f 1 11 4
f 1 4 2
f 2 5 6
f 2 6 3
f 2 4 7
f 2 7 8
f 2 8 5
f 3 6 9
f 3 9 10
f 4 11 13
f 4 13 12
f 4 12 8
f 4 8 7
f 5 8 12
f 5 12 9
f 5 9 6
f 9 12 13
f 9 13 14
f 9 14 10
f 11 14 13
