# https://github.com/mikedh/trimesh
v -21.39301000 12.97445638 113.98032302
v -21.78659348 12.97445638 120.64676134
v -24.03249013 7.78815433 120.64676134
v -24.02698509 7.78815433 114.67381381
v -21.39301000 12.97445638 21.90298015
v -28.88575629 12.97445638 127.00000282
v -30.70045693 7.78815433 127.00000282
v -24.02698509 7.78815433 21.90298015
v -24.03249013 7.78815433 12.73103890
v -21.78750994 12.97445638 12.73103890
v -28.91328146 12.97445638 126.36244293
v -30.46375916 8.94523591 123.18582219
v -30.76559621 7.78815433 125.53473295
v -30.70137496 7.78815433 12.73103890
v -28.88575629 12.97445638 12.73103890
v -28.91328146 12.97445638 14.22986981
v -30.46375916 8.94523591 21.90298015
v -30.76467818 7.78815433 16.24322010
f 1 2 3
f 1 3 4
f 1 4 8
f 1 8 5
f 1 5 10
f 1 10 15
f 1 15 16
f 1 16 11
f 1 11 6
f 1 6 2
f 2 6 7
f 2 7 3
f 3 7 13
f 3 13 18
f 3 18 14
f 3 14 9
f 3 9 8
f 3 8 4
f 5 8 9
f 5 9 10
f 6 11 12
f 6 12 13
f 6 13 7
f 9 14 15
f 9 15 10
f 11 16 17
f 11 17 12
f 12 17 13
f 13 17 18
f 14 18 17
f 14 17 16
f 14 16 15

