# https://github.com/mikedh/trimesh
v 18.22637514 -25.85942926 12.73103890
v 18.22637514 -17.64824935 12.73103890
v 19.35770046 -25.16121407 12.73103890
v 18.22637514 -25.80751394 127.00000282
v 18.22637514 -17.36112258 20.23636901
v 20.44213618 -15.03656450 12.73103890
v 19.79987063 -24.81899323 12.73103890
v 19.79659977 -24.82217197 127.00000282
v 23.79576269 -20.82147433 127.00000282
v 23.79576269 -15.03656450 123.48782161
v 20.20551178 -15.03656450 120.63557016
v 18.22637514 -17.61540493 120.63557016
v 20.20387713 -15.03656450 21.91416509
v 18.22637514 -17.36112258 113.98032302
v 23.79576269 -15.03656450 12.73103890
v 23.79576269 -20.82147433 12.73103890
v 23.79576269 -20.86385342 15.04639486
v 20.79216492 -23.99363764 21.91416509
v 20.79216492 -23.99363764 123.18582219
v 23.79576269 -20.86385342 126.01570378
v 20.20387713 -15.03656450 113.98032302
f 1 2 6
f 1 6 15
f 1 15 16
f 1 16 7
f 1 7 3
f 1 3 4
f 1 4 12
f 1 12 14
f 1 14 5
f 1 5 2
f 2 5 6
f 3 7 8
f 3 8 4
f 4 8 9
f 4 9 10
f 4 10 11
f 4 11 12
f 5 13 6
f 5 14 21
f 5 21 13
f 6 13 21
f 6 21 11
f 6 11 10
f 6 10 15
f 7 16 17
f 7 17 18
f 7 18 8
f 8 19 9
f 8 18 19
f 9 19 20
f 9 20 17
f 9 17 16
f 9 16 15
f 9 15 10
f 11 21 14
f 11 14 12
f 17 20 19
f 17 19 18
