# https://github.com/mikedh/trimesh
v -18.77812455 -25.56047900 12.73158534
v -19.80012668 -24.81847020 12.73158534
v -18.77812455 -16.89849198 12.73158534
v -18.77812455 -25.46237977 127.00000282
v -19.79653732 -24.82160055 127.00000282
v -20.39907169 -24.32171026 18.26827991
v -24.01582046 -20.60123077 12.73158534
v -20.30984516 -14.89997218 12.73158534
v -20.28164239 -14.89997218 21.91466782
v -18.77812455 -16.89744749 120.63560139
v -20.30933306 -14.89997218 120.63560139
v -24.01582046 -14.89997218 123.61087461
v -24.01582046 -20.60123077 127.00000282
v -20.79238663 -23.99401547 123.18583468
v -24.01582046 -20.63462631 14.54359436
v -20.79238663 -23.99401547 21.91466782
v -24.01582046 -14.89997218 12.73158534
v -20.28164239 -14.89997218 113.98038235
v -24.01582046 -20.63462631 126.22822374
f 1 2 7
f 1 7 17
f 1 17 8
f 1 8 3
f 1 3 10
f 1 10 4
f 1 4 5
f 1 5 2
f 2 6 7
f 2 5 6
f 3 8 9
f 3 9 10
f 4 10 11
f 4 11 12
f 4 12 13
f 4 13 5
f 5 13 14
f 5 14 6
f 6 15 7
f 6 14 16
f 6 16 15
f 7 15 19
f 7 19 13
f 7 13 12
f 7 12 17
f 8 17 12
f 8 12 11
f 8 11 18
f 8 18 9
f 9 18 10
f 10 18 11
f 13 19 14
f 14 19 15
f 14 15 16

