# https://github.com/mikedh/trimesh
v 0.00007377 -31.74999954 127.00000282
v 4.51834347 -31.42631409 123.18582219
v 5.27560977 -31.28621048 124.32672277
v 5.27560977 -31.15508026 127.00000282
v 5.27560977 -24.70551238 120.64676134
v -0.00509540 -25.39981659 120.64676134
v -0.00509540 -31.74930946 126.98882413
v -0.00509540 -31.74861938 12.73103890
v 0.96616977 -31.73412612 12.73103890
v 4.51834347 -31.42631409 21.90298015
v 5.27560977 -31.28621048 19.17376608
v 5.27560977 -24.69999173 113.98032302
v -0.00509540 -25.01470613 113.98032302
v -0.00509540 -25.39912651 12.73103890
v 5.27560977 -31.18268662 12.73103890
v 5.27560977 -24.69999173 21.90298015
v -0.00509540 -25.01470613 21.90298015
v 5.27560977 -24.76417707 12.73103890
f 1 2 3
f 1 3 4
f 1 4 5
f 1 5 6
f 1 6 7
f 1 7 8
f 1 8 9
f 1 9 2
f 2 9 10
f 2 10 11
f 2 11 3
f 3 11 15
f 3 15 18
f 3 18 16
f 3 16 12
f 3 12 5
f 3 5 4
f 5 12 13
f 5 13 6
f 6 13 17
f 6 17 14
f 6 14 8
f 6 8 7
f 8 14 18
f 8 18 15
f 8 15 9
f 9 15 11
f 9 11 10
f 12 16 17
f 12 17 13
f 14 17 18
f 16 18 17

