# https://github.com/mikedh/trimesh
v -5.27276748 -31.28676941 124.31553160
v -5.27276748 -31.15573990 126.98882413
v -7.06517554 -30.95373508 127.00000282
v -7.05789847 -30.95464530 12.73103890
v -5.27276748 -31.28585919 19.18495414
v -12.70729559 -28.97918623 127.00000282
v -5.27276748 -25.96458855 121.89951125
v -12.70001852 -21.99729269 120.64676134
v -12.70729559 -22.04187942 120.69150107
v -12.70729559 -29.04379155 123.48782161
v -8.28267433 -30.64890820 12.73103890
v -5.27276748 -31.15573990 12.73103890
v -5.27276748 -24.70615406 120.64676134
v -12.70729559 -21.99183293 120.63557016
v -12.70729559 -29.05380085 21.00815433
v -12.70729559 -29.00284492 12.73103890
v -5.27276748 -24.70706428 12.73103890
v -5.27276748 -24.70069430 113.98032302
v -12.70729559 -21.99092271 113.98032302
v -12.70729559 -21.99183293 12.73103890
v -5.27276748 -24.70069430 20.95222967
v -12.70729559 -21.99092271 21.90298015
f 1 2 3
f 1 3 4
f 1 4 5
f 1 5 12
f 1 12 17
f 1 17 21
f 1 21 18
f 1 18 13
f 1 13 7
f 1 7 2
f 2 6 3
f 2 7 8
f 2 8 9
f 2 9 6
f 3 6 10
f 3 10 11
f 3 11 4
f 4 11 16
f 4 16 20
f 4 20 17
f 4 17 12
f 4 12 5
f 6 9 14
f 6 14 19
f 6 19 22
f 6 22 20
f 6 20 16
f 6 16 15
f 6 15 10
f 7 13 8
f 8 14 9
f 8 13 14
f 10 15 11
f 11 15 16
f 13 18 14
f 14 18 19
f 17 20 21
f 18 21 22
f 18 22 19
f 20 22 21

