# https://github.com/mikedh/trimesh
v 63.50000282 -8.20032878 12.69988534
v 63.50000282 -31.80720288 12.69988534
v 63.50000282 -8.20032878 0.00123995
v 25.45744959 -8.20032878 12.73103890
v 28.61723360 -13.76236275 12.73103890
v 63.50000282 -31.80720288 0.00123995
v 28.60471847 -13.79009402 12.73103890
v 28.57343375 -13.84323962 12.73103890
v 24.83174910 -19.78886338 12.73103890
v 24.81297796 -19.81197172 12.73103890
v 19.80112121 -24.81942102 12.73103890
v 19.36313212 -25.16141391 12.73103890
v 13.77563229 -28.60446914 12.73103890
v 10.19037120 -30.06950013 12.73103890
v 10.15908648 -30.07874362 12.73103890
v 7.06187190 -30.95452665 12.73103890
v 0.96755599 -31.73325805 12.73103890
v -0.01479459 -31.74712290 12.73103890
v -0.41524140 -31.80720288 12.69988534
v -0.41524140 -8.20032878 0.00123995
v 23.86191366 -8.20032878 12.73103890
v -0.41524140 -31.80720288 0.00123995
v -0.41524140 -25.71831238 12.73103890
v -0.41524140 -31.70090699 12.72854711
v -0.41524140 -8.20032878 12.69988534
v -0.41524140 -25.34396687 12.73103890
f 1 2 6
f 1 6 3
f 1 3 20
f 1 20 25
f 1 25 21
f 1 21 4
f 1 4 5
f 1 5 2
f 2 5 7
f 2 7 8
f 2 8 9
f 2 9 10
f 2 10 11
f 2 11 12
f 2 12 13
f 2 13 14
f 2 14 15
f 2 15 16
f 2 16 17
f 2 17 18
f 2 18 19
f 2 19 22
f 2 22 6
f 3 6 22
f 3 22 20
f 4 21 26
f 4 26 23
f 4 23 18
f 4 18 17
f 4 17 16
f 4 16 15
f 4 15 14
f 4 14 13
f 4 13 12
f 4 12 11
f 4 11 10
f 4 10 9
f 4 9 8
f 4 8 7
f 4 7 5
f 18 23 24
f 18 24 19
f 19 24 23
f 19 23 26
f 19 26 25
f 19 25 20
f 19 20 22
f 21 25 26

