# https://github.com/mikedh/trimesh
v 25.42547323 0.03792041 21.98421299
v 25.39355465 0.03792041 21.98421299
v 31.74455258 0.03587515 21.98421299
v 31.74377507 0.03792041 21.89906449
v 25.39355465 0.03792041 12.77180676
v 23.79685246 -8.35710207 12.73104202
v 23.79685246 -8.81132836 21.98421299
v 31.75000141 -0.00095519 21.98421299
v 31.74533009 0.03792041 21.85014993
v 25.39433372 0.03792041 12.73104202
v 23.79685246 -20.82175067 12.73104202
v 23.79685246 -20.52507205 21.98421299
v 30.95203985 -7.07216816 12.73104202
v 31.75000141 -0.00095519 12.73104202
v 30.46314089 -8.94636878 21.98421299
v 31.74533009 0.03792041 12.73104202
v 24.80968056 -19.80894754 12.73104202
v 23.79685246 -20.86267310 15.04184532
v 24.82992086 -19.78644185 12.73104202
v 26.65550199 -17.22680971 21.98421299
v 30.46314089 -8.94636878 21.89906449
v 28.61109157 -13.75872187 12.73104202
v 30.42888665 -9.02207160 21.98421299
v 28.59863576 -13.78736804 12.73104202
v 28.57294664 -13.84056673 12.73104202
v 26.70999653 -17.16338159 21.89906449
v 26.70999653 -17.16338159 21.98421299
f 1 2 7
f 1 7 12
f 1 12 20
f 1 20 27
f 1 27 23
f 1 23 15
f 1 15 8
f 1 8 3
f 1 3 4
f 1 4 9
f 1 9 16
f 1 16 10
f 1 10 5
f 1 5 2
f 2 5 6
f 2 6 7
f 3 8 9
f 3 9 4
f 5 10 6
f 6 10 16
f 6 16 14
f 6 14 13
f 6 13 22
f 6 22 24
f 6 24 25
f 6 25 19
f 6 19 17
f 6 17 11
f 6 11 18
f 6 18 12
f 6 12 7
f 8 13 14
f 8 14 16
f 8 16 9
f 8 15 13
f 11 17 18
f 12 18 19
f 12 19 20
f 13 15 21
f 13 21 22
f 15 23 24
f 15 24 22
f 15 22 21
f 17 19 18
f 19 25 26
f 19 26 27
f 19 27 20
f 23 27 24
f 24 27 25
f 25 27 26

