# https://github.com/mikedh/trimesh
v 23.79685402 -20.86346778 126.03041718
v 24.82354932 -19.79457918 127.00000282
v 23.79685402 -20.82198330 127.00000282
v 23.79685402 -20.52606814 110.12728553
v 26.71004961 -17.16453693 123.19600167
v 28.60570519 -13.77673267 127.00000282
v 24.30456783 -19.94115426 110.12728553
v 26.71004961 -17.16453693 110.12728553
v 30.99006300 -6.73839691 127.00000282
v 24.46653077 -6.73839691 120.64899083
v 23.79685402 -8.35624649 120.64899083
v 23.79685402 -8.81117848 110.12728553
v 30.95344499 -7.06611356 127.00000282
v 28.28389638 -13.71865658 110.12728553
v 30.46333449 -8.94530711 110.12728553
v 30.46333449 -8.94530711 123.19600167
v 30.99006300 -6.73839691 126.82326090
v 24.21232024 -6.73839691 115.48228584
v 24.21232024 -6.73839691 110.12728553
v 30.78092162 -6.73839691 110.12728553
f 1 2 3
f 1 3 11
f 1 11 12
f 1 12 4
f 1 4 2
f 2 5 6
f 2 6 13
f 2 13 9
f 2 9 3
f 2 4 7
f 2 7 8
f 2 8 5
f 3 9 10
f 3 10 11
f 4 12 19
f 4 19 20
f 4 20 15
f 4 15 14
f 4 14 8
f 4 8 7
f 5 8 6
f 6 8 14
f 6 14 15
f 6 15 16
f 6 16 13
f 9 13 17
f 9 17 20
f 9 20 19
f 9 19 18
f 9 18 10
f 10 18 11
f 11 18 19
f 11 19 12
f 13 16 15
f 13 15 20
f 13 20 17

