# https://github.com/mikedh/trimesh
v -0.42149896 -8.20032878 12.69988534
v -0.42149896 -25.34396687 12.73103890
v -0.42149896 -8.20032878 0.00123995
v -25.45284697 -8.20032878 12.73103890
v -0.42149896 -25.71831238 12.73103890
v -0.42149896 -31.80720288 0.00123995
v -63.50000282 -8.20032878 0.00123995
v -30.55914334 -8.20032878 12.73103890
v -7.05906630 -30.95452665 12.73103890
v -0.42149896 -31.70090699 12.72854711
v -0.42149896 -31.80720288 12.69988534
v -63.50000282 -31.80720288 0.00123995
v -63.50000282 -8.20032878 12.69988534
v -28.61418288 -13.76236275 12.73103890
v -63.50000282 -31.80720288 12.69988534
v -8.28778827 -30.64719393 12.73103890
v -26.71861473 -17.16151275 12.73103890
v -13.77690316 -28.60446914 12.73103890
v -17.50011487 -26.49242087 12.73103890
v -19.80319769 -24.81942102 12.73103890
v -24.81070163 -19.81197172 12.73103890
v -24.82922453 -19.78886338 12.73103890
f 1 2 5
f 1 5 10
f 1 10 11
f 1 11 6
f 1 6 3
f 1 3 7
f 1 7 13
f 1 13 8
f 1 8 4
f 1 4 2
f 2 4 8
f 2 8 14
f 2 14 17
f 2 17 22
f 2 22 21
f 2 21 20
f 2 20 19
f 2 19 18
f 2 18 16
f 2 16 9
f 2 9 5
f 3 6 12
f 3 12 7
f 5 9 10
f 6 11 15
f 6 15 12
f 7 12 15
f 7 15 13
f 8 13 15
f 8 15 14
f 9 16 15
f 9 15 10
f 10 15 11
f 14 15 17
f 15 16 18
f 15 18 19
f 15 19 20
f 15 20 21
f 15 21 22
f 15 22 17
