# https://github.com/mikedh/trimesh
v 23.78275263 20.54342695 21.92430397
v 23.77494941 20.88630664 15.12768078
v 23.77494941 20.55159551 21.89910508
v 23.77494941 19.02495527 21.92430397
v 26.71044305 17.16360390 21.92430397
v 24.82991617 19.78623013 12.73104515
v 23.77494941 20.88630664 15.09348274
v 24.80962904 19.80868118 12.73104515
v 23.77494941 8.85077912 21.92430397
v 28.61125706 13.75928142 12.73104515
v 28.57302158 13.84092331 12.73104515
v 26.71044305 17.16360390 21.89910508
v 30.46369046 8.94670350 21.92430397
v 23.77494941 20.84344668 12.73104515
v 23.77494941 8.41197193 12.73104515
v 25.39407455 0.03792353 21.92430397
v 30.46369046 8.94670350 21.89910508
v 30.95137787 7.07310553 12.73104515
v 31.74416538 0.03792353 21.92430397
v 30.95606168 7.04248905 12.73104515
v 25.39407455 0.03792353 12.73104515
v 31.74572353 0.03792353 21.84960661
v 31.74572353 0.03792353 12.73104515
f 1 2 3
f 1 3 4
f 1 4 9
f 1 9 16
f 1 16 19
f 1 19 13
f 1 13 5
f 1 5 6
f 1 6 2
f 2 7 14
f 2 14 15
f 2 15 9
f 2 9 4
f 2 4 3
f 2 6 8
f 2 8 7
f 5 10 11
f 5 11 12
f 5 12 6
f 5 13 10
f 6 12 11
f 6 11 10
f 6 10 18
f 6 18 20
f 6 20 23
f 6 23 21
f 6 21 15
f 6 15 14
f 6 14 8
f 7 8 14
f 9 15 16
f 10 13 17
f 10 17 18
f 13 19 20
f 13 20 18
f 13 18 17
f 15 21 16
f 16 21 23
f 16 23 22
f 16 22 19
f 19 22 20
f 20 22 23
