# https://github.com/mikedh/trimesh
v 23.77417034 14.51579753 123.19394079
v 23.77417034 20.84423356 127.00000282
v 23.77417034 20.55255725 123.19394079
v 27.10690863 6.76768069 123.19394079
v 24.82341817 19.79502319 127.00000282
v 23.77417034 20.88846744 126.01011444
v 30.98757121 6.76768069 126.99925965
v 30.95367918 7.06627030 127.00000282
v 26.70867569 17.16577719 123.19394079
v 29.44618011 6.76768069 123.19394079
v 26.71008708 17.16439703 123.19655124
v 28.60522744 13.77623680 127.00000282
v 30.77645015 6.76768069 123.19655124
v 30.46365299 8.94627571 123.19655124
v 30.46294730 8.94765900 123.19394079
f 1 2 6
f 1 6 3
f 1 3 9
f 1 9 15
f 1 15 10
f 1 10 4
f 1 4 2
f 2 5 6
f 2 4 7
f 2 7 8
f 2 8 12
f 2 12 5
f 3 6 9
f 4 10 13
f 4 13 7
f 5 11 9
f 5 9 6
f 5 12 11
f 7 13 8
f 8 13 14
f 8 14 12
f 9 11 15
f 10 15 13
f 11 12 15
f 12 14 15
f 13 15 14

