# https://github.com/mikedh/trimesh
v -12.69270007 29.02582742 113.66713554
v -12.69408570 29.04842211 123.48782161
v -12.69408570 28.98301117 127.00000282
v -12.69270007 22.24974429 113.66713554
v -12.69270007 29.02582742 22.09313025
v -12.69408570 29.06031273 20.97459954
v -13.19165984 28.87955523 123.18582219
v -13.77793984 28.60484680 127.00000282
v -26.63172074 16.91260178 127.00000282
v -12.69408570 22.00239553 120.63557016
v -12.69270007 22.00239553 104.77482697
v -12.69270007 24.49615460 22.09313025
v -12.69408570 29.00679867 12.73103890
v -13.77655343 28.60603960 12.73103890
v -13.19165984 28.87955523 21.90298015
v -19.79318684 24.82080491 127.00000282
v -17.47024779 26.50947366 12.73103890
v -24.82021445 19.79642209 127.00000282
v -26.85070747 16.91260178 123.47664293
v -26.82437199 16.91141521 113.66713554
v -18.76200132 16.91141521 113.66713554
v -18.76754539 16.91260178 120.63557016
v -12.69408570 22.00120272 113.96913809
v -12.69270007 22.00239553 31.13084607
v -12.69408570 22.00120272 12.73103890
v -20.78972154 23.99311991 123.18582219
v -19.79734450 24.81842554 12.73103890
v -26.70795127 17.16709490 104.77482697
v -26.70656486 17.16590209 123.18582219
v -24.80774147 19.81069209 12.73103890
v -24.82714492 19.78809740 12.73103890
v -26.85209388 16.91141521 12.73103890
v -18.76200132 16.91141521 20.95222967
v -18.76754539 16.91141521 12.73103890
v -20.78972154 23.99311991 21.90298015
v -26.70795127 17.16709490 22.09313025
v -26.71072096 17.16233615 12.73103890
f 1 2 3
f 1 3 4
f 1 4 11
f 1 11 24
f 1 24 12
f 1 12 5
f 1 5 6
f 1 6 2
f 2 7 8
f 2 8 3
f 2 6 7
f 3 8 16
f 3 16 18
f 3 18 9
f 3 9 10
f 3 10 4
f 4 10 11
f 5 12 25
f 5 25 13
f 5 13 6
f 6 13 14
f 6 14 15
f 6 15 7
f 7 15 14
f 7 14 8
f 8 14 17
f 8 17 16
f 9 18 19
f 9 19 20
f 9 20 21
f 9 21 22
f 9 22 10
f 10 22 21
f 10 21 23
f 10 23 11
f 11 23 25
f 11 25 24
f 12 24 25
f 13 25 34
f 13 34 32
f 13 32 37
f 13 37 31
f 13 31 30
f 13 30 27
f 13 27 17
f 13 17 14
f 16 26 18
f 16 17 27
f 16 27 26
f 18 28 29
f 18 29 19
f 18 26 30
f 18 30 31
f 18 31 28
f 19 29 28
f 19 28 32
f 19 32 20
f 20 32 34
f 20 34 33
f 20 33 21
f 21 33 25
f 21 25 23
f 25 33 34
f 26 27 35
f 26 35 30
f 27 30 35
f 28 31 36
f 28 36 37
f 28 37 32
f 31 37 36

