# https://github.com/mikedh/trimesh
v -25.62918295 0.00243276 21.86961271
v -31.74924575 0.00243276 21.16024693
v -31.74924575 -0.00160780 21.86961271
v -25.40057880 -0.00160780 21.86961271
v -25.39982158 0.00243276 12.73104202
v -31.74924575 0.00243276 12.73104202
v -31.74924575 -0.00160780 12.73104202
v -31.74697567 -0.02383091 21.86961271
v -24.02138794 -7.81963827 21.86961271
v -24.01684621 -7.82569912 12.73104202
v -30.95594615 -7.04389670 12.73104202
v -30.46543284 -8.94082939 21.86961271
v -24.01684621 -7.84590194 21.86961271
v -24.01684621 -20.60121047 12.73104202
v -30.95140597 -7.07217753 12.73104202
v -28.61086674 -13.75891859 12.73104202
v -30.45710503 -8.96103222 21.86961271
v -24.01684621 -20.27394503 21.86961271
v -24.01684621 -20.63353342 14.53979111
v -24.80938861 -19.80930663 12.73104202
v -26.71315654 -17.15885235 12.73104202
v -26.70407307 -17.17299276 21.86961271
v -24.82982718 -19.78708509 12.73104202
v -24.01684621 -20.63353342 14.57646845
f 1 2 3
f 1 3 8
f 1 8 12
f 1 12 17
f 1 17 22
f 1 22 18
f 1 18 13
f 1 13 9
f 1 9 4
f 1 4 5
f 1 5 6
f 1 6 2
f 2 6 7
f 2 7 3
f 3 7 8
f 4 9 10
f 4 10 5
f 5 10 14
f 5 14 20
f 5 20 23
f 5 23 21
f 5 21 16
f 5 16 15
f 5 15 11
f 5 11 7
f 5 7 6
f 7 11 8
f 8 11 12
f 9 13 10
f 10 13 18
f 10 18 24
f 10 24 19
f 10 19 14
f 11 15 12
f 12 15 16
f 12 16 17
f 14 19 20
f 16 21 22
f 16 22 17
f 18 22 23
f 18 23 24
f 19 24 20
f 20 24 23
f 21 23 22

