# https://github.com/mikedh/trimesh
v -0.00509520 -31.74963577 126.98772500
v -0.00509520 -25.39933260 120.64572466
v -5.27276709 -24.70585742 120.64572466
v -5.27276709 -25.96446364 121.89846207
v -5.27276709 -31.15552366 126.99890993
v -4.51840124 -31.42670363 123.19594546
v -4.51840124 -31.42670363 21.90289272
v -0.01540778 -31.74825560 12.73104202
v -0.00509520 -31.74825560 12.73104202
v -0.00509520 -25.01429864 113.97935503
v -5.27276709 -24.70033677 113.97935503
v -5.27276709 -31.28662890 124.31446369
v -5.27276709 -31.28662890 19.18489481
v -5.27276709 -31.15621374 12.73104202
v -0.00509520 -25.39933260 12.73104202
v -0.00509520 -25.01429864 21.90289272
v -5.27276709 -24.70033677 20.95215161
v -5.27276709 -24.70654750 12.73104202
v -0.00509520 -25.39795244 12.75341189
f 1 2 3
f 1 3 4
f 1 4 5
f 1 5 6
f 1 6 7
f 1 7 8
f 1 8 9
f 1 9 15
f 1 15 19
f 1 19 16
f 1 16 10
f 1 10 2
f 2 10 3
f 3 11 17
f 3 17 18
f 3 18 14
f 3 14 13
f 3 13 12
f 3 12 5
f 3 5 4
f 3 10 11
f 5 12 6
f 6 12 13
f 6 13 7
f 7 13 14
f 7 14 8
f 8 14 18
f 8 18 15
f 8 15 9
f 10 16 17
f 10 17 11
f 15 18 19
f 16 19 18
f 16 18 17
