# https://github.com/mikedh/trimesh
v 23.79685246 -20.52505332 21.98511853
v 23.79685246 -8.81130650 21.98511853
v 26.70999653 -17.16532693 21.98511853
v 24.30443356 -19.94127916 110.12563371
v 23.79685246 -20.52505332 110.12563371
v 25.39355465 0.03792041 21.98511853
v 23.79685246 -8.81130650 110.12563371
v 30.42888665 -9.02267112 21.98511853
v 26.70999653 -17.16532693 110.12563371
v 25.42547323 0.03792041 21.98511853
v 25.39355465 0.03792041 110.12563371
v 30.46314089 -8.94617830 21.98511853
v 30.46314089 -8.94617830 110.12563371
v 31.74377507 0.03792041 31.07008147
v 31.74455258 0.03590637 21.98511853
v 31.74377507 0.03792041 110.12563371
v 31.75000141 -0.00032756 21.98511853
v 31.75000141 -0.00032756 110.12563371
v 31.74766575 0.01577537 110.12563371
f 1 2 6
f 1 6 10
f 1 10 15
f 1 15 17
f 1 17 12
f 1 12 8
f 1 8 3
f 1 3 4
f 1 4 5
f 1 5 7
f 1 7 2
f 2 7 11
f 2 11 6
f 3 8 9
f 3 9 4
f 4 9 13
f 4 13 18
f 4 18 19
f 4 19 16
f 4 16 11
f 4 11 7
f 4 7 5
f 6 11 16
f 6 16 14
f 6 14 10
f 8 12 13
f 8 13 9
f 10 14 15
f 12 17 18
f 12 18 13
f 14 16 15
f 15 16 19
f 15 19 17
f 17 19 18
