# https://github.com/mikedh/trimesh
v 5.27560977 24.69998766 20.94104474
v -0.00509540 25.01470205 21.90298015
v 5.27560977 24.76417456 12.73103890
v 5.27560977 24.69998766 113.98032302
v -0.00509540 25.20587634 15.79581031
v -0.00509540 25.01470205 113.98032302
v -0.00509540 25.39843080 12.73103890
v 5.27560977 31.18268333 12.73103890
v 5.27560977 24.70550831 120.64676134
v -0.00509540 25.39981096 120.63557016
v -0.00509540 31.74861218 12.73103890
v 0.96616977 31.73412361 12.73103890
v 5.27560977 31.28620797 19.17376608
v 5.27560977 25.96022541 121.89951125
v 0.00007377 31.74999235 127.00000282
v 0.00007377 25.40050416 120.64676134
v -0.00509540 25.40464465 120.64676134
v 0.01558088 31.74861218 12.73103890
v -0.00509540 31.74930539 126.98882413
v 4.51834347 31.42631002 21.90298015
v 4.51834347 31.42631002 123.18582219
v 5.27560977 31.28620797 124.32672277
v 5.27560977 31.15507385 127.00000282
f 1 2 3
f 1 3 8
f 1 8 13
f 1 13 22
f 1 22 23
f 1 23 14
f 1 14 9
f 1 9 4
f 1 4 6
f 1 6 2
f 2 5 3
f 2 6 10
f 2 10 17
f 2 17 19
f 2 19 11
f 2 11 7
f 2 7 5
f 3 5 7
f 3 7 11
f 3 11 18
f 3 18 12
f 3 12 8
f 4 9 6
f 6 9 10
f 8 12 13
f 9 14 15
f 9 15 16
f 9 16 10
f 10 16 17
f 11 19 15
f 11 15 18
f 12 20 13
f 12 18 15
f 12 15 21
f 12 21 20
f 13 20 21
f 13 21 22
f 14 23 15
f 15 19 17
f 15 17 16
f 15 23 22
f 15 22 21
