# https://github.com/mikedh/trimesh
v 63.48757511 63.50000000 12.69988534
v 0.95722399 31.72754754 12.73103890
v 7.04864951 30.94849920 12.73103890
v 7.08594433 30.94147973 12.73103890
v 10.18138297 30.06417759 12.73103890
v 13.77408038 28.60434719 12.73103890
v 19.38067922 25.15127564 12.73103890
v 19.79091831 24.82141068 12.73103890
v 24.82566796 19.78919029 12.73103890
v 28.56754152 13.84457668 12.73103890
v 28.60483712 13.76035557 12.73103890
v 30.95438800 7.04371308 12.73103890
v 31.73757058 0.00422510 12.73103890
v 63.48757511 -8.20032254 12.69988534
v 63.48757511 63.50000000 0.00123995
v -63.48757511 63.50000000 12.69988534
v 0.01243148 31.74860594 12.73103890
v 31.73757058 -0.02384964 12.73103890
v 63.48757511 -8.20032254 0.00123995
v 30.94195717 -7.07035709 12.73103890
v 25.44724201 -8.20032254 12.73103890
v -63.48757511 63.50000000 0.00123995
v -63.48757511 -8.20032254 12.69988534
v -31.73757058 0.03229984 12.73103890
v -30.94195717 7.07880729 12.73103890
v -28.60483712 13.76035557 12.73103890
v -28.59240630 13.78842719 12.73103890
v -26.70282093 17.16429710 12.73103890
v -24.82566796 19.78919029 12.73103890
v -19.79091831 24.82141068 12.73103890
v -19.76605510 24.84246284 12.73103890
v -17.46623065 26.51285225 12.73103890
v -13.77408038 28.60434719 12.73103890
v -8.27936600 30.64670586 12.73103890
v -7.04864951 30.94849920 12.73103890
v -0.01243148 31.74860594 12.73103890
v -63.48757511 -8.20032254 0.00123995
v -30.55657973 -8.20032254 12.73103890
v -30.95438800 -7.03526288 12.73103890
v -31.73757058 0.00422510 12.73103890
f 1 2 3
f 1 3 4
f 1 4 5
f 1 5 6
f 1 6 7
f 1 7 8
f 1 8 9
f 1 9 10
f 1 10 11
f 1 11 12
f 1 12 13
f 1 13 18
f 1 18 14
f 1 14 19
f 1 19 15
f 1 15 22
f 1 22 16
f 1 16 36
f 1 36 17
f 1 17 2
f 2 17 36
f 2 36 35
f 2 35 34
f 2 34 33
f 2 33 32
f 2 32 31
f 2 31 30
f 2 30 29
f 2 29 28
f 2 28 27
f 2 27 26
f 2 26 25
f 2 25 24
f 2 24 40
f 2 40 39
f 2 39 38
f 2 38 21
f 2 21 20
f 2 20 18
f 2 18 13
f 2 13 12
f 2 12 11
f 2 11 10
f 2 10 9
f 2 9 8
f 2 8 7
f 2 7 6
f 2 6 5
f 2 5 4
f 2 4 3
f 14 18 20
f 14 20 21
f 14 21 38
f 14 38 23
f 14 23 37
f 14 37 19
f 15 19 37
f 15 37 22
f 16 22 37
f 16 37 23
f 16 23 40
f 16 40 24
f 16 24 25
f 16 25 26
f 16 26 27
f 16 27 28
f 16 28 29
f 16 29 30
f 16 30 31
f 16 31 32
f 16 32 33
f 16 33 34
f 16 34 35
f 16 35 36
f 23 38 39
f 23 39 40
