# https://github.com/mikedh/trimesh
v -24.01684621 -20.27465697 21.86961271
v -26.70407307 -17.17235733 21.86961271
v -24.01684621 -7.84561155 21.86961271
v -24.01684621 -20.27267103 116.20252117
v -26.71012767 -17.16441827 116.20252117
v -26.71012767 -17.16441827 21.90654922
v -30.45710503 -8.96108842 21.86961271
v -24.02138794 -7.81980689 21.86961271
v -24.01684621 -7.84561155 113.98639948
v -24.01684621 -8.16120026 116.20252117
v -27.61318763 -15.18752049 116.20252117
v -30.46543284 -8.93925563 21.86961271
v -30.46316275 -8.94521031 116.20252117
v -25.40057880 -0.00153911 21.86961271
v -25.39982158 0.00243276 21.89731275
v -25.39982158 0.00243276 116.20252117
v -31.74697567 -0.02337189 21.86961271
v -30.77275931 -6.79364711 116.20252117
v -31.74924575 -0.00153911 113.98639948
v -25.62918295 0.00243276 21.86961271
v -29.63958389 0.00243276 116.20252117
v -31.74924575 -0.00153911 21.86961271
v -31.74924575 0.00044683 116.20252117
v -31.74924575 0.00243276 21.90654922
v -31.74924575 0.00243276 113.98639948
f 1 2 7
f 1 7 12
f 1 12 17
f 1 17 22
f 1 22 20
f 1 20 14
f 1 14 8
f 1 8 3
f 1 3 9
f 1 9 10
f 1 10 4
f 1 4 5
f 1 5 2
f 2 6 7
f 2 5 6
f 3 8 9
f 4 10 16
f 4 16 21
f 4 21 23
f 4 23 18
f 4 18 13
f 4 13 11
f 4 11 5
f 5 11 6
f 6 11 7
f 7 11 13
f 7 13 12
f 8 14 15
f 8 15 16
f 8 16 9
f 9 16 10
f 12 13 18
f 12 18 19
f 12 19 17
f 14 20 15
f 15 20 24
f 15 24 25
f 15 25 21
f 15 21 16
f 17 19 22
f 18 23 19
f 19 23 25
f 19 25 24
f 19 24 22
f 20 22 24
f 21 25 23
