# https://github.com/mikedh/trimesh
v -5.26331829 24.70377842 21.90288960
v -5.26331829 24.70791890 12.73103890
v -0.00509520 25.01414000 21.90288960
v -5.26331829 24.70377842 105.72468128
v -0.00509520 25.39829340 12.73103890
v -0.00509520 25.20587010 15.79577909
v -5.26331829 31.15719093 12.73103890
v -0.00509520 25.01414000 113.97935191
v -5.26331829 24.70446538 113.97935191
v -0.00509520 31.74825622 12.73103890
v -5.26331829 31.28823762 19.21844648
v -0.01538924 31.74825622 12.73103890
v -0.00509520 25.39967357 120.63453348
v -5.26331829 24.70860586 120.64572466
v -0.00509520 31.74963638 126.98772500
v -4.51802575 31.42617263 21.90288960
v -5.26331829 31.28823762 124.30327876
v -0.00509520 25.40450101 120.64572466
v -5.26331829 31.15650397 126.99890368
v -4.51802575 31.42617263 123.19593922
f 1 2 3
f 1 3 8
f 1 8 4
f 1 4 9
f 1 9 14
f 1 14 19
f 1 19 17
f 1 17 11
f 1 11 7
f 1 7 2
f 2 5 6
f 2 6 3
f 2 7 12
f 2 12 10
f 2 10 5
f 3 6 5
f 3 5 10
f 3 10 15
f 3 15 18
f 3 18 13
f 3 13 8
f 4 8 9
f 7 11 12
f 8 13 14
f 8 14 9
f 10 12 15
f 11 16 12
f 11 17 20
f 11 20 16
f 12 16 15
f 13 18 14
f 14 18 15
f 14 15 19
f 15 16 20
f 15 20 17
f 15 17 19
