# https://github.com/mikedh/trimesh
v -12.69131756 22.00020351 21.90298015
v -12.69131756 22.00111529 12.73103890
v -5.26331868 24.70414688 21.90298015
v -12.69131756 22.00020351 113.96913809
v -12.69131756 29.00827251 12.73103890
v -5.26331868 24.70778776 12.73103890
v -5.26331868 24.70414688 113.98032302
v -12.69131756 22.00111529 120.64676134
v -8.28221532 30.64845448 12.73103890
v -12.69131756 29.06009415 20.97459954
v -5.26331868 31.15669757 12.73103890
v -5.26331868 24.70869329 120.64676134
v -5.26331868 31.15669757 126.98882413
v -12.69131756 28.98462865 127.00000282
v -8.25313200 30.65754732 12.73103890
v -12.69131756 29.04918401 123.49901279
v -7.06505923 30.95394490 127.00000282
v -7.05778840 30.95485668 12.73103890
v -5.26331868 31.28761935 19.21850893
v -5.26331868 31.28761935 124.30435291
f 1 2 3
f 1 3 7
f 1 7 4
f 1 4 8
f 1 8 14
f 1 14 16
f 1 16 10
f 1 10 5
f 1 5 2
f 2 5 9
f 2 9 15
f 2 15 18
f 2 18 11
f 2 11 6
f 2 6 3
f 3 6 11
f 3 11 19
f 3 19 20
f 3 20 13
f 3 13 12
f 3 12 7
f 4 7 8
f 5 10 9
f 7 12 8
f 8 12 13
f 8 13 14
f 9 10 16
f 9 16 17
f 9 17 15
f 11 18 19
f 13 20 17
f 13 17 14
f 14 17 16
f 15 17 18
f 17 20 19
f 17 19 18

