mtllib material.mtl
usemtl mtl_receptacle
v -63.50000000 -54.42856979 0.00000000
v -56.09166718 -63.50000000 0.00000000
v -63.50000000 -63.50000000 0.00000000
v -63.50000000 -63.50000000 12.69999981
v -63.50000000 -54.42856979 12.69999981
v -54.30041122 -63.50000000 0.00000000
v -56.09166718 -63.50000000 12.69999981
v -54.30041122 -54.42856979 0.00000000
v -48.68333435 -63.50000000 0.00000000
v -54.30041122 -63.50000000 12.69999981
v -63.50000000 -45.35714340 0.00000000
v -54.30041122 -45.35714340 0.00000000
v -45.09162140 -54.42856979 0.00000000
v -45.09162140 -63.50000000 0.00000000
v -63.50000000 -36.28571320 0.00000000
v -54.30041122 -36.28571320 0.00000000
v -45.09162140 -45.35714340 0.00000000
v -63.50000000 -27.21428490 0.00000000
v -54.30041122 -27.21428490 0.00000000
v -45.09162140 -36.28571320 0.00000000
v -63.50000000 -18.14285660 0.00000000
v -54.30041122 -18.14285660 0.00000000
v -45.09162140 -27.21428490 0.00000000
v -63.50000000 -9.07142830 0.00000000
v -54.30041122 -9.07142830 0.00000000
v -45.09162140 -18.14285660 0.00000000
v -63.50000000 -0.00000000 0.00000000
v -54.30041122 -0.00000000 0.00000000
v -45.09162140 -9.07142830 0.00000000
v -63.50000000 9.07142830 0.00000000
v -54.30041122 9.07142830 0.00000000
v -45.09162140 -0.00000000 0.00000000
v -63.50000000 18.14285660 0.00000000
v -54.30041122 18.14285660 0.00000000
v -45.09162140 9.07142830 0.00000000
v -63.50000000 27.21428490 0.00000000
v -54.30041122 27.21428490 0.00000000
v -45.09162140 18.14285660 0.00000000
v -63.50000000 36.28571320 0.00000000
v -54.30041122 36.28571320 0.00000000
v -45.09162140 27.21428490 0.00000000
v -63.50000000 45.35714340 0.00000000
v -54.30041122 45.35714340 0.00000000
v -45.09162140 36.28571320 0.00000000
v -63.50000000 54.42856979 0.00000000
v -54.30041122 54.42856979 0.00000000
v -45.09162140 45.35714340 0.00000000
v -54.42856979 63.50000000 0.00000000
v -54.30041122 63.50000000 0.00000000
v -45.09162140 54.42856979 0.00000000
v -63.50000000 63.50000000 0.00000000
v -54.30041122 63.50000000 12.69999981
v -45.35714340 63.50000000 0.00000000
v -45.35714340 63.50000000 12.69999981
v -54.42856979 63.50000000 12.69999981
v -63.50000000 63.50000000 12.69999981
v -63.50000000 54.42856979 12.69999981
v -63.50000000 45.35714340 12.69999981
v -63.50000000 36.28571320 12.69999981
v -63.50000000 27.21428490 12.69999981
v -63.50000000 18.14285660 12.69999981
v -63.50000000 9.07142830 12.69999981
v -63.50000000 -0.00000000 12.69999981
v -63.50000000 -9.07142830 12.69999981
v -63.50000000 -18.14285660 12.69999981
v -63.50000000 -27.21428490 12.69999981
v -63.50000000 -36.28571320 12.69999981
v -63.50000000 -45.35714340 12.69999981
v -48.68333435 -63.50000000 12.69999981
v -41.27500153 -63.50000000 0.00000000
v -45.09162140 -63.50000000 12.69999981
v -35.88283157 -45.83043289 0.00000000
v -35.88283157 -54.94130325 0.00000000
v -35.88283157 -36.71956635 0.00000000
v -35.88283157 -27.60869598 0.00000000
v -35.88283157 -18.49782562 0.00000000
v -35.88283157 -9.38695621 0.00000000
v -35.88283157 -0.27608696 0.00000000
v -35.88283157 8.83478260 0.00000000
v -35.88283157 17.94565201 0.00000000
v -35.88283157 27.05652237 0.00000000
v -35.88283157 36.16739273 0.00000000
v -35.88283157 45.27825928 0.00000000
v -35.88283157 54.38912964 0.00000000
v -45.09162140 63.50000000 0.00000000
v -45.09162140 63.50000000 12.69999981
v -36.28571320 63.50000000 0.00000000
v -36.28571320 63.50000000 12.69999981
v -35.88283157 -64.05217743 0.00000000
v -41.27500153 -72.67222595 0.00000000
v -41.27500153 -63.50000000 12.69999981
v -35.88283157 -73.16304016 0.00000000
v -41.27500153 -81.84444427 0.00000000
v -41.27500153 -72.67222595 12.69999981
v -35.88283157 -82.27391052 0.00000000
v -41.27500153 -91.01667023 0.00000000
v -41.27500153 -81.84444427 12.69999981
v -35.88283157 -91.38478088 0.00000000
v -41.27500153 -100.18888855 0.00000000
v -41.27500153 -91.01667023 12.69999981
v -35.88283157 -100.49565125 0.00000000
v -41.27500153 -109.36111450 0.00000000
v -41.27500153 -100.18888855 12.69999981
v -35.88283157 -109.60652161 0.00000000
v -41.27500153 -118.53333282 0.00000000
v -41.27500153 -109.36111450 12.69999981
v -35.88283157 -118.71739197 0.00000000
v -41.27500153 -127.70555878 0.00000000
v -41.27500153 -118.53333282 12.69999981
v -35.88283157 -127.82826233 0.00000000
v -41.27500153 -136.87777710 0.00000000
v -41.27500153 -127.70555878 12.69999981
v -35.88283157 -146.05000305 0.00000000
v -41.27500153 -146.05000305 0.00000000
v -41.27500153 -136.87777710 12.69999981
v -35.88283157 -136.93913269 0.00000000
v -41.27500153 -146.05000305 12.69999981
v -32.10277939 -146.05000305 0.00000000
v -35.88283157 -146.05000305 12.69999981
v -26.67404175 -136.93913269 0.00000000
v -26.67404175 -146.05000305 0.00000000
v -26.67404175 -127.82826233 0.00000000
v -26.67404175 -118.71739197 0.00000000
v -26.67404175 -109.60652161 0.00000000
v -26.67404175 -100.49565125 0.00000000
v -26.67404175 -91.38478088 0.00000000
v -26.67404175 -82.27391052 0.00000000
v -26.67404175 -73.16304016 0.00000000
v -26.67404175 -64.05217743 0.00000000
v -26.67404175 -54.94130325 0.00000000
v -26.67404175 -45.83043289 0.00000000
v -26.67404175 -36.71956635 0.00000000
v -26.67404175 -27.60869598 0.00000000
v -26.67404175 -18.49782562 0.00000000
v -26.67404175 -9.38695621 0.00000000
v -26.67404175 -0.27608696 0.00000000
v -26.67404175 8.83478260 0.00000000
v -26.67404175 17.94565201 0.00000000
v -26.67404175 27.05652237 0.00000000
v -26.67404175 36.16739273 0.00000000
v -26.67404175 45.27825928 0.00000000
v -35.88283157 63.50000000 0.00000000
v -26.67404175 54.38912964 0.00000000
v -35.88283157 63.50000000 12.69999981
v -27.21428490 63.50000000 0.00000000
v -27.21428490 63.50000000 12.69999981
v -32.10277939 -146.05000305 12.69999981
v -22.93055534 -146.05000305 0.00000000
v -26.67404175 -146.05000305 12.69999981
v -17.46525192 -136.93913269 0.00000000
v -17.46525192 -146.05000305 0.00000000
v -17.46525192 -127.82826233 0.00000000
v -17.46525192 -118.71739197 0.00000000
v -17.46525192 -109.60652161 0.00000000
v -17.46525192 -100.49565125 0.00000000
v -17.46525192 -91.38478088 0.00000000
v -17.46525192 -82.27391052 0.00000000
v -17.46525192 -73.16304016 0.00000000
v -17.46525192 -64.05217743 0.00000000
v -17.46525192 -54.94130325 0.00000000
v -17.46525192 -45.83043289 0.00000000
v -17.46525192 -36.71956635 0.00000000
v -17.46525192 -27.60869598 0.00000000
v -17.46525192 -18.49782562 0.00000000
v -17.46525192 -9.38695621 0.00000000
v -17.46525192 -0.27608696 0.00000000
v -17.46525192 8.83478260 0.00000000
v -17.46525192 17.94565201 0.00000000
v -17.46525192 27.05652237 0.00000000
v -17.46525192 36.16739273 0.00000000
v -17.46525192 45.27825928 0.00000000
v -26.67404175 63.50000000 0.00000000
v -17.46525192 54.38912964 0.00000000
v -26.67404175 63.50000000 12.69999981
v -18.14285660 63.50000000 0.00000000
v -18.14285660 63.50000000 12.69999981
v -22.93055534 -146.05000305 12.69999981
v -13.75833321 -146.05000305 0.00000000
v -17.46525192 -146.05000305 12.69999981
v -8.25646210 -136.93913269 0.00000000
v -8.25646210 -146.05000305 0.00000000
v -8.25646210 -127.82826233 0.00000000
v -8.25646210 -118.71739197 0.00000000
v -8.25646210 -109.60652161 0.00000000
v -8.25646210 -100.49565125 0.00000000
v -8.25646210 -91.38478088 0.00000000
v -8.25646210 -82.27391052 0.00000000
v -8.25646210 -73.16304016 0.00000000
v -8.25646210 -64.05217743 0.00000000
v -8.25646210 -54.94130325 0.00000000
v -8.25646210 -45.83043289 0.00000000
v -8.25646210 -36.71956635 0.00000000
v -8.25646210 -27.60869598 0.00000000
v -8.25646210 -18.49782562 0.00000000
v -8.25646210 -9.38695621 0.00000000
v -8.25646210 -0.27608696 0.00000000
v -8.25646210 8.83478260 0.00000000
v -8.25646210 17.94565201 0.00000000
v -8.25646210 27.05652237 0.00000000
v -8.25646210 36.16739273 0.00000000
v -8.25646210 45.27825928 0.00000000
v -17.46525192 63.50000000 0.00000000
v -8.25646210 54.38912964 0.00000000
v -17.46525192 63.50000000 12.69999981
v -9.07142830 63.50000000 0.00000000
v -9.07142830 63.50000000 12.69999981
v -13.75833321 -146.05000305 12.69999981
v -4.58611107 -146.05000305 0.00000000
v -8.25646210 -146.05000305 12.69999981
v 0.95232755 -136.93913269 0.00000000
v 0.95232755 -146.05000305 0.00000000
v 0.95232755 -127.82826233 0.00000000
v 0.95232755 -118.71739197 0.00000000
v 0.95232755 -109.60652161 0.00000000
v 0.95232755 -100.49565125 0.00000000
v 0.95232755 -91.38478088 0.00000000
v 0.95232755 -82.27391052 0.00000000
v 0.95232755 -73.16304016 0.00000000
v 0.95232755 -64.05217743 0.00000000
v 0.95232755 -54.94130325 0.00000000
v 0.95232755 -45.83043289 0.00000000
v 0.95232755 -36.71956635 0.00000000
v 0.95232755 -27.60869598 0.00000000
v 0.95232755 -18.49782562 0.00000000
v 0.95232755 -9.38695621 0.00000000
v 0.95232755 -0.27608696 0.00000000
v 0.95232755 8.83478260 0.00000000
v 0.95232755 17.94565201 0.00000000
v 0.95232755 27.05652237 0.00000000
v 0.95232755 36.16739273 0.00000000
v 0.95232755 45.27825928 0.00000000
v -8.25646210 63.50000000 0.00000000
v 0.95232755 54.38912964 0.00000000
v -8.25646210 63.50000000 12.69999981
v 0.00000000 63.50000000 0.00000000
v 0.00000000 63.50000000 12.69999981
v -4.58611107 -146.05000305 12.69999981
v 4.58611107 -146.05000305 0.00000000
v 0.95232755 -146.05000305 12.69999981
v 10.16111755 -136.93913269 0.00000000
v 10.16111755 -146.05000305 0.00000000
v 10.16111755 -127.82826233 0.00000000
v 10.16111755 -118.71739197 0.00000000
v 10.16111755 -109.60652161 0.00000000
v 10.16111755 -100.49565125 0.00000000
v 10.16111755 -91.38478088 0.00000000
v 10.16111755 -82.27391052 0.00000000
v 10.16111755 -73.16304016 0.00000000
v 10.16111755 -64.05217743 0.00000000
v 10.16111755 -54.94130325 0.00000000
v 10.16111755 -45.83043289 0.00000000
v 10.16111755 -36.71956635 0.00000000
v 10.16111755 -27.60869598 0.00000000
v 10.16111755 -18.49782562 0.00000000
v 10.16111755 -9.38695621 0.00000000
v 10.16111755 -0.27608696 0.00000000
v 10.16111755 8.83478260 0.00000000
v 10.16111755 17.94565201 0.00000000
v 10.16111755 27.05652237 0.00000000
v 10.16111755 36.16739273 0.00000000
v 10.16111755 45.27825928 0.00000000
v 0.95232755 63.50000000 0.00000000
v 10.16111755 54.38912964 0.00000000
v 0.95232755 63.50000000 12.69999981
v 9.07142830 63.50000000 0.00000000
v 9.07142830 63.50000000 12.69999981
v 4.58611107 -146.05000305 12.69999981
v 13.75833321 -146.05000305 0.00000000
v 10.16111755 -146.05000305 12.69999981
v 19.36990738 -136.93913269 0.00000000
v 19.36990738 -146.05000305 0.00000000
v 19.36990738 -127.82826233 0.00000000
v 19.36990738 -118.71739197 0.00000000
v 19.36990738 -109.60652161 0.00000000
v 19.36990738 -100.49565125 0.00000000
v 19.36990738 -91.38478088 0.00000000
v 19.36990738 -82.27391052 0.00000000
v 19.36990738 -73.16304016 0.00000000
v 19.36990738 -64.05217743 0.00000000
v 19.36990738 -54.94130325 0.00000000
v 19.36990738 -45.83043289 0.00000000
v 19.36990738 -36.71956635 0.00000000
v 19.36990738 -27.60869598 0.00000000
v 19.36990738 -18.49782562 0.00000000
v 19.36990738 -9.38695621 0.00000000
v 19.36990738 -0.27608696 0.00000000
v 19.36990738 8.83478260 0.00000000
v 19.36990738 17.94565201 0.00000000
v 19.36990738 27.05652237 0.00000000
v 19.36990738 36.16739273 0.00000000
v 19.36990738 45.27825928 0.00000000
v 10.16111755 63.50000000 0.00000000
v 19.36990738 54.38912964 0.00000000
v 10.16111755 63.50000000 12.69999981
v 18.14285660 63.50000000 0.00000000
v 18.14285660 63.50000000 12.69999981
v 13.75833321 -146.05000305 12.69999981
v 22.93055534 -146.05000305 0.00000000
v 19.36990738 -146.05000305 12.69999981
v 28.57869720 -136.93913269 0.00000000
v 28.57869720 -146.05000305 0.00000000
v 28.57869720 -127.82826233 0.00000000
v 28.57869720 -118.71739197 0.00000000
v 28.57869720 -109.60652161 0.00000000
v 28.57869720 -100.49565125 0.00000000
v 28.57869720 -91.38478088 0.00000000
v 28.57869720 -82.27391052 0.00000000
v 28.57869720 -73.16304016 0.00000000
v 28.57869720 -64.05217743 0.00000000
v 28.57869720 -54.94130325 0.00000000
v 28.57869720 -45.83043289 0.00000000
v 28.57869720 -36.71956635 0.00000000
v 28.57869720 -27.60869598 0.00000000
v 28.57869720 -18.49782562 0.00000000
v 28.57869720 -9.38695621 0.00000000
v 28.57869720 -0.27608696 0.00000000
v 28.57869720 8.83478260 0.00000000
v 28.57869720 17.94565201 0.00000000
v 28.57869720 27.05652237 0.00000000
v 28.57869720 36.16739273 0.00000000
v 28.57869720 45.27825928 0.00000000
v 19.36990738 63.50000000 0.00000000
v 28.57869720 54.38912964 0.00000000
v 19.36990738 63.50000000 12.69999981
v 27.21428490 63.50000000 0.00000000
v 27.21428490 63.50000000 12.69999981
v 22.93055534 -146.05000305 12.69999981
v 32.10277939 -146.05000305 0.00000000
v 28.57869720 -146.05000305 12.69999981
v 37.78748703 -136.93913269 0.00000000
v 37.78748703 -146.05000305 0.00000000
v 37.78748703 -127.82826233 0.00000000
v 37.78748703 -118.71739197 0.00000000
v 37.78748703 -109.60652161 0.00000000
v 37.78748703 -100.49565125 0.00000000
v 37.78748703 -91.38478088 0.00000000
v 37.78748703 -82.27391052 0.00000000
v 37.78748703 -73.16304016 0.00000000
v 37.78748703 -64.05217743 0.00000000
v 37.78748703 -54.94130325 0.00000000
v 37.78748703 -45.83043289 0.00000000
v 37.78748703 -36.71956635 0.00000000
v 37.78748703 -27.60869598 0.00000000
v 37.78748703 -18.49782562 0.00000000
v 37.78748703 -9.38695621 0.00000000
v 37.78748703 -0.27608696 0.00000000
v 37.78748703 8.83478260 0.00000000
v 37.78748703 17.94565201 0.00000000
v 37.78748703 27.05652237 0.00000000
v 37.78748703 36.16739273 0.00000000
v 37.78748703 45.27825928 0.00000000
v 28.57869720 63.50000000 0.00000000
v 37.78748703 54.38912964 0.00000000
v 28.57869720 63.50000000 12.69999981
v 36.28571320 63.50000000 0.00000000
v 36.28571320 63.50000000 12.69999981
v 32.10277939 -146.05000305 12.69999981
v 41.27500153 -146.05000305 0.00000000
v 37.78748703 -146.05000305 12.69999981
v 41.27500153 -136.87777710 0.00000000
v 41.27500153 -127.70555878 0.00000000
v 41.27500153 -118.53333282 0.00000000
v 41.27500153 -109.36111450 0.00000000
v 41.27500153 -100.18888855 0.00000000
v 41.27500153 -91.01667023 0.00000000
v 41.27500153 -81.84444427 0.00000000
v 41.27500153 -72.67222595 0.00000000
v 41.27500153 -63.50000000 0.00000000
v 46.99627686 -54.42856979 0.00000000
v 46.99627686 -63.50000000 0.00000000
v 46.99627686 -45.35714340 0.00000000
v 46.99627686 -36.28571320 0.00000000
v 46.99627686 -27.21428490 0.00000000
v 46.99627686 -18.14285660 0.00000000
v 46.99627686 -9.07142830 0.00000000
v 46.99627686 -0.00000000 0.00000000
v 46.99627686 9.07142830 0.00000000
v 46.99627686 18.14285660 0.00000000
v 46.99627686 27.21428490 0.00000000
v 46.99627686 36.28571320 0.00000000
v 46.99627686 45.35714340 0.00000000
v 37.78748703 63.50000000 0.00000000
v 46.99627686 54.42856979 0.00000000
v 37.78748703 63.50000000 12.69999981
v 45.35714340 63.50000000 0.00000000
v 45.35714340 63.50000000 12.69999981
v 41.27500153 -146.05000305 12.69999981
v 41.27500153 -136.87777710 12.69999981
v 41.27500153 -127.70555878 12.69999981
v 41.27500153 -118.53333282 12.69999981
v 41.27500153 -109.36111450 12.69999981
v 41.27500153 -100.18888855 12.69999981
v 41.27500153 -91.01667023 12.69999981
v 41.27500153 -81.84444427 12.69999981
v 41.27500153 -72.67222595 12.69999981
v 41.27500153 -63.50000000 12.69999981
v 48.68333435 -63.50000000 0.00000000
v 46.99627686 -63.50000000 12.69999981
v 56.20506668 -54.42856979 0.00000000
v 56.09166718 -63.50000000 0.00000000
v 56.20506668 -63.50000000 0.00000000
v 56.20506668 -45.35714340 0.00000000
v 56.20506668 -36.28571320 0.00000000
v 56.20506668 -27.21428490 0.00000000
v 56.20506668 -18.14285660 0.00000000
v 56.20506668 -9.07142830 0.00000000
v 56.20506668 -0.00000000 0.00000000
v 56.20506668 9.07142830 0.00000000
v 56.20506668 18.14285660 0.00000000
v 56.20506668 27.21428490 0.00000000
v 56.20506668 36.28571320 0.00000000
v 56.20506668 45.35714340 0.00000000
v 46.99627686 63.50000000 0.00000000
v 56.20506668 54.42856979 0.00000000
v 46.99627686 63.50000000 12.69999981
v 54.42856979 63.50000000 0.00000000
v 54.42856979 63.50000000 12.69999981
v 48.68333435 -63.50000000 12.69999981
v 56.09166718 -63.50000000 12.69999981
v 63.50000000 -63.50000000 0.00000000
v 56.20506668 -63.50000000 12.69999981
v 63.50000000 -54.42856979 0.00000000
v 63.50000000 -45.35714340 0.00000000
v 63.50000000 -36.28571320 0.00000000
v 63.50000000 -27.21428490 0.00000000
v 63.50000000 -18.14285660 0.00000000
v 63.50000000 -9.07142830 0.00000000
v 63.50000000 -0.00000000 0.00000000
v 63.50000000 9.07142830 0.00000000
v 63.50000000 18.14285660 0.00000000
v 63.50000000 27.21428490 0.00000000
v 63.50000000 36.28571320 0.00000000
v 63.50000000 45.35714340 0.00000000
v 56.20506668 63.50000000 0.00000000
v 63.50000000 54.42856979 0.00000000
v 56.20506668 63.50000000 12.69999981
v 63.50000000 63.50000000 0.00000000
v 63.50000000 63.50000000 12.69999981
v 63.50000000 -63.50000000 12.69999981
v 63.50000000 -54.42856979 12.69999981
v 63.50000000 -45.35714340 12.69999981
v 63.50000000 -36.28571320 12.69999981
v 63.50000000 -27.21428490 12.69999981
v 63.50000000 -18.14285660 12.69999981
v 63.50000000 -9.07142830 12.69999981
v 63.50000000 -0.00000000 12.69999981
v 63.50000000 9.07142830 12.69999981
v 63.50000000 18.14285660 12.69999981
v 63.50000000 27.21428490 12.69999981
v 63.50000000 36.28571320 12.69999981
v 63.50000000 45.35714340 12.69999981
v 63.50000000 54.42856979 12.69999981
v 37.78748703 8.83478260 12.69999981
v 30.95374298 7.06582737 12.69999981
v 31.75000000 -0.00000000 12.69999981
v 31.75000000 0.00000000 21.89958954
v 37.78748703 -0.27608696 12.69999981
v 30.95374298 -7.06582737 12.69999981
v 30.46390152 -8.94500828 21.89958954
v 28.60531235 13.77649975 12.69999981
v 30.46390152 8.94500828 21.89958954
v 37.78748703 17.94565201 12.69999981
v 28.57953072 13.82991791 12.69999981
v 28.57869720 22.09904671 12.69999981
v 24.82282639 19.79596138 12.69999981
v 26.70979881 17.16534615 21.89958954
v 37.78748703 27.05652237 12.69999981
v 28.57869720 30.37923622 12.69999981
v 19.79596138 24.82282639 12.69999981
v 37.78748703 36.16739273 12.69999981
v 28.57869720 38.65942764 12.69999981
v 19.36990738 32.77243805 12.69999981
v 19.37779045 25.15062714 12.69999981
v 37.78748703 45.27825928 12.69999981
v 28.57869720 46.93961716 12.69999981
v 19.36990738 40.45433044 12.69999981
v 37.78748703 54.38912964 12.69999981
v 28.57869720 55.21981049 12.69999981
v 19.36990738 48.13621902 12.69999981
v 19.36990738 55.81811142 12.69999981
v 46.99627686 45.35714340 12.69999981
v 46.99627686 54.42856979 12.69999981
v 46.99627686 36.28571320 12.69999981
v 46.99627686 27.21428490 12.69999981
v 46.99627686 18.14285660 12.69999981
v 46.99627686 9.07142830 12.69999981
v 46.99627686 -0.00000000 12.69999981
v 37.78748703 -9.38695621 12.69999981
v 46.99627686 -9.07142830 12.69999981
v 28.57953072 -13.82991791 12.69999981
v 37.78748703 -18.49782562 12.69999981
v 46.99627686 -18.14285660 12.69999981
v 28.60531235 -13.77649975 12.69999981
v 28.57869720 -22.63426590 12.69999981
v 37.78748703 -27.60869598 12.69999981
v 46.99627686 -27.21428490 12.69999981
v 28.57869720 -31.44967461 12.69999981
v 37.78748703 -36.71956635 12.69999981
v 46.99627686 -36.28571320 12.69999981
v 28.57869720 -40.26508331 12.69999981
v 37.78748703 -45.83043289 12.69999981
v 46.99627686 -45.35714340 12.69999981
v 28.57869720 -49.08049393 12.69999981
v 37.78748703 -54.94130325 12.69999981
v 46.99627686 -54.42856979 12.69999981
v 28.57869720 -57.89590454 12.69999981
v 37.78748703 -64.05217743 12.69999981
v 28.57869720 -66.71131134 12.69999981
v 37.78748703 -73.16304016 12.69999981
v 28.57869720 -75.52672577 12.69999981
v 37.78748703 -82.27391052 12.69999981
v 28.57869720 -84.34213257 12.69999981
v 37.78748703 -91.38478088 12.69999981
v 28.57869720 -93.15753937 12.69999981
v 37.78748703 -100.49565125 12.69999981
v 28.57869720 -101.97295380 12.69999981
v 37.78748703 -109.60652161 12.69999981
v 28.57869720 -110.78836060 12.69999981
v 37.78748703 -118.71739197 12.69999981
v 28.57869720 -119.60376740 12.69999981
v 37.78748703 -127.82826233 12.69999981
v 28.57869720 -128.41917419 12.69999981
v 37.78748703 -136.93913269 12.69999981
v 28.57869720 -137.23458862 12.69999981
v 19.36990738 -128.77008057 12.69999981
v 19.36990738 -137.41003418 12.69999981
v 19.36990738 -120.13011932 12.69999981
v 19.36990738 -111.49015808 12.69999981
v 19.36990738 -102.85019684 12.69999981
v 19.36990738 -94.21023560 12.69999981
v 19.36990738 -85.57027435 12.69999981
v 19.36990738 -76.93031311 12.69999981
v 19.36990738 -68.29035187 12.69999981
v 19.36990738 -59.65039444 12.69999981
v 19.36990738 -51.01043320 12.69999981
v 19.36990738 -42.37047195 12.69999981
v 19.36990738 -33.73051071 12.69999981
v 19.37779045 -25.15062714 12.69999981
v 24.82282639 -19.79596138 12.69999981
v 19.79596138 -24.82282639 12.69999981
v 26.70979881 -17.16534615 21.89958954
v 20.79182816 23.99504852 21.89958954
v 13.77649975 28.60531235 12.69999981
v 10.16111755 38.27789688 12.69999981
v 10.17667103 30.07475281 12.69999981
v 10.16111755 46.68526459 12.69999981
v 10.16111755 55.09263229 12.69999981
v 13.18942642 28.88081551 21.89958954
v 7.06582737 30.95374298 12.69999981
v 0.95232755 39.60700989 12.69999981
v 0.95362544 31.73558617 12.69999981
v 0.95232755 47.57133865 12.69999981
v 0.95232755 55.53567123 12.69999981
v 4.51849604 31.42683029 21.89958954
v 0.00000000 31.75000000 12.69999981
v -8.25646210 47.01853561 12.69999981
v -8.25646210 38.77780533 12.69999981
v -8.25646210 55.25926971 12.69999981
v -7.06582737 30.95374298 12.69999981
v -4.51849604 31.42683029 21.89958954
v -8.26533985 30.65522957 12.69999981
v -17.46525192 33.72991180 12.69999981
v -13.77649975 28.60531235 12.69999981
v -13.18942642 28.88081551 21.89958954
v -17.46525192 41.17243195 12.69999981
v -17.46525192 48.61495590 12.69999981
v -17.46525192 56.05747604 12.69999981
v -17.48355103 26.50254059 12.69999981
v -26.67404175 32.39995575 12.69999981
v -26.67404175 24.62494278 12.69999981
v -19.79596138 24.82282639 12.69999981
v -26.67404175 40.17496490 12.69999981
v -26.67404175 47.94997787 12.69999981
v -26.67404175 55.72498703 12.69999981
v -24.82282639 19.79596138 12.69999981
v -20.79182816 23.99504852 21.89958954
v -26.71276474 17.16054535 12.69999981
v -26.70979881 17.16534615 21.89958954
v -35.88283157 17.94565201 12.69999981
v -35.88283157 8.83478260 12.69999981
v -28.60531235 13.77649975 12.69999981
v -35.88283157 27.05652237 12.69999981
v -35.88283157 36.16739273 12.69999981
v -35.88283157 45.27825928 12.69999981
v -35.88283157 54.38912964 12.69999981
v -30.95374298 7.06582737 12.69999981
v -30.46390152 8.94500828 21.89958954
v -35.88283157 -0.27608696 12.69999981
v -31.75000000 0.00000000 12.69999981
v -30.95374298 -7.06582737 12.69999981
v -31.75000000 0.00000000 21.89958954
v -35.88283157 -9.38695621 12.69999981
v -28.60531235 -13.77649975 12.69999981
v -30.46390152 -8.94500828 21.89958954
v -35.88283157 -18.49782562 12.69999981
v -26.71276474 -17.16054535 12.69999981
v -26.67404175 -25.46327019 12.69999981
v -24.82282639 -19.79596138 12.69999981
v -26.70979881 -17.16534615 21.89958954
v -35.88283157 -27.60869598 12.69999981
v -26.67404175 -34.07660675 12.69999981
v -17.48355103 -26.50254059 12.69999981
v -19.79596138 -24.82282639 12.69999981
v -35.88283157 -36.71956635 12.69999981
v -26.67404175 -42.68994522 12.69999981
v -17.46525192 -34.84186172 12.69999981
v -35.88283157 -45.83043289 12.69999981
v -26.67404175 -51.30328369 12.69999981
v -17.46525192 -43.39633179 12.69999981
v -35.88283157 -54.94130325 12.69999981
v -26.67404175 -59.91662216 12.69999981
v -17.46525192 -51.95080566 12.69999981
v -35.88283157 -64.05217743 12.69999981
v -26.67404175 -68.52996063 12.69999981
v -17.46525192 -60.50527954 12.69999981
v -35.88283157 -73.16304016 12.69999981
v -26.67404175 -77.14329529 12.69999981
v -17.46525192 -69.05975342 12.69999981
v -35.88283157 -82.27391052 12.69999981
v -26.67404175 -85.75663757 12.69999981
v -17.46525192 -77.61421967 12.69999981
v -35.88283157 -91.38478088 12.69999981
v -26.67404175 -94.36997223 12.69999981
v -17.46525192 -86.16869354 12.69999981
v -35.88283157 -100.49565125 12.69999981
v -26.67404175 -102.98330688 12.69999981
v -17.46525192 -94.72316742 12.69999981
v -35.88283157 -109.60652161 12.69999981
v -26.67404175 -111.59664917 12.69999981
v -17.46525192 -103.27764130 12.69999981
v -35.88283157 -118.71739197 12.69999981
v -26.67404175 -120.20998383 12.69999981
v -17.46525192 -111.83210754 12.69999981
v -35.88283157 -127.82826233 12.69999981
v -26.67404175 -128.82331848 12.69999981
v -17.46525192 -120.38658142 12.69999981
v -35.88283157 -136.93913269 12.69999981
v -26.67404175 -137.43666077 12.69999981
v -17.46525192 -128.94105530 12.69999981
v -17.46525192 -137.49552917 12.69999981
v -45.09162140 -54.42856979 12.69999981
v -45.09162140 -45.35714340 12.69999981
v -45.09162140 -36.28571320 12.69999981
v -45.09162140 -27.21428490 12.69999981
v -45.09162140 -18.14285660 12.69999981
v -45.09162140 -9.07142830 12.69999981
v -45.09162140 -0.00000000 12.69999981
v -45.09162140 9.07142830 12.69999981
v -45.09162140 18.14285660 12.69999981
v -45.09162140 27.21428490 12.69999981
v -45.09162140 36.28571320 12.69999981
v -45.09162140 45.35714340 12.69999981
v -45.09162140 54.42856979 12.69999981
v -20.79182816 -23.99504852 21.89958954
v -13.77649975 -28.60531235 12.69999981
v -8.25646210 -39.42268372 12.69999981
v -8.26533985 -30.65522957 12.69999981
v -8.25646210 -48.30829239 12.69999981
v -8.25646210 -57.19390488 12.69999981
v -8.25646210 -66.07951355 12.69999981
v -8.25646210 -74.96512604 12.69999981
v -8.25646210 -83.85073090 12.69999981
v -8.25646210 -92.73634338 12.69999981
v -8.25646210 -101.62194824 12.69999981
v -8.25646210 -110.50756073 12.69999981
v -8.25646210 -119.39317322 12.69999981
v -8.25646210 -128.27877808 12.69999981
v -8.25646210 -137.16438293 12.69999981
v -13.18942642 -28.88081551 21.89958954
v -7.06582737 -30.95374298 12.69999981
v 0.95232755 -40.44324493 12.69999981
v -0.00000000 -31.75000000 12.69999981
v 0.95362544 -31.73558617 12.69999981
v 0.95232755 -49.24380875 12.69999981
v 0.95232755 -58.04436874 12.69999981
v 0.95232755 -66.84493256 12.69999981
v 0.95232755 -75.64549255 12.69999981
v 0.95232755 -84.44606018 12.69999981
v 0.95232755 -93.24662018 12.69999981
v 0.95232755 -102.04718781 12.69999981
v 0.95232755 -110.84774780 12.69999981
v 0.95232755 -119.64830780 12.69999981
v 0.95232755 -128.44886780 12.69999981
v 0.95232755 -137.24943542 12.69999981
v -4.51849604 -31.42683029 21.89958954
v 10.16111755 -38.80741501 12.69999981
v 7.06582737 -30.95374298 12.69999981
v 4.51849604 -31.42683029 21.89958954
v 10.16111755 -47.74429703 12.69999981
v 10.16111755 -56.68117905 12.69999981
v 10.16111755 -65.61805725 12.69999981
v 10.16111755 -74.55493927 12.69999981
v 10.16111755 -83.49182129 12.69999981
v 10.16111755 -92.42870331 12.69999981
v 10.16111755 -101.36558533 12.69999981
v 10.16111755 -110.30247498 12.69999981
v 10.16111755 -119.23935699 12.69999981
v 10.16111755 -128.17623901 12.69999981
v 10.16111755 -137.11311340 12.69999981
v 10.17667103 -30.07475281 12.69999981
v 13.77649975 -28.60531235 12.69999981
v 13.18942642 -28.88081551 21.89958954
v 20.79182816 -23.99504852 21.89958954
v 56.20506668 54.42856979 12.69999981
v 56.20506668 45.35714340 12.69999981
v 56.20506668 36.28571320 12.69999981
v 56.20506668 27.21428490 12.69999981
v 56.20506668 18.14285660 12.69999981
v 56.20506668 9.07142830 12.69999981
v 56.20506668 -0.00000000 12.69999981
v 56.20506668 -9.07142830 12.69999981
v 56.20506668 -18.14285660 12.69999981
v 56.20506668 -27.21428490 12.69999981
v 56.20506668 -36.28571320 12.69999981
v 56.20506668 -45.35714340 12.69999981
v 56.20506668 -54.42856979 12.69999981
v -54.30041122 -54.42856979 12.69999981
v -54.30041122 -45.35714340 12.69999981
v -54.30041122 -36.28571320 12.69999981
v -54.30041122 -27.21428490 12.69999981
v -54.30041122 -18.14285660 12.69999981
v -54.30041122 -9.07142830 12.69999981
v -54.30041122 -0.00000000 12.69999981
v -54.30041122 9.07142830 12.69999981
v -54.30041122 18.14285660 12.69999981
v -54.30041122 27.21428490 12.69999981
v -54.30041122 36.28571320 12.69999981
v -54.30041122 45.35714340 12.69999981
v -54.30041122 54.42856979 12.69999981
v -30.95396042 7.06503963 127.00000000
v -31.75000000 0.00000000 123.19627380
v -31.75000000 0.00000000 127.00000000
v -30.46390152 -8.94500828 123.19627380
v -24.53455353 6.57386637 120.65000153
v -30.95396042 -7.06503963 127.00000000
v -25.39999962 0.00000000 120.65000153
v -30.46390152 8.94500828 123.19627380
v -31.75000000 0.00000000 113.98748779
v -30.46390152 -8.94500828 113.98748779
v -28.60576248 13.77580833 127.00000000
v -26.70979881 17.16534615 123.19627380
v -30.46390152 8.94500828 113.98748779
v -24.82314873 19.79580116 127.00000000
v -20.79182816 23.99504852 123.19627380
v -26.70979881 17.16534615 113.98748779
v -13.77580833 28.60576248 127.00000000
v -13.18942642 28.88081551 123.19627380
v -20.79182816 23.99504852 113.98748779
v -19.79580116 24.82314873 127.00000000
v -7.06503963 30.95396042 127.00000000
v -4.51849604 31.42683029 123.19627380
v -13.18942642 28.88081551 113.98748779
v 0.00000000 31.75000000 127.00000000
v 4.51849604 31.42683029 123.19627380
v -4.51849604 31.42683029 113.98748779
v 7.06503963 30.95396042 127.00000000
v 13.18942642 28.88081551 123.19627380
v 4.51849604 31.42683029 113.98748779
v 19.79580116 24.82314873 127.00000000
v 20.79182816 23.99504852 123.19627380
v 13.18942642 28.88081551 113.98748779
v 13.77580833 28.60576248 127.00000000
v 24.82314873 19.79580116 127.00000000
v 26.70979881 17.16534615 123.19627380
v 20.79182816 23.99504852 113.98748779
v 28.60576248 13.77580833 127.00000000
v 30.46390152 8.94500828 123.19627380
v 26.70979881 17.16534615 113.98748779
v 31.75000000 0.00000000 127.00000000
v 31.75000000 0.00000000 123.19627380
v 30.46390152 8.94500828 113.98748779
v 30.95396042 7.06503963 127.00000000
v 30.95396042 -7.06503963 127.00000000
v 31.75000000 0.00000000 113.98748779
v 30.46390152 -8.94500828 123.19627380
v 25.39999962 -0.00000000 120.65000153
v 24.53455353 -6.57386637 120.65000153
v 24.53455353 6.57386494 120.65000153
v 21.99711990 12.69987011 120.65000153
v 17.96061516 17.96040916 120.65000153
v 12.70009613 21.99699020 120.65000153
v 6.57406187 24.53450012 120.65000153
v 0.00000047 25.39999962 120.65000153
v -6.57406092 24.53450012 120.65000153
v -12.70009518 21.99699020 120.65000153
v -17.96061516 17.96040916 120.65000153
v -21.99711990 12.69987202 120.65000153
v 31.75000000 0.00000000 31.10837936
v 30.46390152 -8.94500828 31.10837936
v 30.46390152 8.94500828 31.10837936
v 26.70979881 17.16534615 31.10837936
v 20.79182816 23.99504852 31.10837936
v 13.18942642 28.88081551 31.10837936
v 4.51849604 31.42683029 31.10837936
v -4.51849604 31.42683029 31.10837936
v -13.18942642 28.88081551 31.10837936
v -20.79182816 23.99504852 31.10837936
v -26.70979881 17.16534615 31.10837936
v -30.46390152 8.94500828 31.10837936
v -31.75000000 0.00000000 31.10837936
v -30.46390152 8.94500828 40.31716919
v -31.75000000 0.00000000 40.31716919
v -30.46390152 -8.94500828 31.10837936
v 31.75000000 0.00000000 40.31716919
v 30.46390152 -8.94500828 40.31716919
v 30.46390152 8.94500828 40.31716919
v 26.70979881 17.16534615 40.31716919
v 20.79182816 23.99504852 40.31716919
v 13.18942642 28.88081551 40.31716919
v 4.51849604 31.42683029 40.31716919
v -4.51849604 31.42683029 40.31716919
v -13.18942642 28.88081551 40.31716919
v -20.79182816 23.99504852 40.31716919
v -26.70979881 17.16534615 40.31716919
v -30.46390152 8.94500828 49.52595901
v -31.75000000 0.00000000 49.52595901
v -30.46390152 -8.94500828 40.31716919
v 31.75000000 0.00000000 49.52595901
v 30.46390152 -8.94500828 49.52595901
v 30.46390152 8.94500828 49.52595901
v 26.70979881 17.16534615 49.52595901
v 20.79182816 23.99504852 49.52595901
v 13.18942642 28.88081551 49.52595901
v 4.51849604 31.42683029 49.52595901
v -4.51849604 31.42683029 49.52595901
v -13.18942642 28.88081551 49.52595901
v -20.79182816 23.99504852 49.52595901
v -26.70979881 17.16534615 49.52595901
v -30.46390152 8.94500828 58.73474884
v -31.75000000 0.00000000 58.73474884
v -30.46390152 -8.94500828 49.52595901
v 31.75000000 0.00000000 58.73474884
v 30.46390152 -8.94500828 58.73474884
v 30.46390152 8.94500828 58.73474884
v 26.70979881 17.16534615 58.73474884
v 20.79182816 23.99504852 58.73474884
v 13.18942642 28.88081551 58.73474884
v 4.51849604 31.42683029 58.73474884
v -4.51849604 31.42683029 58.73474884
v -13.18942642 28.88081551 58.73474884
v -20.79182816 23.99504852 58.73474884
v -26.70979881 17.16534615 58.73474884
v -30.46390152 8.94500828 67.94353485
v -31.75000000 0.00000000 67.94353485
v -30.46390152 -8.94500828 58.73474884
v 31.75000000 0.00000000 67.94353485
v 30.46390152 -8.94500828 67.94353485
v 30.46390152 8.94500828 67.94353485
v 26.70979881 17.16534615 67.94353485
v 20.79182816 23.99504852 67.94353485
v 13.18942642 28.88081551 67.94353485
v 4.51849604 31.42683029 67.94353485
v -4.51849604 31.42683029 67.94353485
v -13.18942642 28.88081551 67.94353485
v -20.79182816 23.99504852 67.94353485
v -26.70979881 17.16534615 67.94353485
v -30.46390152 8.94500828 77.15232849
v -31.75000000 0.00000000 77.15232849
v -30.46390152 -8.94500828 67.94353485
v 31.75000000 0.00000000 77.15232849
v 30.46390152 -8.94500828 77.15232849
v 30.46390152 8.94500828 77.15232849
v 26.70979881 17.16534615 77.15232849
v 20.79182816 23.99504852 77.15232849
v 13.18942642 28.88081551 77.15232849
v 4.51849604 31.42683029 77.15232849
v -4.51849604 31.42683029 77.15232849
v -13.18942642 28.88081551 77.15232849
v -20.79182816 23.99504852 77.15232849
v -26.70979881 17.16534615 77.15232849
v -30.46390152 8.94500828 86.36111450
v -31.75000000 0.00000000 86.36111450
v -30.46390152 -8.94500828 77.15232849
v 31.75000000 0.00000000 86.36111450
v 30.46390152 -8.94500828 86.36111450
v 30.46390152 8.94500828 86.36111450
v 26.70979881 17.16534615 86.36111450
v 20.79182816 23.99504852 86.36111450
v 13.18942642 28.88081551 86.36111450
v 4.51849604 31.42683029 86.36111450
v -4.51849604 31.42683029 86.36111450
v -13.18942642 28.88081551 86.36111450
v -20.79182816 23.99504852 86.36111450
v -26.70979881 17.16534615 86.36111450
v -30.46390152 8.94500828 95.56990814
v -31.75000000 0.00000000 95.56990814
v -30.46390152 -8.94500828 86.36111450
v 31.75000000 0.00000000 95.56990814
v 30.46390152 -8.94500828 95.56990814
v 30.46390152 8.94500828 95.56990814
v 26.70979881 17.16534615 95.56990814
v 20.79182816 23.99504852 95.56990814
v 13.18942642 28.88081551 95.56990814
v 4.51849604 31.42683029 95.56990814
v -4.51849604 31.42683029 95.56990814
v -13.18942642 28.88081551 95.56990814
v -20.79182816 23.99504852 95.56990814
v -26.70979881 17.16534615 95.56990814
v -30.46390152 8.94500828 104.77869415
v -31.75000000 0.00000000 104.77869415
v -30.46390152 -8.94500828 95.56990814
v 31.75000000 0.00000000 104.77869415
v 30.46390152 -8.94500828 104.77869415
v 30.46390152 8.94500828 104.77869415
v 26.70979881 17.16534615 104.77869415
v 20.79182816 23.99504852 104.77869415
v 13.18942642 28.88081551 104.77869415
v 4.51849604 31.42683029 104.77869415
v -4.51849604 31.42683029 104.77869415
v -13.18942642 28.88081551 104.77869415
v -20.79182816 23.99504852 104.77869415
v -26.70979881 17.16534615 104.77869415
v -30.46390152 -8.94500828 104.77869415
v 30.46390152 -8.94500828 113.98748779
v 28.60576248 -13.77580833 127.00000000
v 26.70979881 -17.16534615 123.19627380
v 24.82314873 -19.79580116 127.00000000
v 20.79182816 -23.99504852 123.19627380
v 26.70979881 -17.16534615 113.98748779
v 13.77580833 -28.60576248 127.00000000
v 13.18942642 -28.88081551 123.19627380
v 20.79182816 -23.99504852 113.98748779
v 19.79580116 -24.82314873 127.00000000
v 7.06503963 -30.95396042 127.00000000
v 4.51849604 -31.42683029 123.19627380
v 13.18942642 -28.88081551 113.98748779
v -0.00000000 -31.75000000 127.00000000
v -4.51849604 -31.42683029 123.19627380
v 4.51849604 -31.42683029 113.98748779
v -7.06503963 -30.95396042 127.00000000
v -13.18942642 -28.88081551 123.19627380
v -4.51849604 -31.42683029 113.98748779
v -19.79580116 -24.82314873 127.00000000
v -20.79182816 -23.99504852 123.19627380
v -13.18942642 -28.88081551 113.98748779
v -13.77580833 -28.60576248 127.00000000
v -24.82314873 -19.79580116 127.00000000
v -26.70979881 -17.16534615 123.19627380
v -20.79182816 -23.99504852 113.98748779
v -28.60576248 -13.77580833 127.00000000
v -26.70979881 -17.16534615 113.98748779
v -24.53455353 -6.57386494 120.65000153
v -21.99711990 -12.69987011 120.65000153
v -17.96061516 -17.96040916 120.65000153
v -12.70009613 -21.99699020 120.65000153
v -6.57406187 -24.53450012 120.65000153
v -0.00000047 -25.39999962 120.65000153
v 6.57406092 -24.53450012 120.65000153
v 12.70009518 -21.99699020 120.65000153
v 17.96061516 -17.96040916 120.65000153
v 21.99711990 -12.69987202 120.65000153
v -26.70979881 -17.16534615 31.10837936
v -20.79182816 -23.99504852 31.10837936
v -13.18942642 -28.88081551 31.10837936
v -4.51849604 -31.42683029 31.10837936
v 4.51849604 -31.42683029 31.10837936
v 13.18942642 -28.88081551 31.10837936
v 20.79182816 -23.99504852 31.10837936
v 26.70979881 -17.16534615 31.10837936
v -26.70979881 -17.16534615 40.31716919
v -20.79182816 -23.99504852 40.31716919
v -13.18942642 -28.88081551 40.31716919
v -4.51849604 -31.42683029 40.31716919
v 4.51849604 -31.42683029 40.31716919
v 13.18942642 -28.88081551 40.31716919
v 20.79182816 -23.99504852 40.31716919
v 26.70979881 -17.16534615 40.31716919
v -26.70979881 -17.16534615 49.52595901
v -20.79182816 -23.99504852 49.52595901
v -13.18942642 -28.88081551 49.52595901
v -4.51849604 -31.42683029 49.52595901
v 4.51849604 -31.42683029 49.52595901
v 13.18942642 -28.88081551 49.52595901
v 20.79182816 -23.99504852 49.52595901
v 26.70979881 -17.16534615 49.52595901
v -26.70979881 -17.16534615 58.73474884
v -20.79182816 -23.99504852 58.73474884
v -13.18942642 -28.88081551 58.73474884
v -4.51849604 -31.42683029 58.73474884
v 4.51849604 -31.42683029 58.73474884
v 13.18942642 -28.88081551 58.73474884
v 20.79182816 -23.99504852 58.73474884
v 26.70979881 -17.16534615 58.73474884
v -26.70979881 -17.16534615 67.94353485
v -20.79182816 -23.99504852 67.94353485
v -13.18942642 -28.88081551 67.94353485
v -4.51849604 -31.42683029 67.94353485
v 4.51849604 -31.42683029 67.94353485
v 13.18942642 -28.88081551 67.94353485
v 20.79182816 -23.99504852 67.94353485
v 26.70979881 -17.16534615 67.94353485
v -26.70979881 -17.16534615 77.15232849
v -20.79182816 -23.99504852 77.15232849
v -13.18942642 -28.88081551 77.15232849
v -4.51849604 -31.42683029 77.15232849
v 4.51849604 -31.42683029 77.15232849
v 13.18942642 -28.88081551 77.15232849
v 20.79182816 -23.99504852 77.15232849
v 26.70979881 -17.16534615 77.15232849
v -26.70979881 -17.16534615 86.36111450
v -20.79182816 -23.99504852 86.36111450
v -13.18942642 -28.88081551 86.36111450
v -4.51849604 -31.42683029 86.36111450
v 4.51849604 -31.42683029 86.36111450
v 13.18942642 -28.88081551 86.36111450
v 20.79182816 -23.99504852 86.36111450
v 26.70979881 -17.16534615 86.36111450
v -26.70979881 -17.16534615 95.56990814
v -20.79182816 -23.99504852 95.56990814
v -13.18942642 -28.88081551 95.56990814
v -4.51849604 -31.42683029 95.56990814
v 4.51849604 -31.42683029 95.56990814
v 13.18942642 -28.88081551 95.56990814
v 20.79182816 -23.99504852 95.56990814
v 26.70979881 -17.16534615 95.56990814
v -26.70979881 -17.16534615 104.77869415
v -20.79182816 -23.99504852 104.77869415
v -13.18942642 -28.88081551 104.77869415
v -4.51849604 -31.42683029 104.77869415
v 4.51849604 -31.42683029 104.77869415
v 13.18942642 -28.88081551 104.77869415
v 20.79182816 -23.99504852 104.77869415
v 26.70979881 -17.16534615 104.77869415
v 20.63474846 -7.23756170 12.69999981
v 24.53465652 -6.57332659 12.69999981
v 25.39999962 0.00000000 12.69999981
v 25.39999962 -0.00000000 21.89958954
v 20.63474846 0.00000000 12.69999981
v 24.53465652 6.57332659 12.69999981
v 23.86819267 8.68731117 21.89958954
v 21.99723434 -12.69947147 12.69999981
v 23.86819267 -8.68731117 21.89958954
v 20.65310287 -14.78539085 12.69999981
v 11.42595863 -13.51483059 12.69999981
v 11.43569660 -22.68002319 12.69999981
v 17.96042061 -17.96042442 12.69999981
v 19.45752907 -16.32680511 21.89958954
v 11.42595863 -4.50494385 12.69999981
v 20.63474846 7.23756170 12.69999981
v 11.42595863 4.50494385 12.69999981
v 21.99723434 12.69947147 12.69999981
v 20.65310287 14.78539085 12.69999981
v 11.42595863 13.51483059 12.69999981
v 19.45752907 16.32680511 21.89958954
v 17.96042061 17.96042442 12.69999981
v 12.69946861 21.99723625 12.69999981
v 12.69999981 21.99704552 21.89958954
v 12.69946861 -21.99723625 12.69999981
v 12.69999981 -21.99704552 21.89958954
v 2.21716928 -16.73874855 12.69999981
v 2.22039819 -25.30268288 12.69999981
v 6.57332468 -24.53465843 12.69999981
v 2.21716928 -8.36937428 12.69999981
v 2.21716928 0.00000000 12.69999981
v 2.21716928 8.36937428 12.69999981
v 11.43569660 22.68002319 12.69999981
v 2.21716928 16.73874855 12.69999981
v 4.41066360 25.01411629 21.89958954
v 6.57332468 24.53465843 12.69999981
v 2.22039819 25.30268288 12.69999981
v 4.41066360 -25.01411629 21.89958954
v -6.57332468 -24.53465843 12.69999981
v 0.00000000 -25.39999962 12.69999981
v -6.99162054 -16.24093437 12.69999981
v -6.99700689 -24.41714859 12.69999981
v -6.99162054 -8.12046719 12.69999981
v -6.99162054 -0.00000000 12.69999981
v -6.99162054 16.24093437 12.69999981
v -6.99162054 8.12046719 12.69999981
v -6.99700689 24.41714859 12.69999981
v -6.57332468 24.53465843 12.69999981
v -0.00000000 25.39999962 12.69999981
v -4.41066360 25.01411629 21.89958954
v -4.41066360 -25.01411629 21.89958954
v -12.69946861 -21.99723625 12.69999981
v -16.20041084 -11.58654499 12.69999981
v -16.22348785 -19.54365730 12.69999981
v -16.20041084 -3.86218166 12.69999981
v -16.20041084 3.86218166 12.69999981
v -16.20041084 11.58654499 12.69999981
v -16.22348785 19.54365730 12.69999981
v -12.69999981 21.99704552 21.89958954
v -12.69946861 21.99723625 12.69999981
v -19.45752907 16.32680511 21.89958954
v -12.69999981 -21.99704552 21.89958954
v -17.96042061 -17.96042442 12.69999981
v -24.53465652 -6.57332659 12.69999981
v -21.99723434 -12.69947147 12.69999981
v -25.39999962 0.00000000 12.69999981
v -24.53465652 6.57332659 12.69999981
v -21.99723434 12.69947147 12.69999981
v -17.96042061 17.96042442 12.69999981
v -19.45752907 -16.32680511 21.89958954
v -23.86819267 -8.68731117 21.89958954
v -25.39999962 0.00000000 21.89958954
v -23.86819267 8.68731117 21.89958954
v -23.86819267 8.68731117 113.98748779
v -25.39999962 0.00000000 113.98748779
v -19.45752907 16.32680511 113.98748779
v -12.69999981 21.99704552 113.98748779
v -4.41066360 25.01411629 113.98748779
v 4.41066360 25.01411629 113.98748779
v 12.69999981 21.99704552 113.98748779
v 19.45752907 16.32680511 113.98748779
v 23.86819267 8.68731117 113.98748779
v 25.39999962 -0.00000000 113.98748779
v 23.86819267 -8.68731117 113.98748779
v 25.39999962 -0.00000000 104.77869415
v 23.86819267 -8.68731117 104.77869415
v 23.86819267 8.68731117 104.77869415
v 19.45752907 16.32680511 104.77869415
v 12.69999981 21.99704552 104.77869415
v 4.41066360 25.01411629 104.77869415
v -4.41066360 25.01411629 104.77869415
v -12.69999981 21.99704552 104.77869415
v -19.45752907 16.32680511 104.77869415
v -23.86819267 8.68731117 104.77869415
v -25.39999962 0.00000000 104.77869415
v -23.86819267 -8.68731117 113.98748779
v 25.39999962 -0.00000000 95.56990814
v 23.86819267 -8.68731117 95.56990814
v 23.86819267 8.68731117 95.56990814
v 19.45752907 16.32680511 95.56990814
v 12.69999981 21.99704552 95.56990814
v 4.41066360 25.01411629 95.56990814
v -4.41066360 25.01411629 95.56990814
v -12.69999981 21.99704552 95.56990814
v -19.45752907 16.32680511 95.56990814
v -23.86819267 8.68731117 95.56990814
v -25.39999962 0.00000000 95.56990814
v -23.86819267 -8.68731117 104.77869415
v 25.39999962 -0.00000000 86.36111450
v 23.86819267 -8.68731117 86.36111450
v 23.86819267 8.68731117 86.36111450
v 19.45752907 16.32680511 86.36111450
v 12.69999981 21.99704552 86.36111450
v 4.41066360 25.01411629 86.36111450
v -4.41066360 25.01411629 86.36111450
v -12.69999981 21.99704552 86.36111450
v -19.45752907 16.32680511 86.36111450
v -23.86819267 8.68731117 86.36111450
v -25.39999962 0.00000000 86.36111450
v -23.86819267 -8.68731117 95.56990814
v 25.39999962 -0.00000000 77.15232849
v 23.86819267 -8.68731117 77.15232849
v 23.86819267 8.68731117 77.15232849
v 19.45752907 16.32680511 77.15232849
v 12.69999981 21.99704552 77.15232849
v 4.41066360 25.01411629 77.15232849
v -4.41066360 25.01411629 77.15232849
v -12.69999981 21.99704552 77.15232849
v -19.45752907 16.32680511 77.15232849
v -23.86819267 8.68731117 77.15232849
v -25.39999962 0.00000000 77.15232849
v -23.86819267 -8.68731117 86.36111450
v 25.39999962 -0.00000000 67.94353485
v 23.86819267 -8.68731117 67.94353485
v 23.86819267 8.68731117 67.94353485
v 19.45752907 16.32680511 67.94353485
v 12.69999981 21.99704552 67.94353485
v 4.41066360 25.01411629 67.94353485
v -4.41066360 25.01411629 67.94353485
v -12.69999981 21.99704552 67.94353485
v -19.45752907 16.32680511 67.94353485
v -23.86819267 8.68731117 67.94353485
v -25.39999962 0.00000000 67.94353485
v -23.86819267 -8.68731117 77.15232849
v 25.39999962 -0.00000000 58.73474884
v 23.86819267 -8.68731117 58.73474884
v 23.86819267 8.68731117 58.73474884
v 19.45752907 16.32680511 58.73474884
v 12.69999981 21.99704552 58.73474884
v 4.41066360 25.01411629 58.73474884
v -4.41066360 25.01411629 58.73474884
v -12.69999981 21.99704552 58.73474884
v -19.45752907 16.32680511 58.73474884
v -23.86819267 8.68731117 58.73474884
v -25.39999962 0.00000000 58.73474884
v -23.86819267 -8.68731117 67.94353485
v 25.39999962 -0.00000000 49.52595901
v 23.86819267 -8.68731117 49.52595901
v 23.86819267 8.68731117 49.52595901
v 19.45752907 16.32680511 49.52595901
v 12.69999981 21.99704552 49.52595901
v 4.41066360 25.01411629 49.52595901
v -4.41066360 25.01411629 49.52595901
v -12.69999981 21.99704552 49.52595901
v -19.45752907 16.32680511 49.52595901
v -23.86819267 8.68731117 49.52595901
v -25.39999962 0.00000000 49.52595901
v -23.86819267 -8.68731117 58.73474884
v 25.39999962 -0.00000000 40.31716919
v 23.86819267 -8.68731117 40.31716919
v 23.86819267 8.68731117 40.31716919
v 19.45752907 16.32680511 40.31716919
v 12.69999981 21.99704552 40.31716919
v 4.41066360 25.01411629 40.31716919
v -4.41066360 25.01411629 40.31716919
v -12.69999981 21.99704552 40.31716919
v -19.45752907 16.32680511 40.31716919
v -23.86819267 8.68731117 40.31716919
v -25.39999962 0.00000000 40.31716919
v -23.86819267 -8.68731117 49.52595901
v 25.39999962 -0.00000000 31.10837936
v 23.86819267 -8.68731117 31.10837936
v 23.86819267 8.68731117 31.10837936
v 19.45752907 16.32680511 31.10837936
v 12.69999981 21.99704552 31.10837936
v 4.41066360 25.01411629 31.10837936
v -4.41066360 25.01411629 31.10837936
v -12.69999981 21.99704552 31.10837936
v -19.45752907 16.32680511 31.10837936
v -23.86819267 8.68731117 31.10837936
v -25.39999962 0.00000000 31.10837936
v -23.86819267 -8.68731117 40.31716919
v -23.86819267 -8.68731117 31.10837936
v 19.45752907 -16.32680511 113.98748779
v 12.69999981 -21.99704552 113.98748779
v 4.41066360 -25.01411629 113.98748779
v -4.41066360 -25.01411629 113.98748779
v -12.69999981 -21.99704552 113.98748779
v -19.45752907 -16.32680511 113.98748779
v -19.45752907 -16.32680511 104.77869415
v -12.69999981 -21.99704552 104.77869415
v -4.41066360 -25.01411629 104.77869415
v 4.41066360 -25.01411629 104.77869415
v 12.69999981 -21.99704552 104.77869415
v 19.45752907 -16.32680511 104.77869415
v -19.45752907 -16.32680511 95.56990814
v -12.69999981 -21.99704552 95.56990814
v -4.41066360 -25.01411629 95.56990814
v 4.41066360 -25.01411629 95.56990814
v 12.69999981 -21.99704552 95.56990814
v 19.45752907 -16.32680511 95.56990814
v -19.45752907 -16.32680511 86.36111450
v -12.69999981 -21.99704552 86.36111450
v -4.41066360 -25.01411629 86.36111450
v 4.41066360 -25.01411629 86.36111450
v 12.69999981 -21.99704552 86.36111450
v 19.45752907 -16.32680511 86.36111450
v -19.45752907 -16.32680511 77.15232849
v -12.69999981 -21.99704552 77.15232849
v -4.41066360 -25.01411629 77.15232849
v 4.41066360 -25.01411629 77.15232849
v 12.69999981 -21.99704552 77.15232849
v 19.45752907 -16.32680511 77.15232849
v -19.45752907 -16.32680511 67.94353485
v -12.69999981 -21.99704552 67.94353485
v -4.41066360 -25.01411629 67.94353485
v 4.41066360 -25.01411629 67.94353485
v 12.69999981 -21.99704552 67.94353485
v 19.45752907 -16.32680511 67.94353485
v -19.45752907 -16.32680511 58.73474884
v -12.69999981 -21.99704552 58.73474884
v -4.41066360 -25.01411629 58.73474884
v 4.41066360 -25.01411629 58.73474884
v 12.69999981 -21.99704552 58.73474884
v 19.45752907 -16.32680511 58.73474884
v -19.45752907 -16.32680511 49.52595901
v -12.69999981 -21.99704552 49.52595901
v -4.41066360 -25.01411629 49.52595901
v 4.41066360 -25.01411629 49.52595901
v 12.69999981 -21.99704552 49.52595901
v 19.45752907 -16.32680511 49.52595901
v -19.45752907 -16.32680511 40.31716919
v -12.69999981 -21.99704552 40.31716919
v -4.41066360 -25.01411629 40.31716919
v 4.41066360 -25.01411629 40.31716919
v 12.69999981 -21.99704552 40.31716919
v 19.45752907 -16.32680511 40.31716919
v -19.45752907 -16.32680511 31.10837936
v -12.69999981 -21.99704552 31.10837936
v -4.41066360 -25.01411629 31.10837936
v 4.41066360 -25.01411629 31.10837936
v 12.69999981 -21.99704552 31.10837936
v 19.45752907 -16.32680511 31.10837936
f 1 2 3
f 4 3 2
f 5 1 3
f 5 3 4
f 1 6 2
f 7 2 6
f 7 4 2
f 1 8 6
f 9 6 8
f 10 6 9
f 7 6 10
f 11 12 8
f 13 8 12
f 1 11 8
f 14 9 8
f 13 14 8
f 15 16 12
f 17 12 16
f 11 15 12
f 17 13 12
f 18 19 16
f 20 16 19
f 15 18 16
f 20 17 16
f 21 22 19
f 23 19 22
f 18 21 19
f 23 20 19
f 24 25 22
f 26 22 25
f 21 24 22
f 26 23 22
f 27 28 25
f 29 25 28
f 24 27 25
f 29 26 25
f 30 31 28
f 32 28 31
f 27 30 28
f 32 29 28
f 33 34 31
f 35 31 34
f 30 33 31
f 35 32 31
f 36 37 34
f 38 34 37
f 33 36 34
f 38 35 34
f 39 40 37
f 41 37 40
f 36 39 37
f 41 38 37
f 42 43 40
f 44 40 43
f 39 42 40
f 44 41 40
f 45 46 43
f 47 43 46
f 42 45 43
f 47 44 43
f 48 49 46
f 50 46 49
f 51 48 46
f 45 51 46
f 50 47 46
f 52 49 48
f 53 50 49
f 54 53 49
f 54 49 52
f 55 48 51
f 52 48 55
f 56 51 45
f 55 51 56
f 57 45 42
f 56 45 57
f 58 42 39
f 57 42 58
f 59 39 36
f 58 39 59
f 60 36 33
f 59 36 60
f 61 33 30
f 60 33 61
f 62 30 27
f 61 30 62
f 63 27 24
f 62 27 63
f 64 24 21
f 63 24 64
f 65 21 18
f 64 21 65
f 66 18 15
f 65 18 66
f 67 15 11
f 66 15 67
f 68 11 1
f 67 11 68
f 68 1 5
f 69 9 14
f 69 10 9
f 70 14 13
f 71 14 70
f 69 14 71
f 72 13 17
f 73 70 13
f 72 73 13
f 74 17 20
f 74 72 17
f 75 20 23
f 75 74 20
f 76 23 26
f 76 75 23
f 77 26 29
f 77 76 26
f 78 29 32
f 78 77 29
f 79 32 35
f 79 78 32
f 80 35 38
f 80 79 35
f 81 38 41
f 81 80 38
f 82 41 44
f 82 81 41
f 83 44 47
f 83 82 44
f 84 47 50
f 84 83 47
f 53 85 50
f 84 50 85
f 86 85 53
f 87 84 85
f 88 87 85
f 88 85 86
f 54 86 53
f 89 90 70
f 91 70 90
f 73 89 70
f 71 70 91
f 92 93 90
f 94 90 93
f 89 92 90
f 91 90 94
f 95 96 93
f 97 93 96
f 92 95 93
f 94 93 97
f 98 99 96
f 100 96 99
f 95 98 96
f 97 96 100
f 101 102 99
f 103 99 102
f 98 101 99
f 100 99 103
f 104 105 102
f 106 102 105
f 101 104 102
f 103 102 106
f 107 108 105
f 109 105 108
f 104 107 105
f 106 105 109
f 110 111 108
f 112 108 111
f 107 110 108
f 109 108 112
f 113 114 111
f 115 111 114
f 116 113 111
f 110 116 111
f 112 111 115
f 117 114 113
f 115 114 117
f 118 113 116
f 119 113 118
f 117 113 119
f 120 116 110
f 121 118 116
f 120 121 116
f 122 110 107
f 122 120 110
f 123 107 104
f 123 122 107
f 124 104 101
f 124 123 104
f 125 101 98
f 125 124 101
f 126 98 95
f 126 125 98
f 127 95 92
f 127 126 95
f 128 92 89
f 128 127 92
f 129 89 73
f 129 128 89
f 130 73 72
f 130 129 73
f 131 72 74
f 131 130 72
f 132 74 75
f 132 131 74
f 133 75 76
f 133 132 75
f 134 76 77
f 134 133 76
f 135 77 78
f 135 134 77
f 136 78 79
f 136 135 78
f 137 79 80
f 137 136 79
f 138 80 81
f 138 137 80
f 139 81 82
f 139 138 81
f 140 82 83
f 140 139 82
f 141 83 84
f 141 140 83
f 87 142 84
f 143 84 142
f 143 141 84
f 144 142 87
f 145 143 142
f 146 145 142
f 146 142 144
f 88 144 87
f 147 118 121
f 119 118 147
f 148 121 120
f 149 121 148
f 147 121 149
f 150 120 122
f 151 148 120
f 150 151 120
f 152 122 123
f 152 150 122
f 153 123 124
f 153 152 123
f 154 124 125
f 154 153 124
f 155 125 126
f 155 154 125
f 156 126 127
f 156 155 126
f 157 127 128
f 157 156 127
f 158 128 129
f 158 157 128
f 159 129 130
f 159 158 129
f 160 130 131
f 160 159 130
f 161 131 132
f 161 160 131
f 162 132 133
f 162 161 132
f 163 133 134
f 163 162 133
f 164 134 135
f 164 163 134
f 165 135 136
f 165 164 135
f 166 136 137
f 166 165 136
f 167 137 138
f 167 166 137
f 168 138 139
f 168 167 138
f 169 139 140
f 169 168 139
f 170 140 141
f 170 169 140
f 171 141 143
f 171 170 141
f 145 172 143
f 173 143 172
f 173 171 143
f 174 172 145
f 175 173 172
f 176 175 172
f 176 172 174
f 146 174 145
f 177 148 151
f 177 149 148
f 178 151 150
f 179 151 178
f 177 151 179
f 180 150 152
f 181 178 150
f 180 181 150
f 182 152 153
f 182 180 152
f 183 153 154
f 183 182 153
f 184 154 155
f 184 183 154
f 185 155 156
f 185 184 155
f 186 156 157
f 186 185 156
f 187 157 158
f 187 186 157
f 188 158 159
f 188 187 158
f 189 159 160
f 189 188 159
f 190 160 161
f 190 189 160
f 191 161 162
f 191 190 161
f 192 162 163
f 192 191 162
f 193 163 164
f 193 192 163
f 194 164 165
f 194 193 164
f 195 165 166
f 195 194 165
f 196 166 167
f 196 195 166
f 197 167 168
f 197 196 167
f 198 168 169
f 198 197 168
f 199 169 170
f 199 198 169
f 200 170 171
f 200 199 170
f 201 171 173
f 201 200 171
f 175 202 173
f 203 173 202
f 203 201 173
f 204 202 175
f 205 203 202
f 206 205 202
f 206 202 204
f 176 204 175
f 207 178 181
f 207 179 178
f 208 181 180
f 209 181 208
f 207 181 209
f 210 180 182
f 211 208 180
f 210 211 180
f 212 182 183
f 212 210 182
f 213 183 184
f 213 212 183
f 214 184 185
f 214 213 184
f 215 185 186
f 215 214 185
f 216 186 187
f 216 215 186
f 217 187 188
f 217 216 187
f 218 188 189
f 218 217 188
f 219 189 190
f 219 218 189
f 220 190 191
f 220 219 190
f 221 191 192
f 221 220 191
f 222 192 193
f 222 221 192
f 223 193 194
f 223 222 193
f 224 194 195
f 224 223 194
f 225 195 196
f 225 224 195
f 226 196 197
f 226 225 196
f 227 197 198
f 227 226 197
f 228 198 199
f 228 227 198
f 229 199 200
f 229 228 199
f 230 200 201
f 230 229 200
f 231 201 203
f 231 230 201
f 205 232 203
f 233 203 232
f 233 231 203
f 234 232 205
f 235 233 232
f 236 235 232
f 236 232 234
f 206 234 205
f 237 208 211
f 237 209 208
f 238 211 210
f 239 211 238
f 237 211 239
f 240 210 212
f 241 238 210
f 240 241 210
f 242 212 213
f 242 240 212
f 243 213 214
f 243 242 213
f 244 214 215
f 244 243 214
f 245 215 216
f 245 244 215
f 246 216 217
f 246 245 216
f 247 217 218
f 247 246 217
f 248 218 219
f 248 247 218
f 249 219 220
f 249 248 219
f 250 220 221
f 250 249 220
f 251 221 222
f 251 250 221
f 252 222 223
f 252 251 222
f 253 223 224
f 253 252 223
f 254 224 225
f 254 253 224
f 255 225 226
f 255 254 225
f 256 226 227
f 256 255 226
f 257 227 228
f 257 256 227
f 258 228 229
f 258 257 228
f 259 229 230
f 259 258 229
f 260 230 231
f 260 259 230
f 261 231 233
f 261 260 231
f 235 262 233
f 263 233 262
f 263 261 233
f 264 262 235
f 265 263 262
f 266 265 262
f 266 262 264
f 236 264 235
f 267 238 241
f 267 239 238
f 268 241 240
f 269 241 268
f 267 241 269
f 270 240 242
f 271 268 240
f 270 271 240
f 272 242 243
f 272 270 242
f 273 243 244
f 273 272 243
f 274 244 245
f 274 273 244
f 275 245 246
f 275 274 245
f 276 246 247
f 276 275 246
f 277 247 248
f 277 276 247
f 278 248 249
f 278 277 248
f 279 249 250
f 279 278 249
f 280 250 251
f 280 279 250
f 281 251 252
f 281 280 251
f 282 252 253
f 282 281 252
f 283 253 254
f 283 282 253
f 284 254 255
f 284 283 254
f 285 255 256
f 285 284 255
f 286 256 257
f 286 285 256
f 287 257 258
f 287 286 257
f 288 258 259
f 288 287 258
f 289 259 260
f 289 288 259
f 290 260 261
f 290 289 260
f 291 261 263
f 291 290 261
f 265 292 263
f 293 263 292
f 293 291 263
f 294 292 265
f 295 293 292
f 296 295 292
f 296 292 294
f 266 294 265
f 297 268 271
f 297 269 268
f 298 271 270
f 299 271 298
f 297 271 299
f 300 270 272
f 301 298 270
f 300 301 270
f 302 272 273
f 302 300 272
f 303 273 274
f 303 302 273
f 304 274 275
f 304 303 274
f 305 275 276
f 305 304 275
f 306 276 277
f 306 305 276
f 307 277 278
f 307 306 277
f 308 278 279
f 308 307 278
f 309 279 280
f 309 308 279
f 310 280 281
f 310 309 280
f 311 281 282
f 311 310 281
f 312 282 283
f 312 311 282
f 313 283 284
f 313 312 283
f 314 284 285
f 314 313 284
f 315 285 286
f 315 314 285
f 316 286 287
f 316 315 286
f 317 287 288
f 317 316 287
f 318 288 289
f 318 317 288
f 319 289 290
f 319 318 289
f 320 290 291
f 320 319 290
f 321 291 293
f 321 320 291
f 295 322 293
f 323 293 322
f 323 321 293
f 324 322 295
f 325 323 322
f 326 325 322
f 326 322 324
f 296 324 295
f 327 298 301
f 327 299 298
f 328 301 300
f 329 301 328
f 327 301 329
f 330 300 302
f 331 328 300
f 330 331 300
f 332 302 303
f 332 330 302
f 333 303 304
f 333 332 303
f 334 304 305
f 334 333 304
f 335 305 306
f 335 334 305
f 336 306 307
f 336 335 306
f 337 307 308
f 337 336 307
f 338 308 309
f 338 337 308
f 339 309 310
f 339 338 309
f 340 310 311
f 340 339 310
f 341 311 312
f 341 340 311
f 342 312 313
f 342 341 312
f 343 313 314
f 343 342 313
f 344 314 315
f 344 343 314
f 345 315 316
f 345 344 315
f 346 316 317
f 346 345 316
f 347 317 318
f 347 346 317
f 348 318 319
f 348 347 318
f 349 319 320
f 349 348 319
f 350 320 321
f 350 349 320
f 351 321 323
f 351 350 321
f 325 352 323
f 353 323 352
f 353 351 323
f 354 352 325
f 355 353 352
f 356 355 352
f 356 352 354
f 326 354 325
f 357 328 331
f 329 328 357
f 358 331 330
f 359 331 358
f 357 331 359
f 360 330 332
f 360 358 330
f 361 332 333
f 361 360 332
f 362 333 334
f 362 361 333
f 363 334 335
f 363 362 334
f 364 335 336
f 364 363 335
f 365 336 337
f 365 364 336
f 366 337 338
f 366 365 337
f 367 338 339
f 367 366 338
f 368 339 340
f 368 367 339
f 369 340 341
f 370 368 340
f 369 370 340
f 371 341 342
f 371 369 341
f 372 342 343
f 372 371 342
f 373 343 344
f 373 372 343
f 374 344 345
f 374 373 344
f 375 345 346
f 375 374 345
f 376 346 347
f 376 375 346
f 377 347 348
f 377 376 347
f 378 348 349
f 378 377 348
f 379 349 350
f 379 378 349
f 380 350 351
f 380 379 350
f 381 351 353
f 381 380 351
f 355 382 353
f 383 353 382
f 383 381 353
f 384 382 355
f 385 383 382
f 386 385 382
f 386 382 384
f 384 355 356
f 387 358 360
f 387 359 358
f 388 360 361
f 387 360 388
f 389 361 362
f 388 361 389
f 390 362 363
f 389 362 390
f 391 363 364
f 390 363 391
f 392 364 365
f 391 364 392
f 393 365 366
f 392 365 393
f 394 366 367
f 393 366 394
f 395 367 368
f 394 367 395
f 396 368 370
f 395 368 396
f 397 370 369
f 398 370 397
f 398 396 370
f 399 369 371
f 400 397 369
f 401 400 369
f 399 401 369
f 402 371 372
f 402 399 371
f 403 372 373
f 403 402 372
f 404 373 374
f 404 403 373
f 405 374 375
f 405 404 374
f 406 375 376
f 406 405 375
f 407 376 377
f 407 406 376
f 408 377 378
f 408 407 377
f 409 378 379
f 409 408 378
f 410 379 380
f 410 409 379
f 411 380 381
f 411 410 380
f 412 381 383
f 412 411 381
f 385 413 383
f 414 383 413
f 414 412 383
f 415 413 385
f 416 414 413
f 417 416 413
f 417 413 415
f 415 385 386
f 418 397 400
f 418 398 397
f 419 400 401
f 419 418 400
f 420 401 399
f 421 401 420
f 419 401 421
f 422 399 402
f 422 420 399
f 423 402 403
f 423 422 402
f 424 403 404
f 424 423 403
f 425 404 405
f 425 424 404
f 426 405 406
f 426 425 405
f 427 406 407
f 427 426 406
f 428 407 408
f 428 427 407
f 429 408 409
f 429 428 408
f 430 409 410
f 430 429 409
f 431 410 411
f 431 430 410
f 432 411 412
f 432 431 411
f 433 412 414
f 433 432 412
f 416 434 414
f 435 414 434
f 435 433 414
f 436 434 416
f 437 435 434
f 438 437 434
f 438 434 436
f 436 416 417
f 439 420 422
f 439 421 420
f 440 422 423
f 440 439 422
f 441 423 424
f 440 423 441
f 442 424 425
f 441 424 442
f 443 425 426
f 442 425 443
f 444 426 427
f 443 426 444
f 445 427 428
f 444 427 445
f 446 428 429
f 445 428 446
f 447 429 430
f 446 429 447
f 448 430 431
f 447 430 448
f 449 431 432
f 448 431 449
f 450 432 433
f 449 432 450
f 451 433 435
f 450 433 451
f 452 435 437
f 451 435 452
f 452 437 438
f 453 454 455
f 456 455 454
f 457 453 455
f 458 457 455
f 459 458 455
f 459 455 456
f 453 460 454
f 461 454 460
f 461 456 454
f 462 463 460
f 461 460 463
f 453 462 460
f 462 464 463
f 465 463 464
f 466 463 465
f 466 461 463
f 467 468 464
f 469 464 468
f 462 467 464
f 469 465 464
f 470 471 468
f 472 468 471
f 467 470 468
f 473 469 468
f 472 473 468
f 474 475 471
f 476 471 475
f 470 474 471
f 476 472 471
f 477 478 475
f 479 475 478
f 474 477 475
f 479 476 475
f 356 354 478
f 480 478 354
f 384 356 478
f 477 384 478
f 480 479 478
f 326 480 354
f 386 384 477
f 481 477 474
f 415 386 477
f 482 415 477
f 481 482 477
f 483 474 470
f 483 481 474
f 484 470 467
f 484 483 470
f 485 467 462
f 485 484 467
f 486 462 453
f 486 485 462
f 487 453 457
f 487 486 453
f 458 488 457
f 489 457 488
f 489 487 457
f 490 491 488
f 492 488 491
f 493 490 488
f 458 493 488
f 492 489 488
f 494 495 491
f 496 491 495
f 490 494 491
f 496 492 491
f 497 498 495
f 499 495 498
f 494 497 495
f 499 496 495
f 500 501 498
f 502 498 501
f 497 500 498
f 502 499 498
f 503 504 501
f 505 501 504
f 500 503 501
f 505 502 501
f 506 507 504
f 396 504 507
f 503 506 504
f 505 504 396
f 508 509 507
f 395 507 509
f 506 508 507
f 395 396 507
f 510 511 509
f 394 509 511
f 508 510 509
f 394 395 509
f 512 513 511
f 393 511 513
f 510 512 511
f 393 394 511
f 514 515 513
f 392 513 515
f 512 514 513
f 392 393 513
f 516 517 515
f 391 515 517
f 514 516 515
f 391 392 515
f 518 519 517
f 390 517 519
f 516 518 517
f 390 391 517
f 520 521 519
f 389 519 521
f 518 520 519
f 389 390 519
f 522 523 521
f 388 521 523
f 520 522 521
f 388 389 521
f 357 359 523
f 388 523 359
f 329 357 523
f 524 329 523
f 522 524 523
f 387 388 359
f 327 329 524
f 525 524 522
f 526 524 525
f 299 524 526
f 327 524 299
f 527 522 520
f 525 522 527
f 528 520 518
f 527 520 528
f 529 518 516
f 528 518 529
f 530 516 514
f 529 516 530
f 531 514 512
f 530 514 531
f 532 512 510
f 531 512 532
f 533 510 508
f 532 510 533
f 534 508 506
f 533 508 534
f 535 506 503
f 534 506 535
f 536 503 500
f 535 503 536
f 537 500 497
f 536 500 537
f 538 497 494
f 537 497 538
f 539 494 490
f 540 538 494
f 539 540 494
f 541 490 493
f 541 539 490
f 459 493 458
f 459 541 493
f 542 465 469
f 542 466 465
f 542 469 473
f 543 473 472
f 542 473 543
f 544 472 476
f 545 543 472
f 544 545 472
f 546 476 479
f 546 544 476
f 547 479 480
f 547 546 479
f 326 324 480
f 547 480 324
f 296 547 324
f 548 543 545
f 548 542 543
f 549 545 544
f 548 545 549
f 550 544 546
f 551 549 544
f 550 551 544
f 552 546 547
f 552 550 546
f 296 294 547
f 553 547 294
f 553 552 547
f 266 553 294
f 554 549 551
f 554 548 549
f 555 551 550
f 554 551 555
f 556 550 552
f 557 555 550
f 556 557 550
f 558 552 553
f 558 556 552
f 266 264 553
f 558 553 264
f 236 558 264
f 557 559 555
f 560 555 559
f 560 554 555
f 557 561 559
f 560 559 561
f 562 561 557
f 562 563 561
f 564 561 563
f 564 560 561
f 565 557 556
f 565 562 557
f 566 556 558
f 566 565 556
f 236 234 558
f 567 558 234
f 567 566 558
f 206 567 234
f 562 568 563
f 564 563 568
f 569 568 562
f 570 571 568
f 564 568 571
f 569 570 568
f 572 562 565
f 572 569 562
f 573 565 566
f 573 572 565
f 574 566 567
f 574 573 566
f 206 204 567
f 574 567 204
f 176 574 204
f 570 575 571
f 576 571 575
f 576 564 571
f 570 577 575
f 578 575 577
f 578 576 575
f 579 577 570
f 580 581 577
f 578 577 581
f 579 580 577
f 582 570 569
f 582 579 570
f 583 569 572
f 583 582 569
f 584 572 573
f 584 583 572
f 585 573 574
f 585 584 573
f 176 174 574
f 585 574 174
f 146 585 174
f 580 586 581
f 587 581 586
f 587 578 581
f 588 589 586
f 587 586 589
f 580 588 586
f 588 590 589
f 591 589 590
f 591 587 589
f 592 593 590
f 594 590 593
f 588 592 590
f 594 591 590
f 595 596 593
f 594 593 596
f 592 595 593
f 595 597 596
f 598 596 597
f 599 596 598
f 599 594 596
f 600 601 597
f 602 597 601
f 595 600 597
f 603 598 597
f 602 603 597
f 604 605 601
f 606 601 605
f 600 604 601
f 606 602 601
f 607 608 605
f 609 605 608
f 604 607 605
f 609 606 605
f 610 611 608
f 612 608 611
f 607 610 608
f 612 609 608
f 613 614 611
f 615 611 614
f 610 613 611
f 615 612 611
f 616 617 614
f 618 614 617
f 613 616 614
f 618 615 614
f 619 620 617
f 621 617 620
f 616 619 617
f 621 618 617
f 622 623 620
f 624 620 623
f 619 622 620
f 624 621 620
f 625 626 623
f 627 623 626
f 622 625 623
f 627 624 623
f 628 629 626
f 630 626 629
f 625 628 626
f 630 627 626
f 631 632 629
f 633 629 632
f 628 631 629
f 633 630 629
f 634 635 632
f 636 632 635
f 631 634 632
f 636 633 632
f 637 638 635
f 639 635 638
f 634 637 635
f 639 636 635
f 147 149 638
f 640 638 149
f 119 147 638
f 637 119 638
f 640 639 638
f 177 640 149
f 117 119 637
f 115 637 634
f 115 117 637
f 112 634 631
f 112 115 634
f 109 631 628
f 109 112 631
f 106 628 625
f 106 109 628
f 103 625 622
f 103 106 625
f 100 622 619
f 100 103 622
f 97 619 616
f 97 100 619
f 94 616 613
f 94 97 616
f 91 613 610
f 91 94 613
f 641 610 607
f 71 91 610
f 641 71 610
f 642 607 604
f 642 641 607
f 643 604 600
f 643 642 604
f 644 600 595
f 644 643 600
f 645 595 592
f 645 644 595
f 646 592 588
f 646 645 592
f 647 588 580
f 647 646 588
f 648 580 579
f 648 647 580
f 649 579 582
f 649 648 579
f 650 582 583
f 650 649 582
f 651 583 584
f 651 650 583
f 652 584 585
f 652 651 584
f 146 144 585
f 653 585 144
f 653 652 585
f 88 653 144
f 654 598 603
f 654 599 598
f 654 603 602
f 655 602 606
f 654 602 655
f 656 606 609
f 657 655 606
f 656 657 606
f 658 609 612
f 658 656 609
f 659 612 615
f 659 658 612
f 660 615 618
f 660 659 615
f 661 618 621
f 661 660 618
f 662 621 624
f 662 661 621
f 663 624 627
f 663 662 624
f 664 627 630
f 664 663 627
f 665 630 633
f 665 664 630
f 666 633 636
f 666 665 633
f 667 636 639
f 667 666 636
f 668 639 640
f 668 667 639
f 177 179 640
f 668 640 179
f 207 668 179
f 669 655 657
f 669 654 655
f 670 657 656
f 669 657 670
f 671 656 658
f 672 670 656
f 673 672 656
f 671 673 656
f 674 658 659
f 674 671 658
f 675 659 660
f 675 674 659
f 676 660 661
f 676 675 660
f 677 661 662
f 677 676 661
f 678 662 663
f 678 677 662
f 679 663 664
f 679 678 663
f 680 664 665
f 680 679 664
f 681 665 666
f 681 680 665
f 682 666 667
f 682 681 666
f 683 667 668
f 683 682 667
f 207 209 668
f 684 668 209
f 684 683 668
f 237 684 209
f 685 670 672
f 685 669 670
f 685 672 673
f 686 673 671
f 686 687 673
f 688 673 687
f 688 685 673
f 689 671 674
f 689 686 671
f 690 674 675
f 690 689 674
f 691 675 676
f 691 690 675
f 692 676 677
f 692 691 676
f 693 677 678
f 693 692 677
f 694 678 679
f 694 693 678
f 695 679 680
f 695 694 679
f 696 680 681
f 696 695 680
f 697 681 682
f 697 696 681
f 698 682 683
f 698 697 682
f 699 683 684
f 699 698 683
f 237 239 684
f 699 684 239
f 267 699 239
f 686 700 687
f 688 687 700
f 537 700 686
f 537 701 700
f 702 700 701
f 702 688 700
f 536 686 689
f 536 537 686
f 535 689 690
f 535 536 689
f 534 690 691
f 534 535 690
f 533 691 692
f 533 534 691
f 532 692 693
f 532 533 692
f 531 693 694
f 531 532 693
f 530 694 695
f 530 531 694
f 529 695 696
f 529 530 695
f 528 696 697
f 528 529 696
f 527 697 698
f 527 528 697
f 525 698 699
f 525 527 698
f 267 269 699
f 526 699 269
f 526 525 699
f 297 526 269
f 537 538 701
f 702 701 538
f 702 538 540
f 297 299 526
f 703 540 539
f 703 702 540
f 541 703 539
f 398 505 396
f 417 415 482
f 704 482 481
f 436 417 482
f 704 436 482
f 705 481 483
f 705 704 481
f 706 483 484
f 706 705 483
f 707 484 485
f 707 706 484
f 708 485 486
f 708 707 485
f 709 486 487
f 709 708 486
f 710 487 489
f 710 709 487
f 711 489 492
f 711 710 489
f 712 492 496
f 712 711 492
f 713 496 499
f 713 712 496
f 714 499 502
f 714 713 499
f 715 502 505
f 715 714 502
f 716 505 398
f 716 715 505
f 716 398 418
f 419 716 418
f 438 436 704
f 452 704 705
f 452 438 704
f 451 705 706
f 451 452 705
f 450 706 707
f 450 451 706
f 449 707 708
f 449 450 707
f 448 708 709
f 448 449 708
f 447 709 710
f 447 448 709
f 446 710 711
f 446 447 710
f 445 711 712
f 445 446 711
f 444 712 713
f 444 445 712
f 443 713 714
f 443 444 713
f 442 714 715
f 442 443 714
f 441 715 716
f 441 442 715
f 419 421 716
f 440 716 421
f 440 441 716
f 440 421 439
f 69 71 641
f 717 641 642
f 10 641 717
f 69 641 10
f 718 642 643
f 717 642 718
f 719 643 644
f 718 643 719
f 720 644 645
f 719 644 720
f 721 645 646
f 720 645 721
f 722 646 647
f 721 646 722
f 723 647 648
f 722 647 723
f 724 648 649
f 723 648 724
f 725 649 650
f 724 649 725
f 726 650 651
f 725 650 726
f 727 651 652
f 726 651 727
f 728 652 653
f 727 652 728
f 88 86 653
f 729 653 86
f 728 653 729
f 54 729 86
f 717 5 4
f 7 717 4
f 718 68 5
f 717 718 5
f 719 67 68
f 718 719 68
f 720 66 67
f 719 720 67
f 721 65 66
f 720 721 66
f 722 64 65
f 721 722 65
f 723 63 64
f 722 723 64
f 724 62 63
f 723 724 63
f 725 61 62
f 724 725 62
f 726 60 61
f 725 726 61
f 727 59 60
f 726 727 60
f 728 58 59
f 727 728 59
f 729 57 58
f 728 729 58
f 55 56 57
f 52 55 57
f 729 52 57
f 54 52 729
f 7 10 717
f 730 731 732
f 733 732 731
f 734 730 732
f 735 732 733
f 736 732 735
f 734 732 736
f 730 737 731
f 738 731 737
f 739 731 738
f 739 733 731
f 740 741 737
f 742 737 741
f 730 740 737
f 742 738 737
f 743 744 741
f 745 741 744
f 740 743 741
f 742 741 745
f 746 747 744
f 748 744 747
f 749 746 744
f 743 749 744
f 745 744 748
f 750 751 747
f 752 747 751
f 746 750 747
f 748 747 752
f 753 754 751
f 755 751 754
f 750 753 751
f 752 751 755
f 756 757 754
f 758 754 757
f 753 756 754
f 755 754 758
f 759 760 757
f 761 757 760
f 762 759 757
f 756 762 757
f 758 757 761
f 763 764 760
f 765 760 764
f 759 763 760
f 761 760 765
f 766 767 764
f 768 764 767
f 763 766 764
f 765 764 768
f 769 770 767
f 771 767 770
f 772 769 767
f 766 772 767
f 768 767 771
f 773 770 769
f 771 770 774
f 775 774 770
f 773 775 770
f 776 769 772
f 777 773 769
f 777 769 776
f 778 772 766
f 776 772 778
f 779 766 763
f 778 766 779
f 780 763 759
f 779 763 780
f 781 759 762
f 780 759 781
f 782 762 756
f 781 762 782
f 782 756 753
f 783 753 750
f 782 753 783
f 784 750 746
f 783 750 784
f 785 746 749
f 784 746 785
f 786 749 743
f 785 749 786
f 787 743 740
f 786 743 787
f 734 740 730
f 787 740 734
f 788 456 461
f 789 456 788
f 789 459 456
f 790 461 466
f 790 788 461
f 791 466 542
f 791 790 466
f 792 542 548
f 792 791 542
f 793 548 554
f 793 792 548
f 794 554 560
f 794 793 554
f 795 560 564
f 795 794 560
f 796 564 576
f 796 795 564
f 797 576 578
f 797 796 576
f 798 578 587
f 798 797 578
f 799 587 591
f 799 798 587
f 799 591 800
f 594 800 591
f 801 799 800
f 801 800 802
f 803 802 800
f 803 800 594
f 804 788 790
f 805 788 804
f 805 789 788
f 806 790 791
f 806 804 790
f 807 791 792
f 807 806 791
f 808 792 793
f 808 807 792
f 809 793 794
f 809 808 793
f 810 794 795
f 810 809 794
f 811 795 796
f 811 810 795
f 812 796 797
f 812 811 796
f 813 797 798
f 813 812 797
f 814 798 799
f 814 813 798
f 801 814 799
f 815 801 802
f 815 802 816
f 817 816 802
f 817 802 803
f 818 804 806
f 819 804 818
f 819 805 804
f 820 806 807
f 820 818 806
f 821 807 808
f 821 820 807
f 822 808 809
f 822 821 808
f 823 809 810
f 823 822 809
f 824 810 811
f 824 823 810
f 825 811 812
f 825 824 811
f 826 812 813
f 826 825 812
f 827 813 814
f 827 826 813
f 828 814 801
f 828 827 814
f 815 828 801
f 829 815 816
f 829 816 830
f 831 830 816
f 831 816 817
f 832 818 820
f 833 818 832
f 833 819 818
f 834 820 821
f 834 832 820
f 835 821 822
f 835 834 821
f 836 822 823
f 836 835 822
f 837 823 824
f 837 836 823
f 838 824 825
f 838 837 824
f 839 825 826
f 839 838 825
f 840 826 827
f 840 839 826
f 841 827 828
f 841 840 827
f 842 828 815
f 842 841 828
f 829 842 815
f 843 829 830
f 843 830 844
f 845 844 830
f 845 830 831
f 846 832 834
f 847 832 846
f 847 833 832
f 848 834 835
f 848 846 834
f 849 835 836
f 849 848 835
f 850 836 837
f 850 849 836
f 851 837 838
f 851 850 837
f 852 838 839
f 852 851 838
f 853 839 840
f 853 852 839
f 854 840 841
f 854 853 840
f 855 841 842
f 855 854 841
f 856 842 829
f 856 855 842
f 843 856 829
f 857 843 844
f 857 844 858
f 859 858 844
f 859 844 845
f 860 846 848
f 861 846 860
f 861 847 846
f 862 848 849
f 862 860 848
f 863 849 850
f 863 862 849
f 864 850 851
f 864 863 850
f 865 851 852
f 865 864 851
f 866 852 853
f 866 865 852
f 867 853 854
f 867 866 853
f 868 854 855
f 868 867 854
f 869 855 856
f 869 868 855
f 870 856 843
f 870 869 856
f 857 870 843
f 871 857 858
f 871 858 872
f 873 872 858
f 873 858 859
f 874 860 862
f 875 860 874
f 875 861 860
f 876 862 863
f 876 874 862
f 877 863 864
f 877 876 863
f 878 864 865
f 878 877 864
f 879 865 866
f 879 878 865
f 880 866 867
f 880 879 866
f 881 867 868
f 881 880 867
f 882 868 869
f 882 881 868
f 883 869 870
f 883 882 869
f 884 870 857
f 884 883 870
f 871 884 857
f 885 871 872
f 885 872 886
f 887 886 872
f 887 872 873
f 888 874 876
f 889 874 888
f 889 875 874
f 890 876 877
f 890 888 876
f 891 877 878
f 891 890 877
f 892 878 879
f 892 891 878
f 893 879 880
f 893 892 879
f 894 880 881
f 894 893 880
f 895 881 882
f 895 894 881
f 896 882 883
f 896 895 882
f 897 883 884
f 897 896 883
f 898 884 871
f 898 897 884
f 885 898 871
f 899 885 886
f 899 886 900
f 901 900 886
f 901 886 887
f 902 888 890
f 903 888 902
f 903 889 888
f 904 890 891
f 904 902 890
f 905 891 892
f 905 904 891
f 906 892 893
f 906 905 892
f 907 893 894
f 907 906 893
f 908 894 895
f 908 907 894
f 909 895 896
f 909 908 895
f 910 896 897
f 910 909 896
f 911 897 898
f 911 910 897
f 912 898 885
f 912 911 898
f 899 912 885
f 742 899 900
f 742 900 738
f 913 738 900
f 913 900 901
f 774 902 904
f 914 902 774
f 914 903 902
f 771 904 905
f 771 774 904
f 768 905 906
f 768 771 905
f 765 906 907
f 765 768 906
f 761 907 908
f 761 765 907
f 758 908 909
f 758 761 908
f 755 909 910
f 755 758 909
f 752 910 911
f 752 755 910
f 748 911 912
f 748 752 911
f 745 912 899
f 745 748 912
f 742 745 899
f 739 738 913
f 914 774 775
f 915 916 775
f 914 775 916
f 773 915 775
f 917 918 916
f 919 916 918
f 915 917 916
f 914 916 919
f 920 921 918
f 922 918 921
f 923 920 918
f 917 923 918
f 919 918 922
f 924 925 921
f 926 921 925
f 920 924 921
f 922 921 926
f 927 928 925
f 929 925 928
f 924 927 925
f 926 925 929
f 930 931 928
f 932 928 931
f 927 930 928
f 929 928 932
f 933 934 931
f 935 931 934
f 936 933 931
f 930 936 931
f 932 931 935
f 937 938 934
f 939 934 938
f 933 937 934
f 935 934 939
f 940 733 938
f 941 938 733
f 937 940 938
f 939 938 941
f 940 735 733
f 941 733 739
f 942 735 940
f 942 736 735
f 943 940 937
f 942 940 943
f 944 937 933
f 943 937 944
f 945 933 936
f 944 933 945
f 946 936 930
f 945 936 946
f 946 930 927
f 947 927 924
f 946 927 947
f 948 924 920
f 947 924 948
f 949 920 923
f 948 920 949
f 950 923 917
f 949 923 950
f 951 917 915
f 950 917 951
f 777 915 773
f 951 915 777
f 803 594 599
f 952 599 654
f 952 803 599
f 953 654 669
f 953 952 654
f 954 669 685
f 954 953 669
f 955 685 688
f 955 954 685
f 956 688 702
f 956 955 688
f 957 702 703
f 957 956 702
f 958 703 541
f 958 957 703
f 959 541 459
f 959 958 541
f 789 959 459
f 817 803 952
f 960 952 953
f 960 817 952
f 961 953 954
f 961 960 953
f 962 954 955
f 962 961 954
f 963 955 956
f 963 962 955
f 964 956 957
f 964 963 956
f 965 957 958
f 965 964 957
f 966 958 959
f 966 965 958
f 967 959 789
f 967 966 959
f 805 967 789
f 831 817 960
f 968 960 961
f 968 831 960
f 969 961 962
f 969 968 961
f 970 962 963
f 970 969 962
f 971 963 964
f 971 970 963
f 972 964 965
f 972 971 964
f 973 965 966
f 973 972 965
f 974 966 967
f 974 973 966
f 975 967 805
f 975 974 967
f 819 975 805
f 845 831 968
f 976 968 969
f 976 845 968
f 977 969 970
f 977 976 969
f 978 970 971
f 978 977 970
f 979 971 972
f 979 978 971
f 980 972 973
f 980 979 972
f 981 973 974
f 981 980 973
f 982 974 975
f 982 981 974
f 983 975 819
f 983 982 975
f 833 983 819
f 859 845 976
f 984 976 977
f 984 859 976
f 985 977 978
f 985 984 977
f 986 978 979
f 986 985 978
f 987 979 980
f 987 986 979
f 988 980 981
f 988 987 980
f 989 981 982
f 989 988 981
f 990 982 983
f 990 989 982
f 991 983 833
f 991 990 983
f 847 991 833
f 873 859 984
f 992 984 985
f 992 873 984
f 993 985 986
f 993 992 985
f 994 986 987
f 994 993 986
f 995 987 988
f 995 994 987
f 996 988 989
f 996 995 988
f 997 989 990
f 997 996 989
f 998 990 991
f 998 997 990
f 999 991 847
f 999 998 991
f 861 999 847
f 887 873 992
f 1000 992 993
f 1000 887 992
f 1001 993 994
f 1001 1000 993
f 1002 994 995
f 1002 1001 994
f 1003 995 996
f 1003 1002 995
f 1004 996 997
f 1004 1003 996
f 1005 997 998
f 1005 1004 997
f 1006 998 999
f 1006 1005 998
f 1007 999 861
f 1007 1006 999
f 875 1007 861
f 901 887 1000
f 1008 1000 1001
f 1008 901 1000
f 1009 1001 1002
f 1009 1008 1001
f 1010 1002 1003
f 1010 1009 1002
f 1011 1003 1004
f 1011 1010 1003
f 1012 1004 1005
f 1012 1011 1004
f 1013 1005 1006
f 1013 1012 1005
f 1014 1006 1007
f 1014 1013 1006
f 1015 1007 875
f 1015 1014 1007
f 889 1015 875
f 913 901 1008
f 1016 1008 1009
f 1016 913 1008
f 1017 1009 1010
f 1017 1016 1009
f 1018 1010 1011
f 1018 1017 1010
f 1019 1011 1012
f 1019 1018 1011
f 1020 1012 1013
f 1020 1019 1012
f 1021 1013 1014
f 1021 1020 1013
f 1022 1014 1015
f 1022 1021 1014
f 1023 1015 889
f 1023 1022 1015
f 903 1023 889
f 739 913 1016
f 941 1016 1017
f 941 739 1016
f 939 1017 1018
f 939 941 1017
f 935 1018 1019
f 935 939 1018
f 932 1019 1020
f 932 935 1019
f 929 1020 1021
f 929 932 1020
f 926 1021 1022
f 926 929 1021
f 922 1022 1023
f 922 926 1022
f 919 1023 903
f 919 922 1023
f 914 919 903
f 1024 1025 1026
f 1027 1026 1025
f 1028 1024 1026
f 1029 1028 1026
f 1030 1029 1026
f 1030 1026 1027
f 1024 1031 1025
f 1032 1025 1031
f 1032 1027 1025
f 1024 1033 1031
f 1032 1031 1033
f 1034 1033 1024
f 1035 1036 1033
f 1037 1033 1036
f 1034 1035 1033
f 1032 1033 1037
f 1038 1024 1028
f 1038 1034 1024
f 1029 1039 1028
f 1040 1028 1039
f 1040 1038 1028
f 1041 1042 1039
f 1043 1039 1042
f 1029 1041 1039
f 1043 1040 1039
f 1044 1042 1041
f 1043 1042 1045
f 1044 1045 1042
f 1030 1041 1029
f 1044 1041 1030
f 1046 1043 1045
f 1047 1046 1045
f 1047 1045 1044
f 1035 1048 1036
f 1037 1036 1048
f 1049 1048 1035
f 1037 1048 1049
f 1050 1035 1034
f 1051 1052 1035
f 1049 1035 1052
f 1050 1051 1035
f 1053 1034 1038
f 1053 1050 1034
f 1054 1038 1040
f 1054 1053 1038
f 1055 1040 1043
f 1055 1054 1040
f 1046 1056 1043
f 1057 1043 1056
f 1057 1055 1043
f 1058 1056 1046
f 1057 1056 1059
f 1058 1059 1056
f 1058 1046 1047
f 1060 1057 1059
f 1058 1060 1059
f 1061 1052 1051
f 1049 1052 1061
f 1062 1051 1050
f 1062 1063 1051
f 1061 1051 1063
f 1064 1050 1053
f 1065 1062 1050
f 1064 1065 1050
f 1066 1053 1054
f 1066 1064 1053
f 1067 1054 1055
f 1067 1066 1054
f 1068 1055 1057
f 1069 1067 1055
f 1068 1069 1055
f 1070 1057 1060
f 1070 1068 1057
f 1071 1060 1072
f 1073 1072 1060
f 1071 1070 1060
f 1073 1060 1058
f 1073 1071 1072
f 1074 1063 1062
f 1061 1063 1074
f 1074 1062 1065
f 1075 1065 1064
f 1074 1065 1075
f 1076 1064 1066
f 1077 1075 1064
f 1076 1077 1064
f 1078 1066 1067
f 1078 1076 1066
f 1079 1067 1069
f 1079 1078 1067
f 1080 1069 1068
f 1080 1079 1069
f 1081 1068 1070
f 1081 1080 1068
f 1082 1070 1071
f 1081 1070 1083
f 1082 1083 1070
f 1082 1071 1073
f 1084 1081 1083
f 1084 1083 1082
f 1085 1075 1077
f 1074 1075 1085
f 1086 1077 1076
f 1085 1077 1086
f 1087 1076 1078
f 1088 1086 1076
f 1087 1088 1076
f 1089 1078 1079
f 1089 1087 1078
f 1090 1079 1080
f 1090 1089 1079
f 1091 1080 1081
f 1091 1090 1080
f 1091 1081 1092
f 1084 1092 1081
f 1084 1091 1092
f 1093 1086 1088
f 1085 1086 1093
f 1094 1088 1087
f 1093 1088 1094
f 1094 1087 1089
f 1095 1089 1090
f 1094 1089 1095
f 1096 1090 1091
f 1095 1090 1096
f 1096 1091 1084
f 1097 734 736
f 1098 1097 736
f 942 1098 736
f 1097 787 734
f 1099 786 787
f 1097 1099 787
f 1100 785 786
f 1099 1100 786
f 1100 784 785
f 1101 783 784
f 1100 1101 784
f 1102 782 783
f 1101 1102 783
f 1103 781 782
f 1102 1103 782
f 1104 780 781
f 1103 1104 781
f 1104 779 780
f 1105 778 779
f 1104 1105 779
f 1106 776 778
f 1105 1106 778
f 1107 776 1106
f 1107 777 776
f 1108 1106 1105
f 1109 1106 1108
f 1109 1107 1106
f 1110 1105 1104
f 1110 1108 1105
f 1111 1104 1103
f 1111 1110 1104
f 1112 1103 1102
f 1112 1111 1103
f 1113 1102 1101
f 1113 1112 1102
f 1114 1101 1100
f 1114 1113 1101
f 1115 1100 1099
f 1115 1114 1100
f 1116 1099 1097
f 1116 1115 1099
f 1117 1097 1098
f 1117 1116 1097
f 1118 1117 1098
f 1119 1118 1098
f 1119 1098 942
f 1120 1108 1110
f 1121 1108 1120
f 1121 1109 1108
f 1122 1110 1111
f 1122 1120 1110
f 1123 1111 1112
f 1123 1122 1111
f 1124 1112 1113
f 1124 1123 1112
f 1125 1113 1114
f 1125 1124 1113
f 1126 1114 1115
f 1126 1125 1114
f 1127 1115 1116
f 1127 1126 1115
f 1128 1116 1117
f 1128 1127 1116
f 1129 1117 1118
f 1129 1128 1117
f 1130 1129 1118
f 1131 1130 1118
f 1131 1118 1119
f 1132 1120 1122
f 1133 1120 1132
f 1133 1121 1120
f 1134 1122 1123
f 1134 1132 1122
f 1135 1123 1124
f 1135 1134 1123
f 1136 1124 1125
f 1136 1135 1124
f 1137 1125 1126
f 1137 1136 1125
f 1138 1126 1127
f 1138 1137 1126
f 1139 1127 1128
f 1139 1138 1127
f 1140 1128 1129
f 1140 1139 1128
f 1141 1129 1130
f 1141 1140 1129
f 1142 1141 1130
f 1143 1142 1130
f 1143 1130 1131
f 1144 1132 1134
f 1145 1132 1144
f 1145 1133 1132
f 1146 1134 1135
f 1146 1144 1134
f 1147 1135 1136
f 1147 1146 1135
f 1148 1136 1137
f 1148 1147 1136
f 1149 1137 1138
f 1149 1148 1137
f 1150 1138 1139
f 1150 1149 1138
f 1151 1139 1140
f 1151 1150 1139
f 1152 1140 1141
f 1152 1151 1140
f 1153 1141 1142
f 1153 1152 1141
f 1154 1153 1142
f 1155 1154 1142
f 1155 1142 1143
f 1156 1144 1146
f 1157 1144 1156
f 1157 1145 1144
f 1158 1146 1147
f 1158 1156 1146
f 1159 1147 1148
f 1159 1158 1147
f 1160 1148 1149
f 1160 1159 1148
f 1161 1149 1150
f 1161 1160 1149
f 1162 1150 1151
f 1162 1161 1150
f 1163 1151 1152
f 1163 1162 1151
f 1164 1152 1153
f 1164 1163 1152
f 1165 1153 1154
f 1165 1164 1153
f 1166 1165 1154
f 1167 1166 1154
f 1167 1154 1155
f 1168 1156 1158
f 1169 1156 1168
f 1169 1157 1156
f 1170 1158 1159
f 1170 1168 1158
f 1171 1159 1160
f 1171 1170 1159
f 1172 1160 1161
f 1172 1171 1160
f 1173 1161 1162
f 1173 1172 1161
f 1174 1162 1163
f 1174 1173 1162
f 1175 1163 1164
f 1175 1174 1163
f 1176 1164 1165
f 1176 1175 1164
f 1177 1165 1166
f 1177 1176 1165
f 1178 1177 1166
f 1179 1178 1166
f 1179 1166 1167
f 1180 1168 1170
f 1181 1168 1180
f 1181 1169 1168
f 1182 1170 1171
f 1182 1180 1170
f 1183 1171 1172
f 1183 1182 1171
f 1184 1172 1173
f 1184 1183 1172
f 1185 1173 1174
f 1185 1184 1173
f 1186 1174 1175
f 1186 1185 1174
f 1187 1175 1176
f 1187 1186 1175
f 1188 1176 1177
f 1188 1187 1176
f 1189 1177 1178
f 1189 1188 1177
f 1190 1189 1178
f 1191 1190 1178
f 1191 1178 1179
f 1192 1180 1182
f 1193 1180 1192
f 1193 1181 1180
f 1194 1182 1183
f 1194 1192 1182
f 1195 1183 1184
f 1195 1194 1183
f 1196 1184 1185
f 1196 1195 1184
f 1197 1185 1186
f 1197 1196 1185
f 1198 1186 1187
f 1198 1197 1186
f 1199 1187 1188
f 1199 1198 1187
f 1200 1188 1189
f 1200 1199 1188
f 1201 1189 1190
f 1201 1200 1189
f 1202 1201 1190
f 1203 1202 1190
f 1203 1190 1191
f 1204 1192 1194
f 1205 1192 1204
f 1205 1193 1192
f 1206 1194 1195
f 1206 1204 1194
f 1207 1195 1196
f 1207 1206 1195
f 1208 1196 1197
f 1208 1207 1196
f 1209 1197 1198
f 1209 1208 1197
f 1210 1198 1199
f 1210 1209 1198
f 1211 1199 1200
f 1211 1210 1199
f 1212 1200 1201
f 1212 1211 1200
f 1213 1201 1202
f 1213 1212 1201
f 1214 1213 1202
f 1215 1214 1202
f 1215 1202 1203
f 1027 1204 1206
f 1032 1204 1027
f 1032 1205 1204
f 1030 1206 1207
f 1030 1027 1206
f 1044 1207 1208
f 1044 1030 1207
f 1047 1208 1209
f 1047 1044 1208
f 1058 1209 1210
f 1058 1047 1209
f 1073 1210 1211
f 1073 1058 1210
f 1082 1211 1212
f 1082 1073 1211
f 1084 1212 1213
f 1084 1082 1212
f 1096 1213 1214
f 1096 1084 1213
f 1095 1096 1214
f 1216 1095 1214
f 1216 1214 1215
f 1094 1095 1216
f 1107 951 777
f 1217 950 951
f 1107 1217 951
f 1218 949 950
f 1217 1218 950
f 1218 948 949
f 1219 947 948
f 1218 1219 948
f 1220 946 947
f 1219 1220 947
f 1221 945 946
f 1220 1221 946
f 1222 944 945
f 1221 1222 945
f 1222 943 944
f 1119 942 943
f 1222 1119 943
f 1131 1119 1222
f 1223 1222 1221
f 1223 1131 1222
f 1224 1221 1220
f 1224 1223 1221
f 1225 1220 1219
f 1225 1224 1220
f 1226 1219 1218
f 1226 1225 1219
f 1227 1218 1217
f 1227 1226 1218
f 1228 1217 1107
f 1228 1227 1217
f 1109 1228 1107
f 1143 1131 1223
f 1229 1223 1224
f 1229 1143 1223
f 1230 1224 1225
f 1230 1229 1224
f 1231 1225 1226
f 1231 1230 1225
f 1232 1226 1227
f 1232 1231 1226
f 1233 1227 1228
f 1233 1232 1227
f 1234 1228 1109
f 1234 1233 1228
f 1121 1234 1109
f 1155 1143 1229
f 1235 1229 1230
f 1235 1155 1229
f 1236 1230 1231
f 1236 1235 1230
f 1237 1231 1232
f 1237 1236 1231
f 1238 1232 1233
f 1238 1237 1232
f 1239 1233 1234
f 1239 1238 1233
f 1240 1234 1121
f 1240 1239 1234
f 1133 1240 1121
f 1167 1155 1235
f 1241 1235 1236
f 1241 1167 1235
f 1242 1236 1237
f 1242 1241 1236
f 1243 1237 1238
f 1243 1242 1237
f 1244 1238 1239
f 1244 1243 1238
f 1245 1239 1240
f 1245 1244 1239
f 1246 1240 1133
f 1246 1245 1240
f 1145 1246 1133
f 1179 1167 1241
f 1247 1241 1242
f 1247 1179 1241
f 1248 1242 1243
f 1248 1247 1242
f 1249 1243 1244
f 1249 1248 1243
f 1250 1244 1245
f 1250 1249 1244
f 1251 1245 1246
f 1251 1250 1245
f 1252 1246 1145
f 1252 1251 1246
f 1157 1252 1145
f 1191 1179 1247
f 1253 1247 1248
f 1253 1191 1247
f 1254 1248 1249
f 1254 1253 1248
f 1255 1249 1250
f 1255 1254 1249
f 1256 1250 1251
f 1256 1255 1250
f 1257 1251 1252
f 1257 1256 1251
f 1258 1252 1157
f 1258 1257 1252
f 1169 1258 1157
f 1203 1191 1253
f 1259 1253 1254
f 1259 1203 1253
f 1260 1254 1255
f 1260 1259 1254
f 1261 1255 1256
f 1261 1260 1255
f 1262 1256 1257
f 1262 1261 1256
f 1263 1257 1258
f 1263 1262 1257
f 1264 1258 1169
f 1264 1263 1258
f 1181 1264 1169
f 1215 1203 1259
f 1265 1259 1260
f 1265 1215 1259
f 1266 1260 1261
f 1266 1265 1260
f 1267 1261 1262
f 1267 1266 1261
f 1268 1262 1263
f 1268 1267 1262
f 1269 1263 1264
f 1269 1268 1263
f 1270 1264 1181
f 1270 1269 1264
f 1193 1270 1181
f 1216 1215 1265
f 1271 1265 1266
f 1271 1216 1265
f 1272 1266 1267
f 1272 1271 1266
f 1273 1267 1268
f 1273 1272 1267
f 1274 1268 1269
f 1274 1273 1268
f 1275 1269 1270
f 1275 1274 1269
f 1276 1270 1193
f 1276 1275 1270
f 1205 1276 1193
f 1094 1216 1271
f 1093 1271 1272
f 1093 1094 1271
f 1085 1272 1273
f 1085 1093 1272
f 1074 1273 1274
f 1074 1085 1273
f 1061 1274 1275
f 1061 1074 1274
f 1049 1275 1276
f 1049 1061 1275
f 1037 1276 1205
f 1037 1049 1276
f 1032 1037 1205
