# https://github.com/mikedh/trimesh
v 5.27560977 -31.28621985 19.16516661
v 5.27560977 -31.18258436 12.73104202
v 7.05787349 -30.95531196 12.73104202
v 5.27560977 -31.20440153 23.70816330
v 5.27560977 -24.76443780 12.73104202
v 10.15686246 -30.07895361 12.73104202
v 11.48593422 -29.38077589 23.70816330
v 5.27560977 -24.69989181 23.70816330
v 12.69517156 -21.99990626 12.73104202
v 5.27560977 -24.69989181 21.89869915
v 10.18663898 -30.06986312 12.73104202
v 12.69517156 -29.02532330 23.70816330
v 6.73395775 -24.16898534 23.70816330
v 12.69517156 -29.04623181 12.73104202
v 12.69517156 -21.99899760 23.70816330
v 12.69517156 -29.07623160 20.39009782
f 1 2 3
f 1 3 4
f 1 4 8
f 1 8 10
f 1 10 5
f 1 5 2
f 2 5 9
f 2 9 14
f 2 14 11
f 2 11 6
f 2 6 3
f 3 6 4
f 4 7 12
f 4 12 15
f 4 15 13
f 4 13 8
f 4 6 7
f 5 10 9
f 6 11 12
f 6 12 7
f 8 13 10
f 9 10 15
f 9 15 12
f 9 12 16
f 9 16 14
f 10 13 15
f 11 14 16
f 11 16 12

