# https://github.com/mikedh/trimesh
v 20.43469517 15.04361268 12.73103890
v 18.22413316 17.65059499 12.73103890
v 23.77417034 15.04361268 12.73103890
v 20.19891698 15.04361268 21.90298015
v 18.22413316 17.36257205 21.90298015
v 18.22413316 25.86015430 12.73103890
v 23.77417034 20.84420233 12.73103890
v 23.77417034 15.04361268 123.47664293
v 20.19891698 15.04361268 120.64676134
v 18.22413316 17.36257205 115.19952125
v 19.38292589 25.14646068 12.73103890
v 18.22413316 25.81038728 127.00000282
v 19.79961302 24.81926862 12.73103890
v 23.77417034 20.88761186 15.10231952
v 23.77417034 20.84420233 127.00000282
v 18.22413316 17.61776462 120.64676134
v 19.79581133 24.82244112 127.00000282
v 20.79216649 23.99439391 21.90298015
v 23.77417034 20.88761186 126.00451260
v 20.79216649 23.99439391 123.18582219
f 1 2 6
f 1 6 11
f 1 11 13
f 1 13 7
f 1 7 3
f 1 3 8
f 1 8 9
f 1 9 4
f 1 4 5
f 1 5 2
f 2 5 10
f 2 10 16
f 2 16 12
f 2 12 6
f 3 7 14
f 3 14 19
f 3 19 15
f 3 15 8
f 4 9 10
f 4 10 5
f 6 12 11
f 7 13 14
f 8 15 12
f 8 12 9
f 9 12 16
f 9 16 10
f 11 12 17
f 11 17 13
f 12 15 17
f 13 18 14
f 13 17 18
f 14 18 20
f 14 20 19
f 15 19 20
f 15 20 17
f 17 20 18

