# https://github.com/mikedh/trimesh
v 12.69517156 -29.07553918 20.39296431
v 13.18949280 -28.88056476 21.90298015
v 12.69517156 -29.07553918 20.41533418
v 12.69517156 -29.04571972 12.73103890
v 13.77477359 -28.60530520 12.73103890
v 13.77585711 -28.60530520 127.00000282
v 13.18949280 -28.88056476 123.18582219
v 12.69517156 -29.04801400 123.49901279
v 12.69517156 -22.00023100 12.73103890
v 18.22637358 -25.85959475 12.73103890
v 18.22637358 -25.80913141 127.00000282
v 12.69517156 -28.98378651 127.00000282
v 12.72278416 -21.97844037 12.73103890
v 12.69517156 -21.99908503 21.90298015
v 18.22637358 -17.35982048 20.22518408
v 18.22637358 -17.64769666 12.73103890
v 18.22637358 -17.61443538 120.64676134
v 12.69517156 -21.99908503 120.64676134
v 18.22637358 -17.36096801 113.98032302
f 1 2 7
f 1 7 3
f 1 3 8
f 1 8 12
f 1 12 18
f 1 18 14
f 1 14 9
f 1 9 4
f 1 4 2
f 2 4 5
f 2 5 6
f 2 6 7
f 3 7 8
f 4 9 13
f 4 13 16
f 4 16 10
f 4 10 5
f 5 10 6
f 6 11 12
f 6 12 8
f 6 8 7
f 6 10 11
f 9 14 15
f 9 15 13
f 10 16 15
f 10 15 19
f 10 19 17
f 10 17 11
f 11 17 12
f 12 17 18
f 13 15 16
f 14 18 15
f 15 18 19
f 17 19 18

