# https://github.com/mikedh/trimesh
v 0.06674463 -0.15553509 0.00107796
v 0.06674734 -0.15553509 -0.00107796
v 0.06675549 -0.15553509 0.00214962
v 0.06696176 -0.02467780 0.00539607
v 0.06695904 -0.02467780 0.00107796
v 0.06695904 -0.02467780 -0.00269279
v 0.06676906 -0.15553509 -0.00323806
v 0.06696176 -0.02521589 -0.00539607
v 0.06678263 -0.15553509 0.00437893
v 0.06697533 -0.02467780 0.00594134
v 0.06696447 -0.02467780 -0.00485290
v 0.06684234 -0.15553509 -0.00536042
v 0.06701875 -0.02521589 -0.00755618
v 0.06696718 -0.02467780 -0.00539607
v 0.06702147 -0.02467780 -0.00755618
v 0.06688848 -0.15553509 0.00676344
v 0.06701875 -0.02467780 0.00755618
v 0.06701061 -0.15553509 -0.00755618
v 0.06768913 -0.02467780 -0.00939541
v 0.06702147 -0.15553509 0.00755618
v 0.06701875 -0.15258843 0.00755618
v 0.06718702 -0.02467780 0.00801966
v 0.06743672 -0.15553509 0.00871383
v 0.06768641 -0.15553509 -0.00939751
v 0.06895389 -0.02467780 -0.01017138
v 0.06768913 -0.09429583 -0.00939751
v 0.06768913 -0.02467780 0.00939541
v 0.06768641 -0.15553509 0.00939541
v 0.06831337 -0.15553509 -0.00978130
v 0.06938271 -0.07919100 -0.01043562
v 0.06938271 -0.02467780 -0.01043352
v 0.06811524 -0.02467780 0.00965756
v 0.06875305 -0.15553509 0.01004974
v 0.06938271 -0.15553509 -0.01043562
v 0.07154040 -0.02467780 -0.01071245
v 0.06938271 -0.02467780 0.01043352
v 0.06938271 -0.14827094 0.01043562
v 0.06938271 -0.15553509 0.01043352
v 0.06938271 -0.15258843 0.01043562
v 0.07154040 -0.15553509 -0.01071245
v 0.08449196 -0.02467780 -0.01071245
v 0.06992552 -0.02467780 0.01050483
v 0.07154040 -0.02467780 0.01071245
v 0.07154040 -0.15553509 0.01071245
v 0.08449196 -0.15553509 -0.01071245
v 0.08610684 -0.02467780 -0.01057613
v 0.08528990 -0.15553509 -0.01064534
v 0.08449196 -0.02467780 0.01071245
v 0.08449196 -0.15553509 0.01071245
v 0.08664965 -0.02467780 -0.01052999
v 0.08664965 -0.15553509 -0.01052999
v 0.08664965 -0.02467780 0.01052999
v 0.08664965 -0.15553509 0.01052999
v 0.08881006 -0.02467780 -0.01000150
v 0.08745030 -0.15553509 -0.01033496
v 0.08881006 -0.02467780 0.01000150
v 0.08881006 -0.15553509 0.01000150
v 0.09050907 -0.02467780 -0.00914375
v 0.08881006 -0.15553509 -0.01000150
v 0.08923888 -0.02467780 0.00978549
v 0.09050907 -0.15553509 0.00914375
v 0.09158927 -0.02467780 -0.00816017
v 0.09090804 -0.15553509 -0.00878094
v 0.09050907 -0.15553509 -0.00914375
v 0.09050907 -0.02467780 0.00914375
v 0.09119030 -0.15553509 0.00852508
v 0.09227050 -0.02467780 -0.00735275
v 0.09192581 -0.15553509 -0.00776170
v 0.09158927 -0.15553509 -0.00816017
v 0.09158927 -0.02467780 0.00816017
v 0.09158927 -0.15553509 0.00816017
v 0.09249849 -0.02467780 -0.00708012
v 0.09249849 -0.15553509 -0.00708012
v 0.09249849 -0.02467780 0.00708012
v 0.09216194 -0.15553509 0.00748068
v 0.09317157 -0.02467780 -0.00582180
v 0.09283231 -0.15553509 -0.00645725
v 0.09272647 -0.02467780 0.00665648
v 0.09249849 -0.15553509 0.00708012
v 0.09339684 -0.02467780 -0.00539607
v 0.09339684 -0.15553509 -0.00539607
v 0.09339684 -0.02467780 0.00539607
v 0.09306573 -0.15553509 0.00601894
v 0.09386909 -0.02467780 -0.00400144
v 0.09363025 -0.15553509 -0.00470610
v 0.09355697 -0.02467780 0.00492630
v 0.09339684 -0.15553509 0.00539607
v 0.09402651 -0.02467780 -0.00353167
v 0.09402651 -0.15553509 -0.00353167
v 0.09402651 -0.02467780 0.00353167
v 0.09402651 -0.15553509 0.00353167
v 0.09427077 -0.02467780 -0.00245162
v 0.09427077 -0.15553509 -0.00245162
v 0.09408893 -0.02467780 0.00325903
v 0.09418121 -0.15553509 0.00285008
v 0.09442005 -0.02467780 -0.00142399
v 0.09447161 -0.06623851 -0.00107796
v 0.09447161 -0.15553509 -0.00107796
v 0.09427077 -0.02467780 0.00245162
v 0.09427077 -0.15553509 0.00245162
v 0.09446890 -0.02467780 -0.00107796
v 0.09446890 -0.02467780 0.00107796
v 0.09447161 -0.15553509 -0.00028102
v 0.09446890 -0.15553509 0.00107796
f 1 2 7
f 1 7 12
f 1 12 18
f 1 18 24
f 1 24 29
f 1 29 34
f 1 34 40
f 1 40 45
f 1 45 47
f 1 47 51
f 1 51 55
f 1 55 59
f 1 59 64
f 1 64 63
f 1 63 69
f 1 69 68
f 1 68 73
f 1 73 77
f 1 77 81
f 1 81 85
f 1 85 89
f 1 89 93
f 1 93 98
f 1 98 103
f 1 103 104
f 1 104 100
f 1 100 95
f 1 95 91
f 1 91 87
f 1 87 83
f 1 83 79
f 1 79 75
f 1 75 71
f 1 71 66
f 1 66 61
f 1 61 57
f 1 57 53
f 1 53 49
f 1 49 44
f 1 44 38
f 1 38 33
f 1 33 28
f 1 28 23
f 1 23 20
f 1 20 16
f 1 16 9
f 1 9 3
f 1 3 4
f 1 4 5
f 1 5 6
f 1 6 2
f 2 6 8
f 2 8 7
f 3 9 4
f 4 10 17
f 4 17 22
f 4 22 27
f 4 27 32
f 4 32 36
f 4 36 42
f 4 42 43
f 4 43 48
f 4 48 52
f 4 52 56
f 4 56 60
f 4 60 65
f 4 65 70
f 4 70 74
f 4 74 78
f 4 78 82
f 4 82 86
f 4 86 90
f 4 90 94
f 4 94 99
f 4 99 102
f 4 102 101
f 4 101 96
f 4 96 92
f 4 92 88
f 4 88 84
f 4 84 80
f 4 80 76
f 4 76 72
f 4 72 67
f 4 67 62
f 4 62 58
f 4 58 54
f 4 54 50
f 4 50 46
f 4 46 41
f 4 41 35
f 4 35 31
f 4 31 25
f 4 25 19
f 4 19 15
f 4 15 14
f 4 14 11
f 4 11 6
f 4 6 5
f 4 9 10
f 6 11 8
f 7 8 13
f 7 13 12
f 8 11 14
f 8 14 15
f 8 15 13
f 9 16 17
f 9 17 10
f 12 13 18
f 13 15 19
f 13 19 18
f 16 20 21
f 16 21 17
f 17 21 23
f 17 23 22
f 18 19 24
f 19 25 26
f 19 26 24
f 20 23 21
f 22 23 27
f 23 28 27
f 24 26 25
f 24 25 30
f 24 30 29
f 25 31 30
f 27 28 32
f 28 33 32
f 29 30 34
f 30 31 35
f 30 35 40
f 30 40 34
f 32 33 37
f 32 37 36
f 33 38 39
f 33 39 37
f 35 41 45
f 35 45 40
f 36 37 42
f 37 39 44
f 37 44 43
f 37 43 42
f 38 44 39
f 41 46 47
f 41 47 45
f 43 44 49
f 43 49 48
f 46 50 51
f 46 51 47
f 48 49 53
f 48 53 52
f 50 54 55
f 50 55 51
f 52 53 57
f 52 57 56
f 54 58 64
f 54 64 59
f 54 59 55
f 56 57 60
f 57 61 60
f 58 62 63
f 58 63 64
f 60 61 65
f 61 66 65
f 62 67 68
f 62 68 69
f 62 69 63
f 65 66 70
f 66 71 70
f 67 72 73
f 67 73 68
f 70 71 75
f 70 75 74
f 72 76 77
f 72 77 73
f 74 75 79
f 74 79 78
f 76 80 81
f 76 81 77
f 78 79 83
f 78 83 82
f 80 84 81
f 81 84 85
f 82 83 87
f 82 87 86
f 84 88 89
f 84 89 85
f 86 87 91
f 86 91 90
f 88 92 93
f 88 93 89
f 90 91 94
f 91 95 94
f 92 96 97
f 92 97 98
f 92 98 93
f 94 95 99
f 95 100 99
f 96 101 97
f 97 101 102
f 97 102 103
f 97 103 98
f 99 100 104
f 99 104 102
f 102 104 103
