# https://github.com/mikedh/trimesh
v 0.00461169 -0.16986392 0.01388741
v 0.00676752 -0.17771300 0.01374875
v 0.00676752 -0.17202262 0.01372700
v 0.00676752 -0.16986392 0.01371613
v 0.00461169 -0.16770521 0.01370253
v 0.00245209 -0.16986392 0.01388741
v 0.00461169 -0.18497210 0.01388741
v 0.00676752 -0.18497210 0.01377050
v 0.00676752 -0.17849872 0.01375147
v 0.00845978 -0.18281611 0.01329744
v 0.00845224 -0.18065742 0.01329200
v 0.00844344 -0.17771300 0.01328113
v 0.00841581 -0.16986392 0.01325122
v 0.00819595 -0.16770521 0.01313431
v 0.00676752 -0.16770521 0.01351766
v 0.00245209 -0.16770521 0.01366719
v 0.00676752 -0.16632952 0.01313975
v 0.00461169 -0.16616639 0.01323491
v 0.00029374 -0.16770521 0.01342794
v 0.00029374 -0.16986392 0.01364544
v 0.00108019 -0.17771300 0.01373516
v 0.00245209 -0.18497210 0.01388741
v 0.00461169 -0.18713080 0.01377594
v 0.00676752 -0.18713080 0.01365632
v 0.00836681 -0.18713080 0.01324578
v 0.00846606 -0.18497210 0.01330288
v 0.00951759 -0.17634002 0.01256338
v 0.00949498 -0.16986392 0.01236219
v 0.00927638 -0.16770521 0.01217731
v 0.00793715 -0.16654974 0.01300109
v 0.00245209 -0.16620990 0.01319956
v 0.00029374 -0.16639749 0.01308266
v 0.00677757 -0.16513055 0.01173959
v 0.00461169 -0.16508704 0.01207400
v 0.00245209 -0.16512783 0.01207400
v -0.00080553 -0.16658509 0.01297391
v -0.00089096 -0.16770521 0.01308266
v -0.00096759 -0.16986392 0.01318053
v 0.00029374 -0.18497210 0.01364544
v 0.00029374 -0.18713080 0.01355300
v 0.00245209 -0.18713080 0.01377594
v 0.00461169 -0.18905569 0.01330831
v 0.00676752 -0.18889256 0.01324850
v 0.00812560 -0.18855543 0.01310713
v 0.00944598 -0.18713080 0.01233500
v 0.00954523 -0.18497210 0.01236219
v 0.00953141 -0.18065742 0.01253891
v 0.00952513 -0.17849872 0.01256338
v 0.00952262 -0.17771300 0.01256338
v 0.01164704 -0.17634002 0.01061675
v 0.01014952 -0.16770521 0.01109797
v 0.01164704 -0.17418132 0.01026331
v 0.01004524 -0.16655790 0.01087231
v 0.00876381 -0.16614465 0.01170425
v 0.00750247 -0.16452698 0.01047265
v 0.00024600 -0.16523658 0.01173687
v 0.00606399 -0.16440735 0.01092940
v 0.00461169 -0.16437745 0.01099465
v 0.00245209 -0.16437745 0.01099193
v 0.00093446 -0.16440735 0.01092668
v -0.00050527 -0.16461670 0.01052431
v -0.00084825 -0.16439919 0.00908609
v -0.00089975 -0.16616912 0.01187281
v -0.00109197 -0.16770521 0.01187281
v -0.00116861 -0.16986392 0.01187281
v -0.00109574 -0.17771300 0.01234859
v -0.00096759 -0.18497210 0.01318053
v -0.00093995 -0.18713080 0.01314247
v -0.00086960 -0.18848202 0.01305547
v 0.00029374 -0.18883275 0.01320772
v 0.00245209 -0.18905297 0.01330831
v 0.00461169 -0.19013503 0.01278088
v 0.00676752 -0.18997191 0.01264222
v 0.00822862 -0.19060810 0.01120672
v 0.00889697 -0.18926503 0.01186465
v 0.01016208 -0.18853640 0.01108165
v 0.01023746 -0.18713080 0.01125565
v 0.01164704 -0.18070907 0.01043187
v 0.01164704 -0.18065742 0.01043731
v 0.01164704 -0.17869991 0.01060859
v 0.01164704 -0.17849872 0.01061675
v 0.01164704 -0.17215583 0.00952652
v 0.01164704 -0.17198999 0.00940690
v 0.01164704 -0.16976061 0.00760708
v 0.01164704 -0.16973885 0.00758805
v 0.01164704 -0.16787106 0.00538858
v 0.01164704 -0.16777319 0.00514117
v 0.01164704 -0.16724302 0.00323804
v 0.01164704 -0.16718865 0.00299879
v 0.01010932 -0.16643555 0.00971412
v 0.00879521 -0.16521211 0.00973859
v 0.00798741 -0.16439919 0.00903443
v 0.00677757 -0.16427957 0.00973859
v 0.00461169 -0.16410286 0.00971412
v 0.00245209 -0.16410286 0.00971412
v 0.00024600 -0.16428229 0.00976849
v 0.00029374 -0.16409198 0.00755543
v -0.00088091 -0.16436657 0.00755543
v -0.00108066 -0.16554652 0.00755543
v -0.00098393 -0.16541873 0.00976849
v -0.00118619 -0.16770521 0.00971412
v -0.00116861 -0.18497210 0.01187281
v -0.00113971 -0.18713080 0.01187281
v -0.00098519 -0.18923784 0.01185378
v -0.00090101 -0.19052382 0.01112243
v 0.00029374 -0.18991210 0.01256338
v 0.00245209 -0.19013232 0.01276184
v 0.00461169 -0.19089629 0.01169881
v 0.00676752 -0.19082288 0.01156287
v 0.00676752 -0.19142102 0.00971412
v 0.00856028 -0.19081744 0.00971412
v 0.00963946 -0.18989579 0.00971412
v 0.01027641 -0.18881643 0.00971412
v 0.01164704 -0.18682086 0.00724821
v 0.01164704 -0.18661151 0.00740589
v 0.01164704 -0.18419997 0.00896374
v 0.01164704 -0.18291943 0.00970052
v 0.01164704 -0.18280524 0.00974674
v 0.01164704 -0.16693037 0.00107935
v 0.00913693 -0.16526648 0.00755543
v 0.00805776 -0.16436657 0.00755543
v 0.00676752 -0.16409198 0.00755543
v 0.00461169 -0.16391526 0.00755543
v 0.00245209 -0.16391526 0.00755543
v 0.00029374 -0.16409198 -0.00755543
v -0.00088091 -0.16436657 -0.00755543
v -0.00108066 -0.16554652 -0.00755543
v -0.00118619 -0.16770521 -0.00971412
v -0.00118619 -0.18713080 0.00971412
v -0.00117112 -0.18929222 0.00971412
v -0.00097136 -0.19064073 0.00971412
v 0.00029374 -0.19120895 0.00971412
v 0.00029374 -0.19072501 0.01148403
v 0.00245209 -0.19086366 0.01168250
v 0.00245209 -0.19152161 0.00971412
v 0.00461169 -0.19155423 0.00971412
v 0.00676752 -0.19155967 0.00755543
v 0.00869973 -0.19090173 0.00755543
v 0.00977891 -0.19001813 0.00755543
v 0.01164704 -0.18886265 0.00097060
v 0.01164704 -0.18879740 0.00119897
v 0.01164704 -0.16693037 0.00106575
v 0.00913693 -0.16505170 0.00107935
v 0.00805776 -0.16436657 -0.00755543
v 0.00676752 -0.16409198 -0.00755543
v 0.00461169 -0.16391526 -0.00755543
v 0.00245209 -0.16391526 -0.00755543
v 0.00245209 -0.16405935 -0.00971412
v 0.00022088 -0.16427142 -0.00976849
v -0.00084825 -0.16439919 -0.00908609
v -0.00098393 -0.16541873 -0.00976849
v -0.00109197 -0.16770521 -0.01187281
v -0.00116861 -0.16986392 -0.01187281
v -0.00118619 -0.18713080 -0.00971412
v -0.00118619 -0.18929222 0.00755543
v -0.00098519 -0.19068151 0.00755543
v 0.00029374 -0.19133945 0.00755543
v 0.00245209 -0.19168745 0.00755543
v 0.00461169 -0.19168745 0.00755543
v 0.00461169 -0.19168745 -0.00755543
v 0.00676752 -0.19151073 -0.00755543
v 0.00867461 -0.19085279 -0.00755543
v 0.00975881 -0.19020028 -0.00107935
v 0.00976383 -0.19018941 0.00107935
v 0.01164704 -0.18888984 -0.00092710
v 0.01164704 -0.16701465 -0.00107935
v 0.00913693 -0.16507889 -0.00107935
v 0.00913693 -0.16526648 -0.00755543
v 0.00798741 -0.16439919 -0.00924105
v 0.00694215 -0.16424695 -0.00986093
v 0.00461169 -0.16402945 -0.00971412
v 0.00461169 -0.16430676 -0.01111700
v 0.00245209 -0.16433667 -0.01106806
v 0.00089049 -0.16439104 -0.01095659
v -0.00054799 -0.16461670 -0.01052703
v -0.00080553 -0.16658509 -0.01297391
v -0.00089975 -0.16616912 -0.01187281
v -0.00089096 -0.16770521 -0.01308266
v -0.00096759 -0.16986392 -0.01318053
v -0.00116861 -0.18497210 -0.01187281
v -0.00117112 -0.18929222 -0.00971412
v -0.00118619 -0.18929222 -0.00755543
v -0.00098519 -0.19068151 -0.00755543
v 0.00029374 -0.19133945 -0.00755543
v 0.00245209 -0.19168745 -0.00755543
v 0.00461169 -0.19149986 -0.00971412
v 0.00676752 -0.19132314 -0.00971412
v 0.00853516 -0.19075763 -0.00971412
v 0.00975378 -0.19001813 -0.00755543
v 0.01164704 -0.18888984 -0.00120441
v 0.01164704 -0.16742519 -0.00323804
v 0.01004399 -0.16656062 -0.01086959
v 0.01010806 -0.16643827 -0.00971412
v 0.00879521 -0.16518764 -0.00986093
v 0.00777760 -0.16448076 -0.01067928
v 0.00633786 -0.16435298 -0.01102184
v 0.00461169 -0.16517949 -0.01219634
v 0.00245209 -0.16518220 -0.01214741
v 0.00029374 -0.16641381 -0.01306906
v 0.00022088 -0.16525017 -0.01175590
v 0.00029374 -0.16770521 -0.01341435
v 0.00029374 -0.16986392 -0.01364544
v -0.00016607 -0.17771300 -0.01347688
v -0.00096759 -0.18497210 -0.01318053
v -0.00113971 -0.18713080 -0.01187281
v -0.00098519 -0.18923784 -0.01185378
v -0.00090101 -0.19052382 -0.01112243
v -0.00097136 -0.19064073 -0.00971412
v 0.00029374 -0.19120351 -0.00971412
v 0.00245209 -0.19149713 -0.00971412
v 0.00245209 -0.19084191 -0.01167434
v 0.00461169 -0.19084191 -0.01167434
v 0.00676752 -0.19075219 -0.01149219
v 0.00821228 -0.19056732 -0.01113875
v 0.00961433 -0.18985500 -0.00971412
v 0.01164704 -0.18830803 -0.00323804
v 0.01164704 -0.16794990 -0.00531789
v 0.01164704 -0.16802875 -0.00548645
v 0.01164704 -0.16857794 -0.00657124
v 0.01164704 -0.16974701 -0.00760164
v 0.01164704 -0.17215312 -0.00952652
v 0.01164704 -0.17238149 -0.00964887
v 0.01014826 -0.16770521 -0.01109525
v 0.00923492 -0.16770521 -0.01217459
v 0.00788313 -0.16659596 -0.01297119
v 0.00873240 -0.16614465 -0.01170153
v 0.00694215 -0.16517405 -0.01179397
v 0.00676752 -0.16641924 -0.01306635
v 0.00461169 -0.16625884 -0.01315606
v 0.00245209 -0.16626155 -0.01315335
v 0.00245209 -0.16770521 -0.01362097
v 0.00245209 -0.16986392 -0.01388741
v 0.00029374 -0.18497210 -0.01364544
v -0.00093995 -0.18713080 -0.01314247
v -0.00086960 -0.18848202 -0.01305547
v 0.00029374 -0.19071957 -0.01148131
v 0.00029374 -0.18991753 -0.01256066
v 0.00245209 -0.19014591 -0.01275369
v 0.00461169 -0.19015407 -0.01275369
v 0.00676752 -0.18995016 -0.01257153
v 0.00812183 -0.18851737 -0.01310169
v 0.00888692 -0.18921881 -0.01179669
v 0.01011685 -0.18848202 -0.01101640
v 0.01024123 -0.18877565 -0.00971412
v 0.01164704 -0.18694593 -0.00704158
v 0.01164704 -0.17418132 -0.01026331
v 0.01164704 -0.17425472 -0.01027962
v 0.00948870 -0.16986392 -0.01236219
v 0.00815575 -0.16770521 -0.01311256
v 0.00676752 -0.16770521 -0.01344697
v 0.00461169 -0.16770521 -0.01362097
v 0.00461169 -0.16986392 -0.01388741
v 0.00245209 -0.18497210 -0.01388741
v 0.00245209 -0.18713080 -0.01380857
v 0.00029374 -0.18713080 -0.01356388
v 0.00029374 -0.18883818 -0.01321588
v 0.00245209 -0.18906656 -0.01334094
v 0.00461169 -0.18907471 -0.01335453
v 0.00676752 -0.18887081 -0.01326481
v 0.00676752 -0.18713080 -0.01364272
v 0.00833414 -0.18713080 -0.01321044
v 0.00941332 -0.18713080 -0.01228606
v 0.01020228 -0.18713080 -0.01120672
v 0.01164704 -0.18065742 -0.01043731
v 0.01164704 -0.18291943 -0.00970052
v 0.01164704 -0.18682358 -0.00725092
v 0.01164704 -0.17615242 -0.01059771
v 0.00840953 -0.16986392 -0.01324306
v 0.01164704 -0.17634002 -0.01061675
v 0.00948870 -0.17634002 -0.01256338
v 0.00676752 -0.16986392 -0.01371069
v 0.00461169 -0.18497210 -0.01388741
v 0.00461169 -0.18713080 -0.01381944
v 0.00676752 -0.18497210 -0.01371069
v 0.00840953 -0.18497210 -0.01324306
v 0.00948870 -0.18497210 -0.01236219
v 0.01164704 -0.17849872 -0.01061675
v 0.00781152 -0.17771300 -0.01341435
v 0.00948870 -0.17849872 -0.01256338
v 0.00948870 -0.18065742 -0.01253891
f 1 2 3
f 1 3 4
f 1 4 5
f 1 5 6
f 1 6 22
f 1 22 7
f 1 7 8
f 1 8 9
f 1 9 2
f 2 9 10
f 2 10 11
f 2 11 3
f 3 11 12
f 3 12 13
f 3 13 4
f 4 13 14
f 4 14 15
f 4 15 5
f 5 16 6
f 5 15 17
f 5 17 18
f 5 18 16
f 6 16 19
f 6 19 20
f 6 20 21
f 6 21 22
f 7 22 41
f 7 41 23
f 7 23 8
f 8 23 24
f 8 24 25
f 8 25 26
f 8 26 9
f 9 26 10
f 10 26 27
f 10 27 11
f 11 27 12
f 12 27 13
f 13 27 28
f 13 28 14
f 14 28 29
f 14 29 30
f 14 30 15
f 15 30 17
f 16 18 31
f 16 31 32
f 16 32 19
f 17 30 33
f 17 33 34
f 17 34 18
f 18 34 35
f 18 35 31
f 19 32 36
f 19 36 37
f 19 37 20
f 20 37 38
f 20 38 67
f 20 67 39
f 20 39 21
f 21 39 22
f 22 39 40
f 22 40 41
f 23 41 42
f 23 42 43
f 23 43 24
f 24 43 44
f 24 44 25
f 25 44 45
f 25 45 26
f 26 45 46
f 26 46 47
f 26 47 48
f 26 48 49
f 26 49 27
f 27 49 50
f 27 50 28
f 28 51 29
f 28 50 52
f 28 52 51
f 29 51 53
f 29 53 30
f 30 53 54
f 30 54 55
f 30 55 33
f 31 35 32
f 32 35 56
f 32 56 36
f 33 55 57
f 33 57 34
f 34 57 58
f 34 58 59
f 34 59 35
f 35 59 60
f 35 60 56
f 36 56 61
f 36 61 62
f 36 62 63
f 36 63 64
f 36 64 37
f 37 64 38
f 38 64 65
f 38 65 66
f 38 66 67
f 39 67 68
f 39 68 40
f 40 68 69
f 40 69 70
f 40 70 41
f 41 70 71
f 41 71 42
f 42 71 72
f 42 72 43
f 43 72 73
f 43 73 44
f 44 73 74
f 44 74 75
f 44 75 76
f 44 76 45
f 45 76 77
f 45 77 78
f 45 78 79
f 45 79 80
f 45 80 46
f 46 80 81
f 46 81 47
f 47 81 48
f 48 81 50
f 48 50 49
f 50 81 80
f 50 80 79
f 50 79 78
f 50 78 118
f 50 118 117
f 50 117 116
f 50 116 115
f 50 115 114
f 50 114 141
f 50 141 140
f 50 140 165
f 50 165 190
f 50 190 216
f 50 216 245
f 50 245 266
f 50 266 265
f 50 265 264
f 50 264 277
f 50 277 269
f 50 269 267
f 50 267 247
f 50 247 246
f 50 246 222
f 50 222 221
f 50 221 220
f 50 220 219
f 50 219 218
f 50 218 217
f 50 217 191
f 50 191 166
f 50 166 142
f 50 142 119
f 50 119 89
f 50 89 88
f 50 88 87
f 50 87 86
f 50 86 85
f 50 85 84
f 50 84 83
f 50 83 82
f 50 82 52
f 51 52 82
f 51 82 53
f 53 82 83
f 53 83 84
f 53 84 85
f 53 85 86
f 53 86 87
f 53 87 88
f 53 88 89
f 53 89 90
f 53 90 91
f 53 91 55
f 53 55 54
f 55 92 93
f 55 93 57
f 55 91 92
f 56 60 61
f 57 93 94
f 57 94 58
f 58 94 95
f 58 95 59
f 59 95 60
f 60 95 96
f 60 96 61
f 61 96 62
f 62 96 97
f 62 97 98
f 62 98 99
f 62 99 100
f 62 100 63
f 63 100 64
f 64 101 65
f 64 100 101
f 65 101 129
f 65 129 102
f 65 102 66
f 66 102 67
f 67 102 103
f 67 103 68
f 68 103 69
f 69 104 105
f 69 105 106
f 69 106 70
f 69 103 104
f 70 106 107
f 70 107 71
f 71 107 72
f 72 108 109
f 72 109 73
f 72 107 108
f 73 109 74
f 74 109 110
f 74 110 111
f 74 111 112
f 74 112 76
f 74 76 75
f 76 112 113
f 76 113 114
f 76 114 115
f 76 115 116
f 76 116 117
f 76 117 118
f 76 118 78
f 76 78 77
f 89 119 90
f 90 119 120
f 90 120 91
f 91 120 92
f 92 121 122
f 92 122 93
f 92 120 119
f 92 119 121
f 93 122 123
f 93 123 94
f 94 123 124
f 94 124 95
f 95 124 96
f 96 124 97
f 97 124 147
f 97 147 125
f 97 125 126
f 97 126 98
f 98 126 127
f 98 127 99
f 99 127 128
f 99 128 101
f 99 101 100
f 101 128 154
f 101 154 182
f 101 182 155
f 101 155 129
f 102 129 130
f 102 130 103
f 103 130 104
f 104 130 105
f 105 131 132
f 105 132 133
f 105 133 106
f 105 130 131
f 106 133 107
f 107 133 134
f 107 134 108
f 108 134 135
f 108 135 136
f 108 136 109
f 109 136 110
f 110 136 137
f 110 137 111
f 111 137 138
f 111 138 139
f 111 139 112
f 112 139 140
f 112 140 113
f 113 140 141
f 113 141 114
f 119 142 143
f 119 143 121
f 121 143 144
f 121 144 145
f 121 145 122
f 122 145 146
f 122 146 123
f 123 146 147
f 123 147 124
f 125 147 148
f 125 148 149
f 125 149 150
f 125 150 126
f 126 150 127
f 127 150 151
f 127 151 128
f 128 151 152
f 128 152 153
f 128 153 180
f 128 180 154
f 129 155 130
f 130 155 156
f 130 156 131
f 131 156 157
f 131 157 132
f 132 157 158
f 132 158 135
f 132 135 133
f 133 135 134
f 135 158 136
f 136 158 159
f 136 159 137
f 137 159 160
f 137 160 161
f 137 161 138
f 138 161 162
f 138 162 163
f 138 163 164
f 138 164 165
f 138 165 140
f 138 140 139
f 142 166 144
f 142 144 167
f 142 167 143
f 143 167 144
f 144 166 168
f 144 168 169
f 144 169 145
f 145 170 171
f 145 171 146
f 145 169 170
f 146 171 147
f 147 171 148
f 148 171 172
f 148 172 173
f 148 173 174
f 148 174 149
f 149 174 175
f 149 175 150
f 150 175 176
f 150 176 177
f 150 177 151
f 151 177 152
f 152 178 179
f 152 179 153
f 152 177 176
f 152 176 178
f 153 179 204
f 153 204 180
f 154 180 181
f 154 181 182
f 155 182 183
f 155 183 156
f 156 183 184
f 156 184 157
f 157 184 185
f 157 185 158
f 158 185 160
f 158 160 159
f 160 185 186
f 160 186 187
f 160 187 161
f 161 187 188
f 161 188 162
f 162 188 189
f 162 189 190
f 162 190 163
f 163 190 165
f 163 165 164
f 166 191 192
f 166 192 193
f 166 193 168
f 168 193 194
f 168 194 169
f 169 195 170
f 169 194 195
f 170 196 171
f 170 195 196
f 171 196 172
f 172 196 197
f 172 197 198
f 172 198 173
f 173 198 174
f 174 198 199
f 174 199 200
f 174 200 175
f 175 200 176
f 176 200 199
f 176 199 201
f 176 201 178
f 178 201 202
f 178 202 179
f 179 202 203
f 179 203 204
f 180 204 205
f 180 205 181
f 181 206 207
f 181 207 208
f 181 208 183
f 181 183 182
f 181 205 206
f 183 208 184
f 184 208 209
f 184 209 185
f 185 209 210
f 185 210 186
f 186 211 212
f 186 212 213
f 186 213 187
f 186 210 211
f 187 213 214
f 187 214 188
f 188 214 215
f 188 215 189
f 189 215 190
f 190 215 216
f 191 217 192
f 192 217 218
f 192 218 219
f 192 219 220
f 192 220 221
f 192 221 222
f 192 222 223
f 192 223 224
f 192 224 225
f 192 225 226
f 192 226 195
f 192 195 194
f 192 194 193
f 195 226 225
f 195 225 227
f 195 227 196
f 196 227 197
f 197 227 228
f 197 228 229
f 197 229 230
f 197 230 198
f 198 230 199
f 199 230 231
f 199 231 201
f 201 231 232
f 201 232 202
f 202 232 253
f 202 253 233
f 202 233 203
f 203 233 204
f 204 233 234
f 204 234 205
f 205 234 235
f 205 235 206
f 206 235 207
f 207 236 209
f 207 209 208
f 207 235 237
f 207 237 236
f 209 236 210
f 210 236 211
f 211 236 238
f 211 238 239
f 211 239 212
f 212 239 213
f 213 239 240
f 213 240 214
f 214 240 241
f 214 241 242
f 214 242 243
f 214 243 215
f 215 243 244
f 215 244 216
f 216 244 245
f 222 246 223
f 223 246 247
f 223 247 248
f 223 248 224
f 224 248 249
f 224 249 225
f 225 228 227
f 225 249 250
f 225 250 228
f 228 250 251
f 228 251 229
f 229 251 231
f 229 231 230
f 231 251 252
f 231 252 232
f 232 252 272
f 232 272 253
f 233 253 254
f 233 254 255
f 233 255 234
f 234 255 235
f 235 256 237
f 235 255 256
f 236 237 238
f 237 256 238
f 238 256 257
f 238 257 258
f 238 258 239
f 239 258 259
f 239 259 240
f 240 259 241
f 241 243 242
f 241 259 260
f 241 260 261
f 241 261 262
f 241 262 243
f 243 262 263
f 243 263 264
f 243 264 265
f 243 265 266
f 243 266 245
f 243 245 244
f 247 267 248
f 248 268 249
f 248 267 269
f 248 269 270
f 248 270 268
f 249 268 271
f 249 271 250
f 250 271 252
f 250 252 251
f 252 271 274
f 252 274 272
f 253 272 273
f 253 273 254
f 254 273 258
f 254 258 257
f 254 257 256
f 254 256 255
f 258 273 259
f 259 273 260
f 260 274 261
f 260 273 272
f 260 272 274
f 261 274 275
f 261 275 276
f 261 276 262
f 262 276 277
f 262 277 264
f 262 264 263
f 268 270 279
f 268 279 275
f 268 275 278
f 268 278 271
f 269 277 279
f 269 279 270
f 271 278 274
f 274 278 275
f 275 279 280
f 275 280 276
f 276 280 277
f 277 280 279
