# https://github.com/mikedh/trimesh
v 0.01164739 0.01109241 0.00120568
v 0.01164739 0.01109241 0.00092708
v 0.01164739 0.01050547 0.00323692
v 0.05192093 0.01026682 0.00164020
v 0.05192093 0.01054201 0.00065472
v 0.05192093 0.01056781 0.00056117
v 0.01164739 0.01106231 -0.00096487
v 0.05192093 0.01056781 -0.00097942
v 0.01164739 0.00914883 0.00704161
v 0.05192093 0.00977448 0.00323692
v 0.05192093 0.01022597 0.00177742
v 0.01164739 0.01099996 -0.00119772
v 0.05192093 0.01039797 -0.00205845
v 0.01164739 0.00902413 0.00725159
v 0.05192093 0.00834474 0.00657382
v 0.05192093 0.00893168 0.00539499
v 0.01164739 0.00902198 -0.00724572
v 0.05192093 0.01003677 -0.00323728
v 0.01164739 0.00511976 0.00970073
v 0.05192093 0.00474136 0.00921631
v 0.05192093 0.00705475 0.00753850
v 0.05192093 0.00717300 0.00745118
v 0.01164739 0.00881343 -0.00740788
v 0.05192093 0.00906713 -0.00539535
v 0.05192093 0.00834904 -0.00657626
v 0.01164739 0.00285153 0.01044087
v 0.05192093 0.00285583 0.01001882
v 0.01164739 0.00639900 -0.00896510
v 0.05192093 0.00717300 -0.00745362
v 0.05192093 0.00581851 -0.00843494
v 0.05192093 0.00483382 -0.00914806
v 0.05192093 0.00473921 -0.00921251
v 0.01164739 0.00069725 0.01061967
v 0.05192093 0.00069510 0.01024544
v 0.05192093 0.00266663 0.01003962
v 0.01164739 0.00511976 -0.00970109
v 0.05192093 0.00285583 -0.01001919
v 0.01164739 -0.00145488 0.01061759
v 0.05192093 -0.00145918 0.01024752
v 0.01164739 0.00500581 -0.00974891
v 0.05192093 0.00088430 -0.01022709
v 0.01164739 0.00291173 -0.01043292
v 0.01164739 -0.00165053 0.01059888
v 0.05192093 -0.00361777 0.00974647
v 0.01164739 -0.00354682 0.01027871
v 0.05192093 0.00069510 -0.01024373
v 0.01164739 0.00285153 -0.01043916
v 0.05192093 -0.00512060 0.00893979
v 0.01164739 -0.00361777 0.01026208
v 0.01164739 -0.00541730 0.00964875
v 0.01164739 -0.00564305 0.00952817
v 0.05192093 -0.00145918 -0.01024373
v 0.01164739 -0.00145488 -0.01062004
v 0.01164739 0.00069725 -0.01061796
v 0.01164739 0.00090150 -0.01060964
v 0.05192093 -0.00619989 0.00815806
v 0.01164739 -0.00805318 0.00760295
v 0.05192093 -0.00762533 0.00707903
v 0.05192093 -0.00632459 0.00806658
v 0.05192093 -0.00361777 -0.00974683
v 0.01164739 -0.00361777 -0.01026244
v 0.01164739 -0.00922492 0.00657174
v 0.05192093 -0.00772208 0.00698963
v 0.05192093 -0.00499160 -0.00901292
v 0.01164739 -0.00564305 -0.00952645
v 0.01164739 -0.00977101 0.00548647
v 0.05192093 -0.00935176 0.00497086
v 0.05192093 -0.00870677 0.00604989
v 0.05192093 -0.00512060 -0.00894223
v 0.01164739 -0.00580860 -0.00940794
v 0.01164739 -0.00984841 0.00531806
v 0.05192093 -0.00941196 0.00481909
v 0.05192093 -0.00610744 -0.00822704
v 0.01164739 -0.00806393 -0.00758668
v 0.05192093 -0.00619989 -0.00815843
v 0.05192093 -0.00762533 -0.00707939
v 0.01164739 -0.01037516 0.00323692
v 0.05192093 -0.01003546 0.00323692
v 0.01164739 -0.00992581 -0.00538911
v 0.05192093 -0.00870462 -0.00593383
v 0.01164739 -0.01078796 0.00107885
v 0.05192093 -0.01054500 0.00107885
v 0.01164739 -0.01002686 -0.00514171
v 0.05192093 -0.00922492 -0.00485479
v 0.01164739 -0.01087180 -0.00107922
v 0.05192093 -0.01053426 0.00088966
v 0.01164739 -0.01055575 -0.00323728
v 0.05192093 -0.00973016 -0.00337658
v 0.05192093 -0.00977746 -0.00323728
v 0.05192093 -0.01041601 -0.00107922
v 0.01164739 -0.01061380 -0.00300027
f 1 2 7
f 1 7 12
f 1 12 17
f 1 17 23
f 1 23 28
f 1 28 36
f 1 36 40
f 1 40 42
f 1 42 47
f 1 47 55
f 1 55 54
f 1 54 53
f 1 53 61
f 1 61 65
f 1 65 70
f 1 70 74
f 1 74 79
f 1 79 83
f 1 83 87
f 1 87 91
f 1 91 85
f 1 85 81
f 1 81 77
f 1 77 71
f 1 71 66
f 1 66 62
f 1 62 57
f 1 57 51
f 1 51 50
f 1 50 49
f 1 49 45
f 1 45 43
f 1 43 38
f 1 38 33
f 1 33 26
f 1 26 19
f 1 19 14
f 1 14 9
f 1 9 3
f 1 3 4
f 1 4 5
f 1 5 6
f 1 6 8
f 1 8 2
f 2 8 7
f 3 9 10
f 3 10 11
f 3 11 4
f 4 11 10
f 4 10 16
f 4 16 15
f 4 15 22
f 4 22 21
f 4 21 20
f 4 20 27
f 4 27 35
f 4 35 34
f 4 34 39
f 4 39 44
f 4 44 48
f 4 48 56
f 4 56 59
f 4 59 58
f 4 58 63
f 4 63 68
f 4 68 67
f 4 67 72
f 4 72 78
f 4 78 82
f 4 82 86
f 4 86 90
f 4 90 89
f 4 89 88
f 4 88 84
f 4 84 80
f 4 80 76
f 4 76 75
f 4 75 73
f 4 73 69
f 4 69 64
f 4 64 60
f 4 60 52
f 4 52 46
f 4 46 41
f 4 41 37
f 4 37 32
f 4 32 31
f 4 31 30
f 4 30 29
f 4 29 25
f 4 25 24
f 4 24 18
f 4 18 13
f 4 13 8
f 4 8 6
f 4 6 5
f 7 8 13
f 7 13 12
f 9 14 15
f 9 15 16
f 9 16 10
f 12 13 18
f 12 18 17
f 14 19 20
f 14 20 21
f 14 21 22
f 14 22 15
f 17 18 24
f 17 24 25
f 17 25 23
f 19 26 27
f 19 27 20
f 23 25 29
f 23 29 30
f 23 30 31
f 23 31 32
f 23 32 28
f 26 33 34
f 26 34 35
f 26 35 27
f 28 32 36
f 32 37 36
f 33 38 39
f 33 39 34
f 36 37 40
f 37 41 42
f 37 42 40
f 38 43 39
f 39 43 45
f 39 45 44
f 41 46 47
f 41 47 42
f 44 45 49
f 44 49 50
f 44 50 51
f 44 51 48
f 46 52 53
f 46 53 54
f 46 54 55
f 46 55 47
f 48 51 56
f 51 57 58
f 51 58 59
f 51 59 56
f 52 60 61
f 52 61 53
f 57 62 58
f 58 62 63
f 60 64 65
f 60 65 61
f 62 66 67
f 62 67 68
f 62 68 63
f 64 69 65
f 65 69 70
f 66 71 67
f 67 71 72
f 69 73 70
f 70 73 75
f 70 75 76
f 70 76 74
f 71 77 78
f 71 78 72
f 74 76 80
f 74 80 79
f 77 81 82
f 77 82 78
f 79 80 84
f 79 84 83
f 81 85 82
f 82 85 86
f 83 84 88
f 83 88 89
f 83 89 90
f 83 90 87
f 85 91 90
f 85 90 86
f 87 90 91
