# https://github.com/mikedh/trimesh
v 0.06074557 -0.17849838 0.02013064
v 0.05858603 -0.17849838 0.02011093
v 0.05858603 -0.18065414 0.01988238
v 0.06074557 -0.18065414 0.01989814
v 0.06290300 -0.18065414 0.01990602
v 0.06721997 -0.18065414 0.01990997
v 0.06290300 -0.17849838 0.02012275
v 0.06721997 -0.17634263 0.02005970
v 0.06290300 -0.17634263 0.02003606
v 0.05698173 -0.17849838 0.01976416
v 0.05712160 -0.18065414 0.01964989
v 0.05731446 -0.18215902 0.01952773
v 0.06074557 -0.17634263 0.02000848
v 0.05858603 -0.17634263 0.01994149
v 0.05713008 -0.17634263 0.01966565
v 0.05858603 -0.18238289 0.01958290
v 0.06074557 -0.18238703 0.01959472
v 0.06721997 -0.18238289 0.01962230
v 0.06937952 -0.17849838 0.01990997
v 0.06721997 -0.17849838 0.02009123
v 0.06897262 -0.18217146 0.01955925
v 0.06956814 -0.18082826 0.01968535
v 0.06937952 -0.17634263 0.01987056
v 0.06937528 -0.17414542 0.01959866
v 0.06865261 -0.17293074 0.01946862
v 0.06721997 -0.17418274 0.01972870
v 0.05621031 -0.17849838 0.01834950
v 0.05635018 -0.18065414 0.01834950
v 0.05635866 -0.17634263 0.01834950
v 0.05677404 -0.18285135 0.01851500
v 0.05679523 -0.18497393 0.01800667
v 0.05716399 -0.18713383 0.01753775
v 0.05748400 -0.18822829 0.01728161
v 0.05858603 -0.18497393 0.01875538
v 0.05858603 -0.18346076 0.01931100
v 0.06721997 -0.17290586 0.01947650
v 0.06554786 -0.17301365 0.01945286
v 0.06074557 -0.17455999 0.01961048
v 0.05858603 -0.17478801 0.01955531
v 0.05738227 -0.17502431 0.01949227
v 0.06410887 -0.17312558 0.01942527
v 0.05691179 -0.16986294 0.01771901
v 0.05676980 -0.17202284 0.01800273
v 0.06074557 -0.18346491 0.01931494
v 0.06721997 -0.18346076 0.01929130
v 0.07054724 -0.18022714 0.01953167
v 0.07058963 -0.17849838 0.01957502
v 0.07056844 -0.17634263 0.01955137
v 0.07041161 -0.18166568 0.01938193
v 0.06721997 -0.18497393 0.01875932
v 0.06937952 -0.18497393 0.01842437
v 0.07052181 -0.17483775 0.01949621
v 0.07009160 -0.17339920 0.01925977
v 0.06721997 -0.17182799 0.01920066
v 0.06937952 -0.16986294 0.01815641
v 0.06721997 -0.16986294 0.01845984
v 0.05204381 -0.17849838 0.01024377
v 0.05204381 -0.17856057 0.01023983
v 0.05204381 -0.18065414 0.01001915
v 0.05204381 -0.17634263 0.01024377
v 0.05204381 -0.17418274 0.00974725
v 0.05204381 -0.17424492 0.00976302
v 0.05639257 -0.18713383 0.01619007
v 0.05204381 -0.18071218 0.00999551
v 0.05204381 -0.18254042 0.00921528
v 0.05716823 -0.18908645 0.01598516
v 0.05748188 -0.19038819 0.01512612
v 0.05858603 -0.19044209 0.01518129
v 0.06074557 -0.19052914 0.01526798
v 0.06290300 -0.19061620 0.01534285
v 0.06506043 -0.19069082 0.01538620
v 0.06721997 -0.19073229 0.01540196
v 0.05858603 -0.18823244 0.01728555
v 0.05858603 -0.18713383 0.01780965
v 0.06074557 -0.18497393 0.01876720
v 0.06492056 -0.17218452 0.01920854
v 0.06290300 -0.17202284 0.01906274
v 0.05858603 -0.16986294 0.01823128
v 0.05718306 -0.16839537 0.01747470
v 0.05673589 -0.16769060 0.01626494
v 0.05614038 -0.16986294 0.01619007
v 0.06290300 -0.18497393 0.01876720
v 0.07369438 -0.18929788 0.01015707
v 0.07369438 -0.18697215 0.01064176
v 0.07369438 -0.18531802 0.01076786
v 0.07369438 -0.18497393 0.01077574
v 0.07369438 -0.16554728 0.01077574
v 0.07369438 -0.15555205 0.01070875
v 0.06937952 -0.18691411 0.01767567
v 0.07058115 -0.18649540 0.01744317
v 0.06721997 -0.18710896 0.01781752
v 0.07054301 -0.16859436 0.01738012
v 0.06506043 -0.16986294 0.01842831
v 0.06290300 -0.16986294 0.01838103
v 0.06074557 -0.16986294 0.01832192
v 0.06937952 -0.16830416 0.01752198
v 0.06721997 -0.16810517 0.01760868
v 0.06290300 -0.16809688 0.01763232
v 0.06074557 -0.16811346 0.01763232
v 0.05204381 -0.17267785 0.00894338
v 0.05204381 -0.18257359 0.00919164
v 0.05204381 -0.18500710 0.00743020
v 0.05204381 -0.18615131 0.00657510
v 0.05633111 -0.18928959 0.01403065
v 0.05716823 -0.19124635 0.01382574
v 0.05748188 -0.19254809 0.01296669
v 0.05858603 -0.19259784 0.01302186
v 0.06074557 -0.19268904 0.01310855
v 0.06290300 -0.19169823 0.01427890
v 0.06506043 -0.19176870 0.01434589
v 0.06721997 -0.19181431 0.01439318
v 0.06937952 -0.19168164 0.01429860
v 0.06937952 -0.19060377 0.01529162
v 0.06721997 -0.18928959 0.01646591
v 0.06074557 -0.18822415 0.01727767
v 0.06074557 -0.18713383 0.01780965
v 0.05858603 -0.16816321 0.01760473
v 0.05858603 -0.16708533 0.01694272
v 0.05706014 -0.16614426 0.01559505
v 0.05204381 -0.17017386 0.00707949
v 0.05204381 -0.17021532 0.00711102
v 0.05204381 -0.17159997 0.00815921
v 0.05666172 -0.16547266 0.01410552
v 0.07369438 -0.19145363 0.00928621
v 0.07369438 -0.15554791 0.00947930
v 0.07289965 -0.15554791 0.01070875
v 0.06721997 -0.16702729 0.01704124
v 0.06721997 -0.18818684 0.01725797
v 0.06937952 -0.18799614 0.01706882
v 0.07049426 -0.19042965 0.01515765
v 0.07369438 -0.19258125 0.00867542
v 0.06506043 -0.16701486 0.01703729
v 0.07153907 -0.15554791 0.01070875
v 0.05204381 -0.18686851 0.00539687
v 0.05637774 -0.19360939 0.00971179
v 0.05633111 -0.19144949 0.01187122
v 0.05716823 -0.19340210 0.01166631
v 0.05748188 -0.19470384 0.01080727
v 0.06290300 -0.19276367 0.01319919
v 0.06506043 -0.19280927 0.01327012
v 0.06721997 -0.19283000 0.01331346
v 0.06937952 -0.19275123 0.01321889
v 0.07052393 -0.19261857 0.01305339
v 0.06937952 -0.15554791 0.01043291
v 0.05706014 -0.16182446 0.01127619
v 0.05204381 -0.16909184 0.00593279
v 0.05666172 -0.16331277 0.01194609
v 0.07369438 -0.15554791 -0.01071214
v 0.07369438 -0.19350574 0.00755236
v 0.05204381 -0.18783445 0.00323745
v 0.05678040 -0.19537959 0.00755630
v 0.05714915 -0.19497331 0.00971179
v 0.05744161 -0.19688032 0.00443538
v 0.05858603 -0.19613410 0.00755630
v 0.05858603 -0.19530911 0.00971179
v 0.05858603 -0.19472872 0.01083879
v 0.06074557 -0.19474945 0.01087031
v 0.06721997 -0.19391202 0.01198155
v 0.06862718 -0.19474530 0.01087031
v 0.07006829 -0.19446754 0.01057477
v 0.07369438 -0.19532570 0.00518014
v 0.07369438 -0.19453387 0.00625986
v 0.06875009 -0.15554791 0.01004674
v 0.05723392 -0.15997964 0.00897884
v 0.05676556 -0.16115701 0.00970391
v 0.05204381 -0.16859022 0.00488460
v 0.05616369 -0.16122749 0.00755630
v 0.07153907 -0.15554791 -0.01071214
v 0.07369438 -0.16554728 -0.01077519
v 0.07058963 -0.17849838 -0.01957447
v 0.07057056 -0.17634263 -0.01955082
v 0.07052181 -0.17483775 -0.01949566
v 0.07054301 -0.16859436 -0.01737958
v 0.06937952 -0.16830416 -0.01752144
v 0.06721997 -0.16810517 -0.01760813
v 0.06721997 -0.16702729 -0.01703674
v 0.06290300 -0.16810102 -0.01763177
v 0.05204381 -0.18784689 0.00320198
v 0.05689060 -0.19731147 0.00107802
v 0.05719790 -0.19704200 0.00323745
v 0.05204381 -0.18819513 0.00205922
v 0.05858603 -0.19781310 0.00107802
v 0.05858603 -0.19729904 0.00323745
v 0.05858603 -0.19693007 0.00462058
v 0.06074557 -0.19624604 0.00755630
v 0.06074557 -0.19670621 0.00594461
v 0.06290300 -0.19677254 0.00618893
v 0.06461114 -0.19681814 0.00636625
v 0.06290300 -0.19632066 0.00755630
v 0.06074557 -0.19537130 0.00971179
v 0.06290300 -0.19475774 0.01088214
v 0.06721997 -0.19477018 0.01090184
v 0.06721997 -0.19539203 0.00971179
v 0.06834107 -0.19685546 0.00648841
v 0.06918879 -0.19629164 0.00734745
v 0.06936045 -0.19510183 0.00979848
v 0.06978218 -0.19673108 0.00611406
v 0.07062566 -0.19490283 0.00913253
v 0.07369438 -0.19627091 0.00322957
v 0.06768410 -0.15554791 0.00939260
v 0.05693511 -0.15967286 0.00755630
v 0.05204381 -0.16857778 0.00485308
v 0.06937952 -0.15554791 -0.01043236
v 0.06074557 -0.16812175 -0.01763965
v 0.05858603 -0.16815491 -0.01763965
v 0.05858603 -0.16707704 -0.01692641
v 0.07369438 -0.18497393 -0.01077519
v 0.07369438 -0.18697630 -0.01064909
v 0.07054724 -0.18022714 -0.01953112
v 0.06937952 -0.17849838 -0.01990942
v 0.06937952 -0.17634263 -0.01987395
v 0.06937528 -0.17414542 -0.01960205
v 0.07009372 -0.17339920 -0.01925922
v 0.06937952 -0.16986294 -0.01815587
v 0.06721997 -0.16986294 -0.01847111
v 0.06074557 -0.16986294 -0.01847111
v 0.05683550 -0.19737366 -0.00107747
v 0.05858603 -0.19789601 -0.00107747
v 0.05204381 -0.18820342 0.00202769
v 0.05204381 -0.18836510 0.00097950
v 0.06074557 -0.19787114 0.00107802
v 0.06506043 -0.19757680 0.00323745
v 0.06290300 -0.19751461 0.00323745
v 0.06074557 -0.19742341 0.00323745
v 0.06290300 -0.19706273 0.00510921
v 0.06605013 -0.19685130 0.00648447
v 0.06522361 -0.19707103 0.00554662
v 0.06522361 -0.19646576 0.00734351
v 0.06721997 -0.19639114 0.00757206
v 0.06290300 -0.19538373 0.00971179
v 0.06721997 -0.19685546 0.00649235
v 0.06721997 -0.19716223 0.00539687
v 0.06918879 -0.19702957 0.00539293
v 0.07063625 -0.19694251 0.00467575
v 0.07094355 -0.19706688 0.00323745
v 0.07369438 -0.19659013 0.00107014
v 0.06743402 -0.15554791 0.00871483
v 0.05740347 -0.15793997 0.00253997
v 0.05675497 -0.15930389 0.00539687
v 0.05204381 -0.16802226 0.00323745
v 0.05706226 -0.16614841 -0.01558662
v 0.05706226 -0.16182861 -0.01126776
v 0.06768198 -0.15554791 -0.00939600
v 0.05858603 -0.16986294 -0.01845535
v 0.05715127 -0.16837878 -0.01751355
v 0.07369438 -0.18928959 -0.01016441
v 0.07041373 -0.18166568 -0.01938532
v 0.06956814 -0.18083240 -0.01968480
v 0.06721997 -0.17849838 -0.02009462
v 0.06721997 -0.17634263 -0.02007098
v 0.06865473 -0.17293074 -0.01946807
v 0.06721997 -0.17418274 -0.01975573
v 0.06721997 -0.17177409 -0.01921193
v 0.05858603 -0.17171191 -0.01916465
v 0.06290300 -0.17174507 -0.01919223
v 0.05693723 -0.19723271 -0.00323690
v 0.05204381 -0.18836510 -0.00056126
v 0.06721997 -0.19789601 -0.00107747
v 0.06721997 -0.19789601 0.00107802
v 0.06290300 -0.19789187 0.00107802
v 0.05716823 -0.19705859 -0.00503379
v 0.05858603 -0.19761826 -0.00323690
v 0.06721997 -0.19760581 0.00323745
v 0.06937952 -0.19744829 0.00323745
v 0.06937952 -0.19771776 0.00107802
v 0.07369438 -0.19663158 -0.00108141
v 0.06701864 -0.15554791 0.00755630
v 0.05723604 -0.15784462 0.00107802
v 0.05646463 -0.15906759 0.00107802
v 0.05204381 -0.16738382 0.00107802
v 0.05666384 -0.16547681 -0.01410103
v 0.05671894 -0.16767816 -0.01626045
v 0.05666384 -0.16331691 -0.01194160
v 0.05204381 -0.16909184 -0.00605046
v 0.05681219 -0.16115701 -0.00966395
v 0.05730810 -0.16004182 -0.00891131
v 0.06700805 -0.15554791 -0.00755575
v 0.05725088 -0.15784876 -0.00058884
v 0.05737168 -0.17289758 -0.01949566
v 0.05685881 -0.16986294 -0.01785638
v 0.07369438 -0.19144949 -0.00928566
v 0.07058115 -0.18649954 -0.01744262
v 0.06937952 -0.18691411 -0.01767512
v 0.06937952 -0.18497393 -0.01842776
v 0.06897474 -0.18217146 -0.01956265
v 0.06721997 -0.18065414 -0.01989365
v 0.06290300 -0.17849838 -0.02012615
v 0.06506043 -0.17418274 -0.01976755
v 0.06290300 -0.17634263 -0.02009068
v 0.06721997 -0.17285197 -0.01948777
v 0.06074557 -0.17280223 -0.01951930
v 0.05858603 -0.17279393 -0.01952718
v 0.05616581 -0.19576928 -0.00323690
v 0.05676768 -0.19554127 -0.00755575
v 0.05204381 -0.18835681 -0.00059278
v 0.06074557 -0.19761826 -0.00323690
v 0.06721997 -0.19760581 -0.00323690
v 0.06937952 -0.19744413 -0.00323690
v 0.06937952 -0.19771776 -0.00107747
v 0.05799263 -0.19684716 -0.00647210
v 0.05714491 -0.19501062 -0.00971518
v 0.05866232 -0.19710005 -0.00560912
v 0.06074557 -0.19716223 -0.00539633
v 0.07096898 -0.19706688 -0.00323690
v 0.07369438 -0.19634968 -0.00324084
v 0.06688513 -0.15554791 0.00676425
v 0.06678128 -0.15554791 0.00437627
v 0.06675161 -0.15554791 0.00214985
v 0.06674314 -0.15554791 0.00107802
v 0.06674314 -0.15554791 -0.00107747
v 0.06676645 -0.15554791 -0.00323690
v 0.05204381 -0.16725531 -0.00107747
v 0.05204381 -0.17017386 -0.00707895
v 0.05608739 -0.16986294 -0.01618952
v 0.05204381 -0.17267785 -0.00894283
v 0.05204381 -0.17159997 -0.00815866
v 0.05204381 -0.16844926 -0.00497074
v 0.05627601 -0.16122749 -0.00755575
v 0.05704743 -0.15984283 -0.00755575
v 0.06683850 -0.15554791 -0.00536086
v 0.05681855 -0.15955263 -0.00539633
v 0.05673589 -0.15887689 -0.00121539
v 0.05858603 -0.17418274 -0.01977544
v 0.05858603 -0.17634263 -0.02006704
v 0.05719578 -0.17418274 -0.01960205
v 0.05681219 -0.17211404 -0.01845929
v 0.05642224 -0.17418274 -0.01834895
v 0.05204381 -0.17418274 -0.00974671
v 0.05204381 -0.17413713 -0.00972306
v 0.07369438 -0.19258125 -0.00867881
v 0.06937952 -0.18799614 -0.01706827
v 0.07049426 -0.19042965 -0.01515710
v 0.06721997 -0.18710896 -0.01777757
v 0.06721997 -0.18497393 -0.01867208
v 0.06721997 -0.18818684 -0.01725742
v 0.06721997 -0.18227510 -0.01960205
v 0.06721997 -0.18335297 -0.01924346
v 0.06074557 -0.17849838 -0.02010250
v 0.06074557 -0.17634263 -0.02008280
v 0.06290300 -0.17418274 -0.01977544
v 0.06074557 -0.17418274 -0.01977938
v 0.05204381 -0.18805417 -0.00168826
v 0.05204381 -0.18757328 -0.00323690
v 0.05637350 -0.19360939 -0.00971518
v 0.05204381 -0.18673170 -0.00539633
v 0.05204381 -0.18671512 -0.00543179
v 0.05204381 -0.18614716 -0.00657061
v 0.06721997 -0.19716223 -0.00539633
v 0.06918879 -0.19702957 -0.00539238
v 0.07063837 -0.19694251 -0.00467520
v 0.05749460 -0.19469555 -0.01080278
v 0.05858603 -0.19533398 -0.00971518
v 0.05866232 -0.19648649 -0.00733902
v 0.06074557 -0.19685130 -0.00647998
v 0.05718306 -0.19339795 -0.01166182
v 0.06506043 -0.19685546 -0.00648786
v 0.06721997 -0.19685546 -0.00649180
v 0.07369438 -0.19542519 -0.00540027
v 0.06978218 -0.19675181 -0.00611351
v 0.05204381 -0.16774864 -0.00317385
v 0.05204381 -0.16842853 -0.00491952
v 0.05204381 -0.16776522 -0.00323690
v 0.05700716 -0.17634263 -0.01974391
v 0.05858603 -0.17849838 -0.02003551
v 0.05623574 -0.17634263 -0.01834895
v 0.05204381 -0.17634263 -0.01024716
v 0.07052393 -0.19261857 -0.01305284
v 0.07369438 -0.19365913 -0.00763850
v 0.06937952 -0.19060377 -0.01529107
v 0.06937952 -0.19168164 -0.01429806
v 0.06211463 -0.18821585 -0.01727318
v 0.06074557 -0.18822415 -0.01727712
v 0.05858603 -0.18823244 -0.01728500
v 0.05748188 -0.18822829 -0.01728106
v 0.05858603 -0.18713383 -0.01769482
v 0.06721997 -0.18928959 -0.01646536
v 0.05858603 -0.18033492 -0.01964934
v 0.05858603 -0.18497393 -0.01837654
v 0.05633959 -0.19144949 -0.01187067
v 0.05204381 -0.18497393 -0.00745330
v 0.05642648 -0.18713383 -0.01618952
v 0.05633959 -0.18928959 -0.01403010
v 0.06834107 -0.19685546 -0.00648786
v 0.05858603 -0.19470384 -0.01081066
v 0.06506043 -0.19065766 -0.01537777
v 0.06721997 -0.19180187 -0.01432958
v 0.06721997 -0.19277196 -0.01324987
v 0.06721997 -0.19475774 -0.01088159
v 0.06074557 -0.19534642 -0.00971518
v 0.06074557 -0.19639942 -0.00755969
v 0.05717670 -0.18908645 -0.01598067
v 0.06721997 -0.19639114 -0.00757152
v 0.07006617 -0.19446754 -0.01057028
v 0.07369438 -0.19475774 -0.00655879
v 0.06918879 -0.19630407 -0.00734690
v 0.06936045 -0.19510183 -0.00979793
v 0.05704743 -0.17849838 -0.01971633
v 0.05627601 -0.17849838 -0.01834895
v 0.05727843 -0.18004887 -0.01955476
v 0.05204381 -0.17849838 -0.01024322
v 0.06937952 -0.19275123 -0.01321834
v 0.06862718 -0.19474530 -0.01087371
v 0.06721997 -0.19072399 -0.01540141
v 0.05719790 -0.18713383 -0.01747809
v 0.05204381 -0.18254042 -0.00921473
v 0.05204381 -0.18065414 -0.01001860
v 0.05684822 -0.18497393 -0.01781304
v 0.06721997 -0.19537959 -0.00971518
v 0.05204381 -0.18059195 -0.01002649
f 1 2 3
f 1 3 4
f 1 4 5
f 1 5 6
f 1 6 7
f 1 7 8
f 1 8 9
f 1 9 2
f 2 10 11
f 2 11 12
f 2 12 3
f 2 9 13
f 2 13 14
f 2 14 15
f 2 15 10
f 3 12 16
f 3 16 4
f 4 16 17
f 4 17 18
f 4 18 5
f 5 18 6
f 6 19 20
f 6 20 7
f 6 18 21
f 6 21 22
f 6 22 19
f 7 20 8
f 8 20 19
f 8 19 23
f 8 23 24
f 8 24 25
f 8 25 26
f 8 26 9
f 9 26 13
f 10 27 28
f 10 28 11
f 10 15 29
f 10 29 27
f 11 28 30
f 11 30 31
f 11 31 12
f 12 31 32
f 12 32 33
f 12 33 34
f 12 34 35
f 12 35 16
f 13 26 36
f 13 36 37
f 13 37 14
f 14 38 39
f 14 39 40
f 14 40 15
f 14 37 41
f 14 41 38
f 15 40 42
f 15 42 43
f 15 43 29
f 16 35 17
f 17 35 18
f 18 35 44
f 18 44 45
f 18 45 21
f 19 22 46
f 19 46 47
f 19 47 48
f 19 48 23
f 21 49 22
f 21 45 50
f 21 50 51
f 21 51 49
f 22 49 46
f 23 48 52
f 23 52 24
f 24 53 25
f 24 52 53
f 25 54 36
f 25 36 26
f 25 53 55
f 25 55 56
f 25 56 54
f 27 57 58
f 27 58 59
f 27 59 28
f 27 29 60
f 27 60 57
f 28 59 31
f 28 31 30
f 29 61 62
f 29 62 60
f 29 43 42
f 29 42 61
f 31 63 32
f 31 59 64
f 31 64 65
f 31 65 63
f 32 63 33
f 33 66 67
f 33 67 68
f 33 68 69
f 33 69 70
f 33 70 71
f 33 71 72
f 33 72 73
f 33 73 74
f 33 74 34
f 33 63 66
f 34 74 75
f 34 75 35
f 35 75 44
f 36 54 37
f 37 54 76
f 37 76 41
f 38 41 39
f 39 41 77
f 39 77 78
f 39 78 40
f 40 78 79
f 40 79 42
f 41 76 77
f 42 79 80
f 42 80 81
f 42 81 61
f 44 75 82
f 44 82 50
f 44 50 45
f 46 49 83
f 46 83 84
f 46 84 47
f 47 84 85
f 47 85 86
f 47 86 87
f 47 87 88
f 47 88 48
f 48 88 52
f 49 51 89
f 49 89 90
f 49 90 83
f 50 82 91
f 50 91 89
f 50 89 51
f 52 92 53
f 52 88 92
f 53 92 55
f 54 56 93
f 54 93 94
f 54 94 95
f 54 95 78
f 54 78 76
f 55 92 96
f 55 96 56
f 56 96 97
f 56 97 98
f 56 98 99
f 56 99 93
f 57 60 62
f 57 62 61
f 57 61 100
f 57 100 122
f 57 122 121
f 57 121 120
f 57 120 146
f 57 146 166
f 57 166 202
f 57 202 240
f 57 240 270
f 57 270 312
f 57 312 360
f 57 360 362
f 57 362 361
f 57 361 317
f 57 317 274
f 57 274 313
f 57 313 316
f 57 316 315
f 57 315 329
f 57 329 328
f 57 328 366
f 57 366 400
f 57 400 409
f 57 409 406
f 57 406 405
f 57 405 380
f 57 380 347
f 57 347 346
f 57 346 345
f 57 345 343
f 57 343 342
f 57 342 295
f 57 295 257
f 57 257 220
f 57 220 219
f 57 219 181
f 57 181 178
f 57 178 150
f 57 150 134
f 57 134 103
f 57 103 102
f 57 102 101
f 57 101 65
f 57 65 64
f 57 64 59
f 57 59 58
f 61 81 100
f 63 65 101
f 63 101 102
f 63 102 103
f 63 103 104
f 63 104 66
f 66 104 136
f 66 136 105
f 66 105 106
f 66 106 67
f 67 106 68
f 68 106 138
f 68 138 107
f 68 107 108
f 68 108 109
f 68 109 69
f 69 109 70
f 70 109 110
f 70 110 71
f 71 110 111
f 71 111 72
f 72 112 113
f 72 113 114
f 72 114 73
f 72 111 112
f 73 114 115
f 73 115 91
f 73 91 116
f 73 116 74
f 74 116 82
f 74 82 75
f 76 78 77
f 78 95 117
f 78 117 79
f 79 117 118
f 79 118 119
f 79 119 80
f 80 120 121
f 80 121 122
f 80 122 100
f 80 100 81
f 80 119 123
f 80 123 120
f 82 116 91
f 83 124 131
f 83 131 149
f 83 149 162
f 83 162 161
f 83 161 199
f 83 199 236
f 83 236 266
f 83 266 305
f 83 305 358
f 83 358 394
f 83 394 368
f 83 368 330
f 83 330 281
f 83 281 246
f 83 246 208
f 83 208 207
f 83 207 169
f 83 169 148
f 83 148 125
f 83 125 88
f 83 88 87
f 83 87 86
f 83 86 85
f 83 85 84
f 83 90 124
f 88 125 126
f 88 126 127
f 88 127 97
f 88 97 96
f 88 96 92
f 89 91 128
f 89 128 129
f 89 129 90
f 90 129 130
f 90 130 131
f 90 131 124
f 91 115 128
f 93 99 94
f 94 99 117
f 94 117 95
f 97 127 98
f 98 127 132
f 98 132 133
f 98 133 99
f 99 133 117
f 103 134 135
f 103 135 136
f 103 136 104
f 105 136 137
f 105 137 138
f 105 138 106
f 107 138 108
f 108 139 109
f 108 138 139
f 109 139 110
f 110 139 140
f 110 140 111
f 111 140 141
f 111 141 142
f 111 142 112
f 112 142 143
f 112 143 130
f 112 130 113
f 113 130 129
f 113 129 128
f 113 128 114
f 114 128 115
f 117 133 118
f 118 133 144
f 118 144 119
f 119 144 145
f 119 145 147
f 119 147 123
f 120 123 147
f 120 147 146
f 125 148 168
f 125 168 203
f 125 203 243
f 125 243 277
f 125 277 320
f 125 320 311
f 125 311 310
f 125 310 309
f 125 309 308
f 125 308 307
f 125 307 306
f 125 306 267
f 125 267 237
f 125 237 200
f 125 200 163
f 125 163 144
f 125 144 133
f 125 133 126
f 126 133 132
f 126 132 127
f 130 143 131
f 131 143 149
f 134 150 151
f 134 151 135
f 135 151 152
f 135 152 138
f 135 138 137
f 135 137 136
f 138 152 153
f 138 153 154
f 138 154 155
f 138 155 156
f 138 156 140
f 138 140 139
f 140 156 141
f 141 156 157
f 141 157 158
f 141 158 159
f 141 159 142
f 142 159 143
f 143 159 160
f 143 160 161
f 143 161 162
f 143 162 149
f 144 163 164
f 144 164 145
f 145 165 147
f 145 164 165
f 146 147 165
f 146 165 167
f 146 167 166
f 148 169 170
f 148 170 171
f 148 171 172
f 148 172 173
f 148 173 174
f 148 174 175
f 148 175 176
f 148 176 177
f 148 177 168
f 150 178 151
f 151 179 180
f 151 180 153
f 151 153 152
f 151 178 181
f 151 181 179
f 153 180 182
f 153 182 183
f 153 183 184
f 153 184 154
f 154 185 155
f 154 184 186
f 154 186 187
f 154 187 188
f 154 188 185
f 155 185 189
f 155 189 190
f 155 190 156
f 156 190 157
f 157 190 191
f 157 191 158
f 158 191 192
f 158 192 159
f 159 192 193
f 159 193 194
f 159 194 195
f 159 195 196
f 159 196 160
f 160 196 197
f 160 197 198
f 160 198 161
f 161 198 199
f 163 200 164
f 164 200 201
f 164 201 165
f 165 201 167
f 166 167 202
f 167 201 202
f 168 177 204
f 168 204 205
f 168 205 206
f 168 206 203
f 169 207 170
f 170 207 208
f 170 208 209
f 170 209 210
f 170 210 171
f 171 211 172
f 171 210 211
f 172 211 212
f 172 212 213
f 172 213 173
f 173 213 214
f 173 214 174
f 174 214 215
f 174 215 175
f 175 177 176
f 175 215 177
f 177 215 216
f 177 216 204
f 179 217 218
f 179 218 182
f 179 182 180
f 179 181 219
f 179 219 220
f 179 220 217
f 182 218 221
f 182 221 222
f 182 222 223
f 182 223 224
f 182 224 183
f 183 224 225
f 183 225 184
f 184 225 187
f 184 187 186
f 185 188 226
f 185 226 189
f 187 225 188
f 188 225 227
f 188 227 226
f 189 226 190
f 190 226 228
f 190 228 229
f 190 229 230
f 190 230 191
f 191 230 192
f 192 230 193
f 193 230 229
f 193 229 194
f 194 231 232
f 194 232 233
f 194 233 197
f 194 197 195
f 194 229 231
f 195 197 196
f 197 233 234
f 197 234 199
f 197 199 198
f 199 234 235
f 199 235 236
f 200 237 238
f 200 238 201
f 201 238 239
f 201 239 240
f 201 240 202
f 203 241 242
f 203 242 243
f 203 206 241
f 204 216 244
f 204 244 205
f 205 244 245
f 205 245 206
f 206 245 241
f 208 246 209
f 209 247 248
f 209 248 210
f 209 246 247
f 210 248 249
f 210 249 250
f 210 250 211
f 211 250 212
f 212 251 213
f 212 250 252
f 212 252 251
f 213 251 214
f 214 251 215
f 215 251 253
f 215 253 216
f 216 254 244
f 216 253 255
f 216 255 254
f 217 256 218
f 217 220 257
f 217 257 256
f 218 258 259
f 218 259 260
f 218 260 221
f 218 256 261
f 218 261 262
f 218 262 296
f 218 296 258
f 221 260 263
f 221 263 222
f 222 263 232
f 222 232 223
f 223 232 227
f 223 227 224
f 224 227 225
f 226 231 229
f 226 229 228
f 226 227 232
f 226 232 231
f 232 263 233
f 233 263 264
f 233 264 234
f 234 264 235
f 235 264 265
f 235 265 236
f 236 265 266
f 237 267 238
f 238 267 268
f 238 268 239
f 239 268 269
f 239 269 270
f 239 270 240
f 241 271 273
f 241 273 242
f 241 245 272
f 241 272 271
f 242 273 274
f 242 274 275
f 242 275 276
f 242 276 243
f 243 276 278
f 243 278 277
f 244 254 279
f 244 279 245
f 245 280 272
f 245 279 280
f 246 281 282
f 246 282 247
f 247 282 283
f 247 283 284
f 247 284 285
f 247 285 248
f 248 285 286
f 248 286 249
f 249 286 287
f 249 287 250
f 250 288 252
f 250 287 289
f 250 289 288
f 251 252 290
f 251 290 253
f 252 288 291
f 252 291 290
f 253 290 291
f 253 291 292
f 253 292 255
f 254 255 292
f 254 292 279
f 256 257 293
f 256 293 294
f 256 294 261
f 257 295 293
f 258 296 297
f 258 297 298
f 258 298 299
f 258 299 265
f 258 265 259
f 259 265 264
f 259 264 263
f 259 263 260
f 261 300 262
f 261 294 301
f 261 301 300
f 262 302 303
f 262 303 348
f 262 348 296
f 262 300 302
f 265 299 266
f 266 299 304
f 266 304 305
f 267 306 268
f 268 306 307
f 268 307 308
f 268 308 309
f 268 309 310
f 268 310 311
f 268 311 278
f 268 278 269
f 269 278 312
f 269 312 270
f 271 272 313
f 271 313 274
f 271 274 273
f 272 280 314
f 272 314 315
f 272 315 316
f 272 316 313
f 274 317 275
f 275 318 319
f 275 319 276
f 275 317 318
f 276 319 278
f 277 278 320
f 278 319 321
f 278 321 322
f 278 322 312
f 278 311 320
f 279 292 323
f 279 323 324
f 279 324 325
f 279 325 326
f 279 326 280
f 280 326 327
f 280 327 328
f 280 328 329
f 280 329 314
f 281 330 282
f 282 331 283
f 282 330 332
f 282 332 331
f 283 333 334
f 283 334 285
f 283 285 284
f 283 331 335
f 283 335 333
f 285 336 286
f 285 334 337
f 285 337 336
f 286 336 338
f 286 338 287
f 287 338 324
f 287 324 339
f 287 339 289
f 288 340 292
f 288 292 291
f 288 289 340
f 289 341 340
f 289 339 323
f 289 323 341
f 292 340 341
f 292 341 323
f 293 295 342
f 293 342 343
f 293 343 294
f 294 344 301
f 294 343 345
f 294 345 346
f 294 346 347
f 294 347 344
f 296 348 297
f 297 348 349
f 297 349 298
f 298 304 299
f 298 349 350
f 298 350 304
f 300 301 351
f 300 351 352
f 300 352 353
f 300 353 354
f 300 354 302
f 301 344 355
f 301 355 351
f 302 354 356
f 302 356 303
f 303 356 357
f 303 357 348
f 304 350 305
f 305 350 359
f 305 359 358
f 312 322 321
f 312 321 360
f 314 329 315
f 317 361 318
f 318 321 319
f 318 361 362
f 318 362 321
f 321 362 360
f 323 339 324
f 324 363 325
f 324 338 364
f 324 364 363
f 325 363 327
f 325 327 326
f 327 363 365
f 327 365 366
f 327 366 328
f 330 367 332
f 330 368 367
f 331 332 369
f 331 369 335
f 332 367 370
f 332 370 369
f 333 335 371
f 333 371 372
f 333 372 373
f 333 373 334
f 334 373 374
f 334 374 375
f 334 375 337
f 335 369 376
f 335 376 372
f 335 372 371
f 336 377 364
f 336 364 338
f 336 337 375
f 336 375 378
f 336 378 377
f 344 379 355
f 344 347 379
f 347 380 381
f 347 381 382
f 347 382 379
f 348 357 383
f 348 383 349
f 349 383 359
f 349 359 350
f 351 384 352
f 351 355 374
f 351 374 385
f 351 385 386
f 351 386 387
f 351 387 384
f 352 384 388
f 352 388 389
f 352 389 390
f 352 390 353
f 353 390 354
f 354 390 356
f 355 379 391
f 355 391 374
f 356 390 357
f 357 390 392
f 357 392 383
f 358 393 394
f 358 359 393
f 359 383 395
f 359 395 396
f 359 396 393
f 363 364 397
f 363 397 398
f 363 398 365
f 364 377 399
f 364 399 397
f 365 398 400
f 365 400 366
f 367 401 370
f 367 368 394
f 367 394 393
f 367 393 402
f 367 402 401
f 369 370 403
f 369 403 376
f 370 401 386
f 370 386 403
f 372 376 373
f 373 376 403
f 373 403 374
f 374 403 385
f 374 391 381
f 374 381 404
f 374 404 399
f 374 399 378
f 374 378 375
f 377 378 399
f 379 382 391
f 380 405 381
f 381 405 406
f 381 406 407
f 381 407 404
f 381 391 382
f 383 392 408
f 383 408 402
f 383 402 395
f 384 387 388
f 385 403 386
f 386 401 387
f 387 401 402
f 387 402 388
f 388 402 408
f 388 408 389
f 389 408 390
f 390 408 392
f 393 396 402
f 395 402 396
f 397 399 407
f 397 407 398
f 398 407 406
f 398 406 409
f 398 409 400
f 399 404 407

