# https://github.com/mikedh/trimesh
v 0.07368949 0.00501478 0.01077943
v 0.08449233 0.00717362 0.01071190
v 0.07368949 0.00642830 0.01077732
v 0.07368949 -0.01225166 0.01077943
v 0.08665168 0.00717362 0.01053041
v 0.08449233 0.00933246 0.01060427
v 0.07368949 0.00717362 0.01077521
v 0.08449233 -0.02466071 0.01071190
v 0.07368949 -0.02466071 0.01071190
v 0.08881102 0.00717362 0.01000073
v 0.08665168 0.00933246 0.01041012
v 0.08665168 -0.02466071 0.01053041
v 0.08719558 -0.02466071 0.01039746
v 0.07368949 0.00917397 0.01064859
v 0.08665168 0.01149129 0.01000073
v 0.08449233 0.01149129 0.01016322
v 0.07368949 -0.02466071 -0.00925790
v 0.09050997 0.00717362 0.00914394
v 0.09047127 0.00933246 0.00908485
v 0.08881102 0.00933246 0.00987411
v 0.08881102 -0.02466071 0.01000073
v 0.08923881 -0.02466071 0.00978547
v 0.07368949 0.01149129 0.01016744
v 0.08881102 0.01149129 0.00943305
v 0.08881102 0.01302476 0.00887593
v 0.08646222 0.01379577 0.00906797
v 0.08449233 0.01365014 0.00924102
v 0.08233502 0.01365014 0.00925157
v 0.08017568 0.01365014 0.00926212
v 0.07368949 0.01365014 0.00928955
v 0.07369968 -0.02466071 -0.01071190
v 0.07368949 -0.02465643 -0.01071190
v 0.09158965 0.00717362 0.00816054
v 0.09050997 -0.02466071 0.00914394
v 0.09155094 0.00933246 0.00810145
v 0.09124334 0.01149129 0.00791786
v 0.09016570 0.01149129 0.00883162
v 0.08989477 0.01257500 0.00863747
v 0.08881102 0.01410418 0.00825973
v 0.08705502 0.01460962 0.00856150
v 0.08561478 0.01473812 0.00863958
v 0.08449233 0.01474241 0.00864380
v 0.07368949 0.01478096 0.00867968
v 0.08449233 -0.02466071 -0.01071190
v 0.07368949 -0.01225166 -0.01077943
v 0.09250227 0.00717362 0.00708007
v 0.09246765 0.00933246 0.00702309
v 0.09158965 -0.02466071 0.00816054
v 0.09232505 0.01149129 0.00683949
v 0.09216208 0.01281487 0.00663479
v 0.09080332 0.01341455 0.00742194
v 0.09027163 0.01508508 0.00676774
v 0.08881102 0.01551771 0.00717925
v 0.08730355 0.01686270 0.00644064
v 0.08586331 0.01690553 0.00649551
v 0.08233502 0.01475097 0.00865013
v 0.07368949 0.01571046 0.00755488
v 0.08485901 0.01690553 0.00649551
v 0.08342081 0.01688840 0.00647652
v 0.08233502 0.01687555 0.00645753
v 0.08665168 -0.02466071 -0.01053041
v 0.08449233 0.00717362 -0.01071190
v 0.07368949 0.00501478 -0.01077943
v 0.09342102 0.00717362 0.00539604
v 0.09339454 0.00933246 0.00539604
v 0.09250024 -0.02466071 0.00708007
v 0.09315212 0.01149129 0.00539604
v 0.09256135 0.01358160 0.00540660
v 0.09230671 0.01505081 0.00469542
v 0.09171188 0.01425410 0.00613465
v 0.09094388 0.01578756 0.00538338
v 0.09017385 0.01709828 0.00463212
v 0.08881102 0.01659713 0.00614731
v 0.08881102 0.01734672 0.00506684
v 0.08661093 0.01740669 0.00559230
v 0.08428047 0.01744096 0.00561130
v 0.08017568 0.01684556 0.00641532
v 0.07368949 0.01673848 0.00627815
v 0.08233502 0.01756518 0.00537705
v 0.08017568 0.01756089 0.00533485
v 0.07585902 0.01753948 0.00523988
v 0.07368949 0.01752234 0.00519346
v 0.08881102 -0.02466071 -0.01000073
v 0.08665168 0.00717362 -0.01053041
v 0.07368949 0.00717362 -0.01077521
v 0.07368949 0.00752057 -0.01077099
v 0.08449233 0.00933246 -0.01060427
v 0.09405456 0.00933246 0.00362128
v 0.09339861 -0.02466071 0.00539604
v 0.09399752 0.01164550 0.00318867
v 0.09351269 0.01365014 0.00323720
v 0.09261839 0.01543204 0.00323720
v 0.09164058 0.01651145 0.00323720
v 0.09056091 0.01736386 0.00323720
v 0.08881102 0.01813916 0.00323720
v 0.08665168 0.01851609 0.00323720
v 0.08449233 0.01858892 0.00323720
v 0.08233502 0.01858463 0.00323720
v 0.08017568 0.01857606 0.00323720
v 0.07801633 0.01856321 0.00323720
v 0.07585902 0.01854608 0.00323720
v 0.07368949 0.01849896 0.00323720
v 0.09050997 -0.02466071 -0.00914394
v 0.08881102 0.00717362 -0.01000073
v 0.08665168 0.00933246 -0.01040801
v 0.07368949 0.00916969 -0.01064226
v 0.08449233 0.01149129 -0.01016533
v 0.08665168 0.01149129 -0.00999862
v 0.09428883 0.00933246 0.00254291
v 0.09426846 0.01102869 0.00243529
v 0.09355750 -0.02466071 0.00492545
v 0.09402604 -0.02466071 0.00353054
v 0.09427049 -0.02466071 0.00245217
v 0.09419716 0.01246791 0.00205543
v 0.09397715 0.01356447 0.00123242
v 0.09270191 0.01596318 0.00094964
v 0.09194003 0.01678560 0.00158273
v 0.09111907 0.01748807 0.00094964
v 0.08863583 0.01871742 0.00094120
v 0.08780061 0.01906437 0.00012873
v 0.08665168 0.01895729 0.00146033
v 0.08449233 0.01899155 0.00142445
v 0.07368949 0.01882022 0.00108892
v 0.09131667 -0.02466071 -0.00840956
v 0.09050997 0.00717362 -0.00914394
v 0.09158965 0.00717362 -0.00816265
v 0.08881102 0.00933246 -0.00987411
v 0.09046923 0.00933246 -0.00908485
v 0.07368949 0.01149129 -0.01015900
v 0.08233502 0.01149129 -0.01016533
v 0.07368949 0.01365014 -0.00928955
v 0.08449233 0.01365014 -0.00924524
v 0.08646833 0.01379149 -0.00906797
v 0.08881102 0.01302476 -0.00887593
v 0.08881102 0.01149129 -0.00943094
v 0.09448847 0.00933246 0.00107836
v 0.09432142 -0.02466071 0.00210608
v 0.09447013 -0.02466071 0.00107836
v 0.09436217 0.01164550 0.00123242
v 0.09427253 0.01278917 0.00061621
v 0.09397715 0.01356447 -0.00123242
v 0.09270191 0.01596318 -0.00094964
v 0.09207244 0.01691410 0.00014350
v 0.09111907 0.01748807 -0.00094964
v 0.08863583 0.01872170 -0.00094331
v 0.08780061 0.01906437 -0.00013295
v 0.08665168 0.01909436 0.00038196
v 0.08449233 0.01908150 0.00034398
v 0.07368949 0.01882022 0.00107836
v 0.09158965 -0.02466071 -0.00816054
v 0.09154890 0.00933246 -0.00810145
v 0.09247376 0.00933246 -0.00702309
v 0.09251043 0.00717362 -0.00708218
v 0.09016367 0.01149129 -0.00883162
v 0.09124334 0.01149129 -0.00791786
v 0.07368949 0.01478096 -0.00868179
v 0.08449233 0.01474669 -0.00864591
v 0.08562497 0.01473812 -0.00864169
v 0.08706521 0.01460962 -0.00855939
v 0.08989477 0.01257500 -0.00863747
v 0.08881102 0.01410418 -0.00825762
v 0.09449865 0.00933246 -0.00107836
v 0.09447013 -0.02466071 -0.00107836
v 0.09436828 0.01164978 -0.00123242
v 0.09427253 0.01278917 -0.00061410
v 0.09419716 0.01247648 -0.00205332
v 0.09352491 0.01365014 -0.00323720
v 0.09261839 0.01543204 -0.00323720
v 0.09193799 0.01678560 -0.00158273
v 0.09207244 0.01691410 -0.00014350
v 0.09056091 0.01736386 -0.00323720
v 0.08881102 0.01814772 -0.00323720
v 0.08665168 0.01909436 -0.00032499
v 0.08665168 0.01850753 -0.00323720
v 0.08665168 0.01894444 -0.00140546
v 0.08449233 0.01908150 -0.00026379
v 0.07368949 0.01879452 -0.00107836
v 0.09250024 -0.02466071 -0.00708007
v 0.09232708 0.01149129 -0.00683949
v 0.09340065 0.00933246 -0.00539604
v 0.09316434 0.01149129 -0.00539604
v 0.09342916 0.00717362 -0.00539604
v 0.09216412 0.01281487 -0.00663479
v 0.08575534 0.01689697 -0.00648707
v 0.07368949 0.01570189 -0.00755488
v 0.08531736 0.01689697 -0.00648707
v 0.08719355 0.01686270 -0.00643853
v 0.08881102 0.01551342 -0.00717925
v 0.09027163 0.01508508 -0.00676774
v 0.09080128 0.01341455 -0.00742194
v 0.09429901 0.00933246 -0.00257457
v 0.09427661 0.01103726 -0.00245850
v 0.09427049 -0.02466071 -0.00245217
v 0.09400771 0.01164978 -0.00320133
v 0.09257154 0.01358160 -0.00540660
v 0.09230468 0.01504653 -0.00469331
v 0.09164058 0.01651145 -0.00323720
v 0.09017589 0.01709828 -0.00463423
v 0.08881102 0.01734672 -0.00506473
v 0.08449233 0.01895729 -0.00134426
v 0.08449233 0.01855893 -0.00323720
v 0.08654574 0.01740669 -0.00559019
v 0.07368949 0.01847326 -0.00322454
v 0.09317249 -0.02466071 -0.00582233
v 0.09405456 0.00933246 -0.00365504
v 0.09339861 -0.02466071 -0.00539604
v 0.09170984 0.01425410 -0.00613254
v 0.08455548 0.01743667 -0.00559863
v 0.07368949 0.01672991 -0.00625916
v 0.07368949 0.01751806 -0.00518079
v 0.07585902 0.01753519 -0.00521667
v 0.07801633 0.01754804 -0.00525887
v 0.08233502 0.01756518 -0.00534329
v 0.08881102 0.01659284 -0.00614520
v 0.09094388 0.01578756 -0.00538338
v 0.09420938 -0.02466071 -0.00272440
v 0.08233502 0.01855036 -0.00323720
v 0.08017568 0.01853323 -0.00323720
v 0.07585902 0.01849468 -0.00323720
v 0.07368949 0.01846898 -0.00323720
v 0.09402604 -0.02466071 -0.00353054
v 0.09386918 -0.02466071 -0.00400113
f 1 2 3
f 1 3 7
f 1 7 14
f 1 14 23
f 1 23 30
f 1 30 43
f 1 43 57
f 1 57 78
f 1 78 82
f 1 82 102
f 1 102 123
f 1 123 149
f 1 149 177
f 1 177 203
f 1 203 220
f 1 220 210
f 1 210 209
f 1 209 185
f 1 185 156
f 1 156 131
f 1 131 129
f 1 129 106
f 1 106 86
f 1 86 85
f 1 85 63
f 1 63 45
f 1 45 32
f 1 32 17
f 1 17 9
f 1 9 4
f 1 4 8
f 1 8 2
f 2 5 6
f 2 6 7
f 2 7 3
f 2 8 12
f 2 12 5
f 4 9 8
f 5 10 11
f 5 11 6
f 5 12 13
f 5 13 10
f 6 14 7
f 6 11 15
f 6 15 16
f 6 16 14
f 8 9 17
f 8 17 31
f 8 31 44
f 8 44 61
f 8 61 83
f 8 83 103
f 8 103 124
f 8 124 150
f 8 150 178
f 8 178 204
f 8 204 206
f 8 206 222
f 8 222 221
f 8 221 216
f 8 216 193
f 8 193 163
f 8 163 138
f 8 138 137
f 8 137 113
f 8 113 112
f 8 112 111
f 8 111 89
f 8 89 66
f 8 66 48
f 8 48 34
f 8 34 22
f 8 22 21
f 8 21 13
f 8 13 12
f 10 18 19
f 10 19 20
f 10 20 11
f 10 13 21
f 10 21 22
f 10 22 18
f 11 20 15
f 14 16 23
f 15 20 24
f 15 24 25
f 15 25 26
f 15 26 16
f 16 26 27
f 16 27 28
f 16 28 29
f 16 29 30
f 16 30 23
f 17 32 31
f 18 33 35
f 18 35 19
f 18 22 34
f 18 34 48
f 18 48 33
f 19 35 36
f 19 36 37
f 19 37 20
f 20 37 24
f 24 37 38
f 24 38 25
f 25 38 39
f 25 39 40
f 25 40 26
f 26 40 41
f 26 41 27
f 27 41 42
f 27 42 43
f 27 43 28
f 28 43 29
f 29 43 30
f 31 32 45
f 31 45 44
f 33 46 47
f 33 47 35
f 33 48 46
f 35 47 49
f 35 49 36
f 36 49 50
f 36 50 37
f 37 50 38
f 38 50 51
f 38 51 52
f 38 52 39
f 39 52 53
f 39 53 40
f 40 53 54
f 40 54 41
f 41 54 55
f 41 55 42
f 42 56 43
f 42 55 56
f 43 56 55
f 43 55 58
f 43 58 59
f 43 59 60
f 43 60 57
f 44 45 63
f 44 63 62
f 44 62 84
f 44 84 61
f 46 64 65
f 46 65 47
f 46 48 66
f 46 66 64
f 47 65 67
f 47 67 49
f 49 67 50
f 50 68 69
f 50 69 70
f 50 70 51
f 50 67 68
f 51 70 52
f 52 71 72
f 52 72 73
f 52 73 53
f 52 70 71
f 53 73 54
f 54 73 74
f 54 74 75
f 54 75 55
f 55 75 76
f 55 76 58
f 57 60 77
f 57 77 78
f 58 76 79
f 58 79 80
f 58 80 81
f 58 81 59
f 59 81 82
f 59 82 60
f 60 82 77
f 61 84 104
f 61 104 83
f 62 63 85
f 62 85 86
f 62 86 87
f 62 87 84
f 64 88 65
f 64 66 89
f 64 89 88
f 65 88 90
f 65 90 67
f 67 90 91
f 67 91 68
f 68 91 69
f 69 92 93
f 69 93 72
f 69 72 71
f 69 71 70
f 69 91 92
f 72 94 95
f 72 95 74
f 72 74 73
f 72 93 94
f 74 95 96
f 74 96 75
f 75 96 97
f 75 97 76
f 76 97 79
f 77 82 78
f 79 97 98
f 79 98 99
f 79 99 100
f 79 100 101
f 79 101 80
f 80 101 81
f 81 101 82
f 82 101 102
f 83 104 125
f 83 125 103
f 84 87 105
f 84 105 104
f 86 106 87
f 87 106 107
f 87 107 108
f 87 108 105
f 88 109 110
f 88 110 90
f 88 89 111
f 88 111 112
f 88 112 113
f 88 113 109
f 90 114 91
f 90 110 114
f 91 114 115
f 91 115 92
f 92 115 116
f 92 116 117
f 92 117 93
f 93 117 94
f 94 117 118
f 94 118 119
f 94 119 95
f 95 119 120
f 95 120 121
f 95 121 96
f 96 121 97
f 97 121 122
f 97 122 98
f 98 122 99
f 99 122 100
f 100 122 101
f 101 122 123
f 101 123 102
f 103 125 126
f 103 126 124
f 104 105 127
f 104 127 128
f 104 128 125
f 105 108 127
f 106 129 130
f 106 130 107
f 107 131 132
f 107 132 133
f 107 133 108
f 107 130 131
f 108 133 134
f 108 134 135
f 108 135 127
f 109 136 110
f 109 113 137
f 109 137 138
f 109 138 136
f 110 136 139
f 110 139 114
f 114 139 140
f 114 140 115
f 115 140 165
f 115 165 141
f 115 141 142
f 115 142 116
f 116 142 170
f 116 170 143
f 116 143 117
f 117 143 118
f 118 143 170
f 118 170 144
f 118 144 145
f 118 145 119
f 119 145 120
f 120 146 173
f 120 173 147
f 120 147 121
f 120 145 146
f 121 147 122
f 122 147 148
f 122 148 123
f 123 148 176
f 123 176 149
f 124 126 150
f 125 128 126
f 126 128 151
f 126 151 152
f 126 152 153
f 126 153 150
f 127 135 154
f 127 154 128
f 128 154 155
f 128 155 151
f 129 131 130
f 131 156 132
f 132 156 157
f 132 157 158
f 132 158 133
f 133 158 159
f 133 159 134
f 134 160 135
f 134 159 161
f 134 161 160
f 135 160 154
f 136 162 139
f 136 138 162
f 138 163 162
f 139 164 140
f 139 162 164
f 140 164 165
f 141 165 166
f 141 166 167
f 141 167 168
f 141 168 142
f 142 169 170
f 142 168 169
f 144 170 169
f 144 169 171
f 144 171 145
f 145 172 146
f 145 171 172
f 146 172 174
f 146 174 175
f 146 175 173
f 147 173 176
f 147 176 148
f 149 176 177
f 150 153 178
f 151 155 179
f 151 179 152
f 152 180 153
f 152 179 181
f 152 181 180
f 153 180 182
f 153 182 178
f 154 160 183
f 154 183 155
f 155 183 179
f 156 184 157
f 156 185 186
f 156 186 184
f 157 184 158
f 158 184 187
f 158 187 159
f 159 188 161
f 159 187 188
f 160 161 189
f 160 189 190
f 160 190 183
f 161 188 189
f 162 191 192
f 162 192 164
f 162 163 191
f 163 193 191
f 164 166 165
f 164 192 166
f 166 192 194
f 166 194 167
f 167 194 181
f 167 181 195
f 167 195 196
f 167 196 168
f 168 196 197
f 168 197 169
f 169 197 171
f 171 197 198
f 171 198 172
f 172 198 199
f 172 199 174
f 173 175 200
f 173 200 176
f 174 201 175
f 174 199 202
f 174 202 201
f 175 201 200
f 176 200 177
f 177 200 203
f 178 182 204
f 179 183 181
f 180 205 182
f 180 181 194
f 180 194 205
f 181 183 195
f 182 205 206
f 182 206 204
f 183 190 207
f 183 207 196
f 183 196 195
f 184 186 208
f 184 208 202
f 184 202 187
f 185 209 186
f 186 209 210
f 186 210 211
f 186 211 212
f 186 212 213
f 186 213 208
f 187 202 199
f 187 199 214
f 187 214 188
f 188 214 189
f 189 214 198
f 189 198 215
f 189 215 207
f 189 207 190
f 191 205 192
f 191 193 216
f 191 216 205
f 192 205 194
f 196 215 198
f 196 198 197
f 196 207 215
f 198 214 199
f 200 201 217
f 200 217 218
f 200 218 219
f 200 219 203
f 201 202 208
f 201 208 213
f 201 213 217
f 203 219 220
f 205 216 221
f 205 221 222
f 205 222 206
f 210 220 211
f 211 220 212
f 212 220 213
f 213 220 219
f 213 219 218
f 213 218 217
