# https://github.com/mikedh/trimesh
v 0.01164866 -0.16692890 0.00107912
v 0.01164866 -0.16701704 -0.00107875
v 0.01164866 -0.16718901 0.00300000
v 0.05204381 -0.16738248 0.00107912
v 0.05204381 -0.16725780 -0.00101431
v 0.05204381 -0.16725565 -0.00107875
v 0.01164866 -0.16742762 -0.00323663
v 0.01164866 -0.16724705 0.00323699
v 0.05204381 -0.16802308 0.00323699
v 0.01164866 -0.16777587 0.00514124
v 0.05204381 -0.16776297 -0.00323663
v 0.01164866 -0.16795214 -0.00531758
v 0.05204381 -0.16857555 0.00485228
v 0.01164866 -0.16787260 0.00538863
v 0.05204381 -0.16842722 -0.00491844
v 0.01164866 -0.16802953 -0.00548597
v 0.05204381 -0.16844871 -0.00497041
v 0.05204381 -0.16909577 0.00593329
v 0.01164866 -0.16974067 0.00758808
v 0.01164866 -0.16857769 -0.00657115
v 0.05204381 -0.16909362 -0.00604935
v 0.05204381 -0.17017490 0.00707875
v 0.01164866 -0.16976216 0.00760887
v 0.01164866 -0.16974711 -0.00760227
v 0.05204381 -0.17014051 -0.00704929
v 0.05204381 -0.17021574 0.00710994
v 0.01164866 -0.17199567 0.00940710
v 0.01164866 -0.17215690 -0.00952731
v 0.05204381 -0.17017490 -0.00707839
v 0.05204381 -0.17160013 0.00815769
v 0.01164866 -0.17215690 0.00952559
v 0.01164866 -0.17238476 -0.00964788
v 0.05204381 -0.17155714 -0.00812614
v 0.05204381 -0.17267927 -0.00894106
v 0.05204381 -0.17418189 -0.00974767
v 0.05204381 -0.17267927 0.00894351
v 0.01164866 -0.17418618 0.01026359
v 0.05204381 -0.17418189 0.00974803
v 0.01164866 -0.17418618 -0.01026323
v 0.05204381 -0.17634230 -0.01024660
v 0.01164866 -0.17425712 -0.01027986
v 0.01164866 -0.17634230 0.01061908
v 0.05204381 -0.17634230 0.01024488
v 0.05204381 -0.17849627 -0.01024452
v 0.01164866 -0.17849627 -0.01061872
v 0.01164866 -0.17634230 -0.01061664
v 0.01164866 -0.17615313 -0.01059793
v 0.01164866 -0.17849627 0.01061700
v 0.05204381 -0.17849627 0.01024488
v 0.05204381 -0.18065669 -0.01002000
v 0.01164866 -0.18065239 -0.01043786
v 0.01164866 -0.17869834 0.01060869
v 0.05204381 -0.17856076 0.01023865
v 0.01164866 -0.18065239 0.01043822
v 0.05204381 -0.18248390 -0.00924042
v 0.01164866 -0.18291599 -0.00969985
v 0.05204381 -0.18065669 0.01002036
v 0.01164866 -0.18070828 0.01043198
v 0.05204381 -0.18253980 -0.00921548
v 0.01164866 -0.18682194 -0.00725094
v 0.05204381 -0.18253980 0.00921376
v 0.01164866 -0.18279991 0.00974803
v 0.01164866 -0.18291599 0.00970022
v 0.05204381 -0.18361893 -0.00843590
v 0.01164866 -0.18694662 -0.00704097
v 0.05204381 -0.18497322 -0.00745259
v 0.05204381 -0.18614479 -0.00657322
v 0.05204381 -0.18257204 0.00919089
v 0.01164866 -0.18419504 0.00896430
v 0.01164866 -0.18660912 0.00740722
v 0.01164866 -0.18830306 -0.00323663
v 0.05204381 -0.18673166 -0.00539658
v 0.05204381 -0.18757217 -0.00323663
v 0.05204381 -0.18361893 0.00843418
v 0.01164866 -0.18681764 0.00724922
v 0.05204381 -0.18614909 0.00657567
v 0.05204381 -0.18500977 0.00742801
v 0.01164866 -0.18888992 -0.00120557
v 0.05204381 -0.18806875 -0.00164005
v 0.01164866 -0.18879749 0.00119761
v 0.05204381 -0.18783658 0.00323699
v 0.05204381 -0.18686708 0.00539487
v 0.01164866 -0.18888992 -0.00092700
v 0.05204381 -0.18836755 -0.00056111
v 0.01164866 -0.18886413 0.00096894
v 0.05204381 -0.18819558 0.00206035
v 0.05204381 -0.18836755 0.00097933
v 0.05204381 -0.18820203 0.00202709
f 1 2 7
f 1 7 12
f 1 12 16
f 1 16 20
f 1 20 24
f 1 24 28
f 1 28 32
f 1 32 39
f 1 39 41
f 1 41 47
f 1 47 46
f 1 46 45
f 1 45 51
f 1 51 56
f 1 56 60
f 1 60 65
f 1 65 71
f 1 71 78
f 1 78 83
f 1 83 85
f 1 85 80
f 1 80 75
f 1 75 70
f 1 70 69
f 1 69 63
f 1 63 62
f 1 62 58
f 1 58 54
f 1 54 52
f 1 52 48
f 1 48 42
f 1 42 37
f 1 37 31
f 1 31 27
f 1 27 23
f 1 23 19
f 1 19 14
f 1 14 10
f 1 10 8
f 1 8 3
f 1 3 4
f 1 4 5
f 1 5 6
f 1 6 2
f 2 6 7
f 3 8 4
f 4 9 13
f 4 13 18
f 4 18 22
f 4 22 26
f 4 26 30
f 4 30 36
f 4 36 38
f 4 38 43
f 4 43 49
f 4 49 53
f 4 53 57
f 4 57 61
f 4 61 68
f 4 68 74
f 4 74 77
f 4 77 76
f 4 76 82
f 4 82 81
f 4 81 86
f 4 86 88
f 4 88 87
f 4 87 84
f 4 84 79
f 4 79 73
f 4 73 72
f 4 72 67
f 4 67 66
f 4 66 64
f 4 64 59
f 4 59 55
f 4 55 50
f 4 50 44
f 4 44 40
f 4 40 35
f 4 35 34
f 4 34 33
f 4 33 29
f 4 29 25
f 4 25 21
f 4 21 17
f 4 17 15
f 4 15 11
f 4 11 6
f 4 6 5
f 4 8 10
f 4 10 9
f 6 11 7
f 7 11 12
f 9 10 13
f 10 14 13
f 11 15 12
f 12 15 17
f 12 17 16
f 13 14 18
f 14 19 18
f 16 17 20
f 17 21 20
f 18 19 22
f 19 23 22
f 20 21 25
f 20 25 24
f 22 23 27
f 22 27 26
f 24 25 29
f 24 29 28
f 26 27 30
f 27 31 30
f 28 29 33
f 28 33 34
f 28 34 35
f 28 35 32
f 30 31 36
f 31 37 38
f 31 38 36
f 32 35 39
f 35 40 41
f 35 41 39
f 37 42 43
f 37 43 38
f 40 44 45
f 40 45 46
f 40 46 47
f 40 47 41
f 42 48 49
f 42 49 43
f 44 50 51
f 44 51 45
f 48 52 49
f 49 52 54
f 49 54 53
f 50 55 56
f 50 56 51
f 53 54 57
f 54 58 57
f 55 59 56
f 56 59 60
f 57 58 62
f 57 62 63
f 57 63 61
f 59 64 60
f 60 64 66
f 60 66 67
f 60 67 65
f 61 63 69
f 61 69 70
f 61 70 68
f 65 67 72
f 65 72 73
f 65 73 71
f 68 70 74
f 70 75 76
f 70 76 77
f 70 77 74
f 71 73 79
f 71 79 78
f 75 80 81
f 75 81 82
f 75 82 76
f 78 79 84
f 78 84 87
f 78 87 83
f 80 85 86
f 80 86 81
f 83 87 85
f 85 87 88
f 85 88 86
