# https://github.com/mikedh/trimesh
v 0.07369438 -0.16554470 0.01077910
v 0.08449263 -0.15554791 0.01071157
v 0.07369845 -0.15554791 0.01071157
v 0.07369438 -0.15555195 0.01071157
v 0.07369438 -0.18281445 0.01077910
v 0.08585361 -0.15554791 0.01059762
v 0.08449263 -0.18497165 0.01071157
v 0.07369438 -0.15554791 0.00948130
v 0.07369438 -0.18497165 0.01077488
v 0.08665024 -0.15554791 0.01053009
v 0.08665024 -0.18497165 0.01053009
v 0.07369438 -0.18531567 0.01077066
v 0.08449263 -0.18713289 0.01060395
v 0.07369438 -0.15554791 -0.01071157
v 0.08801123 -0.15554791 0.01019668
v 0.08665024 -0.18713289 0.01040981
v 0.08880989 -0.18497165 0.01000042
v 0.07369438 -0.18689815 0.01064827
v 0.07369438 -0.18697101 0.01064194
v 0.08449263 -0.18929010 0.01016502
v 0.08665024 -0.18929010 0.00999831
v 0.08449263 -0.15554791 -0.01071157
v 0.07369438 -0.16554470 -0.01077910
v 0.08880989 -0.15554791 0.01000042
v 0.08880989 -0.18713289 0.00987381
v 0.09047037 -0.18713289 0.00908458
v 0.09050909 -0.18497165 0.00914367
v 0.08988156 -0.15554791 0.00946020
v 0.08233501 -0.18929010 0.01016502
v 0.07369438 -0.18929414 0.01015658
v 0.07369438 -0.19145539 0.00928505
v 0.08017536 -0.19145135 0.00926184
v 0.08233501 -0.19145135 0.00925340
v 0.08449263 -0.19145135 0.00924496
v 0.08646687 -0.19159300 0.00906770
v 0.08880989 -0.19082402 0.00887567
v 0.08880989 -0.18929010 0.00943066
v 0.08665024 -0.15554791 -0.01053009
v 0.08449263 -0.18497165 -0.01071157
v 0.07369438 -0.18281445 -0.01077910
v 0.09016273 -0.18929010 0.00883346
v 0.09124255 -0.18929010 0.00792395
v 0.09154816 -0.18713289 0.00810754
v 0.09158891 -0.18497165 0.00816241
v 0.09050909 -0.15554791 0.00914367
v 0.07369438 -0.19258054 0.00867519
v 0.08233501 -0.19255221 0.00865198
v 0.08449263 -0.19254411 0.00864565
v 0.08562542 -0.19253602 0.00864143
v 0.08706383 -0.19241055 0.00855913
v 0.08880989 -0.19190464 0.00825737
v 0.08989379 -0.19037477 0.00863721
v 0.08880989 -0.15554791 -0.01000042
v 0.08665024 -0.18497165 -0.01053009
v 0.08449263 -0.18713289 -0.01060606
v 0.07369438 -0.18497165 -0.01077488
v 0.07369438 -0.18423909 -0.01077699
v 0.09216142 -0.19061356 0.00663459
v 0.09233053 -0.18929010 0.00684351
v 0.09247926 -0.18713289 0.00702921
v 0.09250778 -0.18497165 0.00708196
v 0.09158891 -0.15554791 0.00816030
v 0.07369438 -0.19350332 0.00755255
v 0.08529333 -0.19469727 0.00648688
v 0.08576193 -0.19469727 0.00648688
v 0.08720238 -0.19466084 0.00643834
v 0.08880989 -0.19331309 0.00717903
v 0.09027071 -0.19288408 0.00676754
v 0.09080247 -0.19121256 0.00742171
v 0.08943945 -0.15554791 -0.00968389
v 0.08880989 -0.18497165 -0.01000042
v 0.08665024 -0.18713289 -0.01041192
v 0.07369438 -0.18704790 -0.01063350
v 0.07369438 -0.18697505 -0.01064827
v 0.08665024 -0.18929010 -0.01000042
v 0.08449263 -0.18929010 -0.01016502
v 0.09171116 -0.19205034 0.00613447
v 0.09230608 -0.19284766 0.00469317
v 0.09256890 -0.19137850 0.00540643
v 0.09315975 -0.18929010 0.00539588
v 0.09338794 -0.18713289 0.00539588
v 0.09341035 -0.18497165 0.00539588
v 0.09249963 -0.15554791 0.00708196
v 0.09216346 -0.15554791 0.00748080
v 0.07369438 -0.19453538 0.00626108
v 0.07369438 -0.19532460 0.00517853
v 0.07585810 -0.19533674 0.00522284
v 0.08017536 -0.19536102 0.00530303
v 0.08233501 -0.19536912 0.00534524
v 0.08454152 -0.19523961 0.00560057
v 0.08655041 -0.19520723 0.00559002
v 0.08880989 -0.19514651 0.00506457
v 0.08880989 -0.19439372 0.00614502
v 0.09017699 -0.19489963 0.00463409
v 0.09094305 -0.19358426 0.00538322
v 0.09050909 -0.15554791 -0.00914367
v 0.09050909 -0.18497165 -0.00914367
v 0.09047037 -0.18713289 -0.00908458
v 0.08880989 -0.18713289 -0.00987381
v 0.07369438 -0.18929010 -0.01016502
v 0.08880989 -0.18929010 -0.00943277
v 0.08880989 -0.19082807 -0.00887778
v 0.08646076 -0.19159705 -0.00906770
v 0.08449263 -0.19145135 -0.00924285
v 0.08233501 -0.19145135 -0.00925340
v 0.08017536 -0.19145135 -0.00926184
v 0.07369438 -0.19145135 -0.00928716
v 0.09164188 -0.19431277 0.00323711
v 0.09261984 -0.19323215 0.00323711
v 0.09352852 -0.19145135 0.00323711
v 0.09400527 -0.18948032 0.00319701
v 0.09403787 -0.18713289 0.00365071
v 0.09339813 -0.15554791 0.00539588
v 0.07369438 -0.19627166 0.00323078
v 0.07369845 -0.19627166 0.00323711
v 0.07585810 -0.19629594 0.00323711
v 0.08017536 -0.19633237 0.00323711
v 0.08233501 -0.19634856 0.00323711
v 0.08449263 -0.19636070 0.00323711
v 0.08665024 -0.19630809 0.00323711
v 0.08880989 -0.19594788 0.00323711
v 0.09056206 -0.19516675 0.00323711
v 0.09090842 -0.15554791 -0.00878071
v 0.09158891 -0.18497165 -0.00816030
v 0.09154816 -0.18713289 -0.00810332
v 0.09124255 -0.18929010 -0.00791973
v 0.09016273 -0.18929010 -0.00883346
v 0.08989583 -0.19037882 -0.00863721
v 0.08880989 -0.19190464 -0.00825948
v 0.08705568 -0.19241055 -0.00856124
v 0.08561524 -0.19253602 -0.00863932
v 0.08449263 -0.19254411 -0.00864565
v 0.07369438 -0.19258459 -0.00867941
v 0.09193934 -0.19458799 0.00158268
v 0.09398082 -0.19136635 0.00126192
v 0.09270337 -0.19376234 0.00094961
v 0.09420290 -0.19032620 0.00210391
v 0.09428032 -0.18888537 0.00244999
v 0.09430681 -0.18713289 0.00257027
v 0.09402565 -0.15554791 0.00353043
v 0.07369438 -0.19659139 0.00107200
v 0.07369845 -0.19659139 0.00107833
v 0.08449263 -0.19675733 0.00136110
v 0.08665024 -0.19674519 0.00140964
v 0.08780137 -0.19686661 0.00013295
v 0.08863671 -0.19652259 0.00094328
v 0.09111827 -0.19528817 0.00094961
v 0.09158891 -0.15554791 -0.00816030
v 0.09250371 -0.18497165 -0.00708196
v 0.09247111 -0.18713289 -0.00702499
v 0.09232645 -0.18929010 -0.00684140
v 0.09215938 -0.19061356 -0.00663459
v 0.09080247 -0.19121256 -0.00742171
v 0.09027275 -0.19288408 -0.00676965
v 0.08880989 -0.19331715 -0.00718114
v 0.08739593 -0.19466489 -0.00644045
v 0.08449263 -0.19362069 -0.00760741
v 0.08595548 -0.19471346 -0.00650798
v 0.08449263 -0.19472965 -0.00652697
v 0.07369438 -0.19366116 -0.00763907
v 0.09207381 -0.19471751 0.00014350
v 0.09398082 -0.19136635 -0.00126825
v 0.09427217 -0.19058928 0.00066473
v 0.09270337 -0.19376234 -0.00094961
v 0.09436997 -0.18948032 0.00126192
v 0.09450648 -0.18713289 0.00107833
v 0.09446980 -0.15554791 0.00107833
v 0.09439646 -0.15554791 0.00158690
v 0.09427014 -0.15554791 0.00245210
v 0.09418049 -0.15554791 0.00285093
v 0.07369438 -0.19663186 -0.00108255
v 0.08449263 -0.19688280 0.00028066
v 0.08665024 -0.19689090 0.00032920
v 0.08780137 -0.19686661 -0.00012872
v 0.08863671 -0.19651854 -0.00094117
v 0.09111827 -0.19528817 -0.00094961
v 0.09249963 -0.15554791 -0.00708196
v 0.09341850 -0.18497165 -0.00539588
v 0.09339609 -0.18713289 -0.00539588
v 0.09316383 -0.18929010 -0.00539588
v 0.09256890 -0.19137850 -0.00540643
v 0.09230608 -0.19284766 -0.00469528
v 0.09171116 -0.19205034 -0.00613447
v 0.09094305 -0.19358831 -0.00538322
v 0.09017495 -0.19489963 -0.00463198
v 0.08880989 -0.19439776 -0.00614713
v 0.08880989 -0.19514651 -0.00506668
v 0.08666654 -0.19521532 -0.00559213
v 0.08449263 -0.19540554 -0.00539588
v 0.07369438 -0.19475798 -0.00655862
v 0.09207381 -0.19471751 -0.00014350
v 0.09427217 -0.19058928 -0.00067528
v 0.09261984 -0.19323215 -0.00323711
v 0.09352852 -0.19145135 -0.00323711
v 0.09420290 -0.19033430 -0.00211446
v 0.09436997 -0.18948437 -0.00126825
v 0.09193934 -0.19458799 -0.00158268
v 0.09450648 -0.18713289 -0.00107833
v 0.09446980 -0.15554791 -0.00107833
v 0.08449263 -0.19679376 -0.00144973
v 0.08449263 -0.19688280 -0.00036929
v 0.07369438 -0.19634856 -0.00324133
v 0.08665024 -0.19689090 -0.00038406
v 0.08665024 -0.19675733 -0.00146451
v 0.08880989 -0.19593978 -0.00323711
v 0.09056206 -0.19516270 -0.00323711
v 0.09339813 -0.15554791 -0.00539588
v 0.09405214 -0.18713289 -0.00367182
v 0.09401139 -0.18948437 -0.00320545
v 0.09163984 -0.19431277 -0.00323711
v 0.08665024 -0.19631618 -0.00323711
v 0.08449263 -0.19638903 -0.00323711
v 0.08233501 -0.19541363 -0.00539588
v 0.07801775 -0.19542173 -0.00539588
v 0.07585810 -0.19542578 -0.00539588
v 0.07369438 -0.19542578 -0.00540010
v 0.09428032 -0.18889347 -0.00246265
v 0.09430681 -0.18713289 -0.00259348
v 0.09434552 -0.15554791 -0.00194353
v 0.07585810 -0.19637689 -0.00323711
v 0.08017536 -0.19638499 -0.00323711
v 0.08233501 -0.19638903 -0.00323711
v 0.09363039 -0.15554791 -0.00470583
v 0.09402565 -0.15554791 -0.00353043
v 0.09411733 -0.15554791 -0.00313160
v 0.09427014 -0.15554791 -0.00245210
f 1 2 3
f 1 3 4
f 1 4 8
f 1 8 14
f 1 14 23
f 1 23 40
f 1 40 57
f 1 57 56
f 1 56 74
f 1 74 73
f 1 73 100
f 1 100 107
f 1 107 133
f 1 133 160
f 1 160 190
f 1 190 216
f 1 216 202
f 1 202 171
f 1 171 141
f 1 141 114
f 1 114 86
f 1 86 85
f 1 85 63
f 1 63 46
f 1 46 31
f 1 31 30
f 1 30 19
f 1 19 18
f 1 18 12
f 1 12 9
f 1 9 5
f 1 5 7
f 1 7 2
f 2 6 10
f 2 10 15
f 2 15 24
f 2 24 28
f 2 28 45
f 2 45 62
f 2 62 84
f 2 84 83
f 2 83 113
f 2 113 140
f 2 140 170
f 2 170 169
f 2 169 168
f 2 168 167
f 2 167 199
f 2 199 219
f 2 219 226
f 2 226 225
f 2 225 224
f 2 224 223
f 2 223 207
f 2 207 177
f 2 177 148
f 2 148 123
f 2 123 96
f 2 96 70
f 2 70 53
f 2 53 38
f 2 38 22
f 2 22 14
f 2 14 8
f 2 8 3
f 2 7 6
f 3 8 4
f 5 9 7
f 6 7 11
f 6 11 10
f 7 9 12
f 7 12 13
f 7 13 11
f 10 11 15
f 11 13 16
f 11 16 17
f 11 17 15
f 12 18 13
f 13 18 19
f 13 19 20
f 13 20 21
f 13 21 16
f 14 22 23
f 15 17 24
f 16 21 25
f 16 25 17
f 17 25 26
f 17 26 27
f 17 27 28
f 17 28 24
f 19 29 20
f 19 30 29
f 20 29 31
f 20 31 32
f 20 32 33
f 20 33 34
f 20 34 35
f 20 35 21
f 21 35 36
f 21 36 37
f 21 37 25
f 22 38 54
f 22 54 39
f 22 39 40
f 22 40 23
f 25 37 41
f 25 41 26
f 26 41 42
f 26 42 43
f 26 43 27
f 27 43 44
f 27 44 45
f 27 45 28
f 29 30 31
f 31 46 34
f 31 34 33
f 31 33 32
f 34 46 47
f 34 47 48
f 34 48 49
f 34 49 35
f 35 49 50
f 35 50 36
f 36 50 51
f 36 51 52
f 36 52 37
f 37 52 41
f 38 53 71
f 38 71 54
f 39 54 55
f 39 55 56
f 39 56 57
f 39 57 40
f 41 52 58
f 41 58 42
f 42 58 59
f 42 59 43
f 43 59 60
f 43 60 44
f 44 60 61
f 44 61 62
f 44 62 45
f 46 63 64
f 46 64 65
f 46 65 47
f 47 65 48
f 48 65 49
f 49 65 66
f 49 66 50
f 50 67 51
f 50 66 67
f 51 67 68
f 51 68 52
f 52 68 69
f 52 69 58
f 53 70 71
f 54 71 72
f 54 72 55
f 55 73 74
f 55 74 56
f 55 72 75
f 55 75 76
f 55 76 73
f 58 69 77
f 58 77 78
f 58 78 79
f 58 79 80
f 58 80 59
f 59 80 60
f 60 81 61
f 60 80 81
f 61 81 82
f 61 82 83
f 61 83 84
f 61 84 62
f 63 85 64
f 64 85 86
f 64 86 87
f 64 87 88
f 64 88 89
f 64 89 90
f 64 90 65
f 65 90 91
f 65 91 66
f 66 91 92
f 66 92 93
f 66 93 67
f 67 93 68
f 68 93 94
f 68 94 95
f 68 95 77
f 68 77 69
f 70 96 97
f 70 97 71
f 71 97 98
f 71 98 99
f 71 99 72
f 72 99 75
f 73 76 100
f 75 99 101
f 75 101 102
f 75 102 103
f 75 103 76
f 76 103 104
f 76 104 105
f 76 105 106
f 76 106 107
f 76 107 100
f 77 95 78
f 78 95 94
f 78 94 108
f 78 108 109
f 78 109 110
f 78 110 79
f 79 110 80
f 80 110 111
f 80 111 81
f 81 112 82
f 81 111 112
f 82 112 113
f 82 113 83
f 86 114 115
f 86 115 87
f 87 115 88
f 88 115 89
f 89 115 116
f 89 116 117
f 89 117 118
f 89 118 119
f 89 119 90
f 90 119 91
f 91 119 120
f 91 120 92
f 92 94 93
f 92 120 121
f 92 121 94
f 94 121 122
f 94 122 108
f 96 123 97
f 97 124 125
f 97 125 98
f 97 123 124
f 98 125 126
f 98 126 127
f 98 127 99
f 99 127 101
f 101 127 128
f 101 128 102
f 102 128 129
f 102 129 130
f 102 130 103
f 103 130 131
f 103 131 104
f 104 131 132
f 104 132 133
f 104 133 105
f 105 133 106
f 106 133 107
f 108 122 134
f 108 134 109
f 109 135 110
f 109 134 136
f 109 136 135
f 110 135 137
f 110 137 111
f 111 137 138
f 111 138 112
f 112 138 139
f 112 139 140
f 112 140 113
f 114 141 142
f 114 142 115
f 115 142 143
f 115 143 116
f 116 143 117
f 117 143 118
f 118 143 119
f 119 143 144
f 119 144 120
f 120 144 145
f 120 145 121
f 121 145 146
f 121 146 122
f 122 147 134
f 122 146 147
f 123 148 124
f 124 149 150
f 124 150 125
f 124 148 149
f 125 150 151
f 125 151 126
f 126 151 152
f 126 152 127
f 127 152 128
f 128 152 153
f 128 153 154
f 128 154 129
f 129 154 155
f 129 155 130
f 130 155 156
f 130 156 131
f 131 157 132
f 131 156 158
f 131 158 159
f 131 159 157
f 132 157 133
f 133 157 160
f 134 161 136
f 134 147 161
f 135 162 192
f 135 192 163
f 135 163 137
f 135 136 164
f 135 164 162
f 136 161 191
f 136 191 164
f 137 165 138
f 137 163 165
f 138 166 139
f 138 165 166
f 139 166 167
f 139 167 168
f 139 168 169
f 139 169 170
f 139 170 140
f 141 171 142
f 142 171 172
f 142 172 143
f 143 172 173
f 143 173 144
f 144 173 145
f 145 173 203
f 145 203 174
f 145 174 146
f 146 174 175
f 146 175 176
f 146 176 147
f 147 176 191
f 147 191 161
f 148 177 149
f 149 178 179
f 149 179 150
f 149 177 178
f 150 179 180
f 150 180 151
f 151 180 152
f 152 181 182
f 152 182 183
f 152 183 153
f 152 180 181
f 153 183 154
f 154 184 185
f 154 185 186
f 154 186 155
f 154 183 184
f 155 186 156
f 156 186 187
f 156 187 188
f 156 188 158
f 157 159 160
f 158 188 189
f 158 189 159
f 159 189 190
f 159 190 160
f 162 164 193
f 162 193 194
f 162 194 195
f 162 195 192
f 163 192 196
f 163 196 165
f 164 191 197
f 164 197 193
f 165 196 166
f 166 196 198
f 166 198 199
f 166 199 167
f 171 200 201
f 171 201 172
f 171 202 200
f 172 201 203
f 172 203 173
f 174 203 204
f 174 204 205
f 174 205 175
f 175 205 206
f 175 206 176
f 176 206 197
f 176 197 191
f 177 207 178
f 178 208 179
f 178 207 208
f 179 208 209
f 179 209 180
f 180 209 194
f 180 194 181
f 181 194 182
f 182 193 210
f 182 210 185
f 182 185 184
f 182 184 183
f 182 194 193
f 185 206 205
f 185 205 187
f 185 187 186
f 185 210 206
f 187 205 211
f 187 211 188
f 188 211 189
f 189 211 212
f 189 212 213
f 189 213 190
f 190 213 214
f 190 214 215
f 190 215 216
f 192 195 196
f 193 197 210
f 194 209 195
f 195 209 217
f 195 217 196
f 196 217 198
f 197 206 210
f 198 217 218
f 198 218 199
f 199 218 219
f 200 204 203
f 200 203 201
f 200 202 220
f 200 220 221
f 200 221 222
f 200 222 212
f 200 212 204
f 202 216 220
f 204 212 211
f 204 211 205
f 207 223 208
f 208 218 217
f 208 217 209
f 208 223 224
f 208 224 218
f 212 222 216
f 212 216 215
f 212 215 214
f 212 214 213
f 216 222 221
f 216 221 220
f 218 224 225
f 218 225 226
f 218 226 219
