# https://github.com/mikedh/trimesh
v 0.06290110 0.00069724 0.02012615
v 0.06074470 0.00069724 0.02010251
v 0.05858617 -0.00146302 0.02006704
v 0.06074470 -0.00146302 0.02008280
v 0.06290110 -0.00146302 0.02009069
v 0.06722029 -0.00146302 0.02007098
v 0.06722029 0.00069724 0.02009463
v 0.06722029 0.00285750 0.01989366
v 0.05858617 0.00069724 0.02003552
v 0.06722029 0.00447441 0.01960206
v 0.05700722 -0.00146302 0.01974392
v 0.05719473 -0.00361889 0.01960206
v 0.05737159 -0.00490278 0.01949566
v 0.05858617 -0.00361889 0.01977544
v 0.06074470 -0.00361889 0.01977938
v 0.06290110 -0.00361889 0.01977544
v 0.06506176 -0.00361889 0.01976756
v 0.06722029 -0.00361889 0.01975574
v 0.06937669 -0.00365395 0.01960206
v 0.06937882 -0.00146302 0.01987396
v 0.06937882 0.00069724 0.01990942
v 0.06956846 0.00302839 0.01968481
v 0.06897396 0.00437363 0.01956265
v 0.05858617 0.00253324 0.01964934
v 0.05727997 0.00224842 0.01955477
v 0.05704771 0.00069724 0.01971633
v 0.06722029 0.00555234 0.01924347
v 0.05858617 0.00933390 0.01769482
v 0.05858617 0.00717364 0.01837654
v 0.05627634 0.00069724 0.01834896
v 0.05623586 -0.00146302 0.01834896
v 0.05642337 -0.00361889 0.01834896
v 0.05681118 -0.00568275 0.01845929
v 0.05685806 -0.00793503 0.01785639
v 0.05715212 -0.00942048 0.01750962
v 0.05858617 -0.00793503 0.01845535
v 0.05858617 -0.00608588 0.01916466
v 0.05858617 -0.00500795 0.01952719
v 0.06074470 -0.00499918 0.01951931
v 0.06722029 -0.00494660 0.01948778
v 0.06865434 -0.00486772 0.01946808
v 0.07009478 -0.00439887 0.01925923
v 0.07052095 -0.00296161 0.01949566
v 0.07056996 -0.00146302 0.01955083
v 0.07058913 0.00069724 0.01957447
v 0.07054652 0.00242808 0.01953113
v 0.07041227 0.00386533 0.01938533
v 0.06937882 0.00717364 0.01842777
v 0.06937882 0.00911480 0.01767512
v 0.06722029 0.00717364 0.01867208
v 0.05748239 0.01042936 0.01728107
v 0.05719900 0.00933390 0.01747809
v 0.05684741 0.00717364 0.01781304
v 0.05192093 0.00285750 0.01001861
v 0.05192093 0.00266908 0.01003831
v 0.05192093 0.00069724 0.01024322
v 0.05192093 -0.00146302 0.01024716
v 0.05192093 -0.00165144 0.01020381
v 0.05192093 -0.00361889 0.00974671
v 0.05671956 -0.01012158 0.01626046
v 0.05192093 -0.00512187 0.00894283
v 0.05858617 -0.00964396 0.01763966
v 0.05706262 -0.01165085 0.01558662
v 0.06937882 -0.02466499 0.01043237
v 0.06074470 -0.00793503 0.01847112
v 0.07153735 -0.02466499 0.01071215
v 0.06074470 -0.00607712 0.01917648
v 0.06290110 -0.00605521 0.01919224
v 0.06722029 -0.00602454 0.01921194
v 0.06722029 -0.00793503 0.01847112
v 0.06937882 -0.00793503 0.01815587
v 0.07054225 -0.00920577 0.01737958
v 0.07368736 -0.02466499 0.01071215
v 0.07368736 0.00501338 0.01077914
v 0.07368736 0.00717364 0.01077520
v 0.07368736 0.00917615 0.01064910
v 0.07368736 -0.01225117 0.01077914
v 0.07368736 0.01148101 0.01016835
v 0.07058061 0.00869853 0.01744263
v 0.06722029 0.00930761 0.01777758
v 0.06937882 0.01019712 0.01706828
v 0.06722029 0.01038554 0.01725742
v 0.05858617 0.01043374 0.01728501
v 0.06722029 0.01292264 0.01540142
v 0.06506176 0.01285691 0.01537777
v 0.05749305 0.01689699 0.01080278
v 0.05718195 0.01559996 0.01166182
v 0.05717555 0.01128383 0.01598068
v 0.05642763 0.00933390 0.01618953
v 0.05192093 0.00474170 0.00921473
v 0.05192093 -0.00619981 0.00815866
v 0.05192093 -0.00762830 0.00707895
v 0.05666416 -0.01232128 0.01410103
v 0.06992432 -0.02466499 0.01050330
v 0.05706262 -0.01597137 0.01126777
v 0.06768694 -0.02466499 0.00939600
v 0.06937882 -0.00949497 0.01752144
v 0.07368736 -0.02466499 -0.00925862
v 0.07368736 0.01365003 0.00928960
v 0.07368736 0.01478056 0.00867882
v 0.07049325 0.01262906 0.01515710
v 0.06211482 0.01041622 0.01727318
v 0.06074470 0.01042498 0.01727712
v 0.06937882 0.01280433 0.01529108
v 0.06722029 0.01148978 0.01646537
v 0.06937882 0.01388227 0.01429806
v 0.06722029 0.01400058 0.01432958
v 0.05858617 0.01690576 0.01081066
v 0.05858617 0.01753674 0.00971518
v 0.05801084 0.01904849 0.00647210
v 0.05714359 0.01720810 0.00971518
v 0.06722029 0.01497336 0.01324987
v 0.05637223 0.01581029 0.00971518
v 0.05634027 0.01365003 0.01187067
v 0.05634027 0.01148978 0.01403010
v 0.05192093 0.00834797 0.00657062
v 0.05192093 0.00717364 0.00745330
v 0.05192093 0.00572762 0.00850149
v 0.05192093 -0.00870624 0.00605046
v 0.05666416 -0.01448154 0.01194160
v 0.05681118 -0.01664180 0.00966396
v 0.05730767 -0.01775917 0.00891131
v 0.05704771 -0.01795636 0.00755576
v 0.05725013 -0.01995010 0.00058490
v 0.06701573 -0.02466499 0.00755576
v 0.07315252 -0.02466499 -0.01070875
v 0.07368736 -0.02465622 -0.01070875
v 0.07368736 0.01571389 0.00755576
v 0.07052308 0.01481561 0.01305284
v 0.06937882 0.01495145 0.01321834
v 0.06722029 0.01695834 0.01088159
v 0.06722029 0.01758057 0.00971518
v 0.06074470 0.01860154 0.00755970
v 0.05867353 0.01868918 0.00733903
v 0.05716916 0.01925882 0.00503380
v 0.06290110 0.01905287 0.00648392
v 0.05867353 0.01929826 0.00560912
v 0.05858617 0.01981970 0.00323690
v 0.05676857 0.01774269 0.00755576
v 0.06862664 0.01694519 0.01087371
v 0.05192093 0.00893076 0.00539633
v 0.05192093 -0.00876320 0.00595589
v 0.05627421 -0.01657169 0.00755576
v 0.05192093 -0.00935037 0.00497075
v 0.05681971 -0.01824556 0.00539633
v 0.05646599 -0.01873195 -0.00107802
v 0.05723735 -0.01995448 -0.00107802
v 0.06695820 -0.02466499 0.00539633
v 0.05192093 -0.01054662 0.00107747
v 0.06722029 -0.00793503 -0.01845984
v 0.07153735 -0.02466499 -0.01070875
v 0.07368736 -0.01225117 -0.01077574
v 0.06937882 -0.00949497 -0.01752199
v 0.06937882 -0.00793503 -0.01815642
v 0.07054225 -0.00920577 -0.01738013
v 0.07009265 -0.00439887 -0.01925977
v 0.07052095 -0.00296161 -0.01949621
v 0.07056996 -0.00146302 -0.01955137
v 0.07058913 0.00069724 -0.01957502
v 0.07368736 0.01673925 0.00627901
v 0.07368736 0.01752360 0.00519142
v 0.07006708 0.01666913 0.01057029
v 0.06834111 0.01905287 0.00648786
v 0.06722029 0.01859278 0.00757152
v 0.06722029 0.01905726 0.00649180
v 0.05858617 0.02009576 0.00107747
v 0.05693690 0.01943409 0.00323690
v 0.06074470 0.01935961 0.00539633
v 0.06722029 0.01935961 0.00539633
v 0.06290110 0.01981531 0.00323690
v 0.06722029 0.02009576 0.00107747
v 0.05616554 0.01796617 0.00323690
v 0.05192093 0.00977208 0.00323690
v 0.05192093 0.00970197 0.00342211
v 0.06935965 0.01730012 0.00979794
v 0.06918918 0.01849199 0.00734691
v 0.05192093 -0.00941172 0.00482101
v 0.05192093 -0.01003394 0.00323690
v 0.05675578 -0.01849532 -0.00539687
v 0.05192093 -0.01041516 -0.00107802
v 0.05740355 -0.01985808 -0.00253603
v 0.06701999 -0.02466499 -0.00755630
v 0.06696459 -0.02466499 -0.00539687
v 0.06696033 -0.02466499 -0.00484914
v 0.06695820 -0.02466499 -0.00269365
v 0.06290110 -0.00970092 -0.01763232
v 0.06074470 -0.00968340 -0.01763232
v 0.06506176 -0.00793503 -0.01842831
v 0.06722029 -0.00597196 -0.01920066
v 0.06865221 -0.00486772 -0.01946862
v 0.07099399 -0.02466499 -0.01064176
v 0.05858617 -0.00963520 -0.01760474
v 0.07368736 0.00717364 -0.01077574
v 0.06937456 -0.00365395 -0.01959866
v 0.06937882 -0.00146302 -0.01987056
v 0.06937882 0.00069724 -0.01990997
v 0.07054865 0.00242808 -0.01953167
v 0.07368736 0.00917177 -0.01064176
v 0.07368736 0.00751981 -0.01076786
v 0.07368736 0.01850075 0.00323690
v 0.07062536 0.01710294 0.00913198
v 0.06978155 0.01893018 0.00611351
v 0.06918918 0.01922814 0.00539239
v 0.06290110 0.02009576 -0.00107802
v 0.06074470 0.02006947 -0.00107802
v 0.05858617 0.02001250 -0.00107802
v 0.05689216 0.01951296 -0.00107802
v 0.05683462 0.01957432 0.00107747
v 0.05192093 0.01056520 0.00056126
v 0.05192093 0.01054329 0.00065583
v 0.06722029 0.01980655 0.00323690
v 0.06506176 0.01981094 0.00323690
v 0.06722029 0.02009576 -0.00107802
v 0.06937882 0.01964443 0.00323690
v 0.06937882 0.01992049 0.00107747
v 0.05192093 0.01026723 0.00164097
v 0.05192093 0.01022780 0.00177889
v 0.05693690 -0.01812725 -0.00755630
v 0.05192093 -0.01036258 -0.00126322
v 0.05192093 -0.00977979 -0.00323745
v 0.06768694 -0.02466499 -0.00939654
v 0.06290110 -0.00793503 -0.01838103
v 0.06492113 -0.00561264 -0.01920855
v 0.06554759 -0.00478885 -0.01945286
v 0.06722029 -0.00489401 -0.01947650
v 0.06074470 -0.00793503 -0.01832192
v 0.05858617 -0.00793503 -0.01823129
v 0.06722029 -0.00361889 -0.01972870
v 0.06722029 -0.00146302 -0.02005971
v 0.06937882 -0.02466499 -0.01043291
v 0.05858617 -0.01071751 -0.01694272
v 0.05718195 -0.00940296 -0.01747470
v 0.06722029 0.00069724 -0.02009123
v 0.06722029 0.00285750 -0.01990997
v 0.06956634 0.00302839 -0.01968535
v 0.07041227 0.00386533 -0.01938193
v 0.07368736 0.01148978 -0.01015707
v 0.07368736 0.01882063 0.00108929
v 0.07095564 0.01926758 0.00323690
v 0.07063388 0.01914051 0.00467126
v 0.06722029 0.01980655 -0.00323745
v 0.06506176 0.01977588 -0.00323745
v 0.06290110 0.01971454 -0.00323745
v 0.06074470 0.01962251 -0.00323745
v 0.05858617 0.01949982 -0.00323745
v 0.05744191 0.01907916 -0.00443538
v 0.05719686 0.01924129 -0.00323745
v 0.05192093 0.01056520 -0.00097950
v 0.05678135 0.01757618 -0.00755630
v 0.05192093 0.01039869 -0.00205922
v 0.06937882 0.01992049 -0.00107802
v 0.06937882 0.01964443 -0.00323745
v 0.05192093 -0.00922330 -0.00485308
v 0.05616341 -0.01657169 -0.00755630
v 0.05676644 -0.01664617 -0.00970391
v 0.05723309 -0.01782051 -0.00897885
v 0.06895266 -0.02466499 -0.01017284
v 0.05706049 -0.01597137 -0.01127619
v 0.05706049 -0.01381549 -0.01343562
v 0.05706049 -0.01165523 -0.01559505
v 0.06410928 -0.00467493 -0.01942528
v 0.06290110 -0.00577477 -0.01906275
v 0.05858617 -0.00146302 -0.01994149
v 0.06074470 -0.00146302 -0.02000848
v 0.05738225 -0.00277758 -0.01949227
v 0.05858617 -0.00301420 -0.01955532
v 0.06290110 -0.00146302 -0.02003607
v 0.06074470 0.00069724 -0.02013064
v 0.06290110 0.00069724 -0.02012276
v 0.05691133 -0.00793503 -0.01771901
v 0.05673660 -0.01011282 -0.01626494
v 0.06722029 0.00457957 -0.01962231
v 0.06897396 0.00437363 -0.01955926
v 0.06290110 0.00285750 -0.01990602
v 0.06937882 0.00717364 -0.01842437
v 0.06937882 0.00911480 -0.01767567
v 0.07058061 0.00869415 -0.01744318
v 0.07368736 0.01365003 -0.00928621
v 0.07368736 0.01882063 0.00107747
v 0.06918918 0.01922814 -0.00539293
v 0.06722029 0.01935961 -0.00539687
v 0.06522370 0.01927196 -0.00554662
v 0.06290110 0.01925882 -0.00510921
v 0.06290110 0.01896962 -0.00618893
v 0.06074470 0.01890389 -0.00594461
v 0.05858617 0.01912737 -0.00462058
v 0.05858617 0.01833425 -0.00755630
v 0.05748239 0.01690137 -0.01080727
v 0.05714786 0.01717305 -0.00971179
v 0.05637649 0.01581029 -0.00971179
v 0.05192093 0.00906660 -0.00539687
v 0.05192093 0.01003499 -0.00323745
v 0.07368736 0.01879434 -0.00107802
v 0.07094498 0.01926321 -0.00323745
v 0.07063388 0.01914051 -0.00467181
v 0.05192093 -0.00917948 -0.00494765
v 0.05192093 -0.00870624 -0.00593279
v 0.05666203 -0.01448592 -0.01194609
v 0.05666203 -0.01232566 -0.01410552
v 0.06074470 -0.00323767 -0.01961048
v 0.05712868 -0.00146302 -0.01966565
v 0.05858617 0.00069724 -0.02011093
v 0.05858617 0.00285750 -0.01988238
v 0.06074470 0.00285750 -0.01989815
v 0.05613997 -0.00793503 -0.01619007
v 0.05192093 -0.00361889 -0.00974725
v 0.05635732 -0.00146302 -0.01834950
v 0.05192093 -0.00762830 -0.00707949
v 0.05192093 -0.00619981 -0.00815921
v 0.05192093 -0.00610779 -0.00822620
v 0.05192093 -0.00512187 -0.00894338
v 0.06074470 0.00566628 -0.01931494
v 0.06722029 0.00566190 -0.01929130
v 0.06074470 0.00458834 -0.01959472
v 0.05858617 0.00566190 -0.01931100
v 0.06722029 0.00717364 -0.01875932
v 0.06722029 0.00930761 -0.01781753
v 0.06722029 0.01038992 -0.01725797
v 0.06937882 0.01019274 -0.01706882
v 0.07049325 0.01262906 -0.01515765
v 0.07368736 0.01478056 -0.00867936
v 0.06978155 0.01893018 -0.00611012
v 0.06834111 0.01905287 -0.00648841
v 0.06722029 0.01905287 -0.00649235
v 0.06605046 0.01905287 -0.00648447
v 0.06461215 0.01901782 -0.00636625
v 0.06074470 0.01844817 -0.00755630
v 0.05858617 0.01751045 -0.00971179
v 0.05858617 0.01692766 -0.01083879
v 0.06506176 0.01501279 -0.01327012
v 0.06290110 0.01496459 -0.01319919
v 0.06290110 0.01389980 -0.01427890
v 0.06074470 0.01488572 -0.01310856
v 0.05858617 0.01479808 -0.01302186
v 0.05748239 0.01474550 -0.01296669
v 0.05716916 0.01560434 -0.01166631
v 0.05633175 0.01365003 -0.01187122
v 0.05192093 0.00834797 -0.00657510
v 0.07368736 0.01847008 -0.00323745
v 0.05192093 -0.00861422 -0.00603130
v 0.05698165 0.00069724 -0.01976417
v 0.05712229 0.00285750 -0.01964989
v 0.05731406 0.00436048 -0.01952773
v 0.05858617 0.00457957 -0.01958290
v 0.05192093 -0.00146302 -0.01024377
v 0.06074470 0.00717364 -0.01876720
v 0.06290110 0.00717364 -0.01876720
v 0.05858617 0.00717364 -0.01875538
v 0.06074470 0.00933390 -0.01780965
v 0.05858617 0.01043374 -0.01728555
v 0.06074470 0.01042498 -0.01727767
v 0.06722029 0.01148978 -0.01646591
v 0.06937882 0.01280433 -0.01529163
v 0.06937882 0.01388227 -0.01429861
v 0.07052308 0.01481561 -0.01305339
v 0.07368736 0.01570074 -0.00755630
v 0.07062536 0.01710294 -0.00913253
v 0.07006708 0.01666913 -0.01057477
v 0.06935965 0.01730012 -0.00979848
v 0.06918918 0.01849199 -0.00734745
v 0.06862877 0.01694519 -0.01087032
v 0.06722029 0.01759371 -0.00971179
v 0.06722029 0.01859278 -0.00757206
v 0.06522370 0.01866727 -0.00734351
v 0.06074470 0.01757180 -0.00971179
v 0.06290110 0.01852267 -0.00755630
v 0.06074470 0.01694958 -0.01087032
v 0.06722029 0.01503032 -0.01331346
v 0.06722029 0.01401373 -0.01439318
v 0.06506176 0.01396991 -0.01434589
v 0.06290110 0.01281748 -0.01534285
v 0.06074470 0.01272984 -0.01526798
v 0.05858617 0.01264220 -0.01518129
v 0.05748239 0.01258524 -0.01512612
v 0.05716916 0.01128383 -0.01598516
v 0.05632962 0.01148978 -0.01403065
v 0.05192093 0.00727442 -0.00737898
v 0.05639141 0.00933390 -0.01619007
v 0.07368736 0.01751922 -0.00518014
v 0.05621029 0.00069724 -0.01834950
v 0.05635092 0.00285750 -0.01834950
v 0.05677496 0.00505282 -0.01851501
v 0.05679414 0.00717364 -0.01800667
v 0.05716277 0.00933390 -0.01753775
v 0.05748239 0.01042498 -0.01728161
v 0.05192093 0.00069724 -0.01024377
v 0.05858617 0.00933390 -0.01780965
v 0.06722029 0.01293141 -0.01540196
v 0.06937882 0.01495145 -0.01321889
v 0.07368736 0.01673049 -0.00625986
v 0.06722029 0.01610826 -0.01198155
v 0.06722029 0.01697148 -0.01090184
v 0.06290110 0.01758494 -0.00971179
v 0.06506176 0.01289197 -0.01538620
v 0.05192093 0.00717364 -0.00745385
v 0.05192093 0.00473732 -0.00921528
v 0.05192093 0.00581964 -0.00843505
v 0.05192093 0.00285750 -0.01001915
f 1 2 3
f 1 3 4
f 1 4 5
f 1 5 6
f 1 6 7
f 1 7 8
f 1 8 2
f 2 9 3
f 2 8 10
f 2 10 9
f 3 11 12
f 3 12 13
f 3 13 14
f 3 14 4
f 3 9 11
f 4 14 5
f 5 14 15
f 5 15 16
f 5 16 17
f 5 17 6
f 6 17 18
f 6 18 19
f 6 19 20
f 6 20 21
f 6 21 7
f 7 21 22
f 7 22 8
f 8 22 23
f 8 23 10
f 9 24 25
f 9 25 26
f 9 26 11
f 9 10 24
f 10 23 27
f 10 27 28
f 10 28 29
f 10 29 24
f 11 26 30
f 11 30 31
f 11 31 32
f 11 32 12
f 12 32 33
f 12 33 13
f 13 33 34
f 13 34 35
f 13 35 36
f 13 36 37
f 13 37 38
f 13 38 14
f 14 38 15
f 15 38 16
f 16 38 17
f 17 38 39
f 17 39 18
f 18 39 40
f 18 40 41
f 18 41 19
f 19 41 42
f 19 42 43
f 19 43 20
f 20 43 44
f 20 44 21
f 21 44 45
f 21 45 46
f 21 46 22
f 22 47 23
f 22 46 47
f 23 47 48
f 23 48 49
f 23 49 50
f 23 50 27
f 24 29 25
f 25 29 51
f 25 51 52
f 25 52 53
f 25 53 26
f 26 53 30
f 27 50 28
f 28 50 51
f 28 51 29
f 30 54 55
f 30 55 56
f 30 56 31
f 30 53 54
f 31 57 32
f 31 56 57
f 32 57 58
f 32 58 59
f 32 59 33
f 33 59 34
f 34 60 35
f 34 59 61
f 34 61 60
f 35 62 36
f 35 60 63
f 35 63 64
f 35 64 62
f 36 65 37
f 36 62 66
f 36 66 65
f 37 67 38
f 37 65 67
f 38 67 68
f 38 68 69
f 38 69 39
f 39 69 40
f 40 69 41
f 41 69 70
f 41 70 71
f 41 71 42
f 42 71 72
f 42 72 73
f 42 73 43
f 43 73 44
f 44 73 45
f 45 74 75
f 45 75 76
f 45 76 46
f 45 73 77
f 45 77 74
f 46 76 78
f 46 78 47
f 47 79 49
f 47 49 48
f 47 78 79
f 49 80 50
f 49 79 81
f 49 81 82
f 49 82 80
f 50 80 83
f 50 83 51
f 51 83 84
f 51 84 85
f 51 85 86
f 51 86 87
f 51 87 88
f 51 88 89
f 51 89 52
f 52 89 53
f 53 89 54
f 54 90 118
f 54 118 117
f 54 117 116
f 54 116 141
f 54 141 174
f 54 174 173
f 54 173 217
f 54 217 216
f 54 216 210
f 54 210 209
f 54 209 248
f 54 248 250
f 54 250 292
f 54 292 291
f 54 291 338
f 54 338 377
f 54 377 395
f 54 395 397
f 54 397 396
f 54 396 398
f 54 398 386
f 54 386 345
f 54 345 306
f 54 306 311
f 54 311 310
f 54 310 309
f 54 309 308
f 54 308 340
f 54 340 297
f 54 297 296
f 54 296 253
f 54 253 220
f 54 220 219
f 54 219 180
f 54 180 149
f 54 149 178
f 54 178 177
f 54 177 144
f 54 144 142
f 54 142 119
f 54 119 92
f 54 92 91
f 54 91 61
f 54 61 59
f 54 59 58
f 54 58 57
f 54 57 56
f 54 56 55
f 54 89 90
f 60 61 91
f 60 91 92
f 60 92 93
f 60 93 63
f 62 64 94
f 62 94 66
f 63 93 120
f 63 120 95
f 63 95 96
f 63 96 64
f 64 96 125
f 64 125 148
f 64 148 185
f 64 185 184
f 64 184 183
f 64 183 182
f 64 182 221
f 64 221 257
f 64 257 230
f 64 230 191
f 64 191 151
f 64 151 126
f 64 126 98
f 64 98 73
f 64 73 66
f 64 66 94
f 65 70 69
f 65 69 68
f 65 68 67
f 65 66 73
f 65 73 70
f 70 97 71
f 70 73 97
f 71 97 73
f 71 73 72
f 73 98 127
f 73 127 152
f 73 152 193
f 73 193 199
f 73 199 198
f 73 198 237
f 73 237 278
f 73 278 321
f 73 321 356
f 73 356 390
f 73 390 379
f 73 379 339
f 73 339 293
f 73 293 279
f 73 279 238
f 73 238 200
f 73 200 161
f 73 161 160
f 73 160 128
f 73 128 100
f 73 100 99
f 73 99 78
f 73 78 76
f 73 76 75
f 73 75 74
f 73 74 77
f 78 99 79
f 79 99 100
f 79 100 101
f 79 101 81
f 80 82 102
f 80 102 103
f 80 103 83
f 81 101 104
f 81 104 82
f 82 104 105
f 82 105 103
f 82 103 102
f 83 103 105
f 83 105 84
f 84 106 107
f 84 107 85
f 84 105 104
f 84 104 106
f 85 107 86
f 86 108 109
f 86 109 110
f 86 110 111
f 86 111 87
f 86 107 112
f 86 112 108
f 87 113 114
f 87 114 88
f 87 111 113
f 88 115 89
f 88 114 115
f 89 116 117
f 89 117 118
f 89 118 90
f 89 115 116
f 92 119 93
f 93 119 120
f 95 120 119
f 95 119 121
f 95 121 122
f 95 122 96
f 96 122 123
f 96 123 124
f 96 124 125
f 98 126 127
f 100 128 129
f 100 129 101
f 101 129 106
f 101 106 104
f 106 129 130
f 106 130 107
f 107 130 112
f 108 131 109
f 108 112 131
f 109 131 132
f 109 132 133
f 109 133 134
f 109 134 110
f 110 135 111
f 110 134 133
f 110 133 136
f 110 136 137
f 110 137 138
f 110 138 135
f 111 135 139
f 111 139 113
f 112 130 140
f 112 140 131
f 113 139 116
f 113 116 114
f 114 116 115
f 116 139 141
f 119 142 121
f 121 143 123
f 121 123 122
f 121 142 144
f 121 144 143
f 123 145 124
f 123 143 145
f 124 146 147
f 124 147 148
f 124 148 125
f 124 145 149
f 124 149 146
f 126 150 127
f 126 151 150
f 127 150 153
f 127 153 154
f 127 154 155
f 127 155 156
f 127 156 157
f 127 157 158
f 127 158 159
f 127 159 152
f 128 160 129
f 129 160 161
f 129 161 162
f 129 162 140
f 129 140 130
f 131 140 132
f 132 140 163
f 132 163 164
f 132 164 133
f 133 165 136
f 133 164 165
f 135 138 166
f 135 166 167
f 135 167 139
f 136 165 137
f 137 168 138
f 137 165 168
f 138 168 169
f 138 169 170
f 138 170 171
f 138 171 166
f 139 167 172
f 139 172 173
f 139 173 174
f 139 174 141
f 140 162 175
f 140 175 176
f 140 176 163
f 143 144 177
f 143 177 178
f 143 178 145
f 145 178 149
f 146 179 147
f 146 149 180
f 146 180 179
f 147 179 181
f 147 181 182
f 147 182 183
f 147 183 184
f 147 184 185
f 147 185 148
f 150 186 187
f 150 187 188
f 150 188 189
f 150 189 190
f 150 190 154
f 150 154 153
f 150 151 186
f 151 191 192
f 151 192 187
f 151 187 186
f 152 159 193
f 154 190 156
f 154 156 155
f 156 190 194
f 156 194 157
f 157 194 195
f 157 195 158
f 158 195 196
f 158 196 159
f 159 196 197
f 159 197 198
f 159 198 199
f 159 199 193
f 161 200 162
f 162 200 201
f 162 201 202
f 162 202 175
f 163 202 203
f 163 203 169
f 163 169 165
f 163 165 164
f 163 176 202
f 165 169 168
f 166 204 205
f 166 205 206
f 166 206 207
f 166 207 208
f 166 208 167
f 166 171 213
f 166 213 204
f 167 208 209
f 167 209 210
f 167 210 172
f 169 211 212
f 169 212 170
f 169 203 211
f 170 212 171
f 171 212 211
f 171 211 214
f 171 214 215
f 171 215 251
f 171 251 213
f 172 210 216
f 172 216 217
f 172 217 173
f 175 202 176
f 179 218 181
f 179 180 219
f 179 219 220
f 179 220 218
f 181 218 221
f 181 221 182
f 187 192 188
f 188 192 222
f 188 222 189
f 189 223 224
f 189 224 225
f 189 225 190
f 189 222 226
f 189 226 227
f 189 227 223
f 190 225 228
f 190 228 229
f 190 229 194
f 191 230 192
f 192 231 232
f 192 232 227
f 192 227 226
f 192 226 222
f 192 230 231
f 194 229 195
f 195 229 196
f 196 233 234
f 196 234 235
f 196 235 197
f 196 229 233
f 197 235 236
f 197 236 237
f 197 237 198
f 200 238 239
f 200 239 240
f 200 240 202
f 200 202 201
f 202 240 203
f 203 240 214
f 203 214 211
f 204 213 241
f 204 241 205
f 205 241 242
f 205 242 206
f 206 242 243
f 206 243 244
f 206 244 245
f 206 245 246
f 206 246 247
f 206 247 207
f 207 248 208
f 207 247 249
f 207 249 250
f 207 250 248
f 208 248 209
f 213 251 252
f 213 252 241
f 214 239 215
f 214 240 239
f 215 239 238
f 215 238 279
f 215 279 251
f 218 220 253
f 218 253 254
f 218 254 255
f 218 255 256
f 218 256 221
f 221 256 258
f 221 258 259
f 221 259 260
f 221 260 257
f 223 261 224
f 223 227 262
f 223 262 261
f 224 261 263
f 224 263 264
f 224 264 225
f 225 264 228
f 227 232 265
f 227 265 266
f 227 266 262
f 228 264 267
f 228 267 229
f 229 267 268
f 229 268 269
f 229 269 233
f 230 257 260
f 230 260 232
f 230 232 231
f 232 270 265
f 232 260 271
f 232 271 270
f 233 269 234
f 234 272 273
f 234 273 235
f 234 269 268
f 234 268 274
f 234 274 272
f 235 273 236
f 236 273 275
f 236 275 276
f 236 276 277
f 236 277 237
f 237 277 278
f 241 252 280
f 241 280 281
f 241 281 242
f 242 281 282
f 242 282 243
f 243 282 244
f 244 282 283
f 244 283 245
f 245 283 284
f 245 284 285
f 245 285 286
f 245 286 246
f 246 286 287
f 246 287 288
f 246 288 289
f 246 289 249
f 246 249 247
f 249 289 290
f 249 290 291
f 249 291 292
f 249 292 250
f 251 279 293
f 251 293 294
f 251 294 252
f 252 294 295
f 252 295 280
f 253 296 254
f 254 296 297
f 254 297 255
f 255 298 258
f 255 258 256
f 255 297 298
f 258 298 259
f 259 298 299
f 259 299 260
f 260 299 271
f 261 262 266
f 261 266 300
f 261 300 263
f 263 300 266
f 263 266 265
f 263 265 301
f 263 301 302
f 263 302 264
f 264 302 267
f 265 270 301
f 267 302 268
f 268 302 303
f 268 303 304
f 268 304 274
f 270 271 305
f 270 305 306
f 270 306 307
f 270 307 301
f 271 299 308
f 271 308 309
f 271 309 310
f 271 310 311
f 271 311 306
f 271 306 305
f 272 312 313
f 272 313 273
f 272 274 304
f 272 304 314
f 272 314 315
f 272 315 312
f 273 313 316
f 273 316 275
f 275 316 276
f 276 316 317
f 276 317 318
f 276 318 319
f 276 319 277
f 277 319 320
f 277 320 321
f 277 321 278
f 280 295 322
f 280 322 323
f 280 323 281
f 281 323 324
f 281 324 325
f 281 325 282
f 282 325 326
f 282 326 284
f 282 284 283
f 284 326 287
f 284 287 285
f 285 287 286
f 287 327 328
f 287 328 288
f 287 326 327
f 288 328 329
f 288 329 330
f 288 330 331
f 288 331 332
f 288 332 333
f 288 333 334
f 288 334 373
f 288 373 335
f 288 335 336
f 288 336 290
f 288 290 289
f 290 336 337
f 290 337 338
f 290 338 291
f 293 295 294
f 293 339 295
f 295 339 322
f 297 340 298
f 298 340 308
f 298 308 299
f 301 307 341
f 301 341 302
f 302 341 342
f 302 342 343
f 302 343 303
f 303 343 344
f 303 344 304
f 304 344 314
f 306 345 307
f 307 345 341
f 312 315 346
f 312 346 347
f 312 347 316
f 312 316 313
f 314 344 315
f 315 348 346
f 315 344 343
f 315 343 348
f 316 347 317
f 317 347 349
f 317 349 350
f 317 350 351
f 317 351 318
f 318 351 352
f 318 352 353
f 318 353 319
f 319 353 320
f 320 353 354
f 320 354 355
f 320 355 321
f 321 355 356
f 322 339 357
f 322 357 358
f 322 358 359
f 322 359 360
f 322 360 323
f 323 360 361
f 323 361 362
f 323 362 363
f 323 363 324
f 324 363 325
f 325 363 364
f 325 364 365
f 325 365 366
f 325 366 327
f 325 327 326
f 327 366 328
f 328 366 365
f 328 365 329
f 329 365 367
f 329 367 368
f 329 368 330
f 330 368 369
f 330 369 370
f 330 370 331
f 331 370 332
f 332 334 333
f 332 370 371
f 332 371 372
f 332 372 373
f 332 373 334
f 335 373 374
f 335 374 375
f 335 375 336
f 336 375 376
f 336 376 337
f 337 376 338
f 338 376 378
f 338 378 377
f 339 379 357
f 341 380 381
f 341 381 342
f 341 345 380
f 342 381 382
f 342 382 383
f 342 383 343
f 343 383 384
f 343 384 385
f 343 385 348
f 345 386 380
f 346 348 387
f 346 387 349
f 346 349 347
f 348 385 387
f 349 387 350
f 350 385 388
f 350 388 352
f 350 352 351
f 350 387 385
f 352 388 353
f 353 388 354
f 354 388 369
f 354 369 389
f 354 389 355
f 355 389 361
f 355 361 358
f 355 358 379
f 355 379 390
f 355 390 356
f 357 379 358
f 358 361 359
f 359 361 360
f 361 391 392
f 361 392 362
f 361 389 368
f 361 368 391
f 362 393 363
f 362 392 393
f 363 393 365
f 363 365 364
f 365 393 367
f 367 393 392
f 367 392 391
f 367 391 368
f 368 389 369
f 369 388 394
f 369 394 370
f 370 394 371
f 371 385 372
f 371 394 385
f 372 385 373
f 373 385 374
f 374 385 375
f 375 385 378
f 375 378 376
f 377 378 395
f 378 384 383
f 378 383 396
f 378 396 397
f 378 397 395
f 378 385 384
f 380 386 398
f 380 398 381
f 381 398 383
f 381 383 382
f 383 398 396
f 385 394 388

