# https://github.com/mikedh/trimesh
v 0.00245269 -0.01388741 -0.00755543
v 0.00029348 -0.01370797 -0.00755543
v 0.00024574 -0.01351766 -0.00976849
v 0.00245269 -0.01369709 -0.00971412
v 0.00461064 -0.01388741 -0.00755543
v 0.00245269 -0.01388741 0.00755543
v -0.00088097 -0.01343338 -0.00755543
v -0.00084831 -0.01340075 -0.00908609
v 0.00029348 -0.01370797 0.00755543
v -0.00050540 -0.01318325 -0.01052431
v 0.00093408 -0.01339259 -0.01092668
v 0.00245269 -0.01342250 -0.01099193
v 0.00461064 -0.01342250 -0.01099465
v 0.00461064 -0.01369709 -0.00971412
v 0.00677739 -0.01352037 -0.00973859
v 0.00676859 -0.01370797 -0.00755543
v 0.00461064 -0.01388741 0.00755543
v 0.00461064 -0.01377050 0.00971412
v 0.00245269 -0.01374060 0.00971412
v -0.00108068 -0.01225344 -0.00755543
v -0.00088097 -0.01343338 0.00755543
v -0.00098396 -0.01237850 -0.00976849
v -0.00089980 -0.01163356 -0.01187281
v -0.00080560 -0.01121487 -0.01297391
v 0.00022062 -0.01352853 0.00976849
v -0.00084831 -0.01340075 0.00908609
v 0.00024574 -0.01256337 -0.01173687
v 0.00029348 -0.01140247 -0.01308266
v 0.00245269 -0.01267212 -0.01207128
v 0.00461064 -0.01271018 -0.01207400
v 0.00606393 -0.01339259 -0.01092940
v 0.00750340 -0.01327297 -0.01047265
v 0.00798825 -0.01340075 -0.00903443
v 0.00805859 -0.01343338 -0.00755543
v 0.00676859 -0.01370797 0.00755543
v 0.00694193 -0.01355300 0.00986093
v 0.00633901 -0.01344697 0.01102184
v 0.00461064 -0.01349319 0.01111700
v 0.00245269 -0.01346600 0.01106806
v 0.00089137 -0.01340891 0.01095659
v -0.00118619 -0.01009474 -0.00971412
v -0.00108068 -0.01225344 0.00755543
v -0.00109199 -0.01009474 -0.01187281
v -0.00089101 -0.01009474 -0.01308266
v 0.00029348 -0.01009474 -0.01342794
v -0.00054810 -0.01318325 0.01052431
v -0.00080560 -0.01121487 0.01297391
v -0.00089980 -0.01163356 0.01187281
v -0.00098396 -0.01237850 0.00976849
v 0.00245269 -0.01009474 -0.01366719
v 0.00245269 -0.01159278 -0.01319956
v 0.00461064 -0.01163356 -0.01323491
v 0.00676859 -0.01147043 -0.01313975
v 0.00677739 -0.01266940 -0.01173959
v 0.00879466 -0.01258513 -0.00973859
v 0.00793675 -0.01125022 -0.01300109
v 0.00876451 -0.01165803 -0.01170425
v 0.01004572 -0.01124206 -0.01087231
v 0.00913757 -0.01253347 -0.00755543
v 0.01164597 -0.01086959 -0.00107935
v 0.00913757 -0.01274553 -0.00107935
v 0.00805859 -0.01343338 0.00755543
v 0.00798825 -0.01340075 0.00924105
v 0.00777849 -0.01331647 0.01067928
v 0.00694193 -0.01262591 0.01179397
v 0.00461064 -0.01262047 0.01219634
v 0.00245269 -0.01261775 0.01214741
v 0.00029348 -0.01138615 0.01306906
v 0.00022062 -0.01254978 0.01175590
v -0.00118619 0.00933348 -0.00971412
v -0.00116861 -0.00793605 -0.01187281
v -0.00118619 -0.01009474 0.00971412
v -0.00096764 -0.00793605 -0.01318053
v 0.00029348 -0.00793605 -0.01364544
v 0.00245269 -0.00793605 -0.01388741
v 0.00029348 -0.01009474 0.01341435
v -0.00089101 -0.01009474 0.01308266
v -0.00109199 -0.01009474 0.01187281
v 0.00461064 -0.01009474 -0.01370253
v 0.00676859 -0.01009474 -0.01351766
v 0.01010978 -0.01136440 -0.00971412
v 0.00819551 -0.01009474 -0.01313431
v 0.00927449 -0.01009474 -0.01217731
v 0.01014997 -0.01009474 -0.01109797
v 0.01164597 -0.00564686 -0.00952652
v 0.01164597 -0.00580726 -0.00940962
v 0.01164597 -0.00803665 -0.00760980
v 0.01164597 -0.00806112 -0.00758805
v 0.01164597 -0.00992890 -0.00538858
v 0.01164597 -0.01002678 -0.00514117
v 0.01164597 -0.01055693 -0.00323804
v 0.01164597 -0.01061131 -0.00300151
v 0.01164597 -0.01078530 0.00107935
v 0.00913757 -0.01272106 0.00107935
v 0.00913757 -0.01253347 0.00755543
v 0.00879466 -0.01261231 0.00986093
v 0.01004321 -0.01123934 0.01086959
v 0.00873311 -0.01165531 0.01170153
v 0.00788400 -0.01120400 0.01297119
v 0.00676859 -0.01138071 0.01306635
v 0.00461064 -0.01154112 0.01315606
v 0.00245269 -0.01153840 0.01315335
v 0.00245269 -0.01009474 0.01362097
v -0.00118619 0.01149218 -0.00755543
v -0.00117112 0.01149218 -0.00971412
v -0.00116861 0.00717479 -0.01187281
v -0.00116861 -0.00793605 0.01187281
v -0.00118619 0.00933348 0.00971412
v -0.00096764 0.00717479 -0.01318053
v -0.00050414 -0.00009244 -0.01335181
v 0.00108732 -0.00009244 -0.01373516
v 0.00029348 0.00717479 -0.01364544
v 0.00245269 0.00717479 -0.01388741
v 0.00461064 -0.00793605 -0.01388741
v 0.00245269 -0.00793605 0.01388741
v 0.00029348 -0.00793605 0.01364544
v -0.00096764 -0.00793605 0.01318053
v 0.00676859 -0.00793605 -0.01371069
v 0.00948928 -0.00793605 -0.01236219
v 0.00840904 -0.00793605 -0.01324306
v 0.01164597 -0.00361867 -0.01026331
v 0.01164597 -0.01037478 0.00323804
v 0.01010852 -0.01136168 0.00971412
v 0.01164597 -0.00985006 0.00531789
v 0.01164597 -0.00977121 0.00548645
v 0.01164597 -0.00922202 0.00657124
v 0.01164597 -0.00805568 0.00760436
v 0.01164597 -0.00564686 0.00952652
v 0.01164597 -0.00541848 0.00964887
v 0.01014872 -0.01009474 0.01109525
v 0.00923554 -0.01009474 0.01217459
v 0.00815531 -0.01009474 0.01311256
v 0.00676859 -0.01009474 0.01344697
v 0.00461064 -0.01009474 0.01362097
v -0.00098522 0.01288145 -0.00755543
v -0.00118619 0.01149218 0.00755543
v -0.00097140 0.01284067 -0.00971412
v -0.00090106 0.01272377 -0.01112243
v -0.00098522 0.01143780 -0.01185378
v -0.00113972 0.00933348 -0.01187281
v -0.00104174 -0.00009244 0.01269931
v -0.00116861 0.00717479 0.01187281
v -0.00117112 0.01149218 0.00971412
v -0.00094000 0.00933348 -0.01314247
v 0.00029348 0.00933348 -0.01355300
v 0.00245269 0.00933348 -0.01377594
v 0.00461064 0.00717479 -0.01388741
v 0.00461064 -0.00793605 0.01388741
v 0.00245269 0.00717479 0.01388741
v 0.00029348 0.00717479 0.01364544
v -0.00096764 0.00717479 0.01318053
v 0.00676859 0.00717479 -0.01371069
v 0.00737152 -0.00009244 -0.01353941
v 0.00948928 -0.00145998 -0.01256338
v 0.01164597 -0.00145998 -0.01061946
v 0.00840904 0.00717479 -0.01324306
v 0.01164597 -0.00361867 0.01026331
v 0.01164597 -0.00354798 0.01027962
v 0.00948928 -0.00793605 0.01236219
v 0.00840904 -0.00793605 0.01324306
v 0.00676859 -0.00793605 0.01371069
v 0.00029348 0.01353940 -0.00755543
v -0.00098522 0.01288145 0.00755543
v 0.00029348 0.01341705 -0.00971412
v 0.00029348 0.01293312 -0.01148675
v 0.00029348 0.01211477 -0.01256609
v -0.00086966 0.01068198 -0.01305547
v -0.00113972 0.00933348 0.01187281
v -0.00090106 0.01272377 0.01112243
v -0.00097140 0.01284067 0.00971412
v -0.00098522 0.01143780 0.01185378
v 0.00029348 0.01103271 -0.01320772
v 0.00461064 0.00933348 -0.01377594
v 0.00245269 0.01125292 -0.01330831
v 0.00461064 0.01125564 -0.01330831
v 0.00461064 0.00717479 0.01388741
v 0.00676859 0.00717479 0.01375691
v 0.00461064 0.00933348 0.01381944
v 0.00245269 0.00933348 0.01379769
v 0.00029348 0.00933348 0.01355572
v -0.00094000 0.00933348 0.01314247
v 0.00676859 0.00933348 -0.01359922
v 0.00830604 0.00933348 -0.01318869
v 0.00948928 0.00069872 -0.01256338
v 0.01164597 -0.00123976 -0.01061946
v 0.00948928 0.00717479 -0.01236219
v 0.00948928 0.00285741 -0.01253891
v 0.01164597 -0.00165029 0.01059771
v 0.00949304 -0.00145998 0.01256338
v 0.01164597 -0.00145998 0.01061675
v 0.00845929 0.00717479 0.01329200
v 0.00245269 0.01388740 -0.00755543
v 0.00029348 0.01353940 0.00755543
v 0.00245269 0.01374058 -0.00971412
v 0.00245269 0.01308264 -0.01169609
v 0.00245269 0.01233227 -0.01277544
v -0.00086966 0.01068198 0.01305547
v 0.00029348 0.01340346 0.00971412
v 0.00029348 0.01211205 0.01256338
v 0.00029348 0.01291952 0.01148131
v 0.00676859 0.01103271 -0.01322131
v 0.00461064 0.01233499 -0.01278631
v 0.00836885 0.00933348 0.01324578
v 0.00676859 0.00933348 0.01367807
v 0.00676859 0.01110611 0.01327297
v 0.00461064 0.01128011 0.01335453
v 0.00245269 0.01126380 0.01333278
v 0.00029348 0.01103271 0.01320772
v 0.00808497 0.01067383 -0.01307178
v 0.00938502 0.00933348 -0.01229150
v 0.01164597 0.00069872 -0.01061675
v 0.01164597 0.00090262 -0.01060859
v 0.00950309 0.00069872 0.01256338
v 0.01164597 0.00047577 0.01061946
v 0.00951565 0.00285741 0.01253891
v 0.00953826 0.00717479 0.01236219
v 0.00944782 0.00933348 0.01233500
v 0.00461064 0.01388740 -0.00755543
v 0.00461064 0.01376777 -0.00971412
v 0.00245269 0.01388740 0.00755543
v 0.00461064 0.01310983 -0.01170697
v 0.00245269 0.01369708 0.00971412
v 0.00245269 0.01234315 0.01275641
v 0.00245269 0.01303915 0.01167706
v 0.00676859 0.01211205 -0.01260959
v 0.00676859 0.01301196 -0.01153025
v 0.00813145 0.01076083 0.01311256
v 0.00676859 0.01218545 0.01262047
v 0.00461064 0.01235946 0.01275641
v 0.00821937 0.01279446 -0.01116322
v 0.00887128 0.01139430 -0.01181572
v 0.01011983 0.01067383 -0.01102728
v 0.01020525 0.00933348 -0.01121215
v 0.01164597 0.00291178 -0.01043187
v 0.01164597 0.00285741 -0.01044003
v 0.01164597 0.00069872 0.01061946
v 0.01164597 0.00285741 0.01044003
v 0.01023790 0.00933348 0.01125565
v 0.01016254 0.01073092 0.01108165
v 0.00676859 0.01371883 -0.00755543
v 0.00461064 0.01388740 0.00755543
v 0.00676859 0.01376777 0.00755543
v 0.00676859 0.01375962 0.00323804
v 0.00676859 0.01374602 -0.00107935
v 0.00676859 0.01358290 -0.00971412
v 0.00461064 0.01369980 0.00971412
v 0.00461064 0.01304186 0.01167706
v 0.00889515 0.01146498 0.01186194
v 0.00822063 0.01279718 0.01120128
v 0.00676859 0.01297661 0.01154112
v 0.00854093 0.01297933 -0.00971412
v 0.00962116 0.01204952 -0.00971412
v 0.01024418 0.01097017 -0.00971412
v 0.01164597 0.00902082 -0.00724821
v 0.01164597 0.00881148 -0.00740589
v 0.01164597 0.00639994 -0.00896646
v 0.01164597 0.00511941 -0.00970052
v 0.01164597 0.00500522 -0.00974674
v 0.01164597 0.00511941 0.00970052
v 0.01164597 0.00902354 0.00725092
v 0.01164597 0.00914589 0.00704158
v 0.01027559 0.01101367 0.00971412
v 0.00963373 0.01209302 0.00971412
v 0.00867910 0.01306090 -0.00755543
v 0.00868915 0.01308808 -0.00107935
v 0.00870045 0.01310983 0.00755543
v 0.00869794 0.01310711 0.00539673
v 0.00676859 0.01357474 0.00971412
v 0.00855475 0.01300924 0.00971412
v 0.00869166 0.01309624 0.00107935
v 0.00975808 0.01221536 -0.00755543
v 0.01164597 0.01106261 -0.00097060
v 0.01164597 0.01100008 -0.00119625
v 0.01164597 0.01050798 0.00323804
v 0.01164597 0.01108980 0.00120441
v 0.00977943 0.01221536 0.00755543
v 0.00977064 0.01240024 0.00107935
v 0.00976813 0.01238936 -0.00107935
v 0.01164597 0.01108980 0.00092710
f 1 2 3
f 1 3 4
f 1 4 14
f 1 14 5
f 1 5 17
f 1 17 6
f 1 6 9
f 1 9 2
f 2 7 8
f 2 8 3
f 2 9 21
f 2 21 7
f 3 10 11
f 3 11 4
f 3 8 10
f 4 11 12
f 4 12 13
f 4 13 14
f 5 14 15
f 5 15 16
f 5 16 35
f 5 35 17
f 6 17 18
f 6 18 19
f 6 19 9
f 7 20 8
f 7 21 42
f 7 42 20
f 8 20 22
f 8 22 23
f 8 23 24
f 8 24 10
f 9 19 25
f 9 25 26
f 9 26 21
f 10 24 27
f 10 27 11
f 11 27 28
f 11 28 29
f 11 29 12
f 12 29 30
f 12 30 13
f 13 31 14
f 13 30 31
f 14 31 15
f 15 31 32
f 15 32 33
f 15 33 16
f 16 33 34
f 16 34 62
f 16 62 35
f 17 35 18
f 18 35 36
f 18 36 37
f 18 37 38
f 18 38 19
f 19 38 39
f 19 39 40
f 19 40 25
f 20 41 22
f 20 42 72
f 20 72 41
f 21 26 42
f 22 41 43
f 22 43 23
f 23 43 24
f 24 44 45
f 24 45 28
f 24 28 27
f 24 43 44
f 25 40 46
f 25 46 26
f 26 46 47
f 26 47 48
f 26 48 49
f 26 49 42
f 28 45 50
f 28 50 51
f 28 51 29
f 29 51 52
f 29 52 30
f 30 52 53
f 30 53 54
f 30 54 31
f 31 54 32
f 32 55 33
f 32 54 56
f 32 56 57
f 32 57 58
f 32 58 55
f 33 59 60
f 33 60 34
f 33 55 59
f 34 60 61
f 34 61 62
f 35 62 63
f 35 63 36
f 36 64 37
f 36 63 64
f 37 64 65
f 37 65 66
f 37 66 38
f 38 66 67
f 38 67 39
f 39 67 40
f 40 67 68
f 40 68 69
f 40 69 46
f 41 70 106
f 41 106 71
f 41 71 43
f 41 72 108
f 41 108 136
f 41 136 104
f 41 104 70
f 42 49 72
f 43 71 73
f 43 73 44
f 44 73 74
f 44 74 45
f 45 74 75
f 45 75 50
f 46 69 47
f 47 68 76
f 47 76 77
f 47 77 78
f 47 78 48
f 47 69 68
f 48 78 49
f 49 78 72
f 50 75 79
f 50 79 52
f 50 52 51
f 52 79 53
f 53 56 54
f 53 79 80
f 53 80 56
f 55 58 81
f 55 81 59
f 56 80 82
f 56 82 83
f 56 83 58
f 56 58 57
f 58 84 85
f 58 85 86
f 58 86 87
f 58 87 88
f 58 88 89
f 58 89 90
f 58 90 91
f 58 91 92
f 58 92 81
f 58 83 84
f 59 81 60
f 60 81 92
f 60 92 91
f 60 91 90
f 60 90 89
f 60 89 88
f 60 88 87
f 60 87 86
f 60 86 85
f 60 85 121
f 60 121 155
f 60 155 185
f 60 185 211
f 60 211 212
f 60 212 235
f 60 235 234
f 60 234 258
f 60 258 257
f 60 257 256
f 60 256 255
f 60 255 254
f 60 254 273
f 60 273 272
f 60 272 279
f 60 279 275
f 60 275 274
f 60 274 261
f 60 261 260
f 60 260 259
f 60 259 237
f 60 237 236
f 60 236 214
f 60 214 190
f 60 190 188
f 60 188 158
f 60 158 157
f 60 157 129
f 60 129 128
f 60 128 127
f 60 127 126
f 60 126 125
f 60 125 124
f 60 124 122
f 60 122 93
f 60 93 62
f 60 62 94
f 60 94 61
f 61 94 62
f 62 95 63
f 62 93 95
f 63 95 96
f 63 96 64
f 64 97 98
f 64 98 99
f 64 99 65
f 64 96 97
f 65 99 100
f 65 100 66
f 66 100 101
f 66 101 102
f 66 102 67
f 67 102 68
f 68 102 103
f 68 103 76
f 70 104 105
f 70 105 106
f 71 106 109
f 71 109 73
f 72 78 107
f 72 107 142
f 72 142 108
f 73 109 110
f 73 110 74
f 74 111 75
f 74 110 112
f 74 112 111
f 75 113 147
f 75 147 114
f 75 114 79
f 75 111 113
f 76 103 115
f 76 115 116
f 76 116 77
f 77 116 117
f 77 117 78
f 78 117 107
f 79 118 80
f 79 114 118
f 80 118 82
f 82 119 83
f 82 118 120
f 82 120 119
f 83 119 84
f 84 121 85
f 84 119 121
f 93 122 97
f 93 97 123
f 93 123 95
f 95 123 96
f 96 123 97
f 97 122 124
f 97 124 125
f 97 125 126
f 97 126 127
f 97 127 128
f 97 128 129
f 97 129 130
f 97 130 131
f 97 131 99
f 97 99 98
f 99 132 133
f 99 133 100
f 99 131 132
f 100 133 134
f 100 134 101
f 101 134 103
f 101 103 102
f 103 134 148
f 103 148 115
f 104 135 105
f 104 136 163
f 104 163 135
f 105 135 137
f 105 137 138
f 105 138 139
f 105 139 140
f 105 140 106
f 106 140 109
f 107 117 141
f 107 141 142
f 108 143 136
f 108 142 143
f 109 140 144
f 109 144 112
f 109 112 110
f 111 112 113
f 112 144 145
f 112 145 113
f 113 146 173
f 113 173 147
f 113 145 146
f 114 147 152
f 114 152 118
f 115 148 176
f 115 176 149
f 115 149 150
f 115 150 116
f 116 150 151
f 116 151 117
f 117 151 141
f 118 152 153
f 118 153 120
f 119 120 154
f 119 154 155
f 119 155 121
f 120 153 156
f 120 156 184
f 120 184 154
f 129 157 130
f 130 157 158
f 130 158 159
f 130 159 131
f 131 159 132
f 132 159 160
f 132 160 161
f 132 161 133
f 133 161 148
f 133 148 134
f 135 162 137
f 135 163 193
f 135 193 162
f 136 143 163
f 137 162 164
f 137 164 138
f 138 164 165
f 138 165 166
f 138 166 167
f 138 167 139
f 139 167 140
f 140 167 144
f 141 151 142
f 142 151 168
f 142 168 143
f 143 169 170
f 143 170 163
f 143 168 171
f 143 171 169
f 144 167 145
f 145 172 146
f 145 167 172
f 146 172 174
f 146 174 175
f 146 175 173
f 147 173 182
f 147 182 152
f 148 161 177
f 148 177 176
f 149 178 179
f 149 179 180
f 149 180 150
f 149 176 178
f 150 180 181
f 150 181 151
f 151 181 168
f 152 182 183
f 152 183 156
f 152 156 153
f 154 184 185
f 154 185 155
f 156 183 186
f 156 186 187
f 156 187 184
f 158 188 159
f 159 189 160
f 159 188 190
f 159 190 189
f 160 191 161
f 160 189 191
f 161 191 177
f 162 192 164
f 162 193 220
f 162 220 192
f 163 170 193
f 164 192 194
f 164 194 165
f 165 194 195
f 165 195 196
f 165 196 166
f 166 196 172
f 166 172 167
f 168 181 197
f 168 197 171
f 169 198 170
f 169 171 197
f 169 197 199
f 169 199 200
f 169 200 198
f 170 198 193
f 172 196 174
f 173 175 201
f 173 201 182
f 174 196 202
f 174 202 175
f 175 202 201
f 176 177 178
f 177 191 203
f 177 203 204
f 177 204 178
f 178 204 205
f 178 205 206
f 178 206 179
f 179 206 207
f 179 207 208
f 179 208 180
f 180 208 197
f 180 197 181
f 182 201 209
f 182 209 183
f 183 209 210
f 183 210 186
f 184 187 211
f 184 211 185
f 186 210 212
f 186 212 187
f 187 212 211
f 189 190 213
f 189 213 191
f 190 214 213
f 191 213 215
f 191 215 216
f 191 216 217
f 191 217 203
f 192 218 219
f 192 219 194
f 192 220 241
f 192 241 218
f 193 198 220
f 194 219 221
f 194 221 195
f 195 221 196
f 196 221 202
f 197 208 199
f 198 222 220
f 198 200 222
f 199 208 223
f 199 223 200
f 200 223 224
f 200 224 222
f 201 202 225
f 201 225 209
f 202 221 226
f 202 226 225
f 203 217 227
f 203 227 204
f 204 227 205
f 205 227 228
f 205 228 229
f 205 229 206
f 206 229 223
f 206 223 207
f 207 223 208
f 209 225 230
f 209 230 231
f 209 231 232
f 209 232 210
f 210 232 233
f 210 233 234
f 210 234 235
f 210 235 212
f 213 214 236
f 213 236 215
f 215 236 216
f 216 236 217
f 217 236 237
f 217 237 238
f 217 238 239
f 217 239 227
f 218 240 219
f 218 241 242
f 218 242 243
f 218 243 244
f 218 244 240
f 219 240 245
f 219 245 226
f 219 226 221
f 220 222 246
f 220 246 241
f 222 224 247
f 222 247 246
f 223 229 224
f 224 229 247
f 225 226 230
f 226 245 230
f 227 239 248
f 227 248 249
f 227 249 228
f 228 250 229
f 228 249 250
f 229 250 247
f 230 232 231
f 230 245 251
f 230 251 252
f 230 252 232
f 232 252 253
f 232 253 254
f 232 254 255
f 232 255 256
f 232 256 257
f 232 257 258
f 232 258 234
f 232 234 233
f 237 239 238
f 237 259 239
f 239 249 248
f 239 259 260
f 239 260 261
f 239 261 262
f 239 262 263
f 239 263 249
f 240 264 251
f 240 251 245
f 240 244 265
f 240 265 264
f 241 246 242
f 242 266 267
f 242 267 243
f 242 246 268
f 242 268 269
f 242 269 266
f 243 267 270
f 243 270 244
f 244 270 265
f 246 247 250
f 246 250 268
f 249 263 269
f 249 269 268
f 249 268 250
f 251 264 271
f 251 271 252
f 252 271 272
f 252 272 273
f 252 273 253
f 253 273 254
f 261 274 262
f 262 274 275
f 262 275 263
f 263 275 276
f 263 276 269
f 264 265 277
f 264 277 278
f 264 278 272
f 264 272 271
f 265 270 277
f 266 276 275
f 266 275 277
f 266 277 267
f 266 269 276
f 267 277 270
f 272 278 279
f 275 279 277
f 277 279 278

