mtllib material.mtl
usemtl material_crank_handle_0
v -0.00618052 -0.00166392 0.00000000
v -0.00778985 -0.00182593 0.01829034
v -0.00800097 0.00000000 0.01829034
v -0.00800097 0.00000000 0.06348729
v -0.00800097 0.00000000 0.01829034
v -0.00778985 -0.00182593 0.01829034
v -0.00640076 0.00000000 0.00000000
v -0.00618052 -0.00166392 0.00000000
v -0.00800097 0.00000000 0.01829034
v -0.00721163 0.00346524 0.01829034
v -0.00640076 0.00000000 0.00000000
v -0.00800097 0.00000000 0.01829034
v -0.00744307 0.00293535 0.06348729
v -0.00721163 0.00346524 0.01829034
v -0.00800097 0.00000000 0.01829034
v -0.00744307 0.00293535 0.06348729
v -0.00800097 0.00000000 0.01829034
v -0.00800097 0.00000000 0.06348729
v -0.00618052 -0.00166392 0.00000000
v -0.00715417 -0.00358242 0.01829034
v -0.00778985 -0.00182593 0.01829034
v -0.00732845 -0.00321072 0.06348729
v -0.00778985 -0.00182593 0.01829034
v -0.00715417 -0.00358242 0.01829034
v -0.00732845 -0.00321072 0.06348729
v -0.00800097 0.00000000 0.06348729
v -0.00778985 -0.00182593 0.01829034
v -0.00553304 -0.00321704 0.00000000
v -0.00614166 -0.00512791 0.01829034
v -0.00715417 -0.00358242 0.01829034
v -0.00732845 -0.00321072 0.06348729
v -0.00715417 -0.00358242 0.01829034
v -0.00614166 -0.00512791 0.01829034
v -0.00618052 -0.00166392 0.00000000
v -0.00553304 -0.00321704 0.00000000
v -0.00715417 -0.00358242 0.01829034
v -0.00450987 -0.00454205 0.00000000
v -0.00487143 -0.00634706 0.01829034
v -0.00614166 -0.00512791 0.01829034
v -0.00539744 -0.00590622 0.06348729
v -0.00614166 -0.00512791 0.01829034
v -0.00487143 -0.00634706 0.01829034
v -0.00553304 -0.00321704 0.00000000
v -0.00450987 -0.00454205 0.00000000
v -0.00614166 -0.00512791 0.01829034
v -0.00539744 -0.00590622 0.06348729
v -0.00732845 -0.00321072 0.06348729
v -0.00614166 -0.00512791 0.01829034
v -0.00164020 -0.00618690 0.00000000
v -0.00174755 -0.00780779 0.01829034
v -0.00487143 -0.00634706 0.01829034
v -0.00247240 -0.00760937 0.06348729
v -0.00487143 -0.00634706 0.01829034
v -0.00174755 -0.00780779 0.01829034
v -0.00318378 -0.00555235 0.00000000
v -0.00164020 -0.00618690 0.00000000
v -0.00487143 -0.00634706 0.01829034
v -0.00450987 -0.00454205 0.00000000
v -0.00318378 -0.00555235 0.00000000
v -0.00487143 -0.00634706 0.01829034
v -0.00247240 -0.00760937 0.06348729
v -0.00539744 -0.00590622 0.06348729
v -0.00487143 -0.00634706 0.01829034
v 0.00001342 -0.00640076 0.00000000
v 0.00177079 -0.00780255 0.01829034
v -0.00174755 -0.00780779 0.01829034
v 0.00048816 -0.00798607 0.06348729
v -0.00174755 -0.00780779 0.01829034
v 0.00177079 -0.00780255 0.01829034
v -0.00164020 -0.00618690 0.00000000
v 0.00001342 -0.00640076 0.00000000
v -0.00174755 -0.00780779 0.01829034
v 0.00048816 -0.00798607 0.06348729
v -0.00247240 -0.00760937 0.06348729
v -0.00174755 -0.00780779 0.01829034
v 0.00321203 -0.00553602 0.00000000
v 0.00494379 -0.00629079 0.01829034
v 0.00177079 -0.00780255 0.01829034
v 0.00330770 -0.00728524 0.06348729
v 0.00177079 -0.00780255 0.01829034
v 0.00494379 -0.00629079 0.01829034
v 0.00166815 -0.00617939 0.00000000
v 0.00321203 -0.00553602 0.00000000
v 0.00177079 -0.00780255 0.01829034
v 0.00001342 -0.00640076 0.00000000
v 0.00166815 -0.00617939 0.00000000
v 0.00177079 -0.00780255 0.01829034
v 0.00330770 -0.00728524 0.06348729
v 0.00048816 -0.00798607 0.06348729
v 0.00177079 -0.00780255 0.01829034
v 0.00453109 -0.00452101 0.00000000
v 0.00621891 -0.00503391 0.01829034
v 0.00494379 -0.00629079 0.01829034
v 0.00576782 -0.00554502 0.06348729
v 0.00494379 -0.00629079 0.01829034
v 0.00621891 -0.00503391 0.01829034
v 0.00321203 -0.00553602 0.00000000
v 0.00453109 -0.00452101 0.00000000
v 0.00494379 -0.00629079 0.01829034
v 0.00576782 -0.00554502 0.06348729
v 0.00330770 -0.00728524 0.06348729
v 0.00494379 -0.00629079 0.01829034
v 0.00554293 -0.00320005 0.00000000
v 0.00721163 -0.00346524 0.01829034
v 0.00621891 -0.00503391 0.01829034
v 0.00576782 -0.00554502 0.06348729
v 0.00621891 -0.00503391 0.01829034
v 0.00721163 -0.00346524 0.01829034
v 0.00453109 -0.00452101 0.00000000
v 0.00554293 -0.00320005 0.00000000
v 0.00621891 -0.00503391 0.01829034
v 0.00640076 0.00000000 0.00000000
v 0.00800097 0.00000000 0.01829034
v 0.00721163 -0.00346524 0.01829034
v 0.00744307 -0.00293535 0.06348729
v 0.00721163 -0.00346524 0.01829034
v 0.00800097 0.00000000 0.01829034
v 0.00618255 -0.00165659 0.00000000
v 0.00640076 0.00000000 0.00000000
v 0.00721163 -0.00346524 0.01829034
v 0.00554293 -0.00320005 0.00000000
v 0.00618255 -0.00165659 0.00000000
v 0.00721163 -0.00346524 0.01829034
v 0.00744307 -0.00293535 0.06348729
v 0.00576782 -0.00554502 0.06348729
v 0.00721163 -0.00346524 0.01829034
v 0.00618052 0.00166392 0.00000000
v 0.00800097 0.00000000 0.01829034
v 0.00640076 0.00000000 0.00000000
v 0.00778985 0.00182593 0.01829034
v 0.00800097 0.00000000 0.01829034
v 0.00618052 0.00166392 0.00000000
v 0.00800097 0.00000000 0.06348729
v 0.00800097 0.00000000 0.01829034
v 0.00778985 0.00182593 0.01829034
v 0.00744307 -0.00293535 0.06348729
v 0.00800097 0.00000000 0.01829034
v 0.00800097 0.00000000 0.06348729
v 0.00618052 0.00166392 0.00000000
v 0.00640076 0.00000000 0.00000000
v 0.00618255 -0.00165659 0.00000000
v 0.00554293 -0.00320005 0.00000000
v 0.00553304 0.00321704 0.00000000
v 0.00453109 -0.00452101 0.00000000
v 0.00450987 0.00454205 0.00000000
v 0.00321203 -0.00553602 0.00000000
v 0.00318378 0.00555235 0.00000000
v 0.00166815 -0.00617939 0.00000000
v 0.00164020 0.00618690 0.00000000
v 0.00001342 -0.00640076 0.00000000
v -0.00001342 0.00640076 0.00000000
v -0.00164020 -0.00618690 0.00000000
v -0.00166815 0.00617939 0.00000000
v -0.00318378 -0.00555235 0.00000000
v -0.00321203 0.00553602 0.00000000
v -0.00450987 -0.00454205 0.00000000
v -0.00453109 0.00452101 0.00000000
v -0.00553304 -0.00321704 0.00000000
v -0.00554293 0.00320005 0.00000000
v -0.00618052 -0.00166392 0.00000000
v -0.00618255 0.00165659 0.00000000
v -0.00640076 0.00000000 0.00000000
v -0.00721163 0.00346524 0.01829034
v -0.00618255 0.00165659 0.00000000
v -0.00640076 0.00000000 0.00000000
v -0.00721163 0.00346524 0.01829034
v -0.00554293 0.00320005 0.00000000
v -0.00618255 0.00165659 0.00000000
v -0.00621891 0.00503391 0.01829034
v -0.00453109 0.00452101 0.00000000
v -0.00554293 0.00320005 0.00000000
v -0.00721163 0.00346524 0.01829034
v -0.00621891 0.00503391 0.01829034
v -0.00554293 0.00320005 0.00000000
v -0.00494379 0.00629079 0.01829034
v -0.00321203 0.00553602 0.00000000
v -0.00453109 0.00452101 0.00000000
v -0.00621891 0.00503391 0.01829034
v -0.00494379 0.00629079 0.01829034
v -0.00453109 0.00452101 0.00000000
v -0.00177079 0.00780255 0.01829034
v -0.00166815 0.00617939 0.00000000
v -0.00321203 0.00553602 0.00000000
v -0.00494379 0.00629079 0.01829034
v -0.00177079 0.00780255 0.01829034
v -0.00321203 0.00553602 0.00000000
v -0.00177079 0.00780255 0.01829034
v -0.00001342 0.00640076 0.00000000
v -0.00166815 0.00617939 0.00000000
v 0.00174755 0.00780779 0.01829034
v 0.00164020 0.00618690 0.00000000
v -0.00001342 0.00640076 0.00000000
v -0.00177079 0.00780255 0.01829034
v 0.00174755 0.00780779 0.01829034
v -0.00001342 0.00640076 0.00000000
v 0.00487143 0.00634706 0.01829034
v 0.00318378 0.00555235 0.00000000
v 0.00164020 0.00618690 0.00000000
v 0.00174755 0.00780779 0.01829034
v 0.00487143 0.00634706 0.01829034
v 0.00164020 0.00618690 0.00000000
v 0.00487143 0.00634706 0.01829034
v 0.00450987 0.00454205 0.00000000
v 0.00318378 0.00555235 0.00000000
v 0.00614166 0.00512791 0.01829034
v 0.00553304 0.00321704 0.00000000
v 0.00450987 0.00454205 0.00000000
v 0.00487143 0.00634706 0.01829034
v 0.00614166 0.00512791 0.01829034
v 0.00450987 0.00454205 0.00000000
v 0.00715417 0.00358242 0.01829034
v 0.00618052 0.00166392 0.00000000
v 0.00553304 0.00321704 0.00000000
v 0.00614166 0.00512791 0.01829034
v 0.00715417 0.00358242 0.01829034
v 0.00553304 0.00321704 0.00000000
v 0.00715417 0.00358242 0.01829034
v 0.00778985 0.00182593 0.01829034
v 0.00618052 0.00166392 0.00000000
v 0.00732845 0.00321072 0.06348729
v 0.00778985 0.00182593 0.01829034
v 0.00715417 0.00358242 0.01829034
v 0.00732845 0.00321072 0.06348729
v 0.00800097 0.00000000 0.06348729
v 0.00778985 0.00182593 0.01829034
v 0.00732845 0.00321072 0.06348729
v 0.00715417 0.00358242 0.01829034
v 0.00614166 0.00512791 0.01829034
v 0.00539744 0.00590622 0.06348729
v 0.00614166 0.00512791 0.01829034
v 0.00487143 0.00634706 0.01829034
v 0.00539744 0.00590622 0.06348729
v 0.00732845 0.00321072 0.06348729
v 0.00614166 0.00512791 0.01829034
v 0.00247240 0.00760937 0.06348729
v 0.00487143 0.00634706 0.01829034
v 0.00174755 0.00780779 0.01829034
v 0.00247240 0.00760937 0.06348729
v 0.00539744 0.00590622 0.06348729
v 0.00487143 0.00634706 0.01829034
v -0.00048816 0.00798607 0.06348729
v 0.00174755 0.00780779 0.01829034
v -0.00177079 0.00780255 0.01829034
v -0.00048816 0.00798607 0.06348729
v 0.00247240 0.00760937 0.06348729
v 0.00174755 0.00780779 0.01829034
v -0.00330770 0.00728524 0.06348729
v -0.00177079 0.00780255 0.01829034
v -0.00494379 0.00629079 0.01829034
v -0.00330770 0.00728524 0.06348729
v -0.00048816 0.00798607 0.06348729
v -0.00177079 0.00780255 0.01829034
v -0.00576782 0.00554502 0.06348729
v -0.00494379 0.00629079 0.01829034
v -0.00621891 0.00503391 0.01829034
v -0.00576782 0.00554502 0.06348729
v -0.00330770 0.00728524 0.06348729
v -0.00494379 0.00629079 0.01829034
v -0.00576782 0.00554502 0.06348729
v -0.00621891 0.00503391 0.01829034
v -0.00721163 0.00346524 0.01829034
v -0.00744307 0.00293535 0.06348729
v -0.00576782 0.00554502 0.06348729
v -0.00721163 0.00346524 0.01829034
v -0.00740588 0.00240630 0.06428670
v -0.00744307 0.00293535 0.06348729
v -0.00800097 0.00000000 0.06348729
v -0.00776297 -0.00061096 0.06428670
v -0.00800097 0.00000000 0.06348729
v -0.00732845 -0.00321072 0.06348729
v -0.00740588 0.00240630 0.06428670
v -0.00800097 0.00000000 0.06348729
v -0.00776297 -0.00061096 0.06428670
v 0.00776297 0.00061096 0.06428670
v 0.00800097 0.00000000 0.06348729
v 0.00732845 0.00321072 0.06348729
v 0.00740588 -0.00240630 0.06428670
v 0.00744307 -0.00293535 0.06348729
v 0.00800097 0.00000000 0.06348729
v 0.00740588 -0.00240630 0.06428670
v 0.00800097 0.00000000 0.06348729
v 0.00776297 0.00061096 0.06428670
v 0.00693828 0.00353521 0.06428670
v 0.00732845 0.00321072 0.06348729
v 0.00539744 0.00590622 0.06348729
v 0.00776297 0.00061096 0.06428670
v 0.00732845 0.00321072 0.06348729
v 0.00693828 0.00353521 0.06428670
v 0.00505722 0.00592124 0.06428670
v 0.00539744 0.00590622 0.06348729
v 0.00247240 0.00760937 0.06348729
v 0.00693828 0.00353521 0.06428670
v 0.00539744 0.00590622 0.06348729
v 0.00505722 0.00592124 0.06428670
v 0.00240624 0.00740564 0.06428706
v 0.00247240 0.00760937 0.06348729
v -0.00048816 0.00798607 0.06348729
v 0.00505722 0.00592124 0.06428670
v 0.00247240 0.00760937 0.06348729
v 0.00240624 0.00740564 0.06428706
v -0.00061096 0.00776297 0.06428670
v -0.00048816 0.00798607 0.06348729
v -0.00330770 0.00728524 0.06348729
v 0.00240624 0.00740564 0.06428706
v -0.00048816 0.00798607 0.06348729
v -0.00061096 0.00776297 0.06428670
v -0.00353521 0.00693828 0.06428670
v -0.00330770 0.00728524 0.06348729
v -0.00576782 0.00554502 0.06348729
v -0.00061096 0.00776297 0.06428670
v -0.00330770 0.00728524 0.06348729
v -0.00353521 0.00693828 0.06428670
v -0.00592124 0.00505722 0.06428670
v -0.00576782 0.00554502 0.06348729
v -0.00744307 0.00293535 0.06348729
v -0.00353521 0.00693828 0.06428670
v -0.00576782 0.00554502 0.06348729
v -0.00592124 0.00505722 0.06428670
v -0.00592124 0.00505722 0.06428670
v -0.00744307 0.00293535 0.06348729
v -0.00740588 0.00240630 0.06428670
v -0.00693828 -0.00353521 0.06428670
v -0.00732845 -0.00321072 0.06348729
v -0.00539744 -0.00590622 0.06348729
v -0.00776297 -0.00061096 0.06428670
v -0.00732845 -0.00321072 0.06348729
v -0.00693828 -0.00353521 0.06428670
v -0.00505722 -0.00592124 0.06428670
v -0.00539744 -0.00590622 0.06348729
v -0.00247240 -0.00760937 0.06348729
v -0.00693828 -0.00353521 0.06428670
v -0.00539744 -0.00590622 0.06348729
v -0.00505722 -0.00592124 0.06428670
v -0.00240624 -0.00740564 0.06428706
v -0.00247240 -0.00760937 0.06348729
v 0.00048816 -0.00798607 0.06348729
v -0.00505722 -0.00592124 0.06428670
v -0.00247240 -0.00760937 0.06348729
v -0.00240624 -0.00740564 0.06428706
v 0.00061096 -0.00776297 0.06428670
v 0.00048816 -0.00798607 0.06348729
v 0.00330770 -0.00728524 0.06348729
v 0.00061096 -0.00776297 0.06428670
v -0.00240624 -0.00740564 0.06428706
v 0.00048816 -0.00798607 0.06348729
v 0.00353521 -0.00693828 0.06428670
v 0.00330770 -0.00728524 0.06348729
v 0.00576782 -0.00554502 0.06348729
v 0.00061096 -0.00776297 0.06428670
v 0.00330770 -0.00728524 0.06348729
v 0.00353521 -0.00693828 0.06428670
v 0.00592124 -0.00505722 0.06428670
v 0.00576782 -0.00554502 0.06348729
v 0.00744307 -0.00293535 0.06348729
v 0.00353521 -0.00693828 0.06428670
v 0.00576782 -0.00554502 0.06348729
v 0.00592124 -0.00505722 0.06428670
v 0.00592124 -0.00505722 0.06428670
v 0.00744307 -0.00293535 0.06348729
v 0.00740588 -0.00240630 0.06428670
v -0.00428444 -0.00475538 0.06508749
v -0.00222152 -0.00683725 0.06487983
v -0.00197792 -0.00608748 0.06508749
v 0.00056497 -0.00717860 0.06487315
v -0.00197792 -0.00608748 0.06508749
v -0.00222152 -0.00683725 0.06487983
v 0.00427246 -0.00476557 0.06508749
v -0.00428444 -0.00475538 0.06508749
v -0.00197792 -0.00608748 0.06508749
v 0.00133055 -0.00626057 0.06508749
v -0.00033498 -0.00639188 0.06508749
v 0.00056497 -0.00717860 0.06487315
v -0.00033498 -0.00639188 0.06508749
v -0.00197792 -0.00608748 0.06508749
v 0.00289953 -0.00570637 0.06508749
v 0.00061096 -0.00776297 0.06428670
v 0.00353521 -0.00693828 0.06428670
v 0.00056497 -0.00717860 0.06487315
v 0.00353521 -0.00693828 0.06428670
v 0.00592124 -0.00505722 0.06428670
v 0.00326908 -0.00641596 0.06487315
v -0.00428444 -0.00475538 0.06508749
v -0.00467652 -0.00547552 0.06487315
v -0.00222152 -0.00683725 0.06487983
v -0.00240230 -0.00739366 0.06430852
v -0.00222152 -0.00683725 0.06487983
v -0.00467652 -0.00547552 0.06487315
v 0.00061096 -0.00776297 0.06428670
v -0.00222152 -0.00683725 0.06487983
v -0.00240230 -0.00739366 0.06430852
v 0.00061096 -0.00776297 0.06428670
v 0.00056497 -0.00717860 0.06487315
v -0.00222152 -0.00683725 0.06487983
v -0.00428444 -0.00475538 0.06508749
v -0.00641596 -0.00326908 0.06487315
v -0.00467652 -0.00547552 0.06487315
v -0.00505722 -0.00592124 0.06428670
v -0.00467652 -0.00547552 0.06487315
v -0.00641596 -0.00326908 0.06487315
v -0.00240624 -0.00740564 0.06428706
v -0.00240230 -0.00739366 0.06430852
v -0.00467652 -0.00547552 0.06487315
v -0.00505722 -0.00592124 0.06428670
v -0.00240624 -0.00740564 0.06428706
v -0.00467652 -0.00547552 0.06487315
v -0.00584662 -0.00260514 0.06508749
v -0.00717860 -0.00056497 0.06487315
v -0.00641596 -0.00326908 0.06487315
v -0.00693828 -0.00353521 0.06428670
v -0.00641596 -0.00326908 0.06487315
v -0.00717860 -0.00056497 0.06487315
v -0.00428444 -0.00475538 0.06508749
v -0.00584662 -0.00260514 0.06508749
v -0.00641596 -0.00326908 0.06487315
v -0.00693828 -0.00353521 0.06428670
v -0.00622326 0.00149667 0.06508749
v -0.00684839 0.00222516 0.06487315
v -0.00717860 -0.00056497 0.06487315
v -0.00776297 -0.00061096 0.06428670
v -0.00717860 -0.00056497 0.06487315
v -0.00684839 0.00222516 0.06487315
v -0.00640076 0.00000000 0.06508749
v -0.00584662 -0.00260514 0.06508749
v -0.00640076 0.00000000 0.06508749
v -0.00717860 -0.00056497 0.06487315
v -0.00776297 -0.00061096 0.06428670
v -0.00570166 0.00290847 0.06508749
v -0.00547552 0.00467652 0.06487315
v -0.00684839 0.00222516 0.06487315
v -0.00740588 0.00240630 0.06428670
v -0.00684839 0.00222516 0.06487315
v -0.00547552 0.00467652 0.06487315
v -0.00622326 0.00149667 0.06508749
v -0.00570166 0.00290847 0.06508749
v -0.00684839 0.00222516 0.06487315
v -0.00740588 0.00240630 0.06428670
v -0.00376207 0.00517815 0.06508749
v -0.00326908 0.00641596 0.06487315
v -0.00547552 0.00467652 0.06487315
v -0.00592124 0.00505722 0.06428670
v -0.00547552 0.00467652 0.06487315
v -0.00326908 0.00641596 0.06487315
v -0.00486577 0.00415826 0.06508749
v -0.00376207 0.00517815 0.06508749
v -0.00547552 0.00467652 0.06487315
v -0.00570166 0.00290847 0.06508749
v -0.00486577 0.00415826 0.06508749
v -0.00547552 0.00467652 0.06487315
v -0.00592124 0.00505722 0.06428670
v -0.00100410 0.00632137 0.06508749
v -0.00056497 0.00717860 0.06487315
v -0.00326908 0.00641596 0.06487315
v -0.00353521 0.00693828 0.06428670
v -0.00326908 0.00641596 0.06487315
v -0.00056497 0.00717860 0.06487315
v -0.00245100 0.00591260 0.06508749
v -0.00376207 0.00517815 0.06508749
v -0.00245100 0.00591260 0.06508749
v -0.00326908 0.00641596 0.06487315
v -0.00353521 0.00693828 0.06428670
v 0.00326908 -0.00641596 0.06487315
v -0.00061096 0.00776297 0.06428670
v -0.00056497 0.00717860 0.06487315
v 0.00222504 0.00684810 0.06487333
v 0.00197792 0.00608748 0.06508749
v 0.00222504 0.00684810 0.06487333
v -0.00056497 0.00717860 0.06487315
v 0.00049969 0.00638121 0.06508749
v 0.00197792 0.00608748 0.06508749
v -0.00056497 0.00717860 0.06487315
v -0.00100410 0.00632137 0.06508749
v 0.00049969 0.00638121 0.06508749
v -0.00056497 0.00717860 0.06487315
v -0.00061096 0.00776297 0.06428670
v 0.00592124 -0.00505722 0.06428670
v 0.00740588 -0.00240630 0.06428670
v 0.00547552 -0.00467652 0.06487315
v 0.00240230 0.00739366 0.06430852
v -0.00061096 0.00776297 0.06428670
v 0.00222504 0.00684810 0.06487333
v 0.00467652 0.00547552 0.06487315
v 0.00240230 0.00739366 0.06430852
v 0.00222504 0.00684810 0.06487333
v 0.00467652 0.00547552 0.06487315
v 0.00222504 0.00684810 0.06487333
v 0.00349236 0.00536382 0.06508749
v 0.00349236 0.00536382 0.06508749
v 0.00222504 0.00684810 0.06487333
v 0.00197792 0.00608748 0.06508749
v -0.00100410 0.00632137 0.06508749
v 0.00197792 0.00608748 0.06508749
v 0.00049969 0.00638121 0.06508749
v -0.00245100 0.00591260 0.06508749
v 0.00349236 0.00536382 0.06508749
v -0.00376207 0.00517815 0.06508749
v 0.00476944 0.00426811 0.06508749
v -0.00486577 0.00415826 0.06508749
v -0.00570166 0.00290847 0.06508749
v 0.00571334 0.00288558 0.06508749
v -0.00622326 0.00149667 0.06508749
v 0.00626445 0.00131214 0.06508749
v -0.00640076 0.00000000 0.06508749
v 0.00639093 -0.00035194 0.06508749
v -0.00584662 -0.00260514 0.06508749
v 0.00536144 -0.00349605 0.06508749
v 0.00608331 -0.00199067 0.06508749
v 0.00061096 -0.00776297 0.06428670
v -0.00240230 -0.00739366 0.06430852
v -0.00240624 -0.00740564 0.06428706
v 0.00240230 0.00739366 0.06430852
v 0.00240624 0.00740564 0.06428706
v -0.00061096 0.00776297 0.06428670
v 0.00467652 0.00547552 0.06487315
v 0.00240624 0.00740564 0.06428706
v 0.00240230 0.00739366 0.06430852
v 0.00505722 0.00592124 0.06428670
v 0.00240624 0.00740564 0.06428706
v 0.00467652 0.00547552 0.06487315
v 0.00056497 -0.00717860 0.06487315
v 0.00133055 -0.00626057 0.06508749
v -0.00033498 -0.00639188 0.06508749
v 0.00326908 -0.00641596 0.06487315
v 0.00289953 -0.00570637 0.06508749
v 0.00133055 -0.00626057 0.06508749
v 0.00056497 -0.00717860 0.06487315
v 0.00326908 -0.00641596 0.06487315
v 0.00133055 -0.00626057 0.06508749
v 0.00326908 -0.00641596 0.06487315
v 0.00427246 -0.00476557 0.06508749
v 0.00289953 -0.00570637 0.06508749
v 0.00547552 -0.00467652 0.06487315
v 0.00536144 -0.00349605 0.06508749
v 0.00427246 -0.00476557 0.06508749
v 0.00326908 -0.00641596 0.06487315
v 0.00547552 -0.00467652 0.06487315
v 0.00427246 -0.00476557 0.06508749
v 0.00684839 -0.00222516 0.06487315
v 0.00608331 -0.00199067 0.06508749
v 0.00536144 -0.00349605 0.06508749
v 0.00547552 -0.00467652 0.06487315
v 0.00684839 -0.00222516 0.06487315
v 0.00536144 -0.00349605 0.06508749
v 0.00684839 -0.00222516 0.06487315
v 0.00639093 -0.00035194 0.06508749
v 0.00608331 -0.00199067 0.06508749
v 0.00717860 0.00056497 0.06487315
v 0.00626445 0.00131214 0.06508749
v 0.00639093 -0.00035194 0.06508749
v 0.00684839 -0.00222516 0.06487315
v 0.00717860 0.00056497 0.06487315
v 0.00639093 -0.00035194 0.06508749
v 0.00641596 0.00326908 0.06487315
v 0.00571334 0.00288558 0.06508749
v 0.00626445 0.00131214 0.06508749
v 0.00717860 0.00056497 0.06487315
v 0.00641596 0.00326908 0.06487315
v 0.00626445 0.00131214 0.06508749
v 0.00641596 0.00326908 0.06487315
v 0.00476944 0.00426811 0.06508749
v 0.00571334 0.00288558 0.06508749
v 0.00467652 0.00547552 0.06487315
v 0.00349236 0.00536382 0.06508749
v 0.00476944 0.00426811 0.06508749
v 0.00641596 0.00326908 0.06487315
v 0.00467652 0.00547552 0.06487315
v 0.00476944 0.00426811 0.06508749
v 0.00505722 0.00592124 0.06428670
v 0.00467652 0.00547552 0.06487315
v 0.00641596 0.00326908 0.06487315
v 0.00693828 0.00353521 0.06428670
v 0.00641596 0.00326908 0.06487315
v 0.00717860 0.00056497 0.06487315
v 0.00693828 0.00353521 0.06428670
v 0.00776297 0.00061096 0.06428670
v 0.00717860 0.00056497 0.06487315
v 0.00684839 -0.00222516 0.06487315
v 0.00776297 0.00061096 0.06428670
v 0.00684839 -0.00222516 0.06487315
v 0.00740588 -0.00240630 0.06428670
v 0.00547552 -0.00467652 0.06487315
vt 0.69273931 0.67411160
vt 0.81302172 0.67173678
vt 0.81302172 0.66733712
vt 0.22117120 0.30262911
vt 0.46137020 0.35962960
vt 0.45266950 0.38618401
vt 0.69273931 0.66889429
vt 0.69273931 0.67411160
vt 0.81302172 0.66733712
vt 0.81302172 0.65877450
vt 0.69273931 0.66889429
vt 0.81302172 0.66733712
vt 0.22087739 0.33419409
vt 0.46137020 0.27470031
vt 0.46137020 0.35962960
vt 0.22087739 0.33419409
vt 0.46137020 0.35962960
vt 0.22117120 0.30262911
vt 0.69273931 0.67411160
vt 0.81302172 0.67618543
vt 0.81302172 0.67173678
vt 0.23472160 0.26802760
vt 0.45266950 0.38618401
vt 0.43668351 0.41020569
vt 0.23472160 0.26802760
vt 0.22117120 0.30262911
vt 0.45266950 0.38618401
vt 0.69273931 0.67993671
vt 0.81302172 0.67993671
vt 0.81302172 0.67618543
vt 0.23472160 0.26802760
vt 0.43668351 0.41020569
vt 0.41929159 0.43246830
vt 0.69273931 0.67411160
vt 0.69273931 0.67993671
vt 0.81302172 0.67618543
vt 0.69273931 0.55844152
vt 0.81302172 0.56324321
vt 0.81302172 0.55844152
vt 0.26250380 0.24178021
vt 0.41929159 0.43246830
vt 0.39827371 0.44798771
vt 0.81302172 0.56784332
vt 0.69273931 0.55844152
vt 0.81302172 0.55844152
vt 0.26250380 0.24178021
vt 0.23472160 0.26802760
vt 0.41929159 0.43246830
vt 0.69273931 0.56823963
vt 0.81302172 0.57152963
vt 0.81302172 0.56324321
vt 0.30001101 0.22984891
vt 0.39827371 0.44798771
vt 0.32310221 0.47669020
vt 0.69273931 0.56302559
vt 0.69273931 0.56823963
vt 0.81302172 0.56324321
vt 0.69273931 0.55844152
vt 0.69273931 0.56302559
vt 0.81302172 0.56324321
vt 0.30001101 0.22984891
vt 0.26250380 0.24178021
vt 0.39827371 0.44798771
vt 0.69273931 0.57347310
vt 0.81302172 0.58004743
vt 0.81302172 0.57152963
vt 0.33186600 0.23343280
vt 0.32310221 0.47669020
vt 0.24094000 0.46296281
vt 0.69273931 0.56823963
vt 0.69273931 0.57347310
vt 0.81302172 0.57152963
vt 0.33186600 0.23343280
vt 0.30001101 0.22984891
vt 0.32310221 0.47669020
vt 0.69273931 0.58402342
vt 0.81302172 0.58860850
vt 0.81302172 0.58004743
vt 0.35895631 0.24682590
vt 0.24094000 0.46296281
vt 0.17823520 0.40870890
vt 0.69273931 0.57873392
vt 0.69273931 0.58402342
vt 0.81302172 0.58004743
vt 0.69273931 0.57347310
vt 0.69273931 0.57873392
vt 0.81302172 0.58004743
vt 0.35895631 0.24682590
vt 0.33186600 0.23343280
vt 0.24094000 0.46296281
vt 0.69273931 0.58930242
vt 0.81302172 0.59298569
vt 0.81302172 0.58860850
vt 0.38071731 0.26988921
vt 0.17823520 0.40870890
vt 0.16518500 0.38557839
vt 0.69273931 0.58402342
vt 0.69273931 0.58930242
vt 0.81302172 0.58860850
vt 0.38071731 0.26988921
vt 0.35895631 0.24682590
vt 0.17823520 0.40870890
vt 0.69273931 0.59459388
vt 0.81302172 0.59753329
vt 0.81302172 0.59298569
vt 0.38071731 0.26988921
vt 0.16518500 0.38557839
vt 0.15326700 0.36018631
vt 0.69273931 0.58930242
vt 0.69273931 0.59459388
vt 0.81302172 0.59298569
vt 0.69273931 0.60525012
vt 0.81302172 0.60625970
vt 0.81302172 0.59753329
vt 0.39289960 0.30092600
vt 0.15326700 0.36018631
vt 0.15324891 0.27557060
vt 0.69273931 0.59991789
vt 0.69273931 0.60525012
vt 0.81302172 0.59753329
vt 0.69273931 0.59459388
vt 0.69273931 0.59991789
vt 0.81302172 0.59753329
vt 0.39289960 0.30092600
vt 0.38071731 0.26988921
vt 0.15326700 0.36018631
vt 0.69273931 0.61061198
vt 0.81302172 0.60625970
vt 0.69273931 0.60525012
vt 0.81302172 0.61077952
vt 0.81302172 0.60625970
vt 0.69273931 0.61061198
vt 0.39259300 0.33238041
vt 0.15324891 0.27557060
vt 0.16192120 0.24911439
vt 0.39289960 0.30092600
vt 0.15324891 0.27557060
vt 0.39259300 0.33238041
vt 0.23236160 0.76670653
vt 0.22436540 0.79636222
vt 0.20901500 0.82280678
vt 0.18734390 0.84437340
vt 0.23236160 0.73591429
vt 0.16095170 0.85955930
vt 0.22440919 0.70633072
vt 0.13152620 0.86741620
vt 0.20912451 0.67992842
vt 0.10091910 0.86741161
vt 0.18752050 0.65834183
vt 0.07141053 0.85949892
vt 0.16109569 0.64308661
vt 0.04498571 0.84424371
vt 0.13158710 0.63517392
vt 0.02338176 0.82265723
vt 0.10098010 0.63516933
vt 0.00809711 0.79625481
vt 0.07155454 0.64302617
vt 0.00014467 0.76667118
vt 0.04516232 0.65821213
vt 0.00014466 0.73587900
vt 0.02349120 0.67977858
vt 0.00814080 0.70622343
vt 0.81302172 0.65877450
vt 0.69273931 0.66367239
vt 0.69273931 0.66889429
vt 0.81302172 0.65877450
vt 0.69273931 0.65842879
vt 0.69273931 0.66367239
vt 0.81302172 0.65427738
vt 0.69273931 0.65318501
vt 0.69273931 0.65842879
vt 0.81302172 0.65877450
vt 0.81302172 0.65427738
vt 0.69273931 0.65842879
vt 0.81302172 0.64992529
vt 0.69273931 0.64792103
vt 0.69273931 0.65318501
vt 0.81302172 0.65427738
vt 0.81302172 0.64992529
vt 0.69273931 0.65318501
vt 0.81302172 0.64134741
vt 0.69273931 0.64261538
vt 0.69273931 0.64792103
vt 0.81302172 0.64992529
vt 0.81302172 0.64134741
vt 0.69273931 0.64792103
vt 0.81302172 0.64134741
vt 0.69273931 0.63730597
vt 0.69273931 0.64261538
vt 0.81302172 0.63272530
vt 0.69273931 0.63199300
vt 0.69273931 0.63730597
vt 0.81302172 0.64134741
vt 0.81302172 0.63272530
vt 0.69273931 0.63730597
vt 0.81302172 0.62425190
vt 0.69273931 0.62666672
vt 0.69273931 0.63199300
vt 0.81302172 0.63272530
vt 0.81302172 0.62425190
vt 0.69273931 0.63199300
vt 0.81302172 0.62425190
vt 0.69273931 0.62134111
vt 0.69273931 0.62666672
vt 0.81302172 0.61992109
vt 0.69273931 0.61599052
vt 0.69273931 0.62134111
vt 0.81302172 0.62425190
vt 0.81302172 0.61992109
vt 0.69273931 0.62134111
vt 0.81302172 0.61537522
vt 0.69273931 0.61061198
vt 0.69273931 0.61599052
vt 0.81302172 0.61992109
vt 0.81302172 0.61537522
vt 0.69273931 0.61599052
vt 0.81302172 0.61537522
vt 0.81302172 0.61077952
vt 0.69273931 0.61061198
vt 0.37916881 0.36685011
vt 0.16192120 0.24911439
vt 0.17783859 0.22516391
vt 0.37916881 0.36685011
vt 0.39259300 0.33238041
vt 0.16192120 0.24911439
vt 0.37916881 0.36685011
vt 0.17783859 0.22516391
vt 0.19515970 0.20296399
vt 0.35159460 0.39304870
vt 0.19515970 0.20296399
vt 0.21609180 0.18745090
vt 0.35159460 0.39304870
vt 0.37916881 0.36685011
vt 0.19515970 0.20296399
vt 0.31428081 0.40509099
vt 0.21609180 0.18745090
vt 0.29105511 0.15833440
vt 0.31428081 0.40509099
vt 0.35159460 0.39304870
vt 0.21609180 0.18745090
vt 0.28239861 0.40168750
vt 0.29105511 0.15833440
vt 0.37336779 0.17174651
vt 0.28239861 0.40168750
vt 0.31428081 0.40509099
vt 0.29105511 0.15833440
vt 0.25514761 0.38840121
vt 0.37336779 0.17174651
vt 0.43632060 0.22602600
vt 0.25514761 0.38840121
vt 0.28239861 0.40168750
vt 0.37336779 0.17174651
vt 0.23322700 0.36530149
vt 0.43632060 0.22602600
vt 0.44941339 0.24922881
vt 0.23322700 0.36530149
vt 0.25514761 0.38840121
vt 0.43632060 0.22602600
vt 0.23322700 0.36530149
vt 0.44941339 0.24922881
vt 0.46137020 0.27470031
vt 0.22087739 0.33419409
vt 0.23322700 0.36530149
vt 0.46137020 0.27470031
vt 0.22888660 0.32817510
vt 0.22087739 0.33419409
vt 0.22117120 0.30262911
vt 0.23147319 0.29817501
vt 0.22117120 0.30262911
vt 0.23472160 0.26802760
vt 0.22888660 0.32817510
vt 0.22117120 0.30262911
vt 0.23147319 0.29817501
vt 0.38232651 0.33684251
vt 0.39259300 0.33238041
vt 0.37916881 0.36685011
vt 0.38489899 0.30691370
vt 0.39289960 0.30092600
vt 0.39259300 0.33238041
vt 0.38489899 0.30691370
vt 0.39259300 0.33238041
vt 0.38232651 0.33684251
vt 0.36856851 0.36530671
vt 0.37916881 0.36685011
vt 0.35159460 0.39304870
vt 0.38232651 0.33684251
vt 0.37916881 0.36685011
vt 0.36856851 0.36530671
vt 0.34423661 0.38633841
vt 0.35159460 0.39304870
vt 0.31428081 0.40509099
vt 0.36856851 0.36530671
vt 0.35159460 0.39304870
vt 0.34423661 0.38633841
vt 0.31357619 0.39581189
vt 0.31428081 0.40509099
vt 0.28239861 0.40168750
vt 0.34423661 0.38633841
vt 0.31428081 0.40509099
vt 0.31357619 0.39581189
vt 0.28350049 0.39297119
vt 0.28239861 0.40168750
vt 0.25514761 0.38840121
vt 0.31357619 0.39581189
vt 0.28239861 0.40168750
vt 0.28350049 0.39297119
vt 0.25747219 0.37929559
vt 0.25514761 0.38840121
vt 0.23322700 0.36530149
vt 0.28350049 0.39297119
vt 0.25514761 0.38840121
vt 0.25747219 0.37929559
vt 0.23829490 0.35674271
vt 0.23322700 0.36530149
vt 0.22087739 0.33419409
vt 0.25747219 0.37929559
vt 0.23322700 0.36530149
vt 0.23829490 0.35674271
vt 0.23829490 0.35674271
vt 0.22087739 0.33419409
vt 0.22888660 0.32817510
vt 0.24536800 0.26960641
vt 0.23472160 0.26802760
vt 0.26250380 0.24178021
vt 0.23147319 0.29817501
vt 0.23472160 0.26802760
vt 0.24536800 0.26960641
vt 0.26987770 0.24853970
vt 0.26250380 0.24178021
vt 0.30001101 0.22984891
vt 0.24536800 0.26960641
vt 0.26250380 0.24178021
vt 0.26987770 0.24853970
vt 0.30069020 0.23913750
vt 0.30001101 0.22984891
vt 0.33186600 0.23343280
vt 0.26987770 0.24853970
vt 0.30001101 0.22984891
vt 0.30069020 0.23913750
vt 0.33072409 0.24213010
vt 0.33186600 0.23343280
vt 0.35895631 0.24682590
vt 0.33072409 0.24213010
vt 0.30069020 0.23913750
vt 0.33186600 0.23343280
vt 0.35660291 0.25589281
vt 0.35895631 0.24682590
vt 0.38071731 0.26988921
vt 0.33072409 0.24213010
vt 0.35895631 0.24682590
vt 0.35660291 0.25589281
vt 0.37564141 0.27838460
vt 0.38071731 0.26988921
vt 0.39289960 0.30092600
vt 0.35660291 0.25589281
vt 0.38071731 0.26988921
vt 0.37564141 0.27838460
vt 0.37564141 0.27838460
vt 0.39289960 0.30092600
vt 0.38489899 0.30691370
vt 0.27689961 0.26442119
vt 0.30159870 0.24796280
vt 0.30248570 0.25592440
vt 0.32837829 0.25011021
vt 0.30248570 0.25592440
vt 0.30159870 0.24796280
vt 0.35741901 0.27946809
vt 0.27689961 0.26442119
vt 0.30248570 0.25592440
vt 0.33353579 0.26042789
vt 0.31844699 0.25615039
vt 0.32837829 0.25011021
vt 0.31844699 0.25615039
vt 0.30248570 0.25592440
vt 0.34672481 0.26834229
vt 0.33072409 0.24213010
vt 0.35660291 0.25589281
vt 0.32837829 0.25011021
vt 0.35660291 0.25589281
vt 0.37564141 0.27838460
vt 0.35161719 0.26230580
vt 0.27689961 0.26442119
vt 0.27425361 0.25609121
vt 0.30159870 0.24796280
vt 0.30076590 0.23971120
vt 0.30159870 0.24796280
vt 0.27425361 0.25609121
vt 0.33072409 0.24213010
vt 0.30159870 0.24796280
vt 0.30076590 0.23971120
vt 0.33072409 0.24213010
vt 0.32837829 0.25011021
vt 0.30159870 0.24796280
vt 0.27689961 0.26442119
vt 0.25234619 0.27492729
vt 0.27425361 0.25609121
vt 0.26987770 0.24853970
vt 0.27425361 0.25609121
vt 0.25234619 0.27492729
vt 0.30069020 0.23913750
vt 0.30076590 0.23971120
vt 0.27425361 0.25609121
vt 0.26987770 0.24853970
vt 0.30069020 0.23913750
vt 0.27425361 0.25609121
vt 0.25697941 0.28285369
vt 0.23959480 0.30027491
vt 0.25234619 0.27492729
vt 0.24536800 0.26960641
vt 0.25234619 0.27492729
vt 0.23959480 0.30027491
vt 0.27689961 0.26442119
vt 0.25697941 0.28285369
vt 0.25234619 0.27492729
vt 0.24536800 0.26960641
vt 0.24483161 0.32157391
vt 0.23716410 0.32720160
vt 0.23959480 0.30027491
vt 0.23147319 0.29817501
vt 0.23959480 0.30027491
vt 0.23716410 0.32720160
vt 0.24616240 0.30717409
vt 0.25697941 0.28285369
vt 0.24616240 0.30717409
vt 0.23959480 0.30027491
vt 0.23147319 0.29817501
vt 0.24694400 0.33575010
vt 0.24538240 0.35268861
vt 0.23716410 0.32720160
vt 0.22888660 0.32817510
vt 0.23716410 0.32720160
vt 0.24538240 0.35268861
vt 0.24483161 0.32157391
vt 0.24694400 0.33575010
vt 0.23716410 0.32720160
vt 0.22888660 0.32817510
vt 0.26046541 0.36032549
vt 0.26244599 0.37284750
vt 0.24538240 0.35268861
vt 0.23829490 0.35674271
vt 0.24538240 0.35268861
vt 0.26244599 0.37284750
vt 0.25226119 0.34890071
vt 0.26046541 0.36032549
vt 0.24538240 0.35268861
vt 0.24694400 0.33575010
vt 0.25226119 0.34890071
vt 0.24538240 0.35268861
vt 0.23829490 0.35674271
vt 0.28346649 0.37578619
vt 0.28581610 0.38496849
vt 0.26244599 0.37284750
vt 0.25747219 0.37929559
vt 0.26244599 0.37284750
vt 0.28581610 0.38496849
vt 0.27101910 0.36943951
vt 0.26046541 0.36032549
vt 0.27101910 0.36943951
vt 0.26244599 0.37284750
vt 0.25747219 0.37929559
vt 0.35161719 0.26230580
vt 0.28350049 0.39297119
vt 0.28581610 0.38496849
vt 0.31266770 0.38711491
vt 0.31176761 0.37903541
vt 0.31266770 0.38711491
vt 0.28581610 0.38496849
vt 0.29729921 0.37907091
vt 0.31176761 0.37903541
vt 0.28581610 0.38496849
vt 0.28346649 0.37578619
vt 0.29729921 0.37907091
vt 0.28581610 0.38496849
vt 0.28350049 0.39297119
vt 0.37564141 0.27838460
vt 0.38489899 0.30691370
vt 0.36857021 0.28239071
vt 0.31349871 0.39523920
vt 0.28350049 0.39297119
vt 0.31266770 0.38711491
vt 0.33986029 0.37882599
vt 0.31349871 0.39523920
vt 0.31266770 0.38711491
vt 0.33986029 0.37882599
vt 0.31266770 0.38711491
vt 0.32806531 0.37490690
vt 0.32806531 0.37490690
vt 0.31266770 0.38711491
vt 0.31176761 0.37903541
vt 0.28346649 0.37578619
vt 0.31176761 0.37903541
vt 0.29729921 0.37907091
vt 0.27101910 0.36943951
vt 0.32806531 0.37490690
vt 0.26046541 0.36032549
vt 0.34300059 0.36654791
vt 0.25226119 0.34890071
vt 0.24694400 0.33575010
vt 0.35512340 0.35467339
vt 0.24483161 0.32157391
vt 0.36357719 0.34020281
vt 0.24616240 0.30717409
vt 0.36823609 0.32448509
vt 0.25697941 0.28285369
vt 0.36493000 0.29320320
vt 0.36870110 0.30857700
vt 0.33072409 0.24213010
vt 0.30076590 0.23971120
vt 0.30069020 0.23913750
vt 0.31349871 0.39523920
vt 0.31357619 0.39581189
vt 0.28350049 0.39297119
vt 0.33986029 0.37882599
vt 0.31357619 0.39581189
vt 0.31349871 0.39523920
vt 0.34423661 0.38633841
vt 0.31357619 0.39581189
vt 0.33986029 0.37882599
vt 0.32837829 0.25011021
vt 0.33353579 0.26042789
vt 0.31844699 0.25615039
vt 0.35161719 0.26230580
vt 0.34672481 0.26834229
vt 0.33353579 0.26042789
vt 0.32837829 0.25011021
vt 0.35161719 0.26230580
vt 0.33353579 0.26042789
vt 0.35161719 0.26230580
vt 0.35741901 0.27946809
vt 0.34672481 0.26834229
vt 0.36857021 0.28239071
vt 0.36493000 0.29320320
vt 0.35741901 0.27946809
vt 0.35161719 0.26230580
vt 0.36857021 0.28239071
vt 0.35741901 0.27946809
vt 0.37663281 0.30786759
vt 0.36870110 0.30857700
vt 0.36493000 0.29320320
vt 0.36857021 0.28239071
vt 0.37663281 0.30786759
vt 0.36493000 0.29320320
vt 0.37663281 0.30786759
vt 0.36823609 0.32448509
vt 0.36870110 0.30857700
vt 0.37422380 0.33476979
vt 0.36357719 0.34020281
vt 0.36823609 0.32448509
vt 0.37663281 0.30786759
vt 0.37422380 0.33476979
vt 0.36823609 0.32448509
vt 0.36160901 0.36002871
vt 0.35512340 0.35467339
vt 0.36357719 0.34020281
vt 0.37422380 0.33476979
vt 0.36160901 0.36002871
vt 0.36357719 0.34020281
vt 0.36160901 0.36002871
vt 0.34300059 0.36654791
vt 0.35512340 0.35467339
vt 0.33986029 0.37882599
vt 0.32806531 0.37490690
vt 0.34300059 0.36654791
vt 0.36160901 0.36002871
vt 0.33986029 0.37882599
vt 0.34300059 0.36654791
vt 0.34423661 0.38633841
vt 0.33986029 0.37882599
vt 0.36160901 0.36002871
vt 0.36856851 0.36530671
vt 0.36160901 0.36002871
vt 0.37422380 0.33476979
vt 0.36856851 0.36530671
vt 0.38232651 0.33684251
vt 0.37422380 0.33476979
vt 0.37663281 0.30786759
vt 0.38232651 0.33684251
vt 0.37663281 0.30786759
vt 0.38489899 0.30691370
vt 0.36857021 0.28239071
f 1/1 2/2 3/3
f 4/4 5/5 6/6
f 7/7 8/8 9/9
f 10/10 11/11 12/12
f 13/13 14/14 15/15
f 16/16 17/17 18/18
f 19/19 20/20 21/21
f 22/22 23/23 24/24
f 25/25 26/26 27/27
f 28/28 29/29 30/30
f 31/31 32/32 33/33
f 34/34 35/35 36/36
f 37/37 38/38 39/39
f 40/40 41/41 42/42
f 43/43 44/44 45/45
f 46/46 47/47 48/48
f 49/49 50/50 51/51
f 52/52 53/53 54/54
f 55/55 56/56 57/57
f 58/58 59/59 60/60
f 61/61 62/62 63/63
f 64/64 65/65 66/66
f 67/67 68/68 69/69
f 70/70 71/71 72/72
f 73/73 74/74 75/75
f 76/76 77/77 78/78
f 79/79 80/80 81/81
f 82/82 83/83 84/84
f 85/85 86/86 87/87
f 88/88 89/89 90/90
f 91/91 92/92 93/93
f 94/94 95/95 96/96
f 97/97 98/98 99/99
f 100/100 101/101 102/102
f 103/103 104/104 105/105
f 106/106 107/107 108/108
f 109/109 110/110 111/111
f 112/112 113/113 114/114
f 115/115 116/116 117/117
f 118/118 119/119 120/120
f 121/121 122/122 123/123
f 124/124 125/125 126/126
f 127/127 128/128 129/129
f 130/130 131/131 132/132
f 133/133 134/134 135/135
f 136/136 137/137 138/138
f 139/139 140/140 141/141
f 139/139 141/141 142/142
f 143/143 142/142 144/144
f 139/139 142/142 143/143
f 145/145 144/144 146/146
f 143/143 144/144 145/145
f 147/147 146/146 148/148
f 145/145 146/146 147/147
f 149/149 148/148 150/150
f 147/147 148/148 149/149
f 151/151 150/150 152/152
f 149/149 150/150 151/151
f 153/153 152/152 154/154
f 151/151 152/152 153/153
f 155/155 154/154 156/156
f 153/153 154/154 155/155
f 157/157 156/156 158/158
f 155/155 156/156 157/157
f 159/159 158/158 160/160
f 157/157 158/158 159/159
f 161/161 160/160 162/162
f 159/159 160/160 161/161
f 163/163 164/164 165/165
f 166/166 167/167 168/168
f 169/169 170/170 171/171
f 172/172 173/173 174/174
f 175/175 176/176 177/177
f 178/178 179/179 180/180
f 181/181 182/182 183/183
f 184/184 185/185 186/186
f 187/187 188/188 189/189
f 190/190 191/191 192/192
f 193/193 194/194 195/195
f 196/196 197/197 198/198
f 199/199 200/200 201/201
f 202/202 203/203 204/204
f 205/205 206/206 207/207
f 208/208 209/209 210/210
f 211/211 212/212 213/213
f 214/214 215/215 216/216
f 217/217 218/218 219/219
f 220/220 221/221 222/222
f 223/223 224/224 225/225
f 226/226 227/227 228/228
f 229/229 230/230 231/231
f 232/232 233/233 234/234
f 235/235 236/236 237/237
f 238/238 239/239 240/240
f 241/241 242/242 243/243
f 244/244 245/245 246/246
f 247/247 248/248 249/249
f 250/250 251/251 252/252
f 253/253 254/254 255/255
f 256/256 257/257 258/258
f 259/259 260/260 261/261
f 262/262 263/263 264/264
f 265/265 266/266 267/267
f 268/268 269/269 270/270
f 271/271 272/272 273/273
f 274/274 275/275 276/276
f 277/277 278/278 279/279
f 280/280 281/281 282/282
f 283/283 284/284 285/285
f 286/286 287/287 288/288
f 289/289 290/290 291/291
f 292/292 293/293 294/294
f 295/295 296/296 297/297
f 298/298 299/299 300/300
f 301/301 302/302 303/303
f 304/304 305/305 306/306
f 307/307 308/308 309/309
f 310/310 311/311 312/312
f 313/313 314/314 315/315
f 316/316 317/317 318/318
f 319/319 320/320 321/321
f 322/322 323/323 324/324
f 325/325 326/326 327/327
f 328/328 329/329 330/330
f 331/331 332/332 333/333
f 334/334 335/335 336/336
f 337/337 338/338 339/339
f 340/340 341/341 342/342
f 343/343 344/344 345/345
f 346/346 347/347 348/348
f 349/349 350/350 351/351
f 352/352 353/353 354/354
f 355/355 356/356 357/357
f 358/358 359/359 360/360
f 361/361 362/362 363/363
f 364/364 365/365 366/366
f 367/367 368/368 369/369
f 370/370 369/369 371/371
f 372/372 373/373 374/374
f 375/375 369/369 370/370
f 367/367 369/369 375/375
f 376/376 377/377 378/378
f 379/379 380/380 381/381
f 382/382 383/383 384/384
f 385/385 386/386 387/387
f 388/388 389/389 390/390
f 391/391 392/392 393/393
f 394/394 395/395 396/396
f 397/397 398/398 399/399
f 400/400 401/401 402/402
f 403/403 404/404 405/405
f 406/406 407/407 408/408
f 409/409 410/410 411/411
f 412/412 413/413 414/414
f 415/415 397/397 399/399
f 416/416 417/417 418/418
f 419/419 420/420 421/421
f 422/422 416/416 418/418
f 423/423 424/424 425/425
f 426/426 409/409 411/411
f 427/427 428/428 429/429
f 430/430 431/431 432/432
f 433/433 434/434 435/435
f 436/436 419/419 421/421
f 437/437 438/438 439/439
f 440/440 441/441 442/442
f 443/443 444/444 445/445
f 446/446 447/447 448/448
f 449/449 430/430 432/432
f 450/450 451/451 452/452
f 453/453 454/454 455/455
f 456/456 450/450 452/452
f 457/457 458/458 459/459
f 460/460 440/440 442/442
f 377/377 461/461 378/378
f 462/462 463/463 464/464
f 465/465 466/466 467/467
f 468/468 469/469 470/470
f 471/471 472/472 473/473
f 474/474 453/453 455/455
f 475/475 476/476 477/477
f 478/478 479/479 480/480
f 481/481 482/482 483/483
f 484/484 485/485 486/486
f 487/487 488/488 489/489
f 490/490 491/491 492/492
f 493/493 491/491 490/490
f 494/494 491/491 493/493
f 494/494 493/493 495/495
f 496/496 495/495 497/497
f 494/494 495/495 496/496
f 496/496 497/497 498/498
f 499/499 498/498 500/500
f 496/496 498/498 499/499
f 501/501 500/500 502/502
f 499/499 500/500 501/501
f 503/503 502/502 504/504
f 501/501 502/502 503/503
f 505/505 504/504 368/368
f 506/506 504/504 505/505
f 503/503 504/504 506/506
f 505/505 368/368 367/367
f 507/507 508/508 509/509
f 510/510 511/511 512/512
f 513/513 514/514 515/515
f 516/516 517/517 518/518
f 519/519 520/520 521/521
f 522/522 523/523 524/524
f 525/525 526/526 527/527
f 528/528 529/529 530/530
f 531/531 532/532 533/533
f 534/534 535/535 536/536
f 537/537 538/538 539/539
f 540/540 541/541 542/542
f 543/543 544/544 545/545
f 546/546 547/547 548/548
f 549/549 550/550 551/551
f 552/552 553/553 554/554
f 555/555 556/556 557/557
f 558/558 559/559 560/560
f 561/561 562/562 563/563
f 564/564 565/565 566/566
f 567/567 568/568 569/569
f 570/570 571/571 572/572
f 573/573 567/567 569/569
f 574/574 575/575 576/576
f 577/577 570/570 572/572
f 476/476 578/578 477/477
f 579/579 574/574 576/576
f 380/380 580/580 381/381
