mtllib material.mtl
usemtl material_forearm_0
v 0.05639337 -0.01255995 0.07906514
v 0.05604757 -0.01485513 0.07607456
v 0.05758457 -0.00655039 0.07607436
v 0.05604757 -0.01485513 0.07607456
v 0.05639337 -0.01255995 0.07906514
v 0.05334707 -0.02279455 0.07608141
v 0.05639337 -0.01255995 0.07906514
v 0.05404315 -0.02053333 0.07906420
v 0.05334707 -0.02279455 0.07608141
v 0.05334707 -0.02279455 0.07608141
v 0.05404315 -0.02053333 0.07906420
v 0.05014563 -0.02883390 0.07904670
v 0.05334707 -0.02279455 0.07608141
v 0.05014563 -0.02883390 0.07904670
v 0.04943678 -0.03040362 0.07607251
v 0.04943678 -0.03040362 0.07607251
v 0.05014563 -0.02883390 0.07904670
v 0.04550882 -0.03571772 0.07908806
v 0.04943678 -0.03040362 0.07607251
v 0.04550882 -0.03571772 0.07908806
v 0.04412135 -0.03777033 0.07607259
v 0.04412135 -0.03777033 0.07607259
v 0.04550882 -0.03571772 0.07908806
v 0.04013841 -0.04168973 0.07902602
v 0.04412135 -0.03777033 0.07607259
v 0.04013841 -0.04168973 0.07902602
v 0.03703295 -0.04470187 0.07607506
v 0.04013841 -0.04168973 0.07902602
v 0.03376620 -0.04705275 0.07902385
v 0.03703295 -0.04470187 0.07607506
v 0.03703295 -0.04470187 0.07607506
v 0.03376620 -0.04705275 0.07902385
v 0.03013355 -0.04963551 0.07607577
v 0.01676511 -0.05565624 0.07608223
v 0.02458902 -0.05265491 0.07607414
v 0.02659904 -0.05143431 0.07907924
v 0.02659904 -0.05143431 0.07907924
v 0.02458902 -0.05265491 0.07607414
v 0.03013355 -0.04963551 0.07607577
v 0.02659904 -0.05143431 0.07907924
v 0.03013355 -0.04963551 0.07607577
v 0.03376620 -0.04705275 0.07902385
v 0.02659904 -0.05143431 0.07907924
v 0.01898225 -0.05472712 0.07907233
v 0.01676511 -0.05565624 0.07608223
v 0.01676511 -0.05565624 0.07608223
v 0.01898225 -0.05472712 0.07907233
v 0.01007198 -0.05706293 0.07904725
v 0.01676511 -0.05565624 0.07608223
v 0.01007198 -0.05706293 0.07904725
v 0.01046780 -0.05714090 0.07607456
v 0.01046780 -0.05714090 0.07607456
v 0.01007198 -0.05706293 0.07904725
v 0.00415688 -0.05798514 0.07608227
v 0.00415688 -0.05798514 0.07608227
v 0.01007198 -0.05706293 0.07904725
v 0.00187090 -0.05789901 0.07908667
v 0.00415688 -0.05798514 0.07608227
v 0.00187090 -0.05789901 0.07908667
v -0.00295833 -0.05802969 0.07614441
v -0.01051432 -0.05713254 0.07607541
v -0.00295833 -0.05802969 0.07614441
v -0.01454100 -0.05610993 0.07893481
v -0.01051432 -0.05713254 0.07607541
v -0.01454100 -0.05610993 0.07893481
v -0.01871859 -0.05498611 0.07607580
v -0.01454100 -0.05610993 0.07893481
v -0.02231456 -0.05343573 0.07909128
v -0.01871859 -0.05498611 0.07607580
v -0.01871859 -0.05498611 0.07607580
v -0.02231456 -0.05343573 0.07909128
v -0.02458891 -0.05265496 0.07607380
v -0.02458891 -0.05265496 0.07607380
v -0.02231456 -0.05343573 0.07909128
v -0.03189563 -0.04856463 0.07608291
v -0.02231456 -0.05343573 0.07909128
v -0.02972905 -0.04968951 0.07907840
v -0.03189563 -0.04856463 0.07608291
v -0.03189563 -0.04856463 0.07608291
v -0.02972905 -0.04968951 0.07907840
v -0.03715824 -0.04460882 0.07609968
v -0.04175226 -0.04036377 0.07608137
v -0.03715824 -0.04460882 0.07609968
v -0.04319575 -0.03850265 0.07907370
v -0.04175226 -0.04036377 0.07608137
v -0.04319575 -0.03850265 0.07907370
v -0.04584221 -0.03555906 0.07607264
v -0.04584221 -0.03555906 0.07607264
v -0.04319575 -0.03850265 0.07907370
v -0.04820985 -0.03191957 0.07910118
v -0.04584221 -0.03555906 0.07607264
v -0.04820985 -0.03191957 0.07910118
v -0.05048513 -0.02853877 0.07607565
v -0.05725740 -0.00877687 0.07608276
v -0.05706446 -0.00893230 0.07908654
v -0.05789383 -0.00232846 0.07607348
v -0.05789383 -0.00232846 0.07607348
v -0.05706446 -0.00893230 0.07908654
v -0.05773980 -0.00020047 0.07898018
v -0.04820985 -0.03191957 0.07910118
v -0.05232204 -0.02470405 0.07892312
v -0.05048513 -0.02853877 0.07607565
v -0.05048513 -0.02853877 0.07607565
v -0.05232204 -0.02470405 0.07892312
v -0.05408141 -0.02086416 0.07607850
v -0.05408141 -0.02086416 0.07607850
v -0.05232204 -0.02470405 0.07892312
v -0.05597493 -0.01516983 0.07612942
v -0.05725740 -0.00877687 0.07608276
v -0.05597493 -0.01516983 0.07612942
v -0.05706446 -0.00893230 0.07908654
v -0.05789383 -0.00232846 0.07607348
v -0.05773980 -0.00020047 0.07898018
v -0.05758581 0.00612445 0.07607493
v -0.05758581 0.00612445 0.07607493
v -0.05773980 -0.00020047 0.07898018
v -0.05706456 0.00853602 0.07908543
v -0.05758581 0.00612445 0.07607493
v -0.05706456 0.00853602 0.07908543
v -0.05652152 0.01233848 0.07607264
v -0.05652152 0.01233848 0.07607264
v -0.05706456 0.00853602 0.07908543
v -0.05423582 0.02010550 0.07610740
v -0.05423582 0.02010550 0.07610740
v -0.05232736 0.02427754 0.07893415
v -0.05047954 0.02814734 0.07607776
v -0.05047954 0.02814734 0.07607776
v -0.05232736 0.02427754 0.07893415
v -0.04728873 0.03328436 0.07611494
v -0.04728873 0.03328436 0.07611494
v -0.04318403 0.03811123 0.07907714
v -0.04169883 0.04001562 0.07607502
v -0.04169883 0.04001562 0.07607502
v -0.04318403 0.03811123 0.07907714
v -0.03721309 0.04396213 0.07905506
v -0.04169883 0.04001562 0.07607502
v -0.03721309 0.04396213 0.07905506
v -0.03542370 0.04564126 0.07607443
v -0.03542370 0.04564126 0.07607443
v -0.03721309 0.04396213 0.07905506
v -0.02975312 0.04927791 0.07906150
v -0.03542370 0.04564126 0.07607443
v -0.02975312 0.04927791 0.07906150
v -0.02780191 0.05064455 0.07607166
v -0.02780191 0.05064455 0.07607166
v -0.02975312 0.04927791 0.07906150
v -0.02238781 0.05299890 0.07910164
v -0.02780191 0.05064455 0.07607166
v -0.02238781 0.05299890 0.07910164
v -0.01870172 0.05459046 0.07607584
v -0.01870172 0.05459046 0.07607584
v -0.02238781 0.05299890 0.07910164
v -0.01450834 0.05576503 0.07885685
v -0.01870172 0.05459046 0.07607584
v -0.01450834 0.05576503 0.07885685
v -0.01050512 0.05673300 0.07607694
v -0.01050512 0.05673300 0.07607694
v -0.01450834 0.05576503 0.07885685
v -0.00444488 0.05756755 0.07611728
v -0.00444488 0.05756755 0.07611728
v 0.00177957 0.05749690 0.07908618
v 0.00412146 0.05758770 0.07608434
v 0.00412146 0.05758770 0.07608434
v 0.00177957 0.05749690 0.07908618
v 0.01008121 0.05665766 0.07906179
v 0.00412146 0.05758770 0.07608434
v 0.01008121 0.05665766 0.07906179
v 0.01046776 0.05674000 0.07607456
v 0.01046776 0.05674000 0.07607456
v 0.01008121 0.05665766 0.07906179
v 0.01673462 0.05526371 0.07607847
v 0.01673462 0.05526371 0.07607847
v 0.01008121 0.05665766 0.07906179
v 0.01897856 0.05432834 0.07906185
v 0.01673462 0.05526371 0.07607847
v 0.01897856 0.05432834 0.07906185
v 0.02265918 0.05307535 0.07607335
v 0.02265918 0.05307535 0.07607335
v 0.01897856 0.05432834 0.07906185
v 0.02653609 0.05105920 0.07909362
v 0.02265918 0.05307535 0.07607335
v 0.02653609 0.05105920 0.07909362
v 0.03014973 0.04922408 0.07607579
v 0.03014973 0.04922408 0.07607579
v 0.02653609 0.05105920 0.07909362
v 0.03383921 0.04664317 0.07897299
v 0.03014973 0.04922408 0.07607579
v 0.03383921 0.04664317 0.07897299
v 0.03821403 0.04336350 0.07607428
v 0.03821403 0.04336350 0.07607428
v 0.03383921 0.04664317 0.07897299
v 0.03997767 0.04149912 0.07896073
v 0.03821403 0.04336350 0.07607428
v 0.03997767 0.04149912 0.07896073
v 0.04452529 0.03686207 0.07607567
v 0.04452529 0.03686207 0.07607567
v 0.03997767 0.04149912 0.07896073
v 0.04552391 0.03527292 0.07910579
v 0.04452529 0.03686207 0.07607567
v 0.04552391 0.03527292 0.07910579
v 0.04943805 0.03000022 0.07607201
v 0.04552391 0.03527292 0.07910579
v 0.05011190 0.02849075 0.07906072
v 0.04943805 0.03000022 0.07607201
v 0.04943805 0.03000022 0.07607201
v 0.05011190 0.02849075 0.07906072
v 0.05333455 0.02242121 0.07607746
v 0.05333455 0.02242121 0.07607746
v 0.05011190 0.02849075 0.07906072
v 0.05403264 0.02015321 0.07906747
v 0.05333455 0.02242121 0.07607746
v 0.05403264 0.02015321 0.07906747
v 0.05604706 0.01445698 0.07607479
v 0.05604706 0.01445698 0.07607479
v 0.05403264 0.02015321 0.07906747
v 0.05641364 0.01208003 0.07906108
v 0.05604706 0.01445698 0.07607479
v 0.05641364 0.01208003 0.07906108
v 0.05728165 0.00821325 0.07607370
v 0.05728165 0.00821325 0.07607370
v 0.05641364 0.01208003 0.07906108
v 0.05763452 0.00382645 0.07894577
v 0.05728165 0.00821325 0.07607370
v 0.05763452 0.00382645 0.07894577
v 0.05789458 -0.00020939 0.07607838
v 0.05789458 -0.00020939 0.07607838
v 0.05763452 0.00382645 0.07894577
v 0.05758457 -0.00655039 0.07607436
v 0.05758457 -0.00655039 0.07607436
v 0.05763452 0.00382645 0.07894577
v 0.05759589 -0.00412876 0.07906575
v 0.05758457 -0.00655039 0.07607436
v 0.05759589 -0.00412876 0.07906575
v 0.05639337 -0.01255995 0.07906514
v -0.04143765 0.01488163 0.50846779
v -0.04057012 0.01959877 0.50846840
v -0.04342709 0.00745691 0.50846779
v -0.04504776 0.00395056 0.50846639
v -0.04409702 -0.00020044 0.50846779
v -0.04342708 -0.00785781 0.50846779
v -0.04342708 -0.00785781 0.50846779
v -0.04504776 0.00395056 0.50846639
v -0.04340867 -0.01249321 0.50846410
v -0.04340867 -0.01249321 0.50846410
v -0.04143764 -0.01528250 0.50846779
v -0.04143764 -0.01528250 0.50846779
v -0.03818914 -0.02224895 0.50846779
v -0.03718842 -0.02581393 0.50846300
v -0.03818914 -0.02224895 0.50846779
v -0.03718842 -0.02581393 0.50846300
v -0.03378026 -0.02854546 0.50846779
v -0.03378026 -0.02854546 0.50846779
v -0.03718842 -0.02581393 0.50846300
v -0.02834501 -0.03398070 0.50846779
v -0.02632970 -0.03687835 0.50845980
v -0.02834501 -0.03398070 0.50846779
v -0.02632970 -0.03687835 0.50845980
v -0.02204850 -0.03838956 0.50846779
v -0.02204850 -0.03838956 0.50846779
v -0.02632970 -0.03687835 0.50845980
v -0.01508206 -0.04163806 0.50846779
v -0.01508206 -0.04163806 0.50846779
v -0.02632970 -0.03687835 0.50845980
v -0.01223885 -0.04366915 0.50847078
v -0.00765736 -0.04362751 0.50846779
v -0.00765736 -0.04362751 0.50846779
v -0.01223885 -0.04366915 0.50847078
v 0.00000000 -0.04429743 0.50846779
v 0.00000000 -0.04429743 0.50846779
v 0.00386993 -0.04519509 0.50846898
v 0.00765737 -0.04362751 0.50846779
v 0.01508207 -0.04163805 0.50846779
v 0.01878709 -0.04126514 0.50846910
v 0.02204851 -0.03838954 0.50846779
v 0.02834500 -0.03398068 0.50846779
v 0.03151848 -0.03253189 0.50846910
v 0.03378026 -0.02854544 0.50846779
v 0.03818912 -0.02224893 0.50846779
v 0.04057012 -0.01999961 0.50846840
v 0.04143763 -0.01528248 0.50846779
v 0.04342706 -0.00785779 0.50846779
v 0.04504774 -0.00435141 0.50846639
v 0.04409699 -0.00020042 0.50846779
v 0.04342705 0.00745694 0.50846779
v 0.04342705 0.00745694 0.50846779
v 0.04504774 -0.00435141 0.50846639
v 0.04340865 0.01209232 0.50846410
v 0.04340865 0.01209232 0.50846410
v 0.04143762 0.01488165 0.50846779
v 0.04143762 0.01488165 0.50846779
v 0.03818911 0.02184808 0.50846779
v 0.03718842 0.02541302 0.50846300
v 0.03818911 0.02184808 0.50846779
v 0.03718842 0.02541302 0.50846300
v 0.03378024 0.02814459 0.50846779
v 0.03378024 0.02814459 0.50846779
v 0.03718842 0.02541302 0.50846300
v 0.02834498 0.03357983 0.50846779
v 0.02834498 0.03357983 0.50846779
v 0.03718842 0.02541302 0.50846300
v 0.02564363 0.03695141 0.50843169
v 0.02834498 0.03357983 0.50846779
v 0.02564363 0.03695141 0.50843169
v 0.02204848 0.03798871 0.50846779
v 0.02204848 0.03798871 0.50846779
v 0.02564363 0.03695141 0.50843169
v 0.01508204 0.04123721 0.50846779
v 0.01508204 0.04123721 0.50846779
v 0.02564363 0.03695141 0.50843169
v 0.01223876 0.04326830 0.50847078
v 0.01508204 0.04123721 0.50846779
v 0.01223876 0.04326830 0.50847078
v 0.00765734 0.04322664 0.50846779
v 0.00765734 0.04322664 0.50846779
v 0.01223876 0.04326830 0.50847078
v -0.00000003 0.04389657 0.50846779
v -0.00000003 0.04389657 0.50846779
v -0.00387004 0.04479422 0.50846898
v -0.00765739 0.04322664 0.50846779
v -0.01508209 0.04123720 0.50846779
v -0.01878718 0.04086425 0.50846910
v -0.02204853 0.03798869 0.50846779
v -0.02834503 0.03357982 0.50846779
v -0.03151849 0.03213105 0.50846910
v -0.03378028 0.02814457 0.50846779
v -0.03818915 0.02184806 0.50846779
v -0.05232204 -0.02470405 0.07892312
v -0.05490358 -0.01678650 0.07960885
v -0.05597493 -0.01516983 0.07612942
v -0.01450834 0.05576503 0.07885685
v -0.00630024 0.05681662 0.07958596
v -0.00444488 0.05756755 0.07611728
v -0.05232736 0.02427754 0.07893415
v -0.04785007 0.03145924 0.07956047
v -0.04728873 0.03328436 0.07611494
v -0.05706446 -0.00893230 0.07908654
v -0.05597493 -0.01516983 0.07612942
v -0.05490358 -0.01678650 0.07960885
v -0.04319575 -0.03850265 0.07907370
v -0.03715824 -0.04460882 0.07609968
v -0.03698562 -0.04432604 0.07930416
v -0.03698562 -0.04432604 0.07930416
v -0.03715824 -0.04460882 0.07609968
v -0.02972905 -0.04968951 0.07907840
v -0.00649319 -0.05741101 0.07929905
v -0.01454100 -0.05610993 0.07893481
v -0.00295833 -0.05802969 0.07614441
v 0.00187090 -0.05789901 0.07908667
v -0.00649319 -0.05741101 0.07929905
v -0.00295833 -0.05802969 0.07614441
v 0.00177957 0.05749690 0.07908618
v -0.00444488 0.05756755 0.07611728
v -0.00630024 0.05681662 0.07958596
v -0.04318403 0.03811123 0.07907714
v -0.04728873 0.03328436 0.07611494
v -0.04785007 0.03145924 0.07956047
v -0.05503549 0.01670942 0.07930842
v -0.05232736 0.02427754 0.07893415
v -0.05423582 0.02010550 0.07610740
v -0.05706456 0.00853602 0.07908543
v -0.05503549 0.01670942 0.07930842
v -0.05423582 0.02010550 0.07610740
v 0.04431967 -0.00752910 0.50574023
v 0.04504774 -0.00435141 0.50846639
v 0.04249913 -0.01473199 0.50572784
v 0.04249913 -0.01473199 0.50572784
v 0.04504774 -0.00435141 0.50846639
v 0.04057012 -0.01999961 0.50846840
v 0.04249913 -0.01473199 0.50572784
v 0.04057012 -0.01999961 0.50846840
v 0.03951533 -0.02153851 0.50571664
v 0.03951533 -0.02153851 0.50571664
v 0.04057012 -0.01999961 0.50846840
v 0.03544823 -0.02776197 0.50570553
v 0.03544823 -0.02776197 0.50570553
v 0.04057012 -0.01999961 0.50846840
v 0.03151848 -0.03253189 0.50846910
v 0.03544823 -0.02776197 0.50570553
v 0.03151848 -0.03253189 0.50846910
v 0.03040773 -0.03323091 0.50569363
v 0.03040773 -0.03323091 0.50569363
v 0.03151848 -0.03253189 0.50846910
v 0.02453091 -0.03779391 0.50568005
v 0.02453091 -0.03779391 0.50568005
v 0.03151848 -0.03253189 0.50846910
v 0.01878709 -0.04126514 0.50846910
v 0.02453091 -0.03779391 0.50568005
v 0.01878709 -0.04126514 0.50846910
v 0.01789604 -0.04135482 0.50563223
v 0.01789604 -0.04135482 0.50563223
v 0.01878709 -0.04126514 0.50846910
v 0.01084701 -0.04373795 0.50560003
v 0.01084701 -0.04373795 0.50560003
v 0.01878709 -0.04126514 0.50846910
v 0.00386993 -0.04519509 0.50846898
v 0.01084701 -0.04373795 0.50560003
v 0.00386993 -0.04519509 0.50846898
v 0.00348551 -0.04492391 0.50557302
v 0.00348551 -0.04492391 0.50557302
v 0.00386993 -0.04519509 0.50846898
v -0.00419745 -0.04481752 0.50553833
v -0.00419745 -0.04481752 0.50553833
v 0.00386993 -0.04519509 0.50846898
v -0.01223885 -0.04366915 0.50847078
v -0.00419745 -0.04481752 0.50553833
v -0.01223885 -0.04366915 0.50847078
v -0.01171119 -0.04356475 0.50563192
v -0.01223885 -0.04366915 0.50847078
v -0.01850635 -0.04117811 0.50574593
v -0.01171119 -0.04356475 0.50563192
v -0.03084737 -0.03280370 0.50567553
v -0.02502499 -0.03747403 0.50571703
v -0.02632970 -0.03687835 0.50845980
v -0.02632970 -0.03687835 0.50845980
v -0.02502499 -0.03747403 0.50571703
v -0.01223885 -0.04366915 0.50847078
v -0.01223885 -0.04366915 0.50847078
v -0.02502499 -0.03747403 0.50571703
v -0.01850635 -0.04117811 0.50574593
v -0.03979550 -0.02103105 0.50553582
v -0.03608532 -0.02697089 0.50550195
v -0.03718842 -0.02581393 0.50846300
v -0.03718842 -0.02581393 0.50846300
v -0.03608532 -0.02697089 0.50550195
v -0.02632970 -0.03687835 0.50845980
v -0.02632970 -0.03687835 0.50845980
v -0.03608532 -0.02697089 0.50550195
v -0.03084737 -0.03280370 0.50567553
v -0.03979550 -0.02103105 0.50553582
v -0.03718842 -0.02581393 0.50846300
v -0.04356085 -0.01173419 0.50575014
v -0.04356085 -0.01173419 0.50575014
v -0.03718842 -0.02581393 0.50846300
v -0.04340867 -0.01249321 0.50846410
v -0.04356085 -0.01173419 0.50575014
v -0.04340867 -0.01249321 0.50846410
v -0.04504776 0.00395056 0.50846639
v -0.04356085 -0.01173419 0.50575014
v -0.04504776 0.00395056 0.50846639
v -0.04473073 -0.00151619 0.50510724
v -0.04473073 -0.00151619 0.50510724
v -0.04504776 0.00395056 0.50846639
v -0.04437621 0.00618889 0.50527704
v -0.04437621 0.00618889 0.50527704
v -0.04504776 0.00395056 0.50846639
v -0.04268944 0.01347001 0.50527234
v -0.04268944 0.01347001 0.50527234
v -0.04504776 0.00395056 0.50846639
v -0.04057012 0.01959877 0.50846840
v -0.04268944 0.01347001 0.50527234
v -0.04057012 0.01959877 0.50846840
v -0.04003252 0.02010742 0.50540823
v -0.04003252 0.02010742 0.50540823
v -0.04057012 0.01959877 0.50846840
v -0.03577836 0.02689908 0.50554552
v -0.03577836 0.02689908 0.50554552
v -0.04057012 0.01959877 0.50846840
v -0.03151849 0.03213105 0.50846910
v -0.03577836 0.02689908 0.50554552
v -0.03151849 0.03213105 0.50846910
v -0.03067333 0.03249472 0.50551012
v -0.03067333 0.03249472 0.50551012
v -0.03151849 0.03213105 0.50846910
v -0.02481759 0.03713189 0.50551495
v -0.02481759 0.03713189 0.50551495
v -0.03151849 0.03213105 0.50846910
v -0.01878718 0.04086425 0.50846910
v -0.02481759 0.03713189 0.50551495
v -0.01878718 0.04086425 0.50846910
v -0.01827166 0.04073415 0.50552203
v -0.01827166 0.04073415 0.50552203
v -0.01878718 0.04086425 0.50846910
v -0.01121672 0.04320039 0.50553094
v -0.01121672 0.04320039 0.50553094
v -0.01878718 0.04086425 0.50846910
v -0.00387004 0.04479422 0.50846898
v -0.01121672 0.04320039 0.50553094
v -0.00387004 0.04479422 0.50846898
v -0.00402131 0.04449947 0.50554262
v -0.00402131 0.04449947 0.50554262
v -0.00387004 0.04479422 0.50846898
v 0.00304215 0.04457654 0.50548135
v 0.00304215 0.04457654 0.50548135
v -0.00387004 0.04479422 0.50846898
v 0.01223876 0.04326830 0.50847078
v 0.01223876 0.04326830 0.50847078
v 0.01789298 0.04104405 0.50583364
v 0.01093839 0.04336684 0.50570833
v 0.01223876 0.04326830 0.50847078
v 0.01093839 0.04336684 0.50570833
v 0.00304215 0.04457654 0.50548135
v 0.01223876 0.04326830 0.50847078
v 0.02564363 0.03695141 0.50843169
v 0.01789298 0.04104405 0.50583364
v 0.03947973 0.02124551 0.50575533
v 0.03541046 0.02745765 0.50575283
v 0.03718842 0.02541302 0.50846300
v 0.03718842 0.02541302 0.50846300
v 0.03541046 0.02745765 0.50575283
v 0.02564363 0.03695141 0.50843169
v 0.02564363 0.03695141 0.50843169
v 0.03541046 0.02745765 0.50575283
v 0.03036117 0.03293028 0.50576943
v 0.04340865 0.01209232 0.50846410
v 0.04243083 0.01454083 0.50567824
v 0.03718842 0.02541302 0.50846300
v 0.03718842 0.02541302 0.50846300
v 0.04243083 0.01454083 0.50567824
v 0.03947973 0.02124551 0.50575533
v 0.04431967 -0.00752910 0.50574023
v 0.04490163 -0.00019245 0.50570193
v 0.04504774 -0.00435141 0.50846639
v 0.04504774 -0.00435141 0.50846639
v 0.04490163 -0.00019245 0.50570193
v 0.04431381 0.00715102 0.50572472
v 0.04504774 -0.00435141 0.50846639
v 0.04431381 0.00715102 0.50572472
v 0.04340865 0.01209232 0.50846410
v 0.04340865 0.01209232 0.50846410
v 0.04431381 0.00715102 0.50572472
v 0.04243083 0.01454083 0.50567824
v -0.04537233 -0.00425826 0.09185408
v -0.05706446 -0.00893230 0.07908654
v -0.05490358 -0.01678650 0.07960885
v -0.04537233 -0.00425826 0.09185408
v -0.05490358 -0.01678650 0.07960885
v -0.04172685 -0.01905863 0.09149685
v -0.04172685 -0.01905863 0.09149685
v -0.05490358 -0.01678650 0.07960885
v -0.05232204 -0.02470405 0.07892312
v -0.04172685 -0.01905863 0.09149685
v -0.05232204 -0.02470405 0.07892312
v -0.04820985 -0.03191957 0.07910118
v -0.04172685 -0.01905863 0.09149685
v -0.04820985 -0.03191957 0.07910118
v -0.03339672 -0.03158329 0.09144565
v -0.03339672 -0.03158329 0.09144565
v -0.04820985 -0.03191957 0.07910118
v -0.04319575 -0.03850265 0.07907370
v -0.03339672 -0.03158329 0.09144565
v -0.04319575 -0.03850265 0.07907370
v -0.03698562 -0.04432604 0.07930416
v -0.03339672 -0.03158329 0.09144565
v -0.03698562 -0.04432604 0.07930416
v -0.02420715 -0.03730024 0.09309474
v -0.02420715 -0.03730024 0.09309474
v -0.03698562 -0.04432604 0.07930416
v -0.02972905 -0.04968951 0.07907840
v -0.02420715 -0.03730024 0.09309474
v -0.02972905 -0.04968951 0.07907840
v -0.01773481 -0.04079295 0.09309656
v -0.01773481 -0.04079295 0.09309656
v -0.02972905 -0.04968951 0.07907840
v -0.02231456 -0.05343573 0.07909128
v -0.01773481 -0.04079295 0.09309656
v -0.02231456 -0.05343573 0.07909128
v -0.01076532 -0.04317220 0.09309183
v -0.01076532 -0.04317220 0.09309183
v -0.02231456 -0.05343573 0.07909128
v -0.01454100 -0.05610993 0.07893481
v -0.01076532 -0.04317220 0.09309183
v -0.01454100 -0.05610993 0.07893481
v -0.00649319 -0.05741101 0.07929905
v -0.01076532 -0.04317220 0.09309183
v -0.00649319 -0.05741101 0.07929905
v -0.00320545 -0.04429971 0.09328977
v -0.00320545 -0.04429971 0.09328977
v -0.00649319 -0.05741101 0.07929905
v 0.00433261 -0.04426593 0.09316549
v 0.00433261 -0.04426593 0.09316549
v -0.00649319 -0.05741101 0.07929905
v 0.00187090 -0.05789901 0.07908667
v 0.00433261 -0.04426593 0.09316549
v 0.00187090 -0.05789901 0.07908667
v 0.01385874 -0.04367242 0.09169352
v 0.01385874 -0.04367242 0.09169352
v 0.00187090 -0.05789901 0.07908667
v 0.01007198 -0.05706293 0.07904725
v 0.01385874 -0.04367242 0.09169352
v 0.01007198 -0.05706293 0.07904725
v 0.01898225 -0.05472712 0.07907233
v 0.01385874 -0.04367242 0.09169352
v 0.01898225 -0.05472712 0.07907233
v 0.02659904 -0.05143431 0.07907924
v 0.01385874 -0.04367242 0.09169352
v 0.02659904 -0.05143431 0.07907924
v 0.02748982 -0.03677419 0.09152470
v 0.02748982 -0.03677419 0.09152470
v 0.02659904 -0.05143431 0.07907924
v 0.03376620 -0.04705275 0.07902385
v 0.02748982 -0.03677419 0.09152470
v 0.03376620 -0.04705275 0.07902385
v 0.04013841 -0.04168973 0.07902602
v 0.02748982 -0.03677419 0.09152470
v 0.04013841 -0.04168973 0.07902602
v 0.03530165 -0.02695227 0.09312683
v 0.03530165 -0.02695227 0.09312683
v 0.04013841 -0.04168973 0.07902602
v 0.04550882 -0.03571772 0.07908806
v 0.03530165 -0.02695227 0.09312683
v 0.04550882 -0.03571772 0.07908806
v 0.04147312 -0.01919910 0.09171044
v 0.04147312 -0.01919910 0.09171044
v 0.04550882 -0.03571772 0.07908806
v 0.05014563 -0.02883390 0.07904670
v 0.04147312 -0.01919910 0.09171044
v 0.05014563 -0.02883390 0.07904670
v 0.05404315 -0.02053333 0.07906420
v 0.04147312 -0.01919910 0.09171044
v 0.05404315 -0.02053333 0.07906420
v 0.05639337 -0.01255995 0.07906514
v 0.04147312 -0.01919910 0.09171044
v 0.05639337 -0.01255995 0.07906514
v 0.04538664 -0.00458156 0.09177156
v 0.04538664 -0.00458156 0.09177156
v 0.05639337 -0.01255995 0.07906514
v 0.05759589 -0.00412876 0.07906575
v 0.04538664 -0.00458156 0.09177156
v 0.05759589 -0.00412876 0.07906575
v 0.05763452 0.00382645 0.07894577
v 0.04538664 -0.00458156 0.09177156
v 0.05763452 0.00382645 0.07894577
v 0.04498144 0.00750045 0.09150772
v 0.04498144 0.00750045 0.09150772
v 0.05763452 0.00382645 0.07894577
v 0.05641364 0.01208003 0.07906108
v 0.04498144 0.00750045 0.09150772
v 0.05641364 0.01208003 0.07906108
v 0.04166105 0.01858064 0.09162239
v 0.05403264 0.02015321 0.07906747
v 0.04166105 0.01858064 0.09162239
v 0.05403264 0.02015321 0.07906747
v 0.05011190 0.02849075 0.07906072
v 0.04166105 0.01858064 0.09162239
v 0.05011190 0.02849075 0.07906072
v 0.03337574 0.03111203 0.09153118
v 0.04552391 0.03527292 0.07910579
v 0.03337574 0.03111203 0.09153118
v 0.04552391 0.03527292 0.07910579
v 0.03997767 0.04149912 0.07896073
v 0.03337574 0.03111203 0.09153118
v 0.03997767 0.04149912 0.07896073
v 0.03383921 0.04664317 0.07897299
v 0.03337574 0.03111203 0.09153118
v 0.03383921 0.04664317 0.07897299
v 0.02479398 0.03813467 0.09148201
v 0.02479398 0.03813467 0.09148201
v 0.03383921 0.04664317 0.07897299
v 0.02653609 0.05105920 0.07909362
v 0.02479398 0.03813467 0.09148201
v 0.02653609 0.05105920 0.07909362
v 0.01434756 0.04309857 0.09172712
v 0.02653609 0.05105920 0.07909362
v 0.01897856 0.05432834 0.07906185
v 0.01434756 0.04309857 0.09172712
v 0.01434756 0.04309857 0.09172712
v 0.01897856 0.05432834 0.07906185
v 0.01008121 0.05665766 0.07906179
v 0.01434756 0.04309857 0.09172712
v 0.01008121 0.05665766 0.07906179
v 0.00025515 0.04562818 0.09138953
v 0.00025515 0.04562818 0.09138953
v 0.01008121 0.05665766 0.07906179
v 0.00177957 0.05749690 0.07908618
v 0.00025515 0.04562818 0.09138953
v 0.00177957 0.05749690 0.07908618
v -0.00630024 0.05681662 0.07958596
v 0.00025515 0.04562818 0.09138953
v -0.00630024 0.05681662 0.07958596
v -0.01142466 0.04259861 0.09311680
v -0.01142466 0.04259861 0.09311680
v -0.00630024 0.05681662 0.07958596
v -0.01450834 0.05576503 0.07885685
v -0.01142466 0.04259861 0.09311680
v -0.01450834 0.05576503 0.07885685
v -0.01835113 0.04010972 0.09313390
v -0.01835113 0.04010972 0.09313390
v -0.01450834 0.05576503 0.07885685
v -0.02238781 0.05299890 0.07910164
v -0.01835113 0.04010972 0.09313390
v -0.02238781 0.05299890 0.07910164
v -0.02467545 0.03660744 0.09308031
v -0.02467545 0.03660744 0.09308031
v -0.02238781 0.05299890 0.07910164
v -0.02975312 0.04927791 0.07906150
v -0.02467545 0.03660744 0.09308031
v -0.02975312 0.04927791 0.07906150
v -0.03721309 0.04396213 0.07905506
v -0.02467545 0.03660744 0.09308031
v -0.03721309 0.04396213 0.07905506
v -0.03318166 0.03131652 0.09151103
v -0.03318166 0.03131652 0.09151103
v -0.03721309 0.04396213 0.07905506
v -0.04318403 0.03811123 0.07907714
v -0.03318166 0.03131652 0.09151103
v -0.04318403 0.03811123 0.07907714
v -0.04785007 0.03145924 0.07956047
v -0.03318166 0.03131652 0.09151103
v -0.04785007 0.03145924 0.07956047
v -0.03915801 0.02051310 0.09310637
v -0.03915801 0.02051310 0.09310637
v -0.04785007 0.03145924 0.07956047
v -0.05232736 0.02427754 0.07893415
v -0.03915801 0.02051310 0.09310637
v -0.05232736 0.02427754 0.07893415
v -0.04204387 0.01373505 0.09312108
v -0.04204387 0.01373505 0.09312108
v -0.05232736 0.02427754 0.07893415
v -0.05503549 0.01670942 0.07930842
v -0.04204387 0.01373505 0.09312108
v -0.05503549 0.01670942 0.07930842
v -0.04376908 0.00657388 0.09312994
v -0.04376908 0.00657388 0.09312994
v -0.05503549 0.01670942 0.07930842
v -0.05706456 0.00853602 0.07908543
v -0.04376908 0.00657388 0.09312994
v -0.05706456 0.00853602 0.07908543
v -0.04537233 -0.00425826 0.09185408
v -0.04537233 -0.00425826 0.09185408
v -0.05706456 0.00853602 0.07908543
v -0.05773980 -0.00020047 0.07898018
v -0.04537233 -0.00425826 0.09185408
v -0.05773980 -0.00020047 0.07898018
v -0.05706446 -0.00893230 0.07908654
v 0.01789298 0.04104405 0.50583364
v 0.02564363 0.03695141 0.50843169
v 0.02390857 0.03764694 0.50527014
v 0.03036117 0.03293028 0.50576943
v 0.02390857 0.03764694 0.50527014
v 0.02564363 0.03695141 0.50843169
v 0.04498144 0.00750045 0.09150772
v 0.04166105 0.01858064 0.09162239
v 0.04226246 0.00628476 0.09682991
v 0.04498144 0.00750045 0.09150772
v 0.04226246 0.00628476 0.09682991
v 0.04280530 -0.00053852 0.09668499
v 0.04538664 -0.00458156 0.09177156
v 0.04215197 -0.00722106 0.09687003
v 0.04042528 -0.01405458 0.09686804
v 0.04147312 -0.01919910 0.09171044
v 0.03759824 -0.02051291 0.09686543
v 0.03530165 -0.02695227 0.09312683
v 0.02748982 -0.03677419 0.09152470
v 0.03530165 -0.02695227 0.09312683
v 0.02897495 -0.03161539 0.09685848
v 0.02748982 -0.03677419 0.09152470
v 0.02897495 -0.03161539 0.09685848
v 0.02341149 -0.03595635 0.09685423
v -0.03339672 -0.03158329 0.09144565
v -0.02420715 -0.03730024 0.09309474
v -0.02922932 -0.03137686 0.09687790
v -0.03339672 -0.03158329 0.09144565
v -0.02922932 -0.03137686 0.09687790
v -0.03395365 -0.02615260 0.09687578
v -0.04537233 -0.00425826 0.09185408
v -0.04172685 -0.01905863 0.09149685
v -0.04221079 -0.00690214 0.09686461
v -0.04537233 -0.00425826 0.09185408
v -0.04221079 -0.00690214 0.09686461
v -0.04280249 -0.00002466 0.09668927
v -0.04376908 0.00657388 0.09312994
v -0.04280249 -0.00002466 0.09668927
v -0.04194710 0.00694745 0.09894201
v -0.04376908 0.00657388 0.09312994
v -0.04194710 0.00694745 0.09894201
v -0.03897873 0.01720497 0.09900429
v -0.03915801 0.02051310 0.09310637
v -0.04204387 0.01373505 0.09312108
v -0.03897873 0.01720497 0.09900429
v -0.03915801 0.02051310 0.09310637
v -0.03897873 0.01720497 0.09900429
v -0.03361488 0.02616641 0.09690032
v -0.03318166 0.03131652 0.09151103
v -0.02882440 0.03133078 0.09690350
v -0.02467545 0.03660744 0.09308031
v -0.01835113 0.04010972 0.09313390
v -0.02467545 0.03660744 0.09308031
v -0.01354412 0.04027102 0.09907385
v 0.03337574 0.03111203 0.09153118
v 0.02479398 0.03813467 0.09148201
v 0.02938385 0.03086836 0.09681519
v 0.03337574 0.03111203 0.09153118
v 0.02938385 0.03086836 0.09681519
v 0.03409479 0.02560804 0.09681973
v 0.04062196 0.01314625 0.09682712
v 0.04226246 0.00628476 0.09682991
v 0.04166105 0.01858064 0.09162239
v 0.04280530 -0.00053852 0.09668499
v 0.04215197 -0.00722106 0.09687003
v 0.04538664 -0.00458156 0.09177156
v 0.04280530 -0.00053852 0.09668499
v 0.04538664 -0.00458156 0.09177156
v 0.04498144 0.00750045 0.09150772
v 0.03353148 -0.02640643 0.09890750
v 0.02897495 -0.03161539 0.09685848
v 0.03530165 -0.02695227 0.09312683
v 0.03353148 -0.02640643 0.09890750
v 0.03530165 -0.02695227 0.09312683
v 0.03759824 -0.02051291 0.09686543
v 0.04042528 -0.01405458 0.09686804
v 0.03759824 -0.02051291 0.09686543
v 0.04147312 -0.01919910 0.09171044
v 0.04042528 -0.01405458 0.09686804
v 0.04147312 -0.01919910 0.09171044
v 0.04538664 -0.00458156 0.09177156
v 0.02748982 -0.03677419 0.09152470
v 0.02341149 -0.03595635 0.09685423
v 0.01720713 -0.03932397 0.09684947
v 0.01385874 -0.04367242 0.09169352
v 0.02748982 -0.03677419 0.09152470
v 0.01720713 -0.03932397 0.09684947
v 0.01385874 -0.04367242 0.09169352
v 0.01720713 -0.03932397 0.09684947
v 0.01053021 -0.04162529 0.09684432
v 0.00433261 -0.04426593 0.09316549
v 0.01053021 -0.04162529 0.09684432
v 0.00024825 -0.04281350 0.09923194
v 0.01385874 -0.04367242 0.09169352
v 0.01053021 -0.04162529 0.09684432
v 0.00433261 -0.04426593 0.09316549
v -0.00320545 -0.04429971 0.09328977
v 0.00433261 -0.04426593 0.09316549
v 0.00024825 -0.04281350 0.09923194
v -0.00320545 -0.04429971 0.09328977
v 0.00024825 -0.04281350 0.09923194
v -0.01048665 -0.04143000 0.09900949
v -0.01076532 -0.04317220 0.09309183
v -0.00320545 -0.04429971 0.09328977
v -0.01048665 -0.04143000 0.09900949
v -0.01076532 -0.04317220 0.09309183
v -0.01048665 -0.04143000 0.09900949
v -0.01965528 -0.03807109 0.09904293
v -0.01773481 -0.04079295 0.09309656
v -0.01076532 -0.04317220 0.09309183
v -0.01965528 -0.03807109 0.09904293
v -0.02420715 -0.03730024 0.09309474
v -0.01773481 -0.04079295 0.09309656
v -0.01965528 -0.03807109 0.09904293
v -0.02420715 -0.03730024 0.09309474
v -0.01965528 -0.03807109 0.09904293
v -0.02922932 -0.03137686 0.09687790
v -0.03339672 -0.03158329 0.09144565
v -0.03395365 -0.02615260 0.09687578
v -0.03775645 -0.02022258 0.09687290
v -0.04172685 -0.01905863 0.09149685
v -0.03339672 -0.03158329 0.09144565
v -0.03775645 -0.02022258 0.09687290
v -0.04172685 -0.01905863 0.09149685
v -0.03775645 -0.02022258 0.09687290
v -0.04053415 -0.01374732 0.09686916
v -0.04053415 -0.01374732 0.09686916
v -0.04221079 -0.00690214 0.09686461
v -0.04172685 -0.01905863 0.09149685
v -0.03897873 0.01720497 0.09900429
v -0.04204387 0.01373505 0.09312108
v -0.04376908 0.00657388 0.09312994
v -0.04280249 -0.00002466 0.09668927
v -0.04376908 0.00657388 0.09312994
v -0.04537233 -0.00425826 0.09185408
v -0.02316055 0.03548196 0.09901695
v -0.01354412 0.04027102 0.09907385
v -0.02467545 0.03660744 0.09308031
v -0.02316055 0.03548196 0.09901695
v -0.02467545 0.03660744 0.09308031
v -0.02882440 0.03133078 0.09690350
v -0.03361488 0.02616641 0.09690032
v -0.02882440 0.03133078 0.09690350
v -0.03318166 0.03131652 0.09151103
v -0.03361488 0.02616641 0.09690032
v -0.03318166 0.03131652 0.09151103
v -0.03915801 0.02051310 0.09310637
v -0.01142466 0.04259861 0.09311680
v -0.01835113 0.04010972 0.09313390
v -0.01354412 0.04027102 0.09907385
v -0.01142466 0.04259861 0.09311680
v -0.01354412 0.04027102 0.09907385
v -0.00313024 0.04249507 0.09667882
v 0.00025515 0.04562818 0.09138953
v -0.01142466 0.04259861 0.09311680
v -0.00313024 0.04249507 0.09667882
v 0.00025515 0.04562818 0.09138953
v -0.00313024 0.04249507 0.09667882
v 0.00408539 0.04237536 0.09679191
v 0.00025515 0.04562818 0.09138953
v 0.00408539 0.04237536 0.09679191
v 0.01104576 0.04111769 0.09679844
v 0.01434756 0.04309857 0.09172712
v 0.00025515 0.04562818 0.09138953
v 0.01104576 0.04111769 0.09679844
v 0.01434756 0.04309857 0.09172712
v 0.01104576 0.04111769 0.09679844
v 0.01770082 0.03873150 0.09680450
v 0.01770082 0.03873150 0.09680450
v 0.02386936 0.03528330 0.09681010
v 0.01434756 0.04309857 0.09172712
v 0.02386936 0.03528330 0.09681010
v 0.02938385 0.03086836 0.09681519
v 0.02479398 0.03813467 0.09148201
v 0.02386936 0.03528330 0.09681010
v 0.02479398 0.03813467 0.09148201
v 0.01434756 0.04309857 0.09172712
v 0.03337574 0.03111203 0.09153118
v 0.03409479 0.02560804 0.09681973
v 0.03787481 0.01964638 0.09682372
v 0.04166105 0.01858064 0.09162239
v 0.03337574 0.03111203 0.09153118
v 0.03787481 0.01964638 0.09682372
v 0.04166105 0.01858064 0.09162239
v 0.03787481 0.01964638 0.09682372
v 0.04062196 0.01314625 0.09682712
v -0.03608532 -0.02697089 0.50550195
v -0.03979550 -0.02103105 0.50553582
v -0.03892391 -0.01760471 0.50025501
v -0.01827166 0.04073415 0.50552203
v -0.01626684 0.03927445 0.49892662
v -0.02847330 0.03160819 0.49890322
v -0.04437621 0.00618889 0.50527704
v -0.04195235 0.00731650 0.49874553
v -0.04227649 -0.00667950 0.49969352
v -0.04195235 0.00731650 0.49874553
v -0.04268944 0.01347001 0.50527234
v -0.03890074 0.01726834 0.50028131
v -0.02847330 0.03160819 0.49890322
v -0.03067333 0.03249472 0.50551012
v -0.02481759 0.03713189 0.50551495
v -0.01626684 0.03927445 0.49892662
v -0.01121672 0.04320039 0.50553094
v -0.00545574 0.04210564 0.50032410
v 0.04490163 -0.00019245 0.50570193
v 0.04431967 -0.00752910 0.50574023
v 0.04271970 -0.00413649 0.50058529
v 0.04431967 -0.00752910 0.50574023
v 0.04249913 -0.01473199 0.50572784
v 0.04271970 -0.00413649 0.50058529
v 0.04271970 -0.00413649 0.50058529
v 0.04249913 -0.01473199 0.50572784
v 0.04030853 -0.01421296 0.50037689
v 0.04249913 -0.01473199 0.50572784
v 0.03951533 -0.02153851 0.50571664
v 0.04030853 -0.01421296 0.50037689
v 0.04030853 -0.01421296 0.50037689
v 0.03951533 -0.02153851 0.50571664
v 0.03735550 -0.02083071 0.50037390
v 0.03951533 -0.02153851 0.50571664
v 0.03544823 -0.02776197 0.50570553
v 0.03735550 -0.02083071 0.50037390
v 0.03735550 -0.02083071 0.50037390
v 0.03544823 -0.02776197 0.50570553
v 0.03332524 -0.02685321 0.50037039
v 0.03544823 -0.02776197 0.50570553
v 0.03040773 -0.03323091 0.50569363
v 0.03332524 -0.02685321 0.50037039
v 0.03332524 -0.02685321 0.50037039
v 0.03040773 -0.03323091 0.50569363
v 0.02833393 -0.03210681 0.50036640
v 0.03040773 -0.03323091 0.50569363
v 0.02453091 -0.03779391 0.50568005
v 0.02833393 -0.03210681 0.50036640
v 0.02833393 -0.03210681 0.50036640
v 0.02453091 -0.03779391 0.50568005
v 0.02252543 -0.03644002 0.50036191
v 0.02252543 -0.03644002 0.50036191
v 0.02453091 -0.03779391 0.50568005
v 0.01789604 -0.04135482 0.50563223
v 0.02252543 -0.03644002 0.50036191
v 0.01789604 -0.04135482 0.50563223
v 0.01593896 -0.03976430 0.50023490
v 0.01593896 -0.03976430 0.50023490
v 0.01789604 -0.04135482 0.50563223
v 0.00894651 -0.04190963 0.50032669
v 0.00894651 -0.04190963 0.50032669
v 0.01789604 -0.04135482 0.50563223
v 0.01084701 -0.04373795 0.50560003
v -0.00231638 -0.04288202 0.49964732
v 0.00894651 -0.04190963 0.50032669
v 0.01084701 -0.04373795 0.50560003
v -0.00231638 -0.04288202 0.49964732
v 0.01084701 -0.04373795 0.50560003
v 0.00348551 -0.04492391 0.50557302
v -0.00419745 -0.04481752 0.50553833
v -0.00231638 -0.04288202 0.49964732
v 0.00348551 -0.04492391 0.50557302
v -0.00231638 -0.04288202 0.49964732
v -0.00419745 -0.04481752 0.50553833
v -0.01256789 -0.04095842 0.50030469
v -0.01256789 -0.04095842 0.50030469
v -0.00419745 -0.04481752 0.50553833
v -0.01171119 -0.04356475 0.50563192
v -0.01928807 -0.03823896 0.50029611
v -0.01256789 -0.04095842 0.50030469
v -0.01171119 -0.04356475 0.50563192
v -0.01928807 -0.03823896 0.50029611
v -0.01171119 -0.04356475 0.50563192
v -0.01850635 -0.04117811 0.50574593
v -0.02502499 -0.03747403 0.50571703
v -0.01928807 -0.03823896 0.50029611
v -0.01850635 -0.04117811 0.50574593
v -0.02875246 -0.03174275 0.49893401
v -0.01928807 -0.03823896 0.50029611
v -0.02502499 -0.03747403 0.50571703
v -0.02875246 -0.03174275 0.49893401
v -0.02502499 -0.03747403 0.50571703
v -0.03084737 -0.03280370 0.50567553
v -0.02875246 -0.03174275 0.49893401
v -0.03084737 -0.03280370 0.50567553
v -0.03541348 -0.02395190 0.50026630
v -0.03541348 -0.02395190 0.50026630
v -0.03084737 -0.03280370 0.50567553
v -0.03608532 -0.02697089 0.50550195
v -0.03892391 -0.01760471 0.50025501
v -0.03541348 -0.02395190 0.50026630
v -0.03608532 -0.02697089 0.50550195
v -0.04227649 -0.00667950 0.49969352
v -0.03892391 -0.01760471 0.50025501
v -0.03979550 -0.02103105 0.50553582
v -0.04227649 -0.00667950 0.49969352
v -0.03979550 -0.02103105 0.50553582
v -0.04356085 -0.01173419 0.50575014
v -0.04473073 -0.00151619 0.50510724
v -0.04227649 -0.00667950 0.49969352
v -0.04356085 -0.01173419 0.50575014
v -0.04227649 -0.00667950 0.49969352
v -0.04473073 -0.00151619 0.50510724
v -0.04437621 0.00618889 0.50527704
v -0.04437621 0.00618889 0.50527704
v -0.04268944 0.01347001 0.50527234
v -0.04195235 0.00731650 0.49874553
v -0.04268944 0.01347001 0.50527234
v -0.04003252 0.02010742 0.50540823
v -0.03890074 0.01726834 0.50028131
v -0.03538370 0.02360384 0.50028970
v -0.03890074 0.01726834 0.50028131
v -0.04003252 0.02010742 0.50540823
v -0.03538370 0.02360384 0.50028970
v -0.04003252 0.02010742 0.50540823
v -0.03577836 0.02689908 0.50554552
v -0.03538370 0.02360384 0.50028970
v -0.03577836 0.02689908 0.50554552
v -0.03067333 0.03249472 0.50551012
v -0.03538370 0.02360384 0.50028970
v -0.03067333 0.03249472 0.50551012
v -0.02847330 0.03160819 0.49890322
v -0.02847330 0.03160819 0.49890322
v -0.02481759 0.03713189 0.50551495
v -0.01827166 0.04073415 0.50552203
v -0.01827166 0.04073415 0.50552203
v -0.01121672 0.04320039 0.50553094
v -0.01626684 0.03927445 0.49892662
v -0.00545574 0.04210564 0.50032410
v -0.01121672 0.04320039 0.50553094
v -0.00402131 0.04449947 0.50554262
v -0.00545574 0.04210564 0.50032410
v -0.00402131 0.04449947 0.50554262
v 0.00304215 0.04457654 0.50548135
v 0.00178143 0.04242045 0.50032950
v -0.00545574 0.04210564 0.50032410
v 0.00304215 0.04457654 0.50548135
v 0.00178143 0.04242045 0.50032950
v 0.00304215 0.04457654 0.50548135
v 0.00896734 0.04150605 0.50033429
v 0.00304215 0.04457654 0.50548135
v 0.01093839 0.04336684 0.50570833
v 0.00896734 0.04150605 0.50033429
v 0.00896734 0.04150605 0.50033429
v 0.01093839 0.04336684 0.50570833
v 0.01589483 0.03938890 0.50033859
v 0.01589483 0.03938890 0.50033859
v 0.01093839 0.04336684 0.50570833
v 0.01789298 0.04104405 0.50583364
v 0.01589483 0.03938890 0.50033859
v 0.01789298 0.04104405 0.50583364
v 0.02390857 0.03764694 0.50527014
v 0.02236421 0.03613010 0.50034241
v 0.01589483 0.03938890 0.50033859
v 0.02390857 0.03764694 0.50527014
v 0.02236421 0.03613010 0.50034241
v 0.02390857 0.03764694 0.50527014
v 0.02818897 0.03182360 0.50034579
v 0.02390857 0.03764694 0.50527014
v 0.03036117 0.03293028 0.50576943
v 0.02818897 0.03182360 0.50034579
v 0.02818897 0.03182360 0.50034579
v 0.03036117 0.03293028 0.50576943
v 0.03320122 0.02659350 0.50034860
v 0.03320122 0.02659350 0.50034860
v 0.03036117 0.03293028 0.50576943
v 0.03541046 0.02745765 0.50575283
v 0.03725640 0.02059053 0.50035101
v 0.03320122 0.02659350 0.50034860
v 0.03541046 0.02745765 0.50575283
v 0.03725640 0.02059053 0.50035101
v 0.03541046 0.02745765 0.50575283
v 0.03947973 0.02124551 0.50575533
v 0.03947973 0.02124551 0.50575533
v 0.04243083 0.01454083 0.50567824
v 0.03725640 0.02059053 0.50035101
v 0.03725640 0.02059053 0.50035101
v 0.04243083 0.01454083 0.50567824
v 0.04023751 0.01398759 0.50035290
v 0.04023751 0.01398759 0.50035290
v 0.04243083 0.01454083 0.50567824
v 0.04205846 0.00697501 0.50035440
v 0.04205846 0.00697501 0.50035440
v 0.04243083 0.01454083 0.50567824
v 0.04431381 0.00715102 0.50572472
v 0.04271970 -0.00413649 0.50058529
v 0.04205846 0.00697501 0.50035440
v 0.04431381 0.00715102 0.50572472
v 0.04271970 -0.00413649 0.50058529
v 0.04431381 0.00715102 0.50572472
v 0.04490163 -0.00019245 0.50570193
v 0.04226246 0.00628476 0.09682991
v 0.04205846 0.00697501 0.50035440
v 0.04280530 -0.00053852 0.09668499
v 0.04280530 -0.00053852 0.09668499
v 0.04205846 0.00697501 0.50035440
v 0.04271970 -0.00413649 0.50058529
v 0.04280530 -0.00053852 0.09668499
v 0.04271970 -0.00413649 0.50058529
v 0.04215197 -0.00722106 0.09687003
v 0.04215197 -0.00722106 0.09687003
v 0.04271970 -0.00413649 0.50058529
v 0.04042528 -0.01405458 0.09686804
v 0.04042528 -0.01405458 0.09686804
v 0.04271970 -0.00413649 0.50058529
v 0.04030853 -0.01421296 0.50037689
v 0.04042528 -0.01405458 0.09686804
v 0.04030853 -0.01421296 0.50037689
v 0.03759824 -0.02051291 0.09686543
v 0.03759824 -0.02051291 0.09686543
v 0.04030853 -0.01421296 0.50037689
v 0.03735550 -0.02083071 0.50037390
v 0.03759824 -0.02051291 0.09686543
v 0.03735550 -0.02083071 0.50037390
v 0.03353148 -0.02640643 0.09890750
v 0.03353148 -0.02640643 0.09890750
v 0.03735550 -0.02083071 0.50037390
v 0.03332524 -0.02685321 0.50037039
v 0.03353148 -0.02640643 0.09890750
v 0.03332524 -0.02685321 0.50037039
v 0.02897495 -0.03161539 0.09685848
v 0.02897495 -0.03161539 0.09685848
v 0.03332524 -0.02685321 0.50037039
v 0.02833393 -0.03210681 0.50036640
v 0.02897495 -0.03161539 0.09685848
v 0.02833393 -0.03210681 0.50036640
v 0.02341149 -0.03595635 0.09685423
v 0.02341149 -0.03595635 0.09685423
v 0.02833393 -0.03210681 0.50036640
v 0.02252543 -0.03644002 0.50036191
v 0.02341149 -0.03595635 0.09685423
v 0.02252543 -0.03644002 0.50036191
v 0.01720713 -0.03932397 0.09684947
v 0.01720713 -0.03932397 0.09684947
v 0.02252543 -0.03644002 0.50036191
v 0.01593896 -0.03976430 0.50023490
v 0.01720713 -0.03932397 0.09684947
v 0.01593896 -0.03976430 0.50023490
v 0.01053021 -0.04162529 0.09684432
v 0.01053021 -0.04162529 0.09684432
v 0.01593896 -0.03976430 0.50023490
v 0.00894651 -0.04190963 0.50032669
v 0.01053021 -0.04162529 0.09684432
v 0.00894651 -0.04190963 0.50032669
v 0.00024825 -0.04281350 0.09923194
v 0.00024825 -0.04281350 0.09923194
v 0.00894651 -0.04190963 0.50032669
v -0.00231638 -0.04288202 0.49964732
v 0.00024825 -0.04281350 0.09923194
v -0.00231638 -0.04288202 0.49964732
v -0.01048665 -0.04143000 0.09900949
v -0.01048665 -0.04143000 0.09900949
v -0.00231638 -0.04288202 0.49964732
v -0.01256789 -0.04095842 0.50030469
v -0.01048665 -0.04143000 0.09900949
v -0.01256789 -0.04095842 0.50030469
v -0.01965528 -0.03807109 0.09904293
v -0.01965528 -0.03807109 0.09904293
v -0.01256789 -0.04095842 0.50030469
v -0.01928807 -0.03823896 0.50029611
v -0.01965528 -0.03807109 0.09904293
v -0.01928807 -0.03823896 0.50029611
v -0.02875246 -0.03174275 0.49893401
v -0.02922932 -0.03137686 0.09687790
v -0.02922932 -0.03137686 0.09687790
v -0.02875246 -0.03174275 0.49893401
v -0.03395365 -0.02615260 0.09687578
v -0.03395365 -0.02615260 0.09687578
v -0.02875246 -0.03174275 0.49893401
v -0.03541348 -0.02395190 0.50026630
v -0.03395365 -0.02615260 0.09687578
v -0.03541348 -0.02395190 0.50026630
v -0.03775645 -0.02022258 0.09687290
v -0.03775645 -0.02022258 0.09687290
v -0.03541348 -0.02395190 0.50026630
v -0.03892391 -0.01760471 0.50025501
v -0.03775645 -0.02022258 0.09687290
v -0.03892391 -0.01760471 0.50025501
v -0.04053415 -0.01374732 0.09686916
v -0.04053415 -0.01374732 0.09686916
v -0.03892391 -0.01760471 0.50025501
v -0.04227649 -0.00667950 0.49969352
v -0.04053415 -0.01374732 0.09686916
v -0.04227649 -0.00667950 0.49969352
v -0.04221079 -0.00690214 0.09686461
v -0.04221079 -0.00690214 0.09686461
v -0.04227649 -0.00667950 0.49969352
v -0.04280249 -0.00002466 0.09668927
v -0.04280249 -0.00002466 0.09668927
v -0.04227649 -0.00667950 0.49969352
v -0.04194710 0.00694745 0.09894201
v -0.04194710 0.00694745 0.09894201
v -0.04227649 -0.00667950 0.49969352
v -0.04195235 0.00731650 0.49874553
v -0.04194710 0.00694745 0.09894201
v -0.04195235 0.00731650 0.49874553
v -0.03897873 0.01720497 0.09900429
v -0.03897873 0.01720497 0.09900429
v -0.04195235 0.00731650 0.49874553
v -0.03890074 0.01726834 0.50028131
v -0.03897873 0.01720497 0.09900429
v -0.03890074 0.01726834 0.50028131
v -0.03538370 0.02360384 0.50028970
v -0.03897873 0.01720497 0.09900429
v -0.03538370 0.02360384 0.50028970
v -0.03361488 0.02616641 0.09690032
v -0.03361488 0.02616641 0.09690032
v -0.03538370 0.02360384 0.50028970
v -0.02847330 0.03160819 0.49890322
v -0.03361488 0.02616641 0.09690032
v -0.02847330 0.03160819 0.49890322
v -0.02882440 0.03133078 0.09690350
v -0.02882440 0.03133078 0.09690350
v -0.02847330 0.03160819 0.49890322
v -0.02316055 0.03548196 0.09901695
v -0.02316055 0.03548196 0.09901695
v -0.02847330 0.03160819 0.49890322
v -0.01626684 0.03927445 0.49892662
v -0.02316055 0.03548196 0.09901695
v -0.01626684 0.03927445 0.49892662
v -0.01354412 0.04027102 0.09907385
v -0.01354412 0.04027102 0.09907385
v -0.01626684 0.03927445 0.49892662
v -0.00545574 0.04210564 0.50032410
v -0.01354412 0.04027102 0.09907385
v -0.00545574 0.04210564 0.50032410
v -0.00313024 0.04249507 0.09667882
v -0.00313024 0.04249507 0.09667882
v -0.00545574 0.04210564 0.50032410
v 0.00408539 0.04237536 0.09679191
v 0.00408539 0.04237536 0.09679191
v -0.00545574 0.04210564 0.50032410
v 0.00178143 0.04242045 0.50032950
v 0.00408539 0.04237536 0.09679191
v 0.00178143 0.04242045 0.50032950
v 0.01104576 0.04111769 0.09679844
v 0.01104576 0.04111769 0.09679844
v 0.00178143 0.04242045 0.50032950
v 0.00896734 0.04150605 0.50033429
v 0.01104576 0.04111769 0.09679844
v 0.00896734 0.04150605 0.50033429
v 0.01770082 0.03873150 0.09680450
v 0.01770082 0.03873150 0.09680450
v 0.00896734 0.04150605 0.50033429
v 0.01589483 0.03938890 0.50033859
v 0.01770082 0.03873150 0.09680450
v 0.01589483 0.03938890 0.50033859
v 0.02386936 0.03528330 0.09681010
v 0.02386936 0.03528330 0.09681010
v 0.01589483 0.03938890 0.50033859
v 0.02236421 0.03613010 0.50034241
v 0.02386936 0.03528330 0.09681010
v 0.02236421 0.03613010 0.50034241
v 0.02938385 0.03086836 0.09681519
v 0.02938385 0.03086836 0.09681519
v 0.02236421 0.03613010 0.50034241
v 0.02818897 0.03182360 0.50034579
v 0.02938385 0.03086836 0.09681519
v 0.02818897 0.03182360 0.50034579
v 0.03409479 0.02560804 0.09681973
v 0.03409479 0.02560804 0.09681973
v 0.02818897 0.03182360 0.50034579
v 0.03320122 0.02659350 0.50034860
v 0.03409479 0.02560804 0.09681973
v 0.03320122 0.02659350 0.50034860
v 0.03787481 0.01964638 0.09682372
v 0.03787481 0.01964638 0.09682372
v 0.03320122 0.02659350 0.50034860
v 0.03725640 0.02059053 0.50035101
v 0.03787481 0.01964638 0.09682372
v 0.03725640 0.02059053 0.50035101
v 0.04062196 0.01314625 0.09682712
v 0.04062196 0.01314625 0.09682712
v 0.03725640 0.02059053 0.50035101
v 0.04023751 0.01398759 0.50035290
v 0.04062196 0.01314625 0.09682712
v 0.04023751 0.01398759 0.50035290
v 0.04226246 0.00628476 0.09682991
v 0.04226246 0.00628476 0.09682991
v 0.04023751 0.01398759 0.50035290
v 0.04205846 0.00697501 0.50035440
f 1 2 3
f 4 5 6
f 7 8 9
f 10 11 12
f 13 14 15
f 16 17 18
f 19 20 21
f 22 23 24
f 25 26 27
f 28 29 30
f 31 32 33
f 34 35 36
f 37 38 39
f 40 41 42
f 43 44 45
f 46 47 48
f 49 50 51
f 52 53 54
f 55 56 57
f 58 59 60
f 61 62 63
f 64 65 66
f 67 68 69
f 70 71 72
f 73 74 75
f 76 77 78
f 79 80 81
f 82 83 84
f 85 86 87
f 88 89 90
f 91 92 93
f 94 95 96
f 97 98 99
f 100 101 102
f 103 104 105
f 106 107 108
f 109 110 111
f 112 113 114
f 115 116 117
f 118 119 120
f 121 122 123
f 124 125 126
f 127 128 129
f 130 131 132
f 133 134 135
f 136 137 138
f 139 140 141
f 142 143 144
f 145 146 147
f 148 149 150
f 151 152 153
f 154 155 156
f 157 158 159
f 160 161 162
f 163 164 165
f 166 167 168
f 169 170 171
f 172 173 174
f 175 176 177
f 178 179 180
f 181 182 183
f 184 185 186
f 187 188 189
f 190 191 192
f 193 194 195
f 196 197 198
f 199 200 201
f 202 203 204
f 205 206 207
f 208 209 210
f 211 212 213
f 214 215 216
f 217 218 219
f 220 221 222
f 223 224 225
f 226 227 228
f 229 230 231
f 232 233 234
f 235 236 237
f 237 236 238
f 237 238 239
f 239 238 240
f 241 242 243
f 240 244 245
f 246 243 247
f 247 243 248
f 249 250 251
f 252 253 254
f 254 253 255
f 256 257 258
f 259 260 261
f 262 263 264
f 262 264 265
f 266 267 268
f 269 264 270
f 269 270 271
f 271 270 272
f 272 270 273
f 272 273 274
f 274 273 275
f 275 273 276
f 275 276 277
f 277 276 278
f 278 276 279
f 278 279 280
f 280 279 281
f 281 279 282
f 281 282 283
f 283 282 284
f 285 286 287
f 284 288 289
f 290 287 291
f 291 287 292
f 293 294 295
f 296 297 298
f 299 300 301
f 302 303 304
f 305 306 307
f 308 309 310
f 311 312 313
f 314 315 316
f 317 312 318
f 317 318 319
f 319 318 320
f 320 318 321
f 320 321 322
f 322 321 323
f 323 321 324
f 323 324 325
f 325 324 326
f 326 324 236
f 326 236 235
f 327 328 329
f 330 331 332
f 333 334 335
f 336 337 338
f 339 340 341
f 342 343 344
f 345 346 347
f 348 349 350
f 351 352 353
f 354 355 356
f 357 358 359
f 360 361 362
f 363 364 365
f 366 367 368
f 369 370 371
f 372 373 374
f 375 376 377
f 378 379 380
f 381 382 383
f 384 385 386
f 387 388 389
f 390 391 392
f 393 394 395
f 396 397 398
f 399 400 401
f 402 403 404
f 405 406 407
f 408 409 410
f 411 412 413
f 414 415 416
f 417 418 419
f 420 421 422
f 423 424 425
f 426 427 428
f 429 430 431
f 432 433 434
f 435 436 437
f 438 439 440
f 441 442 443
f 444 445 446
f 447 448 449
f 450 451 452
f 453 454 455
f 456 457 458
f 459 460 461
f 462 463 464
f 465 466 467
f 468 469 470
f 471 472 473
f 474 475 476
f 477 478 479
f 480 481 482
f 483 484 485
f 486 487 488
f 489 490 491
f 492 493 494
f 495 496 497
f 498 499 500
f 501 502 503
f 504 505 506
f 507 508 509
f 510 511 512
f 513 514 515
f 516 517 518
f 519 520 521
f 522 523 524
f 525 526 527
f 528 529 530
f 531 532 533
f 534 535 536
f 537 538 539
f 540 541 542
f 543 544 545
f 546 547 548
f 549 550 551
f 552 553 554
f 555 556 557
f 558 559 560
f 561 562 563
f 564 565 566
f 567 568 569
f 570 571 572
f 573 574 575
f 576 577 578
f 579 580 581
f 582 583 584
f 585 586 587
f 588 589 590
f 591 592 593
f 594 595 596
f 597 598 599
f 600 601 602
f 603 604 605
f 606 607 608
f 609 610 611
f 612 613 614
f 615 616 617
f 618 619 620
f 621 622 623
f 624 625 626
f 627 628 629
f 629 628 630
f 631 632 633
f 634 635 636
f 636 635 637
f 638 639 640
f 641 642 643
f 644 645 646
f 647 648 649
f 650 651 652
f 653 654 655
f 656 657 658
f 659 660 661
f 662 663 664
f 665 666 667
f 668 669 670
f 671 672 673
f 674 675 676
f 677 678 679
f 680 681 682
f 683 684 685
f 686 687 688
f 689 690 691
f 692 693 694
f 695 696 697
f 698 699 700
f 701 702 703
f 704 705 706
f 707 708 709
f 710 711 712
f 713 714 715
f 716 717 718
f 719 720 721
f 722 723 724
f 725 726 727
f 728 729 730
f 731 732 733
f 734 735 736
f 737 738 739
f 740 741 742
f 743 744 745
f 746 747 748
f 749 750 751
f 752 753 754
f 755 756 757
f 758 759 760
f 761 762 763
f 764 765 766
f 767 768 769
f 770 771 772
f 773 774 775
f 776 777 778
f 779 780 781
f 782 783 784
f 785 786 787
f 788 789 790
f 791 792 793
f 794 795 796
f 797 798 799
f 800 801 802
f 803 804 805
f 806 807 808
f 809 810 811
f 812 813 814
f 815 816 817
f 818 819 820
f 821 822 823
f 824 825 826
f 827 828 829
f 830 831 832
f 833 834 835
f 836 837 838
f 839 840 841
f 842 843 844
f 845 846 847
f 848 849 850
f 851 852 853
f 854 855 856
f 857 858 859
f 860 861 862
f 863 864 865
f 866 867 868
f 869 870 871
f 872 873 874
f 875 876 877
f 878 879 880
f 881 882 883
f 884 885 886
f 887 888 889
f 890 891 892
f 893 894 895
f 896 897 898
f 899 900 901
f 902 903 904
f 905 906 907
f 908 909 910
f 911 912 913
f 914 915 916
f 917 918 919
f 920 921 922
f 923 924 925
f 926 927 928
f 929 930 931
f 932 933 934
f 935 936 937
f 938 939 940
f 941 942 943
f 944 945 946
f 947 948 949
f 950 951 952
f 953 954 955
f 956 957 958
f 959 960 961
f 962 963 964
f 965 966 967
f 968 969 970
f 971 972 973
f 974 975 976
f 977 978 979
f 980 981 982
f 983 984 985
f 986 987 988
f 989 990 991
f 992 993 994
f 995 996 997
f 998 999 1000
f 1001 1002 1003
f 1004 1005 1006
f 1007 1008 1009
f 1010 1011 1012
f 1013 1014 1015
f 1016 1017 1018
f 1019 1020 1021
f 1022 1023 1024
f 1025 1026 1027
f 1028 1029 1030
f 1031 1032 1033
f 1034 1035 1036
f 1037 1038 1039
f 1040 1041 1042
f 1043 1044 1045
f 1046 1047 1048
f 1049 1050 1051
f 1052 1053 1054
f 1055 1056 1057
f 1058 1059 1060
f 1061 1062 1063
f 1064 1065 1066
f 1067 1068 1069
f 1070 1071 1072
f 1073 1074 1075
f 1076 1077 1078
f 1079 1080 1081
f 1082 1083 1084
f 1085 1086 1087
f 1088 1089 1090
f 1091 1092 1093
f 1094 1095 1096
f 1097 1098 1099
f 1100 1101 1102
f 1103 1104 1105
f 1106 1107 1108
f 1109 1110 1111
f 1112 1113 1114
f 1115 1116 1117
f 1118 1119 1120
f 1121 1122 1123
f 1124 1125 1126
f 1127 1128 1129
f 1130 1131 1132
f 1133 1134 1135
f 1136 1137 1138
f 1139 1140 1141
f 1142 1143 1144
f 1145 1146 1147
f 1148 1149 1150
f 1151 1152 1153
f 1154 1155 1156
f 1157 1158 1159
f 1160 1161 1162
f 1163 1164 1165
f 1166 1167 1168
f 1169 1170 1171
f 1172 1173 1174
f 1175 1176 1177
f 1178 1179 1180
f 1181 1182 1183
f 1181 1183 1184
f 1185 1186 1187
f 1188 1189 1190
f 1191 1192 1193
f 1194 1195 1196
f 1197 1198 1199
f 1200 1201 1202
f 1203 1204 1205
f 1206 1207 1208
f 1209 1210 1211
f 1212 1213 1214
f 1215 1216 1217
f 1218 1219 1220
f 1221 1222 1223
f 1224 1225 1226
f 1227 1228 1229
f 1230 1231 1232
f 1233 1234 1235
f 1236 1237 1238
f 1239 1240 1241
f 1242 1243 1244
f 1245 1246 1247
f 1248 1249 1250
f 1251 1252 1253
f 1254 1255 1256
f 1257 1258 1259
f 1260 1261 1262
f 1263 1264 1265
f 1266 1267 1268
f 1269 1270 1271
f 1272 1273 1274
f 1275 1276 1277
f 1278 1279 1280
f 1281 1282 1283
f 1284 1285 1286
f 1287 1288 1289
f 1290 1291 1292
f 1293 1294 1295
f 1296 1297 1298
f 1299 1300 1301

