mtllib material.mtl
usemtl material_upperarm_0
v 0.06406834 -0.03877054 0.09320661
v 0.06766284 -0.03218125 0.09319645
v 0.07020935 -0.02618666 0.09326452
v 0.05745252 0.04820624 0.09319645
v 0.05971690 0.04525016 0.09319713
v 0.05298000 0.05297768 0.09319645
v 0.05745252 0.04820624 0.09319645
v 0.05298000 0.05297768 0.09319645
v 0.05098546 0.05516556 0.09322754
v 0.05098546 0.05516556 0.09322754
v 0.05298000 0.05297768 0.09319645
v 0.04725669 0.05808416 0.09319645
v 0.05098546 0.05516556 0.09322754
v 0.04725669 0.05808416 0.09319645
v 0.04326604 0.06138740 0.09324460
v 0.04326604 0.06138740 0.09324460
v 0.04725669 0.05808416 0.09319645
v 0.03887827 0.06399829 0.09319806
v -0.01484738 -0.07341833 0.09329024
v -0.01019638 -0.07418621 0.09319645
v -0.00513373 -0.07472173 0.09326929
v -0.06406846 0.03876608 0.09320660
v -0.06766287 0.03217699 0.09319645
v -0.07020948 0.02618219 0.09326452
v 0.01504328 0.07335649 0.09320833
v 0.00766213 0.07452998 0.09319645
v 0.00110583 0.07491808 0.09326423
v 0.01504328 0.07335649 0.09320833
v 0.01477407 0.07324304 0.09621482
v 0.02269297 0.07140618 0.09319829
v 0.02269297 0.07140618 0.09319829
v 0.01477407 0.07324304 0.09621482
v 0.02540301 0.07029027 0.09618821
v 0.02269297 0.07140618 0.09319829
v 0.02540301 0.07029027 0.09618821
v 0.03217325 0.06766404 0.09319801
v 0.03217325 0.06766404 0.09319801
v 0.02540301 0.07029027 0.09618821
v 0.03470029 0.06618071 0.09620675
v 0.03217325 0.06766404 0.09319801
v 0.03470029 0.06618071 0.09620675
v 0.03887827 0.06399829 0.09319806
v 0.03887827 0.06399829 0.09319806
v 0.03470029 0.06618071 0.09620675
v 0.04326604 0.06138740 0.09324460
v 0.05098546 0.05516556 0.09322754
v 0.05771428 0.04747992 0.09619439
v 0.05745252 0.04820624 0.09319645
v 0.05745252 0.04820624 0.09319645
v 0.05771428 0.04747992 0.09619439
v 0.05971690 0.04525016 0.09319713
v 0.05971690 0.04525016 0.09319713
v 0.05771428 0.04747992 0.09619439
v 0.06404663 0.03850479 0.09618785
v 0.05971690 0.04525016 0.09319713
v 0.06404663 0.03850479 0.09618785
v 0.06403925 0.03881214 0.09320282
v 0.06403925 0.03881214 0.09320282
v 0.06404663 0.03850479 0.09618785
v 0.06650453 0.03441551 0.09319483
v 0.06650453 0.03441551 0.09319483
v 0.06404663 0.03850479 0.09618785
v 0.06866941 0.02952298 0.09616639
v 0.06650453 0.03441551 0.09319483
v 0.06866941 0.02952298 0.09616639
v 0.07056055 0.02507156 0.09320105
v 0.07056055 0.02507156 0.09320105
v 0.06866941 0.02952298 0.09616639
v 0.07210871 0.02019115 0.09319954
v 0.07210871 0.02019115 0.09319954
v 0.06866941 0.02952298 0.09616639
v 0.07193845 0.02034009 0.09609632
v 0.07210871 0.02019115 0.09319954
v 0.07193845 0.02034009 0.09609632
v 0.07383497 0.01273588 0.09319905
v 0.07383497 0.01273588 0.09319905
v 0.07193845 0.02034009 0.09609632
v 0.07395965 0.01049485 0.09624455
v 0.07383497 0.01273588 0.09319905
v 0.07395965 0.01049485 0.09624455
v 0.07488227 0.00257645 0.09319570
v 0.07488227 0.00257645 0.09319570
v 0.07395965 0.01049485 0.09624455
v 0.07472640 0.00009028 0.09614870
v 0.07488227 0.00257645 0.09319570
v 0.07472640 0.00009028 0.09614870
v 0.07470564 -0.00515533 0.09319697
v 0.07470564 -0.00515533 0.09319697
v 0.07472640 0.00009028 0.09614870
v 0.07398147 -0.01051775 0.09621180
v 0.07470564 -0.00515533 0.09319697
v 0.07398147 -0.01051775 0.09621180
v 0.07416449 -0.01036030 0.09320865
v 0.07416449 -0.01036030 0.09320865
v 0.07398147 -0.01051775 0.09621180
v 0.07330289 -0.01530216 0.09319524
v 0.07330289 -0.01530216 0.09319524
v 0.07398147 -0.01051775 0.09621180
v 0.07198421 -0.02006129 0.09614856
v 0.07330289 -0.01530216 0.09319524
v 0.07198421 -0.02006129 0.09614856
v 0.07020935 -0.02618666 0.09326452
v 0.07020935 -0.02618666 0.09326452
v 0.06403662 -0.03852076 0.09620234
v 0.06406834 -0.03877054 0.09320661
v 0.06406834 -0.03877054 0.09320661
v 0.06403662 -0.03852076 0.09620234
v 0.06118199 -0.04317911 0.09319790
v 0.06118199 -0.04317911 0.09319790
v 0.06403662 -0.03852076 0.09620234
v 0.05772502 -0.04747136 0.09618401
v 0.06118199 -0.04317911 0.09319790
v 0.05772502 -0.04747136 0.09618401
v 0.05803451 -0.04732600 0.09320016
v 0.05803451 -0.04732600 0.09320016
v 0.05772502 -0.04747136 0.09618401
v 0.05470918 -0.05113297 0.09319546
v 0.05470918 -0.05113297 0.09319546
v 0.05772502 -0.04747136 0.09618401
v 0.05083060 -0.05479392 0.09618235
v 0.05470918 -0.05113297 0.09319546
v 0.05083060 -0.05479392 0.09618235
v 0.04726104 -0.05808723 0.09319958
v 0.04726104 -0.05808723 0.09319958
v 0.05083060 -0.05479392 0.09618235
v 0.04109243 -0.06265648 0.09319912
v 0.04109243 -0.06265648 0.09319912
v 0.05083060 -0.05479392 0.09618235
v 0.04323239 -0.06098234 0.09611089
v 0.04109243 -0.06265648 0.09319912
v 0.04323239 -0.06098234 0.09611089
v 0.03466293 -0.06617320 0.09624665
v 0.04109243 -0.06265648 0.09319912
v 0.03466293 -0.06617320 0.09624665
v 0.03217312 -0.06766858 0.09319802
v 0.03217312 -0.06766858 0.09319802
v 0.03466293 -0.06617320 0.09624665
v 0.02552479 -0.07025058 0.09618287
v 0.03217312 -0.06766858 0.09319802
v 0.02552479 -0.07025058 0.09618287
v 0.02269287 -0.07141065 0.09319831
v 0.02269287 -0.07141065 0.09319831
v 0.02552479 -0.07025058 0.09618287
v 0.01487115 -0.07323221 0.09621310
v 0.02269287 -0.07141065 0.09319831
v 0.01487115 -0.07323221 0.09621310
v 0.01510258 -0.07334755 0.09320571
v 0.01510258 -0.07334755 0.09320571
v 0.01487115 -0.07323221 0.09621310
v 0.01014629 -0.07419439 0.09319465
v 0.01014629 -0.07419439 0.09319465
v 0.01487115 -0.07323221 0.09621310
v 0.00492619 -0.07461971 0.09605372
v 0.01014629 -0.07419439 0.09319465
v 0.00492619 -0.07461971 0.09605372
v -0.00001044 -0.07488552 0.09320238
v -0.00001044 -0.07488552 0.09320238
v 0.00492619 -0.07461971 0.09605372
v -0.00513373 -0.07472173 0.09326929
v -0.02017917 -0.07211529 0.09319758
v -0.01484738 -0.07341833 0.09329024
v -0.02543502 -0.07028654 0.09617097
v -0.02017917 -0.07211529 0.09319758
v -0.02543502 -0.07028654 0.09617097
v -0.02751857 -0.06969256 0.09319465
v -0.02751857 -0.06969256 0.09319465
v -0.02543502 -0.07028654 0.09617097
v -0.03458768 -0.06624875 0.09619476
v -0.02751857 -0.06969256 0.09319465
v -0.03458768 -0.06624875 0.09619476
v -0.03462215 -0.06640273 0.09321149
v -0.03462215 -0.06640273 0.09321149
v -0.03458768 -0.06624875 0.09619476
v -0.03897943 -0.06393967 0.09319694
v -0.03897943 -0.06393967 0.09319694
v -0.03458768 -0.06624875 0.09619476
v -0.04293496 -0.06116823 0.09614242
v -0.03897943 -0.06393967 0.09319694
v -0.04293496 -0.06116823 0.09614242
v -0.04728155 -0.05807204 0.09320032
v -0.05097895 -0.05487857 0.09329720
v -0.04728155 -0.05807204 0.09320032
v -0.04293496 -0.06116823 0.09614242
v -0.07383510 -0.01274035 0.09319905
v -0.07398304 -0.01046561 0.09621013
v -0.07488239 -0.00258089 0.09319570
v -0.07488239 -0.00258089 0.09319570
v -0.07398304 -0.01046561 0.09621013
v -0.07472570 0.00000486 0.09615172
v -0.05097895 -0.05487857 0.09329720
v -0.05764522 -0.04756760 0.09619310
v -0.05647792 -0.04923718 0.09319639
v -0.05647792 -0.04923718 0.09319639
v -0.05764522 -0.04756760 0.09619310
v -0.06118207 -0.04317915 0.09319790
v -0.06118207 -0.04317915 0.09319790
v -0.05764522 -0.04756760 0.09619310
v -0.06402784 -0.03853260 0.09621016
v -0.06118207 -0.04317915 0.09319790
v -0.06402784 -0.03853260 0.09621016
v -0.06403932 -0.03881665 0.09320282
v -0.06403932 -0.03881665 0.09320282
v -0.06402784 -0.03853260 0.09621016
v -0.06650467 -0.03441991 0.09319483
v -0.06650467 -0.03441991 0.09319483
v -0.06402784 -0.03853260 0.09621016
v -0.06863412 -0.02966227 0.09607415
v -0.06650467 -0.03441991 0.09319483
v -0.06863412 -0.02966227 0.09607415
v -0.07056067 -0.02507599 0.09320105
v -0.07056067 -0.02507599 0.09320105
v -0.06863412 -0.02966227 0.09607415
v -0.07210884 -0.02019559 0.09319954
v -0.07210884 -0.02019559 0.09319954
v -0.06863412 -0.02966227 0.09607415
v -0.07185680 -0.02051028 0.09619784
v -0.07210884 -0.02019559 0.09319954
v -0.07185680 -0.02051028 0.09619784
v -0.07383510 -0.01274035 0.09319905
v -0.07383510 -0.01274035 0.09319905
v -0.07185680 -0.02051028 0.09619784
v -0.07398304 -0.01046561 0.09621013
v -0.07488239 -0.00258089 0.09319570
v -0.07472570 0.00000486 0.09615172
v -0.07470577 0.00515088 0.09319697
v -0.07470577 0.00515088 0.09319697
v -0.07472570 0.00000486 0.09615172
v -0.07400108 0.01039679 0.09620376
v -0.07470577 0.00515088 0.09319697
v -0.07400108 0.01039679 0.09620376
v -0.07416461 0.01035586 0.09320865
v -0.07416461 0.01035586 0.09320865
v -0.07400108 0.01039679 0.09620376
v -0.07330300 0.01529772 0.09319524
v -0.07330300 0.01529772 0.09319524
v -0.07400108 0.01039679 0.09620376
v -0.07192741 0.02018350 0.09623422
v -0.07330300 0.01529772 0.09319524
v -0.07192741 0.02018350 0.09623422
v -0.07020948 0.02618219 0.09326452
v -0.07020948 0.02618219 0.09326452
v -0.06409223 0.03842086 0.09620549
v -0.06406846 0.03876608 0.09320660
v -0.06406846 0.03876608 0.09320660
v -0.06409223 0.03842086 0.09620549
v -0.06118210 0.04317467 0.09319790
v -0.06118210 0.04317467 0.09319790
v -0.06409223 0.03842086 0.09620549
v -0.05773918 0.04744436 0.09620221
v -0.06118210 0.04317467 0.09319790
v -0.05773918 0.04744436 0.09620221
v -0.05803463 0.04732155 0.09320016
v -0.05803463 0.04732155 0.09320016
v -0.05773918 0.04744436 0.09620221
v -0.05470929 0.05112851 0.09319546
v -0.05470929 0.05112851 0.09319546
v -0.05773918 0.04744436 0.09620221
v -0.05072259 0.05488263 0.09619813
v -0.05470929 0.05112851 0.09319546
v -0.05072259 0.05488263 0.09619813
v -0.04726115 0.05808280 0.09319958
v -0.04726115 0.05808280 0.09319958
v -0.05072259 0.05488263 0.09619813
v -0.04109235 0.06265215 0.09319912
v -0.04109235 0.06265215 0.09319912
v -0.05072259 0.05488263 0.09619813
v -0.04317708 0.06101486 0.09611451
v -0.04109235 0.06265215 0.09319912
v -0.04317708 0.06101486 0.09611451
v -0.03454138 0.06623609 0.09623253
v -0.04109235 0.06265215 0.09319912
v -0.03454138 0.06623609 0.09623253
v -0.03217341 0.06766402 0.09319801
v -0.03217341 0.06766402 0.09319801
v -0.03454138 0.06623609 0.09623253
v -0.02542307 0.07028277 0.09618792
v -0.03217341 0.06766402 0.09319801
v -0.02542307 0.07028277 0.09618792
v -0.02513270 0.07053763 0.09319796
v -0.02513270 0.07053763 0.09319796
v -0.02542307 0.07028277 0.09618792
v -0.02017917 0.07211085 0.09319756
v -0.02017917 0.07211085 0.09319756
v -0.02542307 0.07028277 0.09618792
v -0.01485191 0.07323698 0.09618666
v -0.02017917 0.07211085 0.09319756
v -0.01485191 0.07323698 0.09618666
v -0.01510270 0.07334312 0.09320570
v -0.01510270 0.07334312 0.09320570
v -0.01485191 0.07323698 0.09618666
v -0.01014644 0.07418995 0.09319465
v -0.01014644 0.07418995 0.09319465
v -0.01485191 0.07323698 0.09618666
v -0.00478747 0.07460359 0.09614662
v -0.01014644 0.07418995 0.09319465
v -0.00478747 0.07460359 0.09614662
v 0.00110583 0.07491808 0.09326423
v 0.01504328 0.07335649 0.09320833
v 0.00110583 0.07491808 0.09326423
v 0.01477407 0.07324304 0.09621482
v -0.02425615 -0.05261767 0.53869057
v -0.02924911 -0.04998794 0.53864401
v -0.01794801 -0.05504947 0.53867721
v 0.05261542 -0.02425824 0.53869057
v 0.04998568 -0.02925125 0.53864400
v 0.05504721 -0.01795015 0.53867721
v -0.05066033 -0.05443019 0.09672676
v -0.00507106 -0.07420153 0.09669034
v -0.01513898 -0.07281134 0.09670336
v -0.01484738 -0.07341833 0.09329024
v -0.00507106 -0.07420153 0.09669034
v -0.01484738 -0.07341833 0.09329024
v -0.00513373 -0.07472173 0.09326929
v 0.07198421 -0.02006129 0.09614856
v 0.06821574 -0.02962935 0.09669165
v 0.07020935 -0.02618666 0.09326452
v 0.04294940 0.06073388 0.09665512
v 0.05076124 0.05435138 0.09669362
v 0.05098546 0.05516556 0.09322754
v 0.04294940 0.06073388 0.09665512
v 0.05098546 0.05516556 0.09322754
v 0.04326604 0.06138740 0.09324460
v 0.00508930 0.07421220 0.09665347
v 0.01477407 0.07324304 0.09621482
v 0.00110583 0.07491808 0.09326423
v -0.07192741 0.02018350 0.09623422
v -0.06822450 0.02964778 0.09665331
v -0.07020948 0.02618219 0.09326452
v -0.05764522 -0.04756760 0.09619310
v -0.05097895 -0.05487857 0.09329720
v -0.05066033 -0.05443019 0.09672676
v -0.02543502 -0.07028654 0.09617097
v -0.01484738 -0.07341833 0.09329024
v -0.01513898 -0.07281134 0.09670336
v 0.00492619 -0.07461971 0.09605372
v -0.00507106 -0.07420153 0.09669034
v -0.00513373 -0.07472173 0.09326929
v 0.06403662 -0.03852076 0.09620234
v 0.07020935 -0.02618666 0.09326452
v 0.06821574 -0.02962935 0.09669165
v 0.05771428 0.04747992 0.09619439
v 0.05098546 0.05516556 0.09322754
v 0.05076124 0.05435138 0.09669362
v 0.03470029 0.06618071 0.09620675
v 0.04294940 0.06073388 0.09665512
v 0.04326604 0.06138740 0.09324460
v -0.00478747 0.07460359 0.09614662
v 0.00508930 0.07421220 0.09665347
v 0.00110583 0.07491808 0.09326423
v -0.06409223 0.03842086 0.09620549
v -0.07020948 0.02618219 0.09326452
v -0.06822450 0.02964778 0.09665331
v 0.00908405 0.05717618 0.53868282
v 0.01794790 0.05504505 0.53867720
v 0.01794828 0.05498303 0.53600365
v 0.05717665 0.00909256 0.53868752
v 0.05716455 0.00895660 0.53604632
v 0.05628573 0.01355108 0.53868947
v 0.05628573 0.01355108 0.53868947
v 0.05716455 0.00895660 0.53604632
v 0.05500195 0.01788992 0.53599664
v 0.05628573 0.01355108 0.53868947
v 0.05500195 0.01788992 0.53599664
v 0.05435663 0.02005137 0.53868978
v 0.05435663 0.02005137 0.53868978
v 0.05500195 0.01788992 0.53599664
v 0.05163413 0.02618537 0.53868331
v 0.05163413 0.02618537 0.53868331
v 0.05500195 0.01788992 0.53599664
v 0.05157631 0.02623339 0.53615942
v 0.05163413 0.02618537 0.53868331
v 0.05157631 0.02623339 0.53615942
v 0.04938360 0.03021423 0.53868880
v 0.04938360 0.03021423 0.53868880
v 0.05157631 0.02623339 0.53615942
v 0.04687692 0.03397375 0.53868581
v 0.04687692 0.03397375 0.53868581
v 0.05157631 0.02623339 0.53615942
v 0.04678824 0.03402498 0.53602734
v 0.04687692 0.03397375 0.53868581
v 0.04678824 0.03402498 0.53602734
v 0.04254932 0.03932258 0.53868978
v 0.04254932 0.03932258 0.53868978
v 0.04678824 0.03402498 0.53602734
v 0.04086717 0.04097559 0.53607116
v 0.04254932 0.03932258 0.53868978
v 0.04086717 0.04097559 0.53607116
v 0.03759064 0.04402854 0.53868489
v 0.03759064 0.04402854 0.53868489
v 0.04086717 0.04097559 0.53607116
v 0.03401266 0.04684717 0.53868789
v 0.03401266 0.04684717 0.53868789
v 0.04086717 0.04097559 0.53607116
v 0.03419099 0.04669521 0.53618883
v 0.03401266 0.04684717 0.53868789
v 0.03419099 0.04669521 0.53618883
v 0.02831537 0.05054525 0.53868831
v 0.02831537 0.05054525 0.53868831
v 0.03419099 0.04669521 0.53618883
v 0.02360228 0.05290174 0.53866231
v 0.01794790 0.05504505 0.53867720
v 0.02360228 0.05290174 0.53866231
v 0.01794828 0.05498303 0.53600365
v 0.05716455 0.00895660 0.53604632
v 0.05717665 0.00909256 0.53868752
v 0.05787704 0.00008746 0.53607665
v 0.05787704 0.00008746 0.53607665
v 0.05717665 0.00909256 0.53868752
v 0.05789441 -0.00000869 0.53869192
v 0.05787704 0.00008746 0.53607665
v 0.05789441 -0.00000869 0.53869192
v 0.05718981 -0.00901110 0.53622686
v 0.05718981 -0.00901110 0.53622686
v 0.05789441 -0.00000869 0.53869192
v 0.05717832 -0.00908633 0.53868282
v 0.05718981 -0.00901110 0.53622686
v 0.05717832 -0.00908633 0.53868282
v 0.05498518 -0.01795055 0.53600366
v 0.05498518 -0.01795055 0.53600366
v 0.05717832 -0.00908633 0.53868282
v 0.05504721 -0.01795015 0.53867721
v 0.00909471 -0.05717890 0.53868752
v 0.00895874 -0.05716680 0.53604632
v 0.01572066 -0.05576659 0.53868881
v 0.01572066 -0.05576659 0.53868881
v 0.00895874 -0.05716680 0.53604632
v 0.01789207 -0.05500421 0.53599664
v 0.01572066 -0.05576659 0.53868881
v 0.01789207 -0.05500421 0.53599664
v 0.02208671 -0.05351833 0.53869088
v 0.02208671 -0.05351833 0.53869088
v 0.01789207 -0.05500421 0.53599664
v 0.02618751 -0.05163640 0.53868331
v 0.02618751 -0.05163640 0.53868331
v 0.01789207 -0.05500421 0.53599664
v 0.02623558 -0.05157856 0.53615942
v 0.02618751 -0.05163640 0.53868331
v 0.02623558 -0.05157856 0.53615942
v 0.03021637 -0.04938586 0.53868880
v 0.03021637 -0.04938586 0.53868880
v 0.02623558 -0.05157856 0.53615942
v 0.03397589 -0.04687919 0.53868581
v 0.03397589 -0.04687919 0.53868581
v 0.02623558 -0.05157856 0.53615942
v 0.03402710 -0.04679053 0.53602734
v 0.03397589 -0.04687919 0.53868581
v 0.03402710 -0.04679053 0.53602734
v 0.03932472 -0.04255157 0.53868978
v 0.03932472 -0.04255157 0.53868978
v 0.03402710 -0.04679053 0.53602734
v 0.04097774 -0.04086942 0.53607116
v 0.03932472 -0.04255157 0.53868978
v 0.04097774 -0.04086942 0.53607116
v 0.04403070 -0.03759288 0.53868490
v 0.04403070 -0.03759288 0.53868490
v 0.04097774 -0.04086942 0.53607116
v 0.04684931 -0.03401493 0.53868789
v 0.04684931 -0.03401493 0.53868789
v 0.04097774 -0.04086942 0.53607116
v 0.04670750 -0.03413554 0.53602404
v 0.04684931 -0.03401493 0.53868789
v 0.04670750 -0.03413554 0.53602404
v 0.04998568 -0.02925125 0.53864400
v 0.05504721 -0.01795015 0.53867721
v 0.04998568 -0.02925125 0.53864400
v 0.05498518 -0.01795055 0.53600366
v 0.00895874 -0.05716680 0.53604632
v 0.00909471 -0.05717890 0.53868752
v 0.00008961 -0.05787931 0.53607666
v 0.00008961 -0.05787931 0.53607666
v 0.00909471 -0.05717890 0.53868752
v -0.00000654 -0.05789667 0.53869192
v 0.00008961 -0.05787931 0.53607666
v -0.00000654 -0.05789667 0.53869192
v -0.00899146 -0.05717464 0.53606976
v -0.00908417 -0.05718059 0.53868282
v -0.00899146 -0.05717464 0.53606976
v -0.00908417 -0.05718059 0.53868282
v -0.01794839 -0.05498745 0.53600366
v -0.01794839 -0.05498745 0.53600366
v -0.00908417 -0.05718059 0.53868282
v -0.01794801 -0.05504947 0.53867721
v -0.05717676 -0.00909696 0.53868752
v -0.05716466 -0.00896100 0.53604632
v -0.05628584 -0.01355548 0.53868947
v -0.05628584 -0.01355548 0.53868947
v -0.05716466 -0.00896100 0.53604632
v -0.05500206 -0.01789433 0.53599664
v -0.05628584 -0.01355548 0.53868947
v -0.05500206 -0.01789433 0.53599664
v -0.05502834 -0.01799573 0.53868331
v -0.05502834 -0.01799573 0.53868331
v -0.05500206 -0.01789433 0.53599664
v -0.05261607 -0.02425814 0.53868978
v -0.05261607 -0.02425814 0.53868978
v -0.05500206 -0.01789433 0.53599664
v -0.05153429 -0.02626870 0.53600396
v -0.05261607 -0.02425814 0.53868978
v -0.05153429 -0.02626870 0.53600396
v -0.04938372 -0.03021864 0.53868880
v -0.04938372 -0.03021864 0.53868880
v -0.05153429 -0.02626870 0.53600396
v -0.04687704 -0.03397816 0.53868581
v -0.04687704 -0.03397816 0.53868581
v -0.05153429 -0.02626870 0.53600396
v -0.04678835 -0.03402938 0.53602734
v -0.04687704 -0.03397816 0.53868581
v -0.04678835 -0.03402938 0.53602734
v -0.04254943 -0.03932699 0.53868978
v -0.04254943 -0.03932699 0.53868978
v -0.04678835 -0.03402938 0.53602734
v -0.04090767 -0.04097231 0.53623754
v -0.04254943 -0.03932699 0.53868978
v -0.04090767 -0.04097231 0.53623754
v -0.03759075 -0.04403295 0.53868490
v -0.03759075 -0.04403295 0.53868490
v -0.04090767 -0.04097231 0.53623754
v -0.03401277 -0.04685157 0.53868789
v -0.03401277 -0.04685157 0.53868789
v -0.04090767 -0.04097231 0.53623754
v -0.03413340 -0.04670976 0.53602404
v -0.03401277 -0.04685157 0.53868789
v -0.03413340 -0.04670976 0.53602404
v -0.02924911 -0.04998794 0.53864401
v -0.01794801 -0.05504947 0.53867721
v -0.02924911 -0.04998794 0.53864401
v -0.01794839 -0.05498745 0.53600366
v -0.05716466 -0.00896100 0.53604632
v -0.05717676 -0.00909696 0.53868752
v -0.05790111 -0.00005272 0.53624493
v -0.05790111 -0.00005272 0.53624493
v -0.05717676 -0.00909696 0.53868752
v -0.05789452 0.00000428 0.53869192
v -0.05790111 -0.00005272 0.53624493
v -0.05789452 0.00000428 0.53869192
v -0.05717249 0.00898919 0.53606976
v -0.05717249 0.00898919 0.53606976
v -0.05789452 0.00000428 0.53869192
v -0.05717844 0.00908192 0.53868282
v -0.05717249 0.00898919 0.53606976
v -0.05717844 0.00908192 0.53868282
v -0.05498530 0.01794612 0.53600366
v -0.05498530 0.01794612 0.53600366
v -0.05717844 0.00908192 0.53868282
v -0.05504732 0.01794573 0.53867721
v 0.01794828 0.05498303 0.53600365
v 0.00915037 0.05712641 0.53611584
v 0.00908405 0.05717618 0.53868282
v 0.00908405 0.05717618 0.53868282
v 0.00915037 0.05712641 0.53611584
v 0.00000643 0.05789225 0.53869191
v 0.00000643 0.05789225 0.53869191
v 0.00915037 0.05712641 0.53611584
v -0.00005058 0.05789883 0.53624492
v 0.00000643 0.05789225 0.53869191
v -0.00005058 0.05789883 0.53624492
v -0.00909483 0.05717449 0.53868752
v -0.00005058 0.05789883 0.53624492
v -0.00895888 0.05716238 0.53604632
v -0.00909483 0.05717449 0.53868752
v -0.00909483 0.05717449 0.53868752
v -0.00895888 0.05716238 0.53604632
v -0.01572067 0.05576221 0.53868880
v -0.01572067 0.05576221 0.53868880
v -0.00895888 0.05716238 0.53604632
v -0.01785499 0.05503607 0.53614934
v -0.01572067 0.05576221 0.53868880
v -0.01785499 0.05503607 0.53614934
v -0.02208684 0.05351393 0.53869088
v -0.02208684 0.05351393 0.53869088
v -0.01785499 0.05503607 0.53614934
v -0.02618761 0.05163199 0.53868331
v -0.02618761 0.05163199 0.53868331
v -0.01785499 0.05503607 0.53614934
v -0.02626657 0.05153201 0.53600396
v -0.02618761 0.05163199 0.53868331
v -0.02626657 0.05153201 0.53600396
v -0.03021649 0.04938146 0.53868880
v -0.03021649 0.04938146 0.53868880
v -0.02626657 0.05153201 0.53600396
v -0.03397601 0.04687477 0.53868581
v -0.03397601 0.04687477 0.53868581
v -0.02626657 0.05153201 0.53600396
v -0.03402722 0.04678611 0.53602734
v -0.03397601 0.04687477 0.53868581
v -0.03402722 0.04678611 0.53602734
v -0.03932484 0.04254717 0.53868978
v -0.03932484 0.04254717 0.53868978
v -0.03402722 0.04678611 0.53602734
v -0.04097785 0.04086502 0.53607116
v -0.03932484 0.04254717 0.53868978
v -0.04097785 0.04086502 0.53607116
v -0.04403081 0.03758847 0.53868489
v -0.04403081 0.03758847 0.53868489
v -0.04097785 0.04086502 0.53607116
v -0.04684942 0.03401051 0.53868789
v -0.04684942 0.03401051 0.53868789
v -0.04097785 0.04086502 0.53607116
v -0.04670760 0.03413113 0.53602404
v -0.04684942 0.03401051 0.53868789
v -0.04670760 0.03413113 0.53602404
v -0.05054762 0.02831301 0.53868831
v -0.05054762 0.02831301 0.53868831
v -0.04670760 0.03413113 0.53602404
v -0.05290391 0.02360032 0.53866231
v -0.05504732 0.01794573 0.53867721
v -0.05290391 0.02360032 0.53866231
v -0.05498530 0.01794612 0.53600366
v 0.03959200 -0.04377607 0.11240274
v 0.05772502 -0.04747136 0.09618401
v 0.05058659 -0.03039823 0.11235264
v 0.05058659 -0.03039823 0.11235264
v 0.05772502 -0.04747136 0.09618401
v 0.06403662 -0.03852076 0.09620234
v 0.05058659 -0.03039823 0.11235264
v 0.06403662 -0.03852076 0.09620234
v 0.06821574 -0.02962935 0.09669165
v 0.05058659 -0.03039823 0.11235264
v 0.06821574 -0.02962935 0.09669165
v 0.05609052 -0.01768272 0.11247124
v 0.05609052 -0.01768272 0.11247124
v 0.06821574 -0.02962935 0.09669165
v 0.07198421 -0.02006129 0.09614856
v 0.05609052 -0.01768272 0.11247124
v 0.07198421 -0.02006129 0.09614856
v 0.05660835 -0.00804072 0.11443971
v 0.05660835 -0.00804072 0.11443971
v 0.07198421 -0.02006129 0.09614856
v 0.07398147 -0.01051775 0.09621180
v 0.05660835 -0.00804072 0.11443971
v 0.07398147 -0.01051775 0.09621180
v 0.05852162 0.00486677 0.11284773
v 0.05852162 0.00486677 0.11284773
v 0.07398147 -0.01051775 0.09621180
v 0.07472640 0.00009028 0.09614870
v 0.05852162 0.00486677 0.11284773
v 0.07472640 0.00009028 0.09614870
v 0.07395965 0.01049485 0.09624455
v 0.05852162 0.00486677 0.11284773
v 0.07395965 0.01049485 0.09624455
v 0.05451634 0.02248507 0.11247183
v 0.05451634 0.02248507 0.11247183
v 0.07395965 0.01049485 0.09624455
v 0.07193845 0.02034009 0.09609632
v 0.05451634 0.02248507 0.11247183
v 0.07193845 0.02034009 0.09609632
v 0.06866941 0.02952298 0.09616639
v 0.05451634 0.02248507 0.11247183
v 0.06866941 0.02952298 0.09616639
v 0.06404663 0.03850479 0.09618785
v 0.05451634 0.02248507 0.11247183
v 0.06404663 0.03850479 0.09618785
v 0.04580506 0.03704738 0.11249004
v 0.04580506 0.03704738 0.11249004
v 0.06404663 0.03850479 0.09618785
v 0.05771428 0.04747992 0.09619439
v 0.04580506 0.03704738 0.11249004
v 0.05771428 0.04747992 0.09619439
v 0.05076124 0.05435138 0.09669362
v 0.04580506 0.03704738 0.11249004
v 0.05076124 0.05435138 0.09669362
v 0.03561136 0.04681162 0.11245994
v 0.03561136 0.04681162 0.11245994
v 0.05076124 0.05435138 0.09669362
v 0.04294940 0.06073388 0.09665512
v 0.03561136 0.04681162 0.11245994
v 0.04294940 0.06073388 0.09665512
v 0.02671050 0.05055288 0.11443651
v 0.02671050 0.05055288 0.11443651
v 0.04294940 0.06073388 0.09665512
v 0.03470029 0.06618071 0.09620675
v 0.02671050 0.05055288 0.11443651
v 0.03470029 0.06618071 0.09620675
v 0.01862271 0.05405348 0.11444791
v 0.02540301 0.07029027 0.09618821
v 0.01862271 0.05405348 0.11444791
v 0.02540301 0.07029027 0.09618821
v 0.00625556 0.05861076 0.11250764
v 0.00625556 0.05861076 0.11250764
v 0.02540301 0.07029027 0.09618821
v 0.01477407 0.07324304 0.09621482
v 0.00625556 0.05861076 0.11250764
v 0.01477407 0.07324304 0.09621482
v 0.00508930 0.07421220 0.09665347
v 0.00625556 0.05861076 0.11250764
v 0.00508930 0.07421220 0.09665347
v -0.00478747 0.07460359 0.09614662
v -0.00703898 0.05841888 0.11242484
v -0.00703898 0.05841888 0.11242484
v -0.00478747 0.07460359 0.09614662
v -0.01485191 0.07323698 0.09618666
v -0.00703898 0.05841888 0.11242484
v -0.01485191 0.07323698 0.09618666
v -0.01939479 0.05563649 0.11247884
v -0.01939479 0.05563649 0.11247884
v -0.01485191 0.07323698 0.09618666
v -0.02542307 0.07028277 0.09618792
v -0.01939479 0.05563649 0.11247884
v -0.02542307 0.07028277 0.09618792
v -0.03454138 0.06623609 0.09623253
v -0.01939479 0.05563649 0.11247884
v -0.03454138 0.06623609 0.09623253
v -0.03201778 0.04934978 0.11244753
v -0.03201778 0.04934978 0.11244753
v -0.03454138 0.06623609 0.09623253
v -0.04317708 0.06101486 0.09611451
v -0.03201778 0.04934978 0.11244753
v -0.04317708 0.06101486 0.09611451
v -0.03854359 0.04223332 0.11443271
v -0.03854359 0.04223332 0.11443271
v -0.04317708 0.06101486 0.09611451
v -0.05072259 0.05488263 0.09619813
v -0.03854359 0.04223332 0.11443271
v -0.05072259 0.05488263 0.09619813
v -0.04542329 0.03729542 0.11252403
v -0.04542329 0.03729542 0.11252403
v -0.05072259 0.05488263 0.09619813
v -0.05773918 0.04744436 0.09620221
v -0.04542329 0.03729542 0.11252403
v -0.05773918 0.04744436 0.09620221
v -0.04923525 0.02907138 0.11441201
v -0.04923525 0.02907138 0.11441201
v -0.05773918 0.04744436 0.09620221
v -0.06409223 0.03842086 0.09620549
v -0.04923525 0.02907138 0.11441201
v -0.06409223 0.03842086 0.09620549
v -0.05312310 0.02115300 0.11440821
v -0.05312310 0.02115300 0.11440821
v -0.06409223 0.03842086 0.09620549
v -0.06822450 0.02964778 0.09665331
v -0.05312310 0.02115300 0.11440821
v -0.06822450 0.02964778 0.09665331
v -0.07192741 0.02018350 0.09623422
v -0.05312310 0.02115300 0.11440821
v -0.07192741 0.02018350 0.09623422
v -0.05575753 0.01271562 0.11439031
v -0.05575753 0.01271562 0.11439031
v -0.07192741 0.02018350 0.09623422
v -0.07400108 0.01039679 0.09620376
v -0.05575753 0.01271562 0.11439031
v -0.07400108 0.01039679 0.09620376
v -0.05696626 0.00365487 0.11464351
v -0.05696626 0.00365487 0.11464351
v -0.07400108 0.01039679 0.09620376
v -0.05829302 -0.00777789 0.11266644
v -0.05829302 -0.00777789 0.11266644
v -0.07400108 0.01039679 0.09620376
v -0.07472570 0.00000486 0.09615172
v -0.05829302 -0.00777789 0.11266644
v -0.07472570 0.00000486 0.09615172
v -0.07398304 -0.01046561 0.09621013
v -0.05829302 -0.00777789 0.11266644
v -0.07398304 -0.01046561 0.09621013
v -0.07185680 -0.02051028 0.09619784
v -0.05829302 -0.00777789 0.11266644
v -0.07185680 -0.02051028 0.09619784
v -0.05278393 -0.02199109 0.11442842
v -0.05278393 -0.02199109 0.11442842
v -0.07185680 -0.02051028 0.09619784
v -0.06863412 -0.02966227 0.09607415
v -0.05278393 -0.02199109 0.11442842
v -0.06863412 -0.02966227 0.09607415
v -0.04877351 -0.02983626 0.11444481
v -0.04877351 -0.02983626 0.11444481
v -0.06863412 -0.02966227 0.09607415
v -0.06402784 -0.03853260 0.09621016
v -0.04877351 -0.02983626 0.11444481
v -0.06402784 -0.03853260 0.09621016
v -0.04523476 -0.03755297 0.11249814
v -0.04523476 -0.03755297 0.11249814
v -0.06402784 -0.03853260 0.09621016
v -0.05764522 -0.04756760 0.09619310
v -0.04523476 -0.03755297 0.11249814
v -0.05764522 -0.04756760 0.09619310
v -0.03787689 -0.04283725 0.11441011
v -0.05066033 -0.05443019 0.09672676
v -0.03787689 -0.04283725 0.11441011
v -0.05066033 -0.05443019 0.09672676
v -0.03083070 -0.04816687 0.11439511
v -0.03083070 -0.04816687 0.11439511
v -0.05066033 -0.05443019 0.09672676
v -0.04293496 -0.06116823 0.09614242
v -0.03083070 -0.04816687 0.11439511
v -0.04293496 -0.06116823 0.09614242
v -0.03458768 -0.06624875 0.09619476
v -0.03083070 -0.04816687 0.11439511
v -0.03458768 -0.06624875 0.09619476
v -0.02271102 -0.05237256 0.11464431
v -0.02271102 -0.05237256 0.11464431
v -0.03458768 -0.06624875 0.09619476
v -0.01579242 -0.05648904 0.11267674
v -0.03458768 -0.06624875 0.09619476
v -0.02543502 -0.07028654 0.09617097
v -0.01579242 -0.05648904 0.11267674
v -0.01579242 -0.05648904 0.11267674
v -0.02543502 -0.07028654 0.09617097
v -0.01513898 -0.07281134 0.09670336
v -0.01579242 -0.05648904 0.11267674
v -0.01513898 -0.07281134 0.09670336
v -0.00315702 -0.05886540 0.11248074
v -0.00315702 -0.05886540 0.11248074
v -0.01513898 -0.07281134 0.09670336
v -0.00507106 -0.07420153 0.09669034
v -0.00315702 -0.05886540 0.11248074
v -0.00507106 -0.07420153 0.09669034
v 0.00492619 -0.07461971 0.09605372
v -0.00315702 -0.05886540 0.11248074
v 0.00492619 -0.07461971 0.09605372
v 0.01158031 -0.05599246 0.11444252
v 0.01158031 -0.05599246 0.11444252
v 0.00492619 -0.07461971 0.09605372
v 0.01487115 -0.07323221 0.09621310
v 0.01158031 -0.05599246 0.11444252
v 0.01487115 -0.07323221 0.09621310
v 0.02459452 -0.05357266 0.11250744
v 0.02459452 -0.05357266 0.11250744
v 0.01487115 -0.07323221 0.09621310
v 0.02552479 -0.07025058 0.09618287
v 0.02459452 -0.05357266 0.11250744
v 0.02552479 -0.07025058 0.09618287
v 0.03466293 -0.06617320 0.09624665
v 0.02459452 -0.05357266 0.11250744
v 0.03466293 -0.06617320 0.09624665
v 0.03959200 -0.04377607 0.11240274
v 0.03959200 -0.04377607 0.11240274
v 0.03466293 -0.06617320 0.09624665
v 0.04323239 -0.06098234 0.09611089
v 0.03959200 -0.04377607 0.11240274
v 0.04323239 -0.06098234 0.09611089
v 0.05083060 -0.05479392 0.09618235
v 0.03959200 -0.04377607 0.11240274
v 0.05083060 -0.05479392 0.09618235
v 0.05772502 -0.04747136 0.09618401
v -0.02624746 -0.05146588 0.53585376
v -0.02924911 -0.04998794 0.53864401
v -0.03413340 -0.04670976 0.53602404
v -0.02624746 -0.05146588 0.53585376
v -0.01794839 -0.05498745 0.53600366
v -0.02924911 -0.04998794 0.53864401
v 0.05146362 -0.02624961 0.53585376
v 0.04998568 -0.02925125 0.53864400
v 0.04670750 -0.03413554 0.53602404
v 0.05146362 -0.02624961 0.53585376
v 0.05498518 -0.01795055 0.53600366
v 0.04998568 -0.02925125 0.53864400
v 0.02624734 0.05146146 0.53585375
v 0.02360228 0.05290174 0.53866231
v 0.03419099 0.04669521 0.53618883
v 0.02624734 0.05146146 0.53585375
v 0.01794828 0.05498303 0.53600365
v 0.02360228 0.05290174 0.53866231
v -0.05146372 0.02624522 0.53585376
v -0.05290391 0.02360032 0.53866231
v -0.04670760 0.03413113 0.53602404
v -0.05146372 0.02624522 0.53585376
v -0.05498530 0.01794612 0.53600366
v -0.05290391 0.02360032 0.53866231
v -0.01696319 0.05253335 0.53141881
v -0.02626657 0.05153201 0.53600396
v -0.01785499 0.05503607 0.53614934
v -0.01696319 0.05253335 0.53141881
v -0.01785499 0.05503607 0.53614934
v -0.00895888 0.05716238 0.53604632
v 0.00002305 0.05527151 0.53156292
v -0.00895888 0.05716238 0.53604632
v -0.00005058 0.05789883 0.53624492
v 0.00002305 0.05527151 0.53156292
v -0.00005058 0.05789883 0.53624492
v 0.00915037 0.05712641 0.53611584
v 0.03221714 0.04485697 0.53146972
v 0.02624734 0.05146146 0.53585375
v 0.03419099 0.04669521 0.53618883
v 0.03221714 0.04485697 0.53146972
v 0.03419099 0.04669521 0.53618883
v 0.04086717 0.04097559 0.53607116
v 0.04927796 0.02489906 0.53143011
v 0.04678824 0.03402498 0.53602734
v 0.05157631 0.02623339 0.53615942
v 0.04927796 0.02489906 0.53143011
v 0.05157631 0.02623339 0.53615942
v 0.05500195 0.01788992 0.53599664
v 0.05458353 -0.00836795 0.53145159
v 0.05787704 0.00008746 0.53607665
v 0.05718981 -0.00901110 0.53622686
v 0.05458353 -0.00836795 0.53145159
v 0.05718981 -0.00901110 0.53622686
v 0.05498518 -0.01795055 0.53600366
v 0.02486054 -0.04931206 0.53145062
v 0.03402710 -0.04679053 0.53602734
v 0.02623558 -0.05157856 0.53615942
v 0.02486054 -0.04931206 0.53145062
v 0.02623558 -0.05157856 0.53615942
v 0.01789207 -0.05500421 0.53599664
v -0.03919073 -0.03892444 0.53147790
v -0.03413340 -0.04670976 0.53602404
v -0.04090767 -0.04097231 0.53623754
v -0.03919073 -0.03892444 0.53147790
v -0.04090767 -0.04097231 0.53623754
v -0.04678835 -0.03402938 0.53602734
v -0.05524674 0.00005861 0.53150597
v -0.05716466 -0.00896100 0.53604632
v -0.05790111 -0.00005272 0.53624493
v -0.05524674 0.00005861 0.53150597
v -0.05790111 -0.00005272 0.53624493
v -0.05717249 0.00898919 0.53606976
v 0.05451634 0.02248507 0.11247183
v 0.05295414 0.01598408 0.11893155
v 0.05477117 0.00771843 0.11893635
v 0.05852162 0.00486677 0.11284773
v 0.05537060 -0.00044492 0.11876076
v 0.05660835 -0.00804072 0.11443971
v 0.03959200 -0.04377607 0.11240274
v 0.05058659 -0.03039823 0.11235264
v 0.03937692 -0.03883223 0.11896126
v 0.03959200 -0.04377607 0.11240274
v 0.03937692 -0.03883223 0.11896126
v 0.03300117 -0.04437792 0.11896106
v 0.03959200 -0.04377607 0.11240274
v 0.03300117 -0.04437792 0.11896106
v 0.02585638 -0.04888751 0.11895906
v 0.02459452 -0.05357266 0.11250744
v 0.01814875 -0.05226488 0.11889746
v 0.01158031 -0.05599246 0.11444252
v -0.03787689 -0.04283725 0.11441011
v -0.03083070 -0.04816687 0.11439511
v -0.03277239 -0.04441734 0.12157812
v -0.03787689 -0.04283725 0.11441011
v -0.03277239 -0.04441734 0.12157812
v -0.04300620 -0.03479632 0.11890866
v -0.04523476 -0.03755297 0.11249814
v -0.03787689 -0.04283725 0.11441011
v -0.04300620 -0.03479632 0.11890866
v -0.04523476 -0.03755297 0.11249814
v -0.04300620 -0.03479632 0.11890866
v -0.04877351 -0.02983626 0.11444481
v -0.05278393 -0.02199109 0.11442842
v -0.04877351 -0.02983626 0.11444481
v -0.05113453 -0.02039672 0.12157302
v -0.05278393 -0.02199109 0.11442842
v -0.05113453 -0.02039672 0.12157302
v -0.05388471 -0.01233513 0.11900135
v -0.04542329 0.03729542 0.11252403
v -0.04923525 0.02907138 0.11441201
v -0.04272828 0.03511308 0.11892145
v -0.04542329 0.03729542 0.11252403
v -0.04272828 0.03511308 0.11892145
v -0.03854359 0.04223332 0.11443271
v 0.00625556 0.05861076 0.11250764
v -0.00703898 0.05841888 0.11242484
v 0.00242583 0.05524628 0.11893725
v 0.00625556 0.05861076 0.11250764
v 0.00242583 0.05524628 0.11893725
v 0.01085165 0.05422599 0.11894085
v 0.01862271 0.05405348 0.11444791
v 0.01085165 0.05422599 0.11894085
v 0.01875052 0.05177214 0.12148622
v 0.01862271 0.05405348 0.11444791
v 0.01875052 0.05177214 0.12148622
v 0.02642285 0.04830576 0.12150572
v 0.05440431 -0.00851535 0.12147832
v 0.05271448 -0.01666066 0.11898115
v 0.05660835 -0.00804072 0.11443971
v 0.05440431 -0.00851535 0.12147832
v 0.05660835 -0.00804072 0.11443971
v 0.05537060 -0.00044492 0.11876076
v 0.05477117 0.00771843 0.11893635
v 0.05537060 -0.00044492 0.11876076
v 0.05852162 0.00486677 0.11284773
v 0.05477117 0.00771843 0.11893635
v 0.05852162 0.00486677 0.11284773
v 0.05451634 0.02248507 0.11247183
v 0.05609052 -0.01768272 0.11247124
v 0.05660835 -0.00804072 0.11443971
v 0.05271448 -0.01666066 0.11898115
v 0.05609052 -0.01768272 0.11247124
v 0.05271448 -0.01666066 0.11898115
v 0.04955731 -0.02450962 0.11897586
v 0.04955731 -0.02450962 0.11897586
v 0.04505544 -0.03218848 0.11876296
v 0.05058659 -0.03039823 0.11235264
v 0.04955731 -0.02450962 0.11897586
v 0.05058659 -0.03039823 0.11235264
v 0.05609052 -0.01768272 0.11247124
v 0.04505544 -0.03218848 0.11876296
v 0.03937692 -0.03883223 0.11896126
v 0.05058659 -0.03039823 0.11235264
v 0.00983386 -0.05414528 0.12173802
v 0.00176707 -0.05525280 0.11900116
v 0.01158031 -0.05599246 0.11444252
v 0.00983386 -0.05414528 0.12173802
v 0.01158031 -0.05599246 0.11444252
v 0.01814875 -0.05226488 0.11889746
v 0.02585638 -0.04888751 0.11895906
v 0.01814875 -0.05226488 0.11889746
v 0.02459452 -0.05357266 0.11250744
v 0.02585638 -0.04888751 0.11895906
v 0.02459452 -0.05357266 0.11250744
v 0.03959200 -0.04377607 0.11240274
v -0.00315702 -0.05886540 0.11248074
v 0.01158031 -0.05599246 0.11444252
v 0.00176707 -0.05525280 0.11900116
v -0.00315702 -0.05886540 0.11248074
v 0.00176707 -0.05525280 0.11900116
v -0.00626524 -0.05494110 0.11895196
v -0.00315702 -0.05886540 0.11248074
v -0.00626524 -0.05494110 0.11895196
v -0.01498272 -0.05330533 0.11876606
v -0.02271102 -0.05237256 0.11464431
v -0.01498272 -0.05330533 0.11876606
v -0.02255772 -0.05021751 0.12159332
v -0.02271102 -0.05237256 0.11464431
v -0.02255772 -0.05021751 0.12159332
v -0.03277239 -0.04441734 0.12157812
v -0.01579242 -0.05648904 0.11267674
v -0.00315702 -0.05886540 0.11248074
v -0.01498272 -0.05330533 0.11876606
v -0.01579242 -0.05648904 0.11267674
v -0.01498272 -0.05330533 0.11876606
v -0.02271102 -0.05237256 0.11464431
v -0.03083070 -0.04816687 0.11439511
v -0.02271102 -0.05237256 0.11464431
v -0.03277239 -0.04441734 0.12157812
v -0.04743834 -0.02792906 0.12159502
v -0.05113453 -0.02039672 0.12157302
v -0.04877351 -0.02983626 0.11444481
v -0.04743834 -0.02792906 0.12159502
v -0.04877351 -0.02983626 0.11444481
v -0.04300620 -0.03479632 0.11890866
v -0.05829302 -0.00777789 0.11266644
v -0.05278393 -0.02199109 0.11442842
v -0.05388471 -0.01233513 0.11900135
v -0.05829302 -0.00777789 0.11266644
v -0.05388471 -0.01233513 0.11900135
v -0.05521697 -0.00367605 0.11885156
v -0.05696626 0.00365487 0.11464351
v -0.05521697 -0.00367605 0.11885156
v -0.05468629 0.00756610 0.12151342
v -0.05468629 0.00756610 0.12151342
v -0.05108891 0.02050060 0.12157272
v -0.05575753 0.01271562 0.11439031
v -0.05468629 0.00756610 0.12151342
v -0.05575753 0.01271562 0.11439031
v -0.05696626 0.00365487 0.11464351
v -0.05521697 -0.00367605 0.11885156
v -0.05696626 0.00365487 0.11464351
v -0.05829302 -0.00777789 0.11266644
v -0.05312310 0.02115300 0.11440821
v -0.05575753 0.01271562 0.11439031
v -0.05108891 0.02050060 0.12157272
v -0.05312310 0.02115300 0.11440821
v -0.05108891 0.02050060 0.12157272
v -0.04735498 0.02809136 0.12150242
v -0.04735498 0.02809136 0.12150242
v -0.04272828 0.03511308 0.11892145
v -0.04923525 0.02907138 0.11441201
v -0.04735498 0.02809136 0.12150242
v -0.04923525 0.02907138 0.11441201
v -0.05312310 0.02115300 0.11440821
v -0.03649005 0.04120440 0.12163982
v -0.03016187 0.04635832 0.11891565
v -0.03854359 0.04223332 0.11443271
v -0.03649005 0.04120440 0.12163982
v -0.03854359 0.04223332 0.11443271
v -0.04272828 0.03511308 0.11892145
v -0.03201778 0.04934978 0.11244753
v -0.03854359 0.04223332 0.11443271
v -0.03016187 0.04635832 0.11891565
v -0.03201778 0.04934978 0.11244753
v -0.03016187 0.04635832 0.11891565
v -0.02245969 0.05049264 0.11903495
v -0.02245969 0.05049264 0.11903495
v -0.01415123 0.05353625 0.11875266
v -0.01939479 0.05563649 0.11247884
v -0.02245969 0.05049264 0.11903495
v -0.01939479 0.05563649 0.11247884
v -0.03201778 0.04934978 0.11244753
v -0.01939479 0.05563649 0.11247884
v -0.01415123 0.05353625 0.11875266
v -0.00569513 0.05500984 0.11894766
v -0.00569513 0.05500984 0.11894766
v 0.00242583 0.05524628 0.11893725
v -0.00703898 0.05841888 0.11242484
v -0.00569513 0.05500984 0.11894766
v -0.00703898 0.05841888 0.11242484
v -0.01939479 0.05563649 0.11247884
v 0.02642285 0.04830576 0.12150572
v 0.03356483 0.04391656 0.11900255
v 0.02671050 0.05055288 0.11443651
v 0.02642285 0.04830576 0.12150572
v 0.02671050 0.05055288 0.11443651
v 0.01862271 0.05405348 0.11444791
v 0.01085165 0.05422599 0.11894085
v 0.01862271 0.05405348 0.11444791
v 0.00625556 0.05861076 0.11250764
v 0.03561136 0.04681162 0.11245994
v 0.02671050 0.05055288 0.11443651
v 0.03356483 0.04391656 0.11900255
v 0.03561136 0.04681162 0.11245994
v 0.03356483 0.04391656 0.11900255
v 0.03986352 0.03829007 0.11900385
v 0.03986352 0.03829007 0.11900385
v 0.04556535 0.03146304 0.11875836
v 0.04580506 0.03704738 0.11249004
v 0.03986352 0.03829007 0.11900385
v 0.04580506 0.03704738 0.11249004
v 0.03561136 0.04681162 0.11245994
v 0.04580506 0.03704738 0.11249004
v 0.04556535 0.03146304 0.11875836
v 0.04989589 0.02388018 0.11892526
v 0.05451634 0.02248507 0.11247183
v 0.04580506 0.03704738 0.11249004
v 0.04989589 0.02388018 0.11892526
v 0.05451634 0.02248507 0.11247183
v 0.04989589 0.02388018 0.11892526
v 0.05295414 0.01598408 0.11893155
v 0.00002305 0.05527151 0.53156292
v 0.00915037 0.05712641 0.53611584
v 0.00859614 0.05440484 0.53032844
v 0.00859614 0.05440484 0.53032844
v 0.00915037 0.05712641 0.53611584
v 0.01684307 0.05255303 0.53114788
v 0.05716455 0.00895660 0.53604632
v 0.05453578 0.00839848 0.53111651
v 0.05500195 0.01788992 0.53599664
v 0.05500195 0.01788992 0.53599664
v 0.05453578 0.00839848 0.53111651
v 0.05254743 0.01683095 0.53111352
v 0.05500195 0.01788992 0.53599664
v 0.05254743 0.01683095 0.53111352
v 0.04927796 0.02489906 0.53143011
v 0.04678824 0.03402498 0.53602734
v 0.04927796 0.02489906 0.53143011
v 0.04476666 0.03224822 0.53110333
v 0.04678824 0.03402498 0.53602734
v 0.04476666 0.03224822 0.53110333
v 0.04086717 0.04097559 0.53607116
v 0.03902916 0.03907218 0.53124847
v 0.04086717 0.04097559 0.53607116
v 0.03902916 0.03907218 0.53124847
v 0.03221714 0.04485697 0.53146972
v 0.02486877 0.04926588 0.53114941
v 0.02624734 0.05146146 0.53585375
v 0.02486877 0.04926588 0.53114941
v 0.01794828 0.05498303 0.53600365
v 0.01794828 0.05498303 0.53600365
v 0.02486877 0.04926588 0.53114941
v 0.01684307 0.05255303 0.53114788
v 0.01794828 0.05498303 0.53600365
v 0.01684307 0.05255303 0.53114788
v 0.00915037 0.05712641 0.53611584
v -0.00895888 0.05716238 0.53604632
v 0.00002305 0.05527151 0.53156292
v -0.00846151 0.05451923 0.53110589
v -0.00895888 0.05716238 0.53604632
v -0.00846151 0.05451923 0.53110589
v -0.01696319 0.05253335 0.53141881
v -0.02626657 0.05153201 0.53600396
v -0.01696319 0.05253335 0.53141881
v -0.02489645 0.04920099 0.53102673
v -0.02626657 0.05153201 0.53600396
v -0.02489645 0.04920099 0.53102673
v -0.03402722 0.04678611 0.53602734
v -0.03402722 0.04678611 0.53602734
v -0.02489645 0.04920099 0.53102673
v -0.03218492 0.04484052 0.53116021
v -0.03402722 0.04678611 0.53602734
v -0.03218492 0.04484052 0.53116021
v -0.04097785 0.04086502 0.53607116
v -0.03911868 0.03898496 0.53125341
v -0.04097785 0.04086502 0.53607116
v -0.03911868 0.03898496 0.53125341
v -0.04670760 0.03413113 0.53602404
v -0.04470121 0.03235286 0.53113140
v -0.04670760 0.03413113 0.53602404
v -0.04470121 0.03235286 0.53113140
v -0.05146372 0.02624522 0.53585376
v -0.04909925 0.02511622 0.53105078
v -0.05146372 0.02624522 0.53585376
v -0.04909925 0.02511622 0.53105078
v -0.05498530 0.01794612 0.53600366
v -0.05244307 0.01709446 0.53107232
v -0.05498530 0.01794612 0.53600366
v -0.05244307 0.01709446 0.53107232
v -0.05717249 0.00898919 0.53606976
v -0.05448410 0.00865103 0.53109198
v -0.05717249 0.00898919 0.53606976
v -0.05448410 0.00865103 0.53109198
v -0.05524674 0.00005861 0.53150597
v -0.05716466 -0.00896100 0.53604632
v -0.05524674 0.00005861 0.53150597
v -0.05452231 -0.00841486 0.53108710
v -0.05716466 -0.00896100 0.53604632
v -0.05452231 -0.00841486 0.53108710
v -0.05500206 -0.01789433 0.53599664
v -0.05500206 -0.01789433 0.53599664
v -0.05452231 -0.00841486 0.53108710
v -0.05255448 -0.01682487 0.53112201
v -0.05500206 -0.01789433 0.53599664
v -0.05255448 -0.01682487 0.53112201
v -0.05153429 -0.02626870 0.53600396
v -0.05153429 -0.02626870 0.53600396
v -0.05255448 -0.01682487 0.53112201
v -0.04918134 -0.02500949 0.53110901
v -0.05153429 -0.02626870 0.53600396
v -0.04918134 -0.02500949 0.53110901
v -0.04678835 -0.03402938 0.53602734
v -0.04458270 -0.03246832 0.53105298
v -0.04678835 -0.03402938 0.53602734
v -0.04458270 -0.03246832 0.53105298
v -0.03919073 -0.03892444 0.53147790
v -0.03413340 -0.04670976 0.53602404
v -0.03919073 -0.03892444 0.53147790
v -0.03253116 -0.04462854 0.53123999
v -0.03413340 -0.04670976 0.53602404
v -0.03253116 -0.04462854 0.53123999
v -0.02624746 -0.05146588 0.53585376
v -0.02499022 -0.04918125 0.53108539
v -0.02624746 -0.05146588 0.53585376
v -0.02499022 -0.04918125 0.53108539
v -0.01794839 -0.05498745 0.53600366
v -0.01794839 -0.05498745 0.53600366
v -0.02499022 -0.04918125 0.53108539
v -0.01697815 -0.05249384 0.53109821
v -0.01794839 -0.05498745 0.53600366
v -0.01697815 -0.05249384 0.53109821
v -0.00899146 -0.05717464 0.53606976
v -0.00899146 -0.05717464 0.53606976
v -0.01697815 -0.05249384 0.53109821
v -0.00854760 -0.05450942 0.53110931
v -0.00899146 -0.05717464 0.53606976
v -0.00854760 -0.05450942 0.53110931
v 0.00008961 -0.05787931 0.53607666
v -0.00002157 -0.05520448 0.53118432
v 0.00008961 -0.05787931 0.53607666
v -0.00002157 -0.05520448 0.53118432
v 0.00895874 -0.05716680 0.53604632
v 0.00895874 -0.05716680 0.53604632
v -0.00002157 -0.05520448 0.53118432
v 0.00845597 -0.05453403 0.53113031
v 0.00895874 -0.05716680 0.53604632
v 0.00845597 -0.05453403 0.53113031
v 0.01789207 -0.05500421 0.53599664
v 0.01789207 -0.05500421 0.53599664
v 0.00845597 -0.05453403 0.53113031
v 0.01756794 -0.05223549 0.53094721
v 0.01789207 -0.05500421 0.53599664
v 0.01756794 -0.05223549 0.53094721
v 0.02486054 -0.04931206 0.53145062
v 0.03402710 -0.04679053 0.53602734
v 0.02486054 -0.04931206 0.53145062
v 0.03223056 -0.04479954 0.53113641
v 0.03402710 -0.04679053 0.53602734
v 0.03223056 -0.04479954 0.53113641
v 0.04097774 -0.04086942 0.53607116
v 0.03902659 -0.03907768 0.53124481
v 0.04097774 -0.04086942 0.53607116
v 0.03902659 -0.03907768 0.53124481
v 0.04670750 -0.03413554 0.53602404
v 0.04472980 -0.03230533 0.53111297
v 0.04670750 -0.03413554 0.53602404
v 0.04472980 -0.03230533 0.53111297
v 0.05146362 -0.02624961 0.53585376
v 0.05146362 -0.02624961 0.53585376
v 0.04472980 -0.03230533 0.53111297
v 0.04923689 -0.02490691 0.53111932
v 0.05146362 -0.02624961 0.53585376
v 0.04923689 -0.02490691 0.53111932
v 0.05498518 -0.01795055 0.53600366
v 0.05498518 -0.01795055 0.53600366
v 0.04923689 -0.02490691 0.53111932
v 0.05253005 -0.01689350 0.53112420
v 0.05498518 -0.01795055 0.53600366
v 0.05253005 -0.01689350 0.53112420
v 0.05458353 -0.00836795 0.53145159
v 0.05787704 0.00008746 0.53607665
v 0.05458353 -0.00836795 0.53145159
v 0.05522693 -0.00000299 0.53124652
v 0.05787704 0.00008746 0.53607665
v 0.05522693 -0.00000299 0.53124652
v 0.05716455 0.00895660 0.53604632
v 0.05716455 0.00895660 0.53604632
v 0.05522693 -0.00000299 0.53124652
v 0.05453578 0.00839848 0.53111651
v 0.00983386 -0.05414528 0.12173802
v 0.01814875 -0.05226488 0.11889746
v 0.01756794 -0.05223549 0.53094721
v 0.01756794 -0.05223549 0.53094721
v 0.01814875 -0.05226488 0.11889746
v 0.02486054 -0.04931206 0.53145062
v 0.02486054 -0.04931206 0.53145062
v 0.01814875 -0.05226488 0.11889746
v 0.02585638 -0.04888751 0.11895906
v 0.02486054 -0.04931206 0.53145062
v 0.02585638 -0.04888751 0.11895906
v 0.03223056 -0.04479954 0.53113641
v 0.03223056 -0.04479954 0.53113641
v 0.02585638 -0.04888751 0.11895906
v 0.03300117 -0.04437792 0.11896106
v 0.03223056 -0.04479954 0.53113641
v 0.03300117 -0.04437792 0.11896106
v 0.03902659 -0.03907768 0.53124481
v 0.03902659 -0.03907768 0.53124481
v 0.03300117 -0.04437792 0.11896106
v 0.03937692 -0.03883223 0.11896126
v 0.03902659 -0.03907768 0.53124481
v 0.03937692 -0.03883223 0.11896126
v 0.04472980 -0.03230533 0.53111297
v 0.04472980 -0.03230533 0.53111297
v 0.03937692 -0.03883223 0.11896126
v 0.04505544 -0.03218848 0.11876296
v 0.04472980 -0.03230533 0.53111297
v 0.04505544 -0.03218848 0.11876296
v 0.04923689 -0.02490691 0.53111932
v 0.04923689 -0.02490691 0.53111932
v 0.04505544 -0.03218848 0.11876296
v 0.04955731 -0.02450962 0.11897586
v 0.04923689 -0.02490691 0.53111932
v 0.04955731 -0.02450962 0.11897586
v 0.05253005 -0.01689350 0.53112420
v 0.05253005 -0.01689350 0.53112420
v 0.04955731 -0.02450962 0.11897586
v 0.05271448 -0.01666066 0.11898115
v 0.05253005 -0.01689350 0.53112420
v 0.05271448 -0.01666066 0.11898115
v 0.05458353 -0.00836795 0.53145159
v 0.05458353 -0.00836795 0.53145159
v 0.05271448 -0.01666066 0.11898115
v 0.05440431 -0.00851535 0.12147832
v 0.05458353 -0.00836795 0.53145159
v 0.05440431 -0.00851535 0.12147832
v 0.05522693 -0.00000299 0.53124652
v 0.05522693 -0.00000299 0.53124652
v 0.05440431 -0.00851535 0.12147832
v 0.05537060 -0.00044492 0.11876076
v 0.05522693 -0.00000299 0.53124652
v 0.05537060 -0.00044492 0.11876076
v 0.05453578 0.00839848 0.53111651
v 0.05453578 0.00839848 0.53111651
v 0.05537060 -0.00044492 0.11876076
v 0.05477117 0.00771843 0.11893635
v 0.05453578 0.00839848 0.53111651
v 0.05477117 0.00771843 0.11893635
v 0.05254743 0.01683095 0.53111352
v 0.05254743 0.01683095 0.53111352
v 0.05477117 0.00771843 0.11893635
v 0.05295414 0.01598408 0.11893155
v 0.05254743 0.01683095 0.53111352
v 0.05295414 0.01598408 0.11893155
v 0.04927796 0.02489906 0.53143011
v 0.04927796 0.02489906 0.53143011
v 0.05295414 0.01598408 0.11893155
v 0.04989589 0.02388018 0.11892526
v 0.04927796 0.02489906 0.53143011
v 0.04989589 0.02388018 0.11892526
v 0.04476666 0.03224822 0.53110333
v 0.04476666 0.03224822 0.53110333
v 0.04989589 0.02388018 0.11892526
v 0.04556535 0.03146304 0.11875836
v 0.04476666 0.03224822 0.53110333
v 0.04556535 0.03146304 0.11875836
v 0.03986352 0.03829007 0.11900385
v 0.03902916 0.03907218 0.53124847
v 0.03902916 0.03907218 0.53124847
v 0.03986352 0.03829007 0.11900385
v 0.03221714 0.04485697 0.53146972
v 0.03221714 0.04485697 0.53146972
v 0.03986352 0.03829007 0.11900385
v 0.03356483 0.04391656 0.11900255
v 0.03221714 0.04485697 0.53146972
v 0.03356483 0.04391656 0.11900255
v 0.02486877 0.04926588 0.53114941
v 0.02486877 0.04926588 0.53114941
v 0.03356483 0.04391656 0.11900255
v 0.02642285 0.04830576 0.12150572
v 0.02486877 0.04926588 0.53114941
v 0.02642285 0.04830576 0.12150572
v 0.01684307 0.05255303 0.53114788
v 0.01684307 0.05255303 0.53114788
v 0.02642285 0.04830576 0.12150572
v 0.01875052 0.05177214 0.12148622
v 0.01684307 0.05255303 0.53114788
v 0.01875052 0.05177214 0.12148622
v 0.00859614 0.05440484 0.53032844
v 0.00983386 -0.05414528 0.12173802
v 0.01756794 -0.05223549 0.53094721
v 0.00845597 -0.05453403 0.53113031
v 0.00983386 -0.05414528 0.12173802
v 0.00845597 -0.05453403 0.53113031
v 0.00176707 -0.05525280 0.11900116
v 0.00176707 -0.05525280 0.11900116
v 0.00845597 -0.05453403 0.53113031
v -0.00002157 -0.05520448 0.53118432
v -0.04743834 -0.02792906 0.12159502
v -0.04300620 -0.03479632 0.11890866
v -0.04458270 -0.03246832 0.53105298
v -0.04458270 -0.03246832 0.53105298
v -0.04300620 -0.03479632 0.11890866
v -0.03919073 -0.03892444 0.53147790
v -0.03919073 -0.03892444 0.53147790
v -0.04300620 -0.03479632 0.11890866
v -0.03277239 -0.04441734 0.12157812
v -0.03919073 -0.03892444 0.53147790
v -0.03277239 -0.04441734 0.12157812
v -0.03253116 -0.04462854 0.53123999
v -0.03253116 -0.04462854 0.53123999
v -0.03277239 -0.04441734 0.12157812
v -0.02499022 -0.04918125 0.53108539
v -0.02499022 -0.04918125 0.53108539
v -0.03277239 -0.04441734 0.12157812
v -0.02255772 -0.05021751 0.12159332
v -0.02499022 -0.04918125 0.53108539
v -0.02255772 -0.05021751 0.12159332
v -0.01697815 -0.05249384 0.53109821
v -0.01697815 -0.05249384 0.53109821
v -0.02255772 -0.05021751 0.12159332
v -0.01498272 -0.05330533 0.11876606
v -0.01697815 -0.05249384 0.53109821
v -0.01498272 -0.05330533 0.11876606
v -0.00854760 -0.05450942 0.53110931
v -0.00854760 -0.05450942 0.53110931
v -0.01498272 -0.05330533 0.11876606
v -0.00626524 -0.05494110 0.11895196
v -0.00854760 -0.05450942 0.53110931
v -0.00626524 -0.05494110 0.11895196
v -0.00002157 -0.05520448 0.53118432
v -0.00002157 -0.05520448 0.53118432
v -0.00626524 -0.05494110 0.11895196
v 0.00176707 -0.05525280 0.11900116
v -0.04458270 -0.03246832 0.53105298
v -0.04918134 -0.02500949 0.53110901
v -0.04743834 -0.02792906 0.12159502
v -0.04743834 -0.02792906 0.12159502
v -0.04918134 -0.02500949 0.53110901
v -0.05113453 -0.02039672 0.12157302
v -0.05113453 -0.02039672 0.12157302
v -0.04918134 -0.02500949 0.53110901
v -0.05255448 -0.01682487 0.53112201
v -0.05113453 -0.02039672 0.12157302
v -0.05255448 -0.01682487 0.53112201
v -0.05388471 -0.01233513 0.11900135
v -0.05388471 -0.01233513 0.11900135
v -0.05255448 -0.01682487 0.53112201
v -0.05452231 -0.00841486 0.53108710
v -0.05524674 0.00005861 0.53150597
v -0.05468629 0.00756610 0.12151342
v -0.05521697 -0.00367605 0.11885156
v -0.05388471 -0.01233513 0.11900135
v -0.05452231 -0.00841486 0.53108710
v -0.05521697 -0.00367605 0.11885156
v -0.05521697 -0.00367605 0.11885156
v -0.05452231 -0.00841486 0.53108710
v -0.05524674 0.00005861 0.53150597
v -0.05468629 0.00756610 0.12151342
v -0.05524674 0.00005861 0.53150597
v -0.05448410 0.00865103 0.53109198
v -0.05468629 0.00756610 0.12151342
v -0.05448410 0.00865103 0.53109198
v -0.05244307 0.01709446 0.53107232
v -0.05468629 0.00756610 0.12151342
v -0.05244307 0.01709446 0.53107232
v -0.05108891 0.02050060 0.12157272
v -0.05108891 0.02050060 0.12157272
v -0.05244307 0.01709446 0.53107232
v -0.04909925 0.02511622 0.53105078
v -0.05108891 0.02050060 0.12157272
v -0.04909925 0.02511622 0.53105078
v -0.04735498 0.02809136 0.12150242
v -0.04735498 0.02809136 0.12150242
v -0.04909925 0.02511622 0.53105078
v -0.04470121 0.03235286 0.53113140
v -0.04735498 0.02809136 0.12150242
v -0.04470121 0.03235286 0.53113140
v -0.04272828 0.03511308 0.11892145
v -0.04272828 0.03511308 0.11892145
v -0.04470121 0.03235286 0.53113140
v -0.03649005 0.04120440 0.12163982
v -0.03649005 0.04120440 0.12163982
v -0.04470121 0.03235286 0.53113140
v -0.03911868 0.03898496 0.53125341
v -0.02489645 0.04920099 0.53102673
v -0.03016187 0.04635832 0.11891565
v -0.03218492 0.04484052 0.53116021
v -0.03218492 0.04484052 0.53116021
v -0.03016187 0.04635832 0.11891565
v -0.03649005 0.04120440 0.12163982
v -0.03218492 0.04484052 0.53116021
v -0.03649005 0.04120440 0.12163982
v -0.03911868 0.03898496 0.53125341
v 0.01875052 0.05177214 0.12148622
v 0.01085165 0.05422599 0.11894085
v 0.00859614 0.05440484 0.53032844
v 0.00859614 0.05440484 0.53032844
v 0.01085165 0.05422599 0.11894085
v 0.00242583 0.05524628 0.11893725
v 0.00859614 0.05440484 0.53032844
v 0.00242583 0.05524628 0.11893725
v 0.00002305 0.05527151 0.53156292
v 0.00002305 0.05527151 0.53156292
v 0.00242583 0.05524628 0.11893725
v -0.00846151 0.05451923 0.53110589
v -0.00846151 0.05451923 0.53110589
v 0.00242583 0.05524628 0.11893725
v -0.00569513 0.05500984 0.11894766
v -0.00846151 0.05451923 0.53110589
v -0.00569513 0.05500984 0.11894766
v -0.01696319 0.05253335 0.53141881
v -0.01696319 0.05253335 0.53141881
v -0.00569513 0.05500984 0.11894766
v -0.01415123 0.05353625 0.11875266
v -0.01696319 0.05253335 0.53141881
v -0.01415123 0.05353625 0.11875266
v -0.02245969 0.05049264 0.11903495
v -0.01696319 0.05253335 0.53141881
v -0.02245969 0.05049264 0.11903495
v -0.02489645 0.04920099 0.53102673
v -0.02489645 0.04920099 0.53102673
v -0.02245969 0.05049264 0.11903495
v -0.03016187 0.04635832 0.11891565
f 1 2 3
f 4 5 6
f 7 8 9
f 10 11 12
f 13 14 15
f 16 17 18
f 19 20 21
f 22 23 24
f 25 26 27
f 28 29 30
f 31 32 33
f 34 35 36
f 37 38 39
f 40 41 42
f 43 44 45
f 46 47 48
f 49 50 51
f 52 53 54
f 55 56 57
f 58 59 60
f 61 62 63
f 64 65 66
f 67 68 69
f 70 71 72
f 73 74 75
f 76 77 78
f 79 80 81
f 82 83 84
f 85 86 87
f 88 89 90
f 91 92 93
f 94 95 96
f 97 98 99
f 100 101 102
f 103 104 105
f 106 107 108
f 109 110 111
f 112 113 114
f 115 116 117
f 118 119 120
f 121 122 123
f 124 125 126
f 127 128 129
f 130 131 132
f 133 134 135
f 136 137 138
f 139 140 141
f 142 143 144
f 145 146 147
f 148 149 150
f 151 152 153
f 154 155 156
f 157 158 159
f 160 161 162
f 163 164 165
f 166 167 168
f 169 170 171
f 172 173 174
f 175 176 177
f 178 179 180
f 181 182 183
f 184 185 186
f 187 188 189
f 190 191 192
f 193 194 195
f 196 197 198
f 199 200 201
f 202 203 204
f 205 206 207
f 208 209 210
f 211 212 213
f 214 215 216
f 217 218 219
f 220 221 222
f 223 224 225
f 226 227 228
f 229 230 231
f 232 233 234
f 235 236 237
f 238 239 240
f 241 242 243
f 244 245 246
f 247 248 249
f 250 251 252
f 253 254 255
f 256 257 258
f 259 260 261
f 262 263 264
f 265 266 267
f 268 269 270
f 271 272 273
f 274 275 276
f 277 278 279
f 280 281 282
f 283 284 285
f 286 287 288
f 289 290 291
f 292 293 294
f 295 296 297
f 298 299 300
f 301 302 303
f 304 305 306
f 183 307 181
f 308 309 310
f 311 312 313
f 314 315 316
f 317 318 319
f 320 321 322
f 323 324 325
f 326 327 328
f 329 330 331
f 332 333 334
f 335 336 337
f 338 339 340
f 341 342 343
f 344 345 346
f 347 348 349
f 350 351 352
f 353 354 355
f 356 357 358
f 359 360 361
f 362 363 364
f 365 366 367
f 368 369 370
f 371 372 373
f 374 375 376
f 377 378 379
f 380 381 382
f 383 384 385
f 386 387 388
f 389 390 391
f 392 393 394
f 395 396 397
f 398 399 400
f 401 402 403
f 404 405 406
f 407 408 409
f 410 411 412
f 413 414 415
f 416 417 418
f 419 420 421
f 422 423 424
f 425 426 427
f 428 429 430
f 431 432 433
f 434 435 436
f 437 438 439
f 440 441 442
f 443 444 445
f 446 447 448
f 449 450 451
f 452 453 454
f 455 456 457
f 458 459 460
f 461 462 463
f 464 465 466
f 467 468 469
f 470 471 472
f 473 474 475
f 475 474 476
f 477 478 479
f 480 481 482
f 483 484 485
f 486 487 488
f 489 490 491
f 492 493 494
f 495 496 497
f 498 499 500
f 501 502 503
f 504 505 506
f 507 508 509
f 510 511 512
f 513 514 515
f 516 517 518
f 519 520 521
f 522 523 524
f 525 526 527
f 528 529 530
f 531 532 533
f 534 535 536
f 537 538 539
f 540 541 542
f 543 544 545
f 546 547 548
f 549 550 551
f 552 553 554
f 555 556 557
f 558 559 560
f 561 562 563
f 564 565 566
f 567 568 569
f 570 571 572
f 573 574 575
f 576 577 578
f 579 580 581
f 582 583 584
f 585 586 587
f 588 589 590
f 591 592 593
f 594 595 596
f 597 598 599
f 600 601 602
f 603 604 605
f 606 607 608
f 609 610 611
f 612 613 614
f 615 616 617
f 618 619 620
f 621 622 623
f 624 625 626
f 627 628 629
f 630 631 632
f 633 634 635
f 636 637 638
f 639 640 641
f 642 643 644
f 645 646 647
f 648 649 650
f 651 652 653
f 654 655 656
f 657 658 659
f 660 661 662
f 663 664 665
f 666 667 668
f 669 670 671
f 672 673 674
f 674 673 675
f 676 677 678
f 679 680 681
f 682 683 684
f 685 686 687
f 685 687 688
f 689 690 691
f 692 693 694
f 695 696 697
f 698 699 700
f 701 702 703
f 704 705 706
f 707 708 709
f 710 711 712
f 713 714 715
f 716 717 718
f 719 720 721
f 722 723 724
f 725 726 727
f 728 729 730
f 731 732 733
f 734 735 736
f 737 738 739
f 740 741 742
f 743 744 745
f 746 747 748
f 749 750 751
f 752 753 754
f 755 756 757
f 758 759 760
f 761 762 763
f 764 765 766
f 767 768 769
f 770 771 772
f 773 774 775
f 775 774 776
f 777 778 779
f 780 781 782
f 783 784 785
f 786 787 788
f 789 790 791
f 792 793 794
f 795 796 797
f 798 799 800
f 801 802 803
f 804 805 806
f 807 808 809
f 810 811 812
f 813 814 815
f 816 817 818
f 819 820 821
f 822 823 824
f 825 826 827
f 828 829 830
f 831 832 833
f 834 835 836
f 837 838 839
f 840 841 842
f 843 844 845
f 846 847 848
f 849 850 851
f 852 853 854
f 855 856 857
f 858 859 860
f 861 862 863
f 864 865 866
f 867 868 869
f 870 871 872
f 873 874 875
f 876 877 878
f 879 880 881
f 882 883 884
f 885 886 887
f 888 889 890
f 891 892 893
f 894 895 896
f 897 898 899
f 900 901 902
f 903 904 905
f 906 907 908
f 909 910 911
f 912 913 914
f 915 916 917
f 918 919 920
f 921 922 923
f 924 925 926
f 927 928 929
f 930 931 932
f 933 934 935
f 936 937 938
f 939 940 941
f 942 943 944
f 945 946 947
f 948 949 950
f 951 952 953
f 954 955 956
f 957 958 959
f 960 961 962
f 963 964 965
f 966 967 968
f 969 970 971
f 972 973 974
f 975 976 977
f 978 979 980
f 981 982 983
f 984 985 986
f 987 988 989
f 990 991 992
f 993 994 995
f 996 997 998
f 999 1000 1001
f 1002 1003 1004
f 1005 1006 1007
f 1008 1009 1010
f 1011 1012 1013
f 1014 1015 1016
f 1017 1018 1019
f 1020 1021 1022
f 1023 1024 1025
f 1026 1027 1028
f 1029 1030 1031
f 1032 1033 1034
f 1035 1036 1037
f 1038 1039 1040
f 1041 1042 1043
f 1044 1045 1046
f 1047 1048 1049
f 1050 1051 1052
f 1053 1054 1055
f 1056 1057 1058
f 1059 1060 1061
f 1062 1063 1064
f 1065 1066 1067
f 1068 1069 1070
f 1071 1072 1073
f 1074 1075 1076
f 1077 1078 1079
f 1080 1081 1082
f 1083 1084 1085
f 1086 1087 1088
f 1089 1090 1091
f 1092 1093 1094
f 1095 1096 1097
f 1098 1099 1100
f 1101 1102 1103
f 1104 1105 1106
f 1107 1108 1109
f 1110 1111 1112
f 1113 1114 1115
f 1116 1117 1118
f 1119 1120 1121
f 1122 1123 1124
f 1125 1126 1127
f 1128 1129 1130
f 1131 1132 1133
f 1134 1135 1136
f 1136 1135 1137
f 1138 1139 1140
f 871 870 1141
f 1142 1143 1144
f 1145 1146 1147
f 1148 1149 1150
f 1151 1152 1153
f 1154 1155 1156
f 1157 1158 1159
f 1160 1161 1162
f 1163 1164 1165
f 1166 1167 1168
f 1168 1167 1169
f 1170 1171 1172
f 1172 1171 1173
f 1174 1175 1176
f 1176 1175 1177
f 1178 1179 1180
f 1180 1179 1181
f 1182 1183 1184
f 1184 1183 1185
f 1186 1187 1188
f 1189 1190 1191
f 1192 1193 1194
f 1195 1196 1197
f 1198 1199 1200
f 1201 1202 1203
f 1204 1205 1206
f 1206 1205 1207
f 1208 1209 1210
f 1211 1212 1213
f 1214 1215 1216
f 1216 1215 1217
f 1218 1219 1220
f 1221 1222 1223
f 1224 1225 1226
f 1227 1228 1229
f 1230 1231 1232
f 1232 1231 1233
f 1234 1235 1236
f 1237 1238 1239
f 1240 1241 1242
f 1243 1244 1245
f 1246 1247 1248
f 1249 1250 1251
f 1252 1253 1254
f 1254 1253 1255
f 1256 1257 1258
f 1258 1257 1259
f 1260 1261 1262
f 1263 1264 1265
f 1266 1267 1268
f 1269 1270 1271
f 1272 1273 1274
f 1275 1276 1277
f 1278 1279 1280
f 1281 1282 1283
f 1284 1285 1286
f 1287 1288 1289
f 1290 1291 1292
f 1293 1294 1295
f 1296 1297 1298
f 1299 1300 1301
f 1302 1303 1304
f 1305 1306 1307
f 1308 1309 1310
f 1311 1312 1313
f 1314 1315 1316
f 1317 1318 1319
f 1320 1321 1322
f 1323 1324 1325
f 1326 1327 1328
f 1329 1330 1331
f 1332 1333 1334
f 1335 1336 1337
f 1338 1339 1340
f 1341 1342 1343
f 1344 1345 1346
f 1347 1348 1349
f 1350 1351 1352
f 1353 1354 1355
f 1356 1357 1358
f 1359 1360 1361
f 1359 1361 1362
f 1363 1364 1365
f 1366 1367 1368
f 1369 1370 1371
f 1372 1373 1374
f 1375 1376 1377
f 1378 1379 1380
f 1381 1382 1383
f 1384 1385 1386
f 1387 1388 1389
f 1390 1391 1392
f 1393 1394 1395
f 1396 1397 1398
f 1399 1400 1401
f 1402 1403 1404
f 1405 1406 1407
f 1408 1409 1410
f 1411 1412 1413
f 1414 1415 1416
f 1417 1418 1419
f 1420 1421 1422
f 1423 1424 1425
f 1426 1427 1428
f 1429 1430 1431
f 1432 1433 1434
f 1435 1436 1437
f 1438 1439 1440
f 1441 1442 1443
f 1444 1445 1446
f 1447 1448 1449
f 1450 1451 1452
f 1453 1454 1455
f 1456 1457 1458
f 1459 1460 1461
f 1462 1463 1464
f 1465 1466 1467
f 1468 1469 1470
f 1471 1472 1473
f 1474 1475 1476
f 1477 1478 1479
f 1480 1481 1482
f 1483 1484 1485
f 1486 1487 1488
f 1489 1490 1491
f 1492 1493 1494
f 1495 1496 1497
f 1498 1499 1500
f 1501 1502 1503
f 1504 1505 1506
f 1507 1508 1509
f 1510 1511 1512
f 1513 1514 1515
f 1516 1517 1518

