# https://github.com/mikedh/trimesh
v 0.00323161 1.09112629 -0.21590878
v 0.00222441 1.09112629 -0.21545973
v -0.00681982 1.17142480 -0.12429913
v 0.00323161 1.09936259 -0.20692743
v 0.01456259 1.17245701 -0.12549661
v 0.01514841 1.15396296 -0.14555493
v 0.01562632 1.13544744 -0.16561331
v 0.01600145 1.11693193 -0.18567163
v 0.01629436 1.09841642 -0.20572995
v 0.01786168 1.09112629 -0.20887340
v -0.00828437 1.09112629 -0.20677777
v -0.00778591 1.09663153 -0.20393365
v -0.00770369 1.11538362 -0.18402505
v -0.00750841 1.13411418 -0.16411639
v -0.00721037 1.15278022 -0.14420773
v 0.00323161 1.17247852 -0.12549661
v 0.00323161 1.14561916 -0.15558415
v 0.00323161 1.12731870 -0.17594180
v 0.00323161 1.10897517 -0.19629950
v -0.00797604 1.16000576 -0.13178355
v -0.00776021 1.17527411 -0.11397058
v -0.00779105 1.19256386 -0.09046943
v -0.00700481 1.21004716 -0.06711794
v -0.00359782 1.18901560 -0.10334265
v 0.00923369 1.19052095 -0.10498924
v 0.01733753 1.16071547 -0.13238232
v 0.01344234 1.19052095 -0.10498924
v 0.01630978 1.17951052 -0.11247366
v 0.01797474 1.14189886 -0.15214126
v 0.01889458 1.10428719 -0.19165919
v 0.01848861 1.12310375 -0.17190020
v 0.04191112 1.23492810 0.02194703
v 0.02175687 1.09112629 -0.19121009
v -0.00888561 1.09112629 -0.20318522
v -0.00885477 1.10321196 -0.19061132
v -0.00869033 1.12217910 -0.17100210
v -0.00839228 1.14110316 -0.15139283
v -0.00985683 1.16123158 -0.11397058
v -0.00890616 1.18174704 -0.09600789
v -0.00843853 1.19927336 -0.07430299
v 0.00323161 1.21114391 -0.06891419
v -0.00789896 1.21241269 -0.05634029
v -0.00745189 1.22987448 -0.03029441
v 0.00323161 1.23135832 -0.03313853
v 0.01483495 1.21101490 -0.06876453
v 0.01552868 1.23097123 -0.03224038
v 0.01595006 1.24957278 0.00712784
v 0.04191112 1.24239021 0.03990972
v 0.04191112 1.22217580 0.01536070
v 0.02319572 1.09112629 -0.17175054
v 0.04191112 1.21895009 0.01476198
v 0.04191112 1.19972493 0.01551042
v 0.04191112 1.18673612 0.02254579
v -0.01056084 1.09112629 -0.18402505
v -0.01051974 1.10346998 -0.17175054
v -0.01037585 1.12271671 -0.15244064
v -0.01014974 1.14198490 -0.13328047
v -0.01058140 1.18047825 -0.07550052
v -0.00999558 1.19972493 -0.05634029
v -0.00870575 1.21905765 -0.03688074
v -0.00823812 1.23187443 -0.01772057
v -0.00798118 1.25038994 0.02074949
v -0.00711273 1.24862656 0.00907380
v 0.00323161 1.24974482 0.00667873
v 0.01345776 1.26746469 0.04844196
v 0.01909499 1.25245442 0.02074949
v 0.04191112 1.25681984 0.17477948
v 0.03339618 1.28873276 0.16220562
v 0.03223482 1.30569996 0.22178184
v 0.03259967 1.30606554 0.23240977
v 0.03304160 1.30653868 0.25171964
v 0.04191112 1.18654257 0.02299484
v 0.04191112 1.18275774 0.03990972
v 0.04191112 1.18273622 0.04020910
v 0.04191112 1.18194058 0.05921961
v 0.02328308 1.09112629 1.26481479
v -0.01058140 1.09112629 -0.16486482
v -0.01058140 1.16123158 -0.09481041
v -0.01058140 1.19972493 -0.03703046
v -0.01033474 1.21895009 -0.01772057
v -0.01006752 1.23819677 0.02074949
v -0.01029877 1.25744350 0.07852947
v -0.00820215 1.26957214 0.07852947
v -0.00740564 1.26821731 0.06385997
v -0.00369031 1.26600236 0.05098669
v 0.00914119 1.26746469 0.04844196
v 0.01443413 1.28746398 0.12253805
v 0.02247630 1.29797982 0.17477948
v 0.04191112 1.25720693 0.19393968
v 0.03331396 1.30688275 0.27087983
v 0.03351951 1.30716229 0.29018973
v 0.03360173 1.30726984 0.30949960
v 0.02098605 1.30625909 0.21444708
v 0.02247630 1.30789345 0.23240977
v 0.02247630 1.30894717 0.25171964
v 0.01358109 1.30563548 0.20307072
v 0.02247630 1.30972136 0.27087983
v 0.02247630 1.31038799 0.29018973
v 0.04191112 1.18191907 0.57879011
v 0.04191112 1.18202657 1.02171986
v 0.04191112 1.18213413 1.04073036
v 0.02288740 1.09112629 1.28412468
v -0.01050945 1.09112629 1.27170045
v -0.01058140 1.10346998 1.25239062
v -0.01058140 1.21895009 0.00143966
v -0.01057626 1.23819677 0.03990972
v -0.01058140 1.25744350 0.09768967
v -0.01051459 1.27669018 0.15546962
v -0.00971808 1.27669018 0.13615973
v -0.00841798 1.28948544 0.15546962
v -0.00762147 1.28780811 0.13615973
v -0.00673246 1.28664683 0.12523245
v 0.00292842 1.26931405 0.05817179
v 0.00323161 1.28742102 0.12253805
v 0.00323161 1.29088323 0.13615973
v 0.03554419 1.29593685 0.30949960
v 0.04191112 1.25813164 0.57804166
v 0.02247630 1.31066753 0.30949960
v 0.03360173 1.30726984 0.79045036
v 0.00941355 1.30634513 0.21324957
v 0.00505073 1.30737735 0.23240977
v 0.00323161 1.30944177 0.27087983
v 0.01241973 1.30563548 0.20307072
v 0.00323161 1.31040950 0.29018973
v 0.00323161 1.31079660 0.30949960
v 0.04191112 1.18215558 1.04088003
v 0.01863764 1.09112629 1.30418301
v 0.04191112 1.18697263 1.06063896
v 0.04191112 1.19727341 1.06842283
v 0.04191112 1.19972493 1.06917126
v 0.04191112 1.21895009 1.07036880
v 0.04191112 1.23372385 1.06213588
v 0.04191112 1.23499257 1.06138745
v -0.00981058 1.09112629 1.29071096
v -0.01037585 1.10346998 1.27170045
v -0.01058140 1.16123158 1.19476033
v -0.01058140 1.12271671 1.23323039
v -0.01058140 1.27669018 0.17477948
v -0.01012919 1.29593685 0.30949960
v -0.00995447 1.29593685 0.29018973
v -0.00785785 1.30716229 0.29018973
v -0.00737995 1.30658165 0.27087983
v -0.00685065 1.30602252 0.25546188
v -0.00622886 1.30539891 0.24258863
v 0.00323161 1.29509819 0.15546962
v 0.03554419 1.29593685 0.79045036
v 0.04191112 1.25813164 0.57879011
v 0.02247630 1.31066753 0.79045036
v 0.03351951 1.30716229 0.80976022
v 0.04191112 1.25679833 0.92621827
v 0.04191112 1.25720693 0.90630964
v 0.00140735 1.30776444 0.25007305
v -0.00803257 1.30739886 0.30949960
v 0.00323161 1.31079660 0.79045036
v 0.01843209 1.10377109 1.29116006
v 0.01590381 1.09753473 1.30463205
v 0.01733753 1.09112629 1.30762583
v 0.04191112 1.23516461 1.06108807
v 0.01477328 1.21095036 1.16856478
v 0.01583187 1.19346706 1.19476033
v 0.01619158 1.17944604 1.21227397
v 0.01712170 1.16052192 1.23233229
v 0.01762530 1.14159781 1.25194151
v 0.01805696 1.12267369 1.27155079
v -0.00812507 1.09112629 1.30567987
v -0.00866464 1.10286789 1.29026191
v -0.01022168 1.12271671 1.25239062
v -0.01058140 1.18047825 1.17545044
v -0.01058140 1.27669018 0.92517046
v -0.01012919 1.29593685 0.79045036
v 0.02247630 1.31038799 0.80976022
v 0.03331396 1.30688275 0.82907011
v 0.04191112 1.24398155 1.04073036
v 0.03304160 1.30653868 0.84823031
v -0.00803257 1.30739886 0.79045036
v -0.00785785 1.30716229 0.80976022
v 0.00323161 1.31040950 0.80976022
v 0.00603738 1.09112629 1.31271525
v 0.01528716 1.13495285 1.26496446
v 0.01494800 1.24952976 1.09267241
v 0.01549271 1.23092820 1.13204063
v 0.00323161 1.21105786 1.16871444
v 0.01334985 1.19045642 1.20478949
v 0.00323161 1.23129379 1.13293878
v 0.01444954 1.17234945 1.22529692
v 0.01489661 1.15366191 1.24505585
v 0.00323161 1.09112629 1.31301463
v -0.00766258 1.09602938 1.30298547
v -0.00750841 1.11488896 1.28337619
v -0.00844881 1.12187799 1.27065264
v -0.00980030 1.16123158 1.21392050
v -0.01002641 1.14198490 1.23323039
v -0.00996475 1.19972493 1.15629027
v -0.01031418 1.21895009 1.11767049
v -0.01058140 1.19972493 1.13698038
v -0.01058140 1.25744350 1.00226027
v -0.01050945 1.27669018 0.94448032
v -0.00995447 1.29593685 0.80976022
v 0.02247630 1.30972136 0.82907011
v 0.03259967 1.30606554 0.86754017
v 0.03223482 1.30569996 0.87816810
v 0.03404366 1.29049614 0.92517046
v 0.03339618 1.28873276 0.93789402
v 0.01347317 1.26746469 1.05150796
v -0.00738508 1.30658165 0.82907011
v -0.00841798 1.28948544 0.94448032
v -0.00685065 1.30602252 0.84448807
v 0.00323161 1.30944177 0.82907011
v 0.02247630 1.30894717 0.84823031
v 0.00323161 1.24968028 1.09312152
v -0.00696370 1.21000414 1.16706786
v 0.00977326 1.19045642 1.20478949
v -0.00707676 1.24858354 1.09072650
v -0.00743133 1.22983146 1.13009466
v 0.00323161 1.17232794 1.22514720
v 0.00323161 1.16346804 1.23487697
v 0.00323161 1.15383394 1.24535524
v 0.00323161 1.13531843 1.26541356
v 0.00323161 1.10787848 1.29505194
v -0.00674274 1.17131724 1.22409938
v -0.00704593 1.15252214 1.24385832
v -0.00730286 1.13370558 1.26361726
v -0.00817132 1.14086664 1.25119308
v -0.00783216 1.15985524 1.23158381
v -0.00770369 1.17508057 1.21392050
v -0.00890616 1.18166099 1.19595786
v -0.00841284 1.19925185 1.17425296
v -0.00869033 1.21901463 1.13668099
v -0.00821756 1.23180989 1.11767049
v -0.01004183 1.23819677 1.07920042
v -0.01057626 1.23819677 1.06004025
v -0.01058140 1.21895009 1.09851032
v -0.01029877 1.25744350 1.02142047
v -0.00971808 1.27669018 0.96379021
v 0.02247630 1.30789345 0.86754017
v 0.02098605 1.30625909 0.88550286
v 0.01358109 1.30563548 0.89687922
v 0.02247630 1.29797982 0.92517046
v 0.00904870 1.26746469 1.05150796
v 0.01443413 1.28746398 0.97741189
v -0.00820215 1.26957214 1.02142047
v -0.00762147 1.28780811 0.96379021
v -0.00623914 1.30539891 0.85736132
v 0.00140221 1.30776444 0.84987689
v 0.00504046 1.30737735 0.86754017
v -0.00378281 1.26604532 1.04896322
v -0.00779105 1.19252084 1.19026968
v -0.00305824 1.18886508 1.20314291
v -0.00741078 1.26823882 1.03609000
v -0.00795549 1.25032540 1.07920042
v 0.00940841 1.30634513 0.88670037
v 0.01241973 1.30563548 0.89687922
v 0.00323161 1.29086172 0.96379021
v 0.00323161 1.28742102 0.97741189
v 0.00287190 1.26931405 1.04177818
v -0.00673246 1.28664683 0.97471750
v 0.00323161 1.29509819 0.94448032
f 1 2 3
f 1 3 4
f 1 4 5
f 1 5 6
f 1 6 7
f 1 7 8
f 1 8 9
f 1 9 10
f 1 10 33
f 1 33 50
f 1 50 76
f 1 76 102
f 1 102 127
f 1 127 157
f 1 157 178
f 1 178 187
f 1 187 165
f 1 165 134
f 1 134 103
f 1 103 77
f 1 77 54
f 1 54 34
f 1 34 11
f 1 11 2
f 2 11 12
f 2 12 13
f 2 13 14
f 2 14 15
f 2 15 3
f 3 16 17
f 3 17 18
f 3 18 19
f 3 19 4
f 3 15 20
f 3 20 21
f 3 21 22
f 3 22 23
f 3 23 24
f 3 24 25
f 3 25 16
f 4 19 5
f 5 26 6
f 5 19 18
f 5 18 17
f 5 17 16
f 5 16 27
f 5 27 28
f 5 28 26
f 6 26 7
f 7 26 29
f 7 29 8
f 8 29 9
f 9 30 10
f 9 29 31
f 9 31 30
f 10 30 32
f 10 32 33
f 11 34 35
f 11 35 12
f 12 35 36
f 12 36 13
f 13 36 14
f 14 36 37
f 14 37 15
f 15 37 20
f 16 25 27
f 20 37 38
f 20 38 39
f 20 39 21
f 21 39 22
f 22 39 40
f 22 40 23
f 23 41 24
f 23 40 42
f 23 42 43
f 23 43 44
f 23 44 41
f 24 41 25
f 25 41 27
f 26 28 32
f 26 32 29
f 27 41 45
f 27 45 32
f 27 32 28
f 29 32 31
f 30 31 32
f 32 46 47
f 32 47 48
f 32 48 67
f 32 67 89
f 32 89 117
f 32 117 147
f 32 147 151
f 32 151 150
f 32 150 173
f 32 173 158
f 32 158 133
f 32 133 132
f 32 132 131
f 32 131 130
f 32 130 129
f 32 129 128
f 32 128 126
f 32 126 101
f 32 101 100
f 32 100 99
f 32 99 75
f 32 75 74
f 32 74 73
f 32 73 72
f 32 72 53
f 32 53 52
f 32 52 51
f 32 51 49
f 32 49 33
f 32 45 46
f 33 49 51
f 33 51 52
f 33 52 53
f 33 53 50
f 34 54 55
f 34 55 35
f 35 55 56
f 35 56 57
f 35 57 36
f 36 57 38
f 36 38 37
f 38 58 59
f 38 59 39
f 38 57 58
f 39 59 40
f 40 59 60
f 40 60 43
f 40 43 42
f 41 44 45
f 43 60 61
f 43 61 62
f 43 62 63
f 43 63 44
f 44 63 64
f 44 64 47
f 44 47 46
f 44 46 45
f 47 64 65
f 47 65 66
f 47 66 48
f 48 66 65
f 48 65 68
f 48 68 69
f 48 69 70
f 48 70 71
f 48 71 67
f 50 53 72
f 50 72 73
f 50 73 74
f 50 74 75
f 50 75 76
f 54 77 78
f 54 78 58
f 54 58 55
f 55 58 56
f 56 58 57
f 58 78 77
f 58 77 104
f 58 104 137
f 58 137 136
f 58 136 168
f 58 168 195
f 58 195 232
f 58 232 196
f 58 196 169
f 58 169 138
f 58 138 107
f 58 107 105
f 58 105 79
f 58 79 80
f 58 80 59
f 59 80 60
f 60 80 61
f 61 80 81
f 61 81 62
f 62 81 82
f 62 82 83
f 62 83 84
f 62 84 63
f 63 84 85
f 63 85 64
f 64 85 86
f 64 86 65
f 65 86 87
f 65 87 88
f 65 88 68
f 67 71 90
f 67 90 91
f 67 91 92
f 67 92 89
f 68 88 69
f 69 93 94
f 69 94 95
f 69 95 70
f 69 88 96
f 69 96 93
f 70 95 97
f 70 97 98
f 70 98 71
f 71 98 90
f 75 99 76
f 76 99 100
f 76 100 101
f 76 101 102
f 77 103 104
f 79 105 80
f 80 105 106
f 80 106 81
f 81 106 82
f 82 107 108
f 82 108 109
f 82 109 83
f 82 106 107
f 83 109 110
f 83 110 111
f 83 111 84
f 84 111 112
f 84 112 85
f 85 112 113
f 85 113 86
f 86 113 114
f 86 114 87
f 87 114 115
f 87 115 96
f 87 96 88
f 89 92 116
f 89 116 117
f 90 98 91
f 91 98 118
f 91 118 92
f 92 118 148
f 92 148 119
f 92 119 146
f 92 146 116
f 93 96 94
f 94 120 121
f 94 121 122
f 94 122 95
f 94 96 123
f 94 123 120
f 95 122 124
f 95 124 97
f 96 115 123
f 97 124 98
f 98 124 125
f 98 125 118
f 101 126 102
f 102 126 128
f 102 128 129
f 102 129 130
f 102 130 131
f 102 131 132
f 102 132 133
f 102 133 127
f 103 134 135
f 103 135 136
f 103 136 137
f 103 137 104
f 105 107 106
f 107 138 108
f 108 110 109
f 108 138 139
f 108 139 140
f 108 140 110
f 110 140 141
f 110 141 142
f 110 142 143
f 110 143 144
f 110 144 111
f 111 144 112
f 112 145 115
f 112 115 114
f 112 114 113
f 112 144 145
f 115 145 123
f 116 146 147
f 116 147 117
f 118 125 154
f 118 154 148
f 119 148 149
f 119 149 150
f 119 150 151
f 119 151 146
f 120 144 121
f 120 123 145
f 120 145 144
f 121 144 152
f 121 152 122
f 122 143 124
f 122 152 143
f 124 143 142
f 124 142 141
f 124 141 125
f 125 141 153
f 125 153 175
f 125 175 154
f 127 155 156
f 127 156 157
f 127 133 155
f 133 158 159
f 133 159 160
f 133 160 161
f 133 161 162
f 133 162 163
f 133 163 164
f 133 164 155
f 134 165 166
f 134 166 135
f 135 166 167
f 135 167 168
f 135 168 136
f 138 169 170
f 138 170 139
f 139 153 140
f 139 170 175
f 139 175 153
f 140 153 141
f 143 152 144
f 146 151 147
f 148 154 171
f 148 171 149
f 149 171 172
f 149 172 150
f 150 172 174
f 150 174 173
f 154 175 176
f 154 176 177
f 154 177 171
f 155 164 156
f 156 178 157
f 156 164 163
f 156 163 179
f 156 179 178
f 158 180 181
f 158 181 159
f 158 173 180
f 159 182 183
f 159 183 160
f 159 181 184
f 159 184 182
f 160 183 161
f 161 183 185
f 161 185 162
f 162 185 186
f 162 186 179
f 162 179 163
f 165 187 188
f 165 188 166
f 166 188 189
f 166 189 190
f 166 190 191
f 166 191 192
f 166 192 167
f 167 192 168
f 168 192 191
f 168 191 193
f 168 193 194
f 168 194 195
f 169 196 197
f 169 197 170
f 170 197 198
f 170 198 175
f 171 177 199
f 171 199 200
f 171 200 174
f 171 174 172
f 173 174 200
f 173 200 201
f 173 201 202
f 173 202 203
f 173 203 204
f 173 204 180
f 175 198 176
f 176 205 177
f 176 198 206
f 176 206 205
f 177 205 207
f 177 207 208
f 177 208 209
f 177 209 199
f 178 179 185
f 178 185 187
f 179 186 185
f 180 204 210
f 180 210 184
f 180 184 181
f 182 184 211
f 182 211 212
f 182 212 183
f 183 212 185
f 184 210 213
f 184 213 214
f 184 214 211
f 185 212 215
f 185 215 216
f 185 216 217
f 185 217 218
f 185 218 219
f 185 219 187
f 187 219 220
f 187 220 221
f 187 221 222
f 187 222 189
f 187 189 188
f 189 222 223
f 189 223 190
f 190 223 191
f 191 223 224
f 191 224 225
f 191 225 226
f 191 226 193
f 193 226 227
f 193 227 228
f 193 228 194
f 194 228 229
f 194 229 230
f 194 230 231
f 194 231 232
f 194 232 195
f 196 233 197
f 196 232 231
f 196 231 233
f 197 233 234
f 197 234 206
f 197 206 198
f 199 209 200
f 200 209 201
f 201 209 235
f 201 235 236
f 201 236 237
f 201 237 238
f 201 238 203
f 201 203 202
f 203 238 204
f 204 239 210
f 204 238 240
f 204 240 239
f 205 206 207
f 206 234 241
f 206 241 242
f 206 242 243
f 206 243 207
f 207 243 244
f 207 244 208
f 208 244 245
f 208 245 235
f 208 235 209
f 210 239 246
f 210 246 213
f 211 227 247
f 211 247 220
f 211 220 248
f 211 248 212
f 211 214 227
f 212 248 220
f 212 220 215
f 213 246 249
f 213 249 250
f 213 250 214
f 214 250 229
f 214 229 228
f 214 228 227
f 215 220 216
f 216 220 217
f 217 220 218
f 218 220 219
f 220 225 224
f 220 224 221
f 220 247 225
f 221 224 223
f 221 223 222
f 225 247 226
f 226 247 227
f 229 250 230
f 230 250 233
f 230 233 231
f 233 241 234
f 233 250 241
f 235 245 251
f 235 251 252
f 235 252 237
f 235 237 236
f 237 252 253
f 237 253 240
f 237 240 238
f 239 240 254
f 239 254 255
f 239 255 246
f 240 253 254
f 241 249 242
f 241 250 249
f 242 249 256
f 242 256 243
f 243 245 244
f 243 256 257
f 243 257 251
f 243 251 245
f 246 255 256
f 246 256 249
f 251 257 252
f 252 257 253
f 253 257 256
f 253 256 254
f 254 256 255

