# https://github.com/mikedh/trimesh
v 0.00314373 0.94962915 1.30575668
v 0.00148920 1.09111246 1.17446549
v 0.01601523 1.09111246 1.17933256
v 0.01790849 0.94962915 1.31127110
v -0.00848771 0.94962915 1.31422014
v -0.00481724 1.09111246 1.18283304
v 0.01793170 1.09111246 1.19225552
v 0.02328322 0.94962915 1.32951666
v 0.02324343 0.94962915 1.32934881
v 0.01806764 0.94962915 1.31134304
v -0.01058322 0.94962915 1.32951666
v -0.00826555 1.09111246 1.19640330
v -0.00805998 1.09111246 1.19510859
v 0.01817374 1.09111246 1.19479693
v 0.02328322 0.94962915 1.34876918
v 0.02284223 1.09111246 1.24564946
v 0.02328322 1.09111246 1.26490199
v -0.01058322 0.94962915 1.36802171
v -0.01058322 1.08421487 1.27180703
v -0.01038760 1.09111246 1.25255451
v -0.01027817 1.08421487 1.25255451
v 0.02328322 0.96874288 1.36802171
v 0.02306107 0.94962915 1.38710639
v 0.02288865 1.09111246 1.28413053
v 0.02296491 1.08421487 1.29105956
v 0.02314728 1.06496263 1.31026413
v 0.02328322 1.04571037 1.32951666
v -0.01057990 0.94962915 1.38727418
v -0.01058322 0.98798130 1.36802171
v -0.01056001 1.06496263 1.31026413
v -0.01049038 1.08421487 1.29105956
v -0.01051028 1.09111246 1.27180703
v -0.01058322 1.04571037 1.32951666
v 0.02328322 0.98798130 1.36802171
v 0.02305444 0.94962915 1.38727418
v 0.01864126 1.09111246 1.30422224
v 0.01874736 1.08482431 1.31076762
v 0.01899935 1.06589062 1.33035578
v 0.01886672 1.04674915 1.34996792
v 0.02298149 1.02647195 1.34876918
v -0.01023839 0.96874288 1.38727418
v -0.00893864 0.94962915 1.40712610
v -0.01049701 1.02647195 1.34876918
v -0.00888891 1.06479642 1.32932483
v -0.00881265 1.08382709 1.30980860
v -0.00981066 1.09111246 1.29077182
v -0.00883585 1.04566881 1.34881708
v 0.02252724 0.96874288 1.38727418
v 0.01937402 0.94962915 1.40815705
v 0.01733487 1.09111246 1.30774664
v 0.01614454 1.07881317 1.32450572
v 0.01633022 1.06008722 1.34433367
v 0.01592239 1.04102887 1.36162015
v 0.01738793 1.02529466 1.36802171
v 0.02143307 1.00723356 1.36802171
v -0.00863028 0.98730262 1.38698650
v -0.00839818 1.02647195 1.36444930
v -0.00889885 0.95011390 1.40715008
v -0.00880933 0.94962915 1.40803722
v -0.00779141 1.05825896 1.34246353
v -0.00812298 1.09111246 1.30578066
v -0.00775825 1.07715110 1.32277946
v -0.00767205 1.03922832 1.36025356
v 0.01896288 0.94962915 1.40964359
v 0.00603833 1.09111246 1.31280554
v 0.00322994 1.06109832 1.34553241
v 0.00322994 1.05177689 1.35514671
v 0.00322994 1.04215077 1.36221955
v 0.01386004 1.01812009 1.37842718
v 0.01531894 0.98208095 1.39919016
v 0.01731167 0.96874288 1.40326601
v 0.01850531 0.98828601 1.38806540
v -0.00814287 0.96874288 1.40098836
v -0.00732721 0.98041888 1.39808728
v -0.00316934 0.94962915 1.41669245
v 0.00322994 1.09111246 1.31314118
v 0.00322994 1.07967191 1.32551269
v 0.00322994 1.08929803 1.31510722
v -0.00600094 1.01666576 1.37744413
v 0.01816048 0.94962915 1.41194527
v 0.00682746 1.01812009 1.37842718
v 0.00322994 0.94962915 1.41940171
v 0.00322994 0.98269039 1.39952580
f 1 2 3
f 1 3 4
f 1 4 10
f 1 10 9
f 1 9 8
f 1 8 15
f 1 15 23
f 1 23 35
f 1 35 49
f 1 49 64
f 1 64 80
f 1 80 82
f 1 82 75
f 1 75 59
f 1 59 42
f 1 42 28
f 1 28 18
f 1 18 11
f 1 11 5
f 1 5 2
f 2 6 13
f 2 13 12
f 2 12 20
f 2 20 32
f 2 32 46
f 2 46 61
f 2 61 76
f 2 76 65
f 2 65 50
f 2 50 36
f 2 36 24
f 2 24 17
f 2 17 16
f 2 16 14
f 2 14 7
f 2 7 3
f 2 5 6
f 3 7 8
f 3 8 9
f 3 9 10
f 3 10 4
f 5 11 12
f 5 12 13
f 5 13 6
f 7 14 8
f 8 14 16
f 8 16 17
f 8 17 27
f 8 27 34
f 8 34 22
f 8 22 15
f 11 18 29
f 11 29 33
f 11 33 19
f 11 19 20
f 11 20 21
f 11 21 12
f 12 21 20
f 15 22 23
f 17 24 25
f 17 25 26
f 17 26 27
f 18 28 29
f 19 30 31
f 19 31 32
f 19 32 20
f 19 33 30
f 22 34 23
f 23 34 35
f 24 36 37
f 24 37 38
f 24 38 25
f 25 38 26
f 26 38 27
f 27 38 39
f 27 39 40
f 27 40 34
f 28 41 29
f 28 42 41
f 29 41 43
f 29 43 33
f 30 33 44
f 30 44 31
f 31 44 45
f 31 45 46
f 31 46 32
f 33 43 47
f 33 47 44
f 34 48 35
f 34 40 48
f 35 48 49
f 36 50 51
f 36 51 37
f 37 51 52
f 37 52 38
f 38 52 39
f 39 53 54
f 39 54 55
f 39 55 40
f 39 52 53
f 40 55 48
f 41 56 57
f 41 57 43
f 41 42 58
f 41 58 59
f 41 59 56
f 42 59 58
f 43 57 47
f 44 47 60
f 44 60 45
f 45 61 46
f 45 60 62
f 45 62 61
f 47 57 63
f 47 63 60
f 48 64 49
f 48 55 64
f 50 65 51
f 51 65 66
f 51 66 52
f 52 66 67
f 52 67 53
f 53 67 68
f 53 68 69
f 53 69 70
f 53 70 71
f 53 71 54
f 54 71 72
f 54 72 55
f 55 72 71
f 55 71 64
f 56 59 73
f 56 73 57
f 57 73 74
f 57 74 63
f 59 75 74
f 59 74 73
f 60 63 67
f 60 67 66
f 60 66 62
f 61 62 76
f 62 66 77
f 62 77 78
f 62 78 76
f 63 68 67
f 63 74 79
f 63 79 68
f 64 71 80
f 65 76 78
f 65 78 77
f 65 77 66
f 68 79 81
f 68 81 69
f 69 81 82
f 69 82 70
f 70 82 80
f 70 80 71
f 74 75 82
f 74 82 79
f 79 82 83
f 79 83 81
f 81 83 82
