# https://github.com/mikedh/trimesh
v 0.00322994 -0.07137401 0.04328893
v 0.01759018 -0.06744852 0.04328893
v -0.00559311 -0.06715350 0.04328893
v -0.00742337 -0.06229773 0.02716230
v 0.00322994 -0.06374991 0.02409056
v 0.01547477 -0.06338685 0.02513499
v 0.01742771 -0.06651819 0.03987932
v 0.02186742 -0.05508205 0.04328893
v -0.00826555 -0.06536098 0.04328893
v -0.00821250 -0.06429452 0.03987932
v -0.00763557 -0.04344170 -0.01246308
v -0.00437294 -0.02170399 -0.06511266
v 0.00845546 -0.02304275 -0.06707859
v 0.01356825 -0.02304275 -0.06707859
v 0.01586271 -0.02549335 -0.05635819
v 0.01584945 -0.04468972 -0.01455188
v 0.01793501 -0.02987265 -0.03709844
v 0.01770623 -0.04813869 0.00139044
v 0.02108160 -0.01292273 -0.05635819
v 0.02264329 -0.05140615 0.03987932
v 0.02275603 -0.05140615 0.04328893
v -0.01035775 -0.05140615 0.04328893
v -0.01031133 -0.05140615 0.03987932
v -0.00837166 -0.04575618 0.00139044
v -0.00775825 -0.02451765 -0.05230352
v 0.00251706 -0.01805080 -0.07432788
v -0.00779141 -0.00554821 -0.08919509
v 0.00322994 -0.00793072 -0.09260470
v 0.01633022 -0.00722732 -0.09109958
v 0.01745424 -0.01335382 -0.07432788
v 0.02315059 -0.01292273 -0.03709844
v 0.02292513 -0.03216441 0.00139044
v 0.01911208 0.00473066 -0.09644438
v 0.02328322 0.00631901 -0.07561800
v 0.02328322 -0.03554535 0.04328893
v 0.02328322 -0.03216441 0.02065025
v -0.01058322 -0.03216441 0.04328893
v -0.01058322 -0.03216441 0.02065025
v -0.01046718 -0.03216441 0.00139044
v -0.00848771 -0.00915602 -0.07561800
v -0.00846450 -0.02735402 -0.03709844
v -0.00318923 0.01714250 -0.12249273
v 0.00322994 -0.00105544 -0.10224998
v -0.00890880 0.00588792 -0.09530782
v -0.00830534 0.06497452 -0.17059608
v -0.00710506 0.05344763 -0.16334679
v -0.00661103 0.03493201 -0.14325766
v 0.01336600 0.01553148 -0.12418216
v 0.01425460 0.03393364 -0.14439416
v 0.01584613 0.01122021 -0.11407613
v 0.01705636 0.04546052 -0.15152064
v 0.01783554 0.06420303 -0.17136402
v 0.02106171 0.02558342 -0.11407613
v 0.02172816 0.04480250 -0.13330520
v 0.02227194 0.06404418 -0.15256501
v 0.02270297 0.08330864 -0.17182476
v 0.02304117 0.10255038 -0.19105389
v 0.02328322 0.12179207 -0.21031364
v 0.02328322 0.06404418 0.04328893
v -0.01058322 0.06404418 0.04328893
v -0.01056001 -0.01292273 -0.03709844
v -0.01058322 0.00631901 -0.07561800
v 0.00963916 0.01553148 -0.12418216
v -0.01006929 0.06404418 -0.15256501
v -0.00866675 0.08385320 -0.19031664
v -0.00747311 0.07200863 -0.18337454
v 0.00322994 0.11521176 -0.23614694
v 0.00322994 0.10658929 -0.22653240
v 0.00322994 0.08836868 -0.20598253
v 0.00322994 0.07021606 -0.18546328
v 0.00322994 0.05210887 -0.16488266
v 0.00322994 0.04248802 -0.15391657
v 0.00322994 0.03404711 -0.14427135
v 0.01497742 0.05231308 -0.16463691
v 0.01555435 0.07071530 -0.18484897
v 0.01600197 0.08911746 -0.20506097
v 0.01845226 0.08294558 -0.19117676
v 0.01891314 0.10168809 -0.21102014
v 0.01911208 0.12052139 -0.23083283
v 0.02328322 0.14103381 -0.22957345
v 0.01962602 0.08330864 0.04328893
v 0.02328322 0.16041168 -0.21031364
v -0.01021518 0.06740246 0.04328893
v -0.01058322 0.16041168 -0.21031364
v -0.01058322 0.12179207 -0.21031364
v -0.01052022 0.10255038 -0.19105389
v -0.01034781 0.08330864 -0.17182476
v -0.00885906 0.10277726 -0.21000651
v -0.00770520 0.09066044 -0.20340223
v -0.00779141 0.12798666 -0.24204467
v 0.00322994 0.12483263 -0.24480928
v 0.01633022 0.12608062 -0.24385703
v 0.01632691 0.10754233 -0.22527303
v -0.00779141 0.10935757 -0.22336854
v 0.01861141 0.14055732 -0.24969333
v 0.02265656 0.16029824 -0.24880252
v 0.02328322 0.16041168 -0.22969633
v 0.02266319 0.16041168 -0.24880252
v 0.01440712 0.09395057 0.04328893
v 0.01858489 0.16041168 -0.19031664
v -0.00848771 0.08312708 0.04328893
v -0.00865349 0.16041168 -0.19163751
v -0.01058322 0.16041168 -0.22957345
v -0.00603078 0.09274798 0.04328893
v -0.01058322 0.14103381 -0.22957345
v -0.00890880 0.12165594 -0.22969633
v -0.00869659 0.14157840 -0.24858752
v -0.00743663 0.14834024 -0.25983005
v 0.00322994 0.13629145 -0.25445450
v 0.01549467 0.14666113 -0.26099729
v 0.01686736 0.16041168 -0.26637284
v 0.02264661 0.16041168 -0.24892539
v 0.00359466 0.09395057 0.04328893
v 0.01855173 0.16041168 -0.19019377
v 0.01848542 0.16041168 -0.19007089
v 0.00322994 0.16041168 -0.18242229
v -0.00048695 0.16041168 -0.18368172
v -0.01032128 0.16041168 -0.24880252
v -0.01031796 0.16029824 -0.24880252
v -0.00822908 0.16041168 -0.26323966
v -0.00822245 0.16029824 -0.26320897
v -0.00728411 0.16041168 -0.26385403
v 0.00377702 0.16041168 -0.27051970
v 0.00322994 0.14593501 -0.26139661
v 0.00502041 0.16041168 -0.27042757
v 0.01660542 0.16041168 -0.26698721
f 1 2 8
f 1 8 21
f 1 21 35
f 1 35 59
f 1 59 81
f 1 81 99
f 1 99 113
f 1 113 104
f 1 104 101
f 1 101 83
f 1 83 60
f 1 60 37
f 1 37 22
f 1 22 9
f 1 9 3
f 1 3 4
f 1 4 5
f 1 5 6
f 1 6 2
f 2 6 7
f 2 7 8
f 3 9 4
f 4 9 10
f 4 10 11
f 4 11 12
f 4 12 5
f 5 12 13
f 5 13 14
f 5 14 6
f 6 14 15
f 6 15 16
f 6 16 7
f 7 16 15
f 7 15 17
f 7 17 18
f 7 18 19
f 7 19 20
f 7 20 8
f 8 20 21
f 9 22 23
f 9 23 10
f 10 23 24
f 10 24 25
f 10 25 11
f 11 25 12
f 12 26 13
f 12 25 27
f 12 27 28
f 12 28 26
f 13 26 28
f 13 28 14
f 14 28 29
f 14 29 15
f 15 29 30
f 15 30 17
f 17 30 19
f 17 19 18
f 19 31 32
f 19 32 20
f 19 30 29
f 19 29 33
f 19 33 34
f 19 34 31
f 20 32 21
f 21 32 36
f 21 36 35
f 22 37 38
f 22 38 39
f 22 39 23
f 23 39 40
f 23 40 41
f 23 41 24
f 24 41 25
f 25 41 40
f 25 40 27
f 27 42 43
f 27 43 28
f 27 40 44
f 27 44 45
f 27 45 46
f 27 46 47
f 27 47 42
f 28 43 48
f 28 48 29
f 29 48 49
f 29 49 50
f 29 50 51
f 29 51 52
f 29 52 33
f 31 36 32
f 31 34 36
f 33 53 34
f 33 52 53
f 34 53 54
f 34 54 55
f 34 55 56
f 34 56 57
f 34 57 58
f 34 58 80
f 34 80 97
f 34 97 82
f 34 82 59
f 34 59 35
f 34 35 36
f 37 60 84
f 37 84 103
f 37 103 105
f 37 105 85
f 37 85 62
f 37 62 38
f 38 61 39
f 38 62 61
f 39 61 40
f 40 62 44
f 40 61 62
f 42 47 43
f 43 47 63
f 43 63 48
f 44 62 64
f 44 64 65
f 44 65 45
f 45 65 66
f 45 66 46
f 46 66 67
f 46 67 47
f 47 67 68
f 47 68 69
f 47 69 70
f 47 70 71
f 47 71 72
f 47 72 73
f 47 73 63
f 48 74 49
f 48 63 68
f 48 68 67
f 48 67 74
f 49 74 50
f 50 74 51
f 51 74 75
f 51 75 52
f 52 75 76
f 52 76 77
f 52 77 53
f 53 77 78
f 53 78 54
f 54 78 55
f 55 78 56
f 56 78 79
f 56 79 57
f 57 79 58
f 58 79 80
f 59 82 81
f 60 83 84
f 62 85 86
f 62 86 87
f 62 87 64
f 63 73 72
f 63 72 71
f 63 71 70
f 63 70 69
f 63 69 68
f 64 87 65
f 65 87 88
f 65 88 89
f 65 89 66
f 66 89 67
f 67 90 91
f 67 91 92
f 67 92 93
f 67 93 76
f 67 76 75
f 67 75 74
f 67 89 94
f 67 94 90
f 76 93 77
f 77 93 78
f 78 93 79
f 79 92 95
f 79 95 96
f 79 96 80
f 79 93 92
f 80 96 98
f 80 98 97
f 81 82 99
f 82 97 98
f 82 98 112
f 82 112 111
f 82 111 126
f 82 126 125
f 82 125 123
f 82 123 122
f 82 122 120
f 82 120 118
f 82 118 103
f 82 103 84
f 82 84 102
f 82 102 117
f 82 117 116
f 82 116 115
f 82 115 114
f 82 114 100
f 82 100 99
f 83 101 84
f 84 101 104
f 84 104 102
f 85 105 106
f 85 106 86
f 86 106 88
f 86 88 87
f 88 106 94
f 88 94 89
f 90 94 106
f 90 106 107
f 90 107 108
f 90 108 91
f 91 108 109
f 91 109 92
f 92 109 110
f 92 110 95
f 95 110 111
f 95 111 112
f 95 112 96
f 96 112 98
f 99 100 114
f 99 114 115
f 99 115 116
f 99 116 113
f 102 104 117
f 103 118 105
f 104 113 117
f 105 118 119
f 105 119 106
f 106 119 107
f 107 119 120
f 107 120 121
f 107 121 108
f 108 121 122
f 108 122 123
f 108 123 124
f 108 124 109
f 109 124 110
f 110 124 123
f 110 123 125
f 110 125 126
f 110 126 111
f 113 116 117
f 118 120 119
f 120 122 121

