# https://github.com/mikedh/trimesh
v 0.04191112 1.18191723 0.57879729
v 0.06097955 1.18436462 0.57879729
v 0.04191112 1.18202170 1.02170302
v 0.04191112 1.18192469 0.05921491
v 0.09284705 1.18851326 0.58489422
v 0.09284705 1.18851326 0.59068113
v 0.06097955 1.18456609 1.04071717
v 0.04191112 1.18212616 1.04071717
v 0.04191112 1.18272309 0.04009741
v 0.09065044 1.18964741 0.04898451
v 0.11011946 1.20695076 0.58603093
v 0.10918473 1.20912205 0.08742615
v 0.11011946 1.20695076 0.59006110
v 0.09241974 1.18875947 1.05311771
v 0.08022156 1.18761786 1.05539111
v 0.04191112 1.18214853 1.04092385
v 0.04191112 1.18274546 0.03999410
v 0.04191112 1.18652846 0.02304670
v 0.04191112 1.18672992 0.02253002
v 0.04191112 1.19971305 0.01550307
v 0.09509707 1.19971305 0.04650437
v 0.09753404 1.19792971 0.05962827
v 0.11011946 1.21411383 0.58603093
v 0.10439760 1.21896386 0.05921491
v 0.10918473 1.20974881 0.08742615
v 0.11011946 1.21411383 0.59006110
v 0.10989913 1.20742080 1.05239435
v 0.09908969 1.20048902 1.05673453
v 0.08022156 1.19971305 1.06427815
v 0.06097955 1.18693139 1.05704452
v 0.04191112 1.19725821 1.06851502
v 0.04191112 1.18696873 1.06066134
v 0.04191112 1.21896386 0.01467634
v 0.09780110 1.21896386 0.04454096
v 0.09613862 1.23312583 1.04071717
v 0.09538416 1.23281245 0.05921491
v 0.09424914 1.23196931 0.04629769
v 0.10587981 1.21937424 1.04082048
v 0.10989913 1.21322589 1.05239435
v 0.10082561 1.21937424 1.05838793
v 0.08022156 1.21896386 1.06758497
v 0.04191112 1.19971305 1.06913507
v 0.04191112 1.22218721 0.01529639
v 0.04191112 1.25814443 0.57879729
v 0.04191112 1.25721921 0.90606803
v 0.08022156 1.24008004 1.04071717
v 0.09531740 1.23248415 1.05590779
v 0.08022156 1.23957265 0.05921491
v 0.04191112 1.25721921 0.19396739
v 0.04191112 1.23493900 0.02190997
v 0.04191112 1.24238562 0.03999410
v 0.04191112 1.21896386 1.07037511
v 0.04191112 1.21003982 1.06985843
v 0.08022156 1.23505091 1.05880130
v 0.04191112 1.25680882 0.92632225
v 0.06097955 1.24304227 1.04071717
v 0.06097955 1.24300492 0.05921491
v 0.04191112 1.25681628 0.17464322
v 0.04191112 1.25683865 0.17567660
v 0.04191112 1.23501363 1.06148807
v 0.06097955 1.23577468 1.05900793
v 0.04191112 1.24398241 1.04071717
f 1 2 3
f 1 3 8
f 1 8 16
f 1 16 32
f 1 32 31
f 1 31 42
f 1 42 53
f 1 53 52
f 1 52 60
f 1 60 62
f 1 62 55
f 1 55 45
f 1 45 44
f 1 44 49
f 1 49 59
f 1 59 58
f 1 58 51
f 1 51 50
f 1 50 43
f 1 43 33
f 1 33 20
f 1 20 19
f 1 19 18
f 1 18 17
f 1 17 9
f 1 9 4
f 1 4 2
f 2 5 6
f 2 6 3
f 2 4 5
f 3 7 8
f 3 6 7
f 4 9 10
f 4 10 5
f 5 11 13
f 5 13 6
f 5 10 12
f 5 12 11
f 6 13 14
f 6 14 7
f 7 14 8
f 8 14 15
f 8 15 16
f 9 17 10
f 10 17 18
f 10 18 19
f 10 19 20
f 10 20 21
f 10 21 22
f 10 22 12
f 11 23 26
f 11 26 13
f 11 12 25
f 11 25 23
f 12 22 21
f 12 21 24
f 12 24 25
f 13 26 39
f 13 39 27
f 13 27 14
f 14 27 28
f 14 28 29
f 14 29 15
f 15 30 16
f 15 29 31
f 15 31 32
f 15 32 30
f 16 30 32
f 20 33 34
f 20 34 21
f 21 34 24
f 23 35 26
f 23 25 24
f 23 24 36
f 23 36 35
f 24 34 37
f 24 37 36
f 26 35 38
f 26 38 39
f 27 39 40
f 27 40 28
f 28 40 41
f 28 41 29
f 29 41 42
f 29 42 31
f 33 43 34
f 34 43 37
f 35 44 45
f 35 45 46
f 35 46 47
f 35 47 39
f 35 39 38
f 35 36 44
f 36 37 48
f 36 48 49
f 36 49 44
f 37 43 50
f 37 50 51
f 37 51 48
f 39 47 40
f 40 47 41
f 41 52 53
f 41 53 42
f 41 47 54
f 41 54 52
f 45 55 46
f 46 56 54
f 46 54 47
f 46 55 56
f 48 51 57
f 48 57 58
f 48 58 59
f 48 59 49
f 51 58 57
f 52 54 60
f 54 61 60
f 54 56 62
f 54 62 61
f 55 62 56
f 60 61 62
