# https://github.com/mikedh/trimesh
v 0.00323130 0.60295914 1.52035897
v -0.00848035 0.60295914 1.51521168
v -0.00839374 0.58379578 1.51500161
v 0.00323130 0.58379578 1.51995983
v 0.02247414 0.58379578 1.51991773
v 0.02247414 0.60295914 1.52010680
v 0.00323130 0.62226086 1.51987574
v -0.00836182 0.64149340 1.51483353
v -0.00845300 0.62226086 1.51506460
v -0.01057741 0.60295914 1.50275326
v -0.01049080 0.58379578 1.50275326
v -0.01055007 0.62226086 1.50275326
v -0.01011697 0.56456324 1.50275326
v -0.00828888 0.42979712 1.49550506
v -0.00801991 0.56456324 1.51426632
v -0.00729050 0.54533070 1.51332084
v -0.00669329 0.53315471 1.51266964
v 0.00323130 0.56456324 1.51853112
v 0.00646351 0.50679645 1.51458148
v 0.01001029 0.48756391 1.51342593
v 0.02247414 0.50679645 1.51542175
v 0.02247414 0.52602899 1.51661928
v 0.02247414 0.54533070 1.51779582
v 0.02247414 0.56456324 1.51888838
v 0.03247167 0.49468963 1.51275362
v 0.03289564 0.50679645 1.51319487
v 0.03332873 0.52602899 1.51372009
v 0.03366608 0.54533070 1.51420322
v 0.03389403 0.56456324 1.51462347
v 0.03401256 0.58379578 1.51495962
v 0.03401256 0.60295914 1.51495962
v 0.03389403 0.62226086 1.51462347
v 0.03366608 0.64149340 1.51420322
v 0.03332873 0.66072593 1.51372009
v 0.02247414 0.62226086 1.51943460
v 0.00323130 0.64149340 1.51918243
v -0.00807006 0.66072593 1.51430831
v -0.01016712 0.66072593 1.50275326
v -0.01045433 0.64149340 1.50275326
v -0.01058654 0.71849273 1.48350876
v -0.01058654 0.46833137 1.48350876
v -0.01057286 0.44902965 1.48350876
v -0.01038595 0.42979712 1.48350876
v -0.00951065 0.41056458 1.48350876
v -0.00741358 0.41056458 1.49428653
v 0.00323130 0.54533070 1.51691345
v -0.00660667 0.40039485 1.49334111
v 0.01241279 0.47725582 1.51252256
v 0.01419074 0.47725582 1.51252256
v 0.02135267 0.48797900 1.51342593
v 0.03383932 0.42979712 1.49548406
v 0.03223917 0.40039485 1.49327806
v 0.03297314 0.41056458 1.49413944
v 0.03483771 0.50679645 1.50275326
v 0.03527079 0.52602899 1.50275326
v 0.03560815 0.54533070 1.50275326
v 0.03583609 0.56456324 1.50275326
v 0.03595462 0.58379578 1.50275326
v 0.03595462 0.60295914 1.50275326
v 0.03583609 0.62226086 1.50275326
v 0.03560815 0.64149340 1.50275326
v 0.03527079 0.66072593 1.50275326
v 0.03483771 0.67995847 1.50275326
v 0.03289564 0.67995847 1.51319487
v 0.02247414 0.64149340 1.51855223
v 0.02247414 0.66072593 1.51729159
v 0.00323130 0.66072593 1.51787992
v -0.00692579 0.69220365 1.51292170
v -0.00752300 0.67995847 1.51357301
v -0.00961550 0.67995847 1.50275326
v -0.01043610 0.73772527 1.48350876
v -0.01058198 0.79549205 1.46426432
v -0.01058654 0.85318966 1.44501988
v -0.01058654 0.39133205 1.46426432
v -0.01054095 0.33356522 1.44501988
v -0.01024462 0.37209950 1.46426432
v -0.00814756 0.37209950 1.47672280
v -0.00733608 0.35943924 1.47500004
v 0.00323130 0.39790431 1.49411845
v 0.00323130 0.41056458 1.49693371
v -0.00707167 0.26424507 1.43613302
v -0.00598667 0.30533909 1.45401184
v 0.00684645 0.30035798 1.45699513
v 0.01026102 0.34124445 1.47462189
v 0.02247414 0.39790431 1.49405541
v 0.03578138 0.42979712 1.48350876
v 0.03398976 0.37209950 1.47747915
v 0.03491521 0.41056458 1.48350876
v 0.03140946 0.34359661 1.47348740
v 0.03332873 0.35646442 1.47556731
v 0.03598653 0.44902965 1.48350876
v 0.03598653 0.73772527 1.48350876
v 0.03578138 0.75695780 1.48350876
v 0.03383932 0.75695780 1.49548406
v 0.03246711 0.69206528 1.51275362
v 0.02247414 0.67995847 1.51573691
v 0.00323130 0.67995847 1.51611517
v -0.00642888 0.76671243 1.49317303
v -0.00732241 0.75695780 1.49426553
v -0.00834359 0.73772527 1.49605128
v 0.00451689 0.69884510 1.51359401
v 0.01033852 0.78926570 1.49411845
v -0.01008506 0.81472460 1.46426432
v -0.01041786 0.87242222 1.44501988
v -0.01058654 0.89172391 1.42575445
v -0.01058654 0.29510015 1.42575445
v -0.01024462 0.24286789 1.40653101
v -0.01004403 0.27579846 1.42575445
v -0.00794697 0.27579846 1.43775069
v -0.00773270 0.31820686 1.45649095
v 0.01858090 0.34124445 1.47462189
v -0.00813844 0.24286789 1.42111139
v -0.00375740 0.24286789 1.42409473
v 0.00323130 0.24286789 1.42745616
v 0.00323130 0.26168536 1.43724646
v 0.02247414 0.29959699 1.45731029
v 0.03593183 0.37209950 1.46426432
v 0.03380285 0.31433271 1.45741532
v 0.03574947 0.31433271 1.44501988
v 0.03307799 0.30229505 1.45581864
v 0.03598653 0.33356522 1.44501988
v 0.03598653 0.79549205 1.46426432
v 0.03593183 0.81472460 1.46426432
v 0.03491521 0.77619034 1.48350876
v 0.03398976 0.81472460 1.47747915
v 0.03297314 0.77619034 1.49413944
v 0.02135267 0.69877592 1.51350991
v 0.03223917 0.78636007 1.49327806
v 0.01419074 0.70949910 1.51252256
v 0.01178823 0.70949910 1.51252256
v -0.00713094 0.82745404 1.47468494
v -0.00799256 0.81472460 1.47596651
v 0.02247414 0.78878143 1.49397137
v 0.01857634 0.84557966 1.47462189
v 0.00967293 0.84557966 1.47462189
v -0.00756859 0.88494409 1.45607076
v -0.00832535 0.87242222 1.45754141
v -0.00877668 0.89151637 1.44499889
v -0.00982977 0.91095648 1.42575445
v -0.01057286 0.93018898 1.40653101
v -0.01058198 0.94942155 1.38728657
v -0.01058654 0.91095648 1.40653101
v -0.01058654 0.25656589 1.40653101
v -0.01058198 0.24286789 1.39285400
v -0.00965197 0.24286789 1.41190936
v 0.01746398 0.24286789 1.42310726
v 0.01492927 0.26216963 1.43709943
v 0.03350197 0.29558441 1.44321308
v 0.03415844 0.29510015 1.42575445
v 0.03598653 0.31433271 1.42575445
v 0.03216623 0.28534553 1.43560779
v 0.03598653 0.85318966 1.44501988
v 0.03574947 0.87242222 1.44501988
v 0.03380285 0.87242222 1.45741532
v 0.03332873 0.83035968 1.47556731
v 0.03140946 0.84315832 1.47348740
v 0.02247414 0.88743467 1.45747836
v 0.00323130 0.88778058 1.45764644
v -0.00678447 0.92133372 1.43583885
v -0.00777373 0.94409453 1.41835917
v -0.00829344 0.92873617 1.42516618
v -0.00880859 0.94962909 1.40806470
v -0.00893624 0.94962909 1.40716127
v -0.01057741 0.94962909 1.38728657
v -0.01058654 0.94962909 1.34894472
v -0.01058654 0.24286789 1.34879764
v 0.02263370 0.24286789 1.40653101
v 0.03221638 0.28520717 1.42575445
v 0.03417667 0.29510015 1.40653101
v 0.03598653 0.31433271 1.36804207
v 0.02308959 0.24286789 1.38728657
v 0.03598653 0.87242222 1.42575445
v 0.03350197 0.89123964 1.44321308
v 0.03307799 0.88445982 1.45581864
v 0.03415844 0.89172391 1.42575445
v 0.01450530 0.92278653 1.43676328
v 0.00323130 0.92278653 1.43676328
v 0.00323130 0.94962909 1.41938863
v -0.00316931 0.94962909 1.41669945
v -0.01058654 0.94962909 1.32955320
v -0.01058654 0.24286789 1.32955320
v 0.03223461 0.28520717 1.40653101
v 0.02329473 0.24286789 1.34879764
v 0.03416756 0.29510015 1.38728657
v 0.03370256 0.29440833 1.36957576
v 0.03339256 0.30035798 1.35629795
v 0.03403991 0.31433271 1.35524750
v 0.03598653 0.87242222 1.36804207
v 0.03417667 0.89172391 1.40653101
v 0.03216623 0.90140940 1.43560779
v 0.01896384 0.94962909 1.40966137
v 0.01816149 0.94962909 1.41195135
v 0.01621486 0.94596248 1.41995590
v 0.02328562 0.94962909 1.34879764
v 0.02306223 0.94962909 1.38713949
v -0.00848947 0.94962909 1.31423746
v -0.00909580 0.24286789 1.31869145
v 0.03222549 0.28520717 1.38728657
v 0.02328562 0.24286789 1.32955320
v 0.03217990 0.28527635 1.37701304
v 0.01806575 0.24286789 1.31146425
v 0.01807030 0.94962909 1.31138021
v 0.03403991 0.87242222 1.35524750
v 0.03339256 0.88646613 1.35629795
v 0.03370256 0.89241572 1.36957576
v 0.03416756 0.89172391 1.38728657
v 0.02328562 0.94962909 1.32955320
v 0.02305311 0.94962909 1.38728657
v 0.01937413 0.94962909 1.40819073
v 0.00314468 0.94962909 1.30577073
v -0.00848947 0.24286789 1.31434255
v 0.00323130 0.24286789 1.30589682
v 0.00323130 0.94942155 1.30572874
v 0.01790619 0.94962909 1.31129617
v 0.02324003 0.94962909 1.32936413
v -0.00016048 0.24286789 1.30829189
f 1 2 3
f 1 3 4
f 1 4 5
f 1 5 6
f 1 6 7
f 1 7 8
f 1 8 9
f 1 9 2
f 2 10 11
f 2 11 3
f 2 9 12
f 2 12 10
f 3 11 13
f 3 13 14
f 3 14 15
f 3 15 4
f 4 15 16
f 4 16 17
f 4 17 18
f 4 18 19
f 4 19 20
f 4 20 21
f 4 21 22
f 4 22 23
f 4 23 24
f 4 24 5
f 5 24 25
f 5 25 26
f 5 26 27
f 5 27 28
f 5 28 29
f 5 29 30
f 5 30 6
f 6 30 31
f 6 31 32
f 6 32 33
f 6 33 34
f 6 34 35
f 6 35 7
f 7 35 36
f 7 36 37
f 7 37 8
f 8 37 38
f 8 38 39
f 8 39 9
f 9 39 12
f 10 12 40
f 10 40 41
f 10 41 42
f 10 42 11
f 11 42 43
f 11 43 13
f 12 39 40
f 13 43 14
f 14 17 16
f 14 16 15
f 14 43 44
f 14 44 45
f 14 45 17
f 17 19 46
f 17 46 18
f 17 45 47
f 17 47 20
f 17 20 19
f 18 46 19
f 20 48 21
f 20 47 48
f 21 48 49
f 21 49 50
f 21 50 25
f 21 25 22
f 22 25 23
f 23 25 24
f 25 51 26
f 25 50 52
f 25 52 53
f 25 53 51
f 26 54 27
f 26 51 54
f 27 54 55
f 27 55 28
f 28 55 56
f 28 56 29
f 29 57 30
f 29 56 57
f 30 57 58
f 30 58 59
f 30 59 31
f 31 59 60
f 31 60 32
f 32 60 61
f 32 61 33
f 33 61 62
f 33 62 34
f 34 62 63
f 34 63 64
f 34 64 35
f 35 64 65
f 35 65 36
f 36 65 66
f 36 66 67
f 36 67 68
f 36 68 69
f 36 69 37
f 37 69 70
f 37 70 38
f 38 70 71
f 38 71 39
f 39 71 40
f 40 71 72
f 40 72 73
f 40 73 105
f 40 105 142
f 40 142 165
f 40 165 180
f 40 180 181
f 40 181 166
f 40 166 143
f 40 143 106
f 40 106 74
f 40 74 41
f 41 74 42
f 42 74 43
f 43 74 75
f 43 75 76
f 43 76 44
f 44 76 77
f 44 77 45
f 45 77 78
f 45 78 47
f 47 79 80
f 47 80 48
f 47 78 81
f 47 81 82
f 47 82 83
f 47 83 84
f 47 84 79
f 48 80 79
f 48 79 49
f 49 79 85
f 49 85 52
f 49 52 50
f 51 86 54
f 51 53 87
f 51 87 88
f 51 88 86
f 52 85 89
f 52 89 90
f 52 90 53
f 53 90 87
f 54 86 55
f 55 86 56
f 56 86 57
f 57 86 91
f 57 91 58
f 58 91 92
f 58 92 59
f 59 92 60
f 60 92 93
f 60 93 61
f 61 93 62
f 62 93 63
f 63 93 94
f 63 94 64
f 64 94 95
f 64 95 65
f 65 95 66
f 66 95 96
f 66 96 67
f 67 96 97
f 67 97 68
f 68 98 99
f 68 99 100
f 68 100 69
f 68 97 101
f 68 101 102
f 68 102 98
f 69 100 70
f 70 100 71
f 71 100 103
f 71 103 104
f 71 104 72
f 72 104 73
f 73 104 105
f 74 106 75
f 75 106 107
f 75 107 108
f 75 108 76
f 76 108 77
f 77 108 109
f 77 109 110
f 77 110 78
f 78 110 81
f 79 84 111
f 79 111 85
f 81 112 113
f 81 113 114
f 81 114 115
f 81 115 83
f 81 83 82
f 81 110 109
f 81 109 112
f 83 115 116
f 83 116 84
f 84 116 111
f 85 111 89
f 86 88 117
f 86 117 91
f 87 90 118
f 87 118 119
f 87 119 117
f 87 117 88
f 89 111 116
f 89 116 120
f 89 120 90
f 90 120 118
f 91 117 121
f 91 121 150
f 91 150 170
f 91 170 188
f 91 188 172
f 91 172 152
f 91 152 122
f 91 122 92
f 92 122 123
f 92 123 93
f 93 123 124
f 93 124 94
f 94 124 125
f 94 125 126
f 94 126 95
f 95 127 96
f 95 126 128
f 95 128 127
f 96 127 129
f 96 129 97
f 97 129 130
f 97 130 101
f 98 102 131
f 98 131 99
f 99 131 132
f 99 132 100
f 100 132 103
f 101 130 102
f 102 133 134
f 102 134 135
f 102 135 136
f 102 136 131
f 102 130 129
f 102 129 133
f 103 132 137
f 103 137 104
f 104 137 136
f 104 136 138
f 104 138 139
f 104 139 140
f 104 140 105
f 105 140 141
f 105 141 142
f 106 143 107
f 107 144 166
f 107 166 181
f 107 181 197
f 107 197 211
f 107 211 216
f 107 216 212
f 107 212 201
f 107 201 199
f 107 199 183
f 107 183 171
f 107 171 167
f 107 167 146
f 107 146 114
f 107 114 113
f 107 113 112
f 107 112 145
f 107 145 108
f 107 143 144
f 108 145 112
f 108 112 109
f 114 146 147
f 114 147 116
f 114 116 115
f 116 147 120
f 117 119 121
f 118 120 119
f 119 120 148
f 119 148 149
f 119 149 150
f 119 150 121
f 120 147 146
f 120 146 151
f 120 151 148
f 122 152 123
f 123 125 124
f 123 152 153
f 123 153 125
f 125 153 154
f 125 154 155
f 125 155 126
f 126 155 128
f 127 128 129
f 128 155 156
f 128 156 133
f 128 133 129
f 131 136 132
f 132 136 137
f 133 156 134
f 134 156 157
f 134 157 158
f 134 158 135
f 135 158 136
f 136 158 159
f 136 159 160
f 136 160 161
f 136 161 138
f 138 161 139
f 139 161 162
f 139 162 163
f 139 163 140
f 140 163 164
f 140 164 141
f 141 164 165
f 141 165 142
f 143 166 144
f 146 167 151
f 148 151 149
f 149 151 168
f 149 168 182
f 149 182 169
f 149 169 150
f 150 169 170
f 151 167 171
f 151 171 168
f 152 172 153
f 153 173 174
f 153 174 154
f 153 172 175
f 153 175 173
f 154 174 155
f 155 174 156
f 156 174 157
f 157 174 176
f 157 176 158
f 158 176 177
f 158 177 159
f 159 177 178
f 159 178 179
f 159 179 160
f 160 179 162
f 160 162 161
f 162 179 178
f 162 178 192
f 162 192 191
f 162 191 209
f 162 209 208
f 162 208 195
f 162 195 194
f 162 194 207
f 162 207 215
f 162 215 202
f 162 202 214
f 162 214 210
f 162 210 196
f 162 196 180
f 162 180 165
f 162 165 164
f 162 164 163
f 168 171 183
f 168 183 182
f 169 182 198
f 169 198 184
f 169 184 170
f 170 184 185
f 170 185 186
f 170 186 187
f 170 187 203
f 170 203 188
f 172 188 189
f 172 189 175
f 173 175 190
f 173 190 174
f 174 190 191
f 174 191 192
f 174 192 193
f 174 193 176
f 175 189 194
f 175 194 195
f 175 195 190
f 176 193 178
f 176 178 177
f 178 193 192
f 180 196 181
f 181 196 197
f 182 183 199
f 182 199 198
f 184 198 200
f 184 200 185
f 185 200 199
f 185 199 186
f 186 199 187
f 187 199 201
f 187 201 202
f 187 202 203
f 188 203 204
f 188 204 205
f 188 205 206
f 188 206 189
f 189 206 207
f 189 207 194
f 190 195 208
f 190 208 209
f 190 209 191
f 196 210 211
f 196 211 197
f 198 199 200
f 201 212 213
f 201 213 214
f 201 214 202
f 202 215 203
f 203 215 207
f 203 207 204
f 204 207 205
f 205 207 206
f 210 214 213
f 210 213 212
f 210 212 216
f 210 216 211
