# https://github.com/mikedh/trimesh
v 0.00323130 -0.12404144 0.30946431
v -0.00803359 -0.12063394 0.30946431
v -0.00774182 -0.12026262 0.29020163
v 0.00323130 -0.12349539 0.29020163
v 0.02247414 -0.12360461 0.29020163
v 0.02247414 -0.12388856 0.30946431
v 0.00323130 -0.12404144 0.79053124
v -0.01013065 -0.10916643 0.30946431
v -0.00983889 -0.10916643 0.29020163
v -0.00803359 -0.12063394 0.79053124
v -0.00709903 -0.11951999 0.27444124
v -0.00831624 -0.10198007 0.17475054
v -0.00777373 -0.10108450 0.15548786
v 0.00138041 -0.12150766 0.26918776
v 0.00796337 -0.12061209 0.23241356
v 0.02247414 -0.12218478 0.25167624
v 0.02247414 -0.12294934 0.27093892
v 0.03352020 -0.12037185 0.29020163
v 0.03259932 -0.11930154 0.23241356
v 0.03304152 -0.11976023 0.25167624
v 0.03331050 -0.12010975 0.27093892
v 0.03360226 -0.12050292 0.30946431
v 0.02247414 -0.12388856 0.79053124
v 0.02247414 -0.12360461 0.80979392
v 0.00323130 -0.12351724 0.80979392
v -0.00776918 -0.12028448 0.80979392
v -0.01058654 -0.08992280 0.21315085
v -0.01058198 -0.08992280 0.19388817
v -0.01041330 -0.08992280 0.17475054
v -0.01013065 -0.10916643 0.79053124
v -0.00986624 -0.10916643 0.80979392
v -0.00626932 -0.11862442 0.26168283
v -0.00706256 -0.10023264 0.14010272
v -0.00987080 -0.08992280 0.15548786
v -0.00848947 -0.08529207 0.09769982
v -0.00799256 -0.08293302 0.07843709
v 0.01093117 -0.11956364 0.21315085
v 0.02247414 -0.12111448 0.23241356
v 0.03223461 -0.11890837 0.22178156
v 0.03546227 -0.10916643 0.29020163
v 0.03525256 -0.10916643 0.27093892
v 0.03403991 -0.10370570 0.17475054
v 0.03454138 -0.10916643 0.23241356
v 0.03498359 -0.10916643 0.25167624
v 0.03554433 -0.10916643 0.30946431
v 0.03360226 -0.12050292 0.79053124
v 0.03352020 -0.12037185 0.80979392
v 0.03331050 -0.12010975 0.82905663
v 0.03304152 -0.11976023 0.84831931
v 0.03259932 -0.11930154 0.86745691
v 0.02247414 -0.12294934 0.82905663
v 0.02247414 -0.12218478 0.84831931
v 0.00749381 -0.12061209 0.86745691
v 0.00323130 -0.12227221 0.82905663
v -0.00701241 -0.11943262 0.82905663
v -0.00754579 -0.10077875 0.96377036
v -0.00817035 -0.10167426 0.94450766
v -0.01058654 -0.07065730 0.09769982
v -0.01058654 -0.08992280 0.90598229
v -0.01008963 -0.07065730 0.07843709
v -0.01054095 -0.08992280 0.92524498
v -0.01026742 -0.08992280 0.94450766
v -0.00569946 -0.09920605 0.12734434
v -0.00826609 -0.06537131 0.04328893
v -0.00713094 -0.08114188 0.06680442
v 0.01266809 -0.11886466 0.20301918
v 0.01357529 -0.11886466 0.20301918
v 0.02098796 -0.11949813 0.21452676
v 0.02247414 -0.11113230 0.17475054
v 0.03339256 -0.10195821 0.16211722
v 0.03598653 -0.08992280 0.17475054
v 0.03554433 -0.10916643 0.79053124
v 0.03546227 -0.10916643 0.80979392
v 0.03525256 -0.10916643 0.82905663
v 0.03498359 -0.10916643 0.84831931
v 0.03454138 -0.10916643 0.86745691
v 0.03403991 -0.10370570 0.92524498
v 0.03223461 -0.11890837 0.87821399
v 0.02247414 -0.12111448 0.86745691
v -0.00647447 -0.11886466 0.83931335
v 0.00245629 -0.12076502 0.84669323
v 0.01070779 -0.11956364 0.88671961
v -0.00689388 -0.10003605 0.97690402
v -0.00848947 -0.08579446 1.00229575
v -0.00963830 -0.08992280 0.96377036
v -0.01058654 -0.05141367 0.05917441
v -0.01035859 -0.05141367 0.04328893
v -0.01058654 -0.07065730 1.00229575
v 0.00323130 -0.08762926 0.07843709
v 0.00323130 -0.09306813 0.09769982
v 0.00713366 -0.10016713 0.12221598
v -0.00559005 -0.06714059 0.04328893
v 0.00323130 -0.07135629 0.04328893
v 0.00323130 -0.08227775 0.06442788
v 0.01380324 -0.10016713 0.12221598
v 0.01502045 -0.08208116 0.06492821
v 0.01758707 -0.06744634 0.04328893
v 0.02186326 -0.05508326 0.04328893
v 0.02275679 -0.05141367 0.04328893
v 0.02328562 -0.03555567 0.04328893
v 0.03598653 0.02556093 0.17475054
v 0.03598653 -0.08992280 0.92524498
v 0.03339256 -0.10195821 0.93787830
v 0.01357529 -0.11886466 0.89697634
v 0.02098796 -0.11949813 0.88546879
v 0.01328353 -0.09981761 0.99328980
v 0.01263617 -0.11886466 0.89697634
v 0.00352306 -0.10080055 0.98315813
v -0.00269975 -0.09820126 0.98978751
v -0.00688020 -0.08081427 1.03244060
v -0.00780565 -0.08236512 1.02155843
v -0.00990271 -0.07065730 1.02155843
v -0.01058654 -0.03216998 0.04328893
v -0.01037227 -0.05141367 1.05995874
v -0.01057741 -0.03216998 1.09848410
v -0.01058654 -0.01292634 1.13700952
v 0.02328562 0.06404820 0.04328893
v 0.03403991 0.03936569 0.17475054
v 0.03403991 0.03943120 0.19388817
v 0.03598653 0.02556093 0.92524498
v 0.02258811 0.09908432 1.29123607
v 0.02326738 0.08329183 1.27172322
v 0.02272488 0.06404820 1.25246054
v 0.02291635 0.00629544 1.17553488
v 0.02214135 -0.01292634 1.15627220
v 0.01692604 -0.02710242 1.15627220
v 0.01636074 -0.04518839 1.11774684
v 0.01413147 -0.04272018 1.12962961
v 0.01464662 -0.08168799 1.03444192
v 0.01013338 -0.09981761 0.99328980
v 0.00323130 -0.08173164 1.03469209
v -0.00652917 -0.04193383 1.12775340
v -0.00750476 -0.06242250 1.07346761
v -0.00827521 -0.06430100 1.05995874
v -0.00963374 -0.03216998 1.11774684
v -0.01058654 0.06404820 0.04328893
v -0.00998477 -0.01292634 1.15627220
v -0.01046345 0.00629544 1.17553488
v -0.01058654 0.02556093 1.19467245
v 0.01962487 0.08329183 0.04328893
v 0.02328106 0.09908432 1.27172322
v 0.03403991 0.03943120 0.90598229
v 0.03403991 0.03936569 0.92524498
v 0.01874957 0.09908432 1.31124925
v 0.01910060 0.08182836 1.29248690
v 0.02184047 0.04480456 1.23319786
v 0.01881795 0.00542172 1.19542294
v 0.01790619 -0.01297005 1.17503455
v 0.01480618 -0.02421918 1.16815503
v 0.00323130 -0.02432840 1.16840519
v 0.00323130 -0.04258910 1.12937950
v -0.00698961 -0.02325810 1.16690420
v -0.00753667 -0.04341910 1.11774684
v -0.00788771 -0.02504918 1.15627220
v -0.01021727 0.06741204 0.04328893
v -0.01058654 0.09908432 1.26822091
v -0.00832991 -0.01216185 1.17415894
v -0.00881315 0.00651388 1.19442234
v -0.00872653 0.06441952 1.27109784
v -0.01035859 0.06404820 1.25246054
v -0.01058198 0.08329183 1.27172322
v -0.01058654 0.08329183 1.25246054
v 0.01440956 0.09395120 0.04328893
v 0.02271576 0.09908432 1.25246054
v 0.00809101 0.09908432 1.32025520
v 0.01632883 0.08724543 1.30662121
v 0.01631060 0.06933420 1.28698331
v 0.01864928 0.06337107 1.27197339
v 0.01584104 -0.00661375 1.18941903
v 0.01558118 0.05157590 1.26584437
v 0.01440500 0.03381754 1.24458036
v 0.00323130 0.03386125 1.24458036
v -0.00671608 0.03477867 1.24332953
v -0.00748653 0.05282093 1.26421832
v -0.00763241 -0.00523764 1.18779293
v -0.00848947 0.08311710 0.04328893
v -0.01058198 0.09908432 1.28748365
v -0.01033124 0.09908432 1.24908334
v -0.00602770 0.09274982 0.04328893
v -0.00778741 0.07108163 1.28510705
v -0.00890888 0.08296423 1.29136118
v -0.00890888 0.09908432 1.30774699
v 0.00359600 0.09395120 0.04328893
v 0.00284835 0.09908432 1.19016953
v 0.00575689 0.09908432 1.19079491
v 0.01408133 0.09908432 1.19930054
v 0.01787428 0.09908432 1.20768105
v 0.00323130 0.09908432 1.32113081
v 0.00323130 0.09493414 1.31787866
v 0.00323130 0.08584747 1.30824732
v 0.00323130 0.07623661 1.29799054
v 0.00323130 0.06848234 1.28835920
v 0.00323130 0.05109536 1.26646975
v -0.00854874 0.09908432 1.22068959
v -0.00779197 0.08916760 1.30474500
v -0.00865359 0.09908432 1.30937303
v 0.00072849 0.09908432 1.19467245
f 1 2 3
f 1 3 4
f 1 4 5
f 1 5 6
f 1 6 23
f 1 23 7
f 1 7 10
f 1 10 2
f 2 8 9
f 2 9 3
f 2 10 30
f 2 30 8
f 3 11 4
f 3 9 12
f 3 12 13
f 3 13 11
f 4 11 14
f 4 14 15
f 4 15 16
f 4 16 17
f 4 17 5
f 5 18 6
f 5 17 19
f 5 19 20
f 5 20 21
f 5 21 18
f 6 18 22
f 6 22 46
f 6 46 23
f 7 23 24
f 7 24 25
f 7 25 26
f 7 26 10
f 8 27 28
f 8 28 29
f 8 29 9
f 8 30 59
f 8 59 27
f 9 29 12
f 10 26 31
f 10 31 30
f 11 32 15
f 11 15 14
f 11 13 33
f 11 33 32
f 12 29 34
f 12 34 13
f 13 34 35
f 13 35 36
f 13 36 33
f 15 37 38
f 15 38 16
f 15 32 37
f 16 38 39
f 16 39 19
f 16 19 17
f 18 40 22
f 18 21 41
f 18 41 40
f 19 39 42
f 19 42 20
f 20 42 43
f 20 43 44
f 20 44 21
f 21 44 41
f 22 40 45
f 22 45 72
f 22 72 46
f 23 46 47
f 23 47 24
f 24 47 48
f 24 48 49
f 24 49 50
f 24 50 51
f 24 51 25
f 25 51 52
f 25 52 53
f 25 53 54
f 25 54 55
f 25 55 26
f 26 55 56
f 26 56 57
f 26 57 31
f 27 58 28
f 27 59 88
f 27 88 116
f 27 116 139
f 27 139 162
f 27 162 156
f 27 156 136
f 27 136 113
f 27 113 86
f 27 86 58
f 28 58 29
f 29 58 60
f 29 60 34
f 30 31 61
f 30 61 59
f 31 57 62
f 31 62 61
f 32 33 63
f 32 63 37
f 33 36 63
f 34 60 35
f 35 60 36
f 36 60 64
f 36 64 65
f 36 65 63
f 37 66 38
f 37 63 66
f 38 66 67
f 38 67 68
f 38 68 39
f 39 68 67
f 39 67 69
f 39 69 70
f 39 70 42
f 40 41 71
f 40 71 45
f 41 44 71
f 42 70 71
f 42 71 44
f 42 44 43
f 45 71 102
f 45 102 72
f 46 72 73
f 46 73 47
f 47 73 74
f 47 74 48
f 48 74 75
f 48 75 49
f 49 75 76
f 49 76 77
f 49 77 50
f 50 78 52
f 50 52 51
f 50 77 78
f 52 78 79
f 52 79 53
f 53 80 81
f 53 81 54
f 53 79 82
f 53 82 80
f 54 81 80
f 54 80 55
f 55 80 83
f 55 83 56
f 56 83 84
f 56 84 85
f 56 85 57
f 57 85 62
f 58 86 87
f 58 87 60
f 59 61 88
f 60 87 64
f 61 62 88
f 62 85 88
f 63 65 89
f 63 89 90
f 63 90 91
f 63 91 66
f 64 87 113
f 64 113 136
f 64 136 155
f 64 155 176
f 64 176 179
f 64 179 183
f 64 183 163
f 64 163 140
f 64 140 117
f 64 117 100
f 64 100 99
f 64 99 98
f 64 98 97
f 64 97 93
f 64 93 92
f 64 92 65
f 65 92 93
f 65 93 94
f 65 94 89
f 66 91 95
f 66 95 67
f 67 95 69
f 69 95 70
f 70 95 96
f 70 96 97
f 70 97 98
f 70 98 99
f 70 99 71
f 71 99 100
f 71 100 117
f 71 117 101
f 71 101 120
f 71 120 102
f 72 102 73
f 73 102 74
f 74 102 75
f 75 102 77
f 75 77 76
f 77 102 103
f 77 103 78
f 78 104 105
f 78 105 79
f 78 103 106
f 78 106 104
f 79 105 104
f 79 104 107
f 79 107 82
f 80 82 83
f 82 107 83
f 83 108 109
f 83 109 110
f 83 110 111
f 83 111 84
f 83 107 108
f 84 111 112
f 84 112 85
f 85 112 88
f 86 113 87
f 88 112 114
f 88 114 115
f 88 115 116
f 89 94 96
f 89 96 95
f 89 95 91
f 89 91 90
f 93 97 96
f 93 96 94
f 101 117 118
f 101 118 119
f 101 119 142
f 101 142 120
f 102 120 121
f 102 121 122
f 102 122 103
f 103 122 123
f 103 123 124
f 103 124 125
f 103 125 126
f 103 126 127
f 103 127 128
f 103 128 129
f 103 129 106
f 104 106 130
f 104 130 107
f 106 129 128
f 106 128 130
f 107 130 108
f 108 130 109
f 109 130 110
f 110 130 131
f 110 131 132
f 110 132 133
f 110 133 111
f 111 133 134
f 111 134 112
f 112 134 135
f 112 135 114
f 114 135 137
f 114 137 115
f 115 137 116
f 116 137 138
f 116 138 139
f 117 140 118
f 118 140 141
f 118 141 119
f 119 141 142
f 120 142 143
f 120 143 141
f 120 141 121
f 121 141 164
f 121 164 187
f 121 187 186
f 121 186 185
f 121 185 184
f 121 184 197
f 121 197 194
f 121 194 178
f 121 178 156
f 121 156 177
f 121 177 182
f 121 182 196
f 121 196 188
f 121 188 165
f 121 165 144
f 121 144 145
f 121 145 122
f 122 145 123
f 123 145 146
f 123 146 125
f 123 125 124
f 125 146 147
f 125 147 148
f 125 148 126
f 126 148 149
f 126 149 128
f 126 128 127
f 128 149 150
f 128 150 151
f 128 151 130
f 130 151 132
f 130 132 131
f 132 151 150
f 132 150 152
f 132 152 153
f 132 153 133
f 133 153 134
f 134 153 154
f 134 154 135
f 135 154 137
f 136 156 155
f 137 154 157
f 137 157 158
f 137 158 159
f 137 159 160
f 137 160 138
f 138 160 161
f 138 161 139
f 139 161 162
f 140 163 141
f 141 143 142
f 141 163 164
f 144 165 166
f 144 166 145
f 145 166 167
f 145 167 168
f 145 168 146
f 146 168 147
f 147 168 148
f 148 168 167
f 148 167 169
f 148 169 149
f 149 169 170
f 149 170 171
f 149 171 150
f 150 171 172
f 150 172 173
f 150 173 152
f 152 173 174
f 152 174 175
f 152 175 157
f 152 157 154
f 152 154 153
f 155 156 176
f 156 162 161
f 156 161 177
f 156 178 179
f 156 179 176
f 157 175 159
f 157 159 158
f 159 174 180
f 159 180 181
f 159 181 160
f 159 175 174
f 160 181 161
f 161 181 182
f 161 182 177
f 163 183 184
f 163 184 185
f 163 185 186
f 163 186 187
f 163 187 164
f 165 188 189
f 165 189 166
f 166 190 191
f 166 191 167
f 166 189 190
f 167 191 170
f 167 170 169
f 170 191 171
f 171 191 192
f 171 192 193
f 171 193 172
f 172 193 173
f 173 193 192
f 173 192 191
f 173 191 174
f 174 191 180
f 178 194 183
f 178 183 179
f 180 191 195
f 180 195 181
f 181 195 196
f 181 196 182
f 183 194 197
f 183 197 184
f 188 196 195
f 188 195 189
f 189 195 190
f 190 195 191

