# https://github.com/mikedh/trimesh
v 0.00323130 0.16051155 -0.18244874
v -0.00048871 0.16051155 -0.18370650
v 0.01848516 0.16051155 -0.19008850
v 0.01806575 0.94903784 -0.21144716
v 0.01778766 0.94903784 -0.21133071
v 0.00323130 0.94903784 -0.20578726
v -0.00865359 0.16051155 -0.19167233
v -0.00848947 0.94903784 -0.21431204
v 0.01854898 0.16051155 -0.19022824
v 0.03403991 0.87245492 -0.25528255
v 0.02318532 0.94903784 -0.22924217
v -0.01054095 0.17958011 -0.21032913
v -0.01058198 0.16051155 -0.21032913
v -0.01058654 0.94903784 -0.22959158
v 0.01858545 0.16051155 -0.19036798
v 0.03598653 0.87245492 -0.26809308
v 0.03339256 0.88642822 -0.25633066
v 0.02328562 0.94903784 -0.22959158
v 0.03403991 0.31429502 -0.25528255
v -0.01058654 0.16051155 -0.22959158
v -0.01058654 0.94903784 -0.24883068
v 0.02328106 0.16051155 -0.21032913
v 0.03598653 0.87245492 -0.32581044
v 0.03417667 0.89167785 -0.30654805
v 0.03416756 0.89167785 -0.28733224
v 0.03370256 0.89237264 -0.26960709
v 0.03598653 0.31429502 -0.26809308
v 0.02328562 0.94903784 -0.24883068
v -0.01058654 0.17958011 -0.24883068
v -0.01031756 0.16051155 -0.24883068
v -0.01058198 0.94903784 -0.28770488
v -0.01058654 0.93020091 -0.30654805
v 0.02328562 0.16051155 -0.21046893
v 0.03574491 0.87245492 -0.34504955
v 0.03415844 0.89167785 -0.32581044
v 0.03598653 0.85323199 -0.34504955
v 0.03598653 0.31429502 -0.32581044
v 0.02306223 0.94903784 -0.28733224
v 0.03221638 0.90155953 -0.32581044
v -0.01058654 0.19880304 -0.26809308
v -0.00822506 0.16051155 -0.26327167
v -0.01057286 0.25654903 -0.30654805
v -0.01013521 0.21810318 -0.28733224
v -0.00854874 0.19980662 -0.28693625
v -0.00966565 0.94903784 -0.30654805
v -0.01044521 0.91097799 -0.32581044
v -0.01058654 0.89167785 -0.32581044
v 0.02328562 0.16051155 -0.22970803
v 0.03380285 0.87245492 -0.35744085
v 0.03307344 0.88449820 -0.35585703
v 0.03350197 0.89121463 -0.34325611
v 0.03593183 0.81470891 -0.36431200
v 0.03398976 0.81470891 -0.37749522
v 0.03216623 0.90140510 -0.33566292
v 0.03598653 0.79548599 -0.36431200
v 0.03574491 0.31429502 -0.34504955
v 0.03598653 0.33359516 -0.34504955
v 0.02168546 0.94903784 -0.30654805
v -0.01058654 0.29507209 -0.32581044
v -0.00728138 0.16051155 -0.26387726
v -0.00836182 0.25793862 -0.32522814
v -0.00777373 0.24288452 -0.31842692
v -0.00719020 0.20683191 -0.29795334
v -0.00217548 0.17139687 -0.27624528
v -0.00991183 0.27584917 -0.32581044
v -0.01032668 0.31429502 -0.34504955
v -0.00963374 0.94903784 -0.30692069
v -0.00879947 0.93012370 -0.32590360
v -0.00760506 0.92371606 -0.33696727
v -0.00835271 0.91097799 -0.33880734
v -0.00978874 0.87245492 -0.34504955
v -0.01023095 0.81470891 -0.36431200
v -0.01049992 0.75696291 -0.38355110
v -0.01058198 0.85323199 -0.34504955
v -0.01058654 0.79548599 -0.36431200
v 0.02266105 0.16051155 -0.24883068
v 0.03332417 0.83030341 -0.37558528
v 0.02247414 0.88720023 -0.35734769
v 0.01579089 0.92549165 -0.33815517
v 0.01648383 0.94903784 -0.32105891
v 0.03135931 0.84311874 -0.37351230
v 0.03598653 0.73773998 -0.38355110
v 0.03577683 0.75696291 -0.38355110
v 0.03490609 0.77618585 -0.38355110
v 0.03383476 0.75696291 -0.39552313
v 0.03296402 0.77618585 -0.39417220
v 0.03350197 0.29553531 -0.34325611
v 0.03307344 0.30232896 -0.35585703
v 0.03380285 0.31429502 -0.35744085
v 0.03398976 0.37204104 -0.37749522
v 0.03593183 0.37204104 -0.36431200
v 0.03598653 0.39134117 -0.36431200
v -0.01058654 0.33359516 -0.34504955
v 0.00377836 0.16051155 -0.27053874
v -0.00689388 0.26527269 -0.33603562
v -0.00869918 0.29522652 -0.34523592
v -0.00744550 0.30171137 -0.35590361
v 0.00323130 0.20482467 -0.29925769
v -0.00822962 0.31429502 -0.35727782
v -0.01056830 0.39134117 -0.36431200
v -0.01040874 0.44908717 -0.38355110
v -0.00994830 0.37204104 -0.36431200
v -0.00757770 0.94903784 -0.31898594
v -0.00725403 0.94903784 -0.31921884
v 0.00323130 0.94903784 -0.32385392
v 0.00323130 0.93622255 -0.33230889
v 0.00323130 0.92664967 -0.33862103
v 0.00323130 0.88611943 -0.35671881
v -0.00673432 0.88310861 -0.35504182
v -0.00731785 0.82752420 -0.37500297
v -0.00769167 0.87245492 -0.35648591
v -0.00813388 0.81470891 -0.37658680
v -0.00767800 0.77217141 -0.39480109
v -0.00840285 0.75696291 -0.39591912
v -0.01018536 0.62224797 -0.40279021
v -0.01050448 0.60294784 -0.40279021
v -0.01058654 0.73773998 -0.38355110
v 0.02264738 0.16051155 -0.24897042
v 0.03223005 0.78629912 -0.39331042
v 0.01853075 0.84551192 -0.37465357
v 0.01006499 0.84551192 -0.37465357
v 0.02247414 0.78876954 -0.39400918
v 0.03595462 0.60294784 -0.40279021
v 0.03583609 0.62224797 -0.40279021
v 0.03598653 0.44908717 -0.38355110
v 0.03560359 0.64147091 -0.40279021
v 0.03526624 0.66069384 -0.40279021
v 0.03482859 0.67999397 -0.40279021
v 0.03288652 0.67999397 -0.41322505
v 0.03246255 0.69203726 -0.41278242
v 0.02247414 0.29916371 -0.35734769
v 0.03135931 0.34363126 -0.37351230
v 0.03332417 0.35644653 -0.37558528
v 0.01686677 0.16051155 -0.26639280
v 0.01660692 0.16051155 -0.26702169
v 0.01320147 0.16954401 -0.27796885
v 0.03296402 0.41056411 -0.39417220
v 0.03383476 0.42978703 -0.39552313
v 0.03490609 0.41056411 -0.38355110
v 0.03577683 0.42978703 -0.38355110
v -0.01058654 0.46831010 -0.38355110
v 0.01065764 0.16954401 -0.27796885
v 0.00502292 0.16051155 -0.27044558
v 0.00323130 0.26365147 -0.33703714
v 0.00323130 0.29870055 -0.35737098
v 0.00323130 0.28912767 -0.35182753
v 0.01014705 0.34123803 -0.37465357
v -0.00785579 0.37204104 -0.37579488
v -0.00696682 0.36015216 -0.37451383
v 0.01049352 0.39751722 -0.39414891
v -0.00831168 0.44908717 -0.39601228
v -0.01045433 0.54527904 -0.40279021
v -0.01016712 0.52605611 -0.40279021
v -0.00961550 0.50683317 -0.40279021
v -0.00535755 0.78498671 -0.39242529
v 0.00192747 0.77765265 -0.39645484
v 0.00323130 0.75696291 -0.40088026
v 0.01234897 0.70948458 -0.41254953
v 0.00963646 0.69921692 -0.41345795
v -0.00571314 0.66818230 -0.41161787
v -0.00684373 0.65536701 -0.41287558
v -0.00745917 0.64147091 -0.41355110
v -0.00808829 0.62224797 -0.41441283
v -0.00840741 0.60294784 -0.41506506
v -0.00848035 0.58372491 -0.41525138
v -0.01057741 0.58372491 -0.40279021
v 0.02131164 0.69875371 -0.41345795
v 0.01411779 0.70948458 -0.41254953
v 0.02247414 0.77618585 -0.39706038
v 0.00747557 0.78923274 -0.39414891
v 0.03595462 0.58372491 -0.40279021
v 0.03401256 0.60294784 -0.41499519
v 0.03388947 0.62224797 -0.41466913
v 0.03583609 0.56450197 -0.40279021
v 0.03366153 0.64147091 -0.41422651
v 0.03332417 0.66069384 -0.41376071
v 0.02247414 0.60294784 -0.41995640
v 0.02247414 0.62224797 -0.41893153
v 0.02247414 0.64147091 -0.41781350
v 0.02247414 0.66069384 -0.41664889
v 0.02247414 0.67999397 -0.41543770
v 0.01852619 0.34123803 -0.37465357
v 0.01466486 0.26380589 -0.33699056
v 0.02247414 0.39805762 -0.39400918
v 0.03223005 0.40045084 -0.39331042
v 0.03246255 0.49478989 -0.41278242
v 0.03288652 0.50683317 -0.41322505
v 0.03482859 0.50683317 -0.40279021
v 0.03526624 0.52605611 -0.40279021
v 0.03560359 0.54527904 -0.40279021
v -0.01055007 0.56450197 -0.40279021
v -0.00755491 0.43341547 -0.39456819
v -0.00692579 0.49463549 -0.41294545
v -0.00619638 0.42060018 -0.39286786
v 0.00456248 0.48791905 -0.41364426
v 0.01186573 0.47734257 -0.41254953
v 0.01411779 0.47734257 -0.41254953
v -0.00752300 0.50683317 -0.41362097
v -0.00845300 0.56450197 -0.41511164
v -0.00836182 0.54527904 -0.41485545
v -0.00807006 0.52605611 -0.41436625
v 0.00323130 0.62224797 -0.41867534
v 0.00571130 0.67999397 -0.41462255
v 0.00323130 0.64147091 -0.41711480
v 0.00323130 0.60294784 -0.42000297
v 0.00171320 0.66138864 -0.41499519
v 0.00323130 0.58372491 -0.42039890
v 0.03401256 0.58372491 -0.41499519
v 0.02247414 0.58372491 -0.42011942
v 0.03388947 0.56450197 -0.41466913
v 0.02131164 0.48799624 -0.41352781
v 0.02247414 0.50683317 -0.41578716
v 0.02247414 0.52605611 -0.41732441
v 0.02247414 0.54527904 -0.41858218
v 0.03332417 0.52605611 -0.41376071
v 0.02247414 0.56450197 -0.41946719
v 0.03366153 0.54527904 -0.41422651
v 0.00323130 0.52605611 -0.41792995
v 0.00323130 0.50683317 -0.41615980
v 0.00323130 0.54527904 -0.41921100
v 0.00323130 0.56450197 -0.41990982
f 1 2 7
f 1 7 13
f 1 13 20
f 1 20 30
f 1 30 41
f 1 41 60
f 1 60 94
f 1 94 143
f 1 143 135
f 1 135 134
f 1 134 118
f 1 118 76
f 1 76 48
f 1 48 33
f 1 33 22
f 1 22 15
f 1 15 9
f 1 9 3
f 1 3 4
f 1 4 5
f 1 5 6
f 1 6 2
f 2 6 8
f 2 8 7
f 3 9 4
f 4 10 11
f 4 11 18
f 4 18 28
f 4 28 38
f 4 38 58
f 4 58 80
f 4 80 105
f 4 105 104
f 4 104 103
f 4 103 67
f 4 67 45
f 4 45 31
f 4 31 21
f 4 21 14
f 4 14 8
f 4 8 6
f 4 6 5
f 4 9 10
f 7 12 13
f 7 8 14
f 7 14 12
f 9 15 10
f 10 16 17
f 10 17 18
f 10 18 11
f 10 15 19
f 10 19 27
f 10 27 16
f 12 14 13
f 13 14 20
f 14 21 32
f 14 32 47
f 14 47 75
f 14 75 117
f 14 117 141
f 14 141 93
f 14 93 59
f 14 59 40
f 14 40 29
f 14 29 20
f 15 22 19
f 16 23 24
f 16 24 25
f 16 25 26
f 16 26 17
f 16 27 37
f 16 37 57
f 16 57 92
f 16 92 125
f 16 125 82
f 16 82 55
f 16 55 36
f 16 36 23
f 17 26 18
f 18 26 25
f 18 25 24
f 18 24 28
f 19 22 27
f 20 29 30
f 21 31 32
f 22 33 27
f 23 34 35
f 23 35 24
f 23 36 34
f 24 35 28
f 27 33 48
f 27 48 37
f 28 35 39
f 28 39 38
f 29 40 30
f 30 40 42
f 30 42 43
f 30 43 44
f 30 44 41
f 31 45 32
f 32 45 46
f 32 46 47
f 34 49 50
f 34 50 51
f 34 51 35
f 34 36 52
f 34 52 53
f 34 53 49
f 35 51 54
f 35 54 39
f 36 55 52
f 37 56 57
f 37 48 56
f 38 39 54
f 38 54 58
f 40 59 42
f 41 44 61
f 41 61 62
f 41 62 63
f 41 63 64
f 41 64 60
f 42 65 43
f 42 59 66
f 42 66 65
f 43 65 44
f 44 65 61
f 45 67 46
f 46 67 68
f 46 68 69
f 46 69 70
f 46 70 71
f 46 71 72
f 46 72 73
f 46 73 74
f 46 74 47
f 47 74 75
f 48 76 56
f 49 53 77
f 49 77 50
f 50 78 79
f 50 79 80
f 50 80 58
f 50 58 54
f 50 54 51
f 50 77 81
f 50 81 78
f 52 55 82
f 52 82 83
f 52 83 84
f 52 84 53
f 53 84 85
f 53 85 86
f 53 86 77
f 56 87 88
f 56 88 89
f 56 89 90
f 56 90 91
f 56 91 57
f 56 76 87
f 57 91 92
f 59 93 66
f 60 64 94
f 61 95 62
f 61 65 96
f 61 96 97
f 61 97 95
f 62 95 63
f 63 95 64
f 64 95 98
f 64 98 94
f 65 66 96
f 66 99 97
f 66 97 96
f 66 93 100
f 66 100 101
f 66 101 102
f 66 102 99
f 67 103 68
f 68 103 69
f 69 103 104
f 69 104 105
f 69 105 106
f 69 106 107
f 69 107 108
f 69 108 109
f 69 109 110
f 69 110 111
f 69 111 70
f 70 111 112
f 70 112 71
f 71 112 72
f 72 112 113
f 72 113 73
f 73 114 115
f 73 115 116
f 73 116 117
f 73 117 75
f 73 75 74
f 73 113 114
f 76 118 87
f 77 86 119
f 77 119 81
f 78 108 107
f 78 107 79
f 78 81 120
f 78 120 121
f 78 121 108
f 79 107 106
f 79 106 105
f 79 105 80
f 81 119 122
f 81 122 120
f 82 123 124
f 82 124 83
f 82 125 171
f 82 171 123
f 83 124 126
f 83 126 127
f 83 127 128
f 83 128 85
f 83 85 84
f 85 128 129
f 85 129 130
f 85 130 86
f 86 130 119
f 87 118 88
f 88 131 132
f 88 132 133
f 88 133 89
f 88 118 134
f 88 134 135
f 88 135 136
f 88 136 131
f 89 133 90
f 90 133 137
f 90 137 138
f 90 138 139
f 90 139 91
f 91 139 140
f 91 140 125
f 91 125 92
f 93 141 100
f 94 142 136
f 94 136 143
f 94 98 142
f 95 144 98
f 95 97 145
f 95 145 146
f 95 146 144
f 97 147 145
f 97 99 148
f 97 148 149
f 97 149 150
f 97 150 147
f 98 144 142
f 99 102 151
f 99 151 148
f 100 141 101
f 101 141 152
f 101 152 153
f 101 153 154
f 101 154 151
f 101 151 102
f 108 121 109
f 109 121 155
f 109 155 110
f 110 155 113
f 110 113 111
f 111 113 112
f 113 155 156
f 113 156 157
f 113 157 158
f 113 158 159
f 113 159 160
f 113 160 161
f 113 161 114
f 114 161 162
f 114 162 163
f 114 163 164
f 114 164 115
f 115 164 116
f 116 164 165
f 116 165 166
f 116 166 117
f 117 166 141
f 119 130 167
f 119 167 168
f 119 168 169
f 119 169 122
f 120 122 170
f 120 170 121
f 121 170 155
f 122 169 170
f 123 171 208
f 123 208 172
f 123 172 124
f 124 172 173
f 124 173 126
f 125 140 174
f 125 174 171
f 126 173 175
f 126 175 127
f 127 175 176
f 127 176 128
f 128 176 129
f 129 176 177
f 129 177 130
f 130 177 178
f 130 178 179
f 130 179 180
f 130 180 181
f 130 181 167
f 131 146 145
f 131 145 182
f 131 182 132
f 131 136 183
f 131 183 146
f 132 182 184
f 132 184 185
f 132 185 133
f 133 185 137
f 135 143 136
f 136 142 144
f 136 144 183
f 137 185 186
f 137 186 138
f 138 140 139
f 138 186 187
f 138 187 188
f 138 188 140
f 140 188 189
f 140 189 190
f 140 190 174
f 141 191 152
f 141 166 191
f 144 146 183
f 145 147 182
f 147 150 182
f 148 151 192
f 148 192 149
f 149 192 193
f 149 193 194
f 149 194 150
f 150 194 193
f 150 193 195
f 150 195 196
f 150 196 197
f 150 197 184
f 150 184 182
f 151 154 198
f 151 198 193
f 151 193 192
f 152 191 199
f 152 199 200
f 152 200 153
f 153 200 201
f 153 201 154
f 154 201 198
f 155 170 156
f 156 170 158
f 156 158 157
f 158 170 168
f 158 168 181
f 158 181 159
f 159 181 202
f 159 202 203
f 159 203 160
f 160 203 161
f 161 204 202
f 161 202 205
f 161 205 162
f 161 203 206
f 161 206 204
f 162 205 163
f 163 205 164
f 164 205 207
f 164 207 165
f 165 207 199
f 165 199 191
f 165 191 166
f 167 181 168
f 168 170 169
f 171 174 208
f 172 208 209
f 172 209 177
f 172 177 173
f 173 177 175
f 174 190 210
f 174 210 208
f 175 177 176
f 177 209 207
f 177 207 205
f 177 205 178
f 178 205 179
f 179 205 180
f 180 205 181
f 181 205 202
f 184 197 185
f 185 197 211
f 185 211 186
f 186 211 212
f 186 212 213
f 186 213 214
f 186 214 187
f 187 215 188
f 187 214 216
f 187 216 215
f 188 215 189
f 189 215 217
f 189 217 190
f 190 217 210
f 193 198 218
f 193 218 219
f 193 219 195
f 195 219 196
f 196 219 197
f 197 219 212
f 197 212 211
f 198 201 220
f 198 220 218
f 199 207 200
f 200 207 221
f 200 221 201
f 201 221 220
f 202 204 203
f 203 204 206
f 207 209 221
f 208 210 209
f 209 210 217
f 209 217 215
f 209 215 216
f 209 216 221
f 212 219 218
f 212 218 213
f 213 218 220
f 213 220 214
f 214 220 216
f 216 220 221
