# https://github.com/mikedh/trimesh
v 0.00284557 0.09910612 1.19023297
v 0.00575752 0.09910612 1.19088314
v 0.00072960 0.09910612 1.19480742
v -0.00849046 0.24286789 1.31432477
v -0.00016256 0.24286789 1.30828736
v 0.00323029 0.24286789 1.30589561
v 0.01408211 0.09910612 1.19938194
v 0.01806862 0.24286789 1.31144537
v -0.00855016 0.09910612 1.22079147
v -0.00909408 0.24286789 1.31866702
v 0.01787626 0.09910612 1.20778786
v 0.02328558 0.24286789 1.32951115
v -0.01033116 0.09910612 1.24909762
v -0.01058654 0.24286789 1.32951115
v 0.02258910 0.10256788 1.25255749
v 0.02271514 0.09910612 1.25255749
v 0.02329553 0.24286789 1.34876115
v 0.02328558 0.10256788 1.27180749
v -0.01058654 0.09910612 1.26834763
v -0.01058654 0.24286789 1.34876115
v 0.02328227 0.09910612 1.27180749
v 0.02308991 0.24286789 1.38726122
v 0.02328558 0.21804449 1.36801116
v 0.02328558 0.19879371 1.36801116
v 0.02328558 0.12181869 1.31026115
v 0.02328558 0.10256788 1.29105755
v -0.01058322 0.09910612 1.28759763
v -0.01058654 0.10256788 1.29105755
v -0.01058654 0.21804449 1.36801116
v -0.01058322 0.24286789 1.39283421
v 0.02258910 0.09910612 1.29128976
v 0.02263222 0.24286789 1.40651122
v 0.02303021 0.21804449 1.38726122
v 0.01911002 0.10086514 1.31195626
v 0.02285443 0.14105541 1.32951115
v -0.00890835 0.09910612 1.30786940
v -0.00890835 0.10201908 1.31081844
v -0.01058654 0.12181869 1.31026115
v -0.01058654 0.19879371 1.36801116
v -0.01051689 0.21804449 1.38726122
v -0.01024493 0.24286789 1.40651122
v 0.01875184 0.09910612 1.31128286
v 0.01746500 0.24286789 1.42311409
v 0.02232378 0.23729530 1.40651122
v 0.01876842 0.12126985 1.33034706
v 0.01633074 0.10615630 1.32447222
v 0.02204519 0.16030619 1.34876115
v -0.00865297 0.09910612 1.30944841
v -0.00779067 0.10808420 1.32266100
v -0.00878564 0.12225491 1.32925571
v -0.01043398 0.14105541 1.32951115
v -0.01010564 0.23729530 1.40651122
v -0.00965126 0.24286789 1.41187523
v 0.00808575 0.09910612 1.32031572
v 0.00323029 0.24286789 1.42743316
v 0.01710682 0.23729530 1.42151185
v 0.01814159 0.21832595 1.40674343
v 0.02083796 0.17954291 1.36801116
v 0.01777676 0.14168865 1.34873792
v 0.01575697 0.12733500 1.34230578
v 0.00323029 0.09910612 1.32112846
v -0.00758836 0.12896736 1.34095899
v -0.00825167 0.14247669 1.34792518
v -0.00847056 0.21915621 1.40586105
v -0.00800956 0.23729530 1.41930585
v -0.00813891 0.24286789 1.42109389
v 0.01467577 0.14852776 1.36004648
v -0.00375772 0.24286789 1.42408934
v -0.00715057 0.22631897 1.41714632
v 0.00323029 0.23729530 1.42469310
v 0.01505054 0.22492582 1.41821450
v 0.01599245 0.20373306 1.40047380
v 0.01306723 0.16972052 1.37781034
v 0.01148523 0.16972052 1.37781034
v 0.00323029 0.12650471 1.34286308
v -0.00690183 0.14982238 1.35904799
v -0.00770112 0.20547800 1.39901090
v 0.00323029 0.22460214 1.41844671
v 0.00323029 0.14842924 1.36011612
f 1 2 7
f 1 7 11
f 1 11 16
f 1 16 21
f 1 21 31
f 1 31 42
f 1 42 54
f 1 54 61
f 1 61 48
f 1 48 36
f 1 36 27
f 1 27 19
f 1 19 13
f 1 13 9
f 1 9 3
f 1 3 4
f 1 4 5
f 1 5 6
f 1 6 2
f 2 6 8
f 2 8 7
f 3 9 4
f 4 10 14
f 4 14 20
f 4 20 30
f 4 30 41
f 4 41 53
f 4 53 66
f 4 66 68
f 4 68 55
f 4 55 43
f 4 43 32
f 4 32 22
f 4 22 17
f 4 17 12
f 4 12 8
f 4 8 6
f 4 6 5
f 4 9 10
f 7 8 11
f 8 12 11
f 9 13 14
f 9 14 10
f 11 15 16
f 11 12 15
f 12 17 18
f 12 18 16
f 12 16 15
f 13 19 14
f 14 19 28
f 14 28 38
f 14 38 39
f 14 39 29
f 14 29 20
f 16 18 21
f 17 22 23
f 17 23 24
f 17 24 25
f 17 25 26
f 17 26 18
f 18 26 21
f 19 27 28
f 20 29 30
f 21 26 31
f 22 32 33
f 22 33 24
f 22 24 23
f 24 33 25
f 25 34 26
f 25 33 35
f 25 35 34
f 26 34 31
f 27 36 37
f 27 37 28
f 28 37 38
f 29 39 30
f 30 39 40
f 30 40 41
f 31 34 42
f 32 43 44
f 32 44 33
f 33 44 35
f 34 35 45
f 34 45 46
f 34 46 42
f 35 44 47
f 35 47 45
f 36 48 37
f 37 48 49
f 37 49 50
f 37 50 51
f 37 51 38
f 38 51 40
f 38 40 39
f 40 52 41
f 40 51 52
f 41 52 53
f 42 46 54
f 43 55 56
f 43 56 44
f 44 56 57
f 44 57 58
f 44 58 47
f 45 47 58
f 45 58 57
f 45 57 59
f 45 59 46
f 46 59 60
f 46 60 54
f 48 61 49
f 49 61 62
f 49 62 50
f 50 62 63
f 50 63 64
f 50 64 52
f 50 52 51
f 52 64 65
f 52 65 53
f 53 65 66
f 54 60 67
f 54 67 61
f 55 68 69
f 55 69 70
f 55 70 71
f 55 71 56
f 56 71 57
f 57 71 72
f 57 72 59
f 59 72 60
f 60 72 71
f 60 71 67
f 61 67 73
f 61 73 74
f 61 74 75
f 61 75 76
f 61 76 62
f 62 76 69
f 62 69 77
f 62 77 64
f 62 64 63
f 64 77 69
f 64 69 65
f 65 69 66
f 66 69 68
f 67 71 73
f 69 78 70
f 69 76 78
f 70 78 71
f 71 78 73
f 73 78 74
f 74 78 79
f 74 79 75
f 75 79 76
f 76 79 78
