# https://github.com/mikedh/trimesh
v 0.00323018 0.94912893 -0.32383562
v 0.01643680 0.94949038 -0.32093104
v 0.01648322 0.94912893 -0.32105311
v -0.00725421 0.94912893 -0.31922251
v -0.00654464 0.95937390 -0.31634236
v 0.00323018 0.96047205 -0.31712343
v 0.01415225 0.96066666 -0.31724545
v 0.01576702 0.98278295 -0.29998902
v 0.01746799 0.96774222 -0.30645713
v 0.02165246 0.94949038 -0.30655476
v 0.02168562 0.94912893 -0.30655476
v -0.00757584 0.94912893 -0.31897842
v -0.00755263 0.94949038 -0.31885641
v -0.00759242 0.98107312 -0.29867097
v -0.00741999 1.03823348 -0.25983790
v -0.00472098 1.01614501 -0.27697231
v 0.00810764 1.01772973 -0.27829032
v 0.01362836 1.01772973 -0.27829032
v 0.01547191 1.03984599 -0.26103389
v 0.01859535 1.04604577 -0.24956213
v 0.01877440 0.98871863 -0.28829762
v 0.02126121 1.00723457 -0.26806336
v 0.02264056 1.02647336 -0.24880550
v 0.02286271 0.96874308 -0.28729690
v 0.02305834 0.94949038 -0.28729690
v 0.02306166 0.94912893 -0.28729690
v -0.00963160 0.94912893 -0.30692092
v -0.00804004 0.96696376 -0.30567606
v -0.00878940 0.98768994 -0.28717483
v -0.00868661 1.04507273 -0.24848816
v -0.00779136 1.05936282 -0.24187361
v 0.00323018 1.07242962 -0.23704084
v 0.00323018 1.06281021 -0.24455848
v 0.00323018 1.05013263 -0.25417525
v 0.00323018 1.04051325 -0.26142443
v 0.01633069 1.06128114 -0.24365540
v 0.01911261 1.06660517 -0.23120736
v 0.02328381 1.04571217 -0.22957202
v 0.02328381 0.98798187 -0.26806336
v 0.02328381 0.96874308 -0.26806336
v 0.02328381 0.94912893 -0.24880550
v -0.00966807 0.94912893 -0.30655476
v -0.00964818 0.94949038 -0.30655476
v -0.01043732 0.96874308 -0.28729690
v -0.01030801 1.02647336 -0.24880550
v -0.00890877 1.06545138 -0.23006013
v -0.00779136 1.07787876 -0.22395818
v 0.00222551 1.09111241 -0.21548858
v 0.00323018 1.09057026 -0.21666019
v 0.01633069 1.07976926 -0.22588642
v 0.01909271 1.08539916 -0.21148571
v 0.02326060 1.08421757 -0.19108062
v 0.02328381 1.06496487 -0.21031410
v 0.02328381 0.94912893 -0.22957202
v -0.01058322 0.94912893 -0.28766300
v -0.01058654 0.98798187 -0.26806336
v -0.01058654 1.04571217 -0.22957202
v -0.01058654 1.06496487 -0.21031410
v -0.01058322 1.08421757 -0.19108062
v -0.01056000 1.09111241 -0.18417316
v -0.00890545 1.08425927 -0.21036292
v -0.00888887 1.09111241 -0.20326019
v -0.00828541 1.09111241 -0.20682377
v 0.00323018 1.09111241 -0.21604995
v 0.01786257 1.09111241 -0.20899610
v 0.02175857 1.09111241 -0.19132470
v 0.02319760 1.09111241 -0.17184714
v 0.02328381 1.08421757 -0.17184714
v 0.02283950 1.09111241 -0.15258922
v 0.02259414 1.08421757 -0.15258922
v 0.01817425 1.09111241 -0.09483996
v 0.01601570 1.09111241 -0.07938970
v 0.01806814 0.94912893 -0.21141245
v -0.01058654 0.96874308 -0.26806336
v -0.01058654 0.94912893 -0.24880550
v -0.01058654 1.09111241 -0.16493968
v 0.01448714 1.09111241 -0.07741264
v 0.00323018 0.94912893 -0.20577424
v -0.01058654 0.94912893 -0.22957202
v -0.01038759 1.09111241 -0.14568176
v 0.00148941 1.09111241 -0.07450806
v 0.00300802 0.94912893 -0.20592069
v -0.00848766 0.94912893 -0.21429260
v -0.00826551 1.09111241 -0.09645086
v -0.00789747 1.09111241 -0.09483996
f 1 2 3
f 1 3 11
f 1 11 26
f 1 26 41
f 1 41 54
f 1 54 73
f 1 73 78
f 1 78 82
f 1 82 83
f 1 83 79
f 1 79 75
f 1 75 55
f 1 55 42
f 1 42 27
f 1 27 12
f 1 12 4
f 1 4 5
f 1 5 6
f 1 6 7
f 1 7 2
f 2 7 8
f 2 8 9
f 2 9 3
f 3 9 10
f 3 10 11
f 4 12 5
f 5 12 13
f 5 13 14
f 5 14 15
f 5 15 16
f 5 16 17
f 5 17 6
f 6 17 7
f 7 17 18
f 7 18 19
f 7 19 8
f 8 19 20
f 8 20 9
f 9 20 21
f 9 21 10
f 10 21 20
f 10 20 22
f 10 22 23
f 10 23 24
f 10 24 11
f 11 24 25
f 11 25 26
f 12 27 28
f 12 28 13
f 13 28 14
f 14 28 29
f 14 29 30
f 14 30 15
f 15 30 31
f 15 31 32
f 15 32 33
f 15 33 34
f 15 34 35
f 15 35 16
f 16 35 17
f 17 35 18
f 18 35 34
f 18 34 33
f 18 33 19
f 19 33 32
f 19 32 36
f 19 36 20
f 20 36 37
f 20 37 23
f 20 23 22
f 23 37 38
f 23 38 24
f 24 38 39
f 24 39 25
f 25 39 26
f 26 39 40
f 26 40 41
f 27 42 43
f 27 43 29
f 27 29 28
f 29 43 44
f 29 44 45
f 29 45 30
f 30 45 46
f 30 46 31
f 31 46 47
f 31 47 32
f 32 47 48
f 32 48 49
f 32 49 50
f 32 50 36
f 36 50 37
f 37 50 51
f 37 51 52
f 37 52 53
f 37 53 38
f 38 53 68
f 38 68 54
f 38 54 41
f 38 41 40
f 38 40 39
f 42 55 44
f 42 44 43
f 44 55 56
f 44 56 57
f 44 57 45
f 45 57 46
f 46 57 58
f 46 58 59
f 46 59 60
f 46 60 61
f 46 61 47
f 47 61 62
f 47 62 63
f 47 63 48
f 48 64 49
f 48 63 62
f 48 62 60
f 48 60 76
f 48 76 80
f 48 80 84
f 48 84 85
f 48 85 81
f 48 81 77
f 48 77 72
f 48 72 71
f 48 71 69
f 48 69 67
f 48 67 66
f 48 66 65
f 48 65 64
f 49 64 50
f 50 64 65
f 50 65 51
f 51 65 66
f 51 66 52
f 52 66 67
f 52 67 68
f 52 68 53
f 54 68 69
f 54 69 70
f 54 70 71
f 54 71 72
f 54 72 73
f 55 74 56
f 55 75 74
f 56 74 75
f 56 75 79
f 56 79 76
f 56 76 58
f 56 58 57
f 58 76 59
f 59 76 60
f 60 62 61
f 67 69 68
f 69 71 70
f 72 77 73
f 73 77 78
f 76 79 80
f 77 81 78
f 78 81 82
f 79 83 84
f 79 84 80
f 81 85 83
f 81 83 82
f 83 85 84

