mtllib material.mtl
usemtl mtl_ur_realsense_short_mount_tube
v -0.01616389 0.00526571 0.00300000
v -0.03137485 0.00009764 0.00300000
v -0.03137500 -0.00000000 0.00300000
v -0.03196079 -0.00000000 0.00158579
v -0.01700000 0.00000000 0.00300000
v -0.02826766 -0.01361362 0.00300000
v -0.02952792 -0.01223086 0.00158579
v -0.03137439 0.00019528 0.00300000
v -0.01374580 0.01000245 0.00300000
v -0.02819378 0.01376600 0.00300000
v -0.02952792 0.01223086 0.00158579
v -0.02000851 0.02001376 0.00300000
v -0.01945605 0.02461398 0.00300000
v -0.02259969 0.02259969 0.00158579
v -0.01767767 0.01437767 0.00300000
v -0.02001983 0.01535299 0.00300000
v -0.02097765 0.01768532 0.00300000
v 0.00708306 0.03056489 0.00300000
v -0.00686786 0.03061395 0.00300000
v -0.01223086 0.02952792 0.00158579
v 0.01959842 0.02450077 0.00300000
v -0.01767767 0.02097767 0.00300000
v -0.00000000 0.03196079 0.00158579
v 0.01223086 0.02952792 0.00158579
v 0.02097765 0.01767002 0.00300000
v 0.02826766 0.01361362 0.00300000
v 0.02259969 0.02259969 0.00158579
v 0.02001983 0.02000235 0.00300000
v 0.01767767 0.02097767 0.00300000
v 0.02720088 0.00218315 0.00300000
v 0.03137500 0.00000000 0.00300000
v 0.02952792 0.01223086 0.00158579
v 0.02000851 0.01534158 0.00300000
v 0.01767767 0.01437767 0.00300000
v 0.00996944 0.01376976 0.00300000
v 0.02500000 0.00310000 0.00300000
v 0.01375832 0.00998479 0.00300000
v 0.02809998 -0.00000796 0.00300000
v 0.03137485 -0.00009764 0.00300000
v 0.03196079 0.00000000 0.00158579
v 0.02718976 -0.00219436 0.00300000
v 0.03137439 -0.00019528 0.00300000
v 0.01374580 -0.01000245 0.00300000
v 0.02819378 -0.01376600 0.00300000
v 0.02952792 -0.01223086 0.00158579
v 0.02000851 -0.02001376 0.00300000
v 0.01945605 -0.02461398 0.00300000
v 0.02259969 -0.02259969 0.00158579
v 0.02097765 -0.01768532 0.00300000
v 0.02001983 -0.01535299 0.00300000
v 0.01767767 -0.01437767 0.00300000
v -0.00708306 -0.03056489 0.00300000
v 0.00686786 -0.03061395 0.00300000
v 0.01223086 -0.02952792 0.00158579
v -0.01959842 -0.02450077 0.00300000
v 0.01767767 -0.02097767 0.00300000
v 0.00000000 -0.03196079 0.00158579
v -0.01223086 -0.02952792 0.00158579
v -0.02097765 -0.01767002 0.00300000
v -0.02259969 -0.02259969 0.00158579
v -0.02001983 -0.02000235 0.00300000
v -0.01767767 -0.02097767 0.00300000
v -0.02000851 -0.01534158 0.00300000
v -0.01767767 -0.01437767 0.00300000
v -0.00996944 -0.01376976 0.00300000
v -0.01375832 -0.00998479 0.00300000
v 0.01533550 -0.02000235 0.00300000
v -0.01534683 -0.02001376 0.00300000
v -0.01767767 -0.02097767 0.00000000
v -0.02000851 -0.02001376 0.00000000
v -0.01437769 -0.01768532 0.00300000
v -0.01533550 -0.02000235 0.00000000
v -0.00520877 -0.01618238 0.00300000
v -0.01533550 -0.01535299 0.00300000
v -0.01437769 -0.01767002 0.00000000
v 0.01437769 -0.01767002 0.00300000
v -0.01534683 -0.01534158 0.00000000
v -0.01767767 -0.01437767 0.00000000
v -0.02001983 -0.01535299 0.00000000
v -0.02097765 -0.01768532 0.00000000
v 0.01767767 -0.02097767 0.00000000
v 0.01534683 -0.02001376 0.00000000
v 0.02001983 -0.02000235 0.00000000
v 0.02097765 -0.01767002 0.00000000
v 0.02000851 -0.01534158 0.00000000
v 0.00526016 -0.01616547 0.00300000
v 0.01534683 -0.01534158 0.00300000
v 0.01767767 -0.01437767 0.00000000
v 0.01533550 -0.01535299 0.00000000
v 0.01437769 -0.01768532 0.00000000
v 0.01767767 0.01437767 0.00000000
v 0.01533550 0.01535299 0.00300000
v 0.01534683 0.01534158 0.00000000
v 0.02001983 0.01535299 0.00000000
v 0.02097765 0.01768532 0.00000000
v 0.02000851 0.02001376 0.00000000
v -0.01533550 0.02000235 0.00300000
v 0.01534683 0.02001376 0.00300000
v 0.01767767 0.02097767 0.00000000
v 0.01437769 0.01768532 0.00300000
v 0.01533550 0.02000235 0.00000000
v 0.00520877 0.01618238 0.00300000
v 0.01437769 0.01767002 0.00000000
v -0.01437769 0.01767002 0.00300000
v 0.02500000 -0.00310000 0.00300000
v 0.02500000 -0.00310000 0.00000000
v 0.01616389 -0.00526571 0.00300000
v 0.02279912 -0.00218315 0.00300000
v 0.02281024 -0.00219436 0.00000000
v 0.02720088 -0.00218315 0.00000000
v 0.02809998 0.00000796 0.00000000
v 0.02718976 0.00219436 0.00000000
v 0.01700000 -0.00000000 0.00300000
v 0.02281024 0.00219436 0.00300000
v 0.02500000 0.00310000 0.00000000
v 0.02190002 0.00000796 0.00300000
v 0.02279912 0.00218315 0.00000000
v 0.02190002 -0.00000796 0.00000000
v -0.01600000 -0.00000000 0.00200000
v -0.01294427 0.00940456 0.00200000
v -0.01294427 -0.00940456 0.00200000
v -0.00494427 -0.01521690 0.00200000
v 0.00494427 -0.01521690 0.00200000
v 0.01294427 -0.00940456 0.00200000
v 0.01600000 -0.00000000 0.00200000
v 0.01294427 0.00940456 0.00200000
v 0.00494427 0.01521690 0.00200000
v -0.00526016 0.01616547 0.00300000
v -0.00494427 0.01521690 0.00200000
v -0.01534683 0.01534158 0.00300000
v -0.01767767 0.01437767 0.00000000
v -0.02000851 0.01534158 0.00000000
v -0.01533550 0.01535299 0.00000000
v -0.01437769 0.01768532 0.00000000
v -0.01534683 0.02001376 0.00000000
v -0.01767767 0.02097767 0.00000000
v -0.02001983 0.02000235 0.00000000
v -0.02097765 0.01767002 0.00000000
v -0.03337484 0.00010387 0.00100000
v -0.03337500 0.00000000 0.00100000
v -0.04000000 -0.03941717 0.00100000
v -0.03008282 -0.01445392 0.00100000
v -0.03337435 0.00020773 0.00100000
v -0.02998062 0.01466471 0.00100000
v -0.04000000 0.03650000 0.00100000
v -0.02068581 0.02619125 0.00100000
v -0.00733348 0.03255920 0.00100000
v -0.00000000 0.03650000 0.00100000
v 0.00750043 0.03252114 0.00100000
v 0.01541431 0.03308537 0.00100000
v 0.02085766 0.02605462 0.00100000
v 0.03008282 0.01445392 0.00100000
v 0.02795142 0.02347270 0.00100000
v 0.03337500 -0.00000000 0.00100000
v 0.03524670 0.00948227 0.00100000
v 0.03337484 -0.00010387 0.00100000
v 0.00000000 0.03720711 0.00070711
v 0.02389882 0.02851693 0.00070711
v 0.01271488 0.03496714 0.00070711
v 0.03220521 0.01863312 0.00070711
v 0.03337435 -0.00020773 0.00100000
v 0.03595513 -0.00628317 0.00100000
v 0.03663391 0.00650578 0.00070711
v 0.00892250 -0.10641980 0.00100000
v 0.01734535 -0.11277679 0.00100000
v 0.01759312 -0.11349075 0.00093023
v -0.00146994 -0.10461698 0.00100000
v 0.02998062 -0.01466471 0.00100000
v 0.01775918 -0.11402325 0.00078285
v 0.03665169 -0.00640489 0.00070711
v 0.01679861 -0.11322519 0.00129289
v 0.01714847 -0.11389930 0.00137458
v 0.00849629 -0.10700621 0.00129289
v -0.03857453 -0.04228420 0.00100000
v -0.01152785 -0.10775774 0.00100000
v -0.00174322 -0.10534591 0.00129289
v 0.00733348 -0.03255920 0.00100000
v 0.02068581 -0.02619125 0.00100000
v -0.01904884 -0.11515506 0.00100000
v -0.01158527 -0.10862284 0.00129289
v -0.03855485 -0.04235765 0.00022591
v -0.03850459 -0.04254522 -0.00188598
v -0.03846072 -0.04270894 -0.00399999
v -0.01734949 -0.12149712 -0.00400000
v -0.01879149 -0.11611550 0.00130103
v -0.03914243 -0.04077814 0.00100000
v -0.03995629 -0.03954042 -0.00007704
v -0.03911703 -0.04087356 0.00007080
v -0.04004885 0.03650000 0.00100015
v -0.02085766 -0.02605462 0.00100000
v -0.00750043 -0.03252114 0.00100000
v -0.04009797 0.03650000 0.00100060
v -0.04054021 -0.03879054 0.00101826
v -0.04000000 0.03720711 0.00070711
v -0.00000000 0.03750000 0.00000000
v -0.04000000 0.03750000 0.00000000
v -0.04010144 0.03721762 0.00069706
v -0.04009872 0.03689474 0.00091939
v -0.04000000 0.03750000 -0.00400000
v -0.04005497 0.03750000 0.00000017
v -0.04033500 0.03750000 -0.00399568
v 0.01435063 0.03464548 0.00000000
v 0.00000000 0.03750000 -0.00400000
v -0.04111338 0.03640595 0.00107786
v -0.04060752 0.03647663 0.00102310
v -0.04126535 0.03709304 0.00081406
v -0.04010994 0.03750000 0.00000067
v -0.04134626 0.03731240 0.00049938
v -0.04066977 0.03750000 -0.00398273
v -0.04132467 0.03747306 -0.00392897
v -0.04076679 0.03747309 0.00003758
v -0.04111338 -0.03824356 0.00107786
v -0.04171655 -0.03776735 0.00116263
v -0.04236146 -0.03734969 0.00125326
v -0.05227168 -0.03157180 0.00264605
v -0.05418239 -0.03077277 0.00291458
v -0.05623275 -0.03050000 0.00320274
v -0.06289928 -0.03050000 0.00413966
v -0.04231776 0.03609021 0.00124712
v -0.04344686 0.03556218 0.00140580
v -0.05177654 0.03070577 0.00257646
v -0.07952686 -0.02110920 0.00647652
v -0.07796028 -0.02389080 0.00625635
v -0.07794936 -0.02111553 0.00625481
v -0.07715914 -0.02250000 0.00614376
v -0.04232118 -0.03750000 -0.00033078
v -0.04279952 -0.03750000 -0.00373431
v -0.03931606 -0.04067919 -0.00397950
v -0.04068833 -0.03895867 -0.00396011
v -0.04254606 -0.03762766 -0.00377639
v -0.04229716 -0.03776405 -0.00381781
v -0.04145658 -0.03831273 -0.00392350
v -0.05296754 -0.03157180 -0.00230529
v -0.05292093 -0.03131814 -0.00302590
v -0.04276289 -0.03724064 -0.00445341
v -0.05487821 -0.03077259 -0.00203676
v -0.05702702 -0.03020711 -0.00244882
v -0.05692861 -0.03050000 -0.00174860
v -0.06369356 -0.03020711 -0.00151190
v -0.06359515 -0.03050000 -0.00081168
v -0.05476114 -0.02980687 -0.00306304
v -0.05261158 -0.03070577 -0.00336514
v -0.05706779 -0.02950000 -0.00273887
v -0.08036190 0.02110920 0.00053491
v -0.04247672 -0.03661464 -0.00478951
v -0.04221030 -0.03674949 -0.00482695
v -0.04194842 -0.03689293 -0.00486375
v -0.08036190 -0.02389080 0.00053491
v -0.07879532 -0.02110920 0.00031474
v -0.07799418 -0.02250000 0.00020215
v -0.07878440 -0.02388447 0.00031321
v -0.06373432 -0.02950000 -0.00180194
v -0.04224611 -0.03749570 -0.00454118
v -0.04048881 -0.03874872 -0.00470463
v -0.04064071 -0.03890856 -0.00436736
v -0.04315280 0.03609021 -0.00469449
v -0.04194842 0.03640595 -0.00486375
v -0.04133705 0.03647659 -0.00493601
v -0.04428190 0.03556218 -0.00453580
v -0.05261158 0.03070577 -0.00336514
v -0.05476114 0.02980687 -0.00306304
v -0.05706779 0.02950000 -0.00273887
v -0.07957861 0.02950000 0.00042482
v -0.07879532 0.02389080 0.00031474
v -0.07799418 0.02250000 0.00020215
v -0.07878440 0.02111553 0.00031321
v -0.04092513 -0.03751159 -0.00496940
v -0.03818781 -0.04263582 -0.00469660
v -0.01876892 -0.11619975 0.00137018
v -0.01542039 -0.11211679 0.00200000
v -0.01868665 -0.11650679 0.00200000
v -0.01868665 -0.11650679 0.00457200
v -0.01541139 -0.11210746 0.00457200
v -0.01879151 -0.11611545 0.00527101
v -0.01876896 -0.11619961 0.00520195
v -0.01801935 -0.11899717 0.00635000
v -0.01904884 -0.11515506 0.00557200
v -0.01116082 -0.10836201 0.00527911
v -0.01978404 -0.11241125 0.00635000
v -0.01945679 -0.11363257 0.00557200
v -0.01136880 -0.10631180 0.00557200
v -0.01121497 -0.10757383 0.00557200
v -0.01968152 -0.11279388 0.00582669
v -0.01144326 -0.10559373 0.00582668
v -0.01773644 -0.11892137 0.00705711
v -0.01978652 -0.11239603 0.00640566
v -0.01978557 -0.11238170 0.00646100
v -0.01769607 -0.12020367 0.00423670
v -0.01704842 -0.12191378 0.00245002
v -0.01773152 -0.11941932 0.00662652
v -0.01734948 -0.12149716 0.00213120
v -0.01710429 -0.12197433 -0.00400000
v -0.01704860 -0.12203775 0.00186879
v -0.01679520 -0.12221757 0.00203469
v -0.01690925 -0.12199256 0.00252449
v -0.01727105 -0.12147610 -0.00439474
v -0.01673397 -0.12193076 -0.00470711
v 0.01657213 -0.11341092 0.00200000
v 0.01701732 -0.11397275 0.00191978
v -0.00075149 -0.10558193 0.00200000
v 0.00882587 -0.10747047 0.00200000
v -0.00615068 -0.10647032 0.00200000
v -0.01114892 -0.10869699 0.00200000
v 0.00987947 -0.10798173 0.00457200
v 0.01792721 -0.11525633 0.00457200
v -0.00069967 -0.10558017 0.00457200
v -0.00611342 -0.10645920 0.00457200
v -0.01112677 -0.10868352 0.00457200
v 0.01738147 -0.11446273 0.00171814
v 0.01753705 -0.11459728 0.00126723
v 0.01792720 -0.11525635 0.00100251
v 0.01792828 -0.11525017 0.00087219
v 0.01747603 -0.11783820 0.00635000
v 0.01794384 -0.11467871 0.00039900
v 0.01794561 -0.11515103 0.00043204
v 0.01799437 -0.11487200 -0.00000000
v 0.01724604 -0.11915427 0.00416579
v 0.03694021 -0.00645531 -0.00400000
v 0.03694021 -0.00645531 -0.00000000
v 0.01701492 -0.12047687 -0.00400000
v 0.01701491 -0.12047693 0.00214382
v 0.01798213 -0.11494206 0.00519705
v 0.00985071 -0.10763761 0.00527911
v 0.01799819 -0.11485013 0.00527006
v -0.00074852 -0.10528876 0.00527911
v 0.03735979 -0.00323977 -0.00400000
v 0.03735979 -0.00323977 0.00000000
v 0.01672659 -0.12042648 -0.00470691
v 0.03663391 0.00650578 -0.00470711
v -0.08282928 -0.06900000 0.00708853
v -0.08284076 -0.07013655 0.00707993
v -0.08270771 -0.07029392 0.00722065
v 0.03665169 -0.00640489 -0.00470711
v 0.01676138 -0.12104430 0.00188697
v 0.01643480 -0.12133656 -0.00400000
v 0.01722376 -0.11828396 0.00663494
v 0.01663222 -0.12099481 0.00254488
v 0.01860029 -0.11140468 0.00582684
v 0.01866934 -0.11100951 0.00635000
v 0.01867049 -0.11099391 0.00640566
v 0.01844865 -0.11227240 0.00557200
v 0.01817287 -0.11385056 0.00557200
v 0.01866832 -0.11097947 0.00646100
v 0.01718907 -0.11778805 0.00705552
v 0.00986230 -0.10482092 0.00582668
v 0.00985397 -0.10554890 0.00557200
v 0.00987542 -0.10685980 0.00557200
v 0.03750000 0.00000000 0.00000000
v 0.02651650 0.02651650 0.00000000
v 0.03464548 0.01435063 0.00000000
v 0.01435063 0.03464548 -0.00400000
v 0.02651650 0.02651650 -0.00400000
v 0.03464548 0.01435063 -0.00400000
v 0.03750000 0.00000000 -0.00400000
v 0.00000000 0.03720711 -0.00470711
v 0.02389882 0.02851693 -0.00470711
v 0.01271488 0.03496714 -0.00470711
v 0.03220521 0.01863312 -0.00470711
v -0.04000000 0.03720711 -0.00470711
v -0.04197103 0.03739252 -0.00385074
v -0.04069011 0.03741879 -0.00437696
v -0.04279078 0.03703170 0.00030377
v -0.04463786 0.03642820 -0.00347595
v -0.04408117 0.03642820 0.00048512
v -0.05296754 0.03157180 -0.00230529
v -0.04383773 0.03617455 0.00116497
v -0.05216742 0.03131814 0.00233563
v -0.05241085 0.03157180 0.00165578
v -0.04334747 0.03703170 -0.00365730
v -0.04202227 0.03711394 -0.00454682
v -0.04459125 0.03617455 -0.00419656
v -0.04141434 0.03739252 0.00011034
v -0.08319978 -0.07500000 0.00699271
v -0.08538529 -0.07520694 0.00729986
v -0.08468518 -0.07550000 0.00720147
v -0.08472592 -0.07620692 0.00691161
v -0.08319978 -0.07550000 0.00699271
v -0.08518031 -0.07450000 0.00727106
v -0.08567545 -0.07450000 0.00734064
v -0.08618996 -0.07535356 0.00711718
v -0.08503521 -0.07485349 0.00725067
v -0.08468518 -0.07500000 0.00720147
v -0.08340636 -0.07014645 0.00298243
v -0.08375647 -0.07000000 0.00303164
v -0.08365070 -0.07000000 0.00188776
v -0.08557119 -0.07597840 0.00703022
v -0.08032800 0.02250000 0.00658911
v -0.08567545 0.02250000 0.00734064
v -0.08641644 0.02250000 0.00714901
v -0.08518031 -0.07050000 0.00727106
v -0.07953778 -0.02388447 0.00647805
v -0.07953778 0.02111553 0.00647805
v -0.07796028 0.02110920 0.00625635
v -0.08032800 -0.02250000 0.00658911
v -0.08607765 -0.07450000 0.00731516
v -0.07952686 0.02389080 0.00647652
v -0.08514702 0.02518045 0.00726638
v -0.05623275 0.02950000 0.00320274
v -0.08364507 0.02744961 0.00705529
v -0.08583548 0.02544938 0.00706736
v -0.05392610 0.02980687 0.00287856
v -0.08139799 0.02896636 0.00673949
v -0.08418105 0.02794975 0.00683485
v -0.07874357 0.02950000 0.00636643
v -0.08170501 0.02962044 0.00648687
v -0.05627351 0.03020711 0.00291270
v -0.07878433 0.03020711 0.00607639
v -0.07794936 0.02388447 0.00625481
v -0.07715914 0.02250000 0.00614376
v -0.06593284 -0.03110985 0.00456600
v -0.06850093 -0.03284324 0.00492692
v -0.06662682 -0.03110896 -0.00038560
v -0.07021748 -0.03543656 0.00516817
v -0.06919695 -0.03284315 -0.00002439
v -0.08503523 -0.07014653 0.00725067
v -0.07082143 -0.03850000 0.00525305
v -0.07091425 -0.03543853 0.00021696
v -0.07230683 -0.07450000 0.00546181
v -0.07082143 -0.07450000 0.00525305
v -0.07151729 -0.03850000 0.00030171
v -0.07230683 -0.07050000 0.00546181
v -0.07245193 -0.07014651 0.00548220
v -0.07280196 -0.07000000 0.00553139
v -0.07428736 -0.07000000 0.00574015
v -0.07428736 -0.06900000 0.00574015
v -0.07457757 -0.06829302 0.00578094
v -0.07527763 -0.06800000 0.00587933
v -0.08220951 -0.06800000 0.00685354
v -0.08290961 -0.06829306 0.00695193
v -0.07280196 -0.07500000 0.00553139
v -0.07140149 -0.07591418 0.00533457
v -0.07151729 -0.07450000 0.00030171
v -0.07245191 -0.07485347 0.00548220
v -0.07442003 -0.07650000 0.00575880
v -0.07280196 -0.07650000 0.00553139
v -0.07211889 -0.07593560 0.00038626
v -0.07432113 -0.07625882 0.00574490
v -0.07428736 -0.07600000 0.00574015
v -0.07167749 -0.07528799 0.00032422
v -0.07349783 -0.07650000 0.00058005
v -0.07467978 -0.07627900 0.00594319
v -0.07483147 -0.07650000 0.00595067
v -0.07428736 -0.07500000 0.00574015
v -0.07460843 -0.07486344 0.00592295
v -0.07461710 -0.07600000 0.00593438
v -0.07363700 -0.07500000 -0.00041021
v -0.07519417 -0.07485355 0.00182829
v -0.07484405 -0.07500000 0.00177908
v -0.07328697 -0.07485349 -0.00045941
v -0.07314187 -0.07050000 -0.00047980
v -0.07314187 -0.07450000 -0.00047980
v -0.07328695 -0.07014653 -0.00045941
v -0.07484405 -0.07000000 0.00177908
v -0.07526103 -0.07000000 0.00070866
v -0.07363700 -0.07000000 -0.00041021
v -0.07461710 -0.06900000 0.00593438
v -0.07460673 -0.07013471 0.00592089
v -0.07493717 -0.06844016 0.00597936
v -0.07470286 -0.06867678 0.00594643
v -0.08218913 -0.06835356 0.00699856
v -0.07525725 -0.06835356 0.00602435
v -0.08319978 -0.06900000 0.00699271
v -0.08274352 -0.06867678 0.00707648
v -0.08250920 -0.06844016 0.00704354
v -0.08468518 -0.07000000 0.00720147
v -0.08319978 -0.07000000 0.00699271
v -0.08552022 -0.07000000 0.00125986
v -0.08587025 -0.07014651 0.00130906
v -0.08601535 -0.07450000 0.00132945
v -0.08601535 -0.07050000 0.00132945
v -0.08587027 -0.07485347 0.00130906
v -0.08375647 -0.07500000 0.00303164
v -0.08365070 -0.07500000 0.00188776
v -0.08552022 -0.07500000 0.00125986
v -0.08282928 -0.07550000 0.00708853
v -0.08284296 -0.07486529 0.00707842
v -0.08320403 -0.07014645 0.00173060
v -0.08324054 -0.07620711 0.00670267
v -0.08283317 -0.07620711 0.00675269
v -0.08037282 0.02388447 0.00053644
v -0.08116304 0.02250000 0.00064750
v -0.08037282 -0.02111553 0.00053644
v -0.08116304 -0.02250000 0.00064750
v -0.08476941 -0.07641879 0.00660211
v -0.08620330 -0.07593560 0.00640500
v -0.08482435 -0.07650000 0.00621120
v -0.08642833 -0.07450000 0.00713991
v -0.08664469 -0.07528799 0.00646704
v -0.06950045 -0.03263604 -0.00069580
v -0.07128063 -0.03532645 -0.00044561
v -0.06683622 -0.03083837 -0.00107023
v -0.08680489 0.02250000 0.00648955
v -0.08538105 -0.07650000 0.00225013
v -0.08333895 -0.07650000 0.00600244
v -0.08680268 -0.07589250 0.00244993
v -0.08616137 -0.07633822 0.00235980
v -0.08680489 -0.07450000 0.00648955
v -0.08736158 -0.07450000 0.00252848
v -0.08222749 -0.07650000 0.00628988
v -0.08250538 -0.07620711 0.00699969
v -0.08164479 -0.07650000 0.00727909
v -0.08234502 -0.07620711 0.00737750
v -0.08180025 -0.07636602 0.00976555
v -0.08263506 -0.07550000 0.00741826
v -0.08234280 -0.07550000 0.00949782
v -0.08228070 -0.07576729 0.00967820
v -0.08216272 -0.07600000 0.00981649
v -0.08199918 -0.07620424 0.00985872
v -0.08142274 -0.07649868 0.00922816
v -0.08139466 -0.07650000 0.00905882
v -0.08165624 -0.07644044 0.00964033
v -0.08149730 -0.07648674 0.00949449
v -0.08146212 -0.07649262 0.00944992
v -0.08144645 -0.07649508 0.00940213
v -0.08270755 -0.07470582 0.00722092
v -0.08263506 -0.07450000 0.00741826
v -0.08340636 -0.07485355 0.00298243
v -0.08326133 -0.07450000 0.00296205
v -0.08326133 -0.07050000 0.00296205
v -0.08263506 -0.07050000 0.00741826
v -0.08287807 -0.07450000 0.00148008
v -0.08287807 -0.07050000 0.00148008
v -0.08320326 -0.07485355 0.00172906
v -0.08263506 -0.06900000 0.00741826
v -0.08234280 -0.06900000 0.00949782
v -0.08219777 -0.06864645 0.00947744
v -0.08249003 -0.06864645 0.00739788
v -0.08214857 -0.06900000 0.00982755
v -0.08215516 -0.06882323 0.00978065
v -0.08217317 -0.06869382 0.00965250
v -0.08117580 -0.07635352 0.00948694
v -0.07969216 -0.07650000 0.00727357
v -0.08020853 -0.07635355 0.00802725
v -0.08198152 -0.07600000 0.00990998
v -0.08177807 -0.07600000 0.00992337
v -0.08146256 -0.07634279 0.00974169
v -0.08145868 -0.07631050 0.00976933
v -0.08178386 -0.07619961 0.00988220
v -0.08129284 -0.07629687 0.00971784
v -0.07724637 -0.07650000 0.00705154
v -0.07861086 -0.07635355 0.00731071
v -0.07520805 -0.07650000 0.00637446
v -0.07525022 -0.07650000 0.00850103
v -0.07687758 -0.07635355 0.00755911
v -0.07491578 -0.07650000 0.00845402
v -0.07486658 -0.07635355 0.00880414
v -0.07554546 -0.07635355 0.00869553
v -0.07520099 -0.07635341 0.00885128
v -0.07485794 -0.07635355 0.00632526
v -0.07456567 -0.07635355 0.00840482
v -0.07484974 -0.07650000 0.00596578
v -0.08547797 -0.07621761 0.00156047
v -0.07275099 -0.07597840 -0.00023896
v -0.07355276 -0.07641879 0.00018915
v -0.08115294 -0.07632785 0.00949398
v -0.07965210 -0.07600000 0.00781652
v -0.08103605 -0.07600000 0.00953056
v -0.07747053 -0.07600000 0.00750992
v -0.07566775 -0.07600000 0.00877610
v -0.07544821 -0.07630619 0.00884315
v -0.08103605 -0.06900000 0.00953056
v -0.08116859 -0.07617139 0.00970038
v -0.08112311 -0.07600000 0.00969398
v -0.08111390 -0.06900000 0.00968214
v -0.07965210 -0.06900000 0.00781652
v -0.07747053 -0.06900000 0.00750992
v -0.07535096 -0.07600000 0.00899077
v -0.07545607 -0.07600000 0.00895669
v -0.07566775 -0.06900000 0.00877610
v -0.07537702 -0.07617678 0.00895122
v -0.08144364 -0.07600000 0.00987637
v -0.08118975 -0.07600000 0.00976250
v -0.08118975 -0.06900000 0.00976250
v -0.08144364 -0.06900000 0.00987637
v -0.08177807 -0.06900000 0.00992337
v -0.08179846 -0.06864645 0.00977835
v -0.08146402 -0.06864645 0.00973135
v -0.08184766 -0.06850000 0.00942824
v -0.08151323 -0.06850000 0.00938123
v -0.08213992 -0.06850000 0.00734867
v -0.07735785 -0.06850000 0.00702292
v -0.07520805 -0.06850000 0.00637446
v -0.07989465 -0.06850000 0.00737945
v -0.07491578 -0.06850000 0.00845402
v -0.07456567 -0.06864645 0.00840482
v -0.07485794 -0.06864645 0.00632526
v -0.07525022 -0.06850000 0.00850103
v -0.07520099 -0.06864659 0.00885128
v -0.07486658 -0.06864645 0.00880414
v -0.07469152 -0.06869382 0.00877953
v -0.07554546 -0.06864645 0.00869553
v -0.07544821 -0.06869382 0.00884315
v -0.07861086 -0.06864645 0.00731071
v -0.07687758 -0.06864645 0.00755911
v -0.08020853 -0.06864645 0.00802725
v -0.08128896 -0.06869382 0.00970674
v -0.08117574 -0.06864650 0.00948680
v -0.07471291 -0.06900000 0.00630488
v -0.07469762 -0.07029419 0.00609520
v -0.07442065 -0.06900000 0.00838444
v -0.07471291 -0.07050000 0.00630488
v -0.07442065 -0.07600000 0.00838444
v -0.07519417 -0.07014645 0.00182829
v -0.07533919 -0.07050000 0.00184867
v -0.07451647 -0.06900000 0.00875493
v -0.07471291 -0.07450000 0.00630488
v -0.07471291 -0.07600000 0.00630488
v -0.07456337 -0.07617678 0.00876152
v -0.07451647 -0.07600000 0.00875493
v -0.07533919 -0.07450000 0.00184867
v -0.07611610 -0.07450000 0.00052974
v -0.07611610 -0.07050000 0.00052974
v -0.07469754 -0.07470609 0.00609489
v -0.07573371 -0.07485355 0.00068072
v -0.07469152 -0.07630619 0.00877953
v -0.07484619 -0.07600000 0.00894916
v -0.07484619 -0.06900000 0.00894916
v -0.07518063 -0.07600000 0.00899616
v -0.07518592 -0.07619111 0.00895857
v -0.07456337 -0.06882323 0.00876152
v -0.07518063 -0.06900000 0.00899616
v -0.07535096 -0.06900000 0.00899077
v -0.07518592 -0.06880889 0.00895857
v -0.07545607 -0.06900000 0.00895669
v -0.07537702 -0.06882323 0.00895122
v -0.08107223 -0.06880900 0.00951925
v -0.08116081 -0.06882323 0.00968873
v -0.07526103 -0.07500000 0.00070866
v -0.07611267 -0.07500000 -0.00006228
v -0.07293690 -0.07520694 -0.00050861
v -0.07682651 -0.07485350 0.00003804
v -0.08236060 -0.07486392 0.00081581
v -0.08304455 -0.07500000 0.00091193
v -0.07759807 -0.07450000 0.00014648
v -0.08155914 -0.07450000 0.00070317
v -0.08233313 -0.07485387 0.00081195
v -0.07759807 -0.07050000 0.00014648
v -0.08155914 -0.07050000 0.00070317
v -0.07682409 -0.07014613 0.00003770
v -0.07573488 -0.07014645 0.00067944
v -0.08233071 -0.07014650 0.00081161
v -0.07679661 -0.07013609 0.00003384
v -0.07611267 -0.07000000 -0.00006228
v -0.08304455 -0.07000000 0.00091193
v -0.08651049 0.02250000 0.00139904
v -0.07264674 -0.03850000 -0.00054939
v -0.07264674 -0.07450000 -0.00054939
v -0.07145147 -0.03399787 -0.00071737
v -0.07190575 -0.03850000 -0.00035775
v -0.06819271 -0.03070706 -0.00117536
v -0.04200098 0.03679539 -0.00477436
v -0.05292093 0.03131814 -0.00302590
v -0.05702702 0.03020711 -0.00244882
v -0.07953785 0.03020711 0.00071487
v -0.08223297 0.02896638 0.00079787
v -0.08448005 0.02744967 0.00111368
v -0.08245853 0.02962044 0.00112534
v -0.08598204 0.02518051 0.00132477
v -0.08493455 0.02794975 0.00147333
v -0.08658899 0.02544938 0.00170584
v -0.08651049 -0.07450000 0.00139904
v -0.08716085 -0.07450000 0.00177560
v -0.08716995 0.02250000 0.00178749
v -0.08622028 -0.07520698 0.00135825
v -0.07363700 -0.07550000 -0.00041021
v -0.08552022 -0.07550000 0.00125986
v -0.08632470 -0.07597840 0.00166870
v -0.08694346 -0.07535356 0.00175566
v -0.07359626 -0.07620692 -0.00012035
v -0.08550891 -0.07589474 0.00134028
v -0.07213223 -0.07535356 -0.00032592
v -0.07224453 -0.07450000 -0.00052391
v -0.07189385 -0.07450000 -0.00034865
v -0.08733610 -0.07450000 0.00212627
v -0.08736158 0.02250000 0.00252848
v -0.08620185 0.02556147 0.00640480
v -0.08675855 0.02556147 0.00244373
v -0.08448455 0.02815685 0.00616345
v -0.08191442 0.02989104 0.00580224
v -0.07888275 0.03050000 0.00537617
v -0.05637192 0.03050000 0.00221248
v -0.08504124 0.02815685 0.00220237
v -0.08247111 0.02989104 0.00184117
v -0.07943944 0.03050000 0.00141509
v -0.05692861 0.03050000 -0.00174860
v -0.05432152 0.03077259 0.00192431
v -0.05487821 0.03077259 -0.00203676
v -0.04070674 0.03719645 -0.00469939
v -0.04072114 0.03650000 -0.00498141
v -0.04036077 0.03650000 -0.00499535
v -0.04000000 0.03650000 -0.00500000
v -0.04000000 -0.03823435 -0.00500000
v -0.03180249 -0.00727856 -0.00500000
v -0.03787610 -0.04255229 -0.00491879
v -0.03749467 -0.04245004 -0.00500000
v -0.03845612 -0.04016919 -0.00500000
v 0.00724892 -0.03180934 -0.00500000
v -0.00728161 -0.03180188 -0.00500000
v -0.02033484 -0.02551233 -0.00500000
v -0.02938273 -0.01417910 -0.00500000
v 0.01540815 0.03308825 -0.00500000
v -0.00000000 0.03650000 -0.00500000
v -0.00724892 0.03180934 -0.00500000
v -0.03262500 -0.00000000 -0.00500000
v -0.02939417 0.01415539 -0.00500000
v -0.02034438 0.02550474 -0.00500000
v -0.01416145 0.02939099 -0.00500000
v -0.01705628 -0.12141855 -0.00471762
v 0.01602985 -0.12030473 -0.00500000
v -0.01638357 -0.12123830 -0.00500000
v -0.00989279 -0.11332893 -0.00500000
v 0.01286371 -0.11607798 -0.00500000
v -0.00048431 -0.11013196 -0.00500000
v 0.00907838 -0.11277508 -0.00500000
v -0.01629197 -0.12137859 -0.00500000
v -0.01587190 -0.12126702 -0.00500000
v -0.01666358 -0.12231751 -0.00400000
v -0.01616441 -0.12214463 -0.00470711
v -0.01563656 -0.12234166 -0.00400000
v -0.01665440 -0.12232178 0.00160528
v -0.01520363 -0.12150089 -0.00470679
v -0.01492849 -0.12160038 -0.00400000
v -0.01542649 -0.12223054 0.00096471
v -0.01557870 -0.12198003 -0.00470711
v -0.01647926 -0.12238736 0.00149929
v -0.01581718 -0.12240110 0.00114202
v -0.01096918 -0.11512239 -0.00470711
v -0.01531108 -0.12214518 0.00091909
v -0.01492849 -0.12160038 0.00081867
v -0.01260902 -0.11735488 -0.00400000
v -0.01597641 -0.12139502 -0.00500000
v -0.01613692 -0.12143803 -0.00500000
v -0.01588565 -0.12223325 0.00210123
v -0.01569218 -0.12230786 0.00154923
v -0.01517486 -0.12173767 0.00149707
v -0.01506033 -0.12168184 0.00125795
v -0.01494357 -0.12159493 0.00099705
v -0.01260902 -0.11735488 0.00081867
v -0.01498836 -0.12157873 0.00116979
v -0.01550027 -0.12154893 0.00248224
v -0.01586736 -0.12030798 0.00458882
v -0.00934036 -0.11408494 0.00116979
v -0.01533361 -0.12172525 0.00190801
v -0.01591946 -0.12194552 0.00266445
v -0.01604451 -0.12200262 0.00267960
v -0.01542980 -0.12166427 0.00220351
v -0.01721482 -0.11961164 0.00680970
v -0.01650628 -0.12208313 0.00265187
v -0.01664364 -0.11950920 0.00683773
v -0.01621077 -0.11914659 0.00670112
v -0.01349884 -0.11507329 0.00670112
v -0.01653964 -0.11898725 0.00717102
v -0.00979066 -0.11188021 0.00670112
v -0.01419876 -0.11445133 0.00735000
v -0.01705343 -0.11873835 0.00735000
v -0.00045477 -0.11106782 0.00116979
v -0.00535991 -0.10980301 0.00670112
v -0.00564115 -0.10890990 0.00735000
v -0.01029963 -0.11109430 0.00735000
v -0.00053358 -0.10899498 0.00670112
v 0.00884158 -0.11130632 0.00670112
v -0.00056132 -0.10805906 0.00735000
v 0.00858846 -0.11357318 0.00116979
v 0.01567610 -0.11812727 0.00670112
v 0.00930113 -0.11049052 0.00735000
v 0.01465472 -0.12073260 0.00116979
v 0.01541994 -0.11940206 0.00450723
v 0.01546719 -0.12095343 0.00265616
v 0.01599525 -0.11794662 0.00717193
v 0.01613716 -0.11845846 0.00684691
v 0.01473279 -0.12083170 0.00125852
v 0.01516585 -0.12066559 0.00249484
v 0.01493653 -0.12088040 0.00171080
v 0.01501299 -0.12085686 0.00192325
v 0.01530346 -0.12134782 0.00163365
v 0.01485103 -0.12088081 0.00149946
v 0.01461078 -0.12075140 0.00099618
v 0.01459618 -0.12075764 0.00081867
v -0.00000000 -0.11112500 0.00081867
v 0.00874409 -0.11375023 0.00081867
v -0.00478130 -0.11186214 0.00081867
v -0.00911857 -0.11400510 0.00081867
v -0.01942904 -0.11244989 0.00709497
v -0.01870007 -0.11259298 0.00735000
v 0.00924131 -0.10527798 0.00735000
v -0.00088228 -0.10341024 0.00735000
v 0.01649095 -0.11766606 0.00735000
v 0.01671976 -0.11851745 0.00682199
v 0.01760754 -0.11127646 0.00735000
v -0.01081418 -0.10601663 0.00735000
v -0.01125517 -0.10549425 0.00709532
v -0.00088300 -0.10274311 0.00709532
v 0.00966175 -0.10473283 0.00709532
v 0.01832008 -0.11107576 0.00709474
v -0.01149069 -0.10524850 0.00646100
v -0.00092132 -0.10241719 0.00646100
v 0.00458213 -0.10283044 0.00646100
v 0.00985314 -0.10445939 0.00646100
v 0.01833556 -0.11107142 0.00708149
v -0.00087987 -0.10274299 0.00582668
v -0.00085313 -0.10340942 0.00557200
v -0.00073232 -0.10458071 0.00557200
v 0.01587107 -0.12110991 0.00271509
v 0.01621817 -0.12144422 0.00151677
v 0.01598487 -0.12150887 0.00138052
v 0.01555033 -0.12151017 0.00115232
v 0.01501802 -0.12128615 0.00092224
v 0.01540527 -0.12147657 -0.00400000
v 0.01491166 -0.12119986 -0.00400000
v 0.01459618 -0.12075764 -0.00400000
v 0.01527368 -0.12110349 -0.00470712
v 0.01487531 -0.12063828 -0.00471763
v 0.00874409 -0.11375023 -0.00400000
v 0.01587654 -0.12122883 -0.00470711
v 0.01643466 -0.12096873 -0.00470711
v 0.01641870 -0.12037268 -0.00491879
v 0.01594848 -0.12045501 -0.00500000
v 0.01579499 -0.12052644 -0.00500000
v 0.01562923 -0.12049205 -0.00500000
v 0.01027381 -0.11451603 -0.00470711
v 0.01551563 -0.12036442 -0.00500000
v 0.03595513 -0.00628317 -0.00500000
v 0.02939417 -0.01415539 -0.00500000
v 0.02034438 -0.02550474 -0.00500000
v 0.01416145 -0.02939099 -0.00500000
v 0.03524492 0.00948884 -0.00500000
v 0.03180249 0.00727856 -0.00500000
v 0.03262500 0.00000000 -0.00500000
v 0.02793390 0.02349354 -0.00500000
v 0.00728161 0.03180188 -0.00500000
v 0.02938273 0.01417910 -0.00500000
v 0.02033484 0.02551233 -0.00500000
v -0.00427471 -0.11140745 -0.00470711
v 0.00337833 -0.11118900 -0.00470711
v 0.03162500 0.00000000 -0.00400000
v 0.02849314 0.01372157 -0.00400000
v 0.02849314 -0.01372157 -0.00400000
v 0.01971786 -0.02472542 -0.00400000
v 0.00703722 -0.03083210 -0.00400000
v -0.00703722 -0.03083210 -0.00400000
v -0.01971786 -0.02472542 -0.00400000
v -0.02849314 -0.01372157 -0.00400000
v -0.03162500 0.00000000 -0.00400000
v -0.02849314 0.01372157 -0.00400000
v -0.01971786 0.02472542 -0.00400000
v -0.00703722 0.03083210 -0.00400000
v 0.00703722 0.03083210 -0.00400000
v 0.01971786 0.02472542 -0.00400000
v -0.00911857 -0.11400510 -0.00400000
v -0.00478130 -0.11186214 -0.00400000
v -0.00000000 -0.11112500 -0.00400000
v 0.03162500 -0.00000000 0.00000000
v 0.02849258 0.01372278 0.00000000
v 0.02848127 -0.01374622 0.00000000
v 0.03082775 -0.00705526 0.00000000
v 0.01971120 -0.02473063 0.00000000
v -0.00703046 -0.03083349 0.00000000
v 0.00705773 -0.03082727 0.00000000
v -0.01372985 -0.02848897 0.00000000
v -0.01972136 -0.02472254 0.00000000
v -0.02849258 -0.01372278 0.00000000
v -0.03162500 0.00000000 0.00000000
v 0.00490638 -0.01522915 0.00000000
v 0.00938765 -0.01295653 0.00000000
v 0.01295295 -0.00939260 0.00000000
v -0.01294998 -0.00939669 0.00000000
v -0.00496940 -0.01520870 0.00000000
v -0.03082775 0.00705526 0.00000000
v -0.02848127 0.01374622 0.00000000
v -0.01971120 0.02473063 0.00000000
v -0.00705773 0.03082727 0.00000000
v 0.00703046 0.03083349 0.00000000
v -0.00490638 0.01522915 0.00000000
v -0.00938765 0.01295653 0.00000000
v -0.01295295 0.00939260 0.00000000
v 0.01372985 0.02848897 0.00000000
v 0.01294998 0.00939669 0.00000000
v 0.00496940 0.01520870 0.00000000
v 0.01972136 0.02472254 0.00000000
v 0.01600000 0.00000000 0.00000000
v -0.01600000 0.00000000 0.00000000
f 1 2 3
f 4 3 2
f 5 3 6
f 7 6 3
f 1 3 5
f 7 3 4
f 1 8 2
f 4 2 8
f 9 10 8
f 11 8 10
f 1 9 8
f 4 8 11
f 12 13 10
f 14 10 13
f 15 10 9
f 16 10 15
f 17 12 10
f 16 17 10
f 11 10 14
f 18 19 13
f 20 13 19
f 21 18 13
f 22 21 13
f 12 22 13
f 14 13 20
f 23 19 18
f 20 19 23
f 24 18 21
f 23 18 24
f 25 26 21
f 27 21 26
f 28 25 21
f 29 28 21
f 22 29 21
f 24 21 27
f 30 31 26
f 32 26 31
f 33 34 26
f 35 26 34
f 25 33 26
f 36 30 26
f 37 36 26
f 35 37 26
f 27 26 32
f 38 39 31
f 40 31 39
f 30 38 31
f 32 31 40
f 41 42 39
f 40 39 42
f 38 41 39
f 43 44 42
f 45 42 44
f 43 42 41
f 45 40 42
f 46 47 44
f 48 44 47
f 49 46 44
f 50 49 44
f 51 50 44
f 43 51 44
f 45 44 48
f 52 53 47
f 54 47 53
f 55 52 47
f 56 55 47
f 46 56 47
f 48 47 54
f 57 53 52
f 54 53 57
f 58 52 55
f 57 52 58
f 59 6 55
f 60 55 6
f 61 55 62
f 56 62 55
f 61 59 55
f 58 55 60
f 63 64 6
f 65 6 64
f 59 63 6
f 66 5 6
f 65 66 6
f 60 6 7
f 67 68 62
f 69 62 68
f 70 61 62
f 67 62 56
f 70 62 69
f 67 71 68
f 72 68 71
f 69 68 72
f 73 74 71
f 75 71 74
f 67 76 71
f 73 71 76
f 72 71 75
f 65 64 74
f 77 74 64
f 73 65 74
f 75 74 77
f 78 64 63
f 77 64 78
f 79 63 59
f 79 78 63
f 80 59 61
f 79 59 80
f 80 61 70
f 81 56 46
f 82 67 56
f 82 56 81
f 83 46 49
f 81 46 83
f 84 49 50
f 83 49 84
f 85 50 51
f 84 50 85
f 86 87 51
f 88 51 87
f 43 86 51
f 85 51 88
f 86 76 87
f 89 87 76
f 89 88 87
f 90 76 67
f 86 73 76
f 89 76 90
f 90 67 82
f 91 34 33
f 35 34 92
f 93 92 34
f 93 34 91
f 94 33 25
f 91 33 94
f 95 25 28
f 94 25 95
f 96 28 29
f 95 28 96
f 97 98 29
f 99 29 98
f 22 97 29
f 96 29 99
f 97 100 98
f 101 98 100
f 101 99 98
f 102 92 100
f 103 100 92
f 104 102 100
f 97 104 100
f 101 100 103
f 102 35 92
f 103 92 93
f 43 41 105
f 106 105 41
f 107 105 108
f 109 108 105
f 107 43 105
f 109 105 106
f 110 41 38
f 106 41 110
f 111 38 30
f 110 38 111
f 112 30 36
f 111 30 112
f 113 114 36
f 115 36 114
f 37 113 36
f 112 36 115
f 113 116 114
f 117 114 116
f 117 115 114
f 113 108 116
f 118 116 108
f 117 116 118
f 113 107 108
f 118 108 109
f 119 5 66
f 120 1 5
f 120 5 119
f 121 66 65
f 121 119 66
f 122 65 73
f 121 65 122
f 123 73 86
f 122 73 123
f 123 86 43
f 124 43 107
f 123 43 124
f 124 107 113
f 125 113 37
f 124 113 125
f 126 37 35
f 126 125 37
f 127 35 102
f 127 126 35
f 104 128 102
f 129 102 128
f 129 127 102
f 15 9 128
f 129 128 9
f 130 15 128
f 104 130 128
f 120 9 1
f 120 129 9
f 131 15 130
f 132 16 15
f 132 15 131
f 133 130 104
f 131 130 133
f 134 104 97
f 133 104 134
f 135 97 22
f 134 97 135
f 136 22 12
f 135 22 136
f 137 12 17
f 137 136 12
f 138 17 16
f 137 17 138
f 138 16 132
f 11 139 140
f 141 140 139
f 4 11 140
f 142 4 140
f 142 140 141
f 11 143 139
f 141 139 143
f 11 144 143
f 145 143 144
f 145 141 143
f 14 146 144
f 145 144 146
f 11 14 144
f 20 147 146
f 148 146 147
f 14 20 146
f 145 146 148
f 23 149 147
f 150 147 149
f 20 23 147
f 150 148 147
f 24 151 149
f 150 149 151
f 23 24 149
f 27 152 151
f 153 151 152
f 24 27 151
f 153 150 151
f 40 154 152
f 155 152 154
f 32 40 152
f 27 32 152
f 155 153 152
f 45 154 40
f 156 155 154
f 45 156 154
f 7 4 142
f 157 148 150
f 157 145 148
f 158 150 153
f 159 157 150
f 158 159 150
f 160 153 155
f 160 158 153
f 161 162 155
f 163 155 162
f 156 161 155
f 163 160 155
f 164 165 162
f 166 162 165
f 167 164 162
f 168 167 162
f 161 168 162
f 169 162 166
f 170 162 169
f 163 162 170
f 171 165 164
f 172 165 171
f 166 165 172
f 173 164 167
f 173 171 164
f 174 175 167
f 176 167 175
f 177 174 167
f 178 177 167
f 168 178 167
f 176 173 167
f 174 179 175
f 180 175 179
f 180 176 175
f 181 179 174
f 182 179 181
f 183 179 182
f 184 179 183
f 184 185 179
f 180 179 185
f 177 186 174
f 181 174 186
f 177 141 186
f 187 186 141
f 188 181 186
f 187 188 186
f 189 141 145
f 190 142 141
f 191 190 141
f 177 191 141
f 192 141 189
f 193 141 192
f 187 141 193
f 157 194 145
f 189 145 194
f 60 142 190
f 60 7 142
f 58 190 191
f 58 60 190
f 57 191 177
f 57 58 191
f 54 177 178
f 54 57 177
f 48 178 168
f 48 54 178
f 45 168 161
f 45 48 168
f 45 161 156
f 195 196 194
f 197 194 196
f 157 195 194
f 192 189 194
f 198 192 194
f 197 198 194
f 199 196 195
f 200 197 196
f 201 200 196
f 199 201 196
f 159 195 157
f 202 195 159
f 203 195 202
f 199 195 203
f 204 192 198
f 205 193 192
f 205 192 204
f 206 198 197
f 206 204 198
f 200 207 197
f 208 197 207
f 206 197 208
f 201 207 200
f 201 209 207
f 210 207 209
f 211 207 210
f 208 207 211
f 204 212 193
f 187 193 212
f 205 204 193
f 213 212 204
f 187 212 213
f 213 204 214
f 215 214 204
f 216 215 204
f 216 204 217
f 218 217 204
f 219 220 204
f 221 204 220
f 219 204 206
f 222 204 221
f 223 218 204
f 224 225 204
f 223 204 225
f 222 224 204
f 187 213 214
f 226 187 214
f 227 226 214
f 227 214 215
f 228 181 188
f 183 182 181
f 228 183 181
f 228 188 187
f 229 187 226
f 229 228 187
f 230 226 227
f 230 231 226
f 232 226 231
f 232 229 226
f 233 227 215
f 216 233 215
f 234 227 233
f 235 227 234
f 230 227 235
f 216 236 233
f 237 233 236
f 237 234 233
f 217 238 236
f 237 236 238
f 216 217 236
f 218 238 217
f 239 237 238
f 240 238 218
f 239 238 240
f 241 242 234
f 235 234 242
f 243 241 234
f 237 243 234
f 244 242 241
f 245 235 242
f 246 245 242
f 246 242 247
f 244 247 242
f 248 241 243
f 249 244 241
f 250 249 241
f 251 250 241
f 248 251 241
f 252 243 237
f 248 243 252
f 239 252 237
f 253 235 245
f 253 231 235
f 230 235 231
f 246 253 245
f 232 231 253
f 246 247 253
f 254 253 247
f 232 253 229
f 255 229 253
f 254 255 253
f 256 257 247
f 258 247 257
f 259 256 247
f 260 259 247
f 261 260 247
f 262 261 247
f 263 262 247
f 264 263 247
f 265 264 247
f 266 265 247
f 244 266 247
f 267 247 258
f 254 247 267
f 255 183 228
f 268 184 183
f 268 183 255
f 255 228 229
f 184 269 185
f 270 185 269
f 270 180 185
f 184 271 269
f 270 269 271
f 184 272 271
f 273 271 272
f 273 270 271
f 274 272 275
f 276 275 272
f 273 272 274
f 184 276 272
f 276 274 275
f 276 277 274
f 278 274 277
f 278 273 274
f 279 280 277
f 281 277 280
f 276 279 277
f 282 277 281
f 278 277 282
f 279 283 280
f 281 280 283
f 284 283 279
f 281 283 284
f 285 279 276
f 286 279 285
f 286 287 279
f 284 279 287
f 184 288 276
f 289 276 288
f 290 276 289
f 285 276 290
f 184 291 288
f 289 288 291
f 292 291 184
f 293 291 292
f 294 291 293
f 295 291 294
f 289 291 295
f 296 184 268
f 297 184 296
f 297 292 184
f 298 171 173
f 299 171 298
f 299 172 171
f 300 173 176
f 301 298 173
f 300 301 173
f 302 176 180
f 302 300 176
f 303 302 180
f 270 303 180
f 304 298 301
f 305 299 298
f 304 305 298
f 306 301 300
f 306 304 301
f 307 300 302
f 307 306 300
f 308 302 303
f 308 307 302
f 273 303 270
f 273 308 303
f 309 310 172
f 166 172 310
f 299 309 172
f 311 312 310
f 169 310 312
f 309 311 310
f 169 166 310
f 313 312 311
f 314 169 312
f 315 314 312
f 313 315 312
f 305 311 309
f 313 311 305
f 305 309 299
f 170 169 314
f 315 316 314
f 170 314 316
f 317 316 315
f 318 319 316
f 170 316 319
f 320 318 316
f 321 320 316
f 317 321 316
f 313 317 315
f 322 305 304
f 322 313 305
f 323 304 306
f 322 304 324
f 323 324 304
f 325 306 307
f 323 306 325
f 278 307 308
f 325 307 278
f 278 308 273
f 326 319 318
f 327 170 319
f 326 327 319
f 328 318 320
f 329 326 318
f 330 331 332
f 333 318 328
f 329 318 333
f 334 320 321
f 335 320 334
f 328 320 335
f 336 321 317
f 337 321 336
f 334 321 337
f 336 317 313
f 338 339 313
f 340 313 339
f 341 338 313
f 342 341 313
f 324 342 313
f 322 324 313
f 340 343 313
f 344 313 343
f 336 313 344
f 345 339 338
f 340 339 345
f 346 338 341
f 346 345 338
f 347 341 342
f 347 346 341
f 323 342 324
f 323 347 342
f 348 163 170
f 327 348 170
f 202 159 158
f 349 158 160
f 349 202 158
f 350 160 163
f 350 349 160
f 348 350 163
f 351 202 349
f 351 203 202
f 352 349 350
f 352 351 349
f 353 350 348
f 353 352 350
f 354 348 327
f 354 353 348
f 326 354 327
f 355 203 351
f 355 199 203
f 356 351 352
f 357 355 351
f 356 357 351
f 358 352 353
f 358 356 352
f 329 353 354
f 329 358 353
f 329 354 326
f 359 209 201
f 210 209 360
f 361 360 209
f 359 361 209
f 359 201 199
f 359 199 355
f 362 363 364
f 365 364 363
f 366 362 364
f 367 366 364
f 367 364 368
f 365 368 364
f 362 369 363
f 370 363 369
f 371 365 363
f 370 371 363
f 372 360 369
f 370 369 360
f 362 372 369
f 211 210 360
f 372 211 360
f 361 370 360
f 208 211 372
f 366 372 362
f 208 372 366
f 206 366 220
f 221 220 366
f 219 206 220
f 206 208 366
f 367 221 366
f 373 374 375
f 376 375 374
f 377 373 375
f 376 377 375
f 378 379 374
f 380 374 379
f 381 378 374
f 382 381 374
f 373 382 374
f 383 384 385
f 386 376 374
f 380 386 374
f 387 388 379
f 389 379 388
f 378 390 379
f 391 379 390
f 392 387 379
f 393 392 379
f 394 393 379
f 391 394 379
f 395 380 379
f 389 395 379
f 396 397 388
f 389 388 397
f 387 396 388
f 398 399 397
f 400 397 399
f 401 398 397
f 396 401 397
f 400 389 397
f 398 402 399
f 403 399 402
f 403 400 399
f 398 404 402
f 405 402 404
f 405 403 402
f 406 404 398
f 407 405 404
f 406 407 404
f 367 398 401
f 367 406 398
f 222 221 401
f 367 401 221
f 408 409 401
f 393 401 409
f 396 408 401
f 222 401 393
f 223 410 218
f 240 218 410
f 223 411 410
f 412 410 411
f 412 240 410
f 223 413 411
f 414 411 413
f 414 412 411
f 415 416 413
f 417 413 416
f 223 415 413
f 417 414 413
f 418 419 416
f 420 416 419
f 421 418 416
f 422 421 416
f 423 422 416
f 424 423 416
f 425 424 416
f 426 425 416
f 427 426 416
f 428 427 416
f 429 428 416
f 415 429 416
f 417 416 420
f 430 431 419
f 432 419 431
f 433 430 419
f 418 433 419
f 420 419 432
f 434 435 431
f 436 431 435
f 437 434 431
f 438 437 431
f 430 438 431
f 439 432 431
f 436 439 431
f 440 435 434
f 436 435 440
f 441 434 437
f 440 434 442
f 441 442 434
f 441 437 438
f 430 443 438
f 444 438 443
f 445 441 438
f 444 445 438
f 446 443 430
f 447 444 443
f 447 443 448
f 446 448 443
f 446 430 433
f 449 433 418
f 449 446 433
f 450 418 421
f 451 418 450
f 449 418 451
f 450 421 422
f 452 422 423
f 452 450 422
f 453 423 424
f 454 423 453
f 455 423 454
f 452 423 455
f 456 424 425
f 457 424 456
f 453 424 457
f 456 425 426
f 458 426 427
f 459 456 426
f 458 459 426
f 460 427 428
f 460 461 427
f 458 427 461
f 460 428 429
f 415 462 429
f 463 429 462
f 464 460 429
f 463 464 429
f 465 466 462
f 331 462 466
f 415 465 462
f 330 462 331
f 463 462 330
f 467 466 465
f 384 466 467
f 383 466 384
f 383 331 466
f 467 465 415
f 223 390 415
f 468 415 390
f 467 415 468
f 469 390 378
f 223 391 390
f 470 390 469
f 468 390 470
f 469 378 381
f 471 381 382
f 469 381 471
f 472 382 373
f 473 382 472
f 471 382 474
f 473 474 382
f 475 373 377
f 476 373 475
f 472 373 476
f 477 383 385
f 478 377 376
f 479 377 478
f 475 377 479
f 265 409 408
f 266 393 409
f 266 409 265
f 264 408 396
f 265 408 264
f 480 396 387
f 264 396 480
f 481 387 392
f 480 387 481
f 244 392 393
f 244 481 392
f 394 222 393
f 244 393 266
f 250 225 224
f 251 223 225
f 251 225 250
f 249 224 222
f 250 224 249
f 482 222 394
f 249 222 482
f 483 394 391
f 482 394 483
f 248 391 223
f 248 483 391
f 248 223 251
f 484 376 386
f 478 376 484
f 485 386 380
f 486 484 386
f 485 486 386
f 395 487 380
f 488 380 487
f 488 485 380
f 389 487 395
f 489 417 490
f 491 414 489
f 389 492 487
f 478 484 486
f 493 486 485
f 494 478 486
f 440 494 486
f 493 440 486
f 495 485 488
f 496 493 485
f 496 485 495
f 487 497 488
f 495 488 497
f 492 497 487
f 495 497 498
f 492 498 497
f 499 478 494
f 499 479 478
f 440 499 494
f 499 500 479
f 475 479 500
f 501 502 500
f 475 500 502
f 499 501 500
f 503 502 501
f 504 475 502
f 505 504 502
f 506 505 502
f 507 506 502
f 508 507 502
f 503 508 502
f 440 501 499
f 509 501 510
f 440 510 501
f 511 503 501
f 512 511 501
f 513 512 501
f 514 513 501
f 509 514 501
f 515 475 504
f 515 476 475
f 516 515 504
f 505 516 504
f 517 476 515
f 517 472 476
f 517 515 516
f 517 516 518
f 519 518 516
f 520 519 516
f 505 520 516
f 521 517 518
f 522 518 519
f 521 518 522
f 523 472 517
f 523 473 472
f 523 517 521
f 332 519 520
f 383 519 332
f 477 519 383
f 522 519 477
f 505 524 520
f 330 520 524
f 330 332 520
f 505 525 524
f 526 524 525
f 527 524 526
f 330 524 527
f 506 525 505
f 507 525 506
f 528 525 507
f 529 525 528
f 530 525 529
f 526 525 530
f 531 509 510
f 440 532 510
f 533 510 532
f 533 531 510
f 534 507 508
f 528 507 534
f 535 508 503
f 534 508 535
f 536 503 511
f 537 503 536
f 538 503 537
f 535 503 538
f 536 511 512
f 536 512 513
f 536 513 514
f 531 514 509
f 539 514 531
f 539 536 514
f 440 540 532
f 541 532 540
f 541 533 532
f 542 543 540
f 544 540 543
f 440 542 540
f 544 541 540
f 542 545 543
f 546 543 545
f 547 544 543
f 548 547 543
f 548 543 546
f 549 545 542
f 549 550 545
f 546 545 550
f 440 551 542
f 549 542 551
f 440 442 551
f 441 551 442
f 441 549 551
f 552 440 493
f 553 436 440
f 554 553 440
f 552 554 440
f 496 552 493
f 555 531 533
f 539 531 555
f 556 533 541
f 556 557 533
f 555 533 557
f 558 541 544
f 558 556 541
f 558 544 547
f 559 558 547
f 560 559 547
f 560 547 548
f 561 557 556
f 562 555 557
f 563 562 557
f 564 563 557
f 564 557 561
f 565 556 558
f 565 561 556
f 566 558 559
f 566 565 558
f 567 568 559
f 569 559 568
f 570 567 559
f 560 570 559
f 566 559 569
f 562 539 555
f 537 536 539
f 571 539 562
f 571 537 539
f 571 562 563
f 572 571 563
f 573 572 563
f 564 573 563
f 538 537 571
f 574 571 572
f 535 538 571
f 574 535 571
f 573 574 572
f 528 534 535
f 575 528 535
f 574 575 535
f 576 528 575
f 576 529 528
f 577 576 575
f 577 575 574
f 576 530 529
f 578 526 530
f 576 578 530
f 527 526 578
f 579 578 576
f 527 578 580
f 579 580 578
f 577 579 576
f 464 527 580
f 581 582 580
f 461 580 582
f 583 581 580
f 579 583 580
f 460 580 461
f 464 580 460
f 463 330 527
f 463 527 464
f 581 584 582
f 585 582 584
f 586 461 582
f 585 586 582
f 581 587 584
f 588 584 587
f 589 584 588
f 590 584 589
f 585 584 590
f 591 587 581
f 592 587 591
f 588 587 592
f 593 581 583
f 594 591 581
f 593 594 581
f 595 583 579
f 595 593 583
f 596 579 577
f 597 579 596
f 595 579 597
f 586 458 461
f 598 456 459
f 599 456 598
f 599 457 456
f 586 459 458
f 586 598 459
f 600 598 586
f 599 598 601
f 602 601 598
f 600 602 598
f 585 600 586
f 603 599 601
f 604 601 602
f 603 601 604
f 603 457 599
f 453 457 603
f 605 602 600
f 606 604 602
f 607 606 602
f 550 607 602
f 608 550 602
f 608 602 609
f 605 609 602
f 585 605 600
f 606 610 604
f 611 604 610
f 612 604 611
f 603 604 612
f 613 610 606
f 447 610 613
f 614 610 447
f 611 610 614
f 445 606 607
f 613 606 445
f 549 607 550
f 445 607 549
f 615 550 608
f 546 550 615
f 445 549 441
f 608 609 616
f 617 616 609
f 615 608 616
f 546 615 616
f 548 546 616
f 618 616 617
f 619 616 618
f 619 548 616
f 605 617 609
f 620 617 605
f 621 618 617
f 589 621 617
f 590 589 617
f 590 617 620
f 585 620 605
f 622 618 621
f 570 619 618
f 570 618 567
f 622 567 618
f 623 622 621
f 589 623 621
f 570 548 619
f 560 548 570
f 624 568 567
f 624 569 568
f 622 624 567
f 625 569 624
f 594 566 569
f 594 569 591
f 592 591 569
f 592 569 625
f 625 624 622
f 623 625 622
f 626 561 565
f 626 564 561
f 593 565 566
f 626 565 597
f 595 597 565
f 595 565 593
f 593 566 594
f 627 574 573
f 596 577 574
f 596 574 627
f 627 573 564
f 626 627 564
f 597 596 627
f 626 597 627
f 588 592 625
f 623 588 625
f 589 588 623
f 585 590 620
f 444 613 445
f 447 613 444
f 628 447 448
f 446 628 448
f 614 447 628
f 446 629 628
f 614 628 629
f 630 629 446
f 631 614 629
f 632 631 629
f 633 629 630
f 632 629 633
f 630 446 449
f 611 614 631
f 634 611 631
f 635 634 631
f 636 635 631
f 632 636 631
f 612 611 634
f 637 612 634
f 638 637 634
f 635 638 634
f 639 612 637
f 640 603 612
f 639 640 612
f 641 639 637
f 638 641 637
f 453 603 640
f 642 640 639
f 454 453 640
f 643 454 640
f 642 643 640
f 641 642 639
f 455 454 643
f 644 643 642
f 483 455 643
f 644 645 643
f 483 643 645
f 641 644 642
f 646 452 455
f 483 646 455
f 646 450 452
f 647 451 450
f 647 450 646
f 630 449 451
f 647 630 451
f 248 648 646
f 649 646 648
f 649 647 646
f 248 646 483
f 248 650 648
f 489 648 650
f 490 649 648
f 489 490 648
f 248 252 650
f 491 650 252
f 491 489 650
f 491 252 239
f 371 257 256
f 651 257 371
f 258 257 651
f 371 256 259
f 652 259 260
f 371 259 652
f 653 260 261
f 652 260 653
f 653 261 262
f 654 262 263
f 653 262 654
f 264 655 263
f 654 263 655
f 264 656 655
f 657 655 656
f 654 655 657
f 264 658 656
f 659 656 658
f 657 656 659
f 481 645 658
f 660 658 645
f 480 481 658
f 264 480 658
f 659 658 660
f 469 661 645
f 662 645 661
f 244 645 481
f 249 645 244
f 470 469 645
f 468 470 645
f 467 468 645
f 644 467 645
f 482 483 645
f 249 482 645
f 491 239 412
f 663 645 662
f 660 645 663
f 471 664 661
f 662 661 664
f 469 471 661
f 665 666 664
f 667 664 666
f 630 665 664
f 474 630 664
f 471 474 664
f 668 664 667
f 662 664 668
f 489 414 417
f 669 666 665
f 670 666 669
f 667 666 670
f 669 665 630
f 671 630 647
f 474 633 630
f 553 630 671
f 669 630 553
f 239 240 412
f 672 647 649
f 671 647 672
f 473 633 474
f 523 632 633
f 523 633 473
f 385 467 644
f 385 384 467
f 477 644 641
f 477 385 644
f 522 641 638
f 522 477 641
f 521 638 635
f 521 522 638
f 521 635 636
f 523 636 632
f 523 521 636
f 673 420 432
f 439 673 432
f 673 649 420
f 490 420 649
f 118 109 84
f 490 417 420
f 673 672 649
f 671 672 673
f 117 118 95
f 671 673 439
f 671 439 436
f 553 671 436
f 554 669 553
f 552 669 554
f 491 412 414
f 552 670 669
f 118 84 95
f 667 670 552
f 109 106 84
f 667 552 496
f 668 495 498
f 674 668 498
f 663 674 498
f 492 675 498
f 663 498 675
f 667 496 495
f 668 667 495
f 674 662 668
f 663 662 674
f 676 675 492
f 677 675 676
f 663 675 677
f 400 492 389
f 676 492 400
f 676 400 403
f 678 403 405
f 678 676 403
f 679 405 407
f 679 678 405
f 680 679 407
f 681 680 407
f 406 681 407
f 677 676 678
f 682 678 679
f 682 677 678
f 683 679 680
f 683 682 679
f 684 683 680
f 681 684 680
f 660 677 682
f 660 663 677
f 659 682 683
f 659 660 682
f 657 683 684
f 657 659 683
f 654 657 684
f 653 654 684
f 653 684 685
f 681 685 684
f 652 653 685
f 686 685 681
f 687 685 686
f 652 685 687
f 686 681 406
f 368 686 406
f 367 368 406
f 687 686 368
f 365 687 368
f 652 687 365
f 371 652 365
f 370 651 371
f 688 651 370
f 689 258 651
f 688 689 651
f 361 688 370
f 267 258 689
f 690 689 688
f 690 267 689
f 359 688 361
f 690 688 691
f 359 691 688
f 691 692 267
f 254 267 692
f 690 691 267
f 693 692 691
f 694 254 692
f 695 694 692
f 696 695 692
f 697 696 692
f 698 697 692
f 699 698 692
f 700 699 692
f 693 700 692
f 701 691 702
f 359 702 691
f 703 691 701
f 704 693 691
f 705 704 691
f 706 705 691
f 707 706 691
f 703 707 691
f 268 255 254
f 694 268 254
f 708 268 694
f 708 296 268
f 708 694 695
f 95 84 85
f 709 695 696
f 710 708 695
f 711 710 695
f 712 695 709
f 713 711 695
f 714 713 695
f 712 714 695
f 697 709 696
f 297 296 708
f 94 95 85
f 715 297 708
f 715 708 710
f 715 710 716
f 711 716 710
f 297 717 292
f 293 292 717
f 718 719 717
f 720 717 719
f 297 718 717
f 720 293 717
f 721 722 719
f 723 719 722
f 91 88 89
f 724 721 719
f 718 724 719
f 725 720 719
f 726 725 719
f 723 726 719
f 727 722 721
f 728 723 722
f 729 728 722
f 730 729 722
f 727 730 722
f 91 94 88
f 716 721 724
f 711 721 716
f 727 721 711
f 731 724 718
f 731 716 724
f 732 718 297
f 732 731 718
f 715 732 297
f 715 716 731
f 715 731 732
f 294 293 720
f 733 720 725
f 294 720 733
f 734 725 726
f 733 725 734
f 734 726 723
f 735 723 728
f 735 734 723
f 736 728 729
f 736 735 728
f 736 729 737
f 738 737 729
f 738 729 730
f 736 737 739
f 738 739 737
f 736 739 740
f 741 740 739
f 742 741 739
f 738 742 739
f 743 733 734
f 735 743 734
f 744 745 733
f 294 733 745
f 740 744 733
f 746 740 733
f 743 746 733
f 747 745 744
f 748 294 745
f 747 748 745
f 749 744 740
f 749 747 744
f 735 740 746
f 736 740 735
f 749 740 741
f 735 746 743
f 748 295 294
f 290 295 748
f 290 289 295
f 747 290 748
f 742 750 741
f 749 741 750
f 742 751 750
f 752 750 751
f 752 749 750
f 742 753 751
f 754 751 753
f 752 751 755
f 754 755 751
f 756 757 753
f 758 753 757
f 742 756 753
f 759 754 753
f 758 759 753
f 756 760 757
f 758 757 760
f 756 761 760
f 762 760 761
f 758 760 762
f 763 764 761
f 765 761 764
f 756 763 761
f 765 762 761
f 766 767 764
f 768 764 767
f 763 766 764
f 769 765 764
f 770 769 764
f 768 770 764
f 771 772 767
f 768 767 772
f 766 771 767
f 773 774 772
f 775 772 774
f 776 773 772
f 771 776 772
f 775 768 772
f 775 774 773
f 777 773 776
f 778 775 773
f 777 778 773
f 777 776 771
f 777 771 766
f 777 766 763
f 779 763 756
f 777 763 778
f 780 778 763
f 780 763 779
f 781 756 742
f 779 756 781
f 782 742 738
f 781 742 782
f 285 290 747
f 755 747 749
f 285 747 755
f 752 755 749
f 783 285 755
f 784 755 754
f 783 755 784
f 79 80 132
f 287 285 783
f 286 285 287
f 785 762 765
f 786 758 762
f 785 786 762
f 769 787 765
f 785 765 787
f 788 787 769
f 789 785 787
f 344 789 787
f 336 344 787
f 788 336 787
f 770 788 769
f 790 754 759
f 790 784 754
f 790 759 758
f 786 790 758
f 791 784 790
f 791 783 784
f 791 790 786
f 792 786 785
f 792 791 786
f 793 785 789
f 793 792 785
f 794 793 789
f 344 794 789
f 795 783 791
f 94 85 88
f 795 287 783
f 796 791 792
f 796 795 791
f 797 792 793
f 797 796 792
f 798 793 794
f 798 797 793
f 799 798 794
f 344 799 794
f 284 287 795
f 284 795 796
f 800 796 797
f 284 796 800
f 800 797 798
f 799 343 798
f 345 798 343
f 800 798 345
f 344 343 799
f 340 345 343
f 801 800 345
f 346 801 345
f 281 284 800
f 801 281 800
f 282 281 801
f 802 801 346
f 802 282 801
f 347 802 346
f 325 282 802
f 325 278 282
f 325 802 347
f 323 325 347
f 337 336 788
f 803 788 770
f 803 337 788
f 768 803 770
f 804 337 803
f 804 334 337
f 775 803 768
f 805 804 803
f 775 805 803
f 335 334 804
f 335 804 805
f 806 805 775
f 335 805 806
f 807 806 775
f 778 807 775
f 808 806 807
f 808 335 806
f 809 807 778
f 809 808 807
f 809 778 810
f 780 810 778
f 811 809 810
f 812 811 810
f 813 812 810
f 780 813 810
f 814 335 808
f 383 332 331
f 815 328 335
f 814 815 335
f 811 808 809
f 811 814 808
f 816 328 815
f 333 328 816
f 817 815 814
f 709 816 815
f 817 709 815
f 818 814 811
f 818 817 814
f 819 811 812
f 819 818 811
f 80 138 132
f 79 131 78
f 820 812 813
f 333 816 709
f 821 709 817
f 712 709 821
f 822 333 709
f 823 822 709
f 824 823 709
f 825 824 709
f 697 825 709
f 819 817 818
f 821 817 819
f 812 821 819
f 820 821 812
f 820 712 821
f 826 333 822
f 826 329 333
f 827 826 822
f 823 828 822
f 827 822 828
f 702 355 357
f 359 355 702
f 701 357 356
f 701 702 357
f 829 356 358
f 829 701 356
f 826 358 329
f 826 829 358
f 830 701 829
f 830 703 701
f 831 829 826
f 832 830 829
f 831 832 829
f 827 831 826
f 833 711 713
f 727 711 833
f 834 713 714
f 833 713 834
f 820 714 712
f 834 714 820
f 835 828 823
f 836 827 828
f 836 828 835
f 837 823 824
f 837 835 823
f 838 824 825
f 838 837 824
f 839 825 697
f 839 838 825
f 840 697 698
f 840 839 697
f 840 698 699
f 841 699 700
f 841 840 699
f 842 700 693
f 842 841 700
f 842 693 704
f 843 704 705
f 843 842 704
f 844 705 706
f 844 843 705
f 845 706 707
f 844 706 845
f 846 707 703
f 845 707 846
f 847 703 830
f 846 703 847
f 847 830 832
f 848 832 831
f 847 832 848
f 836 831 827
f 848 831 836
f 727 849 730
f 738 730 849
f 833 850 849
f 782 849 850
f 727 833 849
f 782 738 849
f 833 851 850
f 781 850 851
f 781 782 850
f 834 813 851
f 779 851 813
f 833 834 851
f 779 781 851
f 834 820 813
f 780 779 813
f 852 835 837
f 853 835 852
f 836 835 853
f 854 837 838
f 855 852 837
f 854 855 837
f 856 838 839
f 856 854 838
f 857 839 840
f 858 856 839
f 857 858 839
f 859 840 841
f 859 857 840
f 860 841 842
f 860 859 841
f 861 842 843
f 861 860 842
f 862 861 843
f 844 862 843
f 853 852 855
f 853 855 854
f 111 854 856
f 111 853 854
f 81 856 858
f 83 84 856
f 106 856 84
f 81 83 856
f 110 111 856
f 106 110 856
f 863 858 857
f 864 865 858
f 90 858 865
f 863 864 858
f 82 81 858
f 90 82 858
f 866 857 859
f 867 863 857
f 866 867 857
f 72 859 860
f 75 866 859
f 72 75 859
f 70 860 861
f 69 72 860
f 70 69 860
f 868 861 862
f 869 861 868
f 138 861 869
f 80 861 138
f 80 70 861
f 844 868 862
f 844 869 868
f 845 870 869
f 138 869 870
f 844 845 869
f 846 871 870
f 136 870 871
f 845 846 870
f 137 870 136
f 137 138 870
f 846 872 871
f 873 871 872
f 874 875 871
f 134 871 875
f 873 874 871
f 135 136 871
f 134 135 871
f 847 876 872
f 877 872 876
f 846 847 872
f 878 873 872
f 877 878 872
f 848 879 876
f 101 876 879
f 847 848 876
f 103 877 876
f 101 103 876
f 836 853 879
f 96 879 853
f 848 836 879
f 96 99 879
f 101 879 99
f 95 96 853
f 117 95 853
f 112 115 853
f 117 853 115
f 111 112 853
f 90 865 880
f 125 880 865
f 93 880 877
f 126 877 880
f 89 90 880
f 91 89 880
f 93 91 880
f 126 880 125
f 124 865 864
f 124 125 865
f 123 864 863
f 123 124 864
f 122 863 867
f 122 123 863
f 121 867 866
f 121 122 867
f 77 881 866
f 121 866 881
f 75 77 866
f 134 875 881
f 119 881 875
f 133 134 881
f 78 133 881
f 77 78 881
f 121 881 119
f 120 875 874
f 120 119 875
f 129 874 873
f 120 874 129
f 127 873 878
f 129 873 127
f 126 878 877
f 127 878 126
f 103 93 877
f 78 131 133
f 79 132 131

