# https://github.com/mikedh/trimesh
v -0.00002320 0.00548123 -0.01475320
v -0.00002320 0.00548123 -0.01471784
v -0.00002320 0.00571015 -0.01529864
v 0.00548266 -0.00002947 -0.01475320
v 0.00548266 -0.00002947 -0.01471784
v -0.00002320 0.01898161 -0.01471784
v -0.00002320 0.00592045 -0.01579129
v 0.00592163 -0.00002947 -0.01579010
v 0.01735699 -0.00002947 -0.01471784
v 0.00003295 0.01898347 -0.01471784
v -0.00002320 0.01746110 -0.01646280
v -0.00002320 0.00698128 -0.01622775
v 0.00647119 -0.00002947 -0.01601712
v 0.01735699 -0.00002947 -0.01475320
v 0.01735699 0.00063494 -0.01471784
v 0.00063526 0.01898161 -0.01471784
v 0.00063526 0.01748157 -0.01646280
v -0.00002320 0.00786716 -0.01646280
v 0.00698162 -0.00002947 -0.01622416
v 0.01729914 -0.00002947 -0.01602225
v 0.01735699 0.00063494 -0.01475320
v 0.01734849 0.00190421 -0.01471784
v 0.00190453 0.01883086 -0.01471784
v 0.00317381 0.01723032 -0.01646280
v 0.00190453 0.01735874 -0.01646280
v 0.00909651 -0.00002760 -0.01646280
v 0.00963246 -0.00002947 -0.01646280
v 0.01727533 -0.00002947 -0.01646280
v 0.01733487 0.00317348 -0.01475320
v 0.01734679 0.00190421 -0.01475320
v 0.01733658 0.00317348 -0.01471784
v 0.00317381 0.01865220 -0.01471784
v 0.00446520 0.01695302 -0.01646280
v 0.00444308 0.01844003 -0.01471784
v 0.01725661 0.00063494 -0.01646280
v 0.01730425 0.00444274 -0.01475320
v 0.01730595 0.00444274 -0.01471784
v 0.00702416 0.01602805 -0.01646280
v 0.00568002 0.01810876 -0.01471784
v 0.01692142 0.00320884 -0.01646280
v 0.01692823 0.00444274 -0.01602225
v 0.01720727 0.00571201 -0.01475320
v 0.01721067 0.00571201 -0.01471784
v 0.00735424 0.01588475 -0.01646280
v 0.00701735 0.01756718 -0.01471784
v 0.01675809 0.00444274 -0.01646280
v 0.01691122 0.00765685 -0.01471784
v 0.00830024 0.01700885 -0.01471784
v 0.00812669 0.01554603 -0.01646280
v 0.01658114 0.00526907 -0.01646280
v 0.01677340 0.00825054 -0.01471784
v 0.00954739 0.01640400 -0.01471784
v 0.00961545 0.01463223 -0.01646280
v 0.01603327 0.00702036 -0.01646280
v 0.01632252 0.00954773 -0.01471784
v 0.01033516 0.01589406 -0.01471784
v 0.01173884 0.01302425 -0.01646280
v 0.01080476 0.01555720 -0.01471784
v 0.01589035 0.00735722 -0.01646280
v 0.01555007 0.00813329 -0.01646280
v 0.01589886 0.01034055 -0.01471784
v 0.01204170 0.01458571 -0.01471784
v 0.01327524 0.01356583 -0.01471784
v 0.01303874 0.01175870 -0.01646280
v 0.01462789 0.00961845 -0.01646280
v 0.01558069 0.01080955 -0.01471784
v 0.01357300 0.01327364 -0.01471784
v 0.01457514 0.01211790 -0.01471784
v 0.01461257 0.01207137 -0.01471784
f 1 2 6
f 1 6 11
f 1 11 18
f 1 18 12
f 1 12 7
f 1 7 3
f 1 3 4
f 1 4 5
f 1 5 2
f 2 5 9
f 2 9 15
f 2 15 22
f 2 22 31
f 2 31 37
f 2 37 43
f 2 43 47
f 2 47 51
f 2 51 55
f 2 55 61
f 2 61 66
f 2 66 69
f 2 69 68
f 2 68 67
f 2 67 63
f 2 63 62
f 2 62 58
f 2 58 56
f 2 56 52
f 2 52 48
f 2 48 45
f 2 45 39
f 2 39 34
f 2 34 32
f 2 32 23
f 2 23 16
f 2 16 10
f 2 10 6
f 3 7 8
f 3 8 4
f 4 8 13
f 4 13 19
f 4 19 27
f 4 27 28
f 4 28 20
f 4 20 14
f 4 14 9
f 4 9 5
f 6 10 11
f 7 12 13
f 7 13 8
f 9 14 21
f 9 21 15
f 10 16 17
f 10 17 11
f 11 17 25
f 11 25 24
f 11 24 33
f 11 33 38
f 11 38 44
f 11 44 49
f 11 49 53
f 11 53 57
f 11 57 64
f 11 64 65
f 11 65 60
f 11 60 59
f 11 59 54
f 11 54 50
f 11 50 46
f 11 46 40
f 11 40 35
f 11 35 28
f 11 28 27
f 11 27 26
f 11 26 18
f 12 19 13
f 12 18 19
f 14 20 21
f 15 21 22
f 16 23 24
f 16 24 25
f 16 25 17
f 18 26 19
f 19 26 27
f 20 28 29
f 20 29 30
f 20 30 21
f 21 30 22
f 22 30 29
f 22 29 31
f 23 32 24
f 24 32 34
f 24 34 33
f 28 35 36
f 28 36 29
f 29 36 37
f 29 37 31
f 33 34 39
f 33 39 38
f 35 40 41
f 35 41 42
f 35 42 36
f 36 42 43
f 36 43 37
f 38 39 45
f 38 45 44
f 40 46 41
f 41 46 47
f 41 47 42
f 42 47 43
f 44 48 49
f 44 45 48
f 46 50 47
f 47 50 51
f 48 52 49
f 49 52 53
f 50 54 51
f 51 54 55
f 52 56 53
f 53 56 58
f 53 58 57
f 54 59 55
f 55 59 60
f 55 60 61
f 57 62 63
f 57 63 64
f 57 58 62
f 60 65 61
f 61 65 66
f 63 67 64
f 64 67 68
f 64 68 69
f 64 69 66
f 64 66 65
