# https://github.com/mikedh/trimesh
v -0.03236399 -0.03490396 0.02768556
v -0.03348755 -0.03363701 0.02768153
v -0.03348755 -0.03490396 0.02768556
v -0.01967309 -0.04251868 0.02768556
v -0.03348755 -0.03236681 0.02764126
v -0.01906896 -0.04251868 0.02767348
v -0.03348755 -0.05013340 0.02768556
v -0.01906896 -0.04378888 0.02768556
v -0.03348755 -0.03109660 0.02749827
v -0.01906896 -0.04125173 0.02741771
v -0.01967309 -0.04125173 0.02753452
v -0.03348755 -0.05140034 0.02759493
v -0.03236399 -0.05140034 0.02767751
v -0.02982609 -0.05267055 0.02768355
v -0.02728678 -0.05394075 0.02768556
v -0.01906896 -0.05647791 0.02768556
v -0.03348755 -0.02983942 0.02718611
v -0.01906896 -0.04015088 0.02681957
v -0.03348755 -0.02873858 0.02674707
v -0.03348755 -0.05267055 0.02717805
v -0.03236399 -0.05267055 0.02747209
v -0.02982609 -0.05394075 0.02753653
v -0.03109504 -0.05267055 0.02762716
v -0.02855714 -0.05394075 0.02765938
v -0.02475030 -0.05520770 0.02768556
v -0.02094204 -0.05647791 0.02768556
v -0.01906896 -0.05774811 0.02767348
v -0.01906896 -0.03953532 0.02621741
v -0.03348755 -0.02810347 0.02586094
v -0.01906896 -0.03938550 0.02602004
v -0.01906896 -0.03908912 0.02562934
v -0.03348755 -0.05354341 0.02666651
v -0.03230611 -0.05396029 0.02684374
v -0.03109504 -0.05394075 0.02725659
v -0.02855714 -0.05520770 0.02735729
v -0.02601924 -0.05647791 0.02739757
v -0.02728678 -0.05520770 0.02756473
v -0.02601924 -0.05520770 0.02765737
v -0.02221240 -0.05647791 0.02768355
v -0.01967309 -0.05774811 0.02766341
v -0.01906896 -0.05901506 0.02738750
v -0.03348755 -0.02789829 0.02459217
v -0.01906896 -0.03881554 0.02459217
v -0.03348755 -0.05415571 0.02589115
v -0.03269005 -0.05439673 0.02624560
v -0.03184314 -0.05464099 0.02655776
v -0.03109504 -0.05485270 0.02671888
v -0.02855714 -0.05621409 0.02678735
v -0.02983174 -0.05526633 0.02692228
v -0.02735877 -0.05656910 0.02697666
v -0.02601924 -0.05755921 0.02683166
v -0.02486604 -0.05786862 0.02697464
v -0.02348135 -0.05774811 0.02736736
v -0.02475030 -0.05647791 0.02756070
v -0.02348135 -0.05647791 0.02764931
v -0.02094204 -0.05774811 0.02759493
v -0.01967309 -0.05901506 0.02732104
v -0.01906896 -0.06000517 0.02680547
v -0.02221240 -0.05774811 0.02750431
v -0.03348755 -0.02799925 0.01063161
v -0.01906896 -0.03883182 0.02392556
v -0.03348755 -0.05426971 0.02571997
v -0.03079015 -0.05604473 0.02551052
v -0.03025942 -0.05572555 0.02635637
v -0.02782880 -0.05705438 0.02641477
v -0.02941393 -0.05596983 0.02661012
v -0.02698331 -0.05729540 0.02666249
v -0.02452022 -0.05855258 0.02666651
v -0.02348135 -0.05872519 0.02680950
v -0.01967309 -0.05992049 0.02674908
v -0.01906896 -0.06066307 0.02601601
v -0.03348755 -0.02802856 0.01024091
v -0.01906896 -0.03884811 0.02332138
v -0.01906896 -0.03931711 0.01001736
v -0.03348755 -0.05458888 0.02459217
v -0.03316431 -0.05467682 0.02539975
v -0.03096518 -0.05615547 0.02459217
v -0.02982609 -0.05678406 0.02459217
v -0.02832848 -0.05729214 0.02556892
v -0.02536571 -0.05837019 0.02647318
v -0.02221240 -0.05954920 0.02631810
v -0.02157157 -0.05965016 0.02649332
v -0.02072608 -0.05977067 0.02661818
v -0.01906896 -0.06103436 0.02542593
v -0.03348755 -0.02810673 0.00936283
v -0.01906896 -0.03932688 0.00994486
v -0.03348755 -0.05460191 0.02332138
v -0.03325606 -0.05473544 0.02459217
v -0.03097506 -0.05616198 0.02332138
v -0.02982609 -0.05679709 0.02332138
v -0.02917679 -0.05710650 0.02459217
v -0.02569177 -0.05851675 0.02562733
v -0.02486604 -0.05876102 0.02597372
v -0.02305366 -0.05974136 0.02541385
v -0.02221240 -0.05990095 0.02568372
v -0.01930751 -0.06099853 0.02536954
v -0.01906896 -0.06115813 0.02459217
v -0.03348755 -0.02817187 0.00918561
v -0.01906896 -0.03943761 0.00947763
v -0.01906896 -0.03953532 0.00920776
v -0.03348755 -0.05460191 0.01951505
v -0.03097365 -0.05616198 0.01443995
v -0.02982609 -0.05679709 0.01317117
v -0.02918667 -0.05710975 0.02332138
v -0.02918809 -0.05711301 0.01443995
v -0.02586539 -0.05859817 0.02332138
v -0.02380176 -0.05951011 0.02459217
v -0.02316799 -0.05979347 0.02459217
v -0.02221240 -0.06016802 0.02459217
v -0.02094204 -0.06059142 0.02459217
v -0.02009090 -0.06085198 0.02459217
v -0.01945572 -0.06104413 0.02459217
v -0.01906896 -0.06116790 0.02332138
v -0.03348755 -0.02869949 0.00834983
v -0.01906896 -0.03963629 0.00899026
v -0.03348755 -0.05459865 0.01869337
v -0.03160742 -0.05576789 0.01443995
v -0.03096800 -0.05616198 0.01317117
v -0.02982609 -0.05679383 0.01190038
v -0.02918809 -0.05711301 0.01317117
v -0.02855291 -0.05739636 0.02078383
v -0.02586680 -0.05859817 0.02078383
v -0.02475030 -0.05909649 0.02332138
v -0.02380176 -0.05951663 0.02332138
v -0.02316799 -0.05978695 0.02332138
v -0.02221240 -0.06016150 0.02332138
v -0.02094204 -0.06059793 0.02332138
v -0.02010642 -0.06086174 0.02332138
v -0.01906896 -0.06117115 0.02205260
v -0.03348755 -0.02878092 0.00829746
v -0.01906896 -0.04017043 0.00822093
v -0.01906896 -0.04047658 0.00790878
v -0.01906896 -0.04106283 0.00747175
v -0.03348755 -0.05459214 0.01743869
v -0.03160177 -0.05576138 0.01317117
v -0.03094683 -0.05616198 0.01190038
v -0.02982609 -0.05677429 0.01063161
v -0.02918244 -0.05710975 0.01190038
v -0.02475030 -0.05909649 0.02205260
v -0.02372413 -0.05950360 0.02078383
v -0.02914574 -0.05709673 0.01063161
v -0.02221240 -0.06007031 0.02078383
v -0.02094204 -0.06054256 0.02078383
v -0.01935550 -0.06103762 0.01824628
v -0.02008666 -0.06084871 0.02078383
v -0.02094204 -0.06057839 0.02205260
v -0.02010783 -0.06086174 0.02205260
v -0.01947407 -0.06105065 0.02205260
v -0.01906896 -0.06115813 0.01951505
v -0.01945289 -0.06105065 0.02078383
v -0.03348755 -0.02995016 0.00769127
v -0.01906896 -0.04142435 0.00730057
v -0.03348755 -0.05458237 0.01697750
v -0.03322642 -0.05473219 0.01570872
v -0.03158060 -0.05574184 0.01190038
v -0.03091154 -0.05615547 0.01063161
v -0.02887473 -0.05694039 0.00936283
v -0.03074922 -0.05604799 0.00962263
v -0.02823955 -0.05723677 0.00936283
v -0.02540524 -0.05838973 0.00871233
v -0.02546311 -0.05841253 0.00936283
v -0.01906896 -0.06085849 0.01063161
v -0.02336137 -0.05945149 0.01577116
v -0.01922705 -0.06099202 0.01570872
v -0.01999068 -0.06080312 0.01824628
v -0.01906896 -0.06105065 0.01570872
v -0.01906896 -0.06109299 0.01697750
v -0.01906896 -0.06113207 0.01824628
v -0.01940914 -0.06105065 0.01951505
v -0.03348755 -0.03008369 0.00763287
v -0.01906896 -0.04189009 0.00717369
v -0.03348755 -0.03050709 0.00747779
v -0.03348755 -0.05456609 0.01621019
v -0.03348755 -0.05454980 0.01570872
v -0.03154672 -0.05571253 0.01063161
v -0.03318972 -0.05470939 0.01443995
v -0.03236399 -0.05518816 0.01190038
v -0.03303446 -0.05459865 0.00989451
v -0.02797560 -0.05713906 0.00869421
v -0.03040481 -0.05581349 0.00877678
v -0.03348755 -0.05417525 0.00942728
v -0.03348755 -0.05416874 0.00940513
v -0.03283543 -0.05448141 0.00904866
v -0.02728678 -0.05731494 0.00850490
v -0.02475030 -0.05851349 0.00853712
v -0.02172260 -0.05970227 0.00864789
v -0.02184964 -0.05975113 0.00936283
v -0.02248482 -0.05951663 0.00936283
v -0.02348135 -0.05914859 0.00936283
v -0.01906896 -0.06083894 0.01045237
v -0.01906896 -0.06092362 0.01235150
v -0.01906896 -0.04251868 0.00712133
v -0.03348755 -0.03122688 0.00733279
v -0.03348755 -0.03115522 0.00734085
v -0.03348755 -0.05447164 0.01380355
v -0.03236399 -0.05513279 0.01063161
v -0.03348755 -0.05441952 0.01260727
v -0.03348755 -0.05436741 0.01141301
v -0.03348755 -0.05431530 0.01038994
v -0.03348755 -0.05418503 0.00946756
v -0.03198994 -0.05472242 0.00856934
v -0.02955931 -0.05605450 0.00851497
v -0.03348755 -0.05377139 0.00854316
v -0.02590491 -0.05776440 0.00833371
v -0.02846116 -0.05647791 0.00835184
v -0.02728396 -0.05640625 0.00781412
v -0.02348135 -0.05796633 0.00765301
v -0.02348135 -0.05874799 0.00828941
v -0.02094204 -0.05982604 0.00850490
v -0.01906896 -0.06051651 0.00897012
v -0.01906896 -0.06069564 0.00936283
v -0.01967309 -0.06049697 0.00936283
v -0.02094204 -0.06006705 0.00936283
v -0.01906896 -0.04312447 0.00711327
v -0.03348755 -0.03251337 0.00724216
v -0.03348755 -0.03236681 0.00725223
v -0.03307257 -0.05462797 0.01063161
v -0.03348755 -0.05433158 0.01063161
v -0.03348755 -0.05364763 0.00839011
v -0.03109504 -0.05497972 0.00835184
v -0.02601924 -0.05675149 0.00761273
v -0.02471642 -0.05766343 0.00784030
v -0.02988396 -0.05524027 0.00802760
v -0.02855714 -0.05549431 0.00764898
v -0.02221240 -0.05818780 0.00752613
v -0.01967309 -0.05923653 0.00769328
v -0.02101544 -0.05894666 0.00779398
v -0.02511729 -0.05695993 0.00750196
v -0.02427038 -0.05718140 0.00743349
v -0.01967309 -0.06002145 0.00832767
v -0.01906896 -0.06016476 0.00831156
v -0.01906896 -0.04378888 0.00711327
v -0.03348755 -0.03363701 0.00724015
v -0.03231176 -0.05390818 0.00807392
v -0.03348755 -0.05272592 0.00771141
v -0.03263500 -0.05305487 0.00757849
v -0.03109504 -0.05413291 0.00771745
v -0.02770459 -0.05570601 0.00750196
v -0.03178950 -0.05333822 0.00744356
v -0.02936170 -0.05467031 0.00741536
v -0.02148688 -0.05832459 0.00747175
v -0.01906896 -0.05931470 0.00762884
v -0.01906896 -0.05972507 0.00795711
v -0.02685768 -0.05593725 0.00742342
v -0.02348135 -0.05733448 0.00738515
v -0.02064139 -0.05847766 0.00741536
v -0.01906896 -0.05708370 0.00724015
v -0.02221240 -0.05647791 0.00724015
v -0.02728678 -0.05394075 0.00724015
v -0.02982609 -0.05267055 0.00724015
v -0.03348755 -0.05027996 0.00724015
v -0.03348755 -0.05214944 0.00741335
v -0.03330546 -0.05220806 0.00739522
v -0.02855714 -0.05485921 0.00737106
v -0.03227224 -0.05264775 0.00736703
v -0.01906896 -0.05898575 0.00746168
v -0.02601924 -0.05611639 0.00737911
v -0.02221240 -0.05755595 0.00734890
v -0.01967309 -0.05860143 0.00737106
v -0.02348135 -0.05647791 0.00727640
v -0.01906896 -0.05774811 0.00725223
v -0.01967309 -0.05774811 0.00726230
v -0.02601924 -0.05520770 0.00726835
v -0.02855714 -0.05394075 0.00726230
v -0.03236399 -0.05140034 0.00724619
v -0.03348755 -0.05145571 0.00731869
v -0.03348755 -0.05185957 0.00736501
v -0.02980068 -0.05394727 0.00734488
v -0.03348755 -0.05163484 0.00733682
v -0.03109504 -0.05267055 0.00728244
v -0.01906896 -0.05868285 0.00736099
v -0.01906896 -0.05823340 0.00730460
f 1 2 3
f 1 3 7
f 1 7 15
f 1 15 25
f 1 25 26
f 1 26 16
f 1 16 8
f 1 8 4
f 1 4 2
f 2 5 9
f 2 9 17
f 2 17 19
f 2 19 29
f 2 29 42
f 2 42 60
f 2 60 72
f 2 72 85
f 2 85 98
f 2 98 114
f 2 114 130
f 2 130 151
f 2 151 170
f 2 170 172
f 2 172 194
f 2 194 193
f 2 193 216
f 2 216 215
f 2 215 233
f 2 233 251
f 2 251 266
f 2 266 269
f 2 269 267
f 2 267 252
f 2 252 235
f 2 235 219
f 2 219 203
f 2 203 182
f 2 182 181
f 2 181 200
f 2 200 199
f 2 199 218
f 2 218 198
f 2 198 197
f 2 197 195
f 2 195 174
f 2 174 173
f 2 173 153
f 2 153 134
f 2 134 116
f 2 116 101
f 2 101 87
f 2 87 75
f 2 75 62
f 2 62 44
f 2 44 32
f 2 32 20
f 2 20 12
f 2 12 7
f 2 7 3
f 2 4 6
f 2 6 5
f 4 8 6
f 5 6 9
f 6 8 16
f 6 16 27
f 6 27 41
f 6 41 58
f 6 58 71
f 6 71 84
f 6 84 97
f 6 97 113
f 6 113 129
f 6 129 149
f 6 149 168
f 6 168 167
f 6 167 166
f 6 166 191
f 6 191 162
f 6 162 190
f 6 190 211
f 6 211 210
f 6 210 231
f 6 231 243
f 6 243 242
f 6 242 256
f 6 256 271
f 6 271 272
f 6 272 261
f 6 261 247
f 6 247 232
f 6 232 214
f 6 214 192
f 6 192 171
f 6 171 152
f 6 152 133
f 6 133 132
f 6 132 131
f 6 131 115
f 6 115 100
f 6 100 99
f 6 99 86
f 6 86 74
f 6 74 73
f 6 73 61
f 6 61 43
f 6 43 31
f 6 31 30
f 6 30 28
f 6 28 18
f 6 18 10
f 6 10 11
f 6 11 9
f 7 12 13
f 7 13 14
f 7 14 15
f 9 11 17
f 10 18 19
f 10 19 17
f 10 17 11
f 12 20 21
f 12 21 22
f 12 22 23
f 12 23 13
f 13 23 24
f 13 24 14
f 14 24 15
f 15 24 25
f 16 26 27
f 18 28 19
f 19 28 30
f 19 30 31
f 19 31 29
f 20 32 33
f 20 33 34
f 20 34 21
f 21 34 35
f 21 35 22
f 22 24 23
f 22 35 36
f 22 36 37
f 22 37 24
f 24 37 38
f 24 38 39
f 24 39 25
f 25 39 26
f 26 39 27
f 27 39 40
f 27 40 41
f 29 31 43
f 29 43 42
f 32 44 45
f 32 45 46
f 32 46 47
f 32 47 33
f 33 47 48
f 33 48 49
f 33 49 34
f 34 49 35
f 35 49 50
f 35 50 51
f 35 51 36
f 36 51 52
f 36 52 53
f 36 53 54
f 36 54 37
f 37 54 38
f 38 54 55
f 38 55 39
f 39 55 40
f 40 55 56
f 40 56 41
f 41 57 58
f 41 56 59
f 41 59 53
f 41 53 57
f 42 43 60
f 43 61 60
f 44 62 63
f 44 63 45
f 45 63 64
f 45 64 46
f 46 64 65
f 46 65 66
f 46 66 47
f 47 66 67
f 47 67 48
f 48 67 51
f 48 51 50
f 48 50 49
f 51 67 68
f 51 68 52
f 52 68 53
f 53 59 54
f 53 68 69
f 53 69 57
f 54 59 56
f 54 56 55
f 57 69 70
f 57 70 58
f 58 70 71
f 60 61 73
f 60 73 74
f 60 74 72
f 62 75 76
f 62 76 63
f 63 77 78
f 63 78 79
f 63 79 80
f 63 80 65
f 63 65 64
f 63 76 77
f 65 80 67
f 65 67 66
f 67 80 68
f 68 81 82
f 68 82 69
f 68 80 81
f 69 82 83
f 69 83 70
f 70 83 71
f 71 83 82
f 71 82 84
f 72 74 85
f 74 86 85
f 75 87 88
f 75 88 76
f 76 88 77
f 77 89 90
f 77 90 78
f 77 88 89
f 78 90 91
f 78 91 79
f 79 92 80
f 79 91 92
f 80 92 93
f 80 93 94
f 80 94 95
f 80 95 81
f 81 95 96
f 81 96 82
f 82 96 84
f 84 96 97
f 85 86 99
f 85 99 100
f 85 100 98
f 87 101 89
f 87 89 88
f 89 102 103
f 89 103 90
f 89 101 102
f 90 104 91
f 90 103 120
f 90 120 105
f 90 105 104
f 91 104 106
f 91 106 107
f 91 107 94
f 91 94 92
f 92 94 93
f 94 107 108
f 94 108 109
f 94 109 96
f 94 96 95
f 96 109 110
f 96 110 111
f 96 111 112
f 96 112 97
f 97 112 113
f 98 100 115
f 98 115 114
f 101 116 117
f 101 117 102
f 102 117 118
f 102 118 103
f 103 118 119
f 103 119 120
f 104 105 121
f 104 121 106
f 105 120 122
f 105 122 121
f 106 122 123
f 106 123 108
f 106 108 107
f 106 121 122
f 108 123 124
f 108 124 125
f 108 125 126
f 108 126 109
f 109 126 127
f 109 127 110
f 110 127 128
f 110 128 111
f 111 128 112
f 112 128 113
f 113 128 129
f 114 115 131
f 114 131 132
f 114 132 133
f 114 133 130
f 116 134 117
f 117 135 118
f 117 134 135
f 118 135 136
f 118 136 119
f 119 136 137
f 119 137 138
f 119 138 120
f 120 138 139
f 120 139 122
f 122 139 123
f 123 139 124
f 124 139 138
f 124 138 125
f 125 140 126
f 125 138 141
f 125 141 140
f 126 140 142
f 126 142 143
f 126 143 144
f 126 144 145
f 126 145 146
f 126 146 127
f 127 146 147
f 127 147 128
f 128 147 148
f 128 148 129
f 129 148 150
f 129 150 149
f 130 133 151
f 133 152 151
f 134 153 154
f 134 154 135
f 135 155 156
f 135 156 136
f 135 154 155
f 136 156 137
f 137 157 141
f 137 141 138
f 137 156 158
f 137 158 157
f 140 141 142
f 141 157 159
f 141 159 160
f 141 160 161
f 141 161 162
f 141 162 163
f 141 163 142
f 142 163 164
f 142 164 165
f 142 165 143
f 143 165 144
f 144 166 167
f 144 167 168
f 144 168 169
f 144 169 145
f 144 165 166
f 145 169 147
f 145 147 146
f 147 169 149
f 147 149 150
f 147 150 148
f 149 169 168
f 151 152 170
f 152 171 172
f 152 172 170
f 153 173 154
f 154 173 174
f 154 174 155
f 155 175 156
f 155 174 176
f 155 176 177
f 155 177 175
f 156 175 178
f 156 178 158
f 157 158 179
f 157 179 160
f 157 160 159
f 158 180 179
f 158 178 181
f 158 181 182
f 158 182 183
f 158 183 180
f 160 179 184
f 160 184 185
f 160 185 186
f 160 186 187
f 160 187 188
f 160 188 189
f 160 189 161
f 161 189 162
f 162 189 188
f 162 188 187
f 162 187 190
f 162 191 164
f 162 164 163
f 164 191 166
f 164 166 165
f 171 192 193
f 171 193 194
f 171 194 172
f 174 195 176
f 175 177 196
f 175 196 178
f 176 195 177
f 177 195 197
f 177 197 198
f 177 198 196
f 178 196 199
f 178 199 200
f 178 200 181
f 179 180 201
f 179 201 202
f 179 202 184
f 180 183 201
f 182 203 183
f 183 203 201
f 184 204 185
f 184 202 205
f 184 205 206
f 184 206 204
f 185 204 207
f 185 207 208
f 185 208 186
f 186 208 209
f 186 209 210
f 186 210 211
f 186 211 212
f 186 212 213
f 186 213 187
f 187 213 190
f 190 213 212
f 190 212 211
f 192 214 215
f 192 215 216
f 192 216 193
f 196 198 217
f 196 217 199
f 198 218 217
f 199 217 218
f 201 203 219
f 201 219 220
f 201 220 202
f 202 220 205
f 204 206 221
f 204 221 222
f 204 222 207
f 205 220 223
f 205 223 224
f 205 224 206
f 206 224 221
f 207 225 226
f 207 226 227
f 207 227 208
f 207 222 221
f 207 221 228
f 207 228 229
f 207 229 225
f 208 227 209
f 209 227 230
f 209 230 231
f 209 231 210
f 214 232 251
f 214 251 233
f 214 233 215
f 219 234 220
f 219 235 236
f 219 236 234
f 220 234 237
f 220 237 223
f 221 224 238
f 221 238 228
f 223 237 224
f 224 237 236
f 224 236 239
f 224 239 240
f 224 240 238
f 225 229 241
f 225 241 226
f 226 242 243
f 226 243 231
f 226 231 230
f 226 230 227
f 226 241 242
f 228 238 244
f 228 244 229
f 229 245 246
f 229 246 241
f 229 244 245
f 232 247 248
f 232 248 249
f 232 249 250
f 232 250 251
f 234 236 237
f 235 252 236
f 236 252 239
f 238 240 244
f 239 252 253
f 239 253 240
f 240 254 244
f 240 253 255
f 240 255 254
f 241 246 242
f 242 246 256
f 244 257 245
f 244 254 257
f 245 258 259
f 245 259 246
f 245 257 260
f 245 260 258
f 246 259 256
f 247 261 248
f 248 261 262
f 248 262 260
f 248 260 263
f 248 263 264
f 248 264 249
f 249 264 250
f 250 264 265
f 250 265 251
f 251 265 266
f 252 267 253
f 253 267 255
f 254 255 268
f 254 268 264
f 254 264 263
f 254 263 260
f 254 260 257
f 255 267 269
f 255 269 270
f 255 270 268
f 256 259 271
f 258 260 262
f 258 262 259
f 259 262 271
f 261 272 262
f 262 272 271
f 264 268 270
f 264 270 265
f 265 270 266
f 266 270 269
