# https://github.com/mikedh/trimesh
v -0.01967273 0.03977441 0.00832679
v -0.01967273 0.03996273 0.00810981
v -0.01694452 0.03608113 0.00571304
v -0.01650372 0.03523230 0.00571304
v -0.01610163 0.03460270 0.00571304
v -0.01586485 0.03443968 0.00571304
v -0.01710237 0.04035622 0.00832679
v -0.01967273 0.06018861 0.00832679
v -0.01967273 0.04000208 0.00807143
v -0.01695494 0.03612329 0.00571304
v -0.01967273 0.04007234 0.00802000
v -0.01967273 0.04117976 0.00739592
v -0.01967273 0.04128095 0.00734782
v -0.01586485 0.04064011 0.00832679
v -0.00445908 0.03773102 0.00571304
v -0.00445908 0.04337774 0.00832679
v -0.01832501 0.06055119 0.00832679
v -0.01967124 0.06013239 0.00823007
v -0.01967124 0.05930323 0.00759551
v -0.01967124 0.05866801 0.00737059
v -0.01967124 0.05774891 0.00726108
v -0.01720811 0.03744433 0.00571304
v -0.01967124 0.04252047 0.00723268
v -0.01723193 0.03762140 0.00571304
v -0.01967124 0.05647847 0.00723933
v -0.00445908 0.04064292 0.00571304
v -0.00445908 0.06315110 0.00832679
v -0.01680453 0.06091096 0.00832679
v -0.01720662 0.06019985 0.00781172
v -0.01586485 0.06045562 0.00775389
v -0.01840244 0.05949436 0.00750416
v -0.01586485 0.05901654 0.00727208
v -0.01767720 0.05960960 0.00746706
v -0.01683134 0.05972203 0.00742560
v -0.01586485 0.05982321 0.00738134
v -0.01552382 0.04462288 0.00571304
v -0.01589165 0.04450483 0.00571304
v -0.01637415 0.04426593 0.00571304
v -0.01680751 0.04373189 0.00571304
v -0.01712918 0.04294208 0.00571304
v -0.01738085 0.04146645 0.00571304
v -0.01738085 0.04014261 0.00571304
v -0.01731235 0.03884687 0.00571304
v -0.00523346 0.04695859 0.00571304
v -0.00445908 0.04702604 0.00571662
v -0.00445908 0.06283911 0.00805506
v -0.00564746 0.06291781 0.00824364
v -0.00556108 0.06302180 0.00832679
v -0.01586485 0.06112738 0.00832679
v -0.00951937 0.06176823 0.00773291
v -0.01149703 0.06093906 0.00744863
v -0.01459456 0.05992440 0.00735089
v -0.00951937 0.06028698 0.00725084
v -0.00698178 0.04666065 0.00571304
v -0.00731983 0.04658195 0.00571304
v -0.00802720 0.04641612 0.00571304
v -0.01151490 0.04559820 0.00571304
v -0.01203016 0.04547734 0.00571304
v -0.01449628 0.04489833 0.00571304
v -0.01078966 0.06102058 0.00740795
v -0.00951937 0.06113582 0.00736036
v -0.00575617 0.04690799 0.00571304
v -0.00825058 0.06028698 0.00723933
v -0.00571149 0.06135505 0.00734859
v -0.00445908 0.06140564 0.00734859
v -0.00445908 0.06282505 0.00804303
v -0.00698178 0.06269014 0.00818223
v -0.00825058 0.06258052 0.00825848
v -0.00904730 0.06251025 0.00832679
v -0.01078966 0.06165580 0.00786571
v -0.00951937 0.06242312 0.00832679
v -0.00825058 0.06185255 0.00762391
v -0.00825058 0.06122014 0.00734859
v -0.00649332 0.04676184 0.00571304
v -0.00698178 0.06193125 0.00754766
v -0.00571149 0.06198746 0.00751337
v -0.00698178 0.06129603 0.00734859
v -0.00445908 0.06204086 0.00749444
f 1 2 3
f 1 3 4
f 1 4 5
f 1 5 6
f 1 6 7
f 1 7 14
f 1 14 16
f 1 16 27
f 1 27 48
f 1 48 69
f 1 69 71
f 1 71 49
f 1 49 28
f 1 28 17
f 1 17 8
f 1 8 13
f 1 13 12
f 1 12 11
f 1 11 9
f 1 9 2
f 2 9 3
f 3 10 22
f 3 22 24
f 3 24 43
f 3 43 42
f 3 42 41
f 3 41 40
f 3 40 39
f 3 39 38
f 3 38 37
f 3 37 36
f 3 36 59
f 3 59 58
f 3 58 57
f 3 57 56
f 3 56 55
f 3 55 54
f 3 54 74
f 3 74 62
f 3 62 44
f 3 44 26
f 3 26 15
f 3 15 6
f 3 6 5
f 3 5 4
f 3 9 11
f 3 11 12
f 3 12 13
f 3 13 10
f 6 14 7
f 6 15 16
f 6 16 14
f 8 17 18
f 8 18 19
f 8 19 20
f 8 20 21
f 8 21 13
f 10 13 22
f 13 23 24
f 13 24 22
f 13 21 25
f 13 25 23
f 15 26 45
f 15 45 65
f 15 65 78
f 15 78 66
f 15 66 46
f 15 46 27
f 15 27 16
f 17 28 18
f 18 29 19
f 18 28 30
f 18 30 29
f 19 29 30
f 19 30 31
f 19 31 20
f 20 32 21
f 20 31 33
f 20 33 34
f 20 34 35
f 20 35 32
f 21 32 36
f 21 36 37
f 21 37 38
f 21 38 39
f 21 39 40
f 21 40 41
f 21 41 25
f 23 41 42
f 23 42 43
f 23 43 24
f 23 25 41
f 26 44 45
f 27 46 47
f 27 47 48
f 28 49 30
f 30 49 50
f 30 50 51
f 30 51 33
f 30 33 31
f 32 35 52
f 32 52 53
f 32 53 54
f 32 54 55
f 32 55 56
f 32 56 57
f 32 57 58
f 32 58 59
f 32 59 36
f 33 51 34
f 34 51 60
f 34 60 35
f 35 60 61
f 35 61 52
f 44 62 53
f 44 53 63
f 44 63 45
f 45 63 64
f 45 64 65
f 46 66 67
f 46 67 47
f 47 67 48
f 48 67 68
f 48 68 69
f 49 70 50
f 49 71 70
f 50 71 69
f 50 69 68
f 50 68 72
f 50 72 60
f 50 60 51
f 50 70 71
f 52 61 53
f 53 61 73
f 53 73 63
f 53 62 74
f 53 74 54
f 60 72 75
f 60 75 61
f 61 75 76
f 61 76 73
f 63 73 77
f 63 77 64
f 64 77 78
f 64 78 65
f 66 78 76
f 66 76 75
f 66 75 67
f 67 75 72
f 67 72 68
f 73 76 78
f 73 78 77
