# https://github.com/mikedh/trimesh
v 0.03365231 -0.05458507 0.01128223
v 0.03365231 -0.05457973 0.01063178
v 0.03397971 -0.05435034 0.01063178
v 0.03397971 -0.05435034 0.01190066
v 0.03365231 -0.05457973 0.01254310
v 0.03365231 -0.05430233 0.00930686
v 0.03466725 -0.05361948 0.00936290
v 0.03479226 -0.05371551 0.01063178
v 0.03479821 -0.05371551 0.01190066
v 0.03684296 -0.05206175 0.00990728
v 0.03686975 -0.05208309 0.01697816
v 0.03396483 -0.05433967 0.01444041
v 0.03365231 -0.05450504 0.02257803
v 0.03365231 -0.05451572 0.02132317
v 0.03365231 -0.05455306 0.01630770
v 0.03543217 -0.05321938 0.01316953
v 0.04330460 -0.04707379 0.02332255
v 0.03365231 -0.05429699 0.00928285
v 0.03445295 -0.05344877 0.00854634
v 0.03806028 -0.05074941 0.00877249
v 0.03530121 -0.05311802 0.00936290
v 0.03832518 -0.05096280 0.01570929
v 0.03543217 -0.05321938 0.01190066
v 0.03749775 -0.05157629 0.01063178
v 0.03976275 -0.04982650 0.01570929
v 0.04121223 -0.04870088 0.01824504
v 0.03622388 -0.05240851 0.00943495
v 0.04320936 -0.04699910 0.00988326
v 0.04467670 -0.04588948 0.01063178
v 0.04387606 -0.04652431 0.01063178
v 0.03829244 -0.05093079 0.02332255
v 0.03537264 -0.05317670 0.02332255
v 0.03365231 -0.05448904 0.02382690
v 0.04393857 -0.04657766 0.02332255
v 0.04392666 -0.04657233 0.02459143
v 0.04119735 -0.04867954 0.02459143
v 0.03365231 -0.05369950 0.00832819
v 0.03488750 -0.05268058 0.00823412
v 0.03583397 -0.05226980 0.00847829
v 0.03942643 -0.04955977 0.00864841
v 0.04435525 -0.04563342 0.00884454
v 0.04459038 -0.04582013 0.00969113
v 0.04330163 -0.04707379 0.02205367
v 0.03894723 -0.05045067 0.01316953
v 0.03974192 -0.04981050 0.01190066
v 0.04391773 -0.04655633 0.01824504
v 0.04392964 -0.04656700 0.02078279
v 0.04393559 -0.04657233 0.02205367
v 0.04531066 -0.04535601 0.01063178
v 0.04471837 -0.04592149 0.01824504
v 0.03535776 -0.05316603 0.02459143
v 0.03389638 -0.05428632 0.02459143
v 0.03365231 -0.05447304 0.02459143
v 0.04472432 -0.04593217 0.02078279
v 0.04472730 -0.04593750 0.02205367
v 0.04472730 -0.04594283 0.02332255
v 0.04471837 -0.04593750 0.02459143
v 0.04323912 -0.04702045 0.02534595
v 0.03680724 -0.05203507 0.02522586
v 0.03365231 -0.05324072 0.00802198
v 0.03721500 -0.05108550 0.00842826
v 0.03367613 -0.05266991 0.00766173
v 0.03870913 -0.04882891 0.00774779
v 0.04122711 -0.04759659 0.00826014
v 0.03990264 -0.04881824 0.00836221
v 0.04078662 -0.04836479 0.00856835
v 0.04571247 -0.04443844 0.00870445
v 0.04503089 -0.04528133 0.00930686
v 0.04584343 -0.04458248 0.00936290
v 0.04532554 -0.04535601 0.01316953
v 0.04596546 -0.04472118 0.01063178
v 0.03365231 -0.05442503 0.02488963
v 0.04534638 -0.04535601 0.01697816
v 0.04535531 -0.04535068 0.01951392
v 0.04536126 -0.04534001 0.02205367
v 0.04536126 -0.04533468 0.02332255
v 0.04461419 -0.04585214 0.02549005
v 0.04535233 -0.04531867 0.02459143
v 0.03799778 -0.05069606 0.02633663
v 0.03440533 -0.05340610 0.02660282
v 0.03663163 -0.05189104 0.02607245
v 0.03459284 -0.05355013 0.02586030
v 0.03365231 -0.05268058 0.00765772
v 0.03774479 -0.04923435 0.00754365
v 0.04004551 -0.04761260 0.00766373
v 0.04350997 -0.04598017 0.00845628
v 0.04214681 -0.04717515 0.00850631
v 0.04273612 -0.04534534 0.00760969
v 0.04380463 -0.04506794 0.00801197
v 0.04505767 -0.04471051 0.00847429
v 0.04500410 -0.04372893 0.00782184
v 0.04598034 -0.04378761 0.00846628
v 0.04722743 -0.04222987 0.00845628
v 0.04839713 -0.04083218 0.00853233
v 0.04690598 -0.04307276 0.00889658
v 0.04653989 -0.04372359 0.00933688
v 0.04704587 -0.04325947 0.00974116
v 0.04659942 -0.04394765 0.01063178
v 0.04659644 -0.04394765 0.01190066
v 0.04595653 -0.04472118 0.01316953
v 0.03365231 -0.05417963 0.02588832
v 0.04595058 -0.04472118 0.01444041
v 0.04593867 -0.04472118 0.01697816
v 0.04593272 -0.04472118 0.01824504
v 0.04591784 -0.04470518 0.02205367
v 0.04591188 -0.04469985 0.02332255
v 0.04428680 -0.04557474 0.02633663
v 0.03935797 -0.04950642 0.02650475
v 0.04582557 -0.04458782 0.02556610
v 0.04564699 -0.04437443 0.02641268
v 0.04589998 -0.04468384 0.02459143
v 0.03486071 -0.05265390 0.02683497
v 0.03365231 -0.05361948 0.02677093
v 0.03365231 -0.05362482 0.02676693
v 0.03365231 -0.05416362 0.02593035
v 0.03578635 -0.05222713 0.02666286
v 0.03365231 -0.05264857 0.00764772
v 0.03412555 -0.05191237 0.00749161
v 0.03501251 -0.05145359 0.00758567
v 0.03912879 -0.04805538 0.00751162
v 0.04409929 -0.04411836 0.00756566
v 0.04189084 -0.04569210 0.00745759
v 0.04539400 -0.04276334 0.00755766
v 0.04631071 -0.04249661 0.00800597
v 0.04762923 -0.04124828 0.00820610
v 0.04884061 -0.03989860 0.00833619
v 0.04956088 -0.03942915 0.00864240
v 0.05220388 -0.03575887 0.00853633
v 0.04810247 -0.04171241 0.00936290
v 0.05072464 -0.03801545 0.00883654
v 0.05470996 -0.03317687 0.00967712
v 0.05204613 -0.03682047 0.00996732
v 0.04770067 -0.04251795 0.01063178
v 0.04821260 -0.04185644 0.01316953
v 0.04770067 -0.04251795 0.01316953
v 0.04658454 -0.04393698 0.01444041
v 0.04769174 -0.04251795 0.01444041
v 0.04768281 -0.04251795 0.01570929
v 0.04703099 -0.04323813 0.02459143
v 0.04763816 -0.04251795 0.02078279
v 0.04762626 -0.04251795 0.02205367
v 0.04761435 -0.04251795 0.02332255
v 0.04865607 -0.04115759 0.02459143
v 0.04071816 -0.04831145 0.02657279
v 0.04700123 -0.04320079 0.02534995
v 0.04685241 -0.04301408 0.02619653
v 0.04834951 -0.04076816 0.02660682
v 0.04718278 -0.04217119 0.02668287
v 0.04600713 -0.04353154 0.02672890
v 0.04480171 -0.04472652 0.02672290
v 0.04344151 -0.04592149 0.02668087
v 0.04207835 -0.04711647 0.02663283
v 0.05203720 -0.03680447 0.02522186
v 0.03365231 -0.05266991 0.02727128
v 0.03619411 -0.05144292 0.02691303
v 0.03714952 -0.05104282 0.02670889
v 0.03365231 -0.05149627 0.00733950
v 0.03466427 -0.05106416 0.00738554
v 0.03689653 -0.04956510 0.00743957
v 0.03828053 -0.04838613 0.00741356
v 0.04325103 -0.04450246 0.00743157
v 0.04454872 -0.04327014 0.00742356
v 0.03966453 -0.04720716 0.00739154
v 0.04571842 -0.04191513 0.00745158
v 0.04806081 -0.03912507 0.00750962
v 0.04922753 -0.03772204 0.00755165
v 0.04762031 -0.04004798 0.00763971
v 0.04882870 -0.03870363 0.00774779
v 0.05264438 -0.03364099 0.00775379
v 0.05143896 -0.03617498 0.00820410
v 0.05264438 -0.03481996 0.00834220
v 0.05336465 -0.03434517 0.00865041
v 0.05452840 -0.03293147 0.00883053
v 0.05363253 -0.03363032 0.00842425
v 0.05481116 -0.03208859 0.00846228
v 0.05502248 -0.03245135 0.00929686
v 0.05566835 -0.03133106 0.00936290
v 0.05534095 -0.03236066 0.01063178
v 0.05477842 -0.03326222 0.01063178
v 0.05365931 -0.03472927 0.01063178
v 0.05317417 -0.03536410 0.01063178
v 0.05366824 -0.03473994 0.01570929
v 0.05318607 -0.03538010 0.01824504
v 0.05318905 -0.03538544 0.02078279
v 0.05318905 -0.03538544 0.02205367
v 0.05318310 -0.03538010 0.02332255
v 0.05430220 -0.03391839 0.02459143
v 0.04950731 -0.03935446 0.02650675
v 0.05471294 -0.03318220 0.02548004
v 0.05331108 -0.03427048 0.02650074
v 0.05214733 -0.03568418 0.02660282
v 0.05098655 -0.03709788 0.02667887
v 0.04760245 -0.04121094 0.02685499
v 0.04638810 -0.04256063 0.02694705
v 0.05140622 -0.03613230 0.02685499
v 0.04515887 -0.04388364 0.02698908
v 0.04383440 -0.04511062 0.02695506
v 0.04250992 -0.04633760 0.02688501
v 0.05479032 -0.03328356 0.02459143
v 0.03490535 -0.05140024 0.02737535
v 0.03365231 -0.05264857 0.02727928
v 0.03871210 -0.04886092 0.02716520
v 0.03998300 -0.04759126 0.02727528
v 0.03365231 -0.05145359 0.00733350
v 0.03367613 -0.05145359 0.00733550
v 0.04239682 -0.04497725 0.00739754
v 0.04372129 -0.04372893 0.00737753
v 0.04500410 -0.04241125 0.00738954
v 0.04721255 -0.03966921 0.00738954
v 0.03870913 -0.04761260 0.00734751
v 0.04004551 -0.04639095 0.00733150
v 0.04838225 -0.03827685 0.00741356
v 0.04955196 -0.03687916 0.00744158
v 0.05070975 -0.03548146 0.00747160
v 0.05305214 -0.03266473 0.00755565
v 0.05395099 -0.03237666 0.00800797
v 0.05584693 -0.03046683 0.00872246
v 0.05418612 -0.03109099 0.00761369
v 0.05522487 -0.03096830 0.00834020
v 0.05577252 -0.03156045 0.01063178
v 0.05594514 -0.03069623 0.00936290
v 0.05718628 -0.02809289 0.00976318
v 0.05534095 -0.03236066 0.02205367
v 0.05479628 -0.03328890 0.02332255
v 0.05479330 -0.03328890 0.02205367
v 0.05479032 -0.03328356 0.01951392
v 0.05478139 -0.03326756 0.01190066
v 0.05429625 -0.03390239 0.01190066
v 0.05430815 -0.03391839 0.01951392
v 0.05431113 -0.03392373 0.02205367
v 0.05367717 -0.03475061 0.02205367
v 0.05431113 -0.03392373 0.02332255
v 0.05367717 -0.03474527 0.02332255
v 0.05446590 -0.03286212 0.02632662
v 0.05532606 -0.03236066 0.02459143
v 0.05595705 -0.03072290 0.02555609
v 0.05563560 -0.03112834 0.02593235
v 0.05498378 -0.03240867 0.02588632
v 0.05476353 -0.03201390 0.02667687
v 0.04886442 -0.03870896 0.02716320
v 0.05267116 -0.03363032 0.02716520
v 0.04759650 -0.03997862 0.02730330
v 0.04632857 -0.04124828 0.02740737
v 0.04505767 -0.04251795 0.02748743
v 0.05400159 -0.03240867 0.02695306
v 0.04378975 -0.04378761 0.02749743
v 0.04251885 -0.04505194 0.02743939
v 0.04125092 -0.04632160 0.02736334
v 0.05533797 -0.03236066 0.02332255
v 0.03617328 -0.05013058 0.02744740
v 0.03365231 -0.05138424 0.02759750
v 0.03365231 -0.05140024 0.02759350
v 0.03365231 -0.05013058 0.00724144
v 0.03617328 -0.04886092 0.00727946
v 0.04125092 -0.04505194 0.00729347
v 0.04251885 -0.04378761 0.00727346
v 0.04378975 -0.04251795 0.00726745
v 0.04505767 -0.04124828 0.00728947
v 0.04640000 -0.04004798 0.00732950
v 0.04762031 -0.03870363 0.00734551
v 0.05102524 -0.03463324 0.00738554
v 0.05220388 -0.03322488 0.00740355
v 0.05337358 -0.03181651 0.00743557
v 0.05839468 -0.02541486 0.00995931
v 0.05598086 -0.02982133 0.00854834
v 0.05722795 -0.02692992 0.00855835
v 0.06102874 -0.01803162 0.00857036
v 0.05964177 -0.02155786 0.00875648
v 0.06085016 -0.01887451 0.00893060
v 0.06099303 -0.01921059 0.00977519
v 0.05441233 -0.03014675 0.00750762
v 0.05541238 -0.02855701 0.00765572
v 0.05625171 -0.02855701 0.00829016
v 0.05576359 -0.03153911 0.01697816
v 0.05760297 -0.02729268 0.01063178
v 0.06102577 -0.01928528 0.02332255
v 0.05921912 -0.02348370 0.02332255
v 0.05575466 -0.03151777 0.02332255
v 0.05574573 -0.03150177 0.02459143
v 0.05617730 -0.02990135 0.02593235
v 0.05579930 -0.03037614 0.02640268
v 0.05838277 -0.02538819 0.02518584
v 0.05716842 -0.02805021 0.02538798
v 0.05598979 -0.02953326 0.02664885
v 0.05500164 -0.03109099 0.02683698
v 0.05393909 -0.03109099 0.02739536
v 0.05140026 -0.03489998 0.02730930
v 0.05013234 -0.03616964 0.02741938
v 0.04886442 -0.03743930 0.02750544
v 0.04759650 -0.03870896 0.02756948
v 0.04632857 -0.03997862 0.02761151
v 0.04505767 -0.04124828 0.02763553
v 0.04378975 -0.04251795 0.02765754
v 0.04251885 -0.04378761 0.02765154
v 0.04125092 -0.04505194 0.02763153
v 0.03998300 -0.04632160 0.02760751
v 0.03871210 -0.04759126 0.02756748
v 0.03744418 -0.04886092 0.02751144
v 0.03490535 -0.05013058 0.02762552
v 0.03365231 -0.05013058 0.02768356
v 0.03365231 -0.04886092 0.00723944
v 0.03490535 -0.04886092 0.00723944
v 0.03998300 -0.04505194 0.00723944
v 0.03871210 -0.04632160 0.00724344
v 0.03744418 -0.04759126 0.00726145
v 0.04125092 -0.04378761 0.00723944
v 0.04378975 -0.04124828 0.00723944
v 0.04505767 -0.03997862 0.00723944
v 0.04632857 -0.03870896 0.00724344
v 0.05140026 -0.03236066 0.00725345
v 0.04886442 -0.03616964 0.00728146
v 0.05143003 -0.03364099 0.00733950
v 0.05264438 -0.03229131 0.00736752
v 0.05355216 -0.03109099 0.00738754
v 0.05462365 -0.02930387 0.00744158
v 0.06140376 -0.01840505 0.01063178
v 0.06102874 -0.01929061 0.01063178
v 0.05742141 -0.02602302 0.00836421
v 0.06004357 -0.01967471 0.00830617
v 0.06037097 -0.01843172 0.00818009
v 0.06022811 -0.01722608 0.00772377
v 0.06114780 -0.01713539 0.00841825
v 0.06159723 -0.01713539 0.00936290
v 0.06118054 -0.01843172 0.00935690
v 0.05567430 -0.02729268 0.00751763
v 0.05684103 -0.02475336 0.00755966
v 0.05801966 -0.02221403 0.00761169
v 0.05921020 -0.01967471 0.00767173
v 0.06140079 -0.01840505 0.02332255
v 0.06102279 -0.01927461 0.02459143
v 0.05838575 -0.02539886 0.02433925
v 0.05601955 -0.03087227 0.02459143
v 0.06098410 -0.01918925 0.02538397
v 0.05839766 -0.02415587 0.02651676
v 0.05719521 -0.02684990 0.02658881
v 0.05978165 -0.02061362 0.02663283
v 0.05736486 -0.02602302 0.02673691
v 0.05618623 -0.02855701 0.02679895
v 0.05520999 -0.02855701 0.02734933
v 0.05393909 -0.02982133 0.02755147
v 0.05267116 -0.03236066 0.02751545
v 0.05647791 -0.02475336 0.02747141
v 0.05520999 -0.02729268 0.02751545
v 0.05140026 -0.03363032 0.02757949
v 0.05013234 -0.03489998 0.02761952
v 0.04886442 -0.03616964 0.02764353
v 0.04759650 -0.03743930 0.02766555
v 0.04632857 -0.03870896 0.02768156
v 0.04505767 -0.03997862 0.02768556
v 0.04378975 -0.04124828 0.02768556
v 0.04125092 -0.04378761 0.02768556
v 0.03998300 -0.04505194 0.02768556
v 0.03871210 -0.04632160 0.02768156
v 0.03744418 -0.04759126 0.02766555
v 0.03490535 -0.04886092 0.02768556
v 0.03365231 -0.04886092 0.02768556
v 0.03365231 -0.03363032 0.00723944
v 0.05267116 -0.02982133 0.00723944
v 0.05013234 -0.03363032 0.00724144
v 0.05267116 -0.03109099 0.00727746
v 0.05393909 -0.02855701 0.00728347
v 0.05477842 -0.02855701 0.00739154
v 0.05601062 -0.02578296 0.00739955
v 0.05721902 -0.02309959 0.00741956
v 0.05842742 -0.02041624 0.00744158
v 0.06181450 -0.01713539 0.01063178
v 0.06181450 -0.01713539 0.02332255
v 0.05946616 -0.01840505 0.00752563
v 0.05961200 -0.01771154 0.00746759
v 0.05976380 -0.01686332 0.00741556
v 0.06051681 -0.01586573 0.00766573
v 0.06126387 -0.01586573 0.00830017
v 0.06347233 -0.00515362 0.00871045
v 0.06353780 -0.00825309 0.00983323
v 0.06347233 -0.00895727 0.00996732
v 0.06219845 -0.01527357 0.00997533
v 0.06138888 -0.01840505 0.02459143
v 0.06179962 -0.01713539 0.02459143
v 0.06152282 -0.01713539 0.02586030
v 0.06114185 -0.01836771 0.02582828
v 0.06079361 -0.01876781 0.02623056
v 0.06098410 -0.01791959 0.02657079
v 0.05996916 -0.01967471 0.02678494
v 0.05647791 -0.02602302 0.02726127
v 0.05774881 -0.02348370 0.02714519
v 0.05901674 -0.01967471 0.02733532
v 0.05774881 -0.02221403 0.02740937
v 0.05267116 -0.03109099 0.02764754
v 0.05774881 -0.02094437 0.02754747
v 0.05520999 -0.02602302 0.02761551
v 0.05393909 -0.02855701 0.02764153
v 0.05901674 -0.01840505 0.02751144
v 0.05140026 -0.03236066 0.02767155
v 0.05013234 -0.03363032 0.02768356
v 0.05267116 -0.02982133 0.02768556
v 0.03365231 -0.03361432 0.02768556
v 0.03365231 -0.03236066 0.00724144
v 0.04759650 -0.00008565 0.00723944
v 0.05393909 -0.02729268 0.00724144
v 0.05647791 -0.02094437 0.00723944
v 0.05504034 -0.02729268 0.00734951
v 0.05520999 -0.02475336 0.00725144
v 0.05647791 -0.02221403 0.00726545
v 0.05774881 -0.01967471 0.00728347
v 0.05620706 -0.02475336 0.00735952
v 0.05857624 -0.01967471 0.00739154
v 0.06207344 -0.01592974 0.01063178
v 0.06207344 -0.01592974 0.02332255
v 0.06206749 -0.01590841 0.02459143
v 0.05883220 -0.01840505 0.00734951
v 0.05988285 -0.01586573 0.00737153
v 0.06095433 -0.01164063 0.00744158
v 0.06175200 -0.00952275 0.00778781
v 0.06266573 -0.00698343 0.00822812
v 0.06254966 -0.00825309 0.00831618
v 0.06291277 -0.00563375 0.00826614
v 0.06350804 -0.00444411 0.00865041
v 0.06360924 -0.00698343 0.00964109
v 0.06376103 -0.00698343 0.01063178
v 0.06361816 -0.00825309 0.01063178
v 0.06348125 -0.00899462 0.01063178
v 0.06285920 -0.01206208 0.01063178
v 0.06219249 -0.01524690 0.02523387
v 0.06187105 -0.01574836 0.02573822
v 0.06196629 -0.01459606 0.02602441
v 0.06108827 -0.01713539 0.02668087
v 0.06028466 -0.01713539 0.02719523
v 0.06033525 -0.01836771 0.02687901
v 0.05393909 -0.02729268 0.02768356
v 0.05774881 -0.01967471 0.02763953
v 0.05647791 -0.02221403 0.02765955
v 0.05520999 -0.02475336 0.02767556
v 0.06028466 -0.01586573 0.02735934
v 0.05901674 -0.01713539 0.02760351
v 0.05647791 -0.02094437 0.02768556
v 0.03365231 -0.03234465 0.02768356
v 0.04759650 -0.00008565 0.02768556
v 0.03365231 -0.03106432 0.00732549
v 0.04559341 -0.00008565 0.00741356
v 0.04632857 -0.00008565 0.00730548
v 0.04632857 -0.00063512 0.00729147
v 0.04632857 -0.00190479 0.00726145
v 0.06028466 -0.00008565 0.00723944
v 0.05774881 -0.01840505 0.00724144
v 0.05774881 -0.01713539 0.00723944
v 0.05901674 -0.01586573 0.00726345
v 0.06219845 -0.01527357 0.02459143
v 0.06285920 -0.01206208 0.02332255
v 0.06028466 -0.00952275 0.00725545
v 0.06111803 -0.00952275 0.00736552
v 0.06102577 -0.01079242 0.00740555
v 0.06189188 -0.00698343 0.00759368
v 0.06182343 -0.00825309 0.00768174
v 0.06282348 -0.00444411 0.00805400
v 0.06371341 -0.00444411 0.00936290
v 0.06355269 -0.00317445 0.00856835
v 0.06378484 -0.00317445 0.00936290
v 0.06376103 -0.00698343 0.01570929
v 0.06384139 -0.00190479 0.00936290
v 0.06405866 -0.00008565 0.01063178
v 0.06361816 -0.00825309 0.02332255
v 0.06348125 -0.00899462 0.02332255
v 0.06335327 -0.00962945 0.02205367
v 0.06225797 -0.01459606 0.02538998
v 0.06347530 -0.00897328 0.02459143
v 0.06346934 -0.00893593 0.02524388
v 0.06206749 -0.01333174 0.02628259
v 0.06121923 -0.01586573 0.02678894
v 0.06214189 -0.01244618 0.02642669
v 0.06221630 -0.01159796 0.02652676
v 0.05774881 -0.01840505 0.02768356
v 0.05901674 -0.01586573 0.02766155
v 0.06028466 -0.01459606 0.02743739
v 0.06155556 -0.00952275 0.02726327
v 0.06155556 -0.00825309 0.02736534
v 0.06155556 -0.00698343 0.02744740
v 0.06028466 -0.01079242 0.02761551
v 0.05774881 -0.01713539 0.02768556
v 0.03365231 -0.03107499 0.02759150
v 0.04687622 -0.00008565 0.02763553
v 0.04632857 -0.00008565 0.02759350
v 0.06028466 -0.00008565 0.02768556
v 0.03365231 -0.03096296 0.00733550
v 0.04531959 -0.00008565 0.00758768
v 0.06100493 -0.00008565 0.00729948
v 0.06028466 -0.00698343 0.00723944
v 0.05901674 -0.01333174 0.00723944
v 0.05901674 -0.01459606 0.00724144
v 0.06335327 -0.00962945 0.02332255
v 0.06028466 -0.00825309 0.00724144
v 0.06118649 -0.00825309 0.00734951
v 0.06203475 -0.00444411 0.00749761
v 0.06197224 -0.00571377 0.00752964
v 0.06282348 -0.00317445 0.00795793
v 0.06357947 -0.00190479 0.00852833
v 0.06375805 -0.00698343 0.02332255
v 0.06392473 -0.00317445 0.02332255
v 0.06381461 -0.00571377 0.02332255
v 0.06387413 -0.00063512 0.00936290
v 0.06387413 -0.00008565 0.00936290
v 0.06405569 -0.00008565 0.02332255
v 0.06360924 -0.00825309 0.02459143
v 0.06374912 -0.00698343 0.02459143
v 0.06352887 -0.00825309 0.02534995
v 0.06228178 -0.01079242 0.02659481
v 0.06238298 -0.00952275 0.02668887
v 0.06248418 -0.00825309 0.02677293
v 0.06257942 -0.00698343 0.02685299
v 0.06311814 -0.00825309 0.02598439
v 0.06346637 -0.00386796 0.02650675
v 0.05901674 -0.01459606 0.02768156
v 0.05901674 -0.01333174 0.02768356
v 0.06028466 -0.00952275 0.02766355
v 0.06267466 -0.00571377 0.02690502
v 0.06282348 -0.00317445 0.02701310
v 0.06155556 -0.00571377 0.02749944
v 0.05901674 -0.01206208 0.02768556
v 0.03365231 -0.02982133 0.02728729
v 0.04560830 -0.00008565 0.02734933
v 0.04505767 -0.00008565 0.02715319
v 0.06155556 -0.00063512 0.02757949
v 0.06155556 -0.00008565 0.02757549
v 0.06028466 -0.00698343 0.02768556
v 0.03365231 -0.02982133 0.00763571
v 0.04495945 -0.00008565 0.00782984
v 0.06159723 -0.00008565 0.00735552
v 0.06155556 -0.00063512 0.00734551
v 0.06133828 -0.00571377 0.00734951
v 0.06218952 -0.00127529 0.00745959
v 0.06269847 -0.00178209 0.00781383
v 0.06283241 -0.00063512 0.00790389
v 0.06358542 -0.00063512 0.00853833
v 0.06404676 -0.00008565 0.02459143
v 0.06385925 -0.00444411 0.02459143
v 0.06357352 -0.00008565 0.00856235
v 0.06360030 -0.00698343 0.02549605
v 0.06377591 -0.00190479 0.02586030
v 0.06371936 -0.00317445 0.02586030
v 0.06349911 -0.00317445 0.02655078
v 0.06028466 -0.00825309 0.02768156
v 0.06155556 -0.00444411 0.02752946
v 0.06155556 -0.00317445 0.02755147
v 0.06352590 -0.00190479 0.02658680
v 0.06282348 -0.00190479 0.02706313
v 0.03365231 -0.02980533 0.02728329
v 0.04462313 -0.00008565 0.02686499
v 0.06155556 -0.00190479 0.02756748
v 0.06282348 -0.00063512 0.02704312
v 0.06287408 -0.00008565 0.02697707
v 0.03365231 -0.02975198 0.00765772
v 0.04463801 -0.00008565 0.00810403
v 0.06219845 -0.00008565 0.00745358
v 0.06219845 -0.00063512 0.00745558
v 0.06140079 -0.00444411 0.00734951
v 0.06238298 -0.00008565 0.00758367
v 0.06277586 -0.00008565 0.00788588
v 0.06318957 -0.00008565 0.00823612
v 0.06390984 -0.00008565 0.02531192
v 0.06378187 -0.00063512 0.02586030
v 0.06375210 -0.00008565 0.02590834
v 0.06359436 -0.00008565 0.02630061
v 0.06350506 -0.00063512 0.02655478
v 0.03365231 -0.02916516 0.02702310
v 0.04429871 -0.00008565 0.02664885
v 0.06348423 -0.00008565 0.02652876
v 0.03365231 -0.02859435 0.00826614
v 0.04425108 -0.00008565 0.00846428
v 0.03365231 -0.02862636 0.02680295
v 0.04408441 -0.00008565 0.02619653
v 0.03365231 -0.02858368 0.00827215
v 0.04388201 -0.00008565 0.00936290
v 0.03365231 -0.02796485 0.02623656
v 0.04392964 -0.00008565 0.02586030
v 0.03365231 -0.02786349 0.00936290
v 0.04367069 -0.00008565 0.01063178
v 0.03365231 -0.02764477 0.02579025
v 0.04378082 -0.00008565 0.02513980
v 0.03365231 -0.02778347 0.01012143
v 0.04365581 -0.00008565 0.01190066
v 0.03365231 -0.02773546 0.01063178
v 0.03365231 -0.02751140 0.02538197
v 0.04367367 -0.00008565 0.02459143
v 0.04365581 -0.00008565 0.02332255
v 0.03365231 -0.02731402 0.02452738
v 0.04366176 -0.00008565 0.02387093
f 1 2 3
f 1 3 4
f 1 4 5
f 1 5 15
f 1 15 14
f 1 14 13
f 1 13 33
f 1 33 53
f 1 53 72
f 1 72 101
f 1 101 115
f 1 115 114
f 1 114 113
f 1 113 154
f 1 154 201
f 1 201 252
f 1 252 251
f 1 251 300
f 1 300 356
f 1 356 396
f 1 396 436
f 1 436 479
f 1 479 518
f 1 518 545
f 1 545 563
f 1 563 568
f 1 568 572
f 1 572 576
f 1 576 581
f 1 581 584
f 1 584 580
f 1 580 578
f 1 578 574
f 1 574 570
f 1 570 566
f 1 566 550
f 1 550 524
f 1 524 483
f 1 483 438
f 1 438 397
f 1 397 357
f 1 357 301
f 1 301 253
f 1 253 204
f 1 204 157
f 1 157 117
f 1 117 83
f 1 83 60
f 1 60 37
f 1 37 18
f 1 18 6
f 1 6 2
f 2 6 7
f 2 7 3
f 3 8 9
f 3 9 4
f 3 7 10
f 3 10 8
f 4 11 12
f 4 12 13
f 4 13 14
f 4 14 15
f 4 15 5
f 4 9 16
f 4 16 17
f 4 17 11
f 6 18 7
f 7 18 19
f 7 19 20
f 7 20 21
f 7 21 10
f 8 22 23
f 8 23 9
f 8 10 24
f 8 24 25
f 8 25 26
f 8 26 22
f 9 23 22
f 9 22 17
f 9 17 16
f 10 21 27
f 10 27 20
f 10 20 28
f 10 28 29
f 10 29 30
f 10 30 24
f 11 31 32
f 11 32 12
f 11 17 31
f 12 32 13
f 13 32 33
f 17 22 34
f 17 34 35
f 17 35 36
f 17 36 31
f 18 37 19
f 19 37 38
f 19 38 39
f 19 39 40
f 19 40 20
f 20 27 21
f 20 40 41
f 20 41 42
f 20 42 28
f 22 26 43
f 22 43 34
f 24 44 26
f 24 26 25
f 24 30 45
f 24 45 44
f 26 44 45
f 26 45 30
f 26 30 46
f 26 46 47
f 26 47 48
f 26 48 43
f 28 42 29
f 29 42 49
f 29 49 50
f 29 50 46
f 29 46 30
f 31 36 32
f 32 51 33
f 32 36 51
f 33 52 53
f 33 51 52
f 34 43 48
f 34 48 50
f 34 50 54
f 34 54 55
f 34 55 56
f 34 56 57
f 34 57 35
f 35 57 58
f 35 58 59
f 35 59 36
f 36 59 51
f 37 60 38
f 38 61 39
f 38 60 62
f 38 62 63
f 38 63 64
f 38 64 65
f 38 65 61
f 39 61 66
f 39 66 40
f 40 66 67
f 40 67 41
f 41 67 68
f 41 68 42
f 42 68 69
f 42 69 49
f 46 50 47
f 47 50 48
f 49 70 55
f 49 55 54
f 49 54 50
f 49 69 71
f 49 71 70
f 51 59 52
f 52 59 53
f 53 59 72
f 55 70 73
f 55 73 56
f 56 73 74
f 56 74 75
f 56 75 76
f 56 76 57
f 57 77 58
f 57 76 78
f 57 78 77
f 58 77 79
f 58 79 80
f 58 80 81
f 58 81 82
f 58 82 59
f 59 82 72
f 60 83 62
f 61 65 66
f 62 83 84
f 62 84 63
f 63 84 85
f 63 85 64
f 64 86 87
f 64 87 65
f 64 85 88
f 64 88 89
f 64 89 86
f 65 87 66
f 66 87 67
f 67 69 68
f 67 87 86
f 67 86 90
f 67 90 91
f 67 91 92
f 67 92 93
f 67 93 94
f 67 94 95
f 67 95 96
f 67 96 69
f 69 96 97
f 69 97 71
f 70 71 73
f 71 74 73
f 71 97 98
f 71 98 99
f 71 99 100
f 71 100 75
f 71 75 74
f 72 82 101
f 75 100 76
f 76 100 102
f 76 102 103
f 76 103 104
f 76 104 105
f 76 105 106
f 76 106 78
f 77 107 108
f 77 108 79
f 77 78 109
f 77 109 110
f 77 110 107
f 78 106 111
f 78 111 109
f 79 108 80
f 80 112 113
f 80 113 114
f 80 114 115
f 80 115 101
f 80 101 82
f 80 82 81
f 80 108 116
f 80 116 112
f 83 117 118
f 83 118 119
f 83 119 84
f 84 120 88
f 84 88 85
f 84 119 118
f 84 118 120
f 86 89 90
f 88 121 89
f 88 120 122
f 88 122 121
f 89 121 90
f 90 121 91
f 91 121 123
f 91 123 92
f 92 123 124
f 92 124 93
f 93 124 125
f 93 125 126
f 93 126 94
f 94 127 95
f 94 126 128
f 94 128 127
f 95 129 97
f 95 97 96
f 95 127 130
f 95 130 131
f 95 131 132
f 95 132 129
f 97 129 132
f 97 132 98
f 98 132 133
f 98 133 134
f 98 134 135
f 98 135 99
f 99 136 105
f 99 105 104
f 99 104 103
f 99 103 102
f 99 102 100
f 99 135 137
f 99 137 138
f 99 138 136
f 105 136 106
f 106 139 111
f 106 136 138
f 106 138 140
f 106 140 141
f 106 141 142
f 106 142 143
f 106 143 139
f 107 110 108
f 108 110 144
f 108 144 116
f 109 111 145
f 109 145 146
f 109 146 110
f 110 146 147
f 110 147 148
f 110 148 149
f 110 149 150
f 110 150 151
f 110 151 152
f 110 152 144
f 111 139 153
f 111 153 145
f 112 154 113
f 112 116 155
f 112 155 154
f 116 156 155
f 116 144 152
f 116 152 156
f 117 157 118
f 118 157 158
f 118 158 159
f 118 159 120
f 120 159 160
f 120 160 122
f 121 122 161
f 121 161 162
f 121 162 123
f 122 160 163
f 122 163 161
f 123 125 124
f 123 162 164
f 123 164 165
f 123 165 166
f 123 166 167
f 123 167 125
f 125 167 168
f 125 168 169
f 125 169 170
f 125 170 126
f 126 170 171
f 126 171 128
f 127 128 172
f 127 172 173
f 127 173 130
f 128 171 174
f 128 174 175
f 128 175 172
f 130 173 131
f 131 173 176
f 131 176 177
f 131 177 178
f 131 178 179
f 131 179 132
f 132 179 180
f 132 180 181
f 132 181 133
f 133 181 182
f 133 182 183
f 133 183 184
f 133 184 134
f 134 184 185
f 134 185 135
f 135 185 137
f 137 185 138
f 138 185 186
f 138 186 140
f 139 143 153
f 140 186 141
f 141 186 142
f 142 186 143
f 143 186 187
f 143 187 153
f 145 153 146
f 146 188 147
f 146 153 189
f 146 189 188
f 147 188 190
f 147 190 191
f 147 191 192
f 147 192 148
f 148 193 194
f 148 194 149
f 148 192 195
f 148 195 193
f 149 196 150
f 149 194 196
f 150 196 197
f 150 197 198
f 150 198 151
f 151 198 156
f 151 156 152
f 153 187 199
f 153 199 189
f 154 200 201
f 154 155 202
f 154 202 203
f 154 203 200
f 155 156 198
f 155 198 197
f 155 197 202
f 157 204 205
f 157 205 158
f 158 205 163
f 158 163 160
f 158 160 159
f 161 206 207
f 161 207 162
f 161 163 206
f 162 207 208
f 162 208 209
f 162 209 164
f 163 205 210
f 163 210 211
f 163 211 207
f 163 207 206
f 164 209 212
f 164 212 165
f 165 212 213
f 165 213 214
f 165 214 215
f 165 215 166
f 166 168 167
f 166 215 168
f 168 215 169
f 169 215 216
f 169 216 171
f 169 171 170
f 171 216 174
f 172 175 173
f 173 175 217
f 173 217 176
f 174 216 175
f 175 216 218
f 175 218 219
f 175 219 217
f 176 217 177
f 177 220 178
f 177 217 221
f 177 221 222
f 177 222 220
f 178 220 223
f 178 223 224
f 178 224 225
f 178 225 226
f 178 226 227
f 178 227 179
f 179 227 180
f 180 227 228
f 180 228 181
f 181 228 182
f 182 228 229
f 182 229 183
f 183 229 184
f 184 229 230
f 184 230 231
f 184 231 185
f 185 231 232
f 185 232 233
f 185 233 186
f 186 233 187
f 187 233 232
f 187 232 199
f 188 189 234
f 188 234 190
f 189 199 235
f 189 235 236
f 189 236 237
f 189 237 238
f 189 238 234
f 190 234 239
f 190 239 191
f 191 239 192
f 192 239 195
f 193 240 194
f 193 195 241
f 193 241 240
f 194 240 242
f 194 242 243
f 194 243 244
f 194 244 196
f 195 239 245
f 195 245 241
f 196 244 246
f 196 246 247
f 196 247 197
f 197 247 248
f 197 248 203
f 197 203 202
f 199 224 249
f 199 249 235
f 199 232 224
f 200 250 251
f 200 251 252
f 200 252 201
f 200 203 248
f 200 248 247
f 200 247 250
f 204 210 205
f 204 253 254
f 204 254 255
f 204 255 210
f 207 256 257
f 207 257 208
f 207 211 255
f 207 255 256
f 208 257 258
f 208 258 259
f 208 259 260
f 208 260 209
f 209 260 261
f 209 261 262
f 209 262 212
f 210 255 211
f 212 262 213
f 213 262 214
f 214 262 263
f 214 263 215
f 215 263 218
f 215 218 216
f 217 264 222
f 217 222 221
f 217 219 265
f 217 265 266
f 217 266 267
f 217 267 268
f 217 268 269
f 217 269 270
f 217 270 264
f 218 263 271
f 218 271 272
f 218 272 219
f 219 272 273
f 219 273 265
f 220 274 249
f 220 249 223
f 220 222 264
f 220 264 275
f 220 275 276
f 220 276 277
f 220 277 274
f 223 249 224
f 224 232 230
f 224 230 225
f 225 230 229
f 225 229 226
f 226 229 227
f 227 229 228
f 230 232 231
f 234 238 239
f 235 249 278
f 235 278 279
f 235 279 236
f 236 280 281
f 236 281 237
f 236 279 282
f 236 282 283
f 236 283 280
f 237 281 238
f 238 281 239
f 239 281 284
f 239 284 285
f 239 285 286
f 239 286 245
f 240 241 287
f 240 287 242
f 241 245 286
f 241 286 287
f 242 287 288
f 242 288 243
f 243 288 289
f 243 289 244
f 244 289 290
f 244 290 291
f 244 291 292
f 244 292 293
f 244 293 246
f 246 294 295
f 246 295 296
f 246 296 297
f 246 297 298
f 246 298 247
f 246 293 294
f 247 298 250
f 249 274 278
f 250 298 251
f 251 298 297
f 251 297 296
f 251 296 299
f 251 299 300
f 253 301 302
f 253 302 303
f 253 303 304
f 253 304 305
f 253 305 254
f 254 305 256
f 254 256 255
f 256 305 304
f 256 304 257
f 257 304 303
f 257 303 306
f 257 306 307
f 257 307 308
f 257 308 309
f 257 309 310
f 257 310 311
f 257 311 258
f 258 260 259
f 258 311 260
f 260 311 312
f 260 312 261
f 261 312 313
f 261 313 262
f 262 313 263
f 263 313 314
f 263 314 315
f 263 315 271
f 264 270 316
f 264 316 317
f 264 317 275
f 265 273 318
f 265 318 266
f 266 318 267
f 267 319 320
f 267 320 321
f 267 321 322
f 267 322 323
f 267 323 324
f 267 324 269
f 267 269 268
f 267 318 319
f 269 324 270
f 270 324 316
f 271 315 325
f 271 325 272
f 272 325 326
f 272 326 327
f 272 327 328
f 272 328 273
f 273 328 319
f 273 319 318
f 274 277 278
f 275 317 276
f 276 317 329
f 276 329 330
f 276 330 277
f 277 330 331
f 277 331 278
f 278 331 282
f 278 282 332
f 278 332 279
f 279 332 282
f 280 283 333
f 280 333 281
f 281 334 335
f 281 335 284
f 281 333 334
f 282 331 330
f 282 330 333
f 282 333 283
f 284 335 336
f 284 336 337
f 284 337 338
f 284 338 285
f 285 338 339
f 285 339 286
f 286 340 341
f 286 341 287
f 286 339 342
f 286 342 343
f 286 343 340
f 287 341 288
f 288 341 289
f 289 341 290
f 290 341 344
f 290 344 291
f 291 344 345
f 291 345 346
f 291 346 292
f 292 346 347
f 292 347 293
f 293 347 348
f 293 348 349
f 293 349 350
f 293 350 351
f 293 351 352
f 293 352 353
f 293 353 294
f 294 353 354
f 294 354 299
f 294 299 295
f 295 299 296
f 299 354 300
f 300 354 353
f 300 353 352
f 300 352 355
f 300 355 356
f 301 357 398
f 301 398 443
f 301 443 486
f 301 486 487
f 301 487 445
f 301 445 400
f 301 400 358
f 301 358 308
f 301 308 307
f 301 307 306
f 301 306 303
f 301 303 302
f 308 358 359
f 308 359 309
f 309 359 310
f 310 358 360
f 310 360 311
f 310 359 358
f 311 360 312
f 312 360 313
f 313 360 314
f 314 360 361
f 314 361 362
f 314 362 315
f 315 362 363
f 315 363 364
f 315 364 365
f 315 365 325
f 316 329 317
f 316 324 366
f 316 366 367
f 316 367 329
f 319 328 320
f 320 328 321
f 321 328 368
f 321 368 369
f 321 369 370
f 321 370 371
f 321 371 322
f 322 371 372
f 322 372 373
f 322 373 374
f 322 374 375
f 322 375 323
f 323 376 366
f 323 366 324
f 323 375 376
f 325 365 368
f 325 368 326
f 326 368 327
f 327 368 328
f 329 377 330
f 329 367 377
f 330 377 333
f 333 377 378
f 333 378 379
f 333 379 380
f 333 380 334
f 334 380 381
f 334 381 382
f 334 382 335
f 335 382 336
f 336 382 383
f 336 383 337
f 337 384 338
f 337 383 385
f 337 385 384
f 338 384 339
f 339 384 386
f 339 386 387
f 339 387 342
f 340 388 341
f 340 343 389
f 340 389 390
f 340 390 391
f 340 391 388
f 341 388 344
f 342 387 392
f 342 392 343
f 343 392 389
f 344 388 345
f 345 388 346
f 346 388 393
f 346 393 347
f 347 393 348
f 348 393 394
f 348 394 349
f 349 394 395
f 349 395 435
f 349 435 478
f 349 478 517
f 349 517 523
f 349 523 482
f 349 482 437
f 349 437 396
f 349 396 356
f 349 356 355
f 349 355 352
f 349 352 351
f 349 351 350
f 357 397 398
f 358 399 360
f 358 400 399
f 360 399 361
f 361 401 362
f 361 399 402
f 361 402 403
f 361 403 404
f 361 404 401
f 362 401 405
f 362 405 406
f 362 406 363
f 363 406 364
f 364 406 365
f 365 406 369
f 365 369 368
f 366 376 407
f 366 407 408
f 366 408 367
f 367 408 409
f 367 409 378
f 367 378 377
f 369 406 370
f 370 406 410
f 370 410 411
f 370 411 412
f 370 412 371
f 371 412 413
f 371 413 372
f 372 413 414
f 372 414 415
f 372 415 373
f 373 415 414
f 373 414 416
f 373 416 417
f 373 417 418
f 373 418 374
f 374 418 419
f 374 419 375
f 375 419 420
f 375 420 421
f 375 421 376
f 376 422 407
f 376 421 422
f 378 409 423
f 378 423 379
f 379 382 380
f 379 423 424
f 379 424 425
f 379 425 382
f 380 382 381
f 382 425 426
f 382 426 427
f 382 427 428
f 382 428 383
f 383 428 386
f 383 386 385
f 384 385 386
f 386 428 427
f 386 427 392
f 386 392 387
f 388 391 429
f 388 429 395
f 388 395 393
f 389 392 434
f 389 434 430
f 389 430 390
f 390 430 391
f 391 430 431
f 391 431 432
f 391 432 429
f 392 427 433
f 392 433 434
f 393 395 394
f 395 429 435
f 396 437 436
f 397 438 439
f 397 439 440
f 397 440 441
f 397 441 442
f 397 442 398
f 398 442 441
f 398 441 440
f 398 440 439
f 398 439 484
f 398 484 525
f 398 525 551
f 398 551 567
f 398 567 571
f 398 571 575
f 398 575 579
f 398 579 583
f 398 583 585
f 398 585 582
f 398 582 577
f 398 577 573
f 398 573 569
f 398 569 564
f 398 564 546
f 398 546 520
f 398 520 519
f 398 519 481
f 398 481 480
f 398 480 437
f 398 437 482
f 398 482 522
f 398 522 549
f 398 549 565
f 398 565 561
f 398 561 560
f 398 560 558
f 398 558 533
f 398 533 501
f 398 501 460
f 398 460 500
f 398 500 535
f 398 535 557
f 398 557 556
f 398 556 555
f 398 555 552
f 398 552 526
f 398 526 485
f 398 485 443
f 399 400 444
f 399 444 402
f 400 445 444
f 401 404 405
f 402 444 403
f 403 444 404
f 404 444 446
f 404 446 410
f 404 410 405
f 405 410 406
f 407 422 448
f 407 448 408
f 408 447 409
f 408 448 447
f 409 447 423
f 410 446 411
f 411 446 449
f 411 449 450
f 411 450 451
f 411 451 412
f 412 451 452
f 412 452 453
f 412 453 413
f 413 453 414
f 414 453 416
f 416 453 454
f 416 454 417
f 417 455 418
f 417 454 456
f 417 456 457
f 417 457 455
f 418 455 419
f 419 458 461
f 419 461 420
f 419 455 457
f 419 457 459
f 419 459 460
f 419 460 458
f 420 461 462
f 420 462 421
f 421 462 489
f 421 489 463
f 421 463 422
f 422 463 489
f 422 489 448
f 423 464 424
f 423 447 465
f 423 465 466
f 423 466 464
f 424 464 466
f 424 466 425
f 425 467 426
f 425 466 467
f 426 468 427
f 426 467 469
f 426 469 470
f 426 470 468
f 427 468 433
f 429 432 471
f 429 471 435
f 430 434 472
f 430 472 471
f 430 471 431
f 431 471 432
f 433 473 434
f 433 468 474
f 433 474 475
f 433 475 476
f 433 476 473
f 434 473 477
f 434 477 472
f 435 471 478
f 436 437 480
f 436 480 481
f 436 481 479
f 438 483 439
f 439 483 484
f 443 485 486
f 444 445 487
f 444 487 488
f 444 488 446
f 446 488 449
f 447 448 489
f 447 489 465
f 449 490 491
f 449 491 450
f 449 488 490
f 450 491 492
f 450 492 493
f 450 493 451
f 451 493 452
f 452 493 454
f 452 454 453
f 454 494 456
f 454 493 494
f 456 494 495
f 456 495 459
f 456 459 457
f 458 496 461
f 458 460 497
f 458 497 498
f 458 498 496
f 459 495 499
f 459 499 460
f 460 499 500
f 460 501 497
f 461 502 462
f 461 496 503
f 461 503 502
f 462 465 489
f 462 502 465
f 465 502 466
f 466 502 503
f 466 503 504
f 466 504 469
f 466 469 467
f 468 470 505
f 468 505 506
f 468 506 507
f 468 507 508
f 468 508 474
f 469 504 509
f 469 509 470
f 470 509 510
f 470 510 505
f 471 472 511
f 471 511 512
f 471 512 517
f 471 517 478
f 472 477 513
f 472 513 511
f 473 476 477
f 474 508 514
f 474 514 475
f 475 514 515
f 475 515 476
f 476 516 477
f 476 515 516
f 477 516 513
f 479 481 519
f 479 519 520
f 479 520 518
f 482 521 522
f 482 523 521
f 483 524 525
f 483 525 484
f 485 526 527
f 485 527 486
f 486 527 490
f 486 490 487
f 487 490 488
f 490 527 528
f 490 528 491
f 491 528 529
f 491 529 492
f 492 529 530
f 492 530 494
f 492 494 493
f 494 530 495
f 495 530 531
f 495 531 532
f 495 532 499
f 496 498 503
f 497 501 533
f 497 533 534
f 497 534 503
f 497 503 498
f 499 532 500
f 500 532 535
f 503 536 504
f 503 534 537
f 503 537 538
f 503 538 536
f 504 536 510
f 504 510 509
f 505 510 506
f 506 510 507
f 507 510 508
f 508 510 539
f 508 539 514
f 510 536 539
f 511 513 540
f 511 540 523
f 511 523 512
f 512 523 517
f 513 516 541
f 513 541 542
f 513 542 540
f 514 539 515
f 515 539 543
f 515 543 544
f 515 544 516
f 516 544 541
f 518 520 545
f 520 546 545
f 521 547 544
f 521 544 522
f 521 523 540
f 521 540 547
f 522 544 548
f 522 548 549
f 524 550 525
f 525 550 551
f 526 552 527
f 527 552 553
f 527 553 554
f 527 554 528
f 528 554 553
f 528 553 529
f 529 553 530
f 530 553 555
f 530 555 531
f 531 555 556
f 531 556 532
f 532 556 557
f 532 557 535
f 533 558 537
f 533 537 534
f 536 538 539
f 537 543 539
f 537 539 538
f 537 558 559
f 537 559 543
f 540 542 547
f 541 544 542
f 542 544 547
f 543 559 560
f 543 560 561
f 543 561 562
f 543 562 548
f 543 548 544
f 545 546 564
f 545 564 563
f 548 562 549
f 549 562 565
f 550 566 567
f 550 567 551
f 552 555 553
f 558 560 559
f 561 565 562
f 563 564 568
f 564 569 568
f 566 570 567
f 567 570 571
f 568 569 573
f 568 573 572
f 570 574 571
f 571 574 575
f 572 573 576
f 573 577 576
f 574 578 575
f 575 578 580
f 575 580 579
f 576 577 582
f 576 582 581
f 579 580 584
f 579 584 583
f 581 582 584
f 582 585 584
f 583 584 585
