# https://github.com/mikedh/trimesh
v 0.01736681 -0.00000421 -0.00459996
v 0.01736681 -0.00000421 -0.01348333
v 0.01736342 -0.00000421 -0.00396317
v 0.01736681 -0.00571181 -0.00333091
v 0.01736681 -0.00698143 -0.01348333
v 0.01735833 -0.00000421 -0.01471767
v 0.01736002 -0.00000421 -0.00333091
v 0.01736681 -0.01332627 -0.00206186
v 0.01736681 -0.01078704 -0.01221428
v 0.01732946 -0.00825104 -0.01348333
v 0.01730739 -0.00447778 -0.01471767
v 0.01734135 -0.00320978 -0.01471767
v 0.01735833 -0.00067056 -0.01471767
v 0.00548128 -0.00000421 -0.01471767
v 0.01730060 -0.00000421 -0.00206186
v 0.01735153 -0.01652537 -0.00140093
v 0.01736681 -0.01652537 -0.00206186
v 0.01736681 -0.01332627 -0.01094522
v 0.01734135 -0.01652537 -0.00967617
v 0.01731079 -0.01459588 -0.01094522
v 0.01729381 -0.01205665 -0.01221428
v 0.01720723 -0.00951904 -0.01348333
v 0.01721063 -0.00574740 -0.01471767
v 0.00002490 -0.00548053 -0.01471767
v 0.00002490 -0.00546921 -0.01414124
v 0.00546940 -0.00000421 -0.01348333
v 0.01723270 -0.00000421 -0.00079281
v 0.01729381 -0.01652537 -0.00079281
v 0.01736681 -0.01652537 -0.00901524
v 0.01736681 -0.01586388 -0.00967617
v 0.01713593 -0.01652537 -0.01041859
v 0.01693220 -0.01652537 -0.01093466
v 0.01687788 -0.01459588 -0.01201811
v 0.01686090 -0.01205665 -0.01324340
v 0.01677432 -0.00951904 -0.01437212
v 0.01689486 -0.00825104 -0.01457885
v 0.01691014 -0.00763807 -0.01471767
v 0.00002490 -0.01652537 -0.01471767
v 0.00002490 -0.00546274 -0.00779447
v 0.00546261 -0.00000421 -0.01031296
v 0.01705444 -0.00000421 -0.00027825
v 0.01685921 -0.00000421 0.00023481
v 0.01706802 -0.01652537 -0.00025561
v 0.01651287 -0.01652537 -0.01154127
v 0.01671490 -0.01564877 -0.01177516
v 0.01669283 -0.01304808 -0.01301404
v 0.01662492 -0.01041828 -0.01422122
v 0.01681506 -0.00811519 -0.01471767
v 0.01657909 -0.00899826 -0.01471767
v 0.00002490 -0.01652537 0.00037816
v 0.00933674 -0.01652537 -0.01471767
v 0.00002490 -0.00546274 -0.00206186
v 0.00546261 -0.00000421 -0.00586902
v 0.01636348 -0.00000421 0.00044908
v 0.01685921 -0.01652537 0.00016087
v 0.01647553 -0.01652537 -0.01157145
v 0.01649590 -0.01649626 -0.01157749
v 0.01644327 -0.01389395 -0.01281485
v 0.01639064 -0.01126415 -0.01405674
v 0.01616485 -0.00991529 -0.01471767
v 0.00002490 -0.01618249 0.00052604
v 0.00063607 -0.01652537 0.00038420
v 0.00954555 -0.01640892 -0.01471767
v 0.00953876 -0.01652537 -0.01464373
v 0.00002490 -0.00546760 -0.00145072
v 0.00546600 -0.00000421 -0.00206186
v 0.01586436 -0.00000421 0.00066185
v 0.01586436 -0.00063497 0.00066034
v 0.01631934 -0.01652537 0.00029517
v 0.01512756 -0.01652537 -0.01222937
v 0.01459958 -0.01205827 -0.01471767
v 0.01284077 -0.01397967 -0.01471767
v 0.01343157 -0.01343463 -0.01471767
v 0.01396464 -0.01282489 -0.01471767
v 0.01521075 -0.01130297 -0.01471767
v 0.01592547 -0.01215693 -0.01391339
v 0.01572684 -0.01061883 -0.01471767
v 0.00002490 -0.01586388 0.00066185
v 0.01581343 -0.01652537 0.00032082
v 0.00063607 -0.01586388 0.00066487
v 0.00991225 -0.01619705 -0.01471767
v 0.00992074 -0.01652537 -0.01450038
v 0.00002490 -0.00548053 -0.00079281
v 0.00547958 -0.00000421 -0.00079281
v 0.01522772 -0.00000421 0.00068147
v 0.01459449 -0.00317420 0.00069806
v 0.01459449 -0.00444382 0.00069052
v 0.01332631 -0.00825104 0.00067996
v 0.01462504 -0.01652537 -0.01246477
v 0.01391711 -0.01646553 -0.01282994
v 0.01207002 -0.01461044 -0.01471767
v 0.00002490 -0.01459588 0.00069806
v 0.00825022 -0.01332627 0.00067996
v 0.00444229 -0.01459588 0.00069354
v 0.00317412 -0.01459588 0.00069806
v 0.01025009 -0.01652537 -0.01437513
v 0.01059982 -0.01570538 -0.01471767
v 0.01140622 -0.01652537 -0.01388321
v 0.00002490 -0.00569402 -0.00028881
v 0.00592098 -0.00000421 0.00023933
v 0.01459449 -0.00000421 0.00069806
v 0.01332631 -0.00698143 0.00069806
v 0.00698204 -0.01332627 0.00069806
v 0.01397653 -0.01652537 -0.01276807
v 0.01387636 -0.01652537 -0.01281334
v 0.01205304 -0.01462337 -0.01471767
v 0.00002490 -0.00825104 0.00069806
v 0.01129587 -0.01518944 -0.01471767
v 0.01279833 -0.01652537 -0.01328414
v 0.01212095 -0.01652537 -0.01357688
v 0.00002490 -0.00592207 0.00023933
v 0.00644387 -0.00000421 0.00045361
v 0.00825022 -0.00000421 0.00069806
v 0.01318540 -0.01652537 -0.01311514
v 0.00002490 -0.00698143 0.00066638
v 0.00761358 -0.00000421 0.00068901
v 0.00698204 -0.00000421 0.00066788
f 1 2 6
f 1 6 14
f 1 14 26
f 1 26 40
f 1 40 53
f 1 53 66
f 1 66 84
f 1 84 100
f 1 100 112
f 1 112 117
f 1 117 116
f 1 116 113
f 1 113 101
f 1 101 85
f 1 85 67
f 1 67 54
f 1 54 42
f 1 42 41
f 1 41 27
f 1 27 15
f 1 15 7
f 1 7 3
f 1 3 4
f 1 4 8
f 1 8 17
f 1 17 29
f 1 29 30
f 1 30 18
f 1 18 9
f 1 9 5
f 1 5 2
f 2 5 13
f 2 13 6
f 3 7 4
f 4 7 8
f 5 9 10
f 5 10 11
f 5 11 12
f 5 12 13
f 6 13 12
f 6 12 11
f 6 11 23
f 6 23 37
f 6 37 48
f 6 48 49
f 6 49 60
f 6 60 77
f 6 77 75
f 6 75 71
f 6 71 74
f 6 74 73
f 6 73 72
f 6 72 91
f 6 91 106
f 6 106 108
f 6 108 97
f 6 97 81
f 6 81 63
f 6 63 51
f 6 51 38
f 6 38 24
f 6 24 14
f 7 15 8
f 8 15 16
f 8 16 17
f 9 18 19
f 9 19 20
f 9 20 21
f 9 21 10
f 10 21 22
f 10 22 23
f 10 23 11
f 14 24 25
f 14 25 26
f 15 27 16
f 16 27 28
f 16 28 43
f 16 43 55
f 16 55 69
f 16 69 79
f 16 79 62
f 16 62 50
f 16 50 38
f 16 38 51
f 16 51 64
f 16 64 82
f 16 82 96
f 16 96 98
f 16 98 110
f 16 110 109
f 16 109 114
f 16 114 105
f 16 105 104
f 16 104 89
f 16 89 70
f 16 70 56
f 16 56 44
f 16 44 32
f 16 32 31
f 16 31 19
f 16 19 29
f 16 29 17
f 18 30 19
f 19 31 20
f 19 30 29
f 20 31 32
f 20 32 33
f 20 33 21
f 21 33 34
f 21 34 22
f 22 34 35
f 22 35 36
f 22 36 23
f 23 36 37
f 24 38 50
f 24 50 61
f 24 61 78
f 24 78 92
f 24 92 107
f 24 107 115
f 24 115 111
f 24 111 99
f 24 99 83
f 24 83 65
f 24 65 52
f 24 52 39
f 24 39 25
f 25 39 40
f 25 40 26
f 27 41 28
f 28 41 42
f 28 42 43
f 32 44 45
f 32 45 33
f 33 45 34
f 34 45 46
f 34 46 47
f 34 47 35
f 35 48 36
f 35 47 49
f 35 49 48
f 36 48 37
f 39 52 53
f 39 53 40
f 42 54 55
f 42 55 43
f 44 56 57
f 44 57 45
f 45 57 46
f 46 57 58
f 46 58 59
f 46 59 47
f 47 59 60
f 47 60 49
f 50 62 61
f 51 63 64
f 52 65 66
f 52 66 53
f 54 67 68
f 54 68 55
f 55 68 69
f 56 70 57
f 57 71 58
f 57 70 72
f 57 72 73
f 57 73 74
f 57 74 71
f 58 71 75
f 58 75 76
f 58 76 59
f 59 76 75
f 59 75 77
f 59 77 60
f 61 62 78
f 62 79 80
f 62 80 78
f 63 81 82
f 63 82 64
f 65 83 84
f 65 84 66
f 67 85 86
f 67 86 68
f 68 86 87
f 68 87 69
f 69 87 88
f 69 88 79
f 70 89 90
f 70 90 72
f 72 90 91
f 78 80 92
f 79 88 93
f 79 93 94
f 79 94 80
f 80 94 95
f 80 95 92
f 81 96 82
f 81 97 98
f 81 98 96
f 83 99 84
f 84 99 100
f 85 101 86
f 86 102 87
f 86 101 113
f 86 113 107
f 86 107 92
f 86 92 95
f 86 95 103
f 86 103 102
f 87 102 88
f 88 102 103
f 88 103 93
f 89 104 90
f 90 104 105
f 90 105 91
f 91 105 106
f 93 103 94
f 94 103 95
f 97 108 109
f 97 109 110
f 97 110 98
f 99 111 100
f 100 111 112
f 105 114 106
f 106 114 109
f 106 109 108
f 107 113 116
f 107 116 115
f 111 115 112
f 112 115 117
f 115 116 117

