# https://github.com/mikedh/trimesh
v 0.02368057 0.03663563 0.02459143
v 0.02368057 0.03676198 0.02586030
v 0.02368057 0.03670061 0.01063178
v 0.03685568 0.02268981 0.01063178
v 0.03682401 0.02268981 0.02332255
v 0.03682401 0.02268981 0.02459143
v 0.03678530 0.02280894 0.02525989
v 0.03694013 0.02268981 0.02538197
v 0.02402543 0.03675115 0.02656279
v 0.02368057 0.03726378 0.02675092
v 0.02368057 0.03672227 0.00966111
v 0.03686272 0.02268981 0.01010141
v 0.03734834 0.02268981 0.02592435
v 0.03792193 0.02268981 0.02664084
v 0.02368057 0.03744429 0.02685499
v 0.03867148 0.02268981 0.02711117
v 0.02368057 0.03673310 0.00936290
v 0.03694013 0.02268981 0.00983723
v 0.02368057 0.03681613 0.00886256
v 0.02368057 0.03871143 0.02742739
v 0.03998055 0.02268981 0.02759950
v 0.03718295 0.02268981 0.00940493
v 0.02394801 0.03670422 0.00858036
v 0.02368057 0.03713743 0.00837822
v 0.02368057 0.03998219 0.02765154
v 0.04125090 0.02268981 0.02768556
v 0.03998055 0.02348042 0.02766555
v 0.03726740 0.02268981 0.00925883
v 0.03780229 0.02268981 0.00848830
v 0.03765449 0.02268981 0.00867843
v 0.02368057 0.03728183 0.00826614
v 0.03857647 0.02268981 0.00787187
v 0.03822105 0.02268981 0.00815207
v 0.02475034 0.03998219 0.02768356
v 0.02368057 0.04124572 0.02768556
v 0.05520722 0.02268981 0.02768556
v 0.02368057 0.03833598 0.00762170
v 0.03922044 0.02268981 0.00741956
v 0.02368057 0.05520959 0.02768556
v 0.05647758 0.02268981 0.02766755
v 0.05520722 0.02475117 0.02768556
v 0.02368057 0.03842985 0.00758567
v 0.03923804 0.02268981 0.00741155
v 0.02475034 0.05520959 0.02768556
v 0.02368057 0.05647674 0.02763553
v 0.05774794 0.02268981 0.02740137
v 0.05647758 0.02348042 0.02764153
v 0.05520722 0.02602193 0.02766555
v 0.05394039 0.02728908 0.02768556
v 0.02368057 0.03892804 0.00741756
v 0.03963920 0.02268981 0.00735351
v 0.02368057 0.03905078 0.00738754
v 0.02602070 0.05520959 0.02765955
v 0.02729106 0.05393884 0.02768556
v 0.02475034 0.05647674 0.02756748
v 0.02368057 0.05776555 0.02731130
v 0.05876141 0.02268981 0.02682297
v 0.05774794 0.02348042 0.02728329
v 0.05647758 0.02602193 0.02743139
v 0.05647758 0.02475117 0.02755547
v 0.05520722 0.02728908 0.02758549
v 0.05394039 0.02855983 0.02765354
v 0.05139968 0.03236488 0.02768156
v 0.05013284 0.03363563 0.02768556
v 0.03997351 0.02268981 0.00731349
v 0.02368057 0.03978724 0.00729347
v 0.02729106 0.05520959 0.02756348
v 0.03236544 0.05140094 0.02768356
v 0.02855789 0.05393884 0.02764954
v 0.03363580 0.05013018 0.02768556
v 0.02602070 0.05647674 0.02740137
v 0.02486647 0.05786663 0.02697908
v 0.02368057 0.05789912 0.02723525
v 0.05934556 0.02268981 0.02591234
v 0.05863120 0.02348042 0.02673090
v 0.05754032 0.02602193 0.02685499
v 0.05647758 0.02728908 0.02716320
v 0.05520722 0.02855983 0.02740337
v 0.05394039 0.02982698 0.02755347
v 0.05267003 0.03109773 0.02763753
v 0.05013284 0.03490639 0.02764954
v 0.04886248 0.03617353 0.02767355
v 0.04759213 0.03744429 0.02768356
v 0.04632529 0.03871143 0.02768556
v 0.04077232 0.02268981 0.00724744
v 0.02368057 0.03998219 0.00727746
v 0.03109861 0.05267169 0.02763753
v 0.03363580 0.05140094 0.02761351
v 0.02982825 0.05393884 0.02753546
v 0.03871371 0.04632514 0.02768556
v 0.03744335 0.04759228 0.02768356
v 0.03617299 0.04886304 0.02767355
v 0.03490616 0.05013018 0.02764954
v 0.03236544 0.05267169 0.02749343
v 0.02855789 0.05520959 0.02734533
v 0.02736144 0.05657060 0.02697307
v 0.02602070 0.05755977 0.02683297
v 0.02452161 0.05855255 0.02666486
v 0.02368057 0.05869334 0.02678094
v 0.05961301 0.02268981 0.02459143
v 0.05906404 0.02348042 0.02586030
v 0.05832505 0.02523854 0.02610247
v 0.05847285 0.02439377 0.02659281
v 0.05728343 0.02728908 0.02666886
v 0.05646703 0.02845875 0.02678894
v 0.05529520 0.02989557 0.02696907
v 0.05394039 0.03109773 0.02730130
v 0.05267003 0.03236488 0.02748943
v 0.05139968 0.03363563 0.02760351
v 0.04886248 0.03744429 0.02758749
v 0.04759213 0.03871143 0.02762352
v 0.04632529 0.03998219 0.02764554
v 0.04505493 0.03998219 0.02768556
v 0.04125090 0.02268981 0.00723944
v 0.02368057 0.04105439 0.00723944
v 0.03744335 0.04886304 0.02759150
v 0.03617299 0.05013018 0.02752946
v 0.04505493 0.04124572 0.02764554
v 0.04251774 0.04378723 0.02764153
v 0.03998055 0.04632514 0.02763553
v 0.03871371 0.04759228 0.02762352
v 0.03490616 0.05140094 0.02740337
v 0.03109861 0.05393884 0.02727328
v 0.02983529 0.05526736 0.02692304
v 0.02698490 0.05729623 0.02665885
v 0.02855789 0.05621320 0.02678494
v 0.02536617 0.05837204 0.02647272
v 0.02368057 0.05927457 0.02586430
v 0.05961652 0.02268981 0.02332255
v 0.05959893 0.02272952 0.02332255
v 0.05839191 0.02540460 0.02332255
v 0.05838840 0.02540099 0.02459143
v 0.05838488 0.02539377 0.02525588
v 0.05713564 0.02796777 0.02652476
v 0.05603419 0.02951651 0.02666686
v 0.05490811 0.03109773 0.02675492
v 0.05395798 0.03232517 0.02686700
v 0.05277912 0.03373671 0.02702511
v 0.05013284 0.03744429 0.02717321
v 0.05139968 0.03490639 0.02735734
v 0.05013284 0.03617353 0.02750944
v 0.04759213 0.03998219 0.02743339
v 0.04632529 0.04124572 0.02744740
v 0.05520722 0.02268981 0.00723944
v 0.02368057 0.05520959 0.00723944
v 0.03998055 0.04759228 0.02737335
v 0.03871371 0.04886304 0.02733132
v 0.03744335 0.05013018 0.02725126
v 0.04505493 0.04251648 0.02743739
v 0.04251774 0.04505438 0.02741137
v 0.04125090 0.04632514 0.02739736
v 0.03363580 0.05267169 0.02717721
v 0.03230914 0.05396050 0.02685699
v 0.02783298 0.05705436 0.02641468
v 0.03109861 0.05485220 0.02672690
v 0.02941653 0.05597133 0.02661282
v 0.02833268 0.05729262 0.02557010
v 0.02569343 0.05851645 0.02562814
v 0.02486647 0.05875832 0.02597438
v 0.03079245 0.05604353 0.02551006
v 0.02368057 0.05956338 0.02459143
v 0.05962004 0.02268981 0.02078279
v 0.05960245 0.02273674 0.01824504
v 0.05869103 0.02475117 0.01951392
v 0.05810688 0.02604359 0.01951392
v 0.05689635 0.02871506 0.02205367
v 0.05597437 0.03075116 0.02332255
v 0.05568581 0.03138293 0.02459143
v 0.05716379 0.02803276 0.02586030
v 0.05523890 0.03236488 0.02459143
v 0.05476383 0.03334321 0.02459143
v 0.05470049 0.03322769 0.02543200
v 0.05439434 0.03271867 0.02627659
v 0.05466530 0.03187390 0.02657880
v 0.05354978 0.03338293 0.02669688
v 0.05242722 0.03490639 0.02679895
v 0.05144190 0.03616631 0.02690903
v 0.05009413 0.03859591 0.02675692
v 0.04887656 0.03997136 0.02688701
v 0.04886248 0.03871143 0.02734733
v 0.04762732 0.04128544 0.02692904
v 0.05599900 0.02268981 0.00724144
v 0.05520722 0.02475117 0.00723944
v 0.02368057 0.05628179 0.00726946
v 0.02475034 0.05520959 0.00723944
v 0.03995239 0.04883777 0.02683097
v 0.04123331 0.04758145 0.02685499
v 0.03864685 0.05008686 0.02678694
v 0.03817882 0.05084859 0.02657880
v 0.03744335 0.05108686 0.02674892
v 0.03622930 0.05148397 0.02695306
v 0.04635344 0.04255258 0.02691703
v 0.03584221 0.05221682 0.02665685
v 0.03478299 0.05265003 0.02677693
v 0.03184463 0.05463920 0.02655878
v 0.03026109 0.05572584 0.02635665
v 0.02982825 0.05678360 0.02459143
v 0.02918075 0.05710490 0.02459143
v 0.02585531 0.05859226 0.02459143
v 0.02380373 0.05950923 0.02459143
v 0.03316778 0.05467530 0.02539798
v 0.03096840 0.05615544 0.02459143
v 0.03427626 0.05330707 0.02649874
v 0.03668677 0.05196050 0.02637466
v 0.02368057 0.05957060 0.02332255
v 0.05962708 0.02268981 0.01444041
v 0.05718490 0.02807969 0.02078279
v 0.05597437 0.03075116 0.02205367
v 0.05524242 0.03236488 0.02332255
v 0.05476383 0.03334683 0.02332255
v 0.05441193 0.03398220 0.01063178
v 0.05440490 0.03398220 0.01444041
v 0.05439786 0.03398220 0.01824504
v 0.05439082 0.03397859 0.02205367
v 0.05438730 0.03397859 0.02332255
v 0.05438378 0.03397498 0.02459143
v 0.05399669 0.03372949 0.02594836
v 0.05206476 0.03684140 0.02530392
v 0.05077682 0.03809411 0.02650675
v 0.05327882 0.03423130 0.02646472
v 0.05216330 0.03574032 0.02660882
v 0.05098795 0.03744429 0.02667487
v 0.04964722 0.03954176 0.02663684
v 0.04846484 0.04089194 0.02669088
v 0.04722615 0.04215186 0.02667887
v 0.05647758 0.02268981 0.00725945
v 0.05394039 0.02728908 0.00723944
v 0.05520722 0.02602193 0.00725945
v 0.02368057 0.05648396 0.00728747
v 0.02602070 0.05520959 0.00726946
v 0.02982825 0.05267169 0.00723944
v 0.04079695 0.04840095 0.02662283
v 0.03950900 0.04963199 0.02661082
v 0.04595227 0.04340095 0.02666886
v 0.04337285 0.04590276 0.02664684
v 0.03840756 0.05103632 0.02586030
v 0.03704219 0.05219516 0.02553007
v 0.04333063 0.04711214 0.02543200
v 0.04197933 0.04830708 0.02535795
v 0.04062452 0.04950563 0.02523987
v 0.02982825 0.05679443 0.02332255
v 0.03097544 0.05616266 0.02332255
v 0.02918779 0.05711212 0.02332255
v 0.02650280 0.05831428 0.02332255
v 0.02475034 0.05909767 0.02332255
v 0.02380373 0.05951645 0.02332255
v 0.03554309 0.05330707 0.02522987
v 0.03161238 0.05576916 0.02332255
v 0.03555013 0.05331068 0.02459143
v 0.02368057 0.05955255 0.02205367
v 0.02919131 0.05711212 0.01316953
v 0.02918427 0.05710851 0.01190066
v 0.05718490 0.02807969 0.01951392
v 0.05962356 0.02268981 0.01307547
v 0.05960245 0.02274035 0.01316953
v 0.05639313 0.02982698 0.02078279
v 0.05568581 0.03138654 0.02205367
v 0.05597437 0.03074755 0.02078279
v 0.05523538 0.03236488 0.02078279
v 0.05474272 0.03335043 0.01063178
v 0.05475679 0.03334683 0.01824504
v 0.05476031 0.03334683 0.02078279
v 0.05377500 0.03484502 0.01063178
v 0.05377500 0.03484502 0.01190066
v 0.05468642 0.03323491 0.00973316
v 0.05085423 0.03818797 0.00862439
v 0.05376796 0.03483779 0.01570929
v 0.05376092 0.03482697 0.01951392
v 0.05375036 0.03481974 0.02332255
v 0.05374685 0.03481614 0.02459143
v 0.04923550 0.04029627 0.02586030
v 0.04974575 0.03966089 0.02586030
v 0.04860208 0.04106161 0.02586030
v 0.04456931 0.04587026 0.02544201
v 0.04377754 0.04631070 0.02586030
v 0.04422093 0.04549842 0.02628860
v 0.05707581 0.02268981 0.00732750
v 0.05647758 0.02348042 0.00729147
v 0.05267003 0.02982698 0.00723944
v 0.05139968 0.03236488 0.00724144
v 0.05394039 0.02855983 0.00727146
v 0.05525649 0.02731073 0.00734351
v 0.05612568 0.02602193 0.00736953
v 0.02602070 0.05611573 0.00737953
v 0.02368057 0.05720598 0.00737953
v 0.03236544 0.05248036 0.00734951
v 0.02855789 0.05393884 0.00728347
v 0.03236544 0.05140094 0.00724144
v 0.03744335 0.04759228 0.00723944
v 0.04292946 0.04674752 0.02627659
v 0.03779877 0.05182332 0.02459143
v 0.03716183 0.05227819 0.02459143
v 0.04406609 0.04659950 0.02459143
v 0.04342916 0.04719517 0.02459143
v 0.04266906 0.04783055 0.02459143
v 0.04126849 0.04898939 0.02459143
v 0.04063508 0.04951286 0.02459143
v 0.03923100 0.05066809 0.02459143
v 0.03859406 0.05119155 0.02459143
v 0.02982825 0.05679443 0.01190066
v 0.02919131 0.05711212 0.01951392
v 0.03097544 0.05616266 0.01444041
v 0.02650280 0.05831428 0.01951392
v 0.03618355 0.05291357 0.02459143
v 0.03161238 0.05576916 0.01697816
v 0.03390324 0.05434678 0.02332255
v 0.03555717 0.05331790 0.02332255
v 0.02372632 0.05950200 0.02078279
v 0.02368057 0.05952005 0.02078279
v 0.02914908 0.05709407 0.01063178
v 0.02643594 0.05829984 0.01570929
v 0.02982825 0.05677277 0.01063178
v 0.05962004 0.02268981 0.01181460
v 0.05961652 0.02268981 0.01063178
v 0.05959893 0.02272952 0.01063178
v 0.05809984 0.02603637 0.01316953
v 0.05839191 0.02540460 0.01444041
v 0.05567877 0.03136849 0.01697816
v 0.05521426 0.03236488 0.01444041
v 0.05520019 0.03236488 0.01063178
v 0.05716379 0.02803637 0.00936290
v 0.05714267 0.02798943 0.00867243
v 0.05325419 0.03548039 0.01063178
v 0.05091757 0.03826378 0.00936290
v 0.05041084 0.03889916 0.00936290
v 0.04977390 0.03968255 0.00936290
v 0.05325419 0.03548039 0.01190066
v 0.05094572 0.03829627 0.01570929
v 0.05586528 0.03050207 0.00870044
v 0.05423950 0.03364646 0.00933088
v 0.05358849 0.03463202 0.00936290
v 0.05111112 0.03744429 0.00841024
v 0.05011524 0.03865367 0.00830617
v 0.04967889 0.03956703 0.00851031
v 0.04861615 0.04108688 0.00936290
v 0.05336680 0.03436848 0.00866042
v 0.05225127 0.03588112 0.00851832
v 0.05157563 0.03751288 0.01824504
v 0.04926365 0.04032876 0.02205367
v 0.05208236 0.03686667 0.02332255
v 0.05323307 0.03544790 0.02459143
v 0.05092813 0.03827461 0.02459143
v 0.04580096 0.04455619 0.02459143
v 0.04464673 0.04596413 0.02459143
v 0.04576225 0.04450926 0.02537797
v 0.05736789 0.02268981 0.00736953
v 0.05013284 0.03363563 0.00723944
v 0.05267003 0.03109773 0.00728347
v 0.04759213 0.03744429 0.00723944
v 0.04886248 0.03617353 0.00725345
v 0.05013284 0.03490639 0.00727546
v 0.05396502 0.02979809 0.00735351
v 0.05485885 0.02855983 0.00738153
v 0.05597085 0.02689918 0.00741356
v 0.05725528 0.02348042 0.00739955
v 0.02368057 0.05729623 0.00739554
v 0.02428936 0.05718793 0.00743157
v 0.02679840 0.05592801 0.00742556
v 0.03334724 0.05220960 0.00738554
v 0.03371674 0.05148036 0.00732750
v 0.03490616 0.05013018 0.00727746
v 0.03617299 0.04886304 0.00725345
v 0.03998055 0.04632514 0.00728747
v 0.04125090 0.04505438 0.00728146
v 0.04505493 0.04124572 0.00727746
v 0.04632529 0.03998219 0.00727746
v 0.03871371 0.04632514 0.00723944
v 0.03860462 0.05118794 0.02332255
v 0.03778469 0.05182332 0.02332255
v 0.03715128 0.05227458 0.02332255
v 0.03619059 0.05290996 0.02332255
v 0.04407313 0.04659950 0.02332255
v 0.04343971 0.04720239 0.02332255
v 0.04267961 0.04783777 0.02332255
v 0.04127905 0.04899661 0.02332255
v 0.03998055 0.05006520 0.02332255
v 0.03923804 0.05067531 0.02332255
v 0.03096840 0.05616266 0.01316953
v 0.03094729 0.05616266 0.01190066
v 0.03236544 0.05529985 0.01697816
v 0.03160886 0.05576555 0.01444041
v 0.03390324 0.05434678 0.02205367
v 0.03490616 0.05372223 0.02205367
v 0.03555717 0.05331429 0.02205367
v 0.02368057 0.05948756 0.01988217
v 0.02887812 0.05693883 0.00936290
v 0.02824118 0.05723847 0.00936290
v 0.02540839 0.05839009 0.00871245
v 0.02546470 0.05841175 0.00936290
v 0.02851215 0.05733234 0.01063178
v 0.02729106 0.05783775 0.01190066
v 0.02580252 0.05853811 0.01570929
v 0.03091562 0.05615544 0.01063178
v 0.03075023 0.05604714 0.00962308
v 0.05948632 0.02268981 0.00936290
v 0.05916961 0.02348042 0.00936290
v 0.05837080 0.02536128 0.00911473
v 0.05867695 0.02475117 0.01063178
v 0.05814207 0.02589558 0.00946898
v 0.05838136 0.02538655 0.00996132
v 0.05688227 0.02868618 0.01063178
v 0.05596381 0.03072589 0.01444041
v 0.05566821 0.03134322 0.01063178
v 0.05750513 0.02728908 0.00936290
v 0.05853619 0.02451652 0.00853633
v 0.05730103 0.02728908 0.00847829
v 0.05604123 0.02982698 0.00850631
v 0.04862319 0.04109410 0.01063178
v 0.05042140 0.03892804 0.01316953
v 0.05157914 0.03752371 0.01316953
v 0.05042492 0.03893165 0.01570929
v 0.04863375 0.04111215 0.01951392
v 0.05518963 0.03099304 0.00838623
v 0.05475328 0.03201470 0.00855034
v 0.05448231 0.03285946 0.00888657
v 0.05010821 0.03746956 0.00773578
v 0.05267355 0.03483779 0.00832819
v 0.05264892 0.03368978 0.00776780
v 0.05167767 0.03490639 0.00764371
v 0.05051641 0.03648761 0.00756166
v 0.04890471 0.03881613 0.00761169
v 0.04889064 0.03998580 0.00818409
v 0.04848243 0.04092804 0.00845227
v 0.04689888 0.04309410 0.00936290
v 0.04744785 0.04245872 0.00936290
v 0.04808126 0.04171865 0.00936290
v 0.04462210 0.04593524 0.01063178
v 0.04525903 0.04516629 0.01063178
v 0.05360256 0.03363563 0.00845628
v 0.04643438 0.04378723 0.02332255
v 0.04528367 0.04519156 0.02332255
v 0.04464673 0.04596413 0.02332255
v 0.05776553 0.02268981 0.00751963
v 0.05145598 0.03368978 0.00732950
v 0.05221608 0.03330350 0.00738754
v 0.05264892 0.03227102 0.00736352
v 0.04505493 0.03998219 0.00723944
v 0.04890471 0.03746956 0.00733750
v 0.05010821 0.03610855 0.00736552
v 0.05352163 0.03109773 0.00739354
v 0.05676262 0.02602193 0.00760769
v 0.05694209 0.02501110 0.00751362
v 0.05712860 0.02416634 0.00745158
v 0.05465827 0.02935405 0.00742757
v 0.05571396 0.02774395 0.00749361
v 0.02368057 0.05777637 0.00760169
v 0.02513391 0.05697132 0.00749962
v 0.02602070 0.05675111 0.00761570
v 0.03172851 0.05330346 0.00745959
v 0.03419180 0.05196050 0.00747760
v 0.03565219 0.05083054 0.00743357
v 0.03707386 0.04969336 0.00740355
v 0.03611669 0.05012296 0.00736752
v 0.03747502 0.04890997 0.00733750
v 0.03998055 0.04728903 0.00739754
v 0.04114181 0.04622405 0.00739955
v 0.04241921 0.04496052 0.00739354
v 0.03883335 0.04771502 0.00732750
v 0.04496696 0.04242984 0.00738954
v 0.04624083 0.04116269 0.00738754
v 0.04729653 0.03998219 0.00738754
v 0.03923804 0.05067892 0.02205367
v 0.03922396 0.05067170 0.02078279
v 0.03711256 0.05225292 0.02205367
v 0.04063508 0.04951286 0.01697816
v 0.04062100 0.04949841 0.01628368
v 0.03919229 0.05065726 0.01951392
v 0.03553254 0.05329985 0.02032848
v 0.03555013 0.05331068 0.02117506
v 0.04407313 0.04659229 0.02078279
v 0.04406962 0.04659229 0.01951392
v 0.04343268 0.04721322 0.01316953
v 0.04343620 0.04721322 0.01444041
v 0.04268665 0.04784499 0.01697816
v 0.04128257 0.04900022 0.01951392
v 0.03160534 0.05576194 0.01316953
v 0.02368057 0.05947312 0.01949190
v 0.02797726 0.05714100 0.00869244
v 0.02475034 0.05851284 0.00853833
v 0.02368057 0.05905074 0.00923481
v 0.02368057 0.05907602 0.00936290
v 0.02475034 0.05867890 0.00936290
v 0.02729106 0.05731429 0.00851031
v 0.02368057 0.05913738 0.01063178
v 0.02560898 0.05846591 0.01190066
v 0.02368057 0.05932150 0.01546712
v 0.02368057 0.05942619 0.01824504
v 0.03158423 0.05574028 0.01190066
v 0.03154904 0.05571501 0.01063178
v 0.03303757 0.05459949 0.00989527
v 0.03040888 0.05581248 0.00877650
v 0.02992326 0.05633595 0.00926483
v 0.03439590 0.05338649 0.00863040
v 0.05941946 0.02268981 0.00920880
v 0.05893736 0.02268981 0.00832418
v 0.05873326 0.02348042 0.00836021
v 0.05758959 0.02602193 0.00824213
v 0.05642832 0.02731073 0.00778781
v 0.05649518 0.02846958 0.00830017
v 0.05513333 0.02979809 0.00782384
v 0.04462914 0.04594247 0.01316953
v 0.04926013 0.04032876 0.01190066
v 0.04464321 0.04596052 0.02078279
v 0.04580448 0.04455980 0.02205367
v 0.05094572 0.03829627 0.01444041
v 0.05415505 0.03109773 0.00768574
v 0.05306064 0.03262841 0.00758768
v 0.05191697 0.03414827 0.00749161
v 0.05082960 0.03564285 0.00743157
v 0.04935514 0.03790638 0.00749962
v 0.04793347 0.03998219 0.00757567
v 0.04757453 0.04122407 0.00802598
v 0.04727542 0.04224211 0.00844627
v 0.04561797 0.04435041 0.00892460
v 0.04455524 0.04585221 0.00971515
v 0.04574818 0.04449481 0.00977118
v 0.04406258 0.04657062 0.01063178
v 0.04406962 0.04657062 0.01190066
v 0.04464673 0.04596052 0.02205367
v 0.05800482 0.02268981 0.00764171
v 0.05333864 0.03178365 0.00744358
v 0.04966833 0.03706162 0.00740355
v 0.04851058 0.03845873 0.00738554
v 0.05549227 0.02855983 0.00760169
v 0.05788870 0.02348042 0.00772577
v 0.05440490 0.03019882 0.00751763
v 0.02368057 0.05792078 0.00768374
v 0.02472923 0.05766446 0.00783785
v 0.02590457 0.05776555 0.00833619
v 0.02724883 0.05640093 0.00783184
v 0.03236544 0.05311574 0.00755966
v 0.03371674 0.05264642 0.00774579
v 0.03490616 0.05171141 0.00760169
v 0.03650026 0.05053813 0.00753164
v 0.03933657 0.04821683 0.00746159
v 0.03848849 0.04852008 0.00738554
v 0.04064564 0.04698579 0.00744958
v 0.04193007 0.04573308 0.00744158
v 0.04575873 0.04194970 0.00743557
v 0.04702909 0.04068616 0.00743757
v 0.04064915 0.04952368 0.01824504
v 0.04052599 0.04943343 0.01316953
v 0.03825272 0.05089191 0.00936290
v 0.03744335 0.05146953 0.00936290
v 0.04205323 0.04836484 0.01444041
v 0.04203916 0.04834679 0.01316953
v 0.04200748 0.04831791 0.01190066
v 0.04343268 0.04720961 0.01190066
v 0.04268665 0.04784499 0.01444041
v 0.04205323 0.04836845 0.01570929
v 0.03199243 0.05472223 0.00857036
v 0.02956081 0.05605436 0.00851832
v 0.02368057 0.05857782 0.00821811
v 0.02368057 0.05871139 0.00832819
v 0.02846288 0.05647674 0.00836621
v 0.03672196 0.05197855 0.00936290
v 0.03608854 0.05241899 0.00936290
v 0.03515600 0.05305437 0.00936290
v 0.03363580 0.05361393 0.00843826
v 0.03818586 0.05084498 0.00860638
v 0.03589499 0.05227458 0.00847629
v 0.03485337 0.05268614 0.00827615
v 0.05859250 0.02268981 0.00806601
v 0.04818684 0.03930710 0.00746759
v 0.04660681 0.04152731 0.00759968
v 0.04632529 0.04252009 0.00802798
v 0.04604729 0.04350565 0.00845628
v 0.04432650 0.04559951 0.00886856
v 0.04333414 0.04711214 0.00971515
v 0.04342916 0.04719878 0.01063178
v 0.03109861 0.05497855 0.00836621
v 0.03744335 0.05110852 0.00837422
v 0.03747502 0.05012296 0.00770576
v 0.03883335 0.04890997 0.00760769
v 0.03998055 0.04792441 0.00760969
v 0.04149019 0.04658145 0.00764572
v 0.04277462 0.04531792 0.00763371
v 0.04405202 0.04405438 0.00762170
v 0.04532942 0.04279446 0.00761169
v 0.04125090 0.04880528 0.01063178
v 0.03888966 0.05043343 0.00936290
v 0.04260219 0.04783416 0.01063178
v 0.04267257 0.04784860 0.01316953
v 0.04264090 0.04784499 0.01190066
v 0.03975885 0.04979805 0.00936290
v 0.04192655 0.04826015 0.00988726
v 0.03960049 0.04968614 0.00851632
v 0.03865037 0.05011935 0.00829617
v 0.04476990 0.04475474 0.00846828
v 0.04303855 0.04685221 0.00886856
v 0.04000518 0.04889192 0.00821411
v 0.04119812 0.04754174 0.00807401
v 0.04090604 0.04848759 0.00850431
v 0.04348194 0.04600384 0.00848029
v 0.04219047 0.04725293 0.00849230
f 1 2 10
f 1 10 15
f 1 15 20
f 1 20 25
f 1 25 35
f 1 35 39
f 1 39 45
f 1 45 56
f 1 56 73
f 1 73 99
f 1 99 128
f 1 128 161
f 1 161 205
f 1 205 250
f 1 250 309
f 1 309 385
f 1 385 477
f 1 477 487
f 1 487 486
f 1 486 484
f 1 484 481
f 1 481 480
f 1 480 554
f 1 554 553
f 1 553 527
f 1 527 446
f 1 446 356
f 1 356 285
f 1 285 229
f 1 229 184
f 1 184 145
f 1 145 115
f 1 115 86
f 1 86 66
f 1 66 52
f 1 52 50
f 1 50 42
f 1 42 37
f 1 37 31
f 1 31 24
f 1 24 19
f 1 19 17
f 1 17 11
f 1 11 3
f 1 3 4
f 1 4 5
f 1 5 6
f 1 6 2
f 2 6 7
f 2 7 8
f 2 8 9
f 2 9 10
f 3 11 12
f 3 12 4
f 4 12 18
f 4 18 22
f 4 22 28
f 4 28 30
f 4 30 29
f 4 29 33
f 4 33 32
f 4 32 38
f 4 38 43
f 4 43 51
f 4 51 65
f 4 65 85
f 4 85 114
f 4 114 144
f 4 144 182
f 4 182 226
f 4 226 277
f 4 277 346
f 4 346 433
f 4 433 520
f 4 520 563
f 4 563 495
f 4 495 494
f 4 494 395
f 4 395 314
f 4 314 313
f 4 313 254
f 4 254 206
f 4 206 162
f 4 162 129
f 4 129 100
f 4 100 74
f 4 74 57
f 4 57 46
f 4 46 40
f 4 40 36
f 4 36 26
f 4 26 21
f 4 21 16
f 4 16 14
f 4 14 13
f 4 13 8
f 4 8 6
f 4 6 5
f 6 8 7
f 8 13 9
f 9 13 14
f 9 14 10
f 10 14 16
f 10 16 15
f 11 17 12
f 12 17 19
f 12 19 18
f 15 16 20
f 16 21 20
f 18 19 23
f 18 23 22
f 19 24 23
f 20 21 25
f 21 26 27
f 21 27 25
f 22 23 28
f 23 29 30
f 23 30 28
f 23 24 29
f 24 31 32
f 24 32 33
f 24 33 29
f 25 34 35
f 25 27 26
f 25 26 34
f 26 36 41
f 26 41 49
f 26 49 64
f 26 64 84
f 26 84 113
f 26 113 90
f 26 90 70
f 26 70 54
f 26 54 44
f 26 44 39
f 26 39 35
f 26 35 34
f 31 37 38
f 31 38 32
f 36 40 41
f 37 42 43
f 37 43 38
f 39 44 45
f 40 46 47
f 40 47 48
f 40 48 41
f 41 48 49
f 42 50 43
f 43 50 52
f 43 52 51
f 44 53 45
f 44 54 53
f 45 53 55
f 45 55 56
f 46 57 58
f 46 58 59
f 46 59 60
f 46 60 47
f 47 60 61
f 47 61 48
f 48 61 62
f 48 62 63
f 48 63 49
f 49 63 64
f 51 52 66
f 51 66 65
f 53 67 55
f 53 54 68
f 53 68 69
f 53 69 67
f 54 70 68
f 55 67 71
f 55 71 56
f 56 72 73
f 56 71 72
f 57 74 75
f 57 75 58
f 58 75 76
f 58 76 77
f 58 77 59
f 59 77 78
f 59 78 61
f 59 61 60
f 61 78 79
f 61 79 80
f 61 80 62
f 62 80 63
f 63 80 81
f 63 81 82
f 63 82 83
f 63 83 64
f 64 83 84
f 65 66 86
f 65 86 85
f 67 69 87
f 67 87 88
f 67 88 89
f 67 89 71
f 68 70 90
f 68 90 91
f 68 91 92
f 68 92 93
f 68 93 88
f 68 88 87
f 68 87 69
f 71 89 94
f 71 94 95
f 71 95 96
f 71 96 97
f 71 97 72
f 72 97 98
f 72 98 99
f 72 99 73
f 74 100 101
f 74 101 102
f 74 102 103
f 74 103 75
f 75 103 76
f 76 104 77
f 76 103 104
f 77 104 105
f 77 105 106
f 77 106 107
f 77 107 78
f 78 107 108
f 78 108 79
f 79 108 109
f 79 109 80
f 80 109 81
f 81 109 110
f 81 110 111
f 81 111 82
f 82 111 112
f 82 112 83
f 83 112 84
f 84 112 113
f 85 86 115
f 85 115 114
f 88 93 116
f 88 116 117
f 88 117 94
f 88 94 89
f 90 113 112
f 90 112 118
f 90 118 119
f 90 119 91
f 91 119 120
f 91 120 92
f 92 120 121
f 92 121 93
f 93 121 116
f 94 117 122
f 94 122 123
f 94 123 95
f 95 123 96
f 96 123 124
f 96 124 97
f 97 125 98
f 97 124 126
f 97 126 125
f 98 125 127
f 98 127 128
f 98 128 99
f 100 129 130
f 100 130 131
f 100 131 132
f 100 132 133
f 100 133 134
f 100 134 102
f 100 102 101
f 102 134 103
f 103 134 104
f 104 134 105
f 105 134 135
f 105 135 106
f 106 136 137
f 106 137 107
f 106 135 136
f 107 137 138
f 107 138 139
f 107 139 140
f 107 140 108
f 108 140 141
f 108 141 109
f 109 141 110
f 110 142 111
f 110 141 142
f 111 142 112
f 112 142 143
f 112 143 118
f 114 115 145
f 114 145 185
f 114 185 231
f 114 231 289
f 114 289 367
f 114 367 437
f 114 437 349
f 114 349 347
f 114 347 279
f 114 279 227
f 114 227 183
f 114 183 144
f 116 121 146
f 116 146 147
f 116 147 117
f 117 148 122
f 117 147 148
f 118 143 119
f 119 143 120
f 120 143 149
f 120 149 121
f 121 149 150
f 121 150 151
f 121 151 146
f 122 148 152
f 122 152 123
f 123 152 124
f 124 152 153
f 124 153 126
f 125 154 127
f 125 126 155
f 125 155 156
f 125 156 154
f 126 153 155
f 127 157 158
f 127 158 159
f 127 159 128
f 127 154 160
f 127 160 157
f 128 159 158
f 128 158 161
f 129 162 130
f 130 162 163
f 130 163 131
f 131 163 164
f 131 164 165
f 131 165 166
f 131 166 167
f 131 167 168
f 131 168 132
f 132 168 133
f 133 169 134
f 133 168 169
f 134 169 170
f 134 170 171
f 134 171 172
f 134 172 173
f 134 173 174
f 134 174 135
f 135 174 175
f 135 175 136
f 136 175 137
f 137 175 176
f 137 176 177
f 137 177 138
f 138 177 139
f 139 178 179
f 139 179 180
f 139 180 140
f 139 177 178
f 140 180 141
f 141 180 142
f 142 179 181
f 142 181 143
f 142 180 179
f 143 181 149
f 144 183 182
f 145 184 185
f 146 186 147
f 146 151 187
f 146 187 186
f 147 188 148
f 147 186 188
f 148 189 190
f 148 190 191
f 148 191 152
f 148 188 189
f 149 151 150
f 149 181 151
f 151 181 192
f 151 192 187
f 152 191 193
f 152 193 194
f 152 194 153
f 153 194 193
f 153 193 155
f 154 156 195
f 154 195 196
f 154 196 160
f 155 193 156
f 156 193 195
f 157 197 198
f 157 198 158
f 157 160 197
f 158 199 200
f 158 200 161
f 158 198 199
f 160 201 202
f 160 202 197
f 160 196 203
f 160 203 204
f 160 204 201
f 161 200 246
f 161 246 205
f 162 206 163
f 163 206 164
f 164 206 165
f 165 207 167
f 165 167 166
f 165 206 207
f 167 208 209
f 167 209 168
f 167 207 253
f 167 253 208
f 168 209 170
f 168 170 169
f 170 209 171
f 171 209 210
f 171 210 211
f 171 211 212
f 171 212 213
f 171 213 214
f 171 214 215
f 171 215 216
f 171 216 172
f 172 217 173
f 172 216 218
f 172 218 219
f 172 219 217
f 173 217 219
f 173 219 220
f 173 220 174
f 174 220 219
f 174 219 221
f 174 221 175
f 175 221 222
f 175 222 176
f 176 222 177
f 177 222 178
f 178 222 223
f 178 223 179
f 179 223 224
f 179 224 181
f 181 224 225
f 181 225 192
f 182 183 226
f 183 227 228
f 183 228 226
f 184 229 230
f 184 230 185
f 185 230 231
f 186 187 232
f 186 232 233
f 186 233 188
f 187 192 234
f 187 234 235
f 187 235 232
f 188 233 189
f 189 236 237
f 189 237 204
f 189 204 193
f 189 193 190
f 189 233 238
f 189 238 239
f 189 239 240
f 189 240 236
f 190 193 191
f 192 225 234
f 193 204 203
f 193 203 195
f 195 203 196
f 197 241 198
f 197 202 242
f 197 242 241
f 198 241 243
f 198 243 244
f 198 244 199
f 199 244 245
f 199 245 200
f 200 245 246
f 201 204 247
f 201 247 202
f 202 248 242
f 202 247 249
f 202 249 306
f 202 306 248
f 204 237 247
f 205 246 251
f 205 251 252
f 205 252 250
f 206 253 207
f 206 254 255
f 206 255 256
f 206 256 253
f 208 253 256
f 208 256 257
f 208 257 209
f 209 257 258
f 209 258 259
f 209 259 260
f 209 260 261
f 209 261 262
f 209 262 210
f 210 262 211
f 211 263 264
f 211 264 212
f 211 262 261
f 211 261 260
f 211 260 265
f 211 265 266
f 211 266 263
f 212 264 213
f 213 264 214
f 214 264 215
f 215 264 267
f 215 267 268
f 215 268 269
f 215 269 270
f 215 270 216
f 216 270 218
f 218 271 272
f 218 272 223
f 218 223 219
f 218 270 271
f 219 222 221
f 219 223 222
f 223 272 271
f 223 271 273
f 223 273 224
f 224 273 274
f 224 274 225
f 225 274 275
f 225 275 276
f 225 276 234
f 226 228 278
f 226 278 277
f 227 279 228
f 228 279 280
f 228 280 281
f 228 281 282
f 228 282 283
f 228 283 278
f 229 284 230
f 229 285 284
f 230 284 286
f 230 286 287
f 230 287 288
f 230 288 231
f 231 288 289
f 232 235 276
f 232 276 290
f 232 290 233
f 233 290 238
f 234 276 235
f 236 240 237
f 237 240 291
f 237 291 292
f 237 292 247
f 238 290 275
f 238 275 274
f 238 274 293
f 238 293 294
f 238 294 239
f 239 294 240
f 240 294 295
f 240 295 296
f 240 296 297
f 240 297 298
f 240 298 299
f 240 299 291
f 241 242 302
f 241 302 300
f 241 300 251
f 241 251 301
f 241 301 243
f 242 248 305
f 242 305 302
f 243 301 244
f 244 303 245
f 244 301 251
f 244 251 303
f 245 303 251
f 245 251 246
f 247 292 304
f 247 304 249
f 248 306 382
f 248 382 305
f 249 304 307
f 249 307 306
f 250 308 309
f 250 252 310
f 250 310 311
f 250 311 308
f 251 300 252
f 252 300 312
f 252 312 310
f 254 313 255
f 255 313 314
f 255 314 315
f 255 315 316
f 255 316 317
f 255 317 258
f 255 258 256
f 256 258 257
f 258 318 259
f 258 317 316
f 258 316 318
f 259 319 260
f 259 318 319
f 260 319 320
f 260 320 321
f 260 321 322
f 260 322 265
f 263 323 327
f 263 327 264
f 263 266 324
f 263 324 325
f 263 325 326
f 263 326 323
f 264 327 411
f 264 411 328
f 264 328 267
f 265 329 330
f 265 330 331
f 265 331 266
f 265 322 329
f 266 332 333
f 266 333 334
f 266 334 335
f 266 335 326
f 266 326 325
f 266 325 324
f 266 331 330
f 266 330 336
f 266 336 337
f 266 337 332
f 267 328 338
f 267 338 339
f 267 339 340
f 267 340 268
f 268 341 269
f 268 340 341
f 269 341 270
f 270 341 271
f 271 342 343
f 271 343 344
f 271 344 273
f 271 341 342
f 273 344 345
f 273 345 274
f 274 345 344
f 274 344 293
f 275 290 276
f 277 278 283
f 277 283 346
f 279 347 280
f 280 348 281
f 280 347 349
f 280 349 350
f 280 350 351
f 280 351 348
f 281 348 282
f 282 348 352
f 282 352 353
f 282 353 354
f 282 354 283
f 283 354 355
f 283 355 346
f 284 285 356
f 284 356 357
f 284 357 358
f 284 358 359
f 284 359 286
f 286 359 360
f 286 360 288
f 286 288 287
f 288 360 361
f 288 361 362
f 288 362 289
f 289 362 363
f 289 363 364
f 289 364 365
f 289 365 366
f 289 366 367
f 291 299 368
f 291 368 369
f 291 369 292
f 292 369 370
f 292 370 371
f 292 371 304
f 293 372 373
f 293 373 294
f 293 344 372
f 294 373 374
f 294 374 295
f 295 374 375
f 295 375 296
f 296 375 297
f 297 375 376
f 297 376 298
f 298 376 299
f 299 376 377
f 299 377 368
f 300 302 378
f 300 378 379
f 300 379 312
f 302 305 380
f 302 380 381
f 302 381 378
f 304 371 307
f 305 382 307
f 305 307 383
f 305 383 380
f 306 307 382
f 307 371 384
f 307 384 383
f 308 311 309
f 309 311 385
f 310 386 387
f 310 387 388
f 310 388 389
f 310 389 390
f 310 390 391
f 310 391 392
f 310 392 311
f 310 312 386
f 311 392 385
f 312 379 393
f 312 393 394
f 312 394 386
f 314 395 396
f 314 396 397
f 314 397 315
f 315 398 316
f 315 397 399
f 315 399 400
f 315 400 398
f 316 398 401
f 316 401 402
f 316 402 318
f 318 402 319
f 319 402 403
f 319 403 320
f 320 403 321
f 321 401 404
f 321 404 397
f 321 397 322
f 321 403 401
f 322 397 405
f 322 405 406
f 322 406 407
f 322 407 329
f 323 326 335
f 323 335 408
f 323 408 409
f 323 409 410
f 323 410 327
f 327 410 411
f 328 411 412
f 328 412 339
f 328 339 338
f 329 407 413
f 329 413 414
f 329 414 336
f 329 336 415
f 329 415 330
f 330 415 336
f 332 416 333
f 332 337 417
f 332 417 418
f 332 418 419
f 332 419 420
f 332 420 416
f 333 416 421
f 333 421 422
f 333 422 334
f 334 422 423
f 334 423 424
f 334 424 425
f 334 425 426
f 334 426 335
f 335 426 427
f 335 427 428
f 335 428 408
f 336 414 337
f 337 414 429
f 337 429 417
f 339 342 340
f 339 412 430
f 339 430 343
f 339 343 342
f 340 342 341
f 343 430 431
f 343 431 344
f 344 431 432
f 344 432 372
f 346 355 433
f 348 351 434
f 348 434 435
f 348 435 436
f 348 436 352
f 349 437 366
f 349 366 350
f 350 366 351
f 351 366 438
f 351 438 439
f 351 439 434
f 352 436 440
f 352 440 353
f 353 440 354
f 354 441 442
f 354 442 443
f 354 443 355
f 354 440 444
f 354 444 445
f 354 445 441
f 355 443 433
f 356 446 357
f 357 446 447
f 357 447 358
f 358 447 448
f 358 448 449
f 358 449 359
f 359 449 450
f 359 450 451
f 359 451 452
f 359 452 453
f 359 453 360
f 360 453 454
f 360 454 361
f 361 454 362
f 362 454 363
f 363 455 456
f 363 456 457
f 363 457 364
f 363 454 458
f 363 458 455
f 364 457 459
f 364 459 460
f 364 460 365
f 365 460 366
f 366 437 367
f 366 460 461
f 366 461 438
f 368 377 462
f 368 462 463
f 368 463 369
f 369 464 370
f 369 463 465
f 369 465 466
f 369 466 467
f 369 467 464
f 370 464 468
f 370 468 469
f 370 469 371
f 371 469 384
f 372 432 470
f 372 470 471
f 372 471 472
f 372 472 473
f 372 473 373
f 373 473 474
f 373 474 374
f 374 474 375
f 375 474 475
f 375 475 462
f 375 462 376
f 376 462 377
f 378 381 476
f 378 476 379
f 379 476 393
f 380 383 384
f 380 384 381
f 381 384 476
f 384 469 476
f 385 392 477
f 386 478 388
f 386 388 387
f 386 394 478
f 388 479 480
f 388 480 481
f 388 481 482
f 388 482 389
f 388 478 483
f 388 483 479
f 389 482 390
f 390 482 484
f 390 484 391
f 391 484 485
f 391 485 486
f 391 486 392
f 392 486 487
f 392 487 477
f 393 476 488
f 393 488 489
f 393 489 490
f 393 490 394
f 394 491 492
f 394 492 478
f 394 490 493
f 394 493 491
f 395 494 405
f 395 405 397
f 395 397 396
f 397 404 399
f 398 400 401
f 399 404 400
f 400 404 401
f 401 403 402
f 405 494 495
f 405 495 496
f 405 496 497
f 405 497 406
f 406 497 498
f 406 498 499
f 406 499 407
f 407 499 498
f 407 498 500
f 407 500 413
f 408 428 501
f 408 501 502
f 408 502 409
f 409 502 503
f 409 503 504
f 409 504 410
f 410 504 505
f 410 505 411
f 411 505 504
f 411 504 412
f 412 504 430
f 413 500 506
f 413 506 418
f 413 418 417
f 413 417 429
f 413 429 414
f 416 420 421
f 418 506 507
f 418 507 419
f 419 507 508
f 419 508 420
f 420 508 509
f 420 509 510
f 420 510 421
f 421 510 511
f 421 511 422
f 422 511 512
f 422 512 423
f 423 512 513
f 423 513 514
f 423 514 424
f 424 514 515
f 424 515 516
f 424 516 425
f 425 516 427
f 425 427 426
f 427 501 428
f 427 516 515
f 427 515 517
f 427 517 518
f 427 518 501
f 430 504 431
f 431 504 432
f 432 504 519
f 432 519 470
f 433 443 520
f 434 439 435
f 435 521 440
f 435 440 436
f 435 439 522
f 435 522 509
f 435 509 521
f 438 461 523
f 438 523 439
f 439 523 522
f 440 521 444
f 441 445 524
f 441 524 498
f 441 498 497
f 441 497 496
f 441 496 525
f 441 525 443
f 441 443 442
f 443 525 520
f 444 521 526
f 444 526 445
f 445 526 524
f 446 527 447
f 447 527 448
f 448 527 528
f 448 528 529
f 448 529 483
f 448 483 530
f 448 530 531
f 448 531 450
f 448 450 449
f 450 531 532
f 450 532 533
f 450 533 534
f 450 534 451
f 451 534 452
f 452 535 536
f 452 536 454
f 452 454 453
f 452 534 535
f 454 536 458
f 455 537 456
f 455 458 536
f 455 536 535
f 455 535 537
f 456 538 457
f 456 537 538
f 457 538 539
f 457 539 459
f 459 539 460
f 460 540 461
f 460 539 540
f 461 540 523
f 462 541 463
f 462 475 541
f 463 541 465
f 464 467 466
f 464 466 542
f 464 542 543
f 464 543 544
f 464 544 489
f 464 489 468
f 465 541 545
f 465 545 546
f 465 546 466
f 466 546 547
f 466 547 542
f 468 489 488
f 468 488 476
f 468 476 469
f 470 518 471
f 470 519 518
f 471 518 548
f 471 548 472
f 472 548 549
f 472 549 473
f 473 549 474
f 474 549 550
f 474 550 541
f 474 541 475
f 478 492 491
f 478 491 551
f 478 551 552
f 478 552 483
f 479 483 529
f 479 529 528
f 479 528 553
f 479 553 554
f 479 554 480
f 481 484 482
f 483 552 555
f 483 555 530
f 484 486 485
f 489 544 556
f 489 556 490
f 490 556 557
f 490 557 558
f 490 558 493
f 491 493 551
f 493 559 551
f 493 558 560
f 493 560 561
f 493 561 562
f 493 562 559
f 495 563 525
f 495 525 496
f 498 524 500
f 500 524 526
f 500 526 506
f 501 518 503
f 501 503 502
f 503 518 519
f 503 519 504
f 506 526 521
f 506 521 507
f 507 521 508
f 508 521 509
f 509 522 510
f 510 522 564
f 510 564 511
f 511 564 540
f 511 540 565
f 511 565 512
f 512 565 513
f 513 566 567
f 513 567 514
f 513 565 566
f 514 567 568
f 514 568 569
f 514 569 515
f 515 569 517
f 517 569 570
f 517 570 548
f 517 548 518
f 520 525 563
f 522 523 540
f 522 540 564
f 527 553 528
f 530 555 532
f 530 532 531
f 532 555 571
f 532 571 559
f 532 559 562
f 532 562 533
f 533 572 534
f 533 562 572
f 534 572 573
f 534 573 574
f 534 574 535
f 535 574 575
f 535 575 537
f 537 576 538
f 537 575 576
f 538 577 578
f 538 578 579
f 538 579 565
f 538 565 539
f 538 576 577
f 539 565 540
f 541 550 545
f 542 547 580
f 542 580 543
f 543 581 560
f 543 560 544
f 543 580 582
f 543 582 581
f 544 560 556
f 545 550 549
f 545 549 583
f 545 583 570
f 545 570 546
f 546 570 584
f 546 584 582
f 546 582 547
f 547 582 580
f 548 570 583
f 548 583 549
f 551 559 552
f 552 559 571
f 552 571 555
f 556 560 557
f 557 560 558
f 560 572 561
f 560 581 585
f 560 585 586
f 560 586 569
f 560 569 587
f 560 587 588
f 560 588 572
f 561 572 562
f 565 579 566
f 566 579 577
f 566 577 567
f 567 577 576
f 567 576 589
f 567 589 590
f 567 590 568
f 568 590 569
f 569 590 587
f 569 586 570
f 570 586 582
f 570 582 584
f 572 588 573
f 573 588 574
f 574 588 591
f 574 591 575
f 575 591 576
f 576 591 592
f 576 592 589
f 577 579 578
f 581 582 585
f 582 586 585
f 587 593 591
f 587 591 588
f 587 590 593
f 589 592 594
f 589 594 590
f 590 595 593
f 590 594 595
f 591 593 595
f 591 595 592
f 592 595 594
