# https://github.com/mikedh/trimesh
v -0.00190325 0.06409161 0.02332167
v -0.00190325 0.06409161 0.01063188
v -0.00317290 0.06401366 0.02332167
v -0.00190325 0.06408623 0.02459217
v -0.00063360 0.06400828 0.02332167
v -0.00190325 0.06383088 0.00936329
v -0.00317290 0.06381206 0.00936329
v -0.00317290 0.06401366 0.01063188
v -0.00063360 0.06400828 0.01063188
v 0.00190570 0.06361047 0.00942043
v -0.00063360 0.06376368 0.00936329
v -0.00445908 0.06380400 0.02333881
v -0.00445908 0.06379862 0.02459217
v -0.00317290 0.06400559 0.02459217
v -0.00317290 0.06372874 0.02583219
v -0.00190325 0.06376906 0.02579790
v -0.00063360 0.06372605 0.02575219
v 0.00063605 0.06366691 0.02569124
v 0.00190570 0.06360778 0.02560933
v -0.00063360 0.06400291 0.02459217
v 0.00190570 0.06376906 0.02332167
v -0.00190325 0.06351371 0.00864899
v -0.00317290 0.06353521 0.00861661
v 0.00317535 0.06341963 0.00891375
v 0.00190570 0.06344382 0.00878613
v 0.00118963 0.06345726 0.00873661
v -0.00443980 0.06351371 0.00863946
v -0.00445908 0.06351371 0.00864137
v -0.00443980 0.06368573 0.00936329
v -0.00445908 0.06368573 0.00938043
v -0.00445908 0.06380131 0.01063188
v -0.00445908 0.06380400 0.02332167
v 0.00190570 0.06376906 0.01443958
v 0.00952086 0.06304869 0.02078447
v 0.00575321 0.06340350 0.01570818
v 0.00317535 0.06364541 0.01190048
v 0.00507845 0.06345995 0.00999759
v 0.00444225 0.06348951 0.00981282
v 0.00317535 0.06355133 0.00954805
v 0.00444225 0.06339275 0.00917852
v -0.00445908 0.06362660 0.02584362
v -0.00445908 0.06345457 0.02647792
v -0.00443980 0.06345457 0.02648173
v -0.00317290 0.06343844 0.02646840
v -0.00190325 0.06341156 0.02643220
v -0.00063360 0.06338468 0.02638649
v 0.00063605 0.06335781 0.02632553
v 0.00190570 0.06333361 0.02624553
v 0.00317535 0.06330942 0.02613125
v 0.00698155 0.06314277 0.02586076
v 0.00317535 0.06354865 0.02549695
v 0.00422192 0.06349758 0.02536171
v 0.00506744 0.06345726 0.02512551
v 0.00456343 0.06351101 0.02465693
v 0.00952086 0.06304332 0.02459217
v 0.00511150 0.06346263 0.02427787
v 0.00952086 0.06304869 0.02332167
v -0.00063360 0.06348951 0.00868327
v 0.00433209 0.06281484 0.00822803
v -0.00099714 0.06302181 0.00822803
v -0.00234116 0.06307020 0.00822803
v -0.00317290 0.06308633 0.00822803
v -0.00445357 0.06303794 0.00822803
v 0.00301011 0.06286860 0.00822803
v 0.00952086 0.06297881 0.00936329
v 0.01078775 0.06248154 0.00834422
v 0.00952086 0.06255680 0.00826422
v 0.00034412 0.06347070 0.00870994
v 0.00830078 0.06261056 0.00822803
v 0.00698155 0.06268044 0.00822803
v -0.00445908 0.06294386 0.00822803
v -0.00445908 0.06368304 0.00936329
v 0.01205740 0.06280678 0.02205307
v 0.01078775 0.06292773 0.02078447
v 0.00952086 0.06304600 0.01824537
v 0.00825121 0.06315890 0.01190048
v 0.00952086 0.06303525 0.01063188
v 0.01332430 0.06266969 0.01063188
v 0.00825121 0.06309708 0.00936329
v 0.00698155 0.06320997 0.00936329
v 0.00558521 0.06334974 0.00948900
v -0.00445908 0.06344382 0.02648744
v -0.00445908 0.06281753 0.02694459
v -0.00443980 0.06282022 0.02694459
v -0.00317290 0.06280409 0.02695983
v -0.00190325 0.06277721 0.02696936
v -0.00063360 0.06274764 0.02696364
v 0.00698155 0.06259981 0.02686459
v 0.00825121 0.06256487 0.02685507
v 0.00952086 0.06251917 0.02683031
v 0.00825121 0.06304600 0.02586076
v 0.00952086 0.06294386 0.02586076
v 0.01332430 0.06268044 0.02459217
v 0.01205740 0.06280140 0.02459217
v 0.01205740 0.06280678 0.02332167
v 0.01078775 0.06284172 0.00936329
v 0.01078775 0.06233908 0.00822803
v 0.01205740 0.06236596 0.00849279
v 0.00952086 0.06251111 0.00822803
v -0.00445908 0.04327359 0.00822803
v 0.01332430 0.06268582 0.02205307
v 0.01332430 0.06267238 0.01190048
v 0.01459395 0.06246272 0.01190048
v 0.01459395 0.06244928 0.01063188
v 0.01459395 0.06231220 0.00970234
v 0.01205740 0.06266700 0.00936329
v -0.00445908 0.06280409 0.02695221
v -0.00190325 0.06155420 0.02756366
v -0.00063360 0.06155420 0.02755794
v 0.00825121 0.06155420 0.02744746
v 0.00952086 0.06155420 0.02741127
v 0.01078775 0.06155420 0.02729127
v 0.01078775 0.06242778 0.02674840
v 0.01078775 0.06279065 0.02586076
v 0.01459395 0.06232026 0.02545885
v 0.01534032 0.06222350 0.02528551
v 0.01459395 0.06245735 0.02459217
v 0.01459395 0.06246541 0.02332167
v 0.01332430 0.06268582 0.02332167
v 0.01206567 0.06202459 0.00822803
v 0.01334909 0.06242240 0.00929090
v 0.01294423 0.06225844 0.00863565
v 0.01586360 0.06121015 0.00840327
v 0.01459395 0.06139024 0.00824898
v -0.00445908 0.04318220 0.01063188
v 0.02367705 0.03734401 0.00822803
v 0.02367705 0.03727951 0.00826612
v 0.02367705 0.03713705 0.00837850
v 0.02367705 0.03681718 0.00886232
v 0.02367705 0.03673117 0.00936329
v 0.01459395 0.06246541 0.01697868
v 0.01542845 0.06225306 0.01317098
v 0.01540642 0.06225038 0.01190048
v 0.01536235 0.06223962 0.01063188
v 0.01529625 0.06221543 0.00993473
v 0.01459395 0.06202459 0.00906804
v 0.01378975 0.06214017 0.00882042
v -0.00445908 0.06155420 0.02753889
v -0.00317290 0.06155420 0.02755413
v -0.00445908 0.06028550 0.02768556
v 0.00698155 0.06028550 0.02768556
v 0.00825121 0.06028550 0.02768366
v 0.00952086 0.06028550 0.02767032
v 0.01078775 0.06028550 0.02763223
v 0.01205740 0.06028550 0.02758080
v 0.01332430 0.06028550 0.02751985
v 0.01459395 0.06028550 0.02742080
v 0.01586360 0.06028550 0.02725127
v 0.01459395 0.06128003 0.02682840
v 0.01205740 0.06227457 0.02659030
v 0.01319761 0.06238477 0.02588362
v 0.01269085 0.06219124 0.02649506
v 0.01541193 0.06224500 0.02459217
v 0.01353637 0.06206491 0.02632172
v 0.01459395 0.06191439 0.02609315
v 0.02157015 0.05964846 0.02649316
v 0.01930626 0.06099780 0.02536932
v 0.02093945 0.06059193 0.02459217
v 0.02008843 0.06085265 0.02459217
v 0.01945498 0.06104350 0.02459217
v 0.01542570 0.06224769 0.02332167
v 0.01543121 0.06225038 0.02078447
v 0.01543671 0.06225038 0.01570818
v 0.01459395 0.06136336 0.00822803
v 0.01780526 0.06093060 0.00871375
v 0.01713325 0.06102737 0.00859756
v 0.01586360 0.06100586 0.00822803
v 0.02093945 0.05982586 0.00850232
v 0.01967256 0.06002208 0.00832327
v 0.01465454 0.06134723 0.00822803
v 0.02367705 0.03663440 0.02459217
v -0.00445908 0.04339723 0.02459217
v 0.02367705 0.03672041 0.00966044
v 0.02367705 0.03670160 0.01063188
v 0.02367705 0.05858673 0.00822803
v 0.01607292 0.06206222 0.01443958
v 0.02010496 0.06086072 0.02205307
v 0.02008568 0.06084996 0.02078447
v 0.01935308 0.06103812 0.01824537
v 0.01840291 0.06125047 0.01443958
v 0.01896750 0.06089566 0.01063188
v 0.02347876 0.05915119 0.00936329
v 0.02248176 0.05951944 0.00936329
v 0.02184831 0.05975060 0.00936329
v 0.02171887 0.05970491 0.00864708
v -0.00445908 0.06153807 0.02754080
v -0.00445908 0.04759578 0.02768556
v 0.01332430 0.05901680 0.02768556
v 0.01459395 0.05901680 0.02768366
v 0.01586360 0.05901680 0.02766080
v 0.01713325 0.05901680 0.02759223
v 0.01840291 0.05901680 0.02748937
v 0.01967256 0.05901680 0.02733127
v 0.02347876 0.05872650 0.02680935
v 0.01840291 0.06010003 0.02689507
v 0.01967256 0.05991994 0.02675983
v 0.01586360 0.06110263 0.02667983
v 0.01670636 0.06098167 0.02656173
v 0.01840291 0.06136605 0.02332167
v 0.01713325 0.06174236 0.02332167
v 0.01606190 0.06205953 0.02332167
v 0.02010496 0.06086072 0.02332167
v 0.02072463 0.05976942 0.02662078
v 0.02367705 0.05869424 0.02678078
v 0.02220911 0.05955170 0.02631792
v 0.02220911 0.05990382 0.02568362
v 0.02305187 0.05974254 0.02541504
v 0.02220911 0.06016723 0.02459217
v 0.02093945 0.06059999 0.02332167
v 0.01840291 0.06136874 0.02078447
v 0.01606741 0.06206222 0.01951397
v 0.01607016 0.06206222 0.01697868
v 0.01967256 0.05990382 0.00822803
v 0.02347876 0.05874800 0.00829088
v 0.02347876 0.05867005 0.00822803
v 0.02367705 0.03676073 0.02586076
v -0.00445908 0.04360958 0.02586076
v 0.02367705 0.05871037 0.00832898
v 0.02365226 0.05859748 0.00822803
v 0.01840291 0.06136874 0.01951397
v 0.02093945 0.06057848 0.02205307
v 0.02220911 0.06016186 0.02332167
v 0.02220911 0.06007047 0.02078447
v 0.02367705 0.05923452 0.01317098
v 0.02367705 0.05918614 0.01190048
v 0.02367705 0.05913775 0.01063188
v 0.02367705 0.05907593 0.00936329
v 0.02367705 0.05905174 0.00923566
v -0.00445908 0.04632708 0.02764937
v 0.02220911 0.04124958 0.02768366
v 0.02347876 0.04124958 0.02768556
v 0.01713325 0.05774809 0.02768556
v 0.01840291 0.05774809 0.02768366
v 0.01967256 0.05774809 0.02766080
v 0.02093945 0.05774809 0.02759604
v 0.02220911 0.05774809 0.02750651
v 0.02347876 0.05774809 0.02736746
v 0.02367705 0.05776422 0.02731222
v 0.02367705 0.05927484 0.02586457
v 0.02347600 0.05936085 0.02584743
v 0.02367705 0.05956513 0.02459217
v 0.02316479 0.05979361 0.02459217
v 0.02350079 0.05866199 0.00822803
v 0.02367705 0.03726338 0.02675030
v -0.00445908 0.04410954 0.02679221
v 0.02316479 0.05978823 0.02332167
v 0.02313724 0.05976673 0.02205307
v 0.02367705 0.05952213 0.02078447
v 0.02308767 0.05974254 0.02078447
v 0.02365777 0.05948181 0.01951397
v 0.02367705 0.05947374 0.01949302
v -0.00445908 0.04505837 0.02736365
v 0.02367705 0.03871217 0.02742651
v 0.02347876 0.03998088 0.02764556
v 0.02367705 0.03998088 0.02765128
v 0.02367705 0.04124958 0.02768556
v 0.02093945 0.05647939 0.02768556
v 0.02220911 0.05647939 0.02768366
v 0.02347876 0.05647939 0.02764937
v 0.02367705 0.05647939 0.02763604
v 0.02367705 0.05957051 0.02332167
v 0.02367705 0.03744347 0.02685507
v -0.00445908 0.04504493 0.02735603
v -0.00445908 0.04411760 0.02680554
v 0.02367705 0.05955438 0.02205307
v 0.02367705 0.05520800 0.02768556
f 1 2 8
f 1 8 3
f 1 3 4
f 1 4 20
f 1 20 5
f 1 5 9
f 1 9 2
f 2 6 7
f 2 7 8
f 2 9 10
f 2 10 11
f 2 11 6
f 3 8 32
f 3 32 12
f 3 12 13
f 3 13 14
f 3 14 4
f 4 14 15
f 4 15 16
f 4 16 17
f 4 17 18
f 4 18 19
f 4 19 20
f 5 20 21
f 5 21 33
f 5 33 9
f 6 22 23
f 6 23 7
f 6 11 24
f 6 24 25
f 6 25 26
f 6 26 22
f 7 23 27
f 7 27 28
f 7 28 29
f 7 29 8
f 8 29 30
f 8 30 31
f 8 31 32
f 9 33 34
f 9 34 35
f 9 35 36
f 9 36 37
f 9 37 38
f 9 38 39
f 9 39 10
f 10 39 40
f 10 40 24
f 10 24 11
f 12 32 31
f 12 31 30
f 12 30 72
f 12 72 28
f 12 28 71
f 12 71 100
f 12 100 125
f 12 125 172
f 12 172 217
f 12 217 245
f 12 245 264
f 12 264 263
f 12 263 252
f 12 252 229
f 12 229 187
f 12 187 140
f 12 140 186
f 12 186 138
f 12 138 107
f 12 107 83
f 12 83 82
f 12 82 42
f 12 42 41
f 12 41 13
f 13 41 14
f 14 41 15
f 15 41 42
f 15 42 43
f 15 43 16
f 16 43 44
f 16 44 45
f 16 45 46
f 16 46 47
f 16 47 48
f 16 48 17
f 17 48 49
f 17 49 18
f 18 49 50
f 18 50 19
f 19 50 51
f 19 51 20
f 20 51 52
f 20 52 53
f 20 53 54
f 20 54 55
f 20 55 56
f 20 56 21
f 21 56 57
f 21 57 34
f 21 34 33
f 22 26 58
f 22 58 59
f 22 59 23
f 23 60 61
f 23 61 62
f 23 62 63
f 23 63 27
f 23 59 64
f 23 64 60
f 24 40 65
f 24 65 66
f 24 66 67
f 24 67 25
f 25 67 26
f 26 68 58
f 26 67 69
f 26 69 70
f 26 70 59
f 26 59 68
f 27 63 28
f 28 72 29
f 28 63 71
f 29 72 30
f 34 57 95
f 34 95 73
f 34 73 101
f 34 101 74
f 34 74 35
f 35 74 75
f 35 75 36
f 36 75 76
f 36 76 77
f 36 77 37
f 37 77 78
f 37 78 65
f 37 65 79
f 37 79 80
f 37 80 81
f 37 81 38
f 38 81 39
f 39 81 40
f 40 81 80
f 40 80 79
f 40 79 65
f 42 82 43
f 43 82 83
f 43 83 84
f 43 84 85
f 43 85 86
f 43 86 44
f 44 86 87
f 44 87 88
f 44 88 89
f 44 89 45
f 45 89 46
f 46 89 90
f 46 90 47
f 47 90 48
f 48 90 49
f 49 90 50
f 50 90 91
f 50 91 51
f 51 91 92
f 51 92 52
f 52 92 53
f 53 92 93
f 53 93 94
f 53 94 55
f 53 55 54
f 55 57 56
f 55 94 95
f 55 95 57
f 58 68 59
f 59 70 69
f 59 69 99
f 59 99 97
f 59 97 120
f 59 120 164
f 59 164 170
f 59 170 167
f 59 167 213
f 59 213 215
f 59 215 243
f 59 243 219
f 59 219 175
f 59 175 126
f 59 126 100
f 59 100 71
f 59 71 63
f 59 63 62
f 59 62 61
f 59 61 60
f 59 60 64
f 65 78 96
f 65 96 66
f 66 97 67
f 66 96 98
f 66 98 97
f 67 97 99
f 67 99 69
f 73 95 119
f 73 119 101
f 74 101 102
f 74 102 75
f 75 102 76
f 76 102 77
f 77 102 78
f 78 102 103
f 78 103 104
f 78 104 105
f 78 105 106
f 78 106 96
f 83 107 84
f 84 107 85
f 85 108 86
f 85 107 108
f 86 108 109
f 86 109 110
f 86 110 87
f 87 110 89
f 87 89 88
f 89 110 111
f 89 111 90
f 90 111 112
f 90 112 113
f 90 113 92
f 90 92 91
f 92 113 114
f 92 114 93
f 93 115 116
f 93 116 117
f 93 117 118
f 93 118 119
f 93 119 95
f 93 95 94
f 93 114 115
f 96 106 98
f 97 98 120
f 98 106 121
f 98 121 122
f 98 122 123
f 98 123 124
f 98 124 120
f 100 126 127
f 100 127 128
f 100 128 129
f 100 129 130
f 100 130 125
f 101 119 118
f 101 118 131
f 101 131 103
f 101 103 102
f 103 131 132
f 103 132 133
f 103 133 104
f 104 133 134
f 104 134 135
f 104 135 105
f 105 135 136
f 105 136 137
f 105 137 122
f 105 122 121
f 105 121 106
f 107 138 139
f 107 139 108
f 108 139 140
f 108 140 141
f 108 141 142
f 108 142 109
f 109 142 143
f 109 143 110
f 110 143 111
f 111 143 144
f 111 144 145
f 111 145 146
f 111 146 147
f 111 147 112
f 112 147 148
f 112 148 113
f 113 148 149
f 113 149 150
f 113 150 151
f 113 151 114
f 114 151 115
f 115 151 150
f 115 150 152
f 115 152 116
f 116 153 117
f 116 152 154
f 116 154 155
f 116 155 156
f 116 156 157
f 116 157 158
f 116 158 159
f 116 159 160
f 116 160 153
f 117 153 118
f 118 153 161
f 118 161 162
f 118 162 163
f 118 163 132
f 118 132 131
f 120 124 164
f 122 137 165
f 122 165 166
f 122 166 123
f 123 167 124
f 123 166 168
f 123 168 169
f 123 169 167
f 124 170 164
f 124 167 170
f 125 171 172
f 125 130 173
f 125 173 174
f 125 174 171
f 126 175 218
f 126 218 228
f 126 228 227
f 126 227 226
f 126 226 225
f 126 225 224
f 126 224 251
f 126 251 248
f 126 248 265
f 126 265 261
f 126 261 241
f 126 241 239
f 126 239 204
f 126 204 238
f 126 238 260
f 126 260 266
f 126 266 256
f 126 256 255
f 126 255 253
f 126 253 262
f 126 262 244
f 126 244 216
f 126 216 171
f 126 171 174
f 126 174 173
f 126 173 130
f 126 130 129
f 126 129 128
f 126 128 127
f 132 163 176
f 132 176 133
f 133 176 177
f 133 177 178
f 133 178 134
f 134 178 179
f 134 179 180
f 134 180 181
f 134 181 182
f 134 182 135
f 135 165 136
f 135 182 183
f 135 183 184
f 135 184 185
f 135 185 165
f 136 165 137
f 138 186 139
f 139 186 140
f 140 187 231
f 140 231 256
f 140 256 266
f 140 266 257
f 140 257 232
f 140 232 188
f 140 188 141
f 141 188 189
f 141 189 142
f 142 189 143
f 143 189 190
f 143 190 144
f 144 190 145
f 145 190 146
f 146 190 191
f 146 191 147
f 147 191 192
f 147 192 193
f 147 193 148
f 148 193 194
f 148 194 195
f 148 195 149
f 149 195 196
f 149 196 197
f 149 197 150
f 150 197 152
f 152 197 198
f 152 198 156
f 152 156 154
f 153 199 200
f 153 200 201
f 153 201 161
f 153 160 202
f 153 202 199
f 154 156 155
f 156 203 194
f 156 194 204
f 156 204 205
f 156 205 157
f 156 198 203
f 157 205 206
f 157 206 207
f 157 207 158
f 158 202 159
f 158 207 208
f 158 208 209
f 158 209 202
f 159 202 160
f 161 201 162
f 162 201 200
f 162 200 199
f 162 199 210
f 162 210 211
f 162 211 212
f 162 212 163
f 163 212 176
f 165 185 168
f 165 168 166
f 167 169 213
f 168 185 214
f 168 214 169
f 169 214 215
f 169 215 213
f 171 216 172
f 172 216 217
f 175 219 218
f 176 212 210
f 176 210 220
f 176 220 177
f 177 202 209
f 177 209 178
f 177 220 210
f 177 210 202
f 178 209 221
f 178 221 222
f 178 222 179
f 179 222 223
f 179 223 180
f 180 223 181
f 181 223 224
f 181 224 225
f 181 225 226
f 181 226 182
f 182 226 227
f 182 227 185
f 182 185 183
f 183 185 184
f 185 227 228
f 185 228 218
f 185 218 214
f 187 229 230
f 187 230 231
f 188 232 233
f 188 233 189
f 189 233 234
f 189 234 190
f 190 234 235
f 190 235 191
f 191 235 236
f 191 236 192
f 192 236 237
f 192 237 193
f 193 237 194
f 194 237 238
f 194 238 204
f 194 203 196
f 194 196 195
f 196 203 197
f 197 203 198
f 199 202 210
f 204 239 205
f 205 239 240
f 205 240 206
f 206 240 207
f 207 240 239
f 207 239 241
f 207 241 242
f 207 242 208
f 208 242 246
f 208 246 222
f 208 222 209
f 209 222 221
f 210 212 211
f 214 218 243
f 214 243 215
f 216 244 245
f 216 245 217
f 218 219 243
f 222 246 247
f 222 247 248
f 222 248 249
f 222 249 223
f 223 249 250
f 223 250 224
f 224 250 251
f 229 252 253
f 229 253 254
f 229 254 255
f 229 255 230
f 230 255 231
f 231 255 256
f 232 257 258
f 232 258 233
f 233 258 234
f 234 258 259
f 234 259 235
f 235 259 260
f 235 260 236
f 236 260 237
f 237 260 238
f 241 261 242
f 242 261 246
f 244 262 263
f 244 263 264
f 244 264 245
f 246 261 265
f 246 265 248
f 246 248 247
f 248 251 250
f 248 250 249
f 252 263 262
f 252 262 253
f 253 255 254
f 257 266 258
f 258 266 259
f 259 266 260

