# https://github.com/mikedh/trimesh
v 0.01736511 0.01651488 -0.00206186
v 0.01736511 0.01651488 -0.00840561
v 0.01729194 0.01651488 -0.00079281
v 0.01736511 0.01332650 -0.00206186
v 0.01736511 0.01586492 -0.00967617
v 0.01733959 0.01651488 -0.00967617
v 0.01725621 0.00063605 -0.00079281
v 0.01685803 0.01651488 0.00015936
v 0.01686483 0.00063605 0.00023783
v 0.01731917 0.00063605 -0.00206186
v 0.01736001 -0.00000259 -0.00333091
v 0.01736341 -0.00000259 -0.00396317
v 0.01736511 0.00571288 -0.00333091
v 0.01736511 0.01078809 -0.01221428
v 0.01731236 0.01459571 -0.01094522
v 0.01710136 0.01586492 -0.01094522
v 0.01693630 0.01651488 -0.01094070
v 0.01705371 -0.00000259 -0.00027825
v 0.01723238 -0.00000259 -0.00079281
v 0.01730045 -0.00000259 -0.00206186
v 0.01581322 0.01651488 0.00031629
v 0.01586427 0.00063605 0.00066487
v 0.01636285 -0.00000259 0.00044908
v 0.01685803 -0.00000259 0.00023481
v 0.01736511 -0.00000259 -0.00459996
v 0.01736511 0.00698209 -0.01348333
v 0.01733108 0.00825129 -0.01348333
v 0.01729194 0.01205730 -0.01221428
v 0.01685973 0.01205730 -0.01324038
v 0.01688015 0.01459571 -0.01202113
v 0.01666744 0.01586492 -0.01173140
v 0.01650919 0.01651488 -0.01157447
v 0.01332542 0.00825129 0.00067996
v 0.01459484 0.00444367 0.00069354
v -0.00001543 0.01651488 0.00038269
v 0.00063630 0.01586492 0.00066034
v 0.00444287 0.01459571 0.00069052
v 0.00825113 0.01332650 0.00067996
v 0.01459484 0.00317447 0.00069806
v 0.01459484 -0.00000259 0.00069806
v 0.01522785 -0.00000259 0.00068147
v 0.01586427 -0.00000259 0.00066185
v 0.01736511 -0.00000259 -0.01348333
v 0.01736171 -0.00000259 -0.01411559
v 0.01735831 0.00063605 -0.01471767
v 0.01734810 0.00190526 -0.01471767
v 0.01733618 0.00317447 -0.01471767
v 0.01730726 0.00444367 -0.01471767
v 0.01721026 0.00571288 -0.01471767
v 0.01721537 0.00951888 -0.01348333
v 0.01678145 0.00951888 -0.01438268
v 0.01663341 0.01041784 -0.01422876
v 0.01668956 0.01304841 -0.01301253
v 0.01650578 0.01650680 -0.01158352
v 0.01650068 0.01651488 -0.01158201
v 0.01332542 0.00698209 0.00069806
v -0.00001543 0.01651488 -0.01471767
v -0.00001543 0.01586492 0.00066185
v 0.00317344 0.01459571 0.00069806
v 0.00698171 0.01332650 0.00069806
v 0.00825113 0.01205730 0.00069806
v 0.00825113 -0.00000259 0.00069806
v 0.01735831 -0.00000259 -0.01471767
v 0.01691077 0.00765792 -0.01471767
v 0.01689716 0.00825129 -0.01458488
v 0.01677464 0.00825129 -0.01471767
v 0.01632201 0.00954799 -0.01471767
v 0.01589830 0.01034023 -0.01471767
v 0.01638497 0.01126505 -0.01405221
v 0.01644623 0.01389401 -0.01281485
v 0.01463909 0.01203790 -0.01471767
v 0.01461186 0.01207185 -0.01471767
v 0.01457442 0.01211712 -0.01471767
v 0.01525848 0.01525861 -0.01286465
v 0.01648877 0.01651488 -0.01158805
v -0.00001543 0.00548167 -0.01471767
v 0.00931296 0.01651488 -0.01471767
v -0.00001543 0.01459571 0.00069806
v -0.00001543 0.00825129 0.00069806
v 0.00761302 -0.00000259 0.00068901
v 0.00548257 -0.00000259 -0.01471767
v 0.01558009 0.01080911 -0.01471767
v 0.01357386 0.01327477 -0.01471767
v 0.01400438 0.01400395 -0.01414275
v 0.01462207 0.01651488 -0.01245269
v 0.01204068 0.01458601 -0.01471767
v -0.00001543 0.00547036 -0.01413521
v 0.00954098 0.01651488 -0.01464675
v 0.00954778 0.01640494 -0.01471767
v -0.00001543 0.00698209 0.00066788
v 0.00698171 -0.00000259 0.00066788
v 0.00546895 -0.00000259 -0.01348333
v 0.01327437 0.01356579 -0.01471767
v 0.01196071 0.01464907 -0.01471767
v 0.01080529 0.01555610 -0.01471767
v 0.01280472 0.01651488 -0.01326905
v -0.00001543 0.00546874 -0.01348333
v 0.01049389 0.01651488 -0.01428761
v 0.01033564 0.01589402 -0.01471767
v -0.00001543 0.00592145 0.00023933
v 0.00644399 -0.00000259 0.00045361
v 0.00546555 -0.00000259 -0.01158201
v 0.01085124 0.01651488 -0.01413370
v 0.01125453 0.01636775 -0.01404316
v 0.01211556 0.01651488 -0.01357688
v -0.00001543 0.00546227 -0.00967617
v -0.00001543 0.00569671 -0.00028277
v 0.00592159 -0.00000259 0.00023933
v 0.00546385 -0.00000259 -0.01031296
v -0.00001543 0.00546227 -0.00525184
v -0.00001543 0.00548006 -0.00079281
v 0.00547916 -0.00000259 -0.00079281
v 0.00546385 -0.00000259 -0.00586902
v 0.00546555 -0.00000259 -0.00206186
v -0.00001543 0.00546551 -0.00206186
v -0.00001543 0.00546712 -0.00144469
f 1 2 6
f 1 6 17
f 1 17 32
f 1 32 55
f 1 55 75
f 1 75 85
f 1 85 96
f 1 96 105
f 1 105 103
f 1 103 98
f 1 98 88
f 1 88 77
f 1 77 57
f 1 57 35
f 1 35 21
f 1 21 8
f 1 8 3
f 1 3 4
f 1 4 13
f 1 13 25
f 1 25 43
f 1 43 26
f 1 26 14
f 1 14 5
f 1 5 2
f 2 5 6
f 3 7 4
f 3 8 9
f 3 9 7
f 4 7 10
f 4 10 11
f 4 11 12
f 4 12 13
f 5 14 6
f 6 14 15
f 6 15 16
f 6 16 17
f 7 9 18
f 7 18 19
f 7 19 20
f 7 20 10
f 8 21 22
f 8 22 9
f 9 22 23
f 9 23 24
f 9 24 18
f 10 20 11
f 11 20 19
f 11 19 18
f 11 18 24
f 11 24 23
f 11 23 42
f 11 42 41
f 11 41 40
f 11 40 62
f 11 62 80
f 11 80 91
f 11 91 101
f 11 101 108
f 11 108 112
f 11 112 114
f 11 114 113
f 11 113 109
f 11 109 102
f 11 102 92
f 11 92 81
f 11 81 63
f 11 63 44
f 11 44 43
f 11 43 25
f 11 25 12
f 12 25 13
f 14 26 27
f 14 27 28
f 14 28 15
f 15 28 16
f 16 28 29
f 16 29 30
f 16 30 17
f 17 30 31
f 17 31 32
f 21 33 34
f 21 34 22
f 21 35 36
f 21 36 37
f 21 37 38
f 21 38 33
f 22 34 39
f 22 39 40
f 22 40 41
f 22 41 42
f 22 42 23
f 26 43 44
f 26 44 45
f 26 45 46
f 26 46 47
f 26 47 48
f 26 48 27
f 27 48 49
f 27 49 50
f 27 50 28
f 28 50 29
f 29 51 52
f 29 52 53
f 29 53 31
f 29 31 30
f 29 50 51
f 31 53 54
f 31 54 32
f 32 54 55
f 33 56 34
f 33 38 61
f 33 61 56
f 34 56 39
f 35 57 76
f 35 76 87
f 35 87 97
f 35 97 106
f 35 106 110
f 35 110 115
f 35 115 116
f 35 116 111
f 35 111 107
f 35 107 100
f 35 100 90
f 35 90 79
f 35 79 78
f 35 78 58
f 35 58 36
f 36 58 59
f 36 59 37
f 37 59 60
f 37 60 38
f 38 60 61
f 39 56 61
f 39 61 60
f 39 60 59
f 39 59 78
f 39 78 79
f 39 79 62
f 39 62 40
f 44 63 45
f 45 63 81
f 45 81 76
f 45 76 57
f 45 57 77
f 45 77 89
f 45 89 99
f 45 99 95
f 45 95 94
f 45 94 86
f 45 86 93
f 45 93 83
f 45 83 73
f 45 73 72
f 45 72 71
f 45 71 82
f 45 82 68
f 45 68 67
f 45 67 66
f 45 66 64
f 45 64 49
f 45 49 48
f 45 48 47
f 45 47 46
f 49 64 65
f 49 65 50
f 50 65 51
f 51 65 66
f 51 66 67
f 51 67 52
f 52 67 68
f 52 68 69
f 52 69 53
f 53 69 70
f 53 70 54
f 54 70 71
f 54 71 72
f 54 72 73
f 54 73 74
f 54 74 55
f 55 74 75
f 58 78 59
f 62 79 80
f 64 66 65
f 68 82 69
f 69 82 71
f 69 71 70
f 73 83 84
f 73 84 74
f 74 85 75
f 74 84 86
f 74 86 85
f 76 81 87
f 77 88 89
f 79 90 80
f 80 90 91
f 81 92 87
f 83 93 84
f 84 93 86
f 85 86 94
f 85 94 95
f 85 95 96
f 87 92 97
f 88 98 89
f 89 98 99
f 90 100 101
f 90 101 91
f 92 102 97
f 95 99 98
f 95 98 103
f 95 103 104
f 95 104 105
f 95 105 96
f 97 102 106
f 100 107 108
f 100 108 101
f 102 109 106
f 103 105 104
f 106 109 113
f 106 113 110
f 107 111 112
f 107 112 108
f 110 113 114
f 110 114 115
f 111 116 112
f 112 116 114
f 114 116 115

