# https://github.com/mikedh/trimesh
v -0.00002320 -0.01898340 -0.01471767
v -0.00002320 -0.01725425 -0.01728629
v 0.00063526 -0.01897784 -0.01471767
v -0.00002320 -0.00548225 -0.01471767
v 0.00063526 -0.01721900 -0.01728629
v -0.00002320 -0.00841180 -0.01728629
v 0.00119504 -0.01891847 -0.01471767
v 0.00548268 -0.00003132 -0.01471767
v -0.00002320 -0.00548225 -0.01475313
v 0.00447372 -0.01843052 -0.01471767
v 0.00444310 -0.01843608 -0.01471767
v 0.00357536 -0.01858637 -0.01471767
v 0.00314319 -0.01865130 -0.01471767
v 0.00236393 -0.01876448 -0.01471767
v 0.00467960 -0.01646945 -0.01728629
v -0.00002320 -0.00592196 -0.01579053
v 0.00592165 -0.00003132 -0.01579028
v 0.00940621 -0.00003132 -0.01728629
v 0.01735707 -0.00003132 -0.01471767
v 0.00548268 -0.00003132 -0.01475313
v -0.00002320 -0.00569375 -0.01526026
v 0.00528361 -0.01821716 -0.01471767
v 0.00560689 -0.01625794 -0.01728629
v 0.01723626 -0.00003132 -0.01728629
v 0.01735707 -0.00003132 -0.01475313
v 0.01735877 -0.00063615 -0.01471767
v 0.00568005 -0.01810584 -0.01471767
v 0.00698165 -0.01576814 -0.01728629
v 0.01729922 -0.00003132 -0.01602210
v 0.01724817 -0.00003318 -0.01728629
v 0.01728220 -0.00063987 -0.01728629
v 0.01735877 -0.00067141 -0.01471767
v 0.00640146 -0.01782939 -0.01471767
v 0.00791405 -0.01537110 -0.01728629
v 0.00741722 -0.01742123 -0.01471767
v 0.01735026 -0.00190519 -0.01475313
v 0.01734175 -0.00320948 -0.01471767
v 0.01730772 -0.00447852 -0.01471767
v 0.01730602 -0.00444327 -0.01475313
v 0.01721074 -0.00574756 -0.01471767
v 0.01711546 -0.00191076 -0.01728629
v 0.00854698 -0.01505569 -0.01728629
v 0.00903360 -0.01669209 -0.01471767
v 0.00831729 -0.01703717 -0.01471767
v 0.01691129 -0.00763813 -0.01471767
v 0.01691809 -0.00317980 -0.01728629
v 0.00991154 -0.01619672 -0.01471767
v 0.00954573 -0.01641008 -0.01471767
v 0.00949639 -0.01441932 -0.01728629
v 0.01681601 -0.00811495 -0.01471767
v 0.01663906 -0.00443770 -0.01728629
v 0.01059893 -0.01570506 -0.01471767
v 0.01012933 -0.01394807 -0.01728629
v 0.01129652 -0.01518928 -0.01471767
v 0.01657951 -0.00899993 -0.01471767
v 0.01659992 -0.00458798 -0.01728629
v 0.01078779 -0.01342487 -0.01728629
v 0.01207068 -0.01461042 -0.01471767
v 0.01205366 -0.01462340 -0.01471767
v 0.01616606 -0.00991461 -0.01471767
v 0.01535957 -0.00790715 -0.01728629
v 0.01575601 -0.00698691 -0.01728629
v 0.01628516 -0.00560470 -0.01728629
v 0.01648423 -0.00501656 -0.01728629
v 0.01154663 -0.01280705 -0.01728629
v 0.01208429 -0.01459929 -0.01471767
v 0.01572708 -0.01061963 -0.01471767
v 0.01506012 -0.00854538 -0.01728629
v 0.01217957 -0.01217067 -0.01728629
v 0.01343183 -0.01343414 -0.01471767
v 0.01284143 -0.01397961 -0.01471767
v 0.01520984 -0.01130238 -0.01471767
v 0.01442888 -0.00949345 -0.01728629
v 0.01279209 -0.01153244 -0.01728629
v 0.01396439 -0.01282560 -0.01471767
v 0.01461264 -0.01204266 -0.01471767
v 0.01340291 -0.01079217 -0.01728629
v 0.01393716 -0.01012797 -0.01728629
f 1 2 3
f 1 3 7
f 1 7 14
f 1 14 13
f 1 13 12
f 1 12 11
f 1 11 10
f 1 10 22
f 1 22 27
f 1 27 33
f 1 33 35
f 1 35 44
f 1 44 43
f 1 43 48
f 1 48 47
f 1 47 52
f 1 52 54
f 1 54 59
f 1 59 58
f 1 58 66
f 1 66 71
f 1 71 70
f 1 70 75
f 1 75 76
f 1 76 72
f 1 72 67
f 1 67 60
f 1 60 55
f 1 55 50
f 1 50 45
f 1 45 40
f 1 40 38
f 1 38 37
f 1 37 32
f 1 32 26
f 1 26 19
f 1 19 8
f 1 8 4
f 1 4 9
f 1 9 21
f 1 21 16
f 1 16 6
f 1 6 2
f 2 5 3
f 2 6 18
f 2 18 24
f 2 24 30
f 2 30 31
f 2 31 41
f 2 41 46
f 2 46 51
f 2 51 56
f 2 56 64
f 2 64 63
f 2 63 62
f 2 62 61
f 2 61 68
f 2 68 73
f 2 73 78
f 2 78 77
f 2 77 74
f 2 74 69
f 2 69 65
f 2 65 57
f 2 57 53
f 2 53 49
f 2 49 42
f 2 42 34
f 2 34 28
f 2 28 23
f 2 23 15
f 2 15 5
f 3 5 7
f 4 8 20
f 4 20 9
f 5 10 11
f 5 11 12
f 5 12 13
f 5 13 14
f 5 14 7
f 5 15 10
f 6 16 17
f 6 17 18
f 8 19 25
f 8 25 29
f 8 29 24
f 8 24 18
f 8 18 17
f 8 17 20
f 9 20 21
f 10 15 23
f 10 23 22
f 16 21 17
f 17 21 20
f 19 26 25
f 22 23 27
f 23 28 27
f 24 29 30
f 25 26 31
f 25 31 30
f 25 30 29
f 26 32 31
f 27 28 33
f 28 34 35
f 28 35 33
f 31 32 36
f 31 36 37
f 31 37 38
f 31 38 39
f 31 39 40
f 31 40 41
f 32 37 36
f 34 42 43
f 34 43 44
f 34 44 35
f 38 40 39
f 40 45 46
f 40 46 41
f 42 47 48
f 42 48 43
f 42 49 47
f 45 50 46
f 46 50 51
f 47 49 52
f 49 53 54
f 49 54 52
f 50 55 56
f 50 56 51
f 53 57 58
f 53 58 59
f 53 59 54
f 55 60 61
f 55 61 62
f 55 62 63
f 55 63 64
f 55 64 56
f 57 65 58
f 58 65 66
f 60 67 68
f 60 68 61
f 65 69 70
f 65 70 71
f 65 71 66
f 67 72 73
f 67 73 68
f 69 74 70
f 70 74 75
f 72 76 77
f 72 77 78
f 72 78 73
f 74 77 76
f 74 76 75

