# https://github.com/mikedh/trimesh
v 0.03365231 -0.03361709 0.02768556
v 0.03365231 -0.03234969 0.02768356
v 0.02221214 -0.04125065 0.02768556
v 0.03365231 -0.04886152 0.02768556
v 0.03365231 -0.03107905 0.02759150
v 0.02089606 -0.04129603 0.02765154
v 0.02089606 -0.04256667 0.02768556
v 0.03109507 -0.05140280 0.02768556
v 0.03365231 -0.05013216 0.02768356
v 0.03365231 -0.02980841 0.02728328
v 0.02089606 -0.04125065 0.02764554
v 0.02089606 -0.05647887 0.02768556
v 0.02601929 -0.05394084 0.02768556
v 0.02728792 -0.05394084 0.02768356
v 0.02982519 -0.05267020 0.02768356
v 0.03236370 -0.05140280 0.02767556
v 0.03363358 -0.05140280 0.02759750
v 0.03365231 -0.05138335 0.02759750
v 0.03365231 -0.02862853 0.02680294
v 0.02089606 -0.04002863 0.02732331
v 0.02089606 -0.05652426 0.02768356
v 0.02094226 -0.05647887 0.02768556
v 0.03109507 -0.05267020 0.02764954
v 0.02475066 -0.05520824 0.02767556
v 0.03365231 -0.05265075 0.02727928
v 0.03365231 -0.05140280 0.02759350
v 0.03236370 -0.05267020 0.02753946
v 0.03365231 -0.02796728 0.02623655
v 0.02089606 -0.03904972 0.02674490
v 0.02089606 -0.03906917 0.02676091
v 0.02089606 -0.03998001 0.02729929
v 0.02089606 -0.05774627 0.02757348
v 0.02221214 -0.05647887 0.02766155
v 0.02855656 -0.05394084 0.02763953
v 0.02982519 -0.05394084 0.02753346
v 0.03363358 -0.05267020 0.02727728
v 0.03365231 -0.05267020 0.02727127
v 0.03109507 -0.05394084 0.02733732
v 0.03365231 -0.02764962 0.02579023
v 0.02089606 -0.03860889 0.02591832
v 0.02089606 -0.05779166 0.02756348
v 0.02094226 -0.05774627 0.02756948
v 0.02475066 -0.05647887 0.02748942
v 0.02348078 -0.05647887 0.02759550
v 0.02601929 -0.05520824 0.02761952
v 0.02728792 -0.05520824 0.02751344
v 0.03238868 -0.05401215 0.02693504
v 0.03363358 -0.05363290 0.02677092
v 0.03365231 -0.05362966 0.02676692
v 0.02855656 -0.05520824 0.02730730
v 0.03109507 -0.05490354 0.02677692
v 0.03365231 -0.02751672 0.02538194
v 0.02089606 -0.03854082 0.02576822
v 0.02221214 -0.05774627 0.02745540
v 0.02089606 -0.05901692 0.02717921
v 0.03198286 -0.05469609 0.02661681
v 0.03282945 -0.05448540 0.02633261
v 0.03365231 -0.05416774 0.02593033
v 0.02601929 -0.05647887 0.02726927
v 0.02601929 -0.05738972 0.02674090
v 0.03365231 -0.02731575 0.02452734
v 0.02089606 -0.03837550 0.02461541
v 0.02348078 -0.05774627 0.02722324
v 0.02089606 -0.05905581 0.02715719
v 0.02094226 -0.05901692 0.02716920
v 0.02683091 -0.05719848 0.02658479
v 0.03025223 -0.05573659 0.02632661
v 0.03114876 -0.05556480 0.02588630
v 0.03238868 -0.05494568 0.02589030
v 0.03316659 -0.05470257 0.02548602
v 0.03365231 -0.05418071 0.02588830
v 0.02348078 -0.05862470 0.02671688
v 0.02425369 -0.05844642 0.02656678
v 0.03365231 -0.02732224 0.02428517
v 0.02089606 -0.03786660 0.01063158
v 0.02089606 -0.03837226 0.02459139
v 0.02089606 -0.05985320 0.02669487
v 0.02094226 -0.05984348 0.02668886
v 0.02213722 -0.05904609 0.02683296
v 0.02166523 -0.05968789 0.02654476
v 0.03076043 -0.05597321 0.02548001
v 0.03155582 -0.05576576 0.02459139
v 0.03236370 -0.05533141 0.02459139
v 0.03326149 -0.05477713 0.02459139
v 0.03365231 -0.05442705 0.02488960
v 0.03365231 -0.02774362 0.01063158
v 0.02120573 -0.03787308 0.00962488
v 0.02089606 -0.03822316 0.00931666
v 0.03365231 -0.02778900 0.01012122
v 0.03365231 -0.02786680 0.00936269
v 0.02089606 -0.05987265 0.02665884
v 0.02089606 -0.06020652 0.02586028
v 0.02094226 -0.06018707 0.02586028
v 0.02188375 -0.05978189 0.02586028
v 0.02541744 -0.05839456 0.02527187
v 0.02808831 -0.05718227 0.02539996
v 0.03092151 -0.05604128 0.02459139
v 0.02982519 -0.05653074 0.02332250
v 0.03092775 -0.05604777 0.02332250
v 0.03156332 -0.05576901 0.02332250
v 0.03236370 -0.05534762 0.02332250
v 0.03327522 -0.05478685 0.02332250
v 0.03365231 -0.05449836 0.02332250
v 0.03365231 -0.05447568 0.02459139
v 0.02089606 -0.03826530 0.00923460
v 0.03365231 -0.02858964 0.00827393
v 0.02089606 -0.06021624 0.02580024
v 0.02089606 -0.06037183 0.02459139
v 0.02094226 -0.06035239 0.02459139
v 0.02608047 -0.05813525 0.02459139
v 0.02881752 -0.05695213 0.02459139
v 0.02728792 -0.05763283 0.02205361
v 0.02884000 -0.05696185 0.02205361
v 0.02982519 -0.05653074 0.02205361
v 0.02609546 -0.05814173 0.02332250
v 0.02820069 -0.05723737 0.01951382
v 0.03091901 -0.05604777 0.02205361
v 0.03155333 -0.05576576 0.02205361
v 0.03236370 -0.05532169 0.01190047
v 0.03236370 -0.05534113 0.01951382
v 0.03236370 -0.05534762 0.02205361
v 0.03334265 -0.05480306 0.01063158
v 0.03334140 -0.05480306 0.01190047
v 0.03333516 -0.05480306 0.01317137
v 0.03332766 -0.05480306 0.01444026
v 0.03331268 -0.05479982 0.01697804
v 0.03329770 -0.05479658 0.01951382
v 0.03329021 -0.05479333 0.02078471
v 0.03365231 -0.05456320 0.01505269
v 0.03365231 -0.05455347 0.01630757
v 0.03365231 -0.05450485 0.02257797
v 0.02089606 -0.03895572 0.00834598
v 0.03365231 -0.02975331 0.00765749
v 0.03364857 -0.02859612 0.00826992
v 0.02089606 -0.06038479 0.02332250
v 0.02094226 -0.06036535 0.02332250
v 0.02208728 -0.05987265 0.02332250
v 0.02475066 -0.05872843 0.02205361
v 0.02548487 -0.05842697 0.01824493
v 0.02883501 -0.05695537 0.01951382
v 0.02276030 -0.05961334 0.01444026
v 0.02094226 -0.06040424 0.01190047
v 0.02611669 -0.05814497 0.01697804
v 0.02546114 -0.05841725 0.01444026
v 0.03153085 -0.05575604 0.01951382
v 0.03236370 -0.05531196 0.01063158
v 0.03322652 -0.05472527 0.00963688
v 0.03365231 -0.05458264 0.01063158
v 0.03365231 -0.05458264 0.01190047
v 0.03365231 -0.05457940 0.01254292
v 0.02089606 -0.03977580 0.00771353
v 0.03365231 -0.02982786 0.00763548
v 0.03316284 -0.03062849 0.00750939
v 0.02089606 -0.04041112 0.00738930
v 0.02094226 -0.03976608 0.00769952
v 0.02089606 -0.06039128 0.02205361
v 0.02094226 -0.06037183 0.02205361
v 0.02089606 -0.06040749 0.01824493
v 0.02211724 -0.05988562 0.01697804
v 0.02094226 -0.06039776 0.01570915
v 0.02089606 -0.06042694 0.01310732
v 0.02089606 -0.06042369 0.01183643
v 0.02089606 -0.06041721 0.01063158
v 0.02475066 -0.05870250 0.01063158
v 0.02606174 -0.05811904 0.01063158
v 0.03150837 -0.05574632 0.01697804
v 0.03145094 -0.05572038 0.01063158
v 0.02540870 -0.05839132 0.00994710
v 0.02805085 -0.05716930 0.00978699
v 0.03069425 -0.05594729 0.00969693
v 0.03293684 -0.05454375 0.00879029
v 0.03364357 -0.05430064 0.00927263
v 0.03365231 -0.05429416 0.00927463
v 0.03245361 -0.05497161 0.00927263
v 0.03365231 -0.03096560 0.00733527
v 0.02094226 -0.04040140 0.00738530
v 0.02089606 -0.04125065 0.00727923
v 0.02089606 -0.06041721 0.01570915
v 0.02089606 -0.06027135 0.00936069
v 0.02094226 -0.06025514 0.00936269
v 0.02476689 -0.05857284 0.00945876
v 0.02520017 -0.05829407 0.00910051
v 0.02778239 -0.05704613 0.00894039
v 0.03035961 -0.05579494 0.00885033
v 0.02435483 -0.05848856 0.00857614
v 0.02693830 -0.05724385 0.00855612
v 0.02951303 -0.05599914 0.00853811
v 0.03209025 -0.05474795 0.00852010
v 0.03365231 -0.05370422 0.00832796
v 0.03365231 -0.03106933 0.00732526
v 0.03360487 -0.03106933 0.00732726
v 0.02094226 -0.04125065 0.00727522
v 0.02089606 -0.04252129 0.00724120
v 0.02089606 -0.05989210 0.00842803
v 0.02094226 -0.05988562 0.00843604
v 0.02171518 -0.05971382 0.00862617
v 0.02348078 -0.05868305 0.00837600
v 0.02601929 -0.05746103 0.00835198
v 0.02855656 -0.05622605 0.00832997
v 0.03109507 -0.05498458 0.00830995
v 0.03239617 -0.05395381 0.00802175
v 0.03363358 -0.05370746 0.00832196
v 0.03365231 -0.05324069 0.00802375
v 0.03365231 -0.03236590 0.00724120
v 0.03363358 -0.03236590 0.00724120
v 0.02221214 -0.04125065 0.00724120
v 0.02089606 -0.05647887 0.00724120
v 0.02089606 -0.05986293 0.00840602
v 0.02092853 -0.05893912 0.00775156
v 0.02353946 -0.05770089 0.00769552
v 0.02601929 -0.05661502 0.00771754
v 0.02855656 -0.05539948 0.00769552
v 0.03109507 -0.05415477 0.00767551
v 0.03270334 -0.05309807 0.00752340
v 0.03365231 -0.05268317 0.00765949
v 0.03365231 -0.05013216 0.00724120
v 0.02094226 -0.05647887 0.00724120
v 0.02089606 -0.05779814 0.00735328
v 0.02089606 -0.05894560 0.00774956
v 0.02134183 -0.05825518 0.00749138
v 0.02221214 -0.05807042 0.00756543
v 0.02750394 -0.05563287 0.00754341
v 0.03012487 -0.05437843 0.00753341
v 0.03185675 -0.05336711 0.00743334
v 0.03327772 -0.05225206 0.00739931
v 0.03365231 -0.05265075 0.00764749
v 0.03365231 -0.05145142 0.00733327
v 0.03236370 -0.05140280 0.00724921
v 0.02982519 -0.05267020 0.00724120
v 0.02728792 -0.05394084 0.00724120
v 0.02475066 -0.05520824 0.00725121
v 0.02221214 -0.05647887 0.00726322
v 0.02221214 -0.05743510 0.00737329
v 0.02089606 -0.05784676 0.00736129
v 0.02089606 -0.05890346 0.00772954
v 0.02315488 -0.05724710 0.00741732
v 0.02665860 -0.05584680 0.00745735
v 0.02927953 -0.05461505 0.00744134
v 0.03109507 -0.05352270 0.00738530
v 0.03231376 -0.05267344 0.00736329
v 0.02855656 -0.05476416 0.00739331
v 0.03365231 -0.05149680 0.00733927
v 0.03109507 -0.05267020 0.00727522
v 0.02855656 -0.05394084 0.00728323
v 0.02475066 -0.05623901 0.00736129
v 0.02601929 -0.05597970 0.00741532
f 1 2 3
f 1 3 7
f 1 7 12
f 1 12 22
f 1 22 13
f 1 13 8
f 1 8 4
f 1 4 9
f 1 9 18
f 1 18 26
f 1 26 25
f 1 25 37
f 1 37 49
f 1 49 58
f 1 58 71
f 1 71 85
f 1 85 104
f 1 104 103
f 1 103 131
f 1 131 130
f 1 130 129
f 1 129 150
f 1 150 149
f 1 149 148
f 1 148 173
f 1 173 189
f 1 189 203
f 1 203 215
f 1 215 226
f 1 226 242
f 1 242 227
f 1 227 216
f 1 216 204
f 1 204 190
f 1 190 175
f 1 175 152
f 1 152 133
f 1 133 106
f 1 106 90
f 1 90 89
f 1 89 86
f 1 86 74
f 1 74 61
f 1 61 52
f 1 52 39
f 1 39 28
f 1 28 19
f 1 19 10
f 1 10 5
f 1 5 2
f 2 5 6
f 2 6 3
f 3 6 7
f 4 8 9
f 5 10 11
f 5 11 6
f 6 11 20
f 6 20 31
f 6 31 30
f 6 30 29
f 6 29 40
f 6 40 53
f 6 53 62
f 6 62 76
f 6 76 75
f 6 75 88
f 6 88 105
f 6 105 132
f 6 132 151
f 6 151 154
f 6 154 177
f 6 177 193
f 6 193 207
f 6 207 218
f 6 218 234
f 6 234 235
f 6 235 219
f 6 219 208
f 6 208 194
f 6 194 179
f 6 179 163
f 6 163 162
f 6 162 161
f 6 161 178
f 6 178 158
f 6 158 156
f 6 156 135
f 6 135 108
f 6 108 107
f 6 107 92
f 6 92 91
f 6 91 77
f 6 77 64
f 6 64 55
f 6 55 41
f 6 41 32
f 6 32 21
f 6 21 12
f 6 12 7
f 8 13 14
f 8 14 15
f 8 15 9
f 9 15 16
f 9 16 17
f 9 17 18
f 10 19 20
f 10 20 11
f 12 21 22
f 13 22 14
f 14 23 15
f 14 22 24
f 14 24 23
f 15 23 16
f 16 23 17
f 17 25 26
f 17 26 18
f 17 23 27
f 17 27 25
f 19 28 29
f 19 29 30
f 19 30 31
f 19 31 20
f 21 32 33
f 21 33 22
f 22 33 24
f 23 24 34
f 23 34 35
f 23 35 27
f 24 33 34
f 25 27 36
f 25 36 37
f 27 35 38
f 27 38 36
f 28 39 29
f 29 39 40
f 32 41 42
f 32 42 43
f 32 43 44
f 32 44 33
f 33 44 45
f 33 45 34
f 34 45 46
f 34 46 35
f 35 46 38
f 36 38 47
f 36 47 48
f 36 48 49
f 36 49 37
f 38 46 43
f 38 43 50
f 38 50 51
f 38 51 47
f 39 52 53
f 39 53 40
f 41 54 42
f 41 55 54
f 42 54 43
f 43 54 50
f 43 46 45
f 43 45 44
f 47 51 49
f 47 49 48
f 49 51 56
f 49 56 57
f 49 57 58
f 50 54 59
f 50 59 60
f 50 60 51
f 51 60 56
f 52 61 53
f 53 61 62
f 54 55 63
f 54 63 59
f 55 64 65
f 55 65 63
f 56 60 66
f 56 66 67
f 56 67 57
f 57 67 68
f 57 68 69
f 57 69 70
f 57 70 58
f 58 70 71
f 59 63 72
f 59 72 60
f 60 72 73
f 60 73 66
f 61 74 75
f 61 75 76
f 61 76 62
f 63 65 72
f 64 77 65
f 65 77 78
f 65 78 79
f 65 79 72
f 66 73 67
f 67 73 68
f 68 73 80
f 68 80 81
f 68 81 69
f 69 81 70
f 70 81 82
f 70 82 83
f 70 83 84
f 70 84 85
f 70 85 71
f 72 79 78
f 72 78 80
f 72 80 73
f 74 86 75
f 75 87 88
f 75 86 89
f 75 89 90
f 75 90 87
f 77 91 78
f 78 91 80
f 80 91 92
f 80 92 93
f 80 93 94
f 80 94 95
f 80 95 96
f 80 96 81
f 81 96 82
f 82 96 95
f 82 95 97
f 82 97 98
f 82 98 99
f 82 99 100
f 82 100 101
f 82 101 83
f 83 101 102
f 83 102 84
f 84 102 103
f 84 103 104
f 84 104 85
f 87 90 88
f 88 90 105
f 90 106 105
f 92 107 93
f 93 107 95
f 93 95 94
f 95 107 108
f 95 108 109
f 95 109 110
f 95 110 111
f 95 111 97
f 97 111 98
f 98 112 113
f 98 113 114
f 98 114 99
f 98 111 110
f 98 110 115
f 98 115 112
f 99 114 100
f 100 114 116
f 100 116 117
f 100 117 118
f 100 118 119
f 100 119 120
f 100 120 121
f 100 121 101
f 101 121 122
f 101 122 123
f 101 123 124
f 101 124 125
f 101 125 126
f 101 126 127
f 101 127 128
f 101 128 102
f 102 128 129
f 102 129 130
f 102 130 131
f 102 131 103
f 105 106 132
f 106 133 134
f 106 134 132
f 108 135 136
f 108 136 109
f 109 136 137
f 109 137 110
f 110 137 115
f 112 115 137
f 112 137 138
f 112 138 139
f 112 139 113
f 113 139 114
f 114 139 116
f 116 140 118
f 116 118 117
f 116 139 141
f 116 141 142
f 116 142 143
f 116 143 140
f 118 140 144
f 118 144 145
f 118 145 146
f 118 146 119
f 119 146 122
f 119 122 120
f 120 122 121
f 122 147 148
f 122 148 149
f 122 149 123
f 122 146 147
f 123 149 124
f 124 149 125
f 125 149 150
f 125 150 126
f 126 150 127
f 127 150 129
f 127 129 128
f 132 134 151
f 133 152 153
f 133 153 154
f 133 154 155
f 133 155 151
f 133 151 134
f 135 156 157
f 135 157 136
f 136 157 137
f 137 157 158
f 137 158 138
f 138 158 159
f 138 159 139
f 139 159 160
f 139 160 161
f 139 161 141
f 140 143 144
f 141 161 142
f 142 161 162
f 142 162 163
f 142 163 143
f 143 163 144
f 144 164 165
f 144 165 166
f 144 166 145
f 144 163 164
f 145 166 146
f 146 166 167
f 146 167 168
f 146 168 169
f 146 169 170
f 146 170 147
f 147 171 172
f 147 172 173
f 147 173 148
f 147 170 174
f 147 174 171
f 151 155 154
f 152 175 153
f 153 175 154
f 154 176 177
f 154 175 176
f 156 158 157
f 158 178 160
f 158 160 159
f 160 178 161
f 163 179 180
f 163 180 168
f 163 168 164
f 164 168 165
f 165 168 167
f 165 167 166
f 168 180 181
f 168 181 169
f 169 181 182
f 169 182 170
f 170 182 183
f 170 183 174
f 171 174 184
f 171 184 185
f 171 185 186
f 171 186 187
f 171 187 188
f 171 188 189
f 171 189 172
f 172 189 173
f 174 183 184
f 175 190 191
f 175 191 177
f 175 177 176
f 177 192 193
f 177 191 192
f 179 194 195
f 179 195 196
f 179 196 180
f 180 196 182
f 180 182 181
f 182 196 185
f 182 185 183
f 183 185 184
f 185 196 195
f 185 195 197
f 185 197 198
f 185 198 186
f 186 198 187
f 187 198 199
f 187 199 188
f 188 200 201
f 188 201 202
f 188 202 189
f 188 199 200
f 189 202 203
f 190 204 205
f 190 205 191
f 191 205 192
f 192 206 193
f 192 205 206
f 193 206 205
f 193 205 204
f 193 204 216
f 193 216 229
f 193 229 230
f 193 230 217
f 193 217 207
f 194 208 195
f 195 208 209
f 195 209 197
f 197 209 210
f 197 210 211
f 197 211 212
f 197 212 198
f 198 212 199
f 199 212 200
f 200 213 201
f 200 212 213
f 201 213 214
f 201 214 202
f 202 214 203
f 203 214 215
f 207 217 218
f 208 219 209
f 209 219 220
f 209 220 221
f 209 221 210
f 210 222 211
f 210 221 222
f 211 222 212
f 212 222 223
f 212 223 213
f 213 223 224
f 213 224 214
f 214 224 225
f 214 225 226
f 214 226 215
f 216 227 228
f 216 228 229
f 217 230 231
f 217 231 232
f 217 232 218
f 218 232 233
f 218 233 234
f 219 235 220
f 220 235 234
f 220 234 233
f 220 233 236
f 220 236 237
f 220 237 221
f 221 237 222
f 222 237 238
f 222 238 223
f 223 238 224
f 224 239 240
f 224 240 225
f 224 238 241
f 224 241 239
f 225 227 242
f 225 242 226
f 225 240 227
f 227 240 243
f 227 243 228
f 228 243 229
f 229 243 230
f 230 243 244
f 230 244 231
f 231 244 232
f 232 244 233
f 233 244 245
f 233 245 241
f 233 241 236
f 236 241 246
f 236 246 237
f 237 246 241
f 237 241 238
f 239 243 240
f 239 241 244
f 239 244 243
f 241 245 244

