# https://github.com/mikedh/trimesh
v -0.03675801 0.02346889 0.02459143
v -0.03681949 0.02346889 0.01063178
v -0.03681682 0.02346889 0.02501572
v -0.04367858 -0.00008565 0.02459143
v -0.04367055 -0.00008565 0.02404305
v -0.04366254 -0.00008565 0.02332255
v -0.04366254 -0.00008565 0.01190066
v -0.03709481 0.02346889 0.00931487
v -0.04367590 -0.00008565 0.01063178
v -0.04388707 -0.00008565 0.00936290
v -0.03708947 0.02346889 0.02588031
v -0.04393786 -0.00008565 0.02586030
v -0.04382292 -0.00008565 0.02531192
v -0.03709749 0.02346889 0.00930286
v -0.04425328 -0.00008565 0.00846428
v -0.03709749 0.02346889 0.02589833
v -0.04413834 -0.00008565 0.02630261
v -0.03770695 0.02346889 0.00835421
v -0.04454732 -0.00008565 0.00819009
v -0.03774972 0.02346889 0.02676293
v -0.04430140 -0.00008565 0.02664885
v -0.03782189 0.02346889 0.00827215
v -0.04496699 -0.00008565 0.00782984
v -0.03871202 0.02346889 0.02731931
v -0.04505788 -0.00008565 0.02717721
v -0.03868262 0.02346889 0.00765973
v -0.04524232 -0.00008565 0.00764572
v -0.03872271 0.02346889 0.02732531
v -0.04577960 -0.00008565 0.02743339
v -0.03882162 0.02346889 0.00760169
v -0.04560318 -0.00008565 0.00741956
v -0.03998173 0.02346889 0.02764554
v -0.04632758 -0.00008565 0.02761952
v -0.03939098 0.02289017 0.00746959
v -0.03970105 0.02346889 0.00734351
v -0.04632758 -0.00008565 0.00730948
v -0.03999242 0.02346889 0.02764754
v -0.04632758 0.00063602 0.02763753
v -0.04704664 -0.00008565 0.02766355
v -0.03988817 0.02346889 0.00732349
v -0.04759729 -0.00008565 0.00723944
v -0.04632758 0.00063602 0.00729147
v -0.04125143 0.02346889 0.02768556
v -0.04125143 0.02221000 0.02768556
v -0.04632758 0.00190413 0.02766555
v -0.04759729 -0.00008565 0.02768556
v -0.04125143 0.02221000 0.00725345
v -0.04124074 0.02346889 0.00724144
v -0.04632758 0.00190413 0.00726145
v -0.04632758 0.00444265 0.00723944
v -0.04632758 0.00317455 0.00724344
v -0.06028633 -0.00008565 0.00723944
v -0.05521018 0.02346889 0.02768556
v -0.04632758 0.00317455 0.02767956
v -0.06028633 -0.00008565 0.02768556
v -0.04251847 0.02094189 0.00723944
v -0.04251847 0.02346889 0.00723944
v -0.06158812 -0.00008565 0.00735752
v -0.06028633 0.00825159 0.00723944
v -0.05647721 0.02346889 0.02764554
v -0.05647721 0.02221000 0.02768356
v -0.05647721 0.02094189 0.02768556
v -0.06028633 0.00698117 0.02768556
v -0.06155604 0.00063602 0.02757549
v -0.06155604 -0.00008565 0.02756348
v -0.05521018 0.02346889 0.00723944
v -0.06204254 -0.00008565 0.00743757
v -0.06218421 0.00006192 0.00745959
v -0.06220292 0.00090809 0.00745358
v -0.06167900 0.00054610 0.00736752
v -0.06146515 0.00317455 0.00734951
v -0.06028633 0.00951970 0.00725345
v -0.05901663 0.01459443 0.00724144
v -0.05774692 0.01840337 0.00723944
v -0.06133685 0.00571307 0.00734951
v -0.06118983 0.00825159 0.00734951
v -0.05649058 0.02346889 0.02764353
v -0.05774692 0.01967148 0.02766155
v -0.05774692 0.01840337 0.02768356
v -0.05774692 0.01713296 0.02768556
v -0.05901663 0.01459443 0.02768156
v -0.06028633 0.00825159 0.02768156
v -0.06155604 0.00190413 0.02757349
v -0.06282575 0.00190413 0.02706914
v -0.06282575 0.00063602 0.02703912
v -0.06288990 -0.00008565 0.02694705
v -0.05647721 0.02094189 0.00723944
v -0.05647721 0.02221000 0.00724144
v -0.05647721 0.02346889 0.00728947
v -0.06217619 -0.00008565 0.00746159
v -0.06240607 -0.00008565 0.00762971
v -0.06270545 0.00054610 0.00781583
v -0.06270545 0.00189260 0.00781183
v -0.06220292 0.00146145 0.00745358
v -0.06166029 0.00189260 0.00736752
v -0.05988537 0.01586485 0.00737153
v -0.05901663 0.01586485 0.00726345
v -0.06112300 0.00951970 0.00736152
v -0.05774692 0.02346889 0.02721924
v -0.05774692 0.02221000 0.02746741
v -0.05774692 0.02094189 0.02758950
v -0.05901663 0.01713296 0.02760751
v -0.05901663 0.01586485 0.02766155
v -0.06028633 0.00951970 0.02766755
v -0.06155604 0.00317455 0.02755547
v -0.06155604 0.00444265 0.02752946
v -0.06155604 0.00571307 0.02749944
v -0.06155604 0.00698117 0.02744940
v -0.06282575 0.00317455 0.02701510
v -0.06352876 0.00190413 0.02658680
v -0.06350470 0.00063602 0.02655478
v -0.06348065 -0.00008565 0.02652076
v -0.05774692 0.01967148 0.00726946
v -0.05743417 0.02221000 0.00734951
v -0.05724973 0.02346889 0.00739955
v -0.06276961 -0.00008565 0.00789789
v -0.06315453 -0.00008565 0.00821411
v -0.06358757 0.00063602 0.00853833
v -0.06357954 0.00190413 0.00852833
v -0.06282575 0.00317455 0.00795393
v -0.06215480 0.00230762 0.00746559
v -0.05976508 0.01686550 0.00741356
v -0.05860230 0.01967148 0.00737953
v -0.05883486 0.01840337 0.00734951
v -0.06103479 0.01079011 0.00740155
v -0.06096262 0.01167779 0.00743757
v -0.06203452 0.00444265 0.00749962
v -0.06197036 0.00571307 0.00753164
v -0.05775761 0.02346889 0.02721524
v -0.05901663 0.01967148 0.02736934
v -0.05901663 0.01840337 0.02752545
v -0.06028633 0.01586485 0.02736134
v -0.06028633 0.01459443 0.02743739
v -0.06028633 0.01079011 0.02762152
v -0.06155604 0.00825159 0.02736734
v -0.06267605 0.00571307 0.02690502
v -0.06349936 0.00317455 0.02655078
v -0.06377736 0.00190413 0.02586030
v -0.06378270 0.00063602 0.02586030
v -0.06374260 -0.00008565 0.02592235
v -0.06362232 -0.00008565 0.02622055
v -0.05846063 0.02048076 0.00742556
v -0.05961539 0.01771167 0.00746559
v -0.05946837 0.01840337 0.00752563
v -0.05923849 0.01967148 0.00767173
v -0.05788325 0.02346889 0.00782584
v -0.06356886 -0.00008565 0.00856835
v -0.06387358 -0.00008565 0.00936290
v -0.06387358 0.00063602 0.00936290
v -0.06384151 0.00190413 0.00936290
v -0.06355282 0.00317455 0.00856835
v -0.06282575 0.00444265 0.00805400
v -0.06051889 0.01586485 0.00766373
v -0.06189285 0.00698117 0.00759168
v -0.06182334 0.00825159 0.00768174
v -0.06175919 0.00951970 0.00778781
v -0.05854350 0.02346889 0.02666486
v -0.05880278 0.02221000 0.02687300
v -0.05997091 0.01967148 0.02679895
v -0.06033712 0.01836648 0.02688901
v -0.06028633 0.01713296 0.02719923
v -0.06122191 0.01586485 0.02678894
v -0.06155604 0.00951970 0.02726527
v -0.06257982 0.00698117 0.02685499
v -0.06346728 0.00386624 0.02650675
v -0.06359826 0.00698117 0.02549605
v -0.06372122 0.00317455 0.02586030
v -0.06380408 0.00571307 0.02459143
v -0.06402328 0.00063602 0.02459143
v -0.06405268 -0.00008565 0.02459143
v -0.06394843 -0.00008565 0.02513980
v -0.06022752 0.01722518 0.00772177
v -0.06036920 0.01843104 0.00818009
v -0.06102944 0.01802524 0.00857036
v -0.06004308 0.01967148 0.00830617
v -0.05859161 0.02346889 0.00845427
v -0.06406605 -0.00008565 0.01063178
v -0.06376132 0.00698117 0.01063178
v -0.06378538 0.00317455 0.00936290
v -0.06350737 0.00444265 0.00865041
v -0.06266803 0.00698117 0.00822612
v -0.06291128 0.00563006 0.00826614
v -0.06126467 0.01586485 0.00829817
v -0.06114973 0.01713296 0.00841825
v -0.05854884 0.02346889 0.02665685
v -0.06098400 0.01791688 0.02657079
v -0.05978112 0.02061218 0.02664084
v -0.06108825 0.01713296 0.02668287
v -0.06221896 0.01159939 0.02652676
v -0.06228311 0.01079011 0.02659481
v -0.06238202 0.00951970 0.02668887
v -0.06248359 0.00825159 0.02677493
v -0.06155604 0.01079011 0.02712518
v -0.06311978 0.00825159 0.02598439
v -0.06352876 0.00825159 0.02534995
v -0.06374795 0.00698117 0.02459143
v -0.06381478 0.00571307 0.02332255
v -0.06406070 -0.00008565 0.02387093
v -0.06159614 0.01713296 0.00936290
v -0.06117913 0.01843104 0.00935690
v -0.06085035 0.01887142 0.00893060
v -0.05964212 0.02155289 0.00875648
v -0.05859695 0.02346889 0.00846028
v -0.05982389 0.02070672 0.00850831
v -0.06406338 -0.00008565 0.02332255
v -0.06403397 0.00063602 0.02332255
v -0.06376132 0.00698117 0.01190066
v -0.06361697 0.00825159 0.01063178
v -0.06347263 0.00895481 0.00996732
v -0.06353945 0.00825159 0.00983323
v -0.06360895 0.00698117 0.00964109
v -0.06371320 0.00444265 0.00936290
v -0.06346996 0.00515279 0.00871045
v -0.06255042 0.00825159 0.00831618
v -0.05894980 0.02346889 0.02586030
v -0.05959401 0.02145836 0.02637666
v -0.06079689 0.01876305 0.02623056
v -0.06114171 0.01836648 0.02582828
v -0.06152129 0.01713296 0.02586030
v -0.06196502 0.01459443 0.02602441
v -0.06206927 0.01332633 0.02628259
v -0.06214411 0.01244326 0.02642669
v -0.06346728 0.00893176 0.02524388
v -0.06360895 0.00825159 0.02459143
v -0.06375864 0.00698117 0.02332255
v -0.06219757 0.01526999 0.00997533
v -0.06181265 0.01713296 0.01063178
v -0.06099202 0.01920574 0.00977519
v -0.06140367 0.01840337 0.01063178
v -0.05950312 0.02226995 0.00925283
v -0.05902464 0.02346889 0.00936090
v -0.06361697 0.00825159 0.02332255
v -0.06348065 0.00899401 0.02332255
v -0.06348065 0.00899170 0.01063178
v -0.05895514 0.02346889 0.02584229
v -0.05977311 0.02185954 0.02553007
v -0.06098400 0.01918729 0.02538397
v -0.06179929 0.01713296 0.02459143
v -0.06219223 0.01524463 0.02523387
v -0.06187146 0.01574726 0.02573822
v -0.06347798 0.00897326 0.02459143
v -0.06225638 0.01459443 0.02538998
v -0.06207461 0.01592479 0.01063178
v -0.06335234 0.00962576 0.01063178
v -0.06181265 0.01713296 0.02332255
v -0.06075679 0.01992279 0.01063178
v -0.05985062 0.02203938 0.01063178
v -0.05923849 0.02346889 0.01063178
v -0.05978380 0.02188490 0.00960307
v -0.06140367 0.01840337 0.01190066
v -0.06335234 0.00962806 0.02332255
v -0.06335234 0.00962806 0.02078279
v -0.05921176 0.02346889 0.02459143
v -0.06102143 0.01927260 0.02459143
v -0.06139031 0.01840337 0.02459143
v -0.05956728 0.02264807 0.02459143
v -0.06206659 0.01590635 0.02459143
v -0.06219757 0.01526999 0.02459143
v -0.06311711 0.01079011 0.02332255
v -0.06207461 0.01592479 0.02332255
v -0.06311711 0.01079011 0.01951392
v -0.06140100 0.01840337 0.02332255
v -0.06102677 0.01928413 0.02332255
v -0.06075412 0.01991818 0.02332255
v -0.06031306 0.02094189 0.02332255
v -0.05957262 0.02265960 0.02332255
v -0.05922245 0.02346889 0.02332255
f 1 2 8
f 1 8 14
f 1 14 18
f 1 18 22
f 1 22 26
f 1 26 30
f 1 30 35
f 1 35 40
f 1 40 48
f 1 48 57
f 1 57 66
f 1 66 89
f 1 89 115
f 1 115 146
f 1 146 176
f 1 176 203
f 1 203 231
f 1 231 248
f 1 248 267
f 1 267 253
f 1 253 235
f 1 235 215
f 1 215 185
f 1 185 157
f 1 157 129
f 1 129 99
f 1 99 77
f 1 77 60
f 1 60 53
f 1 53 43
f 1 43 37
f 1 37 32
f 1 32 28
f 1 28 24
f 1 24 20
f 1 20 16
f 1 16 11
f 1 11 3
f 1 3 4
f 1 4 5
f 1 5 6
f 1 6 7
f 1 7 2
f 2 7 9
f 2 9 10
f 2 10 8
f 3 11 12
f 3 12 13
f 3 13 4
f 4 13 12
f 4 12 17
f 4 17 21
f 4 21 25
f 4 25 29
f 4 29 33
f 4 33 39
f 4 39 46
f 4 46 55
f 4 55 65
f 4 65 86
f 4 86 112
f 4 112 141
f 4 141 140
f 4 140 171
f 4 171 170
f 4 170 198
f 4 198 205
f 4 205 177
f 4 177 148
f 4 148 147
f 4 147 117
f 4 117 116
f 4 116 91
f 4 91 90
f 4 90 67
f 4 67 58
f 4 58 52
f 4 52 41
f 4 41 36
f 4 36 31
f 4 31 27
f 4 27 23
f 4 23 19
f 4 19 15
f 4 15 10
f 4 10 9
f 4 9 7
f 4 7 6
f 4 6 5
f 8 10 14
f 10 15 14
f 11 16 12
f 12 16 17
f 14 15 18
f 15 19 18
f 16 20 21
f 16 21 17
f 18 19 23
f 18 23 22
f 20 24 25
f 20 25 21
f 22 23 26
f 23 27 26
f 24 28 25
f 25 28 29
f 26 27 31
f 26 31 30
f 28 32 33
f 28 33 29
f 30 34 35
f 30 31 34
f 31 36 35
f 31 35 34
f 32 37 33
f 33 38 39
f 33 37 38
f 35 36 40
f 36 41 42
f 36 42 40
f 37 43 44
f 37 44 45
f 37 45 38
f 38 45 39
f 39 45 46
f 40 47 48
f 40 42 49
f 40 49 47
f 41 50 51
f 41 51 49
f 41 49 42
f 41 52 59
f 41 59 74
f 41 74 87
f 41 87 66
f 41 66 57
f 41 57 56
f 41 56 50
f 43 53 62
f 43 62 80
f 43 80 63
f 43 63 55
f 43 55 46
f 43 46 44
f 44 46 54
f 44 54 45
f 45 54 46
f 47 49 51
f 47 51 48
f 48 51 50
f 48 50 56
f 48 56 57
f 52 58 59
f 53 60 61
f 53 61 62
f 55 63 64
f 55 64 65
f 58 67 68
f 58 68 69
f 58 69 70
f 58 70 71
f 58 71 59
f 59 72 73
f 59 73 74
f 59 71 75
f 59 75 76
f 59 76 72
f 60 77 78
f 60 78 61
f 61 78 103
f 61 103 79
f 61 79 62
f 62 79 80
f 63 80 79
f 63 79 81
f 63 81 82
f 63 82 83
f 63 83 64
f 64 83 84
f 64 84 65
f 65 84 85
f 65 85 86
f 66 87 88
f 66 88 89
f 67 90 68
f 68 90 91
f 68 91 92
f 68 92 69
f 69 92 93
f 69 93 94
f 69 94 70
f 70 95 71
f 70 94 95
f 71 95 75
f 72 96 97
f 72 97 73
f 72 76 98
f 72 98 96
f 73 97 74
f 74 97 88
f 74 88 87
f 75 95 94
f 75 94 76
f 76 94 98
f 77 99 100
f 77 100 101
f 77 101 102
f 77 102 78
f 78 102 103
f 79 103 81
f 81 103 104
f 81 104 82
f 82 104 83
f 83 105 84
f 83 104 105
f 84 105 106
f 84 106 107
f 84 107 108
f 84 108 109
f 84 109 110
f 84 110 85
f 85 110 111
f 85 111 86
f 86 111 112
f 88 97 113
f 88 113 89
f 89 113 114
f 89 114 115
f 91 116 92
f 92 116 117
f 92 117 118
f 92 118 93
f 93 118 119
f 93 119 120
f 93 120 94
f 94 120 121
f 94 121 98
f 96 122 123
f 96 123 124
f 96 124 97
f 96 98 125
f 96 125 126
f 96 126 122
f 97 124 113
f 98 121 127
f 98 127 128
f 98 128 125
f 99 129 100
f 100 129 130
f 100 130 131
f 100 131 101
f 101 131 102
f 102 131 132
f 102 132 133
f 102 133 134
f 102 134 103
f 103 134 104
f 104 134 107
f 104 107 106
f 104 106 105
f 107 134 108
f 108 135 109
f 108 134 133
f 108 133 132
f 108 132 135
f 109 135 136
f 109 136 137
f 109 137 110
f 110 137 138
f 110 138 139
f 110 139 140
f 110 140 141
f 110 141 111
f 111 141 112
f 113 124 123
f 113 123 114
f 114 123 115
f 115 123 142
f 115 142 143
f 115 143 144
f 115 144 145
f 115 145 146
f 117 147 118
f 118 147 148
f 118 148 149
f 118 149 119
f 119 149 150
f 119 150 151
f 119 151 120
f 120 152 128
f 120 128 127
f 120 127 121
f 120 151 152
f 122 143 142
f 122 142 123
f 122 126 153
f 122 153 143
f 125 128 154
f 125 154 126
f 126 154 155
f 126 155 156
f 126 156 153
f 128 152 154
f 129 157 158
f 129 158 159
f 129 159 130
f 130 159 160
f 130 160 161
f 130 161 132
f 130 132 131
f 132 161 162
f 132 162 163
f 132 163 135
f 135 163 136
f 136 163 164
f 136 164 137
f 137 165 166
f 137 166 167
f 137 167 138
f 137 164 165
f 138 168 169
f 138 169 170
f 138 170 171
f 138 171 139
f 138 167 168
f 139 171 140
f 143 153 172
f 143 172 144
f 144 172 145
f 145 172 173
f 145 173 174
f 145 174 175
f 145 175 146
f 146 175 176
f 148 177 149
f 149 177 150
f 150 178 179
f 150 179 151
f 150 177 178
f 151 179 180
f 151 180 152
f 152 181 155
f 152 155 154
f 152 180 182
f 152 182 181
f 153 156 183
f 153 183 184
f 153 184 172
f 155 181 156
f 156 181 183
f 157 185 186
f 157 186 187
f 157 187 158
f 158 187 159
f 159 187 186
f 159 186 160
f 160 186 188
f 160 188 161
f 161 188 162
f 162 188 189
f 162 189 190
f 162 190 191
f 162 191 192
f 162 192 164
f 162 164 193
f 162 193 163
f 163 193 164
f 164 192 165
f 165 194 195
f 165 195 166
f 165 192 191
f 165 191 190
f 165 190 189
f 165 189 194
f 166 196 167
f 166 195 196
f 167 196 168
f 168 197 198
f 168 198 169
f 168 196 225
f 168 225 197
f 169 198 170
f 172 184 174
f 172 174 173
f 174 184 199
f 174 199 200
f 174 200 201
f 174 201 202
f 174 202 203
f 174 203 176
f 174 176 204
f 174 204 175
f 175 204 176
f 177 205 206
f 177 206 207
f 177 207 178
f 178 207 232
f 178 232 208
f 178 208 209
f 178 209 210
f 178 210 211
f 178 211 212
f 178 212 179
f 179 212 180
f 180 213 182
f 180 212 211
f 180 211 213
f 181 214 183
f 181 182 213
f 181 213 214
f 183 214 213
f 183 213 184
f 184 213 210
f 184 210 209
f 184 209 199
f 185 215 216
f 185 216 186
f 186 217 218
f 186 218 219
f 186 219 220
f 186 220 188
f 186 216 217
f 188 220 221
f 188 221 222
f 188 222 189
f 189 222 195
f 189 195 194
f 195 223 196
f 195 222 221
f 195 221 223
f 196 223 224
f 196 224 225
f 197 207 206
f 197 206 198
f 197 225 207
f 198 206 205
f 199 226 227
f 199 227 200
f 199 209 226
f 200 228 201
f 200 227 229
f 200 229 228
f 201 228 230
f 201 230 202
f 202 230 231
f 202 231 203
f 207 225 232
f 208 232 233
f 208 233 234
f 208 234 209
f 209 234 226
f 210 213 211
f 215 235 236
f 215 236 237
f 215 237 216
f 216 237 218
f 216 218 217
f 218 237 219
f 219 237 238
f 219 238 239
f 219 239 240
f 219 240 220
f 220 240 223
f 220 223 221
f 223 241 224
f 223 240 242
f 223 242 239
f 223 239 241
f 224 241 232
f 224 232 225
f 226 243 227
f 226 234 244
f 226 244 243
f 227 243 260
f 227 260 245
f 227 245 250
f 227 250 229
f 228 229 246
f 228 246 247
f 228 247 248
f 228 248 249
f 228 249 231
f 228 231 230
f 229 250 246
f 231 249 248
f 232 241 233
f 233 241 251
f 233 251 252
f 233 252 234
f 234 252 244
f 235 253 236
f 236 253 237
f 237 254 255
f 237 255 238
f 237 253 256
f 237 256 254
f 238 255 245
f 238 245 257
f 238 257 239
f 239 242 240
f 239 257 258
f 239 258 241
f 241 259 251
f 241 258 260
f 241 260 259
f 243 244 261
f 243 261 259
f 243 259 260
f 244 252 261
f 245 255 262
f 245 262 250
f 245 260 257
f 246 250 263
f 246 263 247
f 247 263 248
f 248 263 264
f 248 264 265
f 248 265 266
f 248 266 267
f 250 262 263
f 251 259 261
f 251 261 252
f 253 267 256
f 254 264 263
f 254 263 262
f 254 262 255
f 254 256 264
f 256 267 266
f 256 266 265
f 256 265 264
f 257 260 258

