# https://github.com/mikedh/trimesh
v -0.01735877 0.00063596 -0.01471767
v -0.01735877 0.00067121 -0.01471767
v -0.01728241 0.00063596 -0.01729137
v -0.01735707 0.00002928 -0.01475320
v -0.01735707 0.00002928 -0.01471767
v -0.01734180 0.00320927 -0.01471767
v -0.01735029 0.00190499 -0.01475320
v -0.01724847 0.00002928 -0.01729137
v -0.01730786 0.00447829 -0.01471767
v -0.01730617 0.00444304 -0.01475320
v -0.01721114 0.00574732 -0.01471767
v -0.01711442 0.00190499 -0.01729137
v -0.00548214 0.00002928 -0.01471767
v -0.00940877 0.00002928 -0.01729137
v -0.01691079 0.00763972 -0.01471767
v -0.01691758 0.00317402 -0.01729137
v -0.00548214 0.00002928 -0.01475320
v -0.00002489 0.00548015 -0.01471767
v -0.00592164 0.00002928 -0.01579024
v -0.00002489 0.00841524 -0.01729137
v -0.01681576 0.00811468 -0.01471767
v -0.01663929 0.00443376 -0.01729137
v -0.00002489 0.00570836 -0.01529868
v -0.00002489 0.00548201 -0.01475320
v -0.00002489 0.01898303 -0.01471767
v -0.00002489 0.00592172 -0.01579150
v -0.00002489 0.01725018 -0.01729137
v -0.01657989 0.00899966 -0.01471767
v -0.01661723 0.00452096 -0.01729137
v -0.01662571 0.00448757 -0.01729137
v -0.00063578 0.01897747 -0.01471767
v -0.00063578 0.01721679 -0.01729137
v -0.01616585 0.00991618 -0.01471767
v -0.01535812 0.00790503 -0.01729137
v -0.01575689 0.00698109 -0.01729137
v -0.01628463 0.00560446 -0.01729137
v -0.01648317 0.00501633 -0.01729137
v -0.00119406 0.01891810 -0.01471767
v -0.00444363 0.01843758 -0.01471767
v -0.00357651 0.01858600 -0.01471767
v -0.00314211 0.01865279 -0.01471767
v -0.00236323 0.01876411 -0.01471767
v -0.00467611 0.01646910 -0.01729137
v -0.01572635 0.01061934 -0.01471767
v -0.01506116 0.00853955 -0.01729137
v -0.00447418 0.01843015 -0.01471767
v -0.00560601 0.01625574 -0.01729137
v -0.01442652 0.00949317 -0.01729137
v -0.01521049 0.01130209 -0.01471767
v -0.00528360 0.01821679 -0.01471767
v -0.00698220 0.01576594 -0.01729137
v -0.00568068 0.01810548 -0.01471767
v -0.01393781 0.01012583 -0.01729137
v -0.01458942 0.01207018 -0.01471767
v -0.01340329 0.01078817 -0.01729137
v -0.00791380 0.01537076 -0.01729137
v -0.00741661 0.01742087 -0.01471767
v -0.00640186 0.01783089 -0.01471767
v -0.01396496 0.01282529 -0.01471767
v -0.01279070 0.01153215 -0.01729137
v -0.00854844 0.01505351 -0.01729137
v -0.00903376 0.01669359 -0.01471767
v -0.00831597 0.01703682 -0.01471767
v -0.00818191 0.01709434 -0.01471767
v -0.01343214 0.01343383 -0.01471767
v -0.01217982 0.01216666 -0.01729137
v -0.00991106 0.01619637 -0.01471767
v -0.00954453 0.01640973 -0.01471767
v -0.00949701 0.01441899 -0.01729137
v -0.01284161 0.01397929 -0.01471767
v -0.01154518 0.01280488 -0.01729137
v -0.01059830 0.01570472 -0.01471767
v -0.01013166 0.01394404 -0.01729137
v -0.01203898 0.01463421 -0.01471767
v -0.01129573 0.01518894 -0.01471767
v -0.01208479 0.01459896 -0.01471767
v -0.01078666 0.01342455 -0.01729137
f 1 2 3
f 1 3 4
f 1 4 5
f 1 5 13
f 1 13 18
f 1 18 25
f 1 25 31
f 1 31 38
f 1 38 42
f 1 42 41
f 1 41 40
f 1 40 39
f 1 39 46
f 1 46 50
f 1 50 52
f 1 52 58
f 1 58 57
f 1 57 64
f 1 64 63
f 1 63 62
f 1 62 68
f 1 68 67
f 1 67 72
f 1 72 75
f 1 75 74
f 1 74 76
f 1 76 70
f 1 70 65
f 1 65 59
f 1 59 54
f 1 54 49
f 1 49 44
f 1 44 33
f 1 33 28
f 1 28 21
f 1 21 15
f 1 15 11
f 1 11 9
f 1 9 6
f 1 6 2
f 2 6 7
f 2 7 3
f 3 8 4
f 3 7 6
f 3 6 9
f 3 9 10
f 3 10 11
f 3 11 12
f 3 12 16
f 3 16 22
f 3 22 30
f 3 30 29
f 3 29 37
f 3 37 36
f 3 36 35
f 3 35 34
f 3 34 45
f 3 45 48
f 3 48 53
f 3 53 55
f 3 55 60
f 3 60 66
f 3 66 71
f 3 71 77
f 3 77 73
f 3 73 69
f 3 69 61
f 3 61 56
f 3 56 51
f 3 51 47
f 3 47 43
f 3 43 32
f 3 32 27
f 3 27 20
f 3 20 14
f 3 14 8
f 4 8 14
f 4 14 19
f 4 19 17
f 4 17 13
f 4 13 5
f 9 11 10
f 11 15 16
f 11 16 12
f 13 17 18
f 14 20 19
f 15 21 16
f 16 21 22
f 17 19 23
f 17 23 24
f 17 24 18
f 18 24 23
f 18 23 26
f 18 26 20
f 18 20 27
f 18 27 25
f 19 20 26
f 19 26 23
f 21 28 29
f 21 29 30
f 21 30 22
f 25 27 31
f 27 32 31
f 28 33 34
f 28 34 35
f 28 35 36
f 28 36 37
f 28 37 29
f 31 32 38
f 32 39 40
f 32 40 41
f 32 41 42
f 32 42 38
f 32 43 39
f 33 44 45
f 33 45 34
f 39 43 47
f 39 47 46
f 44 48 45
f 44 49 48
f 46 47 50
f 47 51 52
f 47 52 50
f 48 49 53
f 49 54 55
f 49 55 53
f 51 56 57
f 51 57 58
f 51 58 52
f 54 59 60
f 54 60 55
f 56 61 62
f 56 62 63
f 56 63 64
f 56 64 57
f 59 65 60
f 60 65 66
f 61 67 68
f 61 68 62
f 61 69 67
f 65 70 71
f 65 71 66
f 67 69 72
f 69 73 74
f 69 74 75
f 69 75 72
f 70 76 71
f 71 76 77
f 73 77 76
f 73 76 74
