# https://github.com/mikedh/trimesh
v -0.00546309 -0.00000421 -0.00586902
v -0.00546309 -0.00000421 -0.01030693
v -0.00546650 -0.00000421 -0.00206186
v 0.00002321 -0.00546274 -0.00206186
v -0.00546820 -0.00000421 -0.01348333
v 0.00002321 -0.00546274 -0.00779447
v 0.00002321 -0.00546921 -0.01414124
v -0.00548012 -0.00000421 -0.00079281
v 0.00002321 -0.00546760 -0.00145072
v -0.00548182 -0.00000421 -0.01471767
v 0.00002321 -0.00548053 -0.01471767
v -0.00592099 -0.00000421 0.00023933
v 0.00002321 -0.00569402 -0.00028881
v 0.00002321 -0.00548053 -0.00079281
v -0.01735830 -0.00000421 -0.01471767
v 0.00002321 -0.01652537 -0.01471767
v -0.00644869 -0.00000421 0.00045512
v 0.00002321 -0.00592207 0.00023933
v -0.01735830 -0.00063497 -0.01471767
v -0.01736171 -0.00000421 -0.01412012
v 0.00002321 -0.01652537 0.00037816
v -0.00929142 -0.01652537 -0.01471767
v -0.00698149 -0.00000421 0.00066788
v 0.00002321 -0.00698143 0.00066638
v -0.01734809 -0.00190459 -0.01471767
v -0.01736511 -0.00698143 -0.01348333
v -0.01736511 -0.00000421 -0.01348333
v 0.00002321 -0.01618249 0.00052604
v -0.01581438 -0.01652537 0.00031931
v -0.00953994 -0.01652537 -0.01464072
v -0.00954675 -0.01640407 -0.01471767
v -0.00761812 -0.00000421 0.00069052
v 0.00002321 -0.00825104 0.00069806
v -0.01733618 -0.00317420 -0.01471767
v -0.01736511 -0.01078704 -0.01221428
v -0.01730724 -0.00444382 -0.01471767
v -0.01733107 -0.00825104 -0.01348333
v -0.01736511 -0.00000421 -0.00459996
v 0.00002321 -0.01586388 0.00066185
v -0.00063556 -0.01586388 0.00066034
v -0.00444346 -0.01459588 0.00069052
v -0.00825135 -0.01332627 0.00067996
v -0.01332571 -0.00825104 0.00067996
v -0.01459558 -0.00444382 0.00069354
v -0.01586374 -0.00063497 0.00066487
v -0.01685955 -0.01652537 0.00016087
v -0.01048809 -0.01652537 -0.01428460
v -0.01033489 -0.01589461 -0.01471767
v -0.00825135 -0.00000421 0.00069806
v 0.00002321 -0.01459588 0.00069806
v -0.01736511 -0.01332627 -0.01094522
v -0.01729192 -0.01205665 -0.01221428
v -0.01731234 -0.01459588 -0.01094522
v -0.01733958 -0.01652537 -0.00967617
v -0.01721021 -0.00571181 -0.01471767
v -0.01721532 -0.00951904 -0.01348333
v -0.01736341 -0.00000421 -0.00396770
v -0.01736511 -0.00571181 -0.00333091
v -0.00317359 -0.01459588 0.00069806
v -0.00698149 -0.01332627 0.00069806
v -0.00825135 -0.01205665 0.00069806
v -0.01332571 -0.00698143 0.00069806
v -0.01459558 -0.00317420 0.00069806
v -0.01523221 -0.00000421 0.00068147
v -0.01586374 -0.00000421 0.00066185
v -0.01636760 -0.00000421 0.00044757
v -0.01686466 -0.00063497 0.00023783
v -0.01729362 -0.01652537 -0.00079281
v -0.01082173 -0.01652537 -0.01413973
v -0.01080470 -0.01555658 -0.01471767
v -0.01459558 -0.00000421 0.00069806
v -0.01736511 -0.01586388 -0.00967617
v -0.01685955 -0.01205665 -0.01324038
v -0.01710126 -0.01586388 -0.01094522
v -0.01736511 -0.01652537 -0.00840561
v -0.01693275 -0.01652537 -0.01094070
v -0.01691062 -0.00765748 -0.01471767
v -0.01689700 -0.00825104 -0.01458488
v -0.01678125 -0.00951904 -0.01438268
v -0.01736001 -0.00000421 -0.00333091
v -0.01736511 -0.01332627 -0.00206186
v -0.01685955 -0.00000421 0.00023481
v -0.01725617 -0.00063497 -0.00079281
v -0.01736511 -0.01652537 -0.00206186
v -0.01116217 -0.01652537 -0.01399035
v -0.01125579 -0.01636687 -0.01404316
v -0.01211542 -0.01652537 -0.01357085
v -0.01279291 -0.01652537 -0.01326754
v -0.01462281 -0.01652537 -0.01244666
v -0.01202180 -0.01460073 -0.01471767
v -0.01663315 -0.01041828 -0.01422876
v -0.01668932 -0.01304808 -0.01301253
v -0.01666720 -0.01586388 -0.01173140
v -0.01687998 -0.01459588 -0.01202113
v -0.01651570 -0.01652537 -0.01156240
v -0.01677444 -0.00825104 -0.01471767
v -0.01632335 -0.00954815 -0.01471767
v -0.01731915 -0.00063497 -0.00206186
v -0.01730043 -0.00000421 -0.00206186
v -0.01705531 -0.00000421 -0.00028277
v -0.01723234 -0.00000421 -0.00079281
v -0.01646463 -0.01652537 -0.01159409
v -0.01525945 -0.01525899 -0.01286465
v -0.01206776 -0.01456353 -0.01471767
v -0.01589949 -0.01034065 -0.01471767
v -0.01638463 -0.01126415 -0.01405221
v -0.01644590 -0.01389395 -0.01281485
v -0.01650548 -0.01650758 -0.01158352
v -0.01649357 -0.01652537 -0.01158050
v -0.01457515 -0.01211649 -0.01471767
v -0.01400490 -0.01400393 -0.01414275
v -0.01327464 -0.01356563 -0.01471767
v -0.01558117 -0.01080968 -0.01471767
v -0.01463813 -0.01203886 -0.01471767
v -0.01461260 -0.01207121 -0.01471767
v -0.01357254 -0.01327451 -0.01471767
f 1 2 5
f 1 5 10
f 1 10 15
f 1 15 20
f 1 20 27
f 1 27 38
f 1 38 57
f 1 57 80
f 1 80 99
f 1 99 101
f 1 101 100
f 1 100 82
f 1 82 66
f 1 66 65
f 1 65 64
f 1 64 71
f 1 71 49
f 1 49 32
f 1 32 23
f 1 23 17
f 1 17 12
f 1 12 8
f 1 8 3
f 1 3 4
f 1 4 6
f 1 6 2
f 2 6 7
f 2 7 5
f 3 8 9
f 3 9 4
f 4 9 14
f 4 14 13
f 4 13 18
f 4 18 24
f 4 24 33
f 4 33 50
f 4 50 39
f 4 39 28
f 4 28 21
f 4 21 16
f 4 16 11
f 4 11 7
f 4 7 6
f 5 7 10
f 7 11 10
f 8 12 13
f 8 13 14
f 8 14 9
f 10 11 16
f 10 16 22
f 10 22 31
f 10 31 48
f 10 48 70
f 10 70 90
f 10 90 104
f 10 104 112
f 10 112 116
f 10 116 110
f 10 110 115
f 10 115 114
f 10 114 113
f 10 113 105
f 10 105 97
f 10 97 96
f 10 96 77
f 10 77 55
f 10 55 36
f 10 36 34
f 10 34 25
f 10 25 19
f 10 19 15
f 12 17 18
f 12 18 13
f 15 19 20
f 16 21 29
f 16 29 46
f 16 46 68
f 16 68 84
f 16 84 75
f 16 75 54
f 16 54 76
f 16 76 95
f 16 95 109
f 16 109 102
f 16 102 89
f 16 89 88
f 16 88 87
f 16 87 85
f 16 85 69
f 16 69 47
f 16 47 30
f 16 30 22
f 17 23 24
f 17 24 18
f 19 25 26
f 19 26 20
f 20 26 27
f 21 28 29
f 22 30 31
f 23 32 24
f 24 32 33
f 25 34 26
f 26 35 51
f 26 51 72
f 26 72 75
f 26 75 84
f 26 84 81
f 26 81 58
f 26 58 38
f 26 38 27
f 26 34 36
f 26 36 37
f 26 37 35
f 28 39 40
f 28 40 29
f 29 40 41
f 29 41 42
f 29 42 43
f 29 43 44
f 29 44 45
f 29 45 46
f 30 47 31
f 31 47 48
f 32 49 33
f 33 49 71
f 33 71 63
f 33 63 62
f 33 62 61
f 33 61 60
f 33 60 59
f 33 59 50
f 35 37 52
f 35 52 53
f 35 53 54
f 35 54 51
f 36 55 37
f 37 55 56
f 37 56 52
f 38 58 57
f 39 50 59
f 39 59 40
f 40 59 41
f 41 59 60
f 41 60 42
f 42 60 61
f 42 61 62
f 42 62 43
f 43 62 44
f 44 62 63
f 44 63 45
f 45 63 64
f 45 64 65
f 45 65 66
f 45 66 67
f 45 67 46
f 46 67 68
f 47 69 70
f 47 70 48
f 51 54 72
f 52 56 73
f 52 73 74
f 52 74 53
f 53 74 54
f 54 75 72
f 54 74 76
f 55 77 78
f 55 78 56
f 56 78 79
f 56 79 73
f 57 58 80
f 58 81 80
f 63 71 64
f 66 82 67
f 67 82 83
f 67 83 68
f 68 83 81
f 68 81 84
f 69 85 86
f 69 86 70
f 70 86 87
f 70 87 88
f 70 88 89
f 70 89 90
f 73 79 91
f 73 91 92
f 73 92 93
f 73 93 94
f 73 94 74
f 74 94 76
f 76 94 93
f 76 93 95
f 77 96 78
f 78 96 79
f 79 96 97
f 79 97 91
f 80 98 99
f 80 81 98
f 81 83 98
f 82 100 83
f 83 100 101
f 83 101 99
f 83 99 98
f 85 87 86
f 89 102 103
f 89 103 104
f 89 104 90
f 91 97 105
f 91 105 106
f 91 106 92
f 92 106 107
f 92 107 108
f 92 108 93
f 93 108 95
f 95 108 109
f 102 109 103
f 103 109 108
f 103 108 110
f 103 110 111
f 103 111 104
f 104 111 112
f 105 113 106
f 106 113 114
f 106 114 107
f 107 114 108
f 108 114 115
f 108 115 110
f 110 116 111
f 111 116 112

