# https://github.com/mikedh/trimesh
v -0.00445908 0.03773114 0.00571304
v -0.00445908 0.04064155 0.00571304
v 0.01586360 0.03444221 0.00571304
v 0.02367705 0.03734421 0.00822588
v -0.00445908 0.04327438 0.00822588
v -0.00445908 0.04702596 0.00571648
v -0.00443980 0.04702315 0.00571304
v 0.01623541 0.03490484 0.00571304
v 0.02367705 0.03892839 0.00741606
v 0.02367705 0.03842930 0.00758407
v 0.02367705 0.03833677 0.00762073
v 0.02367705 0.05858629 0.00822588
v -0.00445908 0.06294350 0.00822588
v -0.00445908 0.06140699 0.00734866
v 0.00444225 0.04702315 0.00571304
v -0.00317290 0.06147428 0.00734866
v -0.00190325 0.06153035 0.00734866
v 0.01694322 0.03607966 0.00571304
v 0.02367705 0.03905176 0.00738629
v 0.02367705 0.05857788 0.00821776
v 0.02365226 0.05859751 0.00822588
v -0.00445357 0.06303603 0.00822588
v -0.00445908 0.06283976 0.00805516
v -0.00445908 0.06204066 0.00749453
v -0.00317290 0.06210795 0.00747608
v -0.00190325 0.06216403 0.00746305
v 0.00575597 0.04690819 0.00571304
v -0.00063360 0.06151914 0.00734866
v 0.00825121 0.06028544 0.00723944
v 0.01720762 0.03744234 0.00571304
v 0.02367705 0.03998265 0.00727560
v 0.02367705 0.03978637 0.00729331
v 0.02367705 0.05791898 0.00768321
v 0.02350079 0.05866200 0.00822588
v -0.00443980 0.06303883 0.00822588
v -0.00443980 0.06282574 0.00804015
v -0.00445908 0.06282574 0.00804310
v -0.00063360 0.06215281 0.00746600
v -0.00317290 0.06282574 0.00799956
v 0.00698155 0.04665865 0.00571304
v 0.00952086 0.06028544 0.00725420
v 0.00825121 0.06124156 0.00734866
v 0.01729299 0.03871249 0.00571304
v 0.02367705 0.04105372 0.00723919
v 0.02367705 0.05777878 0.00760006
v 0.02347876 0.05796664 0.00765443
v 0.02347876 0.05867041 0.00822588
v -0.00362182 0.06306967 0.00822588
v -0.00317290 0.06308650 0.00822588
v -0.00190325 0.06282574 0.00801924
v -0.00063360 0.06282574 0.00805565
v 0.00444225 0.06275845 0.00816020
v 0.00825121 0.06187523 0.00758998
v 0.00698155 0.06190327 0.00756636
v 0.00444225 0.06197056 0.00752553
v 0.00317535 0.06200982 0.00750831
v 0.00830629 0.04635022 0.00571304
v 0.01586360 0.05901809 0.00726133
v 0.00952086 0.06118267 0.00736366
v 0.01735909 0.04125280 0.00571304
v 0.02367705 0.05521044 0.00723919
v 0.02367705 0.05729651 0.00739515
v 0.02220911 0.05817974 0.00752774
v 0.01764828 0.05957045 0.00747780
v 0.01967256 0.05923679 0.00768739
v 0.02100004 0.05894519 0.00779465
v 0.01991217 0.05982560 0.00822588
v -0.00234116 0.06306967 0.00822588
v -0.00099714 0.06302201 0.00822588
v 0.00301011 0.06287060 0.00822588
v 0.00433209 0.06281452 0.00822588
v 0.00571190 0.06271639 0.00818037
v 0.00952086 0.06181635 0.00762885
v 0.00698155 0.06266873 0.00820078
v 0.00830078 0.06261265 0.00822588
v 0.01332430 0.04517260 0.00571304
v 0.01459395 0.05996860 0.00734989
v 0.01586360 0.05983962 0.00737055
v 0.01967256 0.05860312 0.00737252
v 0.01967256 0.05774794 0.00726305
v 0.01589115 0.04450248 0.00571304
v 0.01449480 0.04489782 0.00571304
v 0.01078775 0.06106772 0.00740253
v 0.01714978 0.04260146 0.00571304
v 0.02367705 0.05628152 0.00726896
v 0.02367705 0.05720399 0.00737916
v 0.02347876 0.05733297 0.00738359
v 0.02061997 0.05847414 0.00741680
v 0.02146549 0.05831432 0.00747313
v 0.01680276 0.05973588 0.00741286
v 0.01586360 0.06047610 0.00776709
v 0.01718834 0.06020973 0.00787263
v 0.01967256 0.05990131 0.00822588
v 0.00565407 0.06275004 0.00822588
v 0.00952086 0.06251171 0.00822588
v 0.01078775 0.06233787 0.00822588
v 0.01078775 0.06170139 0.00770781
v 0.01252836 0.06086023 0.00747141
v 0.01168009 0.06097238 0.00743722
v 0.00824845 0.06261545 0.00822588
v 0.02220911 0.05754606 0.00734915
v 0.02347876 0.05647779 0.00727437
v 0.01672564 0.04378469 0.00571304
v 0.02367705 0.05648620 0.00728691
v 0.01687712 0.04354075 0.00571304
v 0.01332430 0.06075088 0.00751200
v 0.01459395 0.06060228 0.00761384
v 0.01206567 0.06202383 0.00822588
v 0.01465454 0.06134810 0.00822588
v 0.01586360 0.06100603 0.00822588
f 1 2 7
f 1 7 15
f 1 15 27
f 1 27 40
f 1 40 57
f 1 57 76
f 1 76 82
f 1 82 81
f 1 81 103
f 1 103 105
f 1 105 84
f 1 84 60
f 1 60 43
f 1 43 30
f 1 30 18
f 1 18 8
f 1 8 3
f 1 3 4
f 1 4 5
f 1 5 13
f 1 13 23
f 1 23 37
f 1 37 24
f 1 24 14
f 1 14 6
f 1 6 2
f 2 6 7
f 3 8 9
f 3 9 10
f 3 10 11
f 3 11 4
f 4 11 10
f 4 10 9
f 4 9 19
f 4 19 32
f 4 32 31
f 4 31 44
f 4 44 61
f 4 61 85
f 4 85 104
f 4 104 86
f 4 86 62
f 4 62 45
f 4 45 33
f 4 33 20
f 4 20 12
f 4 12 21
f 4 21 34
f 4 34 47
f 4 47 67
f 4 67 93
f 4 93 110
f 4 110 109
f 4 109 108
f 4 108 96
f 4 96 95
f 4 95 75
f 4 75 100
f 4 100 94
f 4 94 71
f 4 71 70
f 4 70 69
f 4 69 68
f 4 68 49
f 4 49 48
f 4 48 35
f 4 35 22
f 4 22 13
f 4 13 5
f 6 14 7
f 7 14 16
f 7 16 17
f 7 17 15
f 8 18 19
f 8 19 9
f 12 20 21
f 13 22 23
f 14 24 25
f 14 25 26
f 14 26 16
f 15 17 28
f 15 28 29
f 15 29 27
f 16 26 17
f 17 26 28
f 18 30 31
f 18 31 32
f 18 32 19
f 20 33 34
f 20 34 21
f 22 35 23
f 23 36 37
f 23 35 36
f 24 37 36
f 24 36 25
f 25 36 26
f 26 38 28
f 26 36 39
f 26 39 38
f 27 29 41
f 27 41 40
f 28 42 29
f 28 38 42
f 29 42 41
f 30 43 44
f 30 44 31
f 33 45 46
f 33 46 34
f 34 46 47
f 35 48 36
f 36 48 49
f 36 49 39
f 38 39 50
f 38 50 51
f 38 51 52
f 38 52 53
f 38 53 54
f 38 54 55
f 38 55 56
f 38 56 42
f 39 49 50
f 40 41 58
f 40 58 57
f 41 42 59
f 41 59 58
f 42 56 55
f 42 55 54
f 42 54 53
f 42 53 59
f 43 60 44
f 44 60 61
f 45 62 63
f 45 63 46
f 46 63 64
f 46 64 65
f 46 65 66
f 46 66 47
f 47 66 67
f 49 68 50
f 50 68 51
f 51 68 52
f 52 68 69
f 52 69 70
f 52 70 71
f 52 71 72
f 52 72 53
f 53 73 59
f 53 72 74
f 53 74 75
f 53 75 73
f 57 58 76
f 58 59 77
f 58 77 78
f 58 78 79
f 58 79 80
f 58 80 81
f 58 81 82
f 58 82 76
f 59 73 83
f 59 83 78
f 59 78 77
f 60 84 85
f 60 85 61
f 62 86 87
f 62 87 88
f 62 88 89
f 62 89 63
f 63 89 90
f 63 90 64
f 64 90 91
f 64 91 65
f 65 91 92
f 65 92 93
f 65 93 67
f 65 67 66
f 71 94 74
f 71 74 72
f 73 75 95
f 73 95 96
f 73 96 97
f 73 97 98
f 73 98 99
f 73 99 83
f 74 100 75
f 74 94 100
f 78 90 79
f 78 83 99
f 78 99 90
f 79 90 88
f 79 88 87
f 79 87 101
f 79 101 80
f 80 101 102
f 80 102 81
f 81 102 104
f 81 104 85
f 81 85 103
f 84 105 85
f 85 105 103
f 86 104 87
f 87 104 102
f 87 102 101
f 88 90 89
f 90 99 98
f 90 98 106
f 90 106 97
f 90 97 107
f 90 107 91
f 91 107 97
f 91 97 108
f 91 108 109
f 91 109 110
f 91 110 93
f 91 93 92
f 96 108 97
f 97 106 98

