# https://github.com/mikedh/trimesh
v 0.00316965 0.04702082 0.00571104
v 0.00444175 0.04701783 0.00571104
v 0.00444175 0.04581145 0.00483109
v 0.00190096 0.03337437 -0.00424033
v -0.00400716 0.04702082 0.00571104
v 0.00575467 0.04690436 0.00571104
v 0.00549616 0.04576965 0.00486109
v 0.00414243 0.04064551 0.00108733
v 0.00063226 0.01898438 -0.01471567
v 0.00063226 0.02458330 -0.01064993
v 0.00063226 0.02735739 -0.00862806
v -0.00190173 0.03337437 -0.00424033
v -0.00443913 0.04581145 0.00483109
v -0.00443913 0.04701783 0.00571104
v 0.00697914 0.04665651 0.00571104
v 0.00633969 0.04568902 0.00491909
v 0.00571045 0.04422285 0.00378916
v 0.00494855 0.03171410 -0.00522027
v 0.00498937 0.04060370 0.00111733
v 0.00444175 0.03911663 0.00000540
v 0.00190096 0.01883508 -0.01471567
v 0.00003022 0.01898438 -0.01471567
v 0.00444175 0.03759372 -0.00108453
v -0.00063304 0.02458330 -0.01064993
v -0.00063304 0.02735739 -0.00862806
v -0.00063304 0.01897841 -0.01471567
v -0.00415342 0.04064551 0.00108733
v -0.00549694 0.04576965 0.00486109
v -0.00523164 0.04695513 0.00571104
v 0.00697914 0.04498132 0.00452111
v 0.00977164 0.04600256 0.00571104
v 0.00571045 0.03010460 -0.00624821
v 0.00533290 0.02798447 -0.00781411
v 0.00485331 0.02281255 -0.01155387
v 0.00444175 0.01844091 -0.01471567
v 0.00316965 0.01865591 -0.01471567
v -0.00119086 0.01892167 -0.01471567
v -0.00443913 0.03911663 0.00000540
v -0.00452076 0.04010204 0.00071935
v -0.00571123 0.04358979 0.00333719
v -0.00634047 0.04568902 0.00491909
v -0.00575544 0.04690436 0.00571104
v -0.00500035 0.04060669 0.00111533
v 0.01202672 0.04547402 0.00571104
v 0.01332603 0.04516944 0.00571104
v 0.00571045 0.02424886 -0.01040395
v 0.00571045 0.02271998 -0.01148788
v 0.00520025 0.01907993 -0.01414571
v 0.00455399 0.01841105 -0.01471567
v -0.00236091 0.01876639 -0.01471567
v -0.00496293 0.03171709 -0.00522227
v -0.00571123 0.03100042 -0.00561425
v -0.00697992 0.04632506 0.00547505
v -0.00697992 0.04665651 0.00571104
v -0.00649013 0.04676103 0.00571104
v -0.00313982 0.01865591 -0.01471567
v 0.01449609 0.04489472 0.00571104
v 0.00951654 0.03055251 -0.00529627
v 0.01205733 0.03763552 0.00015339
v 0.00735329 0.02405178 -0.01026595
v 0.00571045 0.02118513 -0.01257381
v 0.00567643 0.01810945 -0.01471567
v -0.00443913 0.01916056 -0.01420371
v -0.00487110 0.02281255 -0.01155387
v -0.00533708 0.02798447 -0.00781411
v -0.00357179 0.01858723 -0.01471567
v -0.00571123 0.02641378 -0.00887004
v -0.00751733 0.04186085 0.00239525
v -0.00731665 0.04657888 0.00571104
v -0.00697992 0.04498132 0.00452111
v 0.01589063 0.04450056 0.00571104
v 0.01459473 0.04408549 0.00515507
v 0.01459473 0.04345244 0.00470510
v 0.01017640 0.03047188 -0.00524027
v 0.00701316 0.01756897 -0.01471567
v -0.00443913 0.01843793 -0.01471567
v -0.00447314 0.01843195 -0.01471567
v -0.00520103 0.01908292 -0.01414771
v -0.00571123 0.02208693 -0.01193985
v -0.00861256 0.02913113 -0.00645819
v -0.01341864 0.04514854 0.00571104
v -0.00951732 0.04099189 0.00211127
v -0.01042547 0.04585027 0.00571104
v 0.01672396 0.04378091 0.00571104
v 0.01643825 0.04312397 0.00493909
v 0.01595526 0.04375104 0.00522107
v 0.01559132 0.04330313 0.00481110
v 0.01507772 0.04183696 0.00367917
v 0.01153693 0.03177979 -0.00399835
v 0.00788390 0.01719272 -0.01471567
v 0.01374439 0.03671581 -0.00010060
v -0.00527926 0.01821994 -0.01471567
v -0.00567721 0.01810647 -0.01471567
v -0.01017717 0.03047188 -0.00524027
v -0.01355130 0.04051711 0.00244724
v -0.01459550 0.04408848 0.00515507
v -0.01449687 0.04489472 0.00571104
v 0.01675457 0.04227890 0.00466110
v 0.01687702 0.04353604 0.00571104
v 0.01595526 0.04262827 0.00446512
v 0.01664233 0.04077988 0.00354117
v 0.01658791 0.03309368 -0.00149051
v 0.01655729 0.02925356 -0.00400635
v 0.01652328 0.02541045 -0.00651819
v 0.01631240 0.03543776 -0.00009460
v 0.01591785 0.03880010 0.00195127
v 0.01553349 0.03950183 0.00227725
v 0.01423419 0.03820288 0.00102733
v 0.00829886 0.01701057 -0.01471567
v 0.01238386 0.03160063 -0.00387836
v -0.00639829 0.01783175 -0.01471567
v -0.01375197 0.03672178 -0.00010260
v -0.01507849 0.04183696 0.00367917
v -0.01290504 0.03688601 -0.00021459
v -0.01463292 0.04243717 0.00400315
v -0.01459550 0.04345244 0.00470510
v -0.01552067 0.04462000 0.00571104
v 0.01682260 0.03997961 0.00328319
v 0.01680219 0.03617234 0.00077735
v 0.01674097 0.03843580 0.00214526
v 0.01691103 0.04122182 0.00425713
v 0.01714913 0.04259841 0.00571104
v 0.01671376 0.03075258 -0.00288442
v 0.01669675 0.02690947 -0.00539826
v 0.01610492 0.02386366 -0.00763212
v 0.01482262 0.02260054 -0.00890204
v 0.01040769 0.01667613 -0.01423170
v 0.01575458 0.02463407 -0.00728614
v 0.01586342 0.02558962 -0.00663418
v 0.01617635 0.02775752 -0.00512428
v 0.01624437 0.03159764 -0.00261044
v 0.01672056 0.02475053 -0.00672818
v 0.01662532 0.02301561 -0.00786611
v 0.01586342 0.02945064 -0.00413234
v 0.01495867 0.03031959 -0.00387436
v 0.01455731 0.02986869 -0.00430233
v 0.01147230 0.02414137 -0.00905803
v 0.00954035 0.01651787 -0.01464768
v 0.00938389 0.01651787 -0.01469568
v 0.00931246 0.01651787 -0.01471567
v 0.01011177 0.01902021 -0.01283579
v -0.00741529 0.01742265 -0.01471567
v -0.01643903 0.04312695 0.00493709
v -0.01595604 0.04262827 0.00446312
v -0.00818059 0.01709717 -0.01471567
v -0.00831324 0.01704043 -0.01471567
v -0.01559550 0.04330313 0.00481110
v -0.01589141 0.04450056 0.00571104
v 0.01683620 0.02973731 -0.00331639
v 0.01688723 0.03739365 0.00173129
v 0.01695525 0.02731558 -0.00466031
v 0.01718314 0.02855780 -0.00333039
v 0.01725457 0.03997961 0.00428313
v 0.01723756 0.03617234 0.00174529
v 0.01735661 0.04124870 0.00571104
v 0.01733960 0.04124870 0.00555305
v 0.01680559 0.02590913 -0.00584023
v 0.01629539 0.02141805 -0.00895004
v 0.01587023 0.02219144 -0.00870605
v 0.01544846 0.02175548 -0.00914003
v 0.01418997 0.02048638 -0.01041395
v 0.01166958 0.01794820 -0.01295978
v 0.01049272 0.01651787 -0.01428770
v 0.01525799 0.02413241 -0.00778211
v 0.01459473 0.02430859 -0.00789610
v 0.01691103 0.02345755 -0.00718015
v 0.01680559 0.02221235 -0.00809209
v 0.01667634 0.02057000 -0.00918802
v 0.01649948 0.01651787 -0.01158187
v 0.01641104 0.01896945 -0.01026795
v 0.01489064 0.02647948 -0.00638820
v 0.01218318 0.02221832 -0.01006597
v 0.01090428 0.01979660 -0.01206784
v 0.01140428 0.02029826 -0.01157387
v 0.01397568 0.02285436 -0.00904603
v -0.00935405 0.01651787 -0.01471567
v -0.01418394 0.03438367 -0.00150251
v -0.01592203 0.03880010 0.00194928
v -0.01624855 0.03160361 -0.00261244
v -0.01638120 0.03928385 0.00242125
v -0.01652746 0.02541643 -0.00652219
v -0.01656147 0.02925953 -0.00400835
v -0.01661590 0.03693976 0.00102333
v -0.01664311 0.04078287 0.00354117
v -0.01675195 0.04227890 0.00466110
v -0.01680637 0.04372716 0.00571104
v -0.01637440 0.04426167 0.00571104
v -0.00903093 0.01669404 -0.01471567
v 0.01715253 0.02475053 -0.00586823
v 0.01729538 0.02601962 -0.00459831
v 0.01732260 0.03363117 0.00047737
v 0.01730899 0.02982689 -0.00206247
v 0.01735661 0.02728871 -0.00333039
v 0.01734981 0.02348144 -0.00586823
v 0.01729538 0.03871052 0.00571104
v 0.01735321 0.03871052 0.00555305
v 0.01736681 0.03997961 0.00555305
v 0.01736681 0.03871052 0.00428313
v 0.01736681 0.03490026 0.00174529
v 0.01593825 0.01849167 -0.01075192
v 0.01462194 0.01651787 -0.01245182
v 0.01418657 0.01651787 -0.01264780
v 0.01460493 0.01971000 -0.01066793
v 0.01207774 0.01718078 -0.01321977
v 0.01084986 0.01651787 -0.01413371
v 0.01723756 0.02221235 -0.00713615
v 0.01684981 0.01967417 -0.00943601
v 0.01672056 0.01812438 -0.01050794
v 0.01650968 0.01651787 -0.01157387
v 0.01648927 0.01651787 -0.01158787
v 0.01586342 0.01741369 -0.01138588
v -0.00953772 0.01651787 -0.01465168
v -0.01270096 0.02158228 -0.01031395
v -0.01056833 0.02052520 -0.01171986
v -0.01496285 0.03032557 -0.00387636
v -0.01586420 0.02945661 -0.00413634
v -0.01456149 0.02987168 -0.00430633
v -0.01586420 0.02623163 -0.00622821
v -0.01618393 0.02776051 -0.00512628
v -0.01023840 0.01651787 -0.01438570
v -0.01483020 0.02260054 -0.00889804
v -0.01611250 0.02386366 -0.00763212
v -0.01662610 0.02301561 -0.00786611
v -0.01672474 0.02475053 -0.00673018
v -0.01669753 0.02691544 -0.00540226
v -0.01586420 0.02559559 -0.00664018
v -0.01526557 0.02413838 -0.00778611
v -0.01671453 0.03075556 -0.00288642
v -0.01674175 0.03843879 0.00214526
v -0.01682338 0.03997961 0.00328119
v -0.01712610 0.04293883 0.00571104
v -0.01090846 0.01979958 -0.01207584
v -0.01012615 0.01902618 -0.01283979
v 0.01736681 0.02475053 -0.00459831
v 0.01736001 0.02094326 -0.00713615
v 0.01731579 0.01713599 -0.00967599
v 0.01728178 0.01967417 -0.00840607
v 0.01728178 0.03744143 0.00555305
v 0.01720695 0.03744143 0.00571104
v 0.01736001 0.03490026 0.00428313
v 0.01733620 0.01713599 -0.00079255
v 0.01736681 0.01840508 -0.00079255
v 0.01586342 0.01677766 -0.01173586
v 0.01280563 0.01651787 -0.01326777
v 0.01211516 0.01651787 -0.01357575
v 0.01697906 0.01849167 -0.00977799
v 0.01680900 0.01701356 -0.01093591
v 0.01693484 0.01651787 -0.01093991
v -0.01320436 0.02208992 -0.00981398
v -0.01038466 0.01651787 -0.01432370
v -0.01293225 0.01921729 -0.01168186
v -0.01629957 0.02142103 -0.00895204
v -0.01460911 0.02092235 -0.00998397
v -0.01545264 0.02175249 -0.00914203
v -0.01587100 0.02219144 -0.00870605
v -0.01668052 0.02057298 -0.00919002
v -0.01680637 0.02221235 -0.00809409
v -0.01642202 0.01897841 -0.01027195
v -0.01690841 0.02345755 -0.00718015
v -0.01680977 0.02591212 -0.00584223
v -0.01695943 0.02731857 -0.00466231
v -0.01680297 0.03617234 0.00077535
v -0.01715671 0.02475053 -0.00586823
v -0.01718732 0.02855780 -0.00333039
v -0.01729956 0.02601962 -0.00459831
v -0.01723834 0.03617234 0.00174529
v -0.01737779 0.04146370 0.00571104
v 0.01736681 0.01840508 -0.00840607
v 0.01733960 0.01651787 -0.00967599
v 0.01729198 0.01651787 -0.00079255
v 0.01685661 0.01651787 0.00015939
v 0.01694505 0.03607678 0.00571104
v 0.01686001 0.03363117 0.00523707
v 0.01736681 0.01651787 -0.00206247
v -0.01139485 0.01651787 -0.01389373
v -0.01377919 0.01890376 -0.01150188
v -0.01557509 0.01931882 -0.01046794
v -0.01517033 0.01772425 -0.01155187
v -0.01594583 0.01849466 -0.01076392
v -0.01396626 0.01651787 -0.01277980
v -0.01672134 0.01813334 -0.01051394
v -0.01685059 0.01967417 -0.00944201
v -0.01564992 0.01687620 -0.01178986
v -0.01599005 0.01723453 -0.01142988
v -0.01648324 0.01651787 -0.01157387
v -0.01723834 0.02221235 -0.00713615
v -0.01735058 0.02348144 -0.00586823
v -0.01736419 0.01840508 -0.00840607
v -0.01738119 0.04013787 0.00571104
v -0.01736079 0.02094326 -0.00713615
v 0.01736681 0.01651787 -0.00840607
v 0.01666274 0.03236208 0.00503308
v 0.01654369 0.01895751 0.00113333
v 0.01581240 0.01651787 0.00031538
v 0.01623757 0.03490026 0.00571104
v -0.01212274 0.01651787 -0.01358175
v -0.01278600 0.01651787 -0.01329376
v -0.01342545 0.01651787 -0.01301578
v -0.01462272 0.01651787 -0.01247182
v -0.01510911 0.01651787 -0.01224183
v -0.01650706 0.01651787 -0.01155387
v -0.01688460 0.01713599 -0.01077992
v -0.01728596 0.01967417 -0.00840607
v -0.01731657 0.01713599 -0.00967599
v -0.01736419 0.01651787 -0.00902603
v -0.01734038 0.01651787 -0.00967599
v -0.01736419 0.01651787 -0.00206247
v -0.01736419 0.01840508 -0.00079255
v -0.01733698 0.01713599 -0.00079255
v -0.01735399 0.03871052 0.00555305
v -0.01730977 0.03884489 0.00571104
v 0.01586342 0.03444040 0.00571104
v 0.01651308 0.03170813 0.00492709
v -0.01654107 0.01895751 0.00113333
v -0.00063304 0.01651787 0.00038737
v -0.01693222 0.01651787 -0.01093591
v -0.01713290 0.01651787 -0.01042994
v -0.01735058 0.01651787 -0.00141251
v -0.01729276 0.01651787 -0.00079255
v -0.01728256 0.03744143 0.00555305
v -0.01723154 0.03761761 0.00571104
v -0.01586420 0.03443742 0.00571104
v -0.01651386 0.03170813 0.00492709
v -0.01666352 0.03236208 0.00503308
v -0.01685739 0.01651787 0.00015939
v -0.01632678 0.01651787 0.00029138
v -0.01581318 0.01651787 0.00031738
v -0.01706827 0.01651787 -0.00026459
v -0.01720773 0.03744143 0.00571104
v -0.01610229 0.03459867 0.00571104
v -0.01686079 0.03363117 0.00523707
v -0.01650365 0.03522873 0.00571104
v -0.01695263 0.03612158 0.00571104
v -0.01694242 0.03607678 0.00571104
f 1 2 3
f 1 3 4
f 1 4 12
f 1 12 5
f 1 5 14
f 1 14 29
f 1 29 42
f 1 42 55
f 1 55 54
f 1 54 69
f 1 69 83
f 1 83 81
f 1 81 97
f 1 97 117
f 1 117 148
f 1 148 187
f 1 187 186
f 1 186 231
f 1 231 267
f 1 267 289
f 1 289 311
f 1 311 321
f 1 321 329
f 1 329 333
f 1 333 334
f 1 334 332
f 1 332 330
f 1 330 322
f 1 322 312
f 1 312 295
f 1 295 272
f 1 272 239
f 1 239 195
f 1 195 155
f 1 155 122
f 1 122 99
f 1 99 84
f 1 84 71
f 1 71 57
f 1 57 45
f 1 45 44
f 1 44 31
f 1 31 15
f 1 15 6
f 1 6 2
f 2 6 7
f 2 7 3
f 3 8 9
f 3 9 10
f 3 10 4
f 3 7 8
f 4 10 11
f 4 11 25
f 4 25 12
f 5 12 13
f 5 13 14
f 6 15 16
f 6 16 7
f 7 16 17
f 7 17 18
f 7 18 19
f 7 19 20
f 7 20 8
f 8 20 9
f 9 21 36
f 9 36 35
f 9 35 49
f 9 49 62
f 9 62 75
f 9 75 90
f 9 90 109
f 9 109 140
f 9 140 176
f 9 176 188
f 9 188 146
f 9 146 145
f 9 145 142
f 9 142 111
f 9 111 93
f 9 93 92
f 9 92 77
f 9 77 76
f 9 76 66
f 9 66 56
f 9 56 50
f 9 50 37
f 9 37 26
f 9 26 22
f 9 22 24
f 9 24 10
f 9 20 23
f 9 23 21
f 10 24 25
f 10 25 11
f 12 25 24
f 12 24 13
f 13 24 26
f 13 26 27
f 13 27 28
f 13 28 14
f 14 28 29
f 15 30 16
f 15 31 30
f 16 30 32
f 16 32 33
f 16 33 18
f 16 18 17
f 18 33 34
f 18 34 35
f 18 35 36
f 18 36 19
f 19 36 23
f 19 23 20
f 21 23 36
f 22 26 24
f 26 37 38
f 26 38 27
f 27 38 39
f 27 39 28
f 28 40 41
f 28 41 42
f 28 42 29
f 28 39 43
f 28 43 40
f 30 31 44
f 30 44 45
f 30 45 32
f 32 46 33
f 32 45 46
f 33 46 47
f 33 47 34
f 34 47 35
f 35 47 48
f 35 48 49
f 37 50 43
f 37 43 38
f 38 43 39
f 40 43 51
f 40 51 41
f 41 52 53
f 41 53 54
f 41 54 55
f 41 55 42
f 41 51 52
f 43 50 56
f 43 56 51
f 45 57 46
f 46 58 47
f 46 57 59
f 46 59 58
f 47 60 61
f 47 61 48
f 47 58 60
f 48 61 60
f 48 60 62
f 48 62 49
f 51 63 64
f 51 64 65
f 51 65 52
f 51 56 66
f 51 66 63
f 52 67 68
f 52 68 69
f 52 69 70
f 52 70 53
f 52 65 67
f 53 70 69
f 53 69 54
f 57 71 72
f 57 72 73
f 57 73 59
f 58 59 73
f 58 73 74
f 58 74 60
f 60 74 62
f 62 74 75
f 63 76 77
f 63 77 64
f 63 66 76
f 64 78 79
f 64 79 65
f 64 77 78
f 65 79 67
f 67 79 80
f 67 80 81
f 67 81 82
f 67 82 68
f 68 82 81
f 68 81 83
f 68 83 69
f 71 84 85
f 71 85 86
f 71 86 87
f 71 87 73
f 71 73 72
f 73 87 88
f 73 88 74
f 74 88 89
f 74 89 75
f 75 89 88
f 75 88 91
f 75 91 90
f 77 92 78
f 78 92 93
f 78 93 94
f 78 94 79
f 79 94 80
f 80 94 95
f 80 95 96
f 80 96 81
f 81 96 97
f 84 98 85
f 84 99 98
f 85 100 87
f 85 87 86
f 85 98 101
f 85 101 102
f 85 102 103
f 85 103 104
f 85 104 105
f 85 105 106
f 85 106 107
f 85 107 100
f 87 100 88
f 88 100 108
f 88 108 91
f 90 91 109
f 91 108 107
f 91 107 110
f 91 110 109
f 93 111 94
f 94 112 113
f 94 113 114
f 94 114 115
f 94 115 116
f 94 116 95
f 94 111 112
f 95 116 96
f 96 116 117
f 96 117 97
f 98 118 119
f 98 119 120
f 98 120 101
f 98 99 121
f 98 121 118
f 99 122 121
f 100 107 108
f 101 120 123
f 101 123 124
f 101 124 102
f 102 124 103
f 103 124 104
f 104 125 126
f 104 126 127
f 104 127 128
f 104 128 129
f 104 129 130
f 104 130 131
f 104 131 105
f 104 124 132
f 104 132 133
f 104 133 125
f 105 131 106
f 106 131 134
f 106 134 135
f 106 135 136
f 106 136 137
f 106 137 107
f 107 137 109
f 107 109 110
f 109 138 139
f 109 139 140
f 109 137 141
f 109 141 138
f 111 142 112
f 112 143 144
f 112 144 113
f 112 142 145
f 112 145 146
f 112 146 143
f 113 144 147
f 113 147 117
f 113 117 115
f 113 115 114
f 115 117 116
f 117 147 148
f 118 121 119
f 119 149 124
f 119 124 123
f 119 123 120
f 119 121 150
f 119 150 151
f 119 151 149
f 121 151 150
f 121 122 152
f 121 152 151
f 122 153 154
f 122 154 152
f 122 155 156
f 122 156 153
f 124 149 151
f 124 151 157
f 124 157 132
f 125 133 158
f 125 158 159
f 125 159 160
f 125 160 161
f 125 161 162
f 125 162 127
f 125 127 126
f 127 162 163
f 127 163 138
f 127 138 128
f 128 164 129
f 128 138 164
f 129 164 165
f 129 165 130
f 130 134 131
f 130 165 134
f 132 157 166
f 132 166 167
f 132 167 133
f 133 167 168
f 133 168 169
f 133 169 170
f 133 170 158
f 134 171 135
f 134 165 171
f 135 171 136
f 136 172 137
f 136 171 172
f 137 172 173
f 137 173 141
f 138 141 173
f 138 173 174
f 138 174 175
f 138 175 164
f 138 163 205
f 138 205 245
f 138 245 244
f 138 244 202
f 138 202 201
f 138 201 210
f 138 210 169
f 138 169 209
f 138 209 248
f 138 248 269
f 138 269 291
f 138 291 274
f 138 274 270
f 138 270 271
f 138 271 294
f 138 294 315
f 138 315 327
f 138 327 326
f 138 326 325
f 138 325 328
f 138 328 319
f 138 319 318
f 138 318 307
f 138 307 305
f 138 305 306
f 138 306 317
f 138 317 316
f 138 316 301
f 138 301 285
f 138 285 300
f 138 300 299
f 138 299 280
f 138 280 298
f 138 298 297
f 138 297 296
f 138 296 275
f 138 275 250
f 138 250 220
f 138 220 212
f 138 212 176
f 138 176 140
f 138 140 139
f 143 177 178
f 143 178 179
f 143 179 180
f 143 180 181
f 143 181 182
f 143 182 183
f 143 183 184
f 143 184 185
f 143 185 186
f 143 186 187
f 143 187 148
f 143 148 147
f 143 147 144
f 143 146 177
f 146 188 177
f 151 166 157
f 151 152 189
f 151 189 166
f 152 154 190
f 152 190 189
f 153 156 191
f 153 191 192
f 153 192 190
f 153 190 154
f 155 193 194
f 155 194 156
f 155 195 196
f 155 196 197
f 155 197 198
f 155 198 199
f 155 199 193
f 156 194 191
f 158 170 200
f 158 200 201
f 158 201 202
f 158 202 203
f 158 203 159
f 159 203 160
f 160 203 204
f 160 204 161
f 161 204 205
f 161 205 162
f 162 205 163
f 164 175 165
f 165 175 174
f 165 174 172
f 165 172 171
f 166 189 206
f 166 206 207
f 166 207 167
f 167 207 208
f 167 208 168
f 168 208 209
f 168 209 169
f 169 210 170
f 170 210 211
f 170 211 200
f 172 174 173
f 176 212 213
f 176 213 188
f 177 214 178
f 177 188 214
f 178 215 216
f 178 216 179
f 178 214 217
f 178 217 215
f 179 181 180
f 179 216 218
f 179 218 219
f 179 219 181
f 181 220 221
f 181 221 222
f 181 222 223
f 181 223 224
f 181 224 225
f 181 225 182
f 181 219 226
f 181 226 227
f 181 227 212
f 181 212 220
f 182 225 183
f 183 225 184
f 184 225 228
f 184 228 229
f 184 229 185
f 185 229 230
f 185 230 231
f 185 231 186
f 188 213 232
f 188 232 233
f 188 233 214
f 189 190 206
f 190 192 194
f 190 194 206
f 191 194 192
f 193 199 234
f 193 234 235
f 193 235 194
f 194 235 236
f 194 236 237
f 194 237 206
f 195 238 196
f 195 239 238
f 196 240 197
f 196 238 241
f 196 241 242
f 196 242 240
f 197 240 242
f 197 242 274
f 197 274 291
f 197 291 268
f 197 268 234
f 197 234 199
f 197 199 198
f 200 211 201
f 201 211 243
f 201 243 210
f 202 244 203
f 203 244 204
f 204 244 245
f 204 245 205
f 206 237 246
f 206 246 207
f 207 247 208
f 207 246 248
f 207 248 247
f 208 247 209
f 209 247 248
f 210 243 211
f 212 227 213
f 213 227 249
f 213 249 226
f 213 226 218
f 213 218 216
f 213 216 214
f 213 214 232
f 214 233 232
f 214 216 215
f 214 215 217
f 218 226 219
f 220 250 251
f 220 251 222
f 220 222 221
f 222 252 223
f 222 251 253
f 222 253 254
f 222 254 255
f 222 255 252
f 223 256 257
f 223 257 224
f 223 252 258
f 223 258 256
f 224 257 259
f 224 259 260
f 224 260 225
f 225 260 261
f 225 261 231
f 225 231 228
f 226 249 227
f 228 231 262
f 228 262 229
f 229 262 230
f 230 262 231
f 231 261 263
f 231 263 264
f 231 264 265
f 231 265 266
f 231 266 267
f 234 268 235
f 235 268 236
f 236 268 269
f 236 269 248
f 236 248 237
f 237 248 246
f 238 270 241
f 238 239 271
f 238 271 270
f 239 272 273
f 239 273 271
f 241 270 274
f 241 274 242
f 250 275 251
f 251 275 276
f 251 276 253
f 252 277 278
f 252 278 279
f 252 279 258
f 252 255 280
f 252 280 277
f 253 276 254
f 254 276 280
f 254 280 255
f 256 258 281
f 256 281 257
f 257 281 282
f 257 282 259
f 258 279 283
f 258 283 284
f 258 284 285
f 258 285 281
f 259 286 263
f 259 263 261
f 259 261 260
f 259 282 286
f 263 286 265
f 263 265 264
f 265 286 287
f 265 287 267
f 265 267 266
f 267 288 289
f 267 287 290
f 267 290 288
f 268 291 269
f 271 273 292
f 271 292 293
f 271 293 294
f 272 295 273
f 273 295 292
f 275 296 276
f 276 296 297
f 276 297 298
f 276 298 280
f 277 280 278
f 278 299 279
f 278 280 299
f 279 299 300
f 279 300 283
f 281 285 301
f 281 301 302
f 281 302 282
f 282 302 286
f 283 300 285
f 283 285 284
f 286 302 303
f 286 303 287
f 287 303 304
f 287 304 290
f 288 305 289
f 288 290 304
f 288 304 306
f 288 306 305
f 289 305 307
f 289 307 308
f 289 308 309
f 289 309 310
f 289 310 311
f 292 295 312
f 292 312 313
f 292 313 293
f 293 313 323
f 293 323 314
f 293 314 315
f 293 315 294
f 301 316 302
f 302 316 317
f 302 317 304
f 302 304 303
f 304 317 306
f 307 318 308
f 308 318 309
f 309 318 319
f 309 319 320
f 309 320 310
f 310 320 311
f 311 320 321
f 312 322 313
f 313 322 323
f 314 323 324
f 314 324 325
f 314 325 326
f 314 326 327
f 314 327 315
f 319 328 320
f 320 328 329
f 320 329 321
f 322 330 323
f 323 330 324
f 324 331 325
f 324 330 332
f 324 332 331
f 325 331 329
f 325 329 328
f 329 331 333
f 331 332 334
f 331 334 333
