# https://github.com/mikedh/trimesh
v 0.01724734 -0.00003115 -0.01729181
v 0.01728291 -0.00063481 -0.01729181
v 0.01724564 -0.00003115 -0.02043463
v 0.01723548 -0.00003115 -0.01728629
v 0.01724734 -0.00003284 -0.01728629
v 0.01728122 -0.00063481 -0.01982990
v 0.01728122 -0.00063987 -0.01728629
v 0.01711520 -0.00190958 -0.01728629
v 0.01723209 -0.00003115 -0.02109895
v 0.00940572 -0.00003115 -0.01728629
v 0.01725411 -0.00063481 -0.02109895
v 0.01710165 -0.00190452 -0.01856086
v 0.01691870 -0.00317929 -0.01728629
v 0.01706269 -0.00003115 -0.02166781
v 0.00952261 -0.00003115 -0.02109895
v -0.00002320 -0.00841157 -0.01728629
v 0.01706100 -0.00190452 -0.01982990
v 0.01697799 -0.00190452 -0.02109895
v 0.01658498 -0.00285891 -0.02195583
v 0.01671203 -0.00190452 -0.02217157
v 0.01686449 -0.00063481 -0.02229516
v 0.01685941 -0.00003115 -0.02229351
v 0.01663918 -0.00443888 -0.01728629
v 0.00969031 -0.00003115 -0.02170809
v -0.00002320 -0.00880614 -0.02197625
v -0.00002320 -0.00876567 -0.02152159
v -0.00002320 -0.00872857 -0.02109895
v -0.00002320 -0.01725568 -0.01728629
v 0.01675438 -0.00317423 -0.01982990
v 0.01647148 -0.00370538 -0.02141842
v 0.01528397 -0.00777418 -0.02188852
v 0.01539747 -0.00698167 -0.02210370
v 0.01556687 -0.00571196 -0.02227640
v 0.01586502 -0.00190452 -0.02276636
v 0.01586502 -0.00003115 -0.02288830
v 0.01638677 -0.00003115 -0.02257711
v 0.01586502 -0.00063481 -0.02288996
v 0.01648333 -0.00501556 -0.01728629
v 0.01646978 -0.00496835 -0.01759473
v 0.01642743 -0.00480984 -0.01856086
v 0.00984447 -0.00003115 -0.02226316
v -0.00002320 -0.00914844 -0.02226261
v 0.00063578 -0.01721859 -0.01728629
v -0.00002320 -0.01724557 -0.01982990
v 0.00063578 -0.01720679 -0.02109895
v 0.01596158 -0.00571196 -0.02109895
v 0.01561600 -0.00698167 -0.02109895
v 0.01533479 -0.00788547 -0.02109895
v 0.01505697 -0.00851948 -0.02109895
v 0.01426586 -0.00920914 -0.02211143
v 0.01465040 -0.00821765 -0.02229130
v 0.01459450 -0.00698167 -0.02269850
v 0.01459450 -0.00571196 -0.02287120
v 0.01525856 -0.00003115 -0.02290541
v 0.01459450 -0.00444225 -0.02291368
v 0.01459450 -0.00317423 -0.02292196
v 0.01459450 -0.00190452 -0.02292306
v 0.01459450 -0.00003115 -0.02292306
v 0.01628513 -0.00560404 -0.01728629
v 0.01607338 -0.00571196 -0.01982990
v 0.01033743 -0.00003115 -0.02257435
v -0.00002320 -0.00951771 -0.02257104
v 0.00467940 -0.01646823 -0.01728629
v -0.00002320 -0.01723208 -0.02109895
v 0.00063578 -0.01685268 -0.02229185
v 0.00190460 -0.01668912 -0.02215281
v 0.00280073 -0.01656940 -0.02193541
v 0.00190460 -0.01687966 -0.02109895
v 0.00560603 -0.01625746 -0.01728629
v 0.01535851 -0.00791582 -0.01982990
v 0.01506205 -0.00854983 -0.01982990
v 0.01442679 -0.00946375 -0.01982990
v 0.01442171 -0.00940811 -0.02109895
v 0.01385252 -0.01004212 -0.02109895
v 0.01301737 -0.01047885 -0.02211143
v 0.01339344 -0.00958685 -0.02242538
v 0.01332568 -0.00825138 -0.02290927
v 0.01332568 -0.00698167 -0.02292306
v 0.01205686 -0.00003115 -0.02292306
v 0.01575660 -0.00698673 -0.01728629
v 0.01573797 -0.00698167 -0.01856086
v 0.01078804 -0.00003115 -0.02285796
v -0.00002320 -0.01078742 -0.02292306
v -0.00002320 -0.01685943 -0.02229351
v 0.00063578 -0.01586457 -0.02288665
v 0.00190460 -0.01586457 -0.02274760
v 0.00571276 -0.01552733 -0.02226426
v 0.00698158 -0.01537389 -0.02207611
v 0.00774219 -0.01526934 -0.02185817
v 0.00698158 -0.01555937 -0.02109895
v 0.00698158 -0.01576677 -0.01728629
v 0.00785908 -0.01532330 -0.02109895
v 0.00698158 -0.01573305 -0.01856086
v 0.01536020 -0.00790739 -0.01728629
v 0.01506205 -0.00854646 -0.01856086
v 0.01442849 -0.00949073 -0.01728629
v 0.01442679 -0.00948568 -0.01856086
v 0.01393383 -0.01011969 -0.01856086
v 0.01391012 -0.01009777 -0.01982990
v 0.01279206 -0.01153272 -0.01728629
v 0.01273277 -0.01146527 -0.01856086
v 0.01154696 -0.01280749 -0.01728629
v 0.01321726 -0.01067950 -0.02109895
v 0.01067962 -0.01321724 -0.02109895
v 0.01047803 -0.01301658 -0.02211143
v 0.00958698 -0.01339429 -0.02242538
v 0.01212462 -0.01085656 -0.02242538
v 0.01205686 -0.00825138 -0.02292306
v 0.00825040 -0.01332515 -0.02290927
v 0.00825040 -0.01205713 -0.02292306
v -0.00002320 -0.01459486 -0.02292306
v -0.00002320 -0.01586457 -0.02288830
v 0.00317342 -0.01459486 -0.02292141
v 0.00444224 -0.01459486 -0.02290541
v 0.00571276 -0.01459486 -0.02285906
v 0.00698158 -0.01459486 -0.02267091
v 0.00819958 -0.01465051 -0.02227309
v 0.00920921 -0.01426437 -0.02211143
v 0.00849264 -0.01505519 -0.02109895
v 0.00791329 -0.01535871 -0.01982990
v 0.00791498 -0.01537051 -0.01728629
v 0.01506036 -0.00854478 -0.01728629
v 0.01393722 -0.01012812 -0.01728629
v 0.01340191 -0.01079079 -0.01728629
v 0.01217883 -0.01217011 -0.01728629
v 0.01078804 -0.01342633 -0.01728629
v 0.01013415 -0.01394567 -0.01856086
v 0.01010704 -0.01391870 -0.01982990
v 0.01004267 -0.01385125 -0.02109895
v 0.00698158 -0.01332515 -0.02292306
v 0.00190460 -0.01459486 -0.02292306
v 0.00940741 -0.01442118 -0.02109895
v 0.00854685 -0.01505857 -0.01982990
v 0.00947179 -0.01442287 -0.01982990
v 0.00854685 -0.01505519 -0.01728629
v 0.01012907 -0.01394736 -0.01728629
v 0.00949889 -0.01442118 -0.01856086
v 0.00949720 -0.01441950 -0.01728629
f 1 2 3
f 1 3 9
f 1 9 14
f 1 14 22
f 1 22 36
f 1 36 35
f 1 35 54
f 1 54 58
f 1 58 79
f 1 79 82
f 1 82 61
f 1 61 41
f 1 41 24
f 1 24 15
f 1 15 10
f 1 10 4
f 1 4 5
f 1 5 2
f 2 6 3
f 2 5 7
f 2 7 8
f 2 8 6
f 3 6 9
f 4 10 16
f 4 16 28
f 4 28 43
f 4 43 63
f 4 63 69
f 4 69 91
f 4 91 121
f 4 121 135
f 4 135 138
f 4 138 136
f 4 136 126
f 4 126 102
f 4 102 125
f 4 125 100
f 4 100 124
f 4 124 123
f 4 123 96
f 4 96 122
f 4 122 94
f 4 94 80
f 4 80 59
f 4 59 38
f 4 38 23
f 4 23 13
f 4 13 8
f 4 8 7
f 4 7 5
f 6 11 9
f 6 8 12
f 6 12 11
f 8 13 12
f 9 11 14
f 10 15 16
f 11 12 13
f 11 13 17
f 11 17 18
f 11 18 19
f 11 19 20
f 11 20 21
f 11 21 22
f 11 22 14
f 13 23 17
f 15 24 25
f 15 25 26
f 15 26 27
f 15 27 16
f 16 27 26
f 16 26 25
f 16 25 42
f 16 42 62
f 16 62 83
f 16 83 111
f 16 111 112
f 16 112 84
f 16 84 64
f 16 64 44
f 16 44 28
f 17 23 18
f 18 23 29
f 18 29 30
f 18 30 19
f 19 30 31
f 19 31 32
f 19 32 20
f 20 32 33
f 20 33 34
f 20 34 21
f 21 35 36
f 21 36 22
f 21 34 37
f 21 37 35
f 23 38 39
f 23 39 40
f 23 40 29
f 24 41 25
f 25 41 42
f 28 44 45
f 28 45 43
f 29 40 46
f 29 46 30
f 30 46 47
f 30 47 31
f 31 48 49
f 31 49 50
f 31 50 51
f 31 51 32
f 31 47 48
f 32 51 52
f 32 52 33
f 33 52 34
f 34 52 53
f 34 53 37
f 35 37 54
f 37 53 55
f 37 55 56
f 37 56 57
f 37 57 58
f 37 58 54
f 38 59 48
f 38 48 47
f 38 47 39
f 39 60 40
f 39 47 60
f 40 60 46
f 41 61 62
f 41 62 42
f 43 45 63
f 44 64 45
f 45 64 65
f 45 65 66
f 45 66 67
f 45 67 68
f 45 68 69
f 45 69 63
f 46 60 47
f 48 70 49
f 48 59 70
f 49 70 71
f 49 71 72
f 49 72 73
f 49 73 50
f 50 73 74
f 50 74 75
f 50 75 76
f 50 76 51
f 51 76 77
f 51 77 52
f 52 77 53
f 53 77 55
f 55 77 78
f 55 78 56
f 56 78 57
f 57 78 108
f 57 108 110
f 57 110 130
f 57 130 131
f 57 131 111
f 57 111 83
f 57 83 79
f 57 79 58
f 59 80 81
f 59 81 70
f 61 82 62
f 62 82 83
f 64 84 65
f 65 85 86
f 65 86 87
f 65 87 66
f 65 84 85
f 66 87 88
f 66 88 67
f 67 88 89
f 67 89 90
f 67 90 68
f 68 90 69
f 69 90 92
f 69 92 93
f 69 93 91
f 70 80 94
f 70 94 71
f 70 81 80
f 71 94 95
f 71 95 96
f 71 96 97
f 71 97 72
f 72 97 98
f 72 98 99
f 72 99 73
f 73 99 74
f 74 99 100
f 74 100 101
f 74 101 102
f 74 102 103
f 74 103 75
f 75 103 104
f 75 104 105
f 75 105 106
f 75 106 107
f 75 107 76
f 76 107 77
f 77 108 78
f 77 107 106
f 77 106 109
f 77 109 110
f 77 110 108
f 79 83 82
f 84 112 85
f 85 112 113
f 85 113 114
f 85 114 115
f 85 115 86
f 86 115 116
f 86 116 87
f 87 116 88
f 88 116 117
f 88 117 89
f 89 117 118
f 89 118 119
f 89 119 92
f 89 92 90
f 91 93 120
f 91 120 121
f 92 119 120
f 92 120 93
f 94 122 95
f 95 122 96
f 96 123 97
f 97 123 98
f 98 123 124
f 98 124 100
f 98 100 99
f 100 125 101
f 101 125 102
f 102 126 127
f 102 127 128
f 102 128 129
f 102 129 104
f 102 104 103
f 104 129 105
f 105 129 118
f 105 118 106
f 106 118 117
f 106 117 109
f 109 117 116
f 109 116 115
f 109 115 114
f 109 114 113
f 109 113 130
f 109 130 110
f 111 131 112
f 112 131 113
f 113 131 130
f 118 129 132
f 118 132 119
f 119 133 120
f 119 132 134
f 119 134 133
f 120 133 121
f 121 133 135
f 126 136 127
f 127 136 137
f 127 137 134
f 127 134 128
f 128 134 132
f 128 132 129
f 133 137 135
f 133 134 137
f 135 137 138
f 136 138 137
