# https://github.com/mikedh/trimesh
v -0.00002489 0.01725008 -0.01729163
v -0.00002489 0.01724334 -0.01983007
v -0.00063479 0.01721805 -0.01729163
v -0.00002489 0.00841462 -0.01729163
v -0.00002489 0.01722985 -0.02109902
v -0.00063479 0.01720793 -0.02109902
v -0.00467602 0.01646785 -0.01729163
v -0.00002489 0.00872819 -0.02109902
v -0.00940825 0.00003097 -0.01729163
v -0.00952144 0.00003097 -0.02109902
v -0.00002489 0.01685897 -0.02229355
v -0.00063479 0.01685222 -0.02229190
v -0.00190527 0.01668870 -0.02215299
v -0.00280070 0.01656900 -0.02193525
v -0.00190527 0.01687920 -0.02109902
v -0.00560692 0.01625712 -0.01729163
v -0.00002489 0.00880573 -0.02197604
v -0.01724742 0.00003097 -0.01729163
v -0.00984413 0.00003097 -0.02226323
v -0.00002489 0.01586432 -0.02288834
v -0.00063479 0.01586432 -0.02288668
v -0.00190527 0.01586432 -0.02274777
v -0.00571167 0.01552884 -0.02226433
v -0.00698216 0.01537375 -0.02207636
v -0.00774242 0.01526922 -0.02185807
v -0.00698216 0.01555919 -0.02109902
v -0.00785899 0.01532317 -0.02109902
v -0.00698216 0.01573283 -0.01856112
v -0.00698216 0.01576655 -0.01729163
v -0.00002489 0.00917493 -0.02228473
v -0.01728290 0.00063450 -0.01729163
v -0.01724573 0.00003097 -0.02043478
v -0.01078686 0.00003097 -0.02285802
v -0.00002489 0.00951884 -0.02257082
v -0.00002489 0.01459489 -0.02292251
v -0.00190527 0.01459489 -0.02292251
v -0.00317407 0.01459489 -0.02292141
v -0.00444287 0.01459489 -0.02290542
v -0.00571167 0.01459489 -0.02285912
v -0.00698216 0.01459489 -0.02267115
v -0.00820027 0.01465052 -0.02227316
v -0.00920889 0.01426447 -0.02211164
v -0.00849424 0.01505512 -0.02109902
v -0.00791306 0.01535857 -0.01983007
v -0.00791306 0.01537038 -0.01729163
v -0.01728121 0.00063618 -0.01983007
v -0.01711396 0.00190393 -0.01729163
v -0.01723222 0.00003097 -0.02109902
v -0.01205735 0.00003097 -0.02292251
v -0.00002489 0.01078659 -0.02292251
v -0.00002489 0.01017632 -0.02275328
v -0.00698216 0.01332546 -0.02292251
v -0.00825095 0.01332546 -0.02290928
v -0.00958733 0.01339458 -0.02242530
v -0.01047769 0.01301695 -0.02211164
v -0.01004180 0.01385144 -0.02109902
v -0.00940825 0.01442125 -0.02109902
v -0.00947245 0.01442294 -0.01983007
v -0.00854661 0.01505850 -0.01983007
v -0.00854830 0.01505344 -0.01729163
v -0.01725418 0.00063618 -0.02109902
v -0.01710213 0.00190393 -0.01856112
v -0.01691797 0.00317336 -0.01729163
v -0.01706327 0.00003097 -0.02166790
v -0.01459494 0.00003097 -0.02292251
v -0.01205735 0.00825110 -0.02292251
v -0.01332615 0.00825110 -0.02290928
v -0.01339372 0.00958628 -0.02242530
v -0.01174817 0.01174752 -0.02211164
v -0.01067873 0.01321756 -0.02109902
v -0.01010769 0.01391887 -0.01983007
v -0.01154544 0.01280622 -0.01729163
v -0.00949948 0.01442125 -0.01856112
v -0.01013472 0.01394585 -0.01856112
v -0.00949610 0.01441788 -0.01729163
v -0.01705989 0.00190393 -0.01983007
v -0.01697880 0.00190393 -0.02109902
v -0.01658515 0.00285811 -0.02195564
v -0.01671186 0.00190393 -0.02217118
v -0.01686391 0.00063618 -0.02229520
v -0.01663921 0.00443268 -0.01729163
v -0.01684870 0.00317336 -0.01856112
v -0.01685884 0.00003097 -0.02229355
v -0.01525891 0.00003097 -0.02290542
v -0.01586374 0.00063618 -0.02288999
v -0.01459494 0.00190393 -0.02292251
v -0.01332615 0.00698166 -0.02292251
v -0.01459494 0.00444280 -0.02291369
v -0.01459494 0.00571223 -0.02287125
v -0.01459494 0.00698166 -0.02269871
v -0.01465070 0.00821906 -0.02229135
v -0.01426549 0.00920865 -0.02211164
v -0.01301697 0.01047808 -0.02211164
v -0.01321802 0.01067870 -0.02109902
v -0.01258278 0.01131426 -0.02109902
v -0.01273314 0.01146598 -0.01856112
v -0.01217899 0.01216729 -0.01729163
v -0.01078686 0.01342324 -0.01729163
v -0.01013134 0.01394416 -0.01729163
v -0.01661725 0.00452034 -0.01729163
v -0.01675410 0.00317336 -0.01983007
v -0.01662907 0.00323911 -0.02103673
v -0.01647026 0.00370440 -0.02141819
v -0.01528425 0.00777400 -0.02188839
v -0.01539745 0.00698166 -0.02210392
v -0.01556639 0.00571223 -0.02227646
v -0.01586374 0.00190393 -0.02276596
v -0.01638748 0.00003097 -0.02257744
v -0.01586374 0.00003097 -0.02288834
v -0.01459494 0.00317336 -0.02292196
v -0.01442262 0.00940758 -0.02109902
v -0.01385157 0.01004145 -0.02109902
v -0.01505617 0.00851914 -0.02109902
v -0.01279058 0.01153173 -0.01729163
v -0.01648378 0.00501598 -0.01729163
v -0.01647026 0.00496878 -0.01759481
v -0.01650912 0.00384432 -0.02057204
v -0.01633511 0.00433827 -0.02103673
v -0.01596004 0.00571223 -0.02109902
v -0.01561539 0.00698166 -0.02109902
v -0.01533493 0.00788527 -0.02109902
v -0.01442769 0.00946321 -0.01983007
v -0.01391070 0.01009708 -0.01983007
v -0.01535859 0.00791561 -0.01983007
v -0.01506124 0.00855117 -0.01983007
v -0.01393436 0.01012069 -0.01856112
v -0.01340386 0.01078659 -0.01729163
v -0.01607324 0.00571223 -0.01983007
v -0.01628442 0.00560434 -0.01729163
v -0.01442769 0.00948513 -0.01856112
v -0.01573703 0.00698166 -0.01856112
v -0.01575561 0.00698166 -0.01729163
v -0.01535859 0.00790550 -0.01729163
v -0.01506124 0.00854106 -0.01729163
v -0.01442769 0.00949018 -0.01729163
v -0.01393774 0.01012574 -0.01729163
f 1 2 3
f 1 3 7
f 1 7 16
f 1 16 29
f 1 29 45
f 1 45 60
f 1 60 75
f 1 75 99
f 1 99 98
f 1 98 72
f 1 72 97
f 1 97 114
f 1 114 127
f 1 127 136
f 1 136 135
f 1 135 134
f 1 134 133
f 1 133 132
f 1 132 129
f 1 129 115
f 1 115 100
f 1 100 81
f 1 81 63
f 1 63 47
f 1 47 31
f 1 31 18
f 1 18 9
f 1 9 4
f 1 4 8
f 1 8 17
f 1 17 30
f 1 30 34
f 1 34 51
f 1 51 50
f 1 50 35
f 1 35 20
f 1 20 11
f 1 11 5
f 1 5 2
f 2 5 6
f 2 6 3
f 3 6 7
f 4 9 10
f 4 10 8
f 5 11 12
f 5 12 6
f 6 12 13
f 6 13 14
f 6 14 15
f 6 15 16
f 6 16 7
f 8 10 17
f 9 18 32
f 9 32 48
f 9 48 64
f 9 64 83
f 9 83 108
f 9 108 109
f 9 109 84
f 9 84 65
f 9 65 49
f 9 49 33
f 9 33 19
f 9 19 10
f 10 19 17
f 11 20 21
f 11 21 12
f 12 21 22
f 12 22 23
f 12 23 13
f 13 23 24
f 13 24 14
f 14 24 25
f 14 25 26
f 14 26 15
f 15 26 16
f 16 26 27
f 16 27 28
f 16 28 29
f 17 19 30
f 18 31 32
f 19 33 34
f 19 34 30
f 20 35 36
f 20 36 37
f 20 37 21
f 21 37 38
f 21 38 39
f 21 39 22
f 22 39 40
f 22 40 23
f 23 40 24
f 24 40 41
f 24 41 25
f 25 41 42
f 25 42 43
f 25 43 27
f 25 27 26
f 27 44 28
f 27 43 44
f 28 44 29
f 29 44 45
f 31 46 32
f 31 47 46
f 32 46 48
f 33 49 50
f 33 50 51
f 33 51 34
f 35 50 49
f 35 49 65
f 35 65 86
f 35 86 87
f 35 87 66
f 35 66 52
f 35 52 36
f 36 52 37
f 37 52 53
f 37 53 38
f 38 53 39
f 39 53 40
f 40 53 41
f 41 53 54
f 41 54 42
f 42 54 55
f 42 55 56
f 42 56 57
f 42 57 43
f 43 57 58
f 43 58 59
f 43 59 44
f 44 59 45
f 45 59 60
f 46 61 48
f 46 47 62
f 46 62 61
f 47 63 62
f 48 61 64
f 52 66 67
f 52 67 53
f 53 67 54
f 54 67 68
f 54 68 93
f 54 93 69
f 54 69 55
f 55 69 70
f 55 70 56
f 56 71 57
f 56 70 72
f 56 72 71
f 57 71 58
f 58 73 59
f 58 71 74
f 58 74 73
f 59 73 60
f 60 73 75
f 61 62 63
f 61 63 76
f 61 76 77
f 61 77 78
f 61 78 79
f 61 79 80
f 61 80 64
f 63 81 82
f 63 82 76
f 64 80 83
f 65 84 85
f 65 85 86
f 66 87 67
f 67 87 88
f 67 88 89
f 67 89 90
f 67 90 91
f 67 91 68
f 68 91 92
f 68 92 93
f 69 93 94
f 69 94 95
f 69 95 70
f 70 95 72
f 71 72 74
f 72 95 94
f 72 94 96
f 72 96 97
f 72 98 74
f 73 74 99
f 73 99 75
f 74 98 99
f 76 82 77
f 77 82 81
f 77 81 100
f 77 100 101
f 77 101 102
f 77 102 103
f 77 103 78
f 78 103 104
f 78 104 105
f 78 105 79
f 79 105 106
f 79 106 107
f 79 107 80
f 80 107 85
f 80 85 108
f 80 108 83
f 84 109 85
f 85 109 108
f 85 107 89
f 85 89 88
f 85 88 110
f 85 110 86
f 86 110 87
f 87 110 88
f 89 107 90
f 90 107 106
f 90 106 105
f 90 105 91
f 91 105 104
f 91 104 92
f 92 111 112
f 92 112 93
f 92 104 113
f 92 113 111
f 93 112 94
f 94 112 96
f 96 114 97
f 96 112 114
f 100 115 116
f 100 116 117
f 100 117 101
f 101 117 102
f 102 117 103
f 103 117 118
f 103 118 119
f 103 119 120
f 103 120 104
f 104 120 121
f 104 121 113
f 111 122 123
f 111 123 112
f 111 113 122
f 112 123 114
f 113 121 124
f 113 124 125
f 113 125 122
f 114 123 126
f 114 126 127
f 115 128 116
f 115 129 121
f 115 121 120
f 115 120 128
f 116 128 117
f 117 128 118
f 118 128 119
f 119 128 120
f 121 129 124
f 122 130 126
f 122 126 123
f 122 125 130
f 124 129 131
f 124 131 132
f 124 132 133
f 124 133 134
f 124 134 125
f 125 134 135
f 125 135 130
f 126 130 136
f 126 136 127
f 129 132 131
f 130 135 136

