# https://github.com/mikedh/trimesh
v 0.05962618 0.02268980 0.01444041
v 0.05962618 0.02268980 0.01434034
v 0.05961817 0.02268980 0.02205367
v 0.05989071 0.02210348 0.01570929
v 0.06081255 0.02006581 0.01444041
v 0.06081255 0.02006804 0.01190066
v 0.05989071 0.02209902 0.01190066
v 0.05962351 0.02268980 0.01307547
v 0.06081255 0.02006804 0.01063178
v 0.05988804 0.02209679 0.02078279
v 0.05961282 0.02268980 0.02459143
v 0.06080721 0.02005466 0.02332255
v 0.06080988 0.02005912 0.01951392
v 0.06109579 0.01942375 0.01951392
v 0.06109846 0.01943267 0.01316953
v 0.05988804 0.02209456 0.01063178
v 0.05962084 0.02268980 0.01181460
v 0.06109846 0.01943267 0.01063178
v 0.05948456 0.02268980 0.00936290
v 0.05980520 0.02191621 0.02557010
v 0.06103166 0.01928553 0.02540599
v 0.06040374 0.02093973 0.02459143
v 0.05934562 0.02268980 0.02591234
v 0.06109044 0.01941483 0.02459143
v 0.06109311 0.01941929 0.02332255
v 0.06141910 0.01840269 0.02332255
v 0.05961549 0.02268980 0.01063178
v 0.06103967 0.01930113 0.00975117
v 0.06141910 0.01840269 0.01063178
v 0.05968497 0.02167989 0.00868443
v 0.05941776 0.02268980 0.00920880
v 0.06075377 0.01840269 0.02627459
v 0.06116526 0.01840269 0.02564015
v 0.06224208 0.01294737 0.02656679
v 0.06141643 0.01840269 0.02459143
v 0.05960481 0.02145026 0.02641669
v 0.05876312 0.02268980 0.02682297
v 0.06168096 0.01713417 0.02332255
v 0.06217528 0.01388148 0.00906270
v 0.06145918 0.01713417 0.00936290
v 0.06114388 0.01834695 0.00934089
v 0.06081789 0.01873487 0.00890459
v 0.06167828 0.01713417 0.02078279
v 0.06166760 0.01713417 0.01063178
v 0.05981055 0.02093973 0.00854834
v 0.05893947 0.02268980 0.00832418
v 0.06095951 0.01788770 0.00867843
v 0.06087935 0.01765807 0.02644471
v 0.06230621 0.01205561 0.02664484
v 0.06372504 0.00317372 0.02569619
v 0.06362618 0.00444225 0.02557010
v 0.06351930 0.00571300 0.02537196
v 0.06346319 0.00637959 0.02524187
v 0.06247454 0.01205561 0.02586030
v 0.06226880 0.01335312 0.02576624
v 0.06214321 0.01379454 0.02612649
v 0.06102631 0.01681090 0.02660282
v 0.06118396 0.01586341 0.02674291
v 0.06138704 0.01459489 0.02687300
v 0.06165424 0.01335312 0.02689502
v 0.06155537 0.01205561 0.02714319
v 0.06167828 0.01713417 0.02459143
v 0.05975176 0.02060310 0.02659681
v 0.05774776 0.02268980 0.02740137
v 0.05884328 0.02221049 0.02687901
v 0.06012050 0.01840269 0.02689101
v 0.05990941 0.01967121 0.02673691
v 0.06208977 0.01462610 0.01063178
v 0.06231422 0.01332637 0.02459143
v 0.06401095 0.00317372 0.02332255
v 0.06401095 0.00317372 0.01063178
v 0.06358610 0.00571300 0.01063178
v 0.06219398 0.01398181 0.00990928
v 0.06249592 0.01205561 0.00936290
v 0.06346586 0.00638627 0.00996332
v 0.06270166 0.01078932 0.00936290
v 0.06224742 0.01303432 0.00861639
v 0.06002431 0.01967121 0.00835621
v 0.06108510 0.01713417 0.00854033
v 0.05920935 0.01967121 0.00772177
v 0.05859479 0.02268980 0.00806601
v 0.06155537 0.01078932 0.02725727
v 0.06237835 0.01078932 0.02670889
v 0.06334027 0.00317372 0.02633063
v 0.06339639 0.00190520 0.02641468
v 0.06343647 0.00104688 0.02646672
v 0.06347655 0.00019972 0.02651475
v 0.06377314 0.00190520 0.02578025
v 0.06410180 0.00190520 0.02459143
v 0.06400293 0.00317372 0.02459143
v 0.06379451 0.00444225 0.02459143
v 0.06358343 0.00571300 0.02459143
v 0.06346854 0.00640411 0.02459143
v 0.06316125 0.00825004 0.02459143
v 0.06219398 0.01398850 0.02527990
v 0.06028617 0.01586341 0.02731130
v 0.06028617 0.01459489 0.02746541
v 0.05774776 0.02221049 0.02747342
v 0.05901696 0.01967121 0.02730930
v 0.05647855 0.02268980 0.02766755
v 0.06411516 0.00190520 0.02332255
v 0.06411783 0.00190520 0.01063178
v 0.06383727 0.00190520 0.00936290
v 0.06362885 0.00444225 0.00951301
v 0.06352197 0.00571300 0.00977319
v 0.06233025 0.01205561 0.00849430
v 0.06145651 0.01459489 0.00820610
v 0.06128550 0.01586341 0.00833819
v 0.06334829 0.00571300 0.00913875
v 0.06049458 0.01586341 0.00770376
v 0.05845851 0.02048940 0.00742156
v 0.05800427 0.02268980 0.00764171
v 0.05893680 0.02092413 0.00785186
v 0.06155537 0.00952080 0.02733732
v 0.06250127 0.00825004 0.02679495
v 0.06244248 0.00952080 0.02675292
v 0.06348457 -0.00008565 0.02652876
v 0.06359679 -0.00008565 0.02630061
v 0.06375176 -0.00008565 0.02590834
v 0.06407775 0.00063668 0.02459143
v 0.06390941 -0.00008565 0.02531192
v 0.05901696 0.01840269 0.02748542
v 0.05901696 0.01713417 0.02759150
v 0.06028617 0.01332637 0.02753546
v 0.05774776 0.02093973 0.02758549
v 0.05520935 0.02268980 0.02768556
v 0.05647855 0.02221049 0.02768356
v 0.05774776 0.01967121 0.02766155
v 0.06408844 0.00063668 0.02332255
v 0.06408844 0.00063668 0.01063178
v 0.06387200 -0.00008565 0.00936290
v 0.06387200 0.00063668 0.00936290
v 0.06357274 -0.00008565 0.00856235
v 0.06355671 0.00063668 0.00859237
v 0.06350861 0.00190520 0.00866042
v 0.06347388 0.00272562 0.00870645
v 0.06343914 0.00357278 0.00877049
v 0.06369031 0.00315812 0.00926083
v 0.06243179 0.01078932 0.00839023
v 0.06169966 0.01078932 0.00775379
v 0.06146452 0.01211804 0.00778581
v 0.06340173 0.00444225 0.00887857
v 0.06063353 0.01459489 0.00757167
v 0.05973573 0.01676186 0.00741956
v 0.05857341 0.01967121 0.00737753
v 0.05736833 0.02268980 0.00736953
v 0.05776379 0.02268980 0.00751963
v 0.06155537 0.00825004 0.02738936
v 0.06287267 -0.00008565 0.02697707
v 0.06255471 0.00698152 0.02683297
v 0.06028617 0.01078932 0.02763953
v 0.06404569 -0.00008565 0.02459143
v 0.06405103 -0.00008565 0.02404305
v 0.05901696 0.01586341 0.02765754
v 0.05647855 0.02093973 0.02768556
v 0.04125077 0.02268980 0.02768556
v 0.05774776 0.01840269 0.02768556
v 0.06405637 -0.00008565 0.02332255
v 0.06405637 -0.00008565 0.01063178
v 0.06319064 -0.00008565 0.00823612
v 0.06270433 0.00059209 0.00786587
v 0.06271502 0.00571300 0.00821211
v 0.06265891 0.00698152 0.00824813
v 0.06259211 0.00825004 0.00828616
v 0.06251730 0.00952080 0.00832819
v 0.06178249 0.00952080 0.00769375
v 0.06106639 0.01078932 0.00739554
v 0.06098089 0.01173458 0.00743357
v 0.06087668 0.01258175 0.00746759
v 0.06077247 0.01332637 0.00749962
v 0.05985864 0.01586341 0.00737553
v 0.05774776 0.01967121 0.00726745
v 0.05743780 0.02221049 0.00735151
v 0.05707708 0.02268980 0.00732750
v 0.06155537 0.00698152 0.02742739
v 0.06155537 0.00571300 0.02745941
v 0.06155537 0.00063668 0.02756948
v 0.06155537 -0.00008565 0.02757549
v 0.06028617 0.00952080 0.02767355
v 0.05901696 0.01459489 0.02768156
v 0.03998156 0.02268980 0.02759950
v 0.04125077 0.02221049 0.02768556
v 0.05901696 0.01332637 0.02768556
v 0.06277381 -0.00008565 0.00788588
v 0.06238370 -0.00008565 0.00758367
v 0.06219932 0.00013952 0.00745358
v 0.06182524 0.00825004 0.00765172
v 0.06114656 0.00952080 0.00736152
v 0.06000026 0.01459489 0.00735151
v 0.05901696 0.01586341 0.00726745
v 0.05774776 0.01840269 0.00723944
v 0.05647855 0.02221049 0.00724144
v 0.05647855 0.02268980 0.00725945
v 0.06028617 0.00825004 0.02768356
v 0.06028617 0.00571300 0.02768556
v 0.06028617 -0.00008565 0.02768556
v 0.03867227 0.02268980 0.02711117
v 0.03998156 0.02221049 0.02756148
v 0.04632758 -0.00008565 0.02759350
v 0.04687535 -0.00008565 0.02763553
v 0.04759679 -0.00008565 0.02768556
v 0.06219932 -0.00008565 0.00745358
v 0.06159813 -0.00008565 0.00735552
v 0.06165156 0.00059209 0.00736752
v 0.06118931 0.00825004 0.00734951
v 0.06028617 0.00952080 0.00725144
v 0.05901696 0.01459489 0.00724344
v 0.06028617 0.00825004 0.00723944
v 0.05647855 0.02093973 0.00723944
v 0.05520935 0.02268980 0.00723944
v 0.05600026 0.02268980 0.00724144
v 0.03792144 0.02268980 0.02664084
v 0.04505838 -0.00008565 0.02715319
v 0.04560614 -0.00008565 0.02734933
v 0.06100761 -0.00008565 0.00729948
v 0.06028617 -0.00008565 0.00723944
v 0.04125077 0.02268980 0.00723944
v 0.03734963 0.02268980 0.02592435
v 0.04429686 -0.00008565 0.02664885
v 0.04462284 -0.00008565 0.02686499
v 0.04759679 -0.00008565 0.00723944
v 0.04125077 0.02221049 0.00723944
v 0.04077248 0.02268980 0.00724744
v 0.03694081 0.02268980 0.02538197
v 0.04408310 -0.00008565 0.02619653
v 0.04632758 -0.00008565 0.00730548
v 0.03997354 0.02268980 0.00731349
v 0.03682324 0.02268980 0.02459143
v 0.04367161 -0.00008565 0.02459143
v 0.04378116 -0.00008565 0.02513980
v 0.04393079 -0.00008565 0.02586030
v 0.04559278 -0.00008565 0.00741356
v 0.03924141 0.02266751 0.00741155
v 0.03963954 0.02268980 0.00735351
v 0.03682057 0.02268980 0.02332255
v 0.04365558 -0.00008565 0.02332255
v 0.04366092 -0.00008565 0.02387093
v 0.04531756 -0.00008565 0.00758768
v 0.03922004 0.02268980 0.00741956
v 0.03923874 0.02268980 0.00741155
v 0.03685531 0.02268980 0.01063178
v 0.04365558 -0.00008565 0.01190066
v 0.04495952 -0.00008565 0.00782984
v 0.03857608 0.02268980 0.00787187
v 0.03686332 0.02268980 0.01010141
v 0.04366894 -0.00008565 0.01063178
v 0.04463620 -0.00008565 0.00810403
v 0.03780120 0.02268980 0.00848830
v 0.03822071 0.02268980 0.00815207
v 0.03693814 0.02268980 0.00983723
v 0.04388269 -0.00008565 0.00936290
v 0.04425143 -0.00008565 0.00846428
v 0.03765424 0.02268980 0.00867843
v 0.03726680 0.02268980 0.00925883
f 1 2 8
f 1 8 17
f 1 17 27
f 1 27 19
f 1 19 31
f 1 31 46
f 1 46 81
f 1 81 112
f 1 112 147
f 1 147 146
f 1 146 174
f 1 174 193
f 1 193 211
f 1 211 210
f 1 210 217
f 1 217 223
f 1 223 227
f 1 227 234
f 1 234 240
f 1 240 239
f 1 239 244
f 1 244 249
f 1 249 248
f 1 248 253
f 1 253 254
f 1 254 250
f 1 250 245
f 1 245 241
f 1 241 235
f 1 235 228
f 1 228 224
f 1 224 218
f 1 218 212
f 1 212 197
f 1 197 181
f 1 181 156
f 1 156 126
f 1 126 100
f 1 100 64
f 1 64 37
f 1 37 23
f 1 23 11
f 1 11 3
f 1 3 4
f 1 4 5
f 1 5 6
f 1 6 9
f 1 9 2
f 2 7 8
f 2 9 7
f 3 10 4
f 3 11 12
f 3 12 10
f 4 10 13
f 4 13 5
f 5 13 14
f 5 14 15
f 5 15 6
f 6 15 18
f 6 18 9
f 7 16 17
f 7 17 8
f 7 9 16
f 9 18 19
f 9 19 16
f 10 12 13
f 11 20 21
f 11 21 22
f 11 22 12
f 11 23 20
f 12 24 25
f 12 25 14
f 12 14 13
f 12 22 24
f 14 25 26
f 14 26 15
f 15 26 29
f 15 29 18
f 16 19 27
f 16 27 17
f 18 28 19
f 18 29 28
f 19 30 31
f 19 28 30
f 20 23 21
f 21 32 33
f 21 33 34
f 21 34 35
f 21 35 24
f 21 24 22
f 21 23 36
f 21 36 32
f 23 37 36
f 24 35 25
f 25 35 26
f 26 35 62
f 26 62 38
f 26 38 29
f 28 29 39
f 28 39 40
f 28 40 41
f 28 41 42
f 28 42 30
f 29 38 43
f 29 43 44
f 29 44 39
f 30 45 46
f 30 46 31
f 30 42 47
f 30 47 45
f 32 48 33
f 32 36 48
f 33 48 34
f 34 49 50
f 34 50 51
f 34 51 52
f 34 52 53
f 34 53 54
f 34 54 55
f 34 55 56
f 34 56 35
f 34 48 57
f 34 57 58
f 34 58 59
f 34 59 60
f 34 60 61
f 34 61 49
f 35 56 62
f 36 37 63
f 36 63 48
f 37 64 65
f 37 65 66
f 37 66 67
f 37 67 63
f 38 68 43
f 38 62 69
f 38 69 70
f 38 70 71
f 38 71 72
f 38 72 68
f 39 73 74
f 39 74 75
f 39 75 76
f 39 76 77
f 39 77 40
f 39 44 73
f 40 77 41
f 41 47 42
f 41 77 47
f 43 68 44
f 44 68 73
f 45 78 46
f 45 47 79
f 45 79 78
f 46 80 81
f 46 78 80
f 47 77 79
f 48 63 57
f 49 61 82
f 49 82 83
f 49 83 84
f 49 84 50
f 50 84 85
f 50 85 86
f 50 86 87
f 50 87 88
f 50 88 89
f 50 89 90
f 50 90 51
f 51 90 52
f 52 90 53
f 53 90 91
f 53 91 92
f 53 92 93
f 53 93 94
f 53 94 95
f 53 95 55
f 53 55 54
f 55 95 62
f 55 62 56
f 57 63 67
f 57 67 58
f 58 67 66
f 58 66 96
f 58 96 59
f 59 61 60
f 59 96 61
f 61 96 97
f 61 97 82
f 62 95 69
f 64 98 99
f 64 99 65
f 64 100 98
f 65 99 66
f 66 99 96
f 68 72 73
f 69 95 94
f 69 94 70
f 70 94 93
f 70 93 92
f 70 92 91
f 70 91 90
f 70 90 101
f 70 101 102
f 70 102 71
f 71 102 103
f 71 103 104
f 71 104 105
f 71 105 75
f 71 75 72
f 72 75 73
f 73 75 74
f 75 105 77
f 75 77 76
f 77 106 107
f 77 107 108
f 77 108 79
f 77 105 104
f 77 104 109
f 77 109 106
f 78 79 108
f 78 108 110
f 78 110 80
f 80 111 112
f 80 112 113
f 80 113 81
f 80 110 111
f 81 113 112
f 82 114 115
f 82 115 116
f 82 116 83
f 82 97 114
f 83 116 87
f 83 87 86
f 83 86 85
f 83 85 84
f 87 117 88
f 87 116 115
f 87 115 117
f 88 117 118
f 88 118 119
f 88 119 89
f 89 120 101
f 89 101 90
f 89 119 121
f 89 121 120
f 96 99 122
f 96 122 97
f 97 122 123
f 97 123 124
f 97 124 114
f 98 125 122
f 98 122 99
f 98 100 125
f 100 126 127
f 100 127 128
f 100 128 125
f 101 120 129
f 101 129 102
f 102 129 130
f 102 130 131
f 102 131 132
f 102 132 103
f 103 132 133
f 103 133 134
f 103 134 135
f 103 135 136
f 103 136 137
f 103 137 138
f 103 138 104
f 104 138 109
f 106 139 140
f 106 140 141
f 106 141 107
f 106 109 142
f 106 142 139
f 107 141 143
f 107 143 110
f 107 110 108
f 109 138 142
f 110 143 144
f 110 144 111
f 111 145 146
f 111 146 147
f 111 147 112
f 111 144 145
f 114 148 149
f 114 149 150
f 114 150 115
f 114 124 151
f 114 151 148
f 115 150 117
f 117 149 178
f 117 178 196
f 117 196 201
f 117 201 200
f 117 200 199
f 117 199 214
f 117 214 213
f 117 213 220
f 117 220 219
f 117 219 225
f 117 225 231
f 117 231 230
f 117 230 229
f 117 229 237
f 117 237 236
f 117 236 242
f 117 242 246
f 117 246 251
f 117 251 252
f 117 252 247
f 117 247 243
f 117 243 238
f 117 238 232
f 117 232 226
f 117 226 221
f 117 221 216
f 117 216 215
f 117 215 203
f 117 203 202
f 117 202 185
f 117 185 184
f 117 184 160
f 117 160 133
f 117 133 131
f 117 131 159
f 117 159 158
f 117 158 153
f 117 153 152
f 117 152 121
f 117 121 119
f 117 119 118
f 117 150 149
f 120 121 152
f 120 152 153
f 120 153 129
f 122 125 123
f 123 125 128
f 123 128 154
f 123 154 124
f 124 154 151
f 126 155 127
f 126 156 182
f 126 182 201
f 126 201 196
f 126 196 195
f 126 195 183
f 126 183 157
f 126 157 155
f 127 155 157
f 127 157 128
f 128 157 180
f 128 180 154
f 129 153 158
f 129 158 159
f 129 159 130
f 130 159 131
f 131 133 132
f 133 160 134
f 134 160 161
f 134 161 162
f 134 162 163
f 134 163 164
f 134 164 135
f 135 164 165
f 135 165 136
f 136 165 137
f 137 142 138
f 137 165 139
f 137 139 142
f 139 165 140
f 140 165 166
f 140 166 167
f 140 167 168
f 140 168 169
f 140 169 143
f 140 143 141
f 143 169 170
f 143 170 171
f 143 171 144
f 144 171 145
f 145 172 173
f 145 173 146
f 145 171 172
f 146 173 174
f 148 175 149
f 148 151 175
f 149 175 176
f 149 176 177
f 149 177 178
f 151 154 179
f 151 179 175
f 154 180 179
f 156 181 182
f 157 183 180
f 160 184 161
f 161 163 162
f 161 184 185
f 161 185 186
f 161 186 166
f 161 166 163
f 163 166 164
f 164 166 165
f 166 186 187
f 166 187 188
f 166 188 167
f 167 188 189
f 167 189 171
f 167 171 168
f 168 171 169
f 169 171 170
f 171 189 190
f 171 190 172
f 172 191 192
f 172 192 193
f 172 193 174
f 172 174 173
f 172 190 191
f 175 179 176
f 176 179 177
f 177 179 178
f 178 179 194
f 178 194 195
f 178 195 196
f 179 180 194
f 180 183 194
f 181 197 198
f 181 198 199
f 181 199 200
f 181 200 182
f 182 200 201
f 183 195 194
f 185 202 186
f 186 202 203
f 186 203 204
f 186 204 205
f 186 205 188
f 186 188 187
f 188 205 206
f 188 206 189
f 189 206 190
f 190 207 191
f 190 206 207
f 191 207 208
f 191 208 216
f 191 216 221
f 191 221 222
f 191 222 217
f 191 217 210
f 191 210 209
f 191 209 192
f 192 209 210
f 192 210 211
f 192 211 193
f 197 212 213
f 197 213 198
f 198 213 214
f 198 214 199
f 203 215 208
f 203 208 205
f 203 205 204
f 205 208 206
f 206 208 207
f 208 215 216
f 212 218 219
f 212 219 220
f 212 220 213
f 217 222 223
f 218 224 219
f 219 224 225
f 221 226 223
f 221 223 222
f 223 226 227
f 224 228 229
f 224 229 230
f 224 230 231
f 224 231 225
f 226 232 233
f 226 233 234
f 226 234 227
f 228 235 236
f 228 236 237
f 228 237 229
f 232 238 239
f 232 239 233
f 233 239 240
f 233 240 234
f 235 241 242
f 235 242 236
f 238 243 239
f 239 243 244
f 241 245 246
f 241 246 242
f 243 247 248
f 243 248 249
f 243 249 244
f 245 250 251
f 245 251 246
f 247 252 248
f 248 252 253
f 250 254 252
f 250 252 251
f 252 254 253

