# https://github.com/mikedh/trimesh
v -0.00001713 0.01651488 0.00038269
v -0.00001713 0.01651488 -0.01471767
v -0.00063530 0.01651488 0.00038872
v -0.00001713 0.01586492 0.00066185
v -0.00001713 0.00548167 -0.01471767
v -0.00935600 0.01651488 -0.01471767
v -0.00063530 0.01586492 0.00066487
v -0.01581288 0.01651488 0.00031780
v -0.00001713 0.01459571 0.00069806
v -0.00001713 0.00547036 -0.01413521
v -0.00548221 -0.00000259 -0.01471767
v -0.00954451 0.01640979 -0.01471767
v -0.00953942 0.01651488 -0.01465128
v -0.00444286 0.01459571 0.00069354
v -0.00317424 0.01459571 0.00069806
v -0.01632746 0.01651488 0.00029215
v -0.01332659 0.00825129 0.00067996
v -0.00825042 0.01332650 0.00067996
v -0.00001713 0.00825129 0.00069806
v -0.00001713 0.00546874 -0.01348333
v -0.00546863 -0.00000259 -0.01348333
v -0.01735832 -0.00000259 -0.01471767
v -0.00991134 0.01619637 -0.01471767
v -0.00988756 0.01651488 -0.01452000
v -0.00698180 0.01332650 0.00069806
v -0.01685903 0.01651488 0.00015936
v -0.01586383 0.00063605 0.00066034
v -0.01459521 0.00444367 0.00069052
v -0.01332659 0.00698209 0.00069806
v -0.00001713 0.00698209 0.00066788
v -0.00825042 -0.00000259 0.00069806
v -0.00761865 -0.00000259 0.00069052
v -0.00001713 0.00546227 -0.00967617
v -0.00546523 -0.00000259 -0.01157598
v -0.01736681 -0.00000259 -0.01348333
v -0.01735832 0.00067001 -0.01471767
v -0.01023911 0.01651488 -0.01438721
v -0.01059915 0.01570485 -0.01471767
v -0.01139564 0.01651488 -0.01389377
v -0.01685903 -0.00000259 0.00023481
v -0.01636652 -0.00000259 0.00044757
v -0.01706961 0.01651488 -0.00026467
v -0.01586383 -0.00000259 0.00066185
v -0.01459521 0.00317447 0.00069806
v -0.00001713 0.00592145 0.00023933
v -0.00698180 -0.00000259 0.00066788
v -0.00644854 -0.00000259 0.00045512
v -0.01459521 -0.00000259 0.00069806
v -0.00001713 0.00546227 -0.00525184
v -0.00546353 -0.00000259 -0.01030693
v -0.01736681 -0.00000259 -0.00459996
v -0.01736681 0.00698209 -0.01348333
v -0.01734134 0.00320842 -0.01471767
v -0.01129714 0.01518909 -0.01471767
v -0.01278654 0.01651488 -0.01329471
v -0.01212251 0.01651488 -0.01358141
v -0.01729209 0.01651488 -0.00079281
v -0.01705603 -0.00000259 -0.00028277
v -0.01523207 -0.00000259 0.00068147
v -0.00001713 0.00569671 -0.00028277
v -0.00592207 -0.00000259 0.00023933
v -0.00001713 0.00546551 -0.00206186
v -0.00546523 -0.00000259 -0.00206186
v -0.00546353 -0.00000259 -0.00586902
v -0.01736681 0.00571288 -0.00333091
v -0.01736002 -0.00000259 -0.00333091
v -0.01736681 0.01078809 -0.01221428
v -0.01732945 0.00825129 -0.01348333
v -0.01730737 0.00447763 -0.01471767
v -0.01205288 0.01462320 -0.01471767
v -0.01388363 0.01651488 -0.01281636
v -0.01735153 0.01651488 -0.00141149
v -0.01723265 -0.00000259 -0.00079281
v -0.00001713 0.00548006 -0.00079281
v -0.00548051 -0.00000259 -0.00079281
v -0.00001713 0.00546712 -0.00144469
v -0.01736681 0.01332650 -0.00206186
v -0.01730058 -0.00000259 -0.00206186
v -0.01736681 0.01586492 -0.00967617
v -0.01734134 0.01651488 -0.00967617
v -0.01731077 0.01459571 -0.01094522
v -0.01729379 0.01205730 -0.01221428
v -0.01720718 0.00951888 -0.01348333
v -0.01721057 0.00574683 -0.01471767
v -0.01206986 0.01461026 -0.01471767
v -0.01396685 0.01651488 -0.01277863
v -0.01736681 0.01651488 -0.00206186
v -0.01736681 0.01651488 -0.00902580
v -0.01713245 0.01651488 -0.01043066
v -0.01693375 0.01651488 -0.01093617
v -0.01687771 0.01459571 -0.01201811
v -0.01686073 0.01205730 -0.01324491
v -0.01677411 0.00951888 -0.01437212
v -0.01689469 0.00825129 -0.01457885
v -0.01690997 0.00763852 -0.01471767
v -0.01284088 0.01397970 -0.01471767
v -0.01511149 0.01651488 -0.01224295
v -0.01650748 0.01651488 -0.01155485
v -0.01671467 0.01564988 -0.01177516
v -0.01669259 0.01304841 -0.01301404
v -0.01662466 0.01041784 -0.01422122
v -0.01657881 0.00899827 -0.01471767
v -0.01681487 0.00811548 -0.01471767
v -0.01343189 0.01343321 -0.01471767
v -0.01648371 0.01651488 -0.01157447
v -0.01649559 0.01649548 -0.01157749
v -0.01644295 0.01389401 -0.01281485
v -0.01639030 0.01126344 -0.01405674
v -0.01616443 0.00991501 -0.01471767
v -0.01396515 0.01282529 -0.01471767
v -0.01461220 0.01204275 -0.01471767
v -0.01592667 0.01215754 -0.01391489
v -0.01520999 0.01130224 -0.01471767
v -0.01572797 0.01061832 -0.01471767
f 1 2 6
f 1 6 13
f 1 13 24
f 1 24 37
f 1 37 39
f 1 39 56
f 1 56 55
f 1 55 71
f 1 71 86
f 1 86 97
f 1 97 105
f 1 105 98
f 1 98 90
f 1 90 89
f 1 89 80
f 1 80 88
f 1 88 87
f 1 87 72
f 1 72 57
f 1 57 42
f 1 42 26
f 1 26 16
f 1 16 8
f 1 8 3
f 1 3 4
f 1 4 9
f 1 9 19
f 1 19 30
f 1 30 45
f 1 45 60
f 1 60 74
f 1 74 76
f 1 76 62
f 1 62 49
f 1 49 33
f 1 33 20
f 1 20 10
f 1 10 5
f 1 5 2
f 2 5 11
f 2 11 22
f 2 22 36
f 2 36 53
f 2 53 69
f 2 69 84
f 2 84 95
f 2 95 103
f 2 103 102
f 2 102 109
f 2 109 114
f 2 114 113
f 2 113 111
f 2 111 110
f 2 110 104
f 2 104 96
f 2 96 85
f 2 85 70
f 2 70 54
f 2 54 38
f 2 38 23
f 2 23 12
f 2 12 6
f 3 7 4
f 3 8 7
f 4 7 9
f 5 10 11
f 6 12 13
f 7 14 15
f 7 15 9
f 7 8 14
f 8 16 17
f 8 17 18
f 8 18 14
f 9 15 25
f 9 25 29
f 9 29 44
f 9 44 48
f 9 48 31
f 9 31 19
f 10 20 21
f 10 21 11
f 11 21 34
f 11 34 50
f 11 50 64
f 11 64 63
f 11 63 75
f 11 75 61
f 11 61 47
f 11 47 46
f 11 46 32
f 11 32 31
f 11 31 48
f 11 48 59
f 11 59 43
f 11 43 41
f 11 41 40
f 11 40 58
f 11 58 73
f 11 73 78
f 11 78 66
f 11 66 51
f 11 51 35
f 11 35 22
f 12 23 24
f 12 24 13
f 14 18 25
f 14 25 15
f 16 26 27
f 16 27 28
f 16 28 17
f 17 28 29
f 17 29 25
f 17 25 18
f 19 31 32
f 19 32 30
f 20 33 34
f 20 34 21
f 22 35 52
f 22 52 36
f 23 37 24
f 23 38 39
f 23 39 37
f 26 40 41
f 26 41 27
f 26 42 40
f 27 41 43
f 27 43 44
f 27 44 28
f 28 44 29
f 30 32 46
f 30 46 47
f 30 47 45
f 33 49 64
f 33 64 50
f 33 50 34
f 35 51 65
f 35 65 77
f 35 77 87
f 35 87 88
f 35 88 79
f 35 79 67
f 35 67 52
f 36 52 53
f 38 54 55
f 38 55 56
f 38 56 39
f 40 42 57
f 40 57 58
f 43 59 44
f 44 59 48
f 45 47 61
f 45 61 60
f 49 62 63
f 49 63 64
f 51 66 65
f 52 67 68
f 52 68 69
f 52 69 53
f 54 70 71
f 54 71 55
f 57 72 73
f 57 73 58
f 60 61 75
f 60 75 74
f 62 76 63
f 63 76 75
f 65 66 77
f 66 78 77
f 67 79 80
f 67 80 81
f 67 81 82
f 67 82 68
f 68 82 83
f 68 83 84
f 68 84 69
f 70 85 71
f 71 85 86
f 72 78 73
f 72 87 77
f 72 77 78
f 74 75 76
f 79 88 80
f 80 89 81
f 81 89 90
f 81 90 91
f 81 91 82
f 82 91 92
f 82 92 83
f 83 92 93
f 83 93 94
f 83 94 84
f 84 94 95
f 85 96 86
f 86 96 97
f 90 98 99
f 90 99 91
f 91 99 92
f 92 99 100
f 92 100 101
f 92 101 93
f 93 101 102
f 93 102 103
f 93 103 94
f 94 103 95
f 96 104 105
f 96 105 97
f 98 105 106
f 98 106 99
f 99 106 100
f 100 106 107
f 100 107 108
f 100 108 101
f 101 108 109
f 101 109 102
f 104 110 106
f 104 106 105
f 106 111 107
f 106 110 111
f 107 111 112
f 107 112 108
f 108 112 113
f 108 113 114
f 108 114 109
f 111 113 112
