# https://github.com/mikedh/trimesh
v -0.02733623 0.03404926 0.02422354
v -0.02733623 0.03405217 0.02459116
v -0.02733623 0.03407547 0.01063127
v -0.00445908 0.04318308 0.01063127
v -0.02733623 0.03431139 0.02586075
v -0.00445908 0.04339861 0.02459116
v -0.00445908 0.04360540 0.02584370
v -0.02733623 0.03414246 0.01015754
v -0.00445908 0.04337822 0.00832895
v -0.02733623 0.03442789 0.02610709
v -0.00445908 0.04361123 0.02586075
v -0.02733623 0.03427935 0.00936357
v -0.02733623 0.03489973 0.00832895
v -0.00445908 0.06315166 0.00832895
v -0.02733623 0.03493759 0.02678547
v -0.00445908 0.04410928 0.02679305
v -0.00445908 0.04411801 0.02680632
v -0.02733623 0.05661586 0.00832895
v -0.00556084 0.06302060 0.00832895
v -0.00445908 0.06351282 0.00864161
v -0.02733623 0.03495216 0.02679495
v -0.00445908 0.04505877 0.02736532
v -0.02733623 0.05737021 0.00935978
v -0.02733399 0.05668284 0.00832895
v -0.00904750 0.06250798 0.00832895
v -0.00518239 0.06347496 0.00869466
v -0.00445908 0.06368466 0.00936357
v -0.02733623 0.03612592 0.02735585
v -0.00445908 0.04631118 0.02764577
v -0.02733623 0.03617252 0.02737101
v -0.02733623 0.05737312 0.00936736
v -0.02519990 0.05829350 0.00910018
v -0.02693539 0.05724497 0.00855444
v -0.02710334 0.05691294 0.00832895
v -0.00952000 0.06242061 0.00832895
v -0.00952000 0.06246721 0.00836874
v -0.00602662 0.06340506 0.00908312
v -0.00564817 0.06352447 0.00944884
v -0.01078971 0.06234779 0.00850138
v -0.01176382 0.06225459 0.00862645
v -0.01260806 0.06217304 0.00879320
v -0.01404796 0.06220508 0.00994152
v -0.00640731 0.06346913 0.00992826
v -0.00445908 0.06380116 0.01063127
v -0.00445908 0.04632865 0.02764767
v -0.02733623 0.03739580 0.02762303
v -0.02733623 0.05755079 0.01063127
v -0.02540815 0.05839252 0.00994721
v -0.02171324 0.05971192 0.00862645
v -0.02435342 0.05848864 0.00857528
v -0.02476546 0.05857019 0.00946021
v -0.02257090 0.05952843 0.00936357
v -0.02094066 0.06025365 0.00936357
v -0.02601726 0.05746341 0.00833842
v -0.02601726 0.05745176 0.00832895
v -0.01586630 0.06112743 0.00832895
v -0.01586630 0.06120024 0.00838958
v -0.01713377 0.06106918 0.00852791
v -0.01803175 0.06097597 0.00864919
v -0.01887822 0.06088859 0.00882352
v -0.01713377 0.06146237 0.00936357
v -0.01713377 0.06170994 0.01063127
v -0.00643866 0.06347496 0.01063127
v -0.00571311 0.06360020 0.02332156
v -0.00445908 0.06380116 0.02333861
v -0.01713377 0.06175945 0.02332156
v -0.01421143 0.06223129 0.02332156
v -0.00445908 0.04758106 0.02768367
v -0.00571311 0.04632865 0.02767040
v -0.02601726 0.03871229 0.02767798
v -0.02733623 0.03744241 0.02762682
v -0.02733623 0.05756244 0.01197288
v -0.02272990 0.05960124 0.01063127
v -0.02094066 0.06039637 0.01063127
v -0.02003149 0.06079830 0.01063127
v -0.01939775 0.06107791 0.01063127
v -0.01927459 0.06102549 0.00967055
v -0.01968663 0.06074588 0.00929346
v -0.02094066 0.05988376 0.00843317
v -0.02348008 0.05868087 0.00836305
v -0.02348008 0.05864009 0.00832895
v -0.01680459 0.06090898 0.00832895
v -0.01832511 0.06055074 0.00832895
v -0.01967319 0.06018667 0.00832895
v -0.02028005 0.06001191 0.00832895
v -0.01843259 0.06115364 0.00929346
v -0.01840348 0.06142159 0.01063127
v -0.00709255 0.06337593 0.02459116
v -0.00645881 0.06347787 0.02459116
v -0.00445908 0.06379825 0.02460442
v -0.01840348 0.06142159 0.02332156
v -0.01713377 0.06174780 0.02459116
v -0.01586630 0.06195751 0.02459116
v -0.01483844 0.06212644 0.02459116
v -0.02733623 0.03866277 0.02768367
v -0.00698282 0.04632865 0.02768177
v -0.00445908 0.06028569 0.02768367
v -0.02733623 0.05760322 0.01704558
v -0.02543727 0.05840709 0.01190087
v -0.02611579 0.05814495 0.01697736
v -0.02348008 0.05929542 0.01444006
v -0.02003373 0.06080122 0.01190087
v -0.01939999 0.06107791 0.01190087
v -0.02733623 0.05761778 0.01951466
v -0.02275901 0.05961289 0.01444006
v -0.02095186 0.05974687 0.00832895
v -0.00640955 0.06346913 0.02528091
v -0.00571311 0.06352447 0.02557652
v -0.00445908 0.06362641 0.02584370
v -0.01840348 0.06140703 0.02459116
v -0.01939551 0.06107500 0.01317047
v -0.01935297 0.06105753 0.02205386
v -0.01934625 0.06105461 0.02332156
v -0.01922308 0.06099927 0.02543629
v -0.01840348 0.06115655 0.02569969
v -0.01411290 0.06221382 0.02528849
v -0.02733623 0.05393920 0.02768367
v -0.00445908 0.06155557 0.02753966
v -0.00825029 0.06028569 0.02768367
v -0.02733623 0.05761196 0.01824507
v -0.02733623 0.05761778 0.01958099
v -0.02733623 0.05761487 0.02085058
v -0.02733623 0.05761196 0.02205386
v -0.00571311 0.06339341 0.02621131
v -0.00445908 0.06345457 0.02647850
v -0.01933057 0.06104588 0.02459116
v -0.02209840 0.05987794 0.02078426
v -0.02348008 0.05928668 0.01951466
v -0.02733623 0.05760613 0.02338978
v -0.02272094 0.05959833 0.02332156
v -0.02733623 0.05759157 0.02459116
v -0.02094066 0.06018958 0.02586075
v -0.02166397 0.05968862 0.02654482
v -0.01965752 0.06067889 0.02585886
v -0.02541487 0.05839544 0.02527143
v -0.01840348 0.06084491 0.02633448
v -0.01725694 0.06129927 0.02598771
v -0.01586630 0.06163130 0.02586075
v -0.01149510 0.06220508 0.02651261
v -0.02221037 0.05647897 0.02768367
v -0.02601726 0.05520908 0.02766282
v -0.02733623 0.05515957 0.02756618
v -0.00571311 0.06155557 0.02752070
v -0.00952000 0.06028569 0.02767230
v -0.00445908 0.06281963 0.02694465
v -0.01459659 0.05901581 0.02768177
v -0.01840348 0.05774885 0.02768367
v -0.01078971 0.06227498 0.02659409
v -0.00952000 0.06240313 0.02672484
v -0.00825029 0.06252546 0.02682906
v -0.00445908 0.06344583 0.02648797
v -0.02733623 0.05758574 0.02464042
v -0.02188119 0.05978182 0.02586075
v -0.02733623 0.05734400 0.02580201
v -0.02733623 0.05729740 0.02590813
v -0.02733623 0.05707313 0.02638375
v -0.02425265 0.05844495 0.02656756
v -0.02348008 0.05862553 0.02672863
v -0.02094066 0.05984590 0.02669073
v -0.01776303 0.06092063 0.02649366
v -0.01691880 0.06100801 0.02659409
v -0.02348008 0.05647897 0.02764388
v -0.01967095 0.05774885 0.02766282
v -0.02728697 0.05520908 0.02756429
v -0.02733623 0.05520908 0.02755481
v -0.00698282 0.06155557 0.02749039
v -0.01078971 0.06028569 0.02762871
v -0.01586630 0.05901581 0.02765524
v -0.00571311 0.06275847 0.02692570
v -0.01586630 0.06111578 0.02670400
v -0.01459659 0.06124684 0.02681390
v -0.00698282 0.06263905 0.02689538
v -0.01078971 0.06155557 0.02713414
v -0.00952000 0.06155557 0.02730847
v -0.02733623 0.05651100 0.02692002
v -0.02682790 0.05719837 0.02658651
v -0.02213647 0.05904494 0.02685369
v -0.02601726 0.05738769 0.02675326
v -0.02470500 0.05778962 0.02689728
v -0.02348008 0.05774885 0.02728194
v -0.01967095 0.06005851 0.02685748
v -0.02094066 0.05901581 0.02720046
v -0.02474755 0.05647897 0.02753776
v -0.02094066 0.05774885 0.02759840
v -0.02221037 0.05774885 0.02749986
v -0.01713377 0.05901581 0.02759840
v -0.02601726 0.05647897 0.02732553
v -0.02733623 0.05646149 0.02695033
v -0.00825029 0.06155557 0.02742406
v -0.01205942 0.06028569 0.02756239
v -0.01586630 0.06028569 0.02726868
v -0.01459659 0.06028569 0.02740511
v -0.01967095 0.05901581 0.02743164
v -0.01840348 0.05901581 0.02753018
v -0.01332689 0.06028569 0.02749228
f 1 2 5
f 1 5 10
f 1 10 15
f 1 15 21
f 1 21 28
f 1 28 30
f 1 30 46
f 1 46 71
f 1 71 95
f 1 95 117
f 1 117 142
f 1 142 165
f 1 165 188
f 1 188 175
f 1 175 156
f 1 156 155
f 1 155 154
f 1 154 152
f 1 152 131
f 1 131 129
f 1 129 123
f 1 123 122
f 1 122 121
f 1 121 104
f 1 104 120
f 1 120 98
f 1 98 72
f 1 72 47
f 1 47 31
f 1 31 23
f 1 23 18
f 1 18 13
f 1 13 12
f 1 12 8
f 1 8 3
f 1 3 4
f 1 4 2
f 2 4 6
f 2 6 7
f 2 7 5
f 3 8 9
f 3 9 4
f 4 9 14
f 4 14 20
f 4 20 27
f 4 27 44
f 4 44 65
f 4 65 90
f 4 90 109
f 4 109 125
f 4 125 151
f 4 151 145
f 4 145 118
f 4 118 97
f 4 97 68
f 4 68 45
f 4 45 29
f 4 29 22
f 4 22 17
f 4 17 16
f 4 16 11
f 4 11 7
f 4 7 6
f 5 7 11
f 5 11 10
f 8 12 9
f 9 12 13
f 9 13 18
f 9 18 24
f 9 24 34
f 9 34 55
f 9 55 81
f 9 81 106
f 9 106 85
f 9 85 84
f 9 84 83
f 9 83 82
f 9 82 56
f 9 56 35
f 9 35 25
f 9 25 19
f 9 19 14
f 10 11 16
f 10 16 17
f 10 17 15
f 14 19 20
f 15 17 21
f 17 22 21
f 18 23 24
f 19 25 26
f 19 26 20
f 20 26 27
f 21 22 28
f 22 29 30
f 22 30 28
f 23 31 32
f 23 32 33
f 23 33 24
f 24 33 34
f 25 35 36
f 25 36 26
f 26 37 38
f 26 38 27
f 26 36 39
f 26 39 40
f 26 40 41
f 26 41 42
f 26 42 37
f 27 38 43
f 27 43 44
f 29 45 46
f 29 46 30
f 31 47 48
f 31 48 32
f 32 49 50
f 32 50 33
f 32 48 51
f 32 51 52
f 32 52 53
f 32 53 49
f 33 50 54
f 33 54 34
f 34 54 55
f 35 56 57
f 35 57 36
f 36 57 39
f 37 42 38
f 38 42 43
f 39 57 58
f 39 58 40
f 40 58 59
f 40 59 41
f 41 59 60
f 41 60 61
f 41 61 42
f 42 61 62
f 42 62 43
f 43 63 44
f 43 62 63
f 44 64 65
f 44 63 66
f 44 66 67
f 44 67 64
f 45 68 69
f 45 69 70
f 45 70 71
f 45 71 46
f 47 72 73
f 47 73 48
f 48 52 51
f 48 73 74
f 48 74 75
f 48 75 76
f 48 76 77
f 48 77 53
f 48 53 52
f 49 53 78
f 49 78 60
f 49 60 79
f 49 79 50
f 50 79 80
f 50 80 54
f 53 77 78
f 54 80 81
f 54 81 55
f 56 82 57
f 57 82 58
f 58 82 83
f 58 83 59
f 59 83 84
f 59 84 85
f 59 85 60
f 60 78 77
f 60 77 86
f 60 86 61
f 60 85 79
f 61 86 87
f 61 87 62
f 62 87 66
f 62 66 63
f 64 88 89
f 64 89 65
f 64 67 88
f 65 89 90
f 66 87 91
f 66 91 92
f 66 92 93
f 66 93 94
f 66 94 67
f 67 94 88
f 68 95 96
f 68 96 69
f 68 97 119
f 68 119 147
f 68 147 140
f 68 140 117
f 68 117 95
f 69 96 70
f 70 95 71
f 70 96 95
f 72 98 99
f 72 99 73
f 73 99 98
f 73 98 74
f 74 98 100
f 74 100 75
f 75 100 101
f 75 101 76
f 76 102 103
f 76 103 87
f 76 87 77
f 76 101 100
f 76 100 104
f 76 104 105
f 76 105 102
f 77 87 86
f 79 85 106
f 79 106 81
f 79 81 80
f 87 103 91
f 88 107 89
f 88 94 107
f 89 107 90
f 90 107 108
f 90 108 109
f 91 110 92
f 91 103 111
f 91 111 112
f 91 112 113
f 91 113 110
f 92 110 114
f 92 114 115
f 92 115 116
f 92 116 93
f 93 116 94
f 94 116 107
f 97 118 119
f 98 120 100
f 100 120 104
f 102 105 104
f 102 104 103
f 103 104 121
f 103 121 122
f 103 122 123
f 103 123 111
f 107 116 108
f 108 116 124
f 108 124 109
f 109 124 125
f 110 113 126
f 110 126 114
f 111 127 112
f 111 123 128
f 111 128 127
f 112 127 123
f 112 123 129
f 112 129 130
f 112 130 113
f 113 130 129
f 113 129 131
f 113 131 126
f 114 132 133
f 114 133 134
f 114 134 115
f 114 126 135
f 114 135 132
f 115 134 136
f 115 136 137
f 115 137 116
f 116 137 138
f 116 138 139
f 116 139 124
f 117 140 141
f 117 141 142
f 118 143 144
f 118 144 119
f 118 145 143
f 119 144 146
f 119 146 147
f 123 127 128
f 124 139 125
f 125 139 148
f 125 148 149
f 125 149 150
f 125 150 151
f 126 131 135
f 131 152 135
f 132 135 153
f 132 153 133
f 133 153 135
f 133 135 154
f 133 154 155
f 133 155 156
f 133 156 157
f 133 157 158
f 133 158 159
f 133 159 136
f 133 136 134
f 135 152 154
f 136 159 160
f 136 160 137
f 137 139 138
f 137 160 139
f 139 160 161
f 139 161 148
f 140 162 141
f 140 147 163
f 140 163 162
f 141 164 142
f 141 162 164
f 142 164 165
f 143 166 144
f 143 145 166
f 144 166 167
f 144 167 168
f 144 168 146
f 145 151 169
f 145 169 166
f 146 168 163
f 146 163 147
f 148 161 170
f 148 170 149
f 149 170 171
f 149 171 150
f 150 172 151
f 150 171 173
f 150 173 174
f 150 174 172
f 151 172 169
f 156 175 176
f 156 176 157
f 157 176 158
f 158 177 159
f 158 176 178
f 158 178 175
f 158 175 179
f 158 179 180
f 158 180 177
f 159 181 160
f 159 177 180
f 159 180 182
f 159 182 181
f 160 181 161
f 161 181 170
f 162 183 164
f 162 163 184
f 162 184 185
f 162 185 183
f 163 168 186
f 163 186 184
f 164 183 187
f 164 187 165
f 165 187 188
f 166 189 190
f 166 190 167
f 166 169 189
f 167 190 186
f 167 186 168
f 169 172 189
f 170 181 171
f 171 181 191
f 171 191 174
f 171 174 173
f 172 174 189
f 174 191 192
f 174 192 189
f 175 188 187
f 175 187 180
f 175 180 179
f 175 178 176
f 180 185 193
f 180 193 182
f 180 187 185
f 181 182 193
f 181 193 191
f 183 185 187
f 184 186 194
f 184 194 185
f 185 194 193
f 186 190 194
f 189 192 195
f 189 195 190
f 190 195 194
f 191 193 192
f 192 193 194
f 192 194 195

