# https://github.com/mikedh/trimesh
v -0.00002320 0.00786595 -0.01646343
v 0.00952198 -0.00002947 -0.02109868
v 0.00909696 -0.00002947 -0.01646343
v -0.00002320 0.01746181 -0.01646343
v -0.00002320 0.00880531 -0.02197641
v 0.00984371 -0.00002947 -0.02226350
v 0.01727564 -0.00002947 -0.01646343
v 0.00035610 0.01747381 -0.01646343
v 0.00063550 0.01725440 -0.02109868
v -0.00002320 0.01723040 -0.02109868
v -0.00002320 0.00951840 -0.02257083
v 0.01078688 -0.00002947 -0.02285793
v 0.01724516 -0.00002947 -0.02043470
v 0.01725701 0.00063563 -0.01646343
v 0.00063550 0.01748238 -0.01646343
v 0.00190548 0.01735896 -0.01646343
v 0.00317377 0.01723040 -0.01646343
v 0.00446576 0.01695271 -0.01646343
v 0.00190548 0.01697842 -0.02109868
v 0.00285881 0.01658416 -0.02195554
v 0.00190548 0.01671273 -0.02217118
v 0.00063550 0.01686529 -0.02229512
v -0.00002320 0.01685843 -0.02229386
v -0.00002320 0.01078688 -0.02292306
v 0.01145066 -0.00002947 -0.02289208
v 0.01723161 -0.00002947 -0.02109868
v 0.01720790 0.00063563 -0.02109868
v 0.01692173 0.00320858 -0.01646343
v 0.00370547 0.01647103 -0.02141803
v 0.00702435 0.01602706 -0.01646343
v 0.00788455 0.01533454 -0.02109868
v 0.00777279 0.01528483 -0.02188851
v 0.00698202 0.01561566 -0.02109868
v 0.00698202 0.01539625 -0.02210351
v 0.00571204 0.01556767 -0.02227678
v 0.00190548 0.01586422 -0.02276623
v 0.00063550 0.01586422 -0.02288955
v -0.00002320 0.01586422 -0.02288828
v -0.00002320 0.01459574 -0.02292306
v 0.01205686 -0.00002947 -0.02292306
v 0.01706397 -0.00002947 -0.02166781
v 0.01685231 0.00063563 -0.02229196
v 0.01668975 0.00190411 -0.02215284
v 0.01656953 0.00280232 -0.02193531
v 0.01658138 0.00526900 -0.01646343
v 0.01675748 0.00444278 -0.01646343
v 0.00735455 0.01588479 -0.01646343
v 0.00851954 0.01505685 -0.02109868
v 0.00920872 0.01426491 -0.02211174
v 0.00821813 0.01465059 -0.02229133
v 0.00698202 0.01459574 -0.02269857
v 0.00571204 0.01459574 -0.02287121
v 0.00444375 0.01459574 -0.02291358
v 0.00317377 0.01459574 -0.02292180
v 0.00190548 0.01459574 -0.02292306
v 0.01459513 -0.00002947 -0.02292306
v 0.01685908 -0.00002947 -0.02229386
v 0.01586342 0.00063563 -0.02288702
v 0.01586342 0.00190411 -0.02274790
v 0.01552814 0.00571297 -0.02226414
v 0.01638834 -0.00002947 -0.02257716
v 0.01537405 0.00698144 -0.02207632
v 0.01526907 0.00774253 -0.02185815
v 0.01532325 0.00785909 -0.02109868
v 0.01603444 0.00702087 -0.01646343
v 0.00812669 0.01554538 -0.01646343
v 0.00961680 0.01463174 -0.01646343
v 0.00940683 0.01442261 -0.02109868
v 0.01004183 0.01385179 -0.02109868
v 0.01047870 0.01301700 -0.02211174
v 0.00958633 0.01339411 -0.02242539
v 0.00825030 0.01332555 -0.02290915
v 0.00698202 0.01332555 -0.02292306
v 0.01525891 -0.00002947 -0.02290535
v 0.01459513 0.00190411 -0.02292306
v 0.01586342 -0.00002947 -0.02288828
v 0.01459513 0.00317430 -0.02292116
v 0.01459513 0.00444278 -0.02290535
v 0.01459513 0.00571297 -0.02285856
v 0.01459513 0.00698144 -0.02267075
v 0.01465101 0.00820021 -0.02227299
v 0.01426493 0.00920814 -0.02211174
v 0.01505571 0.00849333 -0.02109868
v 0.01589051 0.00735685 -0.01646343
v 0.01173852 0.01302386 -0.01646343
v 0.01303898 0.01175881 -0.01646343
v 0.01067851 0.01321756 -0.02109868
v 0.01131350 0.01258332 -0.02109868
v 0.01301697 0.01047833 -0.02211174
v 0.01085631 0.01212564 -0.02242539
v 0.00951859 0.01205707 -0.02290915
v 0.00825030 0.01205707 -0.02292306
v 0.01332515 0.00698144 -0.02292306
v 0.01332515 0.00824992 -0.02290915
v 0.01339457 0.00958697 -0.02242539
v 0.01385177 0.01004293 -0.02109868
v 0.01442072 0.00940698 -0.02109868
v 0.01555016 0.00813165 -0.01646343
v 0.01462730 0.00961782 -0.01646343
v 0.01321678 0.01067889 -0.02109868
v 0.01258348 0.01131312 -0.02109868
f 1 2 3
f 1 3 7
f 1 7 14
f 1 14 28
f 1 28 46
f 1 46 45
f 1 45 65
f 1 65 84
f 1 84 98
f 1 98 99
f 1 99 86
f 1 86 85
f 1 85 67
f 1 67 66
f 1 66 47
f 1 47 30
f 1 30 18
f 1 18 17
f 1 17 16
f 1 16 15
f 1 15 8
f 1 8 4
f 1 4 10
f 1 10 23
f 1 23 38
f 1 38 39
f 1 39 24
f 1 24 11
f 1 11 5
f 1 5 2
f 2 6 12
f 2 12 25
f 2 25 40
f 2 40 56
f 2 56 74
f 2 74 76
f 2 76 61
f 2 61 57
f 2 57 41
f 2 41 26
f 2 26 13
f 2 13 7
f 2 7 3
f 2 5 6
f 4 8 9
f 4 9 10
f 5 11 6
f 6 11 12
f 7 13 14
f 8 15 9
f 9 15 16
f 9 16 17
f 9 17 18
f 9 18 19
f 9 19 20
f 9 20 21
f 9 21 22
f 9 22 23
f 9 23 10
f 11 24 12
f 12 24 25
f 13 26 27
f 13 27 14
f 14 27 28
f 18 29 19
f 18 30 31
f 18 31 32
f 18 32 33
f 18 33 29
f 19 29 20
f 20 29 32
f 20 32 34
f 20 34 21
f 21 34 35
f 21 35 36
f 21 36 22
f 22 36 37
f 22 37 38
f 22 38 23
f 24 39 55
f 24 55 73
f 24 73 92
f 24 92 93
f 24 93 75
f 24 75 56
f 24 56 40
f 24 40 25
f 26 41 27
f 27 41 42
f 27 42 43
f 27 43 44
f 27 44 45
f 27 45 46
f 27 46 28
f 29 33 32
f 30 47 31
f 31 48 32
f 31 47 48
f 32 48 49
f 32 49 50
f 32 50 34
f 34 50 51
f 34 51 35
f 35 51 36
f 36 51 52
f 36 52 37
f 37 52 53
f 37 53 54
f 37 54 55
f 37 55 39
f 37 39 38
f 41 57 42
f 42 58 59
f 42 59 60
f 42 60 43
f 42 57 61
f 42 61 58
f 43 60 62
f 43 62 44
f 44 62 63
f 44 63 45
f 45 63 64
f 45 64 65
f 47 66 48
f 48 66 67
f 48 67 68
f 48 68 49
f 49 68 69
f 49 69 70
f 49 70 71
f 49 71 50
f 50 71 72
f 50 72 51
f 51 72 52
f 52 72 53
f 53 72 73
f 53 73 54
f 54 73 55
f 56 75 74
f 58 61 76
f 58 76 77
f 58 77 78
f 58 78 79
f 58 79 59
f 59 79 80
f 59 80 60
f 60 80 62
f 62 80 81
f 62 81 63
f 63 81 82
f 63 82 83
f 63 83 64
f 64 83 65
f 65 83 84
f 67 85 68
f 68 85 69
f 69 85 86
f 69 86 87
f 69 87 70
f 70 87 88
f 70 88 89
f 70 89 95
f 70 95 90
f 70 90 71
f 71 90 72
f 72 90 91
f 72 91 92
f 72 92 73
f 74 75 76
f 75 77 76
f 75 93 77
f 77 93 94
f 77 94 78
f 78 94 79
f 79 94 80
f 80 94 81
f 81 94 95
f 81 95 82
f 82 95 89
f 82 89 96
f 82 96 97
f 82 97 83
f 83 98 84
f 83 97 99
f 83 99 98
f 86 99 97
f 86 97 96
f 86 96 100
f 86 100 101
f 86 101 88
f 86 88 87
f 88 101 89
f 89 100 96
f 89 101 100
f 90 95 94
f 90 94 91
f 91 94 93
f 91 93 92
