mtllib material.mtl
usemtl mtl_crank_wheel
v 0.00565595 0.04888640 0.00793750
v 0.01666875 0.04325435 0.00793750
v 0.01666875 0.04630360 0.00793750
v 0.01666875 0.02749988 0.00286583
v 0.00445826 0.01606148 -0.01555750
v 0.00853527 0.01431770 -0.01555750
v 0.01666875 0.02463583 -0.00611708
v 0.00566942 0.04600699 0.00793750
v 0.00430517 0.01610319 -0.00266700
v 0.00819037 0.01451775 -0.00266700
v -0.00565595 0.04888640 0.00793750
v -0.00566942 0.04600699 0.00793750
v 0.00000000 0.01666875 -0.00266700
v -0.01666875 0.04630360 0.00793750
v -0.01666875 0.04325435 0.00793750
v -0.00445826 0.01606148 -0.00266700
v -0.01666875 0.02482617 -0.00600320
v -0.01666875 0.02750225 0.00286656
v -0.00853527 0.01431770 -0.00266700
v -0.00430517 0.01610319 -0.01555750
v -0.00819037 0.01451775 -0.01555750
v 0.00000000 0.01666875 -0.01555750
v 0.01610319 0.00430517 -0.01555750
v 0.01666875 0.00524663 -0.01497582
v 0.01666875 -0.00000000 -0.01555750
v 0.01666875 -0.00000000 -0.00266700
v 0.01443180 0.00834056 -0.02222500
v 0.01666875 0.00000000 -0.02222500
v 0.01606148 -0.00445826 -0.01555750
v 0.01666875 -0.00540843 -0.01494026
v 0.01666875 -0.00518230 -0.00238566
v 0.01451775 0.00819037 -0.01555750
v 0.01666875 0.01073580 -0.01327790
v 0.01666875 0.01043671 -0.00159609
v 0.01666875 0.00511831 -0.00239249
v 0.01196484 0.01160560 -0.01555750
v 0.01666875 0.01700484 -0.01040060
v 0.01666875 0.01636108 -0.00027822
v -0.01160560 0.01196484 -0.01555750
v -0.01666875 0.01733652 -0.01022867
v -0.01666875 0.01105021 -0.01315324
v -0.01666875 0.01636855 -0.00027635
v -0.01431770 0.00853527 -0.01555750
v -0.01666875 0.00541470 -0.01493871
v -0.01666875 0.01044451 -0.00159462
v -0.01606148 0.00445826 -0.01555750
v -0.01666875 -0.00000000 -0.01555750
v -0.01666875 0.00512319 -0.00239198
v -0.01666875 0.00000000 -0.02222500
v -0.01443180 -0.00834056 -0.02222500
v -0.01610319 -0.00430517 -0.01555750
v -0.01666875 -0.00524096 -0.01497719
v -0.01666875 -0.00000000 -0.00266700
v -0.01443180 0.00834056 -0.02222500
v -0.00834056 0.01443180 -0.02222500
v 0.00000000 0.01666875 -0.02222500
v 0.00834056 0.01443180 -0.02222500
v 0.00834056 -0.01443180 -0.02222500
v 0.00430517 -0.01610319 -0.01555750
v 0.00000000 -0.01666875 -0.01555750
v 0.00565595 -0.04888640 0.00793750
v 0.00000000 -0.01666875 -0.02222500
v -0.00445826 -0.01606148 -0.01555750
v -0.00565595 -0.04888640 0.00793750
v 0.00819037 -0.01451775 -0.01555750
v 0.01666875 -0.04630360 0.00793750
v 0.01160560 -0.01196484 -0.01555750
v 0.01666875 -0.02482187 -0.00600574
v 0.01443180 -0.00834056 -0.02222500
v 0.01431770 -0.00853527 -0.01555750
v 0.01666875 -0.01104435 -0.01315575
v 0.01666875 -0.01733621 -0.01022880
v 0.00371075 0.00942721 -0.02222500
v -0.00630883 0.00792721 -0.02222500
v -0.00521068 0.00902516 -0.02222500
v -0.00371075 0.00942721 -0.02222500
v 0.01001957 0.00150000 -0.02222500
v 0.00521068 0.00902516 -0.02222500
v 0.00630883 0.00792721 -0.02222500
v 0.01031921 -0.00077644 -0.02222500
v 0.01031921 0.00077644 -0.02222500
v 0.01042150 -0.00000000 -0.02222500
v 0.00630883 -0.00792721 -0.02222500
v 0.01001957 -0.00150000 -0.02222500
v -0.00834056 -0.01443180 -0.02222500
v -0.00371075 -0.00942721 -0.02222500
v 0.00371075 -0.00942721 -0.02222500
v 0.00521068 -0.00902516 -0.02222500
v -0.01196484 -0.01160560 -0.01555750
v -0.01001957 -0.00150000 -0.02222500
v -0.00853527 -0.01431770 -0.01555750
v -0.00521068 -0.00902516 -0.02222500
v -0.00630883 -0.00792721 -0.02222500
v -0.01031921 0.00077644 -0.02222500
v -0.01451775 -0.00819037 -0.01555750
v -0.01031921 -0.00077644 -0.02222500
v -0.01042150 -0.00000000 -0.02222500
v -0.01001957 0.00150000 -0.02222500
v -0.01666875 -0.01072349 -0.01328284
v -0.01666875 -0.01699356 -0.01040639
v -0.01666875 -0.04630360 0.00793750
v -0.01666875 -0.02462097 -0.00612594
v 0.00371075 -0.00942721 -0.01555750
v 0.00521068 -0.00902516 -0.01555750
v -0.00371075 -0.00942721 -0.01555750
v -0.00521068 -0.00902516 -0.01555750
v -0.00630883 -0.00792721 -0.01555750
v -0.01001957 -0.00150000 -0.01555750
v -0.01031921 -0.00077644 -0.01555750
v -0.01042150 -0.00000000 -0.01555750
v -0.01031921 0.00077644 -0.01555750
v -0.01001957 0.00150000 -0.01555750
v -0.00630883 0.00792721 -0.01555750
v -0.00521068 0.00902516 -0.01555750
v -0.00371075 0.00942721 -0.01555750
v 0.00371075 0.00942721 -0.01555750
v 0.00521068 0.00902516 -0.01555750
v 0.00630883 0.00792721 -0.01555750
v 0.01001957 0.00150000 -0.01555750
v 0.01031921 0.00077644 -0.01555750
v 0.01042150 -0.00000000 -0.01555750
v 0.01031921 -0.00077644 -0.01555750
v 0.01001957 -0.00150000 -0.01555750
v 0.00630883 -0.00792721 -0.01555750
v 0.00317729 -0.00549773 -0.01555750
v -0.00317722 -0.00549778 -0.01555750
v 0.00000000 -0.00635000 -0.01555750
v 0.00549778 -0.00317722 -0.01555750
v -0.00549773 -0.00317729 -0.01555750
v -0.00635000 0.00000000 -0.01555750
v -0.00549778 0.00317722 -0.01555750
v -0.00317729 0.00549773 -0.01555750
v 0.00317722 0.00549778 -0.01555750
v 0.00000000 0.00635000 -0.01555750
v 0.00549773 0.00317729 -0.01555750
v 0.00635000 0.00000000 -0.01555750
v 0.00000000 0.00635000 -0.00000000
v -0.00317722 0.00549778 -0.00000000
v 0.00317729 0.00549773 -0.00000000
v 0.00549778 0.00317722 -0.00000000
v 0.00635000 -0.00000000 -0.00000000
v 0.00549773 -0.00317729 -0.00000000
v 0.00317722 -0.00549778 -0.00000000
v 0.00000000 -0.00635000 -0.00000000
v -0.00317729 -0.00549773 -0.00000000
v -0.00549778 -0.00317722 -0.00000000
v -0.00635000 -0.00000000 -0.00000000
v -0.00549773 0.00317729 -0.00000000
v 0.00000000 -0.01666875 -0.00000000
v 0.00834056 -0.01443180 -0.00000000
v -0.00834056 -0.01443180 -0.00000000
v -0.00834056 0.01443180 -0.00000000
v 0.00000000 0.01666875 -0.00000000
v 0.00834056 0.01443180 -0.00000000
v 0.01443180 -0.00834056 -0.00000000
v 0.01443180 0.00834056 -0.00000000
v 0.01160560 0.01196484 -0.00266700
v 0.01666875 -0.00000000 -0.00000000
v 0.01606148 0.00445826 -0.00266700
v 0.01431770 0.00853527 -0.00266700
v 0.01196484 -0.01160560 -0.00266700
v 0.01610319 -0.00430517 -0.00266700
v 0.01451775 -0.00819037 -0.00266700
v 0.00445826 -0.01606148 -0.00266700
v 0.00853527 -0.01431770 -0.00266700
v 0.00000000 -0.01666875 -0.00266700
v -0.01443180 0.00834056 -0.00000000
v -0.01443180 -0.00834056 -0.00000000
v -0.01160560 -0.01196484 -0.00266700
v -0.00430517 -0.01610319 -0.00266700
v -0.00819037 -0.01451775 -0.00266700
v -0.01666875 -0.00000000 -0.00000000
v -0.01606148 -0.00445826 -0.00266700
v -0.01431770 -0.00853527 -0.00266700
v -0.01196484 0.01160560 -0.00266700
v -0.01610319 0.00430517 -0.00266700
v -0.01451775 0.00819037 -0.00266700
v -0.00566942 -0.04600699 0.00793750
v 0.00566942 -0.04600699 0.00793750
v -0.01666875 -0.04325435 0.00793750
v -0.01666875 -0.02753069 0.00287516
v -0.01666875 -0.01640679 -0.00026653
v -0.01666875 -0.00518432 -0.00238544
v -0.01666875 -0.01049379 -0.00158535
v 0.01666875 -0.01047836 -0.00158829
v 0.01666875 -0.01638191 -0.00027277
v 0.01666875 -0.04325435 0.00793750
v 0.01666875 -0.02751241 0.00286958
v 0.01409694 0.06191548 0.02508250
v 0.01425353 0.06187962 0.00984250
v -0.00224278 0.06346038 0.00984250
v 0.00990357 0.06215758 0.00849503
v -0.00224278 0.06346038 0.02508250
v -0.01827414 0.06081370 0.00984250
v -0.00525949 0.06272148 0.00849503
v 0.02194736 0.05958660 0.02508250
v 0.02977217 0.05608804 0.00984250
v 0.02449108 0.05798131 0.00849503
v 0.03707983 0.05154935 0.02508250
v 0.04327640 0.04646938 0.00984250
v 0.03765525 0.05043538 0.00849503
v 0.02980289 0.05607172 0.02508250
v 0.04354123 0.04622133 0.02508250
v 0.05383165 0.03368090 0.00984250
v 0.04863103 0.03995833 0.00849503
v 0.05402098 0.03337639 0.02508250
v 0.06071610 0.01859584 0.00984250
v 0.05678056 0.02715905 0.00849503
v 0.06346038 0.00224278 0.02508250
v 0.06346038 0.00224278 0.00984250
v 0.06163020 0.01278138 0.00849503
v 0.06075009 0.01848451 0.02508250
v 0.06303015 -0.00771037 0.02508250
v 0.06303203 -0.00769498 0.00984250
v 0.06289812 -0.00233910 0.00849503
v 0.06104747 -0.01747732 0.02508250
v 0.06104747 -0.01747732 0.00984250
v 0.05461562 -0.03239420 0.02508250
v 0.05477634 -0.03212169 0.00984250
v 0.06053050 -0.01732932 0.00851600
v 0.04529985 -0.04449914 0.00984250
v 0.04552881 -0.04346001 0.00849503
v 0.06051129 -0.01732382 0.00849570
v 0.05460649 -0.03130138 0.00849503
v 0.04468209 -0.04511940 0.02508250
v 0.03293590 -0.05429067 0.00984250
v 0.03380517 -0.05309290 0.00849503
v 0.03213862 -0.05476641 0.02508250
v 0.01827414 -0.06081370 0.00984250
v 0.02011689 -0.05964023 0.00849503
v 0.00224278 -0.06346038 0.02508250
v 0.00224278 -0.06346038 0.00984250
v 0.00525949 -0.06272148 0.00849503
v 0.01780976 -0.06095131 0.02508250
v -0.01409694 -0.06191548 0.02508250
v -0.01425353 -0.06187962 0.00984250
v -0.00990357 -0.06215758 0.00849503
v 0.00525949 -0.06272147 0.02642998
v -0.00990357 -0.06215758 0.02642998
v 0.02011689 -0.05964022 0.02642998
v 0.03380517 -0.05309290 0.02642998
v 0.04552881 -0.04346001 0.02642998
v 0.05460649 -0.03130138 0.02642998
v 0.06051001 -0.01732345 0.02643063
v 0.06289812 -0.00233910 0.02642998
v 0.06163020 0.01278138 0.02642998
v 0.05678055 0.02715905 0.02642998
v 0.04863103 0.03995833 0.02642998
v 0.03765525 0.05043538 0.02642998
v 0.02449108 0.05798131 0.02642998
v 0.00990357 0.06215758 0.02642998
v -0.01780976 0.06095131 0.02508250
v -0.00525949 0.06272147 0.02642998
v -0.03213862 0.05476641 0.02508250
v -0.02011689 0.05964022 0.02642998
v -0.03293590 0.05429067 0.00984250
v -0.04468209 0.04511940 0.02508250
v -0.03380517 0.05309290 0.02642998
v -0.04529985 0.04449914 0.00984250
v -0.05461562 0.03239420 0.02508250
v -0.04552881 0.04346001 0.02642998
v -0.06104747 0.01747732 0.00984250
v -0.06104747 0.01747732 0.02508250
v -0.05460649 0.03130138 0.02642998
v -0.05477634 0.03212169 0.00984250
v -0.06303203 0.00769498 0.00984250
v -0.06303015 0.00771037 0.02508250
v -0.06051001 0.01732345 0.02643063
v -0.06346038 -0.00224278 0.00984250
v -0.06346038 -0.00224278 0.02508250
v -0.06289812 0.00233910 0.02642998
v -0.06071610 -0.01859584 0.00984250
v -0.06075009 -0.01848451 0.02508250
v -0.06163020 -0.01278138 0.02642998
v -0.05402098 -0.03337639 0.02508250
v -0.05678055 -0.02715905 0.02642998
v -0.05383165 -0.03368090 0.00984250
v -0.04354123 -0.04622133 0.02508250
v -0.04863103 -0.03995833 0.02642998
v -0.04327640 -0.04646938 0.00984250
v -0.03707983 -0.05154935 0.02508250
v -0.03765525 -0.05043538 0.02642998
v -0.02977217 -0.05608804 0.00984250
v -0.02980289 -0.05607172 0.02508250
v -0.02194736 -0.05958660 0.02508250
v -0.02449108 -0.05798131 0.02642998
v -0.02449108 -0.05798131 0.00849503
v -0.03765525 -0.05043538 0.00849503
v -0.04863103 -0.03995833 0.00849503
v -0.05678056 -0.02715905 0.00849503
v -0.06163020 -0.01278138 0.00849503
v -0.06289812 0.00233910 0.00849503
v -0.06053050 0.01732932 0.00851600
v -0.04552881 0.04346001 0.00849503
v -0.06051129 0.01732382 0.00849570
v -0.05460649 0.03130138 0.00849503
v -0.03380517 0.05309290 0.00849503
v -0.02011689 0.05964023 0.00849503
v 0.06102573 -0.00835342 0.02698750
v 0.05921604 -0.01695300 0.02698750
v 0.04456465 -0.01275845 0.02698750
v 0.06049131 -0.01731810 0.02644977
v 0.05313520 -0.03115414 0.02698750
v 0.03843825 -0.02590919 0.02698750
v 0.06159342 0.00042272 0.02698750
v 0.04601346 -0.00561548 0.02698750
v 0.06090774 0.00917416 0.02698750
v 0.04632536 0.00165559 0.02698750
v 0.05897794 0.01776311 0.02698750
v 0.04354724 0.01588759 0.02698750
v 0.05584561 0.02598491 0.02698750
v 0.05158566 0.03365787 0.02698750
v 0.03651796 0.02855222 0.02698750
v 0.04627376 0.04065313 0.02698750
v 0.02591710 0.03843278 0.02698750
v 0.04002121 0.04682132 0.02698750
v 0.01278996 0.04455546 0.02698750
v 0.03295472 0.05203771 0.02698750
v -0.00161090 0.04632684 0.02698750
v -0.03362093 0.05160987 0.02698750
v 0.02521437 0.05619765 0.02698750
v -0.04063248 0.04629180 0.02698750
v -0.02593647 0.05586794 0.02698750
v 0.01695693 0.05921474 0.02698750
v -0.01772641 0.05898908 0.02698750
v 0.00835670 0.06102546 0.02698750
v -0.00916213 0.06090966 0.02698750
v -0.00040841 0.06159357 0.02698750
v -0.04681389 0.04002973 0.02698750
v -0.00885565 0.04550121 0.02698750
v -0.05202694 0.03297157 0.02698750
v -0.02855446 0.03651605 0.02698750
v -0.01587959 0.04355034 0.02698750
v -0.05619356 0.02522317 0.02698750
v -0.03844113 0.02590481 0.02698750
v -0.06049131 0.01731810 0.02644977
v -0.05921604 0.01695300 0.02698750
v -0.06095301 0.00887233 0.02698750
v -0.04456465 0.01275845 0.02698750
v 0.04372340 -0.04338434 0.02698750
v 0.03156281 -0.05289353 0.02698750
v 0.01742383 -0.05907911 0.02698750
v -0.00614063 -0.06128780 0.02698750
v 0.00217550 -0.06155657 0.02698750
v -0.02219791 -0.05745623 0.02698750
v -0.01432017 -0.05990749 0.02698750
v -0.03667269 -0.04948756 0.02698750
v -0.02969179 -0.05396631 0.02698750
v -0.04298028 -0.04412095 0.02698750
v -0.05316200 -0.03110857 0.02698750
v -0.04850502 -0.03796324 0.02698750
v -0.05952928 -0.01581826 0.02698750
v -0.05685940 -0.02368417 0.02698750
v -0.06159168 0.00059969 0.02698750
v -0.06111477 -0.00767717 0.02698750
v -0.04632603 -0.00162927 0.02698750
v -0.04355935 -0.01585429 0.02698750
v -0.03652313 -0.02854552 0.02698750
v -0.03161072 -0.03390513 0.02698750
v -0.02590161 -0.03844298 0.02698750
v -0.01276957 -0.04456161 0.02698750
v 0.00163723 -0.04632608 0.02698750
v -0.00565398 -0.04600867 0.02698750
v 0.01587721 -0.04355112 0.02698750
v 0.02855438 -0.03651620 0.02698750
v 0.00670663 -0.04450561 0.02642966
v -0.00610371 -0.04459229 0.02642966
v 0.01897364 -0.04081334 0.02642966
v 0.02970352 -0.03381462 0.02642966
v 0.03802700 -0.02407644 0.02642966
v 0.04326912 -0.01238755 0.02642900
v 0.04500706 0.00030456 0.02642966
v 0.04309815 0.01297218 0.02642966
v 0.03769769 0.02458886 0.02642966
v 0.02924318 0.03421351 0.02642966
v 0.01841957 0.04106638 0.02642966
v 0.00610371 0.04459229 0.02642966
v -0.00670663 0.04450561 0.02642966
v -0.01897364 0.04081334 0.02642966
v -0.02970352 0.03381462 0.02642966
v -0.03802700 0.02407644 0.02642966
v -0.04326912 0.01238755 0.02642900
v -0.04309815 -0.01297218 0.02642966
v -0.04500706 -0.00030456 0.02642966
v -0.03769769 -0.02458886 0.02642966
v -0.02924318 -0.03421351 0.02642966
v -0.01841957 -0.04106638 0.02642966
v 0.03690056 -0.02478208 0.02508250
v 0.04325019 -0.01238213 0.02640900
v 0.04273323 -0.01223413 0.02508250
v 0.04023915 -0.01888422 0.00984250
v 0.04412270 -0.00538420 0.02508250
v 0.04273323 -0.01223413 0.00984250
v 0.02184500 -0.03871174 0.02508250
v 0.02763987 -0.03481149 0.02508250
v 0.00863004 -0.04360418 0.02508250
v 0.01547586 -0.04166894 0.02508250
v -0.00554884 -0.04410230 0.02508250
v 0.00156995 -0.04442227 0.02508250
v -0.01230804 -0.04271200 0.02508250
v -0.02491046 -0.03681401 0.02508250
v -0.03485342 -0.02758698 0.02508250
v -0.04166339 -0.01549078 0.02508250
v -0.04442227 -0.00156995 0.02508250
v -0.04361116 -0.00859472 0.02508250
v -0.04325019 0.01238213 0.02640900
v -0.04273323 0.01223413 0.02508250
v -0.04412270 0.00538420 0.02508250
v -0.03690056 0.02478208 0.02508250
v -0.04273323 0.01223413 0.00984250
v -0.04023915 0.01888422 0.00984250
v -0.04412149 0.00539412 0.00984250
v -0.04442227 -0.00156995 0.00984250
v -0.04179217 -0.01513992 0.00984250
v -0.03520131 -0.02714167 0.00984250
v -0.03047886 -0.03235493 0.00984250
v -0.01867374 -0.04033725 0.00984250
v -0.02497261 -0.03677188 0.00984250
v -0.01206885 -0.04278020 0.00984250
v 0.00156995 -0.04442227 0.00984250
v 0.01507086 -0.04181712 0.00984250
v 0.02709807 -0.03523488 0.00984250
v 0.03227698 -0.03056139 0.00984250
v 0.03671652 -0.02505393 0.00984250
v 0.04442227 0.00156995 0.02508250
v 0.04412149 -0.00539412 0.00984250
v 0.04361116 0.00859472 0.02508250
v 0.04442227 0.00156995 0.00984250
v 0.04166339 0.01549078 0.02508250
v 0.04179217 0.01513992 0.00984250
v 0.03485342 0.02758698 0.02508250
v 0.03520131 0.02714167 0.00984250
v 0.02491046 0.03681401 0.02508250
v 0.03047886 0.03235493 0.00984250
v 0.01230804 0.04271200 0.02508250
v 0.01867374 0.04033725 0.00984250
v 0.02497261 0.03677188 0.00984250
v 0.00554884 0.04410230 0.02508250
v 0.01206885 0.04278020 0.00984250
v -0.00156995 0.04442227 0.02508250
v -0.00863004 0.04360418 0.02508250
v -0.00156995 0.04442227 0.00984250
v -0.01547586 0.04166894 0.02508250
v -0.01507086 0.04181712 0.00984250
v -0.02184500 0.03871174 0.02508250
v -0.02763987 0.03481149 0.02508250
v -0.02709807 0.03523488 0.00984250
v -0.03227698 0.03056139 0.00984250
v -0.03671652 0.02505393 0.00984250
v 0.00610371 0.04459227 0.00849536
v -0.00670663 0.04450558 0.00849536
v 0.00670663 -0.04450558 0.00849536
v -0.00610371 -0.04459227 0.00849536
v 0.01897364 -0.04081332 0.00849536
v 0.02970351 -0.03381461 0.00849536
v 0.03802698 -0.02407643 0.00849536
v 0.04327037 -0.01238791 0.00849470
v 0.04500704 0.00030456 0.00849536
v 0.04309813 0.01297217 0.00849536
v 0.03769767 0.02458885 0.00849536
v 0.02924317 0.03421349 0.00849536
v 0.01841956 0.04106636 0.00849536
v -0.01897364 0.04081332 0.00849536
v -0.02970351 0.03381461 0.00849536
v -0.03802698 0.02407643 0.00849536
v -0.04327037 0.01238791 0.00849470
v -0.04500704 -0.00030456 0.00849536
v -0.04309813 -0.01297217 0.00849536
v -0.03769767 -0.02458885 0.00849536
v -0.02924317 -0.03421349 0.00849536
v -0.01841956 -0.04106636 0.00849536
v 0.04632603 0.00163676 0.00793750
v 0.04456465 -0.01275845 0.00793750
v 0.06102811 -0.00833631 0.00793750
v 0.04328938 -0.01239335 0.00847523
v 0.03843820 -0.02590927 0.00793750
v 0.05921604 -0.01695300 0.00793750
v 0.04355279 0.01587241 0.00793750
v 0.06090525 0.00919074 0.00793750
v 0.06159327 0.00044316 0.00793750
v 0.03652084 0.02854858 0.00793750
v 0.05897429 0.01777530 0.00793750
v 0.03159349 0.03392100 0.00793750
v 0.05157259 0.03367782 0.00793750
v 0.05583940 0.02599821 0.00793750
v 0.02588330 0.03845550 0.00793750
v 0.01272685 0.04457353 0.00793750
v 0.04625814 0.04067090 0.00793750
v -0.00165161 0.04632544 0.00793750
v 0.04000778 0.04683277 0.00793750
v -0.01587522 0.04355190 0.00793750
v -0.04064202 0.04628338 0.00793750
v -0.02854172 0.03652599 0.00793750
v -0.04682478 0.04001698 0.00793750
v -0.03843060 0.02592043 0.00793750
v -0.05203789 0.03295431 0.00793750
v -0.04201385 0.01958592 0.00793750
v -0.05620060 0.02520739 0.00793750
v -0.04328938 0.01239335 0.00847523
v -0.04456465 0.01275845 0.00793750
v -0.05921604 0.01695300 0.00793750
v -0.04632589 -0.00163349 0.00793750
v -0.06095529 0.00885672 0.00793750
v 0.02855428 -0.03651628 0.00793750
v 0.01587713 -0.04355115 0.00793750
v -0.00565541 -0.04600849 0.00793750
v 0.00163723 -0.04632608 0.00793750
v -0.01276549 -0.04456278 0.00793750
v -0.02588180 -0.03845633 0.00793750
v -0.03650244 -0.02857198 0.00793750
v -0.04355117 -0.01587676 0.00793750
v -0.04052594 -0.02250408 0.00793750
v -0.06111306 -0.00769082 0.00793750
v -0.06159187 0.00057942 0.00793750
v -0.05953001 -0.01581552 0.00793750
v -0.05686799 -0.02366355 0.00793750
v -0.05318080 -0.03107641 0.00793750
v -0.04300696 -0.04409495 0.00793750
v -0.04853081 -0.03793026 0.00793750
v -0.03669062 -0.04947427 0.00793750
v 0.04372311 -0.04338463 0.00793750
v 0.03156245 -0.05289374 0.00793750
v 0.05313520 -0.03115415 0.00793750
v -0.00612484 -0.06128937 0.00793750
v 0.01742382 -0.05907911 0.00793750
v 0.00217550 -0.06155657 0.00793750
v -0.02218506 -0.05746118 0.00793750
v -0.01430045 -0.05991221 0.00793750
v -0.02969423 -0.05396496 0.00793750
v 0.03294225 0.05204558 0.00793750
v -0.03363323 0.05160187 0.00793750
v 0.02520446 0.05620210 0.00793750
v -0.02595812 0.05585793 0.00793750
v 0.01694898 0.05921702 0.00793750
v -0.01774907 0.05898227 0.00793750
v 0.00834594 0.06102693 0.00793750
v -0.00917958 0.06090705 0.00793750
v -0.00042316 0.06159348 0.00793750
f 1 2 3
f 4 3 2
f 5 1 3
f 6 3 7
f 4 7 3
f 6 5 3
f 1 8 2
f 9 2 8
f 10 2 9
f 4 2 10
f 11 12 8
f 13 8 12
f 1 11 8
f 9 8 13
f 14 15 12
f 16 12 15
f 11 14 12
f 13 12 16
f 17 15 14
f 18 15 17
f 16 15 19
f 18 19 15
f 20 14 11
f 21 17 14
f 20 21 14
f 22 11 1
f 22 20 11
f 5 22 1
f 23 24 25
f 26 25 24
f 27 23 25
f 28 25 29
f 30 29 25
f 28 27 25
f 31 25 26
f 31 30 25
f 32 33 24
f 34 24 33
f 23 32 24
f 35 26 24
f 35 24 34
f 36 37 33
f 38 33 37
f 32 36 33
f 34 33 38
f 6 7 37
f 38 37 7
f 36 6 37
f 38 7 4
f 39 40 17
f 18 17 40
f 21 39 17
f 39 41 40
f 42 40 41
f 18 40 42
f 43 44 41
f 45 41 44
f 39 43 41
f 42 41 45
f 46 47 44
f 48 44 47
f 43 46 44
f 45 44 48
f 49 47 46
f 49 50 47
f 51 47 50
f 52 47 51
f 48 47 53
f 52 53 47
f 54 46 43
f 54 49 46
f 54 43 39
f 55 39 21
f 55 54 39
f 55 21 20
f 55 20 22
f 56 22 5
f 55 22 56
f 57 5 6
f 57 56 5
f 57 6 36
f 27 36 32
f 27 57 36
f 27 32 23
f 58 59 60
f 61 60 59
f 62 58 60
f 63 62 60
f 64 63 60
f 61 64 60
f 58 65 59
f 66 59 65
f 61 59 66
f 58 67 65
f 68 65 67
f 66 65 68
f 69 70 67
f 71 67 70
f 58 69 67
f 72 67 71
f 68 67 72
f 69 29 70
f 30 70 29
f 71 70 30
f 69 28 29
f 73 56 57
f 74 55 56
f 75 74 56
f 76 75 56
f 73 76 56
f 77 57 27
f 78 73 57
f 79 78 57
f 77 79 57
f 69 27 28
f 58 27 69
f 80 27 58
f 81 77 27
f 82 81 27
f 80 82 27
f 83 58 62
f 84 80 58
f 83 84 58
f 63 85 62
f 86 62 85
f 86 87 62
f 88 62 87
f 88 83 62
f 89 50 85
f 90 85 50
f 91 89 85
f 63 91 85
f 92 86 85
f 93 92 85
f 90 93 85
f 54 50 49
f 55 50 54
f 94 50 55
f 95 51 50
f 89 95 50
f 96 90 50
f 97 96 50
f 94 97 50
f 98 94 55
f 74 98 55
f 52 51 95
f 99 95 89
f 99 52 95
f 100 89 91
f 100 99 89
f 101 91 63
f 102 91 101
f 102 100 91
f 64 101 63
f 103 87 86
f 104 88 87
f 104 87 103
f 105 86 92
f 103 86 105
f 106 92 93
f 106 105 92
f 107 93 90
f 107 106 93
f 108 90 96
f 108 107 90
f 109 96 97
f 109 108 96
f 110 97 94
f 110 109 97
f 111 94 98
f 111 110 94
f 112 98 74
f 112 111 98
f 113 74 75
f 113 112 74
f 114 75 76
f 114 113 75
f 115 76 73
f 115 114 76
f 116 73 78
f 116 115 73
f 117 78 79
f 117 116 78
f 118 79 77
f 118 117 79
f 119 77 81
f 119 118 77
f 120 81 82
f 120 119 81
f 121 82 80
f 121 120 82
f 122 80 84
f 122 121 80
f 123 84 83
f 123 122 84
f 124 83 88
f 124 123 83
f 104 124 88
f 125 103 105
f 126 105 106
f 127 125 105
f 126 127 105
f 128 104 103
f 125 128 103
f 129 106 107
f 129 126 106
f 130 107 108
f 130 129 107
f 112 108 109
f 113 108 112
f 130 108 113
f 111 109 110
f 112 109 111
f 131 113 114
f 131 130 113
f 131 114 115
f 132 115 116
f 132 131 115
f 133 116 117
f 133 134 116
f 132 116 134
f 135 117 118
f 135 133 117
f 136 118 119
f 136 135 118
f 123 119 120
f 124 119 123
f 136 119 124
f 122 120 121
f 123 120 122
f 128 124 104
f 128 136 124
f 137 134 133
f 138 132 134
f 137 138 134
f 139 133 135
f 139 137 133
f 140 135 136
f 140 139 135
f 141 136 128
f 141 140 136
f 142 128 125
f 142 141 128
f 143 125 127
f 143 142 125
f 144 127 126
f 143 127 144
f 145 126 129
f 145 144 126
f 146 129 130
f 146 145 129
f 147 130 131
f 147 146 130
f 148 131 132
f 148 147 131
f 138 148 132
f 149 144 145
f 150 143 144
f 149 150 144
f 149 145 146
f 151 146 147
f 151 149 146
f 152 147 148
f 152 151 147
f 152 148 138
f 152 138 137
f 153 137 139
f 152 137 153
f 153 139 140
f 154 140 141
f 154 153 140
f 150 141 142
f 150 154 141
f 150 142 143
f 13 153 154
f 16 152 153
f 13 16 153
f 155 156 154
f 157 154 156
f 150 155 154
f 9 13 154
f 10 9 154
f 157 10 154
f 155 158 156
f 159 156 158
f 160 157 156
f 159 160 156
f 26 158 155
f 26 159 158
f 161 155 150
f 162 26 155
f 163 162 155
f 161 163 155
f 164 150 149
f 165 161 150
f 164 165 150
f 166 149 151
f 164 149 166
f 167 168 151
f 169 151 168
f 152 167 151
f 170 166 151
f 171 170 151
f 169 171 151
f 167 172 168
f 173 168 172
f 174 169 168
f 173 174 168
f 53 172 167
f 53 173 172
f 175 167 152
f 176 53 167
f 177 176 167
f 175 177 167
f 19 175 152
f 16 19 152
f 178 166 170
f 179 164 166
f 179 166 178
f 180 170 171
f 178 170 180
f 181 171 169
f 181 180 171
f 182 169 174
f 182 181 169
f 183 174 173
f 184 182 174
f 183 184 174
f 183 173 53
f 48 53 176
f 183 53 52
f 48 176 177
f 45 177 175
f 45 48 177
f 42 175 19
f 42 45 175
f 18 42 19
f 4 10 157
f 38 157 160
f 38 4 157
f 35 160 159
f 34 38 160
f 35 34 160
f 35 159 26
f 31 26 162
f 31 162 163
f 185 163 161
f 31 163 185
f 186 161 165
f 185 161 186
f 187 165 164
f 188 165 187
f 186 165 188
f 179 187 164
f 185 71 30
f 31 185 30
f 186 72 71
f 185 186 71
f 188 68 72
f 186 188 72
f 187 66 68
f 188 187 68
f 179 66 187
f 179 61 66
f 180 101 64
f 181 102 101
f 181 101 180
f 178 64 61
f 178 180 64
f 179 178 61
f 184 52 99
f 183 52 184
f 182 99 100
f 184 99 182
f 182 100 102
f 182 102 181
f 189 190 191
f 192 191 190
f 193 189 191
f 194 193 191
f 195 194 191
f 192 195 191
f 196 197 190
f 198 190 197
f 189 196 190
f 198 192 190
f 199 200 197
f 201 197 200
f 202 199 197
f 196 202 197
f 201 198 197
f 203 204 200
f 205 200 204
f 199 203 200
f 205 201 200
f 206 207 204
f 208 204 207
f 203 206 204
f 208 205 204
f 209 210 207
f 211 207 210
f 212 209 207
f 206 212 207
f 211 208 207
f 213 214 210
f 215 210 214
f 209 213 210
f 215 211 210
f 216 217 214
f 215 214 217
f 213 216 214
f 218 219 217
f 220 217 219
f 216 218 217
f 215 217 220
f 218 221 219
f 222 219 221
f 223 220 219
f 224 223 219
f 222 224 219
f 225 226 221
f 227 221 226
f 218 225 221
f 227 222 221
f 228 229 226
f 230 226 229
f 225 228 226
f 230 227 226
f 231 232 229
f 233 229 232
f 234 231 229
f 228 234 229
f 233 230 229
f 235 232 231
f 236 232 235
f 237 232 236
f 237 233 232
f 238 231 234
f 239 235 231
f 239 231 238
f 240 234 228
f 238 234 240
f 241 228 225
f 240 228 241
f 242 225 218
f 241 225 242
f 243 218 216
f 242 218 243
f 244 216 213
f 243 216 244
f 245 213 209
f 244 213 245
f 246 209 212
f 245 209 246
f 247 212 206
f 246 212 247
f 248 206 203
f 247 206 248
f 249 203 199
f 248 203 249
f 249 199 202
f 250 202 196
f 249 202 250
f 250 196 189
f 251 189 193
f 250 189 251
f 194 252 193
f 253 193 252
f 251 193 253
f 194 254 252
f 255 252 254
f 253 252 255
f 256 257 254
f 258 254 257
f 194 256 254
f 255 254 258
f 259 260 257
f 261 257 260
f 256 259 257
f 258 257 261
f 262 263 260
f 264 260 263
f 265 262 260
f 259 265 260
f 261 260 264
f 266 267 263
f 268 263 267
f 262 266 263
f 264 263 268
f 269 270 267
f 271 267 270
f 266 269 267
f 271 268 267
f 272 273 270
f 274 270 273
f 269 272 270
f 271 270 274
f 272 275 273
f 276 273 275
f 274 273 276
f 277 278 275
f 279 275 278
f 272 277 275
f 276 275 279
f 280 281 278
f 282 278 281
f 277 280 278
f 279 278 282
f 283 284 281
f 282 281 284
f 280 283 281
f 283 285 284
f 286 284 285
f 282 284 286
f 236 235 285
f 286 285 235
f 283 236 285
f 286 235 239
f 287 236 283
f 287 237 236
f 288 283 280
f 288 287 283
f 289 280 277
f 289 288 280
f 290 277 272
f 290 289 277
f 291 272 269
f 291 290 272
f 292 269 266
f 292 291 269
f 292 266 262
f 293 262 265
f 293 292 262
f 294 265 259
f 293 265 295
f 296 295 265
f 294 296 265
f 297 259 256
f 297 294 259
f 298 256 194
f 298 297 256
f 195 298 194
f 245 299 300
f 301 300 299
f 302 245 300
f 303 302 300
f 304 303 300
f 301 304 300
f 245 305 299
f 306 299 305
f 306 301 299
f 246 307 305
f 308 305 307
f 245 246 305
f 308 306 305
f 246 309 307
f 310 307 309
f 310 308 307
f 247 311 309
f 310 309 311
f 246 247 309
f 247 312 311
f 313 311 312
f 313 310 311
f 248 314 312
f 315 312 314
f 247 248 312
f 315 313 312
f 249 316 314
f 317 314 316
f 248 249 314
f 317 315 314
f 249 318 316
f 319 316 318
f 319 317 316
f 320 318 321
f 250 321 318
f 322 318 320
f 319 318 322
f 249 250 318
f 323 321 324
f 250 324 321
f 320 321 323
f 325 324 326
f 251 326 324
f 323 324 325
f 250 251 324
f 327 326 328
f 253 328 326
f 325 326 327
f 251 253 326
f 253 327 328
f 255 325 327
f 253 255 327
f 255 323 325
f 258 320 323
f 255 258 323
f 261 322 320
f 258 261 320
f 261 329 322
f 330 322 329
f 330 319 322
f 264 331 329
f 332 329 331
f 261 264 329
f 333 330 329
f 332 333 329
f 264 334 331
f 335 331 334
f 335 332 331
f 336 337 334
f 335 334 337
f 268 336 334
f 264 268 334
f 271 337 336
f 338 337 271
f 339 337 338
f 339 335 337
f 271 336 268
f 302 244 245
f 303 244 302
f 303 243 244
f 303 242 243
f 340 241 242
f 303 340 242
f 341 240 241
f 340 341 241
f 342 238 240
f 341 342 240
f 343 239 238
f 344 343 238
f 342 344 238
f 345 286 239
f 346 345 239
f 343 346 239
f 347 282 286
f 348 347 286
f 345 348 286
f 349 279 282
f 347 349 282
f 350 276 279
f 351 350 279
f 349 351 279
f 352 274 276
f 353 352 276
f 350 353 276
f 354 271 274
f 355 354 274
f 352 355 274
f 354 338 271
f 339 338 354
f 356 354 355
f 356 339 354
f 356 355 352
f 357 352 353
f 357 356 352
f 358 353 350
f 358 357 353
f 359 350 351
f 359 358 350
f 360 351 349
f 360 359 351
f 361 349 347
f 361 360 349
f 340 347 348
f 362 347 340
f 363 347 362
f 363 361 347
f 341 348 345
f 340 348 341
f 341 345 346
f 342 346 343
f 341 346 342
f 342 343 344
f 364 340 303
f 364 362 340
f 365 364 303
f 304 365 303
f 366 362 364
f 367 363 362
f 367 362 366
f 368 364 365
f 366 364 368
f 369 365 304
f 368 365 369
f 370 304 301
f 369 304 370
f 371 301 306
f 370 301 371
f 372 306 308
f 372 371 306
f 373 308 310
f 372 308 373
f 374 310 313
f 373 310 374
f 375 313 315
f 374 313 375
f 376 315 317
f 375 315 376
f 377 317 319
f 376 317 377
f 378 319 330
f 377 319 378
f 378 330 333
f 379 333 332
f 378 333 379
f 380 332 335
f 379 332 380
f 381 335 339
f 380 335 381
f 382 339 356
f 381 339 382
f 383 356 357
f 384 356 383
f 382 356 384
f 385 357 358
f 383 357 385
f 385 358 359
f 386 359 360
f 385 359 386
f 387 360 361
f 386 360 387
f 367 361 363
f 387 361 367
f 388 389 390
f 372 390 389
f 391 388 390
f 372 392 390
f 393 390 392
f 393 391 390
f 388 371 389
f 372 389 371
f 388 370 371
f 388 369 370
f 394 368 369
f 395 394 369
f 388 395 369
f 396 366 368
f 397 396 368
f 394 397 368
f 398 367 366
f 399 398 366
f 396 399 366
f 400 387 367
f 398 400 367
f 401 386 387
f 400 401 387
f 402 385 386
f 401 402 386
f 403 383 385
f 402 403 385
f 404 384 383
f 405 404 383
f 403 405 383
f 406 382 384
f 407 406 384
f 408 407 384
f 404 408 384
f 409 382 406
f 381 382 409
f 409 406 407
f 410 407 408
f 411 409 407
f 410 411 407
f 412 408 404
f 412 410 408
f 413 404 405
f 413 412 404
f 414 405 403
f 414 413 405
f 415 403 402
f 415 414 403
f 416 402 401
f 416 415 402
f 417 401 400
f 418 416 401
f 417 418 401
f 419 400 398
f 419 417 400
f 419 398 399
f 420 399 396
f 419 399 420
f 421 396 397
f 421 420 396
f 421 397 394
f 422 394 395
f 422 421 394
f 423 395 388
f 423 422 395
f 424 423 388
f 391 424 388
f 372 425 392
f 426 392 425
f 426 393 392
f 373 427 425
f 428 425 427
f 372 373 425
f 428 426 425
f 373 429 427
f 430 427 429
f 430 428 427
f 374 431 429
f 432 429 431
f 373 374 429
f 432 430 429
f 375 433 431
f 434 431 433
f 374 375 431
f 434 432 431
f 376 435 433
f 436 433 435
f 375 376 433
f 437 434 433
f 436 437 433
f 377 438 435
f 439 435 438
f 376 377 435
f 439 436 435
f 378 440 438
f 439 438 440
f 377 378 438
f 378 441 440
f 442 440 441
f 439 440 442
f 379 443 441
f 444 441 443
f 378 379 441
f 444 442 441
f 379 445 443
f 444 443 445
f 380 446 445
f 447 445 446
f 379 380 445
f 447 444 445
f 380 409 446
f 448 446 409
f 448 447 446
f 380 381 409
f 449 448 409
f 411 449 409
f 450 439 442
f 451 442 444
f 450 442 451
f 452 420 421
f 453 419 420
f 453 420 452
f 454 421 422
f 452 421 454
f 455 422 423
f 454 422 455
f 455 423 424
f 456 424 391
f 455 424 456
f 456 391 393
f 457 393 426
f 456 393 457
f 458 426 428
f 457 426 458
f 459 428 430
f 458 428 459
f 460 430 432
f 459 430 460
f 460 432 434
f 461 434 437
f 460 434 461
f 461 437 436
f 462 436 439
f 461 436 462
f 462 439 450
f 463 444 447
f 451 444 463
f 464 447 448
f 463 447 464
f 464 448 449
f 465 449 411
f 464 449 465
f 465 411 410
f 466 410 412
f 465 410 466
f 467 412 413
f 467 466 412
f 468 413 414
f 467 413 468
f 469 414 415
f 468 414 469
f 469 415 416
f 470 416 418
f 469 416 470
f 470 418 417
f 471 417 419
f 470 417 471
f 471 419 453
f 458 472 473
f 474 473 472
f 475 458 473
f 476 475 473
f 477 476 473
f 474 477 473
f 459 478 472
f 479 472 478
f 458 459 472
f 480 474 472
f 479 480 472
f 460 481 478
f 482 478 481
f 459 460 478
f 482 479 478
f 461 483 481
f 484 481 483
f 460 461 481
f 485 482 481
f 484 485 481
f 461 486 483
f 484 483 486
f 462 487 486
f 488 486 487
f 461 462 486
f 488 484 486
f 450 489 487
f 490 487 489
f 462 450 487
f 490 488 487
f 451 491 489
f 492 489 491
f 450 451 489
f 492 490 489
f 463 493 491
f 494 491 493
f 451 463 491
f 494 492 491
f 464 495 493
f 496 493 495
f 463 464 493
f 496 494 493
f 465 497 495
f 498 495 497
f 464 465 495
f 498 496 495
f 499 500 497
f 501 497 500
f 466 499 497
f 465 466 497
f 501 498 497
f 467 500 499
f 502 500 467
f 503 500 502
f 503 501 500
f 467 499 466
f 475 457 458
f 476 457 475
f 476 456 457
f 476 455 456
f 504 454 455
f 476 504 455
f 505 452 454
f 504 505 454
f 506 453 452
f 507 506 452
f 505 507 452
f 508 471 453
f 506 508 453
f 509 470 471
f 508 509 471
f 510 469 470
f 509 510 470
f 511 468 469
f 512 511 469
f 510 512 469
f 502 467 468
f 511 502 468
f 513 502 511
f 514 503 502
f 513 514 502
f 515 511 512
f 515 513 511
f 516 512 510
f 516 515 512
f 517 510 509
f 517 516 510
f 518 509 508
f 519 517 509
f 518 519 509
f 518 508 506
f 520 506 507
f 520 518 506
f 521 507 505
f 521 522 507
f 520 507 522
f 521 505 504
f 523 504 476
f 523 521 504
f 477 523 476
f 524 525 526
f 233 526 525
f 237 524 526
f 237 526 233
f 527 522 525
f 230 525 522
f 528 527 525
f 524 528 525
f 233 525 230
f 227 522 521
f 529 520 522
f 527 529 522
f 230 522 227
f 222 521 523
f 227 521 222
f 224 523 477
f 222 523 224
f 223 477 474
f 224 477 223
f 215 474 480
f 215 223 474
f 215 480 479
f 211 479 482
f 215 479 211
f 211 482 485
f 208 485 484
f 211 485 208
f 205 484 488
f 208 484 205
f 205 488 490
f 492 530 490
f 201 490 530
f 205 490 201
f 531 532 530
f 201 530 532
f 492 531 530
f 533 534 532
f 198 532 534
f 531 533 532
f 201 532 198
f 535 536 534
f 192 534 536
f 533 535 534
f 198 534 192
f 537 538 536
f 192 536 538
f 535 537 536
f 195 538 537
f 192 538 195
f 195 537 535
f 298 535 533
f 195 535 298
f 297 533 531
f 298 533 297
f 297 531 492
f 294 492 494
f 297 492 294
f 294 494 496
f 296 496 498
f 294 496 296
f 296 498 501
f 295 501 503
f 296 501 295
f 292 503 514
f 295 503 292
f 292 514 513
f 291 513 515
f 292 513 291
f 291 515 516
f 290 516 517
f 291 516 290
f 290 517 519
f 289 519 518
f 290 519 289
f 288 518 520
f 289 518 288
f 288 520 529
f 287 529 527
f 288 529 287
f 287 527 528
f 237 528 524
f 287 528 237
f 215 220 223
f 293 295 292
