# https://github.com/mikedh/trimesh
v -0.00432782 -0.00324324 -0.01471767
v -0.00002362 -0.00548194 -0.01471767
v -0.00002362 -0.00548194 -0.01475382
v -0.00432782 -0.00324479 -0.01475382
v -0.00432782 -0.01845808 -0.01471767
v -0.00002362 -0.01898193 -0.01471767
v -0.00002362 -0.00569457 -0.01526063
v -0.00432782 -0.00348052 -0.01524617
v -0.00002362 -0.00592106 -0.01579073
v -0.00002362 -0.00880687 -0.02197610
v -0.00432782 -0.01633648 -0.02104199
v -0.00370379 -0.01647052 -0.02141788
v -0.00285769 -0.01658454 -0.02195522
v -0.00190415 -0.01671242 -0.02217128
v -0.00063501 -0.01725476 -0.02109902
v -0.00317203 -0.01865221 -0.01471767
v -0.00003162 -0.01898347 -0.01471767
v -0.00002362 -0.01723165 -0.02109902
v -0.00432782 -0.00865433 -0.02213995
v -0.00002362 -0.00915045 -0.02226284
v -0.00432782 -0.01585114 -0.02217931
v -0.00432782 -0.01576024 -0.02232067
v -0.00190415 -0.01586501 -0.02276564
v -0.00063501 -0.01686495 -0.02229497
v -0.00002362 -0.01685879 -0.02229336
v -0.00063501 -0.01898193 -0.01471767
v -0.00190415 -0.01883248 -0.01471767
v -0.00002362 -0.00952023 -0.02257126
v -0.00432782 -0.00871904 -0.02219377
v -0.00432782 -0.01472640 -0.02285881
v -0.00063501 -0.01586501 -0.02289013
v -0.00432782 -0.01459544 -0.02291423
v -0.00002362 -0.01586501 -0.02288852
v -0.00002362 -0.01078980 -0.02292306
v -0.00432782 -0.00952023 -0.02273512
v -0.00317287 -0.01459544 -0.02292226
v -0.00190415 -0.01459544 -0.02292306
v -0.00002362 -0.01459544 -0.02292306
v -0.00432782 -0.01332587 -0.02292306
v -0.00432782 -0.00963424 -0.02276403
v -0.00432782 -0.01078980 -0.02292306
f 1 2 3
f 1 3 4
f 1 4 8
f 1 8 19
f 1 19 29
f 1 29 35
f 1 35 40
f 1 40 41
f 1 41 39
f 1 39 32
f 1 32 30
f 1 30 22
f 1 22 21
f 1 21 11
f 1 11 5
f 1 5 16
f 1 16 27
f 1 27 26
f 1 26 17
f 1 17 6
f 1 6 2
f 2 6 18
f 2 18 25
f 2 25 33
f 2 33 38
f 2 38 34
f 2 34 28
f 2 28 20
f 2 20 10
f 2 10 9
f 2 9 7
f 2 7 3
f 3 7 4
f 4 7 9
f 4 9 10
f 4 10 8
f 5 11 12
f 5 12 13
f 5 13 14
f 5 14 15
f 5 15 16
f 6 17 18
f 8 10 19
f 10 20 19
f 11 21 12
f 12 21 13
f 13 21 22
f 13 22 14
f 14 22 23
f 14 23 24
f 14 24 15
f 15 24 25
f 15 25 18
f 15 18 17
f 15 17 26
f 15 26 27
f 15 27 16
f 19 20 28
f 19 28 29
f 22 30 23
f 23 31 24
f 23 30 32
f 23 32 31
f 24 31 33
f 24 33 25
f 28 34 35
f 28 35 29
f 31 32 36
f 31 36 37
f 31 37 38
f 31 38 33
f 32 39 36
f 34 40 35
f 34 38 37
f 34 37 39
f 34 39 41
f 34 41 40
f 36 39 37

