# https://github.com/mikedh/trimesh
v 0.00009440 -0.06395821 0.01317113
v 0.00063603 -0.06400700 0.01063187
v 0.00009440 -0.06395821 0.02332250
v 0.00009440 -0.06395565 0.01063187
v 0.00190457 -0.06409173 0.01063187
v 0.00190457 -0.06409429 0.01190150
v 0.00063603 -0.06400700 0.02332250
v 0.00009440 -0.06385808 0.01007391
v 0.00063603 -0.06376308 0.00936224
v 0.00009440 -0.06395051 0.02459214
v 0.00063603 -0.06400186 0.02459214
v 0.00317311 -0.06401213 0.01063187
v 0.00190457 -0.06382984 0.00936224
v 0.00317311 -0.06381186 0.00936224
v 0.00190457 -0.06409429 0.02332250
v 0.00009440 -0.06371173 0.00931479
v 0.00009440 -0.06360132 0.00900165
v 0.00009440 -0.06370146 0.02572703
v 0.00190457 -0.06408659 0.02459214
v 0.00317311 -0.06401213 0.02332250
v 0.00444369 -0.06368605 0.00936224
v 0.00564708 -0.06352430 0.00944953
v 0.00640861 -0.06347037 0.00992968
v 0.00444369 -0.06380416 0.01063187
v 0.01713319 -0.06175781 0.02332250
v 0.01586465 -0.06196322 0.02332250
v 0.00009440 -0.06348065 0.00869800
v 0.00063603 -0.06349091 0.00868282
v 0.00190457 -0.06351402 0.00865056
v 0.00317311 -0.06353456 0.00861640
v 0.00444369 -0.06351402 0.00863917
v 0.00518079 -0.06347551 0.00869421
v 0.00317311 -0.06400700 0.02459214
v 0.00009440 -0.06337538 0.02636089
v 0.00063603 -0.06372713 0.02575170
v 0.00317311 -0.06372970 0.02583330
v 0.00190457 -0.06376822 0.02579724
v 0.00645748 -0.06347808 0.02459214
v 0.01205699 -0.06257430 0.02459214
v 0.00602784 -0.06340362 0.00908326
v 0.01404430 -0.06220456 0.00994107
v 0.00707241 -0.06337024 0.01063187
v 0.01713319 -0.06170902 0.01063187
v 0.01840174 -0.06142146 0.01063187
v 0.01840174 -0.06142146 0.02332250
v 0.01713319 -0.06174754 0.02459214
v 0.01586465 -0.06195808 0.02459214
v 0.01483638 -0.06212497 0.02459214
v 0.00009440 -0.06327267 0.00850632
v 0.00248488 -0.06314943 0.00829946
v 0.00317311 -0.06316997 0.00829946
v 0.00035707 -0.06305700 0.00829946
v 0.00376768 -0.06314686 0.00829946
v 0.00444369 -0.06311862 0.00829946
v 0.00560635 -0.06296970 0.00829946
v 0.00860769 -0.06254862 0.00829946
v 0.00951990 -0.06246646 0.00836778
v 0.01078641 -0.06234835 0.00850063
v 0.01176174 -0.06225592 0.00862778
v 0.01260676 -0.06217119 0.00879289
v 0.00641065 -0.06347037 0.02528104
v 0.00571224 -0.06352430 0.02557710
v 0.00444369 -0.06362700 0.02584848
v 0.00063603 -0.06338564 0.02638746
v 0.00009440 -0.06273862 0.02695111
v 0.00444369 -0.06345497 0.02648235
v 0.00317311 -0.06343956 0.02646717
v 0.00190457 -0.06341132 0.02643111
v 0.01713319 -0.06146254 0.00936224
v 0.01843431 -0.06115443 0.00929391
v 0.01927526 -0.06102605 0.00966968
v 0.01939743 -0.06107997 0.01063187
v 0.01939947 -0.06107740 0.01190150
v 0.01939539 -0.06107483 0.01317113
v 0.01937707 -0.06106713 0.01697814
v 0.01934653 -0.06105430 0.02332250
v 0.01933024 -0.06104659 0.02459214
v 0.01840174 -0.06140605 0.02459214
v 0.01410946 -0.06221484 0.02528863
v 0.01922436 -0.06100038 0.02543476
v 0.01840174 -0.06115700 0.02569856
v 0.00009440 -0.06304416 0.00829946
v 0.00939977 -0.06239970 0.00829946
v 0.00951990 -0.06237659 0.00829946
v 0.01479973 -0.06131105 0.00829946
v 0.01586465 -0.06120065 0.00838866
v 0.01713319 -0.06106970 0.00852910
v 0.01803115 -0.06097470 0.00864866
v 0.01887820 -0.06088740 0.00882326
v 0.00571224 -0.06339078 0.02621097
v 0.00063603 -0.06275146 0.02695491
v 0.00190457 -0.06277713 0.02696629
v 0.00009440 -0.06155497 0.02754512
v 0.01149296 -0.06220456 0.02651272
v 0.01078641 -0.06227645 0.02659432
v 0.00951990 -0.06240483 0.02672148
v 0.00825136 -0.06252551 0.02681447
v 0.00698078 -0.06263592 0.02686951
v 0.00571224 -0.06275402 0.02690746
v 0.00444369 -0.06282078 0.02693972
v 0.00317311 -0.06280537 0.02696440
v 0.01968657 -0.06074619 0.00929391
v 0.02089606 -0.06027375 0.00936034
v 0.02003068 -0.06080011 0.01063187
v 0.02089606 -0.06042267 0.01183698
v 0.02089606 -0.06042524 0.01310661
v 0.02003272 -0.06080267 0.01190150
v 0.02089606 -0.06042267 0.01443887
v 0.02089606 -0.06041240 0.01697814
v 0.02089606 -0.06039186 0.02205287
v 0.02089606 -0.06038672 0.02326177
v 0.02089606 -0.06037132 0.02459214
v 0.01725740 -0.06129821 0.02598703
v 0.01586465 -0.06163200 0.02585987
v 0.01965603 -0.06067943 0.02585987
v 0.02089606 -0.06021727 0.02580104
v 0.02089606 -0.06020700 0.02585987
v 0.01840174 -0.06084632 0.02633432
v 0.00009440 -0.04346388 0.00829946
v 0.01586465 -0.06109281 0.00829946
v 0.01716374 -0.06079240 0.00829946
v 0.01835083 -0.06051254 0.00829946
v 0.01967231 -0.06016848 0.00829946
v 0.02007752 -0.06005294 0.00829946
v 0.02089606 -0.05989375 0.00842851
v 0.00063603 -0.06155497 0.02755082
v 0.00009440 -0.06028659 0.02768556
v 0.01776441 -0.06092078 0.02649374
v 0.01691736 -0.06100808 0.02659243
v 0.01586465 -0.06111592 0.02670060
v 0.01459407 -0.06124686 0.02680688
v 0.01586465 -0.06028659 0.02725856
v 0.00951990 -0.06155497 0.02724337
v 0.00825136 -0.06155497 0.02736863
v 0.00698078 -0.06155497 0.02745213
v 0.00571224 -0.06155497 0.02750147
v 0.00444369 -0.06155497 0.02753563
v 0.00317311 -0.06155497 0.02755841
v 0.00190457 -0.06155497 0.02756031
v 0.02089606 -0.06040983 0.01058253
v 0.02089606 -0.06041497 0.01063187
v 0.02089606 -0.06042524 0.01317113
v 0.02089606 -0.05987321 0.02665885
v 0.02089606 -0.05985267 0.02669491
v 0.00009440 -0.04355118 0.02205287
v 0.02089606 -0.03786401 0.01063187
v 0.02089606 -0.03822090 0.00931669
v 0.02089606 -0.03826712 0.00923508
v 0.02089606 -0.03895267 0.00834501
v 0.02089606 -0.03901428 0.00829946
v 0.02070262 -0.05979619 0.00829946
v 0.02089606 -0.05986294 0.00840574
v 0.00444369 -0.06028659 0.02768556
v 0.00009440 -0.04759767 0.02768556
v 0.01967231 -0.06006065 0.02685432
v 0.01459407 -0.06028659 0.02739140
v 0.01967231 -0.05901565 0.02741228
v 0.01332553 -0.06028659 0.02747870
v 0.01205699 -0.06028659 0.02753374
v 0.01078641 -0.06028659 0.02757549
v 0.00951990 -0.06028659 0.02761155
v 0.00825136 -0.06028659 0.02764571
v 0.00698078 -0.06028659 0.02767228
v 0.00571224 -0.06028659 0.02768366
v 0.02089606 -0.05905416 0.02715797
v 0.00009440 -0.04358712 0.02332250
v 0.02089606 -0.03837239 0.02459214
v 0.00009440 -0.04362821 0.02459214
v 0.02089606 -0.05971402 0.00829946
v 0.02073317 -0.05978335 0.00829946
v 0.01205699 -0.05901565 0.02768556
v 0.02089606 -0.04256523 0.02768556
v 0.01967231 -0.04251902 0.02768366
v 0.02089606 -0.04129685 0.02765140
v 0.00009440 -0.04632672 0.02760396
v 0.02089606 -0.05901565 0.02717885
v 0.01840174 -0.05901565 0.02752804
v 0.02089606 -0.05779348 0.02756410
v 0.01713319 -0.05901565 0.02759826
v 0.01586465 -0.05901565 0.02764761
v 0.01459407 -0.05901565 0.02767418
v 0.01332553 -0.05901565 0.02768366
v 0.02089606 -0.03854185 0.02576688
v 0.00009440 -0.04373861 0.02585987
v 0.01713319 -0.05774726 0.02768556
v 0.02089606 -0.05647889 0.02768556
v 0.02089606 -0.04125064 0.02764571
v 0.00009440 -0.04559753 0.02743695
v 0.02089606 -0.05774726 0.02757359
v 0.01967231 -0.05774726 0.02764950
v 0.01840174 -0.05774726 0.02768366
v 0.02089606 -0.03860604 0.02591870
v 0.00009440 -0.04412888 0.02679549
v 0.02089606 -0.05652510 0.02768366
v 0.02089606 -0.04002591 0.02732308
v 0.00009440 -0.04505834 0.02730980
v 0.02089606 -0.03904766 0.02674425
v 0.00009440 -0.04452429 0.02701564
v 0.02089606 -0.03998226 0.02730031
v 0.02089606 -0.03906820 0.02676133
f 1 2 7
f 1 7 3
f 1 3 10
f 1 10 18
f 1 18 34
f 1 34 65
f 1 65 93
f 1 93 127
f 1 127 154
f 1 154 175
f 1 175 188
f 1 188 196
f 1 196 198
f 1 198 193
f 1 193 184
f 1 184 168
f 1 168 166
f 1 166 145
f 1 145 119
f 1 119 82
f 1 82 49
f 1 49 27
f 1 27 17
f 1 17 16
f 1 16 8
f 1 8 4
f 1 4 2
f 2 5 6
f 2 6 15
f 2 15 7
f 2 4 8
f 2 8 9
f 2 9 5
f 3 7 11
f 3 11 10
f 5 12 6
f 5 9 13
f 5 13 14
f 5 14 12
f 6 12 20
f 6 20 15
f 7 15 11
f 8 16 9
f 9 16 17
f 9 17 13
f 10 11 18
f 11 15 19
f 11 19 18
f 12 14 21
f 12 21 22
f 12 22 23
f 12 23 24
f 12 24 25
f 12 25 26
f 12 26 20
f 13 17 27
f 13 27 28
f 13 28 29
f 13 29 30
f 13 30 14
f 14 30 31
f 14 31 32
f 14 32 21
f 15 20 33
f 15 33 19
f 18 19 35
f 18 35 34
f 19 33 36
f 19 36 37
f 19 37 35
f 20 38 33
f 20 26 39
f 20 39 38
f 21 32 22
f 22 32 40
f 22 40 41
f 22 41 23
f 23 42 24
f 23 41 43
f 23 43 42
f 24 42 25
f 25 43 44
f 25 44 45
f 25 45 46
f 25 46 47
f 25 47 48
f 25 48 26
f 25 42 43
f 26 48 39
f 27 49 28
f 28 49 29
f 29 49 30
f 30 50 51
f 30 51 31
f 30 49 52
f 30 52 50
f 31 51 53
f 31 53 54
f 31 54 55
f 31 55 32
f 32 55 56
f 32 56 57
f 32 57 58
f 32 58 59
f 32 59 60
f 32 60 41
f 32 41 40
f 33 38 61
f 33 61 62
f 33 62 63
f 33 63 36
f 34 35 37
f 34 37 64
f 34 64 65
f 36 63 66
f 36 66 37
f 37 66 67
f 37 67 68
f 37 68 64
f 38 39 61
f 39 48 61
f 41 60 69
f 41 69 43
f 43 69 70
f 43 70 44
f 44 70 71
f 44 71 72
f 44 72 45
f 45 72 73
f 45 73 74
f 45 74 75
f 45 75 76
f 45 76 77
f 45 77 78
f 45 78 46
f 46 79 47
f 46 78 80
f 46 80 81
f 46 81 79
f 47 79 61
f 47 61 48
f 49 82 52
f 50 52 82
f 50 82 119
f 50 119 150
f 50 150 169
f 50 169 170
f 50 170 151
f 50 151 124
f 50 124 123
f 50 123 122
f 50 122 121
f 50 121 120
f 50 120 85
f 50 85 84
f 50 84 83
f 50 83 56
f 50 56 55
f 50 55 54
f 50 54 53
f 50 53 51
f 56 83 57
f 57 83 84
f 57 84 85
f 57 85 86
f 57 86 58
f 58 86 87
f 58 87 59
f 59 87 88
f 59 88 60
f 60 88 89
f 60 89 69
f 61 79 62
f 62 79 90
f 62 90 63
f 63 90 66
f 64 68 65
f 65 91 92
f 65 92 93
f 65 68 67
f 65 67 91
f 66 90 94
f 66 94 95
f 66 95 96
f 66 96 97
f 66 97 98
f 66 98 99
f 66 99 100
f 66 100 101
f 66 101 92
f 66 92 67
f 67 92 91
f 69 89 70
f 70 89 71
f 71 89 102
f 71 102 103
f 71 103 104
f 71 104 72
f 72 104 105
f 72 105 106
f 72 106 107
f 72 107 73
f 73 107 108
f 73 108 74
f 74 108 109
f 74 109 110
f 74 110 75
f 75 110 76
f 76 110 111
f 76 111 112
f 76 112 77
f 77 80 78
f 77 112 80
f 79 81 113
f 79 113 114
f 79 114 94
f 79 94 90
f 80 115 81
f 80 112 116
f 80 116 117
f 80 117 115
f 81 115 118
f 81 118 113
f 85 120 86
f 86 120 121
f 86 121 87
f 87 121 122
f 87 122 88
f 88 122 123
f 88 123 124
f 88 124 89
f 89 124 125
f 89 125 102
f 92 101 126
f 92 126 93
f 93 126 127
f 94 114 113
f 94 113 128
f 94 128 129
f 94 129 95
f 95 129 130
f 95 130 96
f 96 130 131
f 96 131 97
f 97 131 132
f 97 132 133
f 97 133 134
f 97 134 98
f 98 134 99
f 99 134 135
f 99 135 100
f 100 135 136
f 100 136 137
f 100 137 138
f 100 138 101
f 101 138 139
f 101 139 126
f 102 125 103
f 103 125 152
f 103 152 169
f 103 169 150
f 103 150 149
f 103 149 148
f 103 148 147
f 103 147 146
f 103 146 167
f 103 167 183
f 103 183 192
f 103 192 197
f 103 197 200
f 103 200 199
f 103 199 195
f 103 195 187
f 103 187 174
f 103 174 172
f 103 172 186
f 103 186 194
f 103 194 189
f 103 189 178
f 103 178 176
f 103 176 165
f 103 165 144
f 103 144 143
f 103 143 117
f 103 117 116
f 103 116 112
f 103 112 111
f 103 111 110
f 103 110 109
f 103 109 108
f 103 108 142
f 103 142 106
f 103 106 105
f 103 105 141
f 103 141 140
f 103 140 104
f 104 140 141
f 104 141 105
f 106 142 107
f 107 142 108
f 113 118 128
f 115 117 143
f 115 143 118
f 118 143 144
f 118 144 128
f 119 145 146
f 119 146 147
f 119 147 148
f 119 148 149
f 119 149 150
f 124 151 152
f 124 152 125
f 126 139 127
f 127 139 153
f 127 153 171
f 127 171 185
f 127 185 186
f 127 186 172
f 127 172 154
f 128 144 155
f 128 155 129
f 129 155 130
f 130 155 131
f 131 155 132
f 132 156 133
f 132 155 157
f 132 157 156
f 133 156 134
f 134 156 158
f 134 158 135
f 135 158 159
f 135 159 136
f 136 159 160
f 136 160 161
f 136 161 162
f 136 162 137
f 137 162 163
f 137 163 138
f 138 163 164
f 138 164 153
f 138 153 139
f 144 165 155
f 145 166 146
f 146 166 168
f 146 168 167
f 151 170 152
f 152 170 169
f 153 164 182
f 153 182 171
f 154 172 173
f 154 173 174
f 154 174 175
f 155 165 176
f 155 176 157
f 156 157 177
f 156 177 158
f 157 176 178
f 157 178 177
f 158 177 179
f 158 179 159
f 159 179 180
f 159 180 160
f 160 180 161
f 161 180 162
f 162 180 181
f 162 181 163
f 163 181 164
f 164 181 182
f 167 168 184
f 167 184 183
f 171 182 191
f 171 191 185
f 172 174 173
f 174 187 175
f 175 187 188
f 177 178 189
f 177 189 190
f 177 190 179
f 179 190 180
f 180 190 191
f 180 191 181
f 181 191 182
f 183 184 193
f 183 193 192
f 185 191 186
f 186 191 194
f 187 195 196
f 187 196 188
f 189 194 190
f 190 194 191
f 192 193 197
f 193 198 199
f 193 199 200
f 193 200 197
f 195 199 196
f 196 199 198
