# https://github.com/mikedh/trimesh
v -0.01713372 -0.04378804 0.02768556
v -0.01906755 -0.04378804 0.02768556
v 0.00009440 -0.04759568 0.02768556
v -0.01906755 -0.04252046 0.02767422
v -0.01906755 -0.05647853 0.02768556
v 0.00009440 -0.04632811 0.02760426
v 0.00009440 -0.06028617 0.02768556
v -0.01840168 -0.04252046 0.02766287
v -0.01906755 -0.04125043 0.02741898
v -0.01906755 -0.05774856 0.02767233
v -0.01840168 -0.05774856 0.02768367
v -0.01713372 -0.05774856 0.02768556
v 0.00009440 -0.04559710 0.02743599
v -0.00698066 -0.06028617 0.02768556
v 0.00009440 -0.06155620 0.02754565
v -0.01906755 -0.04015023 0.02681963
v 0.00009440 -0.04505807 0.02730932
v -0.01906755 -0.05901613 0.02738872
v -0.01840168 -0.05901613 0.02746057
v -0.01713372 -0.05901613 0.02756456
v -0.01586389 -0.05901613 0.02764964
v -0.01459405 -0.05901613 0.02768367
v -0.01332609 -0.05901613 0.02768556
v -0.00825050 -0.06028617 0.02768178
v -0.00317303 -0.06155620 0.02751540
v 0.00009440 -0.06274009 0.02695008
v -0.01906755 -0.03953737 0.02621650
v 0.00009440 -0.04452397 0.02701626
v 0.00009440 -0.04412770 0.02679505
v -0.01906755 -0.06000558 0.02680639
v -0.01586389 -0.06028617 0.02723369
v -0.01459405 -0.06028617 0.02741141
v -0.01332609 -0.06028617 0.02751918
v -0.01205626 -0.06028617 0.02758725
v -0.01078642 -0.06028617 0.02763073
v -0.00951846 -0.06028617 0.02766477
v -0.00698066 -0.06155620 0.02747570
v -0.00571270 -0.06155620 0.02748893
v -0.00063524 -0.06272532 0.02694441
v 0.00009440 -0.06337511 0.02636019
v -0.00825050 -0.06155620 0.02745490
v -0.01906755 -0.03908695 0.02562849
v 0.00009440 -0.04373635 0.02586105
v -0.01906755 -0.06066521 0.02601608
v -0.01840168 -0.06073166 0.02621839
v -0.01755388 -0.06085227 0.02640557
v -0.01670795 -0.06098026 0.02656060
v -0.01586389 -0.06110086 0.02667405
v -0.01459405 -0.06127807 0.02681774
v -0.01205626 -0.06155620 0.02708621
v -0.01078642 -0.06155620 0.02728852
v -0.00951846 -0.06155620 0.02740763
v -0.00190507 -0.06270071 0.02693307
v -0.00444287 -0.06265394 0.02690849
v -0.00063524 -0.06336034 0.02632616
v 0.00009440 -0.06370246 0.02572681
v -0.00571270 -0.06262933 0.02689526
v -0.00698066 -0.06260226 0.02688202
v -0.00825050 -0.06256533 0.02686311
v -0.00951846 -0.06252103 0.02683097
v -0.01906755 -0.03881374 0.02459050
v 0.00009440 -0.04362805 0.02459050
v -0.01906755 -0.06103440 0.02542619
v -0.01534245 -0.06222321 0.02528439
v -0.01459405 -0.06191309 0.02609171
v -0.01269211 -0.06219122 0.02649632
v -0.01205626 -0.06227490 0.02658896
v -0.01078642 -0.06242750 0.02674778
v -0.00190507 -0.06333572 0.02624486
v -0.00063524 -0.06366800 0.02569089
v 0.00009440 -0.06395105 0.02459050
v -0.00317303 -0.06331111 0.02613142
v -0.00951846 -0.06294437 0.02586105
v -0.00825050 -0.06304775 0.02586105
v -0.00698066 -0.06314374 0.02586105
v -0.01906755 -0.03884820 0.02332185
v 0.00009440 -0.04358621 0.02332185
v 0.00009440 -0.04355175 0.02205320
v 0.00009440 -0.04354437 0.02078455
v 0.00009440 -0.04348530 0.00837029
v -0.01906755 -0.06115747 0.02459050
v -0.01541185 -0.06224290 0.02459050
v -0.01459405 -0.06245950 0.02459050
v -0.01332609 -0.06268102 0.02459050
v -0.01459405 -0.06231920 0.02545833
v -0.01319855 -0.06238320 0.02588374
v -0.01078642 -0.06279178 0.02586105
v -0.00190507 -0.06360647 0.02560959
v 0.00009440 -0.06395843 0.02332185
v -0.00317303 -0.06354739 0.02549615
v -0.00422154 -0.06349817 0.02536191
v -0.00506747 -0.06345879 0.02512557
v -0.00317303 -0.06364339 0.02459050
v -0.01906755 -0.03931831 0.01001708
v -0.01733630 -0.04029545 0.00837029
v -0.01906755 -0.03963828 0.00899043
v -0.01906755 -0.03953244 0.00920786
v -0.01906755 -0.03943891 0.00947823
v -0.01906755 -0.03932569 0.00994523
v 0.00009440 -0.06312405 0.00837029
v -0.01906755 -0.06116978 0.02332185
v -0.01606271 -0.06206077 0.02332185
v -0.01542686 -0.06224783 0.02332185
v -0.01713372 -0.06174326 0.02332185
v -0.01459405 -0.06246688 0.02332185
v -0.01332609 -0.06268594 0.02332185
v -0.01205626 -0.06280901 0.02332185
v -0.00825050 -0.06316343 0.02459050
v 0.00009440 -0.06395843 0.01443940
v -0.00576147 -0.06340464 0.02332185
v -0.01906755 -0.04006655 0.00837029
v 0.00009440 -0.06327419 0.00850642
v -0.00031825 -0.06310929 0.00837029
v -0.01906755 -0.06116978 0.02205320
v -0.01543811 -0.06225275 0.01443940
v -0.01606834 -0.06206323 0.01824535
v -0.01542873 -0.06225029 0.02205320
v -0.01459405 -0.06246688 0.02078455
v -0.01332609 -0.06268594 0.02205320
v -0.00951846 -0.06304775 0.01951401
v -0.00317303 -0.06364831 0.01443940
v -0.00576147 -0.06340464 0.01824535
v -0.00190507 -0.06376891 0.01443940
v 0.00009440 -0.06395598 0.01063155
v -0.01906755 -0.06019510 0.00837029
v 0.00009440 -0.06348094 0.00869738
v -0.00163310 -0.06305513 0.00837029
v -0.01906755 -0.06116731 0.02078455
v -0.01607209 -0.06206323 0.01443940
v -0.01542873 -0.06225275 0.01317074
v -0.01459405 -0.06246442 0.01317074
v -0.01332609 -0.06268102 0.01824535
v -0.00825050 -0.06316589 0.01697859
v -0.00190507 -0.06376646 0.01190209
v 0.00009440 -0.06385998 0.01007380
v -0.00317303 -0.06364339 0.01063155
v -0.00507872 -0.06345879 0.00999817
v -0.00444287 -0.06349078 0.00981288
v -0.00317303 -0.06354986 0.00954819
v -0.01904504 -0.06020248 0.00837029
v -0.01780522 -0.06093103 0.00871439
v -0.01906755 -0.06051753 0.00896963
v -0.00119044 -0.06345633 0.00873708
v -0.00034450 -0.06347109 0.00870872
v -0.00274538 -0.06300591 0.00837029
v 0.00009440 -0.06360154 0.00900178
v -0.01906755 -0.06115747 0.01951401
v -0.01540622 -0.06225029 0.01190209
v -0.01459405 -0.06246196 0.01190209
v -0.01332609 -0.06266871 0.01063155
v -0.01332609 -0.06267363 0.01317074
v -0.00951846 -0.06303544 0.01063155
v -0.00698066 -0.06328404 0.01443940
v 0.00009440 -0.06371230 0.00931374
v -0.00190507 -0.06361139 0.00942151
v -0.00571646 -0.06339972 0.01063155
v -0.00558516 -0.06335049 0.00948957
v -0.01205626 -0.06279178 0.01063155
v -0.00951846 -0.06297883 0.00936290
v -0.00825050 -0.06309698 0.00936290
v -0.00444287 -0.06339233 0.00917761
v -0.01799654 -0.06052245 0.00837029
v -0.01713372 -0.06102702 0.00859717
v -0.01906755 -0.06069721 0.00936290
v -0.01294345 -0.06225767 0.00863498
v -0.01378939 -0.06214199 0.00882027
v -0.01459405 -0.06202631 0.00906795
v -0.01529743 -0.06221583 0.00993389
v -0.00190507 -0.06344156 0.00878624
v -0.00939467 -0.06260964 0.00837029
v -0.00808356 -0.06269332 0.00837029
v -0.00410149 -0.06293453 0.00837029
v -0.01906755 -0.06113285 0.01824535
v -0.01536308 -0.06223798 0.01063155
v -0.01459405 -0.06244719 0.01063155
v -0.01205626 -0.06266625 0.00936290
v -0.01078642 -0.06284346 0.00936290
v -0.01459405 -0.06231428 0.00970133
v -0.00317303 -0.06341941 0.00891291
v -0.00698066 -0.06321020 0.00936290
v -0.01078642 -0.06249150 0.00837029
v -0.01594642 -0.06114516 0.00837029
v -0.01586389 -0.06120916 0.00840432
v -0.01906755 -0.06083750 0.01045193
v -0.01205626 -0.06236597 0.00849318
v -0.01335048 -0.06242258 0.00929105
v -0.01713372 -0.06157835 0.01063155
v -0.01906755 -0.06085719 0.01063155
v -0.01906755 -0.06109347 0.01697859
v -0.01840168 -0.06129530 0.01570805
v -0.01713372 -0.06167434 0.01317074
v -0.01713372 -0.06162758 0.01190209
v -0.01101525 -0.06246196 0.00837029
v -0.01586389 -0.06116978 0.00837029
v -0.01557879 -0.06125100 0.00837029
v -0.01207501 -0.06221091 0.00837029
v -0.01906755 -0.06088919 0.01144266
v -0.01906755 -0.06104917 0.01570805
v -0.01906755 -0.06100241 0.01443940
v -0.01906755 -0.06092365 0.01235208
f 1 2 5
f 1 5 12
f 1 12 23
f 1 23 14
f 1 14 7
f 1 7 3
f 1 3 4
f 1 4 2
f 2 4 9
f 2 9 16
f 2 16 27
f 2 27 42
f 2 42 61
f 2 61 76
f 2 76 94
f 2 94 99
f 2 99 98
f 2 98 97
f 2 97 96
f 2 96 111
f 2 111 125
f 2 125 142
f 2 142 164
f 2 164 184
f 2 184 188
f 2 188 197
f 2 197 200
f 2 200 199
f 2 199 198
f 2 198 189
f 2 189 173
f 2 173 147
f 2 147 128
f 2 128 114
f 2 114 101
f 2 101 81
f 2 81 63
f 2 63 44
f 2 44 30
f 2 30 18
f 2 18 10
f 2 10 5
f 3 6 4
f 3 7 15
f 3 15 26
f 3 26 40
f 3 40 56
f 3 56 71
f 3 71 89
f 3 89 109
f 3 109 124
f 3 124 135
f 3 135 154
f 3 154 146
f 3 146 126
f 3 126 112
f 3 112 100
f 3 100 80
f 3 80 79
f 3 79 78
f 3 78 77
f 3 77 62
f 3 62 43
f 3 43 29
f 3 29 28
f 3 28 17
f 3 17 13
f 3 13 6
f 4 8 9
f 4 6 8
f 5 10 11
f 5 11 12
f 6 13 9
f 6 9 8
f 7 14 15
f 9 13 17
f 9 17 16
f 10 18 19
f 10 19 20
f 10 20 21
f 10 21 22
f 10 22 11
f 11 22 23
f 11 23 12
f 14 23 22
f 14 22 24
f 14 24 15
f 15 24 25
f 15 25 26
f 16 17 28
f 16 28 29
f 16 29 27
f 18 30 31
f 18 31 32
f 18 32 19
f 19 32 33
f 19 33 20
f 20 33 21
f 21 33 34
f 21 34 35
f 21 35 36
f 21 36 22
f 22 36 24
f 24 36 37
f 24 37 38
f 24 38 25
f 25 38 26
f 26 39 40
f 26 38 37
f 26 37 41
f 26 41 39
f 27 29 42
f 29 43 42
f 30 44 45
f 30 45 46
f 30 46 47
f 30 47 48
f 30 48 49
f 30 49 31
f 31 49 50
f 31 50 51
f 31 51 32
f 32 51 52
f 32 52 33
f 33 52 34
f 34 52 41
f 34 41 35
f 35 41 36
f 36 41 37
f 39 53 54
f 39 54 40
f 39 41 53
f 40 55 56
f 40 54 57
f 40 57 58
f 40 58 59
f 40 59 60
f 40 60 55
f 41 52 59
f 41 59 58
f 41 58 57
f 41 57 54
f 41 54 53
f 42 43 61
f 43 62 61
f 44 63 64
f 44 64 45
f 45 64 65
f 45 65 46
f 46 65 66
f 46 66 47
f 47 66 67
f 47 67 48
f 48 67 49
f 49 67 68
f 49 68 50
f 50 68 51
f 51 68 60
f 51 60 52
f 52 60 59
f 55 69 56
f 55 60 69
f 56 70 71
f 56 69 72
f 56 72 70
f 60 68 73
f 60 73 74
f 60 74 75
f 60 75 72
f 60 72 69
f 61 62 77
f 61 77 78
f 61 78 79
f 61 79 80
f 61 80 76
f 63 81 64
f 64 82 83
f 64 83 84
f 64 84 85
f 64 85 66
f 64 66 65
f 64 81 82
f 66 85 67
f 67 85 86
f 67 86 68
f 68 86 87
f 68 87 73
f 70 88 71
f 70 72 75
f 70 75 88
f 71 88 90
f 71 90 91
f 71 91 92
f 71 92 93
f 71 93 89
f 73 87 84
f 73 84 92
f 73 92 91
f 73 91 74
f 74 91 90
f 74 90 75
f 75 90 88
f 76 80 94
f 80 95 96
f 80 96 97
f 80 97 98
f 80 98 99
f 80 99 94
f 80 100 113
f 80 113 127
f 80 127 145
f 80 145 172
f 80 172 171
f 80 171 170
f 80 170 181
f 80 181 193
f 80 193 196
f 80 196 195
f 80 195 194
f 80 194 182
f 80 182 162
f 80 162 140
f 80 140 125
f 80 125 111
f 80 111 95
f 81 101 82
f 82 102 103
f 82 103 83
f 82 101 104
f 82 104 102
f 83 103 105
f 83 105 84
f 84 87 85
f 84 105 106
f 84 106 107
f 84 107 108
f 84 108 92
f 85 87 86
f 89 93 108
f 89 108 110
f 89 110 122
f 89 122 109
f 92 108 93
f 95 111 96
f 100 112 113
f 101 114 115
f 101 115 116
f 101 116 117
f 101 117 104
f 102 117 103
f 102 104 117
f 103 117 105
f 105 117 115
f 105 115 118
f 105 118 119
f 105 119 106
f 106 119 107
f 107 119 120
f 107 120 121
f 107 121 122
f 107 122 110
f 107 110 108
f 109 122 123
f 109 123 124
f 112 126 127
f 112 127 113
f 114 128 129
f 114 129 115
f 115 129 130
f 115 130 131
f 115 131 118
f 115 117 116
f 118 131 119
f 119 131 132
f 119 132 120
f 120 132 133
f 120 133 134
f 120 134 121
f 121 134 124
f 121 124 123
f 121 123 122
f 124 134 136
f 124 136 137
f 124 137 138
f 124 138 139
f 124 139 135
f 125 140 141
f 125 141 142
f 126 143 144
f 126 144 145
f 126 145 127
f 126 146 143
f 128 147 129
f 129 148 130
f 129 147 148
f 130 148 149
f 130 149 131
f 131 149 150
f 131 150 151
f 131 151 132
f 132 152 133
f 132 151 152
f 133 153 136
f 133 136 134
f 133 152 153
f 135 139 155
f 135 155 154
f 136 153 156
f 136 156 137
f 137 157 138
f 137 156 152
f 137 152 158
f 137 158 150
f 137 150 159
f 137 159 160
f 137 160 157
f 138 157 161
f 138 161 139
f 139 161 155
f 140 162 163
f 140 163 141
f 141 164 142
f 141 163 165
f 141 165 166
f 141 166 167
f 141 167 168
f 141 168 164
f 143 146 154
f 143 154 169
f 143 169 170
f 143 170 171
f 143 171 172
f 143 172 145
f 143 145 144
f 147 173 148
f 148 174 175
f 148 175 149
f 148 173 174
f 149 175 150
f 150 176 177
f 150 177 159
f 150 158 151
f 150 175 178
f 150 178 176
f 151 158 152
f 152 156 153
f 154 155 179
f 154 179 169
f 155 161 179
f 157 180 161
f 157 160 180
f 159 177 181
f 159 181 179
f 159 179 161
f 159 161 160
f 160 161 180
f 162 182 183
f 162 183 163
f 163 183 165
f 164 168 184
f 165 185 186
f 165 186 178
f 165 178 166
f 165 183 185
f 166 178 167
f 167 178 168
f 168 178 175
f 168 175 174
f 168 174 187
f 168 187 188
f 168 188 184
f 169 179 170
f 170 179 181
f 173 189 190
f 173 190 174
f 174 190 191
f 174 191 192
f 174 192 187
f 176 178 186
f 176 186 185
f 176 185 177
f 177 185 193
f 177 193 181
f 182 194 183
f 183 194 195
f 183 195 185
f 185 196 193
f 185 195 196
f 187 192 197
f 187 197 188
f 189 198 190
f 190 198 191
f 191 198 199
f 191 199 192
f 192 199 200
f 192 200 197
