# https://github.com/mikedh/trimesh
v -0.01906755 -0.06019526 0.00837029
v -0.01906755 -0.06016437 0.00831072
v -0.01799654 -0.06052376 0.00837029
v -0.01906755 -0.04006681 0.00837029
v -0.01906755 -0.05972637 0.00795568
v -0.01586389 -0.06045918 0.00776892
v -0.01586389 -0.06116953 0.00837029
v -0.01733630 -0.04029424 0.00837029
v -0.01586389 -0.03444578 0.00571330
v -0.01623715 -0.03490344 0.00571330
v -0.01694428 -0.03607987 0.00571330
v -0.01906755 -0.04017070 0.00822046
v -0.01906755 -0.05931645 0.00762820
v -0.01265085 -0.06090842 0.00746069
v -0.01215942 -0.06146434 0.00777958
v -0.01207501 -0.06221119 0.00837029
v -0.01459405 -0.06139134 0.00825480
v -0.01557879 -0.06125096 0.00837029
v -0.01673421 -0.05971514 0.00742532
v 0.00009440 -0.04348660 0.00837029
v 0.00009440 -0.03780099 0.00571330
v -0.01720688 -0.03744441 0.00571330
v -0.01906755 -0.04142294 0.00729969
v -0.01906755 -0.04106074 0.00747058
v -0.01906755 -0.04047674 0.00790782
v -0.01906755 -0.05898514 0.00746017
v -0.01758014 -0.05954668 0.00748592
v -0.01180492 -0.06097861 0.00743416
v -0.01078642 -0.06106565 0.00740321
v -0.00951846 -0.06180969 0.00762690
v -0.01078642 -0.06170019 0.00770883
v -0.01586389 -0.05982464 0.00737902
v -0.01101525 -0.06246108 0.00837029
v -0.01906755 -0.05868191 0.00735977
v 0.00009440 -0.06312650 0.00837029
v 0.00009440 -0.04702150 0.00571330
v -0.01729503 -0.03871350 0.00571330
v -0.01906755 -0.04252075 0.00711917
v -0.01906755 -0.04188902 0.00717223
v -0.00951846 -0.06117515 0.00736862
v -0.01459405 -0.05995941 0.00734885
v -0.00825050 -0.06187988 0.00758450
v -0.00951846 -0.06255654 0.00826156
v -0.01078642 -0.06248073 0.00834323
v -0.01586389 -0.05901602 0.00726977
v -0.01078642 -0.06249196 0.00837029
v -0.01906755 -0.05823548 0.00730255
v -0.00163310 -0.06305350 0.00837029
v -0.00571270 -0.06271658 0.00818405
v -0.00444287 -0.06275589 0.00817078
v -0.00317303 -0.06278396 0.00815804
v 0.00009440 -0.06287381 0.00814191
v 0.00009440 -0.06142223 0.00734859
v -0.00444287 -0.04702150 0.00571330
v -0.01735881 -0.04125167 0.00571330
v -0.01906755 -0.04312441 0.00711111
v -0.00825050 -0.06124534 0.00735067
v -0.00951846 -0.06028511 0.00725937
v -0.00698066 -0.06190796 0.00756318
v -0.00698066 -0.06266885 0.00819758
v -0.00825050 -0.06261270 0.00821916
v -0.00410149 -0.06293558 0.00837029
v -0.00808356 -0.06269131 0.00837029
v -0.00939467 -0.06260988 0.00837029
v -0.01075453 -0.06249477 0.00837029
v -0.01459405 -0.05901602 0.00723960
v -0.01589015 -0.04450299 0.00571330
v -0.01449652 -0.04489607 0.00571330
v -0.01371248 -0.04508138 0.00571330
v -0.01306912 -0.04523299 0.00571330
v -0.00830489 -0.04635046 0.00571330
v -0.00698066 -0.04665931 0.00571330
v -0.01906755 -0.05774694 0.00725053
v -0.00274538 -0.06300577 0.00837029
v 0.00009440 -0.06248915 0.00783004
v 0.00009440 -0.06178723 0.00742766
v -0.00698066 -0.06127342 0.00734859
v -0.00575584 -0.04690638 0.00571330
v -0.00825050 -0.06028511 0.00724142
v -0.01906755 -0.04378983 0.00711163
v -0.01715061 -0.04260217 0.00571330
v -0.01906755 -0.05708432 0.00723934
v 0.00009440 -0.06205677 0.00749139
v -0.01672483 -0.04378422 0.00571330
v -0.01687676 -0.04353994 0.00571330
f 1 2 3
f 1 3 7
f 1 7 18
f 1 18 16
f 1 16 33
f 1 33 46
f 1 46 65
f 1 65 64
f 1 64 63
f 1 63 62
f 1 62 74
f 1 74 48
f 1 48 35
f 1 35 20
f 1 20 8
f 1 8 4
f 1 4 12
f 1 12 25
f 1 25 24
f 1 24 23
f 1 23 39
f 1 39 38
f 1 38 56
f 1 56 80
f 1 80 82
f 1 82 73
f 1 73 47
f 1 47 34
f 1 34 26
f 1 26 13
f 1 13 5
f 1 5 2
f 2 5 6
f 2 6 7
f 2 7 3
f 4 8 9
f 4 9 10
f 4 10 11
f 4 11 12
f 5 13 6
f 6 14 15
f 6 15 16
f 6 16 17
f 6 17 18
f 6 18 7
f 6 13 19
f 6 19 14
f 8 20 9
f 9 21 36
f 9 36 54
f 9 54 78
f 9 78 72
f 9 72 71
f 9 71 70
f 9 70 69
f 9 69 68
f 9 68 67
f 9 67 84
f 9 84 85
f 9 85 81
f 9 81 55
f 9 55 37
f 9 37 22
f 9 22 11
f 9 11 10
f 9 20 21
f 11 22 23
f 11 23 24
f 11 24 25
f 11 25 12
f 13 26 27
f 13 27 19
f 14 28 29
f 14 29 30
f 14 30 31
f 14 31 15
f 14 19 32
f 14 32 28
f 15 31 33
f 15 33 16
f 16 18 17
f 19 27 26
f 19 26 34
f 19 34 32
f 20 35 52
f 20 52 75
f 20 75 83
f 20 83 76
f 20 76 53
f 20 53 36
f 20 36 21
f 22 37 38
f 22 38 39
f 22 39 23
f 28 32 29
f 29 40 30
f 29 32 41
f 29 41 40
f 30 40 42
f 30 42 43
f 30 43 44
f 30 44 31
f 31 44 33
f 32 34 45
f 32 45 41
f 33 44 46
f 34 47 45
f 35 48 49
f 35 49 50
f 35 50 51
f 35 51 52
f 36 53 54
f 37 55 38
f 38 55 56
f 40 57 42
f 40 41 58
f 40 58 57
f 41 45 58
f 42 57 59
f 42 59 50
f 42 50 49
f 42 49 60
f 42 60 61
f 42 61 43
f 43 61 62
f 43 62 63
f 43 63 64
f 43 64 65
f 43 65 44
f 44 65 46
f 45 66 58
f 45 47 67
f 45 67 68
f 45 68 69
f 45 69 70
f 45 70 71
f 45 71 72
f 45 72 66
f 47 73 67
f 48 74 49
f 49 74 60
f 50 75 51
f 50 59 75
f 51 75 52
f 53 76 77
f 53 77 54
f 54 77 57
f 54 57 79
f 54 79 78
f 55 80 56
f 55 81 73
f 55 73 82
f 55 82 80
f 57 77 83
f 57 83 59
f 57 58 79
f 58 66 72
f 58 72 78
f 58 78 79
f 59 83 75
f 60 74 62
f 60 62 61
f 67 73 84
f 73 81 85
f 73 85 84
f 76 83 77
