# https://github.com/mikedh/trimesh
v -0.05923882 0.02347223 0.01063178
v -0.05839566 0.02541435 0.00995931
v -0.05902646 0.02347223 0.00936090
v -0.05922320 0.02347223 0.02332255
v -0.05577250 0.03156497 0.01063178
v -0.05718713 0.02809522 0.00976318
v -0.05594738 0.03070255 0.00936290
v -0.05584745 0.03046856 0.00872246
v -0.05843313 0.02423437 0.00864641
v -0.05859864 0.02347223 0.00846028
v -0.05921071 0.02347223 0.02459143
v -0.05838629 0.02539764 0.02433925
v -0.05720899 0.02814536 0.02332255
v -0.05576001 0.03153489 0.01951392
v -0.05533843 0.03236723 0.02332255
v -0.05534155 0.03236723 0.02205367
v -0.05534155 0.03236723 0.01063178
v -0.05566945 0.03133767 0.00936290
v -0.05502303 0.03245414 0.00929686
v -0.05452650 0.03293883 0.00883053
v -0.05481068 0.03209312 0.00845828
v -0.05598173 0.02982675 0.00854434
v -0.05722773 0.02692861 0.00855835
v -0.05788352 0.02348225 0.00782784
v -0.05788352 0.02347223 0.00782584
v -0.05625029 0.02855986 0.00826014
v -0.05895152 0.02347223 0.02586030
v -0.05838004 0.02538427 0.02518584
v -0.05574752 0.03150815 0.02459143
v -0.05575376 0.03152152 0.02332255
v -0.05532594 0.03236723 0.02459143
v -0.05478882 0.03328648 0.02459143
v -0.05479506 0.03329316 0.02332255
v -0.05479506 0.03329316 0.02205367
v -0.05478257 0.03327311 0.01190066
v -0.05477945 0.03326976 0.01063178
v -0.05471075 0.03317951 0.00967712
v -0.05336482 0.03434947 0.00865041
v -0.05072605 0.03802312 0.00883654
v -0.04956124 0.03943041 0.00864240
v -0.05419236 0.03109699 0.00760769
v -0.05522601 0.03097331 0.00833619
v -0.05220313 0.03576344 0.00853633
v -0.05363338 0.03363412 0.00841625
v -0.05267155 0.03368761 0.00773778
v -0.05309626 0.03267142 0.00754565
v -0.05712467 0.02414411 0.00745158
v -0.05724959 0.02347223 0.00739955
v -0.05571317 0.02773420 0.00749962
v -0.05549145 0.02855986 0.00762570
v -0.05716840 0.02805845 0.02538798
v -0.05854868 0.02347223 0.02665685
v -0.05839878 0.02415414 0.02651676
v -0.05580061 0.03038165 0.02640268
v -0.05595675 0.03072929 0.02555609
v -0.05471387 0.03318285 0.02548004
v -0.05203450 0.03680971 0.02522186
v -0.05430166 0.03392160 0.02459143
v -0.05431103 0.03392828 0.02332255
v -0.05431103 0.03392828 0.02205367
v -0.05431103 0.03392494 0.02078279
v -0.05318057 0.03537568 0.01444041
v -0.04932703 0.04039312 0.01063178
v -0.05255601 0.03617459 0.01063178
v -0.05204699 0.03682308 0.00996732
v -0.04690061 0.04307733 0.00889658
v -0.04839643 0.04083102 0.00853233
v -0.05336794 0.03182571 0.00743757
v -0.05442345 0.03021785 0.00750362
v -0.05264345 0.03482748 0.00833219
v -0.04883675 0.03990508 0.00832218
v -0.05048247 0.03642196 0.00760769
v -0.05079475 0.03557625 0.00744758
v -0.05225310 0.03329985 0.00738554
v -0.05724646 0.02348225 0.00739955
v -0.05593177 0.02688849 0.00741756
v -0.05647825 0.02347223 0.00728947
v -0.05617534 0.02990698 0.02593235
v -0.05854243 0.02347223 0.02666486
v -0.05719338 0.02684838 0.02659281
v -0.05598797 0.02953594 0.02665685
v -0.05476384 0.03201624 0.02667687
v -0.05498555 0.03241068 0.02588632
v -0.05563822 0.03113042 0.02593235
v -0.05446717 0.03286529 0.02632662
v -0.04950815 0.03936021 0.02650675
v -0.04685064 0.04301716 0.02619653
v -0.04700054 0.04320435 0.02534995
v -0.04589507 0.04468518 0.02459143
v -0.04653212 0.04387290 0.02459143
v -0.04702865 0.04323778 0.02459143
v -0.05244359 0.03630162 0.02471551
v -0.05318369 0.03538237 0.02332255
v -0.05367710 0.03474725 0.02332255
v -0.05204699 0.03681974 0.02437728
v -0.05367710 0.03475394 0.02205367
v -0.05318994 0.03538905 0.02078279
v -0.05206573 0.03684648 0.02078279
v -0.05157857 0.03748160 0.01824504
v -0.04659770 0.04394978 0.01063178
v -0.04704114 0.04326118 0.00974116
v -0.04653837 0.04372582 0.00933688
v -0.04570770 0.04443782 0.00870445
v -0.04722538 0.04223162 0.00845027
v -0.05355531 0.03109699 0.00738754
v -0.05465766 0.02937214 0.00742757
v -0.04753766 0.04117532 0.00806801
v -0.04786243 0.03998196 0.00765172
v -0.04700679 0.04067391 0.00743957
v -0.04963619 0.03699356 0.00740355
v -0.05145366 0.03368761 0.00732750
v -0.05267155 0.03229703 0.00735952
v -0.04886798 0.03742812 0.00733950
v -0.05605355 0.02601939 0.00737353
v -0.05485752 0.02855986 0.00738153
v -0.05525724 0.02730299 0.00734751
v -0.05521039 0.02475249 0.00723944
v -0.05521039 0.02347223 0.00723944
v -0.05521039 0.02601939 0.00726345
v -0.05775548 0.02347223 0.02721524
v -0.05777422 0.02464552 0.02686499
v -0.05736513 0.02601939 0.02675492
v -0.05500117 0.03109699 0.02684098
v -0.05619096 0.02855986 0.02682697
v -0.05400187 0.03241068 0.02695906
v -0.05140682 0.03613782 0.02687700
v -0.05098524 0.03710387 0.02668487
v -0.05214692 0.03568990 0.02660282
v -0.05330861 0.03427593 0.02650074
v -0.04834647 0.04076751 0.02660882
v -0.04564524 0.04437765 0.02641268
v -0.04582324 0.04459159 0.02556610
v -0.04590756 0.04469855 0.02332255
v -0.04534858 0.04532030 0.02459143
v -0.04929893 0.04035969 0.02332255
v -0.05256538 0.03617459 0.02332255
v -0.05045436 0.03894238 0.01697816
v -0.04981107 0.03974797 0.01951392
v -0.04932703 0.04039646 0.01697816
v -0.04982043 0.03976134 0.01697816
v -0.04659145 0.04394978 0.01190066
v -0.04594815 0.04472195 0.01444041
v -0.04595752 0.04472195 0.01190066
v -0.04596064 0.04472195 0.01063178
v -0.04583886 0.04458490 0.00936290
v -0.04502693 0.04528019 0.00930686
v -0.04435240 0.04563452 0.00884454
v -0.03942461 0.04955888 0.00864841
v -0.04078616 0.04836887 0.00856835
v -0.04214770 0.04717551 0.00850231
v -0.04350612 0.04598216 0.00844627
v -0.04505503 0.04470858 0.00846828
v -0.04597938 0.04378599 0.00846428
v -0.04661643 0.04151962 0.00760369
v -0.05267155 0.03109699 0.00727946
v -0.05397689 0.02980670 0.00735351
v -0.04624482 0.04115860 0.00738754
v -0.04722850 0.03998196 0.00738954
v -0.04844640 0.03839082 0.00738554
v -0.04537044 0.04282663 0.00755365
v -0.04577016 0.04198092 0.00743357
v -0.05140057 0.03236723 0.00724144
v -0.04886173 0.03617459 0.00725345
v -0.04632601 0.03998196 0.00728146
v -0.05267155 0.02982675 0.00723944
v -0.04251931 0.02347223 0.00723944
v -0.05774611 0.02347223 0.02721924
v -0.05647825 0.02601939 0.02732531
v -0.05393941 0.03109699 0.02739736
v -0.05521039 0.02855986 0.02739136
v -0.05267155 0.03363412 0.02719723
v -0.05019829 0.03749163 0.02698708
v -0.04760012 0.04121209 0.02688501
v -0.04718166 0.04217145 0.02668887
v -0.04479896 0.04472864 0.02672690
v -0.04343742 0.04592533 0.02668887
v -0.04207900 0.04711869 0.02663083
v -0.04071746 0.04831204 0.02657279
v -0.03935903 0.04950540 0.02650475
v -0.04428370 0.04557769 0.02633663
v -0.04461159 0.04585179 0.02549005
v -0.04600437 0.04353194 0.02673291
v -0.04535794 0.04533367 0.02332255
v -0.04591381 0.04470524 0.02205367
v -0.04656022 0.04390967 0.01951392
v -0.04471465 0.04593871 0.02459143
v -0.04658833 0.04394310 0.01316953
v -0.04592317 0.04471861 0.01951392
v -0.04593566 0.04472195 0.01697816
v -0.04535794 0.04534036 0.02205367
v -0.04535794 0.04534704 0.02078279
v -0.04535482 0.04535039 0.01951392
v -0.04534858 0.04535373 0.01824504
v -0.04533608 0.04535707 0.01570929
v -0.04532984 0.04535707 0.01444041
v -0.04530798 0.04535707 0.01063178
v -0.04458661 0.04582171 0.00969113
v -0.03805995 0.05075224 0.00877249
v -0.03445311 0.05344982 0.00854634
v -0.03583339 0.05226983 0.00847029
v -0.03721367 0.05108651 0.00841425
v -0.03990240 0.04882014 0.00834620
v -0.04113903 0.04749976 0.00811204
v -0.04148879 0.04661059 0.00765572
v -0.04282535 0.04535707 0.00759968
v -0.04498945 0.04372248 0.00781583
v -0.04498945 0.04244890 0.00738354
v -0.04410570 0.04410355 0.00755766
v -0.04326254 0.04451136 0.00742957
v -0.04452416 0.04325450 0.00743157
v -0.04759387 0.03744483 0.00723944
v -0.04505503 0.04124886 0.00727546
v -0.04125145 0.02348225 0.00723944
v -0.04124209 0.02347223 0.00724144
v -0.05649074 0.02347223 0.02764353
v -0.05647825 0.02475249 0.02753546
v -0.05393941 0.02982675 0.02756548
v -0.05267155 0.03236723 0.02753146
v -0.05140057 0.03490436 0.02734533
v -0.05521039 0.02728962 0.02757349
v -0.04886173 0.03871173 0.02721123
v -0.04638535 0.04256255 0.02696507
v -0.04759387 0.03998196 0.02735734
v -0.04515496 0.04388627 0.02698708
v -0.04383089 0.04511305 0.02696106
v -0.04250994 0.04633983 0.02690302
v -0.04118588 0.04756327 0.02681897
v -0.03715121 0.05104640 0.02670689
v -0.03578654 0.05222638 0.02666286
v -0.03440626 0.05340970 0.02660282
v -0.03799749 0.05069541 0.02633663
v -0.04323756 0.04702509 0.02534595
v -0.04472401 0.04594539 0.02332255
v -0.04592005 0.04471192 0.02078279
v -0.04392145 0.04657382 0.02459143
v -0.04472401 0.04593871 0.02205367
v -0.04471777 0.04592868 0.01951392
v -0.04470840 0.04591865 0.01697816
v -0.04468654 0.04590194 0.01316953
v -0.04467405 0.04588856 0.01063178
v -0.04320945 0.04700169 0.00988326
v -0.03822233 0.05088260 0.00961908
v -0.03466546 0.05362030 0.00936290
v -0.03364430 0.05429887 0.00927284
v -0.03293855 0.05454289 0.00879051
v -0.03363493 0.05371055 0.00832619
v -0.03488718 0.05268433 0.00821811
v -0.03878132 0.04888365 0.00771977
v -0.03998047 0.04785409 0.00767574
v -0.04064251 0.04698164 0.00744958
v -0.04197907 0.04576488 0.00742957
v -0.04372472 0.04372248 0.00738153
v -0.04245061 0.04498269 0.00737953
v -0.04251931 0.04378599 0.00727346
v -0.04125145 0.04505623 0.00727346
v -0.04125145 0.04378599 0.00723944
v -0.03998047 0.02475249 0.00724144
v -0.03988679 0.02347223 0.00732349
v -0.02733623 0.03871173 0.00723944
v -0.05647825 0.02347223 0.02764554
v -0.05267155 0.03109699 0.02764554
v -0.05140057 0.03363412 0.02760551
v -0.04886173 0.03744483 0.02756148
v -0.05013271 0.03617459 0.02747342
v -0.05521039 0.02601939 0.02765955
v -0.05393941 0.02855986 0.02765354
v -0.04632601 0.04124886 0.02745740
v -0.04251931 0.04505623 0.02746341
v -0.04125145 0.04632312 0.02740137
v -0.04505503 0.04251575 0.02749543
v -0.04378717 0.04378599 0.02749343
v -0.03998047 0.04759336 0.02730330
v -0.03871261 0.04886359 0.02718722
v -0.03619563 0.05144084 0.02692704
v -0.03485907 0.05265759 0.02684498
v -0.03363493 0.05363367 0.02676893
v -0.03198609 0.05469665 0.02662083
v -0.03283237 0.05448606 0.02633263
v -0.03316963 0.05470334 0.02548604
v -0.03459363 0.05355344 0.02586030
v -0.03663283 0.05189211 0.02607245
v -0.03680770 0.05203584 0.02522586
v -0.04393394 0.04657717 0.02332255
v -0.04393394 0.04657382 0.02205367
v -0.04328752 0.04706520 0.02459143
v -0.04330001 0.04707523 0.02332255
v -0.04392145 0.04656380 0.01951392
v -0.04327503 0.04705518 0.01697816
v -0.04324068 0.04702843 0.01063178
v -0.03684205 0.05206259 0.00990728
v -0.03397844 0.05435235 0.01063178
v -0.03322897 0.05472340 0.00963709
v -0.03245451 0.05497076 0.00927284
v -0.03036223 0.05579642 0.00885055
v -0.02951595 0.05599698 0.00853633
v -0.03209227 0.05474680 0.00851632
v -0.03109609 0.05498413 0.00829617
v -0.03109609 0.05416182 0.00766173
v -0.03265437 0.05310552 0.00752964
v -0.03372862 0.05267765 0.00765372
v -0.03490591 0.05172831 0.00759168
v -0.03647356 0.05051156 0.00756966
v -0.03786946 0.04932155 0.00752363
v -0.03562728 0.05083580 0.00743557
v -0.03702318 0.04966585 0.00740355
v -0.03840346 0.04847584 0.00738554
v -0.04113903 0.04624289 0.00739154
v -0.03998047 0.04632312 0.00728747
v -0.03998047 0.04505623 0.00723944
v -0.03617377 0.04886359 0.00725345
v -0.03744163 0.04759336 0.00723944
v -0.02733623 0.03733452 0.00731749
v -0.03969942 0.02347223 0.00734351
v -0.02733623 0.05267096 0.00723944
v -0.05521039 0.02347223 0.02768556
v -0.05521039 0.02475249 0.02768556
v -0.05140057 0.03236723 0.02768356
v -0.05013271 0.03490436 0.02763953
v -0.04759387 0.03871173 0.02760951
v -0.05393941 0.02728962 0.02768556
v -0.03998047 0.04632312 0.02763153
v -0.03871261 0.04759336 0.02759350
v -0.03744163 0.04886359 0.02755547
v -0.03617377 0.05013049 0.02749143
v -0.03490591 0.05140073 0.02740537
v -0.04632601 0.03998196 0.02764353
v -0.04505503 0.04124886 0.02764954
v -0.04251931 0.04378599 0.02765154
v -0.04125145 0.04505623 0.02764954
v -0.03363493 0.05267096 0.02729529
v -0.03239205 0.05401474 0.02692704
v -0.03109609 0.05490390 0.02678694
v -0.02855725 0.05614406 0.02677493
v -0.02940978 0.05594684 0.02660282
v -0.03025293 0.05573624 0.02632662
v -0.03114918 0.05556576 0.02588632
v -0.03239205 0.05494402 0.02589032
v -0.03076195 0.05597358 0.02548004
v -0.03155827 0.05576633 0.02459143
v -0.03236707 0.05533177 0.02459143
v -0.03326332 0.05477688 0.02459143
v -0.04119837 0.04867640 0.02459143
v -0.04183230 0.04818836 0.02459143
v -0.04330001 0.04707523 0.02205367
v -0.04329377 0.04707189 0.02078279
v -0.04184479 0.04819839 0.02332255
v -0.04185416 0.04820173 0.02205367
v -0.04040830 0.04933492 0.01951392
v -0.04185728 0.04820507 0.02078279
v -0.04119837 0.04868977 0.01570929
v -0.04182605 0.04818168 0.01444041
v -0.03831290 0.05095280 0.01316953
v -0.03542742 0.05321583 0.01063178
v -0.03479037 0.05371724 0.01063178
v -0.03397844 0.05434901 0.01190066
v -0.03334451 0.05480362 0.01190066
v -0.03334451 0.05480362 0.01063178
v -0.03687953 0.05209267 0.01444041
v -0.03543054 0.05322251 0.01316953
v -0.03236707 0.05531172 0.01063178
v -0.03069637 0.05594684 0.00969713
v -0.02778592 0.05704660 0.00894061
v -0.02855725 0.05622762 0.00831418
v -0.02733623 0.05648836 0.00804399
v -0.02855725 0.05544877 0.00767974
v -0.02769848 0.05566939 0.00752363
v -0.03019985 0.05440584 0.00751763
v -0.03180809 0.05334285 0.00744358
v -0.03336949 0.05225981 0.00738754
v -0.03421578 0.05198236 0.00747160
v -0.02935356 0.05464317 0.00742757
v -0.03609883 0.05010709 0.00736752
v -0.03744475 0.04888365 0.00733750
v -0.03490591 0.05013049 0.00727746
v -0.03236707 0.05140073 0.00724144
v -0.02982823 0.05267096 0.00723944
v -0.02733623 0.03693339 0.00735752
v -0.03914356 0.02373964 0.00738954
v -0.03882191 0.02347223 0.00760169
v -0.02733623 0.05394120 0.00724144
v -0.04125145 0.02347223 0.02768556
v -0.05013271 0.03363412 0.02768556
v -0.04759387 0.03744483 0.02768356
v -0.04886173 0.03617459 0.02767155
v -0.03617377 0.04886359 0.02767155
v -0.03363493 0.05140073 0.02761751
v -0.03236707 0.05267096 0.02753346
v -0.04632601 0.03871173 0.02768556
v -0.04125145 0.04378599 0.02768556
v -0.03998047 0.04505623 0.02768556
v -0.03871261 0.04632312 0.02768556
v -0.03744163 0.04759336 0.02768356
v -0.03109609 0.05394120 0.02733932
v -0.02855725 0.05520809 0.02733732
v -0.02733623 0.05646162 0.02695106
v -0.02733623 0.05651176 0.02692104
v -0.02733623 0.05707334 0.02638266
v -0.02767662 0.05698977 0.02624657
v -0.02733623 0.05729730 0.02590834
v -0.02733623 0.05734410 0.02580226
v -0.02808883 0.05718364 0.02539998
v -0.03236707 0.05534849 0.02332255
v -0.03092434 0.05604377 0.02459143
v -0.03093058 0.05605046 0.02332255
v -0.03156451 0.05576967 0.02332255
v -0.03327581 0.05478691 0.02332255
v -0.03391286 0.05429887 0.02332255
v -0.04038644 0.04932155 0.02332255
v -0.04040830 0.04933492 0.01824504
v -0.04185416 0.04820173 0.01951392
v -0.03687640 0.05208933 0.01570929
v -0.03687640 0.05208933 0.01316953
v -0.03397220 0.05434567 0.01316953
v -0.03330079 0.05479694 0.01951392
v -0.03333827 0.05480362 0.01316953
v -0.03236707 0.05534514 0.02078279
v -0.03236707 0.05532174 0.01190066
v -0.03151142 0.05574627 0.01697816
v -0.03146458 0.05572622 0.01190066
v -0.03145209 0.05571953 0.01063178
v -0.02805448 0.05717028 0.00978720
v -0.02733623 0.05737084 0.00935890
v -0.02733623 0.05651510 0.00807601
v -0.02733623 0.05644824 0.00801197
v -0.02733623 0.05529166 0.00736953
v -0.02733623 0.05521143 0.00734551
v -0.03109609 0.05352670 0.00739354
v -0.02979700 0.05396460 0.00735351
v -0.03228588 0.05267765 0.00736352
v -0.03109609 0.05267096 0.00728347
v -0.03372862 0.05149432 0.00732950
v -0.02855725 0.05481365 0.00738153
v -0.02855725 0.05394120 0.00727146
v -0.02733623 0.03634507 0.00748961
v -0.02750799 0.03654564 0.00738754
v -0.02733623 0.03606428 0.00757567
v -0.03868451 0.02347223 0.00765973
v -0.03999296 0.02347223 0.02764754
v -0.03998047 0.02475249 0.02768356
v -0.02733623 0.03871173 0.02768556
v -0.03236707 0.05140073 0.02768356
v -0.03109609 0.05267096 0.02764153
v -0.02982823 0.05394120 0.02755347
v -0.03363493 0.05013049 0.02768556
v -0.02733623 0.05520809 0.02755547
v -0.02733623 0.05758477 0.02463946
v -0.02733623 0.05759146 0.02459143
v -0.02881956 0.05695300 0.02459143
v -0.03332890 0.05480362 0.01444041
v -0.03328518 0.05479025 0.02205367
v -0.02820125 0.05723379 0.02332255
v -0.02883518 0.05695968 0.02332255
v -0.02821062 0.05723713 0.02078279
v -0.02733623 0.05761820 0.01958196
v -0.02884455 0.05695968 0.02078279
v -0.03155514 0.05576633 0.02205367
v -0.03395033 0.05432895 0.01697816
v -0.03475290 0.05367712 0.02078279
v -0.03153328 0.05575630 0.01951392
v -0.03086500 0.05602372 0.01570929
v -0.02813567 0.05720704 0.01190066
v -0.02875711 0.05691957 0.01063178
v -0.02733623 0.05755134 0.01063178
v -0.02733623 0.03504475 0.00821411
v -0.03770707 0.02347223 0.00835421
v -0.02733623 0.03491439 0.00829617
v -0.03998047 0.02347223 0.02764554
v -0.02733623 0.03739469 0.02762352
v -0.02733623 0.03744483 0.02762752
v -0.02733623 0.03866493 0.02768356
v -0.02733623 0.05389106 0.02768556
v -0.02733623 0.05394120 0.02768356
v -0.02855725 0.05394120 0.02765354
v -0.02733623 0.05516129 0.02756748
v -0.02733623 0.05760483 0.02339059
v -0.02733623 0.05761152 0.02211972
v -0.02733623 0.05761152 0.01824504
v -0.02820125 0.05723713 0.01951392
v -0.03090872 0.05604377 0.02078279
v -0.03088686 0.05603375 0.01824504
v -0.03709812 0.02347223 0.00930286
v -0.02733623 0.03428261 0.00936290
v -0.03872510 0.02347223 0.02732531
v -0.02733623 0.03617459 0.02736934
v -0.03709500 0.02347223 0.00931487
v -0.02733623 0.03414222 0.01015745
v -0.03681707 0.02347223 0.01063178
v -0.03708563 0.02347223 0.00935690
v -0.03871261 0.02347223 0.02731931
v -0.02733623 0.03612445 0.02735534
v -0.02733623 0.03407536 0.01063178
v -0.03676086 0.02347223 0.02459143
v -0.03775079 0.02347223 0.02676293
v -0.02733623 0.03495450 0.02679495
v -0.02733623 0.03549268 0.02705313
v -0.02733623 0.03405196 0.02422317
v -0.03681707 0.02347223 0.02501572
v -0.02733623 0.03405196 0.02459143
v -0.03709812 0.02347223 0.02589833
v -0.02733623 0.03493779 0.02678494
v -0.03709500 0.02347223 0.02589032
v -0.02733623 0.03431270 0.02586030
v -0.02733623 0.03442969 0.02610647
f 1 2 3
f 1 3 10
f 1 10 25
f 1 25 48
f 1 48 77
f 1 77 118
f 1 118 166
f 1 166 214
f 1 214 258
f 1 258 313
f 1 313 379
f 1 379 437
f 1 437 465
f 1 465 481
f 1 481 485
f 1 485 488
f 1 488 487
f 1 487 492
f 1 492 497
f 1 497 501
f 1 501 499
f 1 499 493
f 1 493 489
f 1 489 483
f 1 483 467
f 1 467 438
f 1 438 381
f 1 381 315
f 1 315 260
f 1 260 215
f 1 215 167
f 1 167 120
f 1 120 79
f 1 79 52
f 1 52 27
f 1 27 11
f 1 11 4
f 1 4 5
f 1 5 2
f 2 6 7
f 2 7 8
f 2 8 3
f 2 5 6
f 3 9 10
f 3 8 9
f 4 11 12
f 4 12 13
f 4 13 14
f 4 14 5
f 5 14 15
f 5 15 16
f 5 16 17
f 5 17 18
f 5 18 6
f 6 18 7
f 7 18 8
f 8 18 19
f 8 19 20
f 8 20 21
f 8 21 22
f 8 22 23
f 8 23 9
f 9 23 10
f 10 24 25
f 10 23 26
f 10 26 24
f 11 27 28
f 11 28 12
f 12 28 29
f 12 29 30
f 12 30 13
f 13 30 14
f 14 30 15
f 15 31 32
f 15 32 33
f 15 33 16
f 15 30 31
f 16 33 34
f 16 34 17
f 17 34 35
f 17 35 36
f 17 36 37
f 17 37 18
f 18 37 19
f 19 37 20
f 20 38 21
f 20 37 39
f 20 39 40
f 20 40 38
f 21 41 42
f 21 42 22
f 21 38 43
f 21 43 44
f 21 44 45
f 21 45 46
f 21 46 41
f 22 42 26
f 22 26 23
f 24 47 48
f 24 48 25
f 24 26 49
f 24 49 47
f 26 50 49
f 26 42 50
f 27 51 28
f 27 52 53
f 27 53 54
f 27 54 51
f 28 51 29
f 29 55 31
f 29 31 30
f 29 51 55
f 31 55 56
f 31 56 32
f 32 56 57
f 32 57 58
f 32 58 59
f 32 59 33
f 33 59 60
f 33 60 34
f 34 60 61
f 34 61 35
f 35 61 62
f 35 62 63
f 35 63 64
f 35 64 36
f 36 64 65
f 36 65 37
f 37 65 39
f 38 40 43
f 39 65 66
f 39 66 40
f 40 66 67
f 40 67 43
f 41 46 68
f 41 68 69
f 41 69 49
f 41 49 50
f 41 50 42
f 43 70 44
f 43 67 71
f 43 71 70
f 44 70 45
f 45 70 72
f 45 72 46
f 46 73 74
f 46 74 68
f 46 72 73
f 47 75 48
f 47 49 76
f 47 76 75
f 48 75 77
f 49 69 76
f 51 54 78
f 51 78 55
f 52 79 53
f 53 79 80
f 53 80 54
f 54 55 78
f 54 80 81
f 54 81 82
f 54 82 83
f 54 83 84
f 54 84 55
f 55 84 56
f 56 84 83
f 56 83 85
f 56 85 86
f 56 86 87
f 56 87 57
f 57 87 88
f 57 88 89
f 57 89 90
f 57 90 91
f 57 91 92
f 57 92 58
f 58 93 94
f 58 94 59
f 58 92 95
f 58 95 93
f 59 96 97
f 59 97 60
f 59 94 98
f 59 98 96
f 60 97 61
f 61 97 63
f 61 63 62
f 63 99 100
f 63 100 65
f 63 65 64
f 63 97 99
f 65 100 101
f 65 101 66
f 66 101 102
f 66 102 103
f 66 103 67
f 67 103 104
f 67 104 71
f 68 105 106
f 68 106 69
f 68 74 105
f 69 106 76
f 70 71 72
f 71 104 107
f 71 107 72
f 72 107 108
f 72 108 109
f 72 109 73
f 73 109 110
f 73 110 74
f 74 111 112
f 74 112 105
f 74 110 113
f 74 113 111
f 75 76 114
f 75 114 77
f 76 106 105
f 76 105 115
f 76 115 116
f 76 116 114
f 77 117 118
f 77 114 119
f 77 119 117
f 79 120 121
f 79 121 122
f 79 122 81
f 79 81 80
f 81 123 82
f 81 122 124
f 81 124 123
f 82 123 125
f 82 125 126
f 82 126 127
f 82 127 128
f 82 128 129
f 82 129 85
f 82 85 83
f 85 129 86
f 86 130 87
f 86 129 128
f 86 128 130
f 87 131 132
f 87 132 88
f 87 130 131
f 88 132 89
f 89 133 90
f 89 132 134
f 89 134 133
f 90 133 91
f 91 133 135
f 91 135 95
f 91 95 92
f 93 136 98
f 93 98 94
f 93 95 136
f 95 135 136
f 96 98 97
f 97 98 137
f 97 137 99
f 98 135 138
f 98 138 139
f 98 139 140
f 98 140 100
f 98 100 137
f 98 136 135
f 99 137 100
f 100 141 189
f 100 189 142
f 100 142 143
f 100 143 144
f 100 144 101
f 100 140 139
f 100 139 141
f 101 144 145
f 101 145 102
f 102 145 103
f 103 145 146
f 103 146 147
f 103 147 148
f 103 148 149
f 103 149 150
f 103 150 151
f 103 151 152
f 103 152 153
f 103 153 104
f 104 153 154
f 104 154 107
f 105 112 155
f 105 155 156
f 105 156 115
f 107 154 108
f 108 154 109
f 109 157 158
f 109 158 159
f 109 159 110
f 109 154 160
f 109 160 161
f 109 161 157
f 110 159 113
f 111 162 155
f 111 155 112
f 111 113 163
f 111 163 162
f 113 159 158
f 113 158 164
f 113 164 163
f 114 116 119
f 115 156 116
f 116 156 155
f 116 155 119
f 117 119 165
f 117 165 211
f 117 211 256
f 117 256 309
f 117 309 311
f 117 311 376
f 117 376 314
f 117 314 259
f 117 259 213
f 117 213 166
f 117 166 118
f 119 155 162
f 119 162 165
f 120 167 168
f 120 168 124
f 120 124 122
f 120 122 121
f 123 169 125
f 123 124 170
f 123 170 169
f 124 168 170
f 125 171 126
f 125 169 171
f 126 171 172
f 126 172 173
f 126 173 127
f 127 173 174
f 127 174 130
f 127 130 128
f 130 174 131
f 131 175 176
f 131 176 177
f 131 177 178
f 131 178 179
f 131 179 180
f 131 180 181
f 131 181 132
f 131 174 182
f 131 182 175
f 132 181 134
f 133 134 183
f 133 183 184
f 133 184 185
f 133 185 135
f 134 181 186
f 134 186 183
f 135 185 138
f 138 185 139
f 139 185 187
f 139 187 141
f 141 187 234
f 141 234 188
f 141 188 189
f 142 189 183
f 142 183 190
f 142 190 191
f 142 191 143
f 143 191 144
f 144 191 192
f 144 192 193
f 144 193 194
f 144 194 195
f 144 195 196
f 144 196 145
f 145 196 197
f 145 197 146
f 146 197 147
f 147 197 198
f 147 198 148
f 148 198 199
f 148 199 200
f 148 200 149
f 149 200 201
f 149 201 202
f 149 202 150
f 150 202 203
f 150 203 151
f 151 203 204
f 151 204 152
f 152 205 206
f 152 206 153
f 152 204 205
f 153 206 160
f 153 160 154
f 157 164 158
f 157 161 207
f 157 207 164
f 160 206 208
f 160 208 209
f 160 209 210
f 160 210 161
f 161 210 207
f 162 163 211
f 162 211 165
f 163 164 211
f 164 207 212
f 164 212 211
f 166 213 214
f 167 215 216
f 167 216 168
f 168 216 170
f 169 217 218
f 169 218 219
f 169 219 171
f 169 170 220
f 169 220 217
f 170 216 220
f 171 219 221
f 171 221 172
f 172 221 173
f 173 222 174
f 173 221 223
f 173 223 222
f 174 222 182
f 175 182 224
f 175 224 225
f 175 225 226
f 175 226 176
f 176 226 227
f 176 227 228
f 176 228 229
f 176 229 177
f 177 229 178
f 178 229 179
f 179 229 230
f 179 230 231
f 179 231 181
f 179 181 180
f 181 231 232
f 181 232 186
f 182 222 224
f 183 186 233
f 183 233 190
f 183 189 188
f 183 188 234
f 183 234 184
f 184 234 185
f 185 234 187
f 186 232 235
f 186 235 233
f 190 233 191
f 191 233 192
f 192 233 193
f 193 233 194
f 194 233 195
f 195 233 196
f 196 233 236
f 196 236 237
f 196 237 238
f 196 238 239
f 196 239 240
f 196 240 197
f 197 240 241
f 197 241 198
f 198 241 242
f 198 242 243
f 198 243 199
f 199 243 244
f 199 244 245
f 199 245 246
f 199 246 247
f 199 247 200
f 200 247 248
f 200 248 201
f 201 248 204
f 201 204 202
f 202 204 203
f 204 248 249
f 204 249 250
f 204 250 205
f 205 251 208
f 205 208 206
f 205 250 251
f 207 210 252
f 207 252 212
f 208 251 209
f 209 251 253
f 209 253 252
f 209 252 210
f 211 212 254
f 211 254 255
f 211 255 256
f 212 252 254
f 213 257 258
f 213 258 214
f 213 259 257
f 215 260 220
f 215 220 216
f 217 261 218
f 217 220 261
f 218 261 262
f 218 262 263
f 218 263 264
f 218 264 219
f 219 264 223
f 219 223 221
f 220 265 266
f 220 266 261
f 220 260 265
f 222 223 267
f 222 267 224
f 223 264 267
f 224 268 269
f 224 269 225
f 224 267 270
f 224 270 271
f 224 271 268
f 225 269 226
f 226 272 273
f 226 273 274
f 226 274 228
f 226 228 227
f 226 269 272
f 228 274 229
f 229 275 230
f 229 274 275
f 230 275 276
f 230 276 277
f 230 277 278
f 230 278 279
f 230 279 280
f 230 280 281
f 230 281 232
f 230 232 231
f 232 281 280
f 232 280 282
f 232 282 235
f 233 235 283
f 233 283 284
f 233 284 236
f 235 282 285
f 235 285 286
f 235 286 283
f 236 284 237
f 237 284 238
f 238 284 287
f 238 287 288
f 238 288 289
f 238 289 239
f 239 289 240
f 240 289 241
f 241 289 290
f 241 290 242
f 242 290 243
f 243 290 291
f 243 291 292
f 243 292 244
f 244 292 245
f 245 292 293
f 245 293 294
f 245 294 295
f 245 295 296
f 245 296 246
f 246 296 297
f 246 297 298
f 246 298 299
f 246 299 300
f 246 300 247
f 247 300 301
f 247 301 302
f 247 302 248
f 248 302 303
f 248 303 249
f 249 303 250
f 250 303 304
f 250 304 305
f 250 305 306
f 250 306 251
f 251 307 253
f 251 306 307
f 252 253 254
f 253 255 254
f 253 307 308
f 253 308 255
f 255 309 256
f 255 308 310
f 255 310 311
f 255 311 309
f 257 259 312
f 257 312 258
f 258 312 313
f 259 314 380
f 259 380 426
f 259 426 425
f 259 425 424
f 259 424 364
f 259 364 423
f 259 423 422
f 259 422 463
f 259 463 477
f 259 477 454
f 259 454 476
f 259 476 475
f 259 475 447
f 259 447 446
f 259 446 400
f 259 400 399
f 259 399 397
f 259 397 396
f 259 396 395
f 259 395 445
f 259 445 474
f 259 474 472
f 259 472 471
f 259 471 440
f 259 440 470
f 259 470 469
f 259 469 468
f 259 468 484
f 259 484 490
f 259 490 495
f 259 495 494
f 259 494 500
f 259 500 503
f 259 503 502
f 259 502 498
f 259 498 496
f 259 496 491
f 259 491 486
f 259 486 482
f 259 482 466
f 259 466 464
f 259 464 436
f 259 436 434
f 259 434 377
f 259 377 312
f 260 315 316
f 260 316 265
f 261 317 262
f 261 266 317
f 262 317 318
f 262 318 326
f 262 326 319
f 262 319 263
f 263 319 267
f 263 267 264
f 265 320 317
f 265 317 266
f 265 316 320
f 267 319 270
f 268 321 322
f 268 322 323
f 268 323 269
f 268 271 321
f 269 323 324
f 269 324 325
f 269 325 272
f 270 319 326
f 270 326 327
f 270 327 328
f 270 328 329
f 270 329 271
f 271 329 321
f 272 325 330
f 272 330 273
f 273 330 274
f 274 330 275
f 275 330 276
f 276 331 332
f 276 332 277
f 276 330 331
f 277 332 333
f 277 333 334
f 277 334 335
f 277 335 278
f 278 335 336
f 278 336 337
f 278 337 279
f 279 337 338
f 279 338 339
f 279 339 340
f 279 340 341
f 279 341 282
f 279 282 280
f 282 341 342
f 282 342 343
f 282 343 285
f 283 286 344
f 283 344 284
f 284 344 345
f 284 345 287
f 285 343 346
f 285 346 286
f 286 346 347
f 286 347 348
f 286 348 349
f 286 349 344
f 287 345 288
f 288 345 350
f 288 350 351
f 288 351 289
f 289 351 350
f 289 350 352
f 289 352 353
f 289 353 290
f 290 353 354
f 290 354 291
f 291 355 356
f 291 356 357
f 291 357 292
f 291 354 358
f 291 358 359
f 291 359 355
f 292 357 360
f 292 360 361
f 292 361 293
f 293 361 362
f 293 362 294
f 294 362 295
f 295 362 363
f 295 363 296
f 296 363 297
f 297 363 364
f 297 364 365
f 297 365 298
f 298 365 366
f 298 366 367
f 298 367 299
f 299 368 369
f 299 369 370
f 299 370 300
f 299 367 371
f 299 371 368
f 300 370 301
f 301 370 302
f 302 370 304
f 302 304 303
f 304 370 369
f 304 369 305
f 305 372 373
f 305 373 306
f 305 369 372
f 306 373 307
f 307 373 308
f 308 373 310
f 310 373 374
f 310 374 375
f 310 375 311
f 311 375 376
f 312 377 313
f 313 378 379
f 313 377 378
f 314 376 380
f 315 381 440
f 315 440 471
f 315 471 444
f 315 444 391
f 315 391 390
f 315 390 389
f 315 389 388
f 315 388 382
f 315 382 320
f 315 320 316
f 317 382 388
f 317 388 383
f 317 383 384
f 317 384 318
f 317 320 382
f 318 384 326
f 321 329 385
f 321 385 386
f 321 386 322
f 322 386 323
f 323 386 324
f 324 386 387
f 324 387 325
f 325 387 330
f 326 384 383
f 326 383 327
f 327 383 388
f 327 388 328
f 328 389 390
f 328 390 391
f 328 391 329
f 328 388 389
f 329 391 392
f 329 392 385
f 330 387 393
f 330 393 331
f 331 393 332
f 332 393 394
f 332 394 395
f 332 395 396
f 332 396 333
f 333 396 397
f 333 397 334
f 334 397 335
f 335 397 336
f 336 397 338
f 336 338 337
f 338 397 398
f 338 398 399
f 338 399 400
f 338 400 401
f 338 401 339
f 339 402 340
f 339 401 403
f 339 403 404
f 339 404 405
f 339 405 402
f 340 402 406
f 340 406 341
f 341 406 407
f 341 407 342
f 342 408 343
f 342 407 408
f 343 408 346
f 344 349 409
f 344 409 410
f 344 410 345
f 345 410 350
f 346 408 411
f 346 411 347
f 347 411 359
f 347 359 348
f 348 359 358
f 348 358 349
f 349 358 409
f 350 410 352
f 352 410 353
f 353 412 354
f 353 410 412
f 354 412 358
f 355 413 414
f 355 414 415
f 355 415 356
f 355 359 413
f 356 415 402
f 356 402 357
f 357 402 416
f 357 416 417
f 357 417 360
f 358 412 409
f 359 411 413
f 360 417 418
f 360 418 419
f 360 419 420
f 360 420 421
f 360 421 361
f 361 421 362
f 362 421 422
f 362 422 423
f 362 423 363
f 363 423 364
f 364 424 366
f 364 366 365
f 366 425 426
f 366 426 371
f 366 371 367
f 366 424 425
f 368 371 369
f 369 371 427
f 369 427 428
f 369 428 429
f 369 429 430
f 369 430 431
f 369 431 373
f 369 373 372
f 371 432 427
f 371 426 432
f 373 431 374
f 374 431 375
f 375 431 430
f 375 430 433
f 375 433 376
f 376 433 380
f 377 434 435
f 377 435 378
f 378 436 379
f 378 435 434
f 378 434 436
f 379 436 437
f 380 433 426
f 381 438 439
f 381 439 440
f 385 392 441
f 385 441 386
f 386 441 442
f 386 442 387
f 387 442 443
f 387 443 393
f 391 444 441
f 391 441 392
f 393 443 445
f 393 445 394
f 394 445 395
f 397 399 398
f 400 446 401
f 401 446 447
f 401 447 448
f 401 448 403
f 402 405 416
f 402 415 449
f 402 449 414
f 402 414 450
f 402 450 406
f 403 448 451
f 403 451 452
f 403 452 404
f 404 452 453
f 404 453 454
f 404 454 455
f 404 455 405
f 405 455 456
f 405 456 417
f 405 417 416
f 406 450 413
f 406 413 457
f 406 457 407
f 407 457 458
f 407 458 408
f 408 458 457
f 408 457 411
f 409 412 410
f 411 457 413
f 413 450 414
f 414 449 415
f 417 459 418
f 417 456 459
f 418 459 480
f 418 480 460
f 418 460 419
f 419 460 461
f 419 461 462
f 419 462 420
f 420 462 421
f 421 462 463
f 421 463 422
f 426 433 428
f 426 428 432
f 427 432 428
f 428 433 430
f 428 430 429
f 436 464 437
f 437 464 466
f 437 466 465
f 438 467 468
f 438 468 469
f 438 469 470
f 438 470 440
f 438 440 439
f 441 444 471
f 441 471 472
f 441 472 473
f 441 473 442
f 442 473 443
f 443 473 474
f 443 474 445
f 447 475 451
f 447 451 448
f 451 475 476
f 451 476 452
f 452 476 453
f 453 476 454
f 454 477 478
f 454 478 455
f 455 478 456
f 456 479 459
f 456 478 479
f 459 479 480
f 460 480 461
f 461 478 477
f 461 477 463
f 461 463 462
f 461 480 479
f 461 479 478
f 465 466 481
f 466 482 481
f 467 483 484
f 467 484 468
f 472 474 473
f 481 482 485
f 482 486 487
f 482 487 488
f 482 488 485
f 483 489 490
f 483 490 484
f 486 491 487
f 487 491 492
f 489 493 494
f 489 494 495
f 489 495 490
f 491 496 492
f 492 496 498
f 492 498 497
f 493 499 500
f 493 500 494
f 497 498 502
f 497 502 501
f 499 501 502
f 499 502 503
f 499 503 500

