# https://github.com/mikedh/trimesh
v 0.00009440 -0.06304632 0.00829731
v 0.00009440 -0.06287478 0.00814172
v 0.00112675 -0.06309132 0.00829731
v 0.00009440 -0.04346173 0.00829731
v 0.00063603 -0.06282416 0.00807570
v 0.00009440 -0.06248668 0.00783004
v 0.00248488 -0.06314756 0.00829731
v 0.02089606 -0.03901555 0.00829731
v 0.00009440 -0.03780065 0.00571304
v 0.00190457 -0.06282416 0.00802965
v 0.00190457 -0.06212109 0.00747358
v 0.00009440 -0.06205641 0.00749155
v 0.00317311 -0.06317006 0.00829731
v 0.02089606 -0.03977486 0.00771190
v 0.01650401 -0.03523305 0.00571304
v 0.01610085 -0.03460311 0.00571304
v 0.01586465 -0.03444281 0.00571304
v 0.02089606 -0.05971380 0.00829731
v 0.00009440 -0.04702206 0.00571304
v 0.00317311 -0.06282416 0.00799727
v 0.00317311 -0.06211828 0.00747384
v 0.00009440 -0.06178643 0.00742754
v 0.00009440 -0.06142084 0.00734861
v 0.00190457 -0.06148552 0.00734861
v 0.00317311 -0.06148271 0.00734861
v 0.00376768 -0.06314756 0.00829731
v 0.02089606 -0.04041324 0.00738731
v 0.01694383 -0.03607954 0.00571304
v 0.02073317 -0.05978410 0.00829731
v 0.01967231 -0.05926946 0.00759831
v 0.02089606 -0.05894605 0.00774757
v 0.00444369 -0.04702206 0.00571304
v 0.00444369 -0.06282416 0.00804331
v 0.00444369 -0.06311945 0.00829731
v 0.00444369 -0.06203673 0.00749736
v 0.00444369 -0.06140115 0.00734861
v 0.00571224 -0.06131116 0.00734911
v 0.00698078 -0.06122679 0.00736126
v 0.02089606 -0.04125130 0.00727802
v 0.01695401 -0.03612454 0.00571304
v 0.02007752 -0.06005127 0.00829731
v 0.01967231 -0.06013001 0.00823280
v 0.01840174 -0.05950569 0.00750192
v 0.02049290 -0.05846515 0.00743184
v 0.02089606 -0.05890386 0.00772834
v 0.00523373 -0.04696019 0.00571304
v 0.00571224 -0.06194673 0.00753152
v 0.00698078 -0.06186236 0.00757250
v 0.00698078 -0.06268917 0.00820725
v 0.00560635 -0.06296758 0.00829731
v 0.00825136 -0.06112555 0.00738934
v 0.00698078 -0.06028469 0.00725197
v 0.00575703 -0.04690675 0.00571304
v 0.01459407 -0.05901635 0.00724918
v 0.01459407 -0.05991346 0.00735847
v 0.01586465 -0.05981504 0.00738630
v 0.02089606 -0.04251962 0.00723906
v 0.01723093 -0.03762066 0.00571304
v 0.01720853 -0.03744349 0.00571304
v 0.01967231 -0.06016938 0.00829731
v 0.01835083 -0.06051248 0.00829731
v 0.01843431 -0.06039436 0.00820674
v 0.01722686 -0.06020594 0.00780955
v 0.01771147 -0.05962380 0.00746372
v 0.01967231 -0.05863670 0.00738377
v 0.02089606 -0.05784645 0.00736024
v 0.01037713 -0.06095119 0.00744575
v 0.01122011 -0.06086682 0.00746928
v 0.01205699 -0.06077402 0.00749762
v 0.00825136 -0.06176112 0.00763550
v 0.00825136 -0.06257949 0.00827024
v 0.00860769 -0.06254855 0.00829731
v 0.00649413 -0.04676333 0.00571304
v 0.01586465 -0.05901635 0.00727701
v 0.01840174 -0.05887012 0.00734861
v 0.01686442 -0.05972786 0.00742223
v 0.02089606 -0.04501129 0.00723906
v 0.01737957 -0.04014045 0.00571304
v 0.01731238 -0.03884681 0.00571304
v 0.01716374 -0.06079089 0.00829731
v 0.01586465 -0.06109180 0.00829731
v 0.01586465 -0.06045061 0.00775339
v 0.01459407 -0.06054904 0.00764536
v 0.01967231 -0.05774802 0.00727423
v 0.02089606 -0.05779583 0.00735265
v 0.01332553 -0.06065028 0.00755909
v 0.00951990 -0.06165144 0.00773239
v 0.00951990 -0.06237701 0.00829731
v 0.00698078 -0.04665927 0.00571304
v 0.00732082 -0.04658053 0.00571304
v 0.00830633 -0.04634992 0.00571304
v 0.00951990 -0.04606589 0.00571304
v 0.01449633 -0.04489880 0.00571304
v 0.01552257 -0.04462320 0.00571304
v 0.01589112 -0.04450508 0.00571304
v 0.02089606 -0.05647969 0.00723932
v 0.01737957 -0.04146502 0.00571304
v 0.01479973 -0.06131116 0.00829731
v 0.01637370 -0.04426604 0.00571304
v 0.01680740 -0.04373171 0.00571304
v 0.01712912 -0.04294146 0.00571304
f 1 2 3
f 1 3 7
f 1 7 13
f 1 13 26
f 1 26 34
f 1 34 50
f 1 50 72
f 1 72 88
f 1 88 98
f 1 98 81
f 1 81 80
f 1 80 61
f 1 61 60
f 1 60 41
f 1 41 29
f 1 29 18
f 1 18 8
f 1 8 4
f 1 4 9
f 1 9 19
f 1 19 23
f 1 23 22
f 1 22 12
f 1 12 6
f 1 6 2
f 2 5 3
f 2 6 5
f 3 5 7
f 4 8 9
f 5 10 7
f 5 6 11
f 5 11 10
f 6 12 11
f 7 10 13
f 8 14 15
f 8 15 16
f 8 16 17
f 8 17 9
f 8 18 31
f 8 31 45
f 8 45 66
f 8 66 85
f 8 85 96
f 8 96 77
f 8 77 57
f 8 57 39
f 8 39 27
f 8 27 14
f 9 17 16
f 9 16 15
f 9 15 28
f 9 28 40
f 9 40 59
f 9 59 58
f 9 58 79
f 9 79 78
f 9 78 97
f 9 97 101
f 9 101 100
f 9 100 99
f 9 99 95
f 9 95 94
f 9 94 93
f 9 93 92
f 9 92 91
f 9 91 90
f 9 90 89
f 9 89 73
f 9 73 53
f 9 53 46
f 9 46 32
f 9 32 19
f 10 11 20
f 10 20 13
f 11 21 20
f 11 12 22
f 11 22 23
f 11 23 24
f 11 24 25
f 11 25 21
f 13 20 26
f 14 27 28
f 14 28 15
f 18 29 30
f 18 30 31
f 19 32 24
f 19 24 23
f 20 21 33
f 20 33 34
f 20 34 26
f 21 35 33
f 21 25 36
f 21 36 37
f 21 37 38
f 21 38 35
f 24 32 25
f 25 32 36
f 27 39 28
f 28 39 40
f 29 41 42
f 29 42 30
f 30 42 43
f 30 43 44
f 30 44 45
f 30 45 31
f 32 46 37
f 32 37 36
f 33 35 47
f 33 47 48
f 33 48 49
f 33 49 34
f 34 49 50
f 35 38 51
f 35 51 47
f 37 52 38
f 37 46 53
f 37 53 52
f 38 52 54
f 38 54 55
f 38 55 56
f 38 56 51
f 39 57 58
f 39 58 59
f 39 59 40
f 41 60 42
f 42 60 61
f 42 61 62
f 42 62 63
f 42 63 43
f 43 63 64
f 43 64 65
f 43 65 44
f 44 65 66
f 44 66 45
f 47 51 67
f 47 67 48
f 48 67 68
f 48 68 69
f 48 69 70
f 48 70 49
f 49 70 71
f 49 71 50
f 50 71 72
f 51 56 67
f 52 53 54
f 53 73 54
f 54 74 55
f 54 73 74
f 55 74 56
f 56 74 75
f 56 75 76
f 56 76 68
f 56 68 67
f 57 77 97
f 57 97 78
f 57 78 79
f 57 79 58
f 61 80 62
f 62 80 81
f 62 81 63
f 63 81 82
f 63 82 64
f 64 82 83
f 64 83 76
f 64 76 65
f 65 75 84
f 65 84 85
f 65 85 66
f 65 76 75
f 68 76 69
f 69 76 70
f 70 76 86
f 70 86 83
f 70 83 87
f 70 87 72
f 70 72 71
f 72 87 88
f 73 89 74
f 74 89 90
f 74 90 91
f 74 91 92
f 74 92 93
f 74 93 94
f 74 94 75
f 75 94 95
f 75 95 84
f 76 83 86
f 77 96 97
f 81 98 82
f 82 98 88
f 82 88 87
f 82 87 83
f 84 95 99
f 84 99 85
f 85 99 96
f 96 99 100
f 96 100 101
f 96 101 97
