# https://github.com/mikedh/trimesh
v 0.01736419 -0.01652537 -0.00206247
v 0.01738119 -0.04013726 0.00571104
v 0.01736419 -0.01652537 -0.00901403
v 0.01735058 -0.01652537 -0.00140251
v 0.01736419 -0.01840596 -0.00079255
v 0.01737779 -0.04146263 0.00571104
v 0.01736419 -0.01840596 -0.00840607
v 0.01733698 -0.01713432 -0.00079255
v 0.01735399 -0.03871039 0.00555305
v 0.01730977 -0.03884472 0.00571104
v 0.01734038 -0.01652537 -0.00967599
v 0.01729276 -0.01652537 -0.00079255
v 0.01712610 -0.04293725 0.00571104
v 0.01723834 -0.03617010 0.00174529
v 0.01729956 -0.02602087 -0.00459831
v 0.01735058 -0.02348058 -0.00586823
v 0.01736079 -0.02094327 -0.00713615
v 0.01731657 -0.01713432 -0.00967599
v 0.01728256 -0.03743875 0.00555305
v 0.01723154 -0.03761786 0.00571104
v 0.01713630 -0.01652537 -0.01041794
v 0.01706827 -0.01652537 -0.00025659
v 0.01695603 -0.02731937 -0.00466231
v 0.01715671 -0.02475222 -0.00586823
v 0.01718732 -0.02855818 -0.00333039
v 0.01680637 -0.04372829 0.00571104
v 0.01675195 -0.04228053 0.00466110
v 0.01682338 -0.03997905 0.00328119
v 0.01680297 -0.03617010 0.00077535
v 0.01671453 -0.03075519 -0.00288642
v 0.01669753 -0.02691341 -0.00540226
v 0.01684038 -0.02974026 -0.00331839
v 0.01680977 -0.02591042 -0.00584223
v 0.01723834 -0.02221193 -0.00713615
v 0.01728596 -0.01967462 -0.00840607
v 0.01688460 -0.01713432 -0.01077992
v 0.01720773 -0.03743875 0.00571104
v 0.01693222 -0.01652537 -0.01093391
v 0.01685739 -0.01652537 0.00015939
v 0.01690841 -0.02345670 -0.00718015
v 0.01637440 -0.04426262 0.00571104
v 0.01643903 -0.04312531 0.00493709
v 0.01664311 -0.04078203 0.00354117
v 0.01674174 -0.03843875 0.00214526
v 0.01661590 -0.03694025 0.00102333
v 0.01656147 -0.02925967 -0.00400835
v 0.01652746 -0.02541490 -0.00652219
v 0.01672474 -0.02475222 -0.00673018
v 0.01685059 -0.01967462 -0.00944201
v 0.01672134 -0.01813134 -0.01051394
v 0.01651386 -0.01652537 -0.01154187
v 0.01695263 -0.03612234 0.00571104
v 0.01686079 -0.03363279 0.00523707
v 0.01631658 -0.01652537 0.00029538
v 0.01654107 -0.01895820 0.00113333
v 0.01668392 -0.01967462 0.00123532
v 0.01666351 -0.03236414 0.00503108
v 0.01680637 -0.02221193 -0.00809409
v 0.01589141 -0.04450142 0.00571104
v 0.01553427 -0.03950442 0.00227725
v 0.01592202 -0.03879995 0.00194928
v 0.01638120 -0.03928352 0.00242125
v 0.01559550 -0.04330142 0.00481110
v 0.01507849 -0.04183874 0.00367917
v 0.01375197 -0.03671935 -0.00010260
v 0.01611250 -0.02386267 -0.00763212
v 0.01662610 -0.02301491 -0.00786611
v 0.01631658 -0.03544174 -0.00009660
v 0.01624855 -0.03160295 -0.00261244
v 0.01618393 -0.02776116 -0.00512628
v 0.01586420 -0.02559699 -0.00664018
v 0.01526557 -0.02413729 -0.00778611
v 0.01354449 -0.02133431 -0.01016796
v 0.01668052 -0.02057312 -0.00919002
v 0.01642202 -0.01897910 -0.01027195
v 0.01647644 -0.01652537 -0.01157187
v 0.01694242 -0.03607756 0.00571104
v 0.01650365 -0.03522981 0.00571104
v 0.01581318 -0.01652537 0.00032138
v 0.01651386 -0.03170742 0.00492709
v 0.00063304 -0.01652537 0.00038337
v -0.01654029 -0.01895820 0.00113333
v 0.01610229 -0.03459995 0.00571104
v 0.01552067 -0.04461784 0.00571104
v 0.01418394 -0.03438503 -0.00150251
v 0.01238804 -0.03160593 -0.00388436
v 0.00831324 -0.01703880 -0.01471567
v 0.01540502 -0.03182086 -0.00275643
v 0.01586420 -0.02945668 -0.00413634
v 0.01056833 -0.02052536 -0.01171986
v 0.01456149 -0.03102086 -0.00356038
v 0.01459550 -0.04345366 0.00470510
v 0.01463292 -0.04243576 0.00400315
v 0.01290504 -0.03688652 -0.00021459
v 0.01017717 -0.03047160 -0.00524027
v 0.00639829 -0.01783283 -0.01471567
v 0.01332681 -0.03624771 -0.00053257
v 0.00741529 -0.01742388 -0.01471567
v 0.01460911 -0.02092237 -0.00998397
v 0.01545264 -0.02175521 -0.00914203
v 0.01587100 -0.02219103 -0.00870605
v 0.01629957 -0.02142088 -0.00895204
v 0.01024860 -0.01652537 -0.01437570
v 0.01270096 -0.02158207 -0.01031395
v 0.01320436 -0.02208954 -0.00981398
v 0.00903092 -0.01669552 -0.01471567
v 0.00933704 -0.01652537 -0.01471567
v 0.00953772 -0.01652537 -0.01464368
v 0.00992207 -0.01652537 -0.01449969
v 0.01594583 -0.01849551 -0.01076392
v 0.01564992 -0.01687761 -0.01178986
v 0.01599005 -0.01723283 -0.01142988
v 0.01512611 -0.01652537 -0.01222983
v 0.01586420 -0.03443876 0.00571104
v -0.01651308 -0.03170742 0.00492709
v -0.01581581 -0.01652537 0.00031938
v -0.01686001 -0.01652537 0.00015939
v -0.01666274 -0.03236414 0.00503108
v 0.01449687 -0.04489545 0.00571104
v 0.01232682 -0.02392834 -0.00891804
v 0.01090846 -0.01979999 -0.01207584
v 0.01012615 -0.01902686 -0.01283979
v 0.00861256 -0.02913131 -0.00645819
v 0.00571122 -0.02208655 -0.01193985
v 0.00735407 -0.02405072 -0.01026595
v 0.00520102 -0.01908357 -0.01414771
v 0.00567721 -0.01810746 -0.01471567
v 0.01419415 -0.02048655 -0.01041195
v 0.01377918 -0.01890447 -0.01150188
v 0.01557509 -0.01931939 -0.01046794
v 0.01387442 -0.01652537 -0.01281379
v 0.01140505 -0.01652537 -0.01388373
v -0.00928865 -0.01652537 -0.01471567
v 0.01517033 -0.01772238 -0.01155187
v 0.01462612 -0.01652537 -0.01246582
v -0.01586343 -0.03444174 0.00571104
v -0.01623417 -0.03490145 0.00571104
v -0.01686001 -0.03363279 0.00523707
v -0.01729198 -0.01652537 -0.00079255
v -0.01728178 -0.03743875 0.00555305
v -0.01720695 -0.03743875 0.00571104
v 0.01042547 -0.04585067 0.00571104
v 0.00697992 -0.02626565 -0.00876405
v 0.00571122 -0.02272237 -0.01148988
v 0.00487110 -0.02281192 -0.01155387
v 0.00447314 -0.01843283 -0.01471567
v 0.00527926 -0.01822089 -0.01471567
v 0.01211933 -0.01652537 -0.01357575
v 0.01279620 -0.01652537 -0.01328376
v 0.01342545 -0.01652537 -0.01300978
v 0.01397646 -0.01652537 -0.01276780
v -0.00829886 -0.01701194 -0.01471567
v -0.00936688 -0.01652537 -0.01469368
v -0.01694505 -0.03607756 0.00571104
v -0.01736681 -0.01652537 -0.00206247
v -0.01733620 -0.01713432 -0.00079255
v -0.01735321 -0.03871039 0.00555305
v -0.01729539 -0.03871039 0.00571104
v 0.00731665 -0.04657903 0.00571104
v 0.00697992 -0.03976114 0.00081535
v 0.00571122 -0.03099996 -0.00561425
v 0.00533708 -0.02798505 -0.00781411
v 0.00496293 -0.03171638 -0.00522227
v 0.00443913 -0.01916119 -0.01420371
v 0.00443913 -0.01843880 -0.01471567
v -0.00954035 -0.01652537 -0.01463968
v -0.00701316 -0.01757014 -0.01471567
v -0.01374439 -0.03671637 -0.00010060
v -0.01553350 -0.03950144 0.00227725
v -0.01147231 -0.02414326 -0.00905803
v -0.01011177 -0.01902089 -0.01283579
v -0.01736681 -0.01652537 -0.00840607
v -0.01736681 -0.01840596 -0.00079255
v -0.01736001 -0.03490145 0.00428313
v -0.01736681 -0.03997905 0.00555305
v -0.01735661 -0.04125068 0.00571104
v 0.00697992 -0.04665664 0.00571104
v 0.00697992 -0.04632530 0.00547505
v 0.00634047 -0.04568948 0.00491909
v 0.00500035 -0.04060591 0.00111533
v 0.00236091 -0.01876716 -0.01471567
v 0.00313982 -0.01865372 -0.01471567
v 0.00357179 -0.01858805 -0.01471567
v 0.00549694 -0.04577008 0.00486109
v -0.01078524 -0.01884178 -0.01272380
v -0.01078524 -0.01820895 -0.01312978
v -0.01040769 -0.01667761 -0.01423170
v -0.01048932 -0.01652537 -0.01428370
v -0.00567644 -0.01811044 -0.01471567
v -0.01017640 -0.03047160 -0.00524027
v -0.01153693 -0.03177906 -0.00399835
v -0.01507772 -0.04183576 0.00367917
v -0.01423419 -0.03820293 0.00102733
v -0.01643825 -0.04312531 0.00493909
v -0.01591785 -0.03879995 0.00195127
v -0.01624437 -0.03159996 -0.00261044
v -0.01397569 -0.02285670 -0.00904603
v -0.01218318 -0.02221789 -0.01006597
v -0.01140428 -0.02029850 -0.01157187
v -0.01736681 -0.01840596 -0.00840607
v -0.01733960 -0.01652537 -0.00967599
v -0.01736681 -0.03871039 0.00428313
v -0.01735661 -0.02728952 -0.00333039
v -0.01734981 -0.02348058 -0.00586823
v -0.01733960 -0.04124770 0.00555305
v -0.01714913 -0.04259994 0.00571104
v -0.01736681 -0.03490145 0.00174529
v 0.00649013 -0.04676112 0.00571104
v 0.00575544 -0.04690441 0.00571104
v 0.00443913 -0.03848353 -0.00045057
v 0.00119085 -0.01892238 -0.01471567
v 0.00523164 -0.04695515 0.00571104
v 0.00443913 -0.04701784 0.00571104
v 0.00443913 -0.04644470 0.00529306
v 0.00443913 -0.04580889 0.00483109
v 0.00443913 -0.04505665 0.00428713
v 0.00415341 -0.04064472 0.00108733
v -0.01218318 -0.02106864 -0.01080992
v -0.01525799 -0.02413431 -0.00778211
v -0.01652328 -0.02541192 -0.00651819
v -0.01482262 -0.02259998 -0.00890204
v -0.01610492 -0.02386267 -0.00763212
v -0.01166958 -0.01794925 -0.01295978
v -0.01082265 -0.01652537 -0.01413971
v -0.00455400 -0.01841193 -0.01471567
v -0.00520025 -0.01908059 -0.01414571
v -0.00735329 -0.02405072 -0.01026595
v -0.01459473 -0.04345366 0.00470510
v -0.00694853 -0.02464774 -0.00991398
v -0.00951654 -0.03055220 -0.00529627
v -0.01589064 -0.04450142 0.00571104
v -0.01559132 -0.04330142 0.00481110
v -0.01672396 -0.04378202 0.00571104
v -0.01675457 -0.04227755 0.00466110
v -0.01664233 -0.04077905 0.00354117
v -0.01658791 -0.03309548 -0.00149051
v -0.01655730 -0.02925370 -0.00400435
v -0.01617635 -0.02775519 -0.00512428
v -0.01579540 -0.02731639 -0.00553825
v -0.01731579 -0.01713432 -0.00967599
v -0.01736001 -0.02094327 -0.00713615
v -0.01736681 -0.02475222 -0.00459831
v -0.01693144 -0.01652537 -0.01093991
v -0.01728178 -0.01967462 -0.00840607
v -0.01723756 -0.02221193 -0.00713615
v -0.01729539 -0.02602087 -0.00459831
v -0.01730899 -0.02982683 -0.00206247
v -0.01732260 -0.03363279 0.00047737
v -0.01725457 -0.03997905 0.00428313
v -0.01723756 -0.03617010 0.00174529
v -0.01718314 -0.02855818 -0.00333039
v -0.01691104 -0.04122083 0.00425713
v -0.01687702 -0.04353725 0.00571104
v 0.00063304 -0.01897910 -0.01471567
v 0.00400716 -0.04702082 0.00571104
v 0.00063304 -0.02521789 -0.01018796
v 0.00190173 -0.03109847 -0.00589623
v -0.01586343 -0.02558803 -0.00663418
v -0.01669675 -0.02691042 -0.00539826
v -0.01672056 -0.02475222 -0.00672818
v -0.01662532 -0.02301789 -0.00786611
v -0.01629539 -0.02141790 -0.00895004
v -0.01587023 -0.02219103 -0.00870605
v -0.01544846 -0.02175521 -0.00914003
v -0.01418997 -0.02048655 -0.01041395
v -0.01251651 -0.01763283 -0.01276980
v -0.01207774 -0.01717910 -0.01321977
v -0.01211516 -0.01652537 -0.01357175
v -0.00444175 -0.01844178 -0.01471567
v -0.00571045 -0.02271939 -0.01148788
v -0.00571045 -0.02118506 -0.01257381
v -0.01459473 -0.04408650 0.00515507
v -0.01205733 -0.03763577 0.00015339
v -0.01449609 -0.04489545 0.00571104
v -0.00571045 -0.02424774 -0.01040395
v -0.00571045 -0.03010444 -0.00624821
v -0.01682260 -0.03997905 0.00328319
v -0.01674097 -0.03843577 0.00214526
v -0.01671376 -0.03075220 -0.00288442
v -0.01697906 -0.01848955 -0.00977799
v -0.01651648 -0.01652537 -0.01156187
v -0.01680900 -0.01701492 -0.01093591
v -0.01684981 -0.01967462 -0.00943601
v -0.01691104 -0.02345670 -0.00718015
v -0.01715253 -0.02475222 -0.00586823
v -0.01695525 -0.02731639 -0.00466031
v -0.01688723 -0.03739099 0.00173129
v -0.01680219 -0.03617010 0.00077735
v 0.00063304 -0.02458207 -0.01064993
v -0.00003022 -0.01898506 -0.01471567
v 0.00063304 -0.02735818 -0.00862806
v -0.00316965 -0.04702082 0.00571104
v -0.00063226 -0.02521789 -0.01018796
v -0.01677838 -0.03236414 -0.00172649
v -0.01683621 -0.02973728 -0.00331639
v -0.01680559 -0.02590744 -0.00584023
v -0.01680559 -0.02221193 -0.00809209
v -0.01667634 -0.02057014 -0.00918802
v -0.01649267 -0.01652537 -0.01157987
v -0.01641104 -0.01897014 -0.01026795
v -0.01593825 -0.01848955 -0.01075192
v -0.01467636 -0.01722686 -0.01202984
v -0.01503690 -0.02015521 -0.01022396
v -0.01334304 -0.01844477 -0.01194385
v -0.01417296 -0.01652537 -0.01264780
v -0.00437032 -0.01845372 -0.01471567
v -0.00494855 -0.03171339 -0.00522027
v -0.00533290 -0.02798505 -0.00781411
v -0.01332603 -0.04517008 0.00571104
v -0.00633970 -0.04568948 0.00491909
v -0.00697915 -0.04665664 0.00571104
v -0.00977164 -0.04600291 0.00571104
v -0.01672056 -0.01812537 -0.01050794
v -0.01686342 -0.03356414 -0.00079255
v -0.00063226 -0.02458207 -0.01064993
v -0.00063226 -0.01898506 -0.01471567
v -0.00063226 -0.02735818 -0.00862806
v -0.00444175 -0.04701784 0.00571104
v -0.00444175 -0.04644470 0.00529306
v -0.00316965 -0.04066263 0.00107533
v -0.00190096 -0.03109847 -0.00589623
v -0.01646546 -0.01652537 -0.01159387
v -0.01586343 -0.01677910 -0.01173586
v -0.01462194 -0.01652537 -0.01244582
v -0.00316965 -0.01865372 -0.01471567
v -0.00498937 -0.04060591 0.00111733
v -0.00549616 -0.04577008 0.00486109
v -0.00571045 -0.04422381 0.00378916
v -0.00575467 -0.04690441 0.00571104
v -0.00190096 -0.01883283 -0.01471567
v -0.00444175 -0.04580889 0.00483109
v -0.00444175 -0.04505665 0.00428713
v -0.00414243 -0.04064472 0.00108733
v -0.00444175 -0.03911636 0.00000540
v -0.00444175 -0.04366262 0.00328119
f 1 2 3
f 1 3 11
f 1 11 21
f 1 21 38
f 1 38 51
f 1 51 76
f 1 76 113
f 1 113 135
f 1 135 151
f 1 151 131
f 1 131 150
f 1 150 149
f 1 149 148
f 1 148 132
f 1 132 103
f 1 103 109
f 1 109 108
f 1 108 107
f 1 107 133
f 1 133 153
f 1 153 166
f 1 166 188
f 1 188 224
f 1 224 268
f 1 268 305
f 1 305 324
f 1 324 322
f 1 322 299
f 1 299 281
f 1 281 243
f 1 243 201
f 1 201 172
f 1 172 155
f 1 155 139
f 1 139 117
f 1 117 116
f 1 116 81
f 1 81 79
f 1 79 54
f 1 54 39
f 1 39 22
f 1 22 12
f 1 12 4
f 1 4 5
f 1 5 2
f 2 6 7
f 2 7 3
f 2 5 8
f 2 8 9
f 2 9 10
f 2 10 20
f 2 20 37
f 2 37 52
f 2 52 77
f 2 77 78
f 2 78 83
f 2 83 114
f 2 114 136
f 2 136 137
f 2 137 154
f 2 154 141
f 2 141 158
f 2 158 176
f 2 176 206
f 2 206 253
f 2 253 233
f 2 233 231
f 2 231 274
f 2 274 309
f 2 309 312
f 2 312 311
f 2 311 329
f 2 329 318
f 2 318 292
f 2 292 255
f 2 255 213
f 2 213 212
f 2 212 209
f 2 209 208
f 2 208 177
f 2 177 159
f 2 159 142
f 2 142 119
f 2 119 84
f 2 84 59
f 2 59 41
f 2 41 26
f 2 26 13
f 2 13 6
f 3 7 11
f 4 12 8
f 4 8 5
f 6 13 14
f 6 14 15
f 6 15 16
f 6 16 17
f 6 17 7
f 7 17 18
f 7 18 11
f 8 12 19
f 8 19 9
f 9 19 10
f 10 19 20
f 11 18 21
f 12 22 19
f 13 23 24
f 13 24 25
f 13 25 15
f 13 15 14
f 13 26 27
f 13 27 28
f 13 28 29
f 13 29 30
f 13 30 31
f 13 31 32
f 13 32 33
f 13 33 23
f 15 25 24
f 15 24 34
f 15 34 16
f 16 34 35
f 16 35 18
f 16 18 17
f 18 35 36
f 18 36 21
f 19 22 37
f 19 37 20
f 21 36 38
f 22 39 37
f 23 33 24
f 24 33 40
f 24 40 34
f 26 41 42
f 26 42 27
f 27 42 43
f 27 43 44
f 27 44 28
f 28 44 30
f 28 30 29
f 30 44 43
f 30 43 31
f 31 43 45
f 31 45 46
f 31 46 47
f 31 47 48
f 31 48 33
f 31 33 32
f 33 48 40
f 34 40 49
f 34 49 36
f 34 36 35
f 36 49 50
f 36 50 51
f 36 51 38
f 37 39 53
f 37 53 52
f 39 54 55
f 39 55 56
f 39 56 57
f 39 57 53
f 40 48 58
f 40 58 49
f 41 59 42
f 42 60 61
f 42 61 62
f 42 62 47
f 42 47 46
f 42 46 45
f 42 45 43
f 42 59 63
f 42 63 64
f 42 64 65
f 42 65 60
f 47 66 67
f 47 67 48
f 47 62 68
f 47 68 69
f 47 69 70
f 47 70 71
f 47 71 72
f 47 72 73
f 47 73 66
f 48 67 58
f 49 58 50
f 50 58 74
f 50 74 75
f 50 75 76
f 50 76 51
f 52 53 77
f 53 57 78
f 53 78 77
f 54 79 55
f 55 80 57
f 55 57 56
f 55 79 81
f 55 81 82
f 55 82 115
f 55 115 80
f 57 80 83
f 57 83 78
f 58 67 74
f 59 84 64
f 59 64 63
f 60 85 61
f 60 65 86
f 60 86 87
f 60 87 85
f 61 88 89
f 61 89 69
f 61 69 68
f 61 68 62
f 61 85 90
f 61 90 91
f 61 91 88
f 64 84 92
f 64 92 93
f 64 93 94
f 64 94 95
f 64 95 96
f 64 96 97
f 64 97 65
f 65 97 98
f 65 98 87
f 65 87 86
f 66 99 100
f 66 100 101
f 66 101 102
f 66 102 67
f 66 73 103
f 66 103 99
f 67 102 75
f 67 75 74
f 69 89 71
f 69 71 70
f 71 89 104
f 71 104 105
f 71 105 72
f 72 105 104
f 72 104 106
f 72 106 107
f 72 107 108
f 72 108 73
f 73 109 103
f 73 108 109
f 75 102 110
f 75 110 111
f 75 111 112
f 75 112 76
f 76 112 111
f 76 111 113
f 80 114 83
f 80 115 114
f 81 116 82
f 82 116 117
f 82 117 118
f 82 118 115
f 84 119 92
f 85 87 106
f 85 106 90
f 87 98 96
f 87 96 127
f 87 127 147
f 87 147 146
f 87 146 165
f 87 165 183
f 87 183 182
f 87 182 181
f 87 181 211
f 87 211 254
f 87 254 290
f 87 290 316
f 87 316 330
f 87 330 325
f 87 325 306
f 87 306 269
f 87 269 225
f 87 225 189
f 87 189 167
f 87 167 152
f 87 152 133
f 87 133 107
f 87 107 106
f 88 91 89
f 89 91 120
f 89 120 121
f 89 121 104
f 90 122 121
f 90 121 120
f 90 120 91
f 90 106 122
f 92 95 93
f 92 119 123
f 92 123 95
f 93 95 94
f 95 123 124
f 95 124 125
f 95 125 126
f 95 126 127
f 95 127 96
f 96 98 97
f 99 103 128
f 99 128 129
f 99 129 100
f 100 130 102
f 100 102 101
f 100 129 131
f 100 131 130
f 102 130 110
f 103 132 129
f 103 129 128
f 104 121 106
f 106 121 122
f 110 130 134
f 110 134 135
f 110 135 111
f 111 135 113
f 114 115 136
f 115 118 137
f 115 137 136
f 117 138 118
f 117 139 140
f 117 140 141
f 117 141 138
f 118 138 137
f 119 142 123
f 123 143 144
f 123 144 124
f 123 142 143
f 124 144 126
f 124 126 125
f 126 145 146
f 126 146 147
f 126 147 127
f 126 144 145
f 129 132 148
f 129 148 149
f 129 149 150
f 129 150 131
f 130 131 151
f 130 151 134
f 133 152 153
f 134 151 135
f 137 138 154
f 138 141 154
f 139 155 156
f 139 156 140
f 140 156 157
f 140 157 158
f 140 158 141
f 142 159 160
f 142 160 143
f 143 160 144
f 144 160 161
f 144 161 162
f 144 162 145
f 145 162 163
f 145 163 164
f 145 164 146
f 146 164 165
f 152 166 153
f 152 167 168
f 152 168 169
f 152 169 170
f 152 170 171
f 152 171 166
f 155 172 200
f 155 200 242
f 155 242 207
f 155 207 202
f 155 202 175
f 155 175 173
f 155 173 156
f 156 173 157
f 157 173 174
f 157 174 175
f 157 175 176
f 157 176 158
f 159 177 178
f 159 178 160
f 160 178 161
f 161 178 179
f 161 179 163
f 161 163 162
f 163 180 181
f 163 181 182
f 163 182 183
f 163 183 164
f 163 179 184
f 163 184 180
f 164 183 165
f 166 171 185
f 166 185 186
f 166 186 187
f 166 187 188
f 167 189 190
f 167 190 191
f 167 191 192
f 167 192 168
f 168 192 193
f 168 193 169
f 169 194 195
f 169 195 170
f 169 193 194
f 170 195 196
f 170 196 197
f 170 197 198
f 170 198 171
f 171 198 199
f 171 199 185
f 172 201 200
f 173 175 174
f 175 202 176
f 176 203 204
f 176 204 205
f 176 205 206
f 176 202 207
f 176 207 203
f 177 208 179
f 177 179 178
f 179 208 209
f 179 209 184
f 180 210 211
f 180 211 181
f 180 184 210
f 184 209 212
f 184 212 213
f 184 213 214
f 184 214 215
f 184 215 216
f 184 216 217
f 184 217 210
f 185 199 218
f 185 218 197
f 185 197 186
f 186 197 219
f 186 219 187
f 187 219 220
f 187 220 221
f 187 221 222
f 187 222 223
f 187 223 188
f 188 223 224
f 189 225 226
f 189 226 227
f 189 227 190
f 190 228 192
f 190 192 191
f 190 227 229
f 190 229 230
f 190 230 228
f 192 228 231
f 192 231 232
f 192 232 194
f 192 194 193
f 194 232 231
f 194 231 233
f 194 233 234
f 194 234 235
f 194 235 236
f 194 236 237
f 194 237 220
f 194 220 196
f 194 196 195
f 196 220 238
f 196 238 239
f 196 239 197
f 197 218 198
f 197 239 219
f 198 218 199
f 200 201 240
f 200 240 241
f 200 241 242
f 201 243 240
f 203 207 242
f 203 242 241
f 203 241 204
f 204 241 240
f 204 240 244
f 204 244 245
f 204 245 246
f 204 246 247
f 204 247 248
f 204 248 205
f 205 248 249
f 205 249 206
f 206 250 251
f 206 251 252
f 206 252 253
f 206 249 250
f 210 217 254
f 210 254 211
f 213 255 214
f 214 255 256
f 214 256 257
f 214 257 215
f 215 257 254
f 215 254 216
f 216 254 217
f 219 239 238
f 219 238 258
f 219 258 220
f 220 222 221
f 220 258 238
f 220 237 259
f 220 259 260
f 220 260 261
f 220 261 222
f 222 261 262
f 222 262 263
f 222 263 264
f 222 264 265
f 222 265 223
f 223 265 266
f 223 266 267
f 223 267 224
f 224 267 268
f 225 269 226
f 226 270 271
f 226 271 227
f 226 269 270
f 227 271 229
f 228 272 231
f 228 230 273
f 228 273 274
f 228 274 272
f 229 271 270
f 229 270 275
f 229 275 276
f 229 276 274
f 229 274 273
f 229 273 230
f 231 272 274
f 233 253 234
f 234 277 278
f 234 278 235
f 234 253 252
f 234 252 277
f 235 278 279
f 235 279 259
f 235 259 236
f 236 259 237
f 240 243 280
f 240 280 244
f 243 281 282
f 243 282 283
f 243 283 280
f 244 280 245
f 245 284 285
f 245 285 246
f 245 280 283
f 245 283 284
f 246 249 247
f 246 285 251
f 246 251 250
f 246 250 249
f 247 249 248
f 251 285 286
f 251 286 252
f 252 286 287
f 252 287 288
f 252 288 277
f 254 257 289
f 254 289 290
f 255 291 256
f 255 292 317
f 255 317 291
f 256 291 317
f 256 317 293
f 256 293 315
f 256 315 289
f 256 289 257
f 259 279 294
f 259 294 295
f 259 295 286
f 259 286 296
f 259 296 260
f 260 296 284
f 260 284 297
f 260 297 261
f 261 297 298
f 261 298 281
f 261 281 299
f 261 299 300
f 261 300 262
f 262 300 301
f 262 301 302
f 262 302 303
f 262 303 263
f 263 303 264
f 264 303 304
f 264 304 266
f 264 266 265
f 266 268 267
f 266 304 268
f 268 304 302
f 268 302 305
f 269 306 307
f 269 307 308
f 269 308 270
f 270 308 275
f 274 276 309
f 275 308 276
f 276 308 310
f 276 310 311
f 276 311 312
f 276 312 309
f 277 288 278
f 278 288 279
f 279 288 294
f 281 298 313
f 281 313 282
f 282 313 283
f 283 313 297
f 283 297 284
f 284 286 285
f 284 296 286
f 286 295 294
f 286 294 288
f 286 288 314
f 286 314 287
f 287 314 288
f 289 315 316
f 289 316 290
f 292 318 319
f 292 319 320
f 292 320 317
f 293 317 320
f 293 320 319
f 293 319 321
f 293 321 315
f 297 313 298
f 299 322 300
f 300 322 323
f 300 323 301
f 301 323 324
f 301 324 302
f 302 324 305
f 302 304 303
f 306 325 307
f 307 326 327
f 307 327 328
f 307 328 310
f 307 310 308
f 307 325 326
f 310 328 327
f 310 327 329
f 310 329 311
f 315 321 316
f 316 321 331
f 316 331 332
f 316 332 333
f 316 333 334
f 316 334 326
f 316 326 330
f 318 329 327
f 318 327 319
f 319 331 321
f 319 327 331
f 322 324 323
f 325 330 326
f 326 334 327
f 327 334 333
f 327 333 335
f 327 335 332
f 327 332 331
f 332 335 333
