# https://github.com/mikedh/trimesh
v -0.01735869 0.00002928 -0.01471767
v -0.00548218 0.00002928 -0.01471767
v -0.01723242 0.00002928 -0.02109902
v -0.01735742 -0.00063487 -0.01475382
v -0.01735742 -0.00063487 -0.01471767
v -0.00548218 0.00002928 -0.01475382
v -0.00432910 -0.00324440 -0.01471767
v -0.01734849 -0.00190525 -0.01471767
v -0.01706277 0.00002928 -0.02166768
v -0.01685358 -0.00063487 -0.02229176
v -0.01720691 -0.00063487 -0.02109902
v -0.01730512 -0.00444240 -0.01475382
v -0.01730640 -0.00444240 -0.01471767
v -0.01733701 -0.00317382 -0.01471767
v -0.00432910 -0.00324440 -0.01475382
v -0.00432910 -0.00348147 -0.01524617
v -0.00432910 -0.00865349 -0.02213995
v -0.00592097 0.00002928 -0.01579073
v -0.00432910 -0.01845824 -0.01471767
v -0.01685868 0.00002928 -0.02229336
v -0.01638801 0.00002928 -0.02257689
v -0.01586504 -0.00063487 -0.02288692
v -0.01586504 -0.00190525 -0.02274797
v -0.01552830 -0.00571278 -0.02226445
v -0.01668904 -0.00190525 -0.02215280
v -0.01656914 -0.00280103 -0.02193514
v -0.01691098 -0.00765817 -0.01471767
v -0.01720691 -0.00571278 -0.01475382
v -0.01721073 -0.00571278 -0.01471767
v -0.00432910 -0.00872044 -0.02219377
v -0.00984579 0.00002928 -0.02226284
v -0.00444262 -0.01843834 -0.01471767
v -0.00432910 -0.01633732 -0.02104199
v -0.01586504 0.00002928 -0.02288852
v -0.01459588 -0.00317382 -0.02292145
v -0.01459588 -0.00444240 -0.02290539
v -0.01459588 -0.00571278 -0.02285881
v -0.01459588 -0.00698136 -0.02267086
v -0.01537396 -0.00698136 -0.02207650
v -0.01526937 -0.00774323 -0.02185803
v -0.01677450 -0.00824993 -0.01471767
v -0.00432910 -0.00951851 -0.02273512
v -0.01078841 0.00002928 -0.02285800
v -0.00455614 -0.01840938 -0.01471767
v -0.00777304 -0.01528409 -0.02188775
v -0.00698094 -0.01539629 -0.02210381
v -0.00432910 -0.01585052 -0.02217931
v -0.00571178 -0.01556640 -0.02227650
v -0.01525916 0.00002928 -0.02290539
v -0.01459588 -0.00190525 -0.02292306
v -0.01332545 -0.00698136 -0.02292306
v -0.01332545 -0.00824993 -0.02290861
v -0.01465073 -0.00819926 -0.02227248
v -0.01426424 -0.00921086 -0.02211184
v -0.01505508 -0.00849424 -0.02109902
v -0.01589948 -0.01034009 -0.01471767
v -0.01632296 -0.00954746 -0.01471767
v -0.00432910 -0.00963251 -0.02276403
v -0.01205629 0.00002928 -0.02292306
v -0.00432910 -0.01078708 -0.02292306
v -0.00567989 -0.01810898 -0.01471767
v -0.00851923 -0.01505608 -0.02109902
v -0.00921057 -0.01426525 -0.02211184
v -0.00821821 -0.01465071 -0.02229095
v -0.00701665 -0.01756608 -0.01471767
v -0.00788529 -0.01718967 -0.01471767
v -0.00830112 -0.01700870 -0.01471767
v -0.00954859 -0.01640428 -0.01471767
v -0.00698094 -0.01459461 -0.02269817
v -0.00432910 -0.01576004 -0.02232067
v -0.00571178 -0.01459461 -0.02287086
v -0.01459588 0.00002928 -0.02292306
v -0.00825009 -0.01205746 -0.02292306
v -0.00951925 -0.01205746 -0.02290861
v -0.01339433 -0.00958727 -0.02242508
v -0.01301677 -0.01047763 -0.02211184
v -0.01357290 -0.01327356 -0.01471767
v -0.01457420 -0.01211718 -0.01471767
v -0.01461247 -0.01207194 -0.01471767
v -0.01463925 -0.01203756 -0.01471767
v -0.01558060 -0.01080880 -0.01471767
v -0.00432910 -0.01332604 -0.02292306
v -0.01033687 -0.01589395 -0.01471767
v -0.01327571 -0.01356491 -0.01471767
v -0.01047973 -0.01301659 -0.02211184
v -0.00958813 -0.01339481 -0.02242508
v -0.01080627 -0.01555735 -0.01471767
v -0.01196063 -0.01464890 -0.01471767
v -0.01204099 -0.01458556 -0.01471767
v -0.01206777 -0.01456385 -0.01471767
v -0.00825009 -0.01332604 -0.02290861
v -0.00432910 -0.01472672 -0.02285881
v -0.00444262 -0.01459461 -0.02291342
v -0.00698094 -0.01332604 -0.02292306
v -0.01174761 -0.01174801 -0.02211184
v -0.00432910 -0.01459461 -0.02291423
f 1 2 6
f 1 6 18
f 1 18 31
f 1 31 43
f 1 43 59
f 1 59 72
f 1 72 49
f 1 49 34
f 1 34 21
f 1 21 20
f 1 20 9
f 1 9 3
f 1 3 4
f 1 4 5
f 1 5 8
f 1 8 14
f 1 14 13
f 1 13 29
f 1 29 27
f 1 27 41
f 1 41 57
f 1 57 56
f 1 56 81
f 1 81 80
f 1 80 79
f 1 79 78
f 1 78 77
f 1 77 84
f 1 84 90
f 1 90 89
f 1 89 88
f 1 88 87
f 1 87 83
f 1 83 68
f 1 68 67
f 1 67 66
f 1 66 65
f 1 65 61
f 1 61 44
f 1 44 32
f 1 32 19
f 1 19 7
f 1 7 2
f 2 7 15
f 2 15 6
f 3 8 4
f 3 9 10
f 3 10 11
f 3 11 12
f 3 12 13
f 3 13 14
f 3 14 8
f 4 8 5
f 6 15 16
f 6 16 17
f 6 17 18
f 7 19 33
f 7 33 47
f 7 47 70
f 7 70 92
f 7 92 96
f 7 96 82
f 7 82 60
f 7 60 58
f 7 58 42
f 7 42 30
f 7 30 17
f 7 17 16
f 7 16 15
f 9 20 10
f 10 20 21
f 10 21 22
f 10 22 23
f 10 23 24
f 10 24 25
f 10 25 11
f 11 25 26
f 11 26 27
f 11 27 28
f 11 28 29
f 11 29 12
f 12 29 13
f 17 30 31
f 17 31 18
f 19 32 33
f 21 34 22
f 22 34 35
f 22 35 36
f 22 36 37
f 22 37 23
f 23 37 38
f 23 38 24
f 24 38 39
f 24 39 25
f 25 39 26
f 26 39 40
f 26 40 41
f 26 41 27
f 27 29 28
f 30 42 31
f 31 42 43
f 32 44 45
f 32 45 46
f 32 46 33
f 33 46 48
f 33 48 47
f 34 49 50
f 34 50 35
f 35 51 52
f 35 52 36
f 35 50 51
f 36 52 37
f 37 52 38
f 38 52 53
f 38 53 39
f 39 53 40
f 40 53 54
f 40 54 55
f 40 55 56
f 40 56 57
f 40 57 41
f 42 58 43
f 43 58 60
f 43 60 59
f 44 61 45
f 45 62 63
f 45 63 64
f 45 64 46
f 45 61 65
f 45 65 66
f 45 66 67
f 45 67 68
f 45 68 62
f 46 64 69
f 46 69 48
f 47 48 70
f 48 69 71
f 48 71 70
f 49 72 50
f 50 72 59
f 50 59 60
f 50 60 82
f 50 82 94
f 50 94 73
f 50 73 51
f 51 73 74
f 51 74 52
f 52 74 86
f 52 86 75
f 52 75 53
f 53 75 54
f 54 75 76
f 54 76 77
f 54 77 78
f 54 78 79
f 54 79 80
f 54 80 81
f 54 81 56
f 54 56 55
f 62 68 83
f 62 83 63
f 63 84 77
f 63 77 85
f 63 85 86
f 63 86 64
f 63 83 87
f 63 87 88
f 63 88 89
f 63 89 90
f 63 90 84
f 64 86 91
f 64 91 69
f 69 91 71
f 70 71 92
f 71 93 92
f 71 91 93
f 73 94 91
f 73 91 74
f 74 91 86
f 75 95 76
f 75 86 85
f 75 85 95
f 76 95 77
f 77 95 85
f 82 96 94
f 91 94 93
f 92 93 96
f 93 94 96

