# https://github.com/mikedh/trimesh
v -0.02733623 0.03490061 0.00832694
v -0.02733623 0.03491547 0.00829471
v -0.02715770 0.03498974 0.00832694
v -0.02733623 0.05661673 0.00832694
v -0.01988126 0.03956715 0.00832694
v -0.02733623 0.03504420 0.00821235
v -0.02021733 0.04055987 0.00743298
v -0.01967347 0.04007218 0.00802010
v -0.01967347 0.04000286 0.00807151
v -0.02733473 0.05668357 0.00832694
v -0.02733623 0.05651523 0.00807547
v -0.01967347 0.03996325 0.00810985
v -0.01967347 0.03977263 0.00832694
v -0.02733623 0.03606168 0.00757457
v -0.01967347 0.04128028 0.00734805
v -0.01967347 0.04117878 0.00739603
v -0.02266881 0.03922800 0.00741124
v -0.02710368 0.05691381 0.00832694
v -0.02733623 0.05648800 0.00804206
v -0.01967347 0.06016677 0.00832694
v -0.02733623 0.03634390 0.00748803
v -0.02666035 0.03681427 0.00745944
v -0.02511054 0.03789116 0.00739453
v -0.02094197 0.04125057 0.00727533
v -0.01967347 0.04252057 0.00723292
v -0.02601822 0.03762627 0.00735576
v -0.02601822 0.05745101 0.00832694
v -0.02601822 0.05672318 0.00770245
v -0.02684938 0.05593594 0.00741220
v -0.02733623 0.05644839 0.00801121
v -0.01967347 0.06018905 0.00832684
v -0.01967422 0.06018657 0.00832694
v -0.02733623 0.03693309 0.00735683
v -0.02348047 0.03998058 0.00725905
v -0.02601822 0.03871306 0.00724641
v -0.02728747 0.03871306 0.00723945
v -0.02733623 0.03871306 0.00723945
v -0.02733623 0.05267060 0.00723945
v -0.02728747 0.05394059 0.00723945
v -0.02474897 0.05520810 0.00723945
v -0.02094197 0.05647810 0.00723945
v -0.01967347 0.05647810 0.00723945
v -0.02348047 0.05864178 0.00832694
v -0.02348047 0.05794613 0.00772772
v -0.02601822 0.05608943 0.00736904
v -0.02727847 0.05523286 0.00734313
v -0.02733623 0.05521305 0.00734484
v -0.02733623 0.05529228 0.00736765
v -0.02422762 0.05716136 0.00743502
v -0.02348047 0.05731238 0.00738714
v -0.01967347 0.06013211 0.00823013
v -0.02028184 0.06001328 0.00832694
v -0.02733623 0.03733415 0.00731678
v -0.02733623 0.05394059 0.00724074
v -0.02601822 0.05520810 0.00725969
v -0.02221122 0.05647810 0.00724052
v -0.01967347 0.05774809 0.00726141
v -0.02095322 0.05974591 0.00832694
v -0.02221122 0.05818132 0.00753505
v -0.02101248 0.05896609 0.00773757
v -0.01967347 0.05930525 0.00759556
v -0.02348047 0.05647810 0.00727790
v -0.02148207 0.05832243 0.00747111
v -0.02063591 0.05850810 0.00741445
v -0.01967347 0.05866902 0.00737065
v -0.02221122 0.05754756 0.00734987
f 1 2 3
f 1 3 5
f 1 5 13
f 1 13 20
f 1 20 32
f 1 32 52
f 1 52 58
f 1 58 43
f 1 43 27
f 1 27 18
f 1 18 10
f 1 10 4
f 1 4 11
f 1 11 19
f 1 19 30
f 1 30 48
f 1 48 47
f 1 47 54
f 1 54 38
f 1 38 37
f 1 37 53
f 1 53 33
f 1 33 21
f 1 21 14
f 1 14 6
f 1 6 2
f 2 5 3
f 2 6 7
f 2 7 8
f 2 8 9
f 2 9 5
f 4 10 11
f 5 9 12
f 5 12 13
f 6 14 7
f 7 15 16
f 7 16 8
f 7 14 17
f 7 17 15
f 8 16 15
f 8 15 25
f 8 25 42
f 8 42 57
f 8 57 65
f 8 65 61
f 8 61 51
f 8 51 31
f 8 31 20
f 8 20 13
f 8 13 12
f 8 12 9
f 10 18 11
f 11 18 19
f 14 21 22
f 14 22 23
f 14 23 17
f 15 24 25
f 15 17 23
f 15 23 26
f 15 26 24
f 18 27 19
f 19 28 29
f 19 29 30
f 19 27 28
f 20 31 32
f 21 33 22
f 22 33 23
f 23 33 26
f 24 26 34
f 24 34 25
f 25 34 35
f 25 35 36
f 25 36 37
f 25 37 38
f 25 38 39
f 25 39 40
f 25 40 41
f 25 41 42
f 26 33 35
f 26 35 34
f 27 43 44
f 27 44 28
f 28 44 29
f 29 45 46
f 29 46 47
f 29 47 48
f 29 48 30
f 29 44 49
f 29 49 50
f 29 50 45
f 31 51 52
f 31 52 32
f 33 53 35
f 35 53 36
f 36 53 37
f 38 54 39
f 39 54 55
f 39 55 40
f 40 55 56
f 40 56 41
f 41 56 57
f 41 57 42
f 43 58 44
f 44 59 49
f 44 58 60
f 44 60 61
f 44 61 59
f 45 62 55
f 45 55 46
f 45 50 62
f 46 55 47
f 47 55 54
f 49 59 63
f 49 63 64
f 49 64 50
f 50 64 65
f 50 65 66
f 50 66 62
f 51 61 60
f 51 60 58
f 51 58 52
f 55 62 56
f 56 62 57
f 57 62 65
f 59 61 63
f 61 65 64
f 61 64 63
f 62 66 65

