# https://github.com/mikedh/trimesh
v -0.06411483 -0.00190540 0.01063178
v -0.06383599 -0.00190540 0.00936290
v -0.06400989 -0.00317549 0.01063178
v -0.06411483 -0.00190540 0.02332255
v -0.06408785 -0.00063531 0.01063178
v -0.06387197 -0.00008565 0.00936290
v -0.06387197 -0.00063531 0.00936290
v -0.06350918 -0.00190540 0.00866042
v -0.06347320 -0.00272722 0.00870645
v -0.06344022 -0.00357572 0.00877049
v -0.06368908 -0.00315948 0.00926083
v -0.06362911 -0.00444557 0.00951301
v -0.06356915 -0.00008565 0.00856835
v -0.06355715 -0.00063531 0.00859237
v -0.06358714 -0.00571566 0.02332255
v -0.06400989 -0.00317549 0.02332255
v -0.06352117 -0.00571566 0.00977319
v -0.06346421 -0.00638806 0.00996332
v -0.06219294 -0.01398725 0.00990928
v -0.06358414 -0.00571566 0.01063178
v -0.06167724 -0.01713578 0.01951392
v -0.06189312 -0.01586570 0.02332255
v -0.06400090 -0.00317549 0.02459143
v -0.06410284 -0.00190540 0.02459143
v -0.06408785 -0.00063531 0.02332255
v -0.06406386 -0.00008565 0.01063178
v -0.06259171 -0.00825050 0.00828216
v -0.06251676 -0.00952059 0.00832418
v -0.06340125 -0.00444557 0.00887857
v -0.06242981 -0.01079068 0.00838623
v -0.06335028 -0.00571566 0.00913875
v -0.06224691 -0.01303735 0.00861639
v -0.06315539 -0.00008565 0.00821411
v -0.06282558 -0.00063531 0.00796794
v -0.06271465 -0.00571566 0.00820210
v -0.06265768 -0.00698575 0.00824013
v -0.06379702 -0.00444557 0.02459143
v -0.06270265 -0.01079068 0.00936290
v -0.06249577 -0.01206077 0.00936290
v -0.06227090 -0.01341090 0.00943695
v -0.06217495 -0.01388585 0.00906270
v -0.06166825 -0.01713578 0.01063178
v -0.06219594 -0.01399258 0.01063178
v -0.06336227 -0.00703912 0.01063178
v -0.06141939 -0.01840587 0.01063178
v -0.06168024 -0.01713578 0.02332255
v -0.06189012 -0.01586570 0.02459143
v -0.06209400 -0.01464897 0.02459143
v -0.06372506 -0.00317549 0.02569619
v -0.06346421 -0.00638272 0.02524187
v -0.06352117 -0.00571566 0.02537196
v -0.06362612 -0.00444557 0.02557010
v -0.06377303 -0.00190540 0.02578025
v -0.06374305 -0.00008565 0.02592235
v -0.06394993 -0.00008565 0.02513980
v -0.06407586 -0.00063531 0.02459143
v -0.06406086 -0.00008565 0.02387093
v -0.06406386 -0.00008565 0.02332255
v -0.06177618 -0.00952059 0.00768975
v -0.06233087 -0.01206077 0.00849430
v -0.06168924 -0.01079068 0.00775179
v -0.06145537 -0.01460094 0.00820610
v -0.06128447 -0.01586570 0.00834420
v -0.06108359 -0.01713578 0.00854033
v -0.06096066 -0.01789357 0.00867843
v -0.06114355 -0.01835251 0.00934089
v -0.06145837 -0.01713578 0.00936290
v -0.06276861 -0.00008565 0.00789789
v -0.06240582 -0.00008565 0.00762971
v -0.06201905 -0.00317549 0.00750562
v -0.06183015 -0.00825050 0.00764572
v -0.06219594 -0.01399258 0.02527990
v -0.06103861 -0.01930241 0.00975117
v -0.06109858 -0.01943582 0.01063178
v -0.06141939 -0.01840587 0.02332255
v -0.06167724 -0.01713578 0.02459143
v -0.06333528 -0.00317549 0.02633063
v -0.06339525 -0.00190540 0.02641468
v -0.06343722 -0.00104622 0.02646672
v -0.06347621 -0.00020305 0.02651475
v -0.06224092 -0.01295196 0.02656679
v -0.06230688 -0.01206077 0.02664484
v -0.06226790 -0.01335754 0.02576624
v -0.06247478 -0.01206077 0.02586030
v -0.06347920 -0.00008565 0.02652076
v -0.06362312 -0.00008565 0.02622055
v -0.06405187 -0.00008565 0.02459143
v -0.06114355 -0.00952059 0.00736552
v -0.06105361 -0.01079068 0.00740355
v -0.06097565 -0.01174058 0.00743557
v -0.06146137 -0.01212481 0.00778381
v -0.06167425 -0.01341090 0.00818209
v -0.06088270 -0.01258908 0.00746759
v -0.06078676 -0.01333086 0.00749361
v -0.06064284 -0.01460094 0.00757167
v -0.06049293 -0.01586570 0.00770776
v -0.06002520 -0.01967596 0.00835020
v -0.05980932 -0.02094605 0.00854834
v -0.05968640 -0.02168249 0.00868443
v -0.06081674 -0.01873674 0.00890459
v -0.06217495 -0.00008565 0.00746159
v -0.06196208 -0.00444557 0.00753364
v -0.05853806 -0.02451617 0.00853633
v -0.05837316 -0.02536468 0.00911473
v -0.06041498 -0.02094605 0.01063178
v -0.06041797 -0.02094605 0.01190066
v -0.06081374 -0.02007086 0.01190066
v -0.06109858 -0.01943582 0.01316953
v -0.06141639 -0.01840587 0.02459143
v -0.06109558 -0.01943048 0.01951392
v -0.06109258 -0.01942515 0.02332255
v -0.06214197 -0.01380047 0.02612649
v -0.06237884 -0.01079068 0.02671089
v -0.06244180 -0.00952059 0.02675492
v -0.06087970 -0.01765876 0.02644471
v -0.06102662 -0.01681559 0.02660081
v -0.06118553 -0.01586570 0.02673891
v -0.06138641 -0.01460094 0.02687300
v -0.06165326 -0.01335754 0.02689702
v -0.06155432 -0.01206077 0.02714319
v -0.06103262 -0.01928640 0.02540599
v -0.06116454 -0.01840587 0.02564015
v -0.06288854 -0.00008565 0.02694705
v -0.06250176 -0.00825050 0.02679495
v -0.06255573 -0.00698575 0.02683097
v -0.06119452 -0.00825050 0.00734951
v -0.06028605 -0.00952059 0.00725745
v -0.06000721 -0.01460094 0.00734951
v -0.05985730 -0.01586570 0.00737353
v -0.05973736 -0.01675156 0.00741756
v -0.05794141 -0.02348089 0.00772177
v -0.05873595 -0.02348089 0.00835621
v -0.06204303 -0.00008565 0.00743757
v -0.05759061 -0.02602107 0.00822612
v -0.05730277 -0.02729115 0.00847429
v -0.05714387 -0.02798490 0.00867243
v -0.05716485 -0.02803293 0.00936290
v -0.05750366 -0.02729115 0.00936290
v -0.05814229 -0.02589299 0.00946898
v -0.05838215 -0.02538602 0.00996132
v -0.05959945 -0.02273378 0.01063178
v -0.05839415 -0.02541270 0.01570929
v -0.06041797 -0.02094605 0.01316953
v -0.06081075 -0.02006553 0.01824504
v -0.06108958 -0.01941981 0.02459143
v -0.06080775 -0.02006019 0.02332255
v -0.06155432 -0.01079068 0.02725326
v -0.06155432 -0.00952059 0.02733332
v -0.06075378 -0.01840587 0.02627459
v -0.05847510 -0.02439343 0.02659281
v -0.05975236 -0.02060985 0.02659681
v -0.05990827 -0.01967596 0.02673291
v -0.06028605 -0.01586570 0.02731130
v -0.05884388 -0.02221614 0.02687300
v -0.06011814 -0.01840587 0.02687700
v -0.06028605 -0.01460094 0.02746541
v -0.05713487 -0.02796355 0.02652476
v -0.06155432 -0.00190540 0.02752946
v -0.06155432 -0.00063531 0.02755347
v -0.06155432 -0.00008565 0.02756348
v -0.06155432 -0.00825050 0.02738936
v -0.06155432 -0.00698575 0.02742538
v -0.06155432 -0.00571566 0.02745340
v -0.06028605 -0.00825050 0.00724144
v -0.06158730 -0.00008565 0.00735752
v -0.06150934 -0.00063531 0.00734951
v -0.05901778 -0.01460094 0.00724144
v -0.05901778 -0.01586570 0.00726345
v -0.05858003 -0.01967596 0.00737553
v -0.05730577 -0.02348089 0.00737953
v -0.05718584 -0.02432406 0.00742556
v -0.05698196 -0.02517256 0.00749761
v -0.05677808 -0.02602107 0.00759168
v -0.05641529 -0.02729649 0.00778381
v -0.05649624 -0.02846519 0.00830417
v -0.05604051 -0.02982599 0.00851031
v -0.05586361 -0.03049839 0.00870044
v -0.05468529 -0.03323069 0.00973316
v -0.05474226 -0.03334275 0.01063178
v -0.05520099 -0.03236084 0.01063178
v -0.05751865 -0.02729115 0.01063178
v -0.05810031 -0.02603708 0.01316953
v -0.05567172 -0.03135224 0.01316953
v -0.05597454 -0.03074388 0.02078279
v -0.05524297 -0.03236084 0.02332255
v -0.05754264 -0.02729115 0.01824504
v -0.05810631 -0.02604775 0.01697816
v -0.05839415 -0.02541270 0.01824504
v -0.05754264 -0.02729115 0.02078279
v -0.06080475 -0.02005485 0.02459143
v -0.05838515 -0.02539670 0.02525588
v -0.06040298 -0.02094605 0.02459143
v -0.05839115 -0.02540737 0.02332255
v -0.06028605 -0.01333086 0.02753946
v -0.05863101 -0.02348089 0.02672690
v -0.05728179 -0.02729115 0.02666886
v -0.05754264 -0.02602107 0.02685899
v -0.05901778 -0.01967596 0.02730330
v -0.05774652 -0.02221614 0.02746741
v -0.05901778 -0.01840587 0.02747141
v -0.05774652 -0.02348089 0.02729129
v -0.05901778 -0.01713578 0.02758549
v -0.05901778 -0.01586570 0.02766155
v -0.05749166 -0.02729115 0.02586030
v -0.05716186 -0.02802759 0.02586030
v -0.05523997 -0.03236084 0.02459143
v -0.05476324 -0.03333741 0.02459143
v -0.05470028 -0.03322001 0.02543200
v -0.05439446 -0.03271304 0.02627659
v -0.05466430 -0.03186988 0.02657680
v -0.05603451 -0.02951114 0.02666886
v -0.05646626 -0.02845451 0.02678894
v -0.06028605 -0.00952059 0.02766955
v -0.06028605 -0.00008565 0.02768556
v -0.06028605 -0.00825050 0.02768356
v -0.06028605 -0.00698575 0.02768556
v -0.06028605 -0.01206077 0.02758749
v -0.06028605 -0.01079068 0.02763153
v -0.06028605 -0.00698575 0.00723944
v -0.06028605 -0.00008565 0.00723944
v -0.05901778 -0.01333086 0.00723944
v -0.05774652 -0.01840587 0.00723944
v -0.05647825 -0.02221614 0.00723944
v -0.05647825 -0.02348089 0.00726946
v -0.05652622 -0.02475098 0.00735151
v -0.05614245 -0.02602107 0.00737753
v -0.05595356 -0.02687491 0.00742356
v -0.05571369 -0.02771274 0.00749361
v -0.05550082 -0.02855591 0.00760369
v -0.05518900 -0.03098935 0.00839023
v -0.05513803 -0.02979398 0.00782984
v -0.05475125 -0.03200863 0.00855034
v -0.05336905 -0.03436736 0.00866042
v -0.05448441 -0.03285713 0.00888657
v -0.05423855 -0.03364160 0.00933088
v -0.05358792 -0.03462885 0.00936290
v -0.05441245 -0.03397780 0.01063178
v -0.05474825 -0.03334275 0.01316953
v -0.05523097 -0.03236084 0.01951392
v -0.05521898 -0.03236084 0.01570929
v -0.05520999 -0.03236084 0.01316953
v -0.05476025 -0.03334275 0.02078279
v -0.05476324 -0.03334275 0.02332255
v -0.05568671 -0.03137892 0.02459143
v -0.05597454 -0.03074921 0.02332255
v -0.05810631 -0.02604775 0.01824504
v -0.05753964 -0.02729115 0.02332255
v -0.05647825 -0.02729115 0.02715720
v -0.05774652 -0.02094605 0.02757949
v -0.05647825 -0.02602107 0.02742739
v -0.05647825 -0.02475098 0.02756948
v -0.05647825 -0.02348089 0.02765354
v -0.05774652 -0.01967596 0.02765955
v -0.05901778 -0.01460094 0.02768356
v -0.05647825 -0.02221614 0.02768356
v -0.05438546 -0.03397780 0.02332255
v -0.05438247 -0.03397246 0.02459143
v -0.05399869 -0.03372164 0.02594836
v -0.05206481 -0.03683816 0.02530392
v -0.05077855 -0.03809224 0.02650675
v -0.05327611 -0.03422328 0.02646472
v -0.05216375 -0.03573351 0.02660882
v -0.05354895 -0.03338011 0.02669488
v -0.05491016 -0.03109075 0.02675692
v -0.05529694 -0.02989003 0.02697507
v -0.04759739 -0.00008565 0.02768556
v -0.05901778 -0.01333086 0.02768556
v -0.04759739 -0.00008565 0.00723944
v -0.05520999 -0.02475098 0.00723944
v -0.05520999 -0.02602107 0.00726745
v -0.05393872 -0.02855591 0.00726745
v -0.05486519 -0.02855591 0.00737753
v -0.05467030 -0.02935638 0.00742156
v -0.05439446 -0.03019955 0.00752363
v -0.05414260 -0.03109075 0.00769175
v -0.05390874 -0.03231281 0.00807401
v -0.05225369 -0.03587759 0.00852032
v -0.05085351 -0.03818297 0.00862439
v -0.05377681 -0.03484231 0.01063178
v -0.05440045 -0.03397780 0.01697816
v -0.05393872 -0.03109075 0.02731130
v -0.05520999 -0.02855591 0.02740937
v -0.05520999 -0.02729115 0.02757749
v -0.05520999 -0.02602107 0.02765754
v -0.05520999 -0.02475098 0.02768556
v -0.05377382 -0.03484231 0.01190066
v -0.05377082 -0.03483697 0.01444041
v -0.05375283 -0.03481563 0.02332255
v -0.05374983 -0.03481029 0.02459143
v -0.04923744 -0.04029088 0.02586030
v -0.04974715 -0.03965584 0.02586030
v -0.04964820 -0.03953844 0.02663684
v -0.05098543 -0.03744119 0.02667086
v -0.05395971 -0.03231814 0.02687100
v -0.05242760 -0.03490101 0.02679295
v -0.04704871 -0.00008565 0.02766355
v -0.03363447 -0.03363092 0.02768556
v -0.03348756 -0.03363092 0.02768156
v -0.04632612 -0.00008565 0.00730948
v -0.03348756 -0.03251026 0.00724144
v -0.03348756 -0.03378035 0.00723944
v -0.05267045 -0.02982599 0.00723944
v -0.05395971 -0.02979398 0.00734951
v -0.05140219 -0.03236084 0.00724544
v -0.05267045 -0.03109075 0.00728547
v -0.05350697 -0.03109075 0.00739554
v -0.05333307 -0.03176848 0.00744558
v -0.05304224 -0.03261165 0.00759768
v -0.05267345 -0.03483164 0.00834220
v -0.05110836 -0.03744119 0.00842025
v -0.05011294 -0.03864724 0.00831018
v -0.04967819 -0.03956512 0.00851432
v -0.04861980 -0.04108069 0.00936290
v -0.04925243 -0.04031223 0.00936290
v -0.04977413 -0.03967719 0.00936290
v -0.05040976 -0.03889272 0.00936290
v -0.05091647 -0.03825767 0.00936290
v -0.05268545 -0.03617110 0.01316953
v -0.05325512 -0.03547736 0.01190066
v -0.05325512 -0.03547736 0.01063178
v -0.04696176 -0.04315125 0.02078279
v -0.05140219 -0.03490101 0.02734733
v -0.05267045 -0.03236084 0.02749143
v -0.05013093 -0.03744119 0.02717521
v -0.05393872 -0.02982599 0.02755948
v -0.05267045 -0.03109075 0.02764554
v -0.05393872 -0.02855591 0.02765754
v -0.05267045 -0.02982599 0.02768556
v -0.04643706 -0.04378630 0.02332255
v -0.04863179 -0.04110203 0.02205367
v -0.05207980 -0.03685951 0.02459143
v -0.04862579 -0.04109670 0.02459143
v -0.04643106 -0.04378630 0.02459143
v -0.04528573 -0.04518980 0.02459143
v -0.04465009 -0.04596359 0.02459143
v -0.04860481 -0.04105934 0.02586030
v -0.04846989 -0.04088857 0.02668887
v -0.04887765 -0.03996536 0.02688701
v -0.05009495 -0.03858854 0.02675892
v -0.05144416 -0.03616576 0.02690102
v -0.04632612 -0.00008565 0.02761952
v -0.03348756 -0.03490101 0.02768556
v -0.03348756 -0.03236084 0.02764153
v -0.03363447 -0.03236084 0.02765754
v -0.04560354 -0.00008565 0.00741956
v -0.03348756 -0.03236084 0.00725144
v -0.03348756 -0.05013140 0.00723944
v -0.04759739 -0.03744119 0.00723944
v -0.05264047 -0.03225944 0.00736752
v -0.04886266 -0.03617110 0.00724744
v -0.04890164 -0.03746787 0.00733350
v -0.05142317 -0.03364694 0.00733150
v -0.05219673 -0.03323602 0.00739154
v -0.04966619 -0.03706230 0.00739554
v -0.04934838 -0.03791080 0.00750362
v -0.05051171 -0.03640057 0.00757567
v -0.05010694 -0.03746787 0.00774779
v -0.04890164 -0.03882334 0.00761369
v -0.04888964 -0.03998137 0.00818409
v -0.04848788 -0.04092059 0.00845227
v -0.04690479 -0.04309255 0.00936290
v -0.04745047 -0.04245750 0.00936290
v -0.04808611 -0.04171573 0.00936290
v -0.04462611 -0.04593157 0.01063178
v -0.04526174 -0.04516312 0.01063178
v -0.04862579 -0.04109136 0.01063178
v -0.04644006 -0.04378630 0.02205367
v -0.04810710 -0.04173174 0.01316953
v -0.04643106 -0.04378630 0.01824504
v -0.04811609 -0.04174241 0.01824504
v -0.04464710 -0.04596359 0.02205367
v -0.04465009 -0.04596359 0.02332255
v -0.05013093 -0.03617110 0.02750544
v -0.04886266 -0.03870594 0.02735133
v -0.05140219 -0.03363092 0.02759550
v -0.05013093 -0.03490101 0.02764353
v -0.05140219 -0.03236084 0.02767956
v -0.04759739 -0.03744119 0.02768556
v -0.04407743 -0.04659863 0.02332255
v -0.04406843 -0.04659863 0.02459143
v -0.04457514 -0.04587287 0.02544201
v -0.04576545 -0.04450673 0.02537797
v -0.04722860 -0.04215332 0.02668687
v -0.04763037 -0.04128347 0.02692504
v -0.04759739 -0.03997603 0.02742739
v -0.04577744 -0.00008565 0.02743339
v -0.03348756 -0.03109075 0.02749944
v -0.03348756 -0.05013140 0.02768556
v -0.04524375 -0.00008565 0.00764572
v -0.03348756 -0.03050373 0.00747760
v -0.03348756 -0.03114945 0.00734151
v -0.03348756 -0.03122416 0.00733150
v -0.03348756 -0.05027549 0.00724144
v -0.03363447 -0.05013140 0.00723944
v -0.03998179 -0.04505638 0.00723944
v -0.04252133 -0.04378630 0.00726545
v -0.04378959 -0.04251621 0.00726946
v -0.04632612 -0.03997603 0.00728747
v -0.04771133 -0.03882334 0.00732750
v -0.04850587 -0.03847647 0.00738554
v -0.04821203 -0.03932498 0.00746359
v -0.04792420 -0.03997603 0.00757367
v -0.04755841 -0.04120342 0.00802398
v -0.04727957 -0.04224404 0.00844227
v -0.04561853 -0.04435197 0.00892460
v -0.04455715 -0.04585152 0.00971515
v -0.04575346 -0.04449071 0.00977118
v -0.04406543 -0.04656661 0.01063178
v -0.04407143 -0.04657195 0.01190066
v -0.04463211 -0.04594224 0.01316953
v -0.04527673 -0.04518446 0.01824504
v -0.04464710 -0.04595825 0.02078279
v -0.04407443 -0.04658796 0.01824504
v -0.04886266 -0.03744119 0.02759350
v -0.04886266 -0.03617110 0.02767756
v -0.04632612 -0.03997603 0.02763753
v -0.04378959 -0.04251621 0.02765354
v -0.04252133 -0.04378630 0.02765955
v -0.03998179 -0.04505638 0.02768556
v -0.04343580 -0.04721233 0.01190066
v -0.04343880 -0.04721233 0.01316953
v -0.04343880 -0.04721233 0.01570929
v -0.04344179 -0.04720699 0.02078279
v -0.04344179 -0.04720166 0.02332255
v -0.04343280 -0.04719632 0.02459143
v -0.04333686 -0.04711094 0.02543200
v -0.04377760 -0.04631046 0.02586030
v -0.04422134 -0.04549932 0.02628860
v -0.04595434 -0.04340207 0.02667487
v -0.04379559 -0.04506705 0.02690903
v -0.04635911 -0.04254822 0.02692504
v -0.04378959 -0.04378630 0.02745941
v -0.04505786 -0.04251621 0.02745340
v -0.04632612 -0.04124612 0.02744340
v -0.04759739 -0.03870594 0.02762752
v -0.04505786 -0.00008565 0.02717721
v -0.03348756 -0.02983667 0.02718722
v -0.03363447 -0.05013140 0.02768556
v -0.03348756 -0.05140149 0.02759550
v -0.04496791 -0.00008565 0.00782984
v -0.03348756 -0.03007681 0.00763371
v -0.04454516 -0.00008565 0.00819009
v -0.03348756 -0.05145485 0.00731949
v -0.03490573 -0.05013140 0.00727546
v -0.03617400 -0.04886131 0.00724344
v -0.03744227 -0.04759122 0.00723944
v -0.04125006 -0.04505638 0.00727746
v -0.04243138 -0.04498701 0.00737753
v -0.04372363 -0.04371158 0.00737153
v -0.04498890 -0.04243082 0.00738153
v -0.04728857 -0.03997603 0.00739754
v -0.04699474 -0.04064309 0.00744958
v -0.04660796 -0.04149160 0.00759568
v -0.04632912 -0.04251621 0.00802398
v -0.04605029 -0.04350346 0.00845427
v -0.04432928 -0.04560071 0.00886856
v -0.04333686 -0.04711094 0.00971515
v -0.04343280 -0.04719632 0.01063178
v -0.03998179 -0.04632113 0.02763353
v -0.03617400 -0.04886131 0.02768156
v -0.03871353 -0.04632113 0.02768556
v -0.04267424 -0.04784738 0.01316953
v -0.04205660 -0.04836502 0.01444041
v -0.04268923 -0.04784738 0.01444041
v -0.04268623 -0.04784204 0.01951392
v -0.04268323 -0.04784204 0.02078279
v -0.04268023 -0.04783670 0.02332255
v -0.04267424 -0.04783137 0.02459143
v -0.04062343 -0.04950169 0.02523987
v -0.04198164 -0.04830632 0.02535795
v -0.03817984 -0.05084649 0.02657880
v -0.03950807 -0.04962977 0.02661282
v -0.04293209 -0.04674806 0.02627659
v -0.04079732 -0.04839704 0.02662683
v -0.04252133 -0.04505638 0.02744139
v -0.03995181 -0.04883997 0.02682897
v -0.04123207 -0.04758055 0.02685699
v -0.03871353 -0.04759122 0.02761952
v -0.04429930 -0.00008565 0.02664885
v -0.03348756 -0.02873201 0.02674692
v -0.03490573 -0.05013140 0.02764754
v -0.03363447 -0.05140149 0.02758349
v -0.03348756 -0.05267158 0.02717721
v -0.03348756 -0.02994340 0.00769175
v -0.04425432 -0.00008565 0.00846428
v -0.03348756 -0.05163629 0.00733750
v -0.03749024 -0.04891468 0.00732950
v -0.03612003 -0.05013674 0.00735752
v -0.03998179 -0.04632113 0.00729147
v -0.03710046 -0.04972049 0.00738954
v -0.04195165 -0.04575013 0.00743357
v -0.04325590 -0.04451740 0.00741956
v -0.04451817 -0.04324197 0.00742556
v -0.04576245 -0.04194520 0.00743757
v -0.04536668 -0.04279371 0.00760769
v -0.04410441 -0.04408514 0.00761970
v -0.04379259 -0.04505638 0.00804799
v -0.04477302 -0.04475220 0.00846428
v -0.04304003 -0.04684945 0.00886856
v -0.03959802 -0.04968847 0.00851632
v -0.03818584 -0.05084116 0.00860638
v -0.04193067 -0.04825829 0.00988726
v -0.04260528 -0.04783137 0.01063178
v -0.04264426 -0.04784204 0.01190066
v -0.04204160 -0.04834367 0.01316953
v -0.03744227 -0.04886131 0.02760151
v -0.04063542 -0.04951236 0.01697816
v -0.04064741 -0.04952304 0.01824504
v -0.04064741 -0.04952304 0.01951392
v -0.04128304 -0.04900006 0.01951392
v -0.04205060 -0.04836502 0.02078279
v -0.04204760 -0.04835968 0.02332255
v -0.04127105 -0.04898939 0.02459143
v -0.03998179 -0.05005135 0.02459143
v -0.03922923 -0.05067039 0.02459143
v -0.03859360 -0.05118803 0.02459143
v -0.03779906 -0.05182308 0.02459143
v -0.03704050 -0.05219129 0.02553007
v -0.03840771 -0.05103327 0.02586030
v -0.03668670 -0.05195649 0.02637466
v -0.03584119 -0.05221264 0.02665085
v -0.03744227 -0.05108664 0.02674491
v -0.03744227 -0.05013140 0.02725727
v -0.03864757 -0.05008337 0.02678894
v -0.03871353 -0.04886131 0.02732932
v -0.04125006 -0.04632113 0.02740537
v -0.04413739 -0.00008565 0.02630261
v -0.03348756 -0.02810230 0.02586030
v -0.04393651 -0.00008565 0.02586030
v -0.03617400 -0.05013140 0.02753346
v -0.03490573 -0.05140149 0.02737335
v -0.03363447 -0.05267158 0.02713919
v -0.03348756 -0.05354143 0.02666686
v -0.03348756 -0.02877470 0.00829817
v -0.04388554 -0.00008565 0.00936290
v -0.03348756 -0.02869466 0.00835020
v -0.03348756 -0.05186043 0.00736552
v -0.03348756 -0.05214860 0.00741356
v -0.03566129 -0.05084116 0.00743157
v -0.03650681 -0.05056366 0.00753164
v -0.03794597 -0.04936828 0.00749361
v -0.04063242 -0.04697219 0.00745358
v -0.04279717 -0.04536590 0.00763171
v -0.04147793 -0.04659863 0.00764371
v -0.04219452 -0.04725502 0.00849030
v -0.04090526 -0.04848776 0.00850231
v -0.04000578 -0.04888800 0.00822011
v -0.03865057 -0.05011539 0.00829416
v -0.03744227 -0.05110798 0.00837422
v -0.03589216 -0.05227668 0.00847029
v -0.03439603 -0.05338667 0.00863040
v -0.03452195 -0.05347739 0.00936290
v -0.03515459 -0.05305047 0.00936290
v -0.03609005 -0.05241543 0.00936290
v -0.03672268 -0.05197783 0.00936290
v -0.03825480 -0.05088918 0.00936290
v -0.03888743 -0.05043024 0.00936290
v -0.03975993 -0.04979520 0.00936290
v -0.04197264 -0.04829031 0.01063178
v -0.04200862 -0.04831699 0.01190066
v -0.04062043 -0.04950169 0.01628368
v -0.03778407 -0.05182308 0.02332255
v -0.03922323 -0.05067039 0.02078279
v -0.03860259 -0.05118803 0.02332255
v -0.03923523 -0.05067572 0.02205367
v -0.03923822 -0.05067572 0.02332255
v -0.03998179 -0.05006736 0.02205367
v -0.04128004 -0.04900006 0.02078279
v -0.03716343 -0.05227668 0.02459143
v -0.03554136 -0.05330662 0.02522987
v -0.03348756 -0.05426719 0.02571820
v -0.03427610 -0.05330662 0.02649874
v -0.03478280 -0.05265023 0.02675492
v -0.03622797 -0.05148154 0.02694705
v -0.03363447 -0.05349340 0.02664484
v -0.03348756 -0.02789418 0.02459143
v -0.04367866 -0.00008565 0.02459143
v -0.04382257 -0.00008565 0.02531192
v -0.03348756 -0.05415513 0.02589032
v -0.04367566 -0.00008565 0.01063178
v -0.03348756 -0.02816634 0.00918678
v -0.03348756 -0.05272494 0.00771176
v -0.03415317 -0.05192980 0.00748561
v -0.03490573 -0.05169500 0.00760369
v -0.03485476 -0.05268759 0.00827815
v -0.03749024 -0.05013674 0.00770376
v -0.03880048 -0.04891468 0.00761369
v -0.03363447 -0.05361080 0.00842826
v -0.03348756 -0.05377090 0.00854234
v -0.03348756 -0.05416580 0.00940493
v -0.03348756 -0.05418714 0.00946697
v -0.03348756 -0.05431522 0.01038961
v -0.03370942 -0.05417647 0.01063178
v -0.03479480 -0.05368018 0.01697816
v -0.03703450 -0.05219663 0.01951392
v -0.03707348 -0.05222331 0.02078279
v -0.03711246 -0.05224999 0.02205367
v -0.03715143 -0.05227134 0.02332255
v -0.03555635 -0.05331730 0.02205367
v -0.03619199 -0.05290639 0.02332255
v -0.03618599 -0.05291172 0.02459143
v -0.03555036 -0.05331196 0.02459143
v -0.03348756 -0.05458738 0.02459143
v -0.03348756 -0.02799557 0.01063178
v -0.04366367 -0.00008565 0.01190066
v -0.04366367 -0.00008565 0.02332255
v -0.03348756 -0.02802759 0.01024151
v -0.03348756 -0.02810230 0.00936290
v -0.03348756 -0.05364282 0.00838823
v -0.03369143 -0.05264490 0.00774378
v -0.03348756 -0.05433123 0.01063178
v -0.03348756 -0.05444330 0.01316953
v -0.03348756 -0.05452334 0.01500280
v -0.03550838 -0.05327994 0.01951392
v -0.03553237 -0.05329595 0.02032848
v -0.03555036 -0.05331196 0.02117506
v -0.03555635 -0.05331730 0.02332255
v -0.03348756 -0.05459272 0.01744249
v -0.03348756 -0.05459806 0.01869335
v -0.03490573 -0.05372287 0.02205367
v -0.03490573 -0.05372287 0.02332255
v -0.03348756 -0.05460339 0.02332255
v -0.03348756 -0.05459806 0.02377286
v -0.03348756 -0.05456604 0.01620963
v -0.03388932 -0.05431522 0.01697816
f 1 2 3
f 1 3 16
f 1 16 4
f 1 4 25
f 1 25 5
f 1 5 6
f 1 6 7
f 1 7 2
f 2 8 9
f 2 9 10
f 2 10 11
f 2 11 12
f 2 12 3
f 2 7 13
f 2 13 14
f 2 14 8
f 3 15 16
f 3 12 17
f 3 17 18
f 3 18 19
f 3 19 20
f 3 20 21
f 3 21 22
f 3 22 15
f 4 16 23
f 4 23 24
f 4 24 56
f 4 56 25
f 5 25 58
f 5 58 26
f 5 26 6
f 6 26 58
f 6 58 57
f 6 57 87
f 6 87 55
f 6 55 54
f 6 54 86
f 6 86 85
f 6 85 123
f 6 123 160
f 6 160 214
f 6 214 266
f 6 266 296
f 6 296 341
f 6 341 386
f 6 386 436
f 6 436 479
f 6 479 527
f 6 527 529
f 6 529 578
f 6 578 577
f 6 577 606
f 6 606 605
f 6 605 580
f 6 580 535
f 6 535 485
f 6 485 442
f 6 442 440
f 6 440 389
f 6 389 345
f 6 345 299
f 6 299 268
f 6 268 220
f 6 220 165
f 6 165 133
f 6 133 101
f 6 101 69
f 6 69 68
f 6 68 33
f 6 33 13
f 6 13 7
f 8 14 27
f 8 27 28
f 8 28 9
f 9 28 10
f 10 29 11
f 10 28 30
f 10 30 29
f 11 29 31
f 11 31 12
f 12 31 32
f 12 32 17
f 13 33 14
f 14 33 34
f 14 34 35
f 14 35 36
f 14 36 27
f 15 37 16
f 15 22 37
f 16 37 23
f 17 32 18
f 18 32 38
f 18 38 39
f 18 39 19
f 19 39 40
f 19 40 41
f 19 41 42
f 19 42 43
f 19 43 44
f 19 44 20
f 20 44 21
f 21 43 42
f 21 42 45
f 21 45 46
f 21 46 22
f 21 44 43
f 22 46 76
f 22 76 47
f 22 47 48
f 22 48 37
f 23 49 24
f 23 37 50
f 23 50 51
f 23 51 52
f 23 52 49
f 24 49 53
f 24 53 54
f 24 54 55
f 24 55 56
f 25 56 57
f 25 57 58
f 27 36 59
f 27 59 28
f 28 59 61
f 28 61 30
f 29 30 60
f 29 60 31
f 30 61 60
f 31 60 32
f 32 60 62
f 32 62 63
f 32 63 64
f 32 64 65
f 32 65 66
f 32 66 67
f 32 67 41
f 32 41 38
f 33 68 34
f 34 68 69
f 34 69 70
f 34 70 71
f 34 71 35
f 35 71 36
f 36 71 59
f 37 48 72
f 37 72 50
f 38 41 39
f 39 41 40
f 41 67 73
f 41 73 45
f 41 45 42
f 45 73 74
f 45 74 108
f 45 108 75
f 45 75 46
f 46 75 109
f 46 109 76
f 47 76 72
f 47 72 48
f 49 77 78
f 49 78 79
f 49 79 80
f 49 80 53
f 49 52 81
f 49 81 82
f 49 82 77
f 50 72 83
f 50 83 84
f 50 84 81
f 50 81 51
f 51 81 52
f 53 80 85
f 53 85 86
f 53 86 54
f 55 87 56
f 56 87 57
f 59 71 88
f 59 88 89
f 59 89 90
f 59 90 61
f 60 91 92
f 60 92 62
f 60 61 91
f 61 90 93
f 61 93 94
f 61 94 95
f 61 95 91
f 62 92 91
f 62 91 95
f 62 95 96
f 62 96 63
f 63 96 97
f 63 97 64
f 64 97 98
f 64 98 65
f 65 98 99
f 65 99 100
f 65 100 66
f 66 100 73
f 66 73 67
f 69 101 70
f 70 102 71
f 70 101 88
f 70 88 102
f 71 102 88
f 72 76 83
f 73 100 99
f 73 99 103
f 73 103 104
f 73 104 74
f 74 105 106
f 74 106 107
f 74 107 108
f 74 104 105
f 75 108 110
f 75 110 111
f 75 111 109
f 76 112 83
f 76 109 112
f 77 82 78
f 78 82 113
f 78 113 79
f 79 113 80
f 80 113 114
f 80 114 85
f 81 115 116
f 81 116 117
f 81 117 118
f 81 118 119
f 81 119 120
f 81 120 82
f 81 84 83
f 81 83 112
f 81 112 109
f 81 109 121
f 81 121 122
f 81 122 115
f 82 120 113
f 85 114 124
f 85 124 125
f 85 125 123
f 88 101 126
f 88 126 127
f 88 127 128
f 88 128 129
f 88 129 89
f 89 129 90
f 90 129 93
f 93 129 94
f 94 129 130
f 94 130 95
f 95 130 96
f 96 130 131
f 96 131 97
f 97 131 132
f 97 132 98
f 98 132 99
f 99 132 103
f 101 133 126
f 103 134 135
f 103 135 136
f 103 136 104
f 103 132 134
f 104 136 137
f 104 137 138
f 104 138 139
f 104 139 105
f 105 139 140
f 105 140 141
f 105 141 142
f 105 142 106
f 106 143 107
f 106 142 188
f 106 188 143
f 107 143 144
f 107 144 110
f 107 110 108
f 109 111 145
f 109 145 121
f 110 144 146
f 110 146 111
f 111 146 190
f 111 190 145
f 113 147 114
f 113 120 147
f 114 147 148
f 114 148 124
f 115 122 149
f 115 149 150
f 115 150 151
f 115 151 116
f 116 151 152
f 116 152 117
f 117 153 118
f 117 152 154
f 117 154 155
f 117 155 153
f 118 120 119
f 118 153 120
f 120 153 156
f 120 156 147
f 121 150 149
f 121 149 122
f 121 145 157
f 121 157 150
f 123 158 159
f 123 159 160
f 123 125 148
f 123 148 161
f 123 161 162
f 123 162 163
f 123 163 158
f 124 148 125
f 126 164 127
f 126 133 165
f 126 165 166
f 126 166 164
f 127 164 167
f 127 167 168
f 127 168 128
f 128 168 129
f 129 168 169
f 129 169 130
f 130 169 170
f 130 170 171
f 130 171 131
f 131 171 172
f 131 172 173
f 131 173 134
f 131 134 132
f 134 173 135
f 135 174 175
f 135 175 176
f 135 176 136
f 135 173 174
f 136 176 177
f 136 177 178
f 136 178 179
f 136 179 137
f 137 140 138
f 137 179 180
f 137 180 140
f 138 140 139
f 140 180 181
f 140 181 141
f 141 181 182
f 141 182 142
f 142 182 183
f 142 183 184
f 142 184 185
f 142 185 186
f 142 186 187
f 142 187 246
f 142 246 188
f 143 188 189
f 143 189 144
f 144 189 146
f 145 190 191
f 145 191 157
f 146 192 190
f 146 189 193
f 146 193 192
f 147 156 148
f 148 156 194
f 148 194 161
f 150 195 151
f 150 157 196
f 150 196 197
f 150 197 195
f 151 195 152
f 152 195 154
f 153 155 154
f 153 154 198
f 153 198 199
f 153 199 200
f 153 200 156
f 154 195 197
f 154 197 201
f 154 201 198
f 156 200 202
f 156 202 203
f 156 203 194
f 157 191 204
f 157 204 205
f 157 205 206
f 157 206 207
f 157 207 208
f 157 208 209
f 157 209 210
f 157 210 211
f 157 211 212
f 157 212 196
f 158 163 213
f 158 213 159
f 159 213 160
f 160 213 215
f 160 215 216
f 160 216 214
f 161 194 217
f 161 217 218
f 161 218 213
f 161 213 162
f 162 213 163
f 164 166 219
f 164 219 167
f 165 220 166
f 166 220 219
f 167 221 222
f 167 222 168
f 167 219 221
f 168 222 223
f 168 223 224
f 168 224 169
f 169 224 170
f 170 224 225
f 170 225 226
f 170 226 171
f 171 226 227
f 171 227 172
f 172 227 228
f 172 228 173
f 173 228 229
f 173 229 174
f 174 229 175
f 175 229 176
f 176 230 177
f 176 229 231
f 176 231 230
f 177 230 232
f 177 232 233
f 177 233 234
f 177 234 235
f 177 235 178
f 178 235 236
f 178 236 237
f 178 237 179
f 179 237 238
f 179 238 185
f 179 185 239
f 179 239 240
f 179 240 241
f 179 241 180
f 180 241 183
f 180 183 181
f 181 183 182
f 183 241 240
f 183 240 184
f 184 240 239
f 184 239 185
f 185 238 242
f 185 242 243
f 185 243 207
f 185 207 206
f 185 206 244
f 185 244 245
f 185 245 186
f 186 189 246
f 186 246 187
f 186 245 189
f 188 246 189
f 189 247 193
f 189 245 247
f 190 192 191
f 191 244 206
f 191 206 205
f 191 205 204
f 191 192 244
f 192 193 247
f 192 247 244
f 194 203 217
f 196 212 248
f 196 248 197
f 197 248 201
f 198 201 199
f 199 249 202
f 199 202 200
f 199 201 250
f 199 250 251
f 199 251 249
f 201 248 250
f 202 249 252
f 202 252 253
f 202 253 203
f 203 254 213
f 203 213 218
f 203 218 217
f 203 253 255
f 203 255 254
f 207 243 256
f 207 256 257
f 207 257 208
f 208 258 209
f 208 257 259
f 208 259 260
f 208 260 258
f 209 258 260
f 209 260 261
f 209 261 210
f 210 261 260
f 210 260 262
f 210 262 263
f 210 263 211
f 211 263 264
f 211 264 265
f 211 265 212
f 212 265 248
f 213 254 215
f 214 216 267
f 214 267 285
f 214 285 328
f 214 328 378
f 214 378 419
f 214 419 461
f 214 461 438
f 214 438 388
f 214 388 342
f 214 342 297
f 214 297 266
f 215 254 216
f 216 254 267
f 219 220 268
f 219 268 301
f 219 301 347
f 219 347 394
f 219 394 446
f 219 446 395
f 219 395 348
f 219 348 302
f 219 302 269
f 219 269 223
f 219 223 222
f 219 222 221
f 223 269 270
f 223 270 224
f 224 270 226
f 224 226 225
f 226 270 271
f 226 271 272
f 226 272 227
f 227 272 273
f 227 273 228
f 228 273 229
f 229 273 274
f 229 274 275
f 229 275 231
f 230 231 275
f 230 275 276
f 230 276 277
f 230 277 232
f 232 277 233
f 233 235 234
f 233 277 278
f 233 278 235
f 235 278 236
f 236 278 237
f 237 279 280
f 237 280 243
f 237 243 242
f 237 242 238
f 237 278 279
f 243 280 256
f 244 247 245
f 248 265 281
f 248 281 282
f 248 282 250
f 249 251 252
f 250 282 283
f 250 283 251
f 251 283 252
f 252 255 253
f 252 283 284
f 252 284 255
f 254 255 285
f 254 285 267
f 255 284 285
f 256 280 279
f 256 279 286
f 256 286 287
f 256 287 288
f 256 288 289
f 256 289 257
f 257 289 259
f 259 289 290
f 259 290 291
f 259 291 292
f 259 292 260
f 260 292 293
f 260 293 262
f 262 293 263
f 263 294 264
f 263 293 295
f 263 295 294
f 264 294 265
f 265 294 281
f 266 297 298
f 266 298 296
f 268 299 300
f 268 300 301
f 269 302 270
f 270 302 271
f 271 303 272
f 271 302 304
f 271 304 305
f 271 305 303
f 272 303 306
f 272 306 273
f 273 306 307
f 273 307 274
f 274 307 275
f 275 307 308
f 275 308 276
f 276 308 309
f 276 309 277
f 277 309 310
f 277 310 278
f 278 310 311
f 278 311 312
f 278 312 313
f 278 313 314
f 278 314 315
f 278 315 316
f 278 316 317
f 278 317 279
f 279 318 319
f 279 319 286
f 279 317 316
f 279 316 315
f 279 315 314
f 279 314 320
f 279 320 321
f 279 321 318
f 281 322 323
f 281 323 282
f 281 294 324
f 281 324 322
f 282 323 325
f 282 325 283
f 283 325 326
f 283 326 327
f 283 327 284
f 284 327 328
f 284 328 285
f 286 319 318
f 286 318 287
f 287 318 329
f 287 329 330
f 287 330 288
f 288 331 289
f 288 330 332
f 288 332 331
f 289 331 290
f 290 332 333
f 290 333 334
f 290 334 335
f 290 335 336
f 290 336 292
f 290 292 291
f 290 331 332
f 292 336 337
f 292 337 338
f 292 338 339
f 292 339 293
f 293 339 340
f 293 340 295
f 294 295 340
f 294 340 324
f 296 298 341
f 297 342 298
f 298 342 388
f 298 388 439
f 298 439 483
f 298 483 533
f 298 533 579
f 298 579 571
f 298 571 603
f 298 603 623
f 298 623 622
f 298 622 619
f 298 619 618
f 298 618 624
f 298 624 613
f 298 613 612
f 298 612 611
f 298 611 592
f 298 592 591
f 298 591 590
f 298 590 589
f 298 589 609
f 298 609 582
f 298 582 538
f 298 538 537
f 298 537 486
f 298 486 443
f 298 443 393
f 298 393 347
f 298 347 301
f 298 301 300
f 298 300 346
f 298 346 392
f 298 392 391
f 298 391 390
f 298 390 441
f 298 441 484
f 298 484 534
f 298 534 536
f 298 536 581
f 298 581 608
f 298 608 607
f 298 607 604
f 298 604 576
f 298 576 528
f 298 528 480
f 298 480 437
f 298 437 387
f 298 387 343
f 298 343 344
f 298 344 341
f 299 345 300
f 300 345 346
f 302 348 304
f 303 305 349
f 303 349 306
f 304 350 351
f 304 351 305
f 304 348 350
f 305 352 349
f 305 351 352
f 306 349 353
f 306 353 307
f 307 353 354
f 307 354 355
f 307 355 356
f 307 356 308
f 308 356 357
f 308 357 310
f 308 310 309
f 310 357 311
f 311 357 358
f 311 358 359
f 311 359 312
f 312 359 360
f 312 360 361
f 312 361 362
f 312 362 363
f 312 363 313
f 313 363 364
f 313 364 365
f 313 365 366
f 313 366 320
f 313 320 314
f 318 321 367
f 318 367 329
f 320 366 368
f 320 368 369
f 320 369 370
f 320 370 321
f 321 370 371
f 321 371 372
f 321 372 367
f 322 373 323
f 322 324 374
f 322 374 373
f 323 373 375
f 323 375 325
f 324 339 338
f 324 338 374
f 324 340 339
f 325 375 326
f 326 375 414
f 326 414 376
f 326 376 415
f 326 415 377
f 326 377 327
f 327 377 328
f 328 377 378
f 329 367 334
f 329 334 333
f 329 333 332
f 329 332 330
f 334 367 335
f 335 372 379
f 335 379 380
f 335 380 381
f 335 381 382
f 335 382 336
f 335 367 372
f 336 382 381
f 336 381 337
f 337 381 383
f 337 383 384
f 337 384 338
f 338 385 374
f 338 384 385
f 341 344 343
f 341 343 387
f 341 387 386
f 345 389 390
f 345 390 391
f 345 391 392
f 345 392 346
f 347 393 394
f 348 395 396
f 348 396 397
f 348 397 350
f 349 352 353
f 350 397 398
f 350 398 351
f 351 398 399
f 351 399 400
f 351 400 354
f 351 354 353
f 351 353 352
f 354 400 401
f 354 401 355
f 355 401 358
f 355 358 357
f 355 357 356
f 358 401 402
f 358 402 359
f 359 402 403
f 359 403 360
f 360 403 404
f 360 404 405
f 360 405 361
f 361 405 406
f 361 406 407
f 361 407 364
f 361 364 362
f 362 364 363
f 364 407 406
f 364 406 408
f 364 408 409
f 364 409 410
f 364 410 365
f 365 410 366
f 366 410 368
f 368 410 369
f 369 410 411
f 369 411 412
f 369 412 371
f 369 371 370
f 371 412 409
f 371 409 413
f 371 413 379
f 371 379 372
f 373 374 414
f 373 414 375
f 374 385 414
f 376 414 415
f 377 415 378
f 378 416 417
f 378 417 418
f 378 418 419
f 378 415 416
f 379 413 420
f 379 420 421
f 379 421 422
f 379 422 423
f 379 423 424
f 379 424 380
f 380 424 425
f 380 425 426
f 380 426 381
f 381 426 427
f 381 427 383
f 383 427 428
f 383 428 429
f 383 429 430
f 383 430 431
f 383 431 384
f 384 431 432
f 384 432 433
f 384 433 434
f 384 434 385
f 385 435 414
f 385 434 435
f 386 387 436
f 387 437 436
f 388 438 439
f 389 440 390
f 390 440 442
f 390 442 441
f 393 443 444
f 393 444 445
f 393 445 394
f 394 445 446
f 395 446 396
f 396 446 445
f 396 445 447
f 396 447 448
f 396 448 449
f 396 449 397
f 397 449 398
f 398 449 450
f 398 450 399
f 399 450 451
f 399 451 400
f 400 451 401
f 401 451 452
f 401 452 402
f 402 452 453
f 402 453 403
f 403 453 404
f 404 453 454
f 404 454 455
f 404 455 405
f 405 456 457
f 405 457 406
f 405 455 456
f 406 457 408
f 408 457 458
f 408 458 420
f 408 420 409
f 409 420 413
f 409 412 410
f 410 412 411
f 414 435 415
f 415 435 416
f 416 435 433
f 416 433 417
f 417 433 432
f 417 432 418
f 418 432 459
f 418 459 460
f 418 460 461
f 418 461 419
f 420 458 462
f 420 462 463
f 420 463 464
f 420 464 421
f 421 464 422
f 422 464 423
f 423 465 466
f 423 466 424
f 423 464 465
f 424 466 467
f 424 467 468
f 424 468 425
f 425 468 469
f 425 469 470
f 425 470 426
f 426 470 471
f 426 471 472
f 426 472 473
f 426 473 427
f 427 473 428
f 428 473 474
f 428 474 429
f 429 474 430
f 430 475 431
f 430 474 476
f 430 476 477
f 430 477 475
f 431 475 432
f 432 475 478
f 432 478 459
f 433 435 434
f 436 437 479
f 437 480 479
f 438 460 481
f 438 481 439
f 438 461 460
f 439 482 483
f 439 481 482
f 441 442 485
f 441 485 484
f 443 486 444
f 444 487 445
f 444 486 488
f 444 488 487
f 445 487 489
f 445 489 447
f 447 489 487
f 447 487 448
f 448 487 490
f 448 490 491
f 448 491 492
f 448 492 449
f 449 492 493
f 449 493 450
f 450 493 494
f 450 494 451
f 451 494 452
f 452 494 453
f 453 494 493
f 453 493 495
f 453 495 454
f 454 495 496
f 454 496 455
f 455 496 497
f 455 497 498
f 455 498 456
f 456 498 499
f 456 499 457
f 457 499 500
f 457 500 501
f 457 501 502
f 457 502 458
f 458 502 503
f 458 503 504
f 458 504 505
f 458 505 463
f 458 463 462
f 459 478 460
f 460 506 481
f 460 478 506
f 463 505 507
f 463 507 508
f 463 508 464
f 464 508 509
f 464 509 510
f 464 510 511
f 464 511 465
f 465 511 466
f 466 511 512
f 466 512 467
f 467 512 468
f 468 512 513
f 468 513 469
f 469 513 514
f 469 514 515
f 469 515 516
f 469 516 517
f 469 517 518
f 469 518 519
f 469 519 470
f 470 519 471
f 471 519 518
f 471 518 520
f 471 520 521
f 471 521 522
f 471 522 523
f 471 523 524
f 471 524 472
f 472 524 476
f 472 476 474
f 472 474 473
f 475 477 476
f 475 476 525
f 475 525 526
f 475 526 506
f 475 506 478
f 476 524 525
f 479 480 527
f 480 528 529
f 480 529 527
f 481 506 482
f 482 506 530
f 482 530 531
f 482 531 483
f 483 532 533
f 483 531 532
f 484 485 534
f 485 535 536
f 485 536 534
f 486 537 488
f 487 488 490
f 488 537 490
f 490 537 538
f 490 538 539
f 490 539 540
f 490 540 541
f 490 541 542
f 490 542 491
f 491 543 492
f 491 542 544
f 491 544 543
f 492 543 496
f 492 496 495
f 492 495 493
f 496 543 497
f 497 543 545
f 497 545 498
f 498 545 499
f 499 545 546
f 499 546 500
f 500 546 547
f 500 547 548
f 500 548 549
f 500 549 501
f 501 549 550
f 501 550 551
f 501 551 552
f 501 552 553
f 501 553 554
f 501 554 555
f 501 555 556
f 501 556 557
f 501 557 558
f 501 558 502
f 502 558 503
f 503 558 557
f 503 557 556
f 503 556 559
f 503 559 560
f 503 560 505
f 503 505 504
f 505 560 561
f 505 561 507
f 506 525 530
f 506 526 525
f 507 561 562
f 507 562 563
f 507 563 508
f 508 563 564
f 508 564 565
f 508 565 566
f 508 566 509
f 509 566 567
f 509 567 510
f 510 567 568
f 510 568 511
f 511 568 567
f 511 567 512
f 512 567 566
f 512 566 513
f 513 566 514
f 514 566 515
f 515 566 516
f 516 566 564
f 516 564 517
f 517 564 562
f 517 562 569
f 517 569 518
f 518 569 570
f 518 570 520
f 520 570 571
f 520 571 572
f 520 572 521
f 521 573 532
f 521 532 574
f 521 574 522
f 521 572 575
f 521 575 573
f 522 574 523
f 523 574 532
f 523 532 531
f 523 531 530
f 523 530 525
f 523 525 524
f 528 576 577
f 528 577 578
f 528 578 529
f 532 573 533
f 533 573 575
f 533 575 579
f 535 580 581
f 535 581 536
f 538 582 583
f 538 583 539
f 539 583 540
f 540 583 584
f 540 584 585
f 540 585 550
f 540 550 549
f 540 549 586
f 540 586 541
f 541 587 542
f 541 586 587
f 542 587 544
f 543 544 547
f 543 547 546
f 543 546 545
f 544 587 547
f 547 587 586
f 547 586 548
f 548 586 549
f 550 585 551
f 551 585 588
f 551 588 589
f 551 589 590
f 551 590 591
f 551 591 552
f 552 591 592
f 552 592 553
f 553 592 554
f 554 592 555
f 555 592 593
f 555 593 556
f 556 593 594
f 556 594 595
f 556 595 561
f 556 561 559
f 559 561 560
f 561 595 596
f 561 596 597
f 561 597 562
f 562 597 598
f 562 598 569
f 562 564 563
f 564 566 565
f 569 598 599
f 569 599 600
f 569 600 601
f 569 601 570
f 570 601 602
f 570 602 603
f 570 603 571
f 571 579 572
f 572 579 575
f 576 604 605
f 576 605 606
f 576 606 577
f 580 605 604
f 580 604 607
f 580 607 608
f 580 608 581
f 582 609 588
f 582 588 585
f 582 585 610
f 582 610 584
f 582 584 583
f 584 610 585
f 588 609 589
f 592 611 593
f 593 611 612
f 593 612 613
f 593 613 594
f 594 613 614
f 594 614 597
f 594 597 596
f 594 596 595
f 597 614 615
f 597 615 598
f 598 615 616
f 598 616 599
f 599 617 601
f 599 601 600
f 599 616 618
f 599 618 619
f 599 619 620
f 599 620 621
f 599 621 617
f 601 617 602
f 602 617 621
f 602 621 622
f 602 622 623
f 602 623 603
f 613 624 625
f 613 625 615
f 613 615 614
f 615 625 616
f 616 625 624
f 616 624 618
f 619 622 620
f 620 622 621

