mtllib material.mtl
usemtl mtl_csm_outer_door
v -0.15665035 -0.09750034 0.00000000
v -0.15000001 0.06500000 0.00000000
v -0.15000001 -0.07500000 0.00000000
v -0.15000001 -0.07500000 0.02000000
v -0.14750034 -0.10665035 0.00000000
v -0.14665036 -0.08750034 0.00000000
v -0.14665036 -0.08750034 0.02000000
v -0.14750034 0.10665035 0.00000000
v -0.14665036 0.07750034 0.00000000
v -0.15000001 0.06500000 0.02000000
v -0.15665035 0.09750034 0.00000000
v -0.13500001 0.11000000 0.00000000
v -0.13750035 0.08665036 0.00000000
v -0.14665036 0.07750034 0.02000000
v -0.12500000 0.09000000 0.00000000
v -0.13750035 0.08665036 0.02000000
v 0.13500001 0.11000000 0.00000000
v 0.12500000 0.09000000 0.00000000
v -0.02079977 0.09000000 0.00861431
v -0.12500000 0.09000000 0.02000000
v 0.13750035 0.08665036 0.00000000
v 0.12500000 0.09000000 0.02000000
v 0.02079977 0.09000000 0.01138569
v -0.01920023 0.09000000 0.00861431
v -0.01840000 0.09000000 0.01000000
v 0.01920023 0.09000000 0.00861431
v 0.02160000 0.09000000 0.01000000
v 0.02079977 0.09000000 0.00861431
v 0.14750034 0.10665035 0.00000000
v 0.14665036 0.07750034 0.00000000
v 0.13750035 0.08665036 0.02000000
v 0.15000001 0.06500000 0.00000000
v 0.14665036 0.07750034 0.02000000
v 0.15665035 0.09750034 0.00000000
v 0.15000001 -0.07500000 0.00000000
v 0.15000001 0.06500000 0.02000000
v 0.14750034 -0.10665035 0.00000000
v 0.14665036 -0.08750034 0.00000000
v 0.15000001 -0.07500000 0.02000000
v 0.15665035 -0.09750034 0.00000000
v 0.13500001 -0.11000000 0.00000000
v 0.13750035 -0.09665035 0.00000000
v 0.14665036 -0.08750034 0.02000000
v 0.12500000 -0.10000000 0.00000000
v 0.13750035 -0.09665035 0.02000000
v -0.13500001 -0.11000000 0.00000000
v -0.12500000 -0.10000000 0.00000000
v 0.07047515 -0.10000000 0.01281765
v 0.12500000 -0.10000000 0.02000000
v -0.13750035 -0.09665035 0.00000000
v -0.12500000 -0.10000000 0.02000000
v -0.05777515 -0.10000000 0.01498235
v -0.05840000 -0.10000000 0.01390000
v -0.05777515 -0.10000000 0.01281765
v -0.05652485 -0.10000000 0.01281765
v 0.00510000 -0.10000000 0.01390000
v 0.00572485 -0.10000000 0.01281765
v 0.00697515 -0.10000000 0.01281765
v 0.06860000 -0.10000000 0.01390000
v 0.06922485 -0.10000000 0.01281765
v -0.13750035 -0.09665035 0.02000000
v 0.02000000 0.11000000 0.00750011
v 0.14750034 0.10665035 0.02500000
v 0.13500001 0.11000000 0.02500000
v -0.13500001 0.11000000 0.02500000
v -0.02000000 0.11000000 0.01249989
v -0.02176747 0.11000000 0.00823202
v -0.02000000 0.11000000 0.00750011
v 0.01823253 0.11000000 0.00823202
v -0.02250000 0.11000000 0.01000000
v -0.02176747 0.11000000 0.01176798
v -0.14750034 0.10665035 0.02500000
v -0.16000000 -0.08500000 0.00000000
v -0.16000000 0.08500000 0.00000000
v -0.15665035 0.09750034 0.02500000
v -0.16000000 0.08500000 0.02500000
v -0.16000000 -0.08500000 0.02500000
v -0.15665035 -0.09750034 0.02500000
v -0.14750034 -0.10665035 0.02500000
v -0.05715000 -0.11000000 0.01140011
v -0.13500001 -0.11000000 0.02500000
v 0.13500001 -0.11000000 0.02500000
v 0.06985000 -0.11000000 0.01639989
v -0.05538253 -0.11000000 0.01213202
v -0.05465000 -0.11000000 0.01390000
v 0.00635000 -0.11000000 0.01140011
v 0.00811747 -0.11000000 0.01213202
v 0.00885000 -0.11000000 0.01390000
v 0.06985000 -0.11000000 0.01140011
v 0.07161747 -0.11000000 0.01213202
v 0.07235000 -0.11000000 0.01390000
v 0.07161747 -0.11000000 0.01566798
v 0.14750034 -0.10665035 0.02500000
v 0.16000000 0.08500000 0.00000000
v 0.16000000 -0.08500000 0.00000000
v 0.15665035 -0.09750034 0.02500000
v 0.16000000 -0.08500000 0.02500000
v 0.16000000 0.08500000 0.02500000
v 0.15665035 0.09750034 0.02500000
v -0.05891747 -0.11000000 0.01213202
v -0.05965000 -0.11000000 0.01390000
v -0.05891747 -0.11000000 0.01566798
v -0.05715000 -0.11000000 0.01639989
v 0.00385000 -0.11000000 0.01390000
v 0.00458253 -0.11000000 0.01566798
v 0.00635000 -0.11000000 0.01639989
v 0.06735000 -0.11000000 0.01390000
v 0.06808253 -0.11000000 0.01566798
v -0.01823253 0.11000000 0.01176798
v -0.01750000 0.11000000 0.01000000
v 0.02000000 0.11000000 0.01249989
v 0.02176747 0.11000000 0.00823202
v 0.02250000 0.11000000 0.01000000
v 0.02176747 0.11000000 0.01176798
v -0.05965000 -0.10420000 0.01390000
v -0.05891766 -0.10420000 0.01566766
v -0.05891766 -0.10420000 0.01213234
v -0.05715000 -0.10420000 0.01140000
v -0.05538234 -0.10420000 0.01213234
v -0.05538253 -0.11000000 0.01566798
v -0.05465000 -0.10420000 0.01390000
v 0.00458253 -0.11000000 0.01213202
v -0.05538234 -0.10420000 0.01566766
v -0.05715000 -0.10420000 0.01640000
v 0.00385000 -0.10420000 0.01390000
v 0.00458234 -0.10420000 0.01566766
v 0.00458234 -0.10420000 0.01213234
v 0.00635000 -0.10420000 0.01140000
v 0.00811766 -0.10420000 0.01213234
v 0.00811747 -0.11000000 0.01566798
v 0.00885000 -0.10420000 0.01390000
v 0.06808253 -0.11000000 0.01213202
v 0.00811766 -0.10420000 0.01566766
v 0.00635000 -0.10420000 0.01640000
v 0.06735000 -0.10420000 0.01390000
v 0.06808234 -0.10420000 0.01566766
v 0.06808234 -0.10420000 0.01213234
v 0.06985000 -0.10420000 0.01140000
v 0.07161766 -0.10420000 0.01213234
v 0.07235000 -0.10420000 0.01390000
v 0.07161766 -0.10420000 0.01566766
v 0.06985000 -0.10420000 0.01640000
v 0.01750000 0.11000000 0.01000000
v -0.01823253 0.11000000 0.00823202
v -0.01750000 0.10620000 0.01000000
v -0.01823234 0.10620000 0.01176766
v 0.01823253 0.11000000 0.01176798
v -0.01823234 0.10620000 0.00823234
v -0.02000000 0.10620000 0.00750000
v -0.02176766 0.10620000 0.00823234
v -0.02250000 0.10620000 0.01000000
v -0.02176766 0.10620000 0.01176766
v -0.02000000 0.10620000 0.01250000
v 0.02250000 0.10620000 0.01000000
v 0.02176766 0.10620000 0.01176766
v 0.02176766 0.10620000 0.00823234
v 0.02000000 0.10620000 0.00750000
v 0.01823234 0.10620000 0.00823234
v 0.01750000 0.10620000 0.01000000
v 0.01823234 0.10620000 0.01176766
v 0.02000000 0.10620000 0.01250000
v -0.02079977 0.09000000 0.01138569
v -0.01920023 0.09000000 0.01138569
v 0.01840000 0.09000000 0.01000000
v -0.02160000 0.09000000 0.01000000
v 0.01920023 0.09000000 0.01138569
v -0.05652485 -0.10000000 0.01498235
v -0.05590000 -0.10000000 0.01390000
v 0.00572485 -0.10000000 0.01498235
v 0.00697515 -0.10000000 0.01498235
v 0.00760000 -0.10000000 0.01390000
v 0.06922485 -0.10000000 0.01498235
v 0.07047515 -0.10000000 0.01498235
v 0.07110000 -0.10000000 0.01390000
v -0.05840000 -0.10420000 0.01390000
v -0.05777500 -0.10420000 0.01281747
v -0.05777500 -0.10420000 0.01498253
v -0.05652500 -0.10420000 0.01498253
v -0.05590000 -0.10420000 0.01390000
v -0.05652500 -0.10420000 0.01281747
v 0.00510000 -0.10420000 0.01390000
v 0.00572500 -0.10420000 0.01281747
v 0.00572500 -0.10420000 0.01498253
v 0.00697500 -0.10420000 0.01498253
v 0.00760000 -0.10420000 0.01390000
v 0.00697500 -0.10420000 0.01281747
v 0.06860000 -0.10420000 0.01390000
v 0.06922500 -0.10420000 0.01281747
v 0.06922500 -0.10420000 0.01498253
v 0.07047500 -0.10420000 0.01498253
v 0.07110000 -0.10420000 0.01390000
v 0.07047500 -0.10420000 0.01281747
v -0.01840000 0.10620000 0.01000000
v -0.01919981 0.10620000 0.00861459
v -0.01919981 0.10620000 0.01138541
v -0.02080019 0.10620000 0.01138541
v -0.02160000 0.10620000 0.01000000
v -0.02080019 0.10620000 0.00861459
v 0.02160000 0.10620000 0.01000000
v 0.02080019 0.10620000 0.00861459
v 0.02080019 0.10620000 0.01138541
v 0.01919981 0.10620000 0.01138541
v 0.01840000 0.10620000 0.01000000
v 0.01919981 0.10620000 0.00861459
f 1 2 3
f 4 3 2
f 5 3 6
f 7 6 3
f 5 1 3
f 7 3 4
f 8 9 2
f 10 2 9
f 11 8 2
f 1 11 2
f 4 2 10
f 12 13 9
f 14 9 13
f 8 12 9
f 10 9 14
f 12 15 13
f 16 13 15
f 14 13 16
f 17 18 15
f 19 15 18
f 12 17 15
f 16 15 20
f 19 20 15
f 17 21 18
f 22 18 21
f 23 18 22
f 24 18 25
f 26 25 18
f 24 19 18
f 23 27 18
f 28 18 27
f 28 26 18
f 29 30 21
f 31 21 30
f 29 21 17
f 31 22 21
f 29 32 30
f 33 30 32
f 31 30 33
f 34 35 32
f 36 32 35
f 29 34 32
f 33 32 36
f 37 38 35
f 39 35 38
f 40 37 35
f 34 40 35
f 36 35 39
f 41 42 38
f 43 38 42
f 37 41 38
f 39 38 43
f 41 44 42
f 45 42 44
f 43 42 45
f 46 47 44
f 48 44 47
f 41 46 44
f 45 44 49
f 48 49 44
f 46 50 47
f 51 47 50
f 52 47 51
f 52 53 47
f 54 47 53
f 54 55 47
f 56 47 55
f 57 47 56
f 57 58 47
f 59 47 58
f 60 47 59
f 60 48 47
f 5 6 50
f 61 50 6
f 46 5 50
f 51 50 61
f 61 6 7
f 62 17 12
f 63 29 17
f 63 17 64
f 62 64 17
f 65 12 8
f 66 12 65
f 67 68 12
f 69 12 68
f 70 67 12
f 71 70 12
f 66 71 12
f 69 62 12
f 72 8 11
f 65 8 72
f 73 74 11
f 75 11 74
f 1 73 11
f 72 11 75
f 76 74 73
f 75 74 76
f 77 73 1
f 76 73 77
f 78 1 5
f 77 1 78
f 79 5 46
f 78 5 79
f 80 46 41
f 79 46 81
f 80 81 46
f 82 41 37
f 83 41 82
f 84 80 41
f 85 84 41
f 86 85 41
f 87 86 41
f 88 87 41
f 89 88 41
f 90 89 41
f 91 90 41
f 92 91 41
f 83 92 41
f 93 37 40
f 82 37 93
f 94 95 40
f 96 40 95
f 34 94 40
f 93 40 96
f 97 95 94
f 96 95 97
f 98 94 34
f 97 94 98
f 99 34 29
f 99 98 34
f 99 29 63
f 99 97 98
f 99 96 97
f 63 93 96
f 99 63 96
f 64 82 93
f 63 64 93
f 65 81 82
f 83 82 81
f 64 65 82
f 72 79 81
f 65 72 81
f 100 101 81
f 102 81 101
f 80 100 81
f 102 103 81
f 104 81 103
f 105 81 104
f 105 106 81
f 107 81 106
f 108 81 107
f 108 83 81
f 75 78 79
f 72 75 79
f 76 77 78
f 75 76 78
f 66 65 64
f 109 64 110
f 111 110 64
f 109 66 64
f 112 113 64
f 114 64 113
f 62 112 64
f 114 111 64
f 115 101 100
f 116 102 101
f 116 101 115
f 117 100 80
f 117 115 100
f 118 80 84
f 117 80 118
f 119 84 85
f 118 84 119
f 104 120 85
f 121 85 120
f 122 104 85
f 86 122 85
f 119 85 121
f 104 103 120
f 123 120 103
f 121 120 123
f 124 103 102
f 123 103 124
f 124 102 116
f 125 104 122
f 126 105 104
f 126 104 125
f 127 122 86
f 127 125 122
f 128 86 87
f 127 86 128
f 129 87 88
f 128 87 129
f 107 130 88
f 131 88 130
f 132 107 88
f 89 132 88
f 129 88 131
f 107 106 130
f 133 130 106
f 131 130 133
f 134 106 105
f 133 106 134
f 134 105 126
f 135 107 132
f 136 108 107
f 136 107 135
f 137 132 89
f 137 135 132
f 138 89 90
f 137 89 138
f 139 90 91
f 138 90 139
f 140 91 92
f 139 91 140
f 141 92 83
f 140 92 141
f 142 83 108
f 141 83 142
f 142 108 136
f 143 144 110
f 145 110 144
f 146 109 110
f 147 143 110
f 111 147 110
f 146 110 145
f 143 68 144
f 148 144 68
f 148 145 144
f 149 68 67
f 143 69 68
f 148 68 149
f 150 67 70
f 149 67 150
f 151 70 71
f 150 70 151
f 152 71 66
f 151 71 152
f 153 66 109
f 152 66 153
f 153 109 146
f 154 113 112
f 155 114 113
f 155 113 154
f 156 112 62
f 156 154 112
f 157 62 69
f 156 62 157
f 158 69 143
f 157 69 158
f 159 143 147
f 158 143 159
f 160 147 111
f 159 147 160
f 161 111 114
f 160 111 161
f 161 114 155
f 51 20 22
f 23 22 20
f 49 51 22
f 31 49 22
f 61 16 20
f 51 61 20
f 162 163 20
f 164 20 163
f 165 162 20
f 19 165 20
f 166 23 20
f 164 166 20
f 7 14 16
f 61 7 16
f 4 10 14
f 7 4 14
f 52 51 49
f 31 45 49
f 167 52 49
f 168 167 49
f 169 168 49
f 170 169 49
f 171 170 49
f 172 171 49
f 173 172 49
f 174 173 49
f 48 174 49
f 33 43 45
f 31 33 45
f 36 39 43
f 33 36 43
f 175 53 52
f 176 54 53
f 175 176 53
f 177 52 167
f 177 175 52
f 178 167 168
f 177 167 178
f 56 55 168
f 179 168 55
f 169 56 168
f 178 168 179
f 180 55 54
f 180 179 55
f 176 180 54
f 181 56 169
f 182 57 56
f 181 182 56
f 183 169 170
f 183 181 169
f 184 170 171
f 183 170 184
f 59 58 171
f 185 171 58
f 172 59 171
f 184 171 185
f 186 58 57
f 186 185 58
f 182 186 57
f 187 59 172
f 188 60 59
f 187 188 59
f 189 172 173
f 189 187 172
f 190 173 174
f 189 173 190
f 191 174 48
f 190 174 191
f 192 48 60
f 192 191 48
f 188 192 60
f 164 163 25
f 193 25 163
f 194 24 25
f 26 164 25
f 193 194 25
f 195 163 162
f 195 193 163
f 196 162 165
f 195 162 196
f 197 165 19
f 196 165 197
f 198 19 24
f 198 197 19
f 194 198 24
f 199 27 23
f 200 28 27
f 199 200 27
f 201 23 166
f 201 199 23
f 202 166 164
f 201 166 202
f 203 164 26
f 202 164 203
f 204 26 28
f 204 203 26
f 200 204 28
f 151 197 198
f 151 152 197
f 196 197 152
f 148 198 194
f 150 151 198
f 148 150 198
f 148 194 193
f 148 193 145
f 195 145 193
f 195 146 145
f 152 153 146
f 195 152 146
f 195 196 152
f 148 149 150
f 159 203 204
f 159 160 203
f 202 203 160
f 156 204 200
f 158 159 204
f 156 158 204
f 156 200 199
f 156 199 154
f 201 154 199
f 201 155 154
f 160 161 155
f 201 160 155
f 201 202 160
f 156 157 158
f 121 179 180
f 121 123 179
f 178 179 123
f 117 180 176
f 119 121 180
f 117 119 180
f 117 176 175
f 117 175 115
f 177 115 175
f 177 116 115
f 123 124 116
f 177 123 116
f 177 178 123
f 117 118 119
f 131 185 186
f 131 133 185
f 184 185 133
f 127 186 182
f 129 131 186
f 127 129 186
f 127 182 181
f 127 181 125
f 183 125 181
f 183 126 125
f 133 134 126
f 183 133 126
f 183 184 133
f 127 128 129
f 140 191 192
f 140 141 191
f 190 191 141
f 137 192 188
f 139 140 192
f 137 139 192
f 137 188 187
f 137 187 135
f 189 135 187
f 189 136 135
f 141 142 136
f 189 141 136
f 189 190 141
f 137 138 139

