mtllib material.mtl
usemtl mtl_csm_latch_pull
v -0.00480000 -0.00400000 0.00000000
v -0.00480000 -0.01316876 0.00960000
v -0.00480000 0.00900000 0.00960000
v -0.00380000 -0.00500000 0.00960000
v -0.00480000 -0.00350087 -0.00013397
v -0.00480000 -0.00313397 -0.00050087
v -0.00480000 -0.00300000 -0.00100000
v -0.00480000 0.00013397 -0.00050087
v -0.00480000 0.00050087 -0.00013397
v -0.00480000 0.00100000 0.00000000
v -0.00480000 0.00900000 0.00000000
v -0.00466603 0.00949913 0.00960000
v -0.00339703 -0.00349927 0.00960000
v 0.00480000 0.00900000 0.00960000
v 0.00466603 0.00949913 0.00960000
v -0.00480000 -0.01813397 -0.00000000
v -0.00480000 -0.01341868 0.00953286
v -0.00380000 -0.01316876 0.00960000
v -0.00480000 -0.01360178 0.00935000
v -0.00380000 -0.01341868 0.00953286
v -0.00480000 -0.01845424 0.00011692
v -0.00480000 -0.01856699 0.00075000
v -0.00380000 -0.01360178 0.00935000
v -0.00480000 -0.01862587 0.00041419
v 0.00480000 -0.01856699 0.00075000
v 0.00230000 -0.01842265 0.00100000
v -0.00230000 -0.01842265 0.00100000
v -0.00300487 -0.01832070 0.00117659
v -0.00380000 -0.01755662 0.00250000
v -0.00373666 -0.01780123 0.00207633
v -0.00357238 -0.01801476 0.00170649
v 0.00480000 -0.01862587 0.00041419
v 0.00480000 -0.01845424 0.00011692
v 0.00480000 -0.01813397 -0.00000000
v 0.00480000 -0.00400000 0.00000000
v 0.00480000 -0.00350087 -0.00013397
v 0.00480000 -0.00313397 -0.00050087
v -0.00480000 -0.00300000 -0.00900000
v 0.00480000 -0.00300000 -0.00900000
v 0.00480000 -0.00300000 -0.00100000
v -0.00480000 -0.00388002 -0.01171313
v -0.00480000 -0.00388002 -0.00928687
v -0.00480000 -0.00300000 -0.01200000
v -0.00480000 -0.00442672 -0.01096127
v -0.00480000 -0.00442672 -0.01003873
v 0.00480000 -0.00388002 -0.00928687
v 0.00480000 -0.00442672 -0.01003873
v 0.00480000 -0.00442672 -0.01096127
v 0.00480000 -0.00388002 -0.01171313
v -0.00480000 0.00000000 -0.00100000
v -0.00480000 -0.00100000 -0.01200000
v 0.00480000 -0.00100000 -0.01200000
v 0.00480000 -0.00300000 -0.01200000
v -0.00480000 -0.00050087 -0.01186603
v -0.00480000 -0.00013397 -0.01149913
v 0.00480000 -0.00050087 -0.01186603
v -0.00480000 0.00000000 -0.01100000
v 0.00480000 -0.00013397 -0.01149913
v 0.00480000 0.00000000 -0.01100000
v 0.00480000 0.00000000 -0.00100000
v 0.00480000 0.00013397 -0.00050087
v 0.00480000 0.00050087 -0.00013397
v -0.00466603 0.00949913 0.00000000
v 0.00480000 0.00100000 0.00000000
v 0.00480000 0.00900000 0.00000000
v 0.00466603 0.00949913 0.00000000
v -0.00380000 0.01000000 0.00000000
v 0.00380000 0.01000000 0.00000000
v 0.00429913 0.00986603 0.00000000
v -0.00429913 0.00986603 0.00000000
v 0.00480000 -0.01316876 0.00960000
v 0.00480000 -0.01360178 0.00935000
v 0.00480000 -0.01341868 0.00953286
v 0.00380000 -0.01755662 0.00250000
v 0.00300487 -0.01832070 0.00117659
v 0.00357238 -0.01801476 0.00170649
v 0.00373666 -0.01780123 0.00207633
v 0.00380000 -0.01360178 0.00935000
v 0.00380000 -0.01341868 0.00953286
v 0.00380000 -0.01316876 0.00960000
v 0.00380000 -0.00500000 0.00960000
v 0.00339703 -0.00349927 0.00960000
v 0.00230073 -0.00240297 0.00960000
v 0.00080000 -0.00200000 0.00960000
v -0.00080000 -0.00200000 0.00960000
v -0.00230073 -0.00240297 0.00960000
v -0.00170000 0.01000000 0.00185551
v 0.00429913 0.00986603 0.00960000
v 0.00294347 0.01000000 0.00310059
v 0.00340000 0.01000000 0.00480000
v 0.00380000 0.01000000 0.00960000
v 0.00170000 0.01000000 0.00185551
v 0.00000000 0.01000000 0.00140117
v -0.00380000 0.01000000 0.00960000
v -0.00294347 0.01000000 0.00310059
v -0.00340000 0.01000000 0.00480000
v -0.00429913 0.00986603 0.00960000
v 0.00340000 0.00150000 0.00480000
v 0.00294347 0.01000000 0.00649941
v 0.00294449 0.00150000 0.00650000
v 0.00294449 0.00150000 0.00310000
v 0.00170000 0.00150000 0.00185551
v -0.00000000 0.00150000 0.00140000
v -0.00170000 0.00150000 0.00185551
v -0.00294449 0.00150000 0.00310000
v -0.00294347 0.01000000 0.00649941
v -0.00340000 0.00150000 0.00480000
v -0.00170000 0.01000000 0.00774449
v -0.00294449 0.00150000 0.00650000
v -0.00000000 0.01000000 0.00819883
v -0.00170000 0.00150000 0.00774449
v 0.00170000 0.01000000 0.00774449
v 0.00000000 0.00150000 0.00820000
v 0.00170000 0.00150000 0.00774449
v 0.00380000 -0.00500000 0.00250000
v 0.00339808 -0.00350000 0.00250000
v 0.00230000 -0.00240192 0.00250000
v -0.00080000 -0.00200000 0.00250000
v 0.00080000 -0.00200000 0.00250000
v -0.00230000 -0.00240192 0.00250000
v -0.00339808 -0.00350000 0.00250000
v -0.00380000 -0.00500000 0.00250000
v 0.00230000 -0.00500000 0.00100000
v -0.00304932 -0.00500000 0.00120057
v -0.00230000 -0.00500000 0.00100000
v 0.00304932 -0.00500000 0.00120057
v 0.00359904 -0.00500000 0.00175000
v -0.00359904 -0.00500000 0.00175000
v 0.00164897 0.00000000 0.00385877
v 0.00164898 0.00000000 0.00574121
v 0.00190000 0.00000000 0.00480000
v 0.00265000 0.00020096 0.00480000
v 0.00229497 0.00020096 0.00347500
v 0.00095128 0.00000000 0.00315619
v 0.00095127 0.00000000 0.00644381
v 0.00229497 0.00020096 0.00612500
v 0.00000001 0.00000000 0.00290000
v -0.00000001 0.00000000 0.00670000
v 0.00132500 0.00020096 0.00709497
v -0.00095127 0.00000000 0.00315619
v -0.00095128 0.00000000 0.00644381
v -0.00132500 0.00020096 0.00709497
v -0.00000000 0.00020096 0.00745000
v -0.00164898 0.00000000 0.00385879
v -0.00164897 0.00000000 0.00574123
v -0.00229497 0.00020096 0.00612500
v -0.00190000 0.00000000 0.00480000
v -0.00265000 0.00020096 0.00480000
v -0.00229497 0.00020096 0.00347500
v -0.00132500 0.00020096 0.00250503
v 0.00132500 0.00020096 0.00250503
v 0.00000000 0.00020096 0.00215000
v -0.00277079 0.00075068 0.00320028
v -0.00319943 0.00075068 0.00480000
v 0.00319943 0.00075068 0.00480000
v 0.00277079 0.00075068 0.00639972
v 0.00277079 0.00075068 0.00320028
v 0.00159972 0.00075068 0.00202921
v 0.00000000 0.00075068 0.00160057
v -0.00159972 0.00075068 0.00202921
v -0.00277079 0.00075068 0.00639972
v -0.00159972 0.00075068 0.00757079
v -0.00000000 0.00075068 0.00799943
v 0.00159972 0.00075068 0.00757079
v 0.00210052 -0.00425460 0.00100000
v 0.00274797 -0.00387534 0.00120057
v -0.00210052 -0.00425457 0.00100000
v 0.00154543 -0.00369948 0.00100000
v -0.00154540 -0.00369948 0.00100000
v -0.00274797 -0.00387534 0.00120057
v 0.00080000 -0.00350000 0.00100000
v -0.00080000 -0.00350000 0.00100000
v -0.00192466 -0.00305203 0.00120057
v 0.00080000 -0.00275068 0.00120057
v -0.00080000 -0.00275068 0.00120057
v 0.00192466 -0.00305203 0.00120057
v -0.00080000 -0.00220096 0.00175000
v 0.00219952 -0.00257596 0.00175000
v 0.00080000 -0.00220096 0.00175000
v -0.00322404 -0.00360048 0.00175000
v 0.00322404 -0.00360048 0.00175000
v -0.00219952 -0.00257596 0.00175000
f 1 2 3
f 4 3 2
f 5 1 3
f 6 5 3
f 7 6 3
f 8 7 3
f 9 8 3
f 10 9 3
f 11 10 3
f 12 11 3
f 13 14 3
f 15 3 14
f 4 13 3
f 15 12 3
f 16 17 2
f 18 2 17
f 1 16 2
f 18 4 2
f 16 19 17
f 20 17 19
f 20 18 17
f 21 22 19
f 23 19 22
f 16 21 19
f 20 19 23
f 21 24 22
f 25 22 24
f 26 22 25
f 26 27 22
f 28 22 27
f 29 23 22
f 30 29 22
f 31 30 22
f 28 31 22
f 32 24 21
f 25 24 32
f 33 21 16
f 32 21 33
f 34 16 1
f 33 16 34
f 35 1 5
f 34 1 35
f 36 5 6
f 35 5 36
f 37 6 7
f 36 6 37
f 8 38 7
f 39 7 38
f 40 7 39
f 37 7 40
f 41 42 38
f 39 38 42
f 43 41 38
f 8 43 38
f 44 45 42
f 46 42 45
f 41 44 42
f 39 42 46
f 47 45 44
f 46 45 47
f 48 44 41
f 47 44 48
f 49 41 43
f 48 41 49
f 50 51 43
f 52 43 51
f 8 50 43
f 53 43 52
f 49 43 53
f 50 54 51
f 52 51 54
f 50 55 54
f 56 54 55
f 52 54 56
f 50 57 55
f 58 55 57
f 56 55 58
f 59 57 50
f 58 57 59
f 60 50 8
f 59 50 60
f 61 8 9
f 60 8 61
f 62 9 10
f 61 9 62
f 63 10 11
f 64 10 65
f 66 65 10
f 62 10 64
f 67 68 10
f 69 10 68
f 70 67 10
f 63 70 10
f 69 66 10
f 12 63 11
f 71 64 65
f 14 71 65
f 66 14 65
f 71 62 64
f 71 61 62
f 71 60 61
f 37 59 60
f 71 37 60
f 37 58 59
f 40 56 58
f 37 40 58
f 40 52 56
f 39 53 52
f 40 39 52
f 46 49 53
f 39 46 53
f 47 48 49
f 46 47 49
f 71 36 37
f 71 35 36
f 72 34 35
f 73 72 35
f 71 73 35
f 25 33 34
f 72 25 34
f 25 32 33
f 74 25 72
f 75 26 25
f 76 75 25
f 77 76 25
f 74 77 25
f 78 72 73
f 78 74 72
f 79 73 71
f 79 78 73
f 80 71 14
f 79 71 80
f 15 14 66
f 81 80 14
f 82 81 14
f 83 82 14
f 84 83 14
f 85 84 14
f 86 85 14
f 13 86 14
f 87 68 67
f 88 69 68
f 89 90 68
f 91 68 90
f 92 89 68
f 93 92 68
f 87 93 68
f 88 68 91
f 94 67 70
f 95 87 67
f 96 95 67
f 94 96 67
f 97 70 63
f 97 94 70
f 97 63 12
f 15 66 69
f 15 69 88
f 98 90 89
f 91 90 99
f 100 99 90
f 100 90 98
f 101 89 92
f 101 98 89
f 102 92 93
f 102 101 92
f 103 93 87
f 103 102 93
f 104 87 95
f 104 103 87
f 105 95 96
f 105 104 95
f 94 106 96
f 107 96 106
f 105 96 107
f 94 108 106
f 109 106 108
f 109 107 106
f 94 110 108
f 111 108 110
f 111 109 108
f 94 112 110
f 113 110 112
f 113 111 110
f 91 99 112
f 114 112 99
f 94 91 112
f 114 113 112
f 100 114 99
f 97 91 94
f 88 91 97
f 74 80 81
f 79 80 74
f 115 81 82
f 115 74 81
f 116 82 83
f 116 115 82
f 117 83 84
f 117 116 83
f 118 84 85
f 119 84 118
f 117 84 119
f 118 85 86
f 120 86 13
f 120 118 86
f 121 13 4
f 121 120 13
f 122 4 18
f 121 4 122
f 122 18 20
f 88 97 12
f 15 88 12
f 123 27 26
f 124 28 27
f 125 27 123
f 124 27 125
f 123 26 75
f 126 75 76
f 126 123 75
f 127 76 77
f 127 126 76
f 127 77 74
f 79 74 78
f 127 74 115
f 122 23 29
f 122 20 23
f 122 29 30
f 128 30 31
f 128 122 30
f 124 31 28
f 128 31 124
f 129 130 131
f 132 131 130
f 133 129 131
f 133 131 132
f 134 135 130
f 136 130 135
f 129 134 130
f 136 132 130
f 137 138 135
f 139 135 138
f 134 137 135
f 139 136 135
f 140 141 138
f 142 138 141
f 137 140 138
f 143 139 138
f 142 143 138
f 144 145 141
f 146 141 145
f 140 144 141
f 146 142 141
f 144 147 145
f 146 145 147
f 148 147 144
f 148 146 147
f 149 144 140
f 149 148 144
f 150 140 137
f 150 149 140
f 151 137 134
f 152 150 137
f 151 152 137
f 133 134 129
f 133 151 134
f 153 105 107
f 154 107 109
f 153 107 154
f 155 98 101
f 156 100 98
f 156 98 155
f 157 101 102
f 157 155 101
f 158 102 103
f 157 102 158
f 159 103 104
f 158 103 159
f 160 104 105
f 159 104 160
f 160 105 153
f 161 109 111
f 154 109 161
f 162 111 113
f 161 111 162
f 163 113 114
f 162 113 163
f 164 114 100
f 163 114 164
f 164 100 156
f 165 125 123
f 166 165 123
f 166 123 126
f 165 167 125
f 124 125 167
f 168 169 167
f 170 167 169
f 165 168 167
f 170 124 167
f 171 172 169
f 173 169 172
f 168 171 169
f 173 170 169
f 174 172 171
f 175 172 174
f 173 172 175
f 174 171 168
f 176 168 165
f 176 174 168
f 166 176 165
f 127 115 116
f 177 119 118
f 177 118 120
f 178 117 119
f 178 119 179
f 177 179 119
f 180 121 122
f 180 122 128
f 181 116 117
f 181 127 116
f 181 117 178
f 182 120 121
f 182 177 120
f 182 121 180
f 155 132 136
f 157 132 155
f 157 133 132
f 156 136 139
f 156 155 136
f 164 139 143
f 164 156 139
f 163 143 142
f 163 164 143
f 162 142 146
f 162 163 142
f 161 146 148
f 161 162 146
f 154 161 148
f 149 154 148
f 153 154 149
f 153 149 150
f 160 150 152
f 160 153 150
f 159 152 151
f 159 160 152
f 158 151 133
f 158 159 151
f 157 158 133
f 181 126 127
f 181 166 126
f 179 174 176
f 175 174 179
f 178 176 166
f 178 179 176
f 181 178 166
f 177 175 179
f 182 175 177
f 182 173 175
f 128 124 170
f 180 170 173
f 180 128 170
f 182 180 173

