mtllib material.mtl
usemtl material_lift_high_700mm_0
v 0.06299996 0.01558594 -0.24400000
v 0.06449997 0.04917299 -0.24400000
v 0.06449997 0.01791398 -0.24400000
v 0.06449997 0.04917299 0.24400000
v 0.06449997 0.01791398 -0.24400000
v 0.06449997 0.04917299 -0.24400000
v 0.06449997 0.01791398 0.24400000
v 0.06299996 0.01558594 -0.24400000
v 0.06449997 0.01791398 -0.24400000
v 0.06449997 0.01791398 0.24400000
v 0.04917299 -0.06449997 -0.24400000
v 0.04917299 0.06449996 -0.24400000
v 0.04917299 0.06449996 0.24400000
v 0.06449997 0.04917299 -0.24400000
v 0.04917299 0.06449996 -0.24400000
v 0.06449997 0.04917299 0.24400000
v 0.01791398 -0.06449997 -0.24400000
v 0.01791399 0.06449997 -0.24400000
v 0.01791399 0.06449997 0.24400000
v 0.04917299 0.06449996 -0.24400000
v 0.01791399 0.06449997 -0.24400000
v 0.04917299 0.06449996 0.24400000
v 0.01558594 -0.06299996 -0.24400000
v 0.01558595 0.06299996 -0.24400000
v 0.01558595 0.06299996 0.24400000
v 0.01791399 0.06449997 -0.24400000
v 0.01558595 0.06299996 -0.24400000
v 0.01791399 0.06449997 0.24400000
v -0.01558595 -0.06299996 -0.24400000
v -0.01558594 0.06299996 -0.24400000
v -0.01558594 0.06299996 0.24400000
v 0.01558595 0.06299996 -0.24400000
v -0.01558594 0.06299996 -0.24400000
v 0.01558595 0.06299996 0.24400000
v -0.01791399 -0.06449997 -0.24400000
v -0.01791398 0.06449997 -0.24400000
v -0.01791398 0.06449997 0.24400000
v -0.01558594 0.06299996 -0.24400000
v -0.01791398 0.06449997 -0.24400000
v -0.01558594 0.06299996 0.24400000
v -0.04917299 -0.06449996 -0.24400000
v -0.04917299 0.06449997 -0.24400000
v -0.04917299 0.06449997 0.24400000
v -0.01791398 0.06449997 -0.24400000
v -0.04917299 0.06449997 -0.24400000
v -0.01791398 0.06449997 0.24400000
v -0.06449997 0.01791399 -0.24400000
v -0.06449996 0.04917299 -0.24400000
v -0.06449996 0.04917299 0.24400000
v -0.04917299 0.06449997 -0.24400000
v -0.06449996 0.04917299 -0.24400000
v -0.06299996 0.01558595 -0.24400000
v -0.06299996 -0.01558594 -0.24400000
v -0.06449997 -0.04917299 -0.24400000
v -0.04917299 0.06449997 0.24400000
v -0.06449997 0.01791399 0.24400000
v -0.06449996 0.04917299 -0.24400000
v -0.06449997 0.01791399 -0.24400000
v -0.06449996 0.04917299 0.24400000
v -0.06299996 0.01558595 0.24400000
v -0.06449997 0.01791399 -0.24400000
v -0.06299996 0.01558595 -0.24400000
v -0.06449997 0.01791399 0.24400000
v -0.06299996 -0.01558594 0.24400000
v -0.06299996 0.01558595 -0.24400000
v -0.06299996 -0.01558594 -0.24400000
v -0.06299996 0.01558595 0.24400000
v -0.06449997 -0.01791398 -0.24400000
v -0.06449997 -0.01791398 0.24400000
v -0.06299996 -0.01558594 -0.24400000
v -0.06449997 -0.01791398 -0.24400000
v -0.06299996 -0.01558594 0.24400000
v -0.06449997 -0.04917299 0.24400000
v -0.06449997 -0.01791398 -0.24400000
v -0.06449997 -0.04917299 -0.24400000
v -0.06449997 -0.01791398 0.24400000
v -0.04917299 -0.06449996 0.24400000
v -0.06449997 -0.04917299 -0.24400000
v -0.04917299 -0.06449996 -0.24400000
v -0.06449997 -0.04917299 0.24400000
v -0.01791399 -0.06449997 0.24400000
v -0.04917299 -0.06449996 -0.24400000
v -0.01791399 -0.06449997 -0.24400000
v -0.04917299 -0.06449996 0.24400000
v -0.01558595 -0.06299996 0.24400000
v -0.01791399 -0.06449997 -0.24400000
v -0.01558595 -0.06299996 -0.24400000
v -0.01791399 -0.06449997 0.24400000
v 0.01558594 -0.06299996 0.24400000
v -0.01558595 -0.06299996 -0.24400000
v 0.01558594 -0.06299996 -0.24400000
v -0.01558595 -0.06299996 0.24400000
v 0.01791398 -0.06449997 0.24400000
v 0.01558594 -0.06299996 -0.24400000
v 0.01791398 -0.06449997 -0.24400000
v 0.01558594 -0.06299996 0.24400000
v 0.04917299 -0.06449997 0.24400000
v 0.01791398 -0.06449997 -0.24400000
v 0.04917299 -0.06449997 -0.24400000
v 0.01791398 -0.06449997 0.24400000
v 0.06449997 -0.01791399 -0.24400000
v 0.06449996 -0.04917299 -0.24400000
v 0.06449996 -0.04917299 0.24400000
v 0.04917299 -0.06449997 -0.24400000
v 0.06449996 -0.04917299 -0.24400000
v 0.06299996 -0.01558595 -0.24400000
v 0.04917299 -0.06449997 0.24400000
v 0.06449997 -0.01791399 0.24400000
v 0.06449996 -0.04917299 -0.24400000
v 0.06449997 -0.01791399 -0.24400000
v 0.06449996 -0.04917299 0.24400000
v 0.06299996 -0.01558595 0.24400000
v 0.06449997 -0.01791399 -0.24400000
v 0.06299996 -0.01558595 -0.24400000
v 0.06449997 -0.01791399 0.24400000
v 0.06299996 0.01558594 0.24400000
v 0.06299996 -0.01558595 -0.24400000
v 0.06299996 0.01558594 -0.24400000
v 0.06299996 -0.01558595 0.24400000
v 0.06299996 0.01558594 0.24400000
v 0.04917299 0.06449996 0.24400000
v 0.06449997 0.01791398 0.24400000
v 0.06449997 0.04917299 0.24400000
v 0.06299996 0.01558594 0.24400000
v 0.06299996 -0.01558595 0.24400000
v 0.06449996 -0.04917299 0.24400000
v 0.06449997 -0.01791399 0.24400000
v 0.04917299 -0.06449997 0.24400000
v 0.01791399 0.06449997 0.24400000
v 0.01791398 -0.06449997 0.24400000
v 0.01558595 0.06299996 0.24400000
v 0.01558594 -0.06299996 0.24400000
v -0.01558594 0.06299996 0.24400000
v -0.01558595 -0.06299996 0.24400000
v -0.01791398 0.06449997 0.24400000
v -0.01791399 -0.06449997 0.24400000
v -0.04917299 0.06449997 0.24400000
v -0.04917299 -0.06449996 0.24400000
v -0.06449997 -0.01791398 0.24400000
v -0.06449997 -0.04917299 0.24400000
v -0.06299996 -0.01558594 0.24400000
v -0.06299996 0.01558595 0.24400000
v -0.06449996 0.04917299 0.24400000
v -0.06449997 0.01791399 0.24400000
vt 0.27091399 0.00000000
vt 0.34142700 0.02324897
vt 0.27581000 0.00297499
vt 0.34142700 0.97675103
vt 0.27581000 0.00297499
vt 0.34142700 0.02324897
vt 0.27581000 0.99702501
vt 0.27091399 0.00000000
vt 0.27581000 0.00297499
vt 0.27581000 0.99702501
vt 0.07051301 0.02324897
vt 0.38765901 0.02324897
vt 0.38765901 0.97675103
vt 0.34142700 0.02324897
vt 0.38765901 0.02324897
vt 0.34142700 0.97675103
vt 0.00489599 0.00297499
vt 0.45327601 0.00297499
vt 0.45327601 0.99702501
vt 0.38765901 0.02324897
vt 0.45327601 0.00297499
vt 0.38765901 0.97675103
vt 0.00000000 0.00000000
vt 0.45817199 0.00000000
vt 0.45817199 1.00000000
vt 0.45327601 0.00297499
vt 0.45817199 0.00000000
vt 0.45327601 0.99702501
vt 1.00000000 0.00000000
vt 0.54182798 0.00000000
vt 0.54182798 1.00000000
vt 0.45817199 0.00000000
vt 0.54182798 0.00000000
vt 0.45817199 1.00000000
vt 0.99510401 0.00297499
vt 0.54672402 0.00297499
vt 0.54672402 0.99702501
vt 0.54182798 0.00000000
vt 0.54672402 0.00297499
vt 0.54182798 1.00000000
vt 0.92948699 0.02324897
vt 0.61234099 0.02324897
vt 0.61234099 0.97675103
vt 0.54672402 0.00297499
vt 0.61234099 0.02324897
vt 0.54672402 0.99702501
vt 0.72419000 0.00297499
vt 0.65857297 0.02324897
vt 0.65857297 0.97675103
vt 0.61234099 0.02324897
vt 0.65857297 0.02324897
vt 0.72908598 0.00000000
vt 0.81274199 0.00000000
vt 0.88325500 0.02324897
vt 0.61234099 0.97675103
vt 0.72419000 0.99702501
vt 0.65857297 0.02324897
vt 0.72419000 0.00297499
vt 0.65857297 0.97675103
vt 0.72908598 1.00000000
vt 0.72419000 0.00297499
vt 0.72908598 0.00000000
vt 0.72419000 0.99702501
vt 0.81274199 1.00000000
vt 0.72908598 0.00000000
vt 0.81274199 0.00000000
vt 0.72908598 1.00000000
vt 0.81763798 0.00297499
vt 0.81763798 0.99702501
vt 0.81274199 0.00000000
vt 0.81763798 0.00297499
vt 0.81274199 1.00000000
vt 0.88325500 0.97675103
vt 0.81763798 0.00297499
vt 0.88325500 0.02324897
vt 0.81763798 0.99702501
vt 0.92948699 0.97675103
vt 0.88325500 0.02324897
vt 0.92948699 0.02324897
vt 0.88325500 0.97675103
vt 0.99510401 0.99702501
vt 0.92948699 0.02324897
vt 0.99510401 0.00297499
vt 0.92948699 0.97675103
vt 1.00000000 1.00000000
vt 0.99510401 0.00297499
vt 1.00000000 0.00000000
vt 0.99510401 0.99702501
vt 0.00000000 1.00000000
vt 1.00000000 0.00000000
vt 0.00000000 0.00000000
vt 1.00000000 1.00000000
vt 0.00489599 0.99702501
vt 0.00000000 0.00000000
vt 0.00489599 0.00297499
vt 0.00000000 1.00000000
vt 0.07051301 0.97675103
vt 0.00489599 0.00297499
vt 0.07051301 0.02324897
vt 0.00489599 0.99702501
vt 0.18236201 0.00297499
vt 0.11674500 0.02324897
vt 0.11674500 0.97675103
vt 0.07051301 0.02324897
vt 0.11674500 0.02324897
vt 0.18725801 0.00000000
vt 0.07051301 0.97675103
vt 0.18236201 0.99702501
vt 0.11674500 0.02324897
vt 0.18236201 0.00297499
vt 0.11674500 0.97675103
vt 0.18725801 1.00000000
vt 0.18236201 0.00297499
vt 0.18725801 0.00000000
vt 0.18236201 0.99702501
vt 0.27091399 1.00000000
vt 0.18725801 0.00000000
vt 0.27091399 0.00000000
vt 0.18725801 1.00000000
vt 0.27091399 1.00000000
vt 0.38765901 0.97675103
vt 0.27581000 0.99702501
vt 0.34142700 0.97675103
vt 0.27091399 1.00000000
vt 0.18725801 1.00000000
vt 0.11674500 0.97675103
vt 0.18236201 0.99702501
vt 0.07051301 0.97675103
vt 0.45327601 0.99702501
vt 0.00489599 0.99702501
vt 0.45817199 1.00000000
vt 0.00000000 1.00000000
vt 0.54182798 1.00000000
vt 1.00000000 1.00000000
vt 0.54672402 0.99702501
vt 0.99510401 0.99702501
vt 0.61234099 0.97675103
vt 0.92948699 0.97675103
vt 0.81763798 0.99702501
vt 0.88325500 0.97675103
vt 0.81274199 1.00000000
vt 0.72908598 1.00000000
vt 0.65857297 0.97675103
vt 0.72419000 0.99702501
f 1/1 2/2 3/3
f 4/4 5/5 6/6
f 7/7 8/8 9/9
f 4/4 10/10 5/5
f 11/11 12/12 2/2
f 13/13 14/14 15/15
f 1/1 11/11 2/2
f 13/13 16/16 14/14
f 17/17 18/18 12/12
f 19/19 20/20 21/21
f 11/11 17/17 12/12
f 22/22 20/20 19/19
f 23/23 24/24 18/18
f 25/25 26/26 27/27
f 17/17 23/23 18/18
f 28/28 26/26 25/25
f 29/29 30/30 24/24
f 31/31 32/32 33/33
f 23/23 29/29 24/24
f 34/34 32/32 31/31
f 35/35 36/36 30/30
f 37/37 38/38 39/39
f 29/29 35/35 30/30
f 40/40 38/38 37/37
f 41/41 42/42 36/36
f 43/43 44/44 45/45
f 35/35 41/41 36/36
f 46/46 44/44 43/43
f 47/47 48/48 42/42
f 49/49 50/50 51/51
f 52/52 47/47 42/42
f 53/53 52/52 42/42
f 54/54 53/53 42/42
f 41/41 54/54 42/42
f 55/55 50/50 49/49
f 56/56 57/57 58/58
f 59/59 57/57 56/56
f 60/60 61/61 62/62
f 63/63 61/61 60/60
f 64/64 65/65 66/66
f 67/67 65/65 64/64
f 54/54 68/68 53/53
f 69/69 70/70 71/71
f 72/72 70/70 69/69
f 73/73 74/74 75/75
f 76/76 74/74 73/73
f 77/77 78/78 79/79
f 80/80 78/78 77/77
f 81/81 82/82 83/83
f 84/84 82/82 81/81
f 85/85 86/86 87/87
f 88/88 86/86 85/85
f 89/89 90/90 91/91
f 92/92 90/90 89/89
f 93/93 94/94 95/95
f 96/96 94/94 93/93
f 97/97 98/98 99/99
f 100/100 98/98 97/97
f 101/101 102/102 11/11
f 103/103 104/104 105/105
f 106/106 101/101 11/11
f 1/1 106/106 11/11
f 107/107 104/104 103/103
f 108/108 109/109 110/110
f 111/111 109/109 108/108
f 112/112 113/113 114/114
f 115/115 113/113 112/112
f 116/116 117/117 118/118
f 119/119 117/117 116/116
f 120/120 8/8 7/7
f 121/121 122/122 123/123
f 121/121 124/124 122/122
f 121/121 125/125 124/124
f 126/126 127/127 125/125
f 121/121 126/126 125/125
f 121/121 128/128 126/126
f 129/129 130/130 128/128
f 121/121 129/129 128/128
f 131/131 132/132 130/130
f 129/129 131/131 130/130
f 133/133 134/134 132/132
f 131/131 133/133 132/132
f 135/135 136/136 134/134
f 133/133 135/135 134/134
f 137/137 138/138 136/136
f 135/135 137/137 136/136
f 139/139 140/140 138/138
f 141/141 139/139 138/138
f 142/142 141/141 138/138
f 143/143 142/142 138/138
f 137/137 143/143 138/138
f 143/143 144/144 142/142

