# https://github.com/mikedh/trimesh
mtllib mtl_bench_lid

o bench_lid-mesh
usemtl material_bench_lid_0
v 0.61100000 0.00000000 -0.00699997
v 0.00799996 0.92000002 -0.00699997
v 0.61100000 0.92000002 -0.00699997
v 0.61100000 0.92000002 0.00799996
v 0.61100000 0.92000002 -0.00699997
v 0.00799996 0.92000002 -0.00699997
v 0.61100000 0.00000000 0.00799996
v 0.61100000 0.00000000 -0.00699997
v 0.61100000 0.92000002 -0.00699997
v 0.61100000 0.92000002 0.00799996
v 0.00799996 0.00000000 -0.00699997
v 0.00799996 0.92000002 0.05799996
v 0.00799996 0.92000002 -0.00699997
v 0.00799996 0.00000000 -0.00699997
v 0.51099998 0.92000002 0.05799996
v 0.00799996 0.92000002 0.05799996
v 0.51099998 0.92000002 0.00799996
v 0.00799996 0.00000000 0.05799996
v 0.00799996 0.00000000 -0.00699997
v 0.61100000 0.00000000 -0.00699997
v 0.00799996 0.00000000 0.05799996
v 0.51099998 0.00000000 0.00799996
v 0.61100000 0.00000000 0.00799996
v 0.51099998 0.92000002 0.05799996
v 0.00799996 0.00000000 0.05799996
v 0.51099998 0.00000000 0.05799996
v 0.51099998 0.00000000 0.05799996
v 0.51099998 0.92000002 0.00799996
v 0.51099998 0.92000002 0.05799996
v 0.51099998 0.00000000 0.05799996
v 0.51099998 0.00000000 0.00799996
v 0.00799996 0.92000002 0.05799996
v 0.51099998 0.00000000 0.00799996
v 0.61100000 0.92000002 0.00799996
v 0.51099998 0.92000002 0.00799996
v 0.61100000 0.00000000 0.00799996
vt 1.39225304 0.68301493
vt 0.34976810 0.95534241
vt 0.34976801 0.68301499
vt 0.49003050 0.42248720
vt 0.50141191 0.42248720
vt 0.50141191 0.88001841
vt 1.39223194 0.67576247
vt 1.39225304 0.68301493
vt 0.34976801 0.68301499
vt 0.34974799 0.67576271
vt 1.39225197 0.95534217
vt 0.46188310 0.84712631
vt 0.50141191 0.88001841
vt 0.07622921 0.83774322
vt 0.46616489 0.63515598
vt 0.46188310 0.84712631
vt 0.49003041 0.61126190
vt 0.11321660 0.80516088
vt 0.07622921 0.83774322
vt 0.07185751 0.44625121
vt 0.11321660 0.80516088
vt 0.09208428 0.57460159
vt 0.09113150 0.44610840
vt 0.46616489 0.63515598
vt 0.11321660 0.80516088
vt 0.12023960 0.59860748
vt 0.12023960 0.59860748
vt 0.49003041 0.61126190
vt 0.46616489 0.63515598
vt 0.12023960 0.59860748
vt 0.09208428 0.57460159
vt 0.46188310 0.84712631
vt 0.03130811 0.14829899
vt 0.12748840 0.09006440
vt 0.12748840 0.14829880
vt 0.03130811 0.09006440
f 1/1 2/2 3/3
f 4/4 5/5 6/6
f 7/7 8/8 9/9
f 7/7 9/9 10/10
f 1/1 11/11 2/2
f 12/12 13/13 14/14
f 15/15 6/6 16/16
f 17/17 6/6 15/15
f 17/17 4/4 6/6
f 18/18 19/19 20/20
f 12/12 14/14 21/21
f 22/22 18/18 20/20
f 22/22 20/20 23/23
f 24/24 25/25 26/26
f 22/22 27/27 18/18
f 28/28 29/29 30/30
f 31/31 28/28 30/30
f 24/24 32/32 25/25
f 33/33 34/34 35/35
f 33/33 36/36 34/34
