mtllib material.mtl
usemtl mtl_csm_latch_lock
v 0.02200000 0.00000000 -0.00370000
v -0.00623957 0.00000000 0.00381540
v -0.00640000 0.00000000 0.00370000
v -0.00640000 0.00002748 0.00382544
v -0.02200000 0.00000000 0.00370000
v -0.00609696 0.00000000 0.00393718
v -0.00209892 0.00000000 0.00292423
v -0.00597522 0.00000000 0.00407049
v -0.00588502 0.00000000 0.00421048
v -0.00597574 0.00013364 0.00414570
v -0.00640000 0.00011258 0.00393425
v -0.00275000 0.00000000 0.00405000
v -0.00275000 0.00000000 0.00421048
v -0.00275000 -0.00009833 0.00464290
v -0.00257624 0.00000000 0.00340194
v -0.00582127 -0.00001318 0.00437230
v -0.00225045 -0.00013371 0.00405000
v -0.00244221 -0.00004854 0.00421048
v -0.00201601 -0.00013371 0.00348399
v -0.00218952 -0.00013371 0.00374368
v -0.00145000 0.00000000 0.00275000
v -0.00175632 -0.00013371 0.00331048
v 0.00145000 0.00000000 0.00275000
v 0.00145000 -0.00013397 0.00325000
v -0.00145000 -0.00013371 0.00324955
v 0.00209845 0.00000000 0.00292397
v 0.00257584 0.00000000 0.00340118
v 0.00201569 -0.00013397 0.00348431
v 0.00175615 -0.00013397 0.00331090
v 0.00275000 0.00000000 0.00405000
v 0.00218910 -0.00013397 0.00374385
v 0.00275000 0.00000000 0.00421048
v 0.00224958 -0.00013422 0.00421048
v 0.00225000 -0.00013397 0.00405000
v 0.00597522 0.00000000 0.00407049
v 0.00588502 0.00000000 0.00421048
v 0.00582127 -0.00001318 0.00437228
v 0.00609707 0.00000000 0.00393709
v 0.00623969 0.00000000 0.00381530
v 0.00640000 0.00000000 0.00370000
v 0.00275000 -0.00003561 0.00447495
v 0.00597574 0.00013364 0.00414570
v 0.00640000 0.00008773 0.00391199
v 0.00640000 0.00018452 0.00397688
v 0.00640000 0.00002277 0.00381464
v 0.02200000 0.00000000 0.00370000
v 0.02200000 0.00008787 0.00391213
v 0.02285140 0.00000000 -0.00347107
v 0.02284838 0.00000000 0.00347278
v 0.02347107 0.00000000 0.00285140
v 0.02335208 0.00008787 0.00335208
v 0.02273174 0.00008787 0.00376658
v 0.02370000 0.00000000 -0.00200000
v 0.02370000 0.00000000 0.00200000
v 0.02376658 0.00008787 0.00273174
v 0.02347278 0.00000000 -0.00284838
v 0.02391213 0.00008787 -0.00200000
v 0.02391213 0.00008787 0.00200000
v 0.02335208 0.00008787 -0.00335208
v 0.02376658 0.00008787 -0.00273174
v 0.02273174 0.00008787 -0.00376658
v -0.02200000 0.00000000 -0.00370000
v -0.02200000 0.00008787 -0.00391213
v 0.02200000 0.00008787 -0.00391213
v -0.02285140 0.00000000 0.00347107
v -0.02284838 0.00000000 -0.00347278
v -0.02347107 0.00000000 -0.00285140
v -0.02335208 0.00008787 -0.00335208
v -0.02273174 0.00008787 -0.00376658
v -0.02370000 0.00000000 0.00200000
v -0.02370000 0.00000000 -0.00200000
v -0.02376658 0.00008787 -0.00273174
v -0.02347278 0.00000000 0.00284838
v -0.02391213 0.00008787 0.00200000
v -0.02391213 0.00008787 -0.00200000
v -0.02335208 0.00008787 0.00335208
v -0.02376658 0.00008787 0.00273174
v -0.02273174 0.00008787 0.00376658
v -0.02200000 0.00008787 0.00391213
v -0.00412500 0.00200000 0.00200000
v -0.00596297 0.00200000 0.00408604
v -0.00580000 0.00200000 0.00454853
v -0.00597574 0.00186054 0.00414783
v -0.00580000 0.00200000 0.00850000
v -0.00256983 0.00200000 0.00850000
v -0.00580000 0.00119914 0.00850000
v -0.00580000 -0.00052581 0.00612294
v -0.00580000 -0.00130000 0.00600000
v -0.00580000 0.00185272 0.00458694
v -0.00580000 0.00107715 0.00772852
v -0.00580000 0.00072293 0.00703211
v -0.00580000 0.00017064 0.00647875
v -0.00597574 0.00170000 0.00417574
v -0.00712500 0.00200000 0.00200000
v -0.00597536 0.00200000 0.00406962
v -0.00615739 0.00200000 0.00388267
v -0.00640000 0.00191220 0.00391206
v -0.00640000 0.00181519 0.00397700
v -0.00640000 0.00200000 0.00370000
v -0.00640000 0.00197721 0.00381470
v -0.01020833 0.00200000 0.00191489
v -0.02200000 0.00200000 0.00370000
v -0.02200000 0.00191213 0.00391213
v -0.00779167 0.00200000 0.00200000
v -0.00979167 0.00200000 0.00200000
v -0.02285145 0.00200000 -0.00347104
v -0.02284833 0.00200000 0.00347280
v -0.02200000 0.00200000 -0.00370000
v -0.02347104 0.00200000 0.00285145
v -0.02295607 0.00191213 0.00365595
v -0.02370000 0.00200000 -0.00200000
v -0.02370000 0.00200000 0.00200000
v -0.02365595 0.00191213 0.00295607
v -0.02347280 0.00200000 -0.00284833
v -0.02391213 0.00191213 -0.00200000
v -0.02391213 0.00191213 0.00200000
v -0.02365595 0.00191213 -0.00295607
v -0.02295607 0.00191213 -0.00365595
v 0.01112500 0.00200000 -0.00200000
v 0.02200000 0.00200000 -0.00370000
v 0.02200000 0.00191213 -0.00391213
v 0.00812500 0.00200000 -0.00200000
v 0.00612500 0.00200000 -0.00200000
v 0.00545833 0.00200000 -0.00200000
v 0.00504167 0.00200000 -0.00191489
v 0.00212500 0.00200000 -0.00200000
v 0.00137500 0.00200000 -0.00200000
v 0.00095833 0.00200000 -0.00191489
v -0.00045833 0.00200000 -0.00200000
v -0.00279167 0.00200000 -0.00200000
v -0.00095833 0.00200000 -0.00200000
v -0.00345833 0.00200000 -0.00200000
v -0.00412500 0.00200000 -0.00200000
v -0.00712500 0.00200000 -0.00200000
v -0.00779167 0.00200000 -0.00200000
v -0.00979167 0.00200000 -0.00200000
v -0.01020833 0.00200000 -0.00191489
v -0.01054167 0.00200000 -0.00174468
v -0.01087500 0.00200000 -0.00140426
v -0.01104167 0.00200000 -0.00106383
v -0.01112500 0.00200000 -0.00063830
v -0.01112500 0.00200000 0.00063830
v -0.01104167 0.00200000 0.00106383
v -0.01087500 0.00200000 0.00140426
v -0.01054167 0.00200000 0.00174468
v -0.02200000 0.00191213 -0.00391213
v 0.02285145 0.00200000 0.00347104
v 0.02284833 0.00200000 -0.00347280
v 0.02200000 0.00200000 0.00370000
v 0.02347104 0.00200000 -0.00285145
v 0.02295607 0.00191213 -0.00365595
v 0.02370000 0.00200000 0.00200000
v 0.02370000 0.00200000 -0.00200000
v 0.02365595 0.00191213 -0.00295607
v 0.02347280 0.00200000 0.00284833
v 0.02391213 0.00191213 0.00200000
v 0.02391213 0.00191213 -0.00200000
v 0.02365595 0.00191213 0.00295607
v 0.02295607 0.00191213 0.00365595
v 0.00654167 0.00200000 0.00191489
v 0.00640000 0.00200000 0.00370000
v 0.00640000 0.00196587 0.00383897
v 0.01112500 0.00200000 0.00200000
v 0.01062500 0.00200000 0.00200000
v 0.00687500 0.00200000 0.00174468
v 0.02200000 0.00191213 0.00391213
v 0.00612500 0.00200000 0.00200000
v 0.00615719 0.00200000 0.00388283
v 0.00597536 0.00200000 0.00406963
v 0.00545833 0.00200000 0.00200000
v 0.00596282 0.00200000 0.00408623
v 0.00597574 0.00186055 0.00414783
v 0.00640000 0.00188035 0.00393974
v 0.00580000 0.00200000 0.00454853
v 0.00580000 0.00200000 0.00850000
v 0.00580000 0.00184538 0.00458821
v 0.00287500 0.00200000 0.00174468
v 0.00256983 0.00200000 0.00850000
v 0.00269666 0.00197504 0.00890512
v 0.00437500 0.00200000 0.00140426
v 0.00420833 0.00200000 0.00106383
v 0.00345833 0.00200000 -0.00063830
v 0.00470833 0.00200000 0.00174468
v 0.00504167 0.00200000 0.00191489
v 0.00320833 0.00200000 0.00140426
v 0.00337500 0.00200000 0.00106383
v 0.00345833 0.00200000 0.00063830
v 0.00580000 0.00107715 0.00772852
v 0.00580000 0.00072293 0.00703211
v 0.00580000 -0.00074081 0.00517630
v 0.00580000 0.00119914 0.00850000
v 0.00580000 0.00154289 0.01017450
v 0.00580000 0.00030000 0.00460000
v 0.00580000 0.00170000 0.00460000
v 0.00580000 -0.00020483 0.00481687
v 0.00580000 -0.00044321 0.00504113
v 0.00275000 0.00189397 0.00932981
v 0.00254167 0.00200000 0.00191489
v 0.00254658 0.00200000 0.00842436
v 0.00254658 0.00200029 0.00850686
v 0.00252263 0.00200000 0.00835167
v 0.00252333 0.00200118 0.00851371
v 0.00212500 0.00200000 0.00200000
v 0.00249796 0.00200000 0.00828198
v 0.00250012 0.00200264 0.00852055
v 0.00247721 0.00200000 0.00822708
v 0.00247695 0.00200470 0.00852738
v -0.00979167 0.00180000 0.00148936
v -0.00779167 0.00180000 0.00200000
v -0.00829167 0.00180000 0.00148936
v -0.00829167 0.00180000 -0.00148936
v 0.00245383 0.00200734 0.00853420
v 0.00245370 0.00200032 0.00823639
v 0.00244662 0.00200000 0.00815111
v 0.00242005 0.00200000 0.00808969
v 0.00243014 0.00200128 0.00824553
v 0.00239298 0.00200000 0.00803082
v 0.00240662 0.00200288 0.00825465
v 0.00236543 0.00200000 0.00797451
v 0.00238314 0.00200511 0.00826375
v -0.00779167 0.00180000 -0.00200000
v -0.00979167 0.00180000 -0.00148936
v -0.00979167 0.00180000 -0.00200000
v 0.00233744 0.00200000 0.00792062
v 0.00233659 0.00200031 0.00797317
v 0.00235972 0.00200798 0.00827283
v 0.00230904 0.00200000 0.00786911
v 0.00228025 0.00200000 0.00781991
v 0.00231427 0.00200126 0.00798458
v 0.00225110 0.00200000 0.00777289
v 0.00229198 0.00200283 0.00799598
v 0.00221168 0.00200000 0.00771360
v 0.00226973 0.00200503 0.00800735
v -0.01037500 0.00180000 -0.00123404
v -0.01012500 0.00180000 -0.00140426
v -0.01020833 0.00180000 -0.00191489
v 0.00217170 0.00200000 0.00765803
v 0.00218804 0.00200031 0.00772288
v 0.00224754 0.00200786 0.00801870
v 0.00213121 0.00200000 0.00760612
v 0.00209027 0.00200000 0.00755779
v 0.00216778 0.00200122 0.00773698
v 0.00137500 0.00200000 0.00200000
v 0.00204899 0.00200000 0.00751300
v 0.00214754 0.00200275 0.00775107
v 0.00201462 0.00200000 0.00747862
v 0.00212734 0.00200488 0.00776514
v 0.00210719 0.00200762 0.00777916
v 0.00199740 0.00200031 0.00749677
v 0.00196577 0.00200000 0.00743396
v 0.00192410 0.00200000 0.00739964
v 0.00188257 0.00200000 0.00736873
v 0.00198003 0.00200125 0.00751477
v 0.00178903 0.00200000 0.00731055
v 0.00196268 0.00200282 0.00753276
v 0.00176244 0.00200000 0.00729675
v 0.00194536 0.00200501 0.00755071
v 0.00169323 0.00200000 0.00726646
v 0.00175185 0.00200030 0.00731866
v 0.00192809 0.00200783 0.00756862
v 0.00158509 0.00200000 0.00723450
v 0.00145000 0.00200000 0.00722058
v 0.00174080 0.00200121 0.00734097
v -0.00095833 0.00200000 0.00200000
v -0.00145000 0.00200000 0.00722058
v -0.00145000 0.00200028 0.00724438
v 0.00062500 0.00200000 0.00174468
v 0.00029167 0.00200000 0.00140426
v 0.00095833 0.00200000 0.00191489
v -0.00045833 0.00200000 0.00200000
v 0.00145000 0.00200028 0.00724437
v -0.00279167 0.00200000 0.00200000
v -0.00155815 0.00200000 0.00722955
v -0.00174162 0.00200124 0.00734192
v -0.00166025 0.00200000 0.00725480
v -0.00176013 0.00200000 0.00729563
v -0.00175270 0.00200031 0.00731963
v -0.01054167 0.00180000 -0.00097872
v -0.01054167 0.00180000 -0.00174468
v -0.00185938 0.00200000 0.00735286
v -0.00194612 0.00200502 0.00755152
v -0.00192882 0.00200783 0.00756942
v -0.00190350 0.00200000 0.00738391
v -0.00196347 0.00200282 0.00753357
v -0.00194749 0.00200000 0.00741850
v -0.00198085 0.00200125 0.00751559
v -0.00199129 0.00200000 0.00745667
v -0.00199825 0.00200031 0.00749758
v -0.00201540 0.00200000 0.00747936
v -0.00203473 0.00200000 0.00749845
v -0.00210776 0.00200763 0.00778011
v -0.00207778 0.00200000 0.00754382
v -0.00212793 0.00200488 0.00776609
v -0.00212032 0.00200000 0.00759287
v -0.00214815 0.00200275 0.00775203
v -0.00216231 0.00200000 0.00764561
v -0.00216841 0.00200122 0.00773794
v -0.00220369 0.00200000 0.00770213
v -0.00218869 0.00200030 0.00772384
v -0.01062500 0.00180000 0.00063830
v -0.01062500 0.00180000 -0.00063830
v -0.01087500 0.00180000 -0.00140426
v -0.00224442 0.00200000 0.00776252
v -0.00227021 0.00200503 0.00800836
v -0.00224800 0.00200786 0.00801971
v -0.00227450 0.00200000 0.00781041
v -0.00229247 0.00200283 0.00799699
v -0.00230418 0.00200000 0.00786057
v -0.00231478 0.00200126 0.00798560
v -0.00233340 0.00200000 0.00791314
v -0.00233712 0.00200031 0.00797419
v -0.00235944 0.00200000 0.00796269
v -0.01104167 0.00180000 -0.00106383
v -0.01112500 0.00180000 -0.00063830
v -0.01104167 0.00180000 0.00106383
v -0.00236007 0.00200799 0.00827389
v -0.00239044 0.00200000 0.00802552
v -0.00238350 0.00200511 0.00826481
v -0.00241818 0.00200000 0.00808549
v -0.00240699 0.00200288 0.00825571
v -0.00244532 0.00200000 0.00814801
v -0.00243053 0.00200128 0.00824660
v -0.00247177 0.00200000 0.00821315
v -0.00245410 0.00200032 0.00823747
v -0.01112500 0.00180000 0.00063830
v -0.01087500 0.00180000 0.00140426
v -0.00249756 0.00200000 0.00828089
v -0.00247274 0.00200514 0.00852862
v -0.00244859 0.00200802 0.00853574
v -0.00252249 0.00200000 0.00835128
v -0.00249696 0.00200289 0.00852148
v -0.00254657 0.00200000 0.00842432
v -0.00252122 0.00200128 0.00851433
v -0.00254552 0.00200032 0.00850717
v -0.00580000 0.00154289 0.01017450
v -0.00345833 0.00200000 0.00200000
v -0.00258594 0.00199973 0.00854248
v -0.00231611 0.00198982 0.00935471
v -0.00229379 0.00200056 0.00935750
v -0.00580000 0.00107715 0.00927148
v -0.00580000 0.00072293 0.00996789
v 0.01112500 0.00180000 0.00200000
v 0.01062500 0.00180000 0.00200000
v 0.01112500 0.00180000 -0.00200000
v 0.00654167 0.00200000 -0.00191489
v 0.00812500 0.00200000 -0.00148936
v 0.00812500 0.00180000 -0.00200000
v 0.01062500 0.00200000 -0.00148936
v 0.00812500 0.00180000 -0.00148936
v 0.00745833 0.00200000 -0.00063830
v 0.00737500 0.00200000 -0.00106383
v 0.00720833 0.00200000 -0.00140426
v 0.00687500 0.00200000 -0.00174468
v 0.01062500 0.00180000 -0.00148936
v 0.00720833 0.00200000 0.00140426
v 0.00737500 0.00200000 0.00106383
v 0.00745833 0.00200000 0.00063830
v 0.00612500 0.00180000 0.00200000
v 0.00545833 0.00180000 0.00200000
v 0.00654167 0.00180000 0.00191489
v 0.00687500 0.00180000 0.00174468
v 0.00720833 0.00180000 0.00140426
v 0.00737500 0.00180000 0.00106383
v 0.00745833 0.00180000 0.00063830
v 0.00745833 0.00180000 -0.00063830
v 0.00737500 0.00180000 -0.00106383
v 0.00720833 0.00180000 -0.00140426
v 0.00687500 0.00180000 -0.00174468
v 0.00654167 0.00180000 -0.00191489
v 0.00612500 0.00180000 -0.00200000
v 0.00545833 0.00180000 -0.00200000
v 0.00470833 0.00200000 -0.00174468
v 0.00504167 0.00180000 -0.00191489
v 0.00254167 0.00200000 -0.00191489
v 0.00437500 0.00200000 -0.00140426
v 0.00470833 0.00180000 -0.00174468
v 0.00287500 0.00200000 -0.00174468
v 0.00420833 0.00200000 -0.00106383
v 0.00437500 0.00180000 -0.00140426
v 0.00412500 0.00200000 -0.00063830
v 0.00420833 0.00180000 -0.00106383
v 0.00337500 0.00200000 -0.00106383
v 0.00412500 0.00200000 0.00063830
v 0.00412500 0.00180000 -0.00063830
v 0.00320833 0.00200000 -0.00140426
v 0.00412500 0.00180000 0.00063830
v 0.00420833 0.00180000 0.00106383
v 0.00437500 0.00180000 0.00140426
v 0.00470833 0.00180000 0.00174468
v 0.00504167 0.00180000 0.00191489
v 0.00545833 0.00200000 -0.00148936
v 0.00545833 0.00200000 0.00148936
v 0.00612500 0.00200000 0.00148936
v 0.00612500 0.00180000 0.00148936
v 0.00612500 0.00200000 -0.00148936
v 0.00645833 0.00200000 0.00140426
v 0.00645833 0.00180000 0.00140426
v 0.00512500 0.00200000 -0.00140426
v 0.00512500 0.00200000 0.00140426
v 0.00545833 0.00180000 0.00148936
v 0.00487500 0.00200000 -0.00123404
v 0.00487500 0.00200000 0.00123404
v 0.00512500 0.00180000 0.00140426
v 0.00470833 0.00200000 -0.00097872
v 0.00470833 0.00200000 0.00097872
v 0.00487500 0.00180000 0.00123404
v 0.00462500 0.00200000 -0.00063830
v 0.00462500 0.00200000 0.00063830
v 0.00470833 0.00180000 0.00097872
v 0.00462500 0.00180000 0.00063830
v 0.00462500 0.00180000 -0.00063830
v 0.00470833 0.00180000 -0.00097872
v 0.00487500 0.00180000 -0.00123404
v 0.00512500 0.00180000 -0.00140426
v 0.00545833 0.00180000 -0.00148936
v 0.00645833 0.00200000 -0.00140426
v 0.00612500 0.00180000 -0.00148936
v 0.00670833 0.00200000 0.00123404
v 0.00670833 0.00200000 -0.00123404
v 0.00645833 0.00180000 -0.00140426
v 0.00687500 0.00200000 0.00097872
v 0.00687500 0.00200000 -0.00097872
v 0.00670833 0.00180000 -0.00123404
v 0.00695833 0.00200000 0.00063830
v 0.00695833 0.00200000 -0.00063830
v 0.00687500 0.00180000 -0.00097872
v 0.00695833 0.00180000 -0.00063830
v 0.00695833 0.00180000 0.00063830
v 0.00687500 0.00180000 0.00097872
v 0.00670833 0.00180000 0.00123404
v 0.00070833 0.00200000 0.00097872
v 0.00070833 0.00200000 -0.00097872
v 0.00020833 0.00200000 -0.00097872
v 0.00020833 0.00180000 -0.00097872
v 0.00020833 0.00200000 0.00097872
v 0.00029167 0.00200000 -0.00140426
v 0.00029167 0.00180000 -0.00140426
v 0.00079167 0.00200000 0.00123404
v 0.00079167 0.00200000 -0.00123404
v 0.00070833 0.00180000 -0.00097872
v 0.00104167 0.00200000 0.00140426
v 0.00104167 0.00200000 -0.00140426
v 0.00079167 0.00180000 -0.00123404
v 0.00137500 0.00200000 0.00148936
v 0.00137500 0.00200000 -0.00148936
v 0.00104167 0.00180000 -0.00140426
v 0.00212500 0.00200000 0.00148936
v 0.00212500 0.00200000 -0.00148936
v 0.00137500 0.00180000 -0.00148936
v 0.00245833 0.00200000 0.00140426
v 0.00245833 0.00200000 -0.00140426
v 0.00212500 0.00180000 -0.00148936
v 0.00270833 0.00200000 0.00123404
v 0.00270833 0.00200000 -0.00123404
v 0.00245833 0.00180000 -0.00140426
v 0.00287500 0.00200000 0.00097872
v 0.00287500 0.00200000 -0.00097872
v 0.00270833 0.00180000 -0.00123404
v 0.00295833 0.00200000 0.00063830
v 0.00295833 0.00200000 -0.00063830
v 0.00287500 0.00180000 -0.00097872
v 0.00295833 0.00180000 -0.00063830
v 0.00295833 0.00180000 0.00063830
v 0.00287500 0.00180000 0.00097872
v 0.00270833 0.00180000 0.00123404
v 0.00245833 0.00180000 0.00140426
v 0.00212500 0.00180000 0.00148936
v 0.00137500 0.00180000 0.00148936
v 0.00104167 0.00180000 0.00140426
v 0.00079167 0.00180000 0.00123404
v 0.00070833 0.00180000 0.00097872
v 0.00020833 0.00180000 0.00097872
v 0.00029167 0.00180000 0.00140426
v 0.00062500 0.00180000 0.00174468
v 0.00095833 0.00180000 0.00191489
v 0.00137500 0.00180000 0.00200000
v 0.00212500 0.00180000 0.00200000
v 0.00254167 0.00180000 0.00191489
v 0.00287500 0.00180000 0.00174468
v 0.00320833 0.00180000 0.00140426
v 0.00337500 0.00180000 0.00106383
v 0.00345833 0.00180000 0.00063830
v 0.00345833 0.00180000 -0.00063830
v 0.00337500 0.00180000 -0.00106383
v 0.00320833 0.00180000 -0.00140426
v 0.00287500 0.00180000 -0.00174468
v 0.00254167 0.00180000 -0.00191489
v 0.00212500 0.00180000 -0.00200000
v 0.00137500 0.00180000 -0.00200000
v 0.00062500 0.00200000 -0.00174468
v 0.00095833 0.00180000 -0.00191489
v 0.00062500 0.00180000 -0.00174468
v -0.00095833 0.00200000 -0.00063830
v -0.00095833 0.00180000 -0.00200000
v -0.00045833 0.00180000 -0.00200000
v -0.00154167 0.00200000 -0.00004255
v -0.00095833 0.00180000 -0.00063830
v -0.00154167 0.00180000 -0.00004255
v -0.00279167 0.00180000 -0.00200000
v -0.00195833 0.00200000 0.00038298
v -0.00345833 0.00180000 -0.00200000
v -0.00195833 0.00180000 0.00038298
v -0.00345833 0.00180000 0.00200000
v -0.00095833 0.00200000 0.00004255
v -0.00279167 0.00180000 0.00200000
v -0.00095833 0.00180000 0.00004255
v -0.00095833 0.00180000 0.00200000
v -0.00045833 0.00180000 0.00200000
v -0.00462500 0.00200000 -0.00012766
v -0.00462500 0.00200000 -0.00148936
v -0.00712500 0.00200000 -0.00148936
v -0.00712500 0.00180000 -0.00148936
v -0.00679167 0.00200000 -0.00012766
v -0.00679167 0.00200000 0.00038298
v -0.00712500 0.00200000 0.00148936
v -0.00712500 0.00180000 -0.00200000
v -0.00462500 0.00180000 -0.00148936
v -0.00462500 0.00180000 -0.00012766
v -0.00679167 0.00180000 -0.00012766
v -0.00462500 0.00200000 0.00148936
v -0.00462500 0.00200000 0.00038298
v -0.00679167 0.00180000 0.00038298
v -0.00462500 0.00180000 0.00038298
v -0.00462500 0.00180000 0.00148936
v -0.00712500 0.00180000 0.00148936
v -0.00712500 0.00180000 0.00200000
v -0.00412500 0.00180000 0.00200000
v -0.00412500 0.00180000 -0.00200000
v -0.00979167 0.00180000 0.00200000
v -0.01020833 0.00180000 0.00191489
v -0.01054167 0.00180000 0.00174468
v -0.00979167 0.00200000 -0.00148936
v -0.00979167 0.00200000 0.00148936
v -0.00829167 0.00200000 0.00148936
v -0.00829167 0.00200000 -0.00148936
v -0.01012500 0.00200000 -0.00140426
v -0.01012500 0.00200000 0.00140426
v -0.01037500 0.00200000 -0.00123404
v -0.01037500 0.00200000 0.00123404
v -0.01012500 0.00180000 0.00140426
v -0.01054167 0.00200000 -0.00097872
v -0.01054167 0.00200000 0.00097872
v -0.01037500 0.00180000 0.00123404
v -0.01062500 0.00200000 -0.00063830
v -0.01062500 0.00200000 0.00063830
v -0.01054167 0.00180000 0.00097872
v -0.02400000 0.00170000 -0.00200000
v -0.02400000 0.00030000 -0.00200000
v -0.02400000 0.00030000 0.00200000
v -0.02400000 0.00170000 0.00200000
v -0.02373205 0.00030000 0.00300000
v -0.02373205 0.00170000 -0.00300000
v -0.02373205 0.00030000 -0.00300000
v -0.02373205 0.00170000 0.00300000
v 0.02200000 0.00030000 0.00400000
v 0.00640000 0.00170000 0.00400000
v 0.00640000 0.00030000 0.00400000
v 0.00597574 0.00170000 0.00417574
v 0.00597574 0.00030000 0.00417574
v 0.02200000 0.00170000 0.00400000
v 0.00640000 0.00178606 0.00398739
v 0.02300000 0.00030000 0.00373205
v 0.02300000 0.00170000 0.00373205
v -0.02200000 0.00170000 0.00400000
v -0.00640000 0.00030000 0.00400000
v -0.00640000 0.00170000 0.00400000
v -0.00597574 0.00030000 0.00417574
v -0.02200000 0.00030000 0.00400000
v -0.00640000 0.00021032 0.00398628
v -0.02300000 0.00170000 0.00373205
v -0.02300000 0.00030000 0.00373205
v 0.02400000 0.00170000 0.00200000
v 0.02400000 0.00030000 0.00200000
v 0.02400000 0.00030000 -0.00200000
v 0.02400000 0.00170000 -0.00200000
v 0.02373205 0.00030000 -0.00300000
v 0.02373205 0.00170000 0.00300000
v 0.02373205 0.00030000 0.00300000
v 0.02373205 0.00170000 -0.00300000
v 0.02200000 0.00170000 -0.00400000
v 0.02200000 0.00030000 -0.00400000
v -0.02200000 0.00030000 -0.00400000
v -0.02200000 0.00170000 -0.00400000
v -0.02300000 0.00030000 -0.00373205
v 0.02300000 0.00170000 -0.00373205
v 0.02300000 0.00030000 -0.00373205
v -0.02300000 0.00170000 -0.00373205
v -0.00580000 -0.00277177 0.00554708
v -0.00580000 -0.00207419 0.00612294
v 0.00580000 -0.00130000 0.00600000
v 0.00580000 -0.00052581 0.00612294
v -0.00580000 -0.00074081 0.00517630
v -0.00580000 -0.00406383 0.00669802
v -0.00580000 -0.00277064 0.00647875
v 0.00580000 -0.00207419 0.00612294
v -0.00580000 -0.00332293 0.00703211
v 0.00580000 -0.00277064 0.00647875
v -0.00580000 -0.00459648 0.00834772
v -0.00580000 -0.00367715 0.00772852
v 0.00580000 -0.00332293 0.00703211
v -0.00580000 -0.00379914 0.00850000
v 0.00580000 -0.00367715 0.00772852
v -0.00580000 -0.00421842 0.01003906
v -0.00580000 -0.00367715 0.00927148
v 0.00580000 -0.00379914 0.00850000
v -0.00580000 -0.00332293 0.00996789
v 0.00580000 -0.00367715 0.00927148
v -0.00580000 -0.00277064 0.01052125
v 0.00580000 -0.00332293 0.00996789
v -0.00580000 -0.00303942 0.01130363
v -0.00580000 -0.00207419 0.01087706
v 0.00580000 -0.00277064 0.01052125
v -0.00580000 -0.00130000 0.01100000
v 0.00580000 -0.00207419 0.01087706
v -0.00580000 -0.00052581 0.01087706
v 0.00580000 -0.00130000 0.01100000
v -0.00580000 0.00017064 0.01052125
v 0.00580000 -0.00052581 0.01087706
v -0.00580000 0.00030440 0.01138302
v 0.00580000 0.00017064 0.01052125
v 0.00580000 0.00072293 0.00996789
v 0.00580000 0.00107715 0.00927148
v 0.00580000 0.00017064 0.00647875
v -0.00580000 -0.00020483 0.00481687
v -0.00580000 0.00170000 0.00460000
v -0.00580000 0.00030000 0.00460000
v -0.00580000 0.00012947 0.00458376
v -0.00580000 -0.00044321 0.00504113
v -0.00275000 0.00117586 0.01068177
v -0.00260137 0.00199891 0.00858487
v -0.00261613 0.00199755 0.00862716
v -0.00263022 0.00199565 0.00866934
v -0.00264366 0.00199322 0.00871140
v -0.00265644 0.00199026 0.00875332
v -0.00266852 0.00198678 0.00879514
v -0.00267982 0.00198276 0.00883688
v -0.00269039 0.00197822 0.00887853
v -0.00270023 0.00197315 0.00892008
v -0.00271022 0.00196691 0.00896613
v -0.00271913 0.00196003 0.00901208
v -0.00272703 0.00195249 0.00905793
v -0.00273389 0.00194432 0.00910364
v -0.00273957 0.00193551 0.00914921
v -0.00274399 0.00192607 0.00919462
v -0.00274719 0.00191599 0.00923986
v -0.00274919 0.00190529 0.00928493
v -0.00275000 0.00189397 0.00932981
v -0.00580000 -0.00137861 0.01179906
v -0.00275000 -0.00011047 0.01157815
v 0.00580000 -0.00137861 0.01179906
v 0.00145000 -0.00110814 0.01179442
v -0.00255593 -0.00063318 0.01173193
v -0.00229538 -0.00086810 0.01177161
v -0.00199924 -0.00101457 0.01178763
v -0.00145000 -0.00110814 0.01179442
v 0.00580000 -0.00303942 0.01130363
v 0.00580000 -0.00421842 0.01003906
v -0.00196634 -0.00458861 0.00822607
v 0.00580000 -0.00459648 0.00834772
v -0.00145000 -0.00459442 0.00830814
v -0.00275000 -0.00361213 0.00614542
v -0.00248875 -0.00454688 0.00791026
v -0.00267719 -0.00448567 0.00763888
v -0.00275000 -0.00437815 0.00731046
v -0.00580000 -0.00106977 0.00520804
v -0.00275000 -0.00242014 0.00539592
v -0.00275000 -0.00305956 0.00570823
v -0.00275000 -0.00106977 0.00520804
v -0.00275000 -0.00054705 0.00510201
v -0.00275000 -0.00080345 0.00519097
v -0.00580000 -0.00005187 0.00452836
v -0.00275000 -0.00014736 0.00473297
v 0.00580000 -0.00277177 0.00554708
v 0.00580000 -0.00106977 0.00520804
v 0.00580000 0.00030440 0.01138302
v 0.00580000 -0.00406383 0.00669802
v 0.00580000 0.00011968 0.00458175
v 0.00580000 -0.00005187 0.00452836
v 0.00275000 -0.00014224 0.00472452
v 0.00275000 -0.00053827 0.00509750
v 0.00275000 -0.00063153 0.00514012
v 0.00275000 -0.00106977 0.00520804
v 0.00275000 -0.00356538 0.00610041
v 0.00275000 -0.00238962 0.00538508
v 0.00275000 -0.00437815 0.00731046
v 0.00275000 -0.00403805 0.00665797
v 0.00267388 -0.00448800 0.00764757
v 0.00247954 -0.00454867 0.00792025
v 0.00195482 -0.00458891 0.00822974
v 0.00145000 -0.00459442 0.00830814
v 0.00199675 -0.00101552 0.01178772
v 0.00275000 0.00115077 0.01070991
v 0.00228689 -0.00087387 0.01177237
v 0.00254758 -0.00064359 0.01173406
v 0.00270657 -0.00036376 0.01166440
v 0.00275000 -0.00011047 0.01157815
v -0.00233871 0.00197962 0.00935206
v -0.00236156 0.00196997 0.00934955
v -0.00238466 0.00196087 0.00934719
v -0.00240798 0.00195234 0.00934497
v -0.00243151 0.00194437 0.00934290
v -0.00245524 0.00193697 0.00934098
v -0.00247916 0.00193014 0.00933921
v -0.00250324 0.00192390 0.00933758
v -0.00252748 0.00191823 0.00933611
v -0.00255185 0.00191316 0.00933480
v -0.00257635 0.00190867 0.00933363
v -0.00260096 0.00190478 0.00933262
v -0.00262566 0.00190148 0.00933176
v -0.00265043 0.00189878 0.00933106
v -0.00267527 0.00189667 0.00933051
v -0.00270015 0.00189517 0.00933012
v -0.00272507 0.00189427 0.00932989
v -0.00225000 0.00126307 0.01078535
v -0.00242065 -0.00008997 0.01163005
v -0.00199845 -0.00024095 0.01190392
v -0.00217129 -0.00004382 0.01175016
v -0.00176920 -0.00039789 0.01196524
v 0.00145000 -0.00057171 0.01191452
v -0.00145000 -0.00057171 0.01191452
v 0.00176918 -0.00039789 0.01196525
v 0.00145000 -0.00047119 0.01197727
v 0.00199839 -0.00024098 0.01190396
v 0.00217125 -0.00004386 0.01175020
v 0.00225000 0.00126313 0.01078529
v 0.00242063 -0.00009008 0.01163009
v 0.00272507 0.00189427 0.00932989
v 0.00225003 0.00202363 0.00936347
v 0.00227178 0.00201182 0.00936040
v 0.00229382 0.00200055 0.00935747
v 0.00231614 0.00198981 0.00935468
v 0.00233874 0.00197961 0.00935203
v 0.00236159 0.00196996 0.00934953
v 0.00238468 0.00196087 0.00934717
v 0.00240800 0.00195233 0.00934495
v 0.00243154 0.00194436 0.00934288
v 0.00245527 0.00193696 0.00934096
v 0.00247918 0.00193014 0.00933919
v 0.00250326 0.00192389 0.00933757
v 0.00252750 0.00191823 0.00933610
v 0.00255187 0.00191316 0.00933478
v 0.00257637 0.00190867 0.00933362
v 0.00260097 0.00190478 0.00933261
v 0.00262567 0.00190148 0.00933175
v 0.00265044 0.00189878 0.00933105
v 0.00267528 0.00189667 0.00933051
v 0.00270016 0.00189517 0.00933012
v 0.00244269 -0.00106823 0.00515964
v 0.00225000 -0.00249074 0.00527908
v 0.00224958 -0.00105986 0.00507419
v 0.00225000 -0.00371025 0.00605401
v 0.00225000 -0.00450304 0.00726198
v 0.00199849 -0.00470383 0.00744146
v 0.00217167 -0.00454992 0.00724394
v 0.00176921 -0.00476495 0.00759837
v -0.00145000 -0.00471452 0.00777171
v 0.00145000 -0.00471452 0.00777171
v -0.00176864 -0.00476554 0.00759776
v -0.00145000 -0.00477751 0.00767085
v -0.00199766 -0.00470451 0.00744114
v -0.00225045 -0.00450293 0.00726241
v -0.00225016 -0.00371036 0.00605425
v -0.00224987 -0.00249088 0.00527905
v -0.00224958 -0.00106040 0.00507415
v -0.00175000 -0.00510000 0.00405000
v -0.00175000 -0.00100000 0.00421048
v -0.00175000 -0.00100000 0.00405000
v -0.00178266 -0.00074651 0.00421048
v -0.00172716 -0.00100000 0.00393520
v -0.00185094 -0.00050000 0.00388393
v -0.00188397 -0.00050000 0.00405000
v -0.00188066 -0.00050578 0.00421048
v -0.00175000 -0.00259830 0.00440178
v -0.00188323 -0.00103479 0.00470797
v -0.00195456 -0.00060117 0.00466678
v -0.00175000 -0.00406102 0.00520357
v -0.00188348 -0.00261798 0.00493496
v -0.00175000 -0.00510000 0.00648754
v -0.00188373 -0.00396749 0.00579301
v 0.00175000 -0.00510000 0.00648754
v 0.00175726 -0.00510000 0.00675936
v -0.00175732 -0.00510000 0.00676058
v 0.00175000 -0.00510000 0.00405000
v -0.00166177 -0.00510000 0.00383823
v -0.00166213 -0.00100000 0.00383787
v 0.00175000 -0.00400479 0.00515817
v 0.00175000 -0.00257547 0.00439323
v 0.00175000 -0.00100000 0.00405000
v 0.00166177 -0.00510000 0.00383823
v 0.00188371 -0.00396769 0.00579318
v 0.00188372 -0.00484504 0.00713029
v 0.00188371 -0.00261796 0.00493539
v 0.00175000 -0.00100000 0.00421048
v 0.00188371 -0.00050045 0.00405000
v 0.00178354 -0.00101658 0.00446675
v 0.00195456 -0.00057263 0.00464017
v 0.00188323 -0.00050130 0.00421048
v 0.00172716 -0.00100000 0.00393519
v 0.00177594 -0.00510000 0.00703206
v -0.00177587 -0.00510000 0.00703108
v 0.00176998 -0.00510000 0.00714647
v -0.00176241 -0.00510000 0.00717546
v -0.00188397 -0.00484447 0.00713007
v 0.00171598 -0.00510000 0.00726210
v -0.00172676 -0.00510000 0.00724778
v -0.00212789 -0.00458065 0.00723229
v -0.00217064 -0.00455068 0.00724390
v -0.00166344 -0.00510000 0.00731234
v 0.00160655 -0.00510000 0.00734611
v -0.00156869 -0.00510000 0.00736100
v 0.00145000 -0.00510000 0.00737982
v -0.00144993 -0.00510000 0.00737982
v 0.00145000 -0.00477694 0.00767165
v -0.00145000 -0.00510000 0.00375000
v 0.00145000 -0.00510000 0.00375000
v 0.00166213 -0.00100000 0.00383787
v -0.00145000 -0.00100000 0.00375000
v 0.00145000 -0.00100000 0.00375000
v 0.00156480 -0.00100000 0.00377284
v -0.00156481 -0.00100000 0.00377284
v -0.00145000 -0.00050000 0.00361603
v 0.00161597 -0.00050045 0.00364930
v 0.00145000 -0.00050045 0.00361629
v -0.00175000 0.00191237 0.01135851
v -0.00175000 0.00071246 0.01230000
v -0.00175000 0.00315000 0.01230000
v 0.00175000 0.00315000 0.01230000
v -0.00175000 0.00207857 0.01115993
v -0.00175000 0.00315000 0.01026795
v -0.00166177 0.00336177 0.01230000
v 0.00166177 0.00336177 0.01230000
v -0.00188397 0.00153627 0.01102895
v 0.00175000 0.00071246 0.01230000
v -0.00175715 0.00044287 0.01230000
v -0.00175031 0.00283770 0.00957500
v -0.00175124 0.00281359 0.00956873
v -0.00175280 0.00278951 0.00956248
v -0.00175497 0.00276547 0.00955623
v -0.00175776 0.00274149 0.00955000
v -0.00176117 0.00271758 0.00954379
v -0.00176519 0.00269377 0.00953760
v -0.00176983 0.00267006 0.00953144
v -0.00177507 0.00264646 0.00952531
v -0.00178092 0.00262301 0.00951922
v -0.00178738 0.00259970 0.00951316
v -0.00179443 0.00257655 0.00950715
v -0.00180207 0.00255358 0.00950118
v -0.00181031 0.00253081 0.00949526
v -0.00181913 0.00250823 0.00948940
v -0.00182852 0.00248588 0.00948359
v -0.00183849 0.00246376 0.00947785
v -0.00184903 0.00244189 0.00947216
v -0.00186013 0.00242028 0.00946655
v -0.00187178 0.00239895 0.00946101
v -0.00188397 0.00237790 0.00945554
v -0.00175000 0.00305622 0.00991795
v -0.00175000 0.00286183 0.00958127
v -0.00175000 0.00312613 0.01008678
v -0.00166213 0.00323993 0.00981188
v -0.00173851 0.00272766 0.00918442
v -0.00171939 0.00253751 0.00875072
v -0.00166213 0.00336213 0.01026795
v 0.00175000 0.00286183 0.00958127
v 0.00175000 0.00312613 0.01008678
v 0.00175000 0.00315000 0.01026795
v 0.00166213 0.00323993 0.00981188
v 0.00175000 0.00205531 0.01118922
v 0.00166213 0.00336213 0.01026795
v 0.00175000 0.00305622 0.00991795
v 0.00174983 0.00284790 0.00953702
v 0.00168572 0.00246433 0.00852163
v 0.00166635 0.00240004 0.00836574
v 0.00170842 0.00256013 0.00875396
v 0.00171212 0.00257868 0.00879900
v 0.00171575 0.00259708 0.00884429
v 0.00171928 0.00261533 0.00888982
v 0.00172271 0.00263342 0.00893559
v 0.00172601 0.00265135 0.00898161
v 0.00172918 0.00266914 0.00902787
v 0.00173220 0.00268687 0.00907462
v 0.00173505 0.00270459 0.00912189
v 0.00173772 0.00272215 0.00916941
v 0.00174017 0.00273942 0.00921688
v 0.00174237 0.00275629 0.00926403
v 0.00174432 0.00277262 0.00931057
v 0.00174600 0.00278845 0.00935654
v 0.00174741 0.00280388 0.00940217
v 0.00174852 0.00281893 0.00944747
v 0.00174933 0.00283360 0.00949242
v 0.00188397 0.00153633 0.01102888
v 0.00175031 0.00283770 0.00957500
v 0.00175000 0.00191070 0.01136052
v 0.00175714 0.00044314 0.01230000
v 0.00177594 0.00016802 0.01230000
v -0.00145000 0.00213397 0.00772058
v -0.00145000 0.00331603 0.00976795
v 0.00145000 0.00331603 0.00976795
v -0.00145000 0.00341593 0.01000913
v 0.00145000 0.00213397 0.00772058
v 0.00145000 0.00341593 0.01000913
v -0.00152229 0.00215949 0.00778245
v -0.00165911 0.00237901 0.00831476
v -0.00165386 0.00236466 0.00827995
v -0.00162278 0.00229202 0.00810382
v -0.00158992 0.00223393 0.00796297
v -0.00157928 0.00221851 0.00792557
v 0.00145000 0.00212232 0.00769983
v -0.00145000 0.00212232 0.00769983
v 0.00151517 0.00215464 0.00777070
v -0.00145000 0.00345000 0.01026795
v 0.00145000 0.00345000 0.01230000
v 0.00145000 0.00345000 0.01026795
v -0.00145000 0.00345000 0.01230000
v -0.00176239 0.00002443 0.01230000
v 0.00176223 0.00002394 0.01230000
v -0.00177595 0.00016786 0.01230000
v 0.00190482 0.00005719 0.01201243
v -0.00172679 -0.00004773 0.01230000
v 0.00172646 -0.00004821 0.01230000
v -0.00166366 -0.00011219 0.01230000
v 0.00166312 -0.00011258 0.01230000
v -0.00156913 -0.00016086 0.01230000
v 0.00156848 -0.00016107 0.01230000
v -0.00145000 -0.00017982 0.01230000
v 0.00144994 -0.00017982 0.01230000
v -0.00145000 -0.00047121 0.01197725
v -0.00190485 0.00005711 0.01201241
v 0.00156710 0.00220267 0.00788717
v 0.00157913 0.00221831 0.00792508
v 0.00159403 0.00220455 0.00791491
v 0.00161840 0.00228329 0.00808264
v 0.00163944 0.00227924 0.00810482
v 0.00162433 0.00229520 0.00811153
v 0.00165904 0.00237883 0.00831431
v 0.00167380 0.00236134 0.00831203
v 0.00169983 0.00244803 0.00852871
v 0.00171890 0.00253849 0.00875087
v 0.00184904 0.00244187 0.00947213
v 0.00186014 0.00242026 0.00946652
v 0.00183851 0.00246374 0.00947781
v 0.00182853 0.00248586 0.00948356
v 0.00181914 0.00250821 0.00948937
v 0.00181032 0.00253079 0.00949524
v 0.00180208 0.00255356 0.00950115
v 0.00179443 0.00257653 0.00950712
v 0.00178738 0.00259968 0.00951314
v 0.00178093 0.00262299 0.00951920
v 0.00177508 0.00264645 0.00952529
v 0.00176983 0.00267004 0.00953142
v 0.00176519 0.00269375 0.00953759
v 0.00176117 0.00271757 0.00954377
v 0.00175497 0.00276546 0.00955622
v 0.00175776 0.00274148 0.00954999
v 0.00175280 0.00278950 0.00956247
v 0.00175124 0.00281359 0.00956873
v -0.00170842 0.00256013 0.00875396
v -0.00168522 0.00246248 0.00851715
v -0.00169992 0.00244837 0.00852958
v -0.00167393 0.00236167 0.00831287
v -0.00163960 0.00227954 0.00810561
v -0.00159425 0.00220481 0.00791559
v -0.00153180 0.00214634 0.00776376
v 0.00185070 -0.00050045 0.00388403
v 0.00175668 -0.00050045 0.00374332
v -0.00161607 -0.00050000 0.00364906
v -0.00175687 -0.00050000 0.00374313
v 0.00188399 0.00237788 0.00945550
v 0.00212802 -0.00003219 0.01178050
v 0.00187179 0.00239893 0.00946097
v 0.00189673 0.00235713 0.00945011
v 0.00190999 0.00233670 0.00944480
v 0.00192378 0.00231659 0.00943958
v 0.00193808 0.00229683 0.00943444
v 0.00195289 0.00227741 0.00942940
v 0.00196819 0.00225836 0.00942445
v 0.00198398 0.00223968 0.00941959
v 0.00200024 0.00222139 0.00941484
v 0.00201697 0.00220350 0.00941019
v 0.00203416 0.00218601 0.00940565
v 0.00205179 0.00216895 0.00940122
v 0.00206986 0.00215232 0.00939690
v 0.00208834 0.00213613 0.00939269
v 0.00210724 0.00212039 0.00938860
v 0.00212654 0.00210511 0.00938463
v 0.00214623 0.00209030 0.00938079
v 0.00216629 0.00207597 0.00937706
v 0.00218671 0.00206213 0.00937347
v 0.00220748 0.00204879 0.00937000
v 0.00222859 0.00203595 0.00936667
v 0.00172989 0.00251712 0.00874763
v 0.00174136 0.00249603 0.00874425
v 0.00175333 0.00247524 0.00874072
v 0.00176577 0.00245475 0.00873705
v 0.00177869 0.00243459 0.00873324
v 0.00179207 0.00241476 0.00872930
v 0.00180590 0.00239527 0.00872522
v 0.00182019 0.00237614 0.00872101
v 0.00185008 0.00233899 0.00871219
v 0.00183492 0.00235738 0.00871666
v 0.00186566 0.00232099 0.00870760
v 0.00188166 0.00230339 0.00870288
v 0.00189806 0.00228620 0.00869805
v 0.00191486 0.00226943 0.00869310
v 0.00193204 0.00225309 0.00868803
v 0.00194960 0.00223719 0.00868286
v 0.00196752 0.00222174 0.00867757
v 0.00198579 0.00220674 0.00867218
v 0.00200441 0.00219222 0.00866669
v 0.00202336 0.00217816 0.00866111
v 0.00204264 0.00216459 0.00865543
v 0.00206222 0.00215151 0.00864965
v 0.00208210 0.00213893 0.00864379
v 0.00210227 0.00212686 0.00863785
v 0.00212271 0.00211529 0.00863182
v 0.00214341 0.00210425 0.00862572
v 0.00216437 0.00209374 0.00861954
v 0.00218556 0.00208376 0.00861329
v 0.00220698 0.00207431 0.00860697
v 0.00222862 0.00206541 0.00860060
v 0.00225045 0.00205706 0.00859416
v 0.00227247 0.00204927 0.00858767
v 0.00229467 0.00204203 0.00858112
v 0.00231703 0.00203536 0.00857453
v 0.00233953 0.00202925 0.00856790
v 0.00236217 0.00202372 0.00856122
v 0.00238494 0.00201875 0.00855451
v 0.00240781 0.00201437 0.00854777
v 0.00243078 0.00201056 0.00854099
v 0.00171309 0.00242712 0.00852357
v 0.00172684 0.00240658 0.00851824
v 0.00174106 0.00238643 0.00851272
v 0.00175576 0.00236666 0.00850702
v 0.00177092 0.00234730 0.00850114
v 0.00178653 0.00232835 0.00849509
v 0.00180258 0.00230984 0.00848887
v 0.00181906 0.00229176 0.00848247
v 0.00183597 0.00227414 0.00847592
v 0.00185328 0.00225699 0.00846921
v 0.00187099 0.00224030 0.00846234
v 0.00188909 0.00222411 0.00845532
v 0.00190757 0.00220841 0.00844815
v 0.00192641 0.00219321 0.00844085
v 0.00194560 0.00217853 0.00843341
v 0.00196514 0.00216438 0.00842583
v 0.00198500 0.00215076 0.00841813
v 0.00200517 0.00213768 0.00841031
v 0.00202565 0.00212516 0.00840237
v 0.00204641 0.00211319 0.00839432
v 0.00206745 0.00210179 0.00838616
v 0.00208875 0.00209097 0.00837790
v 0.00211031 0.00208072 0.00836954
v 0.00213209 0.00207106 0.00836110
v 0.00215410 0.00206200 0.00835256
v 0.00217631 0.00205354 0.00834395
v 0.00219871 0.00204568 0.00833526
v 0.00222130 0.00203843 0.00832651
v 0.00224404 0.00203180 0.00831769
v 0.00226694 0.00202578 0.00830881
v 0.00228997 0.00202039 0.00829988
v 0.00231312 0.00201562 0.00829090
v 0.00233637 0.00201149 0.00828189
v 0.00168828 0.00234224 0.00830462
v 0.00170319 0.00232356 0.00829700
v 0.00171850 0.00230529 0.00828918
v 0.00173422 0.00228747 0.00828114
v 0.00175033 0.00227009 0.00827290
v 0.00176682 0.00225318 0.00826447
v 0.00178369 0.00223673 0.00825585
v 0.00180091 0.00222077 0.00824704
v 0.00181849 0.00220529 0.00823805
v 0.00183641 0.00219031 0.00822889
v 0.00185466 0.00217585 0.00821956
v 0.00187323 0.00216190 0.00821007
v 0.00189210 0.00214848 0.00820042
v 0.00191126 0.00213560 0.00819062
v 0.00193071 0.00212326 0.00818068
v 0.00195043 0.00211147 0.00817060
v 0.00197040 0.00210024 0.00816039
v 0.00199062 0.00208958 0.00815005
v 0.00201107 0.00207949 0.00813960
v 0.00203173 0.00206997 0.00812903
v 0.00205261 0.00206105 0.00811836
v 0.00207368 0.00205271 0.00810759
v 0.00209492 0.00204498 0.00809672
v 0.00211633 0.00203784 0.00808578
v 0.00213790 0.00203131 0.00807475
v 0.00215960 0.00202538 0.00806366
v 0.00218143 0.00202007 0.00805249
v 0.00220338 0.00201538 0.00804128
v 0.00222542 0.00201131 0.00803001
v 0.00165422 0.00226233 0.00809453
v 0.00166935 0.00224588 0.00808400
v 0.00168480 0.00222989 0.00807324
v 0.00170057 0.00221436 0.00806226
v 0.00171666 0.00219932 0.00805106
v 0.00173304 0.00218476 0.00803966
v 0.00174971 0.00217071 0.00802805
v 0.00176667 0.00215715 0.00801625
v 0.00178389 0.00214412 0.00800425
v 0.00180137 0.00213160 0.00799208
v 0.00181910 0.00211962 0.00797974
v 0.00183707 0.00210817 0.00796723
v 0.00185526 0.00209727 0.00795456
v 0.00187367 0.00208692 0.00794175
v 0.00189229 0.00207712 0.00792879
v 0.00191109 0.00206789 0.00791569
v 0.00193008 0.00205923 0.00790247
v 0.00194924 0.00205114 0.00788914
v 0.00196855 0.00204363 0.00787569
v 0.00198802 0.00203670 0.00786214
v 0.00200761 0.00203037 0.00784849
v 0.00202733 0.00202462 0.00783477
v 0.00204716 0.00201947 0.00782096
v 0.00206709 0.00201492 0.00780708
v 0.00208711 0.00201097 0.00779315
v 0.00160799 0.00218962 0.00790044
v 0.00162220 0.00217521 0.00788570
v 0.00163666 0.00216131 0.00787071
v 0.00165136 0.00214794 0.00785548
v 0.00166629 0.00213510 0.00784000
v 0.00168143 0.00212280 0.00782431
v 0.00169678 0.00211105 0.00780839
v 0.00171234 0.00209987 0.00779227
v 0.00172808 0.00208924 0.00777595
v 0.00174400 0.00207919 0.00775944
v 0.00176009 0.00206971 0.00774276
v 0.00177635 0.00206082 0.00772592
v 0.00179275 0.00205251 0.00770892
v 0.00180929 0.00204480 0.00769177
v 0.00182596 0.00203769 0.00767449
v 0.00184274 0.00203118 0.00765709
v 0.00185964 0.00202528 0.00763957
v 0.00187663 0.00201999 0.00762196
v 0.00189371 0.00201532 0.00760425
v 0.00191087 0.00201126 0.00758647
v 0.00154103 0.00213346 0.00774410
v 0.00155069 0.00212130 0.00772462
v 0.00156047 0.00210968 0.00770487
v 0.00157038 0.00209861 0.00768487
v 0.00158041 0.00208810 0.00766463
v 0.00159055 0.00207816 0.00764416
v 0.00160080 0.00206879 0.00762348
v 0.00161115 0.00206000 0.00760259
v 0.00162160 0.00205180 0.00758152
v 0.00163213 0.00204418 0.00756027
v 0.00164274 0.00203715 0.00753885
v 0.00165343 0.00203072 0.00751728
v 0.00166418 0.00202490 0.00749558
v 0.00167500 0.00201968 0.00747375
v 0.00168587 0.00201506 0.00745182
v 0.00169678 0.00201106 0.00742979
v 0.00170774 0.00200767 0.00740767
v 0.00171874 0.00200490 0.00738549
v 0.00172976 0.00200275 0.00736325
v 0.00145000 0.00211116 0.00767880
v 0.00145000 0.00210051 0.00765752
v 0.00145000 0.00209037 0.00763599
v 0.00145000 0.00208074 0.00761423
v 0.00145000 0.00207163 0.00759224
v 0.00145000 0.00206305 0.00757004
v 0.00145000 0.00205500 0.00754764
v 0.00145000 0.00204748 0.00752506
v 0.00145000 0.00204051 0.00750231
v 0.00145000 0.00203407 0.00747940
v 0.00145000 0.00202819 0.00745634
v 0.00145000 0.00202285 0.00743314
v 0.00145000 0.00201807 0.00740983
v 0.00145000 0.00201385 0.00738641
v 0.00145000 0.00201018 0.00736289
v 0.00145000 0.00200707 0.00733930
v 0.00145000 0.00200453 0.00731563
v 0.00145000 0.00200255 0.00729192
v 0.00145000 0.00200113 0.00726816
v -0.00145000 0.00211116 0.00767880
v -0.00145000 0.00210051 0.00765752
v -0.00145000 0.00209037 0.00763599
v -0.00145000 0.00208074 0.00761423
v -0.00145000 0.00207163 0.00759224
v -0.00145000 0.00206305 0.00757004
v -0.00145000 0.00205500 0.00754765
v -0.00145000 0.00204748 0.00752506
v -0.00145000 0.00204051 0.00750231
v -0.00145000 0.00203407 0.00747940
v -0.00145000 0.00202819 0.00745634
v -0.00145000 0.00202285 0.00743314
v -0.00145000 0.00201807 0.00740983
v -0.00145000 0.00201385 0.00738641
v -0.00145000 0.00201018 0.00736289
v -0.00145000 0.00200707 0.00733930
v -0.00145000 0.00200453 0.00731563
v -0.00145000 0.00200255 0.00729192
v -0.00145000 0.00200113 0.00726816
v -0.00154134 0.00213363 0.00774459
v -0.00155101 0.00212147 0.00772513
v -0.00156082 0.00210984 0.00770541
v -0.00157076 0.00209877 0.00768543
v -0.00158081 0.00208826 0.00766522
v -0.00159098 0.00207831 0.00764477
v -0.00160126 0.00206894 0.00762411
v -0.00161163 0.00206014 0.00760325
v -0.00162210 0.00205193 0.00758220
v -0.00163266 0.00204430 0.00756097
v -0.00164330 0.00203727 0.00753958
v -0.00165402 0.00203083 0.00751804
v -0.00166480 0.00202499 0.00749636
v -0.00167564 0.00201976 0.00747456
v -0.00168654 0.00201514 0.00745265
v -0.00169749 0.00201113 0.00743064
v -0.00170847 0.00200773 0.00740855
v -0.00171950 0.00200495 0.00738639
v -0.00173055 0.00200278 0.00736417
v -0.00160822 0.00218986 0.00790113
v -0.00162246 0.00217543 0.00788640
v -0.00163694 0.00216151 0.00787142
v -0.00165166 0.00214812 0.00785619
v -0.00166661 0.00213527 0.00784072
v -0.00168177 0.00212296 0.00782503
v -0.00169715 0.00211119 0.00780912
v -0.00171273 0.00209999 0.00779301
v -0.00172849 0.00208935 0.00777669
v -0.00174444 0.00207929 0.00776019
v -0.00176056 0.00206980 0.00774352
v -0.00177683 0.00206089 0.00772668
v -0.00179326 0.00205258 0.00770968
v -0.00180983 0.00204486 0.00769254
v -0.00182652 0.00203774 0.00767526
v -0.00184334 0.00203122 0.00765787
v -0.00186026 0.00202531 0.00764036
v -0.00187728 0.00202002 0.00762275
v -0.00189439 0.00201534 0.00760505
v -0.00191157 0.00201128 0.00758727
v -0.00165440 0.00226262 0.00809533
v -0.00166953 0.00224615 0.00808480
v -0.00168499 0.00223014 0.00807405
v -0.00170078 0.00221460 0.00806308
v -0.00171687 0.00219954 0.00805189
v -0.00173327 0.00218497 0.00804049
v -0.00174995 0.00217090 0.00802889
v -0.00176692 0.00215733 0.00801709
v -0.00178416 0.00214428 0.00800511
v -0.00180165 0.00213175 0.00799294
v -0.00181940 0.00211975 0.00798060
v -0.00183738 0.00210829 0.00796810
v -0.00185559 0.00209738 0.00795544
v -0.00187402 0.00208701 0.00794263
v -0.00189265 0.00207721 0.00792968
v -0.00191147 0.00206797 0.00791659
v -0.00193048 0.00205929 0.00790337
v -0.00194965 0.00205120 0.00789004
v -0.00196899 0.00204368 0.00787660
v -0.00198847 0.00203674 0.00786305
v -0.00200808 0.00203040 0.00784941
v -0.00202782 0.00202465 0.00783569
v -0.00204767 0.00201949 0.00782189
v -0.00206762 0.00201493 0.00780802
v -0.00208766 0.00201098 0.00779409
v -0.00168841 0.00234255 0.00830547
v -0.00170332 0.00232385 0.00829786
v -0.00171864 0.00230557 0.00829004
v -0.00173436 0.00228773 0.00828201
v -0.00175048 0.00227034 0.00827378
v -0.00176698 0.00225341 0.00826535
v -0.00178385 0.00223695 0.00825674
v -0.00180109 0.00222097 0.00824793
v -0.00181867 0.00220548 0.00823895
v -0.00183660 0.00219049 0.00822980
v -0.00185486 0.00217601 0.00822047
v -0.00187344 0.00216205 0.00821099
v -0.00189232 0.00214862 0.00820134
v -0.00191149 0.00213572 0.00819155
v -0.00193095 0.00212337 0.00818161
v -0.00195068 0.00211157 0.00817154
v -0.00197067 0.00210033 0.00816133
v -0.00199090 0.00208966 0.00815100
v -0.00201136 0.00207956 0.00814055
v -0.00203204 0.00207004 0.00812999
v -0.00205293 0.00206110 0.00811932
v -0.00207401 0.00205276 0.00810856
v -0.00209527 0.00204502 0.00809770
v -0.00211670 0.00203787 0.00808676
v -0.00213828 0.00203133 0.00807574
v -0.00216000 0.00202541 0.00806464
v -0.00218185 0.00202009 0.00805349
v -0.00220380 0.00201539 0.00804227
v -0.00222586 0.00201132 0.00803101
v -0.00171318 0.00242745 0.00852445
v -0.00172693 0.00240690 0.00851912
v -0.00174116 0.00238673 0.00851361
v -0.00175586 0.00236695 0.00850792
v -0.00177102 0.00234757 0.00850205
v -0.00178663 0.00232861 0.00849600
v -0.00180268 0.00231008 0.00848978
v -0.00181917 0.00229200 0.00848339
v -0.00183608 0.00227436 0.00847685
v -0.00185340 0.00225719 0.00847014
v -0.00187112 0.00224050 0.00846327
v -0.00188922 0.00222429 0.00845626
v -0.00190770 0.00220858 0.00844910
v -0.00192655 0.00219337 0.00844180
v -0.00194575 0.00217868 0.00843437
v -0.00196529 0.00216451 0.00842680
v -0.00198516 0.00215088 0.00841910
v -0.00200534 0.00213780 0.00841129
v -0.00202583 0.00212526 0.00840335
v -0.00204660 0.00211328 0.00839530
v -0.00206765 0.00210187 0.00838715
v -0.00208896 0.00209104 0.00837890
v -0.00211052 0.00208079 0.00837054
v -0.00213232 0.00207112 0.00836210
v -0.00215434 0.00206205 0.00835358
v -0.00217656 0.00205358 0.00834497
v -0.00219898 0.00204572 0.00833628
v -0.00222157 0.00203846 0.00832753
v -0.00224433 0.00203182 0.00831872
v -0.00226724 0.00202580 0.00830984
v -0.00229028 0.00202041 0.00830092
v -0.00231344 0.00201564 0.00829195
v -0.00233671 0.00201150 0.00828294
v -0.00173091 0.00251519 0.00874733
v -0.00174297 0.00249317 0.00874377
v -0.00175555 0.00247149 0.00874006
v -0.00176867 0.00245014 0.00873619
v -0.00178229 0.00242914 0.00873218
v -0.00179642 0.00240852 0.00872801
v -0.00181105 0.00238827 0.00872370
v -0.00182617 0.00236842 0.00871924
v -0.00184176 0.00234897 0.00871464
v -0.00185782 0.00232994 0.00870991
v -0.00187434 0.00231134 0.00870504
v -0.00189131 0.00229318 0.00870004
v -0.00190871 0.00227548 0.00869490
v -0.00192654 0.00225824 0.00868965
v -0.00194478 0.00224148 0.00868427
v -0.00196342 0.00222521 0.00867878
v -0.00198245 0.00220943 0.00867316
v -0.00200186 0.00219416 0.00866744
v -0.00202163 0.00217941 0.00866161
v -0.00204176 0.00216519 0.00865568
v -0.00206222 0.00215151 0.00864965
v -0.00208301 0.00213837 0.00864352
v -0.00210412 0.00212578 0.00863729
v -0.00212552 0.00211375 0.00863098
v -0.00214721 0.00210230 0.00862459
v -0.00216917 0.00209142 0.00861812
v -0.00219139 0.00208112 0.00861157
v -0.00221385 0.00207142 0.00860494
v -0.00223654 0.00206231 0.00859825
v -0.00225944 0.00205380 0.00859150
v -0.00228255 0.00204591 0.00858469
v -0.00230583 0.00203862 0.00857783
v -0.00232929 0.00203195 0.00857091
v -0.00235290 0.00202591 0.00856395
v -0.00237665 0.00202049 0.00855695
v -0.00240053 0.00201570 0.00854991
v -0.00242451 0.00201154 0.00854284
v -0.00189671 0.00235716 0.00945015
v -0.00190997 0.00233672 0.00944484
v -0.00192376 0.00231662 0.00943962
v -0.00193806 0.00229685 0.00943448
v -0.00195287 0.00227743 0.00942944
v -0.00196817 0.00225838 0.00942449
v -0.00198395 0.00223970 0.00941963
v -0.00200022 0.00222141 0.00941488
v -0.00201695 0.00220352 0.00941023
v -0.00203413 0.00218603 0.00940569
v -0.00205176 0.00216897 0.00940126
v -0.00206983 0.00215234 0.00939694
v -0.00208831 0.00213615 0.00939273
v -0.00210721 0.00212041 0.00938864
v -0.00212651 0.00210513 0.00938467
v -0.00214619 0.00209032 0.00938082
v -0.00216625 0.00207599 0.00937710
v -0.00218668 0.00206214 0.00937350
v -0.00220745 0.00204880 0.00937004
v -0.00222856 0.00203596 0.00936670
v -0.00225000 0.00202364 0.00936350
v -0.00227174 0.00201183 0.00936043
v -0.00212805 -0.00003216 0.01178047
v 0.00231201 -0.00019664 0.00461394
v 0.00248788 -0.00037251 0.00494366
v 0.00215366 -0.00077173 0.00498007
v -0.00231201 -0.00065357 0.00504002
v 0.00188268 -0.00103418 0.00470706
v 0.00212804 -0.00458048 0.00723217
v -0.00224763 -0.00013535 0.00421048
v -0.00215366 -0.00024821 0.00449188
v -0.00248788 -0.00031239 0.00488759
f 1 2 3
f 4 3 2
f 5 1 3
f 4 5 3
f 1 6 2
f 4 2 6
f 7 8 6
f 4 6 8
f 1 7 6
f 7 9 8
f 10 8 9
f 4 8 11
f 10 11 8
f 12 13 9
f 14 9 13
f 15 12 9
f 7 15 9
f 14 16 9
f 10 9 16
f 17 13 12
f 18 13 17
f 14 13 18
f 17 12 15
f 19 15 7
f 20 17 15
f 19 20 15
f 1 21 7
f 22 7 21
f 22 19 7
f 1 23 21
f 24 21 23
f 25 21 24
f 22 21 25
f 1 26 23
f 24 23 26
f 1 27 26
f 28 26 27
f 29 24 26
f 28 29 26
f 1 30 27
f 31 27 30
f 31 28 27
f 1 32 30
f 33 30 32
f 33 34 30
f 31 30 34
f 35 36 32
f 37 32 36
f 38 35 32
f 39 38 32
f 40 39 32
f 1 40 32
f 41 32 37
f 33 32 41
f 42 36 35
f 42 37 36
f 43 35 38
f 44 35 43
f 42 35 44
f 45 38 39
f 43 38 45
f 45 39 40
f 1 46 40
f 47 40 46
f 47 45 40
f 48 49 46
f 47 46 49
f 1 48 46
f 48 50 49
f 51 49 50
f 52 47 49
f 51 52 49
f 53 54 50
f 55 50 54
f 56 53 50
f 48 56 50
f 55 51 50
f 57 54 53
f 58 55 54
f 57 58 54
f 57 53 56
f 59 56 48
f 60 57 56
f 59 60 56
f 61 48 1
f 61 59 48
f 5 62 1
f 63 1 62
f 64 61 1
f 63 64 1
f 65 66 62
f 63 62 66
f 5 65 62
f 65 67 66
f 68 66 67
f 69 63 66
f 68 69 66
f 70 71 67
f 72 67 71
f 73 70 67
f 65 73 67
f 72 68 67
f 74 71 70
f 75 72 71
f 74 75 71
f 74 70 73
f 76 73 65
f 77 74 73
f 76 77 73
f 78 65 5
f 78 76 65
f 79 78 5
f 4 79 5
f 80 81 82
f 83 82 81
f 84 85 82
f 80 82 85
f 86 84 82
f 87 82 88
f 89 88 82
f 90 86 82
f 91 90 82
f 92 91 82
f 87 92 82
f 93 89 82
f 83 93 82
f 94 95 81
f 83 81 95
f 80 94 81
f 94 96 95
f 97 95 96
f 98 95 97
f 83 95 98
f 94 99 96
f 100 96 99
f 97 96 100
f 101 102 99
f 103 99 102
f 104 99 94
f 104 105 99
f 101 99 105
f 103 100 99
f 106 107 102
f 103 102 107
f 108 106 102
f 101 108 102
f 106 109 107
f 110 107 109
f 110 103 107
f 111 112 109
f 113 109 112
f 114 111 109
f 106 114 109
f 113 110 109
f 115 112 111
f 116 113 112
f 115 116 112
f 115 111 114
f 117 114 106
f 117 115 114
f 118 106 108
f 118 117 106
f 119 120 108
f 121 108 120
f 122 119 108
f 123 122 108
f 124 123 108
f 125 124 108
f 126 125 108
f 127 126 108
f 128 127 108
f 129 128 108
f 130 131 108
f 129 108 131
f 132 130 108
f 133 132 108
f 134 133 108
f 135 134 108
f 136 135 108
f 137 136 108
f 138 137 108
f 139 138 108
f 140 139 108
f 141 140 108
f 142 141 108
f 143 142 108
f 144 143 108
f 145 144 108
f 101 145 108
f 146 118 108
f 121 146 108
f 147 148 120
f 121 120 148
f 149 147 120
f 119 149 120
f 147 150 148
f 151 148 150
f 151 121 148
f 152 153 150
f 154 150 153
f 155 152 150
f 147 155 150
f 154 151 150
f 156 153 152
f 157 154 153
f 156 157 153
f 156 152 155
f 158 155 147
f 158 156 155
f 159 147 149
f 159 158 147
f 160 161 149
f 162 149 161
f 119 163 149
f 164 149 163
f 165 149 164
f 165 160 149
f 166 159 149
f 162 166 149
f 167 168 161
f 162 161 168
f 160 167 161
f 167 169 168
f 162 168 169
f 170 171 169
f 172 169 171
f 170 169 167
f 162 169 173
f 172 173 169
f 170 174 171
f 172 171 174
f 170 175 174
f 176 174 175
f 172 174 176
f 177 178 175
f 179 175 178
f 180 181 175
f 182 175 181
f 183 180 175
f 184 183 175
f 170 184 175
f 185 177 175
f 186 185 175
f 187 186 175
f 182 187 175
f 188 189 175
f 190 175 189
f 191 188 175
f 192 191 175
f 193 194 175
f 176 175 194
f 195 193 175
f 196 195 175
f 190 196 175
f 197 192 175
f 179 197 175
f 198 199 178
f 200 178 199
f 177 198 178
f 200 179 178
f 198 201 199
f 202 199 201
f 200 199 202
f 203 204 201
f 205 201 204
f 198 203 201
f 202 201 205
f 203 206 204
f 207 204 206
f 205 204 207
f 208 209 210
f 211 210 209
f 207 206 212
f 213 212 206
f 203 214 206
f 213 206 214
f 203 215 214
f 216 214 215
f 213 214 216
f 203 217 215
f 218 215 217
f 216 215 218
f 203 219 217
f 220 217 219
f 218 217 220
f 211 209 221
f 222 211 223
f 203 224 219
f 225 219 224
f 220 219 226
f 225 226 219
f 203 227 224
f 225 224 227
f 203 228 227
f 229 227 228
f 225 227 229
f 203 230 228
f 231 228 230
f 229 228 231
f 203 232 230
f 233 230 232
f 231 230 233
f 211 221 223
f 234 235 236
f 203 237 232
f 238 232 237
f 233 232 239
f 238 239 232
f 203 240 237
f 238 237 240
f 203 241 240
f 242 240 241
f 238 240 242
f 243 244 241
f 245 241 244
f 203 243 241
f 242 241 245
f 243 246 244
f 247 244 246
f 245 244 247
f 235 222 236
f 222 223 236
f 247 246 248
f 249 248 246
f 243 250 246
f 249 246 250
f 243 251 250
f 249 250 251
f 243 252 251
f 253 251 252
f 249 251 253
f 243 254 252
f 255 252 254
f 253 252 255
f 243 256 254
f 257 254 256
f 255 254 257
f 243 258 256
f 259 256 258
f 257 256 260
f 259 260 256
f 243 261 258
f 259 258 261
f 243 262 261
f 263 261 262
f 259 261 263
f 264 265 262
f 266 262 265
f 267 268 262
f 129 262 268
f 269 267 262
f 243 269 262
f 270 264 262
f 129 270 262
f 271 263 262
f 266 271 262
f 272 273 265
f 274 265 273
f 264 272 265
f 274 266 265
f 272 275 273
f 274 273 275
f 272 276 275
f 277 275 276
f 277 274 275
f 278 234 279
f 234 236 279
f 272 280 276
f 281 276 280
f 282 277 276
f 281 282 276
f 272 283 280
f 284 280 283
f 284 281 280
f 272 285 283
f 286 283 285
f 286 284 283
f 272 287 285
f 288 285 287
f 288 286 285
f 272 289 287
f 288 287 289
f 272 290 289
f 291 289 290
f 291 288 289
f 272 292 290
f 293 290 292
f 293 291 290
f 272 294 292
f 295 292 294
f 295 293 292
f 272 296 294
f 297 294 296
f 297 295 294
f 272 298 296
f 299 296 298
f 299 297 296
f 300 301 302
f 301 278 302
f 272 303 298
f 304 298 303
f 305 299 298
f 304 305 298
f 272 306 303
f 307 303 306
f 307 304 303
f 272 308 306
f 309 306 308
f 309 307 306
f 272 310 308
f 311 308 310
f 311 309 308
f 272 312 310
f 311 310 312
f 278 279 302
f 313 314 315
f 316 311 312
f 272 317 312
f 318 312 317
f 318 316 312
f 272 319 317
f 320 317 319
f 320 318 317
f 272 321 319
f 322 319 321
f 322 320 319
f 272 323 321
f 324 321 323
f 324 322 321
f 314 325 315
f 302 313 326
f 272 327 323
f 328 323 327
f 329 324 323
f 328 329 323
f 272 330 327
f 331 327 330
f 331 328 327
f 272 332 330
f 333 330 332
f 333 331 330
f 272 85 332
f 334 332 85
f 334 333 332
f 335 85 84
f 272 336 85
f 133 85 336
f 133 80 85
f 337 85 335
f 338 85 337
f 339 334 85
f 338 339 85
f 340 341 84
f 335 84 341
f 86 340 84
f 342 163 119
f 343 164 163
f 343 163 342
f 344 119 122
f 344 342 119
f 345 346 122
f 347 122 346
f 123 345 122
f 344 122 347
f 164 348 346
f 349 346 348
f 350 164 346
f 351 350 346
f 352 351 346
f 353 352 346
f 345 353 346
f 347 346 349
f 354 348 164
f 349 348 354
f 355 165 164
f 356 355 164
f 357 356 164
f 350 357 164
f 354 164 343
f 358 167 160
f 359 170 167
f 359 167 358
f 360 160 165
f 360 358 160
f 361 165 355
f 360 165 361
f 362 355 356
f 361 355 362
f 363 356 357
f 362 356 363
f 364 357 350
f 363 357 364
f 365 350 351
f 364 350 365
f 366 351 352
f 365 351 366
f 367 352 353
f 366 352 367
f 368 353 345
f 367 353 368
f 369 345 123
f 368 345 369
f 370 123 124
f 369 123 370
f 371 124 125
f 370 124 371
f 126 372 125
f 373 125 372
f 371 125 373
f 374 375 372
f 376 372 375
f 126 374 372
f 373 372 376
f 377 378 375
f 379 375 378
f 374 377 375
f 376 375 379
f 377 380 378
f 381 378 380
f 379 378 381
f 382 383 380
f 384 380 383
f 385 382 380
f 377 385 380
f 381 380 384
f 182 181 383
f 386 383 181
f 382 182 383
f 384 383 386
f 387 181 180
f 386 181 387
f 388 180 183
f 387 180 388
f 389 183 184
f 388 183 389
f 390 184 170
f 389 184 390
f 390 170 359
f 391 392 393
f 394 393 392
f 395 391 393
f 396 395 393
f 397 396 393
f 397 393 394
f 398 399 392
f 400 392 399
f 391 398 392
f 400 394 392
f 401 402 399
f 403 399 402
f 398 401 399
f 400 399 403
f 404 405 402
f 406 402 405
f 401 404 402
f 403 402 406
f 407 408 405
f 409 405 408
f 404 407 405
f 406 405 409
f 410 408 407
f 409 408 410
f 411 407 404
f 410 407 411
f 412 404 401
f 411 404 412
f 413 401 398
f 412 401 413
f 414 398 391
f 413 398 414
f 415 391 395
f 414 391 415
f 396 416 395
f 417 395 416
f 415 395 417
f 418 419 416
f 420 416 419
f 396 418 416
f 417 416 420
f 421 422 419
f 423 419 422
f 418 421 419
f 420 419 423
f 424 425 422
f 426 422 425
f 421 424 422
f 423 422 426
f 427 425 424
f 426 425 427
f 428 424 421
f 427 424 428
f 429 421 418
f 428 421 429
f 430 418 396
f 429 418 430
f 430 396 397
f 431 432 433
f 434 433 432
f 435 431 433
f 129 435 433
f 129 433 436
f 437 436 433
f 437 433 434
f 438 439 432
f 440 432 439
f 431 438 432
f 440 434 432
f 441 442 439
f 443 439 442
f 438 441 439
f 440 439 443
f 444 445 442
f 446 442 445
f 441 444 442
f 443 442 446
f 447 448 445
f 449 445 448
f 444 447 445
f 446 445 449
f 450 451 448
f 452 448 451
f 447 450 448
f 449 448 452
f 453 454 451
f 455 451 454
f 450 453 451
f 452 451 455
f 456 457 454
f 458 454 457
f 453 456 454
f 455 454 458
f 459 460 457
f 461 457 460
f 456 459 457
f 458 457 461
f 462 460 459
f 461 460 462
f 463 459 456
f 462 459 463
f 464 456 453
f 463 456 464
f 465 453 450
f 464 453 465
f 466 450 447
f 465 450 466
f 467 447 444
f 466 447 467
f 468 444 441
f 467 444 468
f 469 441 438
f 468 441 469
f 470 438 431
f 469 438 470
f 471 431 435
f 470 431 471
f 129 268 435
f 472 435 268
f 471 435 472
f 473 268 267
f 472 268 473
f 474 267 269
f 473 267 474
f 475 269 243
f 474 269 475
f 476 243 203
f 475 243 476
f 477 203 198
f 476 203 477
f 478 198 177
f 477 198 478
f 479 177 185
f 478 177 479
f 480 185 186
f 479 185 480
f 481 186 187
f 480 186 481
f 482 187 182
f 481 187 482
f 483 182 382
f 482 182 483
f 484 382 385
f 483 382 484
f 485 385 377
f 484 385 485
f 486 377 374
f 485 377 486
f 487 374 126
f 486 374 487
f 488 126 127
f 487 126 488
f 489 127 128
f 488 127 489
f 129 490 128
f 491 128 490
f 489 128 491
f 129 436 490
f 492 490 436
f 491 490 492
f 492 436 437
f 130 493 131
f 494 131 493
f 495 129 131
f 495 131 494
f 130 496 493
f 497 493 496
f 497 494 493
f 498 496 130
f 497 496 498
f 499 130 132
f 498 130 499
f 336 500 132
f 501 132 500
f 133 336 132
f 499 132 501
f 502 500 336
f 501 500 502
f 503 336 272
f 502 336 503
f 264 504 272
f 505 272 504
f 503 272 505
f 506 504 264
f 505 504 506
f 507 264 270
f 506 264 507
f 508 270 129
f 507 270 508
f 508 129 495
f 509 510 511
f 512 511 510
f 513 509 511
f 514 513 511
f 515 514 511
f 135 515 511
f 135 511 134
f 516 134 511
f 516 511 512
f 517 510 509
f 517 512 510
f 518 509 513
f 517 509 518
f 519 513 514
f 518 513 519
f 520 521 514
f 522 514 521
f 515 520 514
f 519 514 522
f 523 521 520
f 522 521 523
f 524 520 515
f 523 520 524
f 135 94 515
f 525 515 94
f 524 515 525
f 526 94 80
f 135 104 94
f 525 94 526
f 527 80 133
f 526 80 527
f 528 133 134
f 527 133 528
f 528 134 516
f 529 105 104
f 530 101 105
f 530 105 529
f 209 104 135
f 209 529 104
f 221 135 136
f 209 135 221
f 223 136 137
f 221 136 223
f 236 137 138
f 223 137 236
f 279 138 139
f 236 138 279
f 302 139 140
f 279 139 302
f 313 140 141
f 302 140 313
f 314 141 142
f 313 141 314
f 325 142 143
f 314 142 325
f 315 143 144
f 325 143 315
f 326 144 145
f 315 144 326
f 531 145 101
f 326 145 531
f 531 101 530
f 532 533 534
f 210 534 533
f 535 532 534
f 211 535 534
f 211 534 210
f 536 537 533
f 208 533 537
f 532 536 533
f 208 210 533
f 538 539 537
f 540 537 539
f 536 538 537
f 208 537 540
f 541 542 539
f 543 539 542
f 538 541 539
f 540 539 543
f 544 545 542
f 546 542 545
f 541 544 542
f 543 542 546
f 300 545 544
f 546 545 300
f 301 544 541
f 300 544 301
f 278 541 538
f 301 541 278
f 234 538 536
f 278 538 234
f 235 536 532
f 234 536 235
f 222 532 535
f 235 532 222
f 222 535 211
f 547 548 549
f 75 549 548
f 550 547 549
f 551 550 549
f 77 551 549
f 74 549 75
f 77 549 74
f 552 548 547
f 552 553 548
f 75 548 553
f 116 547 550
f 117 552 547
f 115 547 116
f 117 547 115
f 554 550 551
f 116 550 554
f 555 556 557
f 558 557 556
f 44 555 557
f 42 44 557
f 559 557 558
f 42 557 559
f 555 560 556
f 166 556 560
f 561 556 166
f 558 556 561
f 562 560 555
f 563 560 562
f 166 560 563
f 52 562 555
f 47 555 44
f 52 555 47
f 564 565 566
f 567 566 565
f 98 564 566
f 83 98 566
f 93 566 567
f 83 566 93
f 564 568 565
f 79 565 568
f 569 565 79
f 567 565 569
f 570 568 564
f 570 571 568
f 79 568 571
f 110 570 564
f 103 564 98
f 110 564 103
f 572 573 574
f 58 574 573
f 575 572 574
f 576 575 574
f 60 576 574
f 57 574 58
f 60 574 57
f 577 573 572
f 577 578 573
f 58 573 578
f 157 572 575
f 158 577 572
f 156 572 157
f 158 572 156
f 579 575 576
f 157 575 579
f 580 581 582
f 64 582 581
f 583 580 582
f 584 583 582
f 69 584 582
f 63 582 64
f 69 582 63
f 585 581 580
f 585 586 581
f 64 581 586
f 146 580 583
f 151 585 580
f 121 580 146
f 151 580 121
f 587 583 584
f 146 583 587
f 588 589 88
f 590 88 589
f 591 87 88
f 592 88 89
f 592 588 88
f 591 88 590
f 593 594 589
f 595 589 594
f 588 593 589
f 595 590 589
f 593 596 594
f 597 594 596
f 595 594 597
f 598 599 596
f 600 596 599
f 593 598 596
f 597 596 600
f 598 601 599
f 602 599 601
f 600 599 602
f 603 604 601
f 605 601 604
f 598 603 601
f 602 601 605
f 603 606 604
f 607 604 606
f 605 604 607
f 603 608 606
f 609 606 608
f 607 606 609
f 610 611 608
f 612 608 611
f 603 610 608
f 609 608 612
f 610 613 611
f 614 611 613
f 612 611 614
f 610 615 613
f 616 613 615
f 614 613 616
f 335 617 615
f 618 615 617
f 619 335 615
f 610 619 615
f 616 615 618
f 335 341 617
f 620 617 341
f 618 617 620
f 621 341 340
f 620 341 621
f 622 340 86
f 621 340 622
f 191 86 90
f 622 86 191
f 188 90 91
f 191 90 188
f 189 91 92
f 188 91 189
f 623 92 87
f 189 92 623
f 623 87 591
f 624 625 626
f 93 626 625
f 627 624 626
f 10 627 626
f 10 626 567
f 93 567 626
f 624 89 625
f 93 625 89
f 628 592 89
f 624 628 89
f 629 335 619
f 630 337 335
f 631 630 335
f 632 631 335
f 633 632 335
f 634 633 335
f 635 634 335
f 636 635 335
f 637 636 335
f 638 637 335
f 639 638 335
f 640 639 335
f 641 640 335
f 642 641 335
f 643 642 335
f 644 643 335
f 645 644 335
f 646 645 335
f 647 646 335
f 629 647 335
f 610 648 619
f 649 619 648
f 313 315 326
f 649 629 619
f 650 648 610
f 651 648 650
f 652 649 648
f 653 652 648
f 654 653 648
f 655 654 648
f 651 655 648
f 656 610 603
f 650 610 656
f 657 603 598
f 656 603 657
f 658 598 593
f 657 598 659
f 660 659 598
f 658 660 598
f 661 593 588
f 662 658 593
f 663 662 593
f 664 663 593
f 661 664 593
f 592 665 588
f 666 588 665
f 667 661 588
f 666 667 588
f 668 665 592
f 668 666 665
f 669 592 628
f 670 668 592
f 669 670 592
f 669 628 624
f 627 671 624
f 672 624 671
f 672 669 624
f 10 671 627
f 14 671 16
f 10 16 671
f 14 672 671
f 673 591 590
f 673 590 595
f 674 623 591
f 673 674 591
f 674 189 623
f 674 190 189
f 192 622 191
f 192 621 622
f 192 620 621
f 675 618 620
f 192 675 620
f 675 616 618
f 656 614 616
f 675 656 616
f 657 612 614
f 656 657 614
f 657 609 612
f 659 607 609
f 657 659 609
f 659 605 607
f 659 602 605
f 676 600 602
f 659 676 602
f 676 597 600
f 673 595 597
f 676 673 597
f 559 194 193
f 172 176 194
f 172 194 558
f 559 558 194
f 195 677 193
f 559 193 677
f 195 678 677
f 42 677 678
f 42 559 677
f 679 678 195
f 41 37 678
f 42 678 37
f 679 41 678
f 679 195 196
f 680 196 190
f 680 679 196
f 681 190 674
f 681 680 190
f 682 674 673
f 681 674 682
f 683 673 676
f 684 682 673
f 683 684 673
f 685 676 659
f 686 683 676
f 685 686 676
f 687 685 659
f 688 687 659
f 689 688 659
f 690 689 659
f 660 690 659
f 675 650 656
f 691 650 675
f 691 651 650
f 692 675 192
f 693 691 675
f 694 693 675
f 695 694 675
f 696 695 675
f 692 696 675
f 300 302 531
f 197 692 192
f 697 337 630
f 697 338 337
f 698 630 631
f 698 697 630
f 699 631 632
f 699 698 631
f 700 632 633
f 700 699 632
f 701 633 634
f 701 700 633
f 702 634 635
f 702 701 634
f 703 635 636
f 703 702 635
f 704 636 637
f 704 703 636
f 705 637 638
f 705 704 637
f 706 638 639
f 706 705 638
f 707 639 640
f 707 706 639
f 708 640 641
f 708 707 640
f 709 641 642
f 709 708 641
f 710 642 643
f 710 709 642
f 711 643 644
f 711 710 643
f 712 644 645
f 712 711 644
f 713 645 646
f 713 712 645
f 713 646 647
f 714 647 629
f 714 713 647
f 546 300 531
f 715 629 649
f 715 714 629
f 715 649 652
f 716 652 653
f 715 652 717
f 716 717 652
f 718 653 654
f 718 716 653
f 718 654 655
f 719 655 651
f 720 718 655
f 719 720 655
f 719 651 691
f 721 691 693
f 719 691 722
f 721 722 691
f 721 693 694
f 723 694 695
f 723 721 694
f 724 695 696
f 723 695 724
f 725 696 692
f 726 696 725
f 724 696 726
f 302 326 531
f 727 692 197
f 728 725 692
f 729 728 692
f 730 729 692
f 731 730 692
f 732 731 692
f 733 732 692
f 734 733 692
f 735 734 692
f 736 735 692
f 737 736 692
f 738 737 692
f 739 738 692
f 740 739 692
f 741 740 692
f 742 741 692
f 743 742 692
f 744 743 692
f 745 744 692
f 746 745 692
f 747 746 692
f 727 747 692
f 200 197 179
f 200 727 197
f 748 682 684
f 748 681 682
f 749 684 683
f 750 748 684
f 749 750 684
f 751 683 686
f 751 749 683
f 751 686 685
f 752 685 687
f 752 751 685
f 753 687 688
f 754 752 687
f 753 754 687
f 755 688 689
f 755 753 688
f 755 689 690
f 756 690 660
f 757 755 690
f 756 757 690
f 756 660 658
f 758 658 662
f 756 658 759
f 758 759 658
f 760 662 663
f 760 758 662
f 760 663 664
f 761 664 661
f 760 664 761
f 762 661 667
f 762 761 661
f 763 667 666
f 763 762 667
f 763 666 668
f 764 763 668
f 670 764 668
f 765 766 767
f 768 767 766
f 769 765 767
f 770 769 767
f 770 767 771
f 772 771 767
f 768 772 767
f 765 773 766
f 774 766 773
f 775 766 774
f 775 768 766
f 765 776 773
f 777 773 776
f 774 773 777
f 765 778 776
f 779 776 778
f 777 776 779
f 780 778 765
f 781 778 780
f 781 782 778
f 779 778 782
f 780 765 783
f 784 783 765
f 785 784 765
f 769 785 765
f 786 780 783
f 787 786 783
f 788 787 783
f 789 788 783
f 784 789 783
f 790 780 786
f 791 781 780
f 791 780 790
f 792 786 787
f 790 786 792
f 788 793 787
f 792 787 793
f 794 793 788
f 795 792 793
f 796 795 793
f 797 793 794
f 796 793 797
f 798 788 789
f 794 788 798
f 799 800 782
f 779 782 800
f 781 799 782
f 801 802 800
f 803 800 802
f 799 801 800
f 779 800 803
f 804 805 802
f 760 802 805
f 801 804 802
f 806 802 807
f 760 807 802
f 803 802 806
f 804 808 805
f 760 805 808
f 809 810 808
f 758 808 810
f 804 809 808
f 760 808 758
f 811 812 810
f 758 810 812
f 809 811 810
f 813 812 811
f 759 812 813
f 758 812 759
f 813 811 809
f 755 809 804
f 813 809 755
f 753 804 801
f 755 804 753
f 753 801 799
f 791 799 781
f 753 799 791
f 814 815 789
f 816 789 815
f 784 814 789
f 816 798 789
f 817 815 814
f 817 818 815
f 819 815 818
f 819 816 815
f 817 814 784
f 820 817 784
f 785 820 784
f 821 818 817
f 822 819 818
f 822 818 823
f 821 823 818
f 821 817 820
f 824 825 826
f 827 826 825
f 828 824 826
f 829 828 826
f 830 829 826
f 831 826 827
f 831 830 826
f 832 825 824
f 827 825 833
f 834 833 825
f 832 834 825
f 835 824 828
f 836 824 835
f 837 824 836
f 838 824 837
f 839 824 838
f 840 824 839
f 841 824 840
f 842 824 841
f 843 824 842
f 844 824 843
f 845 824 844
f 846 824 845
f 847 824 846
f 848 824 847
f 849 824 848
f 850 824 849
f 851 824 850
f 852 824 851
f 853 824 852
f 854 824 853
f 855 824 854
f 832 824 855
f 856 857 828
f 835 828 857
f 858 856 828
f 829 858 828
f 859 857 856
f 860 857 859
f 861 857 860
f 835 857 861
f 862 856 858
f 859 856 862
f 862 858 829
f 862 829 830
f 863 864 865
f 866 865 864
f 867 863 865
f 827 867 865
f 868 827 865
f 866 868 865
f 863 869 864
f 866 864 869
f 870 869 863
f 871 872 869
f 866 869 872
f 873 871 869
f 874 873 869
f 875 874 869
f 876 875 869
f 877 876 869
f 878 877 869
f 879 878 869
f 880 879 869
f 881 880 869
f 882 881 869
f 883 882 869
f 884 883 869
f 885 884 869
f 886 885 869
f 887 886 869
f 888 887 869
f 889 888 869
f 870 889 869
f 890 863 867
f 891 870 863
f 891 863 890
f 827 892 867
f 890 867 892
f 827 833 892
f 893 892 833
f 894 892 893
f 890 892 894
f 834 893 833
f 868 831 827
f 895 896 897
f 898 897 896
f 899 895 897
f 866 899 897
f 866 897 868
f 900 868 897
f 898 900 897
f 901 896 895
f 902 859 896
f 898 896 859
f 903 902 896
f 904 903 896
f 905 904 896
f 906 905 896
f 901 906 896
f 540 543 530
f 907 895 899
f 543 546 530
f 908 901 895
f 908 895 907
f 866 909 899
f 208 529 209
f 907 899 909
f 910 911 912
f 831 912 911
f 900 910 912
f 868 912 831
f 900 912 868
f 910 913 911
f 830 911 913
f 831 911 830
f 862 913 910
f 862 830 913
f 859 862 910
f 898 859 910
f 898 910 900
f 834 894 893
f 914 915 894
f 724 894 915
f 916 914 894
f 834 916 894
f 917 890 894
f 917 894 724
f 918 919 915
f 723 915 919
f 914 918 915
f 723 724 915
f 920 921 919
f 723 919 921
f 918 920 919
f 922 923 921
f 721 921 923
f 920 922 921
f 723 921 721
f 924 925 923
f 721 923 925
f 922 924 923
f 926 925 924
f 722 925 926
f 721 925 722
f 926 924 922
f 718 922 920
f 926 922 718
f 718 920 918
f 716 918 914
f 718 918 716
f 716 914 916
f 832 916 834
f 927 916 832
f 716 916 927
f 546 531 530
f 208 540 529
f 866 928 909
f 540 530 529
f 866 929 928
f 930 928 929
f 909 928 930
f 866 931 929
f 932 929 931
f 930 929 932
f 866 933 931
f 932 931 933
f 866 934 933
f 935 933 934
f 932 933 935
f 866 872 934
f 936 934 872
f 935 934 936
f 936 872 871
f 937 871 873
f 936 871 937
f 938 873 874
f 939 873 938
f 937 873 939
f 940 874 875
f 938 874 940
f 941 875 876
f 940 875 941
f 942 876 877
f 941 876 942
f 943 877 878
f 942 877 943
f 944 878 879
f 943 878 944
f 945 879 880
f 944 879 945
f 946 880 881
f 945 880 946
f 947 881 882
f 946 881 947
f 948 882 883
f 947 882 948
f 949 883 884
f 948 883 949
f 950 884 885
f 949 884 950
f 951 885 886
f 950 885 951
f 952 886 887
f 953 886 952
f 951 886 953
f 954 887 888
f 952 887 954
f 955 888 889
f 954 888 955
f 891 889 870
f 955 889 891
f 956 860 859
f 957 956 859
f 902 957 859
f 861 860 956
f 958 956 957
f 861 956 958
f 959 957 902
f 958 957 959
f 960 902 903
f 959 902 960
f 960 903 904
f 961 904 905
f 960 904 961
f 961 905 906
f 962 906 901
f 961 906 962
f 962 901 908
f 963 798 816
f 963 794 798
f 964 816 819
f 963 816 964
f 964 819 822
f 965 820 785
f 965 821 820
f 966 785 769
f 965 785 966
f 966 769 770
f 724 725 890
f 967 890 725
f 968 724 890
f 917 968 890
f 955 891 890
f 954 955 890
f 952 954 890
f 953 952 890
f 951 953 890
f 950 951 890
f 949 950 890
f 948 949 890
f 947 948 890
f 946 947 890
f 945 946 890
f 944 945 890
f 943 944 890
f 942 943 890
f 941 942 890
f 940 941 890
f 938 940 890
f 939 938 890
f 969 939 890
f 967 969 890
f 724 726 725
f 970 967 725
f 971 970 725
f 972 971 725
f 973 972 725
f 974 973 725
f 975 974 725
f 976 975 725
f 977 976 725
f 978 977 725
f 979 978 725
f 980 979 725
f 981 980 725
f 982 981 725
f 983 982 725
f 984 983 725
f 985 984 725
f 986 985 725
f 987 986 725
f 988 987 725
f 989 988 725
f 728 989 725
f 917 724 968
f 937 939 969
f 990 969 967
f 990 937 969
f 991 967 970
f 991 990 967
f 992 970 971
f 992 991 970
f 993 971 972
f 993 992 971
f 994 972 973
f 994 993 972
f 995 973 974
f 995 994 973
f 996 974 975
f 996 995 974
f 997 975 976
f 997 996 975
f 998 976 977
f 999 997 976
f 998 999 976
f 1000 977 978
f 1000 998 977
f 1001 978 979
f 1001 1000 978
f 1002 979 980
f 1002 1001 979
f 1003 980 981
f 1003 1002 980
f 1004 981 982
f 1004 1003 981
f 1005 982 983
f 1005 1004 982
f 1006 983 984
f 1006 1005 983
f 1007 984 985
f 1007 1006 984
f 1008 985 986
f 1008 1007 985
f 1009 986 987
f 1009 1008 986
f 1010 987 988
f 1010 1009 987
f 1011 988 989
f 1011 1010 988
f 1012 989 728
f 1012 1011 989
f 1013 728 729
f 1013 1012 728
f 1014 729 730
f 1014 1013 729
f 1015 730 731
f 1015 1014 730
f 1016 731 732
f 1016 1015 731
f 1017 732 733
f 1017 1016 732
f 1018 733 734
f 1018 1017 733
f 1019 734 735
f 1019 1018 734
f 1020 735 736
f 1020 1019 735
f 1021 736 737
f 1021 1020 736
f 1022 737 738
f 1022 1021 737
f 1023 738 739
f 1023 1022 738
f 1024 739 740
f 1024 1023 739
f 1025 740 741
f 1025 1024 740
f 1026 741 742
f 1026 1025 741
f 1027 742 743
f 1027 1026 742
f 1028 743 744
f 1028 1027 743
f 212 744 745
f 212 1028 744
f 207 745 746
f 207 212 745
f 205 746 747
f 205 207 746
f 202 747 727
f 202 205 747
f 200 202 727
f 936 937 990
f 1029 990 991
f 1029 936 990
f 1030 991 992
f 1030 1029 991
f 1031 992 993
f 1031 1030 992
f 1032 993 994
f 1032 1031 993
f 1033 994 995
f 1033 1032 994
f 1034 995 996
f 1034 1033 995
f 1035 996 997
f 1035 1034 996
f 1036 997 999
f 1036 1035 997
f 1037 999 998
f 1037 1036 999
f 1038 998 1000
f 1038 1037 998
f 1039 1000 1001
f 1039 1038 1000
f 1040 1001 1002
f 1040 1039 1001
f 1041 1002 1003
f 1041 1040 1002
f 1042 1003 1004
f 1042 1041 1003
f 1043 1004 1005
f 1043 1042 1004
f 1044 1005 1006
f 1044 1043 1005
f 1045 1006 1007
f 1045 1044 1006
f 1046 1007 1008
f 1046 1045 1007
f 1047 1008 1009
f 1047 1046 1008
f 1048 1009 1010
f 1048 1047 1009
f 1049 1010 1011
f 1049 1048 1010
f 1050 1011 1012
f 1050 1049 1011
f 1050 1012 1013
f 1051 1013 1014
f 1051 1050 1013
f 1052 1014 1015
f 1052 1051 1014
f 1053 1015 1016
f 1053 1052 1015
f 1054 1016 1017
f 1054 1053 1016
f 1055 1017 1018
f 1055 1054 1017
f 1056 1018 1019
f 1056 1055 1018
f 1057 1019 1020
f 1057 1056 1019
f 1058 1020 1021
f 1058 1057 1020
f 1059 1021 1022
f 1059 1058 1021
f 1060 1022 1023
f 1060 1059 1022
f 1061 1023 1024
f 1061 1060 1023
f 226 1024 1025
f 226 1061 1024
f 220 1025 1026
f 220 226 1025
f 218 1026 1027
f 218 220 1026
f 216 1027 1028
f 216 218 1027
f 213 1028 212
f 213 216 1028
f 1062 936 1029
f 1062 935 936
f 1063 1029 1030
f 1063 1062 1029
f 1064 1030 1031
f 1064 1063 1030
f 1065 1031 1032
f 1065 1064 1031
f 1066 1032 1033
f 1066 1065 1032
f 1067 1033 1034
f 1067 1066 1033
f 1068 1034 1035
f 1068 1067 1034
f 1069 1035 1036
f 1069 1068 1035
f 1070 1036 1037
f 1070 1069 1036
f 1071 1037 1038
f 1071 1070 1037
f 1072 1038 1039
f 1072 1071 1038
f 1073 1039 1040
f 1073 1072 1039
f 1074 1040 1041
f 1074 1073 1040
f 1075 1041 1042
f 1075 1074 1041
f 1076 1042 1043
f 1076 1075 1042
f 1077 1043 1044
f 1077 1076 1043
f 1078 1044 1045
f 1078 1077 1044
f 1079 1045 1046
f 1079 1078 1045
f 1080 1046 1047
f 1080 1079 1046
f 1081 1047 1048
f 1081 1080 1047
f 1082 1048 1049
f 1082 1081 1048
f 1083 1049 1050
f 1083 1082 1049
f 1084 1050 1051
f 1084 1083 1050
f 1085 1051 1052
f 1085 1084 1051
f 1086 1052 1053
f 1086 1085 1052
f 1087 1053 1054
f 1087 1086 1053
f 1088 1054 1055
f 1088 1087 1054
f 1089 1055 1056
f 1089 1088 1055
f 1090 1056 1057
f 1090 1089 1056
f 239 1057 1058
f 239 1090 1057
f 233 1058 1059
f 233 239 1058
f 231 1059 1060
f 231 233 1059
f 229 1060 1061
f 229 231 1060
f 225 1061 226
f 225 229 1061
f 1091 935 1062
f 1091 932 935
f 1092 1062 1063
f 1092 1091 1062
f 1093 1063 1064
f 1093 1092 1063
f 1094 1064 1065
f 1094 1093 1064
f 1095 1065 1066
f 1095 1094 1065
f 1096 1066 1067
f 1096 1095 1066
f 1097 1067 1068
f 1097 1096 1067
f 1098 1068 1069
f 1098 1097 1068
f 1099 1069 1070
f 1099 1098 1069
f 1100 1070 1071
f 1100 1099 1070
f 1101 1071 1072
f 1101 1100 1071
f 1102 1072 1073
f 1102 1101 1072
f 1103 1073 1074
f 1103 1102 1073
f 1104 1074 1075
f 1104 1103 1074
f 1105 1075 1076
f 1105 1104 1075
f 1106 1076 1077
f 1106 1105 1076
f 1107 1077 1078
f 1107 1106 1077
f 1108 1078 1079
f 1108 1107 1078
f 1109 1079 1080
f 1109 1108 1079
f 1110 1080 1081
f 1110 1109 1080
f 1111 1081 1082
f 1111 1110 1081
f 1112 1082 1083
f 1112 1111 1082
f 1113 1083 1084
f 1113 1112 1083
f 1114 1084 1085
f 1114 1113 1084
f 1115 1085 1086
f 1115 1114 1085
f 248 1086 1087
f 248 1115 1086
f 247 1087 1088
f 247 248 1087
f 245 1088 1089
f 245 247 1088
f 242 1089 1090
f 242 245 1089
f 238 1090 239
f 238 242 1090
f 930 932 1091
f 1116 1091 1092
f 1116 930 1091
f 1117 1092 1093
f 1117 1116 1092
f 1118 1093 1094
f 1118 1117 1093
f 1119 1094 1095
f 1119 1118 1094
f 1120 1095 1096
f 1120 1119 1095
f 1121 1096 1097
f 1121 1120 1096
f 1122 1097 1098
f 1122 1121 1097
f 1123 1098 1099
f 1123 1122 1098
f 1124 1099 1100
f 1124 1123 1099
f 1125 1100 1101
f 1125 1124 1100
f 1126 1101 1102
f 1126 1125 1101
f 1127 1102 1103
f 1127 1126 1102
f 1128 1103 1104
f 1128 1127 1103
f 1129 1104 1105
f 1129 1128 1104
f 1130 1105 1106
f 1130 1129 1105
f 1131 1106 1107
f 1131 1130 1106
f 1132 1107 1108
f 1132 1131 1107
f 1133 1108 1109
f 1133 1132 1108
f 1134 1109 1110
f 1134 1133 1109
f 1135 1110 1111
f 1135 1134 1110
f 260 1111 1112
f 260 1135 1111
f 257 1112 1113
f 257 260 1112
f 255 1113 1114
f 255 257 1113
f 253 1114 1115
f 253 255 1114
f 249 1115 248
f 249 253 1115
f 1136 930 1116
f 1136 909 930
f 1137 1116 1117
f 1137 1136 1116
f 1138 1117 1118
f 1138 1137 1117
f 1139 1118 1119
f 1139 1138 1118
f 1140 1119 1120
f 1140 1139 1119
f 1141 1120 1121
f 1141 1140 1120
f 1142 1121 1122
f 1142 1141 1121
f 1143 1122 1123
f 1143 1142 1122
f 1144 1123 1124
f 1144 1143 1123
f 1145 1124 1125
f 1145 1144 1124
f 1146 1125 1126
f 1146 1145 1125
f 1147 1126 1127
f 1147 1146 1126
f 1148 1127 1128
f 1148 1147 1127
f 1149 1128 1129
f 1149 1148 1128
f 1150 1129 1130
f 1150 1149 1129
f 1151 1130 1131
f 1151 1150 1130
f 1152 1131 1132
f 1152 1151 1131
f 1153 1132 1133
f 1153 1152 1132
f 1154 1133 1134
f 1154 1153 1133
f 263 1134 1135
f 263 1154 1134
f 259 1135 260
f 259 263 1135
f 1155 909 1136
f 1155 907 909
f 1156 1136 1137
f 1156 1155 1136
f 1157 1137 1138
f 1157 1156 1137
f 1158 1138 1139
f 1158 1157 1138
f 1159 1139 1140
f 1159 1158 1139
f 1160 1140 1141
f 1160 1159 1140
f 1161 1141 1142
f 1161 1160 1141
f 1162 1142 1143
f 1162 1161 1142
f 1163 1143 1144
f 1163 1162 1143
f 1164 1144 1145
f 1164 1163 1144
f 1165 1145 1146
f 1165 1164 1145
f 1166 1146 1147
f 1166 1165 1146
f 1167 1147 1148
f 1167 1166 1147
f 1168 1148 1149
f 1168 1167 1148
f 1169 1149 1150
f 1169 1168 1149
f 1170 1150 1151
f 1170 1169 1150
f 1171 1151 1152
f 1171 1170 1151
f 1172 1152 1153
f 1172 1171 1152
f 1173 1153 1154
f 1173 1172 1153
f 271 1154 263
f 271 1173 1154
f 908 907 1155
f 1174 1155 1156
f 1174 908 1155
f 1175 1156 1157
f 1175 1174 1156
f 1176 1157 1158
f 1176 1175 1157
f 1177 1158 1159
f 1177 1176 1158
f 1178 1159 1160
f 1178 1177 1159
f 1179 1160 1161
f 1179 1178 1160
f 1180 1161 1162
f 1180 1179 1161
f 1181 1162 1163
f 1181 1180 1162
f 1182 1163 1164
f 1182 1181 1163
f 1183 1164 1165
f 1183 1182 1164
f 1184 1165 1166
f 1184 1183 1165
f 1185 1166 1167
f 1185 1184 1166
f 1186 1167 1168
f 1186 1185 1167
f 1187 1168 1169
f 1187 1186 1168
f 1188 1169 1170
f 1188 1187 1169
f 1189 1170 1171
f 1189 1188 1170
f 1190 1171 1172
f 1190 1189 1171
f 1191 1172 1173
f 1191 1190 1172
f 1192 1173 271
f 1192 1191 1173
f 266 1192 271
f 962 908 1174
f 1193 1174 1175
f 1193 962 1174
f 1194 1175 1176
f 1194 1193 1175
f 1195 1176 1177
f 1195 1194 1176
f 1196 1177 1178
f 1196 1195 1177
f 1197 1178 1179
f 1197 1196 1178
f 1198 1179 1180
f 1198 1197 1179
f 1199 1180 1181
f 1199 1198 1180
f 1200 1181 1182
f 1200 1199 1181
f 1201 1182 1183
f 1201 1200 1182
f 1202 1183 1184
f 1202 1201 1183
f 1203 1184 1185
f 1203 1202 1184
f 1204 1185 1186
f 1204 1203 1185
f 1205 1186 1187
f 1205 1204 1186
f 1206 1187 1188
f 1206 1205 1187
f 1207 1188 1189
f 1207 1206 1188
f 1208 1189 1190
f 1208 1207 1189
f 1209 1190 1191
f 1209 1208 1190
f 1210 1191 1192
f 1210 1209 1191
f 1211 1192 266
f 1211 1210 1192
f 274 1211 266
f 961 962 1193
f 1212 1193 1194
f 1212 961 1193
f 1213 1194 1195
f 1213 1212 1194
f 1214 1195 1196
f 1214 1213 1195
f 1215 1196 1197
f 1215 1214 1196
f 1216 1197 1198
f 1216 1215 1197
f 1217 1198 1199
f 1217 1216 1198
f 1218 1199 1200
f 1218 1217 1199
f 1219 1200 1201
f 1219 1218 1200
f 1220 1201 1202
f 1220 1219 1201
f 1221 1202 1203
f 1221 1220 1202
f 1222 1203 1204
f 1222 1221 1203
f 1223 1204 1205
f 1223 1222 1204
f 1224 1205 1206
f 1224 1223 1205
f 1225 1206 1207
f 1225 1224 1206
f 1226 1207 1208
f 1226 1225 1207
f 1227 1208 1209
f 1227 1226 1208
f 1228 1209 1210
f 1228 1227 1209
f 1229 1210 1211
f 1229 1228 1210
f 1230 1211 274
f 1230 1229 1211
f 1231 274 277
f 1231 1230 274
f 282 1231 277
f 1232 961 1212
f 1232 960 961
f 1233 1212 1213
f 1233 1232 1212
f 1234 1213 1214
f 1234 1233 1213
f 1235 1214 1215
f 1235 1234 1214
f 1236 1215 1216
f 1236 1235 1215
f 1237 1216 1217
f 1237 1236 1216
f 1238 1217 1218
f 1238 1237 1217
f 1239 1218 1219
f 1239 1238 1218
f 1240 1219 1220
f 1240 1239 1219
f 1241 1220 1221
f 1241 1240 1220
f 1242 1221 1222
f 1242 1241 1221
f 1243 1222 1223
f 1243 1242 1222
f 1244 1223 1224
f 1244 1243 1223
f 1245 1224 1225
f 1245 1244 1224
f 1246 1225 1226
f 1246 1245 1225
f 1247 1226 1227
f 1247 1246 1226
f 1248 1227 1228
f 1248 1247 1227
f 1249 1228 1229
f 1249 1248 1228
f 1250 1229 1230
f 1250 1249 1229
f 1251 1230 1231
f 1251 1250 1230
f 1252 1231 282
f 1252 1251 1231
f 1253 282 281
f 1253 1252 282
f 1254 281 284
f 1254 1253 281
f 1255 284 286
f 1255 1254 284
f 1256 286 288
f 1256 1255 286
f 291 1256 288
f 959 960 1232
f 1257 1232 1233
f 1257 959 1232
f 1258 1233 1234
f 1258 1257 1233
f 1259 1234 1235
f 1259 1258 1234
f 1260 1235 1236
f 1260 1259 1235
f 1261 1236 1237
f 1261 1260 1236
f 1262 1237 1238
f 1262 1261 1237
f 1263 1238 1239
f 1263 1262 1238
f 1264 1239 1240
f 1264 1263 1239
f 1265 1240 1241
f 1265 1264 1240
f 1266 1241 1242
f 1266 1265 1241
f 1267 1242 1243
f 1267 1266 1242
f 1268 1243 1244
f 1268 1267 1243
f 1269 1244 1245
f 1269 1268 1244
f 1270 1245 1246
f 1270 1269 1245
f 1271 1246 1247
f 1271 1270 1246
f 1272 1247 1248
f 1272 1271 1247
f 1273 1248 1249
f 1273 1272 1248
f 1274 1249 1250
f 1274 1273 1249
f 1275 1250 1251
f 1275 1274 1250
f 1276 1251 1252
f 1276 1275 1251
f 1277 1252 1253
f 1277 1276 1252
f 1278 1253 1254
f 1278 1277 1253
f 1279 1254 1255
f 1279 1278 1254
f 1280 1255 1256
f 1280 1279 1255
f 1281 1256 291
f 1281 1280 1256
f 1282 291 293
f 1282 1281 291
f 1283 293 295
f 1283 1282 293
f 1284 295 297
f 1284 1283 295
f 1285 297 299
f 1285 1284 297
f 305 1285 299
f 958 959 1257
f 1286 1257 1258
f 1286 958 1257
f 1287 1258 1259
f 1287 1286 1258
f 1288 1259 1260
f 1288 1287 1259
f 1289 1260 1261
f 1289 1288 1260
f 1290 1261 1262
f 1290 1289 1261
f 1291 1262 1263
f 1291 1290 1262
f 1292 1263 1264
f 1292 1291 1263
f 1293 1264 1265
f 1293 1292 1264
f 1294 1265 1266
f 1294 1293 1265
f 1295 1266 1267
f 1295 1294 1266
f 1296 1267 1268
f 1296 1295 1267
f 1297 1268 1269
f 1297 1296 1268
f 1298 1269 1270
f 1298 1297 1269
f 1299 1270 1271
f 1299 1298 1270
f 1300 1271 1272
f 1300 1299 1271
f 1301 1272 1273
f 1301 1300 1272
f 1302 1273 1274
f 1302 1301 1273
f 1303 1274 1275
f 1303 1302 1274
f 1304 1275 1276
f 1304 1303 1275
f 1305 1276 1277
f 1305 1304 1276
f 1306 1277 1278
f 1306 1305 1277
f 1307 1278 1279
f 1307 1306 1278
f 1308 1279 1280
f 1308 1307 1279
f 1309 1280 1281
f 1309 1308 1280
f 1310 1281 1282
f 1310 1309 1281
f 1311 1282 1283
f 1311 1310 1282
f 1312 1283 1284
f 1312 1311 1283
f 1313 1284 1285
f 1313 1312 1284
f 1314 1285 305
f 1314 1313 1285
f 1315 305 304
f 1315 1314 305
f 1316 304 307
f 1316 1315 304
f 1317 307 309
f 1317 1316 307
f 1318 309 311
f 1318 1317 309
f 316 1318 311
f 861 958 1286
f 1319 1286 1287
f 1319 861 1286
f 1320 1287 1288
f 1320 1319 1287
f 1321 1288 1289
f 1321 1320 1288
f 1322 1289 1290
f 1322 1321 1289
f 1323 1290 1291
f 1323 1322 1290
f 1324 1291 1292
f 1324 1323 1291
f 1325 1292 1293
f 1325 1324 1292
f 1326 1293 1294
f 1326 1325 1293
f 1327 1294 1295
f 1327 1326 1294
f 1328 1295 1296
f 1328 1327 1295
f 1329 1296 1297
f 1329 1328 1296
f 1330 1297 1298
f 1330 1329 1297
f 1331 1298 1299
f 1331 1330 1298
f 1332 1299 1300
f 1332 1331 1299
f 1333 1300 1301
f 1333 1332 1300
f 1334 1301 1302
f 1334 1333 1301
f 1335 1302 1303
f 1335 1334 1302
f 1336 1303 1304
f 1336 1335 1303
f 1337 1304 1305
f 1337 1336 1304
f 1338 1305 1306
f 1338 1337 1305
f 1339 1306 1307
f 1339 1338 1306
f 1340 1307 1308
f 1340 1339 1307
f 1341 1308 1309
f 1341 1340 1308
f 1342 1309 1310
f 1342 1341 1309
f 1343 1310 1311
f 1343 1342 1310
f 1344 1311 1312
f 1344 1343 1311
f 1345 1312 1313
f 1345 1344 1312
f 1346 1313 1314
f 1346 1345 1313
f 1347 1314 1315
f 1347 1346 1314
f 1348 1315 1316
f 1348 1347 1315
f 1349 1316 1317
f 1349 1348 1316
f 1350 1317 1318
f 1350 1349 1317
f 1351 1318 316
f 1351 1350 1318
f 1352 316 318
f 1352 1351 316
f 1353 318 320
f 1353 1352 318
f 1354 320 322
f 1354 1353 320
f 1355 322 324
f 1355 1354 322
f 329 1355 324
f 836 861 1319
f 836 835 861
f 837 1319 1320
f 837 836 1319
f 838 1320 1321
f 838 837 1320
f 839 1321 1322
f 839 838 1321
f 840 1322 1323
f 840 839 1322
f 841 1323 1324
f 841 840 1323
f 842 1324 1325
f 842 841 1324
f 843 1325 1326
f 843 842 1325
f 844 1326 1327
f 844 843 1326
f 845 1327 1328
f 845 844 1327
f 846 1328 1329
f 846 845 1328
f 847 1329 1330
f 847 846 1329
f 848 1330 1331
f 848 847 1330
f 849 1331 1332
f 849 848 1331
f 850 1332 1333
f 850 849 1332
f 851 1333 1334
f 851 850 1333
f 852 1334 1335
f 852 851 1334
f 853 1335 1336
f 853 852 1335
f 854 1336 1337
f 854 853 1336
f 855 1337 1338
f 855 854 1337
f 1356 1338 1339
f 1356 855 1338
f 1357 1339 1340
f 1357 1356 1339
f 1358 1340 1341
f 1358 1357 1340
f 1359 1341 1342
f 1359 1358 1341
f 1360 1342 1343
f 1360 1359 1342
f 1361 1343 1344
f 1361 1360 1343
f 1362 1344 1345
f 1362 1361 1344
f 1363 1345 1346
f 1363 1362 1345
f 1364 1346 1347
f 1364 1363 1346
f 1365 1347 1348
f 1365 1364 1347
f 1366 1348 1349
f 1366 1365 1348
f 1367 1349 1350
f 1367 1366 1349
f 1368 1350 1351
f 1368 1367 1350
f 1369 1351 1352
f 1369 1368 1351
f 1370 1352 1353
f 1370 1369 1352
f 1371 1353 1354
f 1371 1370 1353
f 1372 1354 1355
f 1372 1371 1354
f 1373 1355 329
f 1373 1372 1355
f 1374 329 328
f 1374 1373 329
f 1375 328 331
f 1375 1374 328
f 1376 331 333
f 1376 1375 331
f 1377 333 334
f 1377 1376 333
f 339 1377 334
f 832 855 1356
f 832 1356 1357
f 832 1357 1358
f 832 1358 1359
f 832 1359 1360
f 832 1360 1361
f 832 1361 1362
f 832 1362 1363
f 832 1363 1364
f 832 1364 1365
f 832 1365 1366
f 832 1366 1367
f 832 1367 1368
f 832 1368 1369
f 832 1369 1370
f 832 1370 1371
f 832 1371 1372
f 832 1372 1373
f 832 1373 1374
f 832 1374 1375
f 832 1375 1376
f 714 1376 1377
f 714 832 1376
f 714 1377 339
f 714 339 338
f 714 338 697
f 714 697 698
f 714 698 699
f 714 699 700
f 714 700 701
f 714 701 702
f 714 702 703
f 714 703 704
f 714 704 705
f 714 705 706
f 714 706 707
f 714 707 708
f 714 708 709
f 714 709 710
f 714 710 711
f 714 711 712
f 714 712 713
f 927 832 714
f 1378 927 714
f 717 1378 714
f 715 717 714
f 716 927 1378
f 716 1378 717
f 720 926 718
f 719 926 720
f 719 722 926
f 1379 41 679
f 1379 33 41
f 1380 679 680
f 1379 679 1380
f 1380 680 681
f 1381 681 748
f 1380 681 1381
f 807 761 762
f 760 761 807
f 779 762 763
f 806 807 762
f 803 806 762
f 779 803 762
f 777 763 764
f 777 779 763
f 774 777 764
f 1382 774 764
f 1382 764 670
f 775 774 1382
f 1381 748 750
f 1383 750 749
f 1381 750 1383
f 792 749 751
f 792 1383 749
f 790 751 752
f 790 792 751
f 754 790 752
f 518 519 523
f 519 522 523
f 795 1383 792
f 1384 791 790
f 754 1384 790
f 753 791 1384
f 753 1384 754
f 796 1383 795
f 796 1381 1383
f 33 794 34
f 963 34 794
f 963 31 34
f 33 797 794
f 1379 797 33
f 1379 796 797
f 823 24 29
f 821 24 823
f 821 25 24
f 822 29 28
f 822 823 29
f 964 28 31
f 964 822 28
f 963 964 31
f 965 25 821
f 965 22 25
f 771 17 20
f 1385 17 771
f 1385 18 17
f 770 20 19
f 770 771 20
f 966 19 22
f 966 770 19
f 965 966 22
f 772 1385 771
f 1386 18 1385
f 1386 14 18
f 1386 1385 772
f 775 772 768
f 1386 772 775
f 1382 670 669
f 1387 669 672
f 1387 1382 669
f 1387 672 14
f 1386 1387 14
f 775 1382 1387
f 1386 775 1387
f 1380 1381 796
f 1379 1380 796
f 757 813 755
f 756 813 757
f 756 759 813
f 563 562 578
f 51 578 562
f 577 563 578
f 55 578 51
f 58 578 55
f 51 562 52
f 159 563 577
f 166 563 159
f 159 577 158
f 579 576 586
f 59 586 576
f 585 579 586
f 61 586 59
f 64 586 61
f 59 576 60
f 154 579 585
f 157 579 154
f 154 585 151
f 587 584 553
f 68 553 584
f 552 587 553
f 72 553 68
f 75 553 72
f 68 584 69
f 118 587 552
f 146 587 118
f 118 552 117
f 554 551 571
f 76 571 551
f 570 554 571
f 78 571 76
f 79 571 78
f 76 551 77
f 113 554 570
f 116 554 113
f 113 570 110
f 103 97 100
f 103 98 97
f 173 561 166
f 162 173 166
f 172 561 173
f 172 558 561
f 47 43 45
f 47 44 43
f 11 569 79
f 4 11 79
f 10 569 11
f 10 567 569
f 354 343 342
f 344 354 342
f 347 349 354
f 344 347 354
f 400 359 358
f 394 358 360
f 400 358 394
f 403 390 359
f 400 403 359
f 409 389 390
f 406 409 390
f 403 406 390
f 379 388 389
f 410 379 389
f 409 410 389
f 381 387 388
f 379 381 388
f 384 386 387
f 381 384 387
f 412 376 379
f 411 412 379
f 410 411 379
f 413 373 376
f 412 413 376
f 415 371 373
f 414 415 373
f 413 414 373
f 417 370 371
f 415 417 371
f 420 369 370
f 417 420 370
f 426 368 369
f 423 426 369
f 420 423 369
f 362 367 368
f 427 362 368
f 426 427 368
f 363 366 367
f 362 363 367
f 364 365 366
f 363 364 366
f 429 361 362
f 428 429 362
f 427 428 362
f 430 360 361
f 429 430 361
f 397 394 360
f 430 397 360
f 440 437 434
f 440 492 437
f 443 491 492
f 440 443 492
f 449 489 491
f 446 449 491
f 443 446 491
f 452 488 489
f 449 452 489
f 455 487 488
f 452 455 488
f 461 486 487
f 458 461 487
f 455 458 487
f 480 485 486
f 462 480 486
f 461 462 486
f 481 484 485
f 480 481 485
f 482 483 484
f 481 482 484
f 464 479 480
f 463 464 480
f 462 463 480
f 465 478 479
f 464 465 479
f 467 477 478
f 466 467 478
f 465 466 478
f 468 476 477
f 467 468 477
f 469 475 476
f 468 469 476
f 471 474 475
f 470 471 475
f 469 470 475
f 472 473 474
f 471 472 474
f 508 495 494
f 497 508 494
f 506 507 508
f 497 506 508
f 502 505 506
f 498 502 506
f 497 498 506
f 502 503 505
f 499 501 502
f 498 499 502
f 517 516 512
f 517 528 516
f 517 527 528
f 525 526 527
f 524 525 527
f 523 524 527
f 518 523 527
f 517 518 527
