# https://github.com/mikedh/trimesh
v -0.00919219 -0.01083028 0.00324935
v -0.00919219 -0.00932084 -0.00013706
v -0.00771808 -0.00905302 -0.00005503
v -0.00771808 -0.00978309 0.00293625
v -0.00918122 -0.01083028 0.00328517
v -0.00919219 -0.01083028 0.01062181
v -0.00919219 -0.00863728 -0.00036236
v -0.00918959 -0.00863728 -0.00036236
v -0.00771808 -0.00863728 -0.00026299
v -0.00771808 -0.00864569 -0.00025953
v -0.00771808 -0.00904966 -0.00006196
v -0.00771808 -0.00984640 0.00328632
v -0.00771808 -0.00985985 0.00401652
v -0.00917371 -0.01083028 0.00401652
v -0.00918050 -0.01083028 0.01058831
v -0.00771808 -0.00984360 0.01058831
v -0.00771808 -0.00983912 0.01060564
v -0.00771808 -0.00958362 0.01111516
v -0.00919219 -0.01058375 0.01089679
v -0.00919219 -0.00790778 -0.00040164
v -0.00771808 -0.00790778 -0.00040164
v -0.00771808 -0.00791842 -0.00040049
v -0.00771808 -0.00986041 0.00912791
v -0.00917357 -0.01083028 0.00985811
v -0.00771808 -0.00986041 0.00985811
v -0.00771808 -0.00943178 0.01119257
v -0.00919219 -0.01014728 0.01118795
v -0.00845925 -0.00717715 -0.00040164
v -0.00919219 -0.00717715 -0.00038662
v -0.00771808 -0.00717715 -0.00040164
v -0.00771808 -0.00863728 0.01140054
v -0.00919219 -0.00937015 0.01137166
v -0.00772919 -0.00644708 -0.00037391
v -0.00845925 -0.00644708 -0.00031152
v -0.00919219 -0.00640674 -0.00018096
v -0.00771808 -0.00644708 -0.00037391
v -0.00771808 -0.00716650 0.01140169
v -0.00919219 -0.00864008 0.01140054
v -0.00771808 -0.00629804 -0.00032770
v -0.00771808 -0.00572766 -0.00014514
v -0.00919219 -0.00638601 -0.00017172
v -0.00845925 -0.00594898 -0.00011048
v -0.00771808 -0.00644708 0.01137628
v -0.00845925 -0.00717715 0.01140054
v -0.00919219 -0.00791002 0.01140054
v -0.00897168 -0.00603022 -0.00005040
v -0.00771808 -0.00566379 -0.00007351
v -0.00919219 -0.00596019 0.00035398
v -0.00771808 -0.00643588 0.01137397
v -0.00845925 -0.00644708 0.01131158
v -0.00918959 -0.00717715 0.01138552
v -0.00919219 -0.00717995 0.01138552
v -0.00771808 -0.00525421 0.00044179
v -0.00771808 -0.00529287 0.00037246
v -0.00788216 -0.00546993 0.00020609
v -0.00919219 -0.00595066 0.00037709
v -0.00812705 -0.00533489 0.00069250
v -0.00771808 -0.00573607 0.01113249
v -0.00771808 -0.00571309 0.01112325
v -0.00845925 -0.00592601 0.01108859
v -0.00919219 -0.00638433 0.01115675
v -0.00919219 -0.00640114 0.01116369
v -0.00919219 -0.00710039 0.01136357
v -0.00771808 -0.00510854 0.00108649
v -0.00919219 -0.00584364 0.00109573
v -0.00771808 -0.00510685 0.00109573
v -0.00771808 -0.00540549 0.01083440
v -0.00899189 -0.00601790 0.01101811
v -0.00919219 -0.00635744 0.01114289
v -0.00919219 -0.00584084 0.00182593
v -0.00771808 -0.00510685 0.00985811
v -0.00771808 -0.00525757 0.01054094
v -0.00919219 -0.00606160 0.01093723
v -0.00919219 -0.00584084 0.00912791
v -0.00919219 -0.00584308 0.00985811
v -0.00812705 -0.00533489 0.01026596
v -0.00771808 -0.00524861 0.01051899
v -0.00919219 -0.00593721 0.01058138
v -0.00919219 -0.00593329 0.01055711
f 1 2 3
f 1 3 4
f 1 4 5
f 1 5 14
f 1 14 24
f 1 24 15
f 1 15 6
f 1 6 19
f 1 19 27
f 1 27 32
f 1 32 38
f 1 38 45
f 1 45 52
f 1 52 63
f 1 63 62
f 1 62 61
f 1 61 69
f 1 69 73
f 1 73 78
f 1 78 79
f 1 79 75
f 1 75 74
f 1 74 70
f 1 70 65
f 1 65 56
f 1 56 48
f 1 48 41
f 1 41 35
f 1 35 29
f 1 29 20
f 1 20 7
f 1 7 2
f 2 7 8
f 2 8 9
f 2 9 10
f 2 10 11
f 2 11 3
f 3 11 10
f 3 10 9
f 3 9 22
f 3 22 21
f 3 21 30
f 3 30 36
f 3 36 39
f 3 39 40
f 3 40 47
f 3 47 54
f 3 54 53
f 3 53 64
f 3 64 66
f 3 66 71
f 3 71 77
f 3 77 72
f 3 72 67
f 3 67 59
f 3 59 58
f 3 58 49
f 3 49 43
f 3 43 37
f 3 37 31
f 3 31 26
f 3 26 18
f 3 18 17
f 3 17 16
f 3 16 25
f 3 25 23
f 3 23 13
f 3 13 12
f 3 12 4
f 4 12 5
f 5 12 13
f 5 13 14
f 6 15 16
f 6 16 17
f 6 17 18
f 6 18 19
f 7 20 21
f 7 21 8
f 8 21 22
f 8 22 9
f 13 23 14
f 14 23 24
f 15 24 25
f 15 25 16
f 18 26 27
f 18 27 19
f 20 28 30
f 20 30 21
f 20 29 28
f 23 25 24
f 26 31 27
f 27 31 32
f 28 29 33
f 28 33 36
f 28 36 30
f 29 34 33
f 29 35 34
f 31 37 38
f 31 38 32
f 33 34 39
f 33 39 36
f 34 35 40
f 34 40 39
f 35 41 42
f 35 42 40
f 37 43 44
f 37 44 45
f 37 45 38
f 40 42 46
f 40 46 47
f 41 48 46
f 41 46 42
f 43 49 50
f 43 50 51
f 43 51 44
f 44 51 45
f 45 51 52
f 46 48 53
f 46 53 54
f 46 54 55
f 46 55 47
f 47 55 54
f 48 56 57
f 48 57 53
f 49 58 50
f 50 58 59
f 50 59 60
f 50 60 61
f 50 61 62
f 50 62 63
f 50 63 51
f 51 63 52
f 53 57 64
f 56 65 57
f 57 65 66
f 57 66 64
f 59 67 68
f 59 68 60
f 60 68 61
f 61 68 69
f 65 70 66
f 66 70 74
f 66 74 71
f 67 72 68
f 68 72 73
f 68 73 69
f 71 74 75
f 71 75 76
f 71 76 77
f 72 77 73
f 73 77 76
f 73 76 78
f 75 79 76
f 76 79 78

