# https://github.com/mikedh/trimesh
v -0.00918959 -0.01536994 0.00109572
v -0.00771808 -0.01536994 0.00109572
v -0.00919219 -0.01536994 0.00182361
v -0.00919219 -0.01536950 0.00109341
v -0.00918959 -0.01524284 0.00036553
v -0.00771808 -0.01524284 0.00036553
v -0.00771808 -0.01536994 0.00985807
v -0.00919219 -0.01536994 0.00985460
v -0.00919219 -0.01524195 0.00036437
v -0.00919219 -0.01498019 -0.00012204
v -0.00771808 -0.01498019 -0.00012204
v -0.00771808 -0.01536861 0.00986847
v -0.00918959 -0.01536994 0.00985807
v -0.00919219 -0.01526240 0.01058480
v -0.00919219 -0.01447934 -0.00032192
v -0.00771808 -0.01448690 -0.00031961
v -0.00771808 -0.01526240 0.01058826
v -0.00918959 -0.01526240 0.01058826
v -0.00919219 -0.01500019 0.01109663
v -0.00919219 -0.01374918 -0.00040164
v -0.00771808 -0.01447934 -0.00032192
v -0.00771808 -0.01499930 0.01109894
v -0.00918959 -0.01499930 0.01109894
v -0.00919219 -0.01448112 0.01132193
v -0.00771808 -0.01374918 -0.00040164
v -0.00919219 -0.01293013 -0.00023295
v -0.00771808 -0.01447934 0.01132193
v -0.00771808 -0.01374918 0.01140165
v -0.00918959 -0.01374918 0.01140165
v -0.00919219 -0.01375184 0.01140049
v -0.00771808 -0.01315011 -0.00020060
v -0.00919219 -0.01287235 -0.00020985
v -0.00845925 -0.01301945 0.01139356
v -0.00918959 -0.01301945 0.01140165
v -0.00771808 -0.01301945 0.01138316
v -0.00919219 -0.01302212 0.01140165
v -0.00919219 -0.01256615 0.00005589
v -0.00919219 -0.01083029 0.00325049
v -0.00771808 -0.01290302 0.00036553
v -0.00919219 -0.01195464 0.01119599
v -0.00771808 -0.01300701 0.01137969
v -0.00918122 -0.01083029 0.00328516
v -0.00919219 -0.01083029 0.01062177
v -0.00771808 -0.01217641 0.00328631
v -0.00771808 -0.01242305 0.01116017
v -0.00917371 -0.01083029 0.00401651
v -0.00771808 -0.01216218 0.00401651
v -0.00771808 -0.01241550 0.01114516
v -0.00771808 -0.01217729 0.01058826
v -0.00918050 -0.01083029 0.01058826
v -0.00917357 -0.01083029 0.00985807
v -0.00771808 -0.01216218 0.00985807
v -0.00771808 -0.01217685 0.01056978
f 1 2 7
f 1 7 13
f 1 13 8
f 1 8 3
f 1 3 4
f 1 4 5
f 1 5 6
f 1 6 2
f 2 6 11
f 2 11 16
f 2 16 21
f 2 21 25
f 2 25 31
f 2 31 39
f 2 39 44
f 2 44 47
f 2 47 52
f 2 52 53
f 2 53 49
f 2 49 48
f 2 48 45
f 2 45 41
f 2 41 35
f 2 35 28
f 2 28 27
f 2 27 22
f 2 22 17
f 2 17 12
f 2 12 7
f 3 8 14
f 3 14 19
f 3 19 24
f 3 24 30
f 3 30 36
f 3 36 40
f 3 40 43
f 3 43 38
f 3 38 37
f 3 37 32
f 3 32 26
f 3 26 20
f 3 20 15
f 3 15 10
f 3 10 9
f 3 9 4
f 4 9 5
f 5 9 10
f 5 10 11
f 5 11 6
f 7 12 13
f 8 13 18
f 8 18 14
f 10 15 16
f 10 16 11
f 12 17 18
f 12 18 13
f 14 18 19
f 15 20 25
f 15 25 21
f 15 21 16
f 17 22 23
f 17 23 18
f 18 23 19
f 19 23 24
f 20 26 25
f 22 27 24
f 22 24 23
f 24 27 28
f 24 28 29
f 24 29 30
f 25 26 31
f 26 32 31
f 28 33 34
f 28 34 36
f 28 36 29
f 28 35 33
f 29 36 30
f 31 32 37
f 31 37 38
f 31 38 39
f 33 35 40
f 33 40 34
f 34 40 36
f 35 41 40
f 38 42 39
f 38 43 50
f 38 50 51
f 38 51 46
f 38 46 42
f 39 42 44
f 40 41 45
f 40 45 43
f 42 46 47
f 42 47 44
f 43 45 48
f 43 48 49
f 43 49 50
f 46 51 47
f 47 51 52
f 49 53 50
f 50 53 52
f 50 52 51

