mtllib material.mtl
usemtl mtl_recessed_latch_handle
v 0.00000000 0.00279400 0.00279400
v 0.00000000 0.00279400 -0.00000000
v -0.03810000 0.00279400 -0.00000000
v 0.00000000 0.00241968 -0.00139699
v -0.00088900 0.00279400 0.00698500
v -0.03721100 0.00279400 0.00698500
v -0.03810000 0.00279400 0.00279400
v -0.03810000 0.00241968 -0.00139699
v -0.01752600 0.00248868 -0.00127000
v -0.02057400 0.00248868 -0.00127000
v 0.00000000 0.00177800 0.00279400
v 0.00171372 0.00279400 0.00768216
v 0.00254000 0.00279400 0.00279400
v 0.00431800 0.00279400 0.01219200
v 0.00496869 0.00279400 0.00327681
v 0.00254000 0.00177800 0.00279400
v 0.00362084 0.00279400 0.00958928
v 0.00279336 0.00279400 0.00851055
v 0.00606606 0.00279400 0.03423704
v 0.00702921 0.00279400 0.00465295
v 0.00496869 0.00177800 0.00327681
v 0.00496869 0.00279400 0.03482319
v 0.00703105 0.00279400 0.03344521
v 0.00782104 0.00279400 0.00561794
v 0.00703105 0.00177800 0.00465479
v 0.00606606 0.00177800 0.00386296
v 0.00840719 0.00279400 0.03138469
v 0.00840719 0.00279400 0.00671531
v 0.00889000 0.00279400 0.02895600
v 0.00889000 0.00279400 0.00914400
v 0.00840719 0.00177800 0.00671531
v 0.00889000 0.00177800 0.00914400
v 0.00889000 0.00177800 0.02895600
v 0.00840719 0.00177800 0.03138469
v 0.00702921 0.00177800 0.03344705
v 0.00782104 0.00177800 0.03248206
v 0.00279245 0.00279400 0.02959036
v 0.00254000 0.00279400 0.03530600
v 0.00496869 0.00177800 0.03482319
v 0.00362084 0.00279400 0.02851072
v 0.00431800 0.00279400 0.02590800
v -0.03721100 0.00279400 0.03111500
v -0.04064000 0.00279400 0.03530600
v 0.00254000 0.00177800 0.03530600
v -0.00088900 0.00279400 0.03111500
v 0.00171372 0.00279400 0.03041784
v -0.04241800 0.00279400 0.02590800
v -0.04306869 0.00279400 0.03482319
v -0.04064000 0.00177800 0.03530600
v -0.04172084 0.00279400 0.02851072
v -0.04089336 0.00279400 0.02958945
v -0.03981372 0.00279400 0.03041784
v -0.04416606 0.00279400 0.00386296
v -0.04512921 0.00279400 0.03344705
v -0.04306869 0.00177800 0.03482319
v -0.04306869 0.00279400 0.00327681
v -0.04513105 0.00279400 0.00465479
v -0.04592104 0.00279400 0.03248206
v -0.04513105 0.00177800 0.03344521
v -0.04416606 0.00177800 0.03423704
v -0.04650719 0.00279400 0.00671531
v -0.04650719 0.00279400 0.03138469
v -0.04699000 0.00279400 0.00914400
v -0.04699000 0.00279400 0.02895600
v -0.04650719 0.00177800 0.03138469
v -0.04699000 0.00177800 0.02895600
v -0.04699000 0.00177800 0.00914400
v -0.04650719 0.00177800 0.00671531
v -0.04512921 0.00177800 0.00465295
v -0.04592104 0.00177800 0.00561794
v -0.04089245 0.00279400 0.00850964
v -0.04064000 0.00279400 0.00279400
v -0.04306869 0.00177800 0.00327681
v -0.04172084 0.00279400 0.00958928
v -0.04241800 0.00279400 0.01219200
v -0.03981372 0.00279400 0.00768216
v -0.04064000 0.00177800 0.00279400
v -0.03810000 0.00177800 -0.00000000
v -0.03810000 0.00177800 0.00279400
v -0.03721100 0.00252176 0.00800100
v 0.00071483 0.00252176 0.00832002
v -0.00088900 0.00252176 0.00800100
v -0.03881483 0.00252176 0.00832002
v -0.04017448 0.00252176 0.00922852
v -0.04108298 0.00252176 0.01058817
v -0.04140200 0.00252176 0.02590800
v -0.04140200 0.00252176 0.01219200
v -0.04108298 0.00252176 0.02751183
v -0.04017448 0.00252176 0.02887148
v -0.03881483 0.00252176 0.02977998
v -0.00088900 0.00252176 0.03009900
v -0.03721100 0.00252176 0.03009900
v 0.00071483 0.00252176 0.02977998
v 0.00207448 0.00252176 0.02887148
v 0.00298298 0.00252176 0.02751183
v 0.00330200 0.00252176 0.01219200
v 0.00330200 0.00252176 0.02590800
v 0.00298298 0.00252176 0.01058817
v 0.00207448 0.00252176 0.00922852
v -0.03810000 0.00139699 -0.00241968
v -0.02057400 0.00075799 -0.00268922
v -0.02057400 0.00000000 -0.00279400
v -0.02057400 0.00000000 -0.00177800
v -0.03810000 -0.00000000 -0.00279400
v -0.02057400 -0.00145912 -0.00238273
v -0.02057400 -0.00124434 -0.00127000
v -0.02057400 -0.00067202 -0.00164611
v -0.02057400 0.00145912 -0.00238273
v -0.02057400 0.00124434 -0.00127000
v -0.02057400 0.00067202 -0.00164611
v -0.02057400 0.00205081 -0.00189753
v -0.01752600 0.00145912 -0.00238273
v -0.01752600 0.00205081 -0.00189753
v -0.01752600 0.00124434 -0.00127000
v 0.00000000 0.00139699 -0.00241968
v -0.01752600 0.00075799 -0.00268922
v 0.00000000 -0.00000000 -0.00279400
v -0.01752600 0.00000000 -0.00279400
v -0.01752600 0.00067202 -0.00164611
v 0.00000000 -0.00136957 -0.00243530
v -0.01752600 0.00000000 -0.00177800
v -0.01752600 -0.00145912 -0.00238273
v 0.00000000 0.00000000 -0.00177800
v 0.00000000 -0.00088900 -0.00153979
v 0.00000000 0.00153979 -0.00088900
v 0.00000000 0.00088900 -0.00153979
v 0.00000000 0.00177800 -0.00000000
v -0.03810000 0.00088900 -0.00153979
v -0.03810000 0.00153979 -0.00088900
v -0.03810000 -0.00136957 -0.00243530
v -0.03810000 -0.00000000 -0.00177800
v -0.02057400 -0.00248868 -0.00127000
v -0.03810000 -0.00241411 -0.00140659
v -0.01752600 -0.00124434 -0.00127000
v -0.01752600 -0.00248868 -0.00127000
v 0.00000000 -0.00279372 -0.00003956
v -0.03810000 -0.00088900 -0.00153979
v -0.03810000 -0.00153979 -0.00088900
v 0.00000000 -0.00153979 -0.00088900
v -0.03810000 -0.00177800 -0.00000000
v 0.00000000 -0.00177800 -0.00000000
v -0.03810000 -0.00153979 0.00088900
v -0.03810000 -0.00136957 0.00243530
v -0.03810000 -0.00239268 0.00144275
v -0.00088900 0.00177800 0.00698500
v -0.03721100 0.00177800 0.00698500
v -0.01752600 -0.00067202 -0.00164611
v 0.00000000 -0.00153979 0.00088900
v 0.00000000 -0.00241411 0.00140659
v 0.00000000 -0.00239268 -0.00144275
v -0.03810000 -0.00088900 0.00153979
v 0.00000000 -0.00088900 0.00153979
v 0.00000000 -0.00136957 0.00243530
v -0.03810000 -0.00000000 0.00177800
v 0.00000000 -0.00000000 0.00177800
v 0.00000000 -0.00000000 0.00279400
v -0.03810000 -0.00000000 0.00279400
v 0.00171372 0.00177800 0.00768216
v -0.03810000 -0.00279372 0.00003956
v 0.00279245 0.00177800 0.00850964
v 0.00431800 0.00177800 0.02590800
v 0.00362084 0.00177800 0.00958928
v 0.00431800 0.00177800 0.01219200
v -0.03981372 0.00177800 0.00768216
v -0.04241800 0.00177800 0.01219200
v -0.04172084 0.00177800 0.00958928
v -0.04089336 0.00177800 0.00851055
v -0.04089245 0.00177800 0.02959036
v -0.04172084 0.00177800 0.02851072
v -0.04241800 0.00177800 0.02590800
v -0.00088900 0.00177800 0.03111500
v -0.03721100 0.00177800 0.03111500
v -0.03981372 0.00177800 0.03041784
v 0.00362084 0.00177800 0.02851072
v 0.00279336 0.00177800 0.02958945
v 0.00171372 0.00177800 0.03041784
v -0.00088900 0.00148042 0.00770342
v -0.03892871 0.00148042 0.00804509
v -0.03721100 0.00148042 0.00770342
v 0.00082871 0.00148042 0.00804509
v 0.00228490 0.00148042 0.00901810
v 0.00325791 0.00148042 0.01047430
v 0.00359958 0.00148042 0.02590800
v 0.00359958 0.00148042 0.01219200
v 0.00325791 0.00148042 0.02762570
v 0.00228490 0.00148042 0.02908191
v 0.00082871 0.00148042 0.03005491
v -0.03721100 0.00148042 0.03039658
v -0.00088900 0.00148042 0.03039658
v -0.03892871 0.00148042 0.03005491
v -0.04038490 0.00148042 0.02908191
v -0.04135791 0.00148042 0.02762570
v -0.04169958 0.00148042 0.01219200
v -0.04169958 0.00148042 0.02590800
v -0.04135791 0.00148042 0.01047430
v -0.04038490 0.00148042 0.00901810
v -0.00088900 0.00076200 0.00800100
v -0.03721100 0.00076200 0.00800100
v -0.03930650 0.00076200 0.00856249
v -0.03721100 0.00000000 0.00800100
v -0.03930622 0.00000000 0.00856233
v -0.00088900 0.00000000 0.00800100
v 0.00120650 0.00076200 0.00856249
v -0.04084051 0.00076200 0.01009650
v -0.04140200 0.00076200 0.01219200
v -0.04140200 0.00000000 0.01219200
v -0.04140200 0.00000000 0.02590800
v -0.04140200 0.00076200 0.02590800
v -0.04017430 0.00000000 0.00922833
v -0.04084067 0.00000000 0.01009678
v -0.04038600 0.00000000 0.01219200
v -0.04084067 0.00000000 0.02800322
v -0.03996065 0.00000000 0.01060454
v -0.03879846 0.00000000 0.00944235
v -0.03721100 0.00000000 0.00901700
v -0.00088900 0.00000000 0.00901700
v 0.00120622 0.00000000 0.00856233
v -0.00088900 0.00000000 0.02908300
v -0.00635000 0.00000000 0.03009900
v -0.00635000 0.00000000 0.02908300
v -0.00635000 -0.00076200 0.02908300
v -0.00088900 0.00076200 0.02908300
v -0.03175000 -0.00076200 0.02908300
v -0.00088900 0.00000000 0.03009900
v -0.03721100 0.00076200 0.03009900
v -0.00635000 -0.00177800 0.02935524
v -0.00635000 -0.00076200 0.03009900
v 0.00069846 0.00000000 0.02865765
v 0.00120622 0.00000000 0.02953767
v -0.00088900 0.00076200 0.03009900
v 0.00186065 0.00000000 0.02749546
v 0.00207430 0.00000000 0.02887166
v 0.00120650 0.00076200 0.02953751
v 0.00228600 0.00000000 0.02590800
v 0.00274067 0.00000000 0.02800322
v 0.00274051 0.00076200 0.02800350
v 0.00330200 0.00000000 0.01219200
v 0.00330200 0.00000000 0.02590800
v 0.00274067 0.00000000 0.01009678
v 0.00330200 0.00076200 0.02590800
v 0.00330200 0.00076200 0.01219200
v 0.00228600 0.00000000 0.01219200
v 0.00207467 0.00000000 0.00922870
v 0.00274051 0.00076200 0.01009650
v 0.00186065 0.00000000 0.01060454
v 0.00069846 0.00000000 0.00944235
v -0.04038600 0.00000000 0.02590800
v -0.04017467 0.00000000 0.02887130
v -0.04084051 0.00076200 0.02800350
v -0.03996065 0.00000000 0.02749546
v -0.03930622 0.00000000 0.02953767
v -0.03930650 0.00076200 0.02953751
v -0.03721100 0.00000000 0.02908300
v -0.03721100 0.00000000 0.03009900
v -0.03879846 0.00000000 0.02865765
v -0.03175000 0.00000000 0.02908300
v -0.03175000 0.00000000 0.03009900
v -0.03175000 -0.00076200 0.03009900
v -0.03175000 -0.00177800 0.02935524
v -0.03175000 -0.00252176 0.03009900
v -0.03721100 0.00076200 0.02908300
v -0.03879850 0.00076200 0.02865763
v -0.03996063 0.00076200 0.02749550
v -0.04038600 0.00076200 0.02590800
v -0.04038600 0.00076200 0.01219200
v -0.03996063 0.00076200 0.01060450
v -0.03879850 0.00076200 0.00944237
v -0.03721100 0.00076200 0.00901700
v -0.00088900 0.00076200 0.00901700
v 0.00069850 0.00076200 0.00944237
v 0.00186063 0.00076200 0.01060450
v 0.00228600 0.00076200 0.01219200
v 0.00228600 0.00076200 0.02590800
v 0.00186063 0.00076200 0.02749550
v 0.00069850 0.00076200 0.02865763
v -0.00635000 -0.00279400 0.03111500
v -0.00635000 -0.00177800 0.03111500
v -0.00635000 -0.00177800 0.03530600
v -0.03175000 -0.00177800 0.03111500
v -0.00635000 -0.00279400 0.03530600
v -0.03175000 -0.00177800 0.03530600
v -0.00635000 -0.00252176 0.03009900
v -0.00635000 -0.00148042 0.03039658
v -0.03175000 -0.00148042 0.03039658
v -0.03175000 -0.00279400 0.03530600
v -0.03175000 -0.00279400 0.03111500
v -0.03721100 0.00177708 0.02935470
v 0.00043000 0.00177708 0.02909234
v -0.00088900 0.00177708 0.02935470
v 0.00255770 0.00177708 0.02590800
v 0.00154819 0.00177708 0.02834519
v 0.00229534 0.00177708 0.02722700
v 0.00229534 0.00177708 0.01087300
v 0.00255770 0.00177708 0.01219200
v -0.00088900 0.00177708 0.00874529
v 0.00154819 0.00177708 0.00975481
v 0.00043000 0.00177708 0.00900766
v -0.03721100 0.00177708 0.00874529
v -0.03853000 0.00177708 0.00900766
v -0.03853000 0.00177708 0.02909234
v -0.04039534 0.00177708 0.02722700
v -0.04065770 0.00177708 0.02590800
v -0.04065770 0.00177708 0.01219200
v -0.03964819 0.00177708 0.02834519
v -0.04039534 0.00177708 0.01087300
v -0.03964819 0.00177708 0.00975481
f 1 2 3
f 4 3 2
f 5 1 3
f 6 3 7
f 8 7 3
f 6 5 3
f 9 10 3
f 8 3 10
f 4 9 3
f 11 2 1
f 11 4 2
f 12 13 1
f 11 1 13
f 12 1 5
f 14 15 13
f 16 13 15
f 17 14 13
f 18 17 13
f 12 18 13
f 16 11 13
f 19 20 15
f 21 15 20
f 22 19 15
f 14 22 15
f 16 15 21
f 23 24 20
f 25 20 24
f 19 23 20
f 26 20 25
f 21 20 26
f 27 28 24
f 25 24 28
f 23 27 24
f 29 30 28
f 31 28 30
f 27 29 28
f 25 28 31
f 32 30 29
f 31 30 32
f 33 29 27
f 32 29 33
f 34 27 23
f 34 33 27
f 35 23 19
f 36 23 35
f 34 23 36
f 35 19 22
f 37 38 22
f 39 22 38
f 40 37 22
f 41 40 22
f 14 41 22
f 35 22 39
f 42 43 38
f 44 38 43
f 45 42 38
f 46 45 38
f 37 46 38
f 39 38 44
f 47 48 43
f 49 43 48
f 50 47 43
f 51 50 43
f 52 51 43
f 42 52 43
f 44 43 49
f 53 54 48
f 55 48 54
f 56 53 48
f 47 56 48
f 49 48 55
f 57 58 54
f 59 54 58
f 53 57 54
f 60 54 59
f 55 54 60
f 61 62 58
f 59 58 62
f 57 61 58
f 63 64 62
f 65 62 64
f 61 63 62
f 59 62 65
f 66 64 63
f 65 64 66
f 67 63 61
f 66 63 67
f 68 61 57
f 67 61 68
f 69 57 53
f 70 57 69
f 68 57 70
f 69 53 56
f 71 72 56
f 73 56 72
f 74 71 56
f 75 74 56
f 47 75 56
f 69 56 73
f 76 7 72
f 77 72 7
f 71 76 72
f 73 72 77
f 76 6 7
f 78 7 8
f 79 7 78
f 77 7 79
f 80 5 6
f 81 12 5
f 80 82 5
f 81 5 82
f 80 6 76
f 83 76 71
f 83 80 76
f 84 71 74
f 83 71 84
f 85 74 75
f 84 74 85
f 86 75 47
f 87 75 86
f 85 75 87
f 86 47 50
f 88 50 51
f 88 86 50
f 89 51 52
f 88 51 89
f 90 52 42
f 89 52 90
f 91 42 45
f 92 42 91
f 90 42 92
f 91 45 46
f 93 46 37
f 93 91 46
f 94 37 40
f 94 93 37
f 95 40 41
f 95 94 40
f 96 41 14
f 97 41 96
f 95 41 97
f 96 14 17
f 98 17 18
f 98 96 17
f 99 18 12
f 99 98 18
f 81 99 12
f 100 101 102
f 103 102 101
f 104 100 102
f 105 104 102
f 106 105 102
f 107 106 102
f 103 107 102
f 100 108 101
f 109 101 108
f 110 101 109
f 110 103 101
f 8 111 108
f 109 108 111
f 100 8 108
f 8 10 111
f 109 111 10
f 109 10 9
f 112 9 113
f 4 113 9
f 114 9 112
f 114 109 9
f 115 112 113
f 4 115 113
f 115 116 112
f 114 112 116
f 117 118 116
f 119 116 118
f 115 117 116
f 114 116 119
f 120 118 117
f 119 118 121
f 122 121 118
f 122 118 120
f 123 117 115
f 124 117 123
f 120 117 124
f 125 115 4
f 126 115 125
f 123 115 126
f 125 4 127
f 11 127 4
f 78 8 100
f 128 100 104
f 129 100 128
f 78 100 129
f 130 104 105
f 128 104 131
f 130 131 104
f 128 110 109
f 129 128 109
f 125 129 109
f 114 125 109
f 106 132 105
f 133 105 132
f 130 105 133
f 134 132 106
f 135 132 134
f 133 132 136
f 135 136 132
f 137 106 107
f 137 138 106
f 134 106 138
f 137 107 103
f 131 103 110
f 131 137 103
f 128 131 110
f 139 138 140
f 133 140 138
f 141 139 140
f 142 141 140
f 143 142 140
f 144 143 140
f 133 144 140
f 130 138 137
f 134 138 139
f 130 133 138
f 130 137 131
f 127 78 129
f 125 127 129
f 79 78 127
f 145 127 11
f 146 79 127
f 145 146 127
f 114 126 125
f 121 123 126
f 119 121 126
f 114 119 126
f 147 124 123
f 121 147 123
f 134 139 124
f 120 124 139
f 147 134 124
f 120 139 141
f 142 148 141
f 149 141 148
f 150 120 141
f 149 150 141
f 122 134 147
f 135 134 122
f 122 147 121
f 151 152 148
f 153 148 152
f 142 151 148
f 153 149 148
f 154 155 152
f 153 152 155
f 151 154 152
f 156 155 154
f 156 153 155
f 157 154 151
f 157 156 154
f 143 151 142
f 143 157 151
f 158 11 16
f 158 145 11
f 122 120 150
f 149 136 150
f 135 150 136
f 135 122 150
f 159 136 149
f 133 136 159
f 144 149 153
f 159 149 144
f 143 153 156
f 144 153 143
f 143 156 157
f 34 32 33
f 34 31 32
f 36 25 31
f 34 36 31
f 35 26 25
f 36 35 25
f 39 21 26
f 35 39 26
f 160 16 21
f 161 21 39
f 162 160 21
f 163 162 21
f 161 163 21
f 160 158 16
f 164 77 79
f 164 79 146
f 165 73 77
f 166 165 77
f 167 166 77
f 164 167 77
f 60 69 73
f 55 60 73
f 165 55 73
f 59 70 69
f 60 59 69
f 65 68 70
f 59 65 70
f 66 67 68
f 65 66 68
f 168 49 55
f 169 168 55
f 170 169 55
f 165 170 55
f 171 44 49
f 172 171 49
f 173 172 49
f 168 173 49
f 161 39 44
f 174 161 44
f 175 174 44
f 176 175 44
f 171 176 44
f 177 146 145
f 178 164 146
f 177 179 146
f 178 146 179
f 177 145 158
f 180 158 160
f 180 177 158
f 181 160 162
f 181 180 160
f 182 162 163
f 182 181 162
f 183 163 161
f 184 163 183
f 182 163 184
f 183 161 174
f 185 174 175
f 185 183 174
f 186 175 176
f 186 185 175
f 187 176 171
f 187 186 176
f 188 171 172
f 188 189 171
f 187 171 189
f 188 172 173
f 190 173 168
f 190 188 173
f 191 168 169
f 190 168 191
f 192 169 170
f 191 169 192
f 193 170 165
f 194 170 193
f 192 170 194
f 193 165 166
f 195 166 167
f 193 166 195
f 196 167 164
f 195 167 196
f 196 164 178
f 133 159 144
f 197 198 179
f 199 179 198
f 177 197 179
f 199 178 179
f 200 198 197
f 201 199 198
f 200 201 198
f 180 197 177
f 202 200 197
f 203 202 197
f 203 197 180
f 199 196 178
f 204 195 196
f 199 204 196
f 205 193 195
f 204 205 195
f 194 193 205
f 206 205 204
f 207 205 206
f 208 205 207
f 194 205 208
f 209 204 199
f 210 206 204
f 209 210 204
f 201 209 199
f 207 206 210
f 211 210 209
f 212 207 210
f 211 212 210
f 213 209 201
f 213 211 209
f 214 201 200
f 214 213 201
f 215 200 202
f 215 214 200
f 216 202 217
f 203 217 202
f 216 215 202
f 218 219 220
f 221 220 219
f 222 218 220
f 223 220 221
f 222 220 223
f 218 224 219
f 225 219 224
f 226 219 227
f 225 227 219
f 226 221 219
f 228 229 224
f 230 224 229
f 218 228 224
f 230 225 224
f 231 232 229
f 233 229 232
f 228 231 229
f 233 230 229
f 234 235 232
f 236 232 235
f 231 234 232
f 233 232 236
f 237 238 235
f 236 235 238
f 239 237 235
f 234 239 235
f 240 238 237
f 236 238 240
f 241 237 239
f 241 240 237
f 242 243 239
f 244 239 243
f 234 242 239
f 244 241 239
f 245 217 243
f 203 243 217
f 242 245 243
f 244 243 203
f 246 216 217
f 245 246 217
f 208 207 212
f 247 248 212
f 249 212 248
f 211 247 212
f 249 208 212
f 250 251 248
f 252 248 251
f 247 250 248
f 249 248 252
f 253 254 251
f 252 251 254
f 255 253 251
f 250 255 251
f 256 257 254
f 225 254 257
f 253 256 254
f 252 254 225
f 258 257 256
f 258 227 257
f 225 257 227
f 222 256 253
f 259 260 256
f 258 256 260
f 223 259 256
f 222 223 256
f 261 253 255
f 261 222 253
f 262 255 250
f 262 261 255
f 263 250 247
f 262 250 263
f 264 247 211
f 263 247 264
f 265 211 213
f 265 264 211
f 266 213 214
f 266 265 213
f 267 214 215
f 266 214 267
f 268 215 216
f 267 215 268
f 269 216 246
f 268 216 269
f 270 246 245
f 270 269 246
f 271 245 242
f 271 270 245
f 272 242 234
f 271 242 272
f 273 234 231
f 272 234 273
f 274 231 228
f 274 273 231
f 275 228 218
f 275 274 228
f 275 218 222
f 276 277 278
f 279 278 277
f 280 276 278
f 281 280 278
f 281 278 279
f 282 283 277
f 279 277 283
f 276 282 277
f 282 227 283
f 284 283 227
f 284 279 283
f 282 226 227
f 284 227 258
f 223 221 226
f 259 226 282
f 223 226 259
f 260 282 276
f 259 282 260
f 285 276 280
f 286 276 285
f 260 276 286
f 285 280 281
f 285 281 279
f 286 285 279
f 284 286 279
f 284 260 286
f 284 258 260
f 287 222 261
f 288 275 222
f 288 222 289
f 287 289 222
f 262 287 261
f 290 273 274
f 290 272 273
f 291 274 275
f 292 290 274
f 292 274 291
f 291 275 288
f 293 271 272
f 293 272 294
f 290 294 272
f 295 269 270
f 295 268 269
f 296 270 271
f 297 295 270
f 297 270 296
f 296 271 293
f 298 268 295
f 299 268 298
f 299 267 268
f 298 295 82
f 297 82 295
f 80 298 82
f 297 81 82
f 83 298 80
f 83 299 298
f 294 96 98
f 97 96 294
f 293 98 99
f 293 294 98
f 296 99 81
f 296 293 99
f 297 296 81
f 290 97 294
f 292 97 290
f 292 95 97
f 289 91 93
f 92 91 289
f 288 93 94
f 288 289 93
f 291 94 95
f 291 288 94
f 292 291 95
f 287 92 289
f 300 92 287
f 90 92 300
f 300 287 262
f 301 263 264
f 302 301 264
f 303 302 264
f 265 303 264
f 304 262 263
f 301 304 263
f 304 300 262
f 90 300 304
f 89 304 301
f 89 90 304
f 88 301 302
f 88 89 301
f 88 302 86
f 87 86 302
f 303 87 302
f 305 87 303
f 85 87 305
f 266 303 265
f 305 303 266
f 306 266 267
f 299 306 267
f 306 305 266
f 85 305 306
f 84 306 299
f 84 85 306
f 83 84 299
f 189 225 230
f 188 225 189
f 190 225 188
f 252 225 190
f 233 189 230
f 233 187 189
f 240 183 185
f 184 183 240
f 236 185 186
f 236 240 185
f 233 186 187
f 233 236 186
f 241 184 240
f 244 184 241
f 244 182 184
f 203 180 181
f 244 181 182
f 244 203 181
f 249 194 208
f 249 192 194
f 249 191 192
f 252 190 191
f 249 252 191

