mtllib material.mtl
usemtl mtl_cabinet_door_1
v 0.00317500 -0.17014703 -0.00500000
v 0.00000000 -0.17014703 -0.00500000
v 0.00000000 -0.00500000 -0.00500000
v 0.00000000 -0.33882961 -0.00353553
v 0.00317500 -0.00500000 -0.00500000
v 0.00000000 -0.00146447 -0.00353553
v 0.00317500 -0.33529407 -0.00500000
v 0.00000000 -0.33529407 -0.00500000
v 0.00317500 -0.00146447 -0.00353553
v 0.00000000 -0.34029406 0.00000000
v 0.00000000 -0.00000000 0.00000000
v 0.00000000 -0.25939408 0.16621935
v 0.00000000 0.00000000 0.16621935
v 0.00317500 -0.00000000 0.00000000
v 0.00000000 -0.34029406 0.16621935
v 0.00000000 -0.27462879 0.14615336
v 0.00000000 -0.25954002 0.16349484
v 0.00000000 -0.25997627 0.16080150
v 0.00000000 -0.27168158 0.16080150
v 0.00000000 -0.27632868 0.15479319
v 0.00000000 -0.27301234 0.15005580
v 0.00000000 -0.27301234 0.14682291
v 0.00000000 -0.27234277 0.14843935
v 0.00000000 -0.34029406 0.33243871
v 0.00000000 -0.00000000 0.33243871
v 0.00317500 -0.00000000 0.16621935
v 0.00000000 -0.27462879 0.18628536
v 0.00000000 -0.25954005 0.16894388
v 0.00000000 -0.25997627 0.17163721
v 0.00000000 -0.27693933 0.17807876
v 0.00000000 -0.28489408 0.18049952
v 0.00000000 -0.27462879 0.18171336
v 0.00000000 -0.27301234 0.18238291
v 0.00000000 -0.27301234 0.18561581
v 0.00000000 -0.27234277 0.18399936
v 0.00000000 -0.33882961 0.33597425
v 0.00000000 -0.00146447 0.33597425
v 0.00317500 -0.00000000 0.33243871
v 0.00000000 -0.17014703 0.33743870
v 0.00000000 -0.00500000 0.33743870
v 0.00317500 -0.00146447 0.33597425
v 0.00000000 -0.33529407 0.33743870
v 0.00317500 -0.00500000 0.33743870
v 0.00317500 -0.17014703 0.33743870
v 0.00317500 -0.33529407 0.33743870
v 0.00317500 -0.33882961 0.33597425
v 0.00000000 -0.30771065 0.16621935
v 0.00317500 -0.34029406 0.33243871
v 0.00000000 -0.29203045 0.17858846
v 0.00000000 -0.29726318 0.17335576
v 0.00000000 -0.30542463 0.16850536
v 0.00000000 -0.27624524 0.18238291
v 0.00000000 -0.27691478 0.18399936
v 0.00000000 -0.27624524 0.18561581
v 0.00000000 -0.30704108 0.16783580
v 0.00317500 -0.34029406 0.16621935
v 0.00000000 -0.29715410 0.15889716
v 0.00000000 -0.29127833 0.15344577
v 0.00000000 -0.27691478 0.14843935
v 0.00000000 -0.30542463 0.16393335
v 0.00000000 -0.27624524 0.14682291
v 0.00000000 -0.30704108 0.16460291
v 0.00317500 -0.34029406 0.00000000
v 0.00317500 -0.33882961 -0.00353553
v 0.00000000 -0.27168158 0.17163721
v 0.00317500 -0.27168158 0.17163721
v 0.00317500 -0.27693933 0.17807876
v 0.00317500 -0.25997627 0.17163721
v 0.00317500 -0.25954002 0.16894387
v 0.00317500 -0.25939408 0.16621935
v 0.00317500 -0.25954005 0.16349483
v 0.00317500 -0.25997627 0.16080150
v 0.00317500 -0.27168158 0.16080150
v 0.00000000 -0.27462879 0.15072535
v 0.00000000 -0.28353098 0.15200439
v 0.00317500 -0.27632868 0.15479319
v 0.00000000 -0.27624524 0.15005580
v 0.00317500 -0.28383338 0.15197863
v 0.00317500 -0.29154834 0.15358433
v 0.00000000 -0.30313864 0.16621935
v 0.00000000 -0.29917425 0.16621935
v 0.00317500 -0.29715410 0.15889715
v 0.00000000 -0.30380821 0.16460291
v 0.00317500 -0.29917425 0.16621935
v 0.00000000 -0.30380821 0.16783580
v 0.00317500 -0.29726318 0.17335576
v 0.00317500 -0.29203045 0.17858846
v 0.00317500 -0.28489408 0.18049952
v 0.00317500 -0.27462879 0.14615336
v 0.00317500 -0.27301234 0.14682291
v 0.00317500 -0.27624524 0.14682291
v 0.00317500 -0.27691478 0.14843935
v 0.00317500 -0.27624524 0.15005580
v 0.00317500 -0.27462879 0.15072535
v 0.00317500 -0.27301234 0.15005580
v 0.00317500 -0.27234277 0.14843935
v 0.00317500 -0.27462879 0.18171336
v 0.00317500 -0.27301234 0.18238291
v 0.00317500 -0.27624524 0.18238291
v 0.00317500 -0.27691478 0.18399936
v 0.00317500 -0.27624524 0.18561581
v 0.00317500 -0.27462879 0.18628536
v 0.00317500 -0.27301234 0.18561581
v 0.00317500 -0.27234277 0.18399936
v 0.00317500 -0.30542463 0.16393335
v 0.00317500 -0.30380821 0.16460291
v 0.00317500 -0.30704108 0.16460291
v 0.00317500 -0.30771065 0.16621935
v 0.00317500 -0.30704108 0.16783580
v 0.00317500 -0.30542463 0.16850536
v 0.00317500 -0.30380821 0.16783580
v 0.00317500 -0.30313864 0.16621935
f 1 2 3
f 4 3 2
f 5 1 3
f 6 5 3
f 4 6 3
f 7 2 1
f 8 4 2
f 7 8 2
f 9 1 5
f 9 7 1
f 9 5 6
f 10 11 6
f 9 6 11
f 4 10 6
f 12 13 11
f 14 11 13
f 10 15 11
f 16 11 15
f 17 12 11
f 18 17 11
f 19 18 11
f 20 19 11
f 21 20 11
f 22 11 16
f 23 21 11
f 22 23 11
f 9 11 14
f 24 25 13
f 26 13 25
f 27 24 13
f 28 29 13
f 30 13 29
f 12 28 13
f 30 31 13
f 32 13 31
f 33 13 32
f 34 27 13
f 35 34 13
f 33 35 13
f 26 14 13
f 36 37 25
f 38 25 37
f 24 36 25
f 26 25 38
f 39 40 37
f 41 37 40
f 42 39 37
f 36 42 37
f 41 38 37
f 43 40 39
f 41 40 43
f 44 39 42
f 44 43 39
f 45 42 36
f 44 42 45
f 46 36 24
f 46 45 36
f 47 15 24
f 48 24 15
f 49 50 24
f 51 24 50
f 31 49 24
f 52 31 24
f 53 52 24
f 54 53 24
f 27 54 24
f 55 47 24
f 51 55 24
f 46 24 48
f 56 15 10
f 57 58 15
f 59 15 58
f 60 57 15
f 61 16 15
f 59 61 15
f 62 60 15
f 47 62 15
f 56 48 15
f 63 10 4
f 56 10 63
f 64 4 8
f 64 63 4
f 64 8 7
f 30 29 65
f 66 65 29
f 67 30 65
f 67 65 66
f 68 29 28
f 66 29 68
f 69 28 12
f 69 68 28
f 70 12 17
f 69 12 70
f 71 17 18
f 70 17 71
f 72 18 19
f 71 18 72
f 73 19 20
f 72 19 73
f 74 75 20
f 76 20 75
f 21 74 20
f 73 20 76
f 77 58 75
f 78 75 58
f 74 77 75
f 76 75 78
f 79 58 57
f 77 59 58
f 78 58 79
f 80 81 57
f 82 57 81
f 83 57 60
f 83 80 57
f 79 57 82
f 51 50 81
f 84 81 50
f 85 51 81
f 80 85 81
f 82 81 84
f 86 50 49
f 84 50 86
f 87 49 31
f 86 49 87
f 88 31 30
f 52 32 31
f 87 31 88
f 88 30 67
f 89 16 61
f 90 22 16
f 90 16 89
f 91 61 59
f 91 89 61
f 92 59 77
f 91 59 92
f 93 77 74
f 92 77 93
f 94 74 21
f 93 74 94
f 95 21 23
f 94 21 95
f 96 23 22
f 95 23 96
f 96 22 90
f 97 32 52
f 98 33 32
f 98 32 97
f 99 52 53
f 99 97 52
f 100 53 54
f 99 53 100
f 101 54 27
f 100 54 101
f 102 27 34
f 101 27 102
f 103 34 35
f 102 34 103
f 104 35 33
f 103 35 104
f 104 33 98
f 105 60 62
f 106 83 60
f 106 60 105
f 107 62 47
f 107 105 62
f 108 47 55
f 107 47 108
f 109 55 51
f 108 55 109
f 110 51 85
f 109 51 110
f 111 85 80
f 110 85 111
f 112 80 83
f 111 80 112
f 112 83 106
f 9 64 7
f 14 63 64
f 108 56 63
f 26 63 14
f 89 63 26
f 79 82 63
f 105 63 82
f 78 79 63
f 93 78 63
f 91 63 89
f 92 93 63
f 91 92 63
f 107 63 105
f 107 108 63
f 9 14 64
f 38 48 56
f 41 46 48
f 41 48 38
f 102 38 56
f 87 88 56
f 100 56 88
f 86 87 56
f 110 86 56
f 101 102 56
f 100 101 56
f 109 110 56
f 108 109 56
f 44 45 46
f 44 46 43
f 41 43 46
f 70 26 38
f 66 68 38
f 69 38 68
f 67 66 38
f 98 67 38
f 69 70 38
f 104 98 38
f 103 104 38
f 102 103 38
f 76 78 26
f 94 26 78
f 72 76 26
f 71 72 26
f 70 71 26
f 90 89 26
f 96 90 26
f 95 96 26
f 94 95 26
f 97 88 67
f 98 97 67
f 99 88 97
f 99 100 88
f 112 84 86
f 111 112 86
f 110 111 86
f 105 82 84
f 106 105 84
f 112 106 84
f 93 94 78
f 72 73 76
