# https://github.com/mikedh/trimesh
v -0.07915949 -0.16497916 0.48831502
v -0.07914595 -0.19827955 0.48831502
v -0.07915949 -0.16497916 0.56686646
v -0.07915949 -0.09837843 0.48831502
v -0.07913241 -0.21643062 0.48831502
v -0.07914595 -0.19827955 0.49569652
v -0.07911887 -0.21828322 0.56686646
v -0.07915949 -0.09837843 0.56686646
v -0.07776477 -0.08172824 0.48831502
v -0.07911887 -0.21828322 0.48831502
v -0.04789346 -0.21828322 0.56686646
v -0.07776477 -0.08172824 0.56686646
v -0.07321502 -0.07567790 0.48831502
v -0.01638369 0.01390483 0.51235102
v -0.01589621 0.01338891 0.50200924
v -0.04203023 -0.21828322 0.48831502
v -0.04207085 -0.21828322 0.49412795
v 0.02090807 -0.19032967 0.56686646
v -0.07553052 -0.07874995 0.56686646
v -0.01558477 0.01289641 0.54057757
v -0.01615349 0.01355304 0.52899784
v -0.06959959 -0.07087042 0.48831502
v -0.00454890 0.02126843 0.51235102
v -0.00454890 0.01641406 0.50127878
v 0.02008207 -0.18986065 0.55457934
v 0.02090807 -0.19032967 0.56568235
v 0.01210645 -0.18796113 0.48831502
v 0.02457766 -0.18270811 0.56686646
v -0.06959959 -0.07087042 0.56686646
v -0.00454890 0.01531189 0.54236912
v -0.00454890 0.02014279 0.52899784
v -0.05448789 -0.06826739 0.48831502
v -0.00454890 0.00154615 0.49776488
v 0.01157836 0.01646096 0.52899784
v 0.01348763 0.01662514 0.51259708
v 0.01210645 0.01488977 0.50211689
v 0.01917482 -0.18355235 0.48831502
v 0.02479432 -0.18003470 0.48831502
v 0.02809831 -0.16952870 0.56686646
v 0.05458439 -0.10773539 0.54878948
v 0.05458439 -0.10773539 0.55510220
v 0.05660199 -0.09837843 0.55784720
v 0.01397511 -0.05081988 0.56686646
v -0.00454890 0.00154615 0.54812822
v 0.02746188 -0.05044466 0.56686646
v 0.00911391 0.01409244 0.54080055
v -0.03702008 -0.06580502 0.48831502
v 0.01210645 0.00154615 0.49897975
v -0.02133967 -0.06721207 0.48831502
v 0.01990603 0.00808899 0.52899784
v 0.02135492 0.01132522 0.50720704
v 0.02135492 0.01132522 0.50312415
v 0.02914096 -0.16497916 0.48831502
v 0.05669678 -0.09980896 0.54419911
v 0.05151060 -0.08172824 0.56686646
v 0.05917477 -0.08172824 0.54565234
v 0.05771235 -0.08172824 0.55921585
v 0.02479432 -0.05032738 0.56686646
v 0.03914772 -0.05536936 0.56686646
v 0.02258715 -0.00152590 0.54100815
v -0.01284950 -0.07856234 0.48831502
v 0.02261422 0.00154615 0.50200924
v 0.02457766 -0.13360177 0.48831502
v 0.05606035 -0.06927576 0.55693220
v 0.05610097 -0.06892402 0.54565234
v 0.05457085 -0.07155053 0.53669459
v 0.02865349 -0.14832898 0.48831502
v 0.05520728 -0.08172824 0.53631014
v 0.05485521 -0.09523600 0.53660232
v 0.04813890 -0.06897092 0.56686646
v 0.04636504 -0.06435106 0.56686646
f 1 2 6
f 1 6 3
f 1 3 8
f 1 8 4
f 1 4 9
f 1 9 13
f 1 13 22
f 1 22 32
f 1 32 47
f 1 47 49
f 1 49 61
f 1 61 63
f 1 63 67
f 1 67 53
f 1 53 38
f 1 38 37
f 1 37 27
f 1 27 16
f 1 16 10
f 1 10 5
f 1 5 2
f 2 5 6
f 3 6 7
f 3 7 11
f 3 11 18
f 3 18 28
f 3 28 39
f 3 39 55
f 3 55 70
f 3 70 71
f 3 71 59
f 3 59 45
f 3 45 58
f 3 58 43
f 3 43 29
f 3 29 19
f 3 19 12
f 3 12 8
f 4 8 12
f 4 12 9
f 5 10 7
f 5 7 6
f 7 10 16
f 7 16 17
f 7 17 11
f 9 12 14
f 9 14 15
f 9 15 13
f 11 17 18
f 12 19 20
f 12 20 21
f 12 21 14
f 13 15 22
f 14 21 23
f 14 23 15
f 15 23 24
f 15 24 22
f 16 25 26
f 16 26 18
f 16 18 17
f 16 27 25
f 18 26 28
f 19 29 20
f 20 30 31
f 20 31 21
f 20 29 30
f 21 31 23
f 22 24 33
f 22 33 32
f 23 31 34
f 23 34 35
f 23 35 36
f 23 36 24
f 24 36 33
f 25 27 37
f 25 37 38
f 25 38 26
f 26 38 28
f 28 38 40
f 28 40 41
f 28 41 42
f 28 42 39
f 29 43 44
f 29 44 30
f 30 44 45
f 30 45 46
f 30 46 31
f 31 46 34
f 32 33 47
f 33 36 48
f 33 48 49
f 33 49 47
f 34 46 50
f 34 50 51
f 34 51 35
f 35 51 52
f 35 52 36
f 36 52 48
f 38 53 54
f 38 54 40
f 39 42 55
f 40 54 41
f 41 54 42
f 42 54 56
f 42 56 57
f 42 57 55
f 43 58 44
f 44 58 45
f 45 59 46
f 46 60 50
f 46 59 60
f 48 61 49
f 48 52 62
f 48 62 63
f 48 63 61
f 50 60 64
f 50 64 51
f 51 64 65
f 51 65 52
f 52 65 66
f 52 66 62
f 53 67 68
f 53 68 69
f 53 69 54
f 54 69 56
f 55 57 70
f 56 69 68
f 56 68 66
f 56 66 65
f 56 65 64
f 56 64 57
f 57 64 70
f 59 71 60
f 60 71 64
f 62 66 67
f 62 67 63
f 64 71 70
f 66 68 67
