# https://github.com/mikedh/trimesh
v -0.07915949 -0.16497866 -0.00390876
v -0.07915949 -0.16497866 0.06273659
v -0.07915949 -0.13167567 -0.03385140
v -0.07911708 -0.21828267 -0.03385140
v -0.07913829 -0.19828166 -0.00390876
v -0.07913829 -0.19828166 0.06273659
v -0.07915949 -0.09834865 0.06273659
v -0.07915949 -0.09834865 -0.03385140
v -0.04813702 -0.21828267 -0.03385140
v -0.07911708 -0.21828267 0.06273659
v -0.07775998 -0.08173321 0.06273659
v -0.07775998 -0.08173321 -0.03385140
v 0.02086307 -0.17410277 -0.01251241
v 0.02293053 -0.17727220 -0.00390876
v 0.02479655 -0.18003344 0.01274078
v 0.01210553 -0.18795701 0.01274078
v -0.04806280 -0.21828267 -0.02055825
v -0.01656322 -0.11501218 -0.03385140
v -0.04796738 -0.21828267 0.06273659
v -0.06959617 -0.07085628 0.06273659
v -0.01642539 0.01397392 0.02939026
v -0.01823839 0.01601482 0.01274078
v -0.01693430 0.01447813 -0.00023091
v -0.07610602 -0.07952420 -0.03385140
v 0.02107512 -0.16497866 -0.01264478
v 0.02543269 -0.16497866 -0.00390876
v -0.01590588 -0.10372708 -0.03385140
v 0.02914351 -0.16497866 0.01274078
v 0.02479655 -0.18003344 0.06273659
v 0.01210553 -0.18795701 0.06273659
v -0.04796738 -0.21828267 0.01274078
v -0.04797798 -0.21828267 -0.00390876
v -0.05453023 -0.06833514 0.06273659
v -0.00454016 0.01327758 0.03940271
v -0.01452757 0.01176491 0.03884485
v -0.00454016 0.01920827 0.02939026
v -0.00415847 0.02403445 0.01230585
v 0.00164102 0.02698779 0.00341856
v -0.00415847 0.01928029 -0.00147890
v -0.06959617 -0.07085628 -0.03385140
v 0.02081006 -0.14831518 -0.01247459
v 0.02478594 -0.04843021 -0.00321854
v -0.01574684 -0.09834865 -0.03385140
v 0.02915411 -0.13167567 0.01274078
v 0.02912230 -0.03176668 0.01274078
v 0.02914351 -0.04843021 0.01274078
v 0.02914351 -0.16497866 0.06269877
v 0.02913291 -0.16500268 0.06273659
v -0.03787394 -0.06816709 0.06273659
v 0.00721785 0.01250924 0.03883542
v -0.02325330 -0.07073622 0.06273659
v 0.00481111 0.02698779 0.00645349
v 0.00164102 0.02698779 0.00645349
v 0.00481111 0.02698779 0.00341856
v 0.01106650 0.01795969 -0.00028764
v -0.00454016 0.00153632 -0.00975165
v -0.05449843 -0.06831117 -0.03385140
v 0.02051320 -0.13914305 -0.01228550
v 0.02476474 -0.03176668 -0.00255675
v -0.01747502 -0.08173321 -0.03385140
v 0.01539226 -0.04843021 -0.01154807
v 0.02834834 -0.03176668 0.02939026
v 0.02464811 -0.01510319 -0.00179093
v 0.02366210 0.00153632 -0.00064692
v 0.02738352 -0.01510319 0.01274078
v 0.02853918 -0.14836317 0.06273659
v 0.01210553 -0.01510319 0.04383690
v 0.02195511 -0.00309779 0.03920413
v 0.00908386 0.01510239 0.02939026
v -0.01535455 -0.08058066 0.06273659
v 0.02198692 0.01224515 0.00721930
v 0.02198692 0.01224515 0.00174508
v 0.01210553 0.00153632 -0.00763387
v -0.02430294 -0.06951166 -0.03385140
v -0.03784214 -0.06771087 -0.03385140
v 0.01210553 -0.01510319 -0.00957203
v 0.02616425 -0.01510319 0.02939026
v 0.02343944 -0.01510319 0.04078306
v 0.02419221 -0.13582954 0.06273659
f 1 2 7
f 1 7 8
f 1 8 3
f 1 3 4
f 1 4 5
f 1 5 6
f 1 6 2
f 2 6 10
f 2 10 19
f 2 19 30
f 2 30 29
f 2 29 48
f 2 48 66
f 2 66 79
f 2 79 70
f 2 70 51
f 2 51 49
f 2 49 33
f 2 33 20
f 2 20 11
f 2 11 7
f 3 8 12
f 3 12 24
f 3 24 40
f 3 40 57
f 3 57 75
f 3 75 74
f 3 74 60
f 3 60 43
f 3 43 27
f 3 27 18
f 3 18 9
f 3 9 4
f 4 9 17
f 4 17 32
f 4 32 31
f 4 31 19
f 4 19 10
f 4 10 6
f 4 6 5
f 7 11 12
f 7 12 8
f 9 13 14
f 9 14 15
f 9 15 16
f 9 16 17
f 9 18 13
f 11 20 21
f 11 21 22
f 11 22 12
f 12 22 23
f 12 23 24
f 13 25 26
f 13 26 14
f 13 18 27
f 13 27 25
f 14 26 28
f 14 28 15
f 15 28 47
f 15 47 29
f 15 29 30
f 15 30 16
f 16 30 19
f 16 19 31
f 16 31 32
f 16 32 17
f 20 33 34
f 20 34 35
f 20 35 21
f 21 35 36
f 21 36 37
f 21 37 22
f 22 37 38
f 22 38 23
f 23 38 39
f 23 39 40
f 23 40 24
f 25 41 42
f 25 42 26
f 25 27 43
f 25 43 41
f 26 44 28
f 26 42 45
f 26 45 46
f 26 46 44
f 28 44 47
f 29 47 48
f 33 49 34
f 34 50 36
f 34 36 35
f 34 49 51
f 34 51 50
f 36 52 53
f 36 53 37
f 36 50 52
f 37 53 38
f 38 53 52
f 38 52 54
f 38 54 39
f 39 54 55
f 39 55 56
f 39 56 40
f 40 56 57
f 41 58 59
f 41 59 42
f 41 43 58
f 42 59 45
f 43 60 61
f 43 61 58
f 44 46 47
f 45 62 47
f 45 47 46
f 45 59 63
f 45 63 64
f 45 64 65
f 45 65 62
f 47 66 48
f 47 62 66
f 50 67 68
f 50 68 69
f 50 69 52
f 50 51 67
f 51 70 67
f 52 69 71
f 52 71 72
f 52 72 54
f 54 72 55
f 55 72 73
f 55 73 56
f 56 73 74
f 56 74 75
f 56 75 57
f 58 61 63
f 58 63 59
f 60 74 73
f 60 73 76
f 60 76 61
f 61 76 73
f 61 73 64
f 61 64 63
f 62 65 77
f 62 77 78
f 62 78 66
f 64 73 72
f 64 72 65
f 65 72 71
f 65 71 77
f 66 78 79
f 67 70 68
f 68 70 79
f 68 79 78
f 68 78 77
f 68 77 71
f 68 71 69
