# https://github.com/mikedh/trimesh
v -0.07879904 -0.21830662 0.06276895
v -0.04796891 -0.21830662 0.06276895
v -0.07911709 -0.21830662 0.07601519
v -0.07911709 -0.21829168 0.06276895
v 0.01211167 -0.18794279 0.06276895
v -0.04469294 -0.21830662 0.12937507
v -0.07911709 -0.21830662 0.39334194
v -0.07912769 -0.21829168 0.45899000
v -0.07913829 -0.19827307 0.06276895
v 0.02479145 -0.18003088 0.06276895
v 0.01211167 -0.18795773 0.39334194
v -0.03989032 -0.21829168 0.48052557
v -0.04796891 -0.21830662 0.39334194
v -0.07912769 -0.21829168 0.48831502
v -0.07914890 -0.19828799 0.46236405
v -0.07915950 -0.16496839 0.06276895
v 0.02913821 -0.16499822 0.06276895
v 0.02914881 -0.16496839 0.07938925
v 0.02914881 -0.16498333 0.39334194
v 0.02479145 -0.18003088 0.48831502
v 0.01917248 -0.18355391 0.48831502
v 0.01211167 -0.18795773 0.48831502
v -0.04202128 -0.21829168 0.48831502
v -0.07914890 -0.19828799 0.48831502
v -0.07915950 -0.16498333 0.39334194
v -0.07915950 -0.09838890 0.06276895
v 0.02853390 -0.14835339 0.06276895
v 0.02865052 -0.14832352 0.48831502
v 0.02914881 -0.16496839 0.39334194
v 0.02914881 -0.16498333 0.48831502
v -0.07915950 -0.16498333 0.48831502
v -0.07776005 -0.08172909 0.06276895
v -0.07915950 -0.09838890 0.48831502
v 0.02419775 -0.13585852 0.06276895
v 0.02457942 -0.13363423 0.48831502
v -0.06959665 -0.07086144 0.06276895
v -0.07776005 -0.08172909 0.39334194
v -0.07776005 -0.08174403 0.48831502
v -0.01535768 -0.08057962 0.06276895
v -0.01285565 -0.07857926 0.48831502
v -0.05451024 -0.06833856 0.06276895
v -0.06959665 -0.07086144 0.39334194
v -0.05448904 -0.06827886 0.48831502
v -0.07321187 -0.07568321 0.48831502
v -0.02324544 -0.07072704 0.06276895
v -0.02135832 -0.06723386 0.48831502
v -0.03786537 -0.06817433 0.06276895
v -0.03701722 -0.06581569 0.48831502
v -0.06959665 -0.07087633 0.48831502
f 1 2 6
f 1 6 13
f 1 13 7
f 1 7 3
f 1 3 4
f 1 4 9
f 1 9 16
f 1 16 26
f 1 26 32
f 1 32 36
f 1 36 41
f 1 41 47
f 1 47 45
f 1 45 39
f 1 39 34
f 1 34 27
f 1 27 17
f 1 17 10
f 1 10 5
f 1 5 2
f 2 5 6
f 3 7 14
f 3 14 8
f 3 8 4
f 4 8 9
f 5 10 11
f 5 11 12
f 5 12 6
f 6 12 13
f 7 13 23
f 7 23 14
f 8 14 24
f 8 24 15
f 8 15 9
f 9 15 16
f 10 17 18
f 10 18 19
f 10 19 30
f 10 30 20
f 10 20 21
f 10 21 11
f 11 21 22
f 11 22 12
f 12 22 23
f 12 23 13
f 14 23 22
f 14 22 21
f 14 21 20
f 14 20 30
f 14 30 28
f 14 28 35
f 14 35 40
f 14 40 46
f 14 46 48
f 14 48 43
f 14 43 49
f 14 49 44
f 14 44 38
f 14 38 33
f 14 33 31
f 14 31 24
f 15 24 31
f 15 31 25
f 15 25 16
f 16 25 31
f 16 31 33
f 16 33 26
f 17 27 18
f 18 27 28
f 18 28 29
f 18 29 30
f 18 30 19
f 26 33 37
f 26 37 32
f 27 34 35
f 27 35 28
f 28 30 29
f 32 37 42
f 32 42 36
f 33 38 37
f 34 39 40
f 34 40 35
f 36 42 43
f 36 43 41
f 37 38 44
f 37 44 42
f 39 45 46
f 39 46 40
f 41 43 48
f 41 48 47
f 42 44 49
f 42 49 43
f 45 47 46
f 46 47 48

