# https://github.com/mikedh/trimesh
v -0.05449649 -1.17248466 -0.08715169
v -0.07098971 -1.16417627 -0.08715169
v -0.07098971 -1.16402722 -0.10380649
v -0.05449649 -1.17222384 -0.10380649
v -0.03784908 -1.17244738 -0.08715169
v -0.05449649 -1.17248466 0.02937071
v -0.07915613 -1.14752226 -0.10380649
v -0.07913146 -1.14752226 -0.12046124
v -0.07098971 -1.16417627 0.32140887
v -0.07535665 -1.15527175 0.32140887
v -0.07905128 -1.14752226 -0.13711598
v -0.07096504 -1.16317033 -0.12046124
v -0.03784908 -1.17218662 -0.10380649
v -0.05449649 -1.17051001 -0.12046124
v -0.02295955 -1.16402722 -0.10380649
v -0.02295955 -1.16413904 -0.08715169
v -0.02988620 -1.16801379 0.32140887
v -0.03784908 -1.17244738 0.32140887
v -0.05449649 -1.17244738 0.32140887
v -0.06216948 -1.16860986 0.32140887
v -0.07915613 -1.13086821 -0.17042558
v -0.07915613 -1.14752226 0.32140887
v -0.07940285 -0.94771118 0.32140887
v -0.07912529 -1.13086821 -0.18708033
v -0.07800271 -1.14752226 -0.15377078
v -0.07088485 -1.16134473 -0.13711598
v -0.03784908 -1.17047274 -0.12046124
v -0.02297805 -1.16317033 -0.12046124
v -0.06983629 -1.15910927 -0.15377078
v -0.06683865 -1.15728367 -0.16737522
v -0.05449649 -1.16682153 -0.13711598
v -0.03784908 -1.16682153 -0.13711598
v -0.01676689 -1.14752226 -0.13711598
v -0.01641531 -1.14752226 -0.12046124
v -0.01639063 -1.14752226 -0.10380649
v -0.01990023 -1.15642673 0.32140887
v -0.02295955 -1.16413904 0.32140887
v -0.07915613 -1.11421420 -0.20373508
v -0.07911912 -0.79190104 0.32140887
v -0.07915613 -0.79190104 -0.23704468
v -0.07915613 -0.79190104 -0.27035423
v -0.07915613 -0.99763602 -0.27035423
v -0.07915613 -1.04759808 -0.25369948
v -0.07915613 -1.08090614 -0.23704468
v -0.07824943 -1.09756015 -0.23704468
v -0.07820626 -1.11421420 -0.22038988
v -0.07774366 -1.13086821 -0.20373508
v -0.06957107 -1.14334943 -0.20373508
v -0.02686389 -1.15728367 -0.16737522
v -0.02459407 -1.15910927 -0.15377078
v -0.02332963 -1.16134473 -0.13711598
v -0.06641922 -1.14074138 -0.21398422
v -0.05449649 -1.14767126 -0.20373508
v -0.05449649 -1.15344615 -0.18708033
v -0.03784908 -1.15344615 -0.18708033
v -0.01803132 -1.14752226 -0.15377078
v -0.01648315 -1.13086821 -0.18708033
v -0.01639063 -1.13086821 -0.17042558
v -0.01639063 -1.14752226 0.32140887
v -0.04813729 -0.79190104 0.32140887
v -0.07851466 -0.79190104 -0.28700898
v -0.07851466 -0.96436521 -0.28700898
v -0.07913763 -1.01429002 -0.27035423
v -0.07914996 -1.06425214 -0.25369948
v -0.07808290 -1.08090614 -0.25369948
v -0.07113774 -1.11454951 -0.23734972
v -0.07075532 -1.13075644 -0.21984085
v -0.03784908 -1.14767126 -0.20373508
v -0.02716612 -1.14074138 -0.21367918
v -0.02456323 -1.14334943 -0.20373508
v -0.02304590 -1.14629274 -0.18708033
v -0.06699902 -1.12513059 -0.23198116
v -0.05449649 -1.11984005 -0.24247423
v -0.05449649 -1.12684442 -0.23417736
v -0.05449649 -1.13515281 -0.22362323
v -0.05449649 -1.14167287 -0.21526531
v -0.01800048 -1.13086821 -0.20373508
v -0.01639063 -1.11421420 -0.20373508
v -0.01639063 -1.13086821 0.32140887
v -0.01688407 -0.79190104 -0.25369948
v -0.07327187 -0.79190104 -0.29445179
v -0.07829878 -0.98101924 -0.28700898
v -0.07906361 -1.03094408 -0.27035423
v -0.07034824 -0.96436521 -0.29853921
v -0.07814458 -1.04759808 -0.27035423
v -0.07425258 -1.06425214 -0.27035423
v -0.06859653 -1.07930408 -0.26992715
v -0.07103905 -1.09744838 -0.25376043
v -0.06705453 -1.10922170 -0.24820883
v -0.03784908 -1.14167287 -0.21508232
v -0.02406979 -1.13019758 -0.21971881
v -0.03784908 -1.12613652 -0.23301826
v -0.03784908 -1.11868507 -0.24137613
v -0.02716612 -1.12419915 -0.23045598
v -0.05449649 -1.11153166 -0.25022208
v -0.03784908 -1.11033941 -0.24930698
v -0.01790796 -1.11421420 -0.22038988
v -0.01639063 -1.06425214 -0.25369948
v -0.01639063 -0.79190104 -0.27035423
v -0.01668670 -0.79190104 -0.25961706
v -0.07034824 -0.79190104 -0.29853921
v -0.07573290 -0.99763602 -0.28700898
v -0.07013236 -0.98101924 -0.29835616
v -0.05449649 -0.96436521 -0.30177256
v -0.06997816 -1.04759808 -0.28206745
v -0.06609232 -1.06425214 -0.27987125
v -0.06683865 -1.09182253 -0.26413156
v -0.06298982 -1.07267225 -0.27871210
v -0.02406979 -1.11361808 -0.23643461
v -0.02716612 -1.09092836 -0.26364348
v -0.02716612 -1.10765692 -0.24704973
v -0.05449649 -1.10177025 -0.25857996
v -0.03784908 -1.09275397 -0.26498562
v -0.03784908 -1.10109963 -0.25766485
v -0.01790796 -1.08090614 -0.25369948
v -0.01790179 -1.04759808 -0.27035423
v -0.01671754 -1.03094408 -0.27035423
v -0.01639680 -1.01429002 -0.27035423
v -0.01639063 -0.99763602 -0.27035423
v -0.01771059 -0.79190104 -0.28700898
v -0.05449649 -0.79190104 -0.30177256
v -0.05449649 -0.98101924 -0.30146752
v -0.06756647 -0.99763602 -0.29707507
v -0.03784908 -0.79190104 -0.30183356
v -0.03784908 -0.96436521 -0.30177256
v -0.06441463 -1.00762097 -0.29573293
v -0.05449649 -1.09346186 -0.26535170
v -0.05449649 -0.99763602 -0.29884424
v -0.05449649 -1.01678630 -0.29378072
v -0.05449649 -1.06425214 -0.28103035
v -0.05449649 -1.07270952 -0.27871210
v -0.05449649 -1.08105519 -0.27364858
v -0.02406979 -1.09692680 -0.25302836
v -0.02941744 -1.07267225 -0.27871210
v -0.02542058 -1.07930408 -0.26968316
v -0.03784908 -1.08105519 -0.27334354
v -0.02078841 -1.06425214 -0.27035423
v -0.02446454 -1.04759808 -0.28206745
v -0.01978303 -0.99763602 -0.28700898
v -0.01791413 -0.98101924 -0.28700898
v -0.01771059 -0.96436521 -0.28700898
v -0.02006059 -0.79190104 -0.29115744
v -0.03784908 -0.98101924 -0.30146752
v -0.02427333 -0.96436521 -0.29853921
v -0.02427333 -0.79190104 -0.29853921
v -0.02447687 -0.98101924 -0.29835616
v -0.03784908 -0.99763602 -0.29884424
v -0.03784908 -1.00844063 -0.29597692
v -0.03784908 -1.06425214 -0.28103035
v -0.03784908 -1.07270952 -0.27871210
v -0.02851691 -1.00762097 -0.29573293
v -0.02735116 -1.06425214 -0.27987125
v -0.02328028 -1.03094408 -0.28432470
v -0.02634578 -0.99763602 -0.29707507
f 1 2 3
f 1 3 4
f 1 4 13
f 1 13 5
f 1 5 18
f 1 18 6
f 1 6 9
f 1 9 2
f 2 7 8
f 2 8 3
f 2 9 10
f 2 10 7
f 3 8 11
f 3 11 12
f 3 12 4
f 4 12 14
f 4 14 27
f 4 27 13
f 5 13 15
f 5 15 16
f 5 16 17
f 5 17 18
f 6 18 19
f 6 19 20
f 6 20 9
f 7 21 8
f 7 10 22
f 7 22 23
f 7 23 21
f 8 21 24
f 8 24 11
f 9 20 19
f 9 19 18
f 9 18 17
f 9 17 37
f 9 37 36
f 9 36 59
f 9 59 79
f 9 79 60
f 9 60 39
f 9 39 23
f 9 23 22
f 9 22 10
f 11 24 25
f 11 25 12
f 12 25 26
f 12 26 14
f 13 27 28
f 13 28 15
f 14 26 29
f 14 29 30
f 14 30 31
f 14 31 32
f 14 32 27
f 15 28 33
f 15 33 34
f 15 34 16
f 16 34 35
f 16 35 36
f 16 36 37
f 16 37 17
f 21 38 24
f 21 23 38
f 23 39 40
f 23 40 41
f 23 41 42
f 23 42 43
f 23 43 44
f 23 44 38
f 24 38 45
f 24 45 46
f 24 46 47
f 24 47 25
f 25 47 48
f 25 48 29
f 25 29 26
f 27 32 49
f 27 49 50
f 27 50 51
f 27 51 28
f 28 51 33
f 29 48 30
f 30 48 52
f 30 52 53
f 30 53 54
f 30 54 31
f 31 54 55
f 31 55 32
f 32 55 49
f 33 51 56
f 33 56 57
f 33 57 34
f 34 57 58
f 34 58 35
f 35 58 78
f 35 78 98
f 35 98 119
f 35 119 99
f 35 99 79
f 35 79 59
f 35 59 36
f 38 44 45
f 39 60 80
f 39 80 100
f 39 100 99
f 39 99 120
f 39 120 142
f 39 142 145
f 39 145 124
f 39 124 121
f 39 121 101
f 39 101 81
f 39 81 61
f 39 61 41
f 39 41 40
f 41 61 62
f 41 62 42
f 42 62 63
f 42 63 64
f 42 64 43
f 43 64 44
f 44 64 45
f 45 64 65
f 45 65 66
f 45 66 46
f 46 66 47
f 47 66 67
f 47 67 48
f 48 67 52
f 49 55 68
f 49 68 69
f 49 69 70
f 49 70 50
f 50 70 71
f 50 71 56
f 50 56 51
f 52 67 72
f 52 72 73
f 52 73 74
f 52 74 75
f 52 75 76
f 52 76 53
f 53 68 55
f 53 55 54
f 53 76 68
f 56 71 77
f 56 77 57
f 57 77 97
f 57 97 78
f 57 78 58
f 60 79 80
f 61 81 62
f 62 82 83
f 62 83 63
f 62 81 84
f 62 84 82
f 63 83 64
f 64 83 85
f 64 85 65
f 65 85 86
f 65 86 87
f 65 87 88
f 65 88 66
f 66 88 89
f 66 89 72
f 66 72 67
f 68 76 90
f 68 90 69
f 69 91 77
f 69 77 70
f 69 90 92
f 69 92 93
f 69 93 94
f 69 94 91
f 70 77 71
f 72 89 73
f 73 93 92
f 73 92 90
f 73 90 74
f 73 89 95
f 73 95 96
f 73 96 93
f 74 90 75
f 75 90 76
f 77 91 97
f 78 97 115
f 78 115 98
f 79 99 100
f 79 100 80
f 81 101 84
f 82 102 85
f 82 85 83
f 82 84 103
f 82 103 102
f 84 104 103
f 84 101 121
f 84 121 104
f 85 102 105
f 85 105 86
f 86 105 106
f 86 106 87
f 87 107 88
f 87 106 108
f 87 108 107
f 88 107 89
f 89 107 95
f 91 94 109
f 91 109 97
f 93 96 110
f 93 110 111
f 93 111 94
f 94 111 109
f 95 107 112
f 95 112 113
f 95 113 114
f 95 114 96
f 96 114 110
f 97 109 115
f 98 115 116
f 98 116 117
f 98 117 118
f 98 118 119
f 99 119 141
f 99 141 120
f 102 103 105
f 103 104 122
f 103 122 123
f 103 123 105
f 104 124 125
f 104 125 143
f 104 143 122
f 104 121 124
f 105 123 106
f 106 123 126
f 106 126 108
f 107 127 112
f 107 108 127
f 108 126 128
f 108 128 129
f 108 129 130
f 108 130 131
f 108 131 132
f 108 132 127
f 109 111 133
f 109 133 115
f 110 114 113
f 110 113 134
f 110 134 135
f 110 135 133
f 110 133 111
f 112 127 113
f 113 127 136
f 113 136 134
f 115 133 135
f 115 135 137
f 115 137 116
f 116 137 138
f 116 138 139
f 116 139 140
f 116 140 117
f 117 140 118
f 118 140 141
f 118 141 119
f 120 141 142
f 122 143 147
f 122 147 128
f 122 128 123
f 123 128 126
f 124 144 125
f 124 145 144
f 125 144 146
f 125 146 143
f 127 132 136
f 128 147 129
f 129 147 148
f 129 148 149
f 129 149 130
f 130 149 150
f 130 150 131
f 131 150 132
f 132 150 134
f 132 134 136
f 134 150 149
f 134 149 148
f 134 148 147
f 134 147 151
f 134 151 152
f 134 152 135
f 135 152 137
f 137 152 138
f 138 153 139
f 138 152 154
f 138 154 146
f 138 146 153
f 139 153 146
f 139 146 140
f 140 146 144
f 140 144 141
f 141 144 142
f 142 144 145
f 143 146 154
f 143 154 147
f 147 154 151
f 151 154 152

