# https://github.com/mikedh/trimesh
v -0.03795514 -1.03913544 0.42907759
v -0.03795514 -1.03803093 0.41711034
v 0.01211249 -1.03165317 0.41243062
v 0.01211249 -1.03293585 0.42907759
v 0.01211249 -1.03135031 0.44572457
v -0.03795514 -1.03705111 0.44572457
v -0.03795514 -1.03746082 0.41243062
v 0.02477479 -1.02714597 0.41243062
v -0.03795514 -1.03373750 0.39699823
v 0.01211249 -1.02695002 0.39578364
v 0.02091530 -1.02297725 0.38690645
v 0.02285165 -1.02483000 0.39578364
v 0.02499948 -1.02771604 0.42907759
v 0.02466905 -1.02693220 0.44572457
v 0.02304331 -1.02500818 0.45947797
v 0.01211249 -1.02620177 0.46194287
v -0.03795514 -1.03213415 0.46301456
v 0.02933480 -1.01431921 0.41243062
v 0.02741167 -1.01431921 0.39578364
v -0.03795514 -1.03341683 0.39590868
v 0.02371078 -1.01380254 0.38047628
v -0.03795514 -1.02684311 0.38111930
v -0.03795514 -1.01394508 0.36470453
v -0.03795514 -1.01312562 0.36366854
v 0.01211249 -1.00881436 0.36793746
v 0.02236922 -1.00790580 0.36884840
v 0.02955950 -1.01431921 0.42907759
v 0.02922906 -1.01431921 0.44572457
v 0.02564714 -1.01592256 0.46397908
v 0.02373722 -1.01102342 0.47903638
v 0.02179426 -1.00724665 0.48859232
v 0.01211249 -1.02238937 0.47028422
v -0.03795514 -1.02557825 0.47603564
v 0.02872680 -0.99766220 0.37913666
v 0.02955950 -0.99766220 0.39578364
v -0.03795514 -0.99634391 0.35011163
v 0.02105408 -0.99001959 0.35371966
v 0.02379009 -0.99641515 0.36297195
v 0.02955950 -0.99766220 0.46237154
v 0.02829723 -0.99766220 0.47903638
v 0.02373722 -0.99766220 0.49214677
v 0.02281861 -0.97762039 0.50606092
v 0.01211249 -0.98836279 0.50347100
v 0.01211249 -0.99766220 0.49693367
v -0.03795514 -0.99440207 0.50672181
v -0.03795514 -0.99766220 0.50422118
v -0.03795514 -1.01061371 0.49427229
v -0.03795514 -1.01184293 0.49330777
v -0.03795514 -1.02062570 0.48232291
v 0.01211249 -1.01590474 0.47903638
v 0.02955950 -0.98100522 0.37913666
v 0.02759010 -0.98100522 0.36247182
v 0.02940749 -0.96434823 0.36247182
v -0.03795514 -0.99586290 0.34975439
v -0.03795514 -0.98114773 0.34307417
v 0.01211249 -0.98100522 0.34945074
v 0.01211249 -0.96434823 0.34446737
v 0.02303009 -0.98100522 0.35175488
v 0.02955950 -0.98100522 0.47903638
v 0.02906384 -0.96434823 0.49568336
v 0.02551496 -0.98230572 0.49711228
v 0.02450383 -0.96434823 0.50786494
v 0.01211249 -0.96434823 0.51166946
v 0.01211249 -0.98004321 0.50707904
v -0.03795514 -0.98073800 0.51309838
v 0.02955950 -0.94770907 0.36247182
v 0.02484749 -0.96434823 0.34939715
v 0.02499948 -0.94770907 0.34880773
v -0.03795514 -0.96434823 0.33823368
v -0.03795514 -0.95786358 0.33730488
v -0.03795514 -0.94770907 0.33609030
v 0.01211249 -0.94770907 0.34314562
v 0.02955950 -0.94770907 0.49568336
v 0.02499948 -0.94770907 0.50865085
v 0.01211249 -0.94770907 0.51322341
v -0.03795514 -0.96434823 0.51702793
v 0.02938107 -0.93106988 0.36247182
v 0.02955950 -0.91441290 0.37913666
v 0.02482105 -0.93106988 0.34945074
v -0.03795514 -0.93106988 0.33841230
v 0.01211249 -0.93106988 0.34464599
v 0.02902419 -0.93106988 0.49568336
v 0.02955950 -0.91441290 0.47903638
v 0.02446418 -0.93106988 0.50781136
v 0.01211249 -0.93106988 0.51159801
v -0.03795514 -0.93327894 0.51726012
v -0.03795514 -0.94770907 0.51856402
v 0.02745132 -0.91441290 0.36247182
v 0.02862106 -0.89775591 0.37913666
v 0.02955950 -0.89775591 0.39578364
v 0.02289130 -0.91441290 0.35187992
v -0.03795514 -0.91525021 0.34287769
v 0.01211249 -0.91441290 0.34962936
v 0.02090869 -0.90555886 0.35382683
v 0.02548192 -0.91323712 0.49702298
v 0.02816506 -0.89775591 0.47903638
v 0.02955950 -0.89775591 0.46237154
v 0.02276574 -0.91801152 0.50600734
v -0.03795514 -0.91485827 0.51299121
v -0.03795514 -0.93106988 0.51690289
v 0.01211249 -0.91580246 0.50697186
v 0.02361826 -0.89910984 0.36307912
v 0.02345965 -0.88172245 0.38065489
v 0.02711428 -0.88109893 0.39578364
v 0.02924228 -0.88109893 0.41243062
v 0.02223043 -0.88769046 0.36902702
v 0.02955950 -0.88109893 0.42907759
v -0.03795514 -0.91427038 0.34318133
v -0.03795514 -0.88268447 0.36404365
v -0.03795514 -0.89971557 0.35012949
v 0.02361166 -0.89775591 0.49191457
v 0.02361166 -0.88473319 0.47903638
v 0.02162904 -0.88834962 0.48843156
v 0.02912993 -0.88109893 0.44572457
v 0.02556783 -0.87965592 0.46372902
v 0.01211249 -0.90748288 0.50322094
v -0.03795514 -0.89775591 0.50388181
v 0.02064434 -0.87263683 0.38722795
v 0.02255426 -0.87087315 0.39578364
v 0.02468227 -0.86852157 0.41243062
v 0.02499948 -0.86788023 0.42907759
v -0.03795514 -0.87397294 0.37520712
v 0.02290452 -0.87060590 0.45906716
v 0.01211249 -0.88004783 0.47903638
v -0.03795514 -0.87277935 0.47903638
v -0.03795514 -0.88384242 0.49298626
v 0.01211249 -0.89775591 0.49645141
v 0.01211249 -0.87329599 0.46983768
v 0.02456992 -0.86871752 0.44572457
v -0.03795514 -0.86918073 0.38179803
v -0.03795514 -0.86317709 0.39505131
v 0.01211249 -0.86907382 0.39578364
v 0.01211249 -0.86417471 0.41243062
v 0.01211249 -0.86296330 0.42907759
v 0.01211249 -0.86472698 0.44572457
v 0.01211249 -0.86950140 0.46151419
v -0.03795514 -0.86364027 0.46249658
v -0.03795514 -0.85854519 0.41243062
v -0.03795514 -0.85713781 0.42907759
v -0.03795514 -0.85877679 0.44265238
v -0.03795514 -0.85929341 0.44572457
v -0.03795514 -0.86360464 0.46237154
f 1 2 3
f 1 3 4
f 1 4 5
f 1 5 6
f 1 6 17
f 1 17 33
f 1 33 49
f 1 49 48
f 1 48 47
f 1 47 46
f 1 46 45
f 1 45 65
f 1 65 76
f 1 76 87
f 1 87 86
f 1 86 100
f 1 100 99
f 1 99 117
f 1 117 126
f 1 126 125
f 1 125 137
f 1 137 142
f 1 142 141
f 1 141 140
f 1 140 139
f 1 139 138
f 1 138 131
f 1 131 130
f 1 130 122
f 1 122 109
f 1 109 110
f 1 110 108
f 1 108 92
f 1 92 80
f 1 80 71
f 1 71 70
f 1 70 69
f 1 69 55
f 1 55 54
f 1 54 36
f 1 36 24
f 1 24 23
f 1 23 22
f 1 22 20
f 1 20 9
f 1 9 7
f 1 7 2
f 2 7 3
f 3 8 4
f 3 7 9
f 3 9 10
f 3 10 11
f 3 11 12
f 3 12 8
f 4 13 14
f 4 14 5
f 4 8 13
f 5 14 15
f 5 15 16
f 5 16 17
f 5 17 6
f 8 18 13
f 8 12 19
f 8 19 18
f 9 20 10
f 10 20 11
f 11 21 12
f 11 20 22
f 11 22 23
f 11 23 24
f 11 24 25
f 11 25 26
f 11 26 21
f 12 21 19
f 13 27 28
f 13 28 14
f 13 18 27
f 14 28 29
f 14 29 15
f 15 29 30
f 15 30 31
f 15 31 32
f 15 32 16
f 16 32 17
f 17 32 33
f 18 19 34
f 18 34 35
f 18 35 27
f 19 21 34
f 21 26 34
f 24 36 37
f 24 37 25
f 25 37 26
f 26 37 38
f 26 38 34
f 27 35 51
f 27 51 66
f 27 66 78
f 27 78 90
f 27 90 107
f 27 107 97
f 27 97 83
f 27 83 73
f 27 73 59
f 27 59 39
f 27 39 28
f 28 39 40
f 28 40 29
f 29 40 30
f 30 40 31
f 31 41 42
f 31 42 43
f 31 43 44
f 31 44 45
f 31 45 46
f 31 46 47
f 31 47 48
f 31 48 49
f 31 49 33
f 31 33 50
f 31 50 32
f 31 40 41
f 32 50 33
f 34 51 35
f 34 38 52
f 34 52 53
f 34 53 51
f 36 54 37
f 37 54 55
f 37 55 56
f 37 56 57
f 37 57 58
f 37 58 38
f 38 58 52
f 39 59 40
f 40 59 60
f 40 60 61
f 40 61 41
f 41 61 42
f 42 62 63
f 42 63 64
f 42 64 43
f 42 61 62
f 43 64 65
f 43 65 45
f 43 45 44
f 51 53 66
f 52 58 67
f 52 67 53
f 53 67 68
f 53 68 66
f 55 69 57
f 55 57 56
f 57 69 70
f 57 70 71
f 57 71 72
f 57 72 67
f 57 67 58
f 59 73 60
f 60 73 74
f 60 74 62
f 60 62 61
f 62 74 75
f 62 75 63
f 63 75 76
f 63 76 65
f 63 65 64
f 66 68 77
f 66 77 78
f 67 72 68
f 68 79 77
f 68 72 79
f 71 80 81
f 71 81 72
f 72 81 79
f 73 82 74
f 73 83 82
f 74 82 84
f 74 84 75
f 75 84 85
f 75 85 86
f 75 86 87
f 75 87 76
f 77 79 88
f 77 88 89
f 77 89 78
f 78 89 90
f 79 81 91
f 79 91 88
f 80 92 81
f 81 93 94
f 81 94 91
f 81 92 93
f 82 95 84
f 82 83 96
f 82 96 95
f 83 97 96
f 84 98 85
f 84 95 98
f 85 99 100
f 85 100 86
f 85 98 101
f 85 101 99
f 88 91 102
f 88 102 89
f 89 103 104
f 89 104 105
f 89 105 90
f 89 102 106
f 89 106 103
f 90 105 107
f 91 94 102
f 92 108 93
f 93 108 94
f 94 109 106
f 94 106 102
f 94 108 110
f 94 110 109
f 95 96 111
f 95 111 98
f 96 112 113
f 96 113 111
f 96 97 114
f 96 114 115
f 96 115 112
f 97 107 114
f 98 111 113
f 98 113 116
f 98 116 101
f 99 101 116
f 99 116 117
f 103 118 119
f 103 119 104
f 103 106 118
f 104 119 120
f 104 120 105
f 105 120 121
f 105 121 107
f 106 109 118
f 107 121 114
f 109 122 118
f 112 115 123
f 112 123 113
f 113 124 125
f 113 125 126
f 113 126 117
f 113 117 127
f 113 127 116
f 113 123 128
f 113 128 124
f 114 121 129
f 114 129 115
f 115 129 123
f 116 127 117
f 118 130 131
f 118 131 132
f 118 132 133
f 118 133 119
f 118 122 130
f 119 133 120
f 120 133 134
f 120 134 121
f 121 134 129
f 123 129 135
f 123 135 136
f 123 136 128
f 124 128 125
f 125 128 137
f 128 136 137
f 129 134 135
f 131 138 133
f 131 133 132
f 133 138 139
f 133 139 134
f 134 139 135
f 135 139 140
f 135 140 141
f 135 141 142
f 135 142 137
f 135 137 136
