# https://github.com/mikedh/trimesh
v -0.03784404 -1.20813339 0.51233503
v -0.05384200 -1.20702805 0.51182227
v -0.06380076 -1.20652692 0.50592552
v -0.06380076 -1.20652692 0.50228493
v -0.03784404 -1.20775019 0.49567033
v -0.02119740 -1.20808917 0.49567033
v -0.02119740 -1.20808917 0.51233503
v -0.02119740 -1.20748491 0.52899973
v -0.03696694 -1.20698383 0.52828186
v -0.04784848 -1.20642378 0.52225693
v -0.07703950 -1.16419900 0.51233503
v -0.07099116 -1.16416952 0.58332663
v -0.07312910 -1.15982173 0.58332663
v -0.07915917 -1.14754489 0.58332663
v -0.03680249 -1.20663010 0.48051827
v -0.07695728 -1.16419900 0.49567033
v -0.07915917 -1.14754489 0.32140887
v -0.07535839 -1.15528242 0.32140887
v -0.07099116 -1.16416952 0.32140887
v -0.05449069 -1.17248183 0.32140887
v -0.03057141 -1.20620267 0.47028871
v -0.02119740 -1.20735229 0.47903127
v -0.01159496 -1.20640904 0.47903127
v -0.01081836 -1.20677751 0.49567033
v -0.01081836 -1.20677751 0.51233503
v -0.01144878 -1.20648269 0.52899973
v -0.01234415 -1.20607006 0.53758846
v -0.02119740 -1.20636482 0.53789611
v -0.03083637 -1.20630586 0.53784483
v -0.05449069 -1.17248183 0.58332663
v -0.06666961 -1.16635073 0.58332663
v -0.07915917 -1.11425138 0.58332663
v -0.07925053 -1.05756849 0.44575315
v -0.07925967 -1.05756849 0.42908845
v -0.07925967 -1.05756849 0.42514020
v -0.07925053 -1.05756849 0.40829603
v -0.07923225 -1.05756849 0.38942647
v -0.07915917 -1.11425138 0.32140887
v -0.03784404 -1.17246709 0.32140887
v -0.02119740 -1.20621746 0.47026307
v -0.01253602 -1.20598161 0.47054509
v -0.00215699 -1.19628393 0.47849287
v -0.00248590 -1.19859781 0.49567033
v -0.00248590 -1.19859781 0.51233503
v -0.00187376 -1.19628393 0.52999961
v 0.00356244 -1.18891487 0.53622964
v -0.02095071 -1.16443480 0.58332663
v -0.03784404 -1.17246709 0.58332663
v -0.05013260 -1.17248183 0.58332663
v -0.07912262 -1.05756849 0.58332663
v -0.07912262 -1.05756849 0.32140887
v -0.02988618 -1.16803091 0.32140887
v -0.02296073 -1.16416952 0.32140887
v 0.00327921 -1.18859063 0.47257049
v 0.00408322 -1.18990229 0.48369738
v 0.00423854 -1.19027076 0.49567033
v 0.00423854 -1.19027076 0.51233503
v 0.00408322 -1.18990229 0.52512839
v 0.00552678 -1.17780229 0.54107522
v 0.00483241 -1.15873113 0.55497102
v 0.00621202 -1.18235639 0.52999961
v 0.01173958 -1.16419900 0.52899973
v -0.01470136 -1.14769225 0.58332663
v -0.04813171 -1.05756849 0.58332663
v -0.04814085 -1.05756849 0.32140887
v -0.01990001 -1.15643199 0.32140887
v 0.01163908 -1.16419900 0.47903127
v 0.00612978 -1.18216477 0.47849287
v -0.01639161 -1.14754489 0.32140887
v 0.00540801 -1.17747805 0.46721215
v 0.00723530 -1.18085310 0.49567033
v 0.00724444 -1.18085310 0.51233503
v 0.00750940 -1.16425791 0.54622846
v 0.01055184 -1.14754489 0.54563879
v 0.00540801 -1.14754489 0.55553505
v -0.01464655 -1.14754489 0.58332663
v 0.01407852 -1.14754489 0.52899973
v 0.01193145 -1.16419900 0.51233503
v -0.02098726 -1.11504727 0.58332663
v 0.00467709 -1.12187103 0.55484282
v 0.00625770 -1.12072146 0.54563879
v 0.00739062 -1.11992557 0.52899973
v -0.04699879 -1.05756849 0.44575315
v -0.02296073 -1.11453145 0.32140887
v -0.04719065 -1.05756849 0.42019207
v 0.00739062 -1.11992557 0.47903127
v 0.00613893 -1.12080985 0.46236657
v 0.01407852 -1.14754489 0.47903127
v 0.01193145 -1.16419900 0.49567033
v -0.01639161 -1.13090553 0.32140887
v 0.00966561 -1.13090553 0.54563879
v 0.00528923 -1.13090553 0.55540686
v -0.01470136 -1.13090553 0.58332663
v 0.01253445 -1.13090553 0.52899973
v -0.01917823 -1.11954241 0.58332663
v 0.01253445 -1.13090553 0.47903127
f 1 2 3
f 1 3 4
f 1 4 5
f 1 5 6
f 1 6 7
f 1 7 8
f 1 8 9
f 1 9 2
f 2 9 10
f 2 10 3
f 3 11 4
f 3 10 12
f 3 12 13
f 3 13 14
f 3 14 11
f 4 15 5
f 4 11 16
f 4 16 17
f 4 17 18
f 4 18 19
f 4 19 20
f 4 20 21
f 4 21 15
f 5 15 21
f 5 21 22
f 5 22 6
f 6 22 23
f 6 23 24
f 6 24 25
f 6 25 7
f 7 25 26
f 7 26 8
f 8 26 27
f 8 27 28
f 8 28 29
f 8 29 9
f 9 29 10
f 10 29 30
f 10 30 31
f 10 31 12
f 11 14 17
f 11 17 16
f 12 31 30
f 12 30 49
f 12 49 48
f 12 48 47
f 12 47 63
f 12 63 76
f 12 76 93
f 12 93 95
f 12 95 79
f 12 79 64
f 12 64 50
f 12 50 32
f 12 32 14
f 12 14 13
f 14 32 33
f 14 33 34
f 14 34 35
f 14 35 17
f 17 35 36
f 17 36 37
f 17 37 38
f 17 38 51
f 17 51 65
f 17 65 84
f 17 84 90
f 17 90 69
f 17 69 66
f 17 66 53
f 17 53 52
f 17 52 39
f 17 39 20
f 17 20 19
f 17 19 18
f 20 39 40
f 20 40 21
f 21 40 22
f 22 40 41
f 22 41 23
f 23 42 43
f 23 43 24
f 23 41 42
f 24 43 44
f 24 44 25
f 25 44 26
f 26 44 45
f 26 45 27
f 27 46 47
f 27 47 48
f 27 48 28
f 27 45 46
f 28 48 49
f 28 49 30
f 28 30 29
f 32 50 33
f 33 50 64
f 33 64 83
f 33 83 85
f 33 85 65
f 33 65 51
f 33 51 37
f 33 37 36
f 33 36 35
f 33 35 34
f 37 51 38
f 39 52 41
f 39 41 40
f 41 52 53
f 41 53 54
f 41 54 42
f 42 54 55
f 42 55 43
f 43 55 56
f 43 56 57
f 43 57 44
f 44 57 58
f 44 58 45
f 45 58 46
f 46 59 60
f 46 60 47
f 46 58 61
f 46 61 62
f 46 62 59
f 47 60 63
f 53 66 54
f 54 67 68
f 54 68 55
f 54 66 69
f 54 69 70
f 54 70 67
f 55 68 67
f 55 67 71
f 55 71 56
f 56 71 72
f 56 72 57
f 57 72 58
f 58 72 61
f 59 73 60
f 59 62 73
f 60 73 74
f 60 74 75
f 60 75 76
f 60 76 63
f 61 72 62
f 62 77 74
f 62 74 73
f 62 72 78
f 62 78 77
f 64 79 80
f 64 80 81
f 64 81 82
f 64 82 83
f 65 85 86
f 65 86 87
f 65 87 84
f 67 70 69
f 67 69 88
f 67 88 89
f 67 89 71
f 69 90 88
f 71 89 72
f 72 89 78
f 74 91 92
f 74 92 75
f 74 77 91
f 75 92 93
f 75 93 76
f 77 78 89
f 77 89 88
f 77 88 96
f 77 96 94
f 77 94 91
f 79 95 80
f 80 92 91
f 80 91 81
f 80 95 93
f 80 93 92
f 81 91 94
f 81 94 82
f 82 94 96
f 82 96 86
f 82 86 83
f 83 86 85
f 84 87 90
f 86 96 87
f 87 96 90
f 88 90 96

