# https://github.com/mikedh/trimesh
v -0.04814385 -0.79188978 0.58332663
v -0.03795514 -0.89774512 0.50387449
v -0.03795514 -0.88385649 0.49297834
v -0.03795514 -0.88284215 0.49172208
v -0.03795514 -0.87280280 0.47903127
v -0.03795514 -0.86364774 0.46249476
v -0.03795514 -0.85927827 0.44575315
v -0.03795514 -0.85878411 0.44267659
v -0.03795514 -0.85714557 0.42908845
v -0.04814385 -0.79188978 0.32140887
v -0.07912282 -0.79188978 0.58332663
v -0.04814385 -1.05756849 0.58332663
v -0.03795514 -0.94768180 0.51853942
v -0.03795514 -0.93324697 0.51725752
v -0.03795514 -0.93103625 0.51689859
v -0.03795514 -0.91485884 0.51297598
v -0.03795514 -0.85855005 0.41244939
v -0.07912282 -0.79188978 0.32140887
v -0.03795514 -0.86317959 0.39506682
v -0.03795514 -0.86918758 0.38181198
v -0.03795514 -0.87397319 0.37519738
v -0.03795514 -0.88268610 0.36404485
v -0.03795514 -0.88377847 0.36314752
v -0.03795514 -0.89972180 0.35012341
v -0.03795514 -0.91428666 0.34317552
v -0.03795514 -0.91524897 0.34289351
v -0.03795514 -0.93103625 0.33843249
v -0.03795514 -0.94768180 0.33609943
v -0.04740660 -0.92682285 0.32140887
v -0.08816634 -0.85555905 0.42908845
v -0.08816634 -0.85600119 0.43454935
v -0.08816634 -0.85730164 0.44575315
v -0.08816634 -0.86336164 0.46449452
v -0.08816634 -0.86793917 0.47572397
v -0.08816634 -0.87360907 0.48369738
v -0.08816634 -0.88190584 0.49487555
v -0.08816634 -0.88302422 0.49574724
v -0.08816634 -0.89319362 0.50305407
v -0.08816634 -0.90123028 0.50869443
v -0.08816634 -0.91251806 0.51328363
v -0.08816634 -0.93103625 0.51871889
v -0.08816634 -0.94302625 0.51997515
v -0.08816634 -0.94768180 0.52033408
v -0.07912282 -1.05756849 0.58332663
v -0.04700358 -1.05756849 0.44575315
v -0.03795514 -1.03912834 0.42908845
v -0.03795514 -1.03704763 0.44575315
v -0.03795514 -1.03213201 0.46300752
v -0.03795514 -1.02557780 0.47603162
v -0.03795514 -1.02063618 0.48231293
v -0.03795514 -1.01184522 0.49331163
v -0.03795514 -1.01062284 0.49426024
v -0.03795514 -0.99439338 0.50672031
v -0.03795514 -0.98073884 0.51310417
v -0.03795514 -0.96435337 0.51702678
v -0.08816634 -0.89985184 0.34696994
v -0.08816634 -0.89883749 0.34773908
v -0.08816634 -0.88117760 0.36255785
v -0.08816634 -0.88044935 0.36350646
v -0.08816634 -0.86931764 0.37955584
v -0.08816634 -0.86416793 0.38986231
v -0.08816634 -0.86185314 0.39463098
v -0.08816634 -0.86055271 0.39891253
v -0.08816634 -0.85691149 0.41244939
v -0.07939806 -0.94768180 0.32140887
v -0.08816634 -0.94768180 0.33499700
v -0.08816634 -0.93103625 0.33679165
v -0.04740660 -0.96435337 0.32140887
v -0.04732797 -0.94768180 0.32140887
v -0.04732797 -0.94487287 0.32140887
v -0.03795514 -0.95785120 0.33730442
v -0.04814385 -1.05756849 0.32140887
v -0.08816634 -0.96435337 0.51884708
v -0.08816634 -0.98307962 0.51333491
v -0.08816634 -0.99764448 0.50618191
v -0.08816634 -1.01371787 0.49510629
v -0.08816634 -1.01460216 0.49402950
v -0.08816634 -1.02510963 0.47903127
v -0.08816634 -1.03228805 0.46508420
v -0.08816634 -1.03244410 0.46469963
v -0.08816634 -1.03868617 0.44575315
v -0.08816634 -1.04068886 0.42908845
v -0.07925553 -1.05756849 0.44575315
v -0.04719526 -1.05756849 0.42019207
v -0.03795514 -1.03800994 0.41711551
v -0.07912282 -1.05756849 0.32140887
v -0.08816634 -0.95509429 0.33558667
v -0.03795514 -0.96435337 0.33825302
v -0.03795514 -0.98115498 0.34309861
v -0.03795514 -0.98167515 0.34332935
v -0.03795514 -0.99584988 0.34976449
v -0.03795514 -0.99634406 0.35012341
v -0.03795514 -1.01311966 0.36368593
v -0.03795514 -1.02682624 0.38111976
v -0.03795514 -1.02706030 0.38163252
v -0.03795514 -1.03340640 0.39591288
v -0.03795514 -1.03371854 0.39698968
v -0.03795514 -1.03746379 0.41244939
v -0.08816634 -1.04027270 0.42267895
v -0.07923095 -1.05756849 0.38942647
v -0.07925553 -1.05756849 0.40829603
v -0.08816634 -1.03938841 0.41244939
v -0.08816634 -1.03816603 0.40791146
v -0.08816634 -1.02979118 0.38132486
v -0.08816634 -1.02908900 0.38032498
v -0.08816634 -1.01436805 0.36240403
v -0.08816634 -0.99579786 0.34686739
v -0.08816634 -0.99473150 0.34638027
v -0.08816634 -0.96945106 0.33802228
v -0.08816634 -0.96435337 0.33663783
f 1 2 3
f 1 3 4
f 1 4 5
f 1 5 6
f 1 6 7
f 1 7 8
f 1 8 9
f 1 9 10
f 1 10 18
f 1 18 11
f 1 11 44
f 1 44 12
f 1 12 13
f 1 13 14
f 1 14 15
f 1 15 16
f 1 16 2
f 2 16 15
f 2 15 14
f 2 14 13
f 2 13 55
f 2 55 54
f 2 54 53
f 2 53 52
f 2 52 51
f 2 51 50
f 2 50 49
f 2 49 48
f 2 48 47
f 2 47 46
f 2 46 85
f 2 85 98
f 2 98 97
f 2 97 96
f 2 96 95
f 2 95 94
f 2 94 93
f 2 93 92
f 2 92 91
f 2 91 90
f 2 90 89
f 2 89 88
f 2 88 71
f 2 71 28
f 2 28 27
f 2 27 26
f 2 26 25
f 2 25 24
f 2 24 23
f 2 23 22
f 2 22 21
f 2 21 20
f 2 20 19
f 2 19 17
f 2 17 9
f 2 9 8
f 2 8 7
f 2 7 6
f 2 6 5
f 2 5 4
f 2 4 3
f 9 17 10
f 10 17 19
f 10 19 20
f 10 20 21
f 10 21 22
f 10 22 23
f 10 23 24
f 10 24 25
f 10 25 26
f 10 26 27
f 10 27 28
f 10 28 29
f 10 29 70
f 10 70 69
f 10 69 68
f 10 68 72
f 10 72 86
f 10 86 65
f 10 65 18
f 11 18 30
f 11 30 31
f 11 31 32
f 11 32 33
f 11 33 34
f 11 34 35
f 11 35 36
f 11 36 37
f 11 37 38
f 11 38 39
f 11 39 40
f 11 40 41
f 11 41 42
f 11 42 43
f 11 43 44
f 12 44 83
f 12 83 101
f 12 101 100
f 12 100 86
f 12 86 72
f 12 72 84
f 12 84 45
f 12 45 46
f 12 46 47
f 12 47 48
f 12 48 49
f 12 49 50
f 12 50 51
f 12 51 52
f 12 52 53
f 12 53 54
f 12 54 55
f 12 55 13
f 18 56 57
f 18 57 58
f 18 58 59
f 18 59 60
f 18 60 61
f 18 61 62
f 18 62 63
f 18 63 64
f 18 64 30
f 18 65 66
f 18 66 67
f 18 67 56
f 28 68 69
f 28 69 70
f 28 70 29
f 28 71 72
f 28 72 68
f 30 64 63
f 30 63 62
f 30 62 61
f 30 61 60
f 30 60 59
f 30 59 58
f 30 58 57
f 30 57 56
f 30 56 67
f 30 67 66
f 30 66 87
f 30 87 110
f 30 110 109
f 30 109 108
f 30 108 107
f 30 107 106
f 30 106 105
f 30 105 104
f 30 104 103
f 30 103 102
f 30 102 99
f 30 99 82
f 30 82 81
f 30 81 80
f 30 80 79
f 30 79 78
f 30 78 77
f 30 77 76
f 30 76 75
f 30 75 74
f 30 74 73
f 30 73 43
f 30 43 42
f 30 42 41
f 30 41 40
f 30 40 39
f 30 39 38
f 30 38 37
f 30 37 36
f 30 36 35
f 30 35 34
f 30 34 33
f 30 33 32
f 30 32 31
f 43 73 44
f 44 73 74
f 44 74 75
f 44 75 76
f 44 76 77
f 44 77 78
f 44 78 79
f 44 79 80
f 44 80 81
f 44 81 82
f 44 82 83
f 45 84 46
f 46 84 72
f 46 72 85
f 65 86 66
f 66 86 87
f 71 88 72
f 72 88 89
f 72 89 90
f 72 90 91
f 72 91 92
f 72 92 93
f 72 93 94
f 72 94 95
f 72 95 96
f 72 96 97
f 72 97 98
f 72 98 85
f 82 99 86
f 82 86 100
f 82 100 101
f 82 101 83
f 86 99 102
f 86 102 103
f 86 103 104
f 86 104 105
f 86 105 106
f 86 106 107
f 86 107 108
f 86 108 109
f 86 109 110
f 86 110 87

