# https://github.com/mikedh/trimesh
v -0.08816635 -1.04069630 0.42907035
v -0.13776478 -1.03324793 0.42907035
v -0.08816635 -1.04029761 0.42268361
v -0.08816635 -1.03868468 0.44572666
v -0.13776478 -1.03139945 0.44572666
v -0.15141493 -1.02801050 0.42907035
v -0.15104564 -1.02728563 0.41243217
v -0.13776478 -1.03192500 0.41243217
v -0.15092478 -1.02706814 0.44572666
v -0.08816635 -1.03940960 0.41243217
v -0.08816635 -1.03257741 0.46428811
v -0.13776478 -1.02619825 0.46211081
v -0.14899778 -1.02500218 0.45947991
v -0.15626264 -1.01430988 0.44572666
v -0.15674607 -1.01430988 0.42907035
v -0.15637678 -1.01430988 0.41243217
v -0.15412078 -1.01430988 0.39577586
v -0.14878964 -1.02482092 0.39577586
v -0.08816635 -1.03815913 0.40789614
v -0.14663436 -1.02297244 0.38692152
v -0.15209978 -1.01592276 0.46396151
v -0.08816635 -1.03243243 0.46470542
v -0.08816635 -1.03228746 0.46508645
v -0.13776478 -1.02248312 0.47043897
v -0.14763478 -1.00724208 0.48860125
v -0.14991764 -1.01102967 0.47903929
v -0.15524878 -0.99765523 0.47903929
v -0.15675278 -0.99765523 0.46238297
v -0.15675278 -0.99765523 0.39577586
v -0.15572549 -0.99765523 0.37913769
v -0.14985721 -1.01380244 0.38048035
v -0.08816635 -1.02978652 0.38133313
v -0.08816635 -1.02907976 0.38031706
v -0.14827264 -1.00791260 0.36886810
v -0.08816635 -1.02512903 0.47903929
v -0.08816635 -1.01459983 0.49402634
v -0.08816635 -1.01372993 0.49509685
v -0.08816635 -0.99765523 0.50618291
v -0.13776478 -0.98823149 0.50344314
v -0.14876950 -0.97759356 0.50605590
v -0.14991764 -0.99765523 0.49217564
v -0.15196550 -0.98228730 0.49712899
v -0.15592692 -0.96434598 0.49569560
v -0.15675278 -0.98100060 0.47903929
v -0.15675278 -0.98100060 0.37913769
v -0.15645736 -0.96434598 0.36248138
v -0.15431549 -0.98100060 0.36248138
v -0.14995121 -0.99640476 0.36297127
v -0.08816635 -1.01438234 0.36240879
v -0.14679550 -0.99002562 0.35371777
v -0.08816635 -0.99580672 0.34687743
v -0.08816635 -0.98306657 0.51333170
v -0.13776478 -0.97991325 0.50705383
v -0.13776478 -0.96434598 0.51168059
v -0.15059579 -0.96434598 0.50785217
v -0.15108593 -0.94770947 0.50861422
v -0.15642379 -0.94770947 0.49569560
v -0.15675278 -0.91440019 0.47903929
v -0.15675278 -0.94770947 0.36248138
v -0.15142163 -0.94770947 0.34851039
v -0.15111950 -0.96434598 0.34925430
v -0.14898436 -0.98100060 0.35175820
v -0.13776478 -0.96434598 0.34439168
v -0.13776478 -0.98100060 0.34938131
v -0.08816635 -0.96945652 0.33800494
v -0.08816635 -0.99471937 0.34636939
v -0.08816635 -0.96434598 0.51884752
v -0.08816635 -0.94770947 0.52035348
v -0.13776478 -0.94770947 0.51316840
v -0.15056221 -0.93105482 0.50779774
v -0.15589336 -0.93105482 0.49569560
v -0.15510108 -0.89774557 0.47903929
v -0.15675278 -0.89774557 0.46238297
v -0.15642379 -0.93105482 0.36248138
v -0.15675278 -0.91440019 0.37913769
v -0.15109264 -0.93105482 0.34930874
v -0.13776478 -0.94770947 0.34286756
v -0.08816635 -0.95510347 0.33559177
v -0.08816635 -0.96434598 0.33662598
v -0.08816635 -0.94305196 0.51999060
v -0.13776478 -0.93105482 0.51153543
v -0.14870906 -0.91802469 0.50600147
v -0.15193192 -0.91324035 0.49705641
v -0.14976993 -0.89774557 0.49195791
v -0.14744007 -0.88835806 0.48841981
v -0.14976993 -0.88471544 0.47903929
v -0.15201921 -0.87964113 0.46370750
v -0.15610150 -0.88110906 0.44572666
v -0.15665207 -0.88110906 0.42907035
v -0.15675278 -0.89774557 0.39577586
v -0.15415435 -0.91440019 0.36248138
v -0.15561135 -0.89774557 0.37913769
v -0.13776478 -0.93105482 0.34444610
v -0.14882321 -0.91440019 0.35188520
v -0.08816635 -0.94770947 0.33499302
v -0.08816635 -0.93105482 0.51870236
v -0.13776478 -0.91572315 0.50699940
v -0.08816635 -0.91266043 0.51333170
v -0.13776478 -0.90740488 0.50331614
v -0.08816635 -0.90122509 0.50870494
v -0.08816635 -0.89317868 0.50304398
v -0.08816635 -0.88301194 0.49575004
v -0.08816635 -0.88190644 0.49487911
v -0.08816635 -0.87362443 0.48370233
v -0.08816635 -0.86795207 0.47571891
v -0.13776478 -0.87335260 0.46964063
v -0.14885678 -0.87059796 0.45904445
v -0.15077035 -0.86862262 0.44572666
v -0.15132093 -0.86769836 0.42907035
v -0.15624249 -0.88110906 0.41243217
v -0.14975650 -0.89912287 0.36308013
v -0.15378507 -0.88110906 0.39577586
v -0.14957521 -0.88172521 0.38066180
v -0.14812492 -0.88768754 0.36903142
v -0.08816635 -0.93105482 0.33678928
v -0.14661421 -0.90557452 0.35382663
v -0.08816635 -0.86334894 0.46448769
v -0.13776478 -0.86951061 0.46131247
v -0.13776478 -0.86450878 0.44572666
v -0.13776478 -0.86278713 0.42907035
v -0.15091136 -0.86840514 0.41243217
v -0.14845393 -0.87088794 0.39577586
v -0.14631207 -0.87264582 0.38724812
v -0.08816635 -0.88118154 0.36255395
v -0.08816635 -0.89883292 0.34774834
v -0.08816635 -0.89986591 0.34696814
v -0.08816635 -0.85729601 0.44572666
v -0.08816635 -0.85600931 0.43451359
v -0.08816635 -0.85555624 0.42907035
v -0.08816635 -0.85691543 0.41243217
v -0.13776478 -0.86420069 0.41243217
v -0.08816635 -0.86055807 0.39889665
v -0.08816635 -0.86184477 0.39461463
v -0.08816635 -0.86416446 0.38986087
v -0.08816635 -0.86931126 0.37955501
v -0.08816635 -0.88043851 0.36351559
f 1 2 3
f 1 3 10
f 1 10 19
f 1 19 32
f 1 32 33
f 1 33 49
f 1 49 51
f 1 51 66
f 1 66 65
f 1 65 79
f 1 79 78
f 1 78 95
f 1 95 115
f 1 115 126
f 1 126 125
f 1 125 124
f 1 124 136
f 1 136 135
f 1 135 134
f 1 134 133
f 1 133 132
f 1 132 130
f 1 130 129
f 1 129 128
f 1 128 127
f 1 127 117
f 1 117 105
f 1 105 104
f 1 104 103
f 1 103 102
f 1 102 101
f 1 101 100
f 1 100 98
f 1 98 96
f 1 96 80
f 1 80 68
f 1 68 67
f 1 67 52
f 1 52 38
f 1 38 37
f 1 37 36
f 1 36 35
f 1 35 23
f 1 23 22
f 1 22 11
f 1 11 4
f 1 4 5
f 1 5 2
f 2 6 7
f 2 7 8
f 2 8 3
f 2 5 9
f 2 9 6
f 3 8 10
f 4 11 12
f 4 12 5
f 5 12 13
f 5 13 9
f 6 9 14
f 6 14 15
f 6 15 16
f 6 16 7
f 7 16 17
f 7 17 18
f 7 18 8
f 8 19 10
f 8 18 20
f 8 20 19
f 9 13 21
f 9 21 14
f 11 22 12
f 12 22 23
f 12 23 24
f 12 24 13
f 13 24 25
f 13 25 26
f 13 26 21
f 14 21 27
f 14 27 28
f 14 28 15
f 15 29 16
f 15 28 29
f 16 29 30
f 16 30 17
f 17 30 31
f 17 31 18
f 18 31 20
f 19 20 32
f 20 33 32
f 20 31 34
f 20 34 33
f 21 26 27
f 23 35 24
f 24 35 36
f 24 36 25
f 25 36 37
f 25 37 38
f 25 38 39
f 25 39 40
f 25 40 41
f 25 41 27
f 25 27 26
f 27 41 42
f 27 42 43
f 27 43 44
f 27 44 28
f 28 44 58
f 28 58 73
f 28 73 90
f 28 90 75
f 28 75 59
f 28 59 45
f 28 45 29
f 29 45 30
f 30 45 46
f 30 46 47
f 30 47 48
f 30 48 34
f 30 34 31
f 33 34 49
f 34 48 50
f 34 50 51
f 34 51 49
f 38 52 39
f 39 52 53
f 39 53 40
f 40 53 54
f 40 54 55
f 40 55 42
f 40 42 41
f 42 55 43
f 43 55 56
f 43 56 57
f 43 57 44
f 44 57 58
f 45 59 46
f 46 59 60
f 46 60 61
f 46 61 47
f 47 61 62
f 47 62 48
f 48 62 50
f 50 62 63
f 50 63 64
f 50 64 65
f 50 65 66
f 50 66 51
f 52 67 54
f 52 54 53
f 54 67 68
f 54 68 69
f 54 69 55
f 55 69 56
f 56 70 71
f 56 71 57
f 56 69 70
f 57 71 58
f 58 71 72
f 58 72 73
f 59 74 60
f 59 75 74
f 60 74 76
f 60 76 77
f 60 77 61
f 61 77 63
f 61 63 62
f 63 77 78
f 63 78 79
f 63 79 65
f 63 65 64
f 68 80 69
f 69 80 81
f 69 81 70
f 70 81 82
f 70 82 83
f 70 83 71
f 71 83 72
f 72 83 84
f 72 84 85
f 72 85 86
f 72 86 87
f 72 87 88
f 72 88 73
f 73 88 89
f 73 89 90
f 74 91 76
f 74 75 92
f 74 92 91
f 75 90 92
f 76 93 77
f 76 91 94
f 76 94 93
f 77 95 78
f 77 93 95
f 80 96 81
f 81 97 82
f 81 96 98
f 81 98 97
f 82 97 99
f 82 99 85
f 82 85 84
f 82 84 83
f 85 99 100
f 85 100 101
f 85 101 102
f 85 102 103
f 85 103 104
f 85 104 105
f 85 105 106
f 85 106 107
f 85 107 86
f 86 107 87
f 87 107 108
f 87 108 88
f 88 108 109
f 88 109 89
f 89 109 110
f 89 110 90
f 90 110 92
f 91 111 94
f 91 92 111
f 92 110 112
f 92 112 113
f 92 113 114
f 92 114 111
f 93 115 95
f 93 94 116
f 93 116 115
f 94 111 116
f 97 98 100
f 97 100 99
f 105 117 118
f 105 118 106
f 106 118 107
f 107 118 119
f 107 119 108
f 108 119 120
f 108 120 109
f 109 120 121
f 109 121 110
f 110 121 112
f 111 114 116
f 112 121 122
f 112 122 113
f 113 122 123
f 113 123 114
f 114 124 125
f 114 125 116
f 114 123 124
f 115 116 126
f 116 125 126
f 117 127 118
f 118 127 119
f 119 127 128
f 119 128 120
f 120 128 129
f 120 129 130
f 120 130 131
f 120 131 121
f 121 131 122
f 122 131 123
f 123 131 132
f 123 132 133
f 123 133 134
f 123 134 135
f 123 135 136
f 123 136 124
f 130 132 131
