# https://github.com/mikedh/trimesh
v -0.07912155 -0.21830665 1.03506346
v -0.07915317 -0.18163674 1.03506346
v -0.04797893 -0.21830665 1.03506346
v -0.07915317 -0.21830665 1.24174366
v -0.07915317 -0.09837599 1.03506346
v -0.03721655 -0.19613762 1.03506346
v -0.02821206 -0.19070725 1.05170441
v -0.01643161 -0.21830665 1.26176031
v -0.07915317 -0.21830665 1.26176031
v -0.07862201 -0.09194611 1.03506346
v -0.07915317 -0.09837599 1.12855349
v -0.03254989 -0.18163674 1.03506346
v -0.02582182 -0.18163674 1.04956826
v -0.01639367 -0.21830665 1.26510961
v -0.01506576 -0.11502519 1.03506346
v -0.07911523 -0.21830665 1.27840126
v -0.07915317 -0.18163674 1.26176031
v -0.07776203 -0.08172685 1.03506346
v -0.07776203 -0.08172685 1.09524518
v -0.07915317 -0.11502519 1.19514370
v -0.07910891 -0.09837599 1.14519444
v -0.01639367 -0.18163674 1.26176031
v -0.01652646 -0.21830665 1.27840126
v -0.01456621 -0.09837599 1.03506346
v -0.07101499 -0.21830665 1.29398734
v -0.07910259 -0.21493507 1.27840126
v -0.07898244 -0.16497266 1.26176031
v -0.07915317 -0.14832352 1.22845200
v -0.07461299 -0.07753472 1.03506346
v -0.07905200 -0.09837599 1.16186179
v -0.07759130 -0.08172685 1.11188613
v -0.06959855 -0.07086611 1.09524518
v -0.07898244 -0.11502519 1.21178470
v -0.01688057 -0.16497266 1.26176031
v -0.01655808 -0.21493507 1.27840126
v -0.01639367 -0.14832352 1.22845200
v -0.01791128 -0.21830665 1.28219888
v -0.01560957 -0.08241311 1.03506346
v -0.01639367 -0.09837599 1.16186179
v -0.01639367 -0.11502519 1.19514370
v -0.05874132 -0.21830665 1.30211001
v -0.07056603 -0.19828590 1.29113913
v -0.07872950 -0.19828590 1.27840126
v -0.07637089 -0.18163674 1.27840126
v -0.07056603 -0.16564398 1.27882323
v -0.07234922 -0.14789088 1.26218228
v -0.07234922 -0.11459255 1.22887397
v -0.06959855 -0.07086611 1.03506346
v -0.07833113 -0.09837599 1.17847639
v -0.07576384 -0.08172685 1.12855349
v -0.06942782 -0.07097053 1.11188613
v -0.05449833 -0.06832993 1.09524518
v -0.05449833 -0.06827027 1.03506346
v -0.06032216 -0.06925491 1.03506346
v -0.06966811 -0.09797318 1.21049244
v -0.07487225 -0.09837599 1.19514370
v -0.06803668 -0.10326933 1.22362587
v -0.02241985 -0.13124169 1.24554133
v -0.02241985 -0.14789088 1.26218228
v -0.02343791 -0.16525610 1.27882323
v -0.01870170 -0.18163674 1.27840126
v -0.01710821 -0.19828590 1.27840126
v -0.01688057 -0.11502519 1.21178470
v -0.02309013 -0.21830665 1.29398734
v -0.01569178 -0.08172685 1.03506346
v -0.01673513 -0.09837599 1.17847639
v -0.05322733 -0.21830665 1.30374513
v -0.04652455 -0.20629717 1.30350774
v -0.05757781 -0.21493507 1.30166169
v -0.06820741 -0.18163674 1.28884476
v -0.06803668 -0.15315714 1.27357513
v -0.06506469 -0.17164127 1.28739422
v -0.06803668 -0.13650795 1.25693418
v -0.06803668 -0.11985881 1.24026682
v -0.07016133 -0.08641129 1.17847639
v -0.06759404 -0.07179104 1.12855349
v -0.05449833 -0.06853878 1.11188613
v -0.04427343 -0.06662920 1.03506346
v -0.06357238 -0.08985746 1.20408395
v -0.06670245 -0.08863414 1.19514370
v -0.05449833 -0.10977381 1.23370011
v -0.05449833 -0.10153877 1.22536645
v -0.05449833 -0.09321415 1.21276046
v -0.02241985 -0.11459255 1.22887397
v -0.02579021 -0.11984387 1.24026682
v -0.02579653 -0.15314221 1.27357513
v -0.02748487 -0.17098484 1.28786895
v -0.02526537 -0.18163674 1.28955677
v -0.02367188 -0.19828590 1.29150834
v -0.01882817 -0.09837599 1.19514370
v -0.02370349 -0.09797318 1.21117810
v -0.02588506 -0.21830665 1.29657181
v -0.02041534 -0.07123909 1.03506346
v -0.01846142 -0.08172685 1.11188613
v -0.02329880 -0.08412873 1.17847639
v -0.01917596 -0.08172685 1.12855349
v -0.05047666 -0.21830665 1.30443079
v -0.03784888 -0.16986594 1.28839639
v -0.05449833 -0.17035829 1.28805353
v -0.04184526 -0.21830665 1.30445719
v -0.04581634 -0.20629717 1.30350774
v -0.05449833 -0.14307214 1.26700841
v -0.05449833 -0.16203367 1.28364937
v -0.05449833 -0.15139671 1.27531571
v -0.05449833 -0.11809838 1.24203376
v -0.06490028 -0.07280551 1.13910245
v -0.05449833 -0.07015002 1.12855349
v -0.03784888 -0.06849406 1.11188613
v -0.02813618 -0.06591311 1.03506346
v -0.03784888 -0.06982181 1.12855349
v -0.03784888 -0.08930551 1.20529710
v -0.03784888 -0.08565044 1.19514370
v -0.03784888 -0.08023498 1.17847639
v -0.03085523 -0.07316355 1.15500498
v -0.03784888 -0.10153877 1.22539281
v -0.03784888 -0.10977381 1.23370011
v -0.03784888 -0.09321415 1.21363075
v -0.02579021 -0.10325439 1.22362587
v -0.03784888 -0.12642300 1.25036746
v -0.03784888 -0.14305725 1.26700841
v -0.03784888 -0.15138182 1.27531571
v -0.03784888 -0.16154137 1.28364937
v -0.03474411 -0.21493507 1.30166169
v -0.03357428 -0.21830665 1.30208366
v -0.02539183 -0.08717214 1.19514370
v -0.02793383 -0.08927568 1.20524434
v -0.02303322 -0.06691269 1.03506346
v -0.02094018 -0.08172685 1.14519444
v -0.02573962 -0.07146283 1.12855349
v -0.02750384 -0.07247730 1.14519444
v -0.02892028 -0.07316355 1.15500498
v -0.02502508 -0.07092576 1.11188613
f 1 2 5
f 1 5 10
f 1 10 18
f 1 18 29
f 1 29 48
f 1 48 54
f 1 54 53
f 1 53 78
f 1 78 109
f 1 109 127
f 1 127 93
f 1 93 65
f 1 65 38
f 1 38 24
f 1 24 15
f 1 15 12
f 1 12 6
f 1 6 3
f 1 3 8
f 1 8 14
f 1 14 23
f 1 23 37
f 1 37 64
f 1 64 92
f 1 92 124
f 1 124 100
f 1 100 97
f 1 97 67
f 1 67 41
f 1 41 25
f 1 25 16
f 1 16 9
f 1 9 4
f 1 4 2
f 2 4 9
f 2 9 17
f 2 17 28
f 2 28 20
f 2 20 11
f 2 11 5
f 3 6 7
f 3 7 8
f 5 11 10
f 6 12 13
f 6 13 7
f 7 13 8
f 8 13 15
f 8 15 14
f 9 16 17
f 10 11 19
f 10 19 18
f 11 20 21
f 11 21 19
f 12 15 13
f 14 22 23
f 14 15 24
f 14 24 22
f 16 25 26
f 16 26 17
f 17 26 27
f 17 27 28
f 18 19 29
f 19 21 30
f 19 30 31
f 19 31 32
f 19 32 29
f 20 28 27
f 20 27 33
f 20 33 30
f 20 30 21
f 22 34 35
f 22 35 23
f 22 24 36
f 22 36 34
f 23 35 37
f 24 38 39
f 24 39 40
f 24 40 36
f 25 41 42
f 25 42 43
f 25 43 26
f 26 43 27
f 27 43 44
f 27 44 45
f 27 45 46
f 27 46 47
f 27 47 33
f 29 32 48
f 30 33 49
f 30 49 31
f 31 50 51
f 31 51 32
f 31 49 50
f 32 51 52
f 32 52 53
f 32 53 54
f 32 54 48
f 33 55 56
f 33 56 49
f 33 47 57
f 33 57 55
f 34 58 59
f 34 59 60
f 34 60 61
f 34 61 62
f 34 62 35
f 34 36 40
f 34 40 63
f 34 63 58
f 35 62 37
f 37 62 64
f 38 65 66
f 38 66 39
f 39 66 40
f 40 66 63
f 41 67 68
f 41 68 69
f 41 69 70
f 41 70 42
f 42 70 44
f 42 44 43
f 44 70 45
f 45 71 46
f 45 70 72
f 45 72 71
f 46 71 73
f 46 73 47
f 47 73 74
f 47 74 57
f 49 56 75
f 49 75 50
f 50 76 51
f 50 75 76
f 51 77 52
f 51 76 77
f 52 77 78
f 52 78 53
f 55 79 80
f 55 80 75
f 55 75 56
f 55 57 79
f 57 74 81
f 57 81 82
f 57 82 83
f 57 83 79
f 58 84 85
f 58 85 86
f 58 86 59
f 58 63 84
f 59 86 60
f 60 86 87
f 60 87 88
f 60 88 61
f 61 88 89
f 61 89 62
f 62 89 64
f 63 66 90
f 63 90 91
f 63 91 84
f 64 89 92
f 65 93 94
f 65 94 66
f 66 95 90
f 66 94 96
f 66 96 95
f 67 97 68
f 68 98 99
f 68 99 72
f 68 72 69
f 68 97 100
f 68 100 101
f 68 101 98
f 69 72 70
f 71 102 73
f 71 72 103
f 71 103 104
f 71 104 102
f 72 99 103
f 73 105 81
f 73 81 74
f 73 102 105
f 75 80 106
f 75 106 76
f 76 106 107
f 76 107 77
f 77 108 109
f 77 109 78
f 77 107 110
f 77 110 108
f 79 83 111
f 79 111 112
f 79 112 113
f 79 113 114
f 79 114 106
f 79 106 80
f 81 115 82
f 81 105 119
f 81 119 116
f 81 116 115
f 82 115 117
f 82 117 83
f 83 117 111
f 84 118 85
f 84 91 118
f 85 118 116
f 85 116 119
f 85 119 120
f 85 120 86
f 86 120 121
f 86 121 122
f 86 122 87
f 87 98 101
f 87 101 123
f 87 123 124
f 87 124 88
f 87 122 98
f 88 124 89
f 89 124 92
f 90 95 125
f 90 125 91
f 91 125 126
f 91 126 118
f 93 127 96
f 93 96 94
f 95 96 128
f 95 128 129
f 95 129 130
f 95 130 131
f 95 131 125
f 96 127 132
f 96 132 129
f 96 129 128
f 98 122 103
f 98 103 99
f 100 124 101
f 101 124 123
f 102 104 121
f 102 121 120
f 102 120 105
f 103 122 104
f 104 122 121
f 105 120 119
f 106 114 107
f 107 114 110
f 108 110 130
f 108 130 129
f 108 129 109
f 109 129 127
f 110 114 131
f 110 131 130
f 111 126 112
f 111 117 126
f 112 126 113
f 113 126 131
f 113 131 114
f 115 118 126
f 115 126 117
f 115 116 118
f 125 131 126
f 127 129 132

