# https://github.com/mikedh/trimesh
v -0.05449570 -0.21830665 -0.29222626
v -0.04968462 -0.21830665 -0.29222626
v -0.06617888 -0.21830665 -0.28774923
v -0.07044988 -0.19828692 -0.28279167
v -0.06769359 -0.18162837 -0.28054058
v -0.06452759 -0.17204601 -0.27914941
v -0.05449570 -0.21494547 -0.29134093
v -0.03784624 -0.21830665 -0.29220094
v -0.07096513 -0.21830665 -0.28570049
v -0.07861941 -0.19828692 -0.27034723
v -0.07586313 -0.18162837 -0.27034723
v -0.07023261 -0.16588385 -0.27080250
v -0.06802882 -0.15239485 -0.26554139
v -0.05449570 -0.14990344 -0.26738784
v -0.05449570 -0.16308283 -0.27570943
v -0.05449570 -0.17139738 -0.27940233
v -0.05449570 -0.18162837 -0.28238698
v -0.05449570 -0.19828692 -0.28688926
v -0.03784624 -0.19828692 -0.28686395
v -0.02844756 -0.17206075 -0.27914941
v -0.02624998 -0.18162837 -0.28054058
v -0.02397790 -0.19828692 -0.28279167
v -0.02315226 -0.21830665 -0.28564986
v -0.07744613 -0.21830665 -0.27406539
v -0.07909742 -0.21494547 -0.27034723
v -0.07897947 -0.16498457 -0.25370394
v -0.07236811 -0.14742677 -0.25469042
v -0.06808469 -0.13468960 -0.24980875
v -0.06146712 -0.12358883 -0.24512943
v -0.05449570 -0.14158890 -0.26071030
v -0.05036748 -0.12280748 -0.24593882
v -0.04483628 -0.12280748 -0.24593882
v -0.03784624 -0.15058156 -0.26726138
v -0.03784624 -0.16308283 -0.27558297
v -0.03784624 -0.17141212 -0.27940233
v -0.03784624 -0.18162837 -0.28238698
v -0.02586509 -0.15329413 -0.26536436
v -0.02405860 -0.16589859 -0.27070130
v -0.01968828 -0.18162837 -0.27034723
v -0.02315847 -0.21494547 -0.28496693
v -0.01740999 -0.19828692 -0.27034723
v -0.01659056 -0.21494547 -0.27034723
v -0.01655331 -0.21830665 -0.27034723
v -0.07910983 -0.21830665 -0.27034723
v -0.07915949 -0.18162837 -0.25370394
v -0.07901671 -0.14832605 -0.23706076
v -0.07239294 -0.13016379 -0.23857835
v -0.06806607 -0.11910724 -0.23402549
v -0.05534618 -0.11758881 -0.23857835
v -0.05534618 -0.13016379 -0.25132639
v -0.06799157 -0.10334795 -0.21606701
v -0.05449570 -0.10154944 -0.21852045
v -0.03784624 -0.10157892 -0.21803992
v -0.02586509 -0.10339217 -0.21543465
v -0.03373044 -0.12540212 -0.24333356
v -0.02251285 -0.14797222 -0.25405807
v -0.02586509 -0.13650289 -0.24872112
v -0.02251285 -0.13125469 -0.23749072
v -0.01693820 -0.16498457 -0.25370394
v -0.01639191 -0.18162837 -0.25370394
v -0.01639191 -0.21494547 -0.25370394
v -0.01642295 -0.21830665 -0.25370394
v -0.07915329 -0.21830665 -0.25706803
v -0.07915949 -0.21830665 -0.25370394
v -0.07915949 -0.16498457 -0.23706076
v -0.07901051 -0.13168222 -0.22039221
v -0.07915949 -0.13168222 -0.20374898
v -0.07915949 -0.11503844 -0.18708043
v -0.07894843 -0.11503844 -0.20374898
v -0.07233707 -0.11413916 -0.22112572
v -0.06954974 -0.09804083 -0.20235780
v -0.06342259 -0.08990317 -0.19588266
v -0.05449570 -0.09322016 -0.20445722
v -0.03784624 -0.09324964 -0.20445722
v -0.02914904 -0.08990317 -0.19588266
v -0.02251285 -0.11468461 -0.22074633
v -0.02586509 -0.12000652 -0.23222966
v -0.02448074 -0.09805557 -0.20235780
v -0.01693820 -0.11503844 -0.20374898
v -0.01693820 -0.14832605 -0.23706076
v -0.01639191 -0.16498457 -0.23706076
v -0.01574008 -0.09837987 -0.03387666
v -0.01590149 -0.10374599 -0.03387666
v -0.01655952 -0.11503844 -0.03387666
v -0.04813886 -0.21830665 -0.03387666
v -0.07912225 -0.21830665 -0.03387666
v -0.07915949 -0.13168222 -0.03387666
v -0.07907879 -0.09837987 -0.15381927
v -0.07915949 -0.09837987 -0.12050749
v -0.07914087 -0.09837987 -0.13715073
v -0.07828419 -0.09837987 -0.17043720
v -0.07471468 -0.09837987 -0.18708043
v -0.07012086 -0.08646832 -0.17043720
v -0.06654514 -0.08870909 -0.18708043
v -0.05449570 -0.08981473 -0.19613558
v -0.06477590 -0.07284661 -0.13090319
v -0.05449570 -0.07256649 -0.13194025
v -0.05449570 -0.07479257 -0.14026184
v -0.05449570 -0.08288595 -0.17043720
v -0.05449570 -0.08735280 -0.18708043
v -0.03784624 -0.08981473 -0.19613558
v -0.02704458 -0.08870909 -0.18708043
v -0.03784624 -0.08735280 -0.18708043
v -0.03784624 -0.08288595 -0.17043720
v -0.03784624 -0.07256649 -0.13194025
v -0.02828615 -0.07284661 -0.13090319
v -0.02432554 -0.08646832 -0.17043720
v -0.02048288 -0.09837987 -0.18708043
v -0.01776384 -0.09837987 -0.17043720
v -0.01667747 -0.09837987 -0.15381927
v -0.01639191 -0.11503844 -0.18708043
v -0.01639191 -0.13168222 -0.20374898
v -0.01639191 -0.09837987 -0.13715073
v -0.01747828 -0.08172134 -0.03387666
v -0.07915949 -0.09837987 -0.03387666
v -0.07776273 -0.08172134 -0.08719576
v -0.07757649 -0.08172134 -0.10383900
v -0.07565206 -0.08172134 -0.12050749
v -0.06748873 -0.07182941 -0.12050749
v -0.05449570 -0.07026675 -0.12050749
v -0.03784624 -0.07026675 -0.12050749
v -0.02645483 -0.07182941 -0.12050749
v -0.02323917 -0.08425698 -0.15381927
v -0.01989313 -0.08172134 -0.12050749
v -0.01853362 -0.08172134 -0.10383900
v -0.02430071 -0.06951488 -0.03387666
v -0.07776273 -0.08172134 -0.03387666
v -0.06959940 -0.07085643 -0.08719576
v -0.06941317 -0.07097435 -0.10383900
v -0.05449570 -0.06855664 -0.10383900
v -0.03784624 -0.06855664 -0.10383900
v -0.02509532 -0.07097435 -0.10383900
v -0.03784624 -0.06771638 -0.03387666
v -0.03784624 -0.06832079 -0.08719576
v -0.06959940 -0.07085643 -0.03387666
v -0.05449570 -0.06832079 -0.08719576
v -0.05449570 -0.06830605 -0.03387666
f 1 2 8
f 1 8 23
f 1 23 43
f 1 43 62
f 1 62 85
f 1 85 86
f 1 86 64
f 1 64 63
f 1 63 44
f 1 44 24
f 1 24 9
f 1 9 3
f 1 3 4
f 1 4 5
f 1 5 6
f 1 6 7
f 1 7 2
f 2 7 8
f 3 9 4
f 4 9 10
f 4 10 11
f 4 11 5
f 5 12 6
f 5 11 12
f 6 12 13
f 6 13 14
f 6 14 15
f 6 15 16
f 6 16 17
f 6 17 18
f 6 18 7
f 7 18 19
f 7 19 8
f 8 19 20
f 8 20 21
f 8 21 22
f 8 22 23
f 9 24 10
f 10 24 25
f 10 25 26
f 10 26 11
f 11 26 12
f 12 26 27
f 12 27 13
f 13 27 28
f 13 28 29
f 13 29 14
f 14 30 31
f 14 31 32
f 14 32 33
f 14 33 34
f 14 34 15
f 14 29 30
f 15 34 35
f 15 35 16
f 16 35 36
f 16 36 17
f 17 36 18
f 18 36 19
f 19 36 20
f 20 34 33
f 20 33 37
f 20 37 38
f 20 38 21
f 20 36 35
f 20 35 34
f 21 38 39
f 21 39 22
f 22 40 23
f 22 39 41
f 22 41 40
f 23 40 41
f 23 41 42
f 23 42 43
f 24 44 25
f 25 45 26
f 25 44 45
f 26 45 46
f 26 46 47
f 26 47 27
f 27 47 28
f 28 47 48
f 28 48 29
f 29 49 31
f 29 31 50
f 29 50 30
f 29 48 51
f 29 51 52
f 29 52 49
f 30 50 31
f 31 49 52
f 31 52 32
f 32 52 53
f 32 53 54
f 32 54 55
f 32 55 37
f 32 37 33
f 37 56 38
f 37 55 57
f 37 57 58
f 37 58 56
f 38 56 59
f 38 59 39
f 39 59 41
f 41 59 42
f 42 59 60
f 42 60 43
f 43 60 61
f 43 61 62
f 44 63 45
f 45 63 64
f 45 64 87
f 45 87 115
f 45 115 89
f 45 89 68
f 45 68 67
f 45 67 65
f 45 65 46
f 46 66 47
f 46 65 67
f 46 67 68
f 46 68 66
f 47 66 69
f 47 69 70
f 47 70 48
f 48 70 51
f 51 70 69
f 51 69 71
f 51 71 72
f 51 72 52
f 52 72 73
f 52 73 74
f 52 74 53
f 53 74 75
f 53 75 54
f 54 76 77
f 54 77 55
f 54 75 78
f 54 78 79
f 54 79 76
f 55 77 57
f 56 58 59
f 57 77 58
f 58 80 59
f 58 77 76
f 58 76 79
f 58 79 80
f 59 80 60
f 60 80 81
f 60 81 82
f 60 82 61
f 61 82 62
f 62 82 83
f 62 83 84
f 62 84 85
f 64 86 87
f 66 68 69
f 68 88 69
f 68 89 90
f 68 90 88
f 69 88 91
f 69 91 92
f 69 92 71
f 71 92 93
f 71 93 94
f 71 94 72
f 72 95 73
f 72 94 96
f 72 96 97
f 72 97 98
f 72 98 99
f 72 99 100
f 72 100 95
f 73 95 101
f 73 101 74
f 74 101 75
f 75 102 78
f 75 101 103
f 75 103 104
f 75 104 105
f 75 105 106
f 75 106 102
f 78 102 107
f 78 107 108
f 78 108 79
f 79 108 109
f 79 109 110
f 79 110 111
f 79 111 112
f 79 112 80
f 80 112 81
f 81 112 82
f 82 113 114
f 82 114 126
f 82 126 133
f 82 133 137
f 82 137 135
f 82 135 127
f 82 127 115
f 82 115 87
f 82 87 86
f 82 86 85
f 82 85 84
f 82 84 83
f 82 112 111
f 82 111 113
f 88 90 116
f 88 116 117
f 88 117 91
f 89 115 127
f 89 127 116
f 89 116 90
f 91 93 92
f 91 117 118
f 91 118 93
f 93 118 119
f 93 119 96
f 93 96 94
f 95 100 103
f 95 103 101
f 96 119 120
f 96 120 97
f 97 120 121
f 97 121 105
f 97 105 98
f 98 104 99
f 98 105 104
f 99 104 103
f 99 103 100
f 102 106 107
f 105 121 106
f 106 121 122
f 106 122 107
f 107 123 124
f 107 124 109
f 107 109 108
f 107 122 123
f 109 124 125
f 109 125 110
f 110 125 113
f 110 113 111
f 113 125 114
f 114 125 126
f 116 128 117
f 116 127 135
f 116 135 128
f 117 128 129
f 117 129 118
f 118 129 119
f 119 129 130
f 119 130 120
f 120 130 131
f 120 131 121
f 121 131 122
f 122 131 132
f 122 132 124
f 122 124 123
f 124 132 125
f 125 132 126
f 126 132 131
f 126 131 134
f 126 134 133
f 128 136 129
f 128 135 137
f 128 137 136
f 129 136 130
f 130 136 134
f 130 134 131
f 133 136 137
f 133 134 136

