# https://github.com/mikedh/trimesh
v -0.07915949 -0.16497340 0.93943991
v -0.07914595 -0.18752918 0.93943991
v -0.07915949 -0.16497340 1.01194964
v -0.07915949 -0.09836071 0.93943991
v -0.07913242 -0.20418832 0.93943991
v -0.07911889 -0.21830670 1.03503705
v -0.07914595 -0.18163254 1.03503705
v -0.07915949 -0.13165507 1.03503705
v -0.07915949 -0.09836071 1.03503705
v -0.07776551 -0.08172551 0.93943991
v -0.07911889 -0.21830670 0.93943991
v -0.04797776 -0.21830670 1.03503705
v -0.07776551 -0.08172551 1.03503705
v -0.06959114 -0.07086710 0.93943991
v -0.01637649 0.01389093 0.97865206
v -0.01609228 0.01357930 0.96811441
v -0.04788302 -0.21830670 0.93943991
v -0.03720491 -0.19613442 1.03503705
v -0.04793716 -0.21830670 1.01530936
v 0.02124730 -0.19062131 0.94534514
v 0.02085482 -0.19030970 0.95621974
v 0.01197669 -0.18851194 0.99591852
v 0.02297962 -0.17736588 1.01194964
v 0.02092249 -0.17422581 1.02059692
v -0.07461215 -0.07753074 1.03503705
v -0.01561860 0.01293210 1.00684925
v -0.01602461 0.01341154 0.99530085
v -0.06423178 -0.06995621 0.93943991
v -0.00299162 0.01875682 0.96754350
v -0.00299162 0.02247220 0.97707983
v 0.00359931 0.02657108 0.97027622
v -0.04788302 -0.21830670 0.96536298
v 0.02117963 -0.19054939 0.93943991
v -0.03253577 -0.18163254 1.03503705
v -0.04789656 -0.21830670 0.98201177
v 0.02560516 -0.18163254 0.94534514
v 0.02479314 -0.18002656 0.99530085
v 0.05490571 -0.10814048 0.97205432
v 0.05701697 -0.09836071 0.97418804
v 0.02116610 -0.16497340 1.02075599
v -0.01505018 -0.11501987 1.03503705
v 0.05801846 -0.08172551 0.97518007
v -0.06959114 -0.07086710 1.03503705
v -0.00454800 0.01530514 1.00854313
v -0.00454800 0.01995533 0.99530085
v -0.05448749 -0.06830228 0.93943991
v 0.01858115 -0.05617344 0.93943991
v 0.00359931 0.02657108 0.97047271
v 0.00386999 0.02657108 0.97027622
v 0.02273601 -0.05598167 0.93943991
v 0.02517209 -0.18213593 0.93943991
v 0.05490571 -0.10814048 0.96715980
v 0.05700343 -0.09836071 0.96175997
v 0.05910116 -0.08172551 0.96200326
v 0.02096309 -0.14831424 1.02061563
v -0.01454943 -0.09836071 1.03503705
v 0.05624554 -0.06870976 0.97338321
v 0.02406232 -0.01511282 1.00980655
v 0.02465781 -0.03177199 1.01163146
v 0.01829695 -0.03177199 1.01996054
v -0.06032053 -0.06926107 1.03503705
v -0.00454800 0.00154635 1.01393362
v 0.00910754 0.01403472 1.00696156
v 0.00386999 0.02657108 0.97047271
v 0.02147737 0.01137406 0.96930294
v 0.04365917 -0.06626485 0.93943991
v 0.03249384 -0.05842662 0.93943991
v 0.03135700 -0.05773148 0.93943991
v 0.02686380 -0.17571196 0.93943991
v 0.05481097 -0.09284757 0.95200839
v 0.05482450 -0.08172551 0.95199906
v 0.05412075 -0.07266481 0.95310331
v 0.05590720 -0.06933298 0.96200326
v -0.01560506 -0.08242061 1.03503705
v 0.02147737 0.01137406 0.97348615
v 0.02254654 -0.00152178 1.00654044
v 0.01291052 -0.01623941 1.01749921
v 0.00790304 -0.02254352 1.02060625
v -0.02302155 -0.06691200 1.03503705
v -0.02040954 -0.07125060 1.03503705
v -0.01568626 -0.08172551 1.03503705
v -0.05448749 -0.06827831 1.03503705
v -0.04426952 -0.06664836 1.03503705
v -0.02812377 -0.06590527 1.03503705
v 0.01154361 0.01640780 0.99530085
v 0.01364134 0.00303252 1.00964743
v 0.01986686 0.00789841 0.99530085
v 0.04889673 -0.08172551 0.93943991
f 1 2 3
f 1 3 8
f 1 8 9
f 1 9 4
f 1 4 10
f 1 10 14
f 1 14 28
f 1 28 46
f 1 46 47
f 1 47 50
f 1 50 68
f 1 68 67
f 1 67 66
f 1 66 88
f 1 88 69
f 1 69 51
f 1 51 33
f 1 33 17
f 1 17 11
f 1 11 5
f 1 5 2
f 2 5 6
f 2 6 3
f 3 6 7
f 3 7 8
f 4 9 13
f 4 13 10
f 5 11 6
f 6 11 17
f 6 17 32
f 6 32 35
f 6 35 19
f 6 19 12
f 6 12 18
f 6 18 34
f 6 34 41
f 6 41 56
f 6 56 74
f 6 74 81
f 6 81 80
f 6 80 79
f 6 79 84
f 6 84 83
f 6 83 82
f 6 82 61
f 6 61 43
f 6 43 25
f 6 25 13
f 6 13 9
f 6 9 8
f 6 8 7
f 10 13 15
f 10 15 16
f 10 16 14
f 12 19 20
f 12 20 21
f 12 21 22
f 12 22 23
f 12 23 24
f 12 24 18
f 13 25 26
f 13 26 27
f 13 27 15
f 14 16 29
f 14 29 28
f 15 27 30
f 15 30 31
f 15 31 16
f 16 31 29
f 17 33 20
f 17 20 32
f 18 24 34
f 19 35 20
f 20 35 32
f 20 33 36
f 20 36 37
f 20 37 21
f 21 37 22
f 22 37 23
f 23 37 38
f 23 38 39
f 23 39 24
f 24 40 41
f 24 41 34
f 24 39 42
f 24 42 40
f 25 43 26
f 26 44 45
f 26 45 30
f 26 30 27
f 26 43 44
f 28 29 46
f 29 31 47
f 29 47 46
f 30 45 48
f 30 48 31
f 31 48 64
f 31 64 49
f 31 49 50
f 31 50 47
f 33 51 36
f 36 51 52
f 36 52 38
f 36 38 37
f 38 52 39
f 39 52 53
f 39 53 54
f 39 54 42
f 40 55 56
f 40 56 41
f 40 42 55
f 42 54 57
f 42 57 58
f 42 58 59
f 42 59 60
f 42 60 55
f 43 61 62
f 43 62 44
f 44 62 63
f 44 63 45
f 45 64 48
f 45 63 64
f 49 64 75
f 49 75 65
f 49 65 66
f 49 66 67
f 49 67 68
f 49 68 50
f 51 69 70
f 51 70 53
f 51 53 52
f 53 70 54
f 54 70 71
f 54 71 72
f 54 72 73
f 54 73 57
f 55 60 56
f 56 60 74
f 57 73 65
f 57 65 75
f 57 75 76
f 57 76 58
f 58 76 60
f 58 60 59
f 60 76 77
f 60 77 78
f 60 78 79
f 60 79 80
f 60 80 81
f 60 81 74
f 61 82 62
f 62 78 77
f 62 77 63
f 62 82 83
f 62 83 84
f 62 84 78
f 63 85 64
f 63 77 86
f 63 86 76
f 63 76 87
f 63 87 85
f 64 85 75
f 65 73 72
f 65 72 66
f 66 72 88
f 69 88 70
f 70 88 71
f 71 88 72
f 75 85 87
f 75 87 76
f 76 86 77
f 78 84 79

