# https://github.com/mikedh/trimesh
v -0.07912396 -0.79186380 -0.17578848
v -0.07913548 -0.21830667 0.47574953
v -0.07912396 -0.21830667 -0.17578848
v -0.04814228 -0.79186380 -0.17578848
v -0.07912396 -0.79186380 1.17928325
v -0.07913548 -0.21830667 0.47906559
v -0.04814228 -0.21830667 -0.17578848
v -0.04813075 -0.44276648 -0.17578848
v -0.03990047 -0.21830667 0.48065729
v -0.04814228 -0.79186380 1.17928325
v -0.07912396 -0.21830667 1.17928325
v -0.04813075 -0.41480725 -0.17578848
v -0.04814228 -0.21830667 1.17928325
v -0.04806931 -0.29943333 1.17928325
v -0.04806931 -0.31487267 1.17928325
f 1 2 3
f 1 3 7
f 1 7 12
f 1 12 8
f 1 8 4
f 1 4 10
f 1 10 5
f 1 5 6
f 1 6 2
f 2 6 11
f 2 11 13
f 2 13 9
f 2 9 7
f 2 7 3
f 4 8 9
f 4 9 10
f 5 10 15
f 5 15 14
f 5 14 13
f 5 13 11
f 5 11 6
f 7 9 12
f 8 12 9
f 9 13 14
f 9 14 15
f 9 15 10

