# https://github.com/mikedh/trimesh
v -0.04813781 -0.21830667 -0.17578848
v -0.02255563 -0.21830667 -0.23613170
v -0.07912299 -0.21830667 -0.17578848
v -0.04811955 -0.41480725 -0.17578848
v 0.00893152 -0.59794579 -0.25465866
v -0.01642248 -0.21830667 -0.25372519
v -0.07915950 -0.21830667 -0.25372519
v -0.07915950 -0.43148172 -0.23706518
v -0.07912299 -0.79186380 -0.17578848
v -0.04811955 -0.44276648 -0.17578848
v 0.00893152 -0.63123860 -0.25465866
v 0.01407898 -0.59794579 -0.27036941
v -0.01655026 -0.21830667 -0.27036941
v -0.07915037 -0.21830667 -0.25706356
v -0.07914124 -0.23161257 -0.27036941
v -0.07915950 -0.24828705 -0.27036941
v -0.07915950 -0.79186380 -0.25372519
v -0.07915037 -0.79186380 -0.23111628
v -0.04813781 -0.79186380 -0.17578848
v 0.00867597 -0.64791308 -0.25476944
v 0.01407898 -0.63123860 -0.27036941
v 0.01365916 -0.61462027 -0.28701364
v 0.01362265 -0.59794579 -0.28701364
v -0.01896884 -0.24828705 -0.28701364
v -0.02315800 -0.21830667 -0.28566882
v 0.00981681 -0.59794579 -0.30367370
v -0.07910474 -0.21830667 -0.27036941
v -0.07847499 -0.26496153 -0.28701364
v -0.07851150 -0.28157987 -0.28701364
v -0.07915950 -0.79186380 -0.27036941
v -0.02091283 -0.79186380 -0.24314064
v 0.01369566 -0.64791308 -0.27036941
v -0.01688795 -0.79186380 -0.25372519
v 0.01365916 -0.63123860 -0.28701364
v 0.01344924 -0.64791308 -0.28701364
v -0.02554007 -0.24828705 -0.29758241
v 0.00472410 -0.58817690 -0.31511261
v 0.00198609 -0.59794579 -0.32496941
v -0.03784287 -0.21830667 -0.29220308
v -0.02765747 -0.23660929 -0.29623759
v 0.00978030 -0.63123860 -0.30367370
v 0.00215037 -0.63123860 -0.32495363
v 0.00215037 -0.61462027 -0.32495363
v 0.00512568 -0.59794579 -0.31664732
v -0.07744368 -0.21830667 -0.27407164
v -0.07688694 -0.24828705 -0.28701364
v -0.07030658 -0.26496153 -0.29853171
v -0.07034309 -0.28157987 -0.29857916
v -0.07034309 -0.59794579 -0.29861082
v -0.07851150 -0.79186380 -0.28701364
v -0.01668716 -0.79186380 -0.25967409
v -0.01639510 -0.79186380 -0.27036941
v 0.00800972 -0.64886751 -0.30508180
v -0.01770935 -0.79186380 -0.28701364
v -0.03784287 -0.24828705 -0.29982908
v -0.00634659 -0.59794579 -0.33265869
v -0.02119575 -0.59794579 -0.33697794
v -0.00617319 -0.61462027 -0.33283270
v -0.05448999 -0.21830667 -0.29225058
v -0.03784287 -0.23492502 -0.29669638
v 0.00463284 -0.64398307 -0.31508099
v 0.00046193 -0.64886751 -0.32050777
v -0.02427146 -0.79186380 -0.29857916
v -0.00817194 -0.64791308 -0.33145622
v -0.00617319 -0.63123860 -0.33283270
v -0.07096371 -0.21830667 -0.28570044
v -0.06872766 -0.24828705 -0.29758241
v -0.03394577 -0.59794579 -0.33295926
v -0.03421957 -0.61462027 -0.33322827
v -0.07034309 -0.64791308 -0.29861082
v -0.07327277 -0.79186380 -0.29444976
v -0.03784287 -0.26496153 -0.30172764
v -0.05448999 -0.24828705 -0.29982908
v -0.02119575 -0.61462027 -0.33742095
v -0.05448999 -0.26496153 -0.30172764
v -0.06618131 -0.21830667 -0.28774144
v -0.05448999 -0.23492502 -0.29669638
v -0.06572498 -0.23660929 -0.29623759
v -0.02913599 -0.79186380 -0.29974997
v -0.02119575 -0.64791308 -0.33452564
v -0.02119575 -0.63123860 -0.33742095
v -0.03784287 -0.79186380 -0.30182259
v -0.03421957 -0.63123860 -0.33322827
v -0.07034309 -0.79186380 -0.29857916
v -0.05448999 -0.79186380 -0.30182259
v -0.06016681 -0.79186380 -0.30066761
v -0.03266803 -0.64791308 -0.33170934
f 1 2 6
f 1 6 13
f 1 13 25
f 1 25 39
f 1 39 59
f 1 59 76
f 1 76 66
f 1 66 45
f 1 45 27
f 1 27 14
f 1 14 7
f 1 7 3
f 1 3 9
f 1 9 19
f 1 19 10
f 1 10 4
f 1 4 5
f 1 5 2
f 2 5 6
f 3 7 8
f 3 8 9
f 4 10 11
f 4 11 5
f 5 11 21
f 5 21 12
f 5 12 6
f 6 12 13
f 7 14 15
f 7 15 16
f 7 16 30
f 7 30 17
f 7 17 8
f 8 17 18
f 8 18 9
f 9 18 17
f 9 17 30
f 9 30 50
f 9 50 71
f 9 71 84
f 9 84 86
f 9 86 85
f 9 85 82
f 9 82 79
f 9 79 63
f 9 63 54
f 9 54 52
f 9 52 51
f 9 51 33
f 9 33 31
f 9 31 19
f 10 19 11
f 11 20 21
f 11 19 20
f 12 21 34
f 12 34 22
f 12 22 23
f 12 23 13
f 13 24 25
f 13 23 26
f 13 26 24
f 14 27 15
f 15 28 29
f 15 29 16
f 15 27 28
f 16 29 50
f 16 50 30
f 19 31 20
f 20 32 21
f 20 31 33
f 20 33 32
f 21 32 35
f 21 35 34
f 22 26 23
f 22 34 26
f 24 36 25
f 24 26 37
f 24 37 38
f 24 38 36
f 25 36 40
f 25 40 39
f 26 34 41
f 26 41 42
f 26 42 43
f 26 43 44
f 26 44 37
f 27 45 46
f 27 46 28
f 28 46 47
f 28 47 48
f 28 48 29
f 29 48 49
f 29 49 70
f 29 70 50
f 32 33 51
f 32 51 52
f 32 52 35
f 34 35 41
f 35 53 41
f 35 52 54
f 35 54 53
f 36 55 40
f 36 38 56
f 36 56 57
f 36 57 55
f 37 44 38
f 38 44 43
f 38 43 58
f 38 58 56
f 39 40 60
f 39 60 59
f 40 55 60
f 41 53 42
f 42 53 61
f 42 61 62
f 42 62 63
f 42 63 64
f 42 64 65
f 42 65 58
f 42 58 43
f 45 66 46
f 46 67 47
f 46 66 67
f 47 67 57
f 47 57 68
f 47 68 69
f 47 69 48
f 48 69 49
f 49 69 83
f 49 83 70
f 50 70 71
f 53 54 61
f 54 63 62
f 54 62 61
f 55 57 72
f 55 72 75
f 55 75 73
f 55 73 77
f 55 77 60
f 56 58 74
f 56 74 57
f 57 74 68
f 57 67 75
f 57 75 72
f 58 65 81
f 58 81 74
f 59 60 77
f 59 77 78
f 59 78 76
f 63 79 64
f 64 80 81
f 64 81 65
f 64 79 82
f 64 82 80
f 66 76 78
f 66 78 67
f 67 73 75
f 67 78 73
f 68 74 69
f 69 74 81
f 69 81 83
f 70 83 84
f 70 84 71
f 73 78 77
f 80 82 85
f 80 85 86
f 80 86 84
f 80 84 81
f 81 84 87
f 81 87 83
f 83 87 84
