# https://github.com/mikedh/trimesh
v 0.02914894 -0.16499459 0.93943058
v 0.02853403 -0.14833652 0.93943058
v 0.02685893 -0.17572566 0.93943058
v 0.02913833 -0.16499459 0.56686648
v 0.02878848 -0.15289097 0.56686648
v 0.02418727 -0.13587937 0.93943058
v 0.02860824 -0.14833652 0.56686648
v 0.02726181 -0.13663849 0.56686648
v 0.02517324 -0.18213099 0.93943058
v 0.02533227 -0.18163187 0.57901054
v 0.02808874 -0.16952825 0.56686648
v -0.00887988 -0.11207766 0.93943058
v 0.02598959 -0.13307185 0.56686648
v 0.02117635 -0.19055361 0.93943058
v 0.02097491 -0.19040804 0.57901054
v 0.02090070 -0.19034566 0.56686648
v 0.02456894 -0.18272370 0.56686648
v -0.00952659 -0.11207766 0.91284491
v -0.07915949 -0.11207766 0.93943058
v 0.00544321 -0.11843106 0.56690294
v 0.00543261 -0.11843106 0.56686648
v -0.04788406 -0.21829627 0.93943058
v -0.04788406 -0.21829627 0.84541431
v -0.04789466 -0.21829627 0.56686648
v -0.01266474 -0.11207766 0.82852930
v -0.07915949 -0.16499459 0.93943058
v -0.07915949 -0.11207766 0.82852930
v -0.07915949 -0.11843106 0.56686648
v -0.07911708 -0.21829627 0.93943058
v -0.07911708 -0.21829627 0.56686648
v -0.07913829 -0.19827955 0.93943058
v -0.07915949 -0.16499459 0.56686648
v -0.07914889 -0.18185025 0.82852930
v -0.07912769 -0.21038317 0.56686648
v -0.07913829 -0.19828995 0.82852930
v -0.07913829 -0.19828995 0.56686648
f 1 2 6
f 1 6 12
f 1 12 19
f 1 19 26
f 1 26 31
f 1 31 29
f 1 29 22
f 1 22 14
f 1 14 9
f 1 9 3
f 1 3 4
f 1 4 5
f 1 5 2
f 2 5 7
f 2 7 8
f 2 8 6
f 3 9 10
f 3 10 4
f 4 10 11
f 4 11 17
f 4 17 16
f 4 16 24
f 4 24 30
f 4 30 34
f 4 34 36
f 4 36 32
f 4 32 28
f 4 28 21
f 4 21 13
f 4 13 8
f 4 8 7
f 4 7 5
f 6 8 13
f 6 13 12
f 9 14 10
f 10 15 16
f 10 16 17
f 10 17 11
f 10 14 15
f 12 18 25
f 12 25 27
f 12 27 19
f 12 13 20
f 12 20 18
f 13 21 20
f 14 22 23
f 14 23 24
f 14 24 15
f 15 24 16
f 18 20 25
f 19 27 28
f 19 28 32
f 19 32 26
f 20 21 25
f 21 28 27
f 21 27 25
f 22 29 30
f 22 30 24
f 22 24 23
f 26 32 33
f 26 33 31
f 29 31 34
f 29 34 30
f 31 33 35
f 31 35 34
f 32 36 33
f 33 36 35
f 34 35 36
