# https://github.com/mikedh/trimesh
v -0.05449850 -1.17248441 0.58332663
v -0.07098758 -1.16417602 0.58332663
v -0.03784522 -1.17244713 0.58332663
v -0.05449850 -1.17248441 0.79547267
v -0.07312844 -1.15981692 0.58332663
v -0.07098758 -1.16417602 1.09522409
v -0.02095196 -1.16443683 0.58332663
v -0.03784522 -1.17244713 1.09522409
v -0.05449850 -1.17244713 1.09522409
v -0.07915318 -1.14752201 0.58332663
v -0.07915318 -1.14752201 1.11187695
v -0.07098758 -1.16406425 1.11187695
v -0.07910266 -1.14752201 1.12852981
v -0.01464936 -1.14752201 0.58332663
v -0.01642394 -1.14752201 1.14518268
v -0.02296021 -1.16406425 1.11187695
v -0.02296021 -1.16413874 1.09522409
v -0.03784522 -1.17226087 1.11187695
v -0.05449850 -1.17222359 1.11187695
v -0.07915318 -1.10985490 0.58332663
v -0.07912160 -1.13086801 1.19514127
v -0.07915318 -1.13086801 1.17848840
v -0.07093706 -1.16302104 1.12852981
v -0.07902688 -1.14752201 1.14518268
v -0.01469357 -1.13086801 0.58332663
v -0.01639236 -0.79186378 1.27840553
v -0.01639236 -1.01428988 1.27840553
v -0.01639236 -1.06425194 1.26175272
v -0.01639236 -1.11421395 1.21179408
v -0.01641131 -1.13086801 1.19514127
v -0.01670812 -1.14752201 1.16183554
v -0.02296021 -1.16361717 1.12852981
v -0.02298547 -1.16272300 1.14518268
v -0.03784522 -1.17103139 1.12852981
v -0.05449850 -1.17043527 1.12852981
v -0.07912160 -0.79186378 0.58332663
v -0.07915318 -0.79186378 1.24509981
v -0.07790276 -1.13086801 1.21179408
v -0.07915318 -1.11421395 1.21179408
v -0.07806064 -1.14752201 1.16183554
v -0.07085496 -1.16119544 1.14518268
v -0.04813906 -0.79186378 0.58332663
v -0.01694179 -0.79186378 1.26175272
v -0.01658814 -0.79186378 1.27242760
v -0.01752911 -0.79186378 1.29505840
v -0.01752911 -0.96436511 1.29505840
v -0.01764278 -0.98101911 1.29505840
v -0.01656287 -1.03094393 1.27840553
v -0.01735228 -1.04759793 1.27840553
v -0.01778803 -1.08090594 1.26175272
v -0.01778172 -1.11421395 1.22844699
v -0.01780066 -1.13086801 1.21179408
v -0.01808485 -1.14752201 1.17848840
v -0.02326966 -1.16145625 1.16183554
v -0.03784522 -1.16846062 1.14518268
v -0.03784522 -1.16514473 1.16183554
v -0.05449850 -1.16693306 1.14518268
v -0.06690794 -1.15732069 1.17557061
v -0.06989504 -1.15918352 1.16183554
v -0.07915318 -0.79186378 1.27840553
v -0.06973716 -1.14346095 1.21179408
v -0.06664270 -1.14085296 1.22189968
v -0.07067182 -1.13027188 1.22780645
v -0.07792802 -1.11421395 1.22844699
v -0.07915318 -1.06425194 1.26175272
v -0.02409064 -0.79186378 1.30687197
v -0.02409064 -0.96436511 1.30687197
v -0.02420431 -0.98101911 1.30672963
v -0.01880478 -0.99763587 1.29505840
v -0.02391381 -1.04759793 1.29121546
v -0.01988469 -1.06425194 1.27840553
v -0.02491793 -1.07963920 1.27776508
v -0.02387592 -1.09700110 1.26111217
v -0.02386960 -1.11365510 1.24445936
v -0.02386960 -1.13030911 1.22780645
v -0.02436219 -1.14390808 1.21179408
v -0.02465269 -1.15929529 1.17848840
v -0.02278338 -1.14863972 1.19542595
v -0.02702091 -1.15720892 1.19008846
v -0.03784522 -1.16071108 1.17848840
v -0.06183049 -1.15583040 1.18667251
v -0.07915318 -0.99763587 1.27840553
v -0.07867954 -0.79186378 1.29505840
v -0.05449850 -1.14167262 1.22282487
v -0.05449850 -1.13358777 1.23115127
v -0.06664270 -1.12434795 1.23855254
v -0.05449850 -1.14785732 1.21179408
v -0.07067182 -1.09696387 1.26111217
v -0.07792802 -1.08090594 1.26175272
v -0.07832588 -1.04759793 1.27840553
v -0.07907740 -1.03094393 1.27840553
v -0.07914055 -1.01428988 1.27840553
v -0.03784522 -0.79186378 1.31035909
v -0.03784522 -0.94771108 1.31035909
v -0.03784522 -0.96436511 1.31028792
v -0.03784522 -0.98101911 1.31007441
v -0.02536631 -0.99763587 1.30587567
v -0.02644622 -1.06425194 1.28865348
v -0.02745034 -1.01041513 1.30452350
v -0.02874497 -1.07319368 1.28708780
v -0.02700196 -1.09103994 1.27185827
v -0.02699565 -1.12434795 1.23855254
v -0.02699565 -1.14085296 1.22189968
v -0.03784522 -1.14830441 1.21179408
v -0.03784522 -1.15415380 1.19791677
v -0.05556577 -1.15411657 1.19371793
v -0.07867954 -0.96436511 1.29505840
v -0.07050762 -0.79186378 1.30680080
v -0.03784522 -1.14167262 1.22282487
v -0.03784522 -1.13358777 1.23115127
v -0.05449850 -1.10027976 1.26445700
v -0.06664270 -1.09103994 1.27185827
v -0.06882145 -1.07945293 1.27776508
v -0.07485882 -1.06425194 1.27840553
v -0.07016028 -1.04759793 1.29043257
v -0.07620397 -0.99763587 1.29505840
v -0.07849639 -0.98101911 1.29505840
v -0.05449850 -0.79186378 1.31028792
v -0.05449850 -0.96436511 1.31028792
v -0.05449850 -0.98101911 1.31000328
v -0.03784522 -0.99763587 1.30850882
v -0.03114476 -1.02151778 1.30302899
v -0.03715686 -1.01529586 1.30530629
v -0.03715686 -1.03113020 1.30174800
v -0.03784522 -1.04759793 1.29697989
v -0.03784522 -1.06425194 1.29100195
v -0.03784522 -1.07360354 1.28730131
v -0.03784522 -1.08191188 1.28110986
v -0.03784522 -1.09193410 1.27278346
v -0.03784522 -1.10027976 1.26445700
v -0.07050762 -0.96436511 1.30680080
v -0.06477970 -0.79186378 1.30808179
v -0.05449850 -1.09193410 1.27278346
v -0.05449850 -1.08172561 1.28110986
v -0.06356718 -1.07297014 1.28687428
v -0.06669322 -1.06425194 1.28815528
v -0.06803836 -0.99763587 1.30537746
v -0.07033080 -0.98101911 1.30665846
v -0.05449850 -0.99763587 1.30801062
v -0.04856849 -1.02565339 1.30402530
v -0.04225326 -1.02565339 1.30402530
v -0.05449850 -1.06425194 1.29043257
v -0.05449850 -1.07341722 1.28715897
v -0.05427115 -1.03113020 1.30110755
v -0.06488706 -1.00817967 1.30395413
f 1 2 5
f 1 5 10
f 1 10 20
f 1 20 36
f 1 36 42
f 1 42 25
f 1 25 14
f 1 14 7
f 1 7 3
f 1 3 8
f 1 8 4
f 1 4 6
f 1 6 2
f 2 6 5
f 3 7 8
f 4 8 9
f 4 9 6
f 5 6 11
f 5 11 10
f 6 9 12
f 6 12 13
f 6 13 11
f 7 14 15
f 7 15 16
f 7 16 17
f 7 17 8
f 8 17 16
f 8 16 18
f 8 18 9
f 9 18 19
f 9 19 12
f 10 11 22
f 10 22 39
f 10 39 65
f 10 65 82
f 10 82 60
f 10 60 37
f 10 37 20
f 11 13 21
f 11 21 22
f 12 19 23
f 12 23 24
f 12 24 13
f 13 24 21
f 14 25 26
f 14 26 27
f 14 27 28
f 14 28 29
f 14 29 30
f 14 30 15
f 15 30 31
f 15 31 32
f 15 32 16
f 16 32 18
f 18 32 33
f 18 33 34
f 18 34 19
f 19 34 35
f 19 35 23
f 20 37 36
f 21 38 39
f 21 39 22
f 21 24 40
f 21 40 38
f 23 35 41
f 23 41 40
f 23 40 24
f 25 42 43
f 25 43 44
f 25 44 26
f 26 44 43
f 26 43 42
f 26 42 36
f 26 36 37
f 26 37 60
f 26 60 83
f 26 83 108
f 26 108 132
f 26 132 118
f 26 118 93
f 26 93 66
f 26 66 45
f 26 45 46
f 26 46 27
f 27 46 47
f 27 47 48
f 27 48 28
f 28 48 49
f 28 49 50
f 28 50 51
f 28 51 29
f 29 51 52
f 29 52 30
f 30 52 53
f 30 53 31
f 31 53 54
f 31 54 33
f 31 33 32
f 33 54 34
f 34 54 55
f 34 55 35
f 35 55 56
f 35 56 57
f 35 57 58
f 35 58 59
f 35 59 41
f 38 61 62
f 38 62 63
f 38 63 64
f 38 64 39
f 38 40 61
f 39 64 89
f 39 89 65
f 40 41 59
f 40 59 61
f 45 66 67
f 45 67 46
f 46 67 47
f 47 67 68
f 47 68 69
f 47 69 49
f 47 49 48
f 49 69 70
f 49 70 71
f 49 71 50
f 50 71 72
f 50 72 73
f 50 73 74
f 50 74 51
f 51 75 52
f 51 74 75
f 52 75 76
f 52 76 53
f 53 77 54
f 53 76 78
f 53 78 77
f 54 77 55
f 55 77 56
f 56 77 79
f 56 79 80
f 56 80 81
f 56 81 57
f 57 81 58
f 58 81 61
f 58 61 59
f 60 82 107
f 60 107 83
f 61 81 62
f 62 84 85
f 62 85 86
f 62 86 63
f 62 81 87
f 62 87 84
f 63 86 112
f 63 112 88
f 63 88 89
f 63 89 64
f 65 89 90
f 65 90 91
f 65 91 92
f 65 92 82
f 66 93 94
f 66 94 67
f 67 94 95
f 67 95 68
f 68 95 96
f 68 96 97
f 68 97 69
f 69 97 70
f 70 98 71
f 70 97 99
f 70 99 98
f 71 98 72
f 72 98 100
f 72 100 101
f 72 101 73
f 73 101 74
f 74 101 102
f 74 102 75
f 75 103 76
f 75 102 103
f 76 103 79
f 76 79 77
f 76 77 78
f 79 103 104
f 79 104 105
f 79 105 80
f 80 105 106
f 80 106 81
f 81 106 87
f 82 92 107
f 83 107 131
f 83 131 108
f 84 87 104
f 84 104 109
f 84 109 110
f 84 110 85
f 85 110 130
f 85 130 111
f 85 111 112
f 85 112 86
f 87 106 105
f 87 105 104
f 88 112 113
f 88 113 89
f 89 113 114
f 89 114 90
f 90 114 115
f 90 115 116
f 90 116 117
f 90 117 91
f 91 117 107
f 91 107 92
f 93 118 119
f 93 119 94
f 94 119 95
f 95 119 96
f 96 119 120
f 96 120 121
f 96 121 97
f 97 121 99
f 98 99 122
f 98 122 100
f 99 121 123
f 99 123 122
f 100 122 124
f 100 124 125
f 100 125 126
f 100 126 127
f 100 127 128
f 100 128 129
f 100 129 101
f 101 130 102
f 101 129 130
f 102 130 110
f 102 110 103
f 103 110 109
f 103 109 104
f 107 117 131
f 108 131 132
f 111 130 129
f 111 129 133
f 111 133 112
f 112 133 134
f 112 134 135
f 112 135 113
f 113 135 136
f 113 136 114
f 114 136 115
f 115 136 137
f 115 137 138
f 115 138 116
f 116 138 117
f 117 138 131
f 118 132 119
f 119 132 131
f 119 131 138
f 119 138 120
f 120 139 121
f 120 138 137
f 120 137 139
f 121 139 140
f 121 140 141
f 121 141 123
f 122 123 141
f 122 141 124
f 124 141 125
f 125 141 140
f 125 140 142
f 125 142 143
f 125 143 126
f 126 143 127
f 127 143 134
f 127 134 128
f 128 134 133
f 128 133 129
f 134 143 135
f 135 143 142
f 135 142 140
f 135 140 144
f 135 144 145
f 135 145 136
f 136 145 137
f 137 145 140
f 137 140 139
f 140 145 144
