# https://github.com/mikedh/trimesh
v 0.05152253 -0.08172958 0.56686648
v 0.04627785 -0.09975114 0.56686648
v 0.04813268 -0.06896655 0.56686648
v 0.04890019 -0.08172293 0.93943058
v 0.04614994 -0.09304640 0.93943058
v 0.04476841 -0.09829157 0.93943058
v 0.04620110 -0.09993110 0.56686648
v 0.04636740 -0.06433453 0.56686648
v 0.04364272 -0.06626733 0.93943058
v 0.04163439 -0.10121741 0.93943058
v 0.03385692 -0.11102795 0.56686648
v 0.03913997 -0.05536375 0.56686648
v 0.03247540 -0.05842290 0.93943058
v 0.03482911 -0.10588939 0.93943058
v 0.03005773 -0.11424036 0.56686648
v 0.02746097 -0.05044516 0.56686648
v 0.03134971 -0.05772309 0.93943058
v 0.03012169 -0.10906849 0.93943058
v -0.00958436 -0.11841250 0.82852930
v 0.00544612 -0.11841250 0.56690294
v 0.00529262 -0.11841250 0.56686648
v 0.02742260 -0.11018148 0.93943058
v 0.02478747 -0.05032520 0.56686648
v 0.02272797 -0.05597025 0.93943058
v -0.07915949 -0.11841250 0.82852930
v -0.00889360 -0.11207428 0.93943058
v -0.07915949 -0.11841250 0.56686648
v 0.01397831 -0.05081839 0.56686648
v 0.01857061 -0.05615687 0.93943058
v -0.07915949 -0.11207428 0.93943058
v -0.07915949 -0.09836488 0.56686648
v -0.06959115 -0.07085936 0.56686648
v -0.06959115 -0.07085936 0.93943058
v -0.05448392 -0.06830010 0.93943058
v -0.07915949 -0.09836488 0.93943058
v -0.07776517 -0.08172958 0.56686648
v -0.06970628 -0.07100597 0.82852930
v -0.07775238 -0.08172293 0.93943058
v -0.07776517 -0.08172958 0.82852930
f 1 2 7
f 1 7 11
f 1 11 15
f 1 15 21
f 1 21 27
f 1 27 31
f 1 31 36
f 1 36 32
f 1 32 28
f 1 28 23
f 1 23 16
f 1 16 12
f 1 12 8
f 1 8 3
f 1 3 4
f 1 4 5
f 1 5 6
f 1 6 2
f 2 6 7
f 3 8 9
f 3 9 4
f 4 9 13
f 4 13 17
f 4 17 24
f 4 24 29
f 4 29 34
f 4 34 33
f 4 33 38
f 4 38 35
f 4 35 30
f 4 30 26
f 4 26 22
f 4 22 18
f 4 18 14
f 4 14 10
f 4 10 6
f 4 6 5
f 6 10 7
f 7 10 11
f 8 12 9
f 9 12 13
f 10 14 15
f 10 15 11
f 12 16 17
f 12 17 13
f 14 18 15
f 15 19 20
f 15 20 21
f 15 18 22
f 15 22 19
f 16 23 24
f 16 24 17
f 19 25 27
f 19 27 21
f 19 21 20
f 19 22 26
f 19 26 30
f 19 30 25
f 23 28 29
f 23 29 24
f 25 30 35
f 25 35 31
f 25 31 27
f 28 32 33
f 28 33 34
f 28 34 29
f 31 35 39
f 31 39 36
f 32 36 37
f 32 37 33
f 33 37 39
f 33 39 38
f 35 38 39
f 36 39 37
