# https://github.com/mikedh/trimesh
v -0.03784608 -0.61462027 1.34513074
v -0.05592224 -0.61310441 1.34155925
v -0.03784608 -0.63123860 1.34508200
v -0.02516451 -0.63123860 1.34116964
v -0.02516451 -0.61462027 1.34116964
v -0.02548401 -0.59794579 1.34084495
v -0.03784608 -0.24828705 1.30881505
v -0.05449679 -0.24828705 1.30879882
v -0.06551329 -0.61765200 1.33953001
v -0.06551329 -0.62635416 1.33953001
v -0.06908305 -0.24828705 1.30586048
v -0.02671284 -0.64791308 1.33957864
v -0.05453980 -0.63168774 1.34152679
v -0.05449679 -0.79186380 1.31034108
v -0.03784608 -0.79186380 1.31035731
v -0.02408928 -0.79186380 1.30686701
v -0.02174221 -0.79186380 1.30264613
v -0.01752731 -0.79186380 1.29506480
v -0.02037206 -0.63123860 1.32836095
v -0.02032291 -0.61462027 1.32836095
v -0.02074685 -0.59794579 1.32836095
v -0.01757032 -0.26496153 1.29506480
v -0.02413229 -0.26496153 1.30681827
v -0.02524439 -0.24828705 1.30587671
v -0.02738870 -0.23599172 1.30444811
v -0.04184594 -0.21830667 1.30444811
v -0.05047850 -0.21830667 1.30444811
v -0.06609084 -0.23604788 1.30443188
v -0.07396767 -0.61462027 1.31172099
v -0.07047164 -0.26496153 1.30680204
v -0.07864338 -0.26496153 1.29506480
v -0.07868025 -0.28157987 1.29506480
v -0.07868025 -0.79186380 1.29506480
v -0.07575562 -0.79186380 1.29928567
v -0.07050850 -0.79186380 1.30685073
v -0.07101847 -0.21830667 1.29399335
v -0.07724866 -0.24828705 1.29506480
v -0.06478213 -0.79186380 1.30810075
v -0.01639064 -0.79186380 1.27840861
v -0.01651966 -0.63123860 1.29506480
v -0.01829533 -0.63123860 1.31172099
v -0.01824618 -0.61462027 1.31172099
v -0.01639064 -0.23161257 1.27840861
v -0.01652581 -0.21830667 1.27840861
v -0.01868241 -0.24828705 1.29506480
v -0.01652581 -0.59794579 1.29506480
v -0.02309393 -0.21830667 1.29399335
v -0.02588338 -0.21830667 1.29657459
v -0.03357589 -0.21830667 1.30209418
v -0.05322495 -0.21830667 1.30375004
v -0.05874241 -0.21830667 1.30209418
v -0.07896288 -0.61462027 1.29506480
v -0.07895674 -0.63123860 1.29506480
v -0.07911649 -0.21830667 1.27840861
v -0.07914721 -0.23161257 1.27840861
v -0.07915949 -0.79186380 1.27840861
v -0.01693747 -0.79186380 1.26176870
v -0.01641521 -0.71455486 1.26176870
v -0.01639678 -0.29825433 1.26176870
v -0.01639064 -0.21830667 1.26511288
v -0.01651966 -0.61462027 1.29506480
v -0.01791439 -0.21830667 1.28220742
v -0.07915949 -0.24828705 1.27840861
v -0.07915949 -0.21830667 1.26176870
v -0.07915949 -0.79186380 1.26176870
v -0.04813757 -0.79186380 1.17928325
v -0.01873157 -0.71455486 1.24511251
v -0.01717709 -0.31487267 1.24511251
v -0.01642750 -0.21830667 1.26176870
v -0.07915335 -0.21830667 1.24175205
v -0.07915949 -0.29825433 1.24511251
v -0.07915335 -0.79186380 1.24511251
v -0.07915949 -0.71455486 1.24511251
v -0.04806384 -0.31487267 1.17928325
v -0.02625818 -0.31487267 1.21654050
v -0.02041507 -0.31487267 1.22845632
v -0.07912263 -0.79186380 1.17928325
v -0.02141657 -0.21830667 1.24608653
v -0.07914721 -0.21830667 1.22845632
v -0.07915335 -0.31487267 1.22845632
v -0.07915335 -0.71455486 1.22845632
v -0.04806384 -0.29943333 1.17928325
v -0.04813757 -0.21830667 1.17928325
v -0.07912263 -0.21830667 1.17928325
f 1 2 3
f 1 3 4
f 1 4 5
f 1 5 6
f 1 6 7
f 1 7 8
f 1 8 2
f 2 9 10
f 2 10 3
f 2 8 11
f 2 11 9
f 3 12 4
f 3 10 13
f 3 13 14
f 3 14 15
f 3 15 12
f 4 12 16
f 4 16 17
f 4 17 18
f 4 18 19
f 4 19 20
f 4 20 5
f 5 20 21
f 5 21 6
f 6 21 22
f 6 22 23
f 6 23 24
f 6 24 7
f 7 24 25
f 7 25 26
f 7 26 27
f 7 27 8
f 8 27 28
f 8 28 11
f 9 29 10
f 9 11 30
f 9 30 31
f 9 31 32
f 9 32 29
f 10 29 33
f 10 33 34
f 10 34 35
f 10 35 13
f 11 28 36
f 11 36 37
f 11 37 30
f 12 15 16
f 13 35 38
f 13 38 14
f 14 38 35
f 14 35 34
f 14 34 33
f 14 33 56
f 14 56 65
f 14 65 72
f 14 72 77
f 14 77 66
f 14 66 57
f 14 57 39
f 14 39 18
f 14 18 17
f 14 17 16
f 14 16 15
f 18 39 40
f 18 40 41
f 18 41 19
f 19 41 42
f 19 42 20
f 20 42 22
f 20 22 21
f 22 43 44
f 22 44 45
f 22 45 23
f 22 42 46
f 22 46 43
f 23 45 24
f 24 45 47
f 24 47 25
f 25 47 48
f 25 48 49
f 25 49 26
f 26 49 48
f 26 48 47
f 26 47 62
f 26 62 44
f 26 44 60
f 26 60 69
f 26 69 78
f 26 78 83
f 26 83 84
f 26 84 79
f 26 79 70
f 26 70 64
f 26 64 54
f 26 54 36
f 26 36 51
f 26 51 50
f 26 50 27
f 27 50 28
f 28 50 51
f 28 51 36
f 29 52 53
f 29 53 33
f 29 32 52
f 30 37 31
f 31 37 54
f 31 54 55
f 31 55 32
f 32 55 52
f 33 53 56
f 36 54 37
f 39 57 58
f 39 58 59
f 39 59 60
f 39 60 43
f 39 43 61
f 39 61 40
f 40 61 42
f 40 42 41
f 42 61 46
f 43 60 44
f 43 46 61
f 44 62 45
f 45 62 47
f 52 56 53
f 52 55 63
f 52 63 56
f 54 64 55
f 55 64 63
f 56 63 64
f 56 64 71
f 56 71 73
f 56 73 65
f 57 66 67
f 57 67 58
f 58 67 68
f 58 68 59
f 59 68 69
f 59 69 60
f 64 70 71
f 65 73 81
f 65 81 72
f 66 74 75
f 66 75 76
f 66 76 67
f 66 77 84
f 66 84 83
f 66 83 82
f 66 82 74
f 67 76 68
f 68 76 69
f 69 76 78
f 70 79 80
f 70 80 71
f 71 80 81
f 71 81 73
f 72 81 77
f 74 82 75
f 75 82 83
f 75 83 76
f 76 83 78
f 77 81 80
f 77 80 84
f 79 84 80

