mtllib material.mtl
usemtl mtl_cabinet_door_3
v 0.00000000 -0.17014703 0.33743870
v 0.00317500 -0.17014703 0.33743870
v 0.00317500 -0.00500000 0.33743870
v 0.00317500 -0.33882961 0.33597425
v 0.00000000 -0.00500000 0.33743870
v 0.00317500 -0.00146447 0.33597425
v 0.00000000 -0.33529407 0.33743870
v 0.00317500 -0.33529407 0.33743870
v -0.00000000 -0.00146447 0.33597425
v 0.00317500 -0.34029406 0.33243871
v 0.00317500 -0.00000000 0.33243871
v 0.00317500 -0.34029406 0.16621935
v 0.00317500 -0.00000000 0.16621935
v 0.00000000 -0.00000000 0.33243871
v 0.00317500 -0.34029406 -0.00000000
v 0.00317500 -0.00000000 0.00000000
v 0.00000000 -0.00000000 0.16621935
v 0.00317500 -0.33882961 -0.00353553
v 0.00317500 -0.00146447 -0.00353553
v 0.00000000 -0.00000000 0.00000000
v 0.00317500 -0.17014703 -0.00500000
v 0.00317500 -0.00500000 -0.00500000
v -0.00000000 -0.00146447 -0.00353553
v 0.00317500 -0.33529407 -0.00500000
v 0.00000000 -0.00500000 -0.00500000
v 0.00000000 -0.17014703 -0.00500000
v 0.00000000 -0.33529407 -0.00500000
v -0.00000000 -0.33882961 -0.00353553
v 0.00000000 -0.34029406 -0.00000000
v 0.00000000 -0.34029406 0.16621935
v 0.00000000 -0.34029406 0.33243871
v -0.00000000 -0.33882961 0.33597425
f 1 2 3
f 4 3 2
f 5 1 3
f 6 5 3
f 4 6 3
f 7 2 1
f 8 4 2
f 7 8 2
f 9 1 5
f 9 7 1
f 9 5 6
f 10 11 6
f 9 6 11
f 4 10 6
f 12 13 11
f 14 11 13
f 10 12 11
f 9 11 14
f 15 16 13
f 17 13 16
f 12 15 13
f 17 14 13
f 18 19 16
f 20 16 19
f 15 18 16
f 17 16 20
f 21 22 19
f 23 19 22
f 24 21 19
f 18 24 19
f 23 20 19
f 25 22 21
f 23 22 25
f 26 21 24
f 26 25 21
f 27 24 18
f 26 24 27
f 28 18 15
f 28 27 18
f 29 15 12
f 28 15 29
f 30 12 10
f 30 29 12
f 31 10 4
f 30 10 31
f 32 4 8
f 32 31 4
f 32 8 7
f 9 32 7
f 14 31 32
f 17 30 31
f 17 31 14
f 9 14 32
f 20 29 30
f 23 28 29
f 23 29 20
f 17 20 30
f 26 27 28
f 26 28 25
f 23 25 28
