# https://github.com/mikedh/trimesh
v 1.15136143 1.23805461 -0.37492659
v 1.15136143 1.63178300 -0.37492659
v 1.65563846 0.92250262 -0.37492659
v 1.15136143 1.23805461 0.37492659
v 1.15136143 1.63178300 0.37492659
v 1.54986527 1.44981116 -0.37492659
v 2.18928002 0.92250262 -0.37492659
v 1.65563846 0.92250262 0.37492659
v 1.54986527 1.44981116 0.37492659
v 2.06968819 1.06059568 -0.37492659
v 2.18928002 0.92250262 0.37492659
v 2.06968819 1.06059568 0.37492659
f 1 2 6
f 1 6 10
f 1 10 7
f 1 7 3
f 1 3 8
f 1 8 4
f 1 4 5
f 1 5 2
f 2 5 9
f 2 9 6
f 3 7 11
f 3 11 8
f 4 8 11
f 4 11 12
f 4 12 9
f 4 9 5
f 6 9 12
f 6 12 10
f 7 10 12
f 7 12 11
