# https://github.com/mikedh/trimesh
v -1.65749482 1.36927297 0.37492659
v -1.65749482 1.36927297 -0.37492659
v -2.06974639 1.06056350 0.37492659
v -1.65749482 0.92091930 0.37492659
v -1.65749482 0.92091930 -0.37492659
v -2.06974639 1.06056350 -0.37492659
v -2.49482997 0.56998590 0.37492659
v -2.07701782 0.50308894 0.37492659
v -2.07701782 0.50308894 -0.37492659
v -2.49482997 0.56998590 -0.37492659
v -2.53127309 0.50308894 0.37492659
v -2.53127309 0.50308894 -0.37492659
f 1 2 6
f 1 6 3
f 1 3 7
f 1 7 11
f 1 11 8
f 1 8 4
f 1 4 5
f 1 5 2
f 2 5 9
f 2 9 12
f 2 12 10
f 2 10 6
f 3 6 10
f 3 10 7
f 4 8 9
f 4 9 5
f 7 10 12
f 7 12 11
f 8 11 12
f 8 12 9
