# https://github.com/mikedh/trimesh
v 0.00021501 1.50001698 -0.37492659
v 0.00021501 1.50001698 0.37470636
v 0.00021501 1.85757802 -0.37492659
v 0.59190153 1.43322351 -0.37492659
v 0.00021501 1.85757802 0.37492659
v 0.59190153 1.43322351 0.37492659
v 0.59088741 1.43359737 0.37492659
v 0.32484818 1.85757802 -0.37492659
v 1.15136135 1.43322351 -0.37492659
v 0.32484818 1.85757802 0.37492659
v 1.15136135 1.43322351 0.37492659
v 0.95912805 1.71954653 -0.37492659
v 1.15136135 1.63181779 -0.37492659
v 0.95912805 1.71954653 0.37492659
v 1.15136135 1.63181779 0.37492659
f 1 2 5
f 1 5 3
f 1 3 8
f 1 8 12
f 1 12 13
f 1 13 9
f 1 9 4
f 1 4 6
f 1 6 2
f 2 6 7
f 2 7 5
f 3 5 10
f 3 10 8
f 4 9 11
f 4 11 6
f 5 7 6
f 5 6 11
f 5 11 15
f 5 15 14
f 5 14 10
f 8 10 14
f 8 14 12
f 9 13 15
f 9 15 11
f 12 14 15
f 12 15 13
