# https://github.com/mikedh/trimesh
v -1.15219763 1.23773461 0.37492659
v -0.59198152 1.43325847 0.37492659
v -1.15219763 1.63136661 0.37492659
v -1.15219763 1.23784458 -0.37492659
v -1.15208791 1.23778960 -0.37492659
v -0.59198152 1.43325847 -0.37492659
v -0.59198152 1.79945332 0.37492659
v -0.95909719 1.71950622 0.37492659
v -1.15219763 1.63136661 -0.37492659
v -0.59198152 1.79945332 -0.37492659
v -0.95909719 1.71950622 -0.37492659
f 1 2 7
f 1 7 8
f 1 8 3
f 1 3 9
f 1 9 4
f 1 4 5
f 1 5 6
f 1 6 2
f 2 6 10
f 2 10 7
f 3 8 11
f 3 11 9
f 4 9 11
f 4 11 10
f 4 10 6
f 4 6 5
f 7 10 11
f 7 11 8

