# https://github.com/mikedh/trimesh
v 0.00021499 1.85757802 0.37492659
v -0.32477900 1.85757802 0.37492659
v -0.00001687 1.50001079 0.37492659
v 0.00021499 1.50001079 0.37470636
v 0.00021499 1.85757802 -0.37492659
v -0.59186874 1.79942347 0.37492659
v -0.32477900 1.85757802 -0.37492659
v -0.59186874 1.43321615 0.37492659
v 0.00021499 1.50001079 -0.37492659
v -0.59186874 1.79942347 -0.37492659
v -0.59186874 1.43321615 -0.37492659
f 1 2 6
f 1 6 8
f 1 8 3
f 1 3 4
f 1 4 9
f 1 9 5
f 1 5 7
f 1 7 2
f 2 7 10
f 2 10 6
f 3 8 4
f 4 8 11
f 4 11 9
f 5 9 11
f 5 11 10
f 5 10 7
f 6 10 11
f 6 11 8

