# https://github.com/mikedh/trimesh
v -1.65740936 0.92090978 -0.37492659
v -1.65740936 1.36920925 -0.37492659
v -1.15224705 1.23783511 -0.37492659
v -1.15224705 1.23776557 0.37492659
v -1.65740936 0.92090978 0.37492659
v -1.54975020 1.44981413 -0.37492659
v -1.65740936 1.36920925 0.37492659
v -1.15224705 1.63140115 -0.37492659
v -1.15224705 1.63140115 0.37492659
v -1.54975020 1.44981413 0.37492659
f 1 2 6
f 1 6 8
f 1 8 3
f 1 3 4
f 1 4 5
f 1 5 7
f 1 7 2
f 2 7 10
f 2 10 6
f 3 8 9
f 3 9 4
f 4 9 10
f 4 10 7
f 4 7 5
f 6 10 9
f 6 9 8
