mtllib material.mtl
usemtl mtl_ctb_handle
v -2.49483609 0.56997114 -0.37500000
v -2.39515591 0.00000000 -0.37500000
v -2.80608082 0.00000000 -0.37500000
v -2.39515591 0.00000000 0.37500000
v -2.49483609 0.56997114 0.37500000
v -2.80608082 0.00000000 0.37500000
v -2.06973314 1.06059146 -0.37500000
v -2.07741737 0.50262529 -0.37500000
v -1.65624893 0.92206544 -0.37500000
v -2.07741737 0.50262529 0.37500000
v -1.54977560 1.44985175 -0.37500000
v -1.15213895 1.23777139 -0.37500000
v -1.65624893 0.92206544 0.37500000
v -0.95914799 1.71955502 -0.37500000
v -0.59091204 1.43357015 -0.37500000
v -1.15213895 1.23777139 0.37500000
v -0.32477909 1.85757804 -0.37500000
v 0.00000000 1.50000000 -0.37500000
v -0.59091204 1.43357015 0.37500000
v 0.32477909 1.85757804 -0.37500000
v 0.59091204 1.43357015 -0.37500000
v 0.00000000 1.50000000 0.37500000
v 0.95914799 1.71955502 -0.37500000
v 1.15213895 1.23777139 -0.37500000
v 0.59091204 1.43357015 0.37500000
v 1.54977560 1.44985175 -0.37500000
v 1.65624893 0.92206544 -0.37500000
v 1.15213895 1.23777139 0.37500000
v 2.06973314 1.06059146 -0.37500000
v 2.07741737 0.50262529 -0.37500000
v 1.65624893 0.92206544 0.37500000
v 2.49483609 0.56997114 -0.37500000
v 2.39515591 0.00000000 -0.37500000
v 2.07741737 0.50262529 0.37500000
v 2.80608082 0.00000000 -0.37500000
v 2.80608082 0.00000000 0.37500000
v 2.39515591 0.00000000 0.37500000
v 2.49483609 0.56997114 0.37500000
v 2.06973314 1.06059146 0.37500000
v 1.54977560 1.44985175 0.37500000
v 0.95914799 1.71955502 0.37500000
v 0.32477909 1.85757804 0.37500000
v -0.32477909 1.85757804 0.37500000
v -0.95914799 1.71955502 0.37500000
v -1.54977560 1.44985175 0.37500000
v -2.06973314 1.06059146 0.37500000
f 1 2 3
f 4 3 2
f 5 1 3
f 5 3 6
f 4 6 3
f 7 8 2
f 4 2 8
f 1 7 2
f 7 9 8
f 10 8 9
f 4 8 10
f 11 12 9
f 13 9 12
f 7 11 9
f 10 9 13
f 14 15 12
f 16 12 15
f 11 14 12
f 13 12 16
f 17 18 15
f 19 15 18
f 14 17 15
f 16 15 19
f 20 21 18
f 22 18 21
f 17 20 18
f 19 18 22
f 23 24 21
f 25 21 24
f 20 23 21
f 22 21 25
f 26 27 24
f 28 24 27
f 23 26 24
f 25 24 28
f 29 30 27
f 31 27 30
f 26 29 27
f 28 27 31
f 32 33 30
f 34 30 33
f 29 32 30
f 31 30 34
f 32 35 33
f 36 33 35
f 37 33 36
f 34 33 37
f 36 35 32
f 38 32 29
f 36 32 38
f 39 29 26
f 38 29 39
f 40 26 23
f 39 26 40
f 41 23 20
f 40 23 41
f 42 20 17
f 41 20 42
f 43 17 14
f 42 17 43
f 44 14 11
f 43 14 44
f 45 11 7
f 44 11 45
f 46 7 1
f 45 7 46
f 46 1 5
f 4 5 6
f 10 46 5
f 4 10 5
f 13 45 46
f 10 13 46
f 16 44 45
f 13 16 45
f 19 43 44
f 16 19 44
f 22 42 43
f 19 22 43
f 25 41 42
f 22 25 42
f 28 40 41
f 25 28 41
f 31 39 40
f 28 31 40
f 37 38 39
f 34 37 39
f 31 34 39
f 37 36 38
