# https://github.com/mikedh/trimesh
v 2.18942118 0.92250260 0.37492659
v 2.07751524 0.92250260 0.37492659
v 2.49482679 0.56988199 0.37492659
v 2.18942118 0.92250260 -0.37492659
v 2.07751524 0.92250260 -0.37492659
v 2.07751524 0.50251835 0.37492659
v 2.80608082 0.00000010 0.37492659
v 2.49482679 0.56988199 -0.37492659
v 2.07751524 0.50251835 -0.37492659
v 2.39518837 0.00000010 0.37492659
v 2.80608082 0.00000010 -0.37492659
v 2.39518837 0.00000010 -0.37492659
f 1 2 6
f 1 6 10
f 1 10 7
f 1 7 3
f 1 3 8
f 1 8 4
f 1 4 5
f 1 5 2
f 2 5 9
f 2 9 6
f 3 7 11
f 3 11 8
f 4 8 11
f 4 11 12
f 4 12 9
f 4 9 5
f 6 9 12
f 6 12 10
f 7 10 12
f 7 12 11

