mtllib material.mtl
usemtl mtl_csm_latch_cover
v 0.03250000 0.00000000 0.01110000
v 0.03250000 0.00000000 0.01250000
v -0.03250000 0.00000000 0.01250000
v -0.03250000 0.00200000 0.01250000
v -0.03250000 0.00000000 0.01110000
v -0.03375061 0.00000000 0.01216419
v -0.03375061 0.00200000 0.01216419
v -0.03172218 0.00000000 0.01077782
v -0.01730000 0.00000000 0.00200000
v 0.03172218 0.00000000 0.01077782
v 0.03140000 0.00000000 0.01000000
v 0.02870000 0.00000000 0.00200000
v 0.01700000 0.00000000 -0.00770000
v 0.01700000 0.00000000 0.00170000
v 0.01708823 0.00000000 0.00191177
v -0.01708823 0.00000000 0.00191177
v 0.01730000 0.00000000 0.00200000
v 0.03327782 0.00000000 0.01077782
v 0.03375061 0.00000000 0.01216419
v 0.03250000 0.00200000 0.01250000
v -0.00174714 0.00200000 0.01250000
v -0.00146248 0.00204226 0.01250000
v 0.00174714 0.00200000 0.01250000
v -0.00124835 0.00214294 0.01250000
v -0.00134456 0.00208699 0.01250000
v 0.03466420 0.00000000 -0.01125061
v 0.03466420 0.00000000 0.01125061
v 0.03375061 0.00200000 0.01216419
v 0.03375061 0.00000000 -0.01216419
v 0.03360000 0.00000000 0.01000000
v 0.03500000 0.00000000 -0.01000000
v 0.03500000 0.00000000 0.01000000
v 0.03466420 0.00200000 0.01125061
v 0.03500000 0.00200000 0.01000000
v 0.03500000 0.00200000 -0.01000000
v 0.03466420 0.00200000 -0.01125061
v 0.03250000 0.00000000 -0.01110000
v 0.03250000 0.00000000 -0.01250000
v 0.03375061 0.00200000 -0.01216419
v 0.03360000 0.00000000 -0.01000000
v 0.03327782 0.00000000 -0.01077782
v -0.03250000 0.00000000 -0.01110000
v -0.03250000 0.00000000 -0.01250000
v 0.03250000 0.00200000 -0.01250000
v -0.03172218 0.00000000 -0.01077782
v -0.03140000 0.00000000 -0.01000000
v -0.02870000 0.00000000 -0.00800000
v 0.03172218 0.00000000 -0.01077782
v 0.02900000 0.00000000 -0.00770000
v 0.02870000 0.00000000 -0.00800000
v 0.01730000 0.00000000 -0.00800000
v -0.01700000 0.00000000 0.00170000
v 0.02891177 0.00000000 -0.00791177
v -0.01730000 0.00000000 -0.00800000
v -0.01708823 0.00000000 -0.00791177
v -0.01700000 0.00000000 -0.00770000
v -0.03327782 0.00000000 -0.01077782
v -0.03375061 0.00000000 -0.01216419
v -0.03250000 0.00200000 -0.01250000
v -0.03466420 0.00000000 0.01125061
v -0.03466420 0.00000000 -0.01125061
v -0.03375061 0.00200000 -0.01216419
v -0.03360000 0.00000000 -0.01000000
v -0.03500000 0.00000000 0.01000000
v -0.03500000 0.00000000 -0.01000000
v -0.03466420 0.00200000 -0.01125061
v -0.03500000 0.00200000 -0.01000000
v -0.03500000 0.00200000 0.01000000
v -0.03466420 0.00200000 0.01125061
v -0.03360000 0.00000000 0.01000000
v -0.03327782 0.00000000 0.01077782
v -0.03172218 0.00000000 0.00922218
v -0.03172218 0.00000000 -0.00922218
v -0.03140000 0.00075000 -0.01000000
v -0.03172218 0.00075000 -0.01077782
v -0.03140000 0.00000000 0.01000000
v -0.02900000 0.00000000 -0.00770000
v -0.02891177 0.00000000 -0.00791177
v -0.03148373 0.00075000 -0.01042095
v -0.03250000 0.00000000 0.00890000
v -0.03250000 0.00000000 -0.00890000
v -0.03172218 0.00075000 -0.00922218
v -0.03148373 0.00075000 -0.00957905
v -0.03327782 0.00000000 0.00922218
v -0.03327782 0.00000000 -0.00922218
v -0.03250000 0.00075000 -0.00890000
v -0.03207905 0.00075000 -0.00898373
v -0.03327782 0.00075000 -0.00922218
v -0.03292095 0.00075000 -0.00898373
v -0.03360000 0.00075000 -0.01000000
v -0.03351627 0.00075000 -0.00957905
v -0.03327782 0.00075000 -0.01077782
v -0.03351627 0.00075000 -0.01042095
v -0.03250000 0.00075000 -0.01110000
v -0.03292095 0.00075000 -0.01101627
v -0.03207905 0.00075000 -0.01101627
v -0.03140000 0.00075000 0.01000000
v -0.03172218 0.00075000 0.00922218
v -0.02870000 0.00000000 0.00200000
v -0.02891177 0.00000000 0.00191177
v -0.02900000 0.00000000 0.00170000
v -0.03148373 0.00075000 0.00957905
v -0.03172218 0.00075000 0.01077782
v -0.03148373 0.00075000 0.01042095
v -0.03250000 0.00075000 0.01110000
v -0.03207905 0.00075000 0.01101627
v -0.03327782 0.00075000 0.01077782
v -0.03292095 0.00075000 0.01101627
v -0.03360000 0.00075000 0.01000000
v -0.03351627 0.00075000 0.01042095
v -0.03327782 0.00075000 0.00922218
v -0.03351627 0.00075000 0.00957905
v -0.03250000 0.00075000 0.00890000
v -0.03292095 0.00075000 0.00898373
v -0.03207905 0.00075000 0.00898373
v 0.03360000 0.00075000 0.01000000
v 0.03327782 0.00000000 0.00922218
v 0.03327782 0.00075000 0.00922218
v 0.03351627 0.00075000 0.00957905
v 0.03327782 0.00075000 0.01077782
v 0.03351627 0.00075000 0.01042095
v 0.03250000 0.00075000 0.01110000
v 0.03292095 0.00075000 0.01101627
v 0.03172218 0.00075000 0.01077782
v 0.03207905 0.00075000 0.01101627
v 0.03172218 0.00000000 -0.00922218
v 0.03172218 0.00000000 0.00922218
v 0.03140000 0.00075000 0.01000000
v 0.03140000 0.00000000 -0.01000000
v 0.02900000 0.00000000 0.00170000
v 0.02891177 0.00000000 0.00191177
v 0.03148373 0.00075000 0.01042095
v 0.03250000 0.00000000 -0.00890000
v 0.03250000 0.00000000 0.00890000
v 0.03172218 0.00075000 0.00922218
v 0.03148373 0.00075000 0.00957905
v 0.03327782 0.00000000 -0.00922218
v 0.03250000 0.00075000 0.00890000
v 0.03207905 0.00075000 0.00898373
v 0.03292095 0.00075000 0.00898373
v 0.03360000 0.00075000 -0.01000000
v 0.03327782 0.00075000 -0.01077782
v 0.03351627 0.00075000 -0.01042095
v 0.03327782 0.00075000 -0.00922218
v 0.03351627 0.00075000 -0.00957905
v 0.03250000 0.00075000 -0.00890000
v 0.03292095 0.00075000 -0.00898373
v 0.03172218 0.00075000 -0.00922218
v 0.03207905 0.00075000 -0.00898373
v 0.03140000 0.00075000 -0.01000000
v 0.03148373 0.00075000 -0.00957905
v 0.03172218 0.00075000 -0.01077782
v 0.03148373 0.00075000 -0.01042095
v 0.03250000 0.00075000 -0.01110000
v 0.03207905 0.00075000 -0.01101627
v 0.03292095 0.00075000 -0.01101627
v 0.01700000 0.00170000 0.00170000
v 0.01708787 0.00170000 0.00191213
v 0.01708823 0.00000000 -0.00791177
v 0.01700000 0.00170000 -0.00770000
v 0.01708787 0.00170000 -0.00791213
v 0.01730000 0.00170000 -0.00800000
v 0.02870000 0.00170000 -0.00800000
v 0.02891213 0.00170000 -0.00791213
v 0.02900000 0.00170000 -0.00770000
v 0.02900000 0.00170000 0.00170000
v 0.02891213 0.00170000 0.00191213
v 0.02870000 0.00170000 0.00200000
v 0.01730000 0.00170000 0.00200000
v -0.01730000 0.00170000 0.00200000
v -0.01708787 0.00170000 0.00191213
v -0.02870000 0.00170000 0.00200000
v -0.02891213 0.00170000 0.00191213
v -0.02900000 0.00170000 0.00170000
v -0.02900000 0.00170000 -0.00770000
v -0.02891213 0.00170000 -0.00791213
v -0.02870000 0.00170000 -0.00800000
v -0.01730000 0.00170000 -0.00800000
v -0.01708787 0.00170000 -0.00791213
v -0.01700000 0.00170000 -0.00770000
v -0.01700000 0.00170000 0.00170000
v -0.02930000 0.00200000 -0.00770000
v -0.03059881 0.00200000 -0.01138130
v -0.03015000 0.00200000 -0.01000000
v -0.03015000 0.00200000 0.01000000
v -0.03059881 0.00200000 -0.00861870
v -0.02930000 0.00200000 0.00170000
v -0.01730000 0.00200000 -0.00830000
v -0.03177381 0.00200000 -0.01223498
v -0.02870000 0.00200000 -0.00830000
v -0.02912431 0.00200000 -0.00812422
v -0.03322619 0.00200000 -0.01223498
v -0.03440119 0.00200000 -0.01138130
v -0.03485000 0.00200000 -0.01000000
v -0.03440119 0.00200000 0.00861870
v -0.03440119 0.00200000 -0.00861870
v -0.03485000 0.00200000 0.01000000
v -0.03322619 0.00200000 0.00776502
v -0.03322619 0.00200000 -0.00776502
v -0.03177381 0.00200000 0.00776502
v -0.03177381 0.00200000 -0.00776502
v -0.03059881 0.00200000 0.00861870
v -0.03059881 0.00200000 0.01138130
v -0.01070000 0.00200000 0.01130000
v -0.02912422 0.00200000 0.00212431
v -0.01112425 0.00200000 0.01112428
v -0.03440119 0.00200000 0.01138130
v -0.03322619 0.00200000 0.01223498
v -0.03177381 0.00200000 0.01223498
v 0.03440119 0.00200000 -0.00861870
v 0.03440119 0.00200000 0.00861870
v 0.03485000 0.00200000 0.01000000
v 0.03440119 0.00200000 0.01138130
v 0.03485000 0.00200000 -0.01000000
v 0.03322619 0.00200000 -0.00776502
v 0.03322619 0.00200000 0.00776502
v 0.03177381 0.00200000 -0.00776502
v 0.03177381 0.00200000 0.00776502
v 0.03059881 0.00200000 -0.00861870
v 0.03059881 0.00200000 0.00861870
v 0.03015000 0.00200000 -0.01000000
v 0.03015000 0.00200000 0.01000000
v 0.01730000 0.00200000 0.00230000
v 0.03059881 0.00200000 0.01138130
v 0.02930000 0.00200000 -0.00770000
v 0.02930000 0.00200000 0.00170000
v 0.02870000 0.00200000 0.00230000
v 0.02912431 0.00200000 0.00212422
v 0.03177381 0.00200000 0.01223498
v 0.03322619 0.00200000 0.01223498
v 0.01130000 0.00200000 0.01070000
v 0.01687578 0.00200000 0.00212431
v 0.01130000 0.00200000 0.00330000
v 0.03440119 0.00200000 -0.01138130
v 0.03322619 0.00200000 -0.01223498
v 0.03177381 0.00200000 -0.01223498
v 0.03059881 0.00200000 -0.01138130
v 0.02870000 0.00200000 -0.00830000
v 0.02912422 0.00200000 -0.00812431
v -0.00570000 0.00200000 0.00330000
v -0.00272761 0.00200000 0.01136478
v -0.00305000 0.00200000 0.01000000
v -0.00283787 0.00208787 0.01000000
v -0.00320833 0.00200000 -0.00225532
v -0.00305000 0.00200000 0.00400000
v -0.00479167 0.00200000 -0.00200000
v -0.00354167 0.00200000 -0.00259574
v -0.00362500 0.00200000 -0.00302128
v -0.00429167 0.00200000 -0.00600000
v -0.00429167 0.00200000 -0.00200000
v -0.00570000 0.00200000 0.01070000
v -0.00243734 0.00208787 0.01145357
v -0.00630000 0.00200000 0.01130000
v -0.00587578 0.00200000 0.01112431
v 0.01730000 0.00200000 -0.00830000
v 0.01687569 0.00200000 -0.00812422
v 0.01670000 0.00200000 -0.00770000
v 0.01362500 0.00200000 -0.00600000
v -0.00795833 0.00200000 -0.00600000
v 0.01329167 0.00200000 -0.00600000
v 0.01287500 0.00200000 -0.00591489
v 0.01129167 0.00200000 -0.00600000
v 0.00870833 0.00200000 -0.00600000
v 0.01079167 0.00200000 -0.00600000
v 0.00795833 0.00200000 -0.00600000
v 0.00729167 0.00200000 -0.00600000
v 0.00429167 0.00200000 -0.00600000
v 0.00229167 0.00200000 -0.00600000
v 0.00162500 0.00200000 -0.00600000
v 0.00120833 0.00200000 -0.00591489
v 0.00087500 0.00200000 -0.00574468
v -0.00129167 0.00200000 -0.00591489
v -0.00170833 0.00200000 -0.00600000
v -0.00245833 0.00200000 -0.00600000
v -0.00287500 0.00200000 -0.00591489
v -0.00662500 0.00200000 -0.00600000
v -0.00479167 0.00200000 -0.00600000
v -0.00729167 0.00200000 -0.00600000
v 0.00275297 0.00200000 0.01131288
v 0.00630000 0.00200000 0.01130000
v 0.01070000 0.00200000 0.01130000
v 0.01112422 0.00200000 0.01112431
v 0.00243730 0.00208787 0.01145364
v 0.00146357 0.00204194 0.01250000
v -0.00114564 0.00230000 0.01250000
v 0.00134354 0.00208751 0.01250000
v 0.00305000 0.00200000 0.01000000
v 0.00570000 0.00200000 0.01070000
v 0.00305000 0.00200000 0.00400000
v 0.00283787 0.00208787 0.00400000
v 0.00587575 0.00200000 0.01112428
v 0.00283787 0.00208787 0.01000000
v 0.00270833 0.00200000 -0.00208511
v 0.00247205 0.00200000 0.00221378
v 0.00337500 0.00200000 -0.00259574
v 0.00304167 0.00200000 -0.00225532
v 0.00120833 0.00200000 -0.00208511
v 0.00094514 0.00200000 0.00110059
v 0.00229588 0.00208787 0.00233194
v 0.00229167 0.00200000 -0.00200000
v 0.00162500 0.00200000 -0.00200000
v -0.00062500 0.00200000 -0.00259574
v -0.00094545 0.00200000 0.00110069
v 0.00087695 0.00208787 0.00130103
v 0.00037500 0.00200000 -0.00293617
v 0.00029167 0.00200000 -0.00336170
v -0.00037500 0.00200000 -0.00463830
v 0.00054167 0.00200000 -0.00259574
v 0.00087500 0.00200000 -0.00225532
v -0.00045833 0.00200000 -0.00293617
v -0.00037500 0.00200000 -0.00336170
v -0.00245833 0.00200000 -0.00200000
v -0.00247226 0.00200000 0.00221407
v -0.00229588 0.00208787 0.00233194
v -0.00170833 0.00200000 -0.00200000
v -0.00129167 0.00200000 -0.00208511
v -0.00095833 0.00200000 -0.00225532
v -0.00087695 0.00208787 0.00130103
v -0.00287500 0.00200000 -0.00208511
v -0.00283787 0.00208787 0.00400000
v 0.02908787 0.00191213 -0.00770000
v 0.02889393 0.00191213 -0.00803590
v 0.02903590 0.00191213 -0.00789393
v 0.01730000 0.00191213 -0.00808787
v 0.02870000 0.00191213 -0.00808787
v 0.01696410 0.00191213 -0.00789393
v 0.01710607 0.00191213 -0.00803590
v 0.01487500 0.00200000 -0.00506383
v 0.01670000 0.00200000 0.00170000
v 0.01691213 0.00191213 0.00170000
v 0.01470833 0.00200000 -0.00540426
v 0.01437500 0.00200000 -0.00574468
v 0.01404167 0.00200000 -0.00591489
v 0.01691213 0.00191213 -0.00770000
v 0.01495833 0.00200000 -0.00200000
v 0.01495833 0.00200000 -0.00463830
v 0.01710607 0.00191213 0.00203590
v 0.01195833 0.00200000 -0.00200000
v 0.01245833 0.00200000 -0.00200000
v 0.01245833 0.00200000 -0.00463830
v 0.01254167 0.00200000 -0.00497872
v 0.01445833 0.00200000 -0.00200000
v 0.01696410 0.00191213 0.00189393
v 0.02870000 0.00191213 0.00208787
v 0.01730000 0.00191213 0.00208787
v 0.02903590 0.00191213 0.00189393
v 0.02889393 0.00191213 0.00203590
v 0.02908787 0.00191213 0.00170000
v -0.01687569 0.00200000 0.00212422
v -0.01730000 0.00200000 0.00230000
v -0.01730000 0.00191213 0.00208787
v -0.02870000 0.00200000 0.00230000
v -0.01670000 0.00200000 0.00170000
v -0.01696410 0.00191213 0.00189393
v -0.01710607 0.00191213 0.00203590
v -0.01130000 0.00200000 0.01070000
v -0.01670000 0.00200000 -0.00770000
v -0.01691213 0.00191213 -0.00770000
v -0.01691213 0.00191213 0.00170000
v -0.01495833 0.00200000 -0.00463830
v -0.01687578 0.00200000 -0.00812431
v -0.01487500 0.00200000 -0.00293617
v -0.01495833 0.00200000 -0.00336170
v -0.01162500 0.00200000 -0.00600000
v -0.01710607 0.00191213 -0.00803590
v -0.01362500 0.00200000 -0.00600000
v -0.01404167 0.00200000 -0.00591489
v -0.01437500 0.00200000 -0.00574468
v -0.01470833 0.00200000 -0.00540426
v -0.01487500 0.00200000 -0.00506383
v -0.01696410 0.00191213 -0.00789393
v -0.02870000 0.00191213 -0.00808787
v -0.01095833 0.00200000 -0.00600000
v -0.01730000 0.00191213 -0.00808787
v -0.02903590 0.00191213 -0.00789393
v -0.02889393 0.00191213 -0.00803590
v -0.02908787 0.00191213 0.00170000
v -0.02908787 0.00191213 -0.00770000
v -0.02889393 0.00191213 0.00203590
v -0.02903590 0.00191213 0.00189393
v -0.02870000 0.00191213 0.00208787
v -0.00630000 0.00208787 0.01108787
v -0.01089393 0.00208787 0.01103590
v -0.01070000 0.00208787 0.01108787
v -0.00596410 0.00208787 0.01089393
v -0.00610607 0.00208787 0.01103590
v -0.00591213 0.00208787 0.00330000
v -0.00591213 0.00208787 0.01070000
v -0.00662500 0.00200000 -0.00200000
v -0.00587575 0.00200000 0.00287572
v -0.00630000 0.00200000 0.00270000
v -0.00610607 0.00208787 0.00296410
v -0.00596410 0.00208787 0.00310607
v -0.00795833 0.00200000 -0.00200000
v -0.01070000 0.00200000 0.00270000
v -0.01070000 0.00208787 0.00291213
v -0.00729167 0.00200000 -0.00200000
v -0.00630000 0.00208787 0.00291213
v -0.01095833 0.00200000 -0.00200000
v -0.01112422 0.00200000 0.00287569
v -0.01130000 0.00200000 0.00330000
v -0.01103590 0.00208787 0.00310607
v -0.01089393 0.00208787 0.00296410
v -0.01108787 0.00208787 0.01070000
v -0.01108787 0.00208787 0.00330000
v -0.01162500 0.00200000 -0.00200000
v -0.01362500 0.00200000 -0.00200000
v -0.01404167 0.00200000 -0.00208511
v -0.01470833 0.00200000 -0.00259574
v -0.01437500 0.00200000 -0.00225532
v -0.01103590 0.00208787 0.01089393
v 0.00429167 0.00200000 -0.00548936
v 0.00570000 0.00200000 0.00330000
v 0.00591213 0.00208787 0.01070000
v 0.00587578 0.00200000 0.00287569
v 0.00596410 0.00208787 0.00310607
v 0.00591213 0.00208787 0.00330000
v 0.00362500 0.00200000 -0.00463830
v 0.00354167 0.00200000 -0.00293617
v 0.00362500 0.00200000 -0.00336170
v 0.00610607 0.00208787 0.01103590
v 0.00596410 0.00208787 0.01089393
v 0.01070000 0.00208787 0.01108787
v 0.00630000 0.00208787 0.01108787
v 0.01103590 0.00208787 0.01089393
v 0.01089393 0.00208787 0.01103590
v 0.01108787 0.00208787 0.00330000
v 0.01108787 0.00208787 0.01070000
v 0.01129167 0.00200000 -0.00200000
v 0.01112425 0.00200000 0.00287572
v 0.01054167 0.00200000 -0.00200000
v 0.01070000 0.00200000 0.00270000
v 0.01089393 0.00208787 0.00296410
v 0.01103590 0.00208787 0.00310607
v 0.00679167 0.00200000 -0.00200000
v 0.00630000 0.00200000 0.00270000
v 0.00630000 0.00208787 0.00291213
v 0.00845833 0.00200000 -0.00200000
v 0.00795833 0.00200000 -0.00200000
v 0.00729167 0.00200000 -0.00200000
v 0.00845833 0.00200000 -0.00540426
v 0.01070000 0.00208787 0.00291213
v 0.00610607 0.00208787 0.00296410
v 0.01195833 0.00200000 -0.00463830
v 0.01195833 0.00180000 -0.00463830
v 0.01204167 0.00200000 -0.00506383
v 0.01204167 0.00180000 -0.00506383
v 0.01195833 0.00180000 -0.00200000
v 0.01245833 0.00180000 -0.00200000
v 0.01245833 0.00180000 -0.00463830
v 0.01270833 0.00200000 -0.00523404
v 0.01254167 0.00180000 -0.00497872
v 0.01295833 0.00200000 -0.00540426
v 0.01270833 0.00180000 -0.00523404
v 0.01329167 0.00200000 -0.00548936
v 0.01295833 0.00180000 -0.00540426
v 0.01362500 0.00200000 -0.00548936
v 0.01329167 0.00180000 -0.00548936
v 0.01395833 0.00200000 -0.00540426
v 0.01362500 0.00180000 -0.00548936
v 0.01420833 0.00200000 -0.00523404
v 0.01395833 0.00180000 -0.00540426
v 0.01437500 0.00200000 -0.00497872
v 0.01420833 0.00180000 -0.00523404
v 0.01445833 0.00200000 -0.00463830
v 0.01437500 0.00180000 -0.00497872
v 0.01445833 0.00180000 -0.00463830
v 0.01445833 0.00180000 -0.00200000
v 0.01495833 0.00180000 -0.00200000
v 0.01495833 0.00180000 -0.00463830
v 0.01487500 0.00180000 -0.00506383
v 0.01470833 0.00180000 -0.00540426
v 0.01437500 0.00180000 -0.00574468
v 0.01404167 0.00180000 -0.00591489
v 0.01362500 0.00180000 -0.00600000
v 0.01329167 0.00180000 -0.00600000
v 0.01254167 0.00200000 -0.00574468
v 0.01287500 0.00180000 -0.00591489
v 0.01220833 0.00200000 -0.00540426
v 0.01254167 0.00180000 -0.00574468
v 0.01220833 0.00180000 -0.00540426
v 0.01079167 0.00200000 -0.00251064
v 0.01079167 0.00180000 -0.00600000
v 0.01129167 0.00180000 -0.00600000
v 0.01079167 0.00180000 -0.00251064
v 0.00870833 0.00180000 -0.00600000
v 0.00795833 0.00180000 -0.00600000
v 0.00795833 0.00180000 -0.00200000
v 0.00845833 0.00180000 -0.00200000
v 0.00845833 0.00180000 -0.00540426
v 0.01054167 0.00180000 -0.00200000
v 0.01129167 0.00180000 -0.00200000
v 0.00729167 0.00180000 -0.00200000
v 0.00679167 0.00180000 -0.00200000
v 0.00729167 0.00180000 -0.00600000
v 0.00270833 0.00200000 -0.00591489
v 0.00429167 0.00180000 -0.00600000
v 0.00679167 0.00200000 -0.00548936
v 0.00429167 0.00180000 -0.00548936
v 0.00354167 0.00200000 -0.00506383
v 0.00337500 0.00200000 -0.00540426
v 0.00304167 0.00200000 -0.00574468
v 0.00679167 0.00180000 -0.00548936
v 0.00229167 0.00180000 -0.00200000
v 0.00162500 0.00180000 -0.00200000
v 0.00270833 0.00180000 -0.00208511
v 0.00304167 0.00180000 -0.00225532
v 0.00337500 0.00180000 -0.00259574
v 0.00354167 0.00180000 -0.00293617
v 0.00362500 0.00180000 -0.00336170
v 0.00362500 0.00180000 -0.00463830
v 0.00354167 0.00180000 -0.00506383
v 0.00337500 0.00180000 -0.00540426
v 0.00304167 0.00180000 -0.00574468
v 0.00270833 0.00180000 -0.00591489
v 0.00229167 0.00180000 -0.00600000
v 0.00162500 0.00180000 -0.00600000
v 0.00120833 0.00180000 -0.00591489
v 0.00054167 0.00200000 -0.00540426
v 0.00087500 0.00180000 -0.00574468
v -0.00095833 0.00200000 -0.00574468
v 0.00037500 0.00200000 -0.00506383
v 0.00054167 0.00180000 -0.00540426
v 0.00029167 0.00200000 -0.00463830
v 0.00037500 0.00180000 -0.00506383
v -0.00045833 0.00200000 -0.00506383
v 0.00029167 0.00180000 -0.00463830
v -0.00062500 0.00200000 -0.00540426
v 0.00029167 0.00180000 -0.00336170
v 0.00037500 0.00180000 -0.00293617
v 0.00054167 0.00180000 -0.00259574
v 0.00087500 0.00180000 -0.00225532
v 0.00120833 0.00180000 -0.00208511
v 0.00162500 0.00200000 -0.00548936
v 0.00162500 0.00200000 -0.00251064
v 0.00229167 0.00200000 -0.00251064
v 0.00229167 0.00180000 -0.00251064
v 0.00229167 0.00200000 -0.00548936
v 0.00262500 0.00200000 -0.00259574
v 0.00262500 0.00180000 -0.00259574
v 0.00129167 0.00200000 -0.00540426
v 0.00129167 0.00200000 -0.00259574
v 0.00162500 0.00180000 -0.00251064
v 0.00104167 0.00200000 -0.00523404
v 0.00104167 0.00200000 -0.00276596
v 0.00129167 0.00180000 -0.00259574
v 0.00087500 0.00200000 -0.00497872
v 0.00087500 0.00200000 -0.00302128
v 0.00104167 0.00180000 -0.00276596
v 0.00079167 0.00200000 -0.00463830
v 0.00079167 0.00200000 -0.00336170
v 0.00087500 0.00180000 -0.00302128
v 0.00079167 0.00180000 -0.00336170
v 0.00079167 0.00180000 -0.00463830
v 0.00087500 0.00180000 -0.00497872
v 0.00104167 0.00180000 -0.00523404
v 0.00129167 0.00180000 -0.00540426
v 0.00162500 0.00180000 -0.00548936
v 0.00262500 0.00200000 -0.00540426
v 0.00229167 0.00180000 -0.00548936
v 0.00287500 0.00200000 -0.00276596
v 0.00287500 0.00200000 -0.00523404
v 0.00262500 0.00180000 -0.00540426
v 0.00304167 0.00200000 -0.00302128
v 0.00304167 0.00200000 -0.00497872
v 0.00287500 0.00180000 -0.00523404
v 0.00312500 0.00200000 -0.00336170
v 0.00312500 0.00200000 -0.00463830
v 0.00304167 0.00180000 -0.00497872
v 0.00312500 0.00180000 -0.00463830
v 0.00312500 0.00180000 -0.00336170
v 0.00304167 0.00180000 -0.00302128
v 0.00287500 0.00180000 -0.00276596
v -0.00312500 0.00200000 -0.00302128
v -0.00312500 0.00200000 -0.00497872
v -0.00362500 0.00200000 -0.00497872
v -0.00362500 0.00180000 -0.00497872
v -0.00354167 0.00200000 -0.00540426
v -0.00354167 0.00180000 -0.00540426
v -0.00304167 0.00200000 -0.00276596
v -0.00304167 0.00200000 -0.00523404
v -0.00312500 0.00180000 -0.00497872
v -0.00279167 0.00200000 -0.00259574
v -0.00279167 0.00200000 -0.00540426
v -0.00304167 0.00180000 -0.00523404
v -0.00245833 0.00200000 -0.00251064
v -0.00245833 0.00200000 -0.00548936
v -0.00279167 0.00180000 -0.00540426
v -0.00170833 0.00200000 -0.00251064
v -0.00170833 0.00200000 -0.00548936
v -0.00245833 0.00180000 -0.00548936
v -0.00137500 0.00200000 -0.00259574
v -0.00137500 0.00200000 -0.00540426
v -0.00170833 0.00180000 -0.00548936
v -0.00112500 0.00200000 -0.00276596
v -0.00112500 0.00200000 -0.00523404
v -0.00137500 0.00180000 -0.00540426
v -0.00095833 0.00200000 -0.00302128
v -0.00095833 0.00200000 -0.00497872
v -0.00112500 0.00180000 -0.00523404
v -0.00087500 0.00200000 -0.00336170
v -0.00087500 0.00200000 -0.00463830
v -0.00095833 0.00180000 -0.00497872
v -0.00087500 0.00180000 -0.00463830
v -0.00087500 0.00180000 -0.00336170
v -0.00095833 0.00180000 -0.00302128
v -0.00112500 0.00180000 -0.00276596
v -0.00137500 0.00180000 -0.00259574
v -0.00170833 0.00180000 -0.00251064
v -0.00245833 0.00180000 -0.00251064
v -0.00279167 0.00180000 -0.00259574
v -0.00304167 0.00180000 -0.00276596
v -0.00312500 0.00180000 -0.00302128
v -0.00362500 0.00180000 -0.00302128
v -0.00354167 0.00180000 -0.00259574
v -0.00320833 0.00180000 -0.00225532
v -0.00287500 0.00180000 -0.00208511
v -0.00245833 0.00180000 -0.00200000
v -0.00170833 0.00180000 -0.00200000
v -0.00129167 0.00180000 -0.00208511
v -0.00095833 0.00180000 -0.00225532
v -0.00062500 0.00180000 -0.00259574
v -0.00045833 0.00180000 -0.00293617
v -0.00037500 0.00180000 -0.00336170
v -0.00037500 0.00180000 -0.00463830
v -0.00045833 0.00180000 -0.00506383
v -0.00062500 0.00180000 -0.00540426
v -0.00095833 0.00180000 -0.00574468
v -0.00129167 0.00180000 -0.00591489
v -0.00170833 0.00180000 -0.00600000
v -0.00245833 0.00180000 -0.00600000
v -0.00320833 0.00200000 -0.00574468
v -0.00287500 0.00180000 -0.00591489
v -0.00320833 0.00180000 -0.00574468
v -0.00479167 0.00200000 -0.00463830
v -0.00479167 0.00180000 -0.00600000
v -0.00429167 0.00180000 -0.00600000
v -0.00537500 0.00200000 -0.00404255
v -0.00479167 0.00180000 -0.00463830
v -0.00537500 0.00180000 -0.00404255
v -0.00662500 0.00180000 -0.00600000
v -0.00579167 0.00200000 -0.00361702
v -0.00729167 0.00180000 -0.00600000
v -0.00579167 0.00180000 -0.00361702
v -0.00729167 0.00180000 -0.00200000
v -0.00479167 0.00200000 -0.00395745
v -0.00662500 0.00180000 -0.00200000
v -0.00479167 0.00180000 -0.00395745
v -0.00479167 0.00180000 -0.00200000
v -0.00429167 0.00180000 -0.00200000
v -0.00845833 0.00200000 -0.00412766
v -0.00845833 0.00200000 -0.00548936
v -0.01095833 0.00200000 -0.00548936
v -0.01095833 0.00180000 -0.00548936
v -0.01062500 0.00200000 -0.00412766
v -0.01062500 0.00200000 -0.00361702
v -0.01095833 0.00200000 -0.00251064
v -0.01095833 0.00180000 -0.00600000
v -0.00845833 0.00180000 -0.00548936
v -0.00845833 0.00180000 -0.00412766
v -0.01062500 0.00180000 -0.00412766
v -0.00845833 0.00200000 -0.00251064
v -0.00845833 0.00200000 -0.00361702
v -0.01062500 0.00180000 -0.00361702
v -0.00845833 0.00180000 -0.00361702
v -0.00845833 0.00180000 -0.00251064
v -0.01095833 0.00180000 -0.00251064
v -0.01095833 0.00180000 -0.00200000
v -0.00795833 0.00180000 -0.00200000
v -0.00795833 0.00180000 -0.00600000
v -0.01362500 0.00180000 -0.00200000
v -0.01404167 0.00180000 -0.00208511
v -0.01162500 0.00180000 -0.00200000
v -0.01162500 0.00180000 -0.00600000
v -0.01362500 0.00180000 -0.00600000
v -0.01404167 0.00180000 -0.00591489
v -0.01437500 0.00180000 -0.00574468
v -0.01470833 0.00180000 -0.00540426
v -0.01487500 0.00180000 -0.00506383
v -0.01495833 0.00180000 -0.00463830
v -0.01495833 0.00180000 -0.00336170
v -0.01487500 0.00180000 -0.00293617
v -0.01470833 0.00180000 -0.00259574
v -0.01437500 0.00180000 -0.00225532
v -0.01362500 0.00200000 -0.00548936
v -0.01362500 0.00200000 -0.00251064
v -0.01212500 0.00200000 -0.00251064
v -0.01212500 0.00180000 -0.00251064
v -0.01212500 0.00200000 -0.00548936
v -0.01212500 0.00180000 -0.00548936
v -0.01395833 0.00200000 -0.00540426
v -0.01395833 0.00200000 -0.00259574
v -0.01362500 0.00180000 -0.00251064
v -0.01420833 0.00200000 -0.00523404
v -0.01420833 0.00200000 -0.00276596
v -0.01395833 0.00180000 -0.00259574
v -0.01437500 0.00200000 -0.00497872
v -0.01437500 0.00200000 -0.00302128
v -0.01420833 0.00180000 -0.00276596
v -0.01445833 0.00200000 -0.00463830
v -0.01445833 0.00200000 -0.00336170
v -0.01437500 0.00180000 -0.00302128
v -0.01445833 0.00180000 -0.00336170
v -0.01445833 0.00180000 -0.00463830
v -0.01437500 0.00180000 -0.00497872
v -0.01420833 0.00180000 -0.00523404
v -0.01395833 0.00180000 -0.00540426
v -0.01362500 0.00180000 -0.00548936
v -0.00114564 0.00290000 0.01250000
v -0.00231280 0.00290000 0.01148778
v -0.00182894 0.00230000 0.01205365
v 0.00114564 0.00230000 0.01250000
v 0.00114564 0.00290000 0.01250000
v 0.00112685 0.00310924 0.01241498
v 0.00124985 0.00214176 0.01250000
v -0.00112631 0.00311213 0.01241213
v 0.00184829 0.00230000 0.01203626
v 0.00228438 0.00290000 0.01153105
v -0.00234289 0.00230000 0.01143993
v 0.00600000 0.00230000 0.00330000
v 0.00600000 0.00497746 0.00846946
v 0.00600000 0.00450000 0.00700000
v 0.01100000 0.00450000 0.00700000
v 0.00600000 0.00497746 0.00553054
v 0.01100000 0.00497746 0.00553054
v 0.00600000 0.00700000 0.01070000
v 0.00600000 0.00622746 0.00937764
v 0.01100000 0.00497746 0.00846946
v 0.00600000 0.00230000 0.01070000
v 0.00600000 0.00777254 0.00937764
v 0.01100000 0.00622746 0.00937764
v 0.00600000 0.00884432 0.01020722
v 0.00600000 0.00902254 0.00846946
v 0.01100000 0.00777254 0.00937764
v 0.00600000 0.01020233 0.00885243
v 0.00600000 0.00950000 0.00700000
v 0.01100000 0.00902254 0.00846946
v 0.00600000 0.00884437 0.00379281
v 0.00600000 0.00902254 0.00553054
v 0.01100000 0.00950000 0.00700000
v 0.00600000 0.00777254 0.00462236
v 0.01100000 0.00902254 0.00553054
v 0.00600000 0.00700000 0.00330000
v 0.00600000 0.00622746 0.00462236
v 0.01100000 0.00777254 0.00462236
v 0.01100000 0.00622746 0.00462236
v 0.00608787 0.00700000 0.00308787
v 0.00608787 0.00230000 0.00308787
v 0.00600000 0.01020237 0.00514765
v 0.00608787 0.00895607 0.00361199
v 0.00600000 0.01069941 0.00700005
v 0.00608787 0.01038801 0.00504393
v 0.00608787 0.01038801 0.00895607
v 0.00608787 0.01091213 0.00700000
v 0.00608787 0.00895607 0.01038801
v 0.00608787 0.00230000 0.01091213
v 0.00608787 0.00700000 0.01091213
v 0.00630000 0.00230000 0.01100000
v 0.01070000 0.00230000 0.01100000
v 0.01070000 0.00700000 0.01100000
v 0.01091213 0.00230000 0.01091213
v 0.00630000 0.00700000 0.01100000
v 0.01070000 0.00900000 0.01046410
v 0.01091213 0.00895607 0.01038801
v 0.01091213 0.00700000 0.01091213
v 0.00630000 0.00900001 0.01046410
v 0.01100000 0.00230000 0.01070000
v 0.01100000 0.00700000 0.00330000
v 0.01100000 0.00230000 0.00330000
v 0.01100000 0.00884430 0.00379277
v 0.01100000 0.01020233 0.00514757
v 0.01100000 0.00884439 0.01020718
v 0.01100000 0.00700000 0.01070000
v 0.01100000 0.01020237 0.00885235
v 0.01100000 0.01069941 0.00699996
v 0.01091213 0.01038801 0.00895607
v 0.01091213 0.01038801 0.00504393
v 0.01091213 0.01091213 0.00700000
v 0.01091213 0.00895607 0.00361199
v 0.01091213 0.00230000 0.00308787
v 0.01091213 0.00700000 0.00308787
v 0.00630000 0.00700000 0.00300000
v 0.01070000 0.00700000 0.00300000
v 0.01070000 0.00230000 0.00300000
v 0.00630000 0.00230000 0.00300000
v 0.00630000 0.00900000 0.00353590
v 0.01070000 0.00900001 0.00353590
v -0.01100000 0.00230000 0.00330000
v -0.01100000 0.00497746 0.00846946
v -0.01100000 0.00450000 0.00700000
v -0.00600000 0.00450000 0.00700000
v -0.01100000 0.00497746 0.00553054
v -0.00600000 0.00497746 0.00553054
v -0.01100000 0.00700000 0.01070000
v -0.01100000 0.00622746 0.00937764
v -0.00600000 0.00497746 0.00846946
v -0.01100000 0.00230000 0.01070000
v -0.01100000 0.00777254 0.00937764
v -0.00600000 0.00622746 0.00937764
v -0.01100000 0.00884432 0.01020722
v -0.01100000 0.00902254 0.00846946
v -0.00600000 0.00777254 0.00937764
v -0.01100000 0.01020233 0.00885243
v -0.01100000 0.00950000 0.00700000
v -0.00600000 0.00902254 0.00846946
v -0.01100000 0.00884437 0.00379281
v -0.01100000 0.00902254 0.00553054
v -0.00600000 0.00950000 0.00700000
v -0.01100000 0.00777254 0.00462236
v -0.00600000 0.00902254 0.00553054
v -0.01100000 0.00700000 0.00330000
v -0.01100000 0.00622746 0.00462236
v -0.00600000 0.00777254 0.00462236
v -0.00600000 0.00622746 0.00462236
v -0.01091213 0.00230000 0.01091213
v -0.01091213 0.00700000 0.00308787
v -0.01091213 0.00230000 0.00308787
v -0.01100000 0.01020237 0.00514765
v -0.01091213 0.00895607 0.00361199
v -0.01100000 0.01069941 0.00700005
v -0.01091213 0.01038801 0.00504393
v -0.01091213 0.01038801 0.00895607
v -0.01091213 0.01091213 0.00700000
v -0.01091213 0.00895607 0.01038801
v -0.01091213 0.00700000 0.01091213
v -0.00630000 0.00700000 0.01100000
v -0.01070000 0.00700000 0.01100000
v -0.01070000 0.00230000 0.01100000
v -0.00630000 0.00230000 0.01100000
v -0.00630000 0.00900000 0.01046410
v -0.01070000 0.00900001 0.01046410
v -0.00608787 0.00230000 0.01091213
v -0.00608787 0.00895607 0.01038801
v -0.00608787 0.00700000 0.01091213
v -0.00600000 0.00230000 0.01070000
v -0.00600000 0.00700000 0.00330000
v -0.00600000 0.00230000 0.00330000
v -0.00600000 0.00884430 0.00379277
v -0.00600000 0.01020233 0.00514757
v -0.00600000 0.00884439 0.01020718
v -0.00600000 0.00700000 0.01070000
v -0.00600000 0.01020237 0.00885235
v -0.00600000 0.01069941 0.00699996
v -0.00608787 0.01038801 0.00895607
v -0.00608787 0.01038801 0.00504393
v -0.00608787 0.01091213 0.00700000
v -0.00608787 0.00895607 0.00361199
v -0.00608787 0.00230000 0.00308787
v -0.00608787 0.00700000 0.00308787
v -0.01070000 0.00700000 0.00300000
v -0.00630000 0.00700000 0.00300000
v -0.00630000 0.00230000 0.00300000
v -0.01070000 0.00230000 0.00300000
v -0.01070000 0.00900000 0.00353590
v -0.00630000 0.00900001 0.00353590
v -0.01070000 0.01046410 0.00500000
v -0.00630000 0.01046410 0.00500000
v -0.01070000 0.01100000 0.00700000
v -0.00630000 0.01100000 0.00700000
v -0.01070000 0.01046410 0.00900000
v -0.00630000 0.01046410 0.00900000
v 0.00630000 0.01046410 0.00500000
v 0.01070000 0.01046410 0.00500000
v 0.00630000 0.01100000 0.00700000
v 0.01070000 0.01100000 0.00700000
v 0.00630000 0.01046410 0.00900000
v 0.01070000 0.01046410 0.00900000
v -0.00141456 0.00160000 0.00502880
v 0.00141456 0.00160000 0.00502880
v 0.00175000 0.00160000 0.00400000
v 0.00175000 0.00320000 0.00400000
v -0.00175000 0.00160000 0.00400000
v 0.00141456 0.00160000 0.00297120
v 0.00141456 0.00320000 0.00297120
v -0.00054228 0.00160000 0.00566345
v 0.00054228 0.00160000 0.00566345
v 0.00141456 0.00320000 0.00502880
v 0.00054228 0.00320000 0.00566345
v -0.00054228 0.00320000 0.00566345
v -0.00141456 0.00320000 0.00502880
v -0.00141456 0.00160000 0.00297120
v -0.00175000 0.00320000 0.00400000
v 0.00054228 0.00160000 0.00233655
v -0.00054228 0.00160000 0.00233655
v -0.00141456 0.00320000 0.00297120
v -0.00054228 0.00320000 0.00233655
v 0.00054228 0.00320000 0.00233655
v -0.00141456 0.00160000 0.01102880
v 0.00141456 0.00160000 0.01102880
v 0.00175000 0.00160000 0.01000000
v 0.00175000 0.00320000 0.01000000
v -0.00175000 0.00160000 0.01000000
v 0.00141456 0.00160000 0.00897120
v 0.00141456 0.00320000 0.00897120
v -0.00054228 0.00160000 0.01166345
v 0.00054228 0.00160000 0.01166345
v 0.00141456 0.00320000 0.01102880
v 0.00054228 0.00320000 0.01166345
v -0.00054228 0.00320000 0.01166345
v -0.00141456 0.00320000 0.01102880
v -0.00141456 0.00160000 0.00897120
v -0.00175000 0.00320000 0.01000000
v 0.00054228 0.00160000 0.00833655
v -0.00054228 0.00160000 0.00833655
v -0.00141456 0.00320000 0.00897120
v -0.00054228 0.00320000 0.00833655
v 0.00054228 0.00320000 0.00833655
v -0.00245000 0.00320000 0.00400000
v -0.00245000 0.00320000 0.01000000
v -0.00198537 0.00320000 0.00256445
v 0.00075902 0.00320000 0.00167054
v 0.00198538 0.00320000 0.00256447
v 0.00245000 0.00320000 0.00400000
v -0.00207678 0.00320000 0.01129968
v 0.00245000 0.00320000 0.01000000
v 0.00205360 0.00320000 0.01133654
v 0.00234081 0.00320000 0.01072528
v -0.00107819 0.00320000 0.01220000
v -0.00266213 0.00311213 0.00400000
v -0.00075898 0.00320000 0.00167053
v -0.00215371 0.00311213 0.00243524
v -0.00082264 0.00311213 0.00146816
v 0.00215371 0.00311213 0.00243524
v 0.00082264 0.00311213 0.00146816
v 0.00266213 0.00311213 0.01000000
v 0.00266213 0.00311213 0.00400000
v 0.00224567 0.00311213 0.01142966
v 0.00107819 0.00320000 0.01220000
v -0.00224559 0.00311213 0.01142978
v -0.00266213 0.00311213 0.01000000
v -0.00275000 0.00230000 0.01000000
v -0.00275000 0.00290000 0.01000000
v -0.00275000 0.00290000 0.00400000
v -0.00275000 0.00230000 0.00400000
v -0.00222480 0.00290000 0.00238359
v -0.00222480 0.00230000 0.00238359
v 0.00237106 0.00230000 0.01139304
v 0.00262028 0.00290000 0.01083465
v 0.00275000 0.00230000 0.01000000
v 0.00275000 0.00290000 0.01000000
v 0.00275000 0.00230000 0.00400000
v 0.00275000 0.00290000 0.00400000
v 0.00222480 0.00230000 0.00238359
v 0.00222480 0.00290000 0.00238359
v 0.00084979 0.00230000 0.00138459
v 0.00084980 0.00290000 0.00138459
v -0.00084980 0.00230000 0.00138459
v -0.00084980 0.00290000 0.00138459
f 1 2 3
f 4 3 2
f 5 3 6
f 7 6 3
f 5 8 3
f 9 3 8
f 10 1 3
f 11 10 3
f 12 11 3
f 13 14 3
f 15 3 14
f 16 13 3
f 17 12 3
f 15 17 3
f 16 3 9
f 7 3 4
f 18 19 2
f 20 2 19
f 1 18 2
f 4 2 21
f 22 21 2
f 23 2 20
f 24 2 23
f 25 22 2
f 24 25 2
f 26 27 19
f 28 19 27
f 29 26 19
f 30 29 19
f 18 30 19
f 20 19 28
f 31 32 27
f 33 27 32
f 26 31 27
f 28 27 33
f 34 32 31
f 33 32 34
f 35 31 26
f 34 31 35
f 36 26 29
f 35 26 36
f 37 38 29
f 39 29 38
f 40 29 30
f 41 29 40
f 41 37 29
f 36 29 39
f 42 43 38
f 44 38 43
f 45 38 46
f 47 46 38
f 45 42 38
f 37 48 38
f 49 38 48
f 50 51 38
f 52 38 51
f 53 50 38
f 49 53 38
f 54 47 38
f 55 54 38
f 56 55 38
f 52 56 38
f 39 38 44
f 57 58 43
f 59 43 58
f 42 57 43
f 44 43 59
f 60 61 58
f 62 58 61
f 6 60 58
f 63 6 58
f 57 63 58
f 59 58 62
f 64 65 61
f 66 61 65
f 60 64 61
f 62 61 66
f 67 65 64
f 66 65 67
f 68 64 60
f 67 64 68
f 69 60 6
f 68 60 69
f 70 6 63
f 71 5 6
f 70 71 6
f 69 6 7
f 72 73 46
f 74 46 73
f 75 45 46
f 72 46 76
f 77 76 46
f 78 77 46
f 47 78 46
f 79 75 46
f 74 79 46
f 80 81 73
f 82 73 81
f 72 80 73
f 83 74 73
f 82 83 73
f 84 85 81
f 86 81 85
f 80 84 81
f 87 82 81
f 86 87 81
f 70 63 85
f 88 85 63
f 84 70 85
f 89 86 85
f 88 89 85
f 90 63 57
f 91 63 90
f 91 88 63
f 92 57 42
f 93 90 57
f 92 93 57
f 94 42 45
f 95 92 42
f 94 95 42
f 96 94 45
f 75 96 45
f 9 8 76
f 97 76 8
f 98 72 76
f 99 9 76
f 100 99 76
f 101 100 76
f 77 101 76
f 102 98 76
f 97 102 76
f 103 8 5
f 104 97 8
f 103 104 8
f 105 5 71
f 106 103 5
f 105 106 5
f 107 71 70
f 108 105 71
f 107 108 71
f 109 70 84
f 110 70 109
f 110 107 70
f 111 84 80
f 112 109 84
f 111 112 84
f 113 80 72
f 114 111 80
f 113 114 80
f 115 113 72
f 98 115 72
f 116 30 18
f 40 30 117
f 118 117 30
f 119 118 30
f 116 119 30
f 120 18 1
f 121 116 18
f 120 121 18
f 122 1 10
f 123 120 1
f 122 123 1
f 124 10 11
f 125 122 10
f 124 125 10
f 126 127 11
f 128 11 127
f 129 126 11
f 130 129 11
f 131 130 11
f 12 131 11
f 132 11 128
f 132 124 11
f 133 134 127
f 135 127 134
f 126 133 127
f 136 128 127
f 135 136 127
f 137 117 134
f 138 134 117
f 133 137 134
f 139 135 134
f 138 139 134
f 137 40 117
f 140 138 117
f 118 140 117
f 141 40 137
f 142 41 40
f 143 142 40
f 141 143 40
f 144 137 133
f 145 141 137
f 144 145 137
f 146 133 126
f 147 144 133
f 146 147 133
f 148 126 129
f 149 146 126
f 148 149 126
f 49 48 129
f 150 129 48
f 130 49 129
f 151 129 150
f 151 148 129
f 152 48 37
f 153 150 48
f 152 153 48
f 154 37 41
f 155 152 37
f 154 155 37
f 156 154 41
f 142 156 41
f 157 14 13
f 158 15 14
f 158 14 157
f 52 159 13
f 160 13 159
f 16 52 13
f 160 157 13
f 52 51 159
f 161 159 51
f 161 160 159
f 162 51 50
f 161 51 162
f 163 50 53
f 163 162 50
f 164 53 49
f 164 163 53
f 165 49 130
f 164 49 165
f 166 130 131
f 166 165 130
f 167 131 12
f 167 166 131
f 168 12 17
f 167 12 168
f 169 17 15
f 169 168 17
f 158 169 15
f 170 9 99
f 171 16 9
f 171 9 170
f 172 99 100
f 172 170 99
f 173 100 101
f 173 172 100
f 174 101 77
f 173 101 174
f 175 77 78
f 175 174 77
f 176 78 47
f 176 175 78
f 177 47 54
f 176 47 177
f 178 54 55
f 178 177 54
f 179 55 56
f 179 178 55
f 180 56 52
f 179 56 180
f 181 52 16
f 181 180 52
f 171 181 16
f 182 183 184
f 74 184 183
f 185 184 186
f 83 186 184
f 187 184 185
f 187 182 184
f 83 184 74
f 188 189 183
f 75 183 189
f 190 188 183
f 191 190 183
f 182 191 183
f 79 183 75
f 74 183 79
f 59 192 189
f 94 189 192
f 188 59 189
f 96 189 94
f 75 189 96
f 62 193 192
f 95 192 193
f 59 62 192
f 94 192 95
f 66 194 193
f 93 193 194
f 62 66 193
f 92 193 93
f 95 193 92
f 195 196 194
f 90 194 196
f 197 195 194
f 67 197 194
f 66 67 194
f 93 194 90
f 198 199 196
f 88 196 199
f 195 198 196
f 91 90 196
f 91 196 88
f 200 201 199
f 86 199 201
f 198 200 199
f 89 199 86
f 88 199 89
f 202 186 201
f 87 201 186
f 200 202 201
f 86 201 87
f 202 185 186
f 82 186 83
f 87 186 82
f 97 185 202
f 21 185 203
f 104 203 185
f 204 185 21
f 205 187 185
f 206 205 185
f 206 185 204
f 104 185 97
f 98 202 200
f 102 202 98
f 97 202 102
f 113 200 198
f 115 200 113
f 98 200 115
f 114 198 195
f 113 198 114
f 112 195 197
f 111 195 112
f 114 195 111
f 69 207 197
f 109 197 207
f 68 69 197
f 67 68 197
f 112 197 109
f 7 208 207
f 107 207 208
f 69 7 207
f 110 109 207
f 110 207 107
f 4 209 208
f 105 208 209
f 7 4 208
f 108 208 105
f 107 208 108
f 21 203 209
f 106 209 203
f 4 21 209
f 105 209 106
f 103 203 104
f 106 203 103
f 210 211 212
f 116 212 211
f 33 212 213
f 121 213 212
f 210 212 214
f 34 214 212
f 33 34 212
f 121 212 116
f 215 216 211
f 118 211 216
f 210 215 211
f 119 211 118
f 116 211 119
f 217 218 216
f 138 216 218
f 215 217 216
f 140 216 138
f 118 216 140
f 219 220 218
f 139 218 220
f 217 219 218
f 138 218 139
f 221 222 220
f 136 220 222
f 219 221 220
f 135 220 136
f 139 220 135
f 223 224 222
f 128 222 224
f 225 222 221
f 226 222 225
f 227 223 222
f 228 227 222
f 226 228 222
f 136 222 128
f 223 229 224
f 124 224 229
f 132 128 224
f 132 224 124
f 20 230 229
f 122 229 230
f 231 20 229
f 223 232 229
f 233 229 232
f 233 231 229
f 125 229 122
f 124 229 125
f 28 213 230
f 123 230 213
f 20 28 230
f 122 230 123
f 28 33 213
f 120 213 121
f 123 213 120
f 36 234 214
f 141 214 234
f 145 210 214
f 35 36 214
f 34 35 214
f 145 214 141
f 39 235 234
f 142 234 235
f 36 39 234
f 143 234 142
f 141 234 143
f 44 236 235
f 154 235 236
f 39 44 235
f 156 235 154
f 142 235 156
f 59 237 236
f 155 236 237
f 44 59 236
f 154 236 155
f 59 221 237
f 153 237 221
f 152 237 153
f 155 237 152
f 150 221 219
f 238 221 59
f 239 225 221
f 238 239 221
f 153 221 150
f 148 219 217
f 151 150 219
f 151 219 148
f 146 217 215
f 149 217 146
f 148 217 149
f 147 215 210
f 146 215 147
f 144 210 145
f 147 210 144
f 240 241 242
f 243 242 241
f 244 242 245
f 243 245 242
f 246 240 242
f 247 248 242
f 249 242 248
f 244 247 242
f 250 246 242
f 249 250 242
f 251 21 241
f 252 241 21
f 240 251 241
f 252 243 241
f 253 204 21
f 254 253 21
f 251 254 21
f 252 21 22
f 255 238 59
f 256 255 59
f 257 256 59
f 258 257 59
f 259 59 188
f 260 258 59
f 261 260 59
f 262 261 59
f 263 264 59
f 262 59 264
f 265 263 59
f 266 265 59
f 267 266 59
f 268 267 59
f 269 268 59
f 270 269 59
f 271 270 59
f 272 271 59
f 273 272 59
f 274 273 59
f 275 274 59
f 249 275 59
f 276 277 59
f 249 59 277
f 278 276 59
f 259 278 59
f 279 23 20
f 280 279 20
f 281 280 20
f 282 281 20
f 231 282 20
f 283 23 279
f 284 285 23
f 24 23 285
f 284 23 286
f 283 286 23
f 280 287 279
f 283 279 287
f 288 289 287
f 290 287 289
f 291 288 287
f 280 291 287
f 283 287 292
f 290 292 287
f 293 294 289
f 290 289 294
f 295 289 288
f 296 293 289
f 295 296 289
f 297 298 294
f 299 294 298
f 293 300 294
f 301 294 300
f 301 297 294
f 299 290 294
f 302 303 298
f 304 298 303
f 305 306 298
f 307 298 306
f 308 305 298
f 309 308 298
f 297 309 298
f 310 302 298
f 311 310 298
f 307 311 298
f 304 299 298
f 312 313 303
f 314 303 313
f 315 312 303
f 316 315 303
f 317 316 303
f 302 317 303
f 318 304 303
f 314 318 303
f 319 245 313
f 314 313 245
f 312 319 313
f 319 244 245
f 320 314 245
f 243 320 245
f 321 225 239
f 321 226 225
f 322 239 238
f 323 321 239
f 322 323 239
f 324 238 255
f 325 238 324
f 322 238 325
f 324 255 256
f 326 256 257
f 327 324 256
f 326 327 256
f 328 329 257
f 330 257 329
f 331 328 257
f 332 331 257
f 333 332 257
f 258 333 257
f 334 257 330
f 326 257 334
f 335 232 329
f 330 329 232
f 336 335 329
f 328 336 329
f 337 232 223
f 338 233 232
f 339 338 232
f 340 339 232
f 341 340 232
f 342 341 232
f 335 342 232
f 343 330 232
f 337 343 232
f 344 223 227
f 344 345 223
f 337 223 345
f 344 227 228
f 346 228 226
f 347 344 228
f 346 347 228
f 348 226 321
f 346 226 348
f 206 349 350
f 351 350 349
f 206 350 352
f 351 352 350
f 206 353 349
f 354 349 353
f 355 351 349
f 354 355 349
f 356 357 353
f 358 353 357
f 206 356 353
f 359 353 358
f 354 353 359
f 360 361 357
f 358 357 361
f 362 357 356
f 363 360 357
f 362 363 357
f 364 188 361
f 365 361 188
f 366 364 361
f 367 366 361
f 368 367 361
f 369 368 361
f 370 369 361
f 360 370 361
f 371 358 361
f 365 371 361
f 372 188 190
f 373 259 188
f 364 373 188
f 374 188 372
f 365 188 374
f 372 190 191
f 375 191 182
f 376 372 191
f 375 376 191
f 377 182 187
f 378 182 377
f 375 182 378
f 377 187 205
f 206 352 205
f 379 205 352
f 380 377 205
f 379 380 205
f 351 381 352
f 379 352 381
f 382 204 253
f 383 206 204
f 382 384 204
f 383 204 384
f 382 253 254
f 385 254 251
f 386 382 254
f 385 386 254
f 387 251 240
f 387 388 251
f 385 251 388
f 389 390 240
f 387 240 390
f 246 389 240
f 389 391 390
f 392 390 391
f 393 387 390
f 392 393 390
f 394 395 391
f 396 391 395
f 389 397 391
f 394 391 397
f 398 391 396
f 392 391 398
f 399 400 395
f 396 395 400
f 394 399 395
f 364 401 400
f 402 400 401
f 364 400 399
f 403 396 400
f 402 403 400
f 364 356 401
f 404 401 356
f 404 405 401
f 402 401 405
f 404 356 206
f 406 407 356
f 408 356 407
f 364 406 356
f 409 362 356
f 410 409 356
f 408 410 356
f 411 404 206
f 383 411 206
f 412 288 413
f 414 413 288
f 412 413 415
f 416 415 413
f 414 417 413
f 416 413 417
f 414 288 291
f 418 288 412
f 419 295 288
f 420 419 288
f 418 420 288
f 421 291 280
f 422 414 291
f 421 422 291
f 423 280 281
f 423 424 280
f 421 280 424
f 423 281 282
f 425 282 231
f 426 423 282
f 425 426 282
f 427 231 233
f 427 428 231
f 425 231 428
f 429 430 233
f 427 233 430
f 262 233 338
f 262 429 233
f 431 432 430
f 433 430 432
f 429 431 430
f 434 427 430
f 433 434 430
f 435 436 432
f 437 432 436
f 438 439 432
f 440 432 439
f 441 438 432
f 431 441 432
f 435 432 440
f 442 432 437
f 433 432 442
f 412 415 436
f 437 436 415
f 435 412 436
f 443 437 415
f 416 443 415
f 262 338 444
f 445 444 338
f 262 444 446
f 447 446 444
f 447 444 445
f 448 338 339
f 448 445 338
f 449 339 340
f 448 339 449
f 450 340 341
f 449 340 450
f 342 451 341
f 452 341 451
f 450 341 452
f 342 453 451
f 454 451 453
f 452 451 454
f 342 455 453
f 456 453 455
f 454 453 456
f 342 457 455
f 458 455 457
f 456 455 458
f 342 459 457
f 460 457 459
f 458 457 460
f 342 461 459
f 462 459 461
f 460 459 462
f 342 463 461
f 464 461 463
f 462 461 464
f 342 465 463
f 466 463 465
f 464 463 466
f 467 465 342
f 466 465 467
f 468 342 335
f 467 342 468
f 469 335 336
f 468 335 469
f 470 336 328
f 469 336 470
f 471 328 331
f 470 328 471
f 472 331 332
f 471 331 472
f 473 332 333
f 472 332 473
f 474 333 258
f 473 333 474
f 475 258 260
f 474 258 475
f 476 260 261
f 475 260 476
f 262 477 261
f 478 261 477
f 476 261 478
f 262 479 477
f 480 477 479
f 478 477 480
f 262 446 479
f 481 479 446
f 480 479 481
f 481 446 447
f 263 482 264
f 483 264 482
f 484 262 264
f 484 264 483
f 485 482 263
f 485 483 482
f 486 263 265
f 485 263 486
f 266 439 265
f 487 265 439
f 486 265 487
f 488 439 438
f 266 440 439
f 487 439 488
f 489 438 441
f 488 438 489
f 490 441 431
f 489 441 490
f 491 431 429
f 490 431 491
f 492 429 262
f 491 429 492
f 492 262 484
f 493 440 266
f 494 435 440
f 494 440 493
f 495 266 267
f 495 493 266
f 496 412 267
f 497 267 412
f 268 496 267
f 495 267 497
f 435 498 412
f 499 412 498
f 500 418 412
f 501 500 412
f 502 501 412
f 496 502 412
f 497 412 499
f 503 498 435
f 499 498 503
f 503 435 494
f 504 300 293
f 505 301 300
f 505 300 504
f 506 293 296
f 506 504 293
f 507 296 295
f 506 296 507
f 508 295 419
f 507 295 508
f 509 419 420
f 508 419 509
f 510 420 418
f 509 420 510
f 511 418 500
f 510 418 511
f 512 500 501
f 511 500 512
f 513 501 502
f 512 501 513
f 514 502 496
f 513 502 514
f 515 496 268
f 514 496 515
f 516 268 269
f 515 268 516
f 517 269 270
f 516 269 517
f 518 270 271
f 517 270 518
f 272 519 271
f 520 271 519
f 518 271 520
f 521 522 519
f 523 519 522
f 272 521 519
f 520 519 523
f 521 524 522
f 525 522 524
f 523 522 525
f 526 306 524
f 527 524 306
f 528 526 524
f 521 528 524
f 525 524 527
f 529 306 305
f 526 307 306
f 527 306 529
f 530 305 308
f 529 305 530
f 531 308 309
f 530 308 531
f 532 309 297
f 531 309 532
f 533 297 301
f 532 297 533
f 533 301 505
f 534 535 536
f 537 536 535
f 538 534 536
f 539 538 536
f 540 539 536
f 540 536 537
f 541 542 535
f 543 535 542
f 534 541 535
f 543 537 535
f 544 545 542
f 546 542 545
f 541 544 542
f 543 542 546
f 547 548 545
f 549 545 548
f 544 547 545
f 546 545 549
f 550 551 548
f 552 548 551
f 547 550 548
f 549 548 552
f 553 551 550
f 552 551 553
f 554 550 547
f 553 550 554
f 555 547 544
f 554 547 555
f 556 544 541
f 555 544 556
f 557 541 534
f 556 541 557
f 558 534 538
f 557 534 558
f 539 559 538
f 560 538 559
f 558 538 560
f 561 562 559
f 563 559 562
f 539 561 559
f 560 559 563
f 564 565 562
f 566 562 565
f 561 564 562
f 563 562 566
f 567 568 565
f 569 565 568
f 564 567 565
f 566 565 569
f 570 568 567
f 569 568 570
f 571 567 564
f 570 567 571
f 572 564 561
f 571 564 572
f 573 561 539
f 572 561 573
f 573 539 540
f 574 575 576
f 577 576 575
f 248 574 576
f 249 248 576
f 249 576 578
f 579 578 576
f 579 576 577
f 580 581 575
f 582 575 581
f 574 580 575
f 582 577 575
f 583 584 581
f 585 581 584
f 580 583 581
f 582 581 585
f 586 587 584
f 588 584 587
f 583 586 584
f 585 584 588
f 589 590 587
f 591 587 590
f 586 589 587
f 588 587 591
f 592 593 590
f 594 590 593
f 589 592 590
f 591 590 594
f 595 596 593
f 597 593 596
f 592 595 593
f 594 593 597
f 598 599 596
f 600 596 599
f 595 598 596
f 597 596 600
f 601 602 599
f 603 599 602
f 598 601 599
f 600 599 603
f 604 602 601
f 603 602 604
f 605 601 598
f 604 601 605
f 606 598 595
f 605 598 606
f 607 595 592
f 606 595 607
f 608 592 589
f 607 592 608
f 609 589 586
f 608 589 609
f 610 586 583
f 609 586 610
f 611 583 580
f 610 583 611
f 612 580 574
f 611 580 612
f 613 574 248
f 612 574 613
f 614 248 247
f 613 248 614
f 615 247 244
f 614 247 615
f 616 244 319
f 615 244 616
f 617 319 312
f 616 319 617
f 618 312 315
f 617 312 618
f 619 315 316
f 618 315 619
f 620 316 317
f 619 316 620
f 621 317 302
f 620 317 621
f 622 302 310
f 621 302 622
f 623 310 311
f 622 310 623
f 624 311 307
f 623 311 624
f 625 307 526
f 624 307 625
f 626 526 528
f 625 526 626
f 627 528 521
f 626 528 627
f 628 521 272
f 627 521 628
f 629 272 273
f 628 272 629
f 630 273 274
f 629 273 630
f 631 274 275
f 630 274 631
f 249 632 275
f 633 275 632
f 631 275 633
f 249 578 632
f 634 632 578
f 633 632 634
f 634 578 579
f 276 635 277
f 636 277 635
f 637 249 277
f 637 277 636
f 276 638 635
f 639 635 638
f 639 636 635
f 640 638 276
f 639 638 640
f 641 276 278
f 640 276 641
f 397 642 278
f 643 278 642
f 259 397 278
f 641 278 643
f 644 642 397
f 643 642 644
f 645 397 389
f 259 394 397
f 644 397 645
f 246 646 389
f 647 389 646
f 645 389 647
f 648 646 246
f 647 646 648
f 649 246 250
f 648 246 649
f 650 250 249
f 649 250 650
f 650 249 637
f 651 652 653
f 654 653 652
f 655 651 653
f 656 655 653
f 657 656 653
f 364 657 653
f 364 653 373
f 658 373 653
f 658 653 654
f 659 652 651
f 659 654 652
f 660 651 655
f 659 651 660
f 661 655 656
f 660 655 661
f 662 663 656
f 664 656 663
f 657 662 656
f 661 656 664
f 665 663 662
f 664 663 665
f 666 662 657
f 665 662 666
f 364 399 657
f 667 657 399
f 666 657 667
f 668 399 394
f 667 399 668
f 669 394 259
f 668 394 669
f 670 259 373
f 669 259 670
f 670 373 658
f 671 407 406
f 672 408 407
f 672 407 671
f 673 406 364
f 673 671 406
f 674 364 366
f 673 364 674
f 675 366 367
f 674 366 675
f 676 367 368
f 675 367 676
f 677 368 369
f 676 368 677
f 678 369 370
f 677 369 678
f 679 370 360
f 678 370 679
f 680 360 363
f 679 360 680
f 681 363 362
f 680 363 681
f 682 362 409
f 681 362 682
f 683 409 410
f 682 409 683
f 684 410 408
f 683 410 684
f 684 408 672
f 685 686 687
f 688 687 686
f 689 685 687
f 690 689 687
f 690 687 688
f 691 692 686
f 693 686 692
f 685 691 686
f 693 688 686
f 694 695 692
f 696 692 695
f 691 694 692
f 693 692 696
f 697 698 695
f 699 695 698
f 694 697 695
f 696 695 699
f 700 701 698
f 702 698 701
f 697 700 698
f 699 698 702
f 703 701 700
f 702 701 703
f 704 700 697
f 703 700 704
f 705 697 694
f 704 697 705
f 706 694 691
f 705 694 706
f 707 691 685
f 706 691 707
f 708 685 689
f 707 685 708
f 708 689 690
f 284 709 285
f 710 285 709
f 711 24 285
f 711 285 710
f 712 713 709
f 714 709 713
f 715 712 709
f 286 715 709
f 284 286 709
f 716 710 709
f 690 688 673
f 716 709 714
f 717 713 712
f 717 718 713
f 714 713 718
f 286 712 715
f 717 712 286
f 283 717 286
f 252 22 25
f 711 25 24
f 719 25 711
f 252 25 719
f 378 174 175
f 380 173 174
f 378 377 174
f 380 174 377
f 176 378 175
f 374 177 178
f 376 176 177
f 374 372 177
f 376 177 372
f 179 374 178
f 359 180 181
f 371 179 180
f 359 358 180
f 371 180 358
f 359 181 171
f 381 170 172
f 355 171 170
f 351 170 381
f 355 170 351
f 381 172 173
f 334 157 160
f 334 330 157
f 343 157 330
f 343 158 157
f 334 160 161
f 325 162 163
f 325 324 162
f 327 162 324
f 327 161 162
f 325 163 164
f 348 165 166
f 348 321 165
f 323 165 321
f 323 164 165
f 167 348 166
f 345 168 169
f 344 168 345
f 347 168 344
f 347 167 168
f 345 169 158
f 720 721 722
f 723 722 721
f 720 722 724
f 725 724 722
f 725 722 723
f 726 727 721
f 728 721 727
f 729 721 720
f 729 726 721
f 728 723 721
f 726 730 727
f 731 727 730
f 728 727 731
f 732 733 730
f 734 730 733
f 726 732 730
f 731 730 734
f 735 736 733
f 737 733 736
f 732 735 733
f 734 733 737
f 738 739 736
f 740 736 739
f 735 738 736
f 737 736 740
f 738 741 739
f 742 739 741
f 740 739 742
f 743 744 741
f 745 741 744
f 738 743 741
f 742 741 745
f 720 724 744
f 746 744 724
f 743 720 744
f 745 744 746
f 746 724 725
f 747 720 743
f 417 729 720
f 748 417 720
f 748 720 747
f 747 743 738
f 735 749 738
f 750 738 749
f 750 747 738
f 735 751 749
f 752 749 751
f 752 750 749
f 753 751 735
f 754 752 751
f 753 754 751
f 755 735 732
f 755 753 735
f 755 732 726
f 756 726 729
f 756 757 726
f 755 726 757
f 414 729 417
f 422 729 414
f 422 756 729
f 758 759 760
f 761 760 759
f 762 758 760
f 763 762 760
f 764 763 760
f 764 760 765
f 761 765 760
f 424 759 758
f 426 761 759
f 423 759 424
f 426 759 423
f 757 758 762
f 756 758 757
f 424 758 756
f 766 762 763
f 757 762 766
f 767 725 723
f 767 723 728
f 768 746 725
f 769 725 767
f 769 768 725
f 768 745 746
f 770 742 745
f 768 770 745
f 771 740 742
f 770 771 742
f 772 737 740
f 771 772 740
f 772 734 737
f 773 731 734
f 772 773 734
f 767 728 731
f 773 767 731
f 765 767 773
f 428 769 767
f 761 428 767
f 761 767 765
f 765 773 772
f 771 774 772
f 764 772 774
f 764 765 772
f 771 775 774
f 776 774 775
f 776 764 774
f 777 775 771
f 778 776 775
f 777 778 775
f 779 771 770
f 779 777 771
f 779 770 768
f 780 768 769
f 780 781 768
f 779 768 781
f 427 769 428
f 434 769 427
f 434 780 769
f 782 783 784
f 781 784 783
f 785 782 784
f 442 785 784
f 780 784 781
f 442 784 780
f 786 783 782
f 786 787 783
f 781 783 787
f 748 782 785
f 750 786 782
f 750 782 747
f 748 747 782
f 442 437 785
f 443 785 437
f 443 748 785
f 788 789 790
f 791 790 789
f 788 790 792
f 793 792 790
f 793 790 791
f 794 795 789
f 796 789 795
f 788 797 789
f 794 789 797
f 796 791 789
f 794 798 795
f 799 795 798
f 796 795 799
f 800 801 798
f 802 798 801
f 794 800 798
f 799 798 802
f 803 804 801
f 805 801 804
f 800 803 801
f 802 801 805
f 806 807 804
f 808 804 807
f 803 806 804
f 805 804 808
f 806 809 807
f 810 807 809
f 808 807 810
f 811 812 809
f 813 809 812
f 806 811 809
f 810 809 813
f 788 792 812
f 814 812 792
f 811 788 812
f 813 812 814
f 814 792 793
f 405 797 788
f 815 794 797
f 411 815 797
f 404 797 405
f 411 797 404
f 816 788 811
f 817 788 816
f 405 788 817
f 816 811 806
f 803 818 806
f 819 806 818
f 819 816 806
f 803 820 818
f 821 818 820
f 821 819 818
f 822 820 803
f 823 821 820
f 822 823 820
f 824 803 800
f 824 822 803
f 824 800 794
f 815 825 794
f 824 794 825
f 826 827 828
f 825 828 827
f 829 826 828
f 384 829 828
f 815 384 828
f 815 828 825
f 830 827 826
f 831 827 830
f 825 827 831
f 832 826 829
f 833 830 826
f 833 826 834
f 832 834 826
f 382 829 384
f 386 829 382
f 386 832 829
f 835 793 791
f 835 791 796
f 836 814 793
f 837 793 835
f 837 836 793
f 836 813 814
f 838 810 813
f 836 838 813
f 839 808 810
f 838 839 810
f 840 805 808
f 839 840 808
f 840 802 805
f 841 799 802
f 840 841 802
f 835 796 799
f 841 835 799
f 834 835 841
f 388 837 835
f 832 388 835
f 832 835 834
f 834 841 840
f 839 842 840
f 833 840 842
f 833 834 840
f 839 843 842
f 844 842 843
f 844 833 842
f 845 843 839
f 846 844 843
f 845 846 843
f 847 839 838
f 847 845 839
f 847 838 836
f 848 836 837
f 848 849 836
f 847 836 849
f 387 837 388
f 393 837 387
f 393 848 837
f 850 851 852
f 849 852 851
f 853 850 852
f 398 853 852
f 848 852 849
f 398 852 848
f 854 851 850
f 854 855 851
f 849 851 855
f 817 850 853
f 819 854 850
f 819 850 816
f 817 816 850
f 398 396 853
f 403 853 396
f 403 817 853
f 856 857 855
f 847 855 857
f 854 856 855
f 847 849 855
f 858 859 857
f 845 857 859
f 856 858 857
f 847 857 845
f 860 861 859
f 846 859 861
f 858 860 859
f 845 859 846
f 831 830 861
f 844 861 830
f 860 831 861
f 846 861 844
f 844 830 833
f 824 831 860
f 824 825 831
f 822 860 858
f 824 860 822
f 823 858 856
f 822 858 823
f 821 856 854
f 823 856 821
f 821 854 819
f 862 863 787
f 779 787 863
f 786 862 787
f 779 781 787
f 864 865 863
f 777 863 865
f 862 864 863
f 779 863 777
f 866 867 865
f 778 865 867
f 864 866 865
f 777 865 778
f 766 763 867
f 776 867 763
f 866 766 867
f 778 867 776
f 776 763 764
f 755 766 866
f 755 757 766
f 753 866 864
f 755 866 753
f 754 864 862
f 753 864 754
f 752 862 786
f 754 862 752
f 752 786 750
f 868 869 870
f 871 870 869
f 872 868 870
f 873 872 870
f 874 873 870
f 871 874 870
f 875 876 869
f 877 869 876
f 868 875 869
f 877 871 869
f 878 876 875
f 878 877 876
f 879 875 868
f 879 878 875
f 880 868 872
f 880 879 868
f 873 881 872
f 882 872 881
f 880 872 882
f 883 884 881
f 885 881 884
f 873 883 881
f 885 882 881
f 886 884 883
f 886 885 884
f 887 883 873
f 887 886 883
f 874 887 873
f 888 889 890
f 891 890 889
f 892 888 890
f 893 892 890
f 894 893 890
f 891 894 890
f 895 896 889
f 897 889 896
f 888 895 889
f 897 891 889
f 898 896 895
f 898 897 896
f 899 895 888
f 899 898 895
f 900 888 892
f 900 899 888
f 893 901 892
f 902 892 901
f 900 892 902
f 903 904 901
f 905 901 904
f 893 903 901
f 905 902 901
f 906 904 903
f 906 905 904
f 907 903 893
f 907 906 903
f 894 907 893
f 908 882 885
f 909 880 882
f 909 882 908
f 910 885 886
f 910 908 885
f 911 886 887
f 911 910 886
f 912 887 874
f 912 911 887
f 912 874 871
f 913 871 877
f 913 912 871
f 906 877 878
f 913 877 906
f 909 878 879
f 906 878 905
f 909 905 878
f 909 879 880
f 909 902 905
f 914 900 902
f 909 914 902
f 913 906 907
f 913 907 894
f 913 894 891
f 915 891 897
f 915 913 891
f 916 897 898
f 917 915 897
f 916 917 897
f 918 898 899
f 918 916 898
f 914 899 900
f 914 918 899
f 919 908 910
f 919 909 908
f 911 920 910
f 921 910 920
f 921 919 910
f 922 920 911
f 922 921 920
f 923 911 912
f 924 922 911
f 923 924 911
f 923 912 913
f 925 913 915
f 926 913 925
f 923 913 926
f 925 915 917
f 927 917 916
f 925 917 927
f 918 928 916
f 927 916 928
f 716 928 918
f 927 928 714
f 716 714 928
f 929 918 914
f 929 716 918
f 929 914 909
f 930 909 919
f 929 909 930
f 931 932 933
f 930 933 932
f 934 931 933
f 935 934 933
f 921 935 933
f 921 933 919
f 930 919 933
f 719 932 931
f 719 710 932
f 930 932 710
f 320 931 934
f 252 719 931
f 243 931 320
f 252 931 243
f 936 934 935
f 320 934 936
f 719 711 710
f 929 930 710
f 929 710 716
f 937 938 718
f 927 718 938
f 717 937 718
f 693 673 688
f 927 714 718
f 939 940 938
f 927 938 940
f 937 939 938
f 941 940 939
f 941 942 940
f 926 940 942
f 925 927 940
f 926 925 940
f 292 939 937
f 292 941 939
f 283 937 717
f 283 292 937
f 943 942 941
f 943 944 942
f 926 942 944
f 299 943 941
f 290 941 292
f 299 941 290
f 945 946 944
f 923 944 946
f 943 945 944
f 923 926 944
f 947 948 946
f 924 946 948
f 945 947 946
f 923 946 924
f 936 935 948
f 922 948 935
f 947 936 948
f 924 948 922
f 922 935 921
f 314 936 947
f 320 936 314
f 318 947 945
f 314 947 318
f 304 945 943
f 318 945 304
f 304 943 299
f 346 348 167
f 322 325 164
f 322 164 323
f 326 334 161
f 326 161 327
f 337 345 158
f 337 158 343
f 346 167 347
f 379 381 173
f 379 173 380
f 354 359 171
f 354 171 355
f 375 378 176
f 375 176 376
f 365 374 179
f 365 179 371
f 383 384 815
f 385 388 832
f 392 398 848
f 392 848 393
f 385 832 386
f 383 815 411
f 402 405 817
f 402 817 403
f 416 417 748
f 425 428 761
f 433 442 780
f 433 780 434
f 425 761 426
f 421 424 756
f 421 756 422
f 416 748 443
f 449 447 445
f 448 449 445
f 449 481 447
f 452 480 481
f 450 452 481
f 449 450 481
f 454 478 480
f 452 454 480
f 458 476 478
f 456 458 478
f 454 456 478
f 460 475 476
f 458 460 476
f 462 474 475
f 460 462 475
f 466 473 474
f 464 466 474
f 462 464 474
f 467 472 473
f 466 467 473
f 469 471 472
f 467 469 472
f 469 470 471
f 467 468 469
f 492 484 483
f 485 492 483
f 485 491 492
f 486 490 491
f 485 486 491
f 487 489 490
f 486 487 490
f 487 488 489
f 503 494 493
f 495 503 493
f 497 499 503
f 495 497 503
f 543 505 504
f 537 504 506
f 543 504 537
f 546 533 505
f 543 546 505
f 552 532 533
f 549 552 533
f 546 549 533
f 523 531 532
f 553 523 532
f 552 553 532
f 525 530 531
f 523 525 531
f 527 529 530
f 525 527 530
f 555 520 523
f 554 555 523
f 553 554 523
f 556 518 520
f 555 556 520
f 558 517 518
f 557 558 518
f 556 557 518
f 560 516 517
f 558 560 517
f 563 515 516
f 560 563 516
f 569 514 515
f 566 569 515
f 563 566 515
f 508 513 514
f 570 508 514
f 569 570 514
f 509 512 513
f 508 509 513
f 510 511 512
f 509 510 512
f 572 507 508
f 571 572 508
f 570 571 508
f 573 506 507
f 572 573 507
f 540 537 506
f 573 540 506
f 582 579 577
f 582 634 579
f 585 633 634
f 582 585 634
f 591 631 633
f 588 591 633
f 585 588 633
f 594 630 631
f 591 594 631
f 597 629 630
f 594 597 630
f 603 628 629
f 600 603 629
f 597 600 629
f 622 627 628
f 604 622 628
f 603 604 628
f 623 626 627
f 622 623 627
f 624 625 626
f 623 624 626
f 606 621 622
f 605 606 622
f 604 605 622
f 607 620 621
f 606 607 621
f 609 619 620
f 608 609 620
f 607 608 620
f 610 618 619
f 609 610 619
f 611 617 618
f 610 611 618
f 613 616 617
f 612 613 617
f 611 612 617
f 614 615 616
f 613 614 616
f 650 637 636
f 639 650 636
f 648 649 650
f 639 648 650
f 644 647 648
f 640 644 648
f 639 640 648
f 644 645 647
f 641 643 644
f 640 641 644
f 659 658 654
f 659 670 658
f 659 669 670
f 667 668 669
f 666 667 669
f 665 666 669
f 660 665 669
f 659 660 669
f 661 664 665
f 660 661 665
f 696 672 671
f 693 671 673
f 693 696 671
f 702 684 672
f 699 702 672
f 696 699 672
f 678 683 684
f 703 678 684
f 702 703 684
f 679 682 683
f 678 679 683
f 680 681 682
f 679 680 682
f 705 677 678
f 704 705 678
f 703 704 678
f 706 676 677
f 705 706 677
f 708 675 676
f 707 708 676
f 706 707 676
f 690 674 675
f 708 690 675
f 690 673 674

