mtllib material.mtl
usemtl mtl_csm_latch_housing
v -0.03466420 0.00000000 -0.01125061
v -0.03500000 0.00000000 0.01000000
v -0.03500000 0.00000000 -0.01000000
v -0.03500000 0.00200000 -0.00200000
v -0.03466420 0.01200000 -0.01125061
v -0.03500000 0.01200000 -0.01000000
v -0.03466420 0.00000000 0.01125061
v -0.03500000 0.01200000 0.01000000
v -0.03500000 0.01200000 0.00800000
v -0.03500000 0.00200000 0.00800000
v -0.03375061 0.00000000 -0.01216419
v -0.03375061 0.00000000 0.01216419
v -0.03466420 0.01200000 0.01125061
v -0.03250000 0.00000000 -0.01250000
v -0.03250000 0.00000000 0.01250000
v -0.03375061 0.01200000 0.01216419
v 0.03250000 0.00000000 -0.01250000
v 0.03250000 0.00000000 0.01250000
v -0.02049375 0.00547862 0.01250000
v -0.03250000 0.01200000 0.01250000
v 0.03375061 0.00000000 -0.01216419
v 0.03375061 0.00000000 0.01216419
v 0.03250000 0.01200000 0.01250000
v 0.02049375 0.00852138 0.01250000
v -0.01870640 0.00605879 0.01250000
v -0.01840000 0.00700000 0.01250000
v 0.01950625 0.00547862 0.01250000
v -0.01950625 0.00547862 0.01250000
v 0.02129360 0.00794121 0.01250000
v 0.02160000 0.00700000 0.01250000
v 0.02129360 0.00605879 0.01250000
v 0.02049375 0.00547862 0.01250000
v 0.03466420 0.00000000 -0.01125061
v 0.03466420 0.00000000 0.01125061
v 0.03375061 0.01200000 0.01216419
v 0.03500000 0.00000000 -0.01000000
v 0.03500000 0.00000000 0.01000000
v 0.03466420 0.01200000 0.01125061
v 0.03500000 0.00200000 0.00800000
v 0.03500000 0.01200000 0.01000000
v 0.03500000 0.01200000 -0.01000000
v 0.03500000 0.01200000 -0.00200000
v 0.03500000 0.00200000 -0.00200000
v 0.03466420 0.01200000 -0.01125061
v 0.03375061 0.01200000 -0.01216419
v 0.02100474 0.00390970 -0.01250000
v 0.03250000 0.01200000 -0.01250000
v -0.03250000 0.01200000 -0.01250000
v -0.02262985 0.00890920 -0.01250000
v -0.02100474 0.00390970 -0.01250000
v -0.01899526 0.00390970 -0.01250000
v 0.01675000 0.00700000 -0.01250000
v -0.02262985 0.00509080 -0.01250000
v -0.02325000 0.00700000 -0.01250000
v 0.01899526 0.00390970 -0.01250000
v 0.01737015 0.00509080 -0.01250000
v -0.03375061 0.01200000 -0.01216419
v -0.03193431 0.01200000 -0.01056569
v -0.03170000 0.01200000 -0.01000000
v -0.03170000 0.00400000 -0.01000000
v -0.00800000 0.01200000 -0.00200000
v -0.03193431 0.01200000 -0.00943431
v -0.03193431 0.00400000 -0.00943431
v -0.03250000 0.01200000 -0.01080000
v -0.03193431 0.00400000 -0.01056569
v -0.03306568 0.01200000 -0.01056569
v -0.03250000 0.00400000 -0.01080000
v -0.03330000 0.01200000 -0.01000000
v -0.03306568 0.00400000 -0.01056569
v -0.03306568 0.01200000 -0.00943431
v -0.03330000 0.00400000 -0.01000000
v -0.03250000 0.01200000 -0.00920000
v -0.03306568 0.00400000 -0.00943431
v -0.03250000 0.00400000 -0.00920000
v -0.03500000 0.01200000 -0.00200000
v -0.00800000 0.01200000 0.00800000
v -0.03193431 0.01200000 0.00943431
v -0.03170000 0.01200000 0.01000000
v -0.03170000 0.00400000 0.01000000
v -0.03193431 0.01200000 0.01056569
v -0.03193431 0.00400000 0.01056569
v -0.03250000 0.01200000 0.00920000
v -0.03193431 0.00400000 0.00943431
v -0.03306568 0.01200000 0.00943431
v -0.03250000 0.00400000 0.00920000
v -0.03330000 0.01200000 0.01000000
v -0.03306568 0.00400000 0.00943431
v -0.03306568 0.01200000 0.01056569
v -0.03330000 0.00400000 0.01000000
v -0.03250000 0.01200000 0.01080000
v -0.03306568 0.00400000 0.01056569
v -0.03250000 0.00400000 0.01080000
v 0.03306568 0.01200000 0.00943431
v 0.03330000 0.01200000 0.01000000
v 0.03330000 0.00400000 0.01000000
v 0.03306568 0.01200000 0.01056569
v 0.03306568 0.00400000 0.01056569
v 0.03250000 0.01200000 0.00920000
v 0.03306568 0.00400000 0.00943431
v 0.00800000 0.01200000 0.00800000
v 0.03193431 0.01200000 0.00943431
v 0.03250000 0.00400000 0.00920000
v 0.03500000 0.01200000 0.00800000
v 0.03170000 0.01200000 0.01000000
v 0.03193431 0.00400000 0.00943431
v 0.03193431 0.01200000 0.01056569
v 0.03170000 0.00400000 0.01000000
v 0.03250000 0.01200000 0.01080000
v 0.03193431 0.00400000 0.01056569
v 0.03250000 0.00400000 0.01080000
v 0.03306568 0.01200000 -0.01056569
v 0.03330000 0.01200000 -0.01000000
v 0.03330000 0.00400000 -0.01000000
v 0.03306568 0.01200000 -0.00943431
v 0.03306568 0.00400000 -0.00943431
v 0.03250000 0.01200000 -0.01080000
v 0.03306568 0.00400000 -0.01056569
v 0.03193431 0.01200000 -0.01056569
v 0.03250000 0.00400000 -0.01080000
v 0.03170000 0.01200000 -0.01000000
v 0.03193431 0.00400000 -0.01056569
v 0.03193431 0.01200000 -0.00943431
v 0.03170000 0.00400000 -0.01000000
v 0.00800000 0.01200000 -0.00200000
v 0.03250000 0.01200000 -0.00920000
v 0.03193431 0.00400000 -0.00943431
v 0.03250000 0.00400000 -0.00920000
v -0.00729289 0.01200000 -0.00170711
v 0.00700000 0.01200000 0.00700000
v 0.00700000 0.01200000 -0.00100000
v 0.00700000 0.01023382 0.00404973
v 0.00729289 0.01200000 -0.00170711
v 0.00729289 0.00200000 -0.00170711
v 0.00700000 0.00200000 -0.00100000
v 0.00700000 0.00700000 -0.00039947
v 0.00700000 0.00805112 -0.00023293
v 0.00700000 0.00899915 0.00025030
v 0.00700000 0.00975123 0.00100269
v 0.00700000 0.01023382 0.00195027
v 0.00700000 0.01040000 0.00300000
v -0.00700000 0.01200000 -0.00100000
v 0.00729289 0.01200000 0.00770711
v 0.00700000 0.00200000 0.00700000
v 0.00700000 0.00700000 0.00639947
v 0.00700000 0.00975123 0.00499731
v 0.00700000 0.00899915 0.00574970
v 0.00700000 0.00805112 0.00623293
v -0.00700000 0.01200000 0.00700000
v 0.00729289 0.00200000 0.00770711
v 0.01899526 0.01009030 0.00800000
v 0.00800000 0.00200000 0.00800000
v 0.01737015 0.00890920 0.00800000
v 0.02100474 0.00390970 0.00800000
v 0.02262985 0.00509080 0.00800000
v 0.02325000 0.00700000 0.00800000
v 0.02262985 0.00890920 0.00800000
v 0.02100474 0.01009030 0.00800000
v -0.00729289 0.01200000 0.00770711
v -0.02049375 0.00852138 0.01250000
v -0.01950625 0.00852138 0.01250000
v 0.01840000 0.00700000 0.01250000
v -0.02129360 0.00794121 0.01250000
v -0.02160000 0.00700000 0.01250000
v -0.02129360 0.00605879 0.01250000
v 0.01950625 0.00852138 0.01250000
v 0.01870640 0.00794121 0.01250000
v -0.02100474 0.01009030 0.00800000
v -0.00800000 0.00200000 0.00800000
v -0.01737015 0.00509080 0.00800000
v -0.01675000 0.00700000 0.00800000
v -0.01737015 0.00890920 0.00800000
v -0.01899526 0.01009030 0.00800000
v -0.00729289 0.00200000 0.00770711
v -0.00700000 0.01023382 0.00195027
v -0.00700000 0.00200000 0.00700000
v -0.00700000 0.00700000 0.00639947
v -0.00700000 0.00805112 0.00623293
v -0.00700000 0.00899915 0.00574970
v -0.00700000 0.00975123 0.00499731
v -0.00700000 0.01023382 0.00404973
v -0.00700000 0.01040000 0.00300000
v -0.00700000 0.00200000 -0.00100000
v -0.00700000 0.00700000 -0.00039947
v -0.00700000 0.00975123 0.00100269
v -0.00700000 0.00899915 0.00025030
v -0.00700000 0.00805112 -0.00023293
v -0.00729289 0.00200000 -0.00170711
v -0.01899526 0.01009030 -0.00200000
v -0.00800000 0.00200000 -0.00200000
v -0.01737015 0.00890920 -0.00200000
v -0.02100474 0.00390970 -0.00200000
v -0.02100474 0.01009030 -0.00200000
v -0.02262985 0.00890920 -0.00200000
v -0.02325000 0.00700000 -0.00200000
v -0.02262985 0.00509080 -0.00200000
v -0.02100474 0.01009030 -0.01250000
v -0.01737015 0.00890920 -0.01250000
v -0.01675000 0.00700000 -0.01250000
v 0.01899526 0.01009030 -0.01250000
v -0.01899526 0.01009030 -0.01250000
v 0.02262985 0.00509080 -0.01250000
v 0.02325000 0.00700000 -0.01250000
v 0.02262985 0.00890920 -0.01250000
v 0.02100474 0.01009030 -0.01250000
v 0.02100474 0.01009030 -0.00200000
v 0.00800000 0.00200000 -0.00200000
v 0.01737015 0.00509080 -0.00200000
v 0.01899526 0.01009030 -0.00200000
v 0.01737015 0.00890920 -0.00200000
v 0.01675000 0.00700000 -0.00200000
v -0.01899526 0.00390970 0.00800000
v -0.02100474 0.00390970 0.00800000
v -0.02262985 0.00509080 0.00800000
v -0.02325000 0.00700000 0.00800000
v -0.02262985 0.00890920 0.00800000
v -0.01870640 0.00794121 0.01250000
v -0.01840000 0.00700000 0.01120000
v -0.01870669 0.00605938 0.01120000
v 0.01870640 0.00605879 0.01250000
v -0.01870669 0.00794062 0.01120000
v -0.01950420 0.00852087 0.01120000
v -0.02049580 0.00852087 0.01120000
v -0.02129331 0.00794062 0.01120000
v -0.02160000 0.00700000 0.01120000
v -0.02129331 0.00605938 0.01120000
v -0.02049580 0.00547913 0.01120000
v -0.01950420 0.00547913 0.01120000
v 0.02160000 0.00700000 0.01120000
v 0.02129331 0.00605938 0.01120000
v 0.02129331 0.00794062 0.01120000
v 0.02049580 0.00852087 0.01120000
v 0.01950420 0.00852087 0.01120000
v 0.01870669 0.00794062 0.01120000
v 0.01840000 0.00700000 0.01120000
v 0.01870669 0.00605938 0.01120000
v 0.01950420 0.00547913 0.01120000
v 0.02049580 0.00547913 0.01120000
v 0.01899526 0.00390970 -0.00200000
v 0.02262985 0.00890920 -0.00200000
v 0.02325000 0.00700000 -0.00200000
v 0.02262985 0.00509080 -0.00200000
v 0.02100474 0.00390970 -0.00200000
v -0.01737015 0.00509080 -0.01250000
v -0.01675000 0.00700000 -0.00200000
v 0.01737015 0.00890920 -0.01250000
v -0.01737015 0.00509080 -0.00200000
v -0.01899526 0.00390970 -0.00200000
v -0.03250000 0.00351931 -0.01000000
v -0.03250000 0.00351931 0.01000000
v 0.03250000 0.00351931 0.01000000
v 0.03250000 0.00351931 -0.01000000
v 0.01899526 0.00390970 0.00800000
v 0.01737015 0.00509080 0.00800000
v 0.01675000 0.00700000 0.00800000
v 0.00700000 0.00376618 0.00195027
v 0.00700000 0.00360000 0.00300000
v 0.00700000 0.00376618 0.00404973
v 0.00700000 0.00594888 0.00623293
v 0.00700000 0.00500085 0.00574970
v 0.00700000 0.00424877 0.00499731
v 0.00700000 0.00424877 0.00100269
v 0.00700000 0.00500085 0.00025030
v 0.00700000 0.00594888 -0.00023293
v -0.00700000 0.00376618 0.00404973
v -0.00700000 0.00360000 0.00300000
v -0.00700000 0.00376618 0.00195027
v -0.00700000 0.00594888 -0.00023293
v -0.00700000 0.00500085 0.00025030
v -0.00700000 0.00424877 0.00100269
v -0.00700000 0.00424877 0.00499731
v -0.00700000 0.00500085 0.00574970
v -0.00700000 0.00594888 0.00623293
v -0.01675000 0.00700000 0.01120000
v -0.01737070 0.00891030 0.01120000
v -0.01737070 0.00508970 0.01120000
v -0.01899569 0.00390907 0.01120000
v -0.02100431 0.00390907 0.01120000
v -0.02262931 0.00508970 0.01120000
v -0.02325000 0.00700000 0.01120000
v -0.02262931 0.00891030 0.01120000
v -0.02100431 0.01009093 0.01120000
v -0.01899569 0.01009093 0.01120000
v -0.00200000 0.00360000 0.00300000
v -0.00200000 0.00376641 0.00194934
v -0.00200000 0.00376641 0.00405066
v -0.00200000 0.00424934 0.00499847
v -0.00200000 0.00500153 0.00575066
v -0.00200000 0.00594934 0.00623359
v -0.00200000 0.00700000 0.00640000
v -0.00200000 0.00805066 0.00623359
v -0.00200000 0.00899847 0.00575066
v -0.00200000 0.00975066 0.00499847
v -0.00200000 0.01023359 0.00405066
v -0.00200000 0.01040000 0.00300000
v -0.00200000 0.01023359 0.00194934
v -0.00200000 0.00975066 0.00100153
v -0.00200000 0.00899847 0.00024934
v -0.00200000 0.00805066 -0.00023359
v -0.00200000 0.00700000 -0.00040000
v -0.00200000 0.00594934 -0.00023359
v -0.00200000 0.00500153 0.00024934
v -0.00200000 0.00424934 0.00100153
v 0.00200000 0.00360000 0.00300000
v 0.00200000 0.00376641 0.00405066
v 0.00200000 0.00376641 0.00194934
v 0.00200000 0.00424934 0.00100153
v 0.00200000 0.00500153 0.00024934
v 0.00200000 0.00594934 -0.00023359
v 0.00200000 0.00700000 -0.00040000
v 0.00200000 0.00805066 -0.00023359
v 0.00200000 0.00899847 0.00024934
v 0.00200000 0.00975066 0.00100153
v 0.00200000 0.01023359 0.00194934
v 0.00200000 0.01040000 0.00300000
v 0.00200000 0.01023359 0.00405066
v 0.00200000 0.00975066 0.00499847
v 0.00200000 0.00899847 0.00575066
v 0.00200000 0.00805066 0.00623359
v 0.00200000 0.00700000 0.00640000
v 0.00200000 0.00594934 0.00623359
v 0.00200000 0.00500153 0.00575066
v 0.00200000 0.00424934 0.00499847
v 0.02325000 0.00700000 0.01120000
v 0.02262931 0.00891030 0.01120000
v 0.02262931 0.00508970 0.01120000
v 0.02100431 0.00390907 0.01120000
v 0.01899569 0.00390907 0.01120000
v 0.01737070 0.00508970 0.01120000
v 0.01675000 0.00700000 0.01120000
v 0.01737070 0.00891030 0.01120000
v 0.01899569 0.01009093 0.01120000
v 0.02100431 0.01009093 0.01120000
f 1 2 3
f 4 3 2
f 5 1 3
f 5 3 6
f 4 6 3
f 1 7 2
f 8 2 7
f 9 2 8
f 10 2 9
f 4 2 10
f 11 12 7
f 13 7 12
f 1 11 7
f 8 7 13
f 14 15 12
f 16 12 15
f 11 14 12
f 13 12 16
f 17 18 15
f 19 15 18
f 14 17 15
f 16 15 20
f 19 20 15
f 21 22 18
f 23 18 22
f 17 21 18
f 24 18 23
f 25 18 26
f 27 26 18
f 28 19 18
f 25 28 18
f 29 30 18
f 31 18 30
f 24 29 18
f 32 27 18
f 31 32 18
f 33 34 22
f 35 22 34
f 21 33 22
f 23 22 35
f 36 37 34
f 38 34 37
f 33 36 34
f 35 34 38
f 39 37 36
f 38 37 40
f 39 40 37
f 41 36 33
f 42 36 41
f 43 36 42
f 43 39 36
f 44 33 21
f 41 33 44
f 45 21 17
f 44 21 45
f 46 17 14
f 45 17 47
f 46 47 17
f 48 14 11
f 49 14 48
f 50 51 14
f 52 14 51
f 53 50 14
f 54 53 14
f 49 54 14
f 55 46 14
f 56 55 14
f 52 56 14
f 57 11 1
f 48 11 57
f 57 1 5
f 48 58 59
f 60 59 58
f 61 59 62
f 63 62 59
f 48 59 61
f 63 59 60
f 48 64 58
f 65 58 64
f 60 58 65
f 57 66 64
f 67 64 66
f 48 57 64
f 65 64 67
f 57 68 66
f 69 66 68
f 67 66 69
f 5 70 68
f 71 68 70
f 57 5 68
f 69 68 71
f 6 72 70
f 73 70 72
f 5 6 70
f 73 71 70
f 61 62 72
f 74 72 62
f 75 61 72
f 6 75 72
f 73 72 74
f 74 62 63
f 76 77 78
f 79 78 77
f 23 78 80
f 81 80 78
f 76 78 23
f 81 78 79
f 9 82 77
f 83 77 82
f 76 9 77
f 79 77 83
f 9 84 82
f 85 82 84
f 83 82 85
f 9 86 84
f 87 84 86
f 85 84 87
f 20 88 86
f 89 86 88
f 16 20 86
f 9 16 86
f 87 86 89
f 20 90 88
f 91 88 90
f 91 89 88
f 23 80 90
f 92 90 80
f 20 23 90
f 91 90 92
f 92 80 81
f 38 93 94
f 95 94 93
f 35 94 96
f 97 96 94
f 35 38 94
f 97 94 95
f 40 98 93
f 99 93 98
f 38 40 93
f 95 93 99
f 100 101 98
f 102 98 101
f 103 100 98
f 40 103 98
f 99 98 102
f 100 104 101
f 105 101 104
f 102 101 105
f 23 106 104
f 107 104 106
f 23 104 100
f 105 104 107
f 23 108 106
f 109 106 108
f 109 107 106
f 35 96 108
f 110 108 96
f 23 35 108
f 109 108 110
f 110 96 97
f 47 111 112
f 113 112 111
f 42 112 114
f 115 114 112
f 45 47 112
f 42 45 112
f 115 112 113
f 47 116 111
f 117 111 116
f 113 111 117
f 48 118 116
f 119 116 118
f 47 48 116
f 117 116 119
f 48 120 118
f 121 118 120
f 119 118 121
f 42 122 120
f 123 120 122
f 124 120 48
f 124 42 120
f 121 120 123
f 42 125 122
f 126 122 125
f 126 123 122
f 42 114 125
f 127 125 114
f 126 125 127
f 127 114 115
f 128 129 130
f 131 130 129
f 48 128 130
f 132 48 130
f 133 132 130
f 133 130 134
f 135 134 130
f 136 135 130
f 137 136 130
f 138 137 130
f 139 138 130
f 140 139 130
f 131 140 130
f 141 142 129
f 143 129 142
f 128 141 129
f 144 129 143
f 145 131 129
f 146 145 129
f 147 146 129
f 144 147 129
f 148 100 142
f 149 142 100
f 141 148 142
f 143 142 149
f 150 100 103
f 148 23 100
f 149 100 151
f 152 151 100
f 150 152 100
f 39 103 40
f 153 103 39
f 154 155 103
f 156 103 155
f 153 154 103
f 157 150 103
f 156 157 103
f 24 23 20
f 158 76 23
f 148 158 23
f 159 160 20
f 161 20 160
f 162 159 20
f 163 162 20
f 164 163 20
f 19 164 20
f 165 24 20
f 166 165 20
f 161 166 20
f 9 13 16
f 9 8 13
f 167 9 76
f 167 10 9
f 168 76 158
f 169 76 168
f 169 170 76
f 171 76 170
f 172 167 76
f 171 172 76
f 173 158 148
f 168 158 173
f 174 148 141
f 173 148 175
f 176 175 148
f 177 176 148
f 178 177 148
f 179 178 148
f 180 179 148
f 181 180 148
f 174 181 148
f 182 141 128
f 183 141 182
f 184 174 141
f 185 184 141
f 186 185 141
f 183 186 141
f 48 61 128
f 187 128 61
f 187 182 128
f 188 61 75
f 187 61 189
f 190 189 61
f 188 190 61
f 4 75 6
f 191 75 4
f 192 188 75
f 193 192 75
f 194 193 75
f 195 194 75
f 191 195 75
f 196 48 47
f 132 124 48
f 196 49 48
f 197 47 198
f 199 198 47
f 200 196 47
f 197 200 47
f 201 202 47
f 203 47 202
f 46 201 47
f 204 199 47
f 203 204 47
f 42 44 45
f 42 41 44
f 205 42 124
f 205 43 42
f 206 124 132
f 207 124 206
f 208 205 124
f 209 208 124
f 210 209 124
f 207 210 124
f 133 206 132
f 168 4 10
f 211 168 10
f 212 211 10
f 213 212 10
f 214 213 10
f 215 214 10
f 167 215 10
f 189 4 168
f 191 4 189
f 161 216 26
f 217 26 216
f 218 25 26
f 219 161 26
f 27 219 26
f 217 218 26
f 161 160 216
f 220 216 160
f 220 217 216
f 221 160 159
f 220 160 221
f 222 159 162
f 221 159 222
f 223 162 163
f 222 162 223
f 224 163 164
f 223 163 224
f 225 164 19
f 225 224 164
f 226 19 28
f 226 225 19
f 227 28 25
f 227 226 28
f 218 227 25
f 228 30 29
f 229 31 30
f 228 229 30
f 230 29 24
f 230 228 29
f 231 24 165
f 230 24 231
f 232 165 166
f 231 165 232
f 233 166 161
f 232 166 233
f 234 161 219
f 233 161 234
f 235 219 27
f 235 234 219
f 236 27 32
f 236 235 27
f 237 32 31
f 237 236 32
f 229 237 31
f 206 39 43
f 151 39 206
f 153 39 151
f 238 206 43
f 239 240 43
f 241 43 240
f 205 239 43
f 242 238 43
f 241 242 43
f 52 243 198
f 244 198 243
f 190 197 198
f 245 52 198
f 199 245 198
f 190 198 244
f 52 51 243
f 246 243 51
f 246 244 243
f 247 51 50
f 246 51 247
f 191 50 53
f 247 50 191
f 195 53 54
f 191 53 195
f 194 54 49
f 195 54 194
f 193 49 196
f 194 49 193
f 192 196 200
f 193 196 192
f 188 200 197
f 192 200 188
f 188 197 190
f 240 202 201
f 239 203 202
f 239 202 240
f 241 201 46
f 241 240 201
f 242 46 55
f 241 46 242
f 238 55 56
f 242 55 238
f 207 56 52
f 238 56 207
f 210 52 245
f 207 52 210
f 209 245 199
f 210 245 209
f 208 199 204
f 209 199 208
f 205 204 203
f 208 204 205
f 205 203 239
f 69 71 248
f 73 248 71
f 67 69 248
f 65 67 248
f 60 65 248
f 63 60 248
f 74 63 248
f 73 74 248
f 87 89 249
f 91 249 89
f 85 87 249
f 83 85 249
f 79 83 249
f 81 79 249
f 92 81 249
f 91 92 249
f 105 107 250
f 109 250 107
f 102 105 250
f 99 102 250
f 95 99 250
f 97 95 250
f 110 97 250
f 109 110 250
f 121 123 251
f 126 251 123
f 119 121 251
f 117 119 251
f 113 117 251
f 115 113 251
f 127 115 251
f 126 127 251
f 133 151 206
f 238 207 206
f 133 149 151
f 252 153 151
f 253 252 151
f 254 253 151
f 152 254 151
f 134 143 149
f 133 134 149
f 255 143 134
f 255 256 143
f 257 143 256
f 258 144 143
f 259 258 143
f 260 259 143
f 257 260 143
f 261 255 134
f 262 261 134
f 263 262 134
f 135 263 134
f 187 175 182
f 264 182 175
f 264 265 182
f 266 182 265
f 267 183 182
f 268 267 182
f 269 268 182
f 266 269 182
f 187 173 175
f 270 264 175
f 271 270 175
f 272 271 175
f 176 272 175
f 189 168 173
f 187 189 173
f 211 169 168
f 190 244 189
f 246 189 244
f 247 191 189
f 246 247 189
f 273 170 169
f 274 171 170
f 274 170 273
f 275 169 211
f 275 273 169
f 276 211 212
f 275 211 276
f 277 212 213
f 276 212 277
f 278 213 214
f 277 213 278
f 279 214 215
f 278 214 279
f 280 215 167
f 279 215 280
f 281 167 172
f 280 167 281
f 282 172 171
f 281 172 282
f 282 171 274
f 283 265 264
f 284 266 265
f 284 265 283
f 285 264 270
f 285 283 264
f 286 270 271
f 285 270 286
f 287 271 272
f 286 271 287
f 288 272 176
f 287 272 288
f 289 176 177
f 288 176 289
f 290 177 178
f 289 177 290
f 291 178 179
f 290 178 291
f 292 179 180
f 291 179 292
f 293 180 181
f 292 180 293
f 294 181 174
f 293 181 294
f 295 174 184
f 294 174 295
f 296 184 185
f 295 184 296
f 297 185 186
f 296 185 297
f 298 186 183
f 297 186 298
f 299 183 267
f 298 183 299
f 300 267 268
f 299 267 300
f 301 268 269
f 300 268 301
f 302 269 266
f 301 269 302
f 302 266 284
f 303 256 255
f 304 257 256
f 304 256 303
f 305 255 261
f 305 303 255
f 306 261 262
f 305 261 306
f 307 262 263
f 306 262 307
f 308 263 135
f 307 263 308
f 309 135 136
f 308 135 309
f 310 136 137
f 309 136 310
f 311 137 138
f 310 137 311
f 312 138 139
f 311 138 312
f 313 139 140
f 312 139 313
f 314 140 131
f 313 140 314
f 315 131 145
f 314 131 315
f 316 145 146
f 315 145 316
f 317 146 147
f 316 146 317
f 318 147 144
f 317 147 318
f 319 144 258
f 318 144 319
f 320 258 259
f 319 258 320
f 321 259 260
f 320 259 321
f 322 260 257
f 321 260 322
f 322 257 304
f 323 155 154
f 324 156 155
f 324 155 323
f 325 154 153
f 325 323 154
f 326 153 252
f 325 153 326
f 327 252 253
f 326 252 327
f 328 253 254
f 327 253 328
f 329 254 152
f 328 254 329
f 330 152 150
f 329 152 330
f 331 150 157
f 330 150 331
f 332 157 156
f 331 157 332
f 332 156 324
f 315 304 303
f 314 315 303
f 305 314 303
f 316 322 304
f 315 316 304
f 317 321 322
f 316 317 322
f 318 320 321
f 317 318 321
f 318 319 320
f 305 313 314
f 306 312 313
f 305 306 313
f 307 311 312
f 306 307 312
f 308 310 311
f 307 308 311
f 308 309 310
f 295 284 283
f 294 295 283
f 285 294 283
f 296 302 284
f 295 296 284
f 297 301 302
f 296 297 302
f 298 300 301
f 297 298 301
f 298 299 300
f 285 293 294
f 286 292 293
f 285 286 293
f 287 291 292
f 286 287 292
f 288 290 291
f 287 288 291
f 288 289 290
f 279 224 225
f 279 280 224
f 223 224 280
f 279 225 226
f 275 226 227
f 278 279 226
f 275 278 226
f 275 227 218
f 275 218 217
f 275 217 273
f 220 273 217
f 221 274 273
f 220 221 273
f 281 282 274
f 280 281 274
f 221 280 274
f 222 223 280
f 221 222 280
f 276 277 278
f 275 276 278
f 329 234 235
f 329 330 234
f 233 234 330
f 329 235 236
f 325 236 237
f 328 329 236
f 325 328 236
f 325 237 229
f 325 229 228
f 325 228 323
f 230 323 228
f 231 324 323
f 230 231 323
f 331 332 324
f 330 331 324
f 231 330 324
f 232 233 330
f 231 232 330
f 326 327 328
f 325 326 328

