# https://github.com/mikedh/trimesh
v 0.09968841 0.70836855 0.01055096
v 0.08725630 0.70836855 -0.00575802
v 0.09903120 0.70836855 0.02353085
v 0.54477998 0.70446877 0.01055706
v 0.08550375 0.70836855 -0.00634552
v 0.09853830 0.70836855 0.03164553
v 0.54477998 0.70428509 0.01800476
v 0.54477998 0.69999675 -0.00459522
v 0.06693773 0.70836855 -0.01016420
v 0.08692769 0.70836855 0.04684071
v 0.54477998 0.70394598 0.03164553
v 0.54477998 0.68505467 -0.00989492
v 0.04585243 0.70836855 -0.01094137
v 0.06474705 0.70836855 -0.01026822
v 0.06693773 0.70836855 0.05036564
v 0.54477998 0.70243411 0.03668814
v 0.54477998 0.66396622 -0.01109431
v 0.02471236 0.70836855 -0.01122286
v 0.04585243 0.70836855 0.05102043
v 0.54477998 0.69947395 0.04592273
v 0.54477998 0.64287069 -0.01109431
v 0.02471236 0.63619444 -0.01122286
v 0.00362704 0.70836855 -0.00972348
v 0.02471236 0.70836855 0.05129581
v 0.54477998 0.68505467 0.05020037
v 0.54477998 0.69443675 0.04742820
v 0.54477998 0.63619444 -0.01070881
v 0.00362704 0.63619444 -0.00972348
v 0.00209358 0.70836855 -0.00915435
v 0.00362704 0.70836855 0.05007189
v 0.02471236 0.63619444 0.05129581
v 0.54477998 0.66396622 0.05117343
v 0.54477998 0.63619444 0.05086132
v -0.01077666 0.63619444 -0.00430154
v -0.01077666 0.70836855 -0.00430154
v -0.00885984 0.70836855 0.04613693
v 0.00362704 0.63619444 0.05007189
v 0.54477998 0.64051104 0.05106325
v 0.54477998 0.64287069 0.05117343
v -0.01471989 0.63619444 0.01055096
v -0.01471989 0.70836855 0.01055096
v -0.01028378 0.70836855 0.04568407
v -0.01028378 0.63619444 0.04568407
v -0.01422701 0.63619444 0.03164553
v -0.01422701 0.70836855 0.03164553
v -0.01154342 0.63619444 0.04125343
f 1 2 5
f 1 5 9
f 1 9 14
f 1 14 13
f 1 13 18
f 1 18 23
f 1 23 29
f 1 29 35
f 1 35 41
f 1 41 45
f 1 45 42
f 1 42 36
f 1 36 30
f 1 30 24
f 1 24 19
f 1 19 15
f 1 15 10
f 1 10 6
f 1 6 3
f 1 3 4
f 1 4 2
f 2 4 5
f 3 6 4
f 4 7 11
f 4 11 16
f 4 16 20
f 4 20 26
f 4 26 25
f 4 25 32
f 4 32 39
f 4 39 38
f 4 38 33
f 4 33 27
f 4 27 21
f 4 21 17
f 4 17 12
f 4 12 8
f 4 8 9
f 4 9 5
f 4 6 10
f 4 10 7
f 7 10 11
f 8 12 13
f 8 13 14
f 8 14 9
f 10 15 11
f 11 15 16
f 12 17 18
f 12 18 13
f 15 19 20
f 15 20 16
f 17 21 22
f 17 22 18
f 18 22 28
f 18 28 23
f 19 24 25
f 19 25 26
f 19 26 20
f 21 27 22
f 22 27 33
f 22 33 31
f 22 31 37
f 22 37 43
f 22 43 46
f 22 46 44
f 22 44 40
f 22 40 34
f 22 34 28
f 23 28 29
f 24 30 37
f 24 37 31
f 24 31 39
f 24 39 32
f 24 32 25
f 28 34 29
f 29 34 35
f 30 36 37
f 31 33 38
f 31 38 39
f 34 40 41
f 34 41 35
f 36 42 43
f 36 43 37
f 40 44 45
f 40 45 41
f 42 45 46
f 42 46 43
f 44 46 45

