# https://github.com/mikedh/trimesh
v 0.10957086 1.05140009 0.01055159
v 0.10957086 1.05119721 0.01019275
v 0.10957086 1.05042624 0.03164496
v 0.54477996 1.05012189 0.03164496
v 0.54477996 1.05074071 0.01800759
v 0.54477996 1.05103490 0.01055159
v 0.10957086 1.04177304 -0.00579588
v 0.54477996 1.04169186 -0.00579588
v 0.10957086 1.04082960 0.04690347
v 0.54477996 1.04699740 0.03703434
v 0.10957086 1.04134698 -0.00592581
v 0.54477996 1.02268121 -0.01160597
v 0.10957086 1.02267108 0.05160598
v 0.33071127 1.02268121 0.05160598
v 0.54477996 1.02268121 0.05160598
v 0.54477996 1.04077888 0.04690347
v 0.10957086 1.02267108 -0.01160597
v 0.33071127 1.02268121 -0.01160597
v 0.54477996 0.98049056 -0.01160597
v 0.10957086 0.98049056 0.05160598
v 0.54477996 0.98049056 0.05160598
v 0.10957086 0.98049056 -0.01160597
v 0.54477996 0.95818298 -0.00515241
v 0.53110513 0.95971477 -0.00579588
v 0.10957086 0.96027272 0.04690347
v 0.54477996 0.96038431 0.04690347
v 0.13023221 0.95971477 -0.00579588
v 0.10957086 0.95742213 -0.00483684
v 0.54477996 0.94908344 0.01005660
v 0.10957086 0.94776465 0.01055159
v 0.10957086 0.95729025 -0.00475634
v 0.10957086 0.94891097 0.03321660
v 0.54477996 0.94981382 0.03275255
v 0.54477996 0.94900228 0.01055159
v 0.10957086 0.94788637 0.02088484
v 0.54477996 0.94955007 0.02649073
f 1 2 7
f 1 7 11
f 1 11 17
f 1 17 22
f 1 22 28
f 1 28 31
f 1 31 30
f 1 30 35
f 1 35 32
f 1 32 25
f 1 25 20
f 1 20 13
f 1 13 9
f 1 9 3
f 1 3 4
f 1 4 5
f 1 5 6
f 1 6 2
f 2 6 8
f 2 8 7
f 3 9 10
f 3 10 4
f 4 10 16
f 4 16 15
f 4 15 21
f 4 21 26
f 4 26 33
f 4 33 36
f 4 36 34
f 4 34 29
f 4 29 23
f 4 23 19
f 4 19 12
f 4 12 8
f 4 8 6
f 4 6 5
f 7 8 12
f 7 12 11
f 9 13 14
f 9 14 15
f 9 15 16
f 9 16 10
f 11 12 18
f 11 18 17
f 12 19 22
f 12 22 17
f 12 17 18
f 13 20 21
f 13 21 15
f 13 15 14
f 19 23 24
f 19 24 27
f 19 27 22
f 20 25 21
f 21 25 26
f 22 27 28
f 23 29 30
f 23 30 31
f 23 31 28
f 23 28 24
f 24 28 27
f 25 32 26
f 26 32 33
f 29 34 30
f 30 34 35
f 32 35 33
f 33 35 36
f 34 36 35
