# https://github.com/mikedh/trimesh
v 0.57465444 0.26303094 2.09961776
v 0.57521024 0.26303094 2.07851747
v 0.57928944 0.26303094 2.11504134
v 0.57465444 1.04379948 2.09961776
v 0.57983531 0.26303094 2.06395205
v 0.57521024 1.04379948 2.07851747
v 0.59444498 0.26303094 2.12017853
v 0.57928944 1.04379948 2.11504134
v 0.59443506 0.26303094 2.05982641
v 0.57983531 1.04379948 2.06395205
v 0.61554562 0.26303094 2.12111028
v 0.59444498 1.04379948 2.12017853
v 0.61553571 0.26303094 2.05903566
v 0.59443506 1.04379948 2.05982641
v 0.63663635 0.26303094 2.12138610
v 0.61554562 1.04379948 2.12111028
v 0.63662644 0.26303094 2.05877203
v 0.61553571 1.04379948 2.05903566
v 0.63662644 1.04379948 2.05876593
v 0.65773702 0.26303094 2.11989654
v 0.63663635 1.04379948 2.12138610
v 0.65773702 0.26303094 2.06009614
v 0.65772708 1.04379948 2.06009004
v 0.67213826 0.26303094 2.11447736
v 0.65773702 1.04379948 2.11989654
v 0.67167176 0.26303094 2.06448540
v 0.67167176 1.04379948 2.06448540
v 0.67603879 0.26303094 2.09961159
v 0.67603879 0.28420094 2.09961776
v 0.67213826 0.91716153 2.11447736
v 0.67212832 1.04372307 2.11447736
v 0.67213826 1.04379948 2.11447132
v 0.67558223 0.26303094 2.07851747
v 0.67558223 1.04379948 2.07851136
v 0.67603879 1.04379948 2.09960549
v 0.67603879 1.04372307 2.09961776
f 1 2 5
f 1 5 9
f 1 9 13
f 1 13 17
f 1 17 22
f 1 22 26
f 1 26 33
f 1 33 28
f 1 28 24
f 1 24 20
f 1 20 15
f 1 15 11
f 1 11 7
f 1 7 3
f 1 3 8
f 1 8 4
f 1 4 6
f 1 6 2
f 2 6 10
f 2 10 5
f 3 7 12
f 3 12 8
f 4 8 12
f 4 12 16
f 4 16 21
f 4 21 25
f 4 25 32
f 4 32 35
f 4 35 34
f 4 34 27
f 4 27 23
f 4 23 19
f 4 19 18
f 4 18 14
f 4 14 10
f 4 10 6
f 5 10 14
f 5 14 9
f 7 11 16
f 7 16 12
f 9 14 18
f 9 18 13
f 11 15 21
f 11 21 16
f 13 18 19
f 13 19 17
f 15 20 25
f 15 25 21
f 17 19 22
f 19 23 22
f 20 24 30
f 20 30 25
f 22 23 26
f 23 27 26
f 24 28 29
f 24 29 36
f 24 36 30
f 25 30 31
f 25 31 32
f 26 27 34
f 26 34 33
f 28 33 34
f 28 34 35
f 28 35 36
f 28 36 29
f 30 36 32
f 30 32 31
f 32 36 35

