# https://github.com/mikedh/trimesh
v 0.53081061 1.21608920 0.01055681
v 0.53081061 1.21651979 0.03165817
v 0.53081061 1.21966136 -0.00402345
v 0.57466641 1.15517171 0.01055681
v 0.53081061 1.22009189 0.04543082
v 0.57480926 1.15517171 0.01641640
v 0.57520925 1.15517171 0.03165817
v 0.53081061 1.23371065 -0.00953079
v 0.57929483 1.15517171 -0.00486539
v 0.57800917 1.15517171 -0.00058674
v 0.58026623 1.21967727 0.07642993
v 0.53081061 1.23371065 0.04990712
v 0.57983768 1.15517171 0.04613535
v 0.53081061 1.25479258 -0.01130927
v 0.59443721 1.15517171 -0.01001189
v 0.59023735 1.15517171 -0.00858571
v 0.59443721 1.21588192 0.07642993
v 0.57526639 1.23371065 0.07642993
v 0.59443721 1.15517171 0.05025942
v 0.53081061 1.25479258 0.05137631
v 0.63663591 1.15517171 -0.01121481
v 0.61553656 1.15517171 -0.01093986
v 0.53081061 1.27590639 -0.01093986
v 0.57333788 1.27590639 -0.01097420
v 0.57333788 1.25479258 -0.01132650
v 0.61553656 1.21498884 0.07642993
v 0.61553656 1.15517171 0.05102407
v 0.57363787 1.25479258 0.07642993
v 0.57368073 1.25737595 0.07642993
v 0.57403786 1.27590639 0.07642993
v 0.57410928 1.27848976 0.07642993
v 0.53081061 1.27557151 0.05103269
v 0.63663591 1.21261275 -0.01121481
v 0.65773529 1.23371065 -0.01009779
v 0.65773529 1.15517171 -0.00972839
v 0.53081061 1.27624127 -0.01093118
v 0.57333788 1.29700423 -0.01030406
v 0.65773529 1.29700423 -0.00944489
v 0.63663591 1.21471780 0.07642993
v 0.63663591 1.15517171 0.05129041
v 0.57469497 1.29700423 0.07642993
v 0.53081061 1.27590639 0.05102407
v 0.67244912 1.25479258 -0.00479672
v 0.67213483 1.15517171 -0.00430694
v 0.53081061 1.29700423 -0.01023527
v 0.53081061 1.29724345 -0.01015804
v 0.63663591 1.31266421 -0.00531227
v 0.65773529 1.31197848 -0.00468503
v 0.67076344 1.31025623 -0.00290656
v 0.67186341 1.29700423 -0.00419526
v 0.67216338 1.27590639 -0.00449599
v 0.63920727 1.21484533 0.07642993
v 0.64249288 1.15517171 0.05095534
v 0.65773529 1.21602543 0.07642993
v 0.57523782 1.29885408 0.07642993
v 0.53081061 1.29700423 0.05042261
v 0.67666324 1.25479258 0.01055681
v 0.67603470 1.15517171 0.01055681
v 0.53081061 1.31250472 -0.00508889
v 0.63663591 1.31792667 0.01055681
v 0.65773529 1.31653930 0.01055681
v 0.67200626 1.31159574 0.01055681
v 0.67562043 1.29700423 0.01055681
v 0.67620614 1.27590639 0.01055681
v 0.65773529 1.15517171 0.05007038
v 0.65937808 1.21647193 0.07642993
v 0.57928056 1.31213796 0.07642993
v 0.53081061 1.31188276 0.04629861
v 0.67672040 1.25479258 0.03165817
v 0.67637754 1.27590639 0.03165817
v 0.67570615 1.15517171 0.02579859
v 0.67672040 1.25479258 0.05275104
v 0.67670613 1.25479258 0.07642993
v 0.53081061 1.31258446 -0.00483961
v 0.53081061 1.31744828 0.01055681
v 0.63663591 1.31807024 0.03165817
v 0.65773529 1.31668287 0.03165817
v 0.67026345 1.31221770 0.07642993
v 0.67200626 1.31159574 0.07642993
v 0.67577759 1.29700423 0.03165817
v 0.66160657 1.15517171 0.04885897
v 0.67120626 1.22009189 0.07642993
v 0.59443721 1.31692203 0.07642993
v 0.53081061 1.31682638 0.03165817
v 0.67642040 1.27332295 0.07642993
v 0.67637754 1.27590639 0.07642993
v 0.67557757 1.15517171 0.03165817
v 0.67532045 1.23371065 0.07642993
v 0.53081061 1.31744828 0.01089188
v 0.63663591 1.31807024 0.07642993
v 0.65773529 1.31668287 0.07642993
v 0.67577759 1.29700423 0.07642993
v 0.67167770 1.15517171 0.04567998
v 0.61553656 1.31778316 0.07642993
v 0.67276337 1.15517171 0.04178791
f 1 2 5
f 1 5 12
f 1 12 20
f 1 20 32
f 1 32 42
f 1 42 56
f 1 56 68
f 1 68 84
f 1 84 89
f 1 89 75
f 1 75 74
f 1 74 59
f 1 59 46
f 1 46 45
f 1 45 36
f 1 36 23
f 1 23 14
f 1 14 8
f 1 8 3
f 1 3 4
f 1 4 2
f 2 4 6
f 2 6 7
f 2 7 5
f 3 8 9
f 3 9 10
f 3 10 4
f 4 10 9
f 4 9 16
f 4 16 15
f 4 15 22
f 4 22 21
f 4 21 35
f 4 35 44
f 4 44 58
f 4 58 71
f 4 71 87
f 4 87 95
f 4 95 93
f 4 93 81
f 4 81 65
f 4 65 53
f 4 53 40
f 4 40 27
f 4 27 19
f 4 19 13
f 4 13 7
f 4 7 6
f 5 11 12
f 5 7 13
f 5 13 11
f 8 14 15
f 8 15 16
f 8 16 9
f 11 17 26
f 11 26 39
f 11 39 52
f 11 52 54
f 11 54 66
f 11 66 82
f 11 82 88
f 11 88 73
f 11 73 85
f 11 85 86
f 11 86 92
f 11 92 79
f 11 79 78
f 11 78 91
f 11 91 90
f 11 90 94
f 11 94 83
f 11 83 67
f 11 67 55
f 11 55 41
f 11 41 31
f 11 31 30
f 11 30 29
f 11 29 28
f 11 28 18
f 11 18 12
f 11 13 19
f 11 19 17
f 12 18 20
f 14 21 22
f 14 22 15
f 14 23 24
f 14 24 25
f 14 25 21
f 17 19 27
f 17 27 26
f 18 28 20
f 20 28 29
f 20 29 30
f 20 30 31
f 20 31 32
f 21 33 34
f 21 34 35
f 21 25 33
f 23 36 24
f 24 36 37
f 24 37 38
f 24 38 33
f 24 33 25
f 26 27 40
f 26 40 39
f 31 41 32
f 32 41 42
f 33 38 34
f 34 38 43
f 34 43 35
f 35 43 44
f 36 45 37
f 37 46 47
f 37 47 38
f 37 45 46
f 38 47 48
f 38 48 49
f 38 49 50
f 38 50 51
f 38 51 43
f 39 40 52
f 40 53 54
f 40 54 52
f 41 55 56
f 41 56 42
f 43 51 57
f 43 57 44
f 44 57 58
f 46 59 47
f 47 60 48
f 47 59 60
f 48 60 61
f 48 61 49
f 49 62 63
f 49 63 50
f 49 61 62
f 50 63 64
f 50 64 57
f 50 57 51
f 53 65 54
f 54 65 66
f 55 67 56
f 56 67 68
f 57 69 58
f 57 64 70
f 57 70 69
f 58 69 72
f 58 72 73
f 58 73 71
f 59 74 60
f 60 75 76
f 60 76 77
f 60 77 61
f 60 74 75
f 61 77 62
f 62 78 79
f 62 79 92
f 62 92 80
f 62 80 63
f 62 77 78
f 63 80 70
f 63 70 64
f 65 81 82
f 65 82 66
f 67 83 68
f 68 83 84
f 69 70 85
f 69 85 72
f 70 86 85
f 70 80 92
f 70 92 86
f 71 73 87
f 72 85 73
f 73 88 87
f 75 89 90
f 75 90 76
f 76 90 91
f 76 91 77
f 77 91 78
f 81 93 82
f 82 93 88
f 83 94 84
f 84 94 89
f 87 88 95
f 88 93 95
f 89 94 90
