# https://github.com/mikedh/trimesh
v 0.53079634 1.31745834 0.01055266
v 0.53079634 1.31744841 0.01089012
v 0.53079634 1.31250667 -0.00509480
v 0.13080634 1.31745834 0.01055266
v 0.53079634 1.31683317 0.03164905
v 0.13080634 1.31685305 0.03104155
v 0.53079634 1.29725465 -0.01015716
v 0.13080634 1.31250667 -0.00509480
v 0.53079634 1.31188150 0.04629628
v 0.13080634 1.31683317 0.03164905
v 0.13080634 1.31203036 0.04587286
v 0.53079634 1.29700655 -0.01023690
v 0.13080634 1.29700655 -0.01023690
v 0.53079634 1.31165322 0.04636376
v 0.13080634 1.31188150 0.04629628
v 0.53079634 1.27589985 -0.01094263
v 0.13080634 1.27589985 -0.01094263
v 0.53079634 1.29700655 0.05041978
v 0.13080634 1.29743325 0.05030319
v 0.53079634 1.25481295 -0.01131077
v 0.13080634 1.27529455 -0.01095483
v 0.53079634 1.29666916 0.05043211
v 0.13080634 1.29700655 0.05041978
v 0.53079634 1.23370625 -0.00953130
v 0.13080634 1.25481295 -0.01131077
v 0.53079634 1.27589985 0.05102728
v 0.13080634 1.27589985 0.05102728
v 0.53079634 1.21988316 -0.00410683
v 0.13080634 1.23370625 -0.00953130
v 0.53079634 1.27557239 0.05103344
v 0.13080634 1.25481295 0.05137706
v 0.53079634 1.21966488 -0.00402093
v 0.13080634 1.21966488 -0.00402093
v 0.53079634 1.25481295 0.05137706
v 0.13080634 1.23432148 0.04994731
v 0.53079634 1.21608259 0.01055266
v 0.13080634 1.21955570 -0.00360361
v 0.53079634 1.23370625 0.04990435
v 0.13080634 1.23370625 0.04990435
v 0.53079634 1.21650929 0.03131770
v 0.13080634 1.21608259 0.01055266
v 0.53079634 1.22009157 0.04543107
v 0.13080634 1.22009157 0.04543107
v 0.53079634 1.21651922 0.03164905
v 0.13080634 1.21651922 0.03164905
v 0.53079634 1.22003202 0.04521631
v 0.13080634 1.21661846 0.03204789
f 1 2 5
f 1 5 9
f 1 9 14
f 1 14 18
f 1 18 22
f 1 22 26
f 1 26 30
f 1 30 34
f 1 34 38
f 1 38 42
f 1 42 46
f 1 46 44
f 1 44 40
f 1 40 36
f 1 36 32
f 1 32 28
f 1 28 24
f 1 24 20
f 1 20 16
f 1 16 12
f 1 12 7
f 1 7 3
f 1 3 8
f 1 8 4
f 1 4 2
f 2 4 6
f 2 6 5
f 3 7 8
f 4 8 13
f 4 13 17
f 4 17 21
f 4 21 25
f 4 25 29
f 4 29 33
f 4 33 37
f 4 37 41
f 4 41 45
f 4 45 47
f 4 47 43
f 4 43 39
f 4 39 35
f 4 35 31
f 4 31 27
f 4 27 23
f 4 23 19
f 4 19 15
f 4 15 11
f 4 11 10
f 4 10 6
f 5 6 10
f 5 10 11
f 5 11 9
f 7 12 13
f 7 13 8
f 9 11 15
f 9 15 14
f 12 16 17
f 12 17 13
f 14 15 19
f 14 19 18
f 16 20 21
f 16 21 17
f 18 19 23
f 18 23 22
f 20 24 29
f 20 29 25
f 20 25 21
f 22 23 27
f 22 27 26
f 24 28 29
f 26 27 30
f 27 31 30
f 28 32 33
f 28 33 29
f 30 31 34
f 31 35 34
f 32 36 37
f 32 37 33
f 34 35 38
f 35 39 38
f 36 40 41
f 36 41 37
f 38 39 43
f 38 43 42
f 40 44 45
f 40 45 41
f 42 43 46
f 43 47 46
f 44 46 47
f 44 47 45

