# https://github.com/mikedh/trimesh
v 0.13043651 1.31842449 0.43258350
v 0.13043651 1.31305392 0.45237119
v 0.13043651 1.31298267 0.41213831
v 0.06689319 1.31692870 0.36912761
v 0.04579309 1.31778341 0.36912761
v 0.02469296 1.31806829 0.36912761
v 0.02469296 1.31842449 0.43258350
v 0.13043651 1.31298267 0.45260268
v 0.02469296 1.31298267 0.45260268
v 0.13043651 1.31281174 0.41201794
v 0.08193201 1.31212796 0.36912761
v 0.00359286 1.31668652 0.36912761
v 0.00359286 1.31774065 0.43258350
v 0.00359286 1.31264081 0.45231566
v 0.13043651 1.29718440 0.46235302
v 0.02469296 1.29699920 0.46243635
v 0.04579309 1.29699920 0.46246414
v 0.13043651 1.29699920 0.40197128
v 0.08639220 1.29711315 0.36912761
v -0.01057394 1.31164360 0.36912761
v -0.01124584 1.31229889 0.43258350
v -0.00981627 1.31071764 0.44906555
v 0.00359286 1.29699920 0.46150114
v 0.13043651 1.29699920 0.46246414
v 0.02469296 1.27590161 0.46334382
v 0.04579309 1.27590161 0.46337155
v 0.13043651 1.27614379 0.46336231
v 0.13043651 1.29679978 0.40196204
v 0.08642078 1.29699920 0.36912761
v -0.01070261 1.31150116 0.36912761
v -0.01067400 1.31160083 0.36928502
v -0.01521998 1.29699920 0.43258350
v -0.01103139 1.29699920 0.45185268
v 0.00359286 1.27590161 0.46217712
v 0.02469296 1.25480396 0.46369568
v 0.00359286 1.25480396 0.46270488
v 0.04579309 1.25480396 0.46371417
v 0.13043651 1.27590161 0.46337155
v 0.13043651 1.26799534 0.40081383
v 0.08707837 1.27605826 0.36912761
v -0.01444800 1.29699920 0.36912761
v -0.01504842 1.27590161 0.36912761
v -0.01537720 1.25480396 0.36912761
v -0.01559165 1.21260872 0.43258350
v -0.01104570 1.23370637 0.45200084
v -0.01043100 1.25480396 0.45243603
v -0.01127442 1.21260872 0.45163043
v 0.02469296 1.17290649 0.46360304
v 0.00359286 1.17290649 0.46172338
v 0.00608030 1.17290649 0.46194563
v -0.01127442 1.17290649 0.45163043
v -0.00951607 1.17290649 0.45282493
v 0.06689319 1.25480396 0.46371417
v 0.13043651 1.25503193 0.46368643
v 0.13043651 1.25762461 0.40081383
v 0.08749294 1.25480396 0.36912761
v -0.01559165 1.17290649 0.43258350
v -0.01396197 1.23362091 0.36912761
v -0.01399055 1.23370637 0.36928502
v -0.01509131 1.17290649 0.43483357
v 0.02719467 1.17290649 0.46357531
v 0.13043651 1.25480396 0.46368643
v 0.13043651 1.24719684 0.40098979
v 0.08586326 1.23386309 0.36912761
v -0.01178906 1.17290649 0.41539767
v -0.01127442 1.17290649 0.41308283
v -0.00988777 1.22024433 0.36912761
v 0.04579309 1.17290649 0.46336231
v 0.13043651 1.23394856 0.46147334
v 0.04829477 1.17290649 0.46322345
v 0.06689319 1.17290649 0.46217712
v 0.13043651 1.24704019 0.40100834
v 0.08584897 1.23370637 0.36912761
v 0.00350711 1.17290649 0.40262871
v 0.00359286 1.21648350 0.36912761
v 0.13043651 1.23370637 0.46144561
v 0.06875160 1.17290649 0.46101036
v 0.13043651 1.23370637 0.40296208
v 0.08095992 1.21984549 0.36912761
v 0.01741657 1.17290649 0.40122128
v 0.02469296 1.21530115 0.36912761
v 0.02942477 1.17290649 0.40061938
v 0.01916061 1.17290649 0.40106387
v 0.13043651 1.21934685 0.45138039
v 0.08253242 1.17290649 0.45231566
v 0.13043651 1.21919020 0.41346242
v 0.08253242 1.17290649 0.41238835
v 0.08073118 1.17290649 0.41109198
v 0.06702185 1.17290649 0.40218428
v 0.06689319 1.21634106 0.36912761
v 0.04579309 1.21557182 0.36912761
v 0.03618652 1.17290649 0.40061938
v 0.13043651 1.21919020 0.45126933
v 0.08316143 1.17290649 0.44999151
v 0.13043651 1.21521568 0.43258350
v 0.08763590 1.17290649 0.43258350
v 0.04798027 1.17290649 0.40110091
v 0.03873112 1.17290649 0.40064717
v 0.13043651 1.21525845 0.43278719
f 1 2 8
f 1 8 15
f 1 15 24
f 1 24 27
f 1 27 38
f 1 38 54
f 1 54 62
f 1 62 69
f 1 69 76
f 1 76 84
f 1 84 93
f 1 93 99
f 1 99 95
f 1 95 86
f 1 86 78
f 1 78 72
f 1 72 63
f 1 63 55
f 1 55 39
f 1 39 28
f 1 28 18
f 1 18 10
f 1 10 3
f 1 3 4
f 1 4 5
f 1 5 6
f 1 6 7
f 1 7 2
f 2 7 9
f 2 9 8
f 3 10 11
f 3 11 4
f 4 11 19
f 4 19 29
f 4 29 40
f 4 40 56
f 4 56 64
f 4 64 73
f 4 73 79
f 4 79 90
f 4 90 91
f 4 91 81
f 4 81 75
f 4 75 67
f 4 67 58
f 4 58 43
f 4 43 42
f 4 42 41
f 4 41 30
f 4 30 20
f 4 20 12
f 4 12 6
f 4 6 5
f 6 12 13
f 6 13 7
f 7 13 14
f 7 14 9
f 8 9 15
f 9 14 16
f 9 16 17
f 9 17 15
f 10 18 11
f 11 18 19
f 12 20 13
f 13 20 21
f 13 21 22
f 13 22 14
f 14 22 23
f 14 23 16
f 15 17 24
f 16 25 26
f 16 26 17
f 16 23 25
f 17 26 27
f 17 27 24
f 18 28 29
f 18 29 19
f 20 30 31
f 20 31 21
f 21 31 30
f 21 30 32
f 21 32 22
f 22 32 33
f 22 33 23
f 23 34 25
f 23 33 34
f 25 35 26
f 25 34 36
f 25 36 35
f 26 35 37
f 26 37 53
f 26 53 38
f 26 38 27
f 28 39 29
f 29 39 40
f 30 41 32
f 32 41 42
f 32 42 43
f 32 43 44
f 32 44 33
f 33 45 46
f 33 46 36
f 33 36 34
f 33 44 47
f 33 47 45
f 35 48 37
f 35 36 48
f 36 49 50
f 36 50 48
f 36 46 45
f 36 45 51
f 36 51 52
f 36 52 49
f 37 48 53
f 38 53 54
f 39 55 56
f 39 56 40
f 43 57 44
f 43 58 59
f 43 59 57
f 44 57 60
f 44 60 47
f 45 47 51
f 47 60 51
f 48 61 62
f 48 62 53
f 48 50 49
f 48 49 52
f 48 52 51
f 48 51 60
f 48 60 57
f 48 57 65
f 48 65 66
f 48 66 74
f 48 74 80
f 48 80 83
f 48 83 82
f 48 82 92
f 48 92 98
f 48 98 97
f 48 97 89
f 48 89 88
f 48 88 87
f 48 87 96
f 48 96 94
f 48 94 85
f 48 85 77
f 48 77 71
f 48 71 70
f 48 70 68
f 48 68 61
f 53 62 54
f 55 63 56
f 56 63 64
f 57 59 58
f 57 58 65
f 58 66 65
f 58 67 66
f 61 68 62
f 62 68 70
f 62 70 71
f 62 71 69
f 63 72 73
f 63 73 64
f 66 67 74
f 67 75 74
f 69 71 76
f 71 77 76
f 72 78 73
f 73 78 79
f 74 75 80
f 75 81 82
f 75 82 83
f 75 83 80
f 76 77 85
f 76 85 84
f 78 86 79
f 79 87 88
f 79 88 89
f 79 89 90
f 79 86 87
f 81 91 92
f 81 92 82
f 84 85 93
f 85 94 93
f 86 95 96
f 86 96 87
f 89 97 90
f 90 97 98
f 90 98 91
f 91 98 92
f 93 94 96
f 93 96 99
f 95 99 96

