# https://github.com/mikedh/trimesh
v -0.01559580 0.12442691 0.43257796
v -0.01311581 0.12442691 0.42134769
v -0.01127351 0.12442691 0.45163201
v -0.01508967 1.17273707 0.43483023
v -0.01559580 1.17273707 0.43257796
v -0.01127351 0.12442691 0.41302478
v 0.00359638 0.12442691 0.46172678
v -0.01127351 0.63626585 0.45163201
v -0.01127351 1.17273707 0.45162578
v -0.01127351 1.17273707 0.41308717
v -0.00241637 0.12442691 0.40629288
v 0.01260536 0.12442691 0.46253162
v 0.00608652 1.17273707 0.46195135
v 0.00359638 0.63626585 0.46172678
v 0.00360650 1.17273707 0.46172678
v 0.00351541 1.17273707 0.40263053
v 0.00318135 0.12442691 0.40238100
v 0.02470170 0.12442691 0.46360474
v 0.02470170 0.13653781 0.46361097
v 0.02469161 1.17273707 0.46360474
v 0.02470170 0.63626585 0.46361097
v 0.01743380 1.17273707 0.40122675
v 0.02280880 0.12442691 0.39997270
v 0.04577668 0.12442691 0.46336765
v 0.02719184 1.17273707 0.46357977
v 0.04577668 0.63626585 0.46336765
v 0.01916473 1.17273707 0.40107079
v 0.02677681 0.12442691 0.39987290
v 0.02942889 1.17273707 0.40062158
v 0.06688200 0.12442691 0.46217599
v 0.04577668 1.17273707 0.46336143
v 0.06688200 0.63626585 0.46217599
v 0.04197064 0.12442691 0.40002263
v 0.03618057 1.17273707 0.40062158
v 0.08261232 0.12442691 0.45231830
v 0.06875466 1.17273707 0.46100929
v 0.06688200 1.17273707 0.46216976
v 0.06756021 0.12442691 0.40191305
v 0.03870109 1.17273707 0.40065277
v 0.04795301 1.17273707 0.40110821
v 0.06702372 1.17273707 0.40219384
v 0.08779501 0.12442691 0.43257796
v 0.08315893 1.17273707 0.44998491
v 0.08254146 1.17273707 0.45231830
v 0.08261232 0.12442691 0.41230107
v 0.08071942 1.17273707 0.41109072
v 0.08562880 0.12442691 0.42398055
v 0.08764318 1.17273707 0.43257796
v 0.08254146 1.17273707 0.41238842
f 1 2 6
f 1 6 11
f 1 11 17
f 1 17 23
f 1 23 28
f 1 28 33
f 1 33 38
f 1 38 45
f 1 45 47
f 1 47 42
f 1 42 35
f 1 35 30
f 1 30 24
f 1 24 18
f 1 18 12
f 1 12 7
f 1 7 3
f 1 3 4
f 1 4 5
f 1 5 2
f 2 5 6
f 3 7 14
f 3 14 8
f 3 8 4
f 4 9 15
f 4 15 13
f 4 13 20
f 4 20 25
f 4 25 31
f 4 31 37
f 4 37 36
f 4 36 44
f 4 44 43
f 4 43 48
f 4 48 49
f 4 49 46
f 4 46 41
f 4 41 40
f 4 40 39
f 4 39 34
f 4 34 29
f 4 29 27
f 4 27 22
f 4 22 16
f 4 16 10
f 4 10 5
f 4 8 9
f 5 10 6
f 6 10 11
f 7 12 13
f 7 13 14
f 8 14 9
f 9 14 15
f 10 16 11
f 11 16 17
f 12 18 19
f 12 19 13
f 13 15 14
f 13 19 21
f 13 21 20
f 16 22 23
f 16 23 17
f 18 24 19
f 19 24 26
f 19 26 21
f 20 21 25
f 21 26 25
f 22 27 23
f 23 27 29
f 23 29 28
f 24 30 32
f 24 32 26
f 25 26 31
f 26 32 37
f 26 37 31
f 28 29 34
f 28 34 33
f 30 35 36
f 30 36 32
f 32 36 37
f 33 34 39
f 33 39 40
f 33 40 41
f 33 41 38
f 35 42 43
f 35 43 44
f 35 44 36
f 38 41 46
f 38 46 45
f 42 47 48
f 42 48 43
f 45 46 49
f 45 49 47
f 47 49 48

