# https://github.com/mikedh/trimesh
v 0.56833139 0.36985949 0.01055159
v 0.56833139 0.36983502 0.01097237
v 0.56833139 0.36380262 -0.00278254
v 0.10914295 0.35807614 0.00439499
v 0.10914295 0.35911621 0.01055159
v 0.56833139 0.36847683 0.03313616
v 0.10914295 0.35788037 0.03153359
v 0.56833139 0.34787122 -0.00763359
v 0.13022356 0.34710034 -0.00579588
v 0.10914295 0.34981675 -0.00480590
v 0.56833139 0.36164909 0.04308573
v 0.10914295 0.35724407 0.03426230
v 0.56833139 0.32632345 -0.01160597
v 0.13022356 0.32632345 -0.01160597
v 0.10914295 0.32627449 -0.01160597
v 0.56833139 0.34885010 0.04742940
v 0.10914295 0.34657419 0.04686014
v 0.56833139 0.28414557 -0.01160597
v 0.10914295 0.30519168 -0.01160597
v 0.56833139 0.34550965 0.04820902
v 0.10914295 0.32632345 0.05160598
v 0.56833139 0.26588933 -0.00754077
v 0.33073644 0.28413334 -0.01160597
v 0.13022356 0.28413334 -0.01160597
v 0.10914295 0.28409665 -0.01158119
v 0.56833139 0.32632345 0.05160598
v 0.10914295 0.28413334 0.05160598
v 0.56833139 0.26226742 -0.00643319
v 0.10914295 0.26502056 -0.00576494
v 0.56833139 0.28414557 0.05160598
v 0.10914295 0.26598721 0.04690347
v 0.56833139 0.26287923 0.04739846
v 0.33073644 0.28413334 0.05160598
v 0.56833139 0.24966424 0.00551496
v 0.10914295 0.25541521 0.01055159
v 0.56833139 0.24486768 0.01055159
v 0.10914295 0.25636963 0.03164496
v 0.56833139 0.24659298 0.03164496
f 1 2 6
f 1 6 11
f 1 11 16
f 1 16 20
f 1 20 26
f 1 26 30
f 1 30 32
f 1 32 38
f 1 38 36
f 1 36 34
f 1 34 28
f 1 28 22
f 1 22 18
f 1 18 13
f 1 13 8
f 1 8 3
f 1 3 4
f 1 4 5
f 1 5 2
f 2 5 7
f 2 7 6
f 3 8 9
f 3 9 10
f 3 10 4
f 4 10 15
f 4 15 19
f 4 19 25
f 4 25 29
f 4 29 35
f 4 35 37
f 4 37 31
f 4 31 27
f 4 27 21
f 4 21 17
f 4 17 12
f 4 12 7
f 4 7 5
f 6 7 12
f 6 12 11
f 8 13 14
f 8 14 15
f 8 15 9
f 9 15 10
f 11 12 17
f 11 17 16
f 13 18 23
f 13 23 24
f 13 24 19
f 13 19 15
f 13 15 14
f 16 17 21
f 16 21 20
f 18 22 23
f 19 24 25
f 20 21 26
f 21 27 33
f 21 33 30
f 21 30 26
f 22 28 29
f 22 29 25
f 22 25 24
f 22 24 23
f 27 31 32
f 27 32 33
f 28 34 29
f 29 34 36
f 29 36 35
f 30 33 32
f 31 37 38
f 31 38 32
f 35 36 37
f 36 38 37
