# https://github.com/mikedh/trimesh
v 0.53027890 0.09072513 0.01055266
v 0.53027890 0.09071520 0.01140561
v 0.53027890 0.08730157 -0.00343180
v 0.14996107 0.09072513 0.01055266
v 0.53027890 0.09029844 0.03164905
v 0.14996107 0.09070526 0.01189035
v 0.53027890 0.08715278 -0.00402093
v 0.14996107 0.08715278 -0.00402093
v 0.14996107 0.08738100 -0.00310050
v 0.53027890 0.08672602 0.04543107
v 0.14996107 0.09029844 0.03164905
v 0.53027890 0.07367703 -0.00931031
v 0.14996107 0.07311141 -0.00953130
v 0.53027890 0.08618028 0.04561514
v 0.14996107 0.08672602 0.04543107
v 0.53027890 0.07311141 -0.00953130
v 0.14996107 0.05200471 -0.01131077
v 0.53027890 0.07311141 0.04990435
v 0.14996107 0.07311141 0.04990435
v 0.53027890 0.05200471 -0.01131077
v 0.14996107 0.03225745 -0.01096716
v 0.53027890 0.03176133 -0.01096099
v 0.53027890 0.07225796 0.04996573
v 0.14996107 0.05200471 0.05137090
v 0.53027890 0.05200471 0.05137706
v 0.14996107 0.03091781 -0.01094263
v 0.53027890 0.03091781 -0.01094263
v 0.14996107 0.05066507 0.05135254
v 0.53027890 0.03091781 0.05102728
v 0.14996107 0.03091781 0.05102728
v 0.14996107 0.00981111 -0.01023690
v 0.53027890 0.01066450 -0.01026759
v 0.53027890 0.03006442 0.05100276
v 0.14996107 0.00981111 0.05041978
v 0.14996107 -0.00568895 -0.00509480
v 0.53027890 0.00981111 -0.01023690
v 0.53027890 0.00981111 0.05041978
v 0.14996107 -0.00506378 0.04629628
v 0.14996107 -0.01064062 0.01055266
v 0.53027890 -0.00568895 -0.00509480
v 0.53027890 -0.00506378 0.04629628
v 0.14996107 -0.00538136 0.04536969
v 0.53027890 -0.00527219 0.04570715
v 0.53027890 -0.01064062 0.01055266
v 0.53027890 -0.01004526 0.03079610
v 0.14996107 -0.01005520 0.03031136
v 0.14996107 -0.01001551 0.03164905
v 0.53027890 -0.01001551 0.03164905
f 1 2 5
f 1 5 10
f 1 10 14
f 1 14 18
f 1 18 23
f 1 23 25
f 1 25 29
f 1 29 33
f 1 33 37
f 1 37 41
f 1 41 43
f 1 43 48
f 1 48 45
f 1 45 44
f 1 44 40
f 1 40 36
f 1 36 32
f 1 32 27
f 1 27 22
f 1 22 20
f 1 20 16
f 1 16 12
f 1 12 7
f 1 7 3
f 1 3 4
f 1 4 2
f 2 4 6
f 2 6 5
f 3 7 8
f 3 8 9
f 3 9 4
f 4 9 8
f 4 8 13
f 4 13 17
f 4 17 21
f 4 21 26
f 4 26 31
f 4 31 35
f 4 35 39
f 4 39 46
f 4 46 47
f 4 47 42
f 4 42 38
f 4 38 34
f 4 34 30
f 4 30 28
f 4 28 24
f 4 24 19
f 4 19 15
f 4 15 11
f 4 11 6
f 5 6 11
f 5 11 15
f 5 15 10
f 7 12 8
f 8 12 13
f 10 15 14
f 12 16 13
f 13 16 20
f 13 20 17
f 14 15 19
f 14 19 18
f 17 20 22
f 17 22 21
f 18 19 23
f 19 24 25
f 19 25 23
f 21 22 26
f 22 27 26
f 24 28 25
f 25 28 30
f 25 30 29
f 26 27 32
f 26 32 31
f 29 30 33
f 30 34 33
f 31 32 36
f 31 36 40
f 31 40 35
f 33 34 37
f 34 38 41
f 34 41 37
f 35 40 44
f 35 44 39
f 38 42 43
f 38 43 41
f 39 44 45
f 39 45 46
f 42 47 43
f 43 47 48
f 45 48 47
f 45 47 46
