# https://github.com/mikedh/trimesh
v -0.01471989 0.11521175 0.01055662
v -0.01080370 0.11521175 -0.00431135
v -0.01425918 0.11521175 0.03164704
v -0.01471989 0.63619445 0.01055662
v -0.01348320 0.63619445 0.00585883
v 0.00360006 0.11521175 -0.00972814
v -0.01080370 0.63619445 -0.00431135
v -0.00625706 0.63619445 -0.00602190
v -0.01035509 0.11521175 0.04585192
v -0.01425918 0.63619445 0.03164704
v 0.02469651 0.11521175 -0.01122173
v 0.00360006 0.63619445 -0.00972814
v 0.00360006 0.11521175 0.05042570
v -0.01034299 0.63619445 0.04568457
v -0.01157968 0.63619445 0.04125330
v 0.08798587 0.28416394 -0.01160597
v 0.10909445 0.28416394 -0.01160597
v 0.04579297 0.11521175 -0.01094288
v 0.02469651 0.63619445 -0.01122173
v 0.02456316 0.11521175 0.05170238
v 0.00360006 0.63619445 0.05007245
v -0.00081320 0.63619445 0.04869037
v 0.08798587 0.32633826 -0.01160597
v 0.10914295 0.30522561 -0.01160597
v 0.10914295 0.28411293 -0.01158736
v 0.06688942 0.11521175 -0.01001315
v 0.10909445 0.63619445 -0.01071347
v 0.10914295 0.63614346 -0.01071347
v 0.10914295 0.32628726 -0.01160597
v 0.10909445 0.32633826 -0.01160597
v 0.02469651 0.11521175 0.05170861
v 0.02469651 0.63619445 0.05129336
v 0.01802809 0.63619445 0.05090912
v 0.10914295 0.26504018 -0.00576167
v 0.08222679 0.11521175 -0.00487533
v 0.10914295 0.63619445 0.05043808
v 0.04579297 0.11521175 0.05141115
v 0.10914295 0.28416394 0.05160327
v 0.10914295 0.32633826 0.05160327
v 0.08798587 0.32633826 0.05160327
v 0.10242603 0.63619445 0.05094012
v 0.10914295 0.25540179 0.01055662
v 0.08699168 0.11521175 0.01055662
v 0.10914295 0.63619445 0.05086572
v 0.06675607 0.11521175 0.05060543
v 0.10914295 0.26600913 0.04689925
v 0.06688942 0.11521175 0.05059927
v 0.08153569 0.11521175 0.04636012
v 0.08164482 0.11521175 0.04632289
v 0.10914295 0.25637073 0.03164704
v 0.08699168 0.11521175 0.01068057
v 0.08642184 0.11521175 0.03164704
f 1 2 6
f 1 6 11
f 1 11 18
f 1 18 26
f 1 26 35
f 1 35 43
f 1 43 51
f 1 51 52
f 1 52 49
f 1 49 48
f 1 48 47
f 1 47 45
f 1 45 37
f 1 37 31
f 1 31 20
f 1 20 13
f 1 13 9
f 1 9 3
f 1 3 10
f 1 10 4
f 1 4 5
f 1 5 2
f 2 5 7
f 2 7 8
f 2 8 6
f 3 9 10
f 4 10 15
f 4 15 14
f 4 14 22
f 4 22 21
f 4 21 33
f 4 33 32
f 4 32 41
f 4 41 44
f 4 44 36
f 4 36 27
f 4 27 19
f 4 19 12
f 4 12 8
f 4 8 7
f 4 7 5
f 6 8 12
f 6 12 19
f 6 19 11
f 9 13 14
f 9 14 15
f 9 15 10
f 11 16 17
f 11 17 18
f 11 19 23
f 11 23 16
f 13 20 21
f 13 21 22
f 13 22 14
f 16 23 30
f 16 30 29
f 16 29 24
f 16 24 17
f 17 24 25
f 17 25 26
f 17 26 18
f 19 27 28
f 19 28 29
f 19 29 30
f 19 30 23
f 20 31 32
f 20 32 33
f 20 33 21
f 24 29 28
f 24 28 36
f 24 36 44
f 24 44 39
f 24 39 38
f 24 38 46
f 24 46 50
f 24 50 42
f 24 42 34
f 24 34 25
f 25 34 35
f 25 35 26
f 27 36 28
f 31 37 38
f 31 38 39
f 31 39 40
f 31 40 32
f 32 40 39
f 32 39 41
f 34 42 43
f 34 43 35
f 37 45 38
f 38 45 47
f 38 47 48
f 38 48 49
f 38 49 46
f 39 44 41
f 42 50 51
f 42 51 43
f 46 49 52
f 46 52 50
f 50 52 51
