# https://github.com/mikedh/trimesh
v 0.67672188 0.05199798 2.05736410
v 0.67638436 0.05199798 2.07834553
v 0.67601194 0.03092567 2.09947575
v 0.67586063 0.00981966 2.09947575
v 0.67633782 0.03092567 2.05736410
v 0.67636109 0.03091442 1.97968811
v 0.67637273 0.03091442 1.83043715
v 0.67637273 0.03115069 0.60131180
v 0.67671025 0.05199798 0.60131180
v 0.67601194 0.10366043 2.09947575
v 0.67602357 0.07727793 2.09947575
v 0.67210147 0.03092567 2.11435624
v 0.67208984 0.00981966 2.11435624
v 0.67079799 -0.00356849 2.11286818
v 0.67198507 -0.00489606 2.09947575
v 0.67205490 -0.00462602 0.60131180
v 0.67577916 0.00981966 0.60131180
v 0.67531363 0.07310399 0.60131180
v 0.67563952 0.10366043 2.07834553
v 0.64101555 0.10368294 1.97299193
v 0.64101555 0.10368294 1.97968811
v 0.67210147 0.10366043 2.11435624
v 0.67120532 0.08651459 0.60131180
v 0.65771651 0.07727793 2.11986195
v 0.65770488 0.03092567 2.11986195
v 0.65770488 0.00981966 2.11956437
v 0.65770488 -0.00531231 2.11480262
v 0.65770488 -0.00999250 2.09947575
v 0.65770488 -0.01002627 2.07834553
v 0.67184542 -0.00483977 0.60131180
v 0.67199673 -0.00478349 0.60131180
v 0.67197343 0.10366043 2.06093538
v 0.63646498 0.10368294 1.93132665
v 0.64042198 0.10368294 1.95186164
v 0.63581324 0.09981275 0.60131180
v 0.61538799 0.10283917 0.60131180
v 0.57690011 0.10368294 1.97968811
v 0.63661625 0.10366043 2.12135001
v 0.65771651 0.10366043 2.11986195
v 0.63661625 0.07727793 2.12135001
v 0.63660462 0.03092567 2.12135001
v 0.63660462 0.00981966 2.12105242
v 0.63660462 -0.00588610 2.11539791
v 0.59446231 -0.01015003 2.09947575
v 0.63660462 -0.01123007 2.05736410
v 0.63661625 -0.01125258 1.97968811
v 0.63661625 -0.01125258 1.83043715
v 0.63662789 -0.01124133 0.60131180
v 0.65773978 -0.00985754 0.60131180
v 0.62834143 0.10368294 1.91793422
v 0.61422415 0.10283917 0.60131180
v 0.62251064 0.10368294 1.91748784
v 0.57690011 0.10368294 1.95186164
v 0.57367630 0.10366043 2.05736410
v 0.57409527 0.10366043 2.07834553
v 0.57429313 0.10366043 2.08786903
v 0.57457245 0.10366043 2.09947575
v 0.57664407 0.10366043 2.10646959
v 0.57929760 0.10366043 2.11495141
v 0.59446231 0.10366043 2.12001087
v 0.61555093 0.10366043 2.12105242
v 0.62498959 0.10366043 2.12120121
v 0.63660462 0.07727793 2.12135001
v 0.61556256 0.03092567 2.12105242
v 0.61556256 0.00981966 2.12060604
v 0.59446231 -0.00532357 2.11480262
v 0.61556256 -0.00564983 2.11510033
v 0.58082222 -0.00390595 2.11331456
v 0.57902992 -0.00533476 2.09947575
v 0.59446231 -0.01029631 2.07834553
v 0.61556256 -0.01096009 2.05736410
v 0.61555093 -0.01096009 1.83043715
v 0.61555093 -0.01096009 0.60131180
v 0.63639514 -0.01124133 0.60131180
v 0.59580072 0.10229909 0.60131180
v 0.57772644 0.10368294 1.94337982
v 0.57947218 0.10368294 1.93073141
v 0.58075239 0.10368294 1.92522564
v 0.58291712 0.10368294 1.91852945
v 0.58559393 0.10368294 1.91778543
v 0.57367630 0.10366043 2.04575731
v 0.55783657 0.07325021 2.03623381
v 0.55783657 0.07267648 2.07834553
v 0.55783657 0.06894125 2.09754132
v 0.55783657 0.05932203 2.10245186
v 0.55783657 0.05199798 2.10557677
v 0.57536385 0.05199798 2.11495141
v 0.59446231 0.03092567 2.12001087
v 0.57531730 0.03092567 2.11495141
v 0.61555093 0.07727793 2.12105242
v 0.59446231 0.00981966 2.11971316
v 0.57731908 0.00981966 2.11495141
v 0.55783657 0.03092567 2.10602314
v 0.55783657 0.01326233 2.09783891
v 0.55783657 0.01068594 2.08638097
v 0.55783657 0.00925713 2.07834553
v 0.55783657 0.00855964 2.03623381
v 0.57943726 -0.00531231 0.60131180
v 0.59443904 -0.01010500 0.60131180
v 0.57841310 0.09606633 0.60131180
v 0.55783657 0.06907627 2.01435956
v 0.57800576 0.09464877 0.60131180
v 0.57417674 0.07310399 0.60131180
v 0.55783657 0.04027491 2.10587435
v 0.55783657 0.01191226 2.01956775
v 0.57496814 0.00981966 0.60131180
v 0.55783657 0.06008707 2.00349686
v 0.57394398 0.05199798 0.60131180
v 0.55783657 0.01322863 2.01361553
v 0.57433969 0.03067821 0.60131180
v 0.55783657 0.05119918 1.99575900
v 0.55783657 0.03082442 1.99471739
f 1 2 3
f 1 3 4
f 1 4 5
f 1 5 6
f 1 6 7
f 1 7 8
f 1 8 9
f 1 9 10
f 1 10 2
f 2 10 11
f 2 11 3
f 3 11 12
f 3 12 13
f 3 13 4
f 4 13 14
f 4 14 15
f 4 15 16
f 4 16 17
f 4 17 8
f 4 8 7
f 4 7 6
f 4 6 5
f 8 17 16
f 8 16 31
f 8 31 30
f 8 30 49
f 8 49 48
f 8 48 74
f 8 74 73
f 8 73 99
f 8 99 98
f 8 98 106
f 8 106 110
f 8 110 108
f 8 108 103
f 8 103 102
f 8 102 100
f 8 100 75
f 8 75 51
f 8 51 36
f 8 36 35
f 8 35 23
f 8 23 18
f 8 18 9
f 9 18 10
f 10 19 20
f 10 20 21
f 10 21 22
f 10 22 11
f 10 18 23
f 10 23 19
f 11 22 12
f 12 22 39
f 12 39 24
f 12 24 25
f 12 25 13
f 13 25 26
f 13 26 14
f 14 26 27
f 14 27 28
f 14 28 15
f 15 28 29
f 15 29 30
f 15 30 31
f 15 31 16
f 19 32 33
f 19 33 34
f 19 34 20
f 19 23 35
f 19 35 36
f 19 36 32
f 20 34 33
f 20 33 50
f 20 50 52
f 20 52 80
f 20 80 79
f 20 79 78
f 20 78 77
f 20 77 76
f 20 76 53
f 20 53 37
f 20 37 21
f 21 37 38
f 21 38 39
f 21 39 22
f 24 39 38
f 24 38 40
f 24 40 41
f 24 41 25
f 25 41 42
f 25 42 26
f 26 42 27
f 27 42 43
f 27 43 28
f 28 43 44
f 28 44 45
f 28 45 29
f 29 45 46
f 29 46 47
f 29 47 48
f 29 48 49
f 29 49 30
f 32 36 33
f 33 36 50
f 36 51 52
f 36 52 50
f 37 53 81
f 37 81 54
f 37 54 55
f 37 55 56
f 37 56 57
f 37 57 58
f 37 58 59
f 37 59 60
f 37 60 61
f 37 61 62
f 37 62 38
f 38 62 63
f 38 63 41
f 38 41 40
f 41 63 62
f 41 62 64
f 41 64 42
f 42 64 65
f 42 65 66
f 42 66 67
f 42 67 43
f 43 67 44
f 44 67 66
f 44 66 68
f 44 68 69
f 44 69 70
f 44 70 71
f 44 71 45
f 45 71 46
f 46 71 72
f 46 72 73
f 46 73 47
f 47 73 74
f 47 74 48
f 51 75 53
f 51 53 76
f 51 76 77
f 51 77 78
f 51 78 79
f 51 79 80
f 51 80 52
f 53 75 81
f 54 81 82
f 54 82 83
f 54 83 55
f 55 83 56
f 56 83 57
f 57 83 84
f 57 84 58
f 58 84 59
f 59 84 85
f 59 85 86
f 59 86 87
f 59 87 60
f 60 88 90
f 60 90 61
f 60 87 89
f 60 89 88
f 61 90 62
f 62 90 64
f 64 90 88
f 64 88 91
f 64 91 65
f 65 91 66
f 66 91 68
f 68 91 92
f 68 92 93
f 68 93 94
f 68 94 95
f 68 95 69
f 69 95 96
f 69 96 97
f 69 97 98
f 69 98 70
f 70 98 99
f 70 99 73
f 70 73 72
f 70 72 71
f 75 100 81
f 81 100 82
f 82 101 107
f 82 107 111
f 82 111 112
f 82 112 109
f 82 109 105
f 82 105 97
f 82 97 96
f 82 96 95
f 82 95 94
f 82 94 93
f 82 93 104
f 82 104 86
f 82 86 85
f 82 85 84
f 82 84 83
f 82 100 102
f 82 102 103
f 82 103 101
f 86 104 87
f 87 104 93
f 87 93 89
f 88 89 91
f 89 93 92
f 89 92 91
f 97 105 106
f 97 106 98
f 101 103 107
f 103 108 107
f 105 109 106
f 106 109 110
f 107 108 111
f 108 112 111
f 108 110 109
f 108 109 112

