# https://github.com/mikedh/trimesh
v 0.55145383 -0.01159350 0.43254583
v 0.55145383 -0.00633877 0.45216731
v 0.55145383 -0.00520798 0.40978706
v 0.56877255 0.00983783 0.05798281
v 0.57501219 -0.00599289 0.05798281
v 0.57886899 -0.00723008 0.05798281
v 0.59445583 -0.01020996 0.05798281
v 0.59963915 -0.01040951 0.05798281
v 0.61554536 -0.01092833 0.05798281
v 0.62070413 -0.01102147 0.05798281
v 0.63662261 -0.01124761 0.05798281
v 0.57334173 -0.01159350 0.43254583
v 0.63638923 -0.01123428 0.60110984
v 0.61554536 -0.01095493 0.60110984
v 0.59444353 -0.01010356 0.60110984
v 0.57943400 -0.00531445 0.60110984
v 0.55145383 -0.00613923 0.45291178
v 0.55145383 0.00645880 0.40122587
v 0.56828123 0.03093655 0.05798281
v 0.63662261 -0.01124761 0.47790389
v 0.65772441 -0.00983748 0.05798281
v 0.65773667 -0.00985081 0.47790389
v 0.63662261 -0.01123428 0.60110984
v 0.57496306 0.00981117 0.60110984
v 0.55145383 0.00812168 0.46333401
v 0.55145383 0.00983783 0.40064095
v 0.56782677 0.05200867 0.05798281
v 0.65773667 -0.00985081 0.60110984
v 0.67198469 -0.00476902 0.05798281
v 0.66492212 -0.00728328 0.10568056
v 0.67199698 -0.00478229 0.47790389
v 0.57434893 0.03069708 0.60110984
v 0.55145383 0.00838776 0.46338721
v 0.55145383 0.03130904 0.39830127
v 0.55145383 0.05289992 0.39761000
v 0.55145383 0.07435785 0.40138542
v 0.55145383 0.08800686 0.41303069
v 0.56919015 0.07309406 0.05798281
v 0.67199698 -0.00478229 0.60110984
v 0.67576781 0.00983783 0.05798281
v 0.67200928 -0.00475569 0.36889562
v 0.57394360 0.05203527 0.60110984
v 0.55145383 0.03093655 0.46583324
v 0.55145383 0.09238355 0.43254583
v 0.57585970 0.09151884 0.05798281
v 0.67578007 0.00981117 0.60110984
v 0.67200928 -0.00475569 0.47790389
v 0.67635738 0.03093655 0.05798281
v 0.67638194 0.03128237 0.36889562
v 0.67579237 0.01019699 0.36889562
v 0.67578007 0.00981117 0.47790389
v 0.57417696 0.07310739 0.60110984
v 0.55145383 0.05203527 0.46636496
v 0.55145383 0.04763192 0.46631182
v 0.57362424 0.12429767 0.45360304
v 0.57353826 0.12429767 0.44153239
v 0.57352598 0.12429767 0.43254583
v 0.55145383 0.09223721 0.43323709
v 0.57904095 0.10979735 0.58026535
v 0.59375571 0.09765161 0.05798281
v 0.57872159 0.12429767 0.41228622
v 0.67636965 0.03090989 0.60110984
v 0.67628368 0.02775706 0.47790389
v 0.67661532 0.04684701 0.05798281
v 0.67671358 0.05200867 0.10568056
v 0.67673814 0.05203527 0.43254583
v 0.57800920 0.09464506 0.60110984
v 0.57399272 0.09420611 0.58026535
v 0.55145383 0.08800686 0.45216731
v 0.55145383 0.07531570 0.46296184
v 0.55145383 0.07422484 0.46322766
v 0.55145383 0.06242499 0.46514197
v 0.57604395 0.12429767 0.47471346
v 0.57730908 0.12431101 0.47790389
v 0.58077282 0.10800139 0.59510108
v 0.60521555 0.12431101 0.55915493
v 0.58035520 0.12431101 0.49156982
v 0.59445583 0.09785115 0.05798281
v 0.58749149 0.12429767 0.40595844
v 0.67671358 0.05203527 0.60110984
v 0.67668902 0.05200867 0.05798281
v 0.67693466 0.09419277 0.43254583
v 0.57841453 0.09606853 0.60110984
v 0.63162352 0.12429767 0.39979020
v 0.61934075 0.12429767 0.39994968
v 0.61509090 0.12429767 0.40016243
v 0.59376799 0.12429767 0.40186399
v 0.64227268 0.12431101 0.47790389
v 0.61929160 0.10913218 0.59520746
v 0.61732635 0.12431101 0.57776612
v 0.59580694 0.10229438 0.60110984
v 0.61554536 0.09858279 0.05798281
v 0.67531335 0.07310739 0.60110984
v 0.67693466 0.12429767 0.43254583
v 0.67592748 0.06791913 0.05798281
v 0.63662261 0.09882227 0.05798281
v 0.63455910 0.12429767 0.39979020
v 0.63691739 0.12431101 0.55016843
v 0.67259885 0.12429767 0.41297749
v 0.65815431 0.12429767 0.40228937
v 0.62956001 0.10913218 0.59520746
v 0.61421881 0.10282647 0.60110984
v 0.62211665 0.12431101 0.57776612
v 0.67119859 0.08650359 0.60110984
v 0.67557128 0.07309406 0.05798281
v 0.67307787 0.08799353 0.05798281
v 0.67197243 0.09163858 0.05798281
v 0.65772441 0.09773142 0.05798281
v 0.63505041 0.12431101 0.55936765
v 0.63238503 0.12431101 0.57228914
v 0.67445354 0.12429767 0.44349984
v 0.65655755 0.09779795 0.05798281
v 0.63066545 0.12431101 0.57686216
v 0.61538569 0.10282647 0.60110984
v 0.63582421 0.09981999 0.60110984
v 0.67259885 0.12429767 0.45163559
f 1 2 17
f 1 17 25
f 1 25 33
f 1 33 43
f 1 43 54
f 1 54 53
f 1 53 72
f 1 72 71
f 1 71 70
f 1 70 69
f 1 69 58
f 1 58 44
f 1 44 37
f 1 37 36
f 1 36 35
f 1 35 34
f 1 34 26
f 1 26 18
f 1 18 3
f 1 3 4
f 1 4 5
f 1 5 6
f 1 6 7
f 1 7 8
f 1 8 9
f 1 9 10
f 1 10 11
f 1 11 12
f 1 12 23
f 1 23 13
f 1 13 14
f 1 14 15
f 1 15 16
f 1 16 2
f 2 16 17
f 3 18 4
f 4 19 27
f 4 27 38
f 4 38 45
f 4 45 60
f 4 60 78
f 4 78 92
f 4 92 96
f 4 96 112
f 4 112 108
f 4 108 107
f 4 107 106
f 4 106 105
f 4 105 95
f 4 95 81
f 4 81 64
f 4 64 48
f 4 48 40
f 4 40 29
f 4 29 21
f 4 21 11
f 4 11 10
f 4 10 9
f 4 9 8
f 4 8 7
f 4 7 6
f 4 6 5
f 4 18 19
f 11 20 12
f 11 21 22
f 11 22 28
f 11 28 20
f 12 20 23
f 13 23 28
f 13 28 39
f 13 39 46
f 13 46 62
f 13 62 80
f 13 80 93
f 13 93 104
f 13 104 115
f 13 115 114
f 13 114 102
f 13 102 91
f 13 91 83
f 13 83 67
f 13 67 52
f 13 52 42
f 13 42 32
f 13 32 24
f 13 24 16
f 13 16 15
f 13 15 14
f 16 24 17
f 17 24 25
f 18 26 27
f 18 27 19
f 20 28 23
f 21 29 30
f 21 30 22
f 22 31 39
f 22 39 28
f 22 30 31
f 24 32 33
f 24 33 25
f 26 34 27
f 27 34 35
f 27 35 36
f 27 36 37
f 27 37 38
f 29 40 41
f 29 41 31
f 29 31 30
f 31 41 47
f 31 47 39
f 32 42 33
f 33 42 43
f 37 44 38
f 38 44 45
f 39 47 46
f 40 48 49
f 40 49 50
f 40 50 51
f 40 51 41
f 41 51 46
f 41 46 47
f 42 52 53
f 42 53 54
f 42 54 43
f 44 55 56
f 44 56 57
f 44 57 45
f 44 58 59
f 44 59 55
f 45 57 61
f 45 61 60
f 46 51 50
f 46 50 63
f 46 63 62
f 48 64 65
f 48 65 66
f 48 66 49
f 49 66 62
f 49 62 63
f 49 63 50
f 52 67 68
f 52 68 69
f 52 69 70
f 52 70 71
f 52 71 72
f 52 72 53
f 55 73 74
f 55 74 56
f 55 59 73
f 56 74 57
f 57 74 61
f 58 69 59
f 59 75 76
f 59 76 77
f 59 77 73
f 59 69 75
f 60 61 78
f 61 74 79
f 61 79 78
f 62 66 80
f 64 81 65
f 65 81 82
f 65 82 66
f 66 82 80
f 67 83 68
f 68 83 75
f 68 75 69
f 73 77 74
f 74 84 85
f 74 85 86
f 74 86 87
f 74 87 79
f 74 77 76
f 74 76 90
f 74 90 103
f 74 103 113
f 74 113 110
f 74 110 109
f 74 109 98
f 74 98 88
f 74 88 97
f 74 97 84
f 75 89 90
f 75 90 76
f 75 83 91
f 75 91 89
f 78 79 87
f 78 87 92
f 80 82 94
f 80 94 93
f 81 95 94
f 81 94 82
f 84 96 85
f 84 97 96
f 85 96 86
f 86 96 87
f 87 96 92
f 88 98 94
f 88 94 99
f 88 99 100
f 88 100 97
f 89 101 103
f 89 103 90
f 89 91 102
f 89 102 114
f 89 114 101
f 93 94 104
f 94 95 105
f 94 105 106
f 94 106 107
f 94 107 108
f 94 108 99
f 94 98 109
f 94 109 110
f 94 110 111
f 94 111 104
f 96 97 100
f 96 100 112
f 99 108 100
f 100 108 112
f 101 113 103
f 101 114 115
f 101 115 104
f 101 104 113
f 104 110 113
f 104 111 116
f 104 116 110
f 110 116 111
