# https://github.com/mikedh/trimesh
v -0.01540594 1.25479258 0.03165817
v -0.01471895 1.15517171 0.01055681
v -0.01537732 1.25479258 0.07642993
v -0.01504814 1.27590639 0.07642993
v -0.01504814 1.27590639 0.03165817
v -0.01533437 1.25479258 0.01055681
v -0.01079745 1.15517171 -0.00430694
v -0.01426097 1.15517171 0.03165817
v -0.01416079 1.23629402 0.07642993
v -0.01497657 1.27848976 0.07642993
v -0.01444702 1.29700423 0.03165817
v -0.01428958 1.29700423 0.01055681
v -0.01487639 1.27590639 0.01055681
v -0.01053983 1.29700423 -0.00419526
v -0.01084040 1.27590639 -0.00449599
v -0.01111233 1.25479258 -0.00479672
v -0.00040688 1.15517171 -0.00822486
v -0.01033947 1.15517171 0.04567998
v -0.01398904 1.23371065 0.07642993
v -0.01444702 1.29700423 0.07642993
v -0.01398904 1.29879031 0.07642993
v -0.01068296 1.31159574 0.01055681
v -0.00943781 1.31025623 -0.00290656
v 0.00360050 1.29700423 -0.00944489
v 0.00360050 1.23371065 -0.01009779
v 0.00360050 1.15517171 -0.00972839
v -0.00647519 1.15517171 0.04690001
v -0.00988148 1.22009189 0.07642993
v -0.01038239 1.22173446 0.07642993
v -0.01068296 1.31159574 0.07642993
v 0.00360050 1.31668287 0.03165817
v 0.00360050 1.31653930 0.01055681
v 0.00360050 1.31197848 -0.00468503
v 0.02469654 1.31266421 -0.00531227
v 0.08798459 1.29700423 -0.01030406
v 0.08798459 1.27590639 -0.01097420
v 0.02469654 1.21261275 -0.01121481
v 0.02469654 1.15517171 -0.01121481
v 0.01884290 1.15517171 -0.01080239
v 0.00360050 1.15517171 0.05007038
v 0.00360050 1.21602543 0.07642993
v 0.00360050 1.31668287 0.07642993
v 0.02469654 1.31807024 0.03165817
v 0.02469654 1.31792667 0.01055681
v 0.13080634 1.31250472 -0.00508889
v 0.13080634 1.31205822 -0.00524347
v 0.13080634 1.29700423 -0.01023527
v 0.13080634 1.27590639 -0.01093986
v 0.13080634 1.27530040 -0.01095697
v 0.13080634 1.25479258 -0.01130927
v 0.08798459 1.25479258 -0.01132650
v 0.03993892 1.15517171 -0.01101721
v 0.00945417 1.15517171 0.05041406
v 0.02469654 1.21471780 0.07642993
v 0.02469654 1.15517171 0.05129041
v 0.02469654 1.31807024 0.07642993
v 0.13080634 1.31744828 0.01055681
v 0.13080634 1.31730477 0.01010144
v 0.13080634 1.23371065 -0.00953079
v 0.06688857 1.15517171 -0.01001189
v 0.06103493 1.15517171 -0.01026973
v 0.04579256 1.15517171 -0.01093986
v 0.02727272 1.21474968 0.07642993
v 0.04579256 1.15517171 0.05102407
v 0.04579256 1.21498884 0.07642993
v 0.04579256 1.31778316 0.07642993
v 0.13080634 1.31682638 0.03165817
v 0.13080634 1.21966136 -0.00402345
v 0.08204505 1.15517171 -0.00486539
v 0.06688857 1.15517171 0.05025942
v 0.06688857 1.21588192 0.07642993
v 0.04838304 1.21508456 0.07642993
v 0.06429806 1.31703366 0.07642993
v 0.06688857 1.31692203 0.07642993
v 0.13080634 1.31188276 0.04629861
v 0.13080634 1.21608920 0.01055681
v 0.08666787 1.15517171 0.01055681
v 0.08148689 1.15517171 0.04613535
v 0.08105753 1.21967727 0.07642993
v 0.06860601 1.21629654 0.07642993
v 0.08204505 1.31213796 0.07642993
v 0.13080634 1.29700423 0.05042261
v 0.13080634 1.21651979 0.03165817
v 0.08626713 1.15517171 0.02579859
v 0.08277498 1.15517171 0.04211442
v 0.13080634 1.22009189 0.04543082
v 0.13080634 1.23371065 0.04990712
v 0.08546566 1.23202028 0.07642993
v 0.08663924 1.29700423 0.07642993
v 0.13080634 1.27651238 0.05100691
v 0.08610969 1.15517171 0.03165817
v 0.08605245 1.23371065 0.07642993
v 0.13080634 1.25479258 0.05137631
v 0.08729760 1.27590639 0.07642993
v 0.13080634 1.27590639 0.05102407
v 0.08749796 1.25220914 0.07642993
v 0.08768403 1.25479258 0.07642993
f 1 2 3
f 1 3 4
f 1 4 5
f 1 5 6
f 1 6 2
f 2 7 17
f 2 17 26
f 2 26 39
f 2 39 38
f 2 38 52
f 2 52 62
f 2 62 61
f 2 61 60
f 2 60 69
f 2 69 77
f 2 77 84
f 2 84 91
f 2 91 85
f 2 85 78
f 2 78 70
f 2 70 64
f 2 64 55
f 2 55 53
f 2 53 40
f 2 40 27
f 2 27 18
f 2 18 8
f 2 8 3
f 2 6 7
f 3 8 9
f 3 9 19
f 3 19 29
f 3 29 28
f 3 28 41
f 3 41 54
f 3 54 63
f 3 63 65
f 3 65 72
f 3 72 71
f 3 71 80
f 3 80 79
f 3 79 88
f 3 88 92
f 3 92 96
f 3 96 97
f 3 97 94
f 3 94 89
f 3 89 81
f 3 81 74
f 3 74 73
f 3 73 66
f 3 66 56
f 3 56 42
f 3 42 30
f 3 30 21
f 3 21 20
f 3 20 10
f 3 10 4
f 4 10 5
f 5 10 11
f 5 11 12
f 5 12 13
f 5 13 6
f 6 13 14
f 6 14 15
f 6 15 16
f 6 16 7
f 7 16 17
f 8 18 19
f 8 19 9
f 10 20 11
f 11 20 21
f 11 21 22
f 11 22 12
f 12 22 23
f 12 23 14
f 12 14 13
f 14 23 24
f 14 24 15
f 15 24 16
f 16 24 25
f 16 25 26
f 16 26 17
f 18 27 28
f 18 28 29
f 18 29 19
f 21 30 22
f 22 30 42
f 22 42 31
f 22 31 32
f 22 32 23
f 23 32 33
f 23 33 24
f 24 33 34
f 24 34 35
f 24 35 36
f 24 36 37
f 24 37 25
f 25 37 38
f 25 38 39
f 25 39 26
f 27 40 28
f 28 40 41
f 31 42 56
f 31 56 43
f 31 43 44
f 31 44 32
f 32 44 33
f 33 44 34
f 34 44 45
f 34 45 46
f 34 46 47
f 34 47 35
f 35 47 48
f 35 48 36
f 36 48 49
f 36 49 50
f 36 50 51
f 36 51 37
f 37 51 38
f 38 51 50
f 38 50 52
f 40 53 41
f 41 53 55
f 41 55 54
f 43 56 57
f 43 57 44
f 44 57 58
f 44 58 45
f 45 58 57
f 45 57 67
f 45 67 75
f 45 75 82
f 45 82 90
f 45 90 95
f 45 95 93
f 45 93 87
f 45 87 86
f 45 86 83
f 45 83 76
f 45 76 68
f 45 68 59
f 45 59 50
f 45 50 49
f 45 49 48
f 45 48 47
f 45 47 46
f 50 59 60
f 50 60 61
f 50 61 62
f 50 62 52
f 54 55 63
f 55 64 65
f 55 65 63
f 56 66 57
f 57 66 67
f 59 68 69
f 59 69 60
f 64 70 71
f 64 71 72
f 64 72 65
f 66 73 67
f 67 73 74
f 67 74 75
f 68 76 77
f 68 77 69
f 70 78 79
f 70 79 80
f 70 80 71
f 74 81 75
f 75 81 82
f 76 83 77
f 77 83 84
f 78 85 86
f 78 86 79
f 79 86 87
f 79 87 88
f 81 89 82
f 82 89 90
f 83 86 91
f 83 91 84
f 85 91 86
f 87 92 88
f 87 93 92
f 89 94 95
f 89 95 90
f 92 93 96
f 93 95 94
f 93 94 97
f 93 97 96

