# https://github.com/mikedh/trimesh
v -0.01471989 0.70841228 0.01055159
v -0.01121600 0.70841228 -0.00275776
v -0.01425757 0.70841228 0.03165113
v -0.01471989 1.15515574 0.01055159
v -0.01080235 0.70841228 -0.00431084
v -0.01080235 1.15515574 -0.00431084
v -0.01035220 0.70841228 0.04568451
v -0.01317477 1.15515574 0.03554314
v -0.01425757 1.15515574 0.03165113
v 0.00359037 0.70841228 -0.00973116
v 0.00359037 1.15515574 -0.00973116
v 0.00359037 0.70841228 0.05007767
v -0.01035220 1.15515574 0.04568451
v 0.02469887 0.70841228 -0.01122235
v 0.02469887 1.15515574 -0.01122235
v 0.02469887 0.70841228 0.05129041
v 0.00359037 1.15515574 0.05007767
v 0.04359308 0.70841228 -0.01096866
v 0.08798786 0.98048188 -0.01160597
v 0.10957084 0.98048188 -0.01160597
v 0.03994322 1.15515574 -0.01101809
v 0.10957084 1.02268526 -0.01160597
v 0.08798786 1.02268526 -0.01160597
v 0.02690095 0.70841228 0.05126569
v 0.10957084 0.98048188 0.05160598
v 0.08798786 0.98048188 0.05160598
v 0.02469887 1.15515574 0.05129041
v 0.04579520 0.70841228 -0.01093772
v 0.10957084 0.98000082 -0.01146988
v 0.09959449 0.70841228 0.01055159
v 0.08722138 0.70841228 -0.00576494
v 0.08548161 0.70841228 -0.00634653
v 0.06689153 0.70841228 -0.01017049
v 0.06467727 0.70841228 -0.01026948
v 0.04579520 1.15515574 -0.01093772
v 0.10957084 1.04135971 -0.00593197
v 0.06102738 1.15515574 -0.01026948
v 0.06689153 1.15515574 -0.01000962
v 0.07782902 1.15515574 -0.00629710
v 0.08203855 1.15515574 -0.00486778
v 0.04579520 0.70841228 0.05102433
v 0.10957084 0.96023303 0.04690347
v 0.10957084 1.02268526 0.05160598
v 0.06689153 0.70841228 0.05036847
v 0.08688073 0.70841228 0.04684159
v 0.09845087 0.70841228 0.03165113
v 0.08798786 1.02268526 0.05160598
v 0.04579520 1.15515574 0.05102433
v 0.10957084 0.95739031 -0.00483684
v 0.09896185 0.70841228 0.02352688
v 0.10957084 0.95725913 -0.00476250
v 0.10957084 0.94772509 0.01055159
v 0.10957084 0.94785628 0.02088484
v 0.10957084 0.94886217 0.03321660
v 0.10957084 1.04175333 -0.00580204
v 0.08667391 1.15515574 0.01055159
v 0.10957084 1.04079118 0.04690347
v 0.08149106 1.15515574 0.04613617
v 0.06689153 1.15515574 0.05025709
v 0.10957084 1.05119989 0.01018659
v 0.10957084 1.05137484 0.01055159
v 0.08627241 1.15515574 0.02579154
v 0.10957084 1.05041265 0.03165113
v 0.10957084 1.05045642 0.03117469
v 0.10957084 1.04100984 0.04655695
v 0.08611425 1.15515574 0.03165113
f 1 2 5
f 1 5 10
f 1 10 14
f 1 14 18
f 1 18 28
f 1 28 34
f 1 34 33
f 1 33 32
f 1 32 31
f 1 31 30
f 1 30 50
f 1 50 46
f 1 46 45
f 1 45 44
f 1 44 41
f 1 41 24
f 1 24 16
f 1 16 12
f 1 12 7
f 1 7 3
f 1 3 9
f 1 9 4
f 1 4 2
f 2 4 6
f 2 6 5
f 3 7 8
f 3 8 9
f 4 9 8
f 4 8 13
f 4 13 17
f 4 17 27
f 4 27 48
f 4 48 59
f 4 59 58
f 4 58 66
f 4 66 62
f 4 62 56
f 4 56 40
f 4 40 39
f 4 39 38
f 4 38 37
f 4 37 35
f 4 35 21
f 4 21 15
f 4 15 11
f 4 11 6
f 5 6 11
f 5 11 10
f 7 12 17
f 7 17 13
f 7 13 8
f 10 11 15
f 10 15 14
f 12 16 27
f 12 27 17
f 14 15 23
f 14 23 19
f 14 19 20
f 14 20 18
f 15 21 22
f 15 22 23
f 16 24 25
f 16 25 26
f 16 26 47
f 16 47 27
f 18 20 28
f 19 23 22
f 19 22 20
f 20 22 36
f 20 36 55
f 20 55 60
f 20 60 61
f 20 61 64
f 20 64 63
f 20 63 65
f 20 65 57
f 20 57 43
f 20 43 25
f 20 25 42
f 20 42 54
f 20 54 53
f 20 53 52
f 20 52 51
f 20 51 49
f 20 49 29
f 20 29 30
f 20 30 31
f 20 31 32
f 20 32 33
f 20 33 34
f 20 34 28
f 21 35 22
f 22 35 37
f 22 37 38
f 22 38 39
f 22 39 40
f 22 40 36
f 24 41 25
f 25 43 47
f 25 47 26
f 25 41 44
f 25 44 45
f 25 45 46
f 25 46 42
f 27 47 43
f 27 43 48
f 29 49 30
f 30 49 51
f 30 51 52
f 30 52 53
f 30 53 54
f 30 54 42
f 30 42 50
f 36 40 55
f 40 56 55
f 42 46 50
f 43 57 58
f 43 58 59
f 43 59 48
f 55 56 60
f 56 61 60
f 56 62 63
f 56 63 64
f 56 64 61
f 57 65 66
f 57 66 58
f 62 66 63
f 63 66 65
