# https://github.com/mikedh/trimesh
v 0.02469205 1.21470491 0.07643854
v 0.00359336 1.21602027 0.07643854
v 0.04579070 1.21498822 0.07643854
v 0.04579070 1.21557509 0.36909893
v 0.02469205 1.21530190 0.36909893
v 0.00359336 1.21647558 0.36909893
v -0.00988721 1.22008774 0.07643854
v -0.00988721 1.22024961 0.36909893
v 0.04837382 1.21507928 0.07643854
v 0.06688939 1.21634402 0.36909893
v -0.01039172 1.22173691 0.07643854
v -0.01395357 1.23361544 0.36909893
v 0.06688939 1.21587865 0.07643854
v 0.08095519 1.21984486 0.36909893
v 0.06861483 1.21629346 0.07643854
v -0.01398385 1.23370650 0.07643854
v -0.01398385 1.23370650 0.34815574
v -0.01537629 1.25466089 0.36909893
v 0.08584894 1.23370650 0.36909893
v 0.08106617 1.21967286 0.07643854
v 0.08546551 1.23202695 0.07643854
v 0.08606084 1.23370650 0.07643854
v -0.01538638 1.25481264 0.07643854
v -0.01538638 1.25481264 0.36909893
v 0.08748356 1.25481264 0.36909893
v 0.08750374 1.25223253 0.07643854
v -0.01504333 1.27590865 0.07643854
v -0.01505339 1.27574672 0.36909893
v 0.08748356 1.25496439 0.36909893
v 0.08769546 1.25481264 0.07643854
v -0.01497267 1.27848869 0.07643854
v -0.01445809 1.29685286 0.36909893
v 0.08707996 1.27606040 0.36909893
v 0.08729184 1.27590865 0.07643854
v -0.01444800 1.29700460 0.07643854
v -0.01444800 1.29700460 0.36909893
v 0.08642408 1.29700460 0.36909893
v 0.08664608 1.29700460 0.07643854
v -0.01399392 1.29879553 0.07643854
v -0.01070450 1.31150367 0.36909893
v -0.01068434 1.31160486 0.34815574
v 0.08639382 1.29711592 0.36909893
v 0.08204493 1.31213104 0.07643854
v 0.08194403 1.31213104 0.36909893
v -0.01068434 1.31160486 0.07643854
v -0.01058344 1.31164536 0.36909893
v 0.08020851 1.31271785 0.07643854
v 0.06700039 1.31689657 0.36909893
v 0.00359336 1.31668413 0.07643854
v 0.00359336 1.31668413 0.36909893
v 0.06688939 1.31692694 0.07643854
v 0.06688939 1.31692694 0.36909893
v 0.02210892 1.31789824 0.07643854
v 0.00374470 1.31669425 0.36909893
v 0.04579070 1.31777687 0.07643854
v 0.04594207 1.31777687 0.36909893
v 0.02469205 1.31806018 0.07643854
v 0.02469205 1.31806018 0.36909893
v 0.04320761 1.31781731 0.07643854
v 0.02484339 1.31806018 0.36909893
f 1 2 7
f 1 7 11
f 1 11 16
f 1 16 23
f 1 23 27
f 1 27 31
f 1 31 35
f 1 35 39
f 1 39 45
f 1 45 49
f 1 49 53
f 1 53 57
f 1 57 59
f 1 59 55
f 1 55 51
f 1 51 47
f 1 47 43
f 1 43 38
f 1 38 34
f 1 34 30
f 1 30 26
f 1 26 22
f 1 22 21
f 1 21 20
f 1 20 15
f 1 15 13
f 1 13 9
f 1 9 3
f 1 3 4
f 1 4 5
f 1 5 6
f 1 6 2
f 2 6 8
f 2 8 7
f 3 9 4
f 4 10 14
f 4 14 19
f 4 19 25
f 4 25 29
f 4 29 33
f 4 33 37
f 4 37 42
f 4 42 44
f 4 44 48
f 4 48 52
f 4 52 56
f 4 56 60
f 4 60 58
f 4 58 54
f 4 54 50
f 4 50 46
f 4 46 40
f 4 40 36
f 4 36 32
f 4 32 28
f 4 28 24
f 4 24 18
f 4 18 12
f 4 12 8
f 4 8 6
f 4 6 5
f 4 9 10
f 7 8 11
f 8 12 11
f 9 13 10
f 10 13 15
f 10 15 14
f 11 12 17
f 11 17 16
f 12 18 17
f 14 15 20
f 14 20 21
f 14 21 22
f 14 22 19
f 16 17 24
f 16 24 23
f 17 18 24
f 19 22 26
f 19 26 25
f 23 24 28
f 23 28 27
f 25 26 30
f 25 30 29
f 27 28 31
f 28 32 31
f 29 30 34
f 29 34 33
f 31 32 35
f 32 36 35
f 33 34 38
f 33 38 37
f 35 36 39
f 36 40 41
f 36 41 39
f 37 38 42
f 38 43 44
f 38 44 42
f 39 41 45
f 40 46 41
f 41 46 45
f 43 47 44
f 44 47 48
f 45 46 49
f 46 50 49
f 47 51 48
f 48 51 52
f 49 50 54
f 49 54 53
f 51 55 56
f 51 56 52
f 53 54 58
f 53 58 57
f 55 59 56
f 56 59 60
f 57 58 60
f 57 60 59
