# https://github.com/mikedh/trimesh
v 0.63662962 1.04381307 2.05875021
v 0.62511823 1.18041871 1.94083983
v 0.62665974 1.18041871 1.94083983
v 0.65773051 1.04381307 2.06008601
v 0.61552873 1.04381307 2.05901736
v 0.62395707 1.18248213 1.93943278
v 0.59443787 1.04381307 2.05981887
v 0.62523835 1.18248213 1.93943278
v 0.62705015 1.18248213 1.93952183
v 0.67167431 1.04381307 2.06446761
v 0.61194519 1.18248213 1.95220343
v 0.57984342 1.04381307 2.06393325
v 0.62902209 1.18248213 1.94342245
v 0.67167431 1.18248213 2.06439635
v 0.67558817 1.04381307 2.07850288
v 0.58098455 1.08600431 2.04368188
v 0.57884243 1.10709991 2.04124177
v 0.60457789 1.18248213 1.97056678
v 0.57520885 1.04381307 2.07850288
v 0.57593956 1.08600431 2.05741434
v 0.67334596 1.18248213 2.07039876
v 0.67558817 1.18248213 2.07850288
v 0.67604863 1.06489512 2.09960914
v 0.67603860 1.04381307 2.09960914
v 0.57379744 1.10709991 2.05741434
v 0.57827187 1.18248213 2.03819604
v 0.57465829 1.04381307 2.09960914
v 0.67604863 1.18248213 2.09960914
v 0.67437698 1.18248213 2.10596774
v 0.67213474 1.06489512 2.11448151
v 0.67213474 1.04381307 2.11446378
v 0.57379744 1.18248213 2.05741434
v 0.57421786 1.08600431 2.07850288
v 0.57403768 1.18248213 2.06949034
v 0.57928287 1.04381307 2.11503367
v 0.57465829 1.18248213 2.09960914
v 0.57446810 1.18248213 2.09059667
v 0.67213474 1.18248213 2.11448151
v 0.65774051 1.04381307 2.11989616
v 0.57421786 1.18248213 2.07850288
v 0.59443787 1.04381307 2.12018117
v 0.57928287 1.18248213 2.11503367
v 0.65774051 1.18248213 2.11989616
v 0.64871156 1.18248213 2.12053737
v 0.63662962 1.04381307 2.12137453
v 0.61553873 1.04381307 2.12110739
v 0.59443787 1.18248213 2.12018117
v 0.63662962 1.18248213 2.12137453
v 0.62761070 1.18248213 2.12126762
v 0.61553873 1.18248213 2.12110739
f 1 2 3
f 1 3 4
f 1 4 10
f 1 10 15
f 1 15 24
f 1 24 31
f 1 31 39
f 1 39 45
f 1 45 46
f 1 46 41
f 1 41 35
f 1 35 27
f 1 27 19
f 1 19 12
f 1 12 7
f 1 7 5
f 1 5 2
f 2 6 8
f 2 8 3
f 2 5 7
f 2 7 6
f 3 8 9
f 3 9 10
f 3 10 4
f 6 11 18
f 6 18 26
f 6 26 32
f 6 32 34
f 6 34 40
f 6 40 37
f 6 37 36
f 6 36 42
f 6 42 47
f 6 47 50
f 6 50 49
f 6 49 48
f 6 48 44
f 6 44 43
f 6 43 38
f 6 38 29
f 6 29 28
f 6 28 22
f 6 22 21
f 6 21 14
f 6 14 13
f 6 13 9
f 6 9 8
f 6 7 12
f 6 12 11
f 9 13 10
f 10 14 15
f 10 13 14
f 11 16 17
f 11 17 18
f 11 12 16
f 12 19 20
f 12 20 16
f 14 21 15
f 15 21 22
f 15 22 28
f 15 28 23
f 15 23 24
f 16 20 17
f 17 20 25
f 17 25 26
f 17 26 18
f 19 27 25
f 19 25 20
f 23 28 29
f 23 29 30
f 23 30 31
f 23 31 24
f 25 32 26
f 25 27 33
f 25 33 34
f 25 34 32
f 27 35 42
f 27 42 36
f 27 36 37
f 27 37 33
f 29 38 30
f 30 38 43
f 30 43 39
f 30 39 31
f 33 37 40
f 33 40 34
f 35 41 47
f 35 47 42
f 39 43 44
f 39 44 45
f 41 46 50
f 41 50 47
f 44 48 45
f 45 48 49
f 45 49 46
f 46 49 50
