# https://github.com/mikedh/trimesh
v 0.63164238 0.12432428 0.39987315
v 0.63455793 0.12432428 0.39987315
v 0.61935251 0.12432428 0.40002987
v 0.62346261 0.26302500 0.40081370
v 0.63114632 0.26321533 0.40081370
v 0.63121720 0.26302500 0.40081370
v 0.64176580 0.26302500 0.40107494
v 0.65758876 0.26321533 0.40267745
v 0.65815569 0.12432428 0.40238131
v 0.61512090 0.12432428 0.40023891
v 0.62337152 0.26321533 0.40083112
v 0.61291398 0.26321533 0.40133624
v 0.64167471 0.26321533 0.40107494
v 0.65774063 0.26321533 0.40269487
v 0.67248037 0.26321533 0.41300635
v 0.67261196 0.12432428 0.41302377
v 0.59376043 0.12432428 0.40191103
v 0.59443869 0.26321533 0.40225937
v 0.67261196 0.26321533 0.41311081
v 0.67689416 0.26321533 0.43242747
v 0.67692454 0.12432428 0.43260161
v 0.59429697 0.26321533 0.40234647
v 0.58749401 0.12432428 0.40598686
v 0.57880810 0.26321533 0.41241414
v 0.67692454 0.26321533 0.43260161
v 0.67445442 0.12432428 0.44359241
v 0.57870686 0.12432428 0.41230962
v 0.57351353 0.12432428 0.43260161
v 0.57372612 0.26321533 0.43260161
v 0.67261196 0.26321533 0.45163955
v 0.67261196 0.12432428 0.45172665
v 0.57353378 0.12432428 0.44160679
v 0.57880810 0.26321533 0.45233629
v 0.57375650 0.19971102 0.45369486
v 0.57393871 0.22081115 0.45369486
v 0.57931426 0.21998181 0.47527586
v 0.65787222 0.26321533 0.46165496
v 0.62940508 0.13025191 0.57412327
v 0.63067051 0.12432428 0.57687531
v 0.63238138 0.12432428 0.57231178
v 0.57362489 0.12432428 0.45369486
v 0.58275625 0.21239555 0.48617956
v 0.61733792 0.12432428 0.57779847
v 0.59443869 0.26321533 0.46224718
v 0.57602416 0.12432428 0.47478817
v 0.57714785 0.19971102 0.47478817
v 0.65774063 0.26321533 0.46174200
v 0.62080016 0.13025191 0.57412327
v 0.62211621 0.12432428 0.57779847
v 0.63682558 0.26321533 0.46365801
v 0.63663323 0.26321533 0.46367543
v 0.60521004 0.12432428 0.55917858
v 0.59463103 0.26321533 0.46226454
v 0.58035698 0.12432428 0.49157912
v 0.61554609 0.26321533 0.46350123
f 1 2 9
f 1 9 16
f 1 16 21
f 1 21 26
f 1 26 31
f 1 31 40
f 1 40 39
f 1 39 49
f 1 49 43
f 1 43 52
f 1 52 54
f 1 54 45
f 1 45 41
f 1 41 32
f 1 32 28
f 1 28 27
f 1 27 23
f 1 23 17
f 1 17 10
f 1 10 3
f 1 3 4
f 1 4 5
f 1 5 2
f 2 5 6
f 2 6 7
f 2 7 8
f 2 8 9
f 3 10 4
f 4 11 5
f 4 10 12
f 4 12 11
f 5 11 12
f 5 12 18
f 5 18 22
f 5 22 24
f 5 24 29
f 5 29 33
f 5 33 44
f 5 44 53
f 5 53 55
f 5 55 51
f 5 51 50
f 5 50 47
f 5 47 37
f 5 37 30
f 5 30 25
f 5 25 20
f 5 20 19
f 5 19 15
f 5 15 14
f 5 14 8
f 5 8 13
f 5 13 7
f 5 7 6
f 7 13 8
f 8 14 9
f 9 14 15
f 9 15 16
f 10 17 18
f 10 18 12
f 15 19 16
f 16 19 20
f 16 20 21
f 17 22 18
f 17 23 24
f 17 24 22
f 20 25 21
f 21 25 26
f 23 27 24
f 24 27 28
f 24 28 29
f 25 30 31
f 25 31 26
f 28 32 29
f 29 32 34
f 29 34 35
f 29 35 36
f 29 36 33
f 30 37 38
f 30 38 39
f 30 39 40
f 30 40 31
f 32 41 34
f 33 36 42
f 33 42 43
f 33 43 44
f 34 45 35
f 34 41 45
f 35 45 46
f 35 46 36
f 36 46 42
f 37 47 38
f 38 48 43
f 38 43 49
f 38 49 39
f 38 47 50
f 38 50 51
f 38 51 48
f 42 46 52
f 42 52 43
f 43 48 44
f 44 48 53
f 45 54 46
f 46 54 52
f 48 51 55
f 48 55 53
