# https://github.com/mikedh/trimesh
v 0.56833139 0.63619444 -0.01082641
v 0.56833139 0.62675705 -0.01042770
v 0.11579527 0.63619049 -0.01071762
v 0.33078139 0.63619444 -0.01071762
v 0.56833139 0.63619444 0.05088654
v 0.56833139 0.62175033 -0.01014986
v 0.10914295 0.62172272 -0.00987806
v 0.10914295 0.63615893 -0.01071158
v 0.10914295 0.63619049 0.05043349
v 0.33078139 0.63619444 0.05086843
v 0.10914295 0.63619049 0.05086843
v 0.56833139 0.63276983 0.05076573
v 0.56833139 0.60592534 -0.00684548
v 0.10914295 0.60671836 -0.00456214
v 0.56833139 0.60228768 -0.00556483
v 0.10914295 0.62175428 0.05019792
v 0.56833139 0.62175033 0.05036702
v 0.10914295 0.60215354 0.01055807
v 0.56833139 0.59588824 0.01050367
v 0.10914295 0.60725888 0.04592097
v 0.56833139 0.60263882 0.04668210
v 0.10914295 0.60269011 0.03164654
v 0.56833139 0.59626700 0.03118142
v 0.56833139 0.59628278 0.03164654
f 1 2 3
f 1 3 4
f 1 4 10
f 1 10 5
f 1 5 12
f 1 12 17
f 1 17 21
f 1 21 24
f 1 24 23
f 1 23 19
f 1 19 15
f 1 15 13
f 1 13 6
f 1 6 2
f 2 6 3
f 3 7 8
f 3 8 9
f 3 9 4
f 3 6 7
f 4 9 11
f 4 11 10
f 5 11 12
f 5 10 11
f 6 13 7
f 7 14 18
f 7 18 22
f 7 22 20
f 7 20 16
f 7 16 11
f 7 11 9
f 7 9 8
f 7 13 15
f 7 15 14
f 11 16 17
f 11 17 12
f 14 15 19
f 14 19 18
f 16 20 21
f 16 21 17
f 18 19 23
f 18 23 22
f 20 22 24
f 20 24 21
f 22 23 24

