# https://github.com/mikedh/trimesh
v 0.62252124 0.10368294 1.91763544
v 0.62835514 0.10368294 1.91799447
v 0.58558328 0.10368294 1.91783492
v 0.63663484 0.26301535 2.05875920
v 0.63647447 0.10368294 1.93137878
v 0.65773510 0.26301535 2.06007570
v 0.67167830 0.26301535 2.06446402
v 0.58290691 0.10368294 1.91857291
v 0.58333793 0.10528954 1.91968992
v 0.59443435 0.26301535 2.05981641
v 0.61553461 0.26301535 2.05901849
v 0.67558760 0.26301535 2.07850659
v 0.67199906 0.10368294 2.06097330
v 0.58073173 0.10368294 1.92531494
v 0.57983960 0.26301535 2.06394538
v 0.67566778 0.10368294 2.07850659
v 0.67604870 0.26301535 2.09961027
v 0.57945870 0.10368294 1.93082027
v 0.57520858 0.26301535 2.07850659
v 0.67604870 0.10368294 2.09961027
v 0.67212936 0.26301535 2.11447069
v 0.57771455 0.10368294 1.94350647
v 0.57465727 0.26301535 2.09961027
v 0.57688256 0.10368294 1.95192402
v 0.57379522 0.19971913 2.05740284
v 0.67212936 0.10368294 2.11447069
v 0.66420048 0.10368294 2.11746265
v 0.65773510 0.26301535 2.11989616
v 0.57383531 0.10368294 2.06687753
v 0.57406586 0.10368294 2.07850659
v 0.57426634 0.10368294 2.08798128
v 0.57453698 0.10368294 2.09961027
v 0.57661192 0.10368294 2.10653185
v 0.57928829 0.26301535 2.11502914
v 0.57365488 0.10368294 2.05740284
v 0.57364485 0.10368294 2.04577385
v 0.65773510 0.10368294 2.11989616
v 0.63663484 0.26301535 2.12139227
v 0.57926825 0.10368294 2.11502914
v 0.58607445 0.10368294 2.11734304
v 0.59444438 0.26301535 2.12017551
v 0.63663484 0.10368294 2.12139227
v 0.61554464 0.26301535 2.12111292
v 0.59444438 0.10368294 2.12017551
v 0.61554464 0.10368294 2.12111292
f 1 2 5
f 1 5 13
f 1 13 16
f 1 16 20
f 1 20 26
f 1 26 27
f 1 27 37
f 1 37 42
f 1 42 45
f 1 45 44
f 1 44 40
f 1 40 39
f 1 39 33
f 1 33 32
f 1 32 31
f 1 31 30
f 1 30 29
f 1 29 35
f 1 35 36
f 1 36 24
f 1 24 22
f 1 22 18
f 1 18 14
f 1 14 8
f 1 8 3
f 1 3 4
f 1 4 2
f 2 4 6
f 2 6 7
f 2 7 5
f 3 8 9
f 3 9 10
f 3 10 11
f 3 11 4
f 4 11 10
f 4 10 15
f 4 15 19
f 4 19 23
f 4 23 34
f 4 34 41
f 4 41 43
f 4 43 38
f 4 38 28
f 4 28 21
f 4 21 17
f 4 17 12
f 4 12 7
f 4 7 6
f 5 7 12
f 5 12 13
f 8 14 15
f 8 15 9
f 9 15 10
f 12 16 13
f 12 17 16
f 14 18 19
f 14 19 15
f 16 17 20
f 17 21 26
f 17 26 20
f 18 22 19
f 19 22 24
f 19 24 25
f 19 25 23
f 21 27 26
f 21 28 27
f 23 29 30
f 23 30 31
f 23 31 32
f 23 32 33
f 23 33 34
f 23 25 35
f 23 35 29
f 24 36 25
f 25 36 35
f 27 28 37
f 28 38 42
f 28 42 37
f 33 39 34
f 34 39 40
f 34 40 41
f 38 43 45
f 38 45 42
f 40 44 41
f 41 44 45
f 41 45 43
