# https://github.com/mikedh/trimesh
v 0.67604656 0.11521175 0.01055084
v 0.67558779 0.11521175 0.03165025
v 0.67672034 0.05200433 0.05792961
v 0.67673468 0.05200433 0.03165025
v 0.67666299 0.05200433 0.01055084
v 0.67213285 0.11521175 -0.00431097
v 0.67309334 0.08801498 0.05792961
v 0.67560213 0.07311059 0.05792961
v 0.67594619 0.06793611 0.05792961
v 0.67167409 0.11521175 0.04584764
v 0.67637628 0.03091039 0.05792961
v 0.67637628 0.03091039 0.03165025
v 0.67620425 0.03091039 0.01055084
v 0.67186045 0.00981652 -0.00419563
v 0.67216153 0.03091039 -0.00450076
v 0.67244824 0.05200433 -0.00479911
v 0.65773959 0.11521175 -0.00972814
v 0.67198947 0.09165443 0.05792961
v 0.65773959 0.11521175 0.05042412
v 0.67623293 0.02573597 0.05792961
v 0.67577416 0.00981652 0.03165025
v 0.67561647 0.00981652 0.01055084
v 0.67077095 -0.00344146 -0.00290744
v 0.65773959 0.00981652 -0.00945017
v 0.65773959 0.07311059 -0.01009427
v 0.63663710 0.11521175 -0.01121984
v 0.65773959 0.09775726 0.05792961
v 0.63663710 0.11521175 0.05170553
v 0.67577416 0.00981652 0.05792961
v 0.67485666 0.00622662 0.05792961
v 0.67200381 -0.00479078 0.01055084
v 0.65773959 -0.00971761 0.01055084
v 0.65773959 -0.00516214 -0.00468389
v 0.63663710 0.09420447 -0.01121984
v 0.63663710 -0.00585535 -0.00531441
v 0.57334401 0.00981652 -0.01030444
v 0.57334401 0.03091039 -0.01097571
v 0.57334401 0.05200433 -0.01133505
v 0.53027890 0.05200433 -0.01130788
v 0.61553461 0.11521175 -0.01094175
v 0.65656403 0.09783153 0.05792961
v 0.63649375 0.11521175 0.05170553
v 0.63663710 0.09883422 0.05792961
v 0.67200381 -0.00479078 0.05792961
v 0.65773959 -0.00986616 0.03165025
v 0.63663710 -0.01110404 0.01055084
v 0.53027890 -0.00568203 -0.00509065
v 0.53027890 -0.00506309 -0.00530083
v 0.53027890 0.00981652 -0.01023665
v 0.53027890 0.03091039 -0.01094175
v 0.53027890 0.07311059 -0.00953155
v 0.59444649 0.11521175 -0.01001289
v 0.63629304 0.09883422 0.05792961
v 0.61540560 0.11521175 0.05140725
v 0.59444649 0.09786870 0.05792961
v 0.61553461 0.09861141 0.05792961
v 0.65773959 -0.00986616 0.05792961
v 0.64181237 -0.01090601 0.05792961
v 0.63663710 -0.01124026 0.03165025
v 0.53027890 -0.01063364 0.01055084
v 0.53027890 -0.01043561 0.00992032
v 0.53027890 0.08716083 -0.00401942
v 0.57910705 0.11521175 -0.00487369
v 0.59444649 0.11521175 0.05060040
v 0.59372969 0.09768299 0.05792961
v 0.63663710 -0.01124026 0.05792961
v 0.62070988 -0.01102977 0.05792961
v 0.61553461 -0.01095550 0.05792961
v 0.53027890 -0.01001470 0.03165025
v 0.53027890 0.09072595 0.01055084
v 0.57433319 0.11521175 0.01055084
v 0.57968049 0.11521175 0.04632219
v 0.57585279 0.09153060 0.05792961
v 0.59962176 -0.01043561 0.05792961
v 0.53027890 -0.00506309 0.04629509
v 0.59444649 -0.01022518 0.05792961
v 0.53027890 0.09071356 0.01140511
v 0.57490662 0.11521175 0.03165025
v 0.57963748 0.11521175 0.04620698
v 0.53027890 0.09029271 0.03165025
v 0.53027890 0.09015656 0.03220624
v 0.53027890 0.08672753 0.04543403
v 0.56941597 0.07379142 0.05792961
v 0.53027890 0.07311059 0.04990209
v 0.53027890 0.00920996 0.05025464
v 0.57886334 -0.00724178 0.05792961
v 0.57499264 -0.00601628 0.05792961
v 0.56917226 0.07311059 0.05792961
v 0.53027890 0.07225645 0.04996309
v 0.53027890 0.00981652 0.05041733
v 0.56875651 0.00981652 0.05792961
v 0.56781035 0.05200433 0.05792961
v 0.53027890 0.05200433 0.05137335
v 0.53027890 0.03091039 0.05102753
v 0.56826910 0.03091039 0.05792961
v 0.53027890 0.05116251 0.05135977
f 1 2 3
f 1 3 4
f 1 4 5
f 1 5 6
f 1 6 17
f 1 17 26
f 1 26 40
f 1 40 52
f 1 52 63
f 1 63 71
f 1 71 78
f 1 78 79
f 1 79 72
f 1 72 64
f 1 64 54
f 1 54 42
f 1 42 28
f 1 28 19
f 1 19 10
f 1 10 2
f 2 7 8
f 2 8 9
f 2 9 3
f 2 10 7
f 3 11 4
f 3 9 8
f 3 8 7
f 3 7 18
f 3 18 27
f 3 27 41
f 3 41 43
f 3 43 53
f 3 53 56
f 3 56 55
f 3 55 65
f 3 65 73
f 3 73 83
f 3 83 88
f 3 88 92
f 3 92 95
f 3 95 91
f 3 91 87
f 3 87 86
f 3 86 76
f 3 76 74
f 3 74 68
f 3 68 67
f 3 67 66
f 3 66 58
f 3 58 57
f 3 57 44
f 3 44 30
f 3 30 29
f 3 29 20
f 3 20 11
f 4 11 12
f 4 12 5
f 5 12 13
f 5 13 14
f 5 14 15
f 5 15 16
f 5 16 6
f 6 16 17
f 7 10 18
f 10 19 18
f 11 20 12
f 12 20 21
f 12 21 22
f 12 22 13
f 13 22 14
f 14 23 24
f 14 24 15
f 14 22 23
f 15 24 16
f 16 24 25
f 16 25 17
f 17 25 26
f 18 19 27
f 19 28 27
f 20 29 21
f 21 29 30
f 21 30 31
f 21 31 22
f 22 31 23
f 23 31 32
f 23 32 33
f 23 33 24
f 24 34 25
f 24 33 35
f 24 35 36
f 24 36 37
f 24 37 34
f 25 34 26
f 26 34 38
f 26 38 39
f 26 39 40
f 27 28 41
f 28 42 53
f 28 53 43
f 28 43 41
f 30 44 31
f 31 44 57
f 31 57 45
f 31 45 32
f 32 45 46
f 32 46 33
f 33 46 35
f 34 37 38
f 35 46 47
f 35 47 48
f 35 48 49
f 35 49 36
f 36 49 50
f 36 50 37
f 37 50 39
f 37 39 38
f 39 50 49
f 39 49 48
f 39 48 47
f 39 47 61
f 39 61 60
f 39 60 69
f 39 69 75
f 39 75 85
f 39 85 90
f 39 90 94
f 39 94 96
f 39 96 93
f 39 93 89
f 39 89 84
f 39 84 82
f 39 82 81
f 39 81 80
f 39 80 77
f 39 77 70
f 39 70 62
f 39 62 51
f 39 51 52
f 39 52 40
f 42 54 55
f 42 55 56
f 42 56 53
f 45 57 58
f 45 58 59
f 45 59 46
f 46 59 60
f 46 60 61
f 46 61 47
f 51 62 52
f 52 62 63
f 54 64 55
f 55 64 65
f 58 66 59
f 59 66 60
f 60 66 67
f 60 67 68
f 60 68 69
f 62 70 63
f 63 70 71
f 64 72 73
f 64 73 65
f 68 74 69
f 69 74 76
f 69 76 75
f 70 77 71
f 71 77 78
f 72 79 80
f 72 80 81
f 72 81 82
f 72 82 73
f 73 82 84
f 73 84 83
f 75 76 86
f 75 86 87
f 75 87 85
f 77 80 78
f 78 80 79
f 83 84 88
f 84 89 88
f 85 87 90
f 87 91 90
f 88 89 93
f 88 93 92
f 90 91 94
f 91 95 93
f 91 93 96
f 91 96 94
f 92 93 95
