# https://github.com/mikedh/trimesh
v 0.63663305 1.31807024 0.60116301
v 0.63663305 1.31807024 0.49582349
v 0.61577893 1.31778605 0.60116301
v 0.65773264 1.31667759 0.60116301
v 0.61554370 1.31777184 0.49582349
v 0.65773264 1.31667759 0.49582349
v 0.59467933 1.31693335 0.60116301
v 0.65789628 1.31662074 0.60116301
v 0.59444410 1.31691914 0.49582349
v 0.67201041 1.31160429 0.49582349
v 0.59444410 1.31691914 0.60116301
v 0.67201041 1.31160429 0.60116301
v 0.57935835 1.31208746 0.49582349
v 0.57939926 1.31213010 0.49589569
v 0.67577416 1.29700976 0.49582349
v 0.57960382 1.31218695 0.60116301
v 0.67577416 1.29700976 0.60116301
v 0.57496047 1.29700976 0.60116301
v 0.57937880 1.31195961 0.60116301
v 0.57942995 1.31213010 0.60116301
v 0.57489911 1.29692448 0.49582349
v 0.57491956 1.29700976 0.49589569
v 0.67637760 1.27590670 0.49582349
v 0.67637760 1.27590670 0.60116301
v 0.57495025 1.29676821 0.60116301
v 0.57223992 1.21254055 0.49582349
v 0.57223992 1.21261155 0.49589569
v 0.57226037 1.21261155 0.55918600
v 0.67671512 1.25480358 0.49582349
v 0.67671512 1.25480358 0.60116301
v 0.57432635 1.27566509 0.60116301
v 0.57807990 1.19221900 0.49582349
v 0.57248539 1.21261155 0.58029308
v 0.67533438 1.23394208 0.60116301
v 0.67531391 1.23371467 0.49582349
v 0.57343655 1.23347312 0.60116301
v 0.57832535 1.19156535 0.49582349
v 0.57841740 1.19683756 0.58029308
v 0.58039135 1.19875602 0.59520312
v 0.57767078 1.21063631 0.60116301
v 0.57716963 1.21212839 0.60116301
v 0.67531391 1.23371467 0.60116301
v 0.67121264 1.22024282 0.49582349
v 0.58958597 1.17289228 0.49582349
v 0.60913095 1.17289228 0.55787648
v 0.61111513 1.17289228 0.56249591
v 0.61588119 1.17289228 0.56618731
v 0.61964497 1.17685711 0.57384857
v 0.58836889 1.20279192 0.60116301
v 0.67126380 1.22045595 0.60116301
v 0.67121264 1.22029967 0.60116301
v 0.63542619 1.17289228 0.49589569
v 0.63544663 1.17296334 0.49582349
v 0.62159846 1.17289228 0.49582349
v 0.61984951 1.17289228 0.56618731
v 0.62892141 1.17685711 0.57384857
v 0.61554370 1.20252187 0.60116301
v 0.63575346 1.20759517 0.60116301
v 0.62916689 1.19796023 0.59494534
v 0.63032262 1.17289228 0.56552740
v 0.63186699 1.17289228 0.55949534
v 0.63512958 1.17289228 0.53809954
f 1 2 3
f 1 3 7
f 1 7 11
f 1 11 16
f 1 16 20
f 1 20 19
f 1 19 18
f 1 18 25
f 1 25 31
f 1 31 36
f 1 36 41
f 1 41 40
f 1 40 49
f 1 49 57
f 1 57 58
f 1 58 51
f 1 51 50
f 1 50 42
f 1 42 34
f 1 34 30
f 1 30 24
f 1 24 17
f 1 17 12
f 1 12 8
f 1 8 4
f 1 4 6
f 1 6 2
f 2 5 3
f 2 6 10
f 2 10 15
f 2 15 23
f 2 23 29
f 2 29 35
f 2 35 43
f 2 43 53
f 2 53 54
f 2 54 44
f 2 44 37
f 2 37 32
f 2 32 26
f 2 26 21
f 2 21 13
f 2 13 9
f 2 9 5
f 3 5 9
f 3 9 7
f 4 8 6
f 6 8 10
f 7 9 11
f 8 12 10
f 9 13 14
f 9 14 11
f 10 12 17
f 10 17 15
f 11 14 16
f 13 18 19
f 13 19 20
f 13 20 14
f 13 21 22
f 13 22 18
f 14 20 16
f 15 17 24
f 15 24 23
f 18 22 21
f 18 21 25
f 21 26 27
f 21 27 28
f 21 28 25
f 23 24 30
f 23 30 29
f 25 28 31
f 26 32 28
f 26 28 27
f 28 32 33
f 28 33 31
f 29 30 34
f 29 34 35
f 31 33 36
f 32 37 33
f 33 37 38
f 33 38 39
f 33 39 40
f 33 40 41
f 33 41 36
f 34 42 35
f 35 42 43
f 37 44 38
f 38 44 45
f 38 45 39
f 39 45 46
f 39 46 47
f 39 47 48
f 39 48 49
f 39 49 40
f 42 50 43
f 43 50 51
f 43 51 52
f 43 52 53
f 44 54 52
f 44 52 62
f 44 62 61
f 44 61 60
f 44 60 55
f 44 55 47
f 44 47 46
f 44 46 45
f 47 55 56
f 47 56 48
f 48 56 57
f 48 57 49
f 51 58 59
f 51 59 56
f 51 56 60
f 51 60 61
f 51 61 62
f 51 62 52
f 52 54 53
f 55 60 56
f 56 59 57
f 57 59 58

