# https://github.com/mikedh/trimesh
v 0.63663273 1.20783477 0.38883864
v 0.65840687 1.20783477 0.39217931
v 0.65781956 1.17289231 0.40263066
v 0.64109649 1.17289231 0.40085037
v 0.63190202 1.17289231 0.40061994
v 0.62260073 1.17289231 0.40065139
v 0.61652450 1.20783477 0.38913189
v 0.65941068 1.20783477 0.39314276
v 0.67260973 1.17289231 0.41308201
v 0.67078365 1.17289231 0.41169961
v 0.59430183 1.17289231 0.40219082
v 0.61559542 1.20783477 0.38916327
v 0.66991866 1.20783477 0.40643211
v 0.67291942 1.20783477 0.41045342
v 0.67642206 1.17289231 0.43027746
v 0.59325530 1.20783477 0.39203266
v 0.57878547 1.17289231 0.41239081
v 0.58225610 1.20783477 0.39701747
v 0.67366694 1.20783477 0.41384647
v 0.67693466 1.17289231 0.43259186
v 0.57816610 1.17289231 0.41479942
v 0.57291211 1.20783477 0.40916535
v 0.67693466 1.20783477 0.43259186
v 0.67290873 1.20783477 0.45447894
v 0.67260973 1.17289231 0.45164094
v 0.57368098 1.17289231 0.43259186
v 0.56783967 1.20783477 0.43252904
v 0.66725963 1.20783477 0.46652205
v 0.66377835 1.17289231 0.46219699
v 0.57296551 1.17289231 0.45368303
v 0.56818140 1.20783477 0.45368303
v 0.64159840 1.20783477 0.49582349
v 0.63544739 1.17296073 0.49582349
v 0.63610947 1.17289231 0.49365575
v 0.57309366 1.17289231 0.45617541
v 0.56997544 1.20783477 0.47354896
v 0.57360624 1.20783477 0.49582349
v 0.62159695 1.17289231 0.49582349
v 0.57560318 1.17289231 0.47478465
v 0.57261311 1.20783477 0.49112143
v 0.57612644 1.17289231 0.47718281
v 0.57808067 1.19221246 0.49582349
v 0.58958178 1.17289231 0.49582349
v 0.58125228 1.17289231 0.48838819
v 0.57832628 1.19155566 0.49582349
v 0.58303566 1.17289231 0.49000089
f 1 2 3
f 1 3 4
f 1 4 5
f 1 5 6
f 1 6 7
f 1 7 12
f 1 12 16
f 1 16 18
f 1 18 22
f 1 22 27
f 1 27 31
f 1 31 36
f 1 36 40
f 1 40 37
f 1 37 32
f 1 32 28
f 1 28 24
f 1 24 23
f 1 23 19
f 1 19 14
f 1 14 13
f 1 13 8
f 1 8 2
f 2 8 9
f 2 9 10
f 2 10 3
f 3 10 9
f 3 9 15
f 3 15 20
f 3 20 25
f 3 25 29
f 3 29 34
f 3 34 38
f 3 38 43
f 3 43 46
f 3 46 44
f 3 44 41
f 3 41 39
f 3 39 35
f 3 35 30
f 3 30 26
f 3 26 21
f 3 21 17
f 3 17 11
f 3 11 6
f 3 6 5
f 3 5 4
f 6 11 12
f 6 12 7
f 8 13 9
f 9 14 15
f 9 13 14
f 11 16 12
f 11 17 18
f 11 18 16
f 14 19 20
f 14 20 15
f 17 21 22
f 17 22 18
f 19 23 20
f 20 24 25
f 20 23 24
f 21 26 22
f 22 26 27
f 24 28 25
f 25 28 29
f 26 30 27
f 27 30 31
f 28 32 33
f 28 33 29
f 29 33 34
f 30 35 31
f 31 35 36
f 32 37 42
f 32 42 45
f 32 45 43
f 32 43 38
f 32 38 33
f 33 38 34
f 35 39 36
f 36 39 40
f 37 40 39
f 37 39 41
f 37 41 42
f 41 44 42
f 42 44 45
f 43 45 46
f 44 46 45

