# https://github.com/mikedh/trimesh
v 0.08699342 0.11521175 0.01069095
v 0.08699342 0.11521175 0.01055354
v 0.08642688 0.11521175 0.03166371
v 0.14996107 0.09072620 0.01055354
v 0.08221825 0.11521175 -0.00486690
v 0.08163551 0.11521175 0.04632861
v 0.14996107 0.09029290 0.03166371
v 0.14996107 0.09070142 0.01189299
v 0.14996107 0.08716102 -0.00401980
v 0.06690530 0.11521175 -0.01000711
v 0.08152220 0.11521175 0.04637439
v 0.06690530 0.09033007 0.10561792
v 0.08095566 0.08690110 0.10561792
v 0.14996107 0.08672779 0.04543566
v 0.14996107 0.09007009 0.03253376
v 0.14996107 0.07400222 -0.00918290
v 0.04579737 0.11521175 -0.01093445
v 0.14996107 0.07311091 -0.00952627
v 0.14996107 0.05334177 -0.01119770
v 0.06690530 0.11521175 0.05059876
v 0.05623803 0.09070142 0.10561792
v 0.08579558 0.07311091 0.10561792
v 0.14996107 0.07311091 0.04990039
v 0.14996107 0.08586125 0.04572187
v 0.14996107 0.05200483 -0.01130071
v 0.02470563 0.11521175 -0.01122059
v 0.04566788 0.11521175 0.05141153
v 0.04579737 0.09106039 0.10561792
v 0.08734954 0.05200483 0.10561792
v 0.14996107 0.05200483 0.05136574
v 0.14996107 0.03224802 -0.01096879
v 0.08798084 0.05200483 -0.01132360
v 0.02470563 0.09420466 -0.01122059
v 0.00359773 0.07311091 -0.01009867
v 0.00359773 0.11521175 -0.00973241
v 0.02470563 0.11521175 0.05169773
v 0.02470563 0.09130798 0.10561792
v 0.08717149 0.04135891 0.10561792
v 0.14996107 0.05068029 0.05135430
v 0.14996107 0.03091108 -0.01094590
v 0.08798084 0.03091108 -0.01096879
v 0.00359773 0.00981733 -0.00944615
v -0.01111632 0.05200483 -0.00479822
v -0.01080877 0.11521175 -0.00430594
v 0.02457614 0.11521175 0.05169773
v 0.00359773 0.11521175 0.05041557
v 0.01403839 0.09075092 0.10561792
v 0.08699342 0.03091108 0.10561792
v 0.14996107 0.03091108 0.05102231
v 0.14996107 0.01115427 -0.01028180
v 0.08798084 0.00981733 -0.01030482
v 0.02470563 -0.00585441 -0.00531340
v 0.00359773 -0.00516119 -0.00468377
v -0.00943284 -0.00344052 -0.00290932
v -0.01053357 0.00981733 -0.00419148
v -0.01084112 0.03091108 -0.00450064
v -0.01534113 0.05200483 0.01055354
v -0.01470983 0.11521175 0.01055354
v -0.01033934 0.11521175 0.04585928
v 0.00359773 0.09019392 0.10561792
v 0.08636214 0.00981733 0.10561792
v 0.14996107 0.02957415 0.05098798
v 0.14996107 0.00981733 -0.01023602
v 0.02470563 -0.01110310 0.01055354
v 0.14996107 -0.00470318 -0.00541641
v 0.14996107 -0.00568109 -0.00508449
v 0.00359773 -0.00971667 0.01055354
v -0.01067925 -0.00478984 0.01055354
v -0.01428899 0.00981733 0.01055354
v -0.01488790 0.03091108 0.01055354
v -0.01504977 0.03091108 0.03166371
v -0.01540588 0.05200483 0.03166371
v -0.01537349 0.05200483 0.10561792
v -0.01425660 0.11521175 0.03166371
v -0.00988607 0.08651736 0.10561792
v -0.00321703 0.08833702 0.10561792
v 0.08411213 0.00216714 0.10561792
v 0.14996107 0.00981733 0.05041557
v 0.02470563 -0.01125164 0.03166371
v 0.14996107 -0.01032322 0.00956903
v 0.14996107 -0.01063270 0.01055354
v 0.00359773 -0.00986521 0.03166371
v -0.01067925 -0.00478984 0.10561792
v -0.01258931 0.00258805 0.10561792
v -0.01445086 0.00981733 0.03166371
v -0.01504977 0.03091108 0.10561792
v -0.01467744 0.06266308 0.10561792
v -0.01398140 0.07311091 0.10561792
v 0.08189450 -0.00532212 0.10561792
v 0.14996107 -0.00506214 0.04630572
v 0.02470563 -0.01125164 0.10561792
v 0.14996107 -0.01001375 0.03166371
v 0.04579737 -0.01095456 0.10561792
v 0.03535671 -0.01110310 0.10561792
v 0.00359773 -0.00986521 0.10561792
v -0.01445086 0.00981733 0.10561792
v 0.06690530 -0.01011280 0.10561792
v 0.14996107 -0.00538401 0.04537843
v 0.05646464 -0.01053365 0.10561792
f 1 2 5
f 1 5 10
f 1 10 17
f 1 17 26
f 1 26 35
f 1 35 44
f 1 44 58
f 1 58 74
f 1 74 59
f 1 59 46
f 1 46 45
f 1 45 36
f 1 36 27
f 1 27 20
f 1 20 11
f 1 11 6
f 1 6 3
f 1 3 4
f 1 4 2
f 2 4 5
f 3 6 7
f 3 7 8
f 3 8 4
f 4 8 7
f 4 7 15
f 4 15 14
f 4 14 24
f 4 24 23
f 4 23 30
f 4 30 39
f 4 39 49
f 4 49 62
f 4 62 78
f 4 78 90
f 4 90 98
f 4 98 92
f 4 92 81
f 4 81 80
f 4 80 66
f 4 66 65
f 4 65 63
f 4 63 50
f 4 50 40
f 4 40 31
f 4 31 25
f 4 25 19
f 4 19 18
f 4 18 16
f 4 16 9
f 4 9 5
f 5 9 10
f 6 11 12
f 6 12 13
f 6 13 14
f 6 14 15
f 6 15 7
f 9 16 10
f 10 16 18
f 10 18 19
f 10 19 17
f 11 20 12
f 12 20 21
f 12 21 28
f 12 28 37
f 12 37 47
f 12 47 60
f 12 60 76
f 12 76 75
f 12 75 88
f 12 88 87
f 12 87 73
f 12 73 86
f 12 86 96
f 12 96 84
f 12 84 83
f 12 83 95
f 12 95 91
f 12 91 94
f 12 94 93
f 12 93 99
f 12 99 97
f 12 97 89
f 12 89 77
f 12 77 61
f 12 61 48
f 12 48 38
f 12 38 29
f 12 29 22
f 12 22 13
f 13 22 23
f 13 23 24
f 13 24 14
f 17 19 25
f 17 25 26
f 20 27 28
f 20 28 21
f 22 29 30
f 22 30 23
f 25 31 32
f 25 32 26
f 26 33 34
f 26 34 35
f 26 32 33
f 27 36 37
f 27 37 28
f 29 38 39
f 29 39 30
f 31 40 41
f 31 41 32
f 32 41 33
f 33 42 34
f 33 41 42
f 34 42 43
f 34 43 35
f 35 43 44
f 36 45 37
f 37 45 46
f 37 46 47
f 38 48 39
f 39 48 49
f 40 50 51
f 40 51 41
f 41 51 42
f 42 52 53
f 42 53 54
f 42 54 55
f 42 55 56
f 42 56 43
f 42 51 52
f 43 57 44
f 43 56 57
f 44 57 58
f 46 59 60
f 46 60 47
f 48 61 62
f 48 62 49
f 50 63 51
f 51 63 52
f 52 64 53
f 52 63 65
f 52 65 66
f 52 66 64
f 53 64 67
f 53 67 54
f 54 68 69
f 54 69 55
f 54 67 68
f 55 69 70
f 55 70 57
f 55 57 56
f 57 71 72
f 57 72 58
f 57 70 71
f 58 72 73
f 58 73 74
f 59 74 75
f 59 75 76
f 59 76 60
f 61 77 78
f 61 78 62
f 64 79 82
f 64 82 67
f 64 66 80
f 64 80 81
f 64 81 79
f 67 82 68
f 68 82 95
f 68 95 83
f 68 83 84
f 68 84 85
f 68 85 69
f 69 85 71
f 69 71 70
f 71 86 72
f 71 85 96
f 71 96 86
f 72 86 73
f 73 87 74
f 74 87 88
f 74 88 75
f 77 89 78
f 78 89 90
f 79 91 95
f 79 95 82
f 79 81 91
f 81 92 93
f 81 93 94
f 81 94 91
f 84 96 85
f 89 97 90
f 90 97 98
f 92 98 97
f 92 97 99
f 92 99 93

