# https://github.com/mikedh/trimesh
v 0.54477998 0.63619445 -0.01071497
v 0.54477998 0.63619445 0.05086346
v 0.54477998 0.63858199 -0.01085106
v 0.55890137 0.63619445 -0.01082012
v 0.63662691 0.63619445 0.05129041
v 0.54477998 0.64051235 0.05106766
v 0.54477998 0.64289989 -0.01109243
v 0.63662691 0.63619445 -0.01122235
v 0.54477998 0.64289989 0.05117287
v 0.65106954 0.63619445 0.05046129
v 0.64248622 1.15515577 0.05095628
v 0.63662691 1.15515577 0.05129041
v 0.57334401 0.98045843 0.05160598
v 0.54477998 0.98045843 0.05160598
v 0.54477998 0.98045843 -0.01160597
v 0.64329571 0.63619445 -0.01075208
v 0.57334401 0.98045843 -0.01160597
v 0.63662691 1.15515577 -0.01122235
v 0.65773837 0.63619445 0.05007767
v 0.65773837 1.15515577 0.05007767
v 0.62138762 1.15515577 0.05109860
v 0.54477998 1.02267231 0.05160598
v 0.57334401 1.02267231 0.05160598
v 0.54477998 1.02267231 -0.01160597
v 0.65773837 0.63619445 -0.00973116
v 0.65187907 1.15515577 -0.01014571
v 0.57334401 1.02267231 -0.01160597
v 0.61552832 1.15515577 -0.01093772
v 0.67167987 0.63619445 0.04568451
v 0.67167987 1.15515577 0.04568451
v 0.61552832 1.15515577 0.05102433
v 0.54477998 1.03440685 0.04856170
v 0.59444259 1.15515577 0.05025709
v 0.58389331 1.15515577 0.04728086
v 0.57984576 1.15515577 0.04613617
v 0.54477998 1.04167110 -0.00580204
v 0.57929324 1.15515577 -0.00486778
v 0.59444259 1.15515577 -0.01000962
v 0.60968188 1.15515577 -0.01068403
v 0.67212958 0.63619445 -0.00431084
v 0.65773837 1.15515577 -0.00973116
v 0.67558606 0.63619445 0.03165113
v 0.67558606 1.15515577 0.03165113
v 0.54477998 1.04075671 0.04690347
v 0.57522001 1.15515577 0.03165113
v 0.54477998 1.05101808 0.01055159
v 0.57465464 1.15515577 0.01055159
v 0.67604863 0.63619445 0.01055159
v 0.67212958 1.15515577 -0.00431084
v 0.67571454 1.15515577 0.02579154
v 0.54477998 1.04700494 0.03703434
v 0.57480885 1.15515577 0.01641124
v 0.54477998 1.05010369 0.03165113
v 0.54477998 1.05071329 0.01800759
v 0.67604863 1.15515577 0.01055159
f 1 2 6
f 1 6 9
f 1 9 14
f 1 14 22
f 1 22 32
f 1 32 44
f 1 44 51
f 1 51 53
f 1 53 54
f 1 54 46
f 1 46 36
f 1 36 24
f 1 24 15
f 1 15 7
f 1 7 3
f 1 3 4
f 1 4 8
f 1 8 16
f 1 16 25
f 1 25 40
f 1 40 48
f 1 48 42
f 1 42 29
f 1 29 19
f 1 19 10
f 1 10 5
f 1 5 2
f 2 5 6
f 3 7 4
f 4 7 8
f 5 9 6
f 5 10 11
f 5 11 12
f 5 12 23
f 5 23 13
f 5 13 14
f 5 14 9
f 7 15 8
f 8 15 17
f 8 17 27
f 8 27 18
f 8 18 16
f 10 19 11
f 11 20 30
f 11 30 43
f 11 43 50
f 11 50 55
f 11 55 49
f 11 49 41
f 11 41 26
f 11 26 18
f 11 18 28
f 11 28 39
f 11 39 38
f 11 38 37
f 11 37 47
f 11 47 52
f 11 52 45
f 11 45 35
f 11 35 34
f 11 34 33
f 11 33 31
f 11 31 21
f 11 21 12
f 11 19 20
f 12 21 22
f 12 22 23
f 13 23 22
f 13 22 14
f 15 24 27
f 15 27 17
f 16 18 26
f 16 26 25
f 18 27 24
f 18 24 28
f 19 29 30
f 19 30 20
f 21 31 22
f 22 31 33
f 22 33 34
f 22 34 35
f 22 35 32
f 24 36 37
f 24 37 38
f 24 38 39
f 24 39 28
f 25 26 41
f 25 41 49
f 25 49 40
f 29 42 43
f 29 43 30
f 32 35 44
f 35 45 44
f 36 46 47
f 36 47 37
f 40 49 55
f 40 55 48
f 42 48 50
f 42 50 43
f 44 45 51
f 45 52 53
f 45 53 51
f 46 54 47
f 47 54 53
f 47 53 52
f 48 55 50
