# https://github.com/mikedh/trimesh
v 0.55779002 0.04025799 2.10593479
v 0.55779002 0.03091731 2.10593479
v 0.55779002 0.05199949 2.10561475
v 0.55217073 0.05199949 2.10321438
v 0.55217073 0.03091731 2.10369447
v 0.53905903 0.01767336 2.09265298
v 0.55779002 0.01325340 2.09777369
v 0.55779002 0.05933694 2.10225427
v 0.53922431 0.06473467 2.09217289
v 0.53806740 0.05199949 2.09425316
v 0.53790213 0.03091731 2.09457326
v 0.51878549 0.01829343 2.07008991
v 0.53162173 0.01551901 2.07761094
v 0.53107081 0.01086058 2.05728819
v 0.55779002 0.01066185 2.08625212
v 0.55779002 0.06895590 2.09745359
v 0.53178700 0.06626895 2.07729090
v 0.51917114 0.06402719 2.06960989
v 0.51823458 0.05199949 2.07073005
v 0.51795913 0.03091731 2.07105009
v 0.51184402 0.03091731 2.05728819
v 0.49768560 0.01827752 2.00992187
v 0.51619621 0.01602783 2.05728819
v 0.53107081 0.00907991 2.03616539
v 0.55779002 0.00923889 2.07825101
v 0.50997091 0.01040747 1.99391972
v 0.55779002 0.07267629 2.07825101
v 0.53107081 0.06972697 2.05728819
v 0.51691239 0.06576811 2.05728819
v 0.49801614 0.06405102 2.00880171
v 0.51261529 0.05199949 2.05728819
v 0.49696940 0.05199949 2.01184209
v 0.49674904 0.03091731 2.01264221
v 0.46914838 0.03091731 1.93071116
v 0.47653059 0.01825369 1.94671332
v 0.34976588 0.01812647 1.56730227
v 0.07530185 0.01788007 0.74543168
v 0.47394131 0.01598010 1.93071116
v 0.48887100 0.01037565 1.93071116
v 0.53107081 0.00873013 2.01504252
v 0.55779002 0.00865856 2.04336637
v 0.02219398 0.00349936 0.47115475
v 0.00809067 0.00759336 0.47115475
v 0.53107081 0.07129307 2.03616539
v 0.55779002 0.07326454 2.03616539
v 0.02472818 0.08470393 0.47115475
v 0.50997091 0.07012449 1.99391972
v 0.39014769 0.06586351 1.67755711
v 0.05458759 0.06436106 0.68094298
v 0.35015152 0.06415434 1.56618214
v 0.00412410 0.07512471 0.47115475
v 0.03222055 0.05199949 0.62141501
v 0.44793829 0.03091731 1.86734269
v 0.03189001 0.03091731 0.62237512
v 0.30486661 0.01581320 1.42424303
v 0.01194705 0.01782442 0.55564616
v 0.25682714 0.01004977 1.23461750
v 0.55779002 0.00853932 2.03616539
v 0.02280000 0.00349936 0.47115475
v 0.00913737 0.01554290 0.53820381
v 0.00665830 0.00825318 0.47115475
v 0.04560770 0.00981922 0.60141230
v 0.55779002 0.06909105 2.01440245
v 0.04533225 0.07650793 0.47115475
v 0.03205528 0.08278811 0.47115475
v 0.03106367 0.06609406 0.60141230
v 0.01233268 0.06438489 0.55436595
v 0.00192045 0.07277962 0.47115475
v 0.01001884 0.06609406 0.53820381
v 0.01106558 0.05199949 0.55804647
v 0.01426089 0.03091731 0.56956804
v 0.05144738 0.01557466 0.66494082
v 0.00384862 0.03091731 0.53820381
v 0.55779002 0.01189402 2.01952316
v 0.02544438 0.00355495 0.47115475
v 0.04494662 0.00926272 0.47115475
v -0.00463540 0.02770568 0.47115475
v -0.00358866 0.02547983 0.47115475
v 0.00528102 0.00960458 0.47115475
v 0.55779002 0.06010801 2.00352101
v 0.54275014 0.06343887 1.95967509
v 0.05618520 0.06086323 0.47115475
v 0.04896827 0.07288294 0.47115475
v 0.00467500 0.05199949 0.53820381
v 0.00120428 0.07072066 0.47115475
v -0.00502103 0.05199949 0.47115475
v -0.00480067 0.03096498 0.47115475
v 0.55779002 0.01320574 2.01360232
v 0.05034555 0.01319775 0.47115475
v 0.55779002 0.05121251 1.99567995
v 0.05916015 0.05199949 0.47115475
v 0.54313577 0.01890552 1.95839494
v 0.55779002 0.03081398 1.99455979
v 0.05893975 0.03091731 0.47115475
v 0.55779002 0.03170429 1.99455979
v 0.05932542 0.04408177 0.47115475
f 1 2 7
f 1 7 15
f 1 15 25
f 1 25 41
f 1 41 58
f 1 58 74
f 1 74 88
f 1 88 93
f 1 93 95
f 1 95 90
f 1 90 80
f 1 80 63
f 1 63 45
f 1 45 27
f 1 27 16
f 1 16 8
f 1 8 3
f 1 3 4
f 1 4 5
f 1 5 2
f 2 5 6
f 2 6 7
f 3 8 9
f 3 9 4
f 4 10 5
f 4 9 10
f 5 10 11
f 5 11 6
f 6 11 12
f 6 12 13
f 6 13 7
f 7 13 14
f 7 14 15
f 8 16 9
f 9 17 18
f 9 18 10
f 9 16 17
f 10 18 19
f 10 19 20
f 10 20 11
f 11 20 12
f 12 20 21
f 12 21 22
f 12 22 23
f 12 23 13
f 13 23 14
f 14 24 25
f 14 25 15
f 14 23 26
f 14 26 24
f 16 27 17
f 17 28 29
f 17 29 18
f 17 27 28
f 18 29 30
f 18 30 31
f 18 31 19
f 19 31 21
f 19 21 20
f 21 31 32
f 21 32 33
f 21 33 22
f 22 33 34
f 22 34 35
f 22 35 23
f 23 35 36
f 23 36 37
f 23 37 38
f 23 38 39
f 23 39 26
f 24 40 58
f 24 58 41
f 24 41 25
f 24 26 42
f 24 42 40
f 26 39 43
f 26 43 42
f 27 44 28
f 27 45 46
f 27 46 44
f 28 44 46
f 28 46 47
f 28 47 29
f 29 48 49
f 29 49 50
f 29 50 30
f 29 47 46
f 29 46 51
f 29 51 48
f 30 32 31
f 30 50 52
f 30 52 32
f 32 53 34
f 32 34 33
f 32 52 53
f 34 53 35
f 35 53 54
f 35 54 36
f 36 54 37
f 37 55 38
f 37 54 56
f 37 56 55
f 38 55 39
f 39 55 57
f 39 57 43
f 40 42 58
f 42 43 61
f 42 61 79
f 42 79 78
f 42 78 77
f 42 77 87
f 42 87 86
f 42 86 85
f 42 85 68
f 42 68 51
f 42 51 46
f 42 46 65
f 42 65 64
f 42 64 83
f 42 83 82
f 42 82 91
f 42 91 96
f 42 96 94
f 42 94 89
f 42 89 76
f 42 76 75
f 42 75 59
f 42 59 58
f 43 60 61
f 43 57 62
f 43 62 60
f 45 63 64
f 45 64 65
f 45 65 46
f 48 51 66
f 48 66 67
f 48 67 49
f 49 67 52
f 49 52 50
f 51 68 69
f 51 69 66
f 52 67 70
f 52 70 71
f 52 71 54
f 52 54 53
f 54 71 56
f 55 56 60
f 55 60 72
f 55 72 57
f 56 71 73
f 56 73 60
f 57 72 62
f 58 59 75
f 58 75 76
f 58 76 74
f 60 73 77
f 60 77 78
f 60 78 79
f 60 79 61
f 60 62 72
f 63 80 81
f 63 81 82
f 63 82 83
f 63 83 64
f 66 69 67
f 67 69 84
f 67 84 70
f 68 85 84
f 68 84 69
f 70 84 73
f 70 73 71
f 73 84 86
f 73 86 87
f 73 87 77
f 74 76 88
f 76 89 88
f 80 90 81
f 81 90 91
f 81 91 82
f 84 85 86
f 88 92 93
f 88 89 92
f 89 94 92
f 90 95 96
f 90 96 91
f 92 94 93
f 93 94 96
f 93 96 95

