# https://github.com/mikedh/trimesh
v 0.57372283 0.26321533 0.43258369
v 0.57880462 0.26321533 0.41241590
v 0.57880462 0.26321533 0.45232076
v 0.57372283 1.04367144 0.43258369
v 0.59445410 0.63625441 0.40225824
v 0.59445410 0.26321533 0.40226434
v 0.57880462 1.04367144 0.41241590
v 0.59445410 0.26321533 0.46224466
v 0.57880462 0.63625441 0.45232076
v 0.57880462 1.04367144 0.45231459
v 0.60027340 0.63625441 0.40196292
v 0.59445410 1.04367144 0.40225824
v 0.61292231 0.26321533 0.40133536
v 0.61554907 0.26321533 0.46348745
v 0.59445410 1.04367144 0.46223850
v 0.61292231 1.04367144 0.40132919
v 0.61292231 0.63625441 0.40132919
v 0.62345969 0.28414768 0.40081238
v 0.62337888 0.26321533 0.40082471
v 0.63662386 0.26321533 0.46366587
v 0.63650262 1.04367144 0.46364744
v 0.61554907 1.04367144 0.46346897
v 0.61543795 1.04367144 0.46346287
v 0.62345969 1.04367144 0.40081854
v 0.62345969 0.63625441 0.40081238
v 0.63114805 0.26321533 0.40081238
v 0.65772893 0.26321533 0.46172785
v 0.65772893 1.04367144 0.46172785
v 0.63662386 1.04367144 0.46364744
v 0.63120868 1.04367144 0.40081854
v 0.63120868 0.63625441 0.40081238
v 0.63120868 0.28414768 0.40081238
v 0.64176627 0.28414768 0.40108311
v 0.64167534 0.26321533 0.40108311
v 0.67261061 0.26321533 0.45163169
v 0.67261061 0.63625441 0.45163169
v 0.67261061 1.04367144 0.45162553
v 0.64176627 1.04367144 0.40108311
v 0.65772893 0.26321533 0.40269506
v 0.65772893 0.63625441 0.40268889
v 0.67693466 0.26321533 0.43258369
v 0.67693466 1.04367144 0.43258369
v 0.65772893 1.04367144 0.40268889
v 0.67247927 0.26321533 0.41300654
v 0.66242682 0.63625441 0.40597429
v 0.67261061 0.26321533 0.41310496
v 0.67261061 0.63625441 0.41309886
v 0.67261061 1.04367144 0.41309886
f 1 2 6
f 1 6 13
f 1 13 19
f 1 19 26
f 1 26 34
f 1 34 39
f 1 39 44
f 1 44 46
f 1 46 41
f 1 41 35
f 1 35 27
f 1 27 20
f 1 20 14
f 1 14 8
f 1 8 3
f 1 3 9
f 1 9 4
f 1 4 7
f 1 7 2
f 2 5 6
f 2 7 12
f 2 12 5
f 3 8 9
f 4 10 15
f 4 15 23
f 4 23 22
f 4 22 21
f 4 21 29
f 4 29 28
f 4 28 37
f 4 37 42
f 4 42 48
f 4 48 43
f 4 43 38
f 4 38 30
f 4 30 24
f 4 24 16
f 4 16 12
f 4 12 7
f 4 9 10
f 5 11 6
f 5 12 11
f 6 11 13
f 8 14 15
f 8 15 9
f 9 15 10
f 11 12 16
f 11 16 17
f 11 17 13
f 13 17 18
f 13 18 19
f 14 20 21
f 14 21 22
f 14 22 23
f 14 23 15
f 16 24 25
f 16 25 18
f 16 18 17
f 18 26 19
f 18 25 31
f 18 31 32
f 18 32 26
f 20 27 28
f 20 28 29
f 20 29 21
f 24 30 31
f 24 31 25
f 26 32 33
f 26 33 34
f 27 35 36
f 27 36 28
f 28 36 37
f 30 38 31
f 31 38 33
f 31 33 32
f 33 39 34
f 33 38 43
f 33 43 40
f 33 40 39
f 35 41 42
f 35 42 36
f 36 42 37
f 39 40 44
f 40 43 45
f 40 45 44
f 41 46 47
f 41 47 48
f 41 48 42
f 43 48 45
f 44 45 48
f 44 48 47
f 44 47 46
