# https://github.com/mikedh/trimesh
v 0.63663672 1.21470491 0.07643854
v 0.61553807 1.21498822 0.07643854
v 0.63921985 1.21484659 0.07643854
v 0.63663672 1.21530190 0.36913100
v 0.63648538 1.21530190 0.36913100
v 0.61539679 1.21557509 0.36913100
v 0.59443938 1.21587865 0.07643854
v 0.59443938 1.21634402 0.36913100
v 0.65773541 1.21602027 0.07643854
v 0.65758407 1.21646545 0.36913100
v 0.58026261 1.21967286 0.07643854
v 0.58037360 1.21984486 0.36913100
v 0.65939021 1.21647558 0.07643854
v 0.65773541 1.21647558 0.36913100
v 0.57526794 1.23370650 0.07643854
v 0.57552020 1.23361544 0.36913100
v 0.67121595 1.22008774 0.07643854
v 0.67121595 1.22024961 0.36913100
v 0.57363333 1.25481264 0.07643854
v 0.57385531 1.25466089 0.36913100
v 0.67531259 1.23370650 0.07643854
v 0.67531259 1.23370650 0.36913100
v 0.57403693 1.27590865 0.07643854
v 0.57384521 1.25481264 0.36913100
v 0.57423874 1.27575684 0.36913100
v 0.67654359 1.25223253 0.07643854
v 0.67532269 1.23385831 0.36913100
v 0.57410757 1.27848869 0.07643854
v 0.57490469 1.29700460 0.36913100
v 0.57468271 1.29700460 0.07643854
v 0.67670506 1.25481264 0.07643854
v 0.67670506 1.25481264 0.36913100
v 0.57935448 1.31202986 0.36913100
v 0.57523768 1.29885621 0.07643854
v 0.57938476 1.31213104 0.36913100
v 0.67637207 1.27590865 0.07643854
v 0.67670506 1.25496439 0.36913100
v 0.57928386 1.31213104 0.07643854
v 0.57949576 1.31217148 0.36913100
v 0.67577674 1.29700460 0.07643854
v 0.67637207 1.27605028 0.36913100
v 0.59443938 1.31692694 0.07643854
v 0.59443938 1.31692694 0.36913100
v 0.67201308 1.31160486 0.07643854
v 0.67577674 1.29700460 0.36913100
v 0.61295495 1.31767568 0.07643854
v 0.59459075 1.31693706 0.36913100
v 0.65773541 1.31668413 0.07643854
v 0.67201308 1.31160486 0.36913100
v 0.61553807 1.31777687 0.07643854
v 0.61553807 1.31777687 0.36913100
v 0.65515232 1.31685613 0.07643854
v 0.65773541 1.31668413 0.36913100
v 0.63405363 1.31802981 0.07643854
v 0.63663672 1.31806018 0.36913100
v 0.63663672 1.31806018 0.07643854
v 0.63677800 1.31806018 0.36913100
f 1 2 7
f 1 7 11
f 1 11 15
f 1 15 19
f 1 19 23
f 1 23 28
f 1 28 30
f 1 30 34
f 1 34 38
f 1 38 42
f 1 42 46
f 1 46 50
f 1 50 54
f 1 54 56
f 1 56 52
f 1 52 48
f 1 48 44
f 1 44 40
f 1 40 36
f 1 36 31
f 1 31 26
f 1 26 21
f 1 21 17
f 1 17 13
f 1 13 9
f 1 9 3
f 1 3 4
f 1 4 5
f 1 5 6
f 1 6 2
f 2 6 8
f 2 8 7
f 3 9 10
f 3 10 4
f 4 10 14
f 4 14 18
f 4 18 22
f 4 22 27
f 4 27 32
f 4 32 37
f 4 37 41
f 4 41 45
f 4 45 49
f 4 49 53
f 4 53 57
f 4 57 55
f 4 55 51
f 4 51 47
f 4 47 43
f 4 43 39
f 4 39 35
f 4 35 33
f 4 33 29
f 4 29 25
f 4 25 24
f 4 24 20
f 4 20 16
f 4 16 12
f 4 12 8
f 4 8 6
f 4 6 5
f 7 8 12
f 7 12 11
f 9 13 14
f 9 14 10
f 11 12 15
f 12 16 15
f 13 17 18
f 13 18 14
f 15 16 20
f 15 20 19
f 17 21 22
f 17 22 18
f 19 20 24
f 19 24 25
f 19 25 23
f 21 26 27
f 21 27 22
f 23 25 28
f 25 29 30
f 25 30 28
f 26 31 32
f 26 32 27
f 29 33 30
f 30 33 35
f 30 35 34
f 31 36 37
f 31 37 32
f 34 35 38
f 35 39 38
f 36 40 41
f 36 41 37
f 38 39 43
f 38 43 42
f 40 44 49
f 40 49 45
f 40 45 41
f 42 43 47
f 42 47 46
f 44 48 53
f 44 53 49
f 46 47 51
f 46 51 50
f 48 52 53
f 50 51 54
f 51 55 54
f 52 56 57
f 52 57 53
f 54 55 56
f 55 57 56
