# https://github.com/mikedh/trimesh
v 0.57384242 1.25481786 0.36913100
v 0.57421687 1.27590463 0.36913100
v 0.57550071 1.23361204 0.36913100
v 0.13043651 1.25764316 0.40082754
v 0.13043651 1.26798087 0.40082754
v 0.57485879 1.29686147 0.36913100
v 0.58036860 1.21986455 0.36913100
v 0.13043651 1.24721886 0.40100117
v 0.13043651 1.29699133 0.40198078
v 0.57935223 1.31211362 0.36913100
v 0.59443734 1.21634647 0.36913100
v 0.13043651 1.23372033 0.40297290
v 0.13043651 1.31297959 0.41213712
v 0.59443734 1.31690902 0.36913100
v 0.61535321 1.21557792 0.36913100
v 0.61556719 1.20783817 0.38918314
v 0.13043651 1.21919341 0.41347638
v 0.13043651 1.23354714 0.40309691
v 0.13043651 1.31842449 0.43257369
v 0.61567419 1.31776417 0.36913100
v 0.63642957 1.21532894 0.36913100
v 0.61647658 1.20783817 0.38913352
v 0.59326048 1.20783817 0.39204775
v 0.13043651 1.21520990 0.43257369
v 0.13043651 1.31297959 0.45258860
v 0.61551370 1.31776417 0.49581790
v 0.63659003 1.31806729 0.49581790
v 0.57330749 1.31842449 0.43257369
v 0.63659003 1.31806729 0.36913100
v 0.63659003 1.21532894 0.36913100
v 0.63659003 1.20783817 0.38884833
v 0.58224087 1.20783817 0.39703288
v 0.13043651 1.21919341 0.45126172
v 0.57287954 1.20783817 0.40916088
v 0.56785118 1.20783817 0.43251168
v 0.56795816 1.20783817 0.43848887
v 0.56817212 1.20784899 0.45367989
v 0.56993740 1.20784899 0.47354600
v 0.57261208 1.20784899 0.49110558
v 0.57357495 1.20784899 0.49581790
v 0.13043651 1.29717541 0.46234805
v 0.59443734 1.31690902 0.49581790
v 0.65771991 1.31666004 0.49581790
v 0.65178216 1.31707139 0.43848887
v 0.65771991 1.31666004 0.36913100
v 0.65755942 1.21648721 0.36913100
v 0.65836184 1.20783817 0.39219654
v 0.13043651 1.23372033 0.46144278
v 0.67564018 1.20783817 0.43848887
v 0.57223763 1.21254697 0.49581790
v 0.13043651 1.25482867 0.46367492
v 0.64156491 1.20784899 0.49581790
v 0.13043651 1.29699133 0.46245968
v 0.57935223 1.31209199 0.49581790
v 0.67200261 1.31160486 0.49581790
v 0.67200261 1.31160486 0.43848887
v 0.67194909 1.31160486 0.36913100
v 0.65771991 1.21649803 0.36913100
v 0.67120022 1.22024338 0.36913100
v 0.65937820 1.20783817 0.39313898
v 0.67692397 1.20783817 0.43257369
v 0.67285852 1.20784899 0.45447354
v 0.66724171 1.20784899 0.46652714
v 0.57485879 1.29692643 0.49581790
v 0.13043651 1.27589381 0.46336495
v 0.67120022 1.22026508 0.49581790
v 0.67574715 1.29699133 0.49581790
v 0.67574715 1.29699133 0.43848887
v 0.67574715 1.29698052 0.36913100
v 0.67360739 1.20783817 0.41386081
v 0.67285852 1.20783817 0.41046298
v 0.66986291 1.20783817 0.40643268
v 0.67526568 1.23370946 0.36913100
v 0.67665651 1.25481786 0.36913100
v 0.67692397 1.21263357 0.43257369
v 0.67665651 1.25481786 0.49581790
v 0.67526568 1.23373115 0.49581790
v 0.67633559 1.27589381 0.49581790
v 0.67633559 1.27590463 0.43848887
v 0.67633559 1.27590463 0.36913100
v 0.67665651 1.25496942 0.36913100
v 0.67671003 1.25481786 0.43257369
v 0.67671003 1.25481786 0.45367989
f 1 2 6
f 1 6 10
f 1 10 14
f 1 14 20
f 1 20 29
f 1 29 45
f 1 45 57
f 1 57 69
f 1 69 80
f 1 80 81
f 1 81 74
f 1 74 73
f 1 73 59
f 1 59 58
f 1 58 46
f 1 46 30
f 1 30 21
f 1 21 15
f 1 15 11
f 1 11 7
f 1 7 3
f 1 3 4
f 1 4 5
f 1 5 2
f 2 5 6
f 3 7 8
f 3 8 4
f 4 8 12
f 4 12 18
f 4 18 17
f 4 17 24
f 4 24 33
f 4 33 48
f 4 48 51
f 4 51 65
f 4 65 53
f 4 53 41
f 4 41 25
f 4 25 19
f 4 19 13
f 4 13 9
f 4 9 5
f 5 9 10
f 5 10 6
f 7 11 12
f 7 12 8
f 9 13 14
f 9 14 10
f 11 15 16
f 11 16 17
f 11 17 18
f 11 18 12
f 13 19 20
f 13 20 14
f 15 21 22
f 15 22 16
f 16 22 31
f 16 31 47
f 16 47 60
f 16 60 72
f 16 72 71
f 16 71 70
f 16 70 61
f 16 61 49
f 16 49 36
f 16 36 35
f 16 35 34
f 16 34 32
f 16 32 23
f 16 23 17
f 17 23 24
f 19 25 26
f 19 26 27
f 19 27 28
f 19 28 29
f 19 29 20
f 21 30 31
f 21 31 22
f 23 32 24
f 24 32 34
f 24 34 35
f 24 35 36
f 24 36 37
f 24 37 38
f 24 38 39
f 24 39 40
f 24 40 33
f 25 41 42
f 25 42 26
f 26 42 54
f 26 54 64
f 26 64 50
f 26 50 40
f 26 40 52
f 26 52 66
f 26 66 77
f 26 77 76
f 26 76 78
f 26 78 67
f 26 67 55
f 26 55 43
f 26 43 27
f 27 29 28
f 27 43 44
f 27 44 29
f 29 44 45
f 30 46 31
f 31 46 47
f 33 40 48
f 36 49 52
f 36 52 40
f 36 40 39
f 36 39 38
f 36 38 37
f 40 50 51
f 40 51 48
f 41 53 42
f 42 53 54
f 43 55 56
f 43 56 45
f 43 45 44
f 45 56 57
f 46 58 47
f 47 58 59
f 47 59 60
f 49 61 62
f 49 62 63
f 49 63 52
f 50 64 51
f 51 64 65
f 52 63 66
f 53 65 54
f 54 65 64
f 55 67 68
f 55 68 56
f 56 68 69
f 56 69 57
f 59 70 71
f 59 71 72
f 59 72 60
f 59 73 61
f 59 61 70
f 61 74 81
f 61 81 75
f 61 75 76
f 61 76 77
f 61 77 66
f 61 66 62
f 61 73 74
f 62 66 63
f 67 78 79
f 67 79 80
f 67 80 68
f 68 80 69
f 75 81 82
f 75 82 83
f 75 83 76
f 76 83 78
f 78 83 79
f 79 83 82
f 79 82 80
f 80 82 81

