# https://github.com/mikedh/trimesh
v 0.56834194 0.24489645 0.01055662
v 0.56834194 0.24535544 0.01656827
v 0.56834194 0.24969014 0.00550559
v 0.57433091 0.11521175 0.01055662
v 0.56834194 0.24657936 0.03164698
v 0.56834194 0.26228635 -0.00643721
v 0.57910733 0.11521175 -0.00487533
v 0.57490029 0.11521175 0.03151686
v 0.56834194 0.26590712 -0.00754027
v 0.56834194 0.26289831 0.04740129
v 0.59443828 0.11521175 -0.01001315
v 0.56834194 0.28416394 -0.01160597
v 0.57491083 0.11521175 0.03164698
v 0.56834194 0.28416394 0.05160321
v 0.57964509 0.11521175 0.04620510
v 0.57968725 0.11521175 0.04632289
v 0.61554731 0.11521175 -0.01094275
v 0.56834194 0.32633826 -0.01160597
v 0.57333978 0.28416394 -0.01160597
v 0.63663525 0.11521175 -0.01122173
v 0.56834194 0.32633826 0.05160321
v 0.59443828 0.11521175 0.05059920
v 0.61554731 0.11521175 0.05141109
v 0.63649818 0.11521175 0.05170238
v 0.57333978 0.32633826 -0.01160597
v 0.56834194 0.63619445 -0.01083119
v 0.63663525 0.63619445 -0.01122173
v 0.65773374 0.11521175 -0.00972801
v 0.64329904 0.63619445 -0.01075069
v 0.57333978 0.32633826 0.05160321
v 0.63663525 0.63619445 0.05129336
v 0.57333978 0.63619445 0.05094006
v 0.56834194 0.63619445 0.05088427
v 0.63663525 0.11521175 0.05170238
v 0.67213681 0.11521175 -0.00431135
v 0.65773374 0.63619445 -0.00972801
v 0.65773374 0.63619445 0.05007239
v 0.65773374 0.11521175 0.05042570
v 0.67604863 0.11521175 0.01055662
v 0.67213681 0.63619445 -0.00431135
v 0.66727605 0.63619445 0.04707276
v 0.67168342 0.11521175 0.04585186
v 0.67167289 0.63619445 0.04568451
v 0.67558468 0.11521175 0.03164698
v 0.67604863 0.63619445 0.01055662
v 0.67558468 0.63619445 0.03164698
v 0.67435104 0.63619445 0.03607825
f 1 2 5
f 1 5 10
f 1 10 14
f 1 14 21
f 1 21 33
f 1 33 26
f 1 26 18
f 1 18 12
f 1 12 9
f 1 9 6
f 1 6 3
f 1 3 4
f 1 4 2
f 2 4 5
f 3 6 4
f 4 7 11
f 4 11 17
f 4 17 20
f 4 20 28
f 4 28 35
f 4 35 39
f 4 39 44
f 4 44 42
f 4 42 38
f 4 38 34
f 4 34 24
f 4 24 23
f 4 23 22
f 4 22 16
f 4 16 15
f 4 15 13
f 4 13 8
f 4 8 5
f 4 6 9
f 4 9 7
f 5 8 10
f 7 9 12
f 7 12 11
f 8 13 10
f 10 13 15
f 10 15 16
f 10 16 14
f 11 12 17
f 12 18 25
f 12 25 19
f 12 19 20
f 12 20 17
f 14 16 22
f 14 22 23
f 14 23 24
f 14 24 21
f 18 26 27
f 18 27 25
f 19 25 27
f 19 27 20
f 20 27 29
f 20 29 28
f 21 24 34
f 21 34 30
f 21 30 31
f 21 31 32
f 21 32 33
f 26 33 32
f 26 32 31
f 26 31 37
f 26 37 41
f 26 41 43
f 26 43 47
f 26 47 46
f 26 46 45
f 26 45 40
f 26 40 36
f 26 36 29
f 26 29 27
f 28 29 36
f 28 36 40
f 28 40 35
f 30 34 31
f 31 34 37
f 34 38 37
f 35 40 45
f 35 45 39
f 37 38 41
f 38 42 43
f 38 43 41
f 39 45 46
f 39 46 44
f 42 44 46
f 42 46 47
f 42 47 43

