# https://github.com/mikedh/trimesh
v 0.62345900 1.04367144 0.40082779
v 0.62261422 1.17289228 0.40064950
v 0.63190683 1.17289228 0.40061705
v 0.63121471 1.04367144 0.40082779
v 0.61291451 1.04367144 0.40133020
v 0.59444127 1.04367144 0.40227025
v 0.59429880 1.17289228 0.40218919
v 0.64109762 1.17289228 0.40086018
v 0.64176939 1.04367144 0.40108708
v 0.57880775 1.04367144 0.41241609
v 0.57878739 1.17289228 0.41239986
v 0.65782022 1.17289228 0.40262676
v 0.65773881 1.04367144 0.40269160
v 0.57372889 1.04367144 0.43259432
v 0.57367800 1.17289228 0.43259432
v 0.57816653 1.17289228 0.41479860
v 0.67078711 1.17289228 0.41170294
v 0.67260898 1.04367144 0.41309679
v 0.57877722 1.04367144 0.45222152
v 0.57867543 1.08679145 0.47530089
v 0.57327087 1.08599456 0.45369643
v 0.57298588 1.10710551 0.45369643
v 0.57295535 1.17289228 0.45369643
v 0.67260898 1.17289228 0.41309679
v 0.67693466 1.04367144 0.43259432
v 0.57880775 1.04367144 0.45233497
v 0.58257364 1.09435545 0.48622472
v 0.57609020 1.10710551 0.47479848
v 0.57560164 1.17289228 0.47479848
v 0.57309784 1.17289228 0.45619233
v 0.67693466 1.17289228 0.43259432
v 0.67260898 1.17289228 0.45165427
v 0.67260898 1.04367144 0.45163804
v 0.59444127 1.04367144 0.46225391
v 0.61587634 1.17289228 0.56617599
v 0.61111299 1.17289228 0.56249692
v 0.60912825 1.17289228 0.55787780
v 0.57612074 1.17289228 0.47719722
v 0.63031903 1.17289228 0.56552768
v 0.65773881 1.04367144 0.46173527
v 0.61554046 1.04367144 0.46348569
v 0.62055826 1.15574041 0.55274004
v 0.61984580 1.17289228 0.56617599
v 0.62892465 1.15574041 0.55274004
v 0.65761665 1.04367144 0.46175150
v 0.63651749 1.04367144 0.46366398
v 0.63662946 1.04367144 0.46366398
f 1 2 3
f 1 3 4
f 1 4 9
f 1 9 13
f 1 13 18
f 1 18 25
f 1 25 33
f 1 33 40
f 1 40 45
f 1 45 47
f 1 47 46
f 1 46 41
f 1 41 34
f 1 34 26
f 1 26 19
f 1 19 14
f 1 14 10
f 1 10 6
f 1 6 5
f 1 5 2
f 2 5 6
f 2 6 7
f 2 7 11
f 2 11 16
f 2 16 15
f 2 15 23
f 2 23 30
f 2 30 29
f 2 29 38
f 2 38 37
f 2 37 36
f 2 36 35
f 2 35 43
f 2 43 39
f 2 39 32
f 2 32 31
f 2 31 24
f 2 24 17
f 2 17 12
f 2 12 8
f 2 8 3
f 3 8 9
f 3 9 4
f 6 10 7
f 7 10 11
f 8 12 13
f 8 13 9
f 10 14 15
f 10 15 16
f 10 16 11
f 12 17 18
f 12 18 13
f 14 19 20
f 14 20 21
f 14 21 22
f 14 22 23
f 14 23 15
f 17 24 18
f 18 24 31
f 18 31 25
f 19 26 20
f 20 27 28
f 20 28 21
f 20 26 27
f 21 28 22
f 22 28 29
f 22 29 30
f 22 30 23
f 25 31 32
f 25 32 33
f 26 34 35
f 26 35 36
f 26 36 27
f 27 36 28
f 28 36 37
f 28 37 38
f 28 38 29
f 32 39 33
f 33 39 40
f 34 41 35
f 35 42 44
f 35 44 43
f 35 41 42
f 39 43 44
f 39 44 40
f 40 44 45
f 41 46 42
f 42 46 47
f 42 47 44
f 44 47 45
