# https://github.com/mikedh/trimesh
v 0.08749211 0.05200471 0.36892448
v 0.08585066 0.07311028 0.36892448
v 0.08708931 0.03127137 0.36892448
v 0.08699868 0.03090920 0.10564370
v 0.08736121 0.05200471 0.10564370
v 0.08658578 0.06244687 0.10564370
v 0.08579024 0.07311028 0.10564370
v 0.08577010 0.07334171 0.36892448
v 0.08707923 0.03090920 0.36892448
v 0.08637431 0.00981369 0.10564370
v 0.08340358 0.07993092 0.10564370
v 0.08095648 0.08697280 0.36892448
v 0.08095648 0.08690236 0.10564370
v 0.08642467 0.00981369 0.36892448
v 0.08189302 -0.00531634 0.10564370
v 0.06688823 0.09047364 0.36892448
v 0.06688823 0.09033277 0.10564370
v 0.08194338 -0.00531634 0.36892448
v 0.07447119 -0.00769042 0.10564370
v 0.04614338 0.09122811 0.36892448
v 0.05622378 0.09070501 0.10564370
v 0.06688823 -0.01010481 0.36892448
v 0.06688823 -0.01010481 0.10564370
v 0.04579092 0.09123817 0.36892448
v 0.04579092 0.09106718 0.10564370
v 0.06653577 -0.01012494 0.36892448
v 0.04579092 -0.01095990 0.10564370
v 0.02469359 0.09151985 0.36892448
v 0.02469359 0.09130861 0.10564370
v 0.04579092 -0.01095990 0.36892448
v 0.02469359 -0.01125164 0.10564370
v 0.04542837 -0.01096996 0.36892448
v 0.00394871 0.09036296 0.36892448
v 0.01403917 0.09075532 0.10564370
v 0.00359625 0.09020203 0.10564370
v 0.00359625 -0.00986339 0.10564370
v 0.02469359 -0.01125164 0.36892448
v 0.00359625 0.09034284 0.36892448
v -0.00322134 0.08834092 0.10564370
v -0.00347311 -0.00734844 0.10564370
v 0.00359625 -0.00986339 0.36892448
v 0.00335457 -0.00978289 0.36892448
v -0.00988790 0.08657038 0.36892448
v -0.00988790 0.08652013 0.10564370
v -0.01068346 -0.00478317 0.10564370
v -0.01068346 -0.00478317 0.36892448
v -0.00995840 0.08633901 0.36892448
v -0.01398653 0.07311028 0.10564370
v -0.01258673 0.00259075 0.10564370
v -0.01438932 0.00956220 0.36892448
v -0.01398653 0.07311028 0.36892448
v -0.01468137 0.06266818 0.10564370
v -0.01401674 0.07274817 0.36892448
v -0.01444976 0.00981369 0.10564370
v -0.01444976 0.00981369 0.36892448
v -0.01537622 0.05200471 0.10564370
v -0.01537622 0.05200471 0.36892448
v -0.01475187 0.02047715 0.10564370
v -0.01504389 0.03090920 0.36892448
v -0.01521510 0.04156260 0.10564370
v -0.01537622 0.05165266 0.36892448
v -0.01504389 0.03090920 0.10564370
f 1 2 8
f 1 8 12
f 1 12 16
f 1 16 20
f 1 20 24
f 1 24 28
f 1 28 33
f 1 33 38
f 1 38 43
f 1 43 47
f 1 47 51
f 1 51 53
f 1 53 57
f 1 57 61
f 1 61 59
f 1 59 55
f 1 55 50
f 1 50 46
f 1 46 42
f 1 42 41
f 1 41 37
f 1 37 32
f 1 32 30
f 1 30 26
f 1 26 22
f 1 22 18
f 1 18 14
f 1 14 9
f 1 9 3
f 1 3 4
f 1 4 5
f 1 5 6
f 1 6 7
f 1 7 2
f 2 7 8
f 3 9 4
f 4 10 15
f 4 15 19
f 4 19 23
f 4 23 27
f 4 27 31
f 4 31 36
f 4 36 40
f 4 40 45
f 4 45 49
f 4 49 54
f 4 54 58
f 4 58 62
f 4 62 60
f 4 60 56
f 4 56 52
f 4 52 48
f 4 48 44
f 4 44 39
f 4 39 35
f 4 35 34
f 4 34 29
f 4 29 25
f 4 25 21
f 4 21 17
f 4 17 13
f 4 13 11
f 4 11 7
f 4 7 6
f 4 6 5
f 4 9 10
f 7 11 8
f 8 11 13
f 8 13 12
f 9 14 10
f 10 14 18
f 10 18 15
f 12 13 16
f 13 17 16
f 15 18 19
f 16 17 20
f 17 21 20
f 18 22 23
f 18 23 19
f 20 21 25
f 20 25 24
f 22 26 23
f 23 26 27
f 24 25 28
f 25 29 28
f 26 30 27
f 27 30 32
f 27 32 31
f 28 29 34
f 28 34 35
f 28 35 33
f 31 32 37
f 31 37 41
f 31 41 36
f 33 35 38
f 35 39 38
f 36 41 42
f 36 42 40
f 38 39 44
f 38 44 43
f 40 42 45
f 42 46 45
f 43 44 48
f 43 48 47
f 45 46 50
f 45 50 49
f 47 48 51
f 48 52 53
f 48 53 51
f 49 50 54
f 50 55 54
f 52 56 57
f 52 57 53
f 54 55 58
f 55 59 58
f 56 60 61
f 56 61 57
f 58 59 62
f 59 61 60
f 59 60 62

