# https://github.com/mikedh/trimesh
v 0.62395559 1.18248213 1.93939926
v 0.62704939 1.18248213 1.93939926
v 0.61194443 1.18248213 1.95204798
v 0.58837705 1.20278852 0.60116301
v 0.61554373 1.20252307 0.60116301
v 0.62902093 1.18248213 1.94326831
v 0.60458403 1.18248213 1.97050024
v 0.57767011 1.21063234 0.60116301
v 0.57827674 1.18248213 2.03805938
v 0.57378770 1.18248213 2.05740453
v 0.63574434 1.20759303 0.60116301
v 0.67558949 1.18248213 2.07838653
v 0.67334499 1.18248213 2.07035090
v 0.67167679 1.18248213 2.06439855
v 0.57716458 1.21213210 0.60116301
v 0.57403036 1.18248213 2.06945802
v 0.57378770 1.21260992 2.05740453
v 0.57344396 1.23347369 0.60116301
v 0.67121170 1.22030772 0.60116301
v 0.67604448 1.18248213 2.09951739
v 0.57421234 1.18248213 2.07838653
v 0.57421234 1.21260992 2.07838653
v 0.57465719 1.27590469 2.09951739
v 0.57393936 1.25480201 2.05740453
v 0.57344396 1.23371260 0.60116301
v 0.67126223 1.22045374 0.60116301
v 0.67672188 1.25480201 2.05740453
v 0.67641857 1.25480201 2.07838653
v 0.67604448 1.27590469 2.09951739
v 0.67437625 1.18248213 2.10591617
v 0.67531652 1.23371260 0.60116301
v 0.67533674 1.23395151 0.60116301
v 0.67671176 1.25480201 0.60116301
v 0.57446510 1.18248213 2.09058887
v 0.57465719 1.18248213 2.09951739
v 0.57730613 1.18248213 2.10844590
v 0.57928777 1.27590469 2.11499342
v 0.57929788 1.29700737 2.11499342
v 0.57485941 1.29700737 2.09951739
v 0.57432356 1.27590469 2.05740453
v 0.57433366 1.27590469 0.60116301
v 0.67637810 1.27590469 2.05740453
v 0.67589283 1.29700737 2.09951739
v 0.67637810 1.27590469 0.60116301
v 0.67212163 1.29700737 2.11439825
v 0.67213175 1.27590469 2.11439825
v 0.67213175 1.18248213 2.11439825
v 0.57928777 1.18248213 2.11499342
v 0.58796252 1.18248213 2.11796965
v 0.59444328 1.27590469 2.12005288
v 0.59444328 1.29700737 2.11975529
v 0.58084477 1.31074405 2.11335657
v 0.57946976 1.31216418 2.09951739
v 0.57942932 1.31216418 2.05740453
v 0.57942932 1.31213765 0.60116301
v 0.57496052 1.29700737 0.60116301
v 0.57495041 1.29676852 0.60116301
v 0.67202053 1.31173944 2.09951739
v 0.67083761 1.31041225 2.11291007
v 0.67578161 1.29700737 0.60116301
v 0.67574117 1.29716667 0.60116301
v 0.67201041 1.31160675 0.60116301
v 0.65773450 1.29700737 2.11960663
v 0.65773450 1.27590469 2.11975529
v 0.66597449 1.18248213 2.11677918
v 0.59444328 1.18248213 2.12005288
v 0.61554373 1.27590469 2.12109456
v 0.61554373 1.29700737 2.12064818
v 0.59444328 1.31215091 2.11484475
v 0.59444328 1.31691562 2.09951739
v 0.59444328 1.31704831 2.07838653
v 0.59444328 1.31692889 0.60116301
v 0.65773450 1.31691562 2.07838653
v 0.65773450 1.31688902 2.09951739
v 0.65773450 1.31213765 2.11469583
v 0.65789628 1.31662363 0.60116301
v 0.63663405 1.29700737 2.12109456
v 0.63663405 1.27590469 2.12139227
v 0.64871602 1.18248213 2.12049938
v 0.65773450 1.18248213 2.11975529
v 0.61554373 1.18248213 2.12109456
v 0.61554373 1.31246944 2.11514234
v 0.63663405 1.31805697 2.05740453
v 0.61554373 1.31779159 2.05740453
v 0.63663405 1.31270835 2.11543992
v 0.61554373 1.31777825 0.60116301
v 0.59467584 1.31694216 0.60116301
v 0.65773450 1.31667671 0.60116301
v 0.63686661 1.31804370 0.60116301
v 0.63663405 1.31805697 0.60116301
v 0.63663405 1.18248213 2.12139227
f 1 2 6
f 1 6 14
f 1 14 13
f 1 13 12
f 1 12 20
f 1 20 30
f 1 30 47
f 1 47 65
f 1 65 80
f 1 80 79
f 1 79 91
f 1 91 81
f 1 81 66
f 1 66 49
f 1 49 48
f 1 48 36
f 1 36 35
f 1 35 34
f 1 34 21
f 1 21 16
f 1 16 10
f 1 10 9
f 1 9 7
f 1 7 3
f 1 3 4
f 1 4 5
f 1 5 2
f 2 5 6
f 3 7 4
f 4 8 15
f 4 15 18
f 4 18 25
f 4 25 41
f 4 41 57
f 4 57 56
f 4 56 55
f 4 55 72
f 4 72 87
f 4 87 86
f 4 86 90
f 4 90 89
f 4 89 88
f 4 88 76
f 4 76 62
f 4 62 61
f 4 61 60
f 4 60 44
f 4 44 33
f 4 33 32
f 4 32 31
f 4 31 26
f 4 26 19
f 4 19 11
f 4 11 5
f 4 7 9
f 4 9 10
f 4 10 8
f 5 11 12
f 5 12 13
f 5 13 14
f 5 14 6
f 8 10 15
f 10 16 17
f 10 17 25
f 10 25 18
f 10 18 15
f 11 19 12
f 12 19 20
f 16 21 22
f 16 22 17
f 17 22 23
f 17 23 24
f 17 24 25
f 19 26 20
f 20 27 28
f 20 28 29
f 20 29 30
f 20 26 31
f 20 31 32
f 20 32 33
f 20 33 27
f 21 34 22
f 22 34 23
f 23 34 35
f 23 35 36
f 23 36 37
f 23 37 38
f 23 38 39
f 23 39 24
f 24 39 40
f 24 40 25
f 25 40 41
f 27 42 43
f 27 43 29
f 27 29 28
f 27 33 44
f 27 44 42
f 29 43 45
f 29 45 46
f 29 46 30
f 30 46 47
f 36 48 37
f 37 48 49
f 37 49 38
f 38 49 50
f 38 50 51
f 38 51 52
f 38 52 39
f 39 52 53
f 39 53 54
f 39 54 55
f 39 55 56
f 39 56 57
f 39 57 41
f 39 41 40
f 42 44 43
f 43 58 59
f 43 59 45
f 43 44 60
f 43 60 61
f 43 61 62
f 43 62 58
f 45 59 63
f 45 63 64
f 45 64 65
f 45 65 46
f 46 65 47
f 49 66 50
f 50 66 81
f 50 81 67
f 50 67 51
f 51 67 68
f 51 68 69
f 51 69 52
f 52 69 70
f 52 70 53
f 53 71 54
f 53 70 71
f 54 71 55
f 55 71 72
f 58 73 74
f 58 74 59
f 58 62 73
f 59 74 75
f 59 75 63
f 62 76 73
f 63 75 77
f 63 77 78
f 63 78 64
f 64 78 79
f 64 79 80
f 64 80 65
f 67 81 91
f 67 91 78
f 67 78 77
f 67 77 68
f 68 77 69
f 69 82 70
f 69 77 82
f 70 83 84
f 70 84 71
f 70 82 85
f 70 85 74
f 70 74 83
f 71 84 86
f 71 86 87
f 71 87 72
f 73 83 74
f 73 76 88
f 73 88 89
f 73 89 90
f 73 90 83
f 74 85 75
f 75 85 77
f 77 85 82
f 78 91 79
f 83 90 84
f 84 90 86

