# https://github.com/mikedh/trimesh
v 0.08781380 0.12432421 0.43256822
v 0.55145383 0.09240386 0.43256822
v 0.08564907 0.12432421 0.42396232
v 0.08265175 0.12432421 0.45232183
v 0.55145383 0.08802623 0.45223177
v 0.55145383 0.08802623 0.41308484
v 0.06760968 0.12432421 0.40191713
v 0.08265175 0.12432421 0.41230427
v 0.06694360 0.12432421 0.46216857
v 0.55145383 0.07533261 0.46300913
v 0.55145383 0.07437458 0.40147686
v 0.06694360 0.09047452 0.36892448
v 0.04202151 0.12432421 0.40001584
v 0.05484336 0.12432421 0.46285908
v 0.55145383 0.07424157 0.46327936
v 0.04585139 0.12432421 0.46335941
v 0.55145383 0.05288589 0.39767427
v 0.08098657 0.08697512 0.36892448
v 0.04585139 0.09124622 0.36892448
v 0.02509220 0.09151236 0.36892448
v 0.02681288 0.12432421 0.39987573
v 0.55145383 0.06242612 0.46517065
v 0.02470368 0.08469984 0.47115475
v 0.02470368 0.12432421 0.46360958
v 0.55145383 0.05144890 0.39769427
v 0.08642614 0.00981532 0.36892448
v 0.08648166 0.01017460 0.36892448
v 0.08709222 0.03091819 0.36892448
v 0.08753626 0.05203433 0.36892448
v 0.08587109 0.07311059 0.36892448
v 0.02470368 0.09151236 0.36892448
v 0.02281648 0.12432421 0.39998585
v 0.55145383 0.05200773 0.46642149
v 0.03203044 0.08278383 0.47115475
v 0.00411102 0.07511974 0.47115475
v 0.00361147 0.12432421 0.46172829
v 0.55145383 0.03194276 0.39833472
v 0.08198567 -0.00531326 0.36892448
v 0.00361147 0.09034145 0.36892448
v 0.00322292 0.12432421 0.40237747
v 0.55145383 0.04760356 0.46634144
v 0.04535184 0.07651686 0.47115475
v 0.04895972 0.07288439 0.47115475
v 0.05617548 0.06086933 0.47115475
v 0.05917279 0.05203433 0.47115475
v 0.05933931 0.04407756 0.47115475
v 0.05895076 0.03091819 0.47115475
v 0.05034737 0.01319498 0.47115475
v 0.04496329 0.00925650 0.47115475
v 0.00194629 0.07279125 0.47115475
v -0.01126408 0.12432421 0.45162132
v -0.00499191 0.05203433 0.47115475
v 0.00122472 0.07071557 0.47115475
v 0.55145383 0.03130407 0.39839472
v 0.06694360 -0.01010331 0.36892448
v 0.55145383 0.00982865 0.40070635
v 0.55145383 0.00643572 0.40126668
v -0.00987645 0.08656264 0.36892448
v -0.00238316 0.12432421 0.40630017
v 0.55145383 0.03091819 0.46587110
v 0.02542526 0.00356168 0.47115475
v -0.01559353 0.12432421 0.43256822
v -0.01087555 0.05203433 0.45367272
v -0.00737867 0.05203433 0.46533076
v -0.00476989 0.03097139 0.47115475
v 0.04585139 -0.01095487 0.36892448
v 0.55145383 -0.00522012 0.40987265
v -0.01392835 0.07311059 0.36892448
v -0.01126408 0.12432421 0.41302478
v 0.55145383 0.00839166 0.46339941
v 0.02281648 0.00350848 0.47115475
v 0.55145383 -0.00616482 0.45297228
v 0.55145383 0.00809892 0.46335941
v -0.01398385 0.07275132 0.36892448
v -0.01537151 0.05203433 0.36892448
v -0.01559353 0.09420013 0.43256822
v -0.01104205 0.00981532 0.45275210
v -0.00726767 0.03553530 0.46502054
v -0.00460339 0.02769820 0.47115475
v 0.04546287 -0.01096814 0.36892448
v 0.55145383 -0.01160683 0.43256822
v 0.02220590 0.00350848 0.47115475
v 0.01682187 -0.00080262 0.46435009
v 0.55145383 -0.00636437 0.45223177
v 0.02420413 -0.00512698 0.45569413
v 0.04585139 -0.00616482 0.45302227
v -0.01503848 0.03091819 0.36892448
v -0.01520501 0.00981532 0.43256822
v -0.00976542 -0.00390281 0.44906957
v -0.00360429 0.02547618 0.47115475
v 0.02470368 -0.01124755 0.36892448
v 0.34652638 -0.01160683 0.43256822
v 0.01360251 -0.00080262 0.46435009
v 0.00805196 0.00760663 0.47115475
v 0.00538765 -0.00484751 0.45512373
v 0.02470368 -0.01159350 0.43256822
v -0.01442790 0.00981532 0.36892448
v -0.01120858 -0.00548620 0.43256822
v -0.01437241 0.00956251 0.36892448
v -0.01065353 -0.00478097 0.36892448
v 0.00361147 -0.01091494 0.43256822
v 0.00666427 0.00824526 0.47115475
v 0.00527665 0.00960244 0.47115475
v 0.00361147 -0.00986377 0.36892448
f 1 2 3
f 1 3 8
f 1 8 7
f 1 7 13
f 1 13 21
f 1 21 32
f 1 32 40
f 1 40 59
f 1 59 69
f 1 69 62
f 1 62 51
f 1 51 36
f 1 36 24
f 1 24 16
f 1 16 14
f 1 14 9
f 1 9 4
f 1 4 2
f 2 5 10
f 2 10 15
f 2 15 22
f 2 22 33
f 2 33 41
f 2 41 60
f 2 60 70
f 2 70 73
f 2 73 72
f 2 72 84
f 2 84 81
f 2 81 67
f 2 67 57
f 2 57 56
f 2 56 54
f 2 54 37
f 2 37 25
f 2 25 17
f 2 17 11
f 2 11 6
f 2 6 7
f 2 7 8
f 2 8 3
f 2 4 9
f 2 9 5
f 5 9 10
f 6 11 12
f 6 12 7
f 7 12 13
f 9 14 10
f 10 14 16
f 10 16 15
f 11 17 18
f 11 18 12
f 12 18 30
f 12 30 29
f 12 29 28
f 12 28 27
f 12 27 26
f 12 26 38
f 12 38 55
f 12 55 66
f 12 66 80
f 12 80 91
f 12 91 104
f 12 104 100
f 12 100 99
f 12 99 97
f 12 97 87
f 12 87 75
f 12 75 74
f 12 74 68
f 12 68 58
f 12 58 39
f 12 39 31
f 12 31 20
f 12 20 19
f 12 19 13
f 13 20 21
f 13 19 20
f 15 16 23
f 15 23 22
f 16 24 23
f 17 25 26
f 17 26 27
f 17 27 28
f 17 28 29
f 17 29 30
f 17 30 18
f 20 31 21
f 21 31 32
f 22 23 33
f 23 34 33
f 23 24 35
f 23 35 50
f 23 50 53
f 23 53 52
f 23 52 65
f 23 65 79
f 23 79 90
f 23 90 103
f 23 103 102
f 23 102 94
f 23 94 82
f 23 82 71
f 23 71 61
f 23 61 49
f 23 49 48
f 23 48 47
f 23 47 46
f 23 46 45
f 23 45 44
f 23 44 43
f 23 43 42
f 23 42 34
f 24 36 35
f 25 37 38
f 25 38 26
f 31 39 32
f 32 39 40
f 33 34 42
f 33 42 43
f 33 43 44
f 33 44 45
f 33 45 46
f 33 46 47
f 33 47 48
f 33 48 49
f 33 49 41
f 35 36 50
f 36 51 52
f 36 52 53
f 36 53 50
f 37 54 38
f 38 54 56
f 38 56 57
f 38 57 55
f 39 58 40
f 40 58 59
f 41 49 60
f 49 61 60
f 51 62 63
f 51 63 64
f 51 64 52
f 52 64 65
f 55 57 67
f 55 67 66
f 58 68 69
f 58 69 59
f 60 61 70
f 61 71 72
f 61 72 73
f 61 73 70
f 62 68 74
f 62 74 75
f 62 75 76
f 62 76 63
f 62 69 68
f 63 76 77
f 63 77 64
f 64 78 65
f 64 77 78
f 65 78 77
f 65 77 79
f 66 67 80
f 67 81 80
f 71 82 93
f 71 93 83
f 71 83 72
f 72 83 85
f 72 85 86
f 72 86 84
f 75 87 88
f 75 88 76
f 76 88 77
f 77 89 79
f 77 88 89
f 79 89 90
f 80 81 91
f 81 84 86
f 81 86 92
f 81 92 91
f 82 94 93
f 83 93 85
f 85 93 95
f 85 95 96
f 85 96 86
f 86 96 92
f 87 97 88
f 88 98 89
f 88 97 99
f 88 99 100
f 88 100 98
f 89 98 101
f 89 101 95
f 89 95 93
f 89 93 94
f 89 94 102
f 89 102 103
f 89 103 90
f 91 92 96
f 91 96 101
f 91 101 104
f 95 101 96
f 98 100 101
f 100 104 101
