mtllib material.mtl
usemtl material_right_angle_mount_0
v -0.11850000 0.05479997 0.12830900
v -0.11850000 0.11250900 0.22501799
v -0.11850000 0.11250900 0.00000000
v 0.11850000 0.11250900 0.22501799
v -0.11850000 0.11250900 0.00000000
v -0.11850000 0.11250900 0.22501799
v -0.11850000 -0.01579999 0.05770897
v -0.11850000 -0.11250900 0.00000000
v 0.11850000 0.11250900 0.00000000
v -0.11850000 -0.11250900 0.00000000
v -0.11850000 0.11250900 0.00000000
v 0.11850000 0.11250900 0.00000000
v -0.11850000 0.05479997 0.22501799
v 0.11850000 0.05479997 0.22501799
v -0.11850000 0.11250900 0.22501799
v -0.11850000 0.05479997 0.22501799
v 0.11850000 0.11250900 0.22501799
v 0.11850000 0.05479997 0.12830900
v -0.11850000 0.05479997 0.22501799
v -0.11850000 0.05479997 0.12830900
v 0.11850000 0.05479997 0.22501799
v 0.11850000 -0.01579999 0.05770897
v -0.11850000 0.05479997 0.12830900
v -0.11850000 -0.01579999 0.05770897
v 0.11850000 0.05479997 0.12830900
v -0.11850000 -0.11250900 0.05770897
v 0.11850000 -0.11250900 0.05770897
v -0.11850000 -0.01579999 0.05770897
v -0.11850000 -0.11250900 0.05770897
v 0.11850000 -0.01579999 0.05770897
v 0.11850000 -0.11250900 0.00000000
v -0.11850000 -0.11250900 0.05770897
v -0.11850000 -0.11250900 0.00000000
v 0.11850000 -0.11250900 0.05770897
v 0.11850000 -0.11250900 0.00000000
v 0.11850000 -0.11250900 0.05770897
v 0.11850000 -0.11250900 0.00000000
v 0.11850000 0.11250900 0.00000000
v 0.11850000 -0.01579999 0.05770897
v 0.11850000 0.05479997 0.12830900
v 0.11850000 0.05479997 0.22501799
v 0.11850000 0.11250900 0.22501799
vt 1.00000000 0.74322498
vt 0.94292700 0.90207398
vt 0.94292700 0.00000000
vt 0.65912098 0.90207398
vt 0.94292700 0.00000000
vt 0.94292700 0.90207398
vt 0.00000000 0.43034101
vt 0.10964900 0.00000000
vt 0.65912098 0.00000000
vt 0.10964900 0.00000000
vt 0.94292700 0.00000000
vt 0.65912098 0.00000000
vt 1.00000000 1.00000000
vt 0.60204798 1.00000000
vt 0.94292700 0.90207398
vt 1.00000000 1.00000000
vt 0.65912098 0.90207398
vt 0.60204798 0.74322498
vt 1.00000000 1.00000000
vt 1.00000000 0.74322498
vt 0.60204798 1.00000000
vt 0.50310498 0.43034101
vt 1.00000000 0.74322498
vt 0.00000000 0.43034101
vt 0.60204798 0.74322498
vt 0.10964900 0.32485899
vt 0.39345500 0.32485899
vt 0.00000000 0.43034101
vt 0.10964900 0.32485899
vt 0.50310498 0.43034101
vt 0.39345500 0.00000000
vt 0.10964900 0.32485899
vt 0.10964900 0.00000000
vt 0.39345500 0.32485899
vt 0.39345500 0.00000000
vt 0.39345500 0.32485899
vt 0.39345500 0.00000000
vt 0.65912098 0.00000000
vt 0.50310498 0.43034101
vt 0.60204798 0.74322498
vt 0.60204798 1.00000000
vt 0.65912098 0.90207398
f 1/1 2/2 3/3
f 4/4 5/5 6/6
f 7/7 1/1 3/3
f 8/8 7/7 3/3
f 9/9 10/10 11/11
f 4/4 12/12 5/5
f 1/1 13/13 2/2
f 14/14 15/15 16/16
f 17/17 15/15 14/14
f 18/18 19/19 20/20
f 21/21 19/19 18/18
f 22/22 23/23 24/24
f 25/25 23/23 22/22
f 8/8 26/26 7/7
f 27/27 28/28 29/29
f 30/30 28/28 27/27
f 31/31 32/32 33/33
f 34/34 32/32 31/31
f 9/9 35/35 10/10
f 36/36 37/37 38/38
f 39/39 36/36 38/38
f 40/40 39/39 38/38
f 41/41 40/40 38/38
f 42/42 41/41 38/38

