mtllib material.mtl
usemtl mtl_front_left_face
v 0.00635000 0.03185600 1.02000201
v 0.00635000 0.00000000 1.06552899
v 0.00635000 0.00000000 0.00000000
v -0.00000000 0.00000000 0.00000000
v 0.00635000 0.31591800 0.03323700
v 0.00635000 0.34400901 0.00000000
v -0.00000000 0.34400901 0.00000000
v 0.00635000 0.03185600 0.03323700
v 0.00635000 0.03185600 0.31542900
v 0.00635000 0.03185600 0.40267101
v 0.00635000 0.03185600 0.64707500
v 0.00635000 0.03185600 0.73781002
v 0.00635000 0.34400901 1.06552899
v -0.00000000 0.00000000 1.06552899
v -0.00000000 0.34400901 1.06552899
v 0.00635000 0.31591800 0.31542900
v 0.00635000 0.31591800 0.40267101
v 0.00635000 0.31591800 0.64707500
v 0.00635000 0.31591800 0.73781002
v 0.00635000 0.31591800 1.02000201
v -0.00000000 0.03185600 0.03323700
v -0.00000000 0.03185600 0.31542900
v -0.00000000 0.31591800 0.03323700
v -0.00000000 0.31591800 0.31542900
v -0.00000000 0.03185600 0.40267101
v -0.00000000 0.03185600 0.64707500
v -0.00000000 0.31591800 0.40267101
v -0.00000000 0.31591800 0.64707500
v -0.00000000 0.03185600 0.73781002
v -0.00000000 0.03185600 1.02000201
v -0.00000000 0.31591800 0.73781002
v -0.00000000 0.31591800 1.02000201
f 1 2 3
f 4 3 2
f 5 3 6
f 7 6 3
f 5 8 3
f 9 3 8
f 10 3 9
f 11 3 10
f 12 3 11
f 1 3 12
f 7 3 4
f 1 13 2
f 14 2 13
f 14 4 2
f 5 6 13
f 15 13 6
f 16 5 13
f 17 16 13
f 18 17 13
f 19 18 13
f 20 19 13
f 1 20 13
f 14 13 15
f 15 6 7
f 21 8 5
f 22 9 8
f 22 8 21
f 23 5 16
f 23 21 5
f 17 9 16
f 24 16 9
f 23 16 24
f 17 10 9
f 24 9 22
f 25 10 17
f 26 11 10
f 26 10 25
f 27 17 18
f 27 25 17
f 19 11 18
f 28 18 11
f 27 18 28
f 19 12 11
f 28 11 26
f 29 12 19
f 30 1 12
f 30 12 29
f 31 19 20
f 31 29 19
f 32 20 1
f 31 20 32
f 32 1 30
f 21 7 4
f 21 4 14
f 32 15 7
f 23 7 21
f 23 24 7
f 27 7 24
f 27 28 7
f 31 7 28
f 31 32 7
f 32 14 15
f 22 21 14
f 25 22 14
f 26 25 14
f 29 26 14
f 30 29 14
f 32 30 14
f 25 24 22
f 27 24 25
f 29 28 26
f 31 28 29

