mtllib material.mtl
usemtl mtl_round_latch_handle
v -0.00011159 0.01849329 -0.00581724
v 0.00000000 0.01851450 -0.00610372
v 0.00000000 0.02120823 -0.00647700
v 0.00000000 0.02120823 -0.00889000
v -0.00011159 0.02120823 -0.00620759
v 0.00000000 0.02390195 -0.00610372
v 0.00000000 0.02427230 -0.00850286
v 0.00000000 0.01602379 -0.00501200
v 0.00000000 0.01817326 -0.00851029
v -0.00011159 0.01599829 -0.00467782
v 0.00000000 0.01378949 -0.00313539
v 0.00000000 0.01532538 -0.00739458
v -0.00011159 0.01244248 -0.00057419
v 0.00000000 0.01216054 -0.00060439
v 0.00000000 0.01283999 -0.00561149
v -0.00011159 0.01392538 -0.00288163
v -0.00011159 0.01166972 0.00205757
v 0.00000000 0.01137624 0.00222031
v -0.00011159 0.01166972 0.00480043
v 0.00000000 0.01144300 0.00509308
v 0.00000000 0.01087067 0.01012920
v 0.00000000 0.01087067 -0.00327120
v -0.00011159 0.01244248 0.00743219
v 0.00000000 0.01231463 0.00779166
v -0.00011159 0.01392538 0.00973963
v 0.00000000 0.01390329 0.01011980
v 0.00000000 0.01284000 0.01246949
v -0.00011159 0.01599829 0.01153582
v 0.00000000 0.01602379 0.01187000
v 0.00000000 0.01532538 0.01425258
v -0.00011159 0.01849329 0.01267524
v 0.00000000 0.01851450 0.01296172
v 0.00000000 0.01817326 0.01536829
v -0.00011159 0.02120823 0.01306559
v 0.00000000 0.02120823 0.01333500
v -0.00011159 0.02392317 0.01267524
v 0.00000000 0.02120823 0.01574800
v 0.00000000 0.02390195 0.01296172
v -0.00038100 0.02120823 0.01295400
v -0.00038100 0.02415162 0.01248781
v -0.00038100 0.01826485 0.01248781
v -0.00038100 0.01560957 0.01113489
v -0.00038100 0.01350234 0.00902766
v -0.00038100 0.01214941 0.00637239
v -0.00038100 0.01168323 0.00342900
v -0.00038100 0.01214941 0.00048561
v -0.00038100 0.01350234 -0.00216965
v -0.00038100 0.01560958 -0.00427689
v -0.00038100 0.01826484 -0.00562981
v -0.00038100 0.02120823 -0.00609600
v -0.00011159 0.02392317 -0.00581724
v -0.00203200 0.02120823 0.01295400
v -0.00203200 0.02380027 0.01259453
v -0.00203200 0.01621980 0.01154326
v -0.00203200 0.01861619 0.01259453
v -0.00203200 0.01407723 0.00974363
v -0.00203200 0.01251036 0.00731136
v -0.00203200 0.01175499 0.00459604
v -0.00203200 0.01181778 0.00183368
v -0.00203200 0.01265477 -0.00076193
v -0.00203200 0.01418183 -0.00300181
v -0.00203200 0.01621980 -0.00468526
v -0.00203200 0.01861619 -0.00573653
v -0.00203200 0.02120823 -0.00609600
v -0.00038100 0.02415161 -0.00562981
v 0.00000000 0.00000000 0.00685800
v 0.00000000 0.00000000 0.00000000
v 0.00000000 0.00881678 0.00000000
v -0.00002944 0.00000000 -0.00014685
v 0.00000000 0.00881678 0.00685800
v 0.00000000 0.00926097 -0.00014286
v -0.00011159 0.00881678 -0.00026941
v -0.00011159 -0.00026941 0.00685800
v -0.00019050 -0.00026941 -0.00019050
v -0.00011159 -0.00026941 0.00000000
v -0.00011159 0.00881678 0.00712741
v -0.00011051 0.00000000 0.00712633
v 0.00000000 0.00926097 0.00700086
v -0.00005104 0.00914992 0.00715564
v 0.00000000 0.00953861 -0.00051786
v 0.00000000 0.00953861 0.00737586
v -0.00011159 0.00928340 0.00746218
v -0.00011159 0.01192079 0.01192674
v -0.00011159 0.01036973 0.00983173
v -0.00011159 0.01387008 0.01365738
v -0.00011159 0.01613403 0.01494944
v -0.00011159 0.01861554 0.01574752
v 0.00000000 0.02427230 0.01536086
v -0.00011159 0.02120823 0.01601741
v 0.00000000 0.02639266 0.01187000
v 0.00000000 0.02714380 0.01422376
v -0.00011159 0.02446635 0.01558847
v 0.00000000 0.02862696 0.00999339
v 0.00000000 0.02965898 0.01239240
v -0.00011159 0.02750243 0.01433088
v 0.00000000 0.03104021 0.00463769
v 0.00000000 0.03168628 0.00990728
v -0.00011159 0.03010958 0.01233035
v 0.00000000 0.03025591 0.00746239
v 0.00000000 0.03191464 -0.00266449
v 0.00000000 0.03300719 0.00697050
v -0.00011159 0.03211011 0.00972320
v 0.00000000 0.03316717 0.00047241
v 0.00000000 0.03352281 0.00375868
v -0.00011159 0.03336770 0.00668712
v -0.00011159 0.03379663 0.00342900
v -0.00011159 0.03336770 0.00017088
v 0.00000000 0.03010182 -0.00093366
v 0.00000000 0.02979084 -0.00540822
v -0.00011159 0.03211011 -0.00286520
v 0.00000000 0.03097346 0.00176492
v 0.00000000 0.02851316 -0.00326180
v 0.00000000 0.02714380 -0.00736576
v -0.00011159 0.02750243 -0.00747288
v -0.00011159 0.03010958 -0.00547235
v 0.00000000 0.02639266 -0.00501200
v -0.00011159 0.02446635 -0.00873047
v -0.00011159 0.02120823 -0.00915941
v -0.00011159 0.01613403 -0.00809144
v -0.00011159 0.01861554 -0.00888952
v -0.00011159 0.01387008 -0.00679938
v -0.00011159 0.01192079 -0.00506874
v -0.00011159 0.01036973 -0.00297373
v -0.00005104 0.00914992 -0.00029764
v -0.00011159 0.00928340 -0.00060418
v -0.00011159 0.02641816 -0.00467782
v -0.00011159 0.02849108 -0.00288163
v -0.00011159 0.02997398 -0.00057419
v -0.00011159 0.03074673 0.00205757
v -0.00011159 0.03074673 0.00480043
v -0.00011159 0.02997398 0.00743219
v -0.00011159 0.02641816 0.01153582
v -0.00011159 0.02849108 0.00973963
v -0.00011267 0.00000000 -0.00027049
v -0.00038100 -0.00000000 -0.00038100
v -0.00038100 -0.00026941 -0.00026941
v -0.00038100 0.00881678 -0.00038100
v -0.00203200 0.00881678 -0.00038100
v -0.00203200 -0.00000000 -0.00038100
v -0.00019050 0.00906863 -0.00041095
v -0.00203200 0.00903887 -0.00045243
v -0.00038100 0.00903887 -0.00045243
v -0.00038100 -0.00038100 0.00000000
v -0.00038100 -0.00038100 0.00685800
v -0.00203200 -0.00026941 -0.00026941
v -0.00203200 -0.00038100 0.00000000
v -0.00014769 -0.00026941 0.00699270
v -0.00024630 -0.00026941 0.00709131
v -0.00038100 -0.00026941 0.00712741
v -0.00203200 -0.00038100 0.00685800
v -0.00038100 -0.00000000 0.00723900
v -0.00203200 -0.00026941 0.00712741
v -0.00023415 0.00000000 0.00720956
v -0.00038100 0.00881678 0.00723900
v -0.00203200 -0.00000000 0.00723900
v -0.00203200 0.00881678 0.00723900
v -0.00203200 0.00903887 0.00731043
v -0.00203200 0.00917769 0.00749793
v -0.00203200 0.00917769 -0.00063993
v -0.00203200 0.01055094 0.01033641
v -0.00203200 0.01055094 -0.00347841
v -0.00038100 0.00917769 -0.00063993
v -0.00203200 0.01258116 -0.00589107
v -0.00038100 0.01055097 -0.00347845
v -0.00203200 0.01258116 0.01274907
v -0.00203200 0.01514347 -0.00772935
v -0.00038100 0.01258125 -0.00589115
v -0.00203200 0.01807941 -0.00887955
v -0.00038100 0.01807935 -0.00887954
v -0.00038100 0.01514336 -0.00772929
v -0.00203200 0.02120823 -0.00927100
v -0.00203200 0.02380027 -0.00573653
v -0.00203200 0.02436519 -0.00887236
v -0.00038100 0.02120823 -0.00927100
v -0.00203200 0.02619666 -0.00468526
v -0.00203200 0.02732397 -0.00770148
v -0.00038100 0.02478623 -0.00875656
v -0.00203200 0.02990609 -0.00045336
v -0.00203200 0.02991785 -0.00581397
v -0.00038100 0.02807436 -0.00725492
v -0.00203200 0.02833922 -0.00288563
v -0.00203200 0.03066146 0.00226196
v -0.00203200 0.03200807 -0.00325333
v -0.00038100 0.03080625 -0.00488773
v -0.00203200 0.03224816 0.00970673
v -0.00203200 0.03337068 -0.00022679
v -0.00038100 0.03276055 -0.00184677
v -0.00203200 0.03353830 0.00647193
v -0.00203200 0.03390354 0.00308383
v -0.00038100 0.03377896 0.00162160
v -0.00038100 0.03377896 0.00523640
v -0.00038100 0.03276055 0.00870477
v -0.00203200 0.03059868 0.00502432
v -0.00203200 0.03005917 0.01253673
v -0.00038100 0.03080625 0.01174573
v -0.00203200 0.02823462 0.00985982
v -0.00203200 0.02732397 0.01455948
v -0.00038100 0.02807437 0.01411292
v -0.00203200 0.02976169 0.00761993
v -0.00203200 0.02619666 0.01154326
v -0.00203200 0.02436519 0.01573036
v -0.00038100 0.02478623 0.01561456
v -0.00203200 0.02120823 0.01612900
v -0.00203200 0.01807941 0.01573755
v -0.00038100 0.02120823 0.01612900
v -0.00203200 0.01514347 0.01458735
v -0.00038100 0.01807935 0.01573754
v -0.00038100 0.01514336 0.01458729
v -0.00038100 0.01055097 0.01033646
v -0.00038100 0.01258125 0.01274915
v -0.00038100 0.00917769 0.00749793
v -0.00038100 0.00903887 0.00731043
v -0.00038100 0.02680688 0.01113489
v -0.00038100 0.02891412 0.00902765
v -0.00038100 0.03026704 0.00637239
v -0.00038100 0.03073323 0.00342900
v -0.00038100 0.03026704 0.00048561
v -0.00038100 0.02891411 -0.00216966
v -0.00038100 0.02680688 -0.00427689
v -0.00019050 0.00906863 0.00726895
f 1 2 3
f 4 3 2
f 5 1 3
f 6 5 3
f 4 7 3
f 6 3 7
f 1 8 2
f 9 2 8
f 9 4 2
f 10 11 8
f 12 8 11
f 1 10 8
f 12 9 8
f 13 14 11
f 15 11 14
f 16 13 11
f 10 16 11
f 15 12 11
f 17 18 14
f 15 14 18
f 13 17 14
f 19 20 18
f 21 18 20
f 17 19 18
f 22 18 21
f 22 15 18
f 23 24 20
f 21 20 24
f 19 23 20
f 25 26 24
f 27 24 26
f 23 25 24
f 27 21 24
f 28 29 26
f 30 26 29
f 25 28 26
f 30 27 26
f 31 32 29
f 33 29 32
f 28 31 29
f 33 30 29
f 34 35 32
f 33 32 35
f 31 34 32
f 36 35 34
f 37 33 35
f 38 37 35
f 36 38 35
f 39 34 31
f 40 34 39
f 36 34 40
f 41 31 28
f 41 39 31
f 42 28 25
f 42 41 28
f 43 25 23
f 43 42 25
f 44 23 19
f 44 43 23
f 45 19 17
f 45 44 19
f 46 17 13
f 46 45 17
f 47 13 16
f 47 46 13
f 48 16 10
f 48 47 16
f 49 10 1
f 49 48 10
f 49 1 5
f 50 49 5
f 51 50 5
f 51 5 6
f 52 39 41
f 53 39 52
f 40 39 53
f 54 41 42
f 55 41 54
f 52 41 55
f 56 42 43
f 54 42 56
f 57 43 44
f 56 43 57
f 58 44 45
f 57 44 58
f 59 45 46
f 58 45 59
f 60 46 47
f 59 46 60
f 61 47 48
f 60 47 61
f 62 48 49
f 61 48 62
f 63 49 50
f 62 49 63
f 63 50 64
f 65 64 50
f 51 65 50
f 66 67 68
f 69 68 67
f 70 66 68
f 71 70 68
f 72 71 68
f 72 68 69
f 73 67 66
f 74 69 67
f 74 67 75
f 73 75 67
f 76 66 70
f 77 73 66
f 76 77 66
f 71 78 70
f 79 70 78
f 76 70 79
f 80 81 78
f 82 78 81
f 71 80 78
f 79 78 82
f 22 21 81
f 82 81 21
f 80 22 81
f 83 21 27
f 84 21 83
f 82 21 84
f 85 27 30
f 83 27 85
f 86 30 33
f 85 30 86
f 87 33 37
f 86 33 87
f 38 88 37
f 89 37 88
f 87 37 89
f 90 91 88
f 92 88 91
f 38 90 88
f 92 89 88
f 93 94 91
f 95 91 94
f 90 93 91
f 95 92 91
f 96 97 94
f 98 94 97
f 99 96 94
f 93 99 94
f 98 95 94
f 100 101 97
f 102 97 101
f 96 100 97
f 102 98 97
f 103 104 101
f 105 101 104
f 100 103 101
f 105 102 101
f 106 104 103
f 106 105 104
f 107 103 100
f 107 106 103
f 108 109 100
f 110 100 109
f 111 108 100
f 96 111 100
f 110 107 100
f 112 113 109
f 114 109 113
f 108 112 109
f 115 110 109
f 114 115 109
f 116 7 113
f 117 113 7
f 112 116 113
f 117 114 113
f 117 7 4
f 116 6 7
f 118 4 9
f 118 117 4
f 119 9 12
f 120 118 9
f 119 120 9
f 121 12 15
f 121 119 12
f 122 15 22
f 122 121 15
f 123 22 80
f 123 122 22
f 124 80 71
f 125 123 80
f 124 125 80
f 124 71 72
f 51 6 116
f 126 116 112
f 51 116 126
f 127 112 108
f 126 112 127
f 128 108 111
f 127 108 128
f 129 111 96
f 128 111 129
f 130 96 99
f 129 96 130
f 131 99 93
f 130 99 131
f 132 93 90
f 133 93 132
f 131 93 133
f 36 90 38
f 132 90 36
f 72 134 135
f 136 135 134
f 137 72 135
f 138 137 135
f 139 135 136
f 138 135 139
f 72 69 134
f 74 134 69
f 136 134 74
f 140 72 137
f 140 124 72
f 141 137 138
f 142 137 141
f 140 137 142
f 74 75 143
f 144 143 75
f 136 74 143
f 145 136 143
f 146 143 144
f 145 143 146
f 73 144 75
f 145 139 136
f 147 144 73
f 148 149 144
f 150 144 149
f 147 148 144
f 146 144 150
f 77 147 73
f 151 149 148
f 152 149 151
f 152 150 149
f 77 148 147
f 153 151 148
f 77 153 148
f 154 151 153
f 155 152 151
f 154 155 151
f 76 153 77
f 76 154 153
f 146 150 152
f 145 152 155
f 145 146 152
f 156 139 155
f 145 155 139
f 154 156 155
f 156 138 139
f 157 141 138
f 156 157 138
f 158 159 141
f 142 141 159
f 157 158 141
f 160 161 159
f 162 159 161
f 158 160 159
f 162 142 159
f 59 163 161
f 164 161 163
f 160 165 161
f 58 161 165
f 58 59 161
f 164 162 161
f 61 166 163
f 167 163 166
f 60 61 163
f 59 60 163
f 167 164 163
f 62 168 166
f 169 166 168
f 61 62 166
f 170 167 166
f 169 170 166
f 64 171 168
f 169 168 171
f 63 64 168
f 62 63 168
f 172 173 171
f 174 171 173
f 172 171 64
f 174 169 171
f 175 176 173
f 177 173 176
f 172 175 173
f 177 174 173
f 178 179 176
f 180 176 179
f 181 178 176
f 175 181 176
f 180 177 176
f 182 183 179
f 184 179 183
f 178 182 179
f 184 180 179
f 185 186 183
f 187 183 186
f 182 185 183
f 187 184 183
f 188 189 186
f 190 186 189
f 185 188 186
f 190 187 186
f 191 189 188
f 191 190 189
f 192 188 185
f 192 191 188
f 193 194 185
f 195 185 194
f 182 193 185
f 195 192 185
f 196 197 194
f 198 194 197
f 199 196 194
f 193 199 194
f 198 195 194
f 200 201 197
f 202 197 201
f 196 200 197
f 202 198 197
f 52 203 201
f 202 201 203
f 53 52 201
f 200 53 201
f 55 204 203
f 205 203 204
f 52 55 203
f 205 202 203
f 54 206 204
f 207 204 206
f 55 54 204
f 207 205 204
f 56 165 206
f 208 206 165
f 54 56 206
f 208 207 206
f 209 165 160
f 57 58 165
f 56 57 165
f 210 208 165
f 209 210 165
f 209 160 158
f 211 158 157
f 211 209 158
f 212 157 156
f 212 211 157
f 212 156 154
f 65 172 64
f 40 53 200
f 213 200 196
f 213 40 200
f 214 196 199
f 214 213 196
f 215 199 193
f 215 214 199
f 216 193 182
f 216 215 193
f 217 182 178
f 217 216 182
f 218 178 181
f 218 217 178
f 219 181 175
f 219 218 181
f 65 175 172
f 65 219 175
f 125 142 162
f 140 142 125
f 125 162 164
f 122 164 167
f 123 164 122
f 125 164 123
f 121 167 170
f 122 167 121
f 119 170 169
f 121 170 119
f 120 169 174
f 119 169 120
f 118 174 177
f 120 174 118
f 114 177 180
f 117 177 114
f 118 177 117
f 115 180 184
f 114 180 115
f 110 184 187
f 115 184 110
f 107 187 190
f 110 187 107
f 106 190 191
f 107 190 106
f 105 191 192
f 106 191 105
f 102 192 195
f 105 192 102
f 98 195 198
f 102 195 98
f 95 198 202
f 98 198 95
f 92 202 205
f 95 202 92
f 89 205 207
f 92 205 89
f 86 207 208
f 87 89 207
f 86 87 207
f 85 208 210
f 85 86 208
f 83 210 209
f 83 85 210
f 84 209 211
f 84 83 209
f 82 84 211
f 220 82 211
f 220 211 212
f 79 82 220
f 76 212 154
f 76 220 212
f 76 79 220
f 140 125 124
f 132 40 213
f 132 36 40
f 133 213 214
f 133 132 213
f 131 214 215
f 131 133 214
f 130 215 216
f 130 131 215
f 129 216 217
f 129 130 216
f 128 217 218
f 128 129 217
f 127 218 219
f 127 128 218
f 126 219 65
f 126 127 219
f 51 126 65
