mtllib material.mtl
usemtl mtl_cabinet_door_2
v 0.00317500 0.17014703 -0.00500000
v 0.00000000 0.17014703 -0.00500000
v 0.00000000 0.33529407 -0.00500000
v 0.00000000 0.30303723 0.13450179
v 0.00317500 0.33529407 -0.00500000
v 0.00000000 0.33882961 -0.00353554
v 0.00000000 0.33882961 0.29793912
v 0.00000000 0.33529407 0.29940358
v 0.00317500 0.00500000 -0.00500000
v 0.00000000 0.00500000 -0.00500000
v 0.00000000 0.17014703 0.29940358
v 0.00000000 0.21690238 0.15990180
v 0.00000000 0.21690238 0.13450179
v 0.00317500 0.21721323 0.13450179
v 0.00317500 0.00500000 0.29940358
v 0.00317500 0.17014703 0.29940358
v 0.00317500 0.33882961 -0.00353553
v 0.00317500 0.33529407 0.29940358
v 0.00317500 0.30334809 0.15990180
v 0.00317500 0.30334809 0.13450179
v 0.00000000 0.34029406 0.14720179
v 0.00000000 0.34029406 0.00000000
v 0.00000000 0.34029406 0.29440358
v 0.00317500 0.34029406 0.00000000
v 0.00317500 0.34029406 0.14720179
v 0.00317500 0.34029406 0.29440358
v 0.00317500 0.33882961 0.29793912
v 0.00000000 0.30303723 0.15990180
v 0.00000000 0.00500000 0.29940358
v 0.00000000 0.00146446 -0.00353553
v 0.00000000 0.00146447 0.29793912
v 0.00000000 0.00000000 0.14720179
v 0.00000000 0.00000000 0.29440358
v 0.00317500 0.00146446 0.29793912
v 0.00000000 0.00000000 0.00000000
v 0.00317500 0.00000000 0.29440358
v 0.00317500 0.00000000 0.14720179
v 0.00317500 0.00000000 0.00000000
v 0.00317500 0.00146447 -0.00353554
v 0.00317500 0.21721323 0.15990180
f 1 2 3
f 4 3 2
f 5 1 3
f 6 5 3
f 7 6 3
f 8 7 3
f 4 8 3
f 9 2 1
f 10 11 2
f 12 2 11
f 9 10 2
f 13 4 2
f 12 13 2
f 14 1 5
f 15 9 1
f 16 15 1
f 14 16 1
f 17 5 6
f 17 18 5
f 19 5 18
f 20 14 5
f 19 20 5
f 21 22 6
f 17 6 22
f 23 21 6
f 7 23 6
f 24 22 21
f 17 22 24
f 25 21 23
f 25 24 21
f 26 23 7
f 25 23 26
f 27 7 8
f 27 26 7
f 12 11 8
f 18 8 11
f 28 8 4
f 28 12 8
f 27 8 18
f 10 29 11
f 16 11 29
f 16 18 11
f 30 31 29
f 15 29 31
f 10 30 29
f 16 29 15
f 32 33 31
f 34 31 33
f 35 32 31
f 30 35 31
f 34 15 31
f 36 33 32
f 34 33 36
f 37 32 35
f 37 36 32
f 38 35 30
f 37 35 38
f 39 30 10
f 39 38 30
f 39 10 9
f 14 4 13
f 19 28 4
f 20 4 14
f 19 4 20
f 14 13 12
f 40 12 28
f 14 12 40
f 19 40 28
f 34 39 9
f 34 9 15
f 37 38 39
f 37 39 36
f 34 36 39
f 19 18 16
f 17 27 18
f 14 40 16
f 19 16 40
f 25 26 27
f 25 27 24
f 17 24 27

